<?xml version="1.0" encoding="UTF-8" standalone="no"?>
<!DOCTYPE svg PUBLIC "-//W3C//DTD SVG 1.1//EN"
 "http://www.w3.org/Graphics/SVG/1.1/DTD/svg11.dtd">
<!-- Generated by graphviz version 7.0.0 (20221023.0053)
 -->
<!-- Title: Decoder.cpp Pages: 1 -->
<!--zoomable 357 -->
<svg id="main" version="1.1" xmlns="http://www.w3.org/2000/svg" xmlns:xlink="http://www.w3.org/1999/xlink" xml:space="preserve" onload="init(evt)">
<style type="text/css"><![CDATA[
.edge:hover path { stroke: red; }
.edge:hover polygon { stroke: red; fill: red; }
]]></style>
<script type="text/javascript"><![CDATA[
var edges = document.getElementsByTagName('g');
if (edges && edges.length) {
  for (var i=0;i<edges.length;i++) {
    if (edges[i].id.substr(0,4)=='edge') {
      edges[i].setAttribute('class','edge');
    }
  }
}
]]></script>
        <defs>
                <circle id="rim" cx="0" cy="0" r="7"/>
                <circle id="rim2" cx="0" cy="0" r="3.5"/>
                <g id="zoomPlus">
                        <use xlink:href="#rim" fill="#404040">
                                <set attributeName="fill" to="#808080" begin="zoomplus.mouseover" end="zoomplus.mouseout"/>
                        </use>
                        <path d="M-4,0h8M0,-4v8" fill="none" stroke="white" stroke-width="1.5" pointer-events="none"/>
                </g>
                <g id="zoomMin">
                        <use xlink:href="#rim" fill="#404040">
                                <set attributeName="fill" to="#808080" begin="zoomminus.mouseover" end="zoomminus.mouseout"/>
                        </use>
                        <path d="M-4,0h8" fill="none" stroke="white" stroke-width="1.5" pointer-events="none"/>
                </g>
                <g id="dirArrow">
                        <path fill="none" stroke="white" stroke-width="1.5" d="M0,-3.0v7 M-2.5,-0.5L0,-3.0L2.5,-0.5"/>
                </g>
               <g id="resetDef">
                       <use xlink:href="#rim2" fill="#404040">
                               <set attributeName="fill" to="#808080" begin="reset.mouseover" end="reset.mouseout"/>
                       </use>
               </g>
        </defs>

<script type="text/javascript">
var viewWidth = 963;
var viewHeight = 357;
var sectionId = 'dynsection-0';
</script>
<script xlink:href="../../svgpan.js"/>
<svg id="graph" class="graph">
<g id="viewport">
<title>Decoder.cpp</title>
<!-- Node1 -->
<g id="node1" class="node">
<title>Node1</title>
<g id="a_node1"><a xlink:title=" ">
<polygon fill="#999999" stroke="#666666" points="578.5,-349 507.5,-349 507.5,-330 578.5,-330 578.5,-349"/>
<text text-anchor="middle" x="543" y="-337" font-family="Helvetica,sans-Serif" font-size="10.00">Decoder.cpp</text>
</a>
</g>
</g>
<!-- Node2 -->
<g id="node2" class="node">
<title>Node2</title>
<g id="a_node2"><a xlink:title=" ">
<polygon fill="#e0e0e0" stroke="#999999" points="56,-294 0,-294 0,-275 56,-275 56,-294"/>
<text text-anchor="middle" x="28" y="-282" font-family="Helvetica,sans-Serif" font-size="10.00">algorithm</text>
</a>
</g>
</g>
<!-- Node1&#45;&gt;Node2 -->
<g id="edge1" class="edge">
<title>Node1&#45;&gt;Node2</title>
<path fill="none" stroke="#63b8ff" d="M507.12,-336.79C428.97,-332.73 237.43,-320.87 67.37,-294.17"/>
<polygon fill="#63b8ff" stroke="#63b8ff" points="68.13,-290.74 57.7,-292.62 67.02,-297.66 68.13,-290.74"/>
</g>
<!-- Node3 -->
<g id="node3" class="node">
<title>Node3</title>
<g id="a_node3"><a xlink:title=" ">
<polygon fill="#e0e0e0" stroke="#999999" points="120,-294 74,-294 74,-275 120,-275 120,-294"/>
<text text-anchor="middle" x="97" y="-282" font-family="Helvetica,sans-Serif" font-size="10.00">cstring</text>
</a>
</g>
</g>
<!-- Node1&#45;&gt;Node3 -->
<g id="edge2" class="edge">
<title>Node1&#45;&gt;Node3</title>
<path fill="none" stroke="#63b8ff" d="M507.01,-336.48C436.66,-332.15 275.86,-320.29 131.57,-294.2"/>
<polygon fill="#63b8ff" stroke="#63b8ff" points="132.28,-290.78 121.81,-292.41 131.02,-297.66 132.28,-290.78"/>
</g>
<!-- Node4 -->
<g id="node4" class="node">
<title>Node4</title>
<g id="a_node4"><a xlink:href="../../da/dbb/_compressed_vector_node_impl_8h.html" target="_top" xlink:title=" ">
<polygon fill="white" stroke="#666666" points="549.5,-294 398.5,-294 398.5,-275 549.5,-275 549.5,-294"/>
<text text-anchor="middle" x="474" y="-282" font-family="Helvetica,sans-Serif" font-size="10.00">CompressedVectorNodeImpl.h</text>
</a>
</g>
</g>
<!-- Node1&#45;&gt;Node4 -->
<g id="edge3" class="edge">
<title>Node1&#45;&gt;Node4</title>
<path fill="none" stroke="#63b8ff" d="M531.3,-329.51C521.22,-321.77 506.46,-310.43 494.44,-301.2"/>
<polygon fill="#63b8ff" stroke="#63b8ff" points="496.79,-298.6 486.73,-295.28 492.53,-304.15 496.79,-298.6"/>
</g>
<!-- Node18 -->
<g id="node18" class="node">
<title>Node18</title>
<g id="a_node18"><a xlink:href="../../d9/d00/_decoder_8h.html" target="_top" xlink:title=" ">
<polygon fill="white" stroke="#666666" points="720.5,-239 659.5,-239 659.5,-220 720.5,-220 720.5,-239"/>
<text text-anchor="middle" x="690" y="-227" font-family="Helvetica,sans-Serif" font-size="10.00">Decoder.h</text>
</a>
</g>
</g>
<!-- Node1&#45;&gt;Node18 -->
<g id="edge19" class="edge">
<title>Node1&#45;&gt;Node18</title>
<path fill="none" stroke="#63b8ff" d="M578.81,-337.32C610.95,-334.22 656.82,-324.31 682,-294 691.89,-282.09 693.39,-264.33 692.69,-250.62"/>
<polygon fill="#63b8ff" stroke="#63b8ff" points="696.21,-250.58 691.76,-240.96 689.24,-251.25 696.21,-250.58"/>
</g>
<!-- Node19 -->
<g id="node19" class="node">
<title>Node19</title>
<g id="a_node19"><a xlink:href="../../d4/d15/_float_node_impl_8h.html" target="_top" xlink:title=" ">
<polygon fill="white" stroke="#666666" points="656.5,-294 567.5,-294 567.5,-275 656.5,-275 656.5,-294"/>
<text text-anchor="middle" x="612" y="-282" font-family="Helvetica,sans-Serif" font-size="10.00">FloatNodeImpl.h</text>
</a>
</g>
</g>
<!-- Node1&#45;&gt;Node19 -->
<g id="edge21" class="edge">
<title>Node1&#45;&gt;Node19</title>
<path fill="none" stroke="#63b8ff" d="M554.7,-329.51C564.78,-321.77 579.54,-310.43 591.56,-301.2"/>
<polygon fill="#63b8ff" stroke="#63b8ff" points="593.47,-304.15 599.27,-295.28 589.21,-298.6 593.47,-304.15"/>
</g>
<!-- Node20 -->
<g id="node20" class="node">
<title>Node20</title>
<g id="a_node20"><a xlink:href="../../da/d09/_image_file_impl_8h.html" target="_top" xlink:title=" ">
<polygon fill="white" stroke="#666666" points="825,-239 739,-239 739,-220 825,-220 825,-239"/>
<text text-anchor="middle" x="782" y="-227" font-family="Helvetica,sans-Serif" font-size="10.00">ImageFileImpl.h</text>
</a>
</g>
</g>
<!-- Node1&#45;&gt;Node20 -->
<g id="edge23" class="edge">
<title>Node1&#45;&gt;Node20</title>
<path fill="none" stroke="#63b8ff" d="M578.73,-332.43C611.51,-325.93 660.8,-313.79 700,-294 724.72,-281.52 749.34,-261.11 765.05,-246.81"/>
<polygon fill="#63b8ff" stroke="#63b8ff" points="767.18,-249.61 772.1,-240.23 762.4,-244.5 767.18,-249.61"/>
</g>
<!-- Node21 -->
<g id="node21" class="node">
<title>Node21</title>
<g id="a_node21"><a xlink:href="../../d4/d47/_integer_node_impl_8h.html" target="_top" xlink:title=" ">
<polygon fill="white" stroke="#666666" points="235.5,-294 138.5,-294 138.5,-275 235.5,-275 235.5,-294"/>
<text text-anchor="middle" x="187" y="-282" font-family="Helvetica,sans-Serif" font-size="10.00">IntegerNodeImpl.h</text>
</a>
</g>
</g>
<!-- Node1&#45;&gt;Node21 -->
<g id="edge26" class="edge">
<title>Node1&#45;&gt;Node21</title>
<path fill="none" stroke="#63b8ff" d="M507.1,-333.16C452.99,-325.11 347.01,-309.34 247.03,-294.45"/>
<polygon fill="#63b8ff" stroke="#63b8ff" points="247.72,-291.02 237.31,-293 246.69,-297.94 247.72,-291.02"/>
</g>
<!-- Node22 -->
<g id="node22" class="node">
<title>Node22</title>
<g id="a_node22"><a xlink:href="../../d5/dae/_scaled_integer_node_impl_8h.html" target="_top" xlink:title=" ">
<polygon fill="white" stroke="#666666" points="380.5,-294 253.5,-294 253.5,-275 380.5,-275 380.5,-294"/>
<text text-anchor="middle" x="317" y="-282" font-family="Helvetica,sans-Serif" font-size="10.00">ScaledIntegerNodeImpl.h</text>
</a>
</g>
</g>
<!-- Node1&#45;&gt;Node22 -->
<g id="edge28" class="edge">
<title>Node1&#45;&gt;Node22</title>
<path fill="none" stroke="#63b8ff" d="M507.19,-330.1C469.14,-321.18 408.73,-307.01 366.22,-297.04"/>
<polygon fill="#63b8ff" stroke="#63b8ff" points="367.3,-293.7 356.76,-294.82 365.7,-300.52 367.3,-293.7"/>
</g>
<!-- Node23 -->
<g id="node23" class="node">
<title>Node23</title>
<g id="a_node23"><a xlink:href="../../d4/d90/_source_dest_buffer_impl_8h.html" target="_top" xlink:title=" ">
<polygon fill="white" stroke="#666666" points="641,-239 519,-239 519,-220 641,-220 641,-239"/>
<text text-anchor="middle" x="580" y="-227" font-family="Helvetica,sans-Serif" font-size="10.00">SourceDestBufferImpl.h</text>
</a>
</g>
</g>
<!-- Node1&#45;&gt;Node23 -->
<g id="edge30" class="edge">
<title>Node1&#45;&gt;Node23</title>
<path fill="none" stroke="#63b8ff" d="M578.74,-336.27C607.57,-332.37 646.44,-321.88 666,-294 681.62,-271.74 651.19,-254.16 622.31,-243.2"/>
<polygon fill="#63b8ff" stroke="#63b8ff" points="623.85,-240.03 613.25,-239.97 621.5,-246.62 623.85,-240.03"/>
</g>
<!-- Node24 -->
<g id="node24" class="node">
<title>Node24</title>
<g id="a_node24"><a xlink:href="../../db/d42/_string_functions_8h.html" target="_top" xlink:title=" ">
<polygon fill="white" stroke="#666666" points="909.5,-74 816.5,-74 816.5,-55 909.5,-55 909.5,-74"/>
<text text-anchor="middle" x="863" y="-62" font-family="Helvetica,sans-Serif" font-size="10.00">StringFunctions.h</text>
</a>
</g>
</g>
<!-- Node1&#45;&gt;Node24 -->
<g id="edge32" class="edge">
<title>Node1&#45;&gt;Node24</title>
<path fill="none" stroke="#63b8ff" d="M578.94,-333.97C661.76,-322.53 859,-289.13 859,-230.5 859,-230.5 859,-230.5 859,-173.5 859,-142.9 860.62,-107.46 861.8,-85.76"/>
<polygon fill="#63b8ff" stroke="#63b8ff" points="865.29,-86.15 862.36,-75.97 858.3,-85.75 865.29,-86.15"/>
</g>
<!-- Node5 -->
<g id="node5" class="node">
<title>Node5</title>
<g id="a_node5"><a xlink:href="../../df/d7b/_node_impl_8h.html" target="_top" xlink:title=" ">
<polygon fill="white" stroke="#666666" points="500.5,-239 433.5,-239 433.5,-220 500.5,-220 500.5,-239"/>
<text text-anchor="middle" x="467" y="-227" font-family="Helvetica,sans-Serif" font-size="10.00">NodeImpl.h</text>
</a>
</g>
</g>
<!-- Node4&#45;&gt;Node5 -->
<g id="edge4" class="edge">
<title>Node4&#45;&gt;Node5</title>
<path fill="none" stroke="#63b8ff" d="M472.84,-274.75C471.98,-268.19 470.76,-258.95 469.66,-250.6"/>
<polygon fill="#63b8ff" stroke="#63b8ff" points="473.16,-250.4 468.38,-240.94 466.22,-251.31 473.16,-250.4"/>
</g>
<!-- Node6 -->
<g id="node6" class="node">
<title>Node6</title>
<g id="a_node6"><a xlink:href="../../db/d1f/_common_8h.html" target="_top" xlink:title=" ">
<polygon fill="white" stroke="#666666" points="616.5,-184 551.5,-184 551.5,-165 616.5,-165 616.5,-184"/>
<text text-anchor="middle" x="584" y="-172" font-family="Helvetica,sans-Serif" font-size="10.00">Common.h</text>
</a>
</g>
</g>
<!-- Node5&#45;&gt;Node6 -->
<g id="edge5" class="edge">
<title>Node5&#45;&gt;Node6</title>
<path fill="none" stroke="#63b8ff" d="M486.85,-219.51C505.28,-211.16 532.98,-198.61 554.09,-189.05"/>
<polygon fill="#63b8ff" stroke="#63b8ff" points="555.4,-192.3 563.07,-184.98 552.51,-185.92 555.4,-192.3"/>
</g>
<!-- Node7 -->
<g id="node7" class="node">
<title>Node7</title>
<g id="a_node7"><a xlink:title=" ">
<polygon fill="#e0e0e0" stroke="#999999" points="494,-129 464,-129 464,-110 494,-110 494,-129"/>
<text text-anchor="middle" x="479" y="-117" font-family="Helvetica,sans-Serif" font-size="10.00">set</text>
</a>
</g>
</g>
<!-- Node6&#45;&gt;Node7 -->
<g id="edge6" class="edge">
<title>Node6&#45;&gt;Node7</title>
<path fill="none" stroke="#63b8ff" d="M566.19,-164.51C549.19,-155.93 523.4,-142.91 504.27,-133.26"/>
<polygon fill="#63b8ff" stroke="#63b8ff" points="506.02,-130.22 495.52,-128.84 502.87,-136.47 506.02,-130.22"/>
</g>
<!-- Node8 -->
<g id="node8" class="node">
<title>Node8</title>
<g id="a_node8"><a xlink:title=" ">
<polygon fill="#e0e0e0" stroke="#999999" points="738.5,-19 697.5,-19 697.5,0 738.5,0 738.5,-19"/>
<text text-anchor="middle" x="718" y="-7" font-family="Helvetica,sans-Serif" font-size="10.00">string</text>
</a>
</g>
</g>
<!-- Node6&#45;&gt;Node8 -->
<g id="edge7" class="edge">
<title>Node6&#45;&gt;Node8</title>
<path fill="none" stroke="#63b8ff" d="M598.72,-164.75C623.18,-149.44 672.19,-115.45 699,-74 707.52,-60.82 712.36,-43.66 715.02,-30.5"/>
<polygon fill="#63b8ff" stroke="#63b8ff" points="718.43,-31.31 716.69,-20.86 711.53,-30.11 718.43,-31.31"/>
</g>
<!-- Node9 -->
<g id="node9" class="node">
<title>Node9</title>
<g id="a_node9"><a xlink:title=" ">
<polygon fill="#e0e0e0" stroke="#999999" points="462,-74 418,-74 418,-55 462,-55 462,-74"/>
<text text-anchor="middle" x="440" y="-62" font-family="Helvetica,sans-Serif" font-size="10.00">vector</text>
</a>
</g>
</g>
<!-- Node6&#45;&gt;Node9 -->
<g id="edge8" class="edge">
<title>Node6&#45;&gt;Node9</title>
<path fill="none" stroke="#63b8ff" d="M573.13,-164.7C557.71,-152.27 528.51,-128.99 503,-110 489.57,-100 474.24,-89.16 462.06,-80.68"/>
<polygon fill="#63b8ff" stroke="#63b8ff" points="464.14,-77.86 453.93,-75.04 460.15,-83.62 464.14,-77.86"/>
</g>
<!-- Node10 -->
<g id="node10" class="node">
<title>Node10</title>
<g id="a_node10"><a xlink:href="../../d1/df2/_e57_format_8h.html" target="_top" xlink:title="Header file for the E57 API.">
<polygon fill="white" stroke="#666666" points="623.5,-129 550.5,-129 550.5,-110 623.5,-110 623.5,-129"/>
<text text-anchor="middle" x="587" y="-117" font-family="Helvetica,sans-Serif" font-size="10.00">E57Format.h</text>
</a>
</g>
</g>
<!-- Node6&#45;&gt;Node10 -->
<g id="edge9" class="edge">
<title>Node6&#45;&gt;Node10</title>
<path fill="none" stroke="#63b8ff" d="M584.5,-164.75C584.86,-158.27 585.38,-149.16 585.85,-140.9"/>
<polygon fill="#63b8ff" stroke="#63b8ff" points="589.34,-141.13 586.41,-130.95 582.35,-140.74 589.34,-141.13"/>
</g>
<!-- Node10&#45;&gt;Node9 -->
<g id="edge13" class="edge">
<title>Node10&#45;&gt;Node9</title>
<path fill="none" stroke="#63b8ff" d="M562.06,-109.51C537.44,-100.63 499.66,-87.01 472.65,-77.27"/>
<polygon fill="#63b8ff" stroke="#63b8ff" points="474.19,-74.11 463.59,-74.01 471.81,-80.69 474.19,-74.11"/>
</g>
<!-- Node11 -->
<g id="node11" class="node">
<title>Node11</title>
<g id="a_node11"><a xlink:title=" ">
<polygon fill="#e0e0e0" stroke="#999999" points="689.5,-74 648.5,-74 648.5,-55 689.5,-55 689.5,-74"/>
<text text-anchor="middle" x="669" y="-62" font-family="Helvetica,sans-Serif" font-size="10.00">cfloat</text>
</a>
</g>
</g>
<!-- Node10&#45;&gt;Node11 -->
<g id="edge10" class="edge">
<title>Node10&#45;&gt;Node11</title>
<path fill="none" stroke="#63b8ff" d="M600.91,-109.51C613.24,-101.54 631.47,-89.75 645.97,-80.38"/>
<polygon fill="#63b8ff" stroke="#63b8ff" points="647.53,-83.55 654.02,-75.18 643.73,-77.67 647.53,-83.55"/>
</g>
<!-- Node12 -->
<g id="node12" class="node">
<title>Node12</title>
<g id="a_node12"><a xlink:title=" ">
<polygon fill="#e0e0e0" stroke="#999999" points="526,-74 480,-74 480,-55 526,-55 526,-74"/>
<text text-anchor="middle" x="503" y="-62" font-family="Helvetica,sans-Serif" font-size="10.00">cstdint</text>
</a>
</g>
</g>
<!-- Node10&#45;&gt;Node12 -->
<g id="edge11" class="edge">
<title>Node10&#45;&gt;Node12</title>
<path fill="none" stroke="#63b8ff" d="M572.75,-109.51C560.12,-101.54 541.44,-89.75 526.59,-80.38"/>
<polygon fill="#63b8ff" stroke="#63b8ff" points="528.64,-77.54 518.32,-75.17 524.91,-83.46 528.64,-77.54"/>
</g>
<!-- Node13 -->
<g id="node13" class="node">
<title>Node13</title>
<g id="a_node13"><a xlink:title=" ">
<polygon fill="#e0e0e0" stroke="#999999" points="798,-74 746,-74 746,-55 798,-55 798,-74"/>
<text text-anchor="middle" x="772" y="-62" font-family="Helvetica,sans-Serif" font-size="10.00">memory</text>
</a>
</g>
</g>
<!-- Node10&#45;&gt;Node13 -->
<g id="edge12" class="edge">
<title>Node10&#45;&gt;Node13</title>
<path fill="none" stroke="#63b8ff" d="M618.38,-109.51C650.52,-100.3 700.48,-85.99 734.64,-76.2"/>
<polygon fill="#63b8ff" stroke="#63b8ff" points="735.46,-79.61 744.11,-73.49 733.53,-72.88 735.46,-79.61"/>
</g>
<!-- Node14 -->
<g id="node14" class="node">
<title>Node14</title>
<g id="a_node14"><a xlink:href="../../d4/d6e/_e57_exception_8h.html" target="_top" xlink:title="Exception handling for E57 API.">
<polygon fill="white" stroke="#666666" points="630,-74 544,-74 544,-55 630,-55 630,-74"/>
<text text-anchor="middle" x="587" y="-62" font-family="Helvetica,sans-Serif" font-size="10.00">E57Exception.h</text>
</a>
</g>
</g>
<!-- Node10&#45;&gt;Node14 -->
<g id="edge14" class="edge">
<title>Node10&#45;&gt;Node14</title>
<path fill="none" stroke="#63b8ff" d="M587,-109.75C587,-103.27 587,-94.16 587,-85.9"/>
<polygon fill="#63b8ff" stroke="#63b8ff" points="590.5,-85.96 587,-75.96 583.5,-85.96 590.5,-85.96"/>
</g>
<!-- Node14&#45;&gt;Node8 -->
<g id="edge17" class="edge">
<title>Node14&#45;&gt;Node8</title>
<path fill="none" stroke="#63b8ff" d="M609.22,-54.51C630.52,-45.89 662.87,-32.8 686.76,-23.14"/>
<polygon fill="#63b8ff" stroke="#63b8ff" points="688.04,-26.4 696,-19.4 685.41,-19.91 688.04,-26.4"/>
</g>
<!-- Node15 -->
<g id="node15" class="node">
<title>Node15</title>
<g id="a_node15"><a xlink:title=" ">
<polygon fill="#e0e0e0" stroke="#999999" points="647.5,-19 588.5,-19 588.5,0 647.5,0 647.5,-19"/>
<text text-anchor="middle" x="618" y="-7" font-family="Helvetica,sans-Serif" font-size="10.00">exception</text>
</a>
</g>
</g>
<!-- Node14&#45;&gt;Node15 -->
<g id="edge15" class="edge">
<title>Node14&#45;&gt;Node15</title>
<path fill="none" stroke="#63b8ff" d="M592.12,-54.75C596.18,-47.81 601.99,-37.86 607.09,-29.16"/>
<polygon fill="#63b8ff" stroke="#63b8ff" points="609.98,-31.15 612.01,-20.75 603.94,-27.61 609.98,-31.15"/>
</g>
<!-- Node16 -->
<g id="node16" class="node">
<title>Node16</title>
<g id="a_node16"><a xlink:title=" ">
<polygon fill="#e0e0e0" stroke="#999999" points="815,-19 761,-19 761,0 815,0 815,-19"/>
<text text-anchor="middle" x="788" y="-7" font-family="Helvetica,sans-Serif" font-size="10.00">iostream</text>
</a>
</g>
</g>
<!-- Node14&#45;&gt;Node16 -->
<g id="edge16" class="edge">
<title>Node14&#45;&gt;Node16</title>
<path fill="none" stroke="#63b8ff" d="M621.1,-54.51C656.72,-45.11 712.51,-30.41 749.65,-20.61"/>
<polygon fill="#63b8ff" stroke="#63b8ff" points="750.29,-24.06 759.07,-18.13 748.51,-17.29 750.29,-24.06"/>
</g>
<!-- Node17 -->
<g id="node17" class="node">
<title>Node17</title>
<g id="a_node17"><a xlink:title=" ">
<polygon fill="#e0e0e0" stroke="#999999" points="570.5,-19 499.5,-19 499.5,0 570.5,0 570.5,-19"/>
<text text-anchor="middle" x="535" y="-7" font-family="Helvetica,sans-Serif" font-size="10.00">E57Export.h</text>
</a>
</g>
</g>
<!-- Node14&#45;&gt;Node17 -->
<g id="edge18" class="edge">
<title>Node14&#45;&gt;Node17</title>
<path fill="none" stroke="#63b8ff" d="M578.41,-54.75C571.16,-47.35 560.55,-36.54 551.63,-27.45"/>
<polygon fill="#63b8ff" stroke="#63b8ff" points="554.34,-25.21 544.83,-20.52 549.34,-30.11 554.34,-25.21"/>
</g>
<!-- Node18&#45;&gt;Node6 -->
<g id="edge20" class="edge">
<title>Node18&#45;&gt;Node6</title>
<path fill="none" stroke="#63b8ff" d="M672.02,-219.51C655.55,-211.27 630.91,-198.96 611.89,-189.45"/>
<polygon fill="#63b8ff" stroke="#63b8ff" points="613.58,-186.38 603.07,-185.03 610.45,-192.64 613.58,-186.38"/>
</g>
<!-- Node19&#45;&gt;Node5 -->
<g id="edge22" class="edge">
<title>Node19&#45;&gt;Node5</title>
<path fill="none" stroke="#63b8ff" d="M587.4,-274.51C563.93,-265.93 528.33,-252.92 501.93,-243.27"/>
<polygon fill="#63b8ff" stroke="#63b8ff" points="503.25,-240.02 492.66,-239.88 500.85,-246.6 503.25,-240.02"/>
</g>
<!-- Node20&#45;&gt;Node6 -->
<g id="edge25" class="edge">
<title>Node20&#45;&gt;Node6</title>
<path fill="none" stroke="#63b8ff" d="M748.41,-219.51C715.12,-210.6 663.95,-196.9 627.55,-187.16"/>
<polygon fill="#63b8ff" stroke="#63b8ff" points="628.79,-183.87 618.23,-184.66 626.98,-190.63 628.79,-183.87"/>
</g>
<!-- Node20&#45;&gt;Node13 -->
<g id="edge24" class="edge">
<title>Node20&#45;&gt;Node13</title>
<path fill="none" stroke="#63b8ff" d="M781.46,-219.74C779.92,-194.53 775.43,-121.36 773.23,-85.62"/>
<polygon fill="#63b8ff" stroke="#63b8ff" points="776.74,-85.58 772.63,-75.82 769.75,-86.01 776.74,-85.58"/>
</g>
<!-- Node21&#45;&gt;Node5 -->
<g id="edge27" class="edge">
<title>Node21&#45;&gt;Node5</title>
<path fill="none" stroke="#63b8ff" d="M234.5,-274.51C287.01,-264.57 370.94,-248.68 422.3,-238.96"/>
<polygon fill="#63b8ff" stroke="#63b8ff" points="422.71,-242.45 431.88,-237.15 421.41,-235.57 422.71,-242.45"/>
</g>
<!-- Node22&#45;&gt;Node5 -->
<g id="edge29" class="edge">
<title>Node22&#45;&gt;Node5</title>
<path fill="none" stroke="#63b8ff" d="M342.45,-274.51C366.76,-265.92 403.66,-252.88 430.99,-243.22"/>
<polygon fill="#63b8ff" stroke="#63b8ff" points="431.99,-246.58 440.25,-239.95 429.66,-239.98 431.99,-246.58"/>
</g>
<!-- Node23&#45;&gt;Node6 -->
<g id="edge31" class="edge">
<title>Node23&#45;&gt;Node6</title>
<path fill="none" stroke="#63b8ff" d="M580.66,-219.75C581.15,-213.27 581.84,-204.16 582.46,-195.9"/>
<polygon fill="#63b8ff" stroke="#63b8ff" points="585.95,-196.19 583.21,-185.95 578.97,-195.66 585.95,-196.19"/>
</g>
<!-- Node24&#45;&gt;Node8 -->
<g id="edge36" class="edge">
<title>Node24&#45;&gt;Node8</title>
<path fill="none" stroke="#63b8ff" d="M838.4,-54.51C813.94,-45.57 776.31,-31.81 749.64,-22.06"/>
<polygon fill="#63b8ff" stroke="#63b8ff" points="750.96,-18.82 740.37,-18.68 748.56,-25.4 750.96,-18.82"/>
</g>
<!-- Node24&#45;&gt;Node16 -->
<g id="edge34" class="edge">
<title>Node24&#45;&gt;Node16</title>
<path fill="none" stroke="#63b8ff" d="M850.28,-54.51C839.22,-46.7 822.96,-35.21 809.83,-25.93"/>
<polygon fill="#63b8ff" stroke="#63b8ff" points="811.96,-23.14 801.77,-20.23 807.92,-28.86 811.96,-23.14"/>
</g>
<!-- Node25 -->
<g id="node25" class="node">
<title>Node25</title>
<g id="a_node25"><a xlink:title=" ">
<polygon fill="#e0e0e0" stroke="#999999" points="885,-19 835,-19 835,0 885,0 885,-19"/>
<text text-anchor="middle" x="860" y="-7" font-family="Helvetica,sans-Serif" font-size="10.00">iomanip</text>
</a>
</g>
</g>
<!-- Node24&#45;&gt;Node25 -->
<g id="edge33" class="edge">
<title>Node24&#45;&gt;Node25</title>
<path fill="none" stroke="#63b8ff" d="M862.5,-54.75C862.14,-48.27 861.62,-39.16 861.15,-30.9"/>
<polygon fill="#63b8ff" stroke="#63b8ff" points="864.65,-30.74 860.59,-20.95 857.66,-31.13 864.65,-30.74"/>
</g>
<!-- Node26 -->
<g id="node26" class="node">
<title>Node26</title>
<g id="a_node26"><a xlink:title=" ">
<polygon fill="#e0e0e0" stroke="#999999" points="955,-19 903,-19 903,0 955,0 955,-19"/>
<text text-anchor="middle" x="929" y="-7" font-family="Helvetica,sans-Serif" font-size="10.00">sstream</text>
</a>
</g>
</g>
<!-- Node24&#45;&gt;Node26 -->
<g id="edge35" class="edge">
<title>Node24&#45;&gt;Node26</title>
<path fill="none" stroke="#63b8ff" d="M874.2,-54.51C883.74,-46.85 897.67,-35.66 909.11,-26.47"/>
<polygon fill="#63b8ff" stroke="#63b8ff" points="911.18,-29.3 916.79,-20.31 906.8,-23.84 911.18,-29.3"/>
</g>
</g>
</svg>
        <g id="navigator" transform="translate(0 0)" fill="#404254">
                <rect fill="#f2f5e9" fill-opacity="0.5" stroke="#606060" stroke-width=".5" x="0" y="0" width="60" height="60"/>
                <use id="zoomplus" xlink:href="#zoomPlus" x="17" y="9" onmousedown="handleZoom(evt,'in')"/>
                <use id="zoomminus" xlink:href="#zoomMin" x="42" y="9" onmousedown="handleZoom(evt,'out')"/>
                <use id="reset" xlink:href="#resetDef" x="30" y="36" onmousedown="handleReset()"/>
                <g id="arrowUp" xlink:href="#dirArrow" transform="translate(30 24)" onmousedown="handlePan(0,-1)">
                  <use xlink:href="#rim" fill="#404040">
                        <set attributeName="fill" to="#808080" begin="arrowUp.mouseover" end="arrowUp.mouseout"/>
                  </use>
                  <path fill="none" stroke="white" stroke-width="1.5" d="M0,-3.0v7 M-2.5,-0.5L0,-3.0L2.5,-0.5"/>
                </g>
                <g id="arrowRight" xlink:href="#dirArrow" transform="rotate(90) translate(36 -43)" onmousedown="handlePan(1,0)">
                  <use xlink:href="#rim" fill="#404040">
                        <set attributeName="fill" to="#808080" begin="arrowRight.mouseover" end="arrowRight.mouseout"/>
                  </use>
                  <path fill="none" stroke="white" stroke-width="1.5" d="M0,-3.0v7 M-2.5,-0.5L0,-3.0L2.5,-0.5"/>
                </g>
                <g id="arrowDown" xlink:href="#dirArrow" transform="rotate(180) translate(-30 -48)" onmousedown="handlePan(0,1)">
                  <use xlink:href="#rim" fill="#404040">
                        <set attributeName="fill" to="#808080" begin="arrowDown.mouseover" end="arrowDown.mouseout"/>
                  </use>
                  <path fill="none" stroke="white" stroke-width="1.5" d="M0,-3.0v7 M-2.5,-0.5L0,-3.0L2.5,-0.5"/>
                </g>
                <g id="arrowLeft" xlink:href="#dirArrow" transform="rotate(270) translate(-36 17)" onmousedown="handlePan(-1,0)">
                  <use xlink:href="#rim" fill="#404040">
                        <set attributeName="fill" to="#808080" begin="arrowLeft.mouseover" end="arrowLeft.mouseout"/>
                  </use>
                  <path fill="none" stroke="white" stroke-width="1.5" d="M0,-3.0v7 M-2.5,-0.5L0,-3.0L2.5,-0.5"/>
                </g>
        </g>
        <svg viewBox="0 0 15 15" width="100%" height="30px" preserveAspectRatio="xMaxYMin meet">
         <g id="arrow_out" transform="scale(0.3 0.3)">
          <a xlink:href="_decoder_8cpp__incl_org.svg" target="_base">
           <rect id="button" ry="5" rx="5" y="6" x="6" height="38" width="38"
                fill="#f2f5e9" fill-opacity="0.5" stroke="#606060" stroke-width="1.0"/>
           <path id="arrow"
             d="M 11.500037,31.436501 C 11.940474,20.09759 22.043105,11.32322 32.158766,21.979434 L 37.068811,17.246167 C 37.068811,17.246167 37.088388,32 37.088388,32 L 22.160133,31.978069 C 22.160133,31.978069 26.997745,27.140456 26.997745,27.140456 C 18.528582,18.264221 13.291696,25.230495 11.500037,31.436501 z"
             style="fill:#404040;"/>
          </a>
         </g>
        </svg>
</svg>
