<?xml version="1.0" encoding="UTF-8" standalone="no"?>
<!DOCTYPE svg PUBLIC "-//W3C//DTD SVG 1.1//EN"
 "http://www.w3.org/Graphics/SVG/1.1/DTD/svg11.dtd">
<!-- Generated by graphviz version 2.49.0 (20210828.1703)
 -->
<!-- Title: Decoder.cpp Pages: 1 -->
<svg width="867pt" height="364pt"
 viewBox="0.00 0.00 866.50 364.00" xmlns="http://www.w3.org/2000/svg" xmlns:xlink="http://www.w3.org/1999/xlink">
<g id="graph0" class="graph" transform="scale(1 1) rotate(0) translate(4 360)">
<title>Decoder.cpp</title>
<polygon fill="white" stroke="transparent" points="-4,4 -4,-360 862.5,-360 862.5,4 -4,4"/>
<!-- Node1 -->
<g id="node1" class="node">
<title>Node1</title>
<g id="a_node1"><a xlink:title=" ">
<polygon fill="#bfbfbf" stroke="black" points="393.5,-336.5 393.5,-355.5 466.5,-355.5 466.5,-336.5 393.5,-336.5"/>
<text text-anchor="middle" x="430" y="-343.5" font-family="Helvetica,sans-Serif" font-size="10.00">Decoder.cpp</text>
</a>
</g>
</g>
<!-- Node2 -->
<g id="node2" class="node">
<title>Node2</title>
<g id="a_node2"><a xlink:title=" ">
<polygon fill="white" stroke="#bfbfbf" points="0,-280.5 0,-299.5 58,-299.5 58,-280.5 0,-280.5"/>
<text text-anchor="middle" x="29" y="-287.5" font-family="Helvetica,sans-Serif" font-size="10.00">algorithm</text>
</a>
</g>
</g>
<!-- Node1&#45;&gt;Node2 -->
<g id="edge1" class="edge">
<title>Node1&#45;&gt;Node2</title>
<path fill="none" stroke="midnightblue" d="M393.48,-341.8C329.54,-335.92 193.04,-322.08 68.48,-300.1"/>
<polygon fill="midnightblue" stroke="midnightblue" points="68.85,-296.61 58.39,-298.3 67.62,-303.5 68.85,-296.61"/>
</g>
<!-- Node3 -->
<g id="node3" class="node">
<title>Node3</title>
<g id="a_node3"><a xlink:title=" ">
<polygon fill="white" stroke="#bfbfbf" points="76,-280.5 76,-299.5 122,-299.5 122,-280.5 76,-280.5"/>
<text text-anchor="middle" x="99" y="-287.5" font-family="Helvetica,sans-Serif" font-size="10.00">cstring</text>
</a>
</g>
</g>
<!-- Node1&#45;&gt;Node3 -->
<g id="edge2" class="edge">
<title>Node1&#45;&gt;Node3</title>
<path fill="none" stroke="midnightblue" d="M393.37,-340.98C338.56,-334.64 231.83,-321.05 132.26,-300.05"/>
<polygon fill="midnightblue" stroke="midnightblue" points="132.85,-296.6 122.33,-297.93 131.38,-303.44 132.85,-296.6"/>
</g>
<!-- Node4 -->
<g id="node4" class="node">
<title>Node4</title>
<g id="a_node4"><a xlink:href="../../da/dbb/_compressed_vector_node_impl_8h.html" target="_top" xlink:title=" ">
<polygon fill="white" stroke="black" points="512.5,-280.5 512.5,-299.5 665.5,-299.5 665.5,-280.5 512.5,-280.5"/>
<text text-anchor="middle" x="589" y="-287.5" font-family="Helvetica,sans-Serif" font-size="10.00">CompressedVectorNodeImpl.h</text>
</a>
</g>
</g>
<!-- Node1&#45;&gt;Node4 -->
<g id="edge3" class="edge">
<title>Node1&#45;&gt;Node4</title>
<path fill="none" stroke="midnightblue" d="M455.19,-336.44C481.94,-327.36 524.4,-312.94 554.31,-302.78"/>
<polygon fill="midnightblue" stroke="midnightblue" points="555.58,-306.05 563.92,-299.52 553.33,-299.42 555.58,-306.05"/>
</g>
<!-- Node19 -->
<g id="node19" class="node">
<title>Node19</title>
<g id="a_node19"><a xlink:href="../../d9/d00/_decoder_8h.html" target="_top" xlink:title=" ">
<polygon fill="white" stroke="black" points="687,-224.5 687,-243.5 749,-243.5 749,-224.5 687,-224.5"/>
<text text-anchor="middle" x="718" y="-231.5" font-family="Helvetica,sans-Serif" font-size="10.00">Decoder.h</text>
</a>
</g>
</g>
<!-- Node1&#45;&gt;Node19 -->
<g id="edge21" class="edge">
<title>Node1&#45;&gt;Node19</title>
<path fill="none" stroke="midnightblue" d="M466.54,-342.99C529.97,-338.81 656.91,-327.22 691,-300 705.15,-288.7 711.97,-268.69 715.2,-253.85"/>
<polygon fill="midnightblue" stroke="midnightblue" points="718.69,-254.2 717.03,-243.74 711.8,-252.96 718.69,-254.2"/>
</g>
<!-- Node20 -->
<g id="node20" class="node">
<title>Node20</title>
<g id="a_node20"><a xlink:href="../../d4/d15/_float_node_impl_8h.html" target="_top" xlink:title=" ">
<polygon fill="white" stroke="black" points="140,-280.5 140,-299.5 230,-299.5 230,-280.5 140,-280.5"/>
<text text-anchor="middle" x="185" y="-287.5" font-family="Helvetica,sans-Serif" font-size="10.00">FloatNodeImpl.h</text>
</a>
</g>
</g>
<!-- Node1&#45;&gt;Node20 -->
<g id="edge23" class="edge">
<title>Node1&#45;&gt;Node20</title>
<path fill="none" stroke="midnightblue" d="M393.32,-336.92C350.91,-327.57 280.93,-312.14 233.92,-301.78"/>
<polygon fill="midnightblue" stroke="midnightblue" points="234.48,-298.32 223.96,-299.59 232.97,-305.16 234.48,-298.32"/>
</g>
<!-- Node21 -->
<g id="node21" class="node">
<title>Node21</title>
<g id="a_node21"><a xlink:href="../../da/d09/_image_file_impl_8h.html" target="_top" xlink:title=" ">
<polygon fill="white" stroke="black" points="767,-224.5 767,-243.5 855,-243.5 855,-224.5 767,-224.5"/>
<text text-anchor="middle" x="811" y="-231.5" font-family="Helvetica,sans-Serif" font-size="10.00">ImageFileImpl.h</text>
</a>
</g>
</g>
<!-- Node1&#45;&gt;Node21 -->
<g id="edge25" class="edge">
<title>Node1&#45;&gt;Node21</title>
<path fill="none" stroke="midnightblue" d="M466.88,-344.02C522,-341.49 628.32,-332.42 712,-300 743.09,-287.95 774.52,-265.09 793.38,-249.94"/>
<polygon fill="midnightblue" stroke="midnightblue" points="795.61,-252.64 801.11,-243.59 791.16,-247.23 795.61,-252.64"/>
</g>
<!-- Node22 -->
<g id="node22" class="node">
<title>Node22</title>
<g id="a_node22"><a xlink:href="../../d4/d47/_integer_node_impl_8h.html" target="_top" xlink:title=" ">
<polygon fill="white" stroke="black" points="248.5,-280.5 248.5,-299.5 347.5,-299.5 347.5,-280.5 248.5,-280.5"/>
<text text-anchor="middle" x="298" y="-287.5" font-family="Helvetica,sans-Serif" font-size="10.00">IntegerNodeImpl.h</text>
</a>
</g>
</g>
<!-- Node1&#45;&gt;Node22 -->
<g id="edge28" class="edge">
<title>Node1&#45;&gt;Node22</title>
<path fill="none" stroke="midnightblue" d="M409.08,-336.44C387.26,-327.52 352.85,-313.44 328.11,-303.32"/>
<polygon fill="midnightblue" stroke="midnightblue" points="329.4,-300.06 318.82,-299.52 326.75,-306.54 329.4,-300.06"/>
</g>
<!-- Node23 -->
<g id="node23" class="node">
<title>Node23</title>
<g id="a_node23"><a xlink:href="../../d5/dae/_scaled_integer_node_impl_8h.html" target="_top" xlink:title=" ">
<polygon fill="white" stroke="black" points="365.5,-280.5 365.5,-299.5 494.5,-299.5 494.5,-280.5 365.5,-280.5"/>
<text text-anchor="middle" x="430" y="-287.5" font-family="Helvetica,sans-Serif" font-size="10.00">ScaledIntegerNodeImpl.h</text>
</a>
</g>
</g>
<!-- Node1&#45;&gt;Node23 -->
<g id="edge30" class="edge">
<title>Node1&#45;&gt;Node23</title>
<path fill="none" stroke="midnightblue" d="M430,-336.08C430,-329.01 430,-318.86 430,-309.99"/>
<polygon fill="midnightblue" stroke="midnightblue" points="433.5,-309.75 430,-299.75 426.5,-309.75 433.5,-309.75"/>
</g>
<!-- Node24 -->
<g id="node24" class="node">
<title>Node24</title>
<g id="a_node24"><a xlink:href="../../d4/d90/_source_dest_buffer_impl_8h.html" target="_top" xlink:title=" ">
<polygon fill="white" stroke="black" points="547,-224.5 547,-243.5 669,-243.5 669,-224.5 547,-224.5"/>
<text text-anchor="middle" x="608" y="-231.5" font-family="Helvetica,sans-Serif" font-size="10.00">SourceDestBufferImpl.h</text>
</a>
</g>
</g>
<!-- Node1&#45;&gt;Node24 -->
<g id="edge32" class="edge">
<title>Node1&#45;&gt;Node24</title>
<path fill="none" stroke="midnightblue" d="M466.68,-343.8C528.41,-340.91 648.91,-331.32 675,-300 691.19,-280.57 662.74,-260.67 638.06,-248.1"/>
<polygon fill="midnightblue" stroke="midnightblue" points="639.41,-244.87 628.89,-243.66 636.36,-251.16 639.41,-244.87"/>
</g>
<!-- Node5 -->
<g id="node5" class="node">
<title>Node5</title>
<g id="a_node5"><a xlink:href="../../df/d7b/_node_impl_8h.html" target="_top" xlink:title=" ">
<polygon fill="white" stroke="black" points="396,-224.5 396,-243.5 464,-243.5 464,-224.5 396,-224.5"/>
<text text-anchor="middle" x="430" y="-231.5" font-family="Helvetica,sans-Serif" font-size="10.00">NodeImpl.h</text>
</a>
</g>
</g>
<!-- Node4&#45;&gt;Node5 -->
<g id="edge4" class="edge">
<title>Node4&#45;&gt;Node5</title>
<path fill="none" stroke="midnightblue" d="M563.81,-280.44C537.06,-271.36 494.6,-256.94 464.69,-246.78"/>
<polygon fill="midnightblue" stroke="midnightblue" points="465.67,-243.42 455.08,-243.52 463.42,-250.05 465.67,-243.42"/>
</g>
<!-- Node6 -->
<g id="node6" class="node">
<title>Node6</title>
<g id="a_node6"><a xlink:href="../../db/d1f/_common_8h.html" target="_top" xlink:title=" ">
<polygon fill="white" stroke="black" points="575.5,-168.5 575.5,-187.5 640.5,-187.5 640.5,-168.5 575.5,-168.5"/>
<text text-anchor="middle" x="608" y="-175.5" font-family="Helvetica,sans-Serif" font-size="10.00">Common.h</text>
</a>
</g>
</g>
<!-- Node5&#45;&gt;Node6 -->
<g id="edge5" class="edge">
<title>Node5&#45;&gt;Node6</title>
<path fill="none" stroke="midnightblue" d="M458.2,-224.44C488.41,-215.28 536.51,-200.69 570.03,-190.52"/>
<polygon fill="midnightblue" stroke="midnightblue" points="571.37,-193.77 579.93,-187.52 569.34,-187.07 571.37,-193.77"/>
</g>
<!-- Node7 -->
<g id="node7" class="node">
<title>Node7</title>
<g id="a_node7"><a xlink:title=" ">
<polygon fill="white" stroke="#bfbfbf" points="697,-112.5 697,-131.5 749,-131.5 749,-112.5 697,-112.5"/>
<text text-anchor="middle" x="723" y="-119.5" font-family="Helvetica,sans-Serif" font-size="10.00">iomanip</text>
</a>
</g>
</g>
<!-- Node6&#45;&gt;Node7 -->
<g id="edge6" class="edge">
<title>Node6&#45;&gt;Node7</title>
<path fill="none" stroke="midnightblue" d="M626.22,-168.44C644.9,-159.68 674.16,-145.94 695.62,-135.86"/>
<polygon fill="midnightblue" stroke="midnightblue" points="697.3,-138.93 704.86,-131.52 694.32,-132.6 697.3,-138.93"/>
</g>
<!-- Node8 -->
<g id="node8" class="node">
<title>Node8</title>
<g id="a_node8"><a xlink:title=" ">
<polygon fill="white" stroke="#bfbfbf" points="725.5,-0.5 725.5,-19.5 780.5,-19.5 780.5,-0.5 725.5,-0.5"/>
<text text-anchor="middle" x="753" y="-7.5" font-family="Helvetica,sans-Serif" font-size="10.00">iostream</text>
</a>
</g>
</g>
<!-- Node6&#45;&gt;Node8 -->
<g id="edge7" class="edge">
<title>Node6&#45;&gt;Node8</title>
<path fill="none" stroke="midnightblue" d="M640.59,-177.65C675.99,-176.38 731.06,-168.21 758,-132 780.4,-101.89 769.13,-54.94 760.26,-29.28"/>
<polygon fill="midnightblue" stroke="midnightblue" points="763.46,-27.85 756.7,-19.69 756.9,-30.28 763.46,-27.85"/>
</g>
<!-- Node9 -->
<g id="node9" class="node">
<title>Node9</title>
<g id="a_node9"><a xlink:title=" ">
<polygon fill="white" stroke="#bfbfbf" points="579,-112.5 579,-131.5 609,-131.5 609,-112.5 579,-112.5"/>
<text text-anchor="middle" x="594" y="-119.5" font-family="Helvetica,sans-Serif" font-size="10.00">set</text>
</a>
</g>
</g>
<!-- Node6&#45;&gt;Node9 -->
<g id="edge8" class="edge">
<title>Node6&#45;&gt;Node9</title>
<path fill="none" stroke="midnightblue" d="M605.69,-168.08C603.83,-160.93 601.16,-150.64 598.85,-141.69"/>
<polygon fill="midnightblue" stroke="midnightblue" points="602.17,-140.55 596.27,-131.75 595.39,-142.31 602.17,-140.55"/>
</g>
<!-- Node10 -->
<g id="node10" class="node">
<title>Node10</title>
<g id="a_node10"><a xlink:title=" ">
<polygon fill="white" stroke="#bfbfbf" points="627,-112.5 627,-131.5 679,-131.5 679,-112.5 627,-112.5"/>
<text text-anchor="middle" x="653" y="-119.5" font-family="Helvetica,sans-Serif" font-size="10.00">sstream</text>
</a>
</g>
</g>
<!-- Node6&#45;&gt;Node10 -->
<g id="edge9" class="edge">
<title>Node6&#45;&gt;Node10</title>
<path fill="none" stroke="midnightblue" d="M615.43,-168.08C621.85,-160.38 631.31,-149.03 639.12,-139.65"/>
<polygon fill="midnightblue" stroke="midnightblue" points="641.99,-141.67 645.71,-131.75 636.62,-137.19 641.99,-141.67"/>
</g>
<!-- Node11 -->
<g id="node11" class="node">
<title>Node11</title>
<g id="a_node11"><a xlink:title=" ">
<polygon fill="white" stroke="#bfbfbf" points="438.5,-0.5 438.5,-19.5 479.5,-19.5 479.5,-0.5 438.5,-0.5"/>
<text text-anchor="middle" x="459" y="-7.5" font-family="Helvetica,sans-Serif" font-size="10.00">string</text>
</a>
</g>
</g>
<!-- Node6&#45;&gt;Node11 -->
<g id="edge10" class="edge">
<title>Node6&#45;&gt;Node11</title>
<path fill="none" stroke="midnightblue" d="M575.23,-174.04C543.73,-169.64 496.39,-158.76 465,-132 437.61,-108.64 428.89,-91.07 437,-56 439.23,-46.36 443.82,-36.41 448.24,-28.31"/>
<polygon fill="midnightblue" stroke="midnightblue" points="451.35,-29.92 453.36,-19.52 445.3,-26.4 451.35,-29.92"/>
</g>
<!-- Node12 -->
<g id="node12" class="node">
<title>Node12</title>
<g id="a_node12"><a xlink:title=" ">
<polygon fill="white" stroke="#bfbfbf" points="446,-56.5 446,-75.5 490,-75.5 490,-56.5 446,-56.5"/>
<text text-anchor="middle" x="468" y="-63.5" font-family="Helvetica,sans-Serif" font-size="10.00">vector</text>
</a>
</g>
</g>
<!-- Node6&#45;&gt;Node12 -->
<g id="edge11" class="edge">
<title>Node6&#45;&gt;Node12</title>
<path fill="none" stroke="midnightblue" d="M575.49,-174.94C545.47,-171.2 502.02,-160.8 478,-132 467.38,-119.27 465.59,-100.07 466.03,-85.84"/>
<polygon fill="midnightblue" stroke="midnightblue" points="469.53,-85.92 466.74,-75.7 462.55,-85.44 469.53,-85.92"/>
</g>
<!-- Node13 -->
<g id="node13" class="node">
<title>Node13</title>
<g id="a_node13"><a xlink:href="../../d1/df2/_e57_format_8h.html" target="_top" xlink:title="header file for the E57 API">
<polygon fill="white" stroke="black" points="487,-112.5 487,-131.5 561,-131.5 561,-112.5 487,-112.5"/>
<text text-anchor="middle" x="524" y="-119.5" font-family="Helvetica,sans-Serif" font-size="10.00">E57Format.h</text>
</a>
</g>
</g>
<!-- Node6&#45;&gt;Node13 -->
<g id="edge12" class="edge">
<title>Node6&#45;&gt;Node13</title>
<path fill="none" stroke="midnightblue" d="M594.5,-168.32C581.4,-159.9 561.29,-146.97 545.89,-137.07"/>
<polygon fill="midnightblue" stroke="midnightblue" points="547.77,-134.12 537.46,-131.65 543.98,-140.01 547.77,-134.12"/>
</g>
<!-- Node13&#45;&gt;Node12 -->
<g id="edge15" class="edge">
<title>Node13&#45;&gt;Node12</title>
<path fill="none" stroke="midnightblue" d="M515,-112.32C506.81,-104.42 494.49,-92.55 484.53,-82.94"/>
<polygon fill="midnightblue" stroke="midnightblue" points="486.79,-80.26 477.16,-75.83 481.93,-85.29 486.79,-80.26"/>
</g>
<!-- Node14 -->
<g id="node14" class="node">
<title>Node14</title>
<g id="a_node14"><a xlink:title=" ">
<polygon fill="white" stroke="#bfbfbf" points="508,-56.5 508,-75.5 548,-75.5 548,-56.5 508,-56.5"/>
<text text-anchor="middle" x="528" y="-63.5" font-family="Helvetica,sans-Serif" font-size="10.00">cfloat</text>
</a>
</g>
</g>
<!-- Node13&#45;&gt;Node14 -->
<g id="edge13" class="edge">
<title>Node13&#45;&gt;Node14</title>
<path fill="none" stroke="midnightblue" d="M524.66,-112.08C525.18,-105.01 525.94,-94.86 526.59,-85.99"/>
<polygon fill="midnightblue" stroke="midnightblue" points="530.1,-85.98 527.35,-75.75 523.12,-85.47 530.1,-85.98"/>
</g>
<!-- Node15 -->
<g id="node15" class="node">
<title>Node15</title>
<g id="a_node15"><a xlink:title=" ">
<polygon fill="white" stroke="#bfbfbf" points="805.5,-56.5 805.5,-75.5 858.5,-75.5 858.5,-56.5 805.5,-56.5"/>
<text text-anchor="middle" x="832" y="-63.5" font-family="Helvetica,sans-Serif" font-size="10.00">memory</text>
</a>
</g>
</g>
<!-- Node13&#45;&gt;Node15 -->
<g id="edge14" class="edge">
<title>Node13&#45;&gt;Node15</title>
<path fill="none" stroke="midnightblue" d="M561.14,-113.66C564.14,-113.09 567.12,-112.53 570,-112 650.1,-97.29 744.25,-81.48 795.03,-73.07"/>
<polygon fill="midnightblue" stroke="midnightblue" points="795.89,-76.48 805.18,-71.4 794.75,-69.57 795.89,-76.48"/>
</g>
<!-- Node16 -->
<g id="node16" class="node">
<title>Node16</title>
<g id="a_node16"><a xlink:href="../../d4/d6e/_e57_exception_8h.html" target="_top" xlink:title=" ">
<polygon fill="white" stroke="black" points="566.5,-56.5 566.5,-75.5 653.5,-75.5 653.5,-56.5 566.5,-56.5"/>
<text text-anchor="middle" x="610" y="-63.5" font-family="Helvetica,sans-Serif" font-size="10.00">E57Exception.h</text>
</a>
</g>
</g>
<!-- Node13&#45;&gt;Node16 -->
<g id="edge16" class="edge">
<title>Node13&#45;&gt;Node16</title>
<path fill="none" stroke="midnightblue" d="M537.82,-112.32C551.23,-103.9 571.82,-90.97 587.59,-81.07"/>
<polygon fill="midnightblue" stroke="midnightblue" points="589.61,-83.94 596.22,-75.65 585.89,-78.01 589.61,-83.94"/>
</g>
<!-- Node16&#45;&gt;Node8 -->
<g id="edge18" class="edge">
<title>Node16&#45;&gt;Node8</title>
<path fill="none" stroke="midnightblue" d="M632.66,-56.44C656.4,-47.48 693.91,-33.31 720.74,-23.18"/>
<polygon fill="midnightblue" stroke="midnightblue" points="722.33,-26.32 730.45,-19.52 719.86,-19.77 722.33,-26.32"/>
</g>
<!-- Node16&#45;&gt;Node11 -->
<g id="edge19" class="edge">
<title>Node16&#45;&gt;Node11</title>
<path fill="none" stroke="midnightblue" d="M586.07,-56.44C559.89,-47.08 517.85,-32.05 489.36,-21.86"/>
<polygon fill="midnightblue" stroke="midnightblue" points="490.49,-18.54 479.9,-18.47 488.13,-25.14 490.49,-18.54"/>
</g>
<!-- Node17 -->
<g id="node17" class="node">
<title>Node17</title>
<g id="a_node17"><a xlink:title=" ">
<polygon fill="white" stroke="#bfbfbf" points="604.5,-0.5 604.5,-19.5 663.5,-19.5 663.5,-0.5 604.5,-0.5"/>
<text text-anchor="middle" x="634" y="-7.5" font-family="Helvetica,sans-Serif" font-size="10.00">exception</text>
</a>
</g>
</g>
<!-- Node16&#45;&gt;Node17 -->
<g id="edge17" class="edge">
<title>Node16&#45;&gt;Node17</title>
<path fill="none" stroke="midnightblue" d="M613.96,-56.08C617.21,-48.77 621.92,-38.18 625.95,-29.1"/>
<polygon fill="midnightblue" stroke="midnightblue" points="629.25,-30.31 630.11,-19.75 622.85,-27.47 629.25,-30.31"/>
</g>
<!-- Node18 -->
<g id="node18" class="node">
<title>Node18</title>
<g id="a_node18"><a xlink:title=" ">
<polygon fill="white" stroke="#bfbfbf" points="514,-0.5 514,-19.5 586,-19.5 586,-0.5 514,-0.5"/>
<text text-anchor="middle" x="550" y="-7.5" font-family="Helvetica,sans-Serif" font-size="10.00">E57Export.h</text>
</a>
</g>
</g>
<!-- Node16&#45;&gt;Node18 -->
<g id="edge20" class="edge">
<title>Node16&#45;&gt;Node18</title>
<path fill="none" stroke="midnightblue" d="M600.36,-56.32C591.49,-48.34 578.13,-36.31 567.39,-26.65"/>
<polygon fill="midnightblue" stroke="midnightblue" points="569.59,-23.92 559.82,-19.83 564.91,-29.13 569.59,-23.92"/>
</g>
<!-- Node19&#45;&gt;Node6 -->
<g id="edge22" class="edge">
<title>Node19&#45;&gt;Node6</title>
<path fill="none" stroke="midnightblue" d="M700.33,-224.32C682.61,-215.62 655.1,-202.12 634.71,-192.11"/>
<polygon fill="midnightblue" stroke="midnightblue" points="636.15,-188.92 625.63,-187.65 633.06,-195.2 636.15,-188.92"/>
</g>
<!-- Node20&#45;&gt;Node5 -->
<g id="edge24" class="edge">
<title>Node20&#45;&gt;Node5</title>
<path fill="none" stroke="midnightblue" d="M223.82,-280.44C267.85,-270.74 339.51,-254.95 385.69,-244.77"/>
<polygon fill="midnightblue" stroke="midnightblue" points="386.7,-248.13 395.71,-242.56 385.19,-241.29 386.7,-248.13"/>
</g>
<!-- Node21&#45;&gt;Node6 -->
<g id="edge27" class="edge">
<title>Node21&#45;&gt;Node6</title>
<path fill="none" stroke="midnightblue" d="M778.83,-224.44C743.94,-215.16 688.11,-200.31 649.83,-190.13"/>
<polygon fill="midnightblue" stroke="midnightblue" points="650.58,-186.7 640.02,-187.52 648.78,-193.47 650.58,-186.7"/>
</g>
<!-- Node21&#45;&gt;Node15 -->
<g id="edge26" class="edge">
<title>Node21&#45;&gt;Node15</title>
<path fill="none" stroke="midnightblue" d="M812.13,-224.08C815.43,-197.95 825.14,-121.21 829.65,-85.58"/>
<polygon fill="midnightblue" stroke="midnightblue" points="833.13,-85.93 830.92,-75.57 826.19,-85.05 833.13,-85.93"/>
</g>
<!-- Node22&#45;&gt;Node5 -->
<g id="edge29" class="edge">
<title>Node22&#45;&gt;Node5</title>
<path fill="none" stroke="midnightblue" d="M318.92,-280.44C340.74,-271.52 375.15,-257.44 399.89,-247.32"/>
<polygon fill="midnightblue" stroke="midnightblue" points="401.25,-250.54 409.18,-243.52 398.6,-244.06 401.25,-250.54"/>
</g>
<!-- Node23&#45;&gt;Node5 -->
<g id="edge31" class="edge">
<title>Node23&#45;&gt;Node5</title>
<path fill="none" stroke="midnightblue" d="M430,-280.08C430,-273.01 430,-262.86 430,-253.99"/>
<polygon fill="midnightblue" stroke="midnightblue" points="433.5,-253.75 430,-243.75 426.5,-253.75 433.5,-253.75"/>
</g>
<!-- Node24&#45;&gt;Node6 -->
<g id="edge33" class="edge">
<title>Node24&#45;&gt;Node6</title>
<path fill="none" stroke="midnightblue" d="M608,-224.08C608,-217.01 608,-206.86 608,-197.99"/>
<polygon fill="midnightblue" stroke="midnightblue" points="611.5,-197.75 608,-187.75 604.5,-197.75 611.5,-197.75"/>
</g>
</g>
</svg>
