<?xml version="1.0" encoding="UTF-8" standalone="no"?>
<!DOCTYPE svg PUBLIC "-//W3C//DTD SVG 1.1//EN"
 "http://www.w3.org/Graphics/SVG/1.1/DTD/svg11.dtd">
<!-- Generated by graphviz version 8.1.0 (20230707.0739)
 -->
<!-- Title: VectorNode.cpp Pages: 1 -->
<svg width="214pt" height="83pt"
 viewBox="0.00 0.00 213.62 82.50" xmlns="http://www.w3.org/2000/svg" xmlns:xlink="http://www.w3.org/1999/xlink">
<g id="graph0" class="graph" transform="scale(1 1) rotate(0) translate(4 78.5)">
<title>VectorNode.cpp</title>
<!-- Node1 -->
<g id="node1" class="node">
<title>Node1</title>
<g id="a_node1"><a xlink:title=" ">
<polygon fill="#999999" stroke="#666666" points="145.5,-74.5 59,-74.5 59,-55.25 145.5,-55.25 145.5,-74.5"/>
<text text-anchor="middle" x="102.25" y="-61" font-family="Helvetica,sans-Serif" font-size="10.00">VectorNode.cpp</text>
</a>
</g>
</g>
<!-- Node2 -->
<g id="node2" class="node">
<title>Node2</title>
<g id="a_node2"><a xlink:title=" ">
<polygon fill="#e0e0e0" stroke="#999999" points="92.5,-19.25 0,-19.25 0,0 92.5,0 92.5,-19.25"/>
<text text-anchor="middle" x="46.25" y="-5.75" font-family="Helvetica,sans-Serif" font-size="10.00">StringFunctions.h</text>
</a>
</g>
</g>
<!-- Node1&#45;&gt;Node2 -->
<g id="edge1" class="edge">
<title>Node1&#45;&gt;Node2</title>
<path fill="none" stroke="#63b8ff" d="M92.75,-54.84C84.74,-47.22 73.07,-36.12 63.42,-26.95"/>
<polygon fill="#63b8ff" stroke="#63b8ff" points="66.27,-24.88 56.61,-20.52 61.44,-29.95 66.27,-24.88"/>
</g>
<!-- Node3 -->
<g id="node3" class="node">
<title>Node3</title>
<g id="a_node3"><a xlink:title=" ">
<polygon fill="#e0e0e0" stroke="#999999" points="205.62,-19.25 110.88,-19.25 110.88,0 205.62,0 205.62,-19.25"/>
<text text-anchor="middle" x="158.25" y="-5.75" font-family="Helvetica,sans-Serif" font-size="10.00">VectorNodeImpl.h</text>
</a>
</g>
</g>
<!-- Node1&#45;&gt;Node3 -->
<g id="edge2" class="edge">
<title>Node1&#45;&gt;Node3</title>
<path fill="none" stroke="#63b8ff" d="M111.75,-54.84C119.76,-47.22 131.43,-36.12 141.08,-26.95"/>
<polygon fill="#63b8ff" stroke="#63b8ff" points="143.06,-29.95 147.89,-20.52 138.23,-24.88 143.06,-29.95"/>
</g>
</g>
</svg>
