<?xml version="1.0" encoding="UTF-8" standalone="no"?>
<!DOCTYPE svg PUBLIC "-//W3C//DTD SVG 1.1//EN"
 "http://www.w3.org/Graphics/SVG/1.1/DTD/svg11.dtd">
<!-- Generated by graphviz version 2.49.0 (20210828.1703)
 -->
<!-- Title: CompressedVectorWriterImpl.cpp Pages: 1 -->
<!--zoomable 364 -->
<svg id="main" version="1.1" xmlns="http://www.w3.org/2000/svg" xmlns:xlink="http://www.w3.org/1999/xlink" xml:space="preserve" onload="init(evt)">
<style type="text/css"><![CDATA[
.edge:hover path { stroke: red; }
.edge:hover polygon { stroke: red; fill: red; }
]]></style>
<script type="text/javascript"><![CDATA[
var edges = document.getElementsByTagName('g');
if (edges && edges.length) {
  for (var i=0;i<edges.length;i++) {
    if (edges[i].id.substr(0,4)=='edge') {
      edges[i].setAttribute('class','edge');
    }
  }
}
]]></script>
        <defs>
                <circle id="rim" cx="0" cy="0" r="7"/>
                <circle id="rim2" cx="0" cy="0" r="3.5"/>
                <g id="zoomPlus">
                        <use xlink:href="#rim" fill="#404040">
                                <set attributeName="fill" to="#808080" begin="zoomplus.mouseover" end="zoomplus.mouseout"/>
                        </use>
                        <path d="M-4,0h8M0,-4v8" fill="none" stroke="white" stroke-width="1.5" pointer-events="none"/>
                </g>
                <g id="zoomMin">
                        <use xlink:href="#rim" fill="#404040">
                                <set attributeName="fill" to="#808080" begin="zoomminus.mouseover" end="zoomminus.mouseout"/>
                        </use>
                        <path d="M-4,0h8" fill="none" stroke="white" stroke-width="1.5" pointer-events="none"/>
                </g>
                <g id="dirArrow">
                        <path fill="none" stroke="white" stroke-width="1.5" d="M0,-3.0v7 M-2.5,-0.5L0,-3.0L2.5,-0.5"/>
                </g>
               <g id="resetDef">
                       <use xlink:href="#rim2" fill="#404040">
                               <set attributeName="fill" to="#808080" begin="reset.mouseover" end="reset.mouseout"/>
                       </use>
               </g>
        </defs>

<script type="text/javascript">
var viewWidth = 789;
var viewHeight = 364;
var sectionId = 'dynsection-0';
</script>
<script xlink:href="../../svgpan.js"/>
<svg id="graph" class="graph">
<g id="viewport">
<title>CompressedVectorWriterImpl.cpp</title>
<polygon fill="white" stroke="transparent" points="-4,4 -4,-360 785,-360 785,4 -4,4"/>
<!-- Node1 -->
<g id="node1" class="node">
<title>Node1</title>
<g id="a_node1"><a xlink:title=" ">
<polygon fill="#bfbfbf" stroke="black" points="297,-336.5 297,-355.5 463,-355.5 463,-336.5 297,-336.5"/>
<text text-anchor="middle" x="380" y="-343.5" font-family="Helvetica,sans-Serif" font-size="10.00">CompressedVectorWriterImpl.cpp</text>
</a>
</g>
</g>
<!-- Node2 -->
<g id="node2" class="node">
<title>Node2</title>
<g id="a_node2"><a xlink:title=" ">
<polygon fill="white" stroke="#bfbfbf" points="0,-280.5 0,-299.5 44,-299.5 44,-280.5 0,-280.5"/>
<text text-anchor="middle" x="22" y="-287.5" font-family="Helvetica,sans-Serif" font-size="10.00">cmath</text>
</a>
</g>
</g>
<!-- Node1&#45;&gt;Node2 -->
<g id="edge1" class="edge">
<title>Node1&#45;&gt;Node2</title>
<path fill="none" stroke="midnightblue" d="M296.77,-336.93C232.74,-329.95 141.96,-318.35 54.12,-299.98"/>
<polygon fill="midnightblue" stroke="midnightblue" points="54.76,-296.54 44.25,-297.88 53.31,-303.38 54.76,-296.54"/>
</g>
<!-- Node3 -->
<g id="node3" class="node">
<title>Node3</title>
<g id="a_node3"><a xlink:title=" ">
<polygon fill="white" stroke="#bfbfbf" points="62,-280.5 62,-299.5 114,-299.5 114,-280.5 62,-280.5"/>
<text text-anchor="middle" x="88" y="-287.5" font-family="Helvetica,sans-Serif" font-size="10.00">numeric</text>
</a>
</g>
</g>
<!-- Node1&#45;&gt;Node3 -->
<g id="edge2" class="edge">
<title>Node1&#45;&gt;Node3</title>
<path fill="none" stroke="midnightblue" d="M323.86,-336.47C273.87,-328.58 198.56,-315.97 124.31,-300.15"/>
<polygon fill="midnightblue" stroke="midnightblue" points="124.83,-296.69 114.32,-298 123.36,-303.53 124.83,-296.69"/>
</g>
<!-- Node4 -->
<g id="node4" class="node">
<title>Node4</title>
<g id="a_node4"><a xlink:href="../../dd/d41/_checked_file_8h.html" target="_top" xlink:title=" ">
<polygon fill="white" stroke="black" points="132,-280.5 132,-299.5 212,-299.5 212,-280.5 132,-280.5"/>
<text text-anchor="middle" x="172" y="-287.5" font-family="Helvetica,sans-Serif" font-size="10.00">CheckedFile.h</text>
</a>
</g>
</g>
<!-- Node1&#45;&gt;Node4 -->
<g id="edge3" class="edge">
<title>Node1&#45;&gt;Node4</title>
<path fill="none" stroke="midnightblue" d="M347.04,-336.44C311.21,-327.14 253.84,-312.25 214.61,-302.06"/>
<polygon fill="midnightblue" stroke="midnightblue" points="215.36,-298.64 204.8,-299.52 213.6,-305.42 215.36,-298.64"/>
</g>
<!-- Node19 -->
<g id="node19" class="node">
<title>Node19</title>
<g id="a_node19"><a xlink:href="../../da/dbb/_compressed_vector_node_impl_8h.html" target="_top" xlink:title=" ">
<polygon fill="white" stroke="black" points="556.5,-280.5 556.5,-299.5 709.5,-299.5 709.5,-280.5 556.5,-280.5"/>
<text text-anchor="middle" x="633" y="-287.5" font-family="Helvetica,sans-Serif" font-size="10.00">CompressedVectorNodeImpl.h</text>
</a>
</g>
</g>
<!-- Node1&#45;&gt;Node19 -->
<g id="edge21" class="edge">
<title>Node1&#45;&gt;Node19</title>
<path fill="none" stroke="midnightblue" d="M420.09,-336.44C464.32,-327 535.54,-311.8 583.28,-301.61"/>
<polygon fill="midnightblue" stroke="midnightblue" points="584.05,-305.03 593.1,-299.52 582.59,-298.18 584.05,-305.03"/>
</g>
<!-- Node21 -->
<g id="node21" class="node">
<title>Node21</title>
<g id="a_node21"><a xlink:href="../../d9/d8f/_compressed_vector_writer_impl_8h.html" target="_top" xlink:title=" ">
<polygon fill="white" stroke="black" points="230.5,-280.5 230.5,-299.5 385.5,-299.5 385.5,-280.5 230.5,-280.5"/>
<text text-anchor="middle" x="308" y="-287.5" font-family="Helvetica,sans-Serif" font-size="10.00">CompressedVectorWriterImpl.h</text>
</a>
</g>
</g>
<!-- Node1&#45;&gt;Node21 -->
<g id="edge24" class="edge">
<title>Node1&#45;&gt;Node21</title>
<path fill="none" stroke="midnightblue" d="M368.43,-336.32C357.58,-328.18 341.12,-315.84 328.12,-306.09"/>
<polygon fill="midnightblue" stroke="midnightblue" points="329.88,-303.03 319.78,-299.83 325.68,-308.63 329.88,-303.03"/>
</g>
<!-- Node25 -->
<g id="node25" class="node">
<title>Node25</title>
<g id="a_node25"><a xlink:href="../../da/d09/_image_file_impl_8h.html" target="_top" xlink:title=" ">
<polygon fill="white" stroke="black" points="693,-224.5 693,-243.5 781,-243.5 781,-224.5 693,-224.5"/>
<text text-anchor="middle" x="737" y="-231.5" font-family="Helvetica,sans-Serif" font-size="10.00">ImageFileImpl.h</text>
</a>
</g>
</g>
<!-- Node1&#45;&gt;Node25 -->
<g id="edge31" class="edge">
<title>Node1&#45;&gt;Node25</title>
<path fill="none" stroke="midnightblue" d="M463.25,-344.2C551.12,-341.62 681.95,-332.26 719,-300 732.09,-288.6 736.06,-268.62 737.08,-253.8"/>
<polygon fill="midnightblue" stroke="midnightblue" points="740.58,-253.82 737.38,-243.71 733.58,-253.6 740.58,-253.82"/>
</g>
<!-- Node26 -->
<g id="node26" class="node">
<title>Node26</title>
<g id="a_node26"><a xlink:href="../../d9/d64/_section_headers_8h.html" target="_top" xlink:title=" ">
<polygon fill="white" stroke="black" points="404,-280.5 404,-299.5 500,-299.5 500,-280.5 404,-280.5"/>
<text text-anchor="middle" x="452" y="-287.5" font-family="Helvetica,sans-Serif" font-size="10.00">SectionHeaders.h</text>
</a>
</g>
</g>
<!-- Node1&#45;&gt;Node26 -->
<g id="edge34" class="edge">
<title>Node1&#45;&gt;Node26</title>
<path fill="none" stroke="midnightblue" d="M391.57,-336.32C402.42,-328.18 418.88,-315.84 431.88,-306.09"/>
<polygon fill="midnightblue" stroke="midnightblue" points="434.32,-308.63 440.22,-299.83 430.12,-303.03 434.32,-308.63"/>
</g>
<!-- Node27 -->
<g id="node27" class="node">
<title>Node27</title>
<g id="a_node27"><a xlink:href="../../d4/d90/_source_dest_buffer_impl_8h.html" target="_top" xlink:title=" ">
<polygon fill="white" stroke="black" points="467,-224.5 467,-243.5 589,-243.5 589,-224.5 467,-224.5"/>
<text text-anchor="middle" x="528" y="-231.5" font-family="Helvetica,sans-Serif" font-size="10.00">SourceDestBufferImpl.h</text>
</a>
</g>
</g>
<!-- Node1&#45;&gt;Node27 -->
<g id="edge36" class="edge">
<title>Node1&#45;&gt;Node27</title>
<path fill="none" stroke="midnightblue" d="M439.82,-336.42C464.21,-330.08 490.87,-319.09 509,-300 520.76,-287.62 525.29,-268.38 527.01,-254.04"/>
<polygon fill="midnightblue" stroke="midnightblue" points="530.52,-254.07 527.87,-243.81 523.54,-253.48 530.52,-254.07"/>
</g>
<!-- Node5 -->
<g id="node5" class="node">
<title>Node5</title>
<g id="a_node5"><a xlink:title=" ">
<polygon fill="white" stroke="#bfbfbf" points="143,-224.5 143,-243.5 201,-243.5 201,-224.5 143,-224.5"/>
<text text-anchor="middle" x="172" y="-231.5" font-family="Helvetica,sans-Serif" font-size="10.00">algorithm</text>
</a>
</g>
</g>
<!-- Node4&#45;&gt;Node5 -->
<g id="edge4" class="edge">
<title>Node4&#45;&gt;Node5</title>
<path fill="none" stroke="midnightblue" d="M172,-280.08C172,-273.01 172,-262.86 172,-253.99"/>
<polygon fill="midnightblue" stroke="midnightblue" points="175.5,-253.75 172,-243.75 168.5,-253.75 175.5,-253.75"/>
</g>
<!-- Node6 -->
<g id="node6" class="node">
<title>Node6</title>
<g id="a_node6"><a xlink:href="../../db/d1f/_common_8h.html" target="_top" xlink:title=" ">
<polygon fill="white" stroke="black" points="416.5,-168.5 416.5,-187.5 481.5,-187.5 481.5,-168.5 416.5,-168.5"/>
<text text-anchor="middle" x="449" y="-175.5" font-family="Helvetica,sans-Serif" font-size="10.00">Common.h</text>
</a>
</g>
</g>
<!-- Node4&#45;&gt;Node6 -->
<g id="edge5" class="edge">
<title>Node4&#45;&gt;Node6</title>
<path fill="none" stroke="midnightblue" d="M200.1,-280.44C226.53,-272.09 266.99,-258.57 301,-244 318.91,-236.33 322.32,-232.17 340,-224 365.63,-212.16 395.27,-200.02 417.17,-191.34"/>
<polygon fill="midnightblue" stroke="midnightblue" points="418.62,-194.53 426.64,-187.61 416.05,-188.02 418.62,-194.53"/>
</g>
<!-- Node7 -->
<g id="node7" class="node">
<title>Node7</title>
<g id="a_node7"><a xlink:title=" ">
<polygon fill="white" stroke="#bfbfbf" points="562,-112.5 562,-131.5 614,-131.5 614,-112.5 562,-112.5"/>
<text text-anchor="middle" x="588" y="-119.5" font-family="Helvetica,sans-Serif" font-size="10.00">iomanip</text>
</a>
</g>
</g>
<!-- Node6&#45;&gt;Node7 -->
<g id="edge6" class="edge">
<title>Node6&#45;&gt;Node7</title>
<path fill="none" stroke="midnightblue" d="M471.02,-168.44C494.1,-159.48 530.56,-145.31 556.64,-135.18"/>
<polygon fill="midnightblue" stroke="midnightblue" points="558.02,-138.4 566.08,-131.52 555.49,-131.88 558.02,-138.4"/>
</g>
<!-- Node8 -->
<g id="node8" class="node">
<title>Node8</title>
<g id="a_node8"><a xlink:title=" ">
<polygon fill="white" stroke="#bfbfbf" points="591.5,-0.5 591.5,-19.5 646.5,-19.5 646.5,-0.5 591.5,-0.5"/>
<text text-anchor="middle" x="619" y="-7.5" font-family="Helvetica,sans-Serif" font-size="10.00">iostream</text>
</a>
</g>
</g>
<!-- Node6&#45;&gt;Node8 -->
<g id="edge7" class="edge">
<title>Node6&#45;&gt;Node8</title>
<path fill="none" stroke="midnightblue" d="M481.73,-173.28C527.21,-167.36 605.86,-154.14 623,-132 645.97,-102.33 634.96,-55.21 626.19,-29.4"/>
<polygon fill="midnightblue" stroke="midnightblue" points="629.39,-27.95 622.68,-19.75 622.81,-30.35 629.39,-27.95"/>
</g>
<!-- Node9 -->
<g id="node9" class="node">
<title>Node9</title>
<g id="a_node9"><a xlink:title=" ">
<polygon fill="white" stroke="#bfbfbf" points="444,-112.5 444,-131.5 474,-131.5 474,-112.5 444,-112.5"/>
<text text-anchor="middle" x="459" y="-119.5" font-family="Helvetica,sans-Serif" font-size="10.00">set</text>
</a>
</g>
</g>
<!-- Node6&#45;&gt;Node9 -->
<g id="edge8" class="edge">
<title>Node6&#45;&gt;Node9</title>
<path fill="none" stroke="midnightblue" d="M450.65,-168.08C451.98,-160.93 453.88,-150.64 455.54,-141.69"/>
<polygon fill="midnightblue" stroke="midnightblue" points="459,-142.22 457.38,-131.75 452.12,-140.95 459,-142.22"/>
</g>
<!-- Node10 -->
<g id="node10" class="node">
<title>Node10</title>
<g id="a_node10"><a xlink:title=" ">
<polygon fill="white" stroke="#bfbfbf" points="492,-112.5 492,-131.5 544,-131.5 544,-112.5 492,-112.5"/>
<text text-anchor="middle" x="518" y="-119.5" font-family="Helvetica,sans-Serif" font-size="10.00">sstream</text>
</a>
</g>
</g>
<!-- Node6&#45;&gt;Node10 -->
<g id="edge9" class="edge">
<title>Node6&#45;&gt;Node10</title>
<path fill="none" stroke="midnightblue" d="M460.09,-168.32C470.49,-160.18 486.26,-147.84 498.72,-138.09"/>
<polygon fill="midnightblue" stroke="midnightblue" points="500.99,-140.75 506.71,-131.83 496.68,-135.24 500.99,-140.75"/>
</g>
<!-- Node11 -->
<g id="node11" class="node">
<title>Node11</title>
<g id="a_node11"><a xlink:title=" ">
<polygon fill="white" stroke="#bfbfbf" points="302.5,-0.5 302.5,-19.5 343.5,-19.5 343.5,-0.5 302.5,-0.5"/>
<text text-anchor="middle" x="323" y="-7.5" font-family="Helvetica,sans-Serif" font-size="10.00">string</text>
</a>
</g>
</g>
<!-- Node6&#45;&gt;Node11 -->
<g id="edge10" class="edge">
<title>Node6&#45;&gt;Node11</title>
<path fill="none" stroke="midnightblue" d="M416.38,-171.21C390.63,-165.19 355.13,-153.53 331,-132 304.03,-107.93 294.17,-91.3 302,-56 304.12,-46.43 308.51,-36.48 312.72,-28.37"/>
<polygon fill="midnightblue" stroke="midnightblue" points="315.82,-30 317.62,-19.56 309.7,-26.6 315.82,-30"/>
</g>
<!-- Node12 -->
<g id="node12" class="node">
<title>Node12</title>
<g id="a_node12"><a xlink:title=" ">
<polygon fill="white" stroke="#bfbfbf" points="311,-56.5 311,-75.5 355,-75.5 355,-56.5 311,-56.5"/>
<text text-anchor="middle" x="333" y="-63.5" font-family="Helvetica,sans-Serif" font-size="10.00">vector</text>
</a>
</g>
</g>
<!-- Node6&#45;&gt;Node12 -->
<g id="edge11" class="edge">
<title>Node6&#45;&gt;Node12</title>
<path fill="none" stroke="midnightblue" d="M416.03,-171.75C392,-166.12 360.67,-154.73 343,-132 332.82,-118.91 330.97,-99.76 331.28,-85.64"/>
<polygon fill="midnightblue" stroke="midnightblue" points="334.78,-85.79 331.87,-75.6 327.79,-85.38 334.78,-85.79"/>
</g>
<!-- Node13 -->
<g id="node13" class="node">
<title>Node13</title>
<g id="a_node13"><a xlink:href="../../d1/df2/_e57_format_8h.html" target="_top" xlink:title="header file for the E57 API">
<polygon fill="white" stroke="black" points="352,-112.5 352,-131.5 426,-131.5 426,-112.5 352,-112.5"/>
<text text-anchor="middle" x="389" y="-119.5" font-family="Helvetica,sans-Serif" font-size="10.00">E57Format.h</text>
</a>
</g>
</g>
<!-- Node6&#45;&gt;Node13 -->
<g id="edge12" class="edge">
<title>Node6&#45;&gt;Node13</title>
<path fill="none" stroke="midnightblue" d="M439.36,-168.32C430.49,-160.34 417.13,-148.31 406.39,-138.65"/>
<polygon fill="midnightblue" stroke="midnightblue" points="408.59,-135.92 398.82,-131.83 403.91,-141.13 408.59,-135.92"/>
</g>
<!-- Node13&#45;&gt;Node12 -->
<g id="edge15" class="edge">
<title>Node13&#45;&gt;Node12</title>
<path fill="none" stroke="midnightblue" d="M380,-112.32C371.81,-104.42 359.49,-92.55 349.53,-82.94"/>
<polygon fill="midnightblue" stroke="midnightblue" points="351.79,-80.26 342.16,-75.83 346.93,-85.29 351.79,-80.26"/>
</g>
<!-- Node14 -->
<g id="node14" class="node">
<title>Node14</title>
<g id="a_node14"><a xlink:title=" ">
<polygon fill="white" stroke="#bfbfbf" points="373,-56.5 373,-75.5 413,-75.5 413,-56.5 373,-56.5"/>
<text text-anchor="middle" x="393" y="-63.5" font-family="Helvetica,sans-Serif" font-size="10.00">cfloat</text>
</a>
</g>
</g>
<!-- Node13&#45;&gt;Node14 -->
<g id="edge13" class="edge">
<title>Node13&#45;&gt;Node14</title>
<path fill="none" stroke="midnightblue" d="M389.66,-112.08C390.18,-105.01 390.94,-94.86 391.59,-85.99"/>
<polygon fill="midnightblue" stroke="midnightblue" points="395.1,-85.98 392.35,-75.75 388.12,-85.47 395.1,-85.98"/>
</g>
<!-- Node15 -->
<g id="node15" class="node">
<title>Node15</title>
<g id="a_node15"><a xlink:title=" ">
<polygon fill="white" stroke="#bfbfbf" points="675.5,-56.5 675.5,-75.5 728.5,-75.5 728.5,-56.5 675.5,-56.5"/>
<text text-anchor="middle" x="702" y="-63.5" font-family="Helvetica,sans-Serif" font-size="10.00">memory</text>
</a>
</g>
</g>
<!-- Node13&#45;&gt;Node15 -->
<g id="edge14" class="edge">
<title>Node13&#45;&gt;Node15</title>
<path fill="none" stroke="midnightblue" d="M426.14,-113.65C429.14,-113.08 432.12,-112.52 435,-112 517.21,-97.03 613.98,-81.16 665.46,-72.85"/>
<polygon fill="midnightblue" stroke="midnightblue" points="666.12,-76.29 675.43,-71.24 665,-69.38 666.12,-76.29"/>
</g>
<!-- Node16 -->
<g id="node16" class="node">
<title>Node16</title>
<g id="a_node16"><a xlink:href="../../d4/d6e/_e57_exception_8h.html" target="_top" xlink:title=" ">
<polygon fill="white" stroke="black" points="431.5,-56.5 431.5,-75.5 518.5,-75.5 518.5,-56.5 431.5,-56.5"/>
<text text-anchor="middle" x="475" y="-63.5" font-family="Helvetica,sans-Serif" font-size="10.00">E57Exception.h</text>
</a>
</g>
</g>
<!-- Node13&#45;&gt;Node16 -->
<g id="edge16" class="edge">
<title>Node13&#45;&gt;Node16</title>
<path fill="none" stroke="midnightblue" d="M402.82,-112.32C416.23,-103.9 436.82,-90.97 452.59,-81.07"/>
<polygon fill="midnightblue" stroke="midnightblue" points="454.61,-83.94 461.22,-75.65 450.89,-78.01 454.61,-83.94"/>
</g>
<!-- Node16&#45;&gt;Node8 -->
<g id="edge18" class="edge">
<title>Node16&#45;&gt;Node8</title>
<path fill="none" stroke="midnightblue" d="M497.82,-56.44C521.83,-47.44 559.83,-33.19 586.87,-23.05"/>
<polygon fill="midnightblue" stroke="midnightblue" points="588.16,-26.3 596.29,-19.52 585.7,-19.75 588.16,-26.3"/>
</g>
<!-- Node16&#45;&gt;Node11 -->
<g id="edge19" class="edge">
<title>Node16&#45;&gt;Node11</title>
<path fill="none" stroke="midnightblue" d="M450.92,-56.44C424.41,-47.03 381.76,-31.87 353.07,-21.68"/>
<polygon fill="midnightblue" stroke="midnightblue" points="354.15,-18.35 343.56,-18.3 351.81,-24.95 354.15,-18.35"/>
</g>
<!-- Node17 -->
<g id="node17" class="node">
<title>Node17</title>
<g id="a_node17"><a xlink:title=" ">
<polygon fill="white" stroke="#bfbfbf" points="468.5,-0.5 468.5,-19.5 527.5,-19.5 527.5,-0.5 468.5,-0.5"/>
<text text-anchor="middle" x="498" y="-7.5" font-family="Helvetica,sans-Serif" font-size="10.00">exception</text>
</a>
</g>
</g>
<!-- Node16&#45;&gt;Node17 -->
<g id="edge17" class="edge">
<title>Node16&#45;&gt;Node17</title>
<path fill="none" stroke="midnightblue" d="M478.8,-56.08C481.91,-48.77 486.42,-38.18 490.29,-29.1"/>
<polygon fill="midnightblue" stroke="midnightblue" points="493.57,-30.32 494.27,-19.75 487.13,-27.58 493.57,-30.32"/>
</g>
<!-- Node18 -->
<g id="node18" class="node">
<title>Node18</title>
<g id="a_node18"><a xlink:title=" ">
<polygon fill="white" stroke="#bfbfbf" points="378,-0.5 378,-19.5 450,-19.5 450,-0.5 378,-0.5"/>
<text text-anchor="middle" x="414" y="-7.5" font-family="Helvetica,sans-Serif" font-size="10.00">E57Export.h</text>
</a>
</g>
</g>
<!-- Node16&#45;&gt;Node18 -->
<g id="edge20" class="edge">
<title>Node16&#45;&gt;Node18</title>
<path fill="none" stroke="midnightblue" d="M465.2,-56.32C456.18,-48.34 442.59,-36.31 431.68,-26.65"/>
<polygon fill="midnightblue" stroke="midnightblue" points="433.79,-23.84 423.98,-19.83 429.15,-29.08 433.79,-23.84"/>
</g>
<!-- Node20 -->
<g id="node20" class="node">
<title>Node20</title>
<g id="a_node20"><a xlink:href="../../df/d7b/_node_impl_8h.html" target="_top" xlink:title=" ">
<polygon fill="white" stroke="black" points="607,-224.5 607,-243.5 675,-243.5 675,-224.5 607,-224.5"/>
<text text-anchor="middle" x="641" y="-231.5" font-family="Helvetica,sans-Serif" font-size="10.00">NodeImpl.h</text>
</a>
</g>
</g>
<!-- Node19&#45;&gt;Node20 -->
<g id="edge22" class="edge">
<title>Node19&#45;&gt;Node20</title>
<path fill="none" stroke="midnightblue" d="M634.32,-280.08C635.38,-272.93 636.91,-262.64 638.23,-253.69"/>
<polygon fill="midnightblue" stroke="midnightblue" points="641.7,-254.16 639.7,-243.75 634.78,-253.13 641.7,-254.16"/>
</g>
<!-- Node20&#45;&gt;Node6 -->
<g id="edge23" class="edge">
<title>Node20&#45;&gt;Node6</title>
<path fill="none" stroke="midnightblue" d="M610.58,-224.44C577.72,-215.2 525.22,-200.44 489.03,-190.26"/>
<polygon fill="midnightblue" stroke="midnightblue" points="489.85,-186.85 479.28,-187.52 487.96,-193.59 489.85,-186.85"/>
</g>
<!-- Node22 -->
<g id="node22" class="node">
<title>Node22</title>
<g id="a_node22"><a xlink:href="../../df/d4b/_encoder_8h.html" target="_top" xlink:title=" ">
<polygon fill="white" stroke="black" points="349,-224.5 349,-243.5 411,-243.5 411,-224.5 349,-224.5"/>
<text text-anchor="middle" x="380" y="-231.5" font-family="Helvetica,sans-Serif" font-size="10.00">Encoder.h</text>
</a>
</g>
</g>
<!-- Node21&#45;&gt;Node22 -->
<g id="edge25" class="edge">
<title>Node21&#45;&gt;Node22</title>
<path fill="none" stroke="midnightblue" d="M319.57,-280.32C330.42,-272.18 346.88,-259.84 359.88,-250.09"/>
<polygon fill="midnightblue" stroke="midnightblue" points="362.32,-252.63 368.22,-243.83 358.12,-247.03 362.32,-252.63"/>
</g>
<!-- Node23 -->
<g id="node23" class="node">
<title>Node23</title>
<g id="a_node23"><a xlink:href="../../d7/dbe/_packet_8h.html" target="_top" xlink:title=" ">
<polygon fill="white" stroke="black" points="237.5,-224.5 237.5,-243.5 292.5,-243.5 292.5,-224.5 237.5,-224.5"/>
<text text-anchor="middle" x="265" y="-231.5" font-family="Helvetica,sans-Serif" font-size="10.00">Packet.h</text>
</a>
</g>
</g>
<!-- Node21&#45;&gt;Node23 -->
<g id="edge27" class="edge">
<title>Node21&#45;&gt;Node23</title>
<path fill="none" stroke="midnightblue" d="M300.9,-280.08C294.76,-272.38 285.73,-261.03 278.26,-251.65"/>
<polygon fill="midnightblue" stroke="midnightblue" points="280.94,-249.39 271.97,-243.75 275.46,-253.75 280.94,-249.39"/>
</g>
<!-- Node22&#45;&gt;Node6 -->
<g id="edge26" class="edge">
<title>Node22&#45;&gt;Node6</title>
<path fill="none" stroke="midnightblue" d="M391.09,-224.32C401.49,-216.18 417.26,-203.84 429.72,-194.09"/>
<polygon fill="midnightblue" stroke="midnightblue" points="431.99,-196.75 437.71,-187.83 427.68,-191.24 431.99,-196.75"/>
</g>
<!-- Node23&#45;&gt;Node6 -->
<g id="edge30" class="edge">
<title>Node23&#45;&gt;Node6</title>
<path fill="none" stroke="midnightblue" d="M292.55,-224.92C323.66,-215.78 374.54,-200.85 409.79,-190.51"/>
<polygon fill="midnightblue" stroke="midnightblue" points="411.13,-193.76 419.74,-187.59 409.16,-187.04 411.13,-193.76"/>
</g>
<!-- Node23&#45;&gt;Node12 -->
<g id="edge29" class="edge">
<title>Node23&#45;&gt;Node12</title>
<path fill="none" stroke="midnightblue" d="M263.2,-224.35C260.93,-211.66 258,-187.41 264,-168 274.43,-134.24 300.45,-101.7 317.39,-83.06"/>
<polygon fill="midnightblue" stroke="midnightblue" points="319.96,-85.43 324.23,-75.73 314.85,-80.65 319.96,-85.43"/>
</g>
<!-- Node24 -->
<g id="node24" class="node">
<title>Node24</title>
<g id="a_node24"><a xlink:title=" ">
<polygon fill="white" stroke="#bfbfbf" points="273.5,-168.5 273.5,-187.5 318.5,-187.5 318.5,-168.5 273.5,-168.5"/>
<text text-anchor="middle" x="296" y="-175.5" font-family="Helvetica,sans-Serif" font-size="10.00">cstdint</text>
</a>
</g>
</g>
<!-- Node23&#45;&gt;Node24 -->
<g id="edge28" class="edge">
<title>Node23&#45;&gt;Node24</title>
<path fill="none" stroke="midnightblue" d="M270.12,-224.08C274.41,-216.61 280.66,-205.72 285.94,-196.52"/>
<polygon fill="midnightblue" stroke="midnightblue" points="289.03,-198.17 290.98,-187.75 282.96,-194.68 289.03,-198.17"/>
</g>
<!-- Node25&#45;&gt;Node6 -->
<g id="edge33" class="edge">
<title>Node25&#45;&gt;Node6</title>
<path fill="none" stroke="midnightblue" d="M692.95,-224.74C638.32,-214.5 545.84,-197.16 491.8,-187.02"/>
<polygon fill="midnightblue" stroke="midnightblue" points="492.33,-183.56 481.85,-185.16 491.04,-190.44 492.33,-183.56"/>
</g>
<!-- Node25&#45;&gt;Node15 -->
<g id="edge32" class="edge">
<title>Node25&#45;&gt;Node15</title>
<path fill="none" stroke="midnightblue" d="M735.12,-224.08C729.61,-197.95 713.43,-121.21 705.92,-85.58"/>
<polygon fill="midnightblue" stroke="midnightblue" points="709.29,-84.63 703.81,-75.57 702.44,-86.08 709.29,-84.63"/>
</g>
<!-- Node26&#45;&gt;Node6 -->
<g id="edge35" class="edge">
<title>Node26&#45;&gt;Node6</title>
<path fill="none" stroke="midnightblue" d="M451.76,-280.37C451.28,-262.62 450.16,-221.67 449.51,-197.6"/>
<polygon fill="midnightblue" stroke="midnightblue" points="453.01,-197.49 449.23,-187.59 446.01,-197.68 453.01,-197.49"/>
</g>
<!-- Node27&#45;&gt;Node6 -->
<g id="edge37" class="edge">
<title>Node27&#45;&gt;Node6</title>
<path fill="none" stroke="midnightblue" d="M515.31,-224.32C503.1,-215.98 484.42,-203.21 470,-193.35"/>
<polygon fill="midnightblue" stroke="midnightblue" points="471.89,-190.41 461.66,-187.65 467.94,-196.19 471.89,-190.41"/>
</g>
</g>
</svg>
        <g id="navigator" transform="translate(0 0)" fill="#404254">
                <rect fill="#f2f5e9" fill-opacity="0.5" stroke="#606060" stroke-width=".5" x="0" y="0" width="60" height="60"/>
                <use id="zoomplus" xlink:href="#zoomPlus" x="17" y="9" onmousedown="handleZoom(evt,'in')"/>
                <use id="zoomminus" xlink:href="#zoomMin" x="42" y="9" onmousedown="handleZoom(evt,'out')"/>
                <use id="reset" xlink:href="#resetDef" x="30" y="36" onmousedown="handleReset()"/>
                <g id="arrowUp" xlink:href="#dirArrow" transform="translate(30 24)" onmousedown="handlePan(0,-1)">
                  <use xlink:href="#rim" fill="#404040">
                        <set attributeName="fill" to="#808080" begin="arrowUp.mouseover" end="arrowUp.mouseout"/>
                  </use>
                  <path fill="none" stroke="white" stroke-width="1.5" d="M0,-3.0v7 M-2.5,-0.5L0,-3.0L2.5,-0.5"/>
                </g>
                <g id="arrowRight" xlink:href="#dirArrow" transform="rotate(90) translate(36 -43)" onmousedown="handlePan(1,0)">
                  <use xlink:href="#rim" fill="#404040">
                        <set attributeName="fill" to="#808080" begin="arrowRight.mouseover" end="arrowRight.mouseout"/>
                  </use>
                  <path fill="none" stroke="white" stroke-width="1.5" d="M0,-3.0v7 M-2.5,-0.5L0,-3.0L2.5,-0.5"/>
                </g>
                <g id="arrowDown" xlink:href="#dirArrow" transform="rotate(180) translate(-30 -48)" onmousedown="handlePan(0,1)">
                  <use xlink:href="#rim" fill="#404040">
                        <set attributeName="fill" to="#808080" begin="arrowDown.mouseover" end="arrowDown.mouseout"/>
                  </use>
                  <path fill="none" stroke="white" stroke-width="1.5" d="M0,-3.0v7 M-2.5,-0.5L0,-3.0L2.5,-0.5"/>
                </g>
                <g id="arrowLeft" xlink:href="#dirArrow" transform="rotate(270) translate(-36 17)" onmousedown="handlePan(-1,0)">
                  <use xlink:href="#rim" fill="#404040">
                        <set attributeName="fill" to="#808080" begin="arrowLeft.mouseover" end="arrowLeft.mouseout"/>
                  </use>
                  <path fill="none" stroke="white" stroke-width="1.5" d="M0,-3.0v7 M-2.5,-0.5L0,-3.0L2.5,-0.5"/>
                </g>
        </g>
        <svg viewBox="0 0 15 15" width="100%" height="30px" preserveAspectRatio="xMaxYMin meet">
         <g id="arrow_out" transform="scale(0.3 0.3)">
          <a xlink:href="_compressed_vector_writer_impl_8cpp__incl_org.svg" target="_base">
           <rect id="button" ry="5" rx="5" y="6" x="6" height="38" width="38"
                fill="#f2f5e9" fill-opacity="0.5" stroke="#606060" stroke-width="1.0"/>
           <path id="arrow"
             d="M 11.500037,31.436501 C 11.940474,20.09759 22.043105,11.32322 32.158766,21.979434 L 37.068811,17.246167 C 37.068811,17.246167 37.088388,32 37.088388,32 L 22.160133,31.978069 C 22.160133,31.978069 26.997745,27.140456 26.997745,27.140456 C 18.528582,18.264221 13.291696,25.230495 11.500037,31.436501 z"
             style="fill:#404040;"/>
          </a>
         </g>
        </svg>
</svg>
