<?xml version="1.0" encoding="UTF-8" standalone="no"?>
<!DOCTYPE svg PUBLIC "-//W3C//DTD SVG 1.1//EN"
 "http://www.w3.org/Graphics/SVG/1.1/DTD/svg11.dtd">
<!-- Generated by graphviz version 7.0.0 (20221023.0053)
 -->
<!-- Title: CompressedVectorWriterImpl.cpp Pages: 1 -->
<svg width="827pt" height="357pt"
 viewBox="0.00 0.00 827.00 357.00" xmlns="http://www.w3.org/2000/svg" xmlns:xlink="http://www.w3.org/1999/xlink">
<g id="graph0" class="graph" transform="scale(1 1) rotate(0) translate(4 353)">
<title>CompressedVectorWriterImpl.cpp</title>
<!-- Node1 -->
<g id="node1" class="node">
<title>Node1</title>
<g id="a_node1"><a xlink:title=" ">
<polygon fill="#999999" stroke="#666666" points="531,-349 367,-349 367,-330 531,-330 531,-349"/>
<text text-anchor="middle" x="449" y="-337" font-family="Helvetica,sans-Serif" font-size="10.00">CompressedVectorWriterImpl.cpp</text>
</a>
</g>
</g>
<!-- Node2 -->
<g id="node2" class="node">
<title>Node2</title>
<g id="a_node2"><a xlink:title=" ">
<polygon fill="#e0e0e0" stroke="#999999" points="44,-294 0,-294 0,-275 44,-275 44,-294"/>
<text text-anchor="middle" x="22" y="-282" font-family="Helvetica,sans-Serif" font-size="10.00">cmath</text>
</a>
</g>
</g>
<!-- Node1&#45;&gt;Node2 -->
<g id="edge1" class="edge">
<title>Node1&#45;&gt;Node2</title>
<path fill="none" stroke="#63b8ff" d="M366.53,-332.99C288.63,-326.94 168.4,-315.39 55.51,-294.2"/>
<polygon fill="#63b8ff" stroke="#63b8ff" points="56.22,-290.77 45.74,-292.33 54.91,-297.65 56.22,-290.77"/>
</g>
<!-- Node3 -->
<g id="node3" class="node">
<title>Node3</title>
<g id="a_node3"><a xlink:title=" ">
<polygon fill="#e0e0e0" stroke="#999999" points="113.5,-294 62.5,-294 62.5,-275 113.5,-275 113.5,-294"/>
<text text-anchor="middle" x="88" y="-282" font-family="Helvetica,sans-Serif" font-size="10.00">numeric</text>
</a>
</g>
</g>
<!-- Node1&#45;&gt;Node3 -->
<g id="edge2" class="edge">
<title>Node1&#45;&gt;Node3</title>
<path fill="none" stroke="#63b8ff" d="M366.56,-329.62C303.14,-322.24 213.12,-310.59 125.2,-294.23"/>
<polygon fill="#63b8ff" stroke="#63b8ff" points="125.89,-290.8 115.42,-292.39 124.6,-297.68 125.89,-290.8"/>
</g>
<!-- Node4 -->
<g id="node4" class="node">
<title>Node4</title>
<g id="a_node4"><a xlink:href="../../dd/d41/_checked_file_8h.html" target="_top" xlink:title=" ">
<polygon fill="white" stroke="#666666" points="212,-294 132,-294 132,-275 212,-275 212,-294"/>
<text text-anchor="middle" x="172" y="-282" font-family="Helvetica,sans-Serif" font-size="10.00">CheckedFile.h</text>
</a>
</g>
</g>
<!-- Node1&#45;&gt;Node4 -->
<g id="edge3" class="edge">
<title>Node1&#45;&gt;Node4</title>
<path fill="none" stroke="#63b8ff" d="M402.01,-329.51C352.5,-320.04 274.76,-305.16 223.58,-295.37"/>
<polygon fill="#63b8ff" stroke="#63b8ff" points="224.42,-291.97 213.94,-293.52 223.1,-298.84 224.42,-291.97"/>
</g>
<!-- Node18 -->
<g id="node18" class="node">
<title>Node18</title>
<g id="a_node18"><a xlink:href="../../da/dbb/_compressed_vector_node_impl_8h.html" target="_top" xlink:title=" ">
<polygon fill="white" stroke="#666666" points="704.5,-294 553.5,-294 553.5,-275 704.5,-275 704.5,-294"/>
<text text-anchor="middle" x="629" y="-282" font-family="Helvetica,sans-Serif" font-size="10.00">CompressedVectorNodeImpl.h</text>
</a>
</g>
</g>
<!-- Node1&#45;&gt;Node18 -->
<g id="edge19" class="edge">
<title>Node1&#45;&gt;Node18</title>
<path fill="none" stroke="#63b8ff" d="M479.53,-329.51C509.36,-320.73 554.96,-307.3 587.95,-297.59"/>
<polygon fill="#63b8ff" stroke="#63b8ff" points="588.56,-301.06 597.16,-294.87 586.58,-294.34 588.56,-301.06"/>
</g>
<!-- Node20 -->
<g id="node20" class="node">
<title>Node20</title>
<g id="a_node20"><a xlink:href="../../d9/d8f/_compressed_vector_writer_impl_8h.html" target="_top" xlink:title=" ">
<polygon fill="white" stroke="#666666" points="383.5,-294 230.5,-294 230.5,-275 383.5,-275 383.5,-294"/>
<text text-anchor="middle" x="307" y="-282" font-family="Helvetica,sans-Serif" font-size="10.00">CompressedVectorWriterImpl.h</text>
</a>
</g>
</g>
<!-- Node1&#45;&gt;Node20 -->
<g id="edge22" class="edge">
<title>Node1&#45;&gt;Node20</title>
<path fill="none" stroke="#63b8ff" d="M424.91,-329.51C401.93,-320.93 367.06,-307.92 341.2,-298.27"/>
<polygon fill="#63b8ff" stroke="#63b8ff" points="342.74,-295.1 332.15,-294.89 340.3,-301.66 342.74,-295.1"/>
</g>
<!-- Node23 -->
<g id="node23" class="node">
<title>Node23</title>
<g id="a_node23"><a xlink:href="../../da/d09/_image_file_impl_8h.html" target="_top" xlink:title=" ">
<polygon fill="white" stroke="#666666" points="771,-239 685,-239 685,-220 771,-220 771,-239"/>
<text text-anchor="middle" x="728" y="-227" font-family="Helvetica,sans-Serif" font-size="10.00">ImageFileImpl.h</text>
</a>
</g>
</g>
<!-- Node1&#45;&gt;Node23 -->
<g id="edge29" class="edge">
<title>Node1&#45;&gt;Node23</title>
<path fill="none" stroke="#63b8ff" d="M531.28,-334.58C599.11,-329.61 688.22,-318.51 714,-294 725.53,-283.04 728.61,-264.92 729.05,-250.83"/>
<polygon fill="#63b8ff" stroke="#63b8ff" points="732.55,-250.81 728.9,-240.86 725.55,-250.91 732.55,-250.81"/>
</g>
<!-- Node24 -->
<g id="node24" class="node">
<title>Node24</title>
<g id="a_node24"><a xlink:href="../../d9/d64/_section_headers_8h.html" target="_top" xlink:title=" ">
<polygon fill="white" stroke="#666666" points="496.5,-294 401.5,-294 401.5,-275 496.5,-275 496.5,-294"/>
<text text-anchor="middle" x="449" y="-282" font-family="Helvetica,sans-Serif" font-size="10.00">SectionHeaders.h</text>
</a>
</g>
</g>
<!-- Node1&#45;&gt;Node24 -->
<g id="edge32" class="edge">
<title>Node1&#45;&gt;Node24</title>
<path fill="none" stroke="#63b8ff" d="M449,-329.75C449,-323.27 449,-314.16 449,-305.9"/>
<polygon fill="#63b8ff" stroke="#63b8ff" points="452.5,-305.96 449,-295.96 445.5,-305.96 452.5,-305.96"/>
</g>
<!-- Node25 -->
<g id="node25" class="node">
<title>Node25</title>
<g id="a_node25"><a xlink:href="../../d4/d90/_source_dest_buffer_impl_8h.html" target="_top" xlink:title=" ">
<polygon fill="white" stroke="#666666" points="581,-239 459,-239 459,-220 581,-220 581,-239"/>
<text text-anchor="middle" x="520" y="-227" font-family="Helvetica,sans-Serif" font-size="10.00">SourceDestBufferImpl.h</text>
</a>
</g>
</g>
<!-- Node1&#45;&gt;Node25 -->
<g id="edge34" class="edge">
<title>Node1&#45;&gt;Node25</title>
<path fill="none" stroke="#63b8ff" d="M466.11,-329.5C479.06,-321.8 496.23,-309.51 506,-294 514.21,-280.97 517.65,-263.8 519.07,-250.6"/>
<polygon fill="#63b8ff" stroke="#63b8ff" points="522.53,-251.16 519.78,-240.93 515.55,-250.64 522.53,-251.16"/>
</g>
<!-- Node26 -->
<g id="node26" class="node">
<title>Node26</title>
<g id="a_node26"><a xlink:href="../../db/d42/_string_functions_8h.html" target="_top" xlink:title=" ">
<polygon fill="white" stroke="#666666" points="770.5,-74 677.5,-74 677.5,-55 770.5,-55 770.5,-74"/>
<text text-anchor="middle" x="724" y="-62" font-family="Helvetica,sans-Serif" font-size="10.00">StringFunctions.h</text>
</a>
</g>
</g>
<!-- Node1&#45;&gt;Node26 -->
<g id="edge36" class="edge">
<title>Node1&#45;&gt;Node26</title>
<path fill="none" stroke="#63b8ff" d="M531.25,-331.15C602.17,-323.8 698.47,-311.14 733,-294 769.46,-275.9 799,-271.21 799,-230.5 799,-230.5 799,-230.5 799,-173.5 799,-135.35 767.04,-100.98 744.84,-81.72"/>
<polygon fill="#63b8ff" stroke="#63b8ff" points="747.14,-79.08 737.21,-75.39 742.67,-84.47 747.14,-79.08"/>
</g>
<!-- Node5 -->
<g id="node5" class="node">
<title>Node5</title>
<g id="a_node5"><a xlink:title=" ">
<polygon fill="#e0e0e0" stroke="#999999" points="200,-239 144,-239 144,-220 200,-220 200,-239"/>
<text text-anchor="middle" x="172" y="-227" font-family="Helvetica,sans-Serif" font-size="10.00">algorithm</text>
</a>
</g>
</g>
<!-- Node4&#45;&gt;Node5 -->
<g id="edge4" class="edge">
<title>Node4&#45;&gt;Node5</title>
<path fill="none" stroke="#63b8ff" d="M172,-274.75C172,-268.27 172,-259.16 172,-250.9"/>
<polygon fill="#63b8ff" stroke="#63b8ff" points="175.5,-250.96 172,-240.96 168.5,-250.96 175.5,-250.96"/>
</g>
<!-- Node6 -->
<g id="node6" class="node">
<title>Node6</title>
<g id="a_node6"><a xlink:href="../../db/d1f/_common_8h.html" target="_top" xlink:title=" ">
<polygon fill="white" stroke="#666666" points="463.5,-184 398.5,-184 398.5,-165 463.5,-165 463.5,-184"/>
<text text-anchor="middle" x="431" y="-172" font-family="Helvetica,sans-Serif" font-size="10.00">Common.h</text>
</a>
</g>
</g>
<!-- Node4&#45;&gt;Node6 -->
<g id="edge5" class="edge">
<title>Node4&#45;&gt;Node6</title>
<path fill="none" stroke="#63b8ff" d="M199.95,-274.53C225.32,-266.14 263.61,-252.85 296,-239 313.36,-231.58 316.97,-228.16 334,-220 356.31,-209.31 381.74,-197.66 400.96,-188.97"/>
<polygon fill="#63b8ff" stroke="#63b8ff" points="402.16,-192.27 409.84,-184.96 399.28,-185.88 402.16,-192.27"/>
</g>
<!-- Node7 -->
<g id="node7" class="node">
<title>Node7</title>
<g id="a_node7"><a xlink:title=" ">
<polygon fill="#e0e0e0" stroke="#999999" points="503,-129 473,-129 473,-110 503,-110 503,-129"/>
<text text-anchor="middle" x="488" y="-117" font-family="Helvetica,sans-Serif" font-size="10.00">set</text>
</a>
</g>
</g>
<!-- Node6&#45;&gt;Node7 -->
<g id="edge6" class="edge">
<title>Node6&#45;&gt;Node7</title>
<path fill="none" stroke="#63b8ff" d="M440.67,-164.51C448.74,-157 460.47,-146.1 470.22,-137.03"/>
<polygon fill="#63b8ff" stroke="#63b8ff" points="472.43,-139.76 477.37,-130.39 467.66,-134.63 472.43,-139.76"/>
</g>
<!-- Node8 -->
<g id="node8" class="node">
<title>Node8</title>
<g id="a_node8"><a xlink:title=" ">
<polygon fill="#e0e0e0" stroke="#999999" points="608.5,-19 567.5,-19 567.5,0 608.5,0 608.5,-19"/>
<text text-anchor="middle" x="588" y="-7" font-family="Helvetica,sans-Serif" font-size="10.00">string</text>
</a>
</g>
</g>
<!-- Node6&#45;&gt;Node8 -->
<g id="edge7" class="edge">
<title>Node6&#45;&gt;Node8</title>
<path fill="none" stroke="#63b8ff" d="M463.77,-165.15C504.31,-152.85 571.45,-125.52 600,-74 607.57,-60.34 603.36,-42.76 597.94,-29.56"/>
<polygon fill="#63b8ff" stroke="#63b8ff" points="601.19,-28.24 593.78,-20.67 594.85,-31.21 601.19,-28.24"/>
</g>
<!-- Node9 -->
<g id="node9" class="node">
<title>Node9</title>
<g id="a_node9"><a xlink:title=" ">
<polygon fill="#e0e0e0" stroke="#999999" points="357,-74 313,-74 313,-55 357,-55 357,-74"/>
<text text-anchor="middle" x="335" y="-62" font-family="Helvetica,sans-Serif" font-size="10.00">vector</text>
</a>
</g>
</g>
<!-- Node6&#45;&gt;Node9 -->
<g id="edge8" class="edge">
<title>Node6&#45;&gt;Node9</title>
<path fill="none" stroke="#63b8ff" d="M416.41,-164.57C403.87,-156.39 385.83,-143.4 373,-129 360.98,-115.51 350.7,-97.68 343.87,-84.35"/>
<polygon fill="#63b8ff" stroke="#63b8ff" points="347.21,-83.19 339.66,-75.76 340.92,-86.28 347.21,-83.19"/>
</g>
<!-- Node10 -->
<g id="node10" class="node">
<title>Node10</title>
<g id="a_node10"><a xlink:href="../../d1/df2/_e57_format_8h.html" target="_top" xlink:title="Header file for the E57 API.">
<polygon fill="white" stroke="#666666" points="454.5,-129 381.5,-129 381.5,-110 454.5,-110 454.5,-129"/>
<text text-anchor="middle" x="418" y="-117" font-family="Helvetica,sans-Serif" font-size="10.00">E57Format.h</text>
</a>
</g>
</g>
<!-- Node6&#45;&gt;Node10 -->
<g id="edge9" class="edge">
<title>Node6&#45;&gt;Node10</title>
<path fill="none" stroke="#63b8ff" d="M428.85,-164.75C427.24,-158.19 424.98,-148.95 422.93,-140.6"/>
<polygon fill="#63b8ff" stroke="#63b8ff" points="426.34,-139.79 420.55,-130.91 419.54,-141.46 426.34,-139.79"/>
</g>
<!-- Node10&#45;&gt;Node9 -->
<g id="edge13" class="edge">
<title>Node10&#45;&gt;Node9</title>
<path fill="none" stroke="#63b8ff" d="M403.92,-109.51C391.44,-101.54 372.98,-89.75 358.31,-80.38"/>
<polygon fill="#63b8ff" stroke="#63b8ff" points="360.46,-77.6 350.15,-75.17 356.69,-83.5 360.46,-77.6"/>
</g>
<!-- Node11 -->
<g id="node11" class="node">
<title>Node11</title>
<g id="a_node11"><a xlink:title=" ">
<polygon fill="#e0e0e0" stroke="#999999" points="520.5,-74 479.5,-74 479.5,-55 520.5,-55 520.5,-74"/>
<text text-anchor="middle" x="500" y="-62" font-family="Helvetica,sans-Serif" font-size="10.00">cfloat</text>
</a>
</g>
</g>
<!-- Node10&#45;&gt;Node11 -->
<g id="edge10" class="edge">
<title>Node10&#45;&gt;Node11</title>
<path fill="none" stroke="#63b8ff" d="M431.91,-109.51C444.24,-101.54 462.47,-89.75 476.97,-80.38"/>
<polygon fill="#63b8ff" stroke="#63b8ff" points="478.53,-83.55 485.02,-75.18 474.73,-77.67 478.53,-83.55"/>
</g>
<!-- Node12 -->
<g id="node12" class="node">
<title>Node12</title>
<g id="a_node12"><a xlink:title=" ">
<polygon fill="#e0e0e0" stroke="#999999" points="292,-74 246,-74 246,-55 292,-55 292,-74"/>
<text text-anchor="middle" x="269" y="-62" font-family="Helvetica,sans-Serif" font-size="10.00">cstdint</text>
</a>
</g>
</g>
<!-- Node10&#45;&gt;Node12 -->
<g id="edge11" class="edge">
<title>Node10&#45;&gt;Node12</title>
<path fill="none" stroke="#63b8ff" d="M392.72,-109.51C368.06,-100.74 330.36,-87.33 303.06,-77.62"/>
<polygon fill="#63b8ff" stroke="#63b8ff" points="304.45,-74.4 293.86,-74.34 302.11,-80.99 304.45,-74.4"/>
</g>
<!-- Node13 -->
<g id="node13" class="node">
<title>Node13</title>
<g id="a_node13"><a xlink:title=" ">
<polygon fill="#e0e0e0" stroke="#999999" points="591,-74 539,-74 539,-55 591,-55 591,-74"/>
<text text-anchor="middle" x="565" y="-62" font-family="Helvetica,sans-Serif" font-size="10.00">memory</text>
</a>
</g>
</g>
<!-- Node10&#45;&gt;Node13 -->
<g id="edge12" class="edge">
<title>Node10&#45;&gt;Node13</title>
<path fill="none" stroke="#63b8ff" d="M442.94,-109.51C466.84,-100.89 503.14,-87.8 529.95,-78.14"/>
<polygon fill="#63b8ff" stroke="#63b8ff" points="530.79,-81.56 539.01,-74.87 528.41,-74.97 530.79,-81.56"/>
</g>
<!-- Node14 -->
<g id="node14" class="node">
<title>Node14</title>
<g id="a_node14"><a xlink:href="../../d4/d6e/_e57_exception_8h.html" target="_top" xlink:title="Exception handling for E57 API.">
<polygon fill="white" stroke="#666666" points="461,-74 375,-74 375,-55 461,-55 461,-74"/>
<text text-anchor="middle" x="418" y="-62" font-family="Helvetica,sans-Serif" font-size="10.00">E57Exception.h</text>
</a>
</g>
</g>
<!-- Node10&#45;&gt;Node14 -->
<g id="edge14" class="edge">
<title>Node10&#45;&gt;Node14</title>
<path fill="none" stroke="#63b8ff" d="M418,-109.75C418,-103.27 418,-94.16 418,-85.9"/>
<polygon fill="#63b8ff" stroke="#63b8ff" points="421.5,-85.96 418,-75.96 414.5,-85.96 421.5,-85.96"/>
</g>
<!-- Node14&#45;&gt;Node8 -->
<g id="edge17" class="edge">
<title>Node14&#45;&gt;Node8</title>
<path fill="none" stroke="#63b8ff" d="M446.84,-54.51C477.21,-45.04 524.9,-30.17 556.31,-20.38"/>
<polygon fill="#63b8ff" stroke="#63b8ff" points="557.13,-23.79 565.64,-17.47 555.05,-17.11 557.13,-23.79"/>
</g>
<!-- Node15 -->
<g id="node15" class="node">
<title>Node15</title>
<g id="a_node15"><a xlink:title=" ">
<polygon fill="#e0e0e0" stroke="#999999" points="488.5,-19 429.5,-19 429.5,0 488.5,0 488.5,-19"/>
<text text-anchor="middle" x="459" y="-7" font-family="Helvetica,sans-Serif" font-size="10.00">exception</text>
</a>
</g>
</g>
<!-- Node14&#45;&gt;Node15 -->
<g id="edge15" class="edge">
<title>Node14&#45;&gt;Node15</title>
<path fill="none" stroke="#63b8ff" d="M424.77,-54.75C430.32,-47.58 438.34,-37.2 445.23,-28.3"/>
<polygon fill="#63b8ff" stroke="#63b8ff" points="447.81,-30.69 451.16,-20.64 442.27,-26.41 447.81,-30.69"/>
</g>
<!-- Node16 -->
<g id="node16" class="node">
<title>Node16</title>
<g id="a_node16"><a xlink:title=" ">
<polygon fill="#e0e0e0" stroke="#999999" points="681,-19 627,-19 627,0 681,0 681,-19"/>
<text text-anchor="middle" x="654" y="-7" font-family="Helvetica,sans-Serif" font-size="10.00">iostream</text>
</a>
</g>
</g>
<!-- Node14&#45;&gt;Node16 -->
<g id="edge16" class="edge">
<title>Node14&#45;&gt;Node16</title>
<path fill="none" stroke="#63b8ff" d="M459.02,-54.54C497.1,-46.18 555.68,-33.23 615.67,-19.51"/>
<polygon fill="#63b8ff" stroke="#63b8ff" points="616.44,-22.93 625.41,-17.28 614.88,-16.1 616.44,-22.93"/>
</g>
<!-- Node17 -->
<g id="node17" class="node">
<title>Node17</title>
<g id="a_node17"><a xlink:title=" ">
<polygon fill="#e0e0e0" stroke="#999999" points="411.5,-19 340.5,-19 340.5,0 411.5,0 411.5,-19"/>
<text text-anchor="middle" x="376" y="-7" font-family="Helvetica,sans-Serif" font-size="10.00">E57Export.h</text>
</a>
</g>
</g>
<!-- Node14&#45;&gt;Node17 -->
<g id="edge18" class="edge">
<title>Node14&#45;&gt;Node17</title>
<path fill="none" stroke="#63b8ff" d="M411.06,-54.75C405.38,-47.58 397.16,-37.2 390.11,-28.3"/>
<polygon fill="#63b8ff" stroke="#63b8ff" points="392.98,-26.29 384.03,-20.63 387.49,-30.64 392.98,-26.29"/>
</g>
<!-- Node19 -->
<g id="node19" class="node">
<title>Node19</title>
<g id="a_node19"><a xlink:href="../../df/d7b/_node_impl_8h.html" target="_top" xlink:title=" ">
<polygon fill="white" stroke="#666666" points="666.5,-239 599.5,-239 599.5,-220 666.5,-220 666.5,-239"/>
<text text-anchor="middle" x="633" y="-227" font-family="Helvetica,sans-Serif" font-size="10.00">NodeImpl.h</text>
</a>
</g>
</g>
<!-- Node18&#45;&gt;Node19 -->
<g id="edge20" class="edge">
<title>Node18&#45;&gt;Node19</title>
<path fill="none" stroke="#63b8ff" d="M629.66,-274.75C630.15,-268.27 630.84,-259.16 631.46,-250.9"/>
<polygon fill="#63b8ff" stroke="#63b8ff" points="634.95,-251.19 632.21,-240.95 627.97,-250.66 634.95,-251.19"/>
</g>
<!-- Node19&#45;&gt;Node6 -->
<g id="edge21" class="edge">
<title>Node19&#45;&gt;Node6</title>
<path fill="none" stroke="#63b8ff" d="M599.19,-219.63C565.09,-210.68 512.3,-196.83 474.97,-187.04"/>
<polygon fill="#63b8ff" stroke="#63b8ff" points="475.94,-183.67 465.38,-184.52 474.16,-190.44 475.94,-183.67"/>
</g>
<!-- Node21 -->
<g id="node21" class="node">
<title>Node21</title>
<g id="a_node21"><a xlink:href="../../df/d4b/_encoder_8h.html" target="_top" xlink:title=" ">
<polygon fill="white" stroke="#666666" points="403,-239 343,-239 343,-220 403,-220 403,-239"/>
<text text-anchor="middle" x="373" y="-227" font-family="Helvetica,sans-Serif" font-size="10.00">Encoder.h</text>
</a>
</g>
</g>
<!-- Node20&#45;&gt;Node21 -->
<g id="edge23" class="edge">
<title>Node20&#45;&gt;Node21</title>
<path fill="none" stroke="#63b8ff" d="M318.2,-274.51C327.74,-266.85 341.67,-255.66 353.11,-246.47"/>
<polygon fill="#63b8ff" stroke="#63b8ff" points="355.18,-249.3 360.79,-240.31 350.8,-243.84 355.18,-249.3"/>
</g>
<!-- Node22 -->
<g id="node22" class="node">
<title>Node22</title>
<g id="a_node22"><a xlink:href="../../d7/dbe/_packet_8h.html" target="_top" xlink:title=" ">
<polygon fill="white" stroke="#666666" points="287,-239 231,-239 231,-220 287,-220 287,-239"/>
<text text-anchor="middle" x="259" y="-227" font-family="Helvetica,sans-Serif" font-size="10.00">Packet.h</text>
</a>
</g>
</g>
<!-- Node20&#45;&gt;Node22 -->
<g id="edge25" class="edge">
<title>Node20&#45;&gt;Node22</title>
<path fill="none" stroke="#63b8ff" d="M299.07,-274.75C292.44,-267.43 282.78,-256.76 274.61,-247.74"/>
<polygon fill="#63b8ff" stroke="#63b8ff" points="277.42,-245.63 268.11,-240.56 272.23,-250.33 277.42,-245.63"/>
</g>
<!-- Node21&#45;&gt;Node6 -->
<g id="edge24" class="edge">
<title>Node21&#45;&gt;Node6</title>
<path fill="none" stroke="#63b8ff" d="M382.84,-219.51C391.05,-212 402.98,-201.1 412.91,-192.03"/>
<polygon fill="#63b8ff" stroke="#63b8ff" points="415.17,-194.71 420.19,-185.38 410.45,-189.54 415.17,-194.71"/>
</g>
<!-- Node22&#45;&gt;Node6 -->
<g id="edge28" class="edge">
<title>Node22&#45;&gt;Node6</title>
<path fill="none" stroke="#63b8ff" d="M287.4,-219.75C315.74,-211.02 359.52,-197.53 391.29,-187.74"/>
<polygon fill="#63b8ff" stroke="#63b8ff" points="392.01,-191.18 400.53,-184.89 389.95,-184.49 392.01,-191.18"/>
</g>
<!-- Node22&#45;&gt;Node9 -->
<g id="edge27" class="edge">
<title>Node22&#45;&gt;Node9</title>
<path fill="none" stroke="#63b8ff" d="M263.09,-219.74C274.94,-194.31 309.55,-120.08 326.05,-84.69"/>
<polygon fill="#63b8ff" stroke="#63b8ff" points="329.2,-86.22 330.25,-75.68 322.86,-83.26 329.2,-86.22"/>
</g>
<!-- Node22&#45;&gt;Node12 -->
<g id="edge26" class="edge">
<title>Node22&#45;&gt;Node12</title>
<path fill="none" stroke="#63b8ff" d="M259.54,-219.74C261.08,-194.53 265.57,-121.36 267.77,-85.62"/>
<polygon fill="#63b8ff" stroke="#63b8ff" points="271.25,-86.01 268.37,-75.82 264.26,-85.58 271.25,-86.01"/>
</g>
<!-- Node23&#45;&gt;Node6 -->
<g id="edge31" class="edge">
<title>Node23&#45;&gt;Node6</title>
<path fill="none" stroke="#63b8ff" d="M684.81,-220.79C628.67,-210.77 531.16,-193.37 474.74,-183.31"/>
<polygon fill="#63b8ff" stroke="#63b8ff" points="475.64,-179.91 465.18,-181.6 474.41,-186.8 475.64,-179.91"/>
</g>
<!-- Node23&#45;&gt;Node13 -->
<g id="edge30" class="edge">
<title>Node23&#45;&gt;Node13</title>
<path fill="none" stroke="#63b8ff" d="M719.24,-219.74C693.26,-193.76 616.33,-116.83 581.94,-82.44"/>
<polygon fill="#63b8ff" stroke="#63b8ff" points="584.42,-79.97 574.88,-75.38 579.47,-84.92 584.42,-79.97"/>
</g>
<!-- Node24&#45;&gt;Node6 -->
<g id="edge33" class="edge">
<title>Node24&#45;&gt;Node6</title>
<path fill="none" stroke="#63b8ff" d="M447.53,-274.66C444.67,-257.5 438.29,-219.26 434.35,-195.6"/>
<polygon fill="#63b8ff" stroke="#63b8ff" points="437.84,-195.24 432.74,-185.95 430.93,-196.39 437.84,-195.24"/>
</g>
<!-- Node25&#45;&gt;Node6 -->
<g id="edge35" class="edge">
<title>Node25&#45;&gt;Node6</title>
<path fill="none" stroke="#63b8ff" d="M504.9,-219.51C491.4,-211.47 471.35,-199.53 455.54,-190.11"/>
<polygon fill="#63b8ff" stroke="#63b8ff" points="457.56,-187.24 447.18,-185.13 453.98,-193.26 457.56,-187.24"/>
</g>
<!-- Node26&#45;&gt;Node8 -->
<g id="edge40" class="edge">
<title>Node26&#45;&gt;Node8</title>
<path fill="none" stroke="#63b8ff" d="M700.93,-54.51C678.59,-45.8 644.53,-32.53 619.65,-22.84"/>
<polygon fill="#63b8ff" stroke="#63b8ff" points="620.95,-19.58 610.36,-19.21 618.4,-26.11 620.95,-19.58"/>
</g>
<!-- Node26&#45;&gt;Node16 -->
<g id="edge38" class="edge">
<title>Node26&#45;&gt;Node16</title>
<path fill="none" stroke="#63b8ff" d="M712.13,-54.51C701.91,-46.77 686.93,-35.43 674.74,-26.2"/>
<polygon fill="#63b8ff" stroke="#63b8ff" points="676.99,-23.52 666.91,-20.27 672.77,-29.1 676.99,-23.52"/>
</g>
<!-- Node27 -->
<g id="node27" class="node">
<title>Node27</title>
<g id="a_node27"><a xlink:title=" ">
<polygon fill="#e0e0e0" stroke="#999999" points="749,-19 699,-19 699,0 749,0 749,-19"/>
<text text-anchor="middle" x="724" y="-7" font-family="Helvetica,sans-Serif" font-size="10.00">iomanip</text>
</a>
</g>
</g>
<!-- Node26&#45;&gt;Node27 -->
<g id="edge37" class="edge">
<title>Node26&#45;&gt;Node27</title>
<path fill="none" stroke="#63b8ff" d="M724,-54.75C724,-48.27 724,-39.16 724,-30.9"/>
<polygon fill="#63b8ff" stroke="#63b8ff" points="727.5,-30.96 724,-20.96 720.5,-30.96 727.5,-30.96"/>
</g>
<!-- Node28 -->
<g id="node28" class="node">
<title>Node28</title>
<g id="a_node28"><a xlink:title=" ">
<polygon fill="#e0e0e0" stroke="#999999" points="819,-19 767,-19 767,0 819,0 819,-19"/>
<text text-anchor="middle" x="793" y="-7" font-family="Helvetica,sans-Serif" font-size="10.00">sstream</text>
</a>
</g>
</g>
<!-- Node26&#45;&gt;Node28 -->
<g id="edge39" class="edge">
<title>Node26&#45;&gt;Node28</title>
<path fill="none" stroke="#63b8ff" d="M735.7,-54.51C745.78,-46.77 760.54,-35.43 772.56,-26.2"/>
<polygon fill="#63b8ff" stroke="#63b8ff" points="774.47,-29.15 780.27,-20.28 770.21,-23.6 774.47,-29.15"/>
</g>
</g>
</svg>
