<?xml version="1.0" encoding="UTF-8" standalone="no"?>
<!DOCTYPE svg PUBLIC "-//W3C//DTD SVG 1.1//EN"
 "http://www.w3.org/Graphics/SVG/1.1/DTD/svg11.dtd">
<!-- Generated by graphviz version 7.0.0 (20221023.0053)
 -->
<!-- Title: ImageFileImpl.h Pages: 1 -->
<svg width="1543pt" height="82pt"
 viewBox="0.00 0.00 1543.00 82.00" xmlns="http://www.w3.org/2000/svg" xmlns:xlink="http://www.w3.org/1999/xlink">
<g id="graph0" class="graph" transform="scale(1 1) rotate(0) translate(4 78)">
<title>ImageFileImpl.h</title>
<!-- Node1 -->
<g id="node1" class="node">
<title>Node1</title>
<g id="a_node1"><a xlink:title=" ">
<polygon fill="#999999" stroke="#666666" points="897.5,-74 811.5,-74 811.5,-55 897.5,-55 897.5,-74"/>
<text text-anchor="middle" x="854.5" y="-62" font-family="Helvetica,sans-Serif" font-size="10.00">ImageFileImpl.h</text>
</a>
</g>
</g>
<!-- Node2 -->
<g id="node2" class="node">
<title>Node2</title>
<g id="a_node2"><a xlink:href="../../d4/d79/_blob_node_impl_8cpp.html" target="_top" xlink:title=" ">
<polygon fill="white" stroke="#666666" points="97,-19 0,-19 0,0 97,0 97,-19"/>
<text text-anchor="middle" x="48.5" y="-7" font-family="Helvetica,sans-Serif" font-size="10.00">BlobNodeImpl.cpp</text>
</a>
</g>
</g>
<!-- Node1&#45;&gt;Node2 -->
<g id="edge1" class="edge">
<title>Node1&#45;&gt;Node2</title>
<path fill="none" stroke="#63b8ff" d="M799.94,-61.92C676.17,-57.96 364.69,-45.97 105.5,-19 102.81,-18.72 100.06,-18.41 97.28,-18.07"/>
<polygon fill="#63b8ff" stroke="#63b8ff" points="799.71,-65.41 809.82,-62.23 799.93,-58.41 799.71,-65.41"/>
</g>
<!-- Node3 -->
<g id="node3" class="node">
<title>Node3</title>
<g id="a_node3"><a xlink:href="../../db/dd2/_compressed_vector_node_impl_8cpp.html" target="_top" xlink:title=" ">
<polygon fill="white" stroke="#666666" points="276,-19 115,-19 115,0 276,0 276,-19"/>
<text text-anchor="middle" x="195.5" y="-7" font-family="Helvetica,sans-Serif" font-size="10.00">CompressedVectorNodeImpl.cpp</text>
</a>
</g>
</g>
<!-- Node1&#45;&gt;Node3 -->
<g id="edge2" class="edge">
<title>Node1&#45;&gt;Node3</title>
<path fill="none" stroke="#63b8ff" d="M799.84,-59.52C698.41,-52.07 474.23,-35.29 285.5,-19 282.53,-18.74 279.5,-18.48 276.45,-18.21"/>
<polygon fill="#63b8ff" stroke="#63b8ff" points="799.56,-63.01 809.79,-60.25 800.07,-56.03 799.56,-63.01"/>
</g>
<!-- Node4 -->
<g id="node4" class="node">
<title>Node4</title>
<g id="a_node4"><a xlink:href="../../d5/d8d/_compressed_vector_reader_impl_8cpp.html" target="_top" xlink:title=" ">
<polygon fill="white" stroke="#666666" points="464.5,-19 294.5,-19 294.5,0 464.5,0 464.5,-19"/>
<text text-anchor="middle" x="379.5" y="-7" font-family="Helvetica,sans-Serif" font-size="10.00">CompressedVectorReaderImpl.cpp</text>
</a>
</g>
</g>
<!-- Node1&#45;&gt;Node4 -->
<g id="edge3" class="edge">
<title>Node1&#45;&gt;Node4</title>
<path fill="none" stroke="#63b8ff" d="M799.83,-57.4C716.34,-48.08 556.59,-30.26 459.88,-19.47"/>
<polygon fill="#63b8ff" stroke="#63b8ff" points="799.26,-60.86 809.58,-58.49 800.03,-53.9 799.26,-60.86"/>
</g>
<!-- Node5 -->
<g id="node5" class="node">
<title>Node5</title>
<g id="a_node5"><a xlink:href="../../de/d63/_compressed_vector_writer_impl_8cpp.html" target="_top" xlink:title=" ">
<polygon fill="white" stroke="#666666" points="646.5,-19 482.5,-19 482.5,0 646.5,0 646.5,-19"/>
<text text-anchor="middle" x="564.5" y="-7" font-family="Helvetica,sans-Serif" font-size="10.00">CompressedVectorWriterImpl.cpp</text>
</a>
</g>
</g>
<!-- Node1&#45;&gt;Node5 -->
<g id="edge4" class="edge">
<title>Node1&#45;&gt;Node5</title>
<path fill="none" stroke="#63b8ff" d="M800.08,-53.55C746.45,-43.75 665.25,-28.91 613.55,-19.47"/>
<polygon fill="#63b8ff" stroke="#63b8ff" points="799.13,-56.94 809.6,-55.29 800.39,-50.05 799.13,-56.94"/>
</g>
<!-- Node6 -->
<g id="node6" class="node">
<title>Node6</title>
<g id="a_node6"><a xlink:href="../../d0/dfe/_decoder_8cpp.html" target="_top" xlink:title=" ">
<polygon fill="white" stroke="#666666" points="736,-19 665,-19 665,0 736,0 736,-19"/>
<text text-anchor="middle" x="700.5" y="-7" font-family="Helvetica,sans-Serif" font-size="10.00">Decoder.cpp</text>
</a>
</g>
</g>
<!-- Node1&#45;&gt;Node6 -->
<g id="edge5" class="edge">
<title>Node1&#45;&gt;Node6</title>
<path fill="none" stroke="#63b8ff" d="M817.76,-50.85C789.63,-41.17 751.53,-28.06 726.49,-19.45"/>
<polygon fill="#63b8ff" stroke="#63b8ff" points="816.35,-54.07 826.94,-54.02 818.63,-47.45 816.35,-54.07"/>
</g>
<!-- Node7 -->
<g id="node7" class="node">
<title>Node7</title>
<g id="a_node7"><a xlink:href="../../da/d44/_e57_xml_parser_8cpp.html" target="_top" xlink:title=" ">
<polygon fill="white" stroke="#666666" points="852.5,-19 754.5,-19 754.5,0 852.5,0 852.5,-19"/>
<text text-anchor="middle" x="803.5" y="-7" font-family="Helvetica,sans-Serif" font-size="10.00">E57XmlParser.cpp</text>
</a>
</g>
</g>
<!-- Node1&#45;&gt;Node7 -->
<g id="edge6" class="edge">
<title>Node1&#45;&gt;Node7</title>
<path fill="none" stroke="#63b8ff" d="M838.14,-46.5C829.48,-37.5 819.2,-26.82 812.1,-19.44"/>
<polygon fill="#63b8ff" stroke="#63b8ff" points="835.57,-48.88 845.03,-53.66 840.62,-44.02 835.57,-48.88"/>
</g>
<!-- Node8 -->
<g id="node8" class="node">
<title>Node8</title>
<g id="a_node8"><a xlink:href="../../d8/d08/_encoder_8cpp.html" target="_top" xlink:title=" ">
<polygon fill="white" stroke="#666666" points="942,-19 871,-19 871,0 942,0 942,-19"/>
<text text-anchor="middle" x="906.5" y="-7" font-family="Helvetica,sans-Serif" font-size="10.00">Encoder.cpp</text>
</a>
</g>
</g>
<!-- Node1&#45;&gt;Node8 -->
<g id="edge7" class="edge">
<title>Node1&#45;&gt;Node8</title>
<path fill="none" stroke="#63b8ff" d="M870.91,-46.78C879.79,-37.72 890.41,-26.9 897.73,-19.44"/>
<polygon fill="#63b8ff" stroke="#63b8ff" points="868.65,-44.08 864.15,-53.67 873.65,-48.98 868.65,-44.08"/>
</g>
<!-- Node9 -->
<g id="node9" class="node">
<title>Node9</title>
<g id="a_node9"><a xlink:href="../../de/d91/_image_file_8cpp.html" target="_top" xlink:title=" ">
<polygon fill="white" stroke="#666666" points="1038.5,-19 960.5,-19 960.5,0 1038.5,0 1038.5,-19"/>
<text text-anchor="middle" x="999.5" y="-7" font-family="Helvetica,sans-Serif" font-size="10.00">ImageFile.cpp</text>
</a>
</g>
</g>
<!-- Node1&#45;&gt;Node9 -->
<g id="edge8" class="edge">
<title>Node1&#45;&gt;Node9</title>
<path fill="none" stroke="#63b8ff" d="M889.84,-50.58C916.34,-40.9 951.92,-27.89 975.27,-19.36"/>
<polygon fill="#63b8ff" stroke="#63b8ff" points="888.71,-47.27 880.52,-53.99 891.11,-53.84 888.71,-47.27"/>
</g>
<!-- Node10 -->
<g id="node10" class="node">
<title>Node10</title>
<g id="a_node10"><a xlink:href="../../d4/d1f/_image_file_impl_8cpp.html" target="_top" xlink:title=" ">
<polygon fill="white" stroke="#666666" points="1154,-19 1057,-19 1057,0 1154,0 1154,-19"/>
<text text-anchor="middle" x="1105.5" y="-7" font-family="Helvetica,sans-Serif" font-size="10.00">ImageFileImpl.cpp</text>
</a>
</g>
</g>
<!-- Node1&#45;&gt;Node10 -->
<g id="edge9" class="edge">
<title>Node1&#45;&gt;Node10</title>
<path fill="none" stroke="#63b8ff" d="M908.11,-52.18C954.42,-42.4 1020.44,-28.46 1063.13,-19.45"/>
<polygon fill="#63b8ff" stroke="#63b8ff" points="907.62,-48.71 898.56,-54.2 909.07,-55.55 907.62,-48.71"/>
</g>
<!-- Node11 -->
<g id="node11" class="node">
<title>Node11</title>
<g id="a_node11"><a xlink:href="../../d8/d81/_node_impl_8cpp.html" target="_top" xlink:title=" ">
<polygon fill="white" stroke="#666666" points="1249,-19 1172,-19 1172,0 1249,0 1249,-19"/>
<text text-anchor="middle" x="1210.5" y="-7" font-family="Helvetica,sans-Serif" font-size="10.00">NodeImpl.cpp</text>
</a>
</g>
</g>
<!-- Node1&#45;&gt;Node11 -->
<g id="edge10" class="edge">
<title>Node1&#45;&gt;Node11</title>
<path fill="none" stroke="#63b8ff" d="M908.85,-56.27C970.64,-47.92 1074.48,-33.45 1163.5,-19 1166.12,-18.57 1168.82,-18.12 1171.54,-17.66"/>
<polygon fill="#63b8ff" stroke="#63b8ff" points="908.76,-52.75 899.32,-57.56 909.7,-59.69 908.76,-52.75"/>
</g>
<!-- Node12 -->
<g id="node12" class="node">
<title>Node12</title>
<g id="a_node12"><a xlink:href="../../d6/dc5/_source_dest_buffer_impl_8cpp.html" target="_top" xlink:title=" ">
<polygon fill="white" stroke="#666666" points="1399.5,-19 1267.5,-19 1267.5,0 1399.5,0 1399.5,-19"/>
<text text-anchor="middle" x="1333.5" y="-7" font-family="Helvetica,sans-Serif" font-size="10.00">SourceDestBufferImpl.cpp</text>
</a>
</g>
</g>
<!-- Node1&#45;&gt;Node12 -->
<g id="edge11" class="edge">
<title>Node1&#45;&gt;Node12</title>
<path fill="none" stroke="#63b8ff" d="M909.26,-57.52C986.94,-49.03 1133.6,-32.96 1258.5,-19 1261.37,-18.68 1264.29,-18.35 1267.25,-18.02"/>
<polygon fill="#63b8ff" stroke="#63b8ff" points="908.92,-54.04 899.35,-58.61 909.68,-61 908.92,-54.04"/>
</g>
<!-- Node13 -->
<g id="node13" class="node">
<title>Node13</title>
<g id="a_node13"><a xlink:href="../../de/d17/_structure_node_impl_8cpp.html" target="_top" xlink:title=" ">
<polygon fill="white" stroke="#666666" points="1535,-19 1418,-19 1418,0 1535,0 1535,-19"/>
<text text-anchor="middle" x="1476.5" y="-7" font-family="Helvetica,sans-Serif" font-size="10.00">StructureNodeImpl.cpp</text>
</a>
</g>
</g>
<!-- Node1&#45;&gt;Node13 -->
<g id="edge12" class="edge">
<title>Node1&#45;&gt;Node13</title>
<path fill="none" stroke="#63b8ff" d="M908.9,-59.93C1008.25,-53.24 1225.69,-37.76 1408.5,-19 1411.46,-18.7 1414.49,-18.37 1417.55,-18.03"/>
<polygon fill="#63b8ff" stroke="#63b8ff" points="908.91,-56.42 899.17,-60.58 909.38,-63.41 908.91,-56.42"/>
</g>
</g>
</svg>
