<?xml version="1.0" encoding="UTF-8" standalone="no"?>
<!DOCTYPE svg PUBLIC "-//W3C//DTD SVG 1.1//EN"
 "http://www.w3.org/Graphics/SVG/1.1/DTD/svg11.dtd">
<!-- Generated by graphviz version 7.0.0 (20221023.0053)
 -->
<!-- Title: CompressedVectorReaderImpl.cpp Pages: 1 -->
<!--zoomable 412 -->
<svg id="main" version="1.1" xmlns="http://www.w3.org/2000/svg" xmlns:xlink="http://www.w3.org/1999/xlink" xml:space="preserve" onload="init(evt)">
<style type="text/css"><![CDATA[
.edge:hover path { stroke: red; }
.edge:hover polygon { stroke: red; fill: red; }
]]></style>
<script type="text/javascript"><![CDATA[
var edges = document.getElementsByTagName('g');
if (edges && edges.length) {
  for (var i=0;i<edges.length;i++) {
    if (edges[i].id.substr(0,4)=='edge') {
      edges[i].setAttribute('class','edge');
    }
  }
}
]]></script>
        <defs>
                <circle id="rim" cx="0" cy="0" r="7"/>
                <circle id="rim2" cx="0" cy="0" r="3.5"/>
                <g id="zoomPlus">
                        <use xlink:href="#rim" fill="#404040">
                                <set attributeName="fill" to="#808080" begin="zoomplus.mouseover" end="zoomplus.mouseout"/>
                        </use>
                        <path d="M-4,0h8M0,-4v8" fill="none" stroke="white" stroke-width="1.5" pointer-events="none"/>
                </g>
                <g id="zoomMin">
                        <use xlink:href="#rim" fill="#404040">
                                <set attributeName="fill" to="#808080" begin="zoomminus.mouseover" end="zoomminus.mouseout"/>
                        </use>
                        <path d="M-4,0h8" fill="none" stroke="white" stroke-width="1.5" pointer-events="none"/>
                </g>
                <g id="dirArrow">
                        <path fill="none" stroke="white" stroke-width="1.5" d="M0,-3.0v7 M-2.5,-0.5L0,-3.0L2.5,-0.5"/>
                </g>
               <g id="resetDef">
                       <use xlink:href="#rim2" fill="#404040">
                               <set attributeName="fill" to="#808080" begin="reset.mouseover" end="reset.mouseout"/>
                       </use>
               </g>
        </defs>

<script type="text/javascript">
var viewWidth = 649;
var viewHeight = 412;
var sectionId = 'dynsection-0';
</script>
<script xlink:href="../../svgpan.js"/>
<svg id="graph" class="graph">
<g id="viewport">
<title>CompressedVectorReaderImpl.cpp</title>
<!-- Node1 -->
<g id="node1" class="node">
<title>Node1</title>
<g id="a_node1"><a xlink:title=" ">
<polygon fill="#999999" stroke="#666666" points="431.67,-404 261.67,-404 261.67,-385 431.67,-385 431.67,-404"/>
<text text-anchor="middle" x="346.67" y="-392" font-family="Helvetica,sans-Serif" font-size="10.00">CompressedVectorReaderImpl.cpp</text>
</a>
</g>
</g>
<!-- Node2 -->
<g id="node2" class="node">
<title>Node2</title>
<g id="a_node2"><a xlink:href="../../da/db5/_compressed_vector_reader_impl_8h.html" target="_top" xlink:title=" ">
<polygon fill="white" stroke="#666666" points="221.17,-349 62.17,-349 62.17,-330 221.17,-330 221.17,-349"/>
<text text-anchor="middle" x="141.67" y="-337" font-family="Helvetica,sans-Serif" font-size="10.00">CompressedVectorReaderImpl.h</text>
</a>
</g>
</g>
<!-- Node1&#45;&gt;Node2 -->
<g id="edge1" class="edge">
<title>Node1&#45;&gt;Node2</title>
<path fill="none" stroke="#63b8ff" d="M311.89,-384.51C277.48,-375.61 224.63,-361.95 186.95,-352.21"/>
<polygon fill="#63b8ff" stroke="#63b8ff" points="188.29,-348.94 177.74,-349.83 186.54,-355.72 188.29,-348.94"/>
</g>
<!-- Node17 -->
<g id="node17" class="node">
<title>Node17</title>
<g id="a_node17"><a xlink:href="../../dd/d41/_checked_file_8h.html" target="_top" xlink:title=" ">
<polygon fill="white" stroke="#666666" points="319.67,-349 239.67,-349 239.67,-330 319.67,-330 319.67,-349"/>
<text text-anchor="middle" x="279.67" y="-337" font-family="Helvetica,sans-Serif" font-size="10.00">CheckedFile.h</text>
</a>
</g>
</g>
<!-- Node1&#45;&gt;Node17 -->
<g id="edge18" class="edge">
<title>Node1&#45;&gt;Node17</title>
<path fill="none" stroke="#63b8ff" d="M335.3,-384.51C325.62,-376.85 311.47,-365.66 299.86,-356.47"/>
<polygon fill="#63b8ff" stroke="#63b8ff" points="302.07,-353.76 292.05,-350.3 297.72,-359.25 302.07,-353.76"/>
</g>
<!-- Node19 -->
<g id="node19" class="node">
<title>Node19</title>
<g id="a_node19"><a xlink:href="../../da/dbb/_compressed_vector_node_impl_8h.html" target="_top" xlink:title=" ">
<polygon fill="white" stroke="#666666" points="489.17,-349 338.17,-349 338.17,-330 489.17,-330 489.17,-349"/>
<text text-anchor="middle" x="413.67" y="-337" font-family="Helvetica,sans-Serif" font-size="10.00">CompressedVectorNodeImpl.h</text>
</a>
</g>
</g>
<!-- Node1&#45;&gt;Node19 -->
<g id="edge21" class="edge">
<title>Node1&#45;&gt;Node19</title>
<path fill="none" stroke="#63b8ff" d="M358.03,-384.51C367.72,-376.85 381.87,-365.66 393.47,-356.47"/>
<polygon fill="#63b8ff" stroke="#63b8ff" points="395.61,-359.25 401.28,-350.3 391.27,-353.76 395.61,-359.25"/>
</g>
<!-- Node21 -->
<g id="node21" class="node">
<title>Node21</title>
<g id="a_node21"><a xlink:href="../../da/d09/_image_file_impl_8h.html" target="_top" xlink:title=" ">
<polygon fill="white" stroke="#666666" points="133.67,-239 47.67,-239 47.67,-220 133.67,-220 133.67,-239"/>
<text text-anchor="middle" x="90.67" y="-227" font-family="Helvetica,sans-Serif" font-size="10.00">ImageFileImpl.h</text>
</a>
</g>
</g>
<!-- Node1&#45;&gt;Node21 -->
<g id="edge24" class="edge">
<title>Node1&#45;&gt;Node21</title>
<path fill="none" stroke="#63b8ff" d="M261.25,-388.64C184.61,-382.91 78.92,-371.21 43.67,-349 12.56,-329.4 -12.29,-306.5 6.67,-275 15.38,-260.52 30.56,-250.51 45.64,-243.7"/>
<polygon fill="#63b8ff" stroke="#63b8ff" points="46.64,-247.08 54.58,-240.06 44,-240.59 46.64,-247.08"/>
</g>
<!-- Node22 -->
<g id="node22" class="node">
<title>Node22</title>
<g id="a_node22"><a xlink:href="../../d7/dbe/_packet_8h.html" target="_top" xlink:title=" ">
<polygon fill="white" stroke="#666666" points="515.67,-239 459.67,-239 459.67,-220 515.67,-220 515.67,-239"/>
<text text-anchor="middle" x="487.67" y="-227" font-family="Helvetica,sans-Serif" font-size="10.00">Packet.h</text>
</a>
</g>
</g>
<!-- Node1&#45;&gt;Node22 -->
<g id="edge27" class="edge">
<title>Node1&#45;&gt;Node22</title>
<path fill="none" stroke="#63b8ff" d="M412.24,-384.58C454.08,-377.39 502.8,-365.7 515.67,-349 538.59,-319.26 516.22,-273.74 500.38,-248.66"/>
<polygon fill="#63b8ff" stroke="#63b8ff" points="503.43,-246.92 494.98,-240.52 497.6,-250.79 503.43,-246.92"/>
</g>
<!-- Node23 -->
<g id="node23" class="node">
<title>Node23</title>
<g id="a_node23"><a xlink:href="../../d9/d64/_section_headers_8h.html" target="_top" xlink:title=" ">
<polygon fill="white" stroke="#666666" points="441.17,-239 346.17,-239 346.17,-220 441.17,-220 441.17,-239"/>
<text text-anchor="middle" x="393.67" y="-227" font-family="Helvetica,sans-Serif" font-size="10.00">SectionHeaders.h</text>
</a>
</g>
</g>
<!-- Node1&#45;&gt;Node23 -->
<g id="edge31" class="edge">
<title>Node1&#45;&gt;Node23</title>
<path fill="none" stroke="#63b8ff" d="M401.28,-384.58C439.86,-377.03 486.76,-364.9 498.67,-349 528.55,-309.12 463.44,-266.29 422.9,-244.69"/>
<polygon fill="#63b8ff" stroke="#63b8ff" points="424.55,-241.6 414.06,-240.12 421.33,-247.82 424.55,-241.6"/>
</g>
<!-- Node24 -->
<g id="node24" class="node">
<title>Node24</title>
<g id="a_node24"><a xlink:href="../../d4/d90/_source_dest_buffer_impl_8h.html" target="_top" xlink:title=" ">
<polygon fill="white" stroke="#666666" points="137.67,-294 15.67,-294 15.67,-275 137.67,-275 137.67,-294"/>
<text text-anchor="middle" x="76.67" y="-282" font-family="Helvetica,sans-Serif" font-size="10.00">SourceDestBufferImpl.h</text>
</a>
</g>
</g>
<!-- Node1&#45;&gt;Node24 -->
<g id="edge33" class="edge">
<title>Node1&#45;&gt;Node24</title>
<path fill="none" stroke="#63b8ff" d="M261.36,-392.49C184.35,-389.56 79.18,-379.82 52.67,-349 41.3,-335.79 51.08,-316.65 61.36,-302.84"/>
<polygon fill="#63b8ff" stroke="#63b8ff" points="63.77,-305.42 67.35,-295.45 58.34,-301.01 63.77,-305.42"/>
</g>
<!-- Node25 -->
<g id="node25" class="node">
<title>Node25</title>
<g id="a_node25"><a xlink:href="../../db/d42/_string_functions_8h.html" target="_top" xlink:title=" ">
<polygon fill="white" stroke="#666666" points="609.17,-74 516.17,-74 516.17,-55 609.17,-55 609.17,-74"/>
<text text-anchor="middle" x="562.67" y="-62" font-family="Helvetica,sans-Serif" font-size="10.00">StringFunctions.h</text>
</a>
</g>
</g>
<!-- Node1&#45;&gt;Node25 -->
<g id="edge35" class="edge">
<title>Node1&#45;&gt;Node25</title>
<path fill="none" stroke="#63b8ff" d="M432.02,-390.17C503.41,-382.25 593.67,-357.93 593.67,-285.5 593.67,-285.5 593.67,-285.5 593.67,-173.5 593.67,-141.4 580.86,-105.95 571.71,-84.72"/>
<polygon fill="#63b8ff" stroke="#63b8ff" points="575.03,-83.56 567.73,-75.87 568.65,-86.43 575.03,-83.56"/>
</g>
<!-- Node3 -->
<g id="node3" class="node">
<title>Node3</title>
<g id="a_node3"><a xlink:href="../../d4/d28/_decode_channel_8h.html" target="_top" xlink:title=" ">
<polygon fill="white" stroke="#666666" points="251.17,-294 156.17,-294 156.17,-275 251.17,-275 251.17,-294"/>
<text text-anchor="middle" x="203.67" y="-282" font-family="Helvetica,sans-Serif" font-size="10.00">DecodeChannel.h</text>
</a>
</g>
</g>
<!-- Node2&#45;&gt;Node3 -->
<g id="edge2" class="edge">
<title>Node2&#45;&gt;Node3</title>
<path fill="none" stroke="#63b8ff" d="M152.19,-329.51C161.06,-321.93 173.98,-310.88 184.66,-301.75"/>
<polygon fill="#63b8ff" stroke="#63b8ff" points="186.83,-304.5 192.16,-295.34 182.28,-299.18 186.83,-304.5"/>
</g>
<!-- Node4 -->
<g id="node4" class="node">
<title>Node4</title>
<g id="a_node4"><a xlink:href="../../d9/d00/_decoder_8h.html" target="_top" xlink:title=" ">
<polygon fill="white" stroke="#666666" points="251.17,-239 190.17,-239 190.17,-220 251.17,-220 251.17,-239"/>
<text text-anchor="middle" x="220.67" y="-227" font-family="Helvetica,sans-Serif" font-size="10.00">Decoder.h</text>
</a>
</g>
</g>
<!-- Node3&#45;&gt;Node4 -->
<g id="edge3" class="edge">
<title>Node3&#45;&gt;Node4</title>
<path fill="none" stroke="#63b8ff" d="M206.48,-274.75C208.6,-268.11 211.61,-258.73 214.31,-250.31"/>
<polygon fill="#63b8ff" stroke="#63b8ff" points="217.62,-251.47 217.34,-240.88 210.95,-249.34 217.62,-251.47"/>
</g>
<!-- Node5 -->
<g id="node5" class="node">
<title>Node5</title>
<g id="a_node5"><a xlink:href="../../db/d1f/_common_8h.html" target="_top" xlink:title=" ">
<polygon fill="white" stroke="#666666" points="350.17,-184 285.17,-184 285.17,-165 350.17,-165 350.17,-184"/>
<text text-anchor="middle" x="317.67" y="-172" font-family="Helvetica,sans-Serif" font-size="10.00">Common.h</text>
</a>
</g>
</g>
<!-- Node4&#45;&gt;Node5 -->
<g id="edge4" class="edge">
<title>Node4&#45;&gt;Node5</title>
<path fill="none" stroke="#63b8ff" d="M237.12,-219.51C251.98,-211.39 274.11,-199.3 291.41,-189.85"/>
<polygon fill="#63b8ff" stroke="#63b8ff" points="293.03,-192.95 300.13,-185.08 289.67,-186.81 293.03,-192.95"/>
</g>
<!-- Node6 -->
<g id="node6" class="node">
<title>Node6</title>
<g id="a_node6"><a xlink:title=" ">
<polygon fill="#e0e0e0" stroke="#999999" points="333.67,-129 303.67,-129 303.67,-110 333.67,-110 333.67,-129"/>
<text text-anchor="middle" x="318.67" y="-117" font-family="Helvetica,sans-Serif" font-size="10.00">set</text>
</a>
</g>
</g>
<!-- Node5&#45;&gt;Node6 -->
<g id="edge5" class="edge">
<title>Node5&#45;&gt;Node6</title>
<path fill="none" stroke="#63b8ff" d="M317.83,-164.75C317.96,-158.27 318.13,-149.16 318.28,-140.9"/>
<polygon fill="#63b8ff" stroke="#63b8ff" points="321.78,-141.02 318.47,-130.96 314.78,-140.89 321.78,-141.02"/>
</g>
<!-- Node7 -->
<g id="node7" class="node">
<title>Node7</title>
<g id="a_node7"><a xlink:title=" ">
<polygon fill="#e0e0e0" stroke="#999999" points="382.17,-19 341.17,-19 341.17,0 382.17,0 382.17,-19"/>
<text text-anchor="middle" x="361.67" y="-7" font-family="Helvetica,sans-Serif" font-size="10.00">string</text>
</a>
</g>
</g>
<!-- Node5&#45;&gt;Node7 -->
<g id="edge6" class="edge">
<title>Node5&#45;&gt;Node7</title>
<path fill="none" stroke="#63b8ff" d="M323.83,-164.74C329.62,-156.07 338.06,-142.22 342.67,-129 354.24,-95.8 358.81,-54.88 360.58,-30.84"/>
<polygon fill="#63b8ff" stroke="#63b8ff" points="364.08,-31.09 361.21,-20.89 357.09,-30.65 364.08,-31.09"/>
</g>
<!-- Node8 -->
<g id="node8" class="node">
<title>Node8</title>
<g id="a_node8"><a xlink:title=" ">
<polygon fill="#e0e0e0" stroke="#999999" points="497.67,-74 453.67,-74 453.67,-55 497.67,-55 497.67,-74"/>
<text text-anchor="middle" x="475.67" y="-62" font-family="Helvetica,sans-Serif" font-size="10.00">vector</text>
</a>
</g>
</g>
<!-- Node5&#45;&gt;Node8 -->
<g id="edge7" class="edge">
<title>Node5&#45;&gt;Node8</title>
<path fill="none" stroke="#63b8ff" d="M330.6,-164.66C357.45,-146.31 419.54,-103.87 453.12,-80.91"/>
<polygon fill="#63b8ff" stroke="#63b8ff" points="455.03,-83.85 461.31,-75.31 451.08,-78.07 455.03,-83.85"/>
</g>
<!-- Node9 -->
<g id="node9" class="node">
<title>Node9</title>
<g id="a_node9"><a xlink:href="../../d1/df2/_e57_format_8h.html" target="_top" xlink:title="Header file for the E57 API.">
<polygon fill="white" stroke="#666666" points="285.17,-129 212.17,-129 212.17,-110 285.17,-110 285.17,-129"/>
<text text-anchor="middle" x="248.67" y="-117" font-family="Helvetica,sans-Serif" font-size="10.00">E57Format.h</text>
</a>
</g>
</g>
<!-- Node5&#45;&gt;Node9 -->
<g id="edge8" class="edge">
<title>Node5&#45;&gt;Node9</title>
<path fill="none" stroke="#63b8ff" d="M305.96,-164.51C295.89,-156.77 281.13,-145.43 269.11,-136.2"/>
<polygon fill="#63b8ff" stroke="#63b8ff" points="271.46,-133.6 261.4,-130.28 267.2,-139.15 271.46,-133.6"/>
</g>
<!-- Node9&#45;&gt;Node8 -->
<g id="edge12" class="edge">
<title>Node9&#45;&gt;Node8</title>
<path fill="none" stroke="#63b8ff" d="M285.63,-110.62C322.88,-102.57 382.28,-89.42 442.5,-74.46"/>
<polygon fill="#63b8ff" stroke="#63b8ff" points="443.03,-77.94 451.88,-72.11 441.33,-71.14 443.03,-77.94"/>
</g>
<!-- Node10 -->
<g id="node10" class="node">
<title>Node10</title>
<g id="a_node10"><a xlink:title=" ">
<polygon fill="#e0e0e0" stroke="#999999" points="333.17,-74 292.17,-74 292.17,-55 333.17,-55 333.17,-74"/>
<text text-anchor="middle" x="312.67" y="-62" font-family="Helvetica,sans-Serif" font-size="10.00">cfloat</text>
</a>
</g>
</g>
<!-- Node9&#45;&gt;Node10 -->
<g id="edge9" class="edge">
<title>Node9&#45;&gt;Node10</title>
<path fill="none" stroke="#63b8ff" d="M259.52,-109.51C268.77,-101.85 282.29,-90.66 293.38,-81.47"/>
<polygon fill="#63b8ff" stroke="#63b8ff" points="295.34,-84.4 300.81,-75.32 290.87,-79.01 295.34,-84.4"/>
</g>
<!-- Node11 -->
<g id="node11" class="node">
<title>Node11</title>
<g id="a_node11"><a xlink:title=" ">
<polygon fill="#e0e0e0" stroke="#999999" points="435.67,-74 389.67,-74 389.67,-55 435.67,-55 435.67,-74"/>
<text text-anchor="middle" x="412.67" y="-62" font-family="Helvetica,sans-Serif" font-size="10.00">cstdint</text>
</a>
</g>
</g>
<!-- Node9&#45;&gt;Node11 -->
<g id="edge10" class="edge">
<title>Node9&#45;&gt;Node11</title>
<path fill="none" stroke="#63b8ff" d="M276.49,-109.51C304.61,-100.42 348.11,-86.36 378.35,-76.59"/>
<polygon fill="#63b8ff" stroke="#63b8ff" points="379.36,-79.94 387.79,-73.54 377.2,-73.28 379.36,-79.94"/>
</g>
<!-- Node12 -->
<g id="node12" class="node">
<title>Node12</title>
<g id="a_node12"><a xlink:title=" ">
<polygon fill="#e0e0e0" stroke="#999999" points="156.67,-74 104.67,-74 104.67,-55 156.67,-55 156.67,-74"/>
<text text-anchor="middle" x="130.67" y="-62" font-family="Helvetica,sans-Serif" font-size="10.00">memory</text>
</a>
</g>
</g>
<!-- Node9&#45;&gt;Node12 -->
<g id="edge11" class="edge">
<title>Node9&#45;&gt;Node12</title>
<path fill="none" stroke="#63b8ff" d="M228.65,-109.51C210.06,-101.16 182.13,-88.61 160.83,-79.05"/>
<polygon fill="#63b8ff" stroke="#63b8ff" points="162.33,-75.88 151.77,-74.98 159.46,-82.27 162.33,-75.88"/>
</g>
<!-- Node13 -->
<g id="node13" class="node">
<title>Node13</title>
<g id="a_node13"><a xlink:href="../../d4/d6e/_e57_exception_8h.html" target="_top" xlink:title="Exception handling for E57 API.">
<polygon fill="white" stroke="#666666" points="273.67,-74 187.67,-74 187.67,-55 273.67,-55 273.67,-74"/>
<text text-anchor="middle" x="230.67" y="-62" font-family="Helvetica,sans-Serif" font-size="10.00">E57Exception.h</text>
</a>
</g>
</g>
<!-- Node9&#45;&gt;Node13 -->
<g id="edge13" class="edge">
<title>Node9&#45;&gt;Node13</title>
<path fill="none" stroke="#63b8ff" d="M245.7,-109.75C243.44,-103.11 240.26,-93.73 237.4,-85.31"/>
<polygon fill="#63b8ff" stroke="#63b8ff" points="240.72,-84.22 234.19,-75.88 234.09,-86.47 240.72,-84.22"/>
</g>
<!-- Node13&#45;&gt;Node7 -->
<g id="edge16" class="edge">
<title>Node13&#45;&gt;Node7</title>
<path fill="none" stroke="#63b8ff" d="M252.89,-54.51C274.19,-45.89 306.54,-32.8 330.43,-23.14"/>
<polygon fill="#63b8ff" stroke="#63b8ff" points="331.71,-26.4 339.66,-19.4 329.08,-19.91 331.71,-26.4"/>
</g>
<!-- Node14 -->
<g id="node14" class="node">
<title>Node14</title>
<g id="a_node14"><a xlink:title=" ">
<polygon fill="#e0e0e0" stroke="#999999" points="206.17,-19 147.17,-19 147.17,0 206.17,0 206.17,-19"/>
<text text-anchor="middle" x="176.67" y="-7" font-family="Helvetica,sans-Serif" font-size="10.00">exception</text>
</a>
</g>
</g>
<!-- Node13&#45;&gt;Node14 -->
<g id="edge14" class="edge">
<title>Node13&#45;&gt;Node14</title>
<path fill="none" stroke="#63b8ff" d="M221.75,-54.75C214.21,-47.35 203.2,-36.54 193.94,-27.45"/>
<polygon fill="#63b8ff" stroke="#63b8ff" points="196.45,-25.01 186.86,-20.5 191.54,-30 196.45,-25.01"/>
</g>
<!-- Node15 -->
<g id="node15" class="node">
<title>Node15</title>
<g id="a_node15"><a xlink:title=" ">
<polygon fill="#e0e0e0" stroke="#999999" points="486.67,-19 432.67,-19 432.67,0 486.67,0 486.67,-19"/>
<text text-anchor="middle" x="459.67" y="-7" font-family="Helvetica,sans-Serif" font-size="10.00">iostream</text>
</a>
</g>
</g>
<!-- Node13&#45;&gt;Node15 -->
<g id="edge15" class="edge">
<title>Node13&#45;&gt;Node15</title>
<path fill="none" stroke="#63b8ff" d="M269.51,-54.51C311.86,-44.71 379.18,-29.13 421.32,-19.38"/>
<polygon fill="#63b8ff" stroke="#63b8ff" points="422.07,-22.79 431.02,-17.13 420.49,-15.97 422.07,-22.79"/>
</g>
<!-- Node16 -->
<g id="node16" class="node">
<title>Node16</title>
<g id="a_node16"><a xlink:title=" ">
<polygon fill="#e0e0e0" stroke="#999999" points="295.17,-19 224.17,-19 224.17,0 295.17,0 295.17,-19"/>
<text text-anchor="middle" x="259.67" y="-7" font-family="Helvetica,sans-Serif" font-size="10.00">E57Export.h</text>
</a>
</g>
</g>
<!-- Node13&#45;&gt;Node16 -->
<g id="edge17" class="edge">
<title>Node13&#45;&gt;Node16</title>
<path fill="none" stroke="#63b8ff" d="M235.46,-54.75C239.21,-47.88 244.58,-38.08 249.3,-29.45"/>
<polygon fill="#63b8ff" stroke="#63b8ff" points="252.32,-31.22 254.05,-20.77 246.18,-27.86 252.32,-31.22"/>
</g>
<!-- Node17&#45;&gt;Node5 -->
<g id="edge20" class="edge">
<title>Node17&#45;&gt;Node5</title>
<path fill="none" stroke="#63b8ff" d="M281.71,-329.74C287.61,-304.42 304.79,-230.72 313.09,-195.16"/>
<polygon fill="#63b8ff" stroke="#63b8ff" points="316.41,-196.31 315.27,-185.78 309.59,-194.73 316.41,-196.31"/>
</g>
<!-- Node18 -->
<g id="node18" class="node">
<title>Node18</title>
<g id="a_node18"><a xlink:title=" ">
<polygon fill="#e0e0e0" stroke="#999999" points="363.67,-294 307.67,-294 307.67,-275 363.67,-275 363.67,-294"/>
<text text-anchor="middle" x="335.67" y="-282" font-family="Helvetica,sans-Serif" font-size="10.00">algorithm</text>
</a>
</g>
</g>
<!-- Node17&#45;&gt;Node18 -->
<g id="edge19" class="edge">
<title>Node17&#45;&gt;Node18</title>
<path fill="none" stroke="#63b8ff" d="M289.17,-329.51C297.1,-322 308.62,-311.1 318.2,-302.03"/>
<polygon fill="#63b8ff" stroke="#63b8ff" points="320.35,-304.81 325.21,-295.4 315.54,-299.73 320.35,-304.81"/>
</g>
<!-- Node20 -->
<g id="node20" class="node">
<title>Node20</title>
<g id="a_node20"><a xlink:href="../../df/d7b/_node_impl_8h.html" target="_top" xlink:title=" ">
<polygon fill="white" stroke="#666666" points="449.17,-294 382.17,-294 382.17,-275 449.17,-275 449.17,-294"/>
<text text-anchor="middle" x="415.67" y="-282" font-family="Helvetica,sans-Serif" font-size="10.00">NodeImpl.h</text>
</a>
</g>
</g>
<!-- Node19&#45;&gt;Node20 -->
<g id="edge22" class="edge">
<title>Node19&#45;&gt;Node20</title>
<path fill="none" stroke="#63b8ff" d="M414,-329.75C414.24,-323.27 414.59,-314.16 414.9,-305.9"/>
<polygon fill="#63b8ff" stroke="#63b8ff" points="418.39,-306.08 415.27,-295.95 411.4,-305.82 418.39,-306.08"/>
</g>
<!-- Node20&#45;&gt;Node5 -->
<g id="edge23" class="edge">
<title>Node20&#45;&gt;Node5</title>
<path fill="none" stroke="#63b8ff" d="M389.84,-274.53C372.79,-267.37 351.18,-255.75 337.67,-239 327.56,-226.46 322.53,-208.76 320.04,-195.23"/>
<polygon fill="#63b8ff" stroke="#63b8ff" points="323.57,-195.12 318.63,-185.74 316.64,-196.15 323.57,-195.12"/>
</g>
<!-- Node21&#45;&gt;Node5 -->
<g id="edge26" class="edge">
<title>Node21&#45;&gt;Node5</title>
<path fill="none" stroke="#63b8ff" d="M129.18,-219.51C169.27,-210.15 231.95,-195.51 273.9,-185.72"/>
<polygon fill="#63b8ff" stroke="#63b8ff" points="274.46,-189.18 283.4,-183.5 272.87,-182.37 274.46,-189.18"/>
</g>
<!-- Node21&#45;&gt;Node12 -->
<g id="edge25" class="edge">
<title>Node21&#45;&gt;Node12</title>
<path fill="none" stroke="#63b8ff" d="M92.82,-219.74C99.03,-194.42 117.12,-120.72 125.84,-85.16"/>
<polygon fill="#63b8ff" stroke="#63b8ff" points="129.16,-86.32 128.15,-75.78 122.36,-84.65 129.16,-86.32"/>
</g>
<!-- Node22&#45;&gt;Node5 -->
<g id="edge30" class="edge">
<title>Node22&#45;&gt;Node5</title>
<path fill="none" stroke="#63b8ff" d="M459.21,-219.63C431.35,-210.94 388.65,-197.63 357.43,-187.9"/>
<polygon fill="#63b8ff" stroke="#63b8ff" points="358.53,-184.57 347.94,-184.94 356.45,-191.26 358.53,-184.57"/>
</g>
<!-- Node22&#45;&gt;Node8 -->
<g id="edge29" class="edge">
<title>Node22&#45;&gt;Node8</title>
<path fill="none" stroke="#63b8ff" d="M487.02,-219.74C485.17,-194.53 479.78,-121.36 477.15,-85.62"/>
<polygon fill="#63b8ff" stroke="#63b8ff" points="480.65,-85.53 476.43,-75.82 473.67,-86.05 480.65,-85.53"/>
</g>
<!-- Node22&#45;&gt;Node11 -->
<g id="edge28" class="edge">
<title>Node22&#45;&gt;Node11</title>
<path fill="none" stroke="#63b8ff" d="M483.64,-219.74C471.94,-194.31 437.78,-120.08 421.5,-84.69"/>
<polygon fill="#63b8ff" stroke="#63b8ff" points="424.71,-83.3 417.35,-75.68 418.35,-86.23 424.71,-83.3"/>
</g>
<!-- Node23&#45;&gt;Node5 -->
<g id="edge32" class="edge">
<title>Node23&#45;&gt;Node5</title>
<path fill="none" stroke="#63b8ff" d="M380.78,-219.51C369.57,-211.7 353.1,-200.21 339.79,-190.93"/>
<polygon fill="#63b8ff" stroke="#63b8ff" points="341.82,-188.07 331.61,-185.22 337.81,-193.81 341.82,-188.07"/>
</g>
<!-- Node24&#45;&gt;Node5 -->
<g id="edge34" class="edge">
<title>Node24&#45;&gt;Node5</title>
<path fill="none" stroke="#63b8ff" d="M89.08,-274.7C108.22,-261.44 146.43,-236.17 181.67,-220 211.54,-206.3 246.85,-194.88 274,-187.03"/>
<polygon fill="#63b8ff" stroke="#63b8ff" points="274.6,-190.5 283.27,-184.41 272.7,-183.77 274.6,-190.5"/>
</g>
<!-- Node25&#45;&gt;Node7 -->
<g id="edge39" class="edge">
<title>Node25&#45;&gt;Node7</title>
<path fill="none" stroke="#63b8ff" d="M528.57,-54.51C490.87,-44.57 430.61,-28.68 393.75,-18.96"/>
<polygon fill="#63b8ff" stroke="#63b8ff" points="394.68,-15.59 384.12,-16.42 392.9,-22.35 394.68,-15.59"/>
</g>
<!-- Node25&#45;&gt;Node15 -->
<g id="edge37" class="edge">
<title>Node25&#45;&gt;Node15</title>
<path fill="none" stroke="#63b8ff" d="M545.2,-54.51C529.27,-46.31 505.48,-34.07 487.03,-24.58"/>
<polygon fill="#63b8ff" stroke="#63b8ff" points="488.72,-21.51 478.23,-20.05 485.52,-27.74 488.72,-21.51"/>
</g>
<!-- Node26 -->
<g id="node26" class="node">
<title>Node26</title>
<g id="a_node26"><a xlink:title=" ">
<polygon fill="#e0e0e0" stroke="#999999" points="570.67,-19 520.67,-19 520.67,0 570.67,0 570.67,-19"/>
<text text-anchor="middle" x="545.67" y="-7" font-family="Helvetica,sans-Serif" font-size="10.00">iomanip</text>
</a>
</g>
</g>
<!-- Node25&#45;&gt;Node26 -->
<g id="edge36" class="edge">
<title>Node25&#45;&gt;Node26</title>
<path fill="none" stroke="#63b8ff" d="M559.86,-54.75C557.73,-48.11 554.72,-38.73 552.02,-30.31"/>
<polygon fill="#63b8ff" stroke="#63b8ff" points="555.39,-29.34 549,-20.88 548.72,-31.47 555.39,-29.34"/>
</g>
<!-- Node27 -->
<g id="node27" class="node">
<title>Node27</title>
<g id="a_node27"><a xlink:title=" ">
<polygon fill="#e0e0e0" stroke="#999999" points="640.67,-19 588.67,-19 588.67,0 640.67,0 640.67,-19"/>
<text text-anchor="middle" x="614.67" y="-7" font-family="Helvetica,sans-Serif" font-size="10.00">sstream</text>
</a>
</g>
</g>
<!-- Node25&#45;&gt;Node27 -->
<g id="edge38" class="edge">
<title>Node25&#45;&gt;Node27</title>
<path fill="none" stroke="#63b8ff" d="M571.25,-54.75C578.51,-47.35 589.12,-36.54 598.03,-27.45"/>
<polygon fill="#63b8ff" stroke="#63b8ff" points="600.33,-30.11 604.83,-20.52 595.33,-25.21 600.33,-30.11"/>
</g>
</g>
</svg>
        <g id="navigator" transform="translate(0 0)" fill="#404254">
                <rect fill="#f2f5e9" fill-opacity="0.5" stroke="#606060" stroke-width=".5" x="0" y="0" width="60" height="60"/>
                <use id="zoomplus" xlink:href="#zoomPlus" x="17" y="9" onmousedown="handleZoom(evt,'in')"/>
                <use id="zoomminus" xlink:href="#zoomMin" x="42" y="9" onmousedown="handleZoom(evt,'out')"/>
                <use id="reset" xlink:href="#resetDef" x="30" y="36" onmousedown="handleReset()"/>
                <g id="arrowUp" xlink:href="#dirArrow" transform="translate(30 24)" onmousedown="handlePan(0,-1)">
                  <use xlink:href="#rim" fill="#404040">
                        <set attributeName="fill" to="#808080" begin="arrowUp.mouseover" end="arrowUp.mouseout"/>
                  </use>
                  <path fill="none" stroke="white" stroke-width="1.5" d="M0,-3.0v7 M-2.5,-0.5L0,-3.0L2.5,-0.5"/>
                </g>
                <g id="arrowRight" xlink:href="#dirArrow" transform="rotate(90) translate(36 -43)" onmousedown="handlePan(1,0)">
                  <use xlink:href="#rim" fill="#404040">
                        <set attributeName="fill" to="#808080" begin="arrowRight.mouseover" end="arrowRight.mouseout"/>
                  </use>
                  <path fill="none" stroke="white" stroke-width="1.5" d="M0,-3.0v7 M-2.5,-0.5L0,-3.0L2.5,-0.5"/>
                </g>
                <g id="arrowDown" xlink:href="#dirArrow" transform="rotate(180) translate(-30 -48)" onmousedown="handlePan(0,1)">
                  <use xlink:href="#rim" fill="#404040">
                        <set attributeName="fill" to="#808080" begin="arrowDown.mouseover" end="arrowDown.mouseout"/>
                  </use>
                  <path fill="none" stroke="white" stroke-width="1.5" d="M0,-3.0v7 M-2.5,-0.5L0,-3.0L2.5,-0.5"/>
                </g>
                <g id="arrowLeft" xlink:href="#dirArrow" transform="rotate(270) translate(-36 17)" onmousedown="handlePan(-1,0)">
                  <use xlink:href="#rim" fill="#404040">
                        <set attributeName="fill" to="#808080" begin="arrowLeft.mouseover" end="arrowLeft.mouseout"/>
                  </use>
                  <path fill="none" stroke="white" stroke-width="1.5" d="M0,-3.0v7 M-2.5,-0.5L0,-3.0L2.5,-0.5"/>
                </g>
        </g>
        <svg viewBox="0 0 15 15" width="100%" height="30px" preserveAspectRatio="xMaxYMin meet">
         <g id="arrow_out" transform="scale(0.3 0.3)">
          <a xlink:href="_compressed_vector_reader_impl_8cpp__incl_org.svg" target="_base">
           <rect id="button" ry="5" rx="5" y="6" x="6" height="38" width="38"
                fill="#f2f5e9" fill-opacity="0.5" stroke="#606060" stroke-width="1.0"/>
           <path id="arrow"
             d="M 11.500037,31.436501 C 11.940474,20.09759 22.043105,11.32322 32.158766,21.979434 L 37.068811,17.246167 C 37.068811,17.246167 37.088388,32 37.088388,32 L 22.160133,31.978069 C 22.160133,31.978069 26.997745,27.140456 26.997745,27.140456 C 18.528582,18.264221 13.291696,25.230495 11.500037,31.436501 z"
             style="fill:#404040;"/>
          </a>
         </g>
        </svg>
</svg>
