<?xml version="1.0" encoding="UTF-8" standalone="no"?>
<!DOCTYPE svg PUBLIC "-//W3C//DTD SVG 1.1//EN"
 "http://www.w3.org/Graphics/SVG/1.1/DTD/svg11.dtd">
<!-- Generated by graphviz version 9.0.0 (20230911.1827)
 -->
<!-- Title: E57Format.h Pages: 1 -->
<svg width="359pt" height="193pt"
 viewBox="0.00 0.00 358.88 193.00" xmlns="http://www.w3.org/2000/svg" xmlns:xlink="http://www.w3.org/1999/xlink">
<g id="graph0" class="graph" transform="scale(1 1) rotate(0) translate(4 189)">
<title>E57Format.h</title>
<!-- Node1 -->
<g id="node1" class="node">
<title>Node1</title>
<g id="a_node1"><a xlink:title="Header file for the E57 API.">
<polygon fill="#999999" stroke="#666666" points="208.62,-185 136.38,-185 136.38,-165.75 208.62,-165.75 208.62,-185"/>
<text text-anchor="middle" x="172.5" y="-171.5" font-family="Helvetica,sans-Serif" font-size="10.00">E57Format.h</text>
</a>
</g>
</g>
<!-- Node2 -->
<g id="node2" class="node">
<title>Node2</title>
<g id="a_node2"><a xlink:href="../../d3/d5e/_e57_simple_data_8h.html" target="_top" xlink:title="Data structures for E57 Simple API.">
<polygon fill="white" stroke="#666666" points="218.75,-129.75 126.25,-129.75 126.25,-110.5 218.75,-110.5 218.75,-129.75"/>
<text text-anchor="middle" x="172.5" y="-116.25" font-family="Helvetica,sans-Serif" font-size="10.00">E57SimpleData.h</text>
</a>
</g>
</g>
<!-- Node1&#45;&gt;Node2 -->
<g id="edge1" class="edge">
<title>Node1&#45;&gt;Node2</title>
<path fill="none" stroke="#63b8ff" d="M172.5,-154.13C172.5,-145.84 172.5,-136.67 172.5,-130.11"/>
<polygon fill="#63b8ff" stroke="#63b8ff" points="169,-154.07 172.5,-164.07 176,-154.07 169,-154.07"/>
</g>
<!-- Node3 -->
<g id="node3" class="node">
<title>Node3</title>
<g id="a_node3"><a xlink:href="../../de/db4/_e57_simple_data_8cpp.html" target="_top" xlink:title=" ">
<polygon fill="white" stroke="#666666" points="103,-74.5 0,-74.5 0,-55.25 103,-55.25 103,-74.5"/>
<text text-anchor="middle" x="51.5" y="-61" font-family="Helvetica,sans-Serif" font-size="10.00">E57SimpleData.cpp</text>
</a>
</g>
</g>
<!-- Node2&#45;&gt;Node3 -->
<g id="edge2" class="edge">
<title>Node2&#45;&gt;Node3</title>
<path fill="none" stroke="#63b8ff" d="M141.59,-105.52C119.79,-95.93 91.19,-83.34 72.13,-74.95"/>
<polygon fill="#63b8ff" stroke="#63b8ff" points="140.03,-108.66 150.59,-109.48 142.85,-102.25 140.03,-108.66"/>
</g>
<!-- Node4 -->
<g id="node4" class="node">
<title>Node4</title>
<g id="a_node4"><a xlink:href="../../dc/d3a/_e57_simple_reader_8h.html" target="_top" xlink:title="E57 Simple API for reading E57.">
<polygon fill="white" stroke="#666666" points="223.62,-74.5 121.38,-74.5 121.38,-55.25 223.62,-55.25 223.62,-74.5"/>
<text text-anchor="middle" x="172.5" y="-61" font-family="Helvetica,sans-Serif" font-size="10.00">E57SimpleReader.h</text>
</a>
</g>
</g>
<!-- Node2&#45;&gt;Node4 -->
<g id="edge3" class="edge">
<title>Node2&#45;&gt;Node4</title>
<path fill="none" stroke="#63b8ff" d="M172.5,-98.88C172.5,-90.59 172.5,-81.42 172.5,-74.86"/>
<polygon fill="#63b8ff" stroke="#63b8ff" points="169,-98.82 172.5,-108.82 176,-98.82 169,-98.82"/>
</g>
<!-- Node6 -->
<g id="node6" class="node">
<title>Node6</title>
<g id="a_node6"><a xlink:href="../../d3/d3a/_e57_simple_writer_8h.html" target="_top" xlink:title="E57 Simple API for writing E57.">
<polygon fill="white" stroke="#666666" points="342.62,-74.5 246.38,-74.5 246.38,-55.25 342.62,-55.25 342.62,-74.5"/>
<text text-anchor="middle" x="294.5" y="-61" font-family="Helvetica,sans-Serif" font-size="10.00">E57SimpleWriter.h</text>
</a>
</g>
</g>
<!-- Node2&#45;&gt;Node6 -->
<g id="edge5" class="edge">
<title>Node2&#45;&gt;Node6</title>
<path fill="none" stroke="#63b8ff" d="M203.67,-105.52C225.65,-95.93 254.48,-83.34 273.7,-74.95"/>
<polygon fill="#63b8ff" stroke="#63b8ff" points="202.35,-102.28 194.58,-109.49 205.15,-108.69 202.35,-102.28"/>
</g>
<!-- Node5 -->
<g id="node5" class="node">
<title>Node5</title>
<g id="a_node5"><a xlink:href="../../dd/d80/_e57_simple_reader_8cpp.html" target="_top" xlink:title=" ">
<polygon fill="white" stroke="#666666" points="225.88,-19.25 113.12,-19.25 113.12,0 225.88,0 225.88,-19.25"/>
<text text-anchor="middle" x="169.5" y="-5.75" font-family="Helvetica,sans-Serif" font-size="10.00">E57SimpleReader.cpp</text>
</a>
</g>
</g>
<!-- Node4&#45;&gt;Node5 -->
<g id="edge4" class="edge">
<title>Node4&#45;&gt;Node5</title>
<path fill="none" stroke="#63b8ff" d="M171.36,-43.63C170.89,-35.34 170.38,-26.17 170.01,-19.61"/>
<polygon fill="#63b8ff" stroke="#63b8ff" points="167.86,-43.78 171.92,-53.57 174.85,-43.39 167.86,-43.78"/>
</g>
<!-- Node7 -->
<g id="node7" class="node">
<title>Node7</title>
<g id="a_node7"><a xlink:href="../../dc/d80/_e57_simple_writer_8cpp.html" target="_top" xlink:title=" ">
<polygon fill="white" stroke="#666666" points="350.88,-19.25 244.12,-19.25 244.12,0 350.88,0 350.88,-19.25"/>
<text text-anchor="middle" x="297.5" y="-5.75" font-family="Helvetica,sans-Serif" font-size="10.00">E57SimpleWriter.cpp</text>
</a>
</g>
</g>
<!-- Node6&#45;&gt;Node7 -->
<g id="edge6" class="edge">
<title>Node6&#45;&gt;Node7</title>
<path fill="none" stroke="#63b8ff" d="M295.64,-43.63C296.11,-35.34 296.62,-26.17 296.99,-19.61"/>
<polygon fill="#63b8ff" stroke="#63b8ff" points="292.15,-43.39 295.08,-53.57 299.14,-43.78 292.15,-43.39"/>
</g>
</g>
</svg>
