<?xml version="1.0" encoding="UTF-8" standalone="no"?>
<!DOCTYPE svg PUBLIC "-//W3C//DTD SVG 1.1//EN"
 "http://www.w3.org/Graphics/SVG/1.1/DTD/svg11.dtd">
<!-- Generated by graphviz version 8.1.0 (20230707.0739)
 -->
<!-- Title: CompressedVectorNode.cpp Pages: 1 -->
<svg width="268pt" height="83pt"
 viewBox="0.00 0.00 268.38 82.50" xmlns="http://www.w3.org/2000/svg" xmlns:xlink="http://www.w3.org/1999/xlink">
<g id="graph0" class="graph" transform="scale(1 1) rotate(0) translate(4 78.5)">
<title>CompressedVectorNode.cpp</title>
<!-- Node1 -->
<g id="node1" class="node">
<title>Node1</title>
<g id="a_node1"><a xlink:title=" ">
<polygon fill="#999999" stroke="#666666" points="215.12,-74.5 73.12,-74.5 73.12,-55.25 215.12,-55.25 215.12,-74.5"/>
<text text-anchor="middle" x="144.12" y="-61" font-family="Helvetica,sans-Serif" font-size="10.00">CompressedVectorNode.cpp</text>
</a>
</g>
</g>
<!-- Node2 -->
<g id="node2" class="node">
<title>Node2</title>
<g id="a_node2"><a xlink:title=" ">
<polygon fill="#e0e0e0" stroke="#999999" points="150.25,-19.25 0,-19.25 0,0 150.25,0 150.25,-19.25"/>
<text text-anchor="middle" x="75.12" y="-5.75" font-family="Helvetica,sans-Serif" font-size="10.00">CompressedVectorNodeImpl.h</text>
</a>
</g>
</g>
<!-- Node1&#45;&gt;Node2 -->
<g id="edge1" class="edge">
<title>Node1&#45;&gt;Node2</title>
<path fill="none" stroke="#63b8ff" d="M132.42,-54.84C122.25,-46.99 107.29,-35.45 95.21,-26.12"/>
<polygon fill="#63b8ff" stroke="#63b8ff" points="97.71,-22.86 87.66,-19.52 93.44,-28.41 97.71,-22.86"/>
</g>
<!-- Node3 -->
<g id="node3" class="node">
<title>Node3</title>
<g id="a_node3"><a xlink:title=" ">
<polygon fill="#e0e0e0" stroke="#999999" points="260.38,-19.25 167.88,-19.25 167.88,0 260.38,0 260.38,-19.25"/>
<text text-anchor="middle" x="214.12" y="-5.75" font-family="Helvetica,sans-Serif" font-size="10.00">StringFunctions.h</text>
</a>
</g>
</g>
<!-- Node1&#45;&gt;Node3 -->
<g id="edge2" class="edge">
<title>Node1&#45;&gt;Node3</title>
<path fill="none" stroke="#63b8ff" d="M156,-54.84C166.32,-46.99 181.49,-35.45 193.75,-26.12"/>
<polygon fill="#63b8ff" stroke="#63b8ff" points="195.59,-28.36 201.43,-19.52 191.35,-22.79 195.59,-28.36"/>
</g>
</g>
</svg>
