<?xml version="1.0" encoding="UTF-8" standalone="no"?>
<!DOCTYPE svg PUBLIC "-//W3C//DTD SVG 1.1//EN"
 "http://www.w3.org/Graphics/SVG/1.1/DTD/svg11.dtd">
<!-- Generated by graphviz version 7.0.0 (20221023.0053)
 -->
<!-- Title: ScaledIntegerNodeImpl.cpp Pages: 1 -->
<svg width="550pt" height="357pt"
 viewBox="0.00 0.00 550.00 357.00" xmlns="http://www.w3.org/2000/svg" xmlns:xlink="http://www.w3.org/1999/xlink">
<g id="graph0" class="graph" transform="scale(1 1) rotate(0) translate(4 353)">
<title>ScaledIntegerNodeImpl.cpp</title>
<!-- Node1 -->
<g id="node1" class="node">
<title>Node1</title>
<g id="a_node1"><a xlink:title=" ">
<polygon fill="#999999" stroke="#666666" points="371.5,-349 234.5,-349 234.5,-330 371.5,-330 371.5,-349"/>
<text text-anchor="middle" x="303" y="-337" font-family="Helvetica,sans-Serif" font-size="10.00">ScaledIntegerNodeImpl.cpp</text>
</a>
</g>
</g>
<!-- Node2 -->
<g id="node2" class="node">
<title>Node2</title>
<g id="a_node2"><a xlink:title=" ">
<polygon fill="#e0e0e0" stroke="#999999" points="184,-294 140,-294 140,-275 184,-275 184,-294"/>
<text text-anchor="middle" x="162" y="-282" font-family="Helvetica,sans-Serif" font-size="10.00">cmath</text>
</a>
</g>
</g>
<!-- Node1&#45;&gt;Node2 -->
<g id="edge1" class="edge">
<title>Node1&#45;&gt;Node2</title>
<path fill="none" stroke="#63b8ff" d="M279.08,-329.51C255.95,-320.81 220.7,-307.57 194.93,-297.88"/>
<polygon fill="#63b8ff" stroke="#63b8ff" points="196.18,-294.61 185.59,-294.37 193.72,-301.16 196.18,-294.61"/>
</g>
<!-- Node3 -->
<g id="node3" class="node">
<title>Node3</title>
<g id="a_node3"><a xlink:href="../../dd/d41/_checked_file_8h.html" target="_top" xlink:title=" ">
<polygon fill="white" stroke="#666666" points="282,-294 202,-294 202,-275 282,-275 282,-294"/>
<text text-anchor="middle" x="242" y="-282" font-family="Helvetica,sans-Serif" font-size="10.00">CheckedFile.h</text>
</a>
</g>
</g>
<!-- Node1&#45;&gt;Node3 -->
<g id="edge2" class="edge">
<title>Node1&#45;&gt;Node3</title>
<path fill="none" stroke="#63b8ff" d="M292.65,-329.51C283.92,-321.93 271.21,-310.88 260.7,-301.75"/>
<polygon fill="#63b8ff" stroke="#63b8ff" points="263.18,-299.27 253.34,-295.35 258.59,-304.55 263.18,-299.27"/>
</g>
<!-- Node17 -->
<g id="node17" class="node">
<title>Node17</title>
<g id="a_node17"><a xlink:href="../../d5/dae/_scaled_integer_node_impl_8h.html" target="_top" xlink:title=" ">
<polygon fill="white" stroke="#666666" points="427.5,-294 300.5,-294 300.5,-275 427.5,-275 427.5,-294"/>
<text text-anchor="middle" x="364" y="-282" font-family="Helvetica,sans-Serif" font-size="10.00">ScaledIntegerNodeImpl.h</text>
</a>
</g>
</g>
<!-- Node1&#45;&gt;Node17 -->
<g id="edge18" class="edge">
<title>Node1&#45;&gt;Node17</title>
<path fill="none" stroke="#63b8ff" d="M313.35,-329.51C322.08,-321.93 334.79,-310.88 345.3,-301.75"/>
<polygon fill="#63b8ff" stroke="#63b8ff" points="347.41,-304.55 352.66,-295.35 342.82,-299.27 347.41,-304.55"/>
</g>
<!-- Node19 -->
<g id="node19" class="node">
<title>Node19</title>
<g id="a_node19"><a xlink:href="../../db/d42/_string_functions_8h.html" target="_top" xlink:title=" ">
<polygon fill="white" stroke="#666666" points="493.5,-74 400.5,-74 400.5,-55 493.5,-55 493.5,-74"/>
<text text-anchor="middle" x="447" y="-62" font-family="Helvetica,sans-Serif" font-size="10.00">StringFunctions.h</text>
</a>
</g>
</g>
<!-- Node1&#45;&gt;Node19 -->
<g id="edge21" class="edge">
<title>Node1&#45;&gt;Node19</title>
<path fill="none" stroke="#63b8ff" d="M369.5,-329.5C393.56,-323.17 419.16,-312.38 437,-294 457.52,-272.86 456,-259.96 456,-230.5 456,-230.5 456,-230.5 456,-173.5 456,-142.82 452.35,-107.4 449.7,-85.73"/>
<polygon fill="#63b8ff" stroke="#63b8ff" points="453.18,-85.42 448.44,-75.94 446.24,-86.3 453.18,-85.42"/>
</g>
<!-- Node4 -->
<g id="node4" class="node">
<title>Node4</title>
<g id="a_node4"><a xlink:title=" ">
<polygon fill="#e0e0e0" stroke="#999999" points="270,-239 214,-239 214,-220 270,-220 270,-239"/>
<text text-anchor="middle" x="242" y="-227" font-family="Helvetica,sans-Serif" font-size="10.00">algorithm</text>
</a>
</g>
</g>
<!-- Node3&#45;&gt;Node4 -->
<g id="edge3" class="edge">
<title>Node3&#45;&gt;Node4</title>
<path fill="none" stroke="#63b8ff" d="M242,-274.75C242,-268.27 242,-259.16 242,-250.9"/>
<polygon fill="#63b8ff" stroke="#63b8ff" points="245.5,-250.96 242,-240.96 238.5,-250.96 245.5,-250.96"/>
</g>
<!-- Node5 -->
<g id="node5" class="node">
<title>Node5</title>
<g id="a_node5"><a xlink:href="../../db/d1f/_common_8h.html" target="_top" xlink:title=" ">
<polygon fill="white" stroke="#666666" points="380.5,-184 315.5,-184 315.5,-165 380.5,-165 380.5,-184"/>
<text text-anchor="middle" x="348" y="-172" font-family="Helvetica,sans-Serif" font-size="10.00">Common.h</text>
</a>
</g>
</g>
<!-- Node3&#45;&gt;Node5 -->
<g id="edge4" class="edge">
<title>Node3&#45;&gt;Node5</title>
<path fill="none" stroke="#63b8ff" d="M250.67,-274.66C268.3,-256.7 308.56,-215.69 331.39,-192.42"/>
<polygon fill="#63b8ff" stroke="#63b8ff" points="333.64,-195.13 338.15,-185.54 328.64,-190.23 333.64,-195.13"/>
</g>
<!-- Node6 -->
<g id="node6" class="node">
<title>Node6</title>
<g id="a_node6"><a xlink:title=" ">
<polygon fill="#e0e0e0" stroke="#999999" points="428,-129 398,-129 398,-110 428,-110 428,-129"/>
<text text-anchor="middle" x="413" y="-117" font-family="Helvetica,sans-Serif" font-size="10.00">set</text>
</a>
</g>
</g>
<!-- Node5&#45;&gt;Node6 -->
<g id="edge5" class="edge">
<title>Node5&#45;&gt;Node6</title>
<path fill="none" stroke="#63b8ff" d="M359.03,-164.51C368.42,-156.85 382.15,-145.66 393.41,-136.47"/>
<polygon fill="#63b8ff" stroke="#63b8ff" points="395.43,-139.35 400.96,-130.31 391,-133.92 395.43,-139.35"/>
</g>
<!-- Node7 -->
<g id="node7" class="node">
<title>Node7</title>
<g id="a_node7"><a xlink:title=" ">
<polygon fill="#e0e0e0" stroke="#999999" points="403.5,-19 362.5,-19 362.5,0 403.5,0 403.5,-19"/>
<text text-anchor="middle" x="383" y="-7" font-family="Helvetica,sans-Serif" font-size="10.00">string</text>
</a>
</g>
</g>
<!-- Node5&#45;&gt;Node7 -->
<g id="edge6" class="edge">
<title>Node5&#45;&gt;Node7</title>
<path fill="none" stroke="#63b8ff" d="M349.88,-164.74C355.32,-139.42 371.14,-65.72 378.78,-30.16"/>
<polygon fill="#63b8ff" stroke="#63b8ff" points="382.11,-31.3 380.79,-20.79 375.27,-29.83 382.11,-31.3"/>
</g>
<!-- Node8 -->
<g id="node8" class="node">
<title>Node8</title>
<g id="a_node8"><a xlink:title=" ">
<polygon fill="#e0e0e0" stroke="#999999" points="342,-74 298,-74 298,-55 342,-55 342,-74"/>
<text text-anchor="middle" x="320" y="-62" font-family="Helvetica,sans-Serif" font-size="10.00">vector</text>
</a>
</g>
</g>
<!-- Node5&#45;&gt;Node8 -->
<g id="edge7" class="edge">
<title>Node5&#45;&gt;Node8</title>
<path fill="none" stroke="#63b8ff" d="M345.71,-164.66C341.26,-147.5 331.34,-109.26 325.21,-85.6"/>
<polygon fill="#63b8ff" stroke="#63b8ff" points="328.6,-84.73 322.7,-75.93 321.82,-86.48 328.6,-84.73"/>
</g>
<!-- Node9 -->
<g id="node9" class="node">
<title>Node9</title>
<g id="a_node9"><a xlink:href="../../d1/df2/_e57_format_8h.html" target="_top" xlink:title="Header file for the E57 API.">
<polygon fill="white" stroke="#666666" points="232.5,-129 159.5,-129 159.5,-110 232.5,-110 232.5,-129"/>
<text text-anchor="middle" x="196" y="-117" font-family="Helvetica,sans-Serif" font-size="10.00">E57Format.h</text>
</a>
</g>
</g>
<!-- Node5&#45;&gt;Node9 -->
<g id="edge8" class="edge">
<title>Node5&#45;&gt;Node9</title>
<path fill="none" stroke="#63b8ff" d="M322.22,-164.51C297.57,-155.92 260.19,-142.88 232.49,-133.22"/>
<polygon fill="#63b8ff" stroke="#63b8ff" points="233.68,-129.93 223.09,-129.94 231.38,-136.54 233.68,-129.93"/>
</g>
<!-- Node9&#45;&gt;Node8 -->
<g id="edge12" class="edge">
<title>Node9&#45;&gt;Node8</title>
<path fill="none" stroke="#63b8ff" d="M217.03,-109.51C236.75,-101.08 266.47,-88.38 288.91,-78.79"/>
<polygon fill="#63b8ff" stroke="#63b8ff" points="290.06,-82.1 297.88,-74.95 287.31,-75.66 290.06,-82.1"/>
</g>
<!-- Node10 -->
<g id="node10" class="node">
<title>Node10</title>
<g id="a_node10"><a xlink:title=" ">
<polygon fill="#e0e0e0" stroke="#999999" points="175.5,-74 134.5,-74 134.5,-55 175.5,-55 175.5,-74"/>
<text text-anchor="middle" x="155" y="-62" font-family="Helvetica,sans-Serif" font-size="10.00">cfloat</text>
</a>
</g>
</g>
<!-- Node9&#45;&gt;Node10 -->
<g id="edge9" class="edge">
<title>Node9&#45;&gt;Node10</title>
<path fill="none" stroke="#63b8ff" d="M189.23,-109.75C183.68,-102.58 175.66,-92.2 168.77,-83.3"/>
<polygon fill="#63b8ff" stroke="#63b8ff" points="171.73,-81.41 162.84,-75.64 166.19,-85.69 171.73,-81.41"/>
</g>
<!-- Node11 -->
<g id="node11" class="node">
<title>Node11</title>
<g id="a_node11"><a xlink:title=" ">
<polygon fill="#e0e0e0" stroke="#999999" points="46,-74 0,-74 0,-55 46,-55 46,-74"/>
<text text-anchor="middle" x="23" y="-62" font-family="Helvetica,sans-Serif" font-size="10.00">cstdint</text>
</a>
</g>
</g>
<!-- Node9&#45;&gt;Node11 -->
<g id="edge10" class="edge">
<title>Node9&#45;&gt;Node11</title>
<path fill="none" stroke="#63b8ff" d="M166.65,-109.51C136.3,-100.21 88.95,-85.7 56.99,-75.91"/>
<polygon fill="#63b8ff" stroke="#63b8ff" points="58.41,-72.69 47.82,-73.1 56.36,-79.38 58.41,-72.69"/>
</g>
<!-- Node12 -->
<g id="node12" class="node">
<title>Node12</title>
<g id="a_node12"><a xlink:title=" ">
<polygon fill="#e0e0e0" stroke="#999999" points="116,-74 64,-74 64,-55 116,-55 116,-74"/>
<text text-anchor="middle" x="90" y="-62" font-family="Helvetica,sans-Serif" font-size="10.00">memory</text>
</a>
</g>
</g>
<!-- Node9&#45;&gt;Node12 -->
<g id="edge11" class="edge">
<title>Node9&#45;&gt;Node12</title>
<path fill="none" stroke="#63b8ff" d="M178.02,-109.51C161.55,-101.27 136.91,-88.96 117.89,-79.45"/>
<polygon fill="#63b8ff" stroke="#63b8ff" points="119.58,-76.38 109.07,-75.03 116.45,-82.64 119.58,-76.38"/>
</g>
<!-- Node13 -->
<g id="node13" class="node">
<title>Node13</title>
<g id="a_node13"><a xlink:href="../../d4/d6e/_e57_exception_8h.html" target="_top" xlink:title="Exception handling for E57 API.">
<polygon fill="white" stroke="#666666" points="280,-74 194,-74 194,-55 280,-55 280,-74"/>
<text text-anchor="middle" x="237" y="-62" font-family="Helvetica,sans-Serif" font-size="10.00">E57Exception.h</text>
</a>
</g>
</g>
<!-- Node9&#45;&gt;Node13 -->
<g id="edge13" class="edge">
<title>Node9&#45;&gt;Node13</title>
<path fill="none" stroke="#63b8ff" d="M202.77,-109.75C208.32,-102.58 216.34,-92.2 223.23,-83.3"/>
<polygon fill="#63b8ff" stroke="#63b8ff" points="225.81,-85.69 229.16,-75.64 220.27,-81.41 225.81,-85.69"/>
</g>
<!-- Node13&#45;&gt;Node7 -->
<g id="edge16" class="edge">
<title>Node13&#45;&gt;Node7</title>
<path fill="none" stroke="#63b8ff" d="M261.77,-54.51C286.54,-45.52 324.73,-31.65 351.61,-21.9"/>
<polygon fill="#63b8ff" stroke="#63b8ff" points="352.74,-25.21 360.94,-18.51 350.35,-18.63 352.74,-25.21"/>
</g>
<!-- Node14 -->
<g id="node14" class="node">
<title>Node14</title>
<g id="a_node14"><a xlink:title=" ">
<polygon fill="#e0e0e0" stroke="#999999" points="182.5,-19 123.5,-19 123.5,0 182.5,0 182.5,-19"/>
<text text-anchor="middle" x="153" y="-7" font-family="Helvetica,sans-Serif" font-size="10.00">exception</text>
</a>
</g>
</g>
<!-- Node13&#45;&gt;Node14 -->
<g id="edge14" class="edge">
<title>Node13&#45;&gt;Node14</title>
<path fill="none" stroke="#63b8ff" d="M222.75,-54.51C210.12,-46.54 191.44,-34.75 176.59,-25.38"/>
<polygon fill="#63b8ff" stroke="#63b8ff" points="178.64,-22.54 168.32,-20.17 174.91,-28.46 178.64,-22.54"/>
</g>
<!-- Node15 -->
<g id="node15" class="node">
<title>Node15</title>
<g id="a_node15"><a xlink:title=" ">
<polygon fill="#e0e0e0" stroke="#999999" points="344,-19 290,-19 290,0 344,0 344,-19"/>
<text text-anchor="middle" x="317" y="-7" font-family="Helvetica,sans-Serif" font-size="10.00">iostream</text>
</a>
</g>
</g>
<!-- Node13&#45;&gt;Node15 -->
<g id="edge15" class="edge">
<title>Node13&#45;&gt;Node15</title>
<path fill="none" stroke="#63b8ff" d="M250.57,-54.51C262.48,-46.62 280.05,-34.98 294.13,-25.65"/>
<polygon fill="#63b8ff" stroke="#63b8ff" points="295.96,-28.63 302.37,-20.19 292.1,-22.8 295.96,-28.63"/>
</g>
<!-- Node16 -->
<g id="node16" class="node">
<title>Node16</title>
<g id="a_node16"><a xlink:title=" ">
<polygon fill="#e0e0e0" stroke="#999999" points="271.5,-19 200.5,-19 200.5,0 271.5,0 271.5,-19"/>
<text text-anchor="middle" x="236" y="-7" font-family="Helvetica,sans-Serif" font-size="10.00">E57Export.h</text>
</a>
</g>
</g>
<!-- Node13&#45;&gt;Node16 -->
<g id="edge17" class="edge">
<title>Node13&#45;&gt;Node16</title>
<path fill="none" stroke="#63b8ff" d="M236.83,-54.75C236.71,-48.27 236.54,-39.16 236.38,-30.9"/>
<polygon fill="#63b8ff" stroke="#63b8ff" points="239.89,-30.89 236.2,-20.96 232.89,-31.02 239.89,-30.89"/>
</g>
<!-- Node18 -->
<g id="node18" class="node">
<title>Node18</title>
<g id="a_node18"><a xlink:href="../../df/d7b/_node_impl_8h.html" target="_top" xlink:title=" ">
<polygon fill="white" stroke="#666666" points="396.5,-239 329.5,-239 329.5,-220 396.5,-220 396.5,-239"/>
<text text-anchor="middle" x="363" y="-227" font-family="Helvetica,sans-Serif" font-size="10.00">NodeImpl.h</text>
</a>
</g>
</g>
<!-- Node17&#45;&gt;Node18 -->
<g id="edge19" class="edge">
<title>Node17&#45;&gt;Node18</title>
<path fill="none" stroke="#63b8ff" d="M363.83,-274.75C363.71,-268.27 363.54,-259.16 363.38,-250.9"/>
<polygon fill="#63b8ff" stroke="#63b8ff" points="366.89,-250.89 363.2,-240.96 359.89,-251.02 366.89,-250.89"/>
</g>
<!-- Node18&#45;&gt;Node5 -->
<g id="edge20" class="edge">
<title>Node18&#45;&gt;Node5</title>
<path fill="none" stroke="#63b8ff" d="M360.52,-219.75C358.65,-213.11 355.99,-203.73 353.61,-195.31"/>
<polygon fill="#63b8ff" stroke="#63b8ff" points="357.03,-194.57 350.94,-185.9 350.3,-196.47 357.03,-194.57"/>
</g>
<!-- Node19&#45;&gt;Node7 -->
<g id="edge25" class="edge">
<title>Node19&#45;&gt;Node7</title>
<path fill="none" stroke="#63b8ff" d="M436.14,-54.51C426.89,-46.85 413.38,-35.66 402.29,-26.47"/>
<polygon fill="#63b8ff" stroke="#63b8ff" points="404.8,-24.01 394.86,-20.32 400.33,-29.4 404.8,-24.01"/>
</g>
<!-- Node19&#45;&gt;Node15 -->
<g id="edge23" class="edge">
<title>Node19&#45;&gt;Node15</title>
<path fill="none" stroke="#63b8ff" d="M424.95,-54.51C404.19,-46.04 372.84,-33.27 349.27,-23.66"/>
<polygon fill="#63b8ff" stroke="#63b8ff" points="350.71,-20.46 340.13,-19.93 348.07,-26.95 350.71,-20.46"/>
</g>
<!-- Node20 -->
<g id="node20" class="node">
<title>Node20</title>
<g id="a_node20"><a xlink:title=" ">
<polygon fill="#e0e0e0" stroke="#999999" points="472,-19 422,-19 422,0 472,0 472,-19"/>
<text text-anchor="middle" x="447" y="-7" font-family="Helvetica,sans-Serif" font-size="10.00">iomanip</text>
</a>
</g>
</g>
<!-- Node19&#45;&gt;Node20 -->
<g id="edge22" class="edge">
<title>Node19&#45;&gt;Node20</title>
<path fill="none" stroke="#63b8ff" d="M447,-54.75C447,-48.27 447,-39.16 447,-30.9"/>
<polygon fill="#63b8ff" stroke="#63b8ff" points="450.5,-30.96 447,-20.96 443.5,-30.96 450.5,-30.96"/>
</g>
<!-- Node21 -->
<g id="node21" class="node">
<title>Node21</title>
<g id="a_node21"><a xlink:title=" ">
<polygon fill="#e0e0e0" stroke="#999999" points="542,-19 490,-19 490,0 542,0 542,-19"/>
<text text-anchor="middle" x="516" y="-7" font-family="Helvetica,sans-Serif" font-size="10.00">sstream</text>
</a>
</g>
</g>
<!-- Node19&#45;&gt;Node21 -->
<g id="edge24" class="edge">
<title>Node19&#45;&gt;Node21</title>
<path fill="none" stroke="#63b8ff" d="M458.7,-54.51C468.78,-46.77 483.54,-35.43 495.56,-26.2"/>
<polygon fill="#63b8ff" stroke="#63b8ff" points="497.47,-29.15 503.27,-20.28 493.21,-23.6 497.47,-29.15"/>
</g>
</g>
</svg>
