<?xml version="1.0" encoding="UTF-8" standalone="no"?>
<!DOCTYPE svg PUBLIC "-//W3C//DTD SVG 1.1//EN"
 "http://www.w3.org/Graphics/SVG/1.1/DTD/svg11.dtd">
<!-- Generated by graphviz version 2.49.0 (20210828.1703)
 -->
<!-- Title: ScaledIntegerNodeImpl.cpp Pages: 1 -->
<svg width="468pt" height="364pt"
 viewBox="0.00 0.00 467.50 364.00" xmlns="http://www.w3.org/2000/svg" xmlns:xlink="http://www.w3.org/1999/xlink">
<g id="graph0" class="graph" transform="scale(1 1) rotate(0) translate(4 360)">
<title>ScaledIntegerNodeImpl.cpp</title>
<polygon fill="white" stroke="transparent" points="-4,4 -4,-360 463.5,-360 463.5,4 -4,4"/>
<!-- Node1 -->
<g id="node1" class="node">
<title>Node1</title>
<g id="a_node1"><a xlink:title=" ">
<polygon fill="#bfbfbf" stroke="black" points="57,-336.5 57,-355.5 197,-355.5 197,-336.5 57,-336.5"/>
<text text-anchor="middle" x="127" y="-343.5" font-family="Helvetica,sans-Serif" font-size="10.00">ScaledIntegerNodeImpl.cpp</text>
</a>
</g>
</g>
<!-- Node2 -->
<g id="node2" class="node">
<title>Node2</title>
<g id="a_node2"><a xlink:title=" ">
<polygon fill="white" stroke="#bfbfbf" points="0,-280.5 0,-299.5 44,-299.5 44,-280.5 0,-280.5"/>
<text text-anchor="middle" x="22" y="-287.5" font-family="Helvetica,sans-Serif" font-size="10.00">cmath</text>
</a>
</g>
</g>
<!-- Node1&#45;&gt;Node2 -->
<g id="edge1" class="edge">
<title>Node1&#45;&gt;Node2</title>
<path fill="none" stroke="midnightblue" d="M110.13,-336.32C93.29,-327.66 67.19,-314.24 47.76,-304.25"/>
<polygon fill="midnightblue" stroke="midnightblue" points="49.32,-301.12 38.83,-299.65 46.12,-307.34 49.32,-301.12"/>
</g>
<!-- Node3 -->
<g id="node3" class="node">
<title>Node3</title>
<g id="a_node3"><a xlink:href="../../dd/d41/_checked_file_8h.html" target="_top" xlink:title=" ">
<polygon fill="white" stroke="black" points="210,-280.5 210,-299.5 290,-299.5 290,-280.5 210,-280.5"/>
<text text-anchor="middle" x="250" y="-287.5" font-family="Helvetica,sans-Serif" font-size="10.00">CheckedFile.h</text>
</a>
</g>
</g>
<!-- Node1&#45;&gt;Node3 -->
<g id="edge2" class="edge">
<title>Node1&#45;&gt;Node3</title>
<path fill="none" stroke="midnightblue" d="M146.49,-336.44C166.64,-327.6 198.32,-313.69 221.33,-303.59"/>
<polygon fill="midnightblue" stroke="midnightblue" points="222.85,-306.74 230.6,-299.52 220.04,-300.33 222.85,-306.74"/>
</g>
<!-- Node18 -->
<g id="node18" class="node">
<title>Node18</title>
<g id="a_node18"><a xlink:href="../../d5/dae/_scaled_integer_node_impl_8h.html" target="_top" xlink:title=" ">
<polygon fill="white" stroke="black" points="62.5,-280.5 62.5,-299.5 191.5,-299.5 191.5,-280.5 62.5,-280.5"/>
<text text-anchor="middle" x="127" y="-287.5" font-family="Helvetica,sans-Serif" font-size="10.00">ScaledIntegerNodeImpl.h</text>
</a>
</g>
</g>
<!-- Node1&#45;&gt;Node18 -->
<g id="edge20" class="edge">
<title>Node1&#45;&gt;Node18</title>
<path fill="none" stroke="midnightblue" d="M127,-336.08C127,-329.01 127,-318.86 127,-309.99"/>
<polygon fill="midnightblue" stroke="midnightblue" points="130.5,-309.75 127,-299.75 123.5,-309.75 130.5,-309.75"/>
</g>
<!-- Node4 -->
<g id="node4" class="node">
<title>Node4</title>
<g id="a_node4"><a xlink:title=" ">
<polygon fill="white" stroke="#bfbfbf" points="179,-224.5 179,-243.5 237,-243.5 237,-224.5 179,-224.5"/>
<text text-anchor="middle" x="208" y="-231.5" font-family="Helvetica,sans-Serif" font-size="10.00">algorithm</text>
</a>
</g>
</g>
<!-- Node3&#45;&gt;Node4 -->
<g id="edge3" class="edge">
<title>Node3&#45;&gt;Node4</title>
<path fill="none" stroke="midnightblue" d="M243.06,-280.08C237.07,-272.38 228.25,-261.03 220.95,-251.65"/>
<polygon fill="midnightblue" stroke="midnightblue" points="223.71,-249.5 214.81,-243.75 218.18,-253.79 223.71,-249.5"/>
</g>
<!-- Node5 -->
<g id="node5" class="node">
<title>Node5</title>
<g id="a_node5"><a xlink:href="../../db/d1f/_common_8h.html" target="_top" xlink:title=" ">
<polygon fill="white" stroke="black" points="163.5,-168.5 163.5,-187.5 228.5,-187.5 228.5,-168.5 163.5,-168.5"/>
<text text-anchor="middle" x="196" y="-175.5" font-family="Helvetica,sans-Serif" font-size="10.00">Common.h</text>
</a>
</g>
</g>
<!-- Node3&#45;&gt;Node5 -->
<g id="edge4" class="edge">
<title>Node3&#45;&gt;Node5</title>
<path fill="none" stroke="midnightblue" d="M251.43,-280.49C253.19,-267.57 254.95,-242.53 246,-224 240.05,-211.68 229.07,-201.2 218.91,-193.47"/>
<polygon fill="midnightblue" stroke="midnightblue" points="220.88,-190.58 210.7,-187.64 216.83,-196.29 220.88,-190.58"/>
</g>
<!-- Node6 -->
<g id="node6" class="node">
<title>Node6</title>
<g id="a_node6"><a xlink:title=" ">
<polygon fill="white" stroke="#bfbfbf" points="34,-112.5 34,-131.5 86,-131.5 86,-112.5 34,-112.5"/>
<text text-anchor="middle" x="60" y="-119.5" font-family="Helvetica,sans-Serif" font-size="10.00">iomanip</text>
</a>
</g>
</g>
<!-- Node5&#45;&gt;Node6 -->
<g id="edge5" class="edge">
<title>Node5&#45;&gt;Node6</title>
<path fill="none" stroke="midnightblue" d="M174.45,-168.44C151.97,-159.52 116.51,-145.44 91.02,-135.32"/>
<polygon fill="midnightblue" stroke="midnightblue" points="92.03,-131.95 81.45,-131.52 89.45,-138.46 92.03,-131.95"/>
</g>
<!-- Node7 -->
<g id="node7" class="node">
<title>Node7</title>
<g id="a_node7"><a xlink:title=" ">
<polygon fill="white" stroke="#bfbfbf" points="105.5,-0.5 105.5,-19.5 160.5,-19.5 160.5,-0.5 105.5,-0.5"/>
<text text-anchor="middle" x="133" y="-7.5" font-family="Helvetica,sans-Serif" font-size="10.00">iostream</text>
</a>
</g>
</g>
<!-- Node5&#45;&gt;Node7 -->
<g id="edge6" class="edge">
<title>Node5&#45;&gt;Node7</title>
<path fill="none" stroke="midnightblue" d="M189.4,-168.48C182.91,-159.75 173.11,-145.56 167,-132 151.37,-97.31 141.26,-53.73 136.4,-29.48"/>
<polygon fill="midnightblue" stroke="midnightblue" points="139.81,-28.67 134.48,-19.52 132.94,-30 139.81,-28.67"/>
</g>
<!-- Node8 -->
<g id="node8" class="node">
<title>Node8</title>
<g id="a_node8"><a xlink:title=" ">
<polygon fill="white" stroke="#bfbfbf" points="316,-112.5 316,-131.5 346,-131.5 346,-112.5 316,-112.5"/>
<text text-anchor="middle" x="331" y="-119.5" font-family="Helvetica,sans-Serif" font-size="10.00">set</text>
</a>
</g>
</g>
<!-- Node5&#45;&gt;Node8 -->
<g id="edge7" class="edge">
<title>Node5&#45;&gt;Node8</title>
<path fill="none" stroke="midnightblue" d="M217.39,-168.44C241.68,-158.73 281.21,-142.91 306.66,-132.74"/>
<polygon fill="midnightblue" stroke="midnightblue" points="307.99,-135.97 315.98,-129.01 305.39,-129.47 307.99,-135.97"/>
</g>
<!-- Node9 -->
<g id="node9" class="node">
<title>Node9</title>
<g id="a_node9"><a xlink:title=" ">
<polygon fill="white" stroke="#bfbfbf" points="364,-112.5 364,-131.5 416,-131.5 416,-112.5 364,-112.5"/>
<text text-anchor="middle" x="390" y="-119.5" font-family="Helvetica,sans-Serif" font-size="10.00">sstream</text>
</a>
</g>
</g>
<!-- Node5&#45;&gt;Node9 -->
<g id="edge8" class="edge">
<title>Node5&#45;&gt;Node9</title>
<path fill="none" stroke="midnightblue" d="M226.74,-168.44C261.31,-158.82 317.39,-143.21 353.99,-133.02"/>
<polygon fill="midnightblue" stroke="midnightblue" points="355.06,-136.36 363.76,-130.3 353.19,-129.61 355.06,-136.36"/>
</g>
<!-- Node10 -->
<g id="node10" class="node">
<title>Node10</title>
<g id="a_node10"><a xlink:title=" ">
<polygon fill="white" stroke="#bfbfbf" points="187.5,-0.5 187.5,-19.5 228.5,-19.5 228.5,-0.5 187.5,-0.5"/>
<text text-anchor="middle" x="208" y="-7.5" font-family="Helvetica,sans-Serif" font-size="10.00">string</text>
</a>
</g>
</g>
<!-- Node5&#45;&gt;Node10 -->
<g id="edge9" class="edge">
<title>Node5&#45;&gt;Node10</title>
<path fill="none" stroke="midnightblue" d="M191.02,-168.27C180.16,-148.03 156.46,-96.59 171,-56 174.94,-45 182.86,-34.77 190.36,-26.85"/>
<polygon fill="midnightblue" stroke="midnightblue" points="192.89,-29.27 197.56,-19.76 187.98,-24.28 192.89,-29.27"/>
</g>
<!-- Node11 -->
<g id="node11" class="node">
<title>Node11</title>
<g id="a_node11"><a xlink:title=" ">
<polygon fill="white" stroke="#bfbfbf" points="180,-56.5 180,-75.5 224,-75.5 224,-56.5 180,-56.5"/>
<text text-anchor="middle" x="202" y="-63.5" font-family="Helvetica,sans-Serif" font-size="10.00">vector</text>
</a>
</g>
</g>
<!-- Node5&#45;&gt;Node11 -->
<g id="edge10" class="edge">
<title>Node5&#45;&gt;Node11</title>
<path fill="none" stroke="midnightblue" d="M196.47,-168.37C197.44,-150.62 199.67,-109.67 200.99,-85.6"/>
<polygon fill="midnightblue" stroke="midnightblue" points="204.48,-85.77 201.53,-75.59 197.49,-85.39 204.48,-85.77"/>
</g>
<!-- Node12 -->
<g id="node12" class="node">
<title>Node12</title>
<g id="a_node12"><a xlink:href="../../d1/df2/_e57_format_8h.html" target="_top" xlink:title="header file for the E57 API">
<polygon fill="white" stroke="black" points="224,-112.5 224,-131.5 298,-131.5 298,-112.5 224,-112.5"/>
<text text-anchor="middle" x="261" y="-119.5" font-family="Helvetica,sans-Serif" font-size="10.00">E57Format.h</text>
</a>
</g>
</g>
<!-- Node5&#45;&gt;Node12 -->
<g id="edge11" class="edge">
<title>Node5&#45;&gt;Node12</title>
<path fill="none" stroke="midnightblue" d="M206.44,-168.32C216.15,-160.26 230.82,-148.08 242.5,-138.37"/>
<polygon fill="midnightblue" stroke="midnightblue" points="244.91,-140.92 250.37,-131.83 240.44,-135.53 244.91,-140.92"/>
</g>
<!-- Node12&#45;&gt;Node11 -->
<g id="edge14" class="edge">
<title>Node12&#45;&gt;Node11</title>
<path fill="none" stroke="midnightblue" d="M251.52,-112.32C242.8,-104.34 229.66,-92.31 219.1,-82.65"/>
<polygon fill="midnightblue" stroke="midnightblue" points="221.39,-80 211.65,-75.83 216.67,-85.17 221.39,-80"/>
</g>
<!-- Node13 -->
<g id="node13" class="node">
<title>Node13</title>
<g id="a_node13"><a xlink:title=" ">
<polygon fill="white" stroke="#bfbfbf" points="348,-56.5 348,-75.5 388,-75.5 388,-56.5 348,-56.5"/>
<text text-anchor="middle" x="368" y="-63.5" font-family="Helvetica,sans-Serif" font-size="10.00">cfloat</text>
</a>
</g>
</g>
<!-- Node12&#45;&gt;Node13 -->
<g id="edge12" class="edge">
<title>Node12&#45;&gt;Node13</title>
<path fill="none" stroke="midnightblue" d="M278.19,-112.32C295.35,-103.66 321.95,-90.24 341.75,-80.25"/>
<polygon fill="midnightblue" stroke="midnightblue" points="343.5,-83.28 350.85,-75.65 340.35,-77.04 343.5,-83.28"/>
</g>
<!-- Node14 -->
<g id="node14" class="node">
<title>Node14</title>
<g id="a_node14"><a xlink:title=" ">
<polygon fill="white" stroke="#bfbfbf" points="406.5,-56.5 406.5,-75.5 459.5,-75.5 459.5,-56.5 406.5,-56.5"/>
<text text-anchor="middle" x="433" y="-63.5" font-family="Helvetica,sans-Serif" font-size="10.00">memory</text>
</a>
</g>
</g>
<!-- Node12&#45;&gt;Node14 -->
<g id="edge13" class="edge">
<title>Node12&#45;&gt;Node14</title>
<path fill="none" stroke="midnightblue" d="M288.25,-112.44C317.61,-103.23 364.47,-88.52 396.88,-78.34"/>
<polygon fill="midnightblue" stroke="midnightblue" points="397.95,-81.67 406.44,-75.34 395.85,-75 397.95,-81.67"/>
</g>
<!-- Node15 -->
<g id="node15" class="node">
<title>Node15</title>
<g id="a_node15"><a xlink:href="../../d4/d6e/_e57_exception_8h.html" target="_top" xlink:title=" ">
<polygon fill="white" stroke="black" points="242.5,-56.5 242.5,-75.5 329.5,-75.5 329.5,-56.5 242.5,-56.5"/>
<text text-anchor="middle" x="286" y="-63.5" font-family="Helvetica,sans-Serif" font-size="10.00">E57Exception.h</text>
</a>
</g>
</g>
<!-- Node12&#45;&gt;Node15 -->
<g id="edge15" class="edge">
<title>Node12&#45;&gt;Node15</title>
<path fill="none" stroke="midnightblue" d="M265.13,-112.08C268.51,-104.77 273.42,-94.18 277.62,-85.1"/>
<polygon fill="midnightblue" stroke="midnightblue" points="280.92,-86.3 281.95,-75.75 274.57,-83.36 280.92,-86.3"/>
</g>
<!-- Node15&#45;&gt;Node7 -->
<g id="edge17" class="edge">
<title>Node15&#45;&gt;Node7</title>
<path fill="none" stroke="midnightblue" d="M261.76,-56.44C236.13,-47.4 195.51,-33.06 166.76,-22.92"/>
<polygon fill="midnightblue" stroke="midnightblue" points="167.72,-19.54 157.13,-19.52 165.39,-26.15 167.72,-19.54"/>
</g>
<!-- Node15&#45;&gt;Node10 -->
<g id="edge18" class="edge">
<title>Node15&#45;&gt;Node10</title>
<path fill="none" stroke="midnightblue" d="M273.47,-56.32C261.41,-47.98 242.97,-35.21 228.73,-25.35"/>
<polygon fill="midnightblue" stroke="midnightblue" points="230.72,-22.47 220.5,-19.65 226.73,-28.22 230.72,-22.47"/>
</g>
<!-- Node16 -->
<g id="node16" class="node">
<title>Node16</title>
<g id="a_node16"><a xlink:title=" ">
<polygon fill="white" stroke="#bfbfbf" points="251.5,-0.5 251.5,-19.5 310.5,-19.5 310.5,-0.5 251.5,-0.5"/>
<text text-anchor="middle" x="281" y="-7.5" font-family="Helvetica,sans-Serif" font-size="10.00">exception</text>
</a>
</g>
</g>
<!-- Node15&#45;&gt;Node16 -->
<g id="edge16" class="edge">
<title>Node15&#45;&gt;Node16</title>
<path fill="none" stroke="midnightblue" d="M285.17,-56.08C284.52,-49.01 283.58,-38.86 282.76,-29.99"/>
<polygon fill="midnightblue" stroke="midnightblue" points="286.22,-29.39 281.81,-19.75 279.25,-30.03 286.22,-29.39"/>
</g>
<!-- Node17 -->
<g id="node17" class="node">
<title>Node17</title>
<g id="a_node17"><a xlink:title=" ">
<polygon fill="white" stroke="#bfbfbf" points="329,-0.5 329,-19.5 401,-19.5 401,-0.5 329,-0.5"/>
<text text-anchor="middle" x="365" y="-7.5" font-family="Helvetica,sans-Serif" font-size="10.00">E57Export.h</text>
</a>
</g>
</g>
<!-- Node15&#45;&gt;Node17 -->
<g id="edge19" class="edge">
<title>Node15&#45;&gt;Node17</title>
<path fill="none" stroke="midnightblue" d="M298.69,-56.32C310.9,-47.98 329.58,-35.21 344,-25.35"/>
<polygon fill="midnightblue" stroke="midnightblue" points="346.06,-28.19 352.34,-19.65 342.11,-22.41 346.06,-28.19"/>
</g>
<!-- Node19 -->
<g id="node19" class="node">
<title>Node19</title>
<g id="a_node19"><a xlink:href="../../df/d7b/_node_impl_8h.html" target="_top" xlink:title=" ">
<polygon fill="white" stroke="black" points="93,-224.5 93,-243.5 161,-243.5 161,-224.5 93,-224.5"/>
<text text-anchor="middle" x="127" y="-231.5" font-family="Helvetica,sans-Serif" font-size="10.00">NodeImpl.h</text>
</a>
</g>
</g>
<!-- Node18&#45;&gt;Node19 -->
<g id="edge21" class="edge">
<title>Node18&#45;&gt;Node19</title>
<path fill="none" stroke="midnightblue" d="M127,-280.08C127,-273.01 127,-262.86 127,-253.99"/>
<polygon fill="midnightblue" stroke="midnightblue" points="130.5,-253.75 127,-243.75 123.5,-253.75 130.5,-253.75"/>
</g>
<!-- Node19&#45;&gt;Node5 -->
<g id="edge22" class="edge">
<title>Node19&#45;&gt;Node5</title>
<path fill="none" stroke="midnightblue" d="M138.09,-224.32C148.49,-216.18 164.26,-203.84 176.72,-194.09"/>
<polygon fill="midnightblue" stroke="midnightblue" points="178.99,-196.75 184.71,-187.83 174.68,-191.24 178.99,-196.75"/>
</g>
</g>
</svg>
