<?xml version="1.0" encoding="UTF-8" standalone="no"?>
<!DOCTYPE svg PUBLIC "-//W3C//DTD SVG 1.1//EN"
 "http://www.w3.org/Graphics/SVG/1.1/DTD/svg11.dtd">
<!-- Generated by graphviz version 7.0.0 (20221023.0053)
 -->
<!-- Title: e57::Data3DPointsData_t&lt; COORDTYPE &gt; Pages: 1 -->
<svg width="276pt" height="170pt"
 viewBox="0.00 0.00 275.50 170.00" xmlns="http://www.w3.org/2000/svg" xmlns:xlink="http://www.w3.org/1999/xlink">
<g id="graph0" class="graph" transform="scale(1 1) rotate(0) translate(4 166)">
<title>e57::Data3DPointsData_t&lt; COORDTYPE &gt;</title>
<!-- Node1 -->
<g id="node1" class="node">
<title>Node1</title>
<g id="a_node1"><a xlink:title="Stores pointers to user&#45;provided buffers.">
<polygon fill="#999999" stroke="#666666" points="199,-30 78,-30 78,0 199,0 199,-30"/>
<text text-anchor="start" x="86" y="-18" font-family="Helvetica,sans-Serif" font-size="10.00">e57::Data3DPointsData</text>
<text text-anchor="middle" x="138.5" y="-7" font-family="Helvetica,sans-Serif" font-size="10.00">_t&lt; COORDTYPE &gt;</text>
</a>
</g>
</g>
<!-- Node2 -->
<g id="node2" class="node">
<title>Node2</title>
<g id="a_node2"><a xlink:title=" ">
<polygon fill="white" stroke="#666666" points="41,-162 0,-162 0,-143 41,-143 41,-162"/>
<text text-anchor="middle" x="20.5" y="-150" font-family="Helvetica,sans-Serif" font-size="10.00">int8_t</text>
</a>
</g>
</g>
<!-- Node2&#45;&gt;Node1 -->
<g id="edge1" class="edge">
<title>Node2&#45;&gt;Node1</title>
<path fill="none" stroke="#9a32cd" stroke-dasharray="5,2" d="M18.52,-131.39C17.41,-108.43 19.27,-71.07 39.5,-48 49.38,-36.73 63.27,-29.4 77.51,-24.65"/>
<polygon fill="#9a32cd" stroke="#9a32cd" points="15.02,-131.53 19.26,-141.24 22,-131.01 15.02,-131.53"/>
<text text-anchor="middle" x="87" y="-117" font-family="Helvetica,sans-Serif" font-size="10.00"> cartesianInvalidState</text>
<text text-anchor="middle" x="87" y="-106" font-family="Helvetica,sans-Serif" font-size="10.00">isColorInvalid</text>
<text text-anchor="middle" x="87" y="-95" font-family="Helvetica,sans-Serif" font-size="10.00">isIntensityInvalid</text>
<text text-anchor="middle" x="87" y="-84" font-family="Helvetica,sans-Serif" font-size="10.00">isTimeStampInvalid</text>
<text text-anchor="middle" x="87" y="-73" font-family="Helvetica,sans-Serif" font-size="10.00">returnCount</text>
<text text-anchor="middle" x="87" y="-62" font-family="Helvetica,sans-Serif" font-size="10.00">returnIndex</text>
<text text-anchor="middle" x="87" y="-51" font-family="Helvetica,sans-Serif" font-size="10.00">sphericalInvalidState</text>
</g>
<!-- Node3 -->
<g id="node3" class="node">
<title>Node3</title>
<g id="a_node3"><a xlink:title=" ">
<polygon fill="white" stroke="#666666" points="164,-162 113,-162 113,-143 164,-143 164,-162"/>
<text text-anchor="middle" x="138.5" y="-150" font-family="Helvetica,sans-Serif" font-size="10.00">uint16_t</text>
</a>
</g>
</g>
<!-- Node3&#45;&gt;Node1 -->
<g id="edge2" class="edge">
<title>Node3&#45;&gt;Node1</title>
<path fill="none" stroke="#9a32cd" stroke-dasharray="5,2" d="M138.5,-131.22C138.5,-103.47 138.5,-54.38 138.5,-30.23"/>
<polygon fill="#9a32cd" stroke="#9a32cd" points="135,-131.1 138.5,-141.1 142,-131.1 135,-131.1"/>
<text text-anchor="middle" x="162.5" y="-95" font-family="Helvetica,sans-Serif" font-size="10.00"> colorBlue</text>
<text text-anchor="middle" x="162.5" y="-84" font-family="Helvetica,sans-Serif" font-size="10.00">colorGreen</text>
<text text-anchor="middle" x="162.5" y="-73" font-family="Helvetica,sans-Serif" font-size="10.00">colorRed</text>
</g>
<!-- Node4 -->
<g id="node4" class="node">
<title>Node4</title>
<g id="a_node4"><a xlink:title=" ">
<polygon fill="white" stroke="#666666" points="232.5,-162 186.5,-162 186.5,-143 232.5,-143 232.5,-162"/>
<text text-anchor="middle" x="209.5" y="-150" font-family="Helvetica,sans-Serif" font-size="10.00">int32_t</text>
</a>
</g>
</g>
<!-- Node4&#45;&gt;Node1 -->
<g id="edge3" class="edge">
<title>Node4&#45;&gt;Node1</title>
<path fill="none" stroke="#9a32cd" stroke-dasharray="5,2" d="M209.64,-131.25C208.85,-108.99 204.69,-73.08 187.5,-48 182.67,-40.96 175.74,-35.09 168.6,-30.39"/>
<polygon fill="#9a32cd" stroke="#9a32cd" points="206.14,-131.12 209.77,-141.08 213.14,-131.03 206.14,-131.12"/>
<text text-anchor="middle" x="238" y="-89.5" font-family="Helvetica,sans-Serif" font-size="10.00"> columnIndex</text>
<text text-anchor="middle" x="238" y="-78.5" font-family="Helvetica,sans-Serif" font-size="10.00">rowIndex</text>
</g>
</g>
</svg>
