<?xml version="1.0" encoding="UTF-8" standalone="no"?>
<!DOCTYPE svg PUBLIC "-//W3C//DTD SVG 1.1//EN"
 "http://www.w3.org/Graphics/SVG/1.1/DTD/svg11.dtd">
<!-- Generated by graphviz version 8.1.0 (20230707.0739)
 -->
<!-- Title: e57::Data3DPointsData_t&lt; COORDTYPE &gt; Pages: 1 -->
<svg width="274pt" height="173pt"
 viewBox="0.00 0.00 273.50 172.50" xmlns="http://www.w3.org/2000/svg" xmlns:xlink="http://www.w3.org/1999/xlink">
<g id="graph0" class="graph" transform="scale(1 1) rotate(0) translate(4 168.5)">
<title>e57::Data3DPointsData_t&lt; COORDTYPE &gt;</title>
<!-- Node1 -->
<g id="node1" class="node">
<title>Node1</title>
<g id="a_node1"><a xlink:title="Stores pointers to user&#45;provided buffers.">
<polygon fill="#999999" stroke="#666666" points="198.12,-30.5 77.88,-30.5 77.88,0 198.12,0 198.12,-30.5"/>
<text text-anchor="start" x="85.88" y="-17" font-family="Helvetica,sans-Serif" font-size="10.00">e57::Data3DPointsData</text>
<text text-anchor="middle" x="138" y="-5.75" font-family="Helvetica,sans-Serif" font-size="10.00">_t&lt; COORDTYPE &gt;</text>
</a>
</g>
</g>
<!-- Node2 -->
<g id="node2" class="node">
<title>Node2</title>
<g id="a_node2"><a xlink:title=" ">
<polygon fill="white" stroke="#666666" points="40,-164.5 0,-164.5 0,-145.25 40,-145.25 40,-164.5"/>
<text text-anchor="middle" x="20" y="-151" font-family="Helvetica,sans-Serif" font-size="10.00">int8_t</text>
</a>
</g>
</g>
<!-- Node2&#45;&gt;Node1 -->
<g id="edge1" class="edge">
<title>Node2&#45;&gt;Node1</title>
<path fill="none" stroke="#9a32cd" stroke-dasharray="5,2" d="M18.06,-134.06C16.92,-110.75 18.73,-72.24 39.5,-48.5 49.39,-37.19 63.31,-29.83 77.58,-25.04"/>
<polygon fill="#9a32cd" stroke="#9a32cd" points="14.64,-134.26 18.87,-143.97 21.62,-133.74 14.64,-134.26"/>
<text text-anchor="middle" x="87.25" y="-117.75" font-family="Helvetica,sans-Serif" font-size="10.00"> cartesianInvalidState</text>
<text text-anchor="middle" x="87.25" y="-106.5" font-family="Helvetica,sans-Serif" font-size="10.00">isColorInvalid</text>
<text text-anchor="middle" x="87.25" y="-95.25" font-family="Helvetica,sans-Serif" font-size="10.00">isIntensityInvalid</text>
<text text-anchor="middle" x="87.25" y="-84" font-family="Helvetica,sans-Serif" font-size="10.00">isTimeStampInvalid</text>
<text text-anchor="middle" x="87.25" y="-72.75" font-family="Helvetica,sans-Serif" font-size="10.00">returnCount</text>
<text text-anchor="middle" x="87.25" y="-61.5" font-family="Helvetica,sans-Serif" font-size="10.00">returnIndex</text>
<text text-anchor="middle" x="87.25" y="-50.25" font-family="Helvetica,sans-Serif" font-size="10.00">sphericalInvalidState</text>
</g>
<!-- Node3 -->
<g id="node3" class="node">
<title>Node3</title>
<g id="a_node3"><a xlink:title=" ">
<polygon fill="white" stroke="#666666" points="163.25,-164.5 112.75,-164.5 112.75,-145.25 163.25,-145.25 163.25,-164.5"/>
<text text-anchor="middle" x="138" y="-151" font-family="Helvetica,sans-Serif" font-size="10.00">uint16_t</text>
</a>
</g>
</g>
<!-- Node3&#45;&gt;Node1 -->
<g id="edge2" class="edge">
<title>Node3&#45;&gt;Node1</title>
<path fill="none" stroke="#9a32cd" stroke-dasharray="5,2" d="M138,-134.03C138,-106 138,-55.45 138,-30.7"/>
<polygon fill="#9a32cd" stroke="#9a32cd" points="134.5,-133.85 138,-143.85 141.5,-133.85 134.5,-133.85"/>
<text text-anchor="middle" x="161.62" y="-95.25" font-family="Helvetica,sans-Serif" font-size="10.00"> colorBlue</text>
<text text-anchor="middle" x="161.62" y="-84" font-family="Helvetica,sans-Serif" font-size="10.00">colorGreen</text>
<text text-anchor="middle" x="161.62" y="-72.75" font-family="Helvetica,sans-Serif" font-size="10.00">colorRed</text>
</g>
<!-- Node4 -->
<g id="node4" class="node">
<title>Node4</title>
<g id="a_node4"><a xlink:title=" ">
<polygon fill="white" stroke="#666666" points="230.62,-164.5 185.38,-164.5 185.38,-145.25 230.62,-145.25 230.62,-164.5"/>
<text text-anchor="middle" x="208" y="-151" font-family="Helvetica,sans-Serif" font-size="10.00">int32_t</text>
</a>
</g>
</g>
<!-- Node4&#45;&gt;Node1 -->
<g id="edge3" class="edge">
<title>Node4&#45;&gt;Node1</title>
<path fill="none" stroke="#9a32cd" stroke-dasharray="5,2" d="M208.19,-133.94C207.48,-111.37 203.44,-74.4 186,-48.5 181.29,-41.5 174.5,-35.63 167.51,-30.89"/>
<polygon fill="#9a32cd" stroke="#9a32cd" points="204.7,-133.86 208.31,-143.83 211.7,-133.79 204.7,-133.86"/>
<text text-anchor="middle" x="236.25" y="-89.62" font-family="Helvetica,sans-Serif" font-size="10.00"> columnIndex</text>
<text text-anchor="middle" x="236.25" y="-78.38" font-family="Helvetica,sans-Serif" font-size="10.00">rowIndex</text>
</g>
</g>
</svg>
