<?xml version="1.0" encoding="UTF-8" standalone="no"?>
<!DOCTYPE svg PUBLIC "-//W3C//DTD SVG 1.1//EN"
 "http://www.w3.org/Graphics/SVG/1.1/DTD/svg11.dtd">
<!-- Generated by graphviz version 2.49.0 (20210828.1703)
 -->
<!-- Title: e57::Data3DPointsData_t&lt; COORDTYPE &gt; Pages: 1 -->
<svg width="280pt" height="172pt"
 viewBox="0.00 0.00 279.50 172.00" xmlns="http://www.w3.org/2000/svg" xmlns:xlink="http://www.w3.org/1999/xlink">
<g id="graph0" class="graph" transform="scale(1 1) rotate(0) translate(4 168)">
<title>e57::Data3DPointsData_t&lt; COORDTYPE &gt;</title>
<polygon fill="white" stroke="transparent" points="-4,4 -4,-168 275.5,-168 275.5,4 -4,4"/>
<!-- Node1 -->
<g id="node1" class="node">
<title>Node1</title>
<g id="a_node1"><a xlink:title="Stores pointers to user&#45;provided buffers.">
<polygon fill="#bfbfbf" stroke="black" points="78.5,-0.5 78.5,-30.5 200.5,-30.5 200.5,-0.5 78.5,-0.5"/>
<text text-anchor="start" x="86.5" y="-18.5" font-family="Helvetica,sans-Serif" font-size="10.00">e57::Data3DPointsData</text>
<text text-anchor="middle" x="139.5" y="-7.5" font-family="Helvetica,sans-Serif" font-size="10.00">_t&lt; COORDTYPE &gt;</text>
</a>
</g>
</g>
<!-- Node2 -->
<g id="node2" class="node">
<title>Node2</title>
<g id="a_node2"><a xlink:title=" ">
<polygon fill="white" stroke="#bfbfbf" points="0,-144.5 0,-163.5 41,-163.5 41,-144.5 0,-144.5"/>
<text text-anchor="middle" x="20.5" y="-151.5" font-family="Helvetica,sans-Serif" font-size="10.00">int8_t</text>
</a>
</g>
</g>
<!-- Node2&#45;&gt;Node1 -->
<g id="edge1" class="edge">
<title>Node2&#45;&gt;Node1</title>
<path fill="none" stroke="#9a32cd" stroke-dasharray="5,2" d="M18.56,-134.07C17.3,-111.13 18.83,-72.64 39.5,-49 49.6,-37.46 63.83,-29.99 78.41,-25.17"/>
<polygon fill="#9a32cd" stroke="#9a32cd" points="15.09,-134.52 19.36,-144.21 22.06,-133.97 15.09,-134.52"/>
<text text-anchor="middle" x="87.5" y="-118" font-family="Helvetica,sans-Serif" font-size="10.00"> cartesianInvalidState</text>
<text text-anchor="middle" x="87.5" y="-107" font-family="Helvetica,sans-Serif" font-size="10.00">isColorInvalid</text>
<text text-anchor="middle" x="87.5" y="-96" font-family="Helvetica,sans-Serif" font-size="10.00">isIntensityInvalid</text>
<text text-anchor="middle" x="87.5" y="-85" font-family="Helvetica,sans-Serif" font-size="10.00">isTimeStampInvalid</text>
<text text-anchor="middle" x="87.5" y="-74" font-family="Helvetica,sans-Serif" font-size="10.00">returnCount</text>
<text text-anchor="middle" x="87.5" y="-63" font-family="Helvetica,sans-Serif" font-size="10.00">returnIndex</text>
<text text-anchor="middle" x="87.5" y="-52" font-family="Helvetica,sans-Serif" font-size="10.00">sphericalInvalidState</text>
</g>
<!-- Node3 -->
<g id="node3" class="node">
<title>Node3</title>
<g id="a_node3"><a xlink:title=" ">
<polygon fill="white" stroke="#bfbfbf" points="116,-144.5 116,-163.5 163,-163.5 163,-144.5 116,-144.5"/>
<text text-anchor="middle" x="139.5" y="-151.5" font-family="Helvetica,sans-Serif" font-size="10.00">uint8_t</text>
</a>
</g>
</g>
<!-- Node3&#45;&gt;Node1 -->
<g id="edge2" class="edge">
<title>Node3&#45;&gt;Node1</title>
<path fill="none" stroke="#9a32cd" stroke-dasharray="5,2" d="M139.5,-134.15C139.5,-106.41 139.5,-55.2 139.5,-30.52"/>
<polygon fill="#9a32cd" stroke="#9a32cd" points="136,-134.46 139.5,-144.46 143,-134.46 136,-134.46"/>
<text text-anchor="middle" x="164.5" y="-96" font-family="Helvetica,sans-Serif" font-size="10.00"> colorBlue</text>
<text text-anchor="middle" x="164.5" y="-85" font-family="Helvetica,sans-Serif" font-size="10.00">colorGreen</text>
<text text-anchor="middle" x="164.5" y="-74" font-family="Helvetica,sans-Serif" font-size="10.00">colorRed</text>
</g>
<!-- Node4 -->
<g id="node4" class="node">
<title>Node4</title>
<g id="a_node4"><a xlink:title=" ">
<polygon fill="white" stroke="#bfbfbf" points="189,-144.5 189,-163.5 236,-163.5 236,-144.5 189,-144.5"/>
<text text-anchor="middle" x="212.5" y="-151.5" font-family="Helvetica,sans-Serif" font-size="10.00">int32_t</text>
</a>
</g>
</g>
<!-- Node4&#45;&gt;Node1 -->
<g id="edge3" class="edge">
<title>Node4&#45;&gt;Node1</title>
<path fill="none" stroke="#9a32cd" stroke-dasharray="5,2" d="M212.76,-134.19C212.18,-111.95 208.31,-74.71 190.5,-49 185.36,-41.58 177.91,-35.48 170.3,-30.64"/>
<polygon fill="#9a32cd" stroke="#9a32cd" points="209.26,-134.34 212.82,-144.32 216.26,-134.3 209.26,-134.34"/>
<text text-anchor="middle" x="241.5" y="-90.5" font-family="Helvetica,sans-Serif" font-size="10.00"> columnIndex</text>
<text text-anchor="middle" x="241.5" y="-79.5" font-family="Helvetica,sans-Serif" font-size="10.00">rowIndex</text>
</g>
</g>
</svg>
