<svg height="170pt" viewBox="0 0 275.5 170" width="276pt" xmlns="http://www.w3.org/2000/svg"><g transform="translate(4 166)"><a xlink:title="Stores pointers to user&#45;provided buffers."><path d="m199-30h-121v30h121z" fill="#999" stroke="#666"/><text font-family="Helvetica,sans-Serif" font-size="10" x="86" y="-18">e57::Data3DPointsData</text><text font-family="Helvetica,sans-Serif" font-size="10" text-anchor="middle" x="138.5" y="-7">_t&lt; COORDTYPE &gt;</text></a><a xlink:title=""><path d="m41-162h-41v19h41z" fill="#fff" stroke="#666"/><text font-family="Helvetica,sans-Serif" font-size="10" text-anchor="middle" x="20.5" y="-150">int8_t</text></a><g><path d="m18.58-132.65c-1.24 22.83.31 61.15 20.92 84.65 9.94 11.34 23.93 18.69 38.27 23.44" fill="none" stroke="#9a32cd" stroke-dasharray="5 2"/><path d="m15.1-133.06 4.27-9.69 2.71 10.24z" fill="#9a32cd" stroke="#9a32cd"/><g font-family="Helvetica,sans-Serif" font-size="10" text-anchor="middle"><text x="87" y="-117">cartesianInvalidState</text><text x="87" y="-106">isColorInvalid</text><text x="87" y="-95">isIntensityInvalid</text><text x="87" y="-84">isTimeStampInvalid</text><text x="87" y="-73">returnCount</text><text x="87" y="-62">returnIndex</text><text x="87" y="-51">sphericalInvalidState</text></g></g><a xlink:title=""><path d="m161.5-162h-46v19h46z" fill="#fff" stroke="#666"/><text font-family="Helvetica,sans-Serif" font-size="10" text-anchor="middle" x="138.5" y="-150">uint8_t</text></a><g><path d="m138.5-132.34v102.11" fill="none" stroke="#9a32cd" stroke-dasharray="5 2"/><path d="m135-132.61 3.5-10 3.5 10z" fill="#9a32cd" stroke="#9a32cd"/><g font-family="Helvetica,sans-Serif" font-size="10" text-anchor="middle"><text x="162.5" y="-95">colorBlue</text><text x="162.5" y="-84">colorGreen</text><text x="162.5" y="-73">colorRed</text></g></g><a xlink:title=""><path d="m232.5-162h-46v19h46z" fill="#fff" stroke="#666"/><text font-family="Helvetica,sans-Serif" font-size="10" text-anchor="middle" x="209.5" y="-150">int32_t</text></a><g><path d="m209.69-132.82c-.65 22.11-4.59 59.14-22.19 84.82-4.94 7.21-12.09 13.18-19.41 17.94" fill="none" stroke="#9a32cd" stroke-dasharray="5 2"/><path d="m206.19-132.91 3.6-9.97 3.4 10.04z" fill="#9a32cd" stroke="#9a32cd"/><g font-family="Helvetica,sans-Serif" font-size="10" text-anchor="middle"><text x="238" y="-89.5">columnIndex</text><text x="238" y="-78.5">rowIndex</text></g></g></g></svg>