<?xml version="1.0" encoding="UTF-8" standalone="no"?>
<!DOCTYPE svg PUBLIC "-//W3C//DTD SVG 1.1//EN"
 "http://www.w3.org/Graphics/SVG/1.1/DTD/svg11.dtd">
<!-- Generated by graphviz version 2.49.0 (20210828.1703)
 -->
<!-- Title: e57::CompressedVectorWriterImpl Pages: 1 -->
<svg width="279pt" height="350pt"
 viewBox="0.00 0.00 279.00 350.00" xmlns="http://www.w3.org/2000/svg" xmlns:xlink="http://www.w3.org/1999/xlink">
<g id="graph0" class="graph" transform="scale(1 1) rotate(0) translate(4 346)">
<title>e57::CompressedVectorWriterImpl</title>
<polygon fill="white" stroke="transparent" points="-4,4 -4,-346 275,-346 275,4 -4,4"/>
<!-- Node1 -->
<g id="node1" class="node">
<title>Node1</title>
<g id="a_node1"><a xlink:title=" ">
<polygon fill="#bfbfbf" stroke="black" points="5.5,-0.5 5.5,-19.5 174.5,-19.5 174.5,-0.5 5.5,-0.5"/>
<text text-anchor="middle" x="90" y="-7.5" font-family="Helvetica,sans-Serif" font-size="10.00">e57::CompressedVectorWriterImpl</text>
</a>
</g>
</g>
<!-- Node2 -->
<g id="node2" class="node">
<title>Node2</title>
<g id="a_node2"><a xlink:href="../../dd/d0d/classe57_1_1_data_packet.html" target="_top" xlink:title=" ">
<polygon fill="white" stroke="black" points="0,-177.5 0,-196.5 90,-196.5 90,-177.5 0,-177.5"/>
<text text-anchor="middle" x="45" y="-184.5" font-family="Helvetica,sans-Serif" font-size="10.00">e57::DataPacket</text>
</a>
</g>
</g>
<!-- Node2&#45;&gt;Node1 -->
<g id="edge1" class="edge">
<title>Node2&#45;&gt;Node1</title>
<path fill="none" stroke="#9a32cd" stroke-dasharray="5,2" d="M40.36,-167.48C34.04,-137.98 25.95,-79.43 49,-38 53.48,-29.96 61.47,-23.89 69.22,-19.57"/>
<polygon fill="#9a32cd" stroke="#9a32cd" points="36.96,-168.32 42.63,-177.27 43.78,-166.74 36.96,-168.32"/>
<text text-anchor="middle" x="78.5" y="-96" font-family="Helvetica,sans-Serif" font-size="10.00"> dataPacket_</text>
</g>
<!-- Node3 -->
<g id="node3" class="node">
<title>Node3</title>
<g id="a_node3"><a xlink:href="../../da/ddf/classe57_1_1_data_packet_header.html" target="_top" xlink:title=" ">
<polygon fill="white" stroke="black" points="85.5,-244.5 85.5,-263.5 208.5,-263.5 208.5,-244.5 85.5,-244.5"/>
<text text-anchor="middle" x="147" y="-251.5" font-family="Helvetica,sans-Serif" font-size="10.00">e57::DataPacketHeader</text>
</a>
</g>
</g>
<!-- Node3&#45;&gt;Node2 -->
<g id="edge2" class="edge">
<title>Node3&#45;&gt;Node2</title>
<path fill="none" stroke="#9a32cd" stroke-dasharray="5,2" d="M124.67,-238.77C104.48,-225.9 75.41,-207.38 58.54,-196.63"/>
<polygon fill="#9a32cd" stroke="#9a32cd" points="122.93,-241.81 133.24,-244.23 126.69,-235.91 122.93,-241.81"/>
<text text-anchor="middle" x="119" y="-218" font-family="Helvetica,sans-Serif" font-size="10.00"> header</text>
</g>
<!-- Node4 -->
<g id="node4" class="node">
<title>Node4</title>
<g id="a_node4"><a xlink:title=" ">
<polygon fill="white" stroke="#bfbfbf" points="22.5,-322.5 22.5,-341.5 69.5,-341.5 69.5,-322.5 22.5,-322.5"/>
<text text-anchor="middle" x="46" y="-329.5" font-family="Helvetica,sans-Serif" font-size="10.00">uint8_t</text>
</a>
</g>
</g>
<!-- Node4&#45;&gt;Node2 -->
<g id="edge5" class="edge">
<title>Node4&#45;&gt;Node2</title>
<path fill="none" stroke="#9a32cd" stroke-dasharray="5,2" d="M43.05,-312.3C40.61,-294.7 37.74,-267.58 39,-244 39.9,-227.21 42.3,-207.7 43.78,-196.71"/>
<polygon fill="#9a32cd" stroke="#9a32cd" points="39.61,-312.99 44.54,-322.37 46.53,-311.96 39.61,-312.99"/>
<text text-anchor="middle" x="58" y="-251.5" font-family="Helvetica,sans-Serif" font-size="10.00"> payload</text>
</g>
<!-- Node4&#45;&gt;Node3 -->
<g id="edge3" class="edge">
<title>Node4&#45;&gt;Node3</title>
<path fill="none" stroke="#9a32cd" stroke-dasharray="5,2" d="M57,-313.76C64.25,-303.48 74.5,-290.77 86,-282 96.31,-274.14 109.28,-267.98 120.6,-263.55"/>
<polygon fill="#9a32cd" stroke="#9a32cd" points="53.91,-312.08 51.24,-322.33 59.72,-315.98 53.91,-312.08"/>
<text text-anchor="middle" x="114.5" y="-296" font-family="Helvetica,sans-Serif" font-size="10.00"> packetFlags</text>
<text text-anchor="middle" x="114.5" y="-285" font-family="Helvetica,sans-Serif" font-size="10.00">packetType</text>
</g>
<!-- Node5 -->
<g id="node5" class="node">
<title>Node5</title>
<g id="a_node5"><a xlink:title=" ">
<polygon fill="white" stroke="#bfbfbf" points="121,-322.5 121,-341.5 173,-341.5 173,-322.5 121,-322.5"/>
<text text-anchor="middle" x="147" y="-329.5" font-family="Helvetica,sans-Serif" font-size="10.00">uint16_t</text>
</a>
</g>
</g>
<!-- Node5&#45;&gt;Node3 -->
<g id="edge4" class="edge">
<title>Node5&#45;&gt;Node3</title>
<path fill="none" stroke="#9a32cd" stroke-dasharray="5,2" d="M147,-312.22C147,-296.7 147,-275.36 147,-263.62"/>
<polygon fill="#9a32cd" stroke="#9a32cd" points="143.5,-312.28 147,-322.28 150.5,-312.28 143.5,-312.28"/>
<text text-anchor="middle" x="209" y="-296" font-family="Helvetica,sans-Serif" font-size="10.00"> bytestreamCount</text>
<text text-anchor="middle" x="209" y="-285" font-family="Helvetica,sans-Serif" font-size="10.00">packetLogicalLengthMinus1</text>
</g>
<!-- Node6 -->
<g id="node6" class="node">
<title>Node6</title>
<g id="a_node6"><a xlink:title=" ">
<polygon fill="white" stroke="#bfbfbf" points="108,-177.5 108,-196.5 160,-196.5 160,-177.5 108,-177.5"/>
<text text-anchor="middle" x="134" y="-184.5" font-family="Helvetica,sans-Serif" font-size="10.00">uint64_t</text>
</a>
</g>
</g>
<!-- Node6&#45;&gt;Node1 -->
<g id="edge6" class="edge">
<title>Node6&#45;&gt;Node1</title>
<path fill="none" stroke="#9a32cd" stroke-dasharray="5,2" d="M134.33,-166.86C134.15,-137.77 131.08,-81.24 112,-38 108.97,-31.14 103.72,-24.59 99.1,-19.66"/>
<polygon fill="#9a32cd" stroke="#9a32cd" points="130.83,-167.2 134.28,-177.22 137.83,-167.24 130.83,-167.2"/>
<text text-anchor="middle" x="188" y="-151" font-family="Helvetica,sans-Serif" font-size="10.00"> dataPacketsCount_</text>
<text text-anchor="start" x="134" y="-140" font-family="Helvetica,sans-Serif" font-size="10.00">dataPhysicalOffset</text>
<text text-anchor="middle" x="188" y="-129" font-family="Helvetica,sans-Serif" font-size="10.00">_</text>
<text text-anchor="start" x="134" y="-118" font-family="Helvetica,sans-Serif" font-size="10.00">indexPacketsCount</text>
<text text-anchor="middle" x="188" y="-107" font-family="Helvetica,sans-Serif" font-size="10.00">_</text>
<text text-anchor="middle" x="188" y="-96" font-family="Helvetica,sans-Serif" font-size="10.00">recordCount_</text>
<text text-anchor="start" x="134" y="-85" font-family="Helvetica,sans-Serif" font-size="10.00">sectionHeaderLogical</text>
<text text-anchor="middle" x="188" y="-74" font-family="Helvetica,sans-Serif" font-size="10.00">Start_</text>
<text text-anchor="start" x="134" y="-63" font-family="Helvetica,sans-Serif" font-size="10.00">sectionLogicalLength</text>
<text text-anchor="middle" x="188" y="-52" font-family="Helvetica,sans-Serif" font-size="10.00">_</text>
<text text-anchor="middle" x="188" y="-41" font-family="Helvetica,sans-Serif" font-size="10.00">topIndexPhysicalOffset_</text>
</g>
</g>
</svg>
