<svg height="247pt" viewBox="0 0 360.5 247" width="361pt" xmlns="http://www.w3.org/2000/svg" xmlns:xlink="http://www.w3.org/1999/xlink"><g transform="translate(4 243)"><a xlink:title="Exception handling for E57 API."><path d="m165-239h-86v19h86z" fill="#999" stroke="#666"/><text font-family="Helvetica,sans-Serif" font-size="10" text-anchor="middle" x="122" y="-227">E57Exception.h</text></a><a target="_top" xlink:href="../../dd/d82/_e57_exception_8cpp.html" xlink:title=""><path d="m119-184h-96v19h96z" fill="#fff" stroke="#666"/><text font-family="Helvetica,sans-Serif" font-size="10" text-anchor="middle" x="71" y="-172">E57Exception.cpp</text></a><g stroke="#63b8ff"><path d="m106.62-212.52c-8.99 9.34-19.98 20.77-27.36 28.43" fill="none"/><path d="m104.12-214.97 9.46-4.78-4.41 9.63z" fill="#63b8ff"/></g><a target="_top" xlink:href="../../d1/df2/_e57_format_8h.html" xlink:title="Header file for the E57 API."><path d="m210.5-184h-73v19h73z" fill="#fff" stroke="#666"/><text font-family="Helvetica,sans-Serif" font-size="10" text-anchor="middle" x="174" y="-172">E57Format.h</text></a><g stroke="#63b8ff"><path d="m137.68-212.52c9.16 9.34 20.37 20.77 27.89 28.43" fill="none"/><path d="m135.09-210.16-4.5-9.59 9.5 4.69z" fill="#63b8ff"/></g><a target="_top" xlink:href="../../d3/d5e/_e57_simple_data_8h.html" xlink:title="Data structures for E57 Simple API."><path d="m220.5-129h-93v19h93z" fill="#fff" stroke="#666"/><text font-family="Helvetica,sans-Serif" font-size="10" text-anchor="middle" x="174" y="-117">E57SimpleData.h</text></a><g stroke="#63b8ff"><path d="m174-154.66v25.57" fill="none"/><path d="m170.5-154.75 3.5-10 3.5 10z" fill="#63b8ff"/></g><a target="_top" xlink:href="../../de/db4/_e57_simple_data_8cpp.html" xlink:title=""><path d="m104-74h-104v19h104z" fill="#fff" stroke="#666"/><text font-family="Helvetica,sans-Serif" font-size="10" text-anchor="middle" x="52" y="-62">E57SimpleData.cpp</text></a><g stroke="#63b8ff"><path d="m144.99-105.9c-22.53 9.79-53.19 23.11-73.03 31.73" fill="none"/><path d="m143.83-109.21 10.57-.77-7.78 7.19z" fill="#63b8ff"/></g><a target="_top" xlink:href="../../dc/d3a/_e57_simple_reader_8h.html" xlink:title="E57 Simple API for reading E57."><path d="m225.5-74h-103v19h103z" fill="#fff" stroke="#666"/><text font-family="Helvetica,sans-Serif" font-size="10" text-anchor="middle" x="174" y="-62">E57SimpleReader.h</text></a><g stroke="#63b8ff"><path d="m174-99.66v25.57" fill="none"/><path d="m170.5-99.75 3.5-10 3.5 10z" fill="#63b8ff"/></g><a target="_top" xlink:href="../../d3/d3a/_e57_simple_writer_8h.html" xlink:title="E57 Simple API for writing E57."><path d="m345.5-74h-97v19h97z" fill="#fff" stroke="#666"/><text font-family="Helvetica,sans-Serif" font-size="10" text-anchor="middle" x="297" y="-62">E57SimpleWriter.h</text></a><g stroke="#63b8ff"><path d="m203.25-105.9c22.72 9.79 53.62 23.11 73.63 31.73" fill="none"/><path d="m201.56-102.81-7.8-7.17 10.57.74z" fill="#63b8ff"/></g><a target="_top" xlink:href="../../dd/d80/_e57_simple_reader_8cpp.html" xlink:title=""><path d="m227.5-19h-113v19h113z" fill="#fff" stroke="#666"/><text font-family="Helvetica,sans-Serif" font-size="10" text-anchor="middle" x="171" y="-7">E57SimpleReader.cpp</text></a><g stroke="#63b8ff"><path d="m172.93-44.66c-.49 8.73-1.05 18.67-1.44 25.57" fill="none"/><path d="m169.44-44.96 4.06-9.79 2.93 10.18z" fill="#63b8ff"/></g><a target="_top" xlink:href="../../dc/d80/_e57_simple_writer_8cpp.html" xlink:title=""><path d="m352.5-19h-107v19h107z" fill="#fff" stroke="#666"/><text font-family="Helvetica,sans-Serif" font-size="10" text-anchor="middle" x="299" y="-7">E57SimpleWriter.cpp</text></a><g stroke="#63b8ff"><path d="m297.71-44.66c.33 8.73.71 18.67.97 25.57" fill="none"/><path d="m294.21-44.62 3.12-10.13 3.87 9.86z" fill="#63b8ff"/></g></g></svg>