<?xml version="1.0" encoding="UTF-8" standalone="no"?>
<!DOCTYPE svg PUBLIC "-//W3C//DTD SVG 1.1//EN"
 "http://www.w3.org/Graphics/SVG/1.1/DTD/svg11.dtd">
<!-- Generated by graphviz version 7.0.0 (20221023.0053)
 -->
<!-- Title: E57Exception.h Pages: 1 -->
<svg width="361pt" height="247pt"
 viewBox="0.00 0.00 360.50 247.00" xmlns="http://www.w3.org/2000/svg" xmlns:xlink="http://www.w3.org/1999/xlink">
<g id="graph0" class="graph" transform="scale(1 1) rotate(0) translate(4 243)">
<title>E57Exception.h</title>
<!-- Node1 -->
<g id="node1" class="node">
<title>Node1</title>
<g id="a_node1"><a xlink:title="Exception handling for E57 API.">
<polygon fill="#999999" stroke="#666666" points="165,-239 79,-239 79,-220 165,-220 165,-239"/>
<text text-anchor="middle" x="122" y="-227" font-family="Helvetica,sans-Serif" font-size="10.00">E57Exception.h</text>
</a>
</g>
</g>
<!-- Node2 -->
<g id="node2" class="node">
<title>Node2</title>
<g id="a_node2"><a xlink:href="../../dd/d82/_e57_exception_8cpp.html" target="_top" xlink:title=" ">
<polygon fill="white" stroke="#666666" points="119,-184 23,-184 23,-165 119,-165 119,-184"/>
<text text-anchor="middle" x="71" y="-172" font-family="Helvetica,sans-Serif" font-size="10.00">E57Exception.cpp</text>
</a>
</g>
</g>
<!-- Node1&#45;&gt;Node2 -->
<g id="edge1" class="edge">
<title>Node1&#45;&gt;Node2</title>
<path fill="none" stroke="#63b8ff" d="M105.64,-211.5C96.98,-202.5 86.7,-191.82 79.6,-184.44"/>
<polygon fill="#63b8ff" stroke="#63b8ff" points="103.07,-213.88 112.53,-218.66 108.12,-209.02 103.07,-213.88"/>
</g>
<!-- Node3 -->
<g id="node3" class="node">
<title>Node3</title>
<g id="a_node3"><a xlink:href="../../d1/df2/_e57_format_8h.html" target="_top" xlink:title="Header file for the E57 API.">
<polygon fill="white" stroke="#666666" points="210.5,-184 137.5,-184 137.5,-165 210.5,-165 210.5,-184"/>
<text text-anchor="middle" x="174" y="-172" font-family="Helvetica,sans-Serif" font-size="10.00">E57Format.h</text>
</a>
</g>
</g>
<!-- Node1&#45;&gt;Node3 -->
<g id="edge2" class="edge">
<title>Node1&#45;&gt;Node3</title>
<path fill="none" stroke="#63b8ff" d="M138.41,-211.78C147.29,-202.72 157.91,-191.9 165.23,-184.44"/>
<polygon fill="#63b8ff" stroke="#63b8ff" points="136.15,-209.08 131.65,-218.67 141.15,-213.98 136.15,-209.08"/>
</g>
<!-- Node4 -->
<g id="node4" class="node">
<title>Node4</title>
<g id="a_node4"><a xlink:href="../../d3/d5e/_e57_simple_data_8h.html" target="_top" xlink:title="Data structures for E57 Simple API.">
<polygon fill="white" stroke="#666666" points="220.5,-129 127.5,-129 127.5,-110 220.5,-110 220.5,-129"/>
<text text-anchor="middle" x="174" y="-117" font-family="Helvetica,sans-Serif" font-size="10.00">E57SimpleData.h</text>
</a>
</g>
</g>
<!-- Node3&#45;&gt;Node4 -->
<g id="edge3" class="edge">
<title>Node3&#45;&gt;Node4</title>
<path fill="none" stroke="#63b8ff" d="M174,-153.35C174,-145.1 174,-135.97 174,-129.44"/>
<polygon fill="#63b8ff" stroke="#63b8ff" points="170.5,-153.23 174,-163.23 177.5,-153.23 170.5,-153.23"/>
</g>
<!-- Node5 -->
<g id="node5" class="node">
<title>Node5</title>
<g id="a_node5"><a xlink:href="../../de/db4/_e57_simple_data_8cpp.html" target="_top" xlink:title=" ">
<polygon fill="white" stroke="#666666" points="104,-74 0,-74 0,-55 104,-55 104,-74"/>
<text text-anchor="middle" x="52" y="-62" font-family="Helvetica,sans-Serif" font-size="10.00">E57SimpleData.cpp</text>
</a>
</g>
</g>
<!-- Node4&#45;&gt;Node5 -->
<g id="edge4" class="edge">
<title>Node4&#45;&gt;Node5</title>
<path fill="none" stroke="#63b8ff" d="M142.76,-104.93C120.64,-95.32 91.59,-82.7 72.39,-74.36"/>
<polygon fill="#63b8ff" stroke="#63b8ff" points="141.35,-108.13 151.92,-108.91 144.14,-101.71 141.35,-108.13"/>
</g>
<!-- Node6 -->
<g id="node6" class="node">
<title>Node6</title>
<g id="a_node6"><a xlink:href="../../dc/d3a/_e57_simple_reader_8h.html" target="_top" xlink:title="E57 Simple API for reading E57.">
<polygon fill="white" stroke="#666666" points="225.5,-74 122.5,-74 122.5,-55 225.5,-55 225.5,-74"/>
<text text-anchor="middle" x="174" y="-62" font-family="Helvetica,sans-Serif" font-size="10.00">E57SimpleReader.h</text>
</a>
</g>
</g>
<!-- Node4&#45;&gt;Node6 -->
<g id="edge5" class="edge">
<title>Node4&#45;&gt;Node6</title>
<path fill="none" stroke="#63b8ff" d="M174,-98.35C174,-90.1 174,-80.97 174,-74.44"/>
<polygon fill="#63b8ff" stroke="#63b8ff" points="170.5,-98.23 174,-108.23 177.5,-98.23 170.5,-98.23"/>
</g>
<!-- Node8 -->
<g id="node8" class="node">
<title>Node8</title>
<g id="a_node8"><a xlink:href="../../d3/d3a/_e57_simple_writer_8h.html" target="_top" xlink:title="E57 Simple API for writing E57.">
<polygon fill="white" stroke="#666666" points="345.5,-74 248.5,-74 248.5,-55 345.5,-55 345.5,-74"/>
<text text-anchor="middle" x="297" y="-62" font-family="Helvetica,sans-Serif" font-size="10.00">E57SimpleWriter.h</text>
</a>
</g>
</g>
<!-- Node4&#45;&gt;Node8 -->
<g id="edge7" class="edge">
<title>Node4&#45;&gt;Node8</title>
<path fill="none" stroke="#63b8ff" d="M205.19,-105.06C227.53,-95.43 256.99,-82.74 276.44,-74.36"/>
<polygon fill="#63b8ff" stroke="#63b8ff" points="204.05,-101.74 196.26,-108.91 206.82,-108.17 204.05,-101.74"/>
</g>
<!-- Node7 -->
<g id="node7" class="node">
<title>Node7</title>
<g id="a_node7"><a xlink:href="../../dd/d80/_e57_simple_reader_8cpp.html" target="_top" xlink:title=" ">
<polygon fill="white" stroke="#666666" points="227.5,-19 114.5,-19 114.5,0 227.5,0 227.5,-19"/>
<text text-anchor="middle" x="171" y="-7" font-family="Helvetica,sans-Serif" font-size="10.00">E57SimpleReader.cpp</text>
</a>
</g>
</g>
<!-- Node6&#45;&gt;Node7 -->
<g id="edge6" class="edge">
<title>Node6&#45;&gt;Node7</title>
<path fill="none" stroke="#63b8ff" d="M172.86,-43.35C172.39,-35.1 171.88,-25.97 171.51,-19.44"/>
<polygon fill="#63b8ff" stroke="#63b8ff" points="169.36,-43.45 173.42,-53.24 176.35,-43.06 169.36,-43.45"/>
</g>
<!-- Node9 -->
<g id="node9" class="node">
<title>Node9</title>
<g id="a_node9"><a xlink:href="../../dc/d80/_e57_simple_writer_8cpp.html" target="_top" xlink:title=" ">
<polygon fill="white" stroke="#666666" points="352.5,-19 245.5,-19 245.5,0 352.5,0 352.5,-19"/>
<text text-anchor="middle" x="299" y="-7" font-family="Helvetica,sans-Serif" font-size="10.00">E57SimpleWriter.cpp</text>
</a>
</g>
</g>
<!-- Node8&#45;&gt;Node9 -->
<g id="edge8" class="edge">
<title>Node8&#45;&gt;Node9</title>
<path fill="none" stroke="#63b8ff" d="M297.76,-43.35C298.07,-35.1 298.42,-25.97 298.66,-19.44"/>
<polygon fill="#63b8ff" stroke="#63b8ff" points="294.27,-43.11 297.39,-53.24 301.26,-43.37 294.27,-43.11"/>
</g>
</g>
</svg>
