<svg height="302pt" viewBox="0 0 385 302" width="385pt" xmlns="http://www.w3.org/2000/svg" xmlns:xlink="http://www.w3.org/1999/xlink"><g transform="translate(4 298)"><a xlink:title=""><path d="m228-294h-113v19h113z" fill="#999" stroke="#666"/><text font-family="Helvetica,sans-Serif" font-size="10" text-anchor="middle" x="171.5" y="-282">E57SimpleReader.cpp</text></a><a target="_top" xlink:href="../../dc/d3a/_e57_simple_reader_8h.html" xlink:title="E57 Simple API for reading E57."><path d="m170-239h-103v19h103z" fill="#fff" stroke="#666"/><text font-family="Helvetica,sans-Serif" font-size="10" text-anchor="middle" x="118.5" y="-227">E57SimpleReader.h</text></a><g stroke="#63b8ff"><path d="m162.75-274.75c-7.72 7.72-19.15 19.15-28.47 28.47" fill="none"/><path d="m136.64-243.69-9.55 4.6 4.6-9.55z" fill="#63b8ff"/></g><a xlink:title=""><path d="m263-239h-75v19h75z" fill="#e0e0e0" stroke="#999"/><text font-family="Helvetica,sans-Serif" font-size="10" text-anchor="middle" x="225.5" y="-227">ReaderImpl.h</text></a><g stroke="#63b8ff"><path d="m180.42-274.75c7.86 7.72 19.51 19.15 29 28.47" fill="none"/><path d="m212.06-248.59 4.69 9.5-9.59-4.51z" fill="#63b8ff"/></g><a target="_top" xlink:href="../../d3/d5e/_e57_simple_data_8h.html" xlink:title="Data structures for E57 Simple API."><path d="m165-184h-93v19h93z" fill="#fff" stroke="#666"/><text font-family="Helvetica,sans-Serif" font-size="10" text-anchor="middle" x="118.5" y="-172">E57SimpleData.h</text></a><g stroke="#63b8ff"><path d="m118.5-219.75v25.62" fill="none"/><path d="m122-194.09-3.5 10-3.5-10z" fill="#63b8ff"/></g><a target="_top" xlink:href="../../d1/df2/_e57_format_8h.html" xlink:title="Header file for the E57 API."><path d="m155-129h-73v19h73z" fill="#fff" stroke="#666"/><text font-family="Helvetica,sans-Serif" font-size="10" text-anchor="middle" x="118.5" y="-117">E57Format.h</text></a><g stroke="#63b8ff"><path d="m118.5-164.75v25.62" fill="none"/><path d="m122-139.09-3.5 10-3.5-10z" fill="#63b8ff"/></g><a xlink:title=""><path d="m41-74h-41v19h41z" fill="#e0e0e0" stroke="#999"/><text font-family="Helvetica,sans-Serif" font-size="10" text-anchor="middle" x="20.5" y="-62">cfloat</text></a><g stroke="#63b8ff"><path d="m102.75-109.98c-15.48 8.37-39.34 21.28-57.39 31.03" fill="none"/><path d="m46.99-75.85-10.46 1.68 7.13-7.84z" fill="#63b8ff"/></g><a xlink:title=""><path d="m111.5-74h-52v19h52z" fill="#e0e0e0" stroke="#999"/><text font-family="Helvetica,sans-Serif" font-size="10" text-anchor="middle" x="85.5" y="-62">memory</text></a><g stroke="#63b8ff"><path d="m113.05-109.75c-4.56 7.33-11.22 18.02-16.84 27.05" fill="none"/><path d="m99.1-80.73-8.25 6.64 2.31-10.34z" fill="#63b8ff"/></g><a xlink:title=""><path d="m173.5-74h-44v19h44z" fill="#e0e0e0" stroke="#999"/><text font-family="Helvetica,sans-Serif" font-size="10" text-anchor="middle" x="151.5" y="-62">vector</text></a><g stroke="#63b8ff"><path d="m123.95-109.75c4.56 7.33 11.22 18.02 16.84 27.05" fill="none"/><path d="m143.84-84.43 2.31 10.34-8.25-6.64z" fill="#63b8ff"/></g><a target="_top" xlink:href="../../d4/d6e/_e57_exception_8h.html" xlink:title="Exception handling for E57 API."><path d="m277.5-74h-86v19h86z" fill="#fff" stroke="#666"/><text font-family="Helvetica,sans-Serif" font-size="10" text-anchor="middle" x="234.5" y="-62">E57Exception.h</text></a><g stroke="#63b8ff"><path d="m137.14-109.98c18.66 8.52 47.61 21.75 69.1 31.57" fill="none"/><path d="m207.88-81.51 7.64 7.34-10.55-.97z" fill="#63b8ff"/></g><a xlink:title=""><path d="m156-19h-59v19h59z" fill="#e0e0e0" stroke="#999"/><text font-family="Helvetica,sans-Serif" font-size="10" text-anchor="middle" x="126.5" y="-7">exception</text></a><g stroke="#63b8ff"><path d="m217.15-54.98c-17.22 8.44-43.85 21.51-63.8 31.3" fill="none"/><path d="m154.69-20.43-10.52 1.26 7.43-7.55z" fill="#63b8ff"/></g><a xlink:title=""><path d="m228.5-19h-54v19h54z" fill="#e0e0e0" stroke="#999"/><text font-family="Helvetica,sans-Serif" font-size="10" text-anchor="middle" x="201.5" y="-7">iostream</text></a><g stroke="#63b8ff"><path d="m229.05-54.75c-4.56 7.33-11.22 18.02-16.84 27.05" fill="none"/><path d="m215.1-25.73-8.25 6.64 2.31-10.34z" fill="#63b8ff"/></g><a xlink:title=""><path d="m288-19h-41v19h41z" fill="#e0e0e0" stroke="#999"/><text font-family="Helvetica,sans-Serif" font-size="10" text-anchor="middle" x="267.5" y="-7">string</text></a><g stroke="#63b8ff"><path d="m239.95-54.75c4.56 7.33 11.22 18.02 16.84 27.05" fill="none"/><path d="m259.84-29.43 2.31 10.34-8.25-6.64z" fill="#63b8ff"/></g><a xlink:title=""><path d="m377-19h-71v19h71z" fill="#e0e0e0" stroke="#999"/><text font-family="Helvetica,sans-Serif" font-size="10" text-anchor="middle" x="341.5" y="-7">E57Export.h</text></a><g stroke="#63b8ff"><path d="m251.69-54.98c17.06 8.44 43.44 21.51 63.21 31.3" fill="none"/><path d="m316.59-26.75 7.41 7.58-10.52-1.3z" fill="#63b8ff"/></g></g></svg>