<?xml version="1.0" encoding="UTF-8" standalone="no"?>
<!DOCTYPE svg PUBLIC "-//W3C//DTD SVG 1.1//EN"
 "http://www.w3.org/Graphics/SVG/1.1/DTD/svg11.dtd">
<!-- Generated by graphviz version 8.1.0 (20230707.0739)
 -->
<!-- Title: e57::LineGroupRecord Pages: 1 -->
<svg width="315pt" height="116pt"
 viewBox="0.00 0.00 314.62 116.25" xmlns="http://www.w3.org/2000/svg" xmlns:xlink="http://www.w3.org/1999/xlink">
<g id="graph0" class="graph" transform="scale(1 1) rotate(0) translate(4 112.25)">
<title>e57::LineGroupRecord</title>
<!-- Node1 -->
<g id="node1" class="node">
<title>Node1</title>
<g id="a_node1"><a xlink:title="Stores information about a single group of points in a row or column.">
<polygon fill="#999999" stroke="#666666" points="176.38,-19.25 62.88,-19.25 62.88,0 176.38,0 176.38,-19.25"/>
<text text-anchor="middle" x="119.62" y="-5.75" font-family="Helvetica,sans-Serif" font-size="10.00">e57::LineGroupRecord</text>
</a>
</g>
</g>
<!-- Node2 -->
<g id="node2" class="node">
<title>Node2</title>
<g id="a_node2"><a xlink:title=" ">
<polygon fill="white" stroke="#666666" points="45.25,-108.25 0,-108.25 0,-89 45.25,-89 45.25,-108.25"/>
<text text-anchor="middle" x="22.62" y="-94.75" font-family="Helvetica,sans-Serif" font-size="10.00">int64_t</text>
</a>
</g>
</g>
<!-- Node2&#45;&gt;Node1 -->
<g id="edge1" class="edge">
<title>Node2&#45;&gt;Node1</title>
<path fill="none" stroke="#9a32cd" stroke-dasharray="5,2" d="M25.57,-77.82C28.47,-64.74 34.15,-48.08 45.12,-37.25 53.24,-29.24 63.92,-23.63 74.66,-19.7"/>
<polygon fill="#9a32cd" stroke="#9a32cd" points="21.96,-77.09 23.61,-87.56 28.85,-78.35 21.96,-77.09"/>
<text text-anchor="middle" x="80.88" y="-61.5" font-family="Helvetica,sans-Serif" font-size="10.00"> idElementValue</text>
<text text-anchor="middle" x="80.88" y="-50.25" font-family="Helvetica,sans-Serif" font-size="10.00">pointCount</text>
<text text-anchor="middle" x="80.88" y="-39" font-family="Helvetica,sans-Serif" font-size="10.00">startPointIndex</text>
</g>
<!-- Node3 -->
<g id="node3" class="node">
<title>Node3</title>
<g id="a_node3"><a xlink:href="../../d7/d34/structe57_1_1_cartesian_bounds.html" target="_top" xlink:title="Specifies an axis&#45;aligned box in local cartesian coordinates.">
<polygon fill="white" stroke="#666666" points="176,-108.25 63.25,-108.25 63.25,-89 176,-89 176,-108.25"/>
<text text-anchor="middle" x="119.62" y="-94.75" font-family="Helvetica,sans-Serif" font-size="10.00">e57::CartesianBounds</text>
</a>
</g>
</g>
<!-- Node3&#45;&gt;Node1 -->
<g id="edge2" class="edge">
<title>Node3&#45;&gt;Node1</title>
<path fill="none" stroke="#9a32cd" stroke-dasharray="5,2" d="M119.62,-77.78C119.62,-59.55 119.62,-33.35 119.62,-19.69"/>
<polygon fill="#9a32cd" stroke="#9a32cd" points="116.13,-77.64 119.62,-87.64 123.13,-77.64 116.13,-77.64"/>
<text text-anchor="middle" x="157.5" y="-50.25" font-family="Helvetica,sans-Serif" font-size="10.00"> cartesianBounds</text>
</g>
<!-- Node4 -->
<g id="node4" class="node">
<title>Node4</title>
<g id="a_node4"><a xlink:href="../../d2/d00/structe57_1_1_spherical_bounds.html" target="_top" xlink:title="Stores the bounds of some data in spherical coordinates.">
<polygon fill="white" stroke="#666666" points="305.25,-108.25 194,-108.25 194,-89 305.25,-89 305.25,-108.25"/>
<text text-anchor="middle" x="249.62" y="-94.75" font-family="Helvetica,sans-Serif" font-size="10.00">e57::SphericalBounds</text>
</a>
</g>
</g>
<!-- Node4&#45;&gt;Node1 -->
<g id="edge3" class="edge">
<title>Node4&#45;&gt;Node1</title>
<path fill="none" stroke="#9a32cd" stroke-dasharray="5,2" d="M238.77,-79.71C229.79,-66.29 215.91,-48.4 199.62,-37.25 188.15,-29.4 174.17,-23.7 161.13,-19.65"/>
<polygon fill="#9a32cd" stroke="#9a32cd" points="236.31,-81.36 244.63,-87.91 242.21,-77.6 236.31,-81.36"/>
<text text-anchor="middle" x="269.12" y="-50.25" font-family="Helvetica,sans-Serif" font-size="10.00"> sphericalBounds</text>
</g>
</g>
</svg>
