<svg height="115pt" viewBox="0 0 317 115" width="317pt" xmlns="http://www.w3.org/2000/svg" xmlns:xlink="http://www.w3.org/1999/xlink"><g transform="translate(4 111)"><a xlink:title="Stores information about a single group of points in a row or column."><path d="m178-19h-114v19h114z" fill="#999" stroke="#666"/><text font-family="Helvetica,sans-Serif" font-size="10" text-anchor="middle" x="121" y="-7">e57::LineGroupRecord</text></a><a xlink:title=""><path d="m46-107h-46v19h46z" fill="#fff" stroke="#666"/><text font-family="Helvetica,sans-Serif" font-size="10" text-anchor="middle" x="23" y="-95">int64_t</text></a><g><path d="m25.99-77.79c2.99 13.02 8.83 29.93 20.01 40.79 8.52 8.27 19.78 13.98 30.98 17.91" fill="none" stroke="#9a32cd" stroke-dasharray="5 2"/><path d="m22.48-77.5 1.55-10.48 5.32 9.16z" fill="#9a32cd" stroke="#9a32cd"/><g font-family="Helvetica,sans-Serif" font-size="10" text-anchor="middle"><text x="81.5" y="-62">idElementValue</text><text x="81.5" y="-51">pointCount</text><text x="81.5" y="-40">startPointIndex</text></g></g><a target="_top" xlink:href="../../d7/d34/structe57_1_1_cartesian_bounds.html" xlink:title="Specifies an axis&#45;aligned box in local cartesian coordinates."><path d="m177.5-107h-113v19h113z" fill="#fff" stroke="#666"/><text font-family="Helvetica,sans-Serif" font-size="10" text-anchor="middle" x="121" y="-95">e57::CartesianBounds</text></a><g><path d="m121-77.91v58.88" fill="none" stroke="#9a32cd" stroke-dasharray="5 2"/><path d="m117.5-77.94 3.5-10 3.5 10z" fill="#9a32cd" stroke="#9a32cd"/><text font-family="Helvetica,sans-Serif" font-size="10" text-anchor="middle" x="159" y="-51">cartesianBounds</text></g><a target="_top" xlink:href="../../d2/d00/structe57_1_1_spherical_bounds.html" xlink:title="Stores the bounds of some data in spherical coordinates."><path d="m308-107h-112v19h112z" fill="#fff" stroke="#666"/><text font-family="Helvetica,sans-Serif" font-size="10" text-anchor="middle" x="252" y="-95">e57::SphericalBounds</text></a><g><path d="m241.07-79.24c-9.22 13.26-23.52 31.14-40.07 42.24-12.03 8.07-26.72 13.86-40.21 17.93" fill="none" stroke="#9a32cd" stroke-dasharray="5 2"/><path d="m238.38-81.53 8.45-6.39-2.62 10.27z" fill="#9a32cd" stroke="#9a32cd"/><text font-family="Helvetica,sans-Serif" font-size="10" text-anchor="middle" x="271" y="-51">sphericalBounds</text></g></g></svg>