<?xml version="1.0" encoding="UTF-8" standalone="no"?>
<!DOCTYPE svg PUBLIC "-//W3C//DTD SVG 1.1//EN"
 "http://www.w3.org/Graphics/SVG/1.1/DTD/svg11.dtd">
<!-- Generated by graphviz version 7.0.0 (20221023.0053)
 -->
<!-- Title: e57::LineGroupRecord Pages: 1 -->
<svg width="317pt" height="115pt"
 viewBox="0.00 0.00 317.00 115.00" xmlns="http://www.w3.org/2000/svg" xmlns:xlink="http://www.w3.org/1999/xlink">
<g id="graph0" class="graph" transform="scale(1 1) rotate(0) translate(4 111)">
<title>e57::LineGroupRecord</title>
<!-- Node1 -->
<g id="node1" class="node">
<title>Node1</title>
<g id="a_node1"><a xlink:title="Stores information about a single group of points in a row or column.">
<polygon fill="#999999" stroke="#666666" points="178,-19 64,-19 64,0 178,0 178,-19"/>
<text text-anchor="middle" x="121" y="-7" font-family="Helvetica,sans-Serif" font-size="10.00">e57::LineGroupRecord</text>
</a>
</g>
</g>
<!-- Node2 -->
<g id="node2" class="node">
<title>Node2</title>
<g id="a_node2"><a xlink:title=" ">
<polygon fill="white" stroke="#666666" points="46,-107 0,-107 0,-88 46,-88 46,-107"/>
<text text-anchor="middle" x="23" y="-95" font-family="Helvetica,sans-Serif" font-size="10.00">int64_t</text>
</a>
</g>
</g>
<!-- Node2&#45;&gt;Node1 -->
<g id="edge1" class="edge">
<title>Node2&#45;&gt;Node1</title>
<path fill="none" stroke="#9a32cd" stroke-dasharray="5,2" d="M26.27,-76.57C29.34,-63.73 35.16,-47.52 46,-37 54.32,-28.92 65.26,-23.29 76.2,-19.37"/>
<polygon fill="#9a32cd" stroke="#9a32cd" points="22.9,-75.58 24.39,-86.07 29.77,-76.94 22.9,-75.58"/>
<text text-anchor="middle" x="81.5" y="-62" font-family="Helvetica,sans-Serif" font-size="10.00"> idElementValue</text>
<text text-anchor="middle" x="81.5" y="-51" font-family="Helvetica,sans-Serif" font-size="10.00">pointCount</text>
<text text-anchor="middle" x="81.5" y="-40" font-family="Helvetica,sans-Serif" font-size="10.00">startPointIndex</text>
</g>
<!-- Node3 -->
<g id="node3" class="node">
<title>Node3</title>
<g id="a_node3"><a xlink:href="../../d7/d34/structe57_1_1_cartesian_bounds.html" target="_top" xlink:title="Specifies an axis&#45;aligned box in local cartesian coordinates.">
<polygon fill="white" stroke="#666666" points="177.5,-107 64.5,-107 64.5,-88 177.5,-88 177.5,-107"/>
<text text-anchor="middle" x="121" y="-95" font-family="Helvetica,sans-Serif" font-size="10.00">e57::CartesianBounds</text>
</a>
</g>
</g>
<!-- Node3&#45;&gt;Node1 -->
<g id="edge2" class="edge">
<title>Node3&#45;&gt;Node1</title>
<path fill="none" stroke="#9a32cd" stroke-dasharray="5,2" d="M121,-76.37C121,-58.37 121,-32.83 121,-19.46"/>
<polygon fill="#9a32cd" stroke="#9a32cd" points="117.5,-76.11 121,-86.11 124.5,-76.11 117.5,-76.11"/>
<text text-anchor="middle" x="159" y="-51" font-family="Helvetica,sans-Serif" font-size="10.00"> cartesianBounds</text>
</g>
<!-- Node4 -->
<g id="node4" class="node">
<title>Node4</title>
<g id="a_node4"><a xlink:href="../../d2/d00/structe57_1_1_spherical_bounds.html" target="_top" xlink:title="Stores the bounds of some data in spherical coordinates.">
<polygon fill="white" stroke="#666666" points="308,-107 196,-107 196,-88 308,-88 308,-107"/>
<text text-anchor="middle" x="252" y="-95" font-family="Helvetica,sans-Serif" font-size="10.00">e57::SphericalBounds</text>
</a>
</g>
</g>
<!-- Node4&#45;&gt;Node1 -->
<g id="edge3" class="edge">
<title>Node4&#45;&gt;Node1</title>
<path fill="none" stroke="#9a32cd" stroke-dasharray="5,2" d="M240.52,-78.46C231.29,-65.28 217.22,-47.89 201,-37 189.34,-29.17 175.17,-23.49 162.02,-19.44"/>
<polygon fill="#9a32cd" stroke="#9a32cd" points="237.53,-80.28 245.99,-86.66 243.35,-76.4 237.53,-80.28"/>
<text text-anchor="middle" x="271" y="-51" font-family="Helvetica,sans-Serif" font-size="10.00"> sphericalBounds</text>
</g>
</g>
</svg>
