<?xml version="1.0" encoding="UTF-8" standalone="no"?>
<!DOCTYPE svg PUBLIC "-//W3C//DTD SVG 1.1//EN"
 "http://www.w3.org/Graphics/SVG/1.1/DTD/svg11.dtd">
<!-- Generated by graphviz version 8.1.0 (20230707.0739)
 -->
<!-- Title: IntegerNode.cpp Pages: 1 -->
<svg width="214pt" height="83pt"
 viewBox="0.00 0.00 214.38 82.50" xmlns="http://www.w3.org/2000/svg" xmlns:xlink="http://www.w3.org/1999/xlink">
<g id="graph0" class="graph" transform="scale(1 1) rotate(0) translate(4 78.5)">
<title>IntegerNode.cpp</title>
<!-- Node1 -->
<g id="node1" class="node">
<title>Node1</title>
<g id="a_node1"><a xlink:title=" ">
<polygon fill="#999999" stroke="#666666" points="148.12,-74.5 60.12,-74.5 60.12,-55.25 148.12,-55.25 148.12,-74.5"/>
<text text-anchor="middle" x="104.12" y="-61" font-family="Helvetica,sans-Serif" font-size="10.00">IntegerNode.cpp</text>
</a>
</g>
</g>
<!-- Node2 -->
<g id="node2" class="node">
<title>Node2</title>
<g id="a_node2"><a xlink:title=" ">
<polygon fill="#e0e0e0" stroke="#999999" points="96.25,-19.25 0,-19.25 0,0 96.25,0 96.25,-19.25"/>
<text text-anchor="middle" x="48.12" y="-5.75" font-family="Helvetica,sans-Serif" font-size="10.00">IntegerNodeImpl.h</text>
</a>
</g>
</g>
<!-- Node1&#45;&gt;Node2 -->
<g id="edge1" class="edge">
<title>Node1&#45;&gt;Node2</title>
<path fill="none" stroke="#63b8ff" d="M94.63,-54.84C86.61,-47.22 74.94,-36.12 65.3,-26.95"/>
<polygon fill="#63b8ff" stroke="#63b8ff" points="68.14,-24.88 58.48,-20.52 63.32,-29.95 68.14,-24.88"/>
</g>
<!-- Node3 -->
<g id="node3" class="node">
<title>Node3</title>
<g id="a_node3"><a xlink:title=" ">
<polygon fill="#e0e0e0" stroke="#999999" points="206.38,-19.25 113.88,-19.25 113.88,0 206.38,0 206.38,-19.25"/>
<text text-anchor="middle" x="160.12" y="-5.75" font-family="Helvetica,sans-Serif" font-size="10.00">StringFunctions.h</text>
</a>
</g>
</g>
<!-- Node1&#45;&gt;Node3 -->
<g id="edge2" class="edge">
<title>Node1&#45;&gt;Node3</title>
<path fill="none" stroke="#63b8ff" d="M113.62,-54.84C121.64,-47.22 133.31,-36.12 142.95,-26.95"/>
<polygon fill="#63b8ff" stroke="#63b8ff" points="144.93,-29.95 149.77,-20.52 140.11,-24.88 144.93,-29.95"/>
</g>
</g>
</svg>
