<?xml version="1.0" encoding="UTF-8" standalone="no"?>
<!DOCTYPE svg PUBLIC "-//W3C//DTD SVG 1.1//EN"
 "http://www.w3.org/Graphics/SVG/1.1/DTD/svg11.dtd">
<!-- Generated by graphviz version 7.0.0 (20221023.0053)
 -->
<!-- Title: IntegerNode.cpp Pages: 1 -->
<svg width="216pt" height="82pt"
 viewBox="0.00 0.00 216.00 82.00" xmlns="http://www.w3.org/2000/svg" xmlns:xlink="http://www.w3.org/1999/xlink">
<g id="graph0" class="graph" transform="scale(1 1) rotate(0) translate(4 78)">
<title>IntegerNode.cpp</title>
<!-- Node1 -->
<g id="node1" class="node">
<title>Node1</title>
<g id="a_node1"><a xlink:title=" ">
<polygon fill="#999999" stroke="#666666" points="149,-74 60,-74 60,-55 149,-55 149,-74"/>
<text text-anchor="middle" x="104.5" y="-62" font-family="Helvetica,sans-Serif" font-size="10.00">IntegerNode.cpp</text>
</a>
</g>
</g>
<!-- Node2 -->
<g id="node2" class="node">
<title>Node2</title>
<g id="a_node2"><a xlink:title=" ">
<polygon fill="#e0e0e0" stroke="#999999" points="97,-19 0,-19 0,0 97,0 97,-19"/>
<text text-anchor="middle" x="48.5" y="-7" font-family="Helvetica,sans-Serif" font-size="10.00">IntegerNodeImpl.h</text>
</a>
</g>
</g>
<!-- Node1&#45;&gt;Node2 -->
<g id="edge1" class="edge">
<title>Node1&#45;&gt;Node2</title>
<path fill="none" stroke="#63b8ff" d="M95,-54.51C87.07,-47 75.55,-36.1 65.96,-27.03"/>
<polygon fill="#63b8ff" stroke="#63b8ff" points="68.63,-24.73 58.96,-20.4 63.82,-29.81 68.63,-24.73"/>
</g>
<!-- Node3 -->
<g id="node3" class="node">
<title>Node3</title>
<g id="a_node3"><a xlink:title=" ">
<polygon fill="#e0e0e0" stroke="#999999" points="208,-19 115,-19 115,0 208,0 208,-19"/>
<text text-anchor="middle" x="161.5" y="-7" font-family="Helvetica,sans-Serif" font-size="10.00">StringFunctions.h</text>
</a>
</g>
</g>
<!-- Node1&#45;&gt;Node3 -->
<g id="edge2" class="edge">
<title>Node1&#45;&gt;Node3</title>
<path fill="none" stroke="#63b8ff" d="M114.17,-54.51C122.24,-47 133.97,-36.1 143.72,-27.03"/>
<polygon fill="#63b8ff" stroke="#63b8ff" points="145.93,-29.76 150.87,-20.39 141.16,-24.63 145.93,-29.76"/>
</g>
</g>
</svg>
