<?xml version="1.0" encoding="UTF-8" standalone="no"?>
<!DOCTYPE svg PUBLIC "-//W3C//DTD SVG 1.1//EN"
 "http://www.w3.org/Graphics/SVG/1.1/DTD/svg11.dtd">
<!-- Generated by graphviz version 7.0.0 (20221023.0053)
 -->
<!-- Title: NodeImpl.cpp Pages: 1 -->
<svg width="545pt" height="412pt"
 viewBox="0.00 0.00 545.00 412.00" xmlns="http://www.w3.org/2000/svg" xmlns:xlink="http://www.w3.org/1999/xlink">
<g id="graph0" class="graph" transform="scale(1 1) rotate(0) translate(4 408)">
<title>NodeImpl.cpp</title>
<!-- Node1 -->
<g id="node1" class="node">
<title>Node1</title>
<g id="a_node1"><a xlink:title=" ">
<polygon fill="#999999" stroke="#666666" points="367.5,-404 290.5,-404 290.5,-385 367.5,-385 367.5,-404"/>
<text text-anchor="middle" x="329" y="-392" font-family="Helvetica,sans-Serif" font-size="10.00">NodeImpl.cpp</text>
</a>
</g>
</g>
<!-- Node2 -->
<g id="node2" class="node">
<title>Node2</title>
<g id="a_node2"><a xlink:href="../../df/d7b/_node_impl_8h.html" target="_top" xlink:title=" ">
<polygon fill="white" stroke="#666666" points="280.5,-239 213.5,-239 213.5,-220 280.5,-220 280.5,-239"/>
<text text-anchor="middle" x="247" y="-227" font-family="Helvetica,sans-Serif" font-size="10.00">NodeImpl.h</text>
</a>
</g>
</g>
<!-- Node1&#45;&gt;Node2 -->
<g id="edge1" class="edge">
<title>Node1&#45;&gt;Node2</title>
<path fill="none" stroke="#63b8ff" d="M329.79,-384.67C331.22,-363.85 332.26,-310.72 310,-275 302.09,-262.3 289.08,-252.21 276.94,-244.87"/>
<polygon fill="#63b8ff" stroke="#63b8ff" points="278.83,-241.92 268.39,-240.1 275.41,-248.03 278.83,-241.92"/>
</g>
<!-- Node15 -->
<g id="node15" class="node">
<title>Node15</title>
<g id="a_node15"><a xlink:href="../../da/d09/_image_file_impl_8h.html" target="_top" xlink:title=" ">
<polygon fill="white" stroke="#666666" points="397,-239 311,-239 311,-220 397,-220 397,-239"/>
<text text-anchor="middle" x="354" y="-227" font-family="Helvetica,sans-Serif" font-size="10.00">ImageFileImpl.h</text>
</a>
</g>
</g>
<!-- Node1&#45;&gt;Node15 -->
<g id="edge16" class="edge">
<title>Node1&#45;&gt;Node15</title>
<path fill="none" stroke="#63b8ff" d="M332.35,-384.78C335.61,-375.91 340.44,-361.7 343,-349 349.88,-314.82 352.47,-274.21 353.44,-250.5"/>
<polygon fill="#63b8ff" stroke="#63b8ff" points="356.93,-250.84 353.77,-240.73 349.93,-250.6 356.93,-250.84"/>
</g>
<!-- Node16 -->
<g id="node16" class="node">
<title>Node16</title>
<g id="a_node16"><a xlink:href="../../d4/d90/_source_dest_buffer_impl_8h.html" target="_top" xlink:title=" ">
<polygon fill="white" stroke="#666666" points="175,-294 53,-294 53,-275 175,-275 175,-294"/>
<text text-anchor="middle" x="114" y="-282" font-family="Helvetica,sans-Serif" font-size="10.00">SourceDestBufferImpl.h</text>
</a>
</g>
</g>
<!-- Node1&#45;&gt;Node16 -->
<g id="edge19" class="edge">
<title>Node1&#45;&gt;Node16</title>
<path fill="none" stroke="#63b8ff" d="M290.27,-384.81C262.2,-377.58 223.91,-365.75 193,-349 169.43,-336.22 145.93,-316.16 130.77,-302.01"/>
<polygon fill="#63b8ff" stroke="#63b8ff" points="133.22,-299.51 123.57,-295.13 128.38,-304.57 133.22,-299.51"/>
</g>
<!-- Node17 -->
<g id="node17" class="node">
<title>Node17</title>
<g id="a_node17"><a xlink:href="../../db/d42/_string_functions_8h.html" target="_top" xlink:title=" ">
<polygon fill="white" stroke="#666666" points="491.5,-74 398.5,-74 398.5,-55 491.5,-55 491.5,-74"/>
<text text-anchor="middle" x="445" y="-62" font-family="Helvetica,sans-Serif" font-size="10.00">StringFunctions.h</text>
</a>
</g>
</g>
<!-- Node1&#45;&gt;Node17 -->
<g id="edge21" class="edge">
<title>Node1&#45;&gt;Node17</title>
<path fill="none" stroke="#63b8ff" d="M348.44,-384.65C379.04,-369.24 435,-334.37 435,-285.5 435,-285.5 435,-285.5 435,-173.5 435,-142.79 439.06,-107.38 442,-85.72"/>
<polygon fill="#63b8ff" stroke="#63b8ff" points="445.45,-86.33 443.4,-75.93 438.52,-85.34 445.45,-86.33"/>
</g>
<!-- Node20 -->
<g id="node20" class="node">
<title>Node20</title>
<g id="a_node20"><a xlink:href="../../d4/dd8/_vector_node_impl_8h.html" target="_top" xlink:title=" ">
<polygon fill="white" stroke="#666666" points="297.5,-349 202.5,-349 202.5,-330 297.5,-330 297.5,-349"/>
<text text-anchor="middle" x="250" y="-337" font-family="Helvetica,sans-Serif" font-size="10.00">VectorNodeImpl.h</text>
</a>
</g>
</g>
<!-- Node1&#45;&gt;Node20 -->
<g id="edge26" class="edge">
<title>Node1&#45;&gt;Node20</title>
<path fill="none" stroke="#63b8ff" d="M315.6,-384.51C303.84,-376.62 286.49,-364.98 272.59,-355.65"/>
<polygon fill="#63b8ff" stroke="#63b8ff" points="274.71,-352.87 264.46,-350.2 270.81,-358.68 274.71,-352.87"/>
</g>
<!-- Node3 -->
<g id="node3" class="node">
<title>Node3</title>
<g id="a_node3"><a xlink:href="../../db/d1f/_common_8h.html" target="_top" xlink:title=" ">
<polygon fill="white" stroke="#666666" points="219.5,-184 154.5,-184 154.5,-165 219.5,-165 219.5,-184"/>
<text text-anchor="middle" x="187" y="-172" font-family="Helvetica,sans-Serif" font-size="10.00">Common.h</text>
</a>
</g>
</g>
<!-- Node2&#45;&gt;Node3 -->
<g id="edge2" class="edge">
<title>Node2&#45;&gt;Node3</title>
<path fill="none" stroke="#63b8ff" d="M236.82,-219.51C228.24,-211.93 215.73,-200.88 205.4,-191.75"/>
<polygon fill="#63b8ff" stroke="#63b8ff" points="207.97,-189.36 198.16,-185.36 203.34,-194.6 207.97,-189.36"/>
</g>
<!-- Node4 -->
<g id="node4" class="node">
<title>Node4</title>
<g id="a_node4"><a xlink:title=" ">
<polygon fill="#e0e0e0" stroke="#999999" points="94,-129 64,-129 64,-110 94,-110 94,-129"/>
<text text-anchor="middle" x="79" y="-117" font-family="Helvetica,sans-Serif" font-size="10.00">set</text>
</a>
</g>
</g>
<!-- Node3&#45;&gt;Node4 -->
<g id="edge3" class="edge">
<title>Node3&#45;&gt;Node4</title>
<path fill="none" stroke="#63b8ff" d="M168.68,-164.51C151.01,-155.84 124.11,-142.64 104.38,-132.96"/>
<polygon fill="#63b8ff" stroke="#63b8ff" points="106.14,-129.92 95.62,-128.66 103.06,-136.2 106.14,-129.92"/>
</g>
<!-- Node5 -->
<g id="node5" class="node">
<title>Node5</title>
<g id="a_node5"><a xlink:title=" ">
<polygon fill="#e0e0e0" stroke="#999999" points="320.5,-19 279.5,-19 279.5,0 320.5,0 320.5,-19"/>
<text text-anchor="middle" x="300" y="-7" font-family="Helvetica,sans-Serif" font-size="10.00">string</text>
</a>
</g>
</g>
<!-- Node3&#45;&gt;Node5 -->
<g id="edge4" class="edge">
<title>Node3&#45;&gt;Node5</title>
<path fill="none" stroke="#63b8ff" d="M198.49,-164.7C218.41,-148.82 259.3,-113.33 281,-74 288.58,-60.26 293.48,-43.13 296.4,-30.13"/>
<polygon fill="#63b8ff" stroke="#63b8ff" points="299.76,-31.15 298.32,-20.65 292.9,-29.76 299.76,-31.15"/>
</g>
<!-- Node6 -->
<g id="node6" class="node">
<title>Node6</title>
<g id="a_node6"><a xlink:title=" ">
<polygon fill="#e0e0e0" stroke="#999999" points="44,-74 0,-74 0,-55 44,-55 44,-74"/>
<text text-anchor="middle" x="22" y="-62" font-family="Helvetica,sans-Serif" font-size="10.00">vector</text>
</a>
</g>
</g>
<!-- Node3&#45;&gt;Node6 -->
<g id="edge5" class="edge">
<title>Node3&#45;&gt;Node6</title>
<path fill="none" stroke="#63b8ff" d="M176.23,-164.55C160.59,-151.75 130.46,-127.79 103,-110 85.77,-98.84 65.52,-87.71 49.58,-79.38"/>
<polygon fill="#63b8ff" stroke="#63b8ff" points="51.64,-76.51 41.15,-75.03 48.43,-82.73 51.64,-76.51"/>
</g>
<!-- Node7 -->
<g id="node7" class="node">
<title>Node7</title>
<g id="a_node7"><a xlink:href="../../d1/df2/_e57_format_8h.html" target="_top" xlink:title="Header file for the E57 API.">
<polygon fill="white" stroke="#666666" points="223.5,-129 150.5,-129 150.5,-110 223.5,-110 223.5,-129"/>
<text text-anchor="middle" x="187" y="-117" font-family="Helvetica,sans-Serif" font-size="10.00">E57Format.h</text>
</a>
</g>
</g>
<!-- Node3&#45;&gt;Node7 -->
<g id="edge6" class="edge">
<title>Node3&#45;&gt;Node7</title>
<path fill="none" stroke="#63b8ff" d="M187,-164.75C187,-158.27 187,-149.16 187,-140.9"/>
<polygon fill="#63b8ff" stroke="#63b8ff" points="190.5,-140.96 187,-130.96 183.5,-140.96 190.5,-140.96"/>
</g>
<!-- Node7&#45;&gt;Node6 -->
<g id="edge10" class="edge">
<title>Node7&#45;&gt;Node6</title>
<path fill="none" stroke="#63b8ff" d="M159.01,-109.51C130.31,-100.29 85.69,-85.96 55.22,-76.17"/>
<polygon fill="#63b8ff" stroke="#63b8ff" points="56.33,-72.85 45.74,-73.12 54.19,-79.52 56.33,-72.85"/>
</g>
<!-- Node8 -->
<g id="node8" class="node">
<title>Node8</title>
<g id="a_node8"><a xlink:title=" ">
<polygon fill="#e0e0e0" stroke="#999999" points="271.5,-74 230.5,-74 230.5,-55 271.5,-55 271.5,-74"/>
<text text-anchor="middle" x="251" y="-62" font-family="Helvetica,sans-Serif" font-size="10.00">cfloat</text>
</a>
</g>
</g>
<!-- Node7&#45;&gt;Node8 -->
<g id="edge7" class="edge">
<title>Node7&#45;&gt;Node8</title>
<path fill="none" stroke="#63b8ff" d="M197.86,-109.51C207.11,-101.85 220.62,-90.66 231.71,-81.47"/>
<polygon fill="#63b8ff" stroke="#63b8ff" points="233.67,-84.4 239.14,-75.32 229.2,-79.01 233.67,-84.4"/>
</g>
<!-- Node9 -->
<g id="node9" class="node">
<title>Node9</title>
<g id="a_node9"><a xlink:title=" ">
<polygon fill="#e0e0e0" stroke="#999999" points="108,-74 62,-74 62,-55 108,-55 108,-74"/>
<text text-anchor="middle" x="85" y="-62" font-family="Helvetica,sans-Serif" font-size="10.00">cstdint</text>
</a>
</g>
</g>
<!-- Node7&#45;&gt;Node9 -->
<g id="edge8" class="edge">
<title>Node7&#45;&gt;Node9</title>
<path fill="none" stroke="#63b8ff" d="M169.7,-109.51C153.92,-101.31 130.36,-89.07 112.09,-79.58"/>
<polygon fill="#63b8ff" stroke="#63b8ff" points="113.88,-76.56 103.39,-75.06 110.65,-82.77 113.88,-76.56"/>
</g>
<!-- Node10 -->
<g id="node10" class="node">
<title>Node10</title>
<g id="a_node10"><a xlink:title=" ">
<polygon fill="#e0e0e0" stroke="#999999" points="380,-74 328,-74 328,-55 380,-55 380,-74"/>
<text text-anchor="middle" x="354" y="-62" font-family="Helvetica,sans-Serif" font-size="10.00">memory</text>
</a>
</g>
</g>
<!-- Node7&#45;&gt;Node10 -->
<g id="edge9" class="edge">
<title>Node7&#45;&gt;Node10</title>
<path fill="none" stroke="#63b8ff" d="M215.33,-109.51C243.34,-100.62 286.35,-86.97 317.04,-77.23"/>
<polygon fill="#63b8ff" stroke="#63b8ff" points="317.82,-80.65 326.29,-74.29 315.7,-73.98 317.82,-80.65"/>
</g>
<!-- Node11 -->
<g id="node11" class="node">
<title>Node11</title>
<g id="a_node11"><a xlink:href="../../d4/d6e/_e57_exception_8h.html" target="_top" xlink:title="Exception handling for E57 API.">
<polygon fill="white" stroke="#666666" points="212,-74 126,-74 126,-55 212,-55 212,-74"/>
<text text-anchor="middle" x="169" y="-62" font-family="Helvetica,sans-Serif" font-size="10.00">E57Exception.h</text>
</a>
</g>
</g>
<!-- Node7&#45;&gt;Node11 -->
<g id="edge11" class="edge">
<title>Node7&#45;&gt;Node11</title>
<path fill="none" stroke="#63b8ff" d="M184.03,-109.75C181.77,-103.11 178.59,-93.73 175.73,-85.31"/>
<polygon fill="#63b8ff" stroke="#63b8ff" points="179.05,-84.22 172.52,-75.88 172.43,-86.47 179.05,-84.22"/>
</g>
<!-- Node11&#45;&gt;Node5 -->
<g id="edge14" class="edge">
<title>Node11&#45;&gt;Node5</title>
<path fill="none" stroke="#63b8ff" d="M191.22,-54.51C212.52,-45.89 244.87,-32.8 268.76,-23.14"/>
<polygon fill="#63b8ff" stroke="#63b8ff" points="270.04,-26.4 278,-19.4 267.41,-19.91 270.04,-26.4"/>
</g>
<!-- Node12 -->
<g id="node12" class="node">
<title>Node12</title>
<g id="a_node12"><a xlink:title=" ">
<polygon fill="#e0e0e0" stroke="#999999" points="229.5,-19 170.5,-19 170.5,0 229.5,0 229.5,-19"/>
<text text-anchor="middle" x="200" y="-7" font-family="Helvetica,sans-Serif" font-size="10.00">exception</text>
</a>
</g>
</g>
<!-- Node11&#45;&gt;Node12 -->
<g id="edge12" class="edge">
<title>Node11&#45;&gt;Node12</title>
<path fill="none" stroke="#63b8ff" d="M174.12,-54.75C178.18,-47.81 183.99,-37.86 189.09,-29.16"/>
<polygon fill="#63b8ff" stroke="#63b8ff" points="191.98,-31.15 194.01,-20.75 185.94,-27.61 191.98,-31.15"/>
</g>
<!-- Node13 -->
<g id="node13" class="node">
<title>Node13</title>
<g id="a_node13"><a xlink:title=" ">
<polygon fill="#e0e0e0" stroke="#999999" points="397,-19 343,-19 343,0 397,0 397,-19"/>
<text text-anchor="middle" x="370" y="-7" font-family="Helvetica,sans-Serif" font-size="10.00">iostream</text>
</a>
</g>
</g>
<!-- Node11&#45;&gt;Node13 -->
<g id="edge13" class="edge">
<title>Node11&#45;&gt;Node13</title>
<path fill="none" stroke="#63b8ff" d="M203.1,-54.51C238.72,-45.11 294.51,-30.41 331.65,-20.61"/>
<polygon fill="#63b8ff" stroke="#63b8ff" points="332.29,-24.06 341.07,-18.13 330.51,-17.29 332.29,-24.06"/>
</g>
<!-- Node14 -->
<g id="node14" class="node">
<title>Node14</title>
<g id="a_node14"><a xlink:title=" ">
<polygon fill="#e0e0e0" stroke="#999999" points="152.5,-19 81.5,-19 81.5,0 152.5,0 152.5,-19"/>
<text text-anchor="middle" x="117" y="-7" font-family="Helvetica,sans-Serif" font-size="10.00">E57Export.h</text>
</a>
</g>
</g>
<!-- Node11&#45;&gt;Node14 -->
<g id="edge15" class="edge">
<title>Node11&#45;&gt;Node14</title>
<path fill="none" stroke="#63b8ff" d="M160.41,-54.75C153.16,-47.35 142.55,-36.54 133.63,-27.45"/>
<polygon fill="#63b8ff" stroke="#63b8ff" points="136.34,-25.21 126.83,-20.52 131.34,-30.11 136.34,-25.21"/>
</g>
<!-- Node15&#45;&gt;Node3 -->
<g id="edge18" class="edge">
<title>Node15&#45;&gt;Node3</title>
<path fill="none" stroke="#63b8ff" d="M325.67,-219.51C298.24,-210.8 256.42,-197.53 225.88,-187.84"/>
<polygon fill="#63b8ff" stroke="#63b8ff" points="227.22,-184.59 216.63,-184.9 225.1,-191.27 227.22,-184.59"/>
</g>
<!-- Node15&#45;&gt;Node10 -->
<g id="edge17" class="edge">
<title>Node15&#45;&gt;Node10</title>
<path fill="none" stroke="#63b8ff" d="M354,-219.74C354,-194.53 354,-121.36 354,-85.62"/>
<polygon fill="#63b8ff" stroke="#63b8ff" points="357.5,-85.82 354,-75.82 350.5,-85.82 357.5,-85.82"/>
</g>
<!-- Node16&#45;&gt;Node3 -->
<g id="edge20" class="edge">
<title>Node16&#45;&gt;Node3</title>
<path fill="none" stroke="#63b8ff" d="M119.97,-274.66C131.84,-257.1 158.62,-217.48 174.51,-193.98"/>
<polygon fill="#63b8ff" stroke="#63b8ff" points="177.4,-195.96 180.1,-185.71 171.6,-192.04 177.4,-195.96"/>
</g>
<!-- Node17&#45;&gt;Node5 -->
<g id="edge25" class="edge">
<title>Node17&#45;&gt;Node5</title>
<path fill="none" stroke="#63b8ff" d="M420.4,-54.51C395.94,-45.57 358.31,-31.81 331.64,-22.06"/>
<polygon fill="#63b8ff" stroke="#63b8ff" points="332.96,-18.82 322.37,-18.68 330.56,-25.4 332.96,-18.82"/>
</g>
<!-- Node17&#45;&gt;Node13 -->
<g id="edge23" class="edge">
<title>Node17&#45;&gt;Node13</title>
<path fill="none" stroke="#63b8ff" d="M432.28,-54.51C421.22,-46.7 404.96,-35.21 391.83,-25.93"/>
<polygon fill="#63b8ff" stroke="#63b8ff" points="393.96,-23.14 383.77,-20.23 389.92,-28.86 393.96,-23.14"/>
</g>
<!-- Node18 -->
<g id="node18" class="node">
<title>Node18</title>
<g id="a_node18"><a xlink:title=" ">
<polygon fill="#e0e0e0" stroke="#999999" points="467,-19 417,-19 417,0 467,0 467,-19"/>
<text text-anchor="middle" x="442" y="-7" font-family="Helvetica,sans-Serif" font-size="10.00">iomanip</text>
</a>
</g>
</g>
<!-- Node17&#45;&gt;Node18 -->
<g id="edge22" class="edge">
<title>Node17&#45;&gt;Node18</title>
<path fill="none" stroke="#63b8ff" d="M444.5,-54.75C444.14,-48.27 443.62,-39.16 443.15,-30.9"/>
<polygon fill="#63b8ff" stroke="#63b8ff" points="446.65,-30.74 442.59,-20.95 439.66,-31.13 446.65,-30.74"/>
</g>
<!-- Node19 -->
<g id="node19" class="node">
<title>Node19</title>
<g id="a_node19"><a xlink:title=" ">
<polygon fill="#e0e0e0" stroke="#999999" points="537,-19 485,-19 485,0 537,0 537,-19"/>
<text text-anchor="middle" x="511" y="-7" font-family="Helvetica,sans-Serif" font-size="10.00">sstream</text>
</a>
</g>
</g>
<!-- Node17&#45;&gt;Node19 -->
<g id="edge24" class="edge">
<title>Node17&#45;&gt;Node19</title>
<path fill="none" stroke="#63b8ff" d="M456.2,-54.51C465.74,-46.85 479.67,-35.66 491.11,-26.47"/>
<polygon fill="#63b8ff" stroke="#63b8ff" points="493.18,-29.3 498.79,-20.31 488.8,-23.84 493.18,-29.3"/>
</g>
<!-- Node21 -->
<g id="node21" class="node">
<title>Node21</title>
<g id="a_node21"><a xlink:href="../../d4/dd2/_structure_node_impl_8h.html" target="_top" xlink:title=" ">
<polygon fill="white" stroke="#666666" points="300.5,-294 193.5,-294 193.5,-275 300.5,-275 300.5,-294"/>
<text text-anchor="middle" x="247" y="-282" font-family="Helvetica,sans-Serif" font-size="10.00">StructureNodeImpl.h</text>
</a>
</g>
</g>
<!-- Node20&#45;&gt;Node21 -->
<g id="edge27" class="edge">
<title>Node20&#45;&gt;Node21</title>
<path fill="none" stroke="#63b8ff" d="M249.5,-329.75C249.14,-323.27 248.62,-314.16 248.15,-305.9"/>
<polygon fill="#63b8ff" stroke="#63b8ff" points="251.65,-305.74 247.59,-295.95 244.66,-306.13 251.65,-305.74"/>
</g>
<!-- Node21&#45;&gt;Node2 -->
<g id="edge28" class="edge">
<title>Node21&#45;&gt;Node2</title>
<path fill="none" stroke="#63b8ff" d="M247,-274.75C247,-268.27 247,-259.16 247,-250.9"/>
<polygon fill="#63b8ff" stroke="#63b8ff" points="250.5,-250.96 247,-240.96 243.5,-250.96 250.5,-250.96"/>
</g>
</g>
</svg>
