<?xml version="1.0" encoding="UTF-8" standalone="no"?>
<!DOCTYPE svg PUBLIC "-//W3C//DTD SVG 1.1//EN"
 "http://www.w3.org/Graphics/SVG/1.1/DTD/svg11.dtd">
<!-- Generated by graphviz version 9.0.0 (20230911.1827)
 -->
<!-- Title: ScaledIntegerNode.cpp Pages: 1 -->
<svg width="244pt" height="83pt"
 viewBox="0.00 0.00 244.38 82.50" xmlns="http://www.w3.org/2000/svg" xmlns:xlink="http://www.w3.org/1999/xlink">
<g id="graph0" class="graph" transform="scale(1 1) rotate(0) translate(4 78.5)">
<title>ScaledIntegerNode.cpp</title>
<!-- Node1 -->
<g id="node1" class="node">
<title>Node1</title>
<g id="a_node1"><a xlink:title=" ">
<polygon fill="#999999" stroke="#666666" points="185.12,-74.5 67.12,-74.5 67.12,-55.25 185.12,-55.25 185.12,-74.5"/>
<text text-anchor="middle" x="126.12" y="-61" font-family="Helvetica,sans-Serif" font-size="10.00">ScaledIntegerNode.cpp</text>
</a>
</g>
</g>
<!-- Node2 -->
<g id="node2" class="node">
<title>Node2</title>
<g id="a_node2"><a xlink:title=" ">
<polygon fill="#e0e0e0" stroke="#999999" points="126.25,-19.25 0,-19.25 0,0 126.25,0 126.25,-19.25"/>
<text text-anchor="middle" x="63.12" y="-5.75" font-family="Helvetica,sans-Serif" font-size="10.00">ScaledIntegerNodeImpl.h</text>
</a>
</g>
</g>
<!-- Node1&#45;&gt;Node2 -->
<g id="edge1" class="edge">
<title>Node1&#45;&gt;Node2</title>
<path fill="none" stroke="#63b8ff" d="M115.44,-54.84C106.42,-47.22 93.29,-36.12 82.44,-26.95"/>
<polygon fill="#63b8ff" stroke="#63b8ff" points="84.71,-24.28 74.81,-20.5 80.19,-29.63 84.71,-24.28"/>
</g>
<!-- Node3 -->
<g id="node3" class="node">
<title>Node3</title>
<g id="a_node3"><a xlink:title=" ">
<polygon fill="#e0e0e0" stroke="#999999" points="236.38,-19.25 143.88,-19.25 143.88,0 236.38,0 236.38,-19.25"/>
<text text-anchor="middle" x="190.12" y="-5.75" font-family="Helvetica,sans-Serif" font-size="10.00">StringFunctions.h</text>
</a>
</g>
</g>
<!-- Node1&#45;&gt;Node3 -->
<g id="edge2" class="edge">
<title>Node1&#45;&gt;Node3</title>
<path fill="none" stroke="#63b8ff" d="M136.98,-54.84C146.23,-47.15 159.75,-35.9 170.83,-26.68"/>
<polygon fill="#63b8ff" stroke="#63b8ff" points="172.82,-29.58 178.27,-20.49 168.34,-24.2 172.82,-29.58"/>
</g>
</g>
</svg>
