<?xml version="1.0" encoding="UTF-8" standalone="no"?>
<!DOCTYPE svg PUBLIC "-//W3C//DTD SVG 1.1//EN"
 "http://www.w3.org/Graphics/SVG/1.1/DTD/svg11.dtd">
<!-- Generated by graphviz version 8.1.0 (20230707.0739)
 -->
<!-- Title: ScaledIntegerNode.cpp Pages: 1 -->
<svg width="244pt" height="83pt"
 viewBox="0.00 0.00 244.38 82.50" xmlns="http://www.w3.org/2000/svg" xmlns:xlink="http://www.w3.org/1999/xlink">
<g id="graph0" class="graph" transform="scale(1 1) rotate(0) translate(4 78.5)">
<title>ScaledIntegerNode.cpp</title>
<!-- Node1 -->
<g id="node1" class="node">
<title>Node1</title>
<g id="a_node1"><a xlink:title=" ">
<polygon fill="#999999" stroke="#666666" points="185.12,-74.5 67.12,-74.5 67.12,-55.25 185.12,-55.25 185.12,-74.5"/>
<text text-anchor="middle" x="126.12" y="-61" font-family="Helvetica,sans-Serif" font-size="10.00">ScaledIntegerNode.cpp</text>
</a>
</g>
</g>
<!-- Node2 -->
<g id="node2" class="node">
<title>Node2</title>
<g id="a_node2"><a xlink:title=" ">
<polygon fill="#e0e0e0" stroke="#999999" points="126.25,-19.25 0,-19.25 0,0 126.25,0 126.25,-19.25"/>
<text text-anchor="middle" x="63.12" y="-5.75" font-family="Helvetica,sans-Serif" font-size="10.00">ScaledIntegerNodeImpl.h</text>
</a>
</g>
</g>
<!-- Node1&#45;&gt;Node2 -->
<g id="edge1" class="edge">
<title>Node1&#45;&gt;Node2</title>
<path fill="none" stroke="#63b8ff" d="M115.44,-54.84C106.24,-47.07 92.76,-35.67 81.79,-26.4"/>
<polygon fill="#63b8ff" stroke="#63b8ff" points="84.55,-23.31 74.65,-19.52 80.03,-28.65 84.55,-23.31"/>
</g>
<!-- Node3 -->
<g id="node3" class="node">
<title>Node3</title>
<g id="a_node3"><a xlink:title=" ">
<polygon fill="#e0e0e0" stroke="#999999" points="236.38,-19.25 143.88,-19.25 143.88,0 236.38,0 236.38,-19.25"/>
<text text-anchor="middle" x="190.12" y="-5.75" font-family="Helvetica,sans-Serif" font-size="10.00">StringFunctions.h</text>
</a>
</g>
</g>
<!-- Node1&#45;&gt;Node3 -->
<g id="edge2" class="edge">
<title>Node1&#45;&gt;Node3</title>
<path fill="none" stroke="#63b8ff" d="M136.98,-54.84C146.32,-47.07 160.02,-35.67 171.17,-26.4"/>
<polygon fill="#63b8ff" stroke="#63b8ff" points="172.98,-28.61 178.43,-19.52 168.5,-23.23 172.98,-28.61"/>
</g>
</g>
</svg>
