<svg height="11" viewBox="0 0 11 11" width="11" xmlns="http://www.w3.org/2000/svg"><path d="m5.5.5a5 5 0 0 0 -5 5 5 5 0 0 0 5 5 5 5 0 0 0 5-5 5 5 0 0 0 -5-5zm-1.9179688 2.5a.58291923.58291923 0 0 1 .4179688.1757812l1.5 1.5 1.5-1.5a.58291923.58291923 0 0 1 .4003906-.1757812.58291923.58291923 0 0 1 .4238282 1l-1.5 1.5 1.5 1.5a.58291923.58291923 0 1 1 -.8242188.8242188l-1.5-1.5-1.5 1.5a.58291923.58291923 0 1 1 -.8242188-.8242188l1.5-1.5-1.5-1.5a.58291923.58291923 0 0 1 .40625-1z" fill="#bababa" stroke-width="1.098706"/></svg>