<?xml version="1.0" encoding="UTF-8" standalone="no"?>
<!DOCTYPE svg PUBLIC "-//W3C//DTD SVG 1.1//EN"
 "http://www.w3.org/Graphics/SVG/1.1/DTD/svg11.dtd">
<!-- Generated by graphviz version 7.0.0 (20221023.0053)
 -->
<!-- Title: e57::VectorNodeImpl Pages: 1 -->
<svg width="130pt" height="203pt"
 viewBox="0.00 0.00 130.00 203.00" xmlns="http://www.w3.org/2000/svg" xmlns:xlink="http://www.w3.org/1999/xlink">
<g id="graph0" class="graph" transform="scale(1 1) rotate(0) translate(4 199)">
<title>e57::VectorNodeImpl</title>
<!-- Node1 -->
<g id="node1" class="node">
<title>Node1</title>
<g id="a_node1"><a xlink:title=" ">
<polygon fill="#999999" stroke="#666666" points="115.5,-19 6.5,-19 6.5,0 115.5,0 115.5,-19"/>
<text text-anchor="middle" x="61" y="-7" font-family="Helvetica,sans-Serif" font-size="10.00">e57::VectorNodeImpl</text>
</a>
</g>
</g>
<!-- Node2 -->
<g id="node2" class="node">
<title>Node2</title>
<g id="a_node2"><a xlink:href="../../d3/dfc/classe57_1_1_structure_node_impl.html" target="_top" xlink:title=" ">
<polygon fill="white" stroke="#666666" points="121,-74 1,-74 1,-55 121,-55 121,-74"/>
<text text-anchor="middle" x="61" y="-62" font-family="Helvetica,sans-Serif" font-size="10.00">e57::StructureNodeImpl</text>
</a>
</g>
</g>
<!-- Node2&#45;&gt;Node1 -->
<g id="edge1" class="edge">
<title>Node2&#45;&gt;Node1</title>
<path fill="none" stroke="#63b8ff" d="M61,-43.35C61,-35.1 61,-25.97 61,-19.44"/>
<polygon fill="#63b8ff" stroke="#63b8ff" points="57.5,-43.23 61,-53.23 64.5,-43.23 57.5,-43.23"/>
</g>
<!-- Node3 -->
<g id="node3" class="node">
<title>Node3</title>
<g id="a_node3"><a xlink:href="../../dc/d60/classe57_1_1_node_impl.html" target="_top" xlink:title=" ">
<polygon fill="white" stroke="#666666" points="101,-129 21,-129 21,-110 101,-110 101,-129"/>
<text text-anchor="middle" x="61" y="-117" font-family="Helvetica,sans-Serif" font-size="10.00">e57::NodeImpl</text>
</a>
</g>
</g>
<!-- Node3&#45;&gt;Node2 -->
<g id="edge2" class="edge">
<title>Node3&#45;&gt;Node2</title>
<path fill="none" stroke="#63b8ff" d="M61,-98.35C61,-90.1 61,-80.97 61,-74.44"/>
<polygon fill="#63b8ff" stroke="#63b8ff" points="57.5,-98.23 61,-108.23 64.5,-98.23 57.5,-98.23"/>
</g>
<!-- Node4 -->
<g id="node4" class="node">
<title>Node4</title>
<g id="a_node4"><a xlink:title=" ">
<polygon fill="white" stroke="#666666" points="122,-195 0,-195 0,-165 122,-165 122,-195"/>
<text text-anchor="start" x="8" y="-183" font-family="Helvetica,sans-Serif" font-size="10.00">std::enable_shared</text>
<text text-anchor="middle" x="61" y="-172" font-family="Helvetica,sans-Serif" font-size="10.00">_from_this&lt; NodeImpl &gt;</text>
</a>
</g>
</g>
<!-- Node4&#45;&gt;Node3 -->
<g id="edge3" class="edge">
<title>Node4&#45;&gt;Node3</title>
<path fill="none" stroke="#63b8ff" d="M61,-153.3C61,-144.65 61,-135.58 61,-129.18"/>
<polygon fill="#63b8ff" stroke="#63b8ff" points="57.5,-153.03 61,-163.03 64.5,-153.03 57.5,-153.03"/>
</g>
</g>
</svg>
