<?xml version="1.0" encoding="UTF-8" standalone="no"?>
<!DOCTYPE svg PUBLIC "-//W3C//DTD SVG 1.1//EN"
 "http://www.w3.org/Graphics/SVG/1.1/DTD/svg11.dtd">
<!-- Generated by graphviz version 7.0.0 (20221023.0053)
 -->
<!-- Title: Packet.cpp Pages: 1 -->
<!--zoomable 302 -->
<svg id="main" version="1.1" xmlns="http://www.w3.org/2000/svg" xmlns:xlink="http://www.w3.org/1999/xlink" xml:space="preserve" onload="init(evt)">
<style type="text/css"><![CDATA[
.edge:hover path { stroke: red; }
.edge:hover polygon { stroke: red; fill: red; }
]]></style>
<script type="text/javascript"><![CDATA[
var edges = document.getElementsByTagName('g');
if (edges && edges.length) {
  for (var i=0;i<edges.length;i++) {
    if (edges[i].id.substr(0,4)=='edge') {
      edges[i].setAttribute('class','edge');
    }
  }
}
]]></script>
        <defs>
                <circle id="rim" cx="0" cy="0" r="7"/>
                <circle id="rim2" cx="0" cy="0" r="3.5"/>
                <g id="zoomPlus">
                        <use xlink:href="#rim" fill="#404040">
                                <set attributeName="fill" to="#808080" begin="zoomplus.mouseover" end="zoomplus.mouseout"/>
                        </use>
                        <path d="M-4,0h8M0,-4v8" fill="none" stroke="white" stroke-width="1.5" pointer-events="none"/>
                </g>
                <g id="zoomMin">
                        <use xlink:href="#rim" fill="#404040">
                                <set attributeName="fill" to="#808080" begin="zoomminus.mouseover" end="zoomminus.mouseout"/>
                        </use>
                        <path d="M-4,0h8" fill="none" stroke="white" stroke-width="1.5" pointer-events="none"/>
                </g>
                <g id="dirArrow">
                        <path fill="none" stroke="white" stroke-width="1.5" d="M0,-3.0v7 M-2.5,-0.5L0,-3.0L2.5,-0.5"/>
                </g>
               <g id="resetDef">
                       <use xlink:href="#rim2" fill="#404040">
                               <set attributeName="fill" to="#808080" begin="reset.mouseover" end="reset.mouseout"/>
                       </use>
               </g>
        </defs>

<script type="text/javascript">
var viewWidth = 542;
var viewHeight = 302;
var sectionId = 'dynsection-0';
</script>
<script xlink:href="../../svgpan.js"/>
<svg id="graph" class="graph">
<g id="viewport">
<title>Packet.cpp</title>
<!-- Node1 -->
<g id="node1" class="node">
<title>Node1</title>
<g id="a_node1"><a xlink:title=" ">
<polygon fill="#999999" stroke="#666666" points="158,-294 92,-294 92,-275 158,-275 158,-294"/>
<text text-anchor="middle" x="125" y="-282" font-family="Helvetica,sans-Serif" font-size="10.00">Packet.cpp</text>
</a>
</g>
</g>
<!-- Node2 -->
<g id="node2" class="node">
<title>Node2</title>
<g id="a_node2"><a xlink:title=" ">
<polygon fill="#e0e0e0" stroke="#999999" points="63,-239 17,-239 17,-220 63,-220 63,-239"/>
<text text-anchor="middle" x="40" y="-227" font-family="Helvetica,sans-Serif" font-size="10.00">cstring</text>
</a>
</g>
</g>
<!-- Node1&#45;&gt;Node2 -->
<g id="edge1" class="edge">
<title>Node1&#45;&gt;Node2</title>
<path fill="none" stroke="#63b8ff" d="M110.58,-274.51C97.8,-266.54 78.9,-254.75 63.87,-245.38"/>
<polygon fill="#63b8ff" stroke="#63b8ff" points="65.83,-242.48 55.49,-240.16 62.12,-248.42 65.83,-242.48"/>
</g>
<!-- Node3 -->
<g id="node3" class="node">
<title>Node3</title>
<g id="a_node3"><a xlink:href="../../dd/d41/_checked_file_8h.html" target="_top" xlink:title=" ">
<polygon fill="white" stroke="#666666" points="199,-239 119,-239 119,-220 199,-220 199,-239"/>
<text text-anchor="middle" x="159" y="-227" font-family="Helvetica,sans-Serif" font-size="10.00">CheckedFile.h</text>
</a>
</g>
</g>
<!-- Node1&#45;&gt;Node3 -->
<g id="edge2" class="edge">
<title>Node1&#45;&gt;Node3</title>
<path fill="none" stroke="#63b8ff" d="M130.61,-274.75C135.12,-267.73 141.59,-257.64 147.21,-248.87"/>
<polygon fill="#63b8ff" stroke="#63b8ff" points="149.99,-251.02 152.45,-240.72 144.1,-247.24 149.99,-251.02"/>
</g>
<!-- Node17 -->
<g id="node17" class="node">
<title>Node17</title>
<g id="a_node17"><a xlink:href="../../d7/dbe/_packet_8h.html" target="_top" xlink:title=" ">
<polygon fill="white" stroke="#666666" points="294,-239 238,-239 238,-220 294,-220 294,-239"/>
<text text-anchor="middle" x="266" y="-227" font-family="Helvetica,sans-Serif" font-size="10.00">Packet.h</text>
</a>
</g>
</g>
<!-- Node1&#45;&gt;Node17 -->
<g id="edge18" class="edge">
<title>Node1&#45;&gt;Node17</title>
<path fill="none" stroke="#63b8ff" d="M148.92,-274.51C171.64,-265.97 206.05,-253.03 231.69,-243.4"/>
<polygon fill="#63b8ff" stroke="#63b8ff" points="232.89,-246.69 241.02,-239.89 230.43,-240.13 232.89,-246.69"/>
</g>
<!-- Node18 -->
<g id="node18" class="node">
<title>Node18</title>
<g id="a_node18"><a xlink:href="../../db/d42/_string_functions_8h.html" target="_top" xlink:title=" ">
<polygon fill="white" stroke="#666666" points="135.5,-74 42.5,-74 42.5,-55 135.5,-55 135.5,-74"/>
<text text-anchor="middle" x="89" y="-62" font-family="Helvetica,sans-Serif" font-size="10.00">StringFunctions.h</text>
</a>
</g>
</g>
<!-- Node1&#45;&gt;Node18 -->
<g id="edge22" class="edge">
<title>Node1&#45;&gt;Node18</title>
<path fill="none" stroke="#63b8ff" d="M121.47,-274.79C118.02,-265.92 112.88,-251.72 110,-239 97.63,-184.38 92.18,-118.33 90.1,-85.73"/>
<polygon fill="#63b8ff" stroke="#63b8ff" points="93.6,-85.56 89.52,-75.78 86.61,-85.97 93.6,-85.56"/>
</g>
<!-- Node4 -->
<g id="node4" class="node">
<title>Node4</title>
<g id="a_node4"><a xlink:title=" ">
<polygon fill="#e0e0e0" stroke="#999999" points="176,-184 120,-184 120,-165 176,-165 176,-184"/>
<text text-anchor="middle" x="148" y="-172" font-family="Helvetica,sans-Serif" font-size="10.00">algorithm</text>
</a>
</g>
</g>
<!-- Node3&#45;&gt;Node4 -->
<g id="edge3" class="edge">
<title>Node3&#45;&gt;Node4</title>
<path fill="none" stroke="#63b8ff" d="M157.18,-219.75C155.82,-213.19 153.9,-203.95 152.17,-195.6"/>
<polygon fill="#63b8ff" stroke="#63b8ff" points="155.62,-195 150.16,-185.92 148.77,-196.43 155.62,-195"/>
</g>
<!-- Node5 -->
<g id="node5" class="node">
<title>Node5</title>
<g id="a_node5"><a xlink:href="../../db/d1f/_common_8h.html" target="_top" xlink:title=" ">
<polygon fill="white" stroke="#666666" points="259.5,-184 194.5,-184 194.5,-165 259.5,-165 259.5,-184"/>
<text text-anchor="middle" x="227" y="-172" font-family="Helvetica,sans-Serif" font-size="10.00">Common.h</text>
</a>
</g>
</g>
<!-- Node3&#45;&gt;Node5 -->
<g id="edge4" class="edge">
<title>Node3&#45;&gt;Node5</title>
<path fill="none" stroke="#63b8ff" d="M170.54,-219.51C180.46,-211.77 195.01,-200.43 206.86,-191.2"/>
<polygon fill="#63b8ff" stroke="#63b8ff" points="208.71,-194.2 214.44,-185.29 204.4,-188.68 208.71,-194.2"/>
</g>
<!-- Node6 -->
<g id="node6" class="node">
<title>Node6</title>
<g id="a_node6"><a xlink:title=" ">
<polygon fill="#e0e0e0" stroke="#999999" points="260,-129 230,-129 230,-110 260,-110 260,-129"/>
<text text-anchor="middle" x="245" y="-117" font-family="Helvetica,sans-Serif" font-size="10.00">set</text>
</a>
</g>
</g>
<!-- Node5&#45;&gt;Node6 -->
<g id="edge5" class="edge">
<title>Node5&#45;&gt;Node6</title>
<path fill="none" stroke="#63b8ff" d="M229.97,-164.75C232.23,-158.11 235.41,-148.73 238.27,-140.31"/>
<polygon fill="#63b8ff" stroke="#63b8ff" points="241.57,-141.47 241.48,-130.88 234.95,-139.22 241.57,-141.47"/>
</g>
<!-- Node7 -->
<g id="node7" class="node">
<title>Node7</title>
<g id="a_node7"><a xlink:title=" ">
<polygon fill="#e0e0e0" stroke="#999999" points="184.5,-19 143.5,-19 143.5,0 184.5,0 184.5,-19"/>
<text text-anchor="middle" x="164" y="-7" font-family="Helvetica,sans-Serif" font-size="10.00">string</text>
</a>
</g>
</g>
<!-- Node5&#45;&gt;Node7 -->
<g id="edge6" class="edge">
<title>Node5&#45;&gt;Node7</title>
<path fill="none" stroke="#63b8ff" d="M222.61,-164.6C214.22,-147.39 195.62,-108.2 183,-74 177.68,-59.59 172.74,-42.94 169.23,-30.3"/>
<polygon fill="#63b8ff" stroke="#63b8ff" points="172.63,-29.44 166.64,-20.7 165.87,-31.27 172.63,-29.44"/>
</g>
<!-- Node8 -->
<g id="node8" class="node">
<title>Node8</title>
<g id="a_node8"><a xlink:title=" ">
<polygon fill="#e0e0e0" stroke="#999999" points="236,-74 192,-74 192,-55 236,-55 236,-74"/>
<text text-anchor="middle" x="214" y="-62" font-family="Helvetica,sans-Serif" font-size="10.00">vector</text>
</a>
</g>
</g>
<!-- Node5&#45;&gt;Node8 -->
<g id="edge7" class="edge">
<title>Node5&#45;&gt;Node8</title>
<path fill="none" stroke="#63b8ff" d="M225.74,-164.64C224.48,-155.67 222.52,-141.38 221,-129 219.22,-114.46 217.41,-98.01 216.08,-85.5"/>
<polygon fill="#63b8ff" stroke="#63b8ff" points="219.57,-85.22 215.04,-75.64 212.61,-85.95 219.57,-85.22"/>
</g>
<!-- Node9 -->
<g id="node9" class="node">
<title>Node9</title>
<g id="a_node9"><a xlink:href="../../d1/df2/_e57_format_8h.html" target="_top" xlink:title="Header file for the E57 API.">
<polygon fill="white" stroke="#666666" points="389.5,-129 316.5,-129 316.5,-110 389.5,-110 389.5,-129"/>
<text text-anchor="middle" x="353" y="-117" font-family="Helvetica,sans-Serif" font-size="10.00">E57Format.h</text>
</a>
</g>
</g>
<!-- Node5&#45;&gt;Node9 -->
<g id="edge8" class="edge">
<title>Node5&#45;&gt;Node9</title>
<path fill="none" stroke="#63b8ff" d="M248.37,-164.51C268.41,-156.08 298.6,-143.38 321.41,-133.79"/>
<polygon fill="#63b8ff" stroke="#63b8ff" points="322.69,-137.05 330.55,-129.94 319.97,-130.6 322.69,-137.05"/>
</g>
<!-- Node9&#45;&gt;Node8 -->
<g id="edge12" class="edge">
<title>Node9&#45;&gt;Node8</title>
<path fill="none" stroke="#63b8ff" d="M329.42,-109.51C306.75,-100.87 272.28,-87.72 246.91,-78.05"/>
<polygon fill="#63b8ff" stroke="#63b8ff" points="248.32,-74.84 237.73,-74.55 245.82,-81.38 248.32,-74.84"/>
</g>
<!-- Node10 -->
<g id="node10" class="node">
<title>Node10</title>
<g id="a_node10"><a xlink:title=" ">
<polygon fill="#e0e0e0" stroke="#999999" points="365.5,-74 324.5,-74 324.5,-55 365.5,-55 365.5,-74"/>
<text text-anchor="middle" x="345" y="-62" font-family="Helvetica,sans-Serif" font-size="10.00">cfloat</text>
</a>
</g>
</g>
<!-- Node9&#45;&gt;Node10 -->
<g id="edge9" class="edge">
<title>Node9&#45;&gt;Node10</title>
<path fill="none" stroke="#63b8ff" d="M351.68,-109.75C350.69,-103.19 349.29,-93.95 348.03,-85.6"/>
<polygon fill="#63b8ff" stroke="#63b8ff" points="351.53,-85.3 346.58,-75.94 344.61,-86.35 351.53,-85.3"/>
</g>
<!-- Node11 -->
<g id="node11" class="node">
<title>Node11</title>
<g id="a_node11"><a xlink:title=" ">
<polygon fill="#e0e0e0" stroke="#999999" points="534,-74 488,-74 488,-55 534,-55 534,-74"/>
<text text-anchor="middle" x="511" y="-62" font-family="Helvetica,sans-Serif" font-size="10.00">cstdint</text>
</a>
</g>
</g>
<!-- Node9&#45;&gt;Node11 -->
<g id="edge10" class="edge">
<title>Node9&#45;&gt;Node11</title>
<path fill="none" stroke="#63b8ff" d="M379.8,-109.51C406.54,-100.54 447.72,-86.73 476.8,-76.97"/>
<polygon fill="#63b8ff" stroke="#63b8ff" points="477.87,-80.3 486.24,-73.81 475.65,-73.67 477.87,-80.3"/>
</g>
<!-- Node12 -->
<g id="node12" class="node">
<title>Node12</title>
<g id="a_node12"><a xlink:title=" ">
<polygon fill="#e0e0e0" stroke="#999999" points="306,-74 254,-74 254,-55 306,-55 306,-74"/>
<text text-anchor="middle" x="280" y="-62" font-family="Helvetica,sans-Serif" font-size="10.00">memory</text>
</a>
</g>
</g>
<!-- Node9&#45;&gt;Node12 -->
<g id="edge11" class="edge">
<title>Node9&#45;&gt;Node12</title>
<path fill="none" stroke="#63b8ff" d="M340.62,-109.51C329.85,-101.7 314.03,-90.21 301.25,-80.93"/>
<polygon fill="#63b8ff" stroke="#63b8ff" points="303.57,-78.29 293.43,-75.25 299.46,-83.95 303.57,-78.29"/>
</g>
<!-- Node13 -->
<g id="node13" class="node">
<title>Node13</title>
<g id="a_node13"><a xlink:href="../../d4/d6e/_e57_exception_8h.html" target="_top" xlink:title="Exception handling for E57 API.">
<polygon fill="white" stroke="#666666" points="470,-74 384,-74 384,-55 470,-55 470,-74"/>
<text text-anchor="middle" x="427" y="-62" font-family="Helvetica,sans-Serif" font-size="10.00">E57Exception.h</text>
</a>
</g>
</g>
<!-- Node9&#45;&gt;Node13 -->
<g id="edge13" class="edge">
<title>Node9&#45;&gt;Node13</title>
<path fill="none" stroke="#63b8ff" d="M365.55,-109.51C376.46,-101.7 392.5,-90.21 405.46,-80.93"/>
<polygon fill="#63b8ff" stroke="#63b8ff" points="407.31,-83.91 413.4,-75.24 403.23,-78.22 407.31,-83.91"/>
</g>
<!-- Node13&#45;&gt;Node7 -->
<g id="edge16" class="edge">
<title>Node13&#45;&gt;Node7</title>
<path fill="none" stroke="#63b8ff" d="M383.57,-54.75C330.71,-44.1 242.72,-26.36 195.78,-16.9"/>
<polygon fill="#63b8ff" stroke="#63b8ff" points="196.76,-13.53 186.26,-14.99 195.37,-20.39 196.76,-13.53"/>
</g>
<!-- Node14 -->
<g id="node14" class="node">
<title>Node14</title>
<g id="a_node14"><a xlink:title=" ">
<polygon fill="#e0e0e0" stroke="#999999" points="414.5,-19 355.5,-19 355.5,0 414.5,0 414.5,-19"/>
<text text-anchor="middle" x="385" y="-7" font-family="Helvetica,sans-Serif" font-size="10.00">exception</text>
</a>
</g>
</g>
<!-- Node13&#45;&gt;Node14 -->
<g id="edge14" class="edge">
<title>Node13&#45;&gt;Node14</title>
<path fill="none" stroke="#63b8ff" d="M420.06,-54.75C414.38,-47.58 406.16,-37.2 399.11,-28.3"/>
<polygon fill="#63b8ff" stroke="#63b8ff" points="401.98,-26.29 393.03,-20.63 396.49,-30.64 401.98,-26.29"/>
</g>
<!-- Node15 -->
<g id="node15" class="node">
<title>Node15</title>
<g id="a_node15"><a xlink:title=" ">
<polygon fill="#e0e0e0" stroke="#999999" points="297,-19 243,-19 243,0 297,0 297,-19"/>
<text text-anchor="middle" x="270" y="-7" font-family="Helvetica,sans-Serif" font-size="10.00">iostream</text>
</a>
</g>
</g>
<!-- Node13&#45;&gt;Node15 -->
<g id="edge15" class="edge">
<title>Node13&#45;&gt;Node15</title>
<path fill="none" stroke="#63b8ff" d="M400.37,-54.51C374.8,-45.88 335.95,-32.76 307.31,-23.1"/>
<polygon fill="#63b8ff" stroke="#63b8ff" points="308.53,-19.81 297.94,-19.93 306.29,-26.45 308.53,-19.81"/>
</g>
<!-- Node16 -->
<g id="node16" class="node">
<title>Node16</title>
<g id="a_node16"><a xlink:title=" ">
<polygon fill="#e0e0e0" stroke="#999999" points="503.5,-19 432.5,-19 432.5,0 503.5,0 503.5,-19"/>
<text text-anchor="middle" x="468" y="-7" font-family="Helvetica,sans-Serif" font-size="10.00">E57Export.h</text>
</a>
</g>
</g>
<!-- Node13&#45;&gt;Node16 -->
<g id="edge17" class="edge">
<title>Node13&#45;&gt;Node16</title>
<path fill="none" stroke="#63b8ff" d="M433.77,-54.75C439.32,-47.58 447.34,-37.2 454.23,-28.3"/>
<polygon fill="#63b8ff" stroke="#63b8ff" points="456.81,-30.69 460.16,-20.64 451.27,-26.41 456.81,-30.69"/>
</g>
<!-- Node17&#45;&gt;Node5 -->
<g id="edge21" class="edge">
<title>Node17&#45;&gt;Node5</title>
<path fill="none" stroke="#63b8ff" d="M259.56,-219.75C254.34,-212.66 246.81,-202.42 240.31,-193.59"/>
<polygon fill="#63b8ff" stroke="#63b8ff" points="243.22,-191.64 234.48,-185.66 237.58,-195.79 243.22,-191.64"/>
</g>
<!-- Node17&#45;&gt;Node8 -->
<g id="edge20" class="edge">
<title>Node17&#45;&gt;Node8</title>
<path fill="none" stroke="#63b8ff" d="M268.82,-219.61C274.81,-199.09 286.82,-147.33 269,-110 263.17,-97.78 252.16,-87.83 241.51,-80.46"/>
<polygon fill="#63b8ff" stroke="#63b8ff" points="243.6,-77.64 233.27,-75.24 239.85,-83.55 243.6,-77.64"/>
</g>
<!-- Node17&#45;&gt;Node11 -->
<g id="edge19" class="edge">
<title>Node17&#45;&gt;Node11</title>
<path fill="none" stroke="#63b8ff" d="M279.52,-219.5C319.6,-192.84 438.05,-114.03 488.18,-80.68"/>
<polygon fill="#63b8ff" stroke="#63b8ff" points="489.87,-83.76 496.26,-75.31 486,-77.93 489.87,-83.76"/>
</g>
<!-- Node18&#45;&gt;Node7 -->
<g id="edge26" class="edge">
<title>Node18&#45;&gt;Node7</title>
<path fill="none" stroke="#63b8ff" d="M101.72,-54.51C112.78,-46.7 129.04,-35.21 142.17,-25.93"/>
<polygon fill="#63b8ff" stroke="#63b8ff" points="144.08,-28.86 150.23,-20.23 140.04,-23.14 144.08,-28.86"/>
</g>
<!-- Node18&#45;&gt;Node15 -->
<g id="edge24" class="edge">
<title>Node18&#45;&gt;Node15</title>
<path fill="none" stroke="#63b8ff" d="M119.7,-54.51C150.69,-45.43 198.62,-31.4 231.99,-21.63"/>
<polygon fill="#63b8ff" stroke="#63b8ff" points="232.64,-25.09 241.25,-18.92 230.67,-18.37 232.64,-25.09"/>
</g>
<!-- Node19 -->
<g id="node19" class="node">
<title>Node19</title>
<g id="a_node19"><a xlink:title=" ">
<polygon fill="#e0e0e0" stroke="#999999" points="50,-19 0,-19 0,0 50,0 50,-19"/>
<text text-anchor="middle" x="25" y="-7" font-family="Helvetica,sans-Serif" font-size="10.00">iomanip</text>
</a>
</g>
</g>
<!-- Node18&#45;&gt;Node19 -->
<g id="edge23" class="edge">
<title>Node18&#45;&gt;Node19</title>
<path fill="none" stroke="#63b8ff" d="M78.14,-54.51C68.89,-46.85 55.38,-35.66 44.29,-26.47"/>
<polygon fill="#63b8ff" stroke="#63b8ff" points="46.8,-24.01 36.86,-20.32 42.33,-29.4 46.8,-24.01"/>
</g>
<!-- Node20 -->
<g id="node20" class="node">
<title>Node20</title>
<g id="a_node20"><a xlink:title=" ">
<polygon fill="#e0e0e0" stroke="#999999" points="120,-19 68,-19 68,0 120,0 120,-19"/>
<text text-anchor="middle" x="94" y="-7" font-family="Helvetica,sans-Serif" font-size="10.00">sstream</text>
</a>
</g>
</g>
<!-- Node18&#45;&gt;Node20 -->
<g id="edge25" class="edge">
<title>Node18&#45;&gt;Node20</title>
<path fill="none" stroke="#63b8ff" d="M89.83,-54.75C90.44,-48.27 91.3,-39.16 92.08,-30.9"/>
<polygon fill="#63b8ff" stroke="#63b8ff" points="95.56,-31.23 93.01,-20.95 88.59,-30.58 95.56,-31.23"/>
</g>
</g>
</svg>
        <g id="navigator" transform="translate(0 0)" fill="#404254">
                <rect fill="#f2f5e9" fill-opacity="0.5" stroke="#606060" stroke-width=".5" x="0" y="0" width="60" height="60"/>
                <use id="zoomplus" xlink:href="#zoomPlus" x="17" y="9" onmousedown="handleZoom(evt,'in')"/>
                <use id="zoomminus" xlink:href="#zoomMin" x="42" y="9" onmousedown="handleZoom(evt,'out')"/>
                <use id="reset" xlink:href="#resetDef" x="30" y="36" onmousedown="handleReset()"/>
                <g id="arrowUp" xlink:href="#dirArrow" transform="translate(30 24)" onmousedown="handlePan(0,-1)">
                  <use xlink:href="#rim" fill="#404040">
                        <set attributeName="fill" to="#808080" begin="arrowUp.mouseover" end="arrowUp.mouseout"/>
                  </use>
                  <path fill="none" stroke="white" stroke-width="1.5" d="M0,-3.0v7 M-2.5,-0.5L0,-3.0L2.5,-0.5"/>
                </g>
                <g id="arrowRight" xlink:href="#dirArrow" transform="rotate(90) translate(36 -43)" onmousedown="handlePan(1,0)">
                  <use xlink:href="#rim" fill="#404040">
                        <set attributeName="fill" to="#808080" begin="arrowRight.mouseover" end="arrowRight.mouseout"/>
                  </use>
                  <path fill="none" stroke="white" stroke-width="1.5" d="M0,-3.0v7 M-2.5,-0.5L0,-3.0L2.5,-0.5"/>
                </g>
                <g id="arrowDown" xlink:href="#dirArrow" transform="rotate(180) translate(-30 -48)" onmousedown="handlePan(0,1)">
                  <use xlink:href="#rim" fill="#404040">
                        <set attributeName="fill" to="#808080" begin="arrowDown.mouseover" end="arrowDown.mouseout"/>
                  </use>
                  <path fill="none" stroke="white" stroke-width="1.5" d="M0,-3.0v7 M-2.5,-0.5L0,-3.0L2.5,-0.5"/>
                </g>
                <g id="arrowLeft" xlink:href="#dirArrow" transform="rotate(270) translate(-36 17)" onmousedown="handlePan(-1,0)">
                  <use xlink:href="#rim" fill="#404040">
                        <set attributeName="fill" to="#808080" begin="arrowLeft.mouseover" end="arrowLeft.mouseout"/>
                  </use>
                  <path fill="none" stroke="white" stroke-width="1.5" d="M0,-3.0v7 M-2.5,-0.5L0,-3.0L2.5,-0.5"/>
                </g>
        </g>
        <svg viewBox="0 0 15 15" width="100%" height="30px" preserveAspectRatio="xMaxYMin meet">
         <g id="arrow_out" transform="scale(0.3 0.3)">
          <a xlink:href="_packet_8cpp__incl_org.svg" target="_base">
           <rect id="button" ry="5" rx="5" y="6" x="6" height="38" width="38"
                fill="#f2f5e9" fill-opacity="0.5" stroke="#606060" stroke-width="1.0"/>
           <path id="arrow"
             d="M 11.500037,31.436501 C 11.940474,20.09759 22.043105,11.32322 32.158766,21.979434 L 37.068811,17.246167 C 37.068811,17.246167 37.088388,32 37.088388,32 L 22.160133,31.978069 C 22.160133,31.978069 26.997745,27.140456 26.997745,27.140456 C 18.528582,18.264221 13.291696,25.230495 11.500037,31.436501 z"
             style="fill:#404040;"/>
          </a>
         </g>
        </svg>
</svg>
