<?xml version="1.0" encoding="UTF-8" standalone="no"?>
<!DOCTYPE svg PUBLIC "-//W3C//DTD SVG 1.1//EN"
 "http://www.w3.org/Graphics/SVG/1.1/DTD/svg11.dtd">
<!-- Generated by graphviz version 7.0.0 (20221023.0053)
 -->
<!-- Title: e57::BitpackIntegerDecoder&lt; RegisterT &gt; Pages: 1 -->
<svg width="226pt" height="203pt"
 viewBox="0.00 0.00 225.50 203.00" xmlns="http://www.w3.org/2000/svg" xmlns:xlink="http://www.w3.org/1999/xlink">
<g id="graph0" class="graph" transform="scale(1 1) rotate(0) translate(4 199)">
<title>e57::BitpackIntegerDecoder&lt; RegisterT &gt;</title>
<!-- Node1 -->
<g id="node1" class="node">
<title>Node1</title>
<g id="a_node1"><a xlink:title=" ">
<polygon fill="#999999" stroke="#666666" points="217.5,-30 79.5,-30 79.5,0 217.5,0 217.5,-30"/>
<text text-anchor="start" x="87.5" y="-18" font-family="Helvetica,sans-Serif" font-size="10.00">e57::BitpackIntegerDecoder</text>
<text text-anchor="middle" x="148.5" y="-7" font-family="Helvetica,sans-Serif" font-size="10.00">&lt; RegisterT &gt;</text>
</a>
</g>
</g>
<!-- Node2 -->
<g id="node2" class="node">
<title>Node2</title>
<g id="a_node2"><a xlink:href="../../d5/df3/classe57_1_1_bitpack_decoder.html" target="_top" xlink:title=" ">
<polygon fill="white" stroke="#666666" points="131.5,-107 23.5,-107 23.5,-88 131.5,-88 131.5,-107"/>
<text text-anchor="middle" x="77.5" y="-95" font-family="Helvetica,sans-Serif" font-size="10.00">e57::BitpackDecoder</text>
</a>
</g>
</g>
<!-- Node2&#45;&gt;Node1 -->
<g id="edge1" class="edge">
<title>Node2&#45;&gt;Node1</title>
<path fill="none" stroke="#63b8ff" d="M92.93,-79C105.77,-64.45 123.81,-44 135.81,-30.39"/>
<polygon fill="#63b8ff" stroke="#63b8ff" points="90.36,-76.63 86.37,-86.44 95.61,-81.26 90.36,-76.63"/>
</g>
<!-- Node3 -->
<g id="node3" class="node">
<title>Node3</title>
<g id="a_node3"><a xlink:href="../../d2/d14/classe57_1_1_decoder.html" target="_top" xlink:title=" ">
<polygon fill="white" stroke="#666666" points="75,-195 0,-195 0,-176 75,-176 75,-195"/>
<text text-anchor="middle" x="37.5" y="-183" font-family="Helvetica,sans-Serif" font-size="10.00">e57::Decoder</text>
</a>
</g>
</g>
<!-- Node3&#45;&gt;Node2 -->
<g id="edge2" class="edge">
<title>Node3&#45;&gt;Node2</title>
<path fill="none" stroke="#63b8ff" d="M46.38,-165.4C54.77,-147.36 66.99,-121.09 73.33,-107.46"/>
<polygon fill="#63b8ff" stroke="#63b8ff" points="43.31,-163.7 42.27,-174.25 49.66,-166.66 43.31,-163.7"/>
</g>
<!-- Node4 -->
<g id="node4" class="node">
<title>Node4</title>
<g id="a_node4"><a xlink:title=" ">
<polygon fill="white" stroke="#666666" points="144,-195 93,-195 93,-176 144,-176 144,-195"/>
<text text-anchor="middle" x="118.5" y="-183" font-family="Helvetica,sans-Serif" font-size="10.00">uint64_t</text>
</a>
</g>
</g>
<!-- Node4&#45;&gt;Node2 -->
<g id="edge3" class="edge">
<title>Node4&#45;&gt;Node2</title>
<path fill="none" stroke="#9a32cd" stroke-dasharray="5,2" d="M109.4,-165.4C100.79,-147.36 88.27,-121.09 81.77,-107.46"/>
<polygon fill="#9a32cd" stroke="#9a32cd" points="106.15,-166.73 113.62,-174.25 112.47,-163.72 106.15,-166.73"/>
<text text-anchor="start" x="105.5" y="-150" font-family="Helvetica,sans-Serif" font-size="10.00"> currentRecordIndex</text>
<text text-anchor="middle" x="150" y="-139" font-family="Helvetica,sans-Serif" font-size="10.00">_</text>
<text text-anchor="middle" x="150" y="-128" font-family="Helvetica,sans-Serif" font-size="10.00">maxRecordCount_</text>
</g>
<!-- Node5 -->
<g id="node5" class="node">
<title>Node5</title>
<g id="a_node5"><a xlink:title=" ">
<polygon fill="white" stroke="#666666" points="195.5,-107 149.5,-107 149.5,-88 195.5,-88 195.5,-107"/>
<text text-anchor="middle" x="172.5" y="-95" font-family="Helvetica,sans-Serif" font-size="10.00">int64_t</text>
</a>
</g>
</g>
<!-- Node5&#45;&gt;Node1 -->
<g id="edge4" class="edge">
<title>Node5&#45;&gt;Node1</title>
<path fill="none" stroke="#9a32cd" stroke-dasharray="5,2" d="M166.65,-76.88C162.37,-62.52 156.65,-43.35 152.79,-30.39"/>
<polygon fill="#9a32cd" stroke="#9a32cd" points="163.2,-77.54 169.41,-86.13 169.9,-75.54 163.2,-77.54"/>
<text text-anchor="middle" x="189.5" y="-62" font-family="Helvetica,sans-Serif" font-size="10.00"> maximum_</text>
<text text-anchor="middle" x="189.5" y="-51" font-family="Helvetica,sans-Serif" font-size="10.00">minimum_</text>
</g>
</g>
</svg>
