<?xml version="1.0" encoding="UTF-8" standalone="no"?>
<!DOCTYPE svg PUBLIC "-//W3C//DTD SVG 1.1//EN"
 "http://www.w3.org/Graphics/SVG/1.1/DTD/svg11.dtd">
<!-- Generated by graphviz version 2.49.0 (20210828.1703)
 -->
<!-- Title: e57::BitpackIntegerDecoder&lt; RegisterT &gt; Pages: 1 -->
<svg width="219pt" height="206pt"
 viewBox="0.00 0.00 218.50 206.00" xmlns="http://www.w3.org/2000/svg" xmlns:xlink="http://www.w3.org/1999/xlink">
<g id="graph0" class="graph" transform="scale(1 1) rotate(0) translate(4 202)">
<title>e57::BitpackIntegerDecoder&lt; RegisterT &gt;</title>
<polygon fill="white" stroke="transparent" points="-4,4 -4,-202 214.5,-202 214.5,4 -4,4"/>
<!-- Node1 -->
<g id="node1" class="node">
<title>Node1</title>
<g id="a_node1"><a xlink:title=" ">
<polygon fill="#bfbfbf" stroke="black" points="57.5,-0.5 57.5,-30.5 197.5,-30.5 197.5,-0.5 57.5,-0.5"/>
<text text-anchor="start" x="65.5" y="-18.5" font-family="Helvetica,sans-Serif" font-size="10.00">e57::BitpackIntegerDecoder</text>
<text text-anchor="middle" x="127.5" y="-7.5" font-family="Helvetica,sans-Serif" font-size="10.00">&lt; RegisterT &gt;</text>
</a>
</g>
</g>
<!-- Node2 -->
<g id="node2" class="node">
<title>Node2</title>
<g id="a_node2"><a xlink:href="../../d5/df3/classe57_1_1_bitpack_decoder.html" target="_top" xlink:title=" ">
<polygon fill="white" stroke="black" points="25,-89.5 25,-108.5 134,-108.5 134,-89.5 25,-89.5"/>
<text text-anchor="middle" x="79.5" y="-96.5" font-family="Helvetica,sans-Serif" font-size="10.00">e57::BitpackDecoder</text>
</a>
</g>
</g>
<!-- Node2&#45;&gt;Node1 -->
<g id="edge1" class="edge">
<title>Node2&#45;&gt;Node1</title>
<path fill="none" stroke="midnightblue" d="M89.79,-80.52C98.58,-65.61 111.04,-44.45 119.2,-30.6"/>
<polygon fill="midnightblue" stroke="midnightblue" points="86.7,-78.89 84.64,-89.28 92.73,-82.44 86.7,-78.89"/>
</g>
<!-- Node3 -->
<g id="node3" class="node">
<title>Node3</title>
<g id="a_node3"><a xlink:href="../../d2/d14/classe57_1_1_decoder.html" target="_top" xlink:title=" ">
<polygon fill="white" stroke="black" points="0,-178.5 0,-197.5 77,-197.5 77,-178.5 0,-178.5"/>
<text text-anchor="middle" x="38.5" y="-185.5" font-family="Helvetica,sans-Serif" font-size="10.00">e57::Decoder</text>
</a>
</g>
</g>
<!-- Node3&#45;&gt;Node2 -->
<g id="edge2" class="edge">
<title>Node3&#45;&gt;Node2</title>
<path fill="none" stroke="midnightblue" d="M46.87,-169.23C55.57,-150.77 68.82,-122.67 75.44,-108.62"/>
<polygon fill="midnightblue" stroke="midnightblue" points="43.68,-167.8 42.58,-178.34 50.01,-170.79 43.68,-167.8"/>
</g>
<!-- Node4 -->
<g id="node4" class="node">
<title>Node4</title>
<g id="a_node4"><a xlink:title=" ">
<polygon fill="white" stroke="#bfbfbf" points="95.5,-178.5 95.5,-197.5 147.5,-197.5 147.5,-178.5 95.5,-178.5"/>
<text text-anchor="middle" x="121.5" y="-185.5" font-family="Helvetica,sans-Serif" font-size="10.00">uint64_t</text>
</a>
</g>
</g>
<!-- Node4&#45;&gt;Node2 -->
<g id="edge3" class="edge">
<title>Node4&#45;&gt;Node2</title>
<path fill="none" stroke="#9a32cd" stroke-dasharray="5,2" d="M112.92,-169.23C104.01,-150.77 90.45,-122.67 83.66,-108.62"/>
<polygon fill="#9a32cd" stroke="#9a32cd" points="109.82,-170.86 117.32,-178.34 116.12,-167.81 109.82,-170.86"/>
<text text-anchor="start" x="108.5" y="-152" font-family="Helvetica,sans-Serif" font-size="10.00"> currentRecordIndex</text>
<text text-anchor="middle" x="154" y="-141" font-family="Helvetica,sans-Serif" font-size="10.00">_</text>
<text text-anchor="middle" x="154" y="-130" font-family="Helvetica,sans-Serif" font-size="10.00">maxRecordCount_</text>
</g>
<!-- Node5 -->
<g id="node5" class="node">
<title>Node5</title>
<g id="a_node5"><a xlink:title=" ">
<polygon fill="white" stroke="#bfbfbf" points="152,-89.5 152,-108.5 199,-108.5 199,-89.5 152,-89.5"/>
<text text-anchor="middle" x="175.5" y="-96.5" font-family="Helvetica,sans-Serif" font-size="10.00">int64_t</text>
</a>
</g>
</g>
<!-- Node5&#45;&gt;Node1 -->
<g id="edge4" class="edge">
<title>Node5&#45;&gt;Node1</title>
<path fill="none" stroke="#9a32cd" stroke-dasharray="5,2" d="M165.21,-80.52C156.42,-65.61 143.96,-44.45 135.8,-30.6"/>
<polygon fill="#9a32cd" stroke="#9a32cd" points="162.27,-82.44 170.36,-89.28 168.3,-78.89 162.27,-82.44"/>
<text text-anchor="middle" x="184.5" y="-63" font-family="Helvetica,sans-Serif" font-size="10.00"> maximum_</text>
<text text-anchor="middle" x="184.5" y="-52" font-family="Helvetica,sans-Serif" font-size="10.00">minimum_</text>
</g>
</g>
</svg>
