<?xml version="1.0" encoding="UTF-8" standalone="no"?>
<!DOCTYPE svg PUBLIC "-//W3C//DTD SVG 1.1//EN"
 "http://www.w3.org/Graphics/SVG/1.1/DTD/svg11.dtd">
<!-- Generated by graphviz version 7.0.0 (20221023.0053)
 -->
<!-- Title: ImageFileImpl.h Pages: 1 -->
<svg width="399pt" height="247pt"
 viewBox="0.00 0.00 398.50 247.00" xmlns="http://www.w3.org/2000/svg" xmlns:xlink="http://www.w3.org/1999/xlink">
<g id="graph0" class="graph" transform="scale(1 1) rotate(0) translate(4 243)">
<title>ImageFileImpl.h</title>
<!-- Node1 -->
<g id="node1" class="node">
<title>Node1</title>
<g id="a_node1"><a xlink:title=" ">
<polygon fill="#999999" stroke="#666666" points="174,-239 88,-239 88,-220 174,-220 174,-239"/>
<text text-anchor="middle" x="131" y="-227" font-family="Helvetica,sans-Serif" font-size="10.00">ImageFileImpl.h</text>
</a>
</g>
</g>
<!-- Node2 -->
<g id="node2" class="node">
<title>Node2</title>
<g id="a_node2"><a xlink:title=" ">
<polygon fill="#e0e0e0" stroke="#999999" points="52,-74 0,-74 0,-55 52,-55 52,-74"/>
<text text-anchor="middle" x="26" y="-62" font-family="Helvetica,sans-Serif" font-size="10.00">memory</text>
</a>
</g>
</g>
<!-- Node1&#45;&gt;Node2 -->
<g id="edge1" class="edge">
<title>Node1&#45;&gt;Node2</title>
<path fill="none" stroke="#63b8ff" d="M125.35,-219.74C108.83,-194.09 60.32,-118.78 37.77,-83.78"/>
<polygon fill="#63b8ff" stroke="#63b8ff" points="40.85,-82.09 32.49,-75.58 34.97,-85.88 40.85,-82.09"/>
</g>
<!-- Node3 -->
<g id="node3" class="node">
<title>Node3</title>
<g id="a_node3"><a xlink:href="../../db/d1f/_common_8h.html" target="_top" xlink:title=" ">
<polygon fill="white" stroke="#666666" points="289.5,-184 224.5,-184 224.5,-165 289.5,-165 289.5,-184"/>
<text text-anchor="middle" x="257" y="-172" font-family="Helvetica,sans-Serif" font-size="10.00">Common.h</text>
</a>
</g>
</g>
<!-- Node1&#45;&gt;Node3 -->
<g id="edge2" class="edge">
<title>Node1&#45;&gt;Node3</title>
<path fill="none" stroke="#63b8ff" d="M152.37,-219.51C172.41,-211.08 202.6,-198.38 225.41,-188.79"/>
<polygon fill="#63b8ff" stroke="#63b8ff" points="226.69,-192.05 234.55,-184.94 223.97,-185.6 226.69,-192.05"/>
</g>
<!-- Node4 -->
<g id="node4" class="node">
<title>Node4</title>
<g id="a_node4"><a xlink:title=" ">
<polygon fill="#e0e0e0" stroke="#999999" points="272,-129 242,-129 242,-110 272,-110 272,-129"/>
<text text-anchor="middle" x="257" y="-117" font-family="Helvetica,sans-Serif" font-size="10.00">set</text>
</a>
</g>
</g>
<!-- Node3&#45;&gt;Node4 -->
<g id="edge3" class="edge">
<title>Node3&#45;&gt;Node4</title>
<path fill="none" stroke="#63b8ff" d="M257,-164.75C257,-158.27 257,-149.16 257,-140.9"/>
<polygon fill="#63b8ff" stroke="#63b8ff" points="260.5,-140.96 257,-130.96 253.5,-140.96 260.5,-140.96"/>
</g>
<!-- Node5 -->
<g id="node5" class="node">
<title>Node5</title>
<g id="a_node5"><a xlink:title=" ">
<polygon fill="#e0e0e0" stroke="#999999" points="390.5,-19 349.5,-19 349.5,0 390.5,0 390.5,-19"/>
<text text-anchor="middle" x="370" y="-7" font-family="Helvetica,sans-Serif" font-size="10.00">string</text>
</a>
</g>
</g>
<!-- Node3&#45;&gt;Node5 -->
<g id="edge4" class="edge">
<title>Node3&#45;&gt;Node5</title>
<path fill="none" stroke="#63b8ff" d="M268.45,-164.68C288.3,-148.76 329.1,-113.21 351,-74 358.65,-60.3 363.54,-43.17 366.44,-30.15"/>
<polygon fill="#63b8ff" stroke="#63b8ff" points="369.81,-31.16 368.34,-20.67 362.95,-29.79 369.81,-31.16"/>
</g>
<!-- Node6 -->
<g id="node6" class="node">
<title>Node6</title>
<g id="a_node6"><a xlink:title=" ">
<polygon fill="#e0e0e0" stroke="#999999" points="342,-74 298,-74 298,-55 342,-55 342,-74"/>
<text text-anchor="middle" x="320" y="-62" font-family="Helvetica,sans-Serif" font-size="10.00">vector</text>
</a>
</g>
</g>
<!-- Node3&#45;&gt;Node6 -->
<g id="edge5" class="edge">
<title>Node3&#45;&gt;Node6</title>
<path fill="none" stroke="#63b8ff" d="M262.16,-164.66C272.35,-147.18 295.3,-107.84 309.03,-84.3"/>
<polygon fill="#63b8ff" stroke="#63b8ff" points="312,-86.17 314.01,-75.77 305.95,-82.64 312,-86.17"/>
</g>
<!-- Node7 -->
<g id="node7" class="node">
<title>Node7</title>
<g id="a_node7"><a xlink:href="../../d1/df2/_e57_format_8h.html" target="_top" xlink:title="Header file for the E57 API.">
<polygon fill="white" stroke="#666666" points="196.5,-129 123.5,-129 123.5,-110 196.5,-110 196.5,-129"/>
<text text-anchor="middle" x="160" y="-117" font-family="Helvetica,sans-Serif" font-size="10.00">E57Format.h</text>
</a>
</g>
</g>
<!-- Node3&#45;&gt;Node7 -->
<g id="edge6" class="edge">
<title>Node3&#45;&gt;Node7</title>
<path fill="none" stroke="#63b8ff" d="M240.55,-164.51C225.68,-156.39 203.56,-144.3 186.25,-134.85"/>
<polygon fill="#63b8ff" stroke="#63b8ff" points="187.99,-131.81 177.54,-130.08 184.64,-137.95 187.99,-131.81"/>
</g>
<!-- Node7&#45;&gt;Node2 -->
<g id="edge9" class="edge">
<title>Node7&#45;&gt;Node2</title>
<path fill="none" stroke="#63b8ff" d="M137.27,-109.51C115.77,-101.01 83.27,-88.15 58.93,-78.53"/>
<polygon fill="#63b8ff" stroke="#63b8ff" points="60.39,-75.34 49.8,-74.91 57.81,-81.85 60.39,-75.34"/>
</g>
<!-- Node7&#45;&gt;Node6 -->
<g id="edge10" class="edge">
<title>Node7&#45;&gt;Node6</title>
<path fill="none" stroke="#63b8ff" d="M187.14,-109.51C214.81,-100.34 257.75,-86.12 287.28,-76.34"/>
<polygon fill="#63b8ff" stroke="#63b8ff" points="288.06,-79.77 296.45,-73.3 285.86,-73.12 288.06,-79.77"/>
</g>
<!-- Node8 -->
<g id="node8" class="node">
<title>Node8</title>
<g id="a_node8"><a xlink:title=" ">
<polygon fill="#e0e0e0" stroke="#999999" points="111.5,-74 70.5,-74 70.5,-55 111.5,-55 111.5,-74"/>
<text text-anchor="middle" x="91" y="-62" font-family="Helvetica,sans-Serif" font-size="10.00">cfloat</text>
</a>
</g>
</g>
<!-- Node7&#45;&gt;Node8 -->
<g id="edge7" class="edge">
<title>Node7&#45;&gt;Node8</title>
<path fill="none" stroke="#63b8ff" d="M148.3,-109.51C138.22,-101.77 123.46,-90.43 111.44,-81.2"/>
<polygon fill="#63b8ff" stroke="#63b8ff" points="113.79,-78.6 103.73,-75.28 109.53,-84.15 113.79,-78.6"/>
</g>
<!-- Node9 -->
<g id="node9" class="node">
<title>Node9</title>
<g id="a_node9"><a xlink:title=" ">
<polygon fill="#e0e0e0" stroke="#999999" points="176,-74 130,-74 130,-55 176,-55 176,-74"/>
<text text-anchor="middle" x="153" y="-62" font-family="Helvetica,sans-Serif" font-size="10.00">cstdint</text>
</a>
</g>
</g>
<!-- Node7&#45;&gt;Node9 -->
<g id="edge8" class="edge">
<title>Node7&#45;&gt;Node9</title>
<path fill="none" stroke="#63b8ff" d="M158.84,-109.75C157.98,-103.19 156.76,-93.95 155.66,-85.6"/>
<polygon fill="#63b8ff" stroke="#63b8ff" points="159.16,-85.4 154.38,-75.94 152.22,-86.31 159.16,-85.4"/>
</g>
<!-- Node10 -->
<g id="node10" class="node">
<title>Node10</title>
<g id="a_node10"><a xlink:href="../../d4/d6e/_e57_exception_8h.html" target="_top" xlink:title="Exception handling for E57 API.">
<polygon fill="white" stroke="#666666" points="280,-74 194,-74 194,-55 280,-55 280,-74"/>
<text text-anchor="middle" x="237" y="-62" font-family="Helvetica,sans-Serif" font-size="10.00">E57Exception.h</text>
</a>
</g>
</g>
<!-- Node7&#45;&gt;Node10 -->
<g id="edge11" class="edge">
<title>Node7&#45;&gt;Node10</title>
<path fill="none" stroke="#63b8ff" d="M173.06,-109.51C184.52,-101.62 201.43,-89.98 214.98,-80.65"/>
<polygon fill="#63b8ff" stroke="#63b8ff" points="216.63,-83.77 222.88,-75.22 212.66,-78 216.63,-83.77"/>
</g>
<!-- Node10&#45;&gt;Node5 -->
<g id="edge14" class="edge">
<title>Node10&#45;&gt;Node5</title>
<path fill="none" stroke="#63b8ff" d="M259.56,-54.51C281.28,-45.85 314.33,-32.68 338.61,-23.01"/>
<polygon fill="#63b8ff" stroke="#63b8ff" points="339.68,-26.35 347.68,-19.4 337.09,-19.85 339.68,-26.35"/>
</g>
<!-- Node11 -->
<g id="node11" class="node">
<title>Node11</title>
<g id="a_node11"><a xlink:title=" ">
<polygon fill="#e0e0e0" stroke="#999999" points="169.5,-19 110.5,-19 110.5,0 169.5,0 169.5,-19"/>
<text text-anchor="middle" x="140" y="-7" font-family="Helvetica,sans-Serif" font-size="10.00">exception</text>
</a>
</g>
</g>
<!-- Node10&#45;&gt;Node11 -->
<g id="edge12" class="edge">
<title>Node10&#45;&gt;Node11</title>
<path fill="none" stroke="#63b8ff" d="M220.55,-54.51C205.68,-46.39 183.56,-34.3 166.25,-24.85"/>
<polygon fill="#63b8ff" stroke="#63b8ff" points="167.99,-21.81 157.54,-20.08 164.64,-27.95 167.99,-21.81"/>
</g>
<!-- Node12 -->
<g id="node12" class="node">
<title>Node12</title>
<g id="a_node12"><a xlink:title=" ">
<polygon fill="#e0e0e0" stroke="#999999" points="242,-19 188,-19 188,0 242,0 242,-19"/>
<text text-anchor="middle" x="215" y="-7" font-family="Helvetica,sans-Serif" font-size="10.00">iostream</text>
</a>
</g>
</g>
<!-- Node10&#45;&gt;Node12 -->
<g id="edge13" class="edge">
<title>Node10&#45;&gt;Node12</title>
<path fill="none" stroke="#63b8ff" d="M233.37,-54.75C230.58,-48.04 226.63,-38.52 223.1,-30.02"/>
<polygon fill="#63b8ff" stroke="#63b8ff" points="226.36,-28.73 219.29,-20.84 219.89,-31.42 226.36,-28.73"/>
</g>
<!-- Node13 -->
<g id="node13" class="node">
<title>Node13</title>
<g id="a_node13"><a xlink:title=" ">
<polygon fill="#e0e0e0" stroke="#999999" points="331.5,-19 260.5,-19 260.5,0 331.5,0 331.5,-19"/>
<text text-anchor="middle" x="296" y="-7" font-family="Helvetica,sans-Serif" font-size="10.00">E57Export.h</text>
</a>
</g>
</g>
<!-- Node10&#45;&gt;Node13 -->
<g id="edge15" class="edge">
<title>Node10&#45;&gt;Node13</title>
<path fill="none" stroke="#63b8ff" d="M247.01,-54.51C255.37,-47 267.5,-36.1 277.6,-27.03"/>
<polygon fill="#63b8ff" stroke="#63b8ff" points="279.91,-29.66 285.01,-20.37 275.24,-24.45 279.91,-29.66"/>
</g>
</g>
</svg>
