<?xml version="1.0" encoding="UTF-8" standalone="no"?>
<!DOCTYPE svg PUBLIC "-//W3C//DTD SVG 1.1//EN"
 "http://www.w3.org/Graphics/SVG/1.1/DTD/svg11.dtd">
<!-- Generated by graphviz version 7.0.0 (20221023.0053)
 -->
<!-- Title: e57::DecodeChannel Pages: 1 -->
<svg width="270pt" height="104pt"
 viewBox="0.00 0.00 270.00 104.00" xmlns="http://www.w3.org/2000/svg" xmlns:xlink="http://www.w3.org/1999/xlink">
<g id="graph0" class="graph" transform="scale(1 1) rotate(0) translate(4 100)">
<title>e57::DecodeChannel</title>
<!-- Node1 -->
<g id="node1" class="node">
<title>Node1</title>
<g id="a_node1"><a xlink:title=" ">
<polygon fill="#999999" stroke="#666666" points="163,-19 55,-19 55,0 163,0 163,-19"/>
<text text-anchor="middle" x="109" y="-7" font-family="Helvetica,sans-Serif" font-size="10.00">e57::DecodeChannel</text>
</a>
</g>
</g>
<!-- Node2 -->
<g id="node2" class="node">
<title>Node2</title>
<g id="a_node2"><a xlink:href="../../df/d39/classe57_1_1_source_dest_buffer.html" target="_top" xlink:title="A memory buffer to transfer data to/from a CompressedVectorNode in a block.">
<polygon fill="white" stroke="#666666" points="116,-96 0,-96 0,-77 116,-77 116,-96"/>
<text text-anchor="middle" x="58" y="-84" font-family="Helvetica,sans-Serif" font-size="10.00">e57::SourceDestBuffer</text>
</a>
</g>
</g>
<!-- Node2&#45;&gt;Node1 -->
<g id="edge1" class="edge">
<title>Node2&#45;&gt;Node1</title>
<path fill="none" stroke="#9a32cd" stroke-dasharray="5,2" d="M70.45,-67.2C80.76,-52.02 94.99,-31.11 102.96,-19.39"/>
<polygon fill="#9a32cd" stroke="#9a32cd" points="67.63,-65.11 64.9,-75.35 73.42,-69.05 67.63,-65.11"/>
<text text-anchor="middle" x="101" y="-45.5" font-family="Helvetica,sans-Serif" font-size="10.00"> dbuf</text>
</g>
<!-- Node3 -->
<g id="node3" class="node">
<title>Node3</title>
<g id="a_node3"><a xlink:title=" ">
<polygon fill="white" stroke="#666666" points="185.5,-96 134.5,-96 134.5,-77 185.5,-77 185.5,-96"/>
<text text-anchor="middle" x="160" y="-84" font-family="Helvetica,sans-Serif" font-size="10.00">uint64_t</text>
</a>
</g>
</g>
<!-- Node3&#45;&gt;Node1 -->
<g id="edge2" class="edge">
<title>Node3&#45;&gt;Node1</title>
<path fill="none" stroke="#9a32cd" stroke-dasharray="5,2" d="M147.55,-67.2C137.24,-52.02 123.01,-31.11 115.04,-19.39"/>
<polygon fill="#9a32cd" stroke="#9a32cd" points="144.58,-69.05 153.1,-75.35 150.37,-65.11 144.58,-69.05"/>
<text text-anchor="middle" x="201" y="-51" font-family="Helvetica,sans-Serif" font-size="10.00"> currentPacketLogicalOffset</text>
<text text-anchor="middle" x="201" y="-40" font-family="Helvetica,sans-Serif" font-size="10.00">maxRecordCount</text>
</g>
</g>
</svg>
