<?xml version="1.0" encoding="UTF-8" standalone="no"?>
<!DOCTYPE svg PUBLIC "-//W3C//DTD SVG 1.1//EN"
 "http://www.w3.org/Graphics/SVG/1.1/DTD/svg11.dtd">
<!-- Generated by graphviz version 7.0.0 (20221023.0053)
 -->
<!-- Title: e57::BitpackStringDecoder Pages: 1 -->
<svg width="335pt" height="184pt"
 viewBox="0.00 0.00 334.50 184.00" xmlns="http://www.w3.org/2000/svg" xmlns:xlink="http://www.w3.org/1999/xlink">
<g id="graph0" class="graph" transform="scale(1 1) rotate(0) translate(4 180)">
<title>e57::BitpackStringDecoder</title>
<!-- Node1 -->
<g id="node1" class="node">
<title>Node1</title>
<g id="a_node1"><a xlink:title=" ">
<polygon fill="#999999" stroke="#666666" points="241.5,-19 107.5,-19 107.5,0 241.5,0 241.5,-19"/>
<text text-anchor="middle" x="174.5" y="-7" font-family="Helvetica,sans-Serif" font-size="10.00">e57::BitpackStringDecoder</text>
</a>
</g>
</g>
<!-- Node2 -->
<g id="node2" class="node">
<title>Node2</title>
<g id="a_node2"><a xlink:href="../../d5/df3/classe57_1_1_bitpack_decoder.html" target="_top" xlink:title=" ">
<polygon fill="white" stroke="#666666" points="124.5,-86.5 16.5,-86.5 16.5,-67.5 124.5,-67.5 124.5,-86.5"/>
<text text-anchor="middle" x="70.5" y="-74.5" font-family="Helvetica,sans-Serif" font-size="10.00">e57::BitpackDecoder</text>
</a>
</g>
</g>
<!-- Node2&#45;&gt;Node1 -->
<g id="edge1" class="edge">
<title>Node2&#45;&gt;Node1</title>
<path fill="none" stroke="#63b8ff" d="M94.05,-61.17C114.47,-48.31 143.33,-30.13 160.36,-19.4"/>
<polygon fill="#63b8ff" stroke="#63b8ff" points="92.4,-58.07 85.81,-66.36 96.13,-63.99 92.4,-58.07"/>
</g>
<!-- Node3 -->
<g id="node3" class="node">
<title>Node3</title>
<g id="a_node3"><a xlink:href="../../d2/d14/classe57_1_1_decoder.html" target="_top" xlink:title=" ">
<polygon fill="white" stroke="#666666" points="75,-176 0,-176 0,-157 75,-157 75,-176"/>
<text text-anchor="middle" x="37.5" y="-164" font-family="Helvetica,sans-Serif" font-size="10.00">e57::Decoder</text>
</a>
</g>
</g>
<!-- Node3&#45;&gt;Node2 -->
<g id="edge2" class="edge">
<title>Node3&#45;&gt;Node2</title>
<path fill="none" stroke="#63b8ff" d="M40.34,-145.42C42.47,-133.6 45.99,-118.56 51.5,-106 54.52,-99.11 59.27,-92.11 63.27,-86.84"/>
<polygon fill="#63b8ff" stroke="#63b8ff" points="36.9,-144.79 38.79,-155.22 43.81,-145.89 36.9,-144.79"/>
</g>
<!-- Node4 -->
<g id="node4" class="node">
<title>Node4</title>
<g id="a_node4"><a xlink:title=" ">
<polygon fill="white" stroke="#666666" points="172,-176 121,-176 121,-157 172,-157 172,-176"/>
<text text-anchor="middle" x="146.5" y="-164" font-family="Helvetica,sans-Serif" font-size="10.00">uint64_t</text>
</a>
</g>
</g>
<!-- Node4&#45;&gt;Node1 -->
<g id="edge5" class="edge">
<title>Node4&#45;&gt;Node1</title>
<path fill="none" stroke="#9a32cd" stroke-dasharray="5,2" d="M157.6,-146.53C158.72,-144.05 159.73,-141.51 160.5,-139 173.78,-95.66 174.82,-40.71 174.67,-19.46"/>
<polygon fill="#9a32cd" stroke="#9a32cd" points="154.59,-144.73 153.03,-155.21 160.78,-147.99 154.59,-144.73"/>
<text text-anchor="middle" x="217.5" y="-80" font-family="Helvetica,sans-Serif" font-size="10.00"> nBytesStringRead_</text>
<text text-anchor="middle" x="217.5" y="-69" font-family="Helvetica,sans-Serif" font-size="10.00">stringLength_</text>
</g>
<!-- Node4&#45;&gt;Node2 -->
<g id="edge3" class="edge">
<title>Node4&#45;&gt;Node2</title>
<path fill="none" stroke="#9a32cd" stroke-dasharray="5,2" d="M109.67,-161.47C95.38,-157.92 80.35,-151.29 71.5,-139 60.36,-123.53 64.39,-99.65 67.77,-86.84"/>
<polygon fill="#9a32cd" stroke="#9a32cd" points="108.87,-164.88 119.36,-163.42 110.25,-158.02 108.87,-164.88"/>
<text text-anchor="start" x="71.5" y="-131" font-family="Helvetica,sans-Serif" font-size="10.00"> currentRecordIndex</text>
<text text-anchor="middle" x="116" y="-120" font-family="Helvetica,sans-Serif" font-size="10.00">_</text>
<text text-anchor="middle" x="116" y="-109" font-family="Helvetica,sans-Serif" font-size="10.00">maxRecordCount_</text>
</g>
<!-- Node5 -->
<g id="node5" class="node">
<title>Node5</title>
<g id="a_node5"><a xlink:title=" ">
<polygon fill="white" stroke="#666666" points="326.5,-86.5 280.5,-86.5 280.5,-67.5 326.5,-67.5 326.5,-86.5"/>
<text text-anchor="middle" x="303.5" y="-74.5" font-family="Helvetica,sans-Serif" font-size="10.00">uint8_t</text>
</a>
</g>
</g>
<!-- Node5&#45;&gt;Node1 -->
<g id="edge4" class="edge">
<title>Node5&#45;&gt;Node1</title>
<path fill="none" stroke="#9a32cd" stroke-dasharray="5,2" d="M275.72,-61.89C250.3,-48.99 213.47,-30.29 191.95,-19.36"/>
<polygon fill="#9a32cd" stroke="#9a32cd" points="273.98,-64.94 284.48,-66.34 277.15,-58.7 273.98,-64.94"/>
<text text-anchor="middle" x="275.5" y="-40" font-family="Helvetica,sans-Serif" font-size="10.00"> prefixBytes_</text>
</g>
</g>
</svg>
