<?xml version="1.0" encoding="UTF-8" standalone="no"?>
<!DOCTYPE svg PUBLIC "-//W3C//DTD SVG 1.1//EN"
 "http://www.w3.org/Graphics/SVG/1.1/DTD/svg11.dtd">
<!-- Generated by graphviz version 6.0.1 (20220911.1526)
 -->
<!-- Title: e57::Image2D Pages: 1 -->
<!--zoomable 509 -->
<svg id="main" version="1.1" xmlns="http://www.w3.org/2000/svg" xmlns:xlink="http://www.w3.org/1999/xlink" xml:space="preserve" onload="init(evt)">
<style type="text/css"><![CDATA[
.edge:hover path { stroke: red; }
.edge:hover polygon { stroke: red; fill: red; }
]]></style>
<script type="text/javascript"><![CDATA[
var edges = document.getElementsByTagName('g');
if (edges && edges.length) {
  for (var i=0;i<edges.length;i++) {
    if (edges[i].id.substr(0,4)=='edge') {
      edges[i].setAttribute('class','edge');
    }
  }
}
]]></script>
        <defs>
                <circle id="rim" cx="0" cy="0" r="7"/>
                <circle id="rim2" cx="0" cy="0" r="3.5"/>
                <g id="zoomPlus">
                        <use xlink:href="#rim" fill="#404040">
                                <set attributeName="fill" to="#808080" begin="zoomplus.mouseover" end="zoomplus.mouseout"/>
                        </use>
                        <path d="M-4,0h8M0,-4v8" fill="none" stroke="white" stroke-width="1.5" pointer-events="none"/>
                </g>
                <g id="zoomMin">
                        <use xlink:href="#rim" fill="#404040">
                                <set attributeName="fill" to="#808080" begin="zoomminus.mouseover" end="zoomminus.mouseout"/>
                        </use>
                        <path d="M-4,0h8" fill="none" stroke="white" stroke-width="1.5" pointer-events="none"/>
                </g>
                <g id="dirArrow">
                        <path fill="none" stroke="white" stroke-width="1.5" d="M0,-3.0v7 M-2.5,-0.5L0,-3.0L2.5,-0.5"/>
                </g>
               <g id="resetDef">
                       <use xlink:href="#rim2" fill="#404040">
                               <set attributeName="fill" to="#808080" begin="reset.mouseover" end="reset.mouseout"/>
                       </use>
               </g>
        </defs>

<script type="text/javascript">
var viewWidth = 678;
var viewHeight = 509;
var sectionId = 'dynsection-0';
</script>
<script xlink:href="../../svgpan.js"/>
<svg id="graph" class="graph">
<g id="viewport">
<title>e57::Image2D</title>
<!-- Node1 -->
<g id="node1" class="node">
<title>Node1</title>
<g id="a_node1"><a xlink:title="Stores an image from a camera.">
<polygon fill="#999999" stroke="#666666" points="670,-341.5 592,-341.5 592,-322.5 670,-322.5 670,-341.5"/>
<text text-anchor="middle" x="631" y="-329.5" font-family="Helvetica,sans-Serif" font-size="10.00">e57::Image2D</text>
</a>
</g>
</g>
<!-- Node2 -->
<g id="node2" class="node">
<title>Node2</title>
<g id="a_node2"><a xlink:href="../../d1/dd7/structe57_1_1_date_time.html" target="_top" xlink:title="Encodes date and time.">
<polygon fill="white" stroke="#666666" points="368.5,-414.5 287.5,-414.5 287.5,-395.5 368.5,-395.5 368.5,-414.5"/>
<text text-anchor="middle" x="328" y="-402.5" font-family="Helvetica,sans-Serif" font-size="10.00">e57::DateTime</text>
</a>
</g>
</g>
<!-- Node2&#45;&gt;Node1 -->
<g id="edge1" class="edge">
<title>Node2&#45;&gt;Node1</title>
<path fill="none" stroke="#9a32cd" stroke-dasharray="5,2" d="M378.85,-400.01C429.1,-394.03 508.39,-381.93 574,-360 588.02,-355.31 602.95,-347.7 613.86,-341.6"/>
<polygon fill="#9a32cd" stroke="#9a32cd" points="378.43,-396.54 368.9,-401.16 379.23,-403.49 378.43,-396.54"/>
<text text-anchor="middle" x="504" y="-395" font-family="Helvetica,sans-Serif" font-size="10.00"> acquisitionDateTime</text>
</g>
<!-- Node3 -->
<g id="node3" class="node">
<title>Node3</title>
<g id="a_node3"><a xlink:title=" ">
<polygon fill="white" stroke="#666666" points="66,-340.5 20,-340.5 20,-321.5 66,-321.5 66,-340.5"/>
<text text-anchor="middle" x="43" y="-328.5" font-family="Helvetica,sans-Serif" font-size="10.00">int32_t</text>
</a>
</g>
</g>
<!-- Node3&#45;&gt;Node2 -->
<g id="edge2" class="edge">
<title>Node3&#45;&gt;Node2</title>
<path fill="none" stroke="#9a32cd" stroke-dasharray="5,2" d="M57.09,-348.81C68.01,-362.14 84.83,-379.48 104,-388 163.62,-414.47 241.02,-413.52 287.2,-409.74"/>
<polygon fill="#9a32cd" stroke="#9a32cd" points="59.72,-346.48 50.81,-340.76 54.2,-350.79 59.72,-346.48"/>
<text text-anchor="middle" x="163" y="-414" font-family="Helvetica,sans-Serif" font-size="10.00"> isAtomicClockReferenced</text>
</g>
<!-- Node7 -->
<g id="node7" class="node">
<title>Node7</title>
<g id="a_node7"><a xlink:href="../../d9/d81/structe57_1_1_visual_reference_representation.html" target="_top" xlink:title="Stores an image that is to be used only as a visual reference.">
<polygon fill="white" stroke="#666666" points="416,-360.5 240,-360.5 240,-341.5 416,-341.5 416,-360.5"/>
<text text-anchor="middle" x="328" y="-348.5" font-family="Helvetica,sans-Serif" font-size="10.00">e57::VisualReferenceRepresentation</text>
</a>
</g>
</g>
<!-- Node3&#45;&gt;Node7 -->
<g id="edge8" class="edge">
<title>Node3&#45;&gt;Node7</title>
<path fill="none" stroke="#9a32cd" stroke-dasharray="5,2" d="M72.98,-344.56C82.63,-348.4 93.58,-352.07 104,-354 148.26,-362.19 198.31,-362.32 239.76,-360.03"/>
<polygon fill="#9a32cd" stroke="#9a32cd" points="74.04,-341.21 63.47,-340.55 71.32,-347.66 74.04,-341.21"/>
<text text-anchor="middle" x="163" y="-376" font-family="Helvetica,sans-Serif" font-size="10.00"> imageHeight</text>
<text text-anchor="middle" x="163" y="-365" font-family="Helvetica,sans-Serif" font-size="10.00">imageWidth</text>
</g>
<!-- Node9 -->
<g id="node9" class="node">
<title>Node9</title>
<g id="a_node9"><a xlink:href="../../dd/d7a/structe57_1_1_pinhole_representation.html" target="_top" xlink:title="Stores an image that is mapped from 3D using the pinhole camera projection model.">
<polygon fill="white" stroke="#666666" points="396.5,-323.5 259.5,-323.5 259.5,-304.5 396.5,-304.5 396.5,-323.5"/>
<text text-anchor="middle" x="328" y="-311.5" font-family="Helvetica,sans-Serif" font-size="10.00">e57::PinholeRepresentation</text>
</a>
</g>
</g>
<!-- Node3&#45;&gt;Node9 -->
<g id="edge11" class="edge">
<title>Node3&#45;&gt;Node9</title>
<path fill="none" stroke="#9a32cd" stroke-dasharray="5,2" d="M76.41,-329.05C120.79,-326.38 201.56,-321.53 259.41,-318.06"/>
<polygon fill="#9a32cd" stroke="#9a32cd" points="75.98,-325.57 66.21,-329.66 76.4,-332.56 75.98,-325.57"/>
<text text-anchor="middle" x="163" y="-342" font-family="Helvetica,sans-Serif" font-size="10.00"> imageHeight</text>
<text text-anchor="middle" x="163" y="-331" font-family="Helvetica,sans-Serif" font-size="10.00">imageWidth</text>
</g>
<!-- Node10 -->
<g id="node10" class="node">
<title>Node10</title>
<g id="a_node10"><a xlink:href="../../d9/d2d/structe57_1_1_spherical_representation.html" target="_top" xlink:title="Stores an image that is mapped from 3D using a spherical projection model.">
<polygon fill="white" stroke="#666666" points="400.5,-138.5 255.5,-138.5 255.5,-119.5 400.5,-119.5 400.5,-138.5"/>
<text text-anchor="middle" x="328" y="-126.5" font-family="Helvetica,sans-Serif" font-size="10.00">e57::SphericalRepresentation</text>
</a>
</g>
</g>
<!-- Node3&#45;&gt;Node10 -->
<g id="edge14" class="edge">
<title>Node3&#45;&gt;Node10</title>
<path fill="none" stroke="#9a32cd" stroke-dasharray="5,2" d="M46.75,-311.35C53.75,-264.52 73.84,-148.59 104,-126 127.9,-108.09 203.96,-112.85 260.64,-119.47"/>
<polygon fill="#9a32cd" stroke="#9a32cd" points="43.26,-311.03 45.29,-321.43 50.19,-312.03 43.26,-311.03"/>
<text text-anchor="middle" x="163" y="-140" font-family="Helvetica,sans-Serif" font-size="10.00"> imageHeight</text>
<text text-anchor="middle" x="163" y="-129" font-family="Helvetica,sans-Serif" font-size="10.00">imageWidth</text>
</g>
<!-- Node11 -->
<g id="node11" class="node">
<title>Node11</title>
<g id="a_node11"><a xlink:href="../../df/d8e/structe57_1_1_cylindrical_representation.html" target="_top" xlink:title="Stores an image that is mapped from 3D using a cylindrical projection model.">
<polygon fill="white" stroke="#666666" points="403,-239.5 253,-239.5 253,-220.5 403,-220.5 403,-239.5"/>
<text text-anchor="middle" x="328" y="-227.5" font-family="Helvetica,sans-Serif" font-size="10.00">e57::CylindricalRepresentation</text>
</a>
</g>
</g>
<!-- Node3&#45;&gt;Node11 -->
<g id="edge17" class="edge">
<title>Node3&#45;&gt;Node11</title>
<path fill="none" stroke="#9a32cd" stroke-dasharray="5,2" d="M49.29,-311.56C56.94,-287.7 73.63,-248.28 104,-231 163.39,-197.2 246.89,-209.53 293.02,-220.45"/>
<polygon fill="#9a32cd" stroke="#9a32cd" points="45.89,-310.71 46.39,-321.3 52.6,-312.71 45.89,-310.71"/>
<text text-anchor="middle" x="163" y="-245" font-family="Helvetica,sans-Serif" font-size="10.00"> imageHeight</text>
<text text-anchor="middle" x="163" y="-234" font-family="Helvetica,sans-Serif" font-size="10.00">imageWidth</text>
</g>
<!-- Node4 -->
<g id="node4" class="node">
<title>Node4</title>
<g id="a_node4"><a xlink:href="../../d2/df3/structe57_1_1_rigid_body_transform.html" target="_top" xlink:title="Defines a rigid body transform in cartesian coordinates.">
<polygon fill="white" stroke="#666666" points="392,-464.5 264,-464.5 264,-445.5 392,-445.5 392,-464.5"/>
<text text-anchor="middle" x="328" y="-452.5" font-family="Helvetica,sans-Serif" font-size="10.00">e57::RigidBodyTransform</text>
</a>
</g>
</g>
<!-- Node4&#45;&gt;Node1 -->
<g id="edge3" class="edge">
<title>Node4&#45;&gt;Node1</title>
<path fill="none" stroke="#9a32cd" stroke-dasharray="5,2" d="M402.25,-454.29C453.8,-450.69 522.49,-439.4 574,-407 599.86,-390.73 617.94,-357.91 625.72,-341.62"/>
<polygon fill="#9a32cd" stroke="#9a32cd" points="401.95,-450.81 392.18,-454.91 402.38,-457.79 401.95,-450.81"/>
<text text-anchor="middle" x="504" y="-454" font-family="Helvetica,sans-Serif" font-size="10.00"> pose</text>
</g>
<!-- Node5 -->
<g id="node5" class="node">
<title>Node5</title>
<g id="a_node5"><a xlink:href="../../dc/da9/structe57_1_1_quaternion.html" target="_top" xlink:title="Represents a rigid body rotation.">
<polygon fill="white" stroke="#666666" points="86,-464.5 0,-464.5 0,-445.5 86,-445.5 86,-464.5"/>
<text text-anchor="middle" x="43" y="-452.5" font-family="Helvetica,sans-Serif" font-size="10.00">e57::Quaternion</text>
</a>
</g>
</g>
<!-- Node5&#45;&gt;Node4 -->
<g id="edge4" class="edge">
<title>Node5&#45;&gt;Node4</title>
<path fill="none" stroke="#9a32cd" stroke-dasharray="5,2" d="M96.11,-455C143.48,-455 213.49,-455 263.99,-455"/>
<polygon fill="#9a32cd" stroke="#9a32cd" points="96.06,-451.5 86.06,-455 96.06,-458.5 96.06,-451.5"/>
<text text-anchor="middle" x="163" y="-458" font-family="Helvetica,sans-Serif" font-size="10.00"> rotation</text>
</g>
<!-- Node6 -->
<g id="node6" class="node">
<title>Node6</title>
<g id="a_node6"><a xlink:href="../../d6/dad/structe57_1_1_translation.html" target="_top" xlink:title="Defines a rigid body translation in Cartesian coordinates.">
<polygon fill="white" stroke="#666666" points="86,-501.5 0,-501.5 0,-482.5 86,-482.5 86,-501.5"/>
<text text-anchor="middle" x="43" y="-489.5" font-family="Helvetica,sans-Serif" font-size="10.00">e57::Translation</text>
</a>
</g>
</g>
<!-- Node6&#45;&gt;Node4 -->
<g id="edge5" class="edge">
<title>Node6&#45;&gt;Node4</title>
<path fill="none" stroke="#9a32cd" stroke-dasharray="5,2" d="M96.23,-485.81C131.73,-481.53 179.72,-475.63 222,-470 235.51,-468.2 249.98,-466.19 263.73,-464.23"/>
<polygon fill="#9a32cd" stroke="#9a32cd" points="95.62,-482.35 86.11,-487.02 96.45,-489.3 95.62,-482.35"/>
<text text-anchor="middle" x="163" y="-487" font-family="Helvetica,sans-Serif" font-size="10.00"> translation</text>
</g>
<!-- Node7&#45;&gt;Node1 -->
<g id="edge6" class="edge">
<title>Node7&#45;&gt;Node1</title>
<path fill="none" stroke="#9a32cd" stroke-dasharray="5,2" d="M426.09,-344.87C482.47,-341.31 550.36,-337.03 591.83,-334.41"/>
<polygon fill="#9a32cd" stroke="#9a32cd" points="425.82,-341.38 416.06,-345.5 426.26,-348.37 425.82,-341.38"/>
<text text-anchor="middle" x="504" y="-348" font-family="Helvetica,sans-Serif" font-size="10.00"> visualReferenceRepresentation</text>
</g>
<!-- Node8 -->
<g id="node8" class="node">
<title>Node8</title>
<g id="a_node8"><a xlink:title=" ">
<polygon fill="white" stroke="#666666" points="66,-132.5 20,-132.5 20,-113.5 66,-113.5 66,-132.5"/>
<text text-anchor="middle" x="43" y="-120.5" font-family="Helvetica,sans-Serif" font-size="10.00">int64_t</text>
</a>
</g>
</g>
<!-- Node8&#45;&gt;Node7 -->
<g id="edge7" class="edge">
<title>Node8&#45;&gt;Node7</title>
<path fill="none" stroke="#9a32cd" stroke-dasharray="5,2" d="M47.56,-142.5C53.81,-171.09 69.52,-224.1 104,-253 145.55,-287.83 181.76,-247.66 222,-284 238.91,-299.27 222.77,-317.09 240,-332 244.44,-335.84 249.48,-338.97 254.84,-341.49"/>
<polygon fill="#9a32cd" stroke="#9a32cd" points="50.95,-141.63 45.55,-132.52 44.09,-143.02 50.95,-141.63"/>
<text text-anchor="middle" x="163" y="-309" font-family="Helvetica,sans-Serif" font-size="10.00"> imageMaskSize</text>
<text text-anchor="middle" x="163" y="-298" font-family="Helvetica,sans-Serif" font-size="10.00">jpegImageSize</text>
<text text-anchor="middle" x="163" y="-287" font-family="Helvetica,sans-Serif" font-size="10.00">pngImageSize</text>
</g>
<!-- Node8&#45;&gt;Node9 -->
<g id="edge10" class="edge">
<title>Node8&#45;&gt;Node9</title>
<path fill="none" stroke="#9a32cd" stroke-dasharray="5,2" d="M69.5,-137.29C79.92,-142.61 92.27,-148.25 104,-152 154.67,-168.18 183.19,-135.62 222,-172 247.33,-195.74 221.06,-218.91 240,-248 256.86,-273.89 287.52,-293.57 307.57,-304.45"/>
<polygon fill="#9a32cd" stroke="#9a32cd" points="71.02,-134.14 60.54,-132.57 67.75,-140.33 71.02,-134.14"/>
<text text-anchor="middle" x="163" y="-197" font-family="Helvetica,sans-Serif" font-size="10.00"> imageMaskSize</text>
<text text-anchor="middle" x="163" y="-186" font-family="Helvetica,sans-Serif" font-size="10.00">jpegImageSize</text>
<text text-anchor="middle" x="163" y="-175" font-family="Helvetica,sans-Serif" font-size="10.00">pngImageSize</text>
</g>
<!-- Node8&#45;&gt;Node10 -->
<g id="edge13" class="edge">
<title>Node8&#45;&gt;Node10</title>
<path fill="none" stroke="#9a32cd" stroke-dasharray="5,2" d="M48.66,-103.69C55.84,-78.78 72.21,-36.45 104,-18 149.36,8.33 173.83,2.74 222,-18 271.46,-39.29 308.5,-96.61 321.72,-119.43"/>
<polygon fill="#9a32cd" stroke="#9a32cd" points="45.25,-102.91 46.06,-113.47 52.02,-104.71 45.25,-102.91"/>
<text text-anchor="middle" x="163" y="-43" font-family="Helvetica,sans-Serif" font-size="10.00"> imageMaskSize</text>
<text text-anchor="middle" x="163" y="-32" font-family="Helvetica,sans-Serif" font-size="10.00">jpegImageSize</text>
<text text-anchor="middle" x="163" y="-21" font-family="Helvetica,sans-Serif" font-size="10.00">pngImageSize</text>
</g>
<!-- Node8&#45;&gt;Node11 -->
<g id="edge16" class="edge">
<title>Node8&#45;&gt;Node11</title>
<path fill="none" stroke="#9a32cd" stroke-dasharray="5,2" d="M58.93,-105.77C70.04,-94.33 86.3,-80.31 104,-74 153.4,-56.39 180.72,-41.66 222,-74 248.31,-94.61 223.24,-118.09 240,-147 258.53,-178.96 293.03,-206.4 312.55,-220.3"/>
<polygon fill="#9a32cd" stroke="#9a32cd" points="56.33,-103.43 52.1,-113.14 61.46,-108.18 56.33,-103.43"/>
<text text-anchor="middle" x="163" y="-99" font-family="Helvetica,sans-Serif" font-size="10.00"> imageMaskSize</text>
<text text-anchor="middle" x="163" y="-88" font-family="Helvetica,sans-Serif" font-size="10.00">jpegImageSize</text>
<text text-anchor="middle" x="163" y="-77" font-family="Helvetica,sans-Serif" font-size="10.00">pngImageSize</text>
</g>
<!-- Node9&#45;&gt;Node1 -->
<g id="edge9" class="edge">
<title>Node9&#45;&gt;Node1</title>
<path fill="none" stroke="#9a32cd" stroke-dasharray="5,2" d="M406.75,-310.03C455.1,-308.77 518.43,-309.34 574,-317 582.48,-318.17 591.5,-320.21 599.77,-322.42"/>
<polygon fill="#9a32cd" stroke="#9a32cd" points="406.56,-306.53 396.67,-310.32 406.77,-313.53 406.56,-306.53"/>
<text text-anchor="middle" x="504" y="-320" font-family="Helvetica,sans-Serif" font-size="10.00"> pinholeRepresentation</text>
</g>
<!-- Node10&#45;&gt;Node1 -->
<g id="edge12" class="edge">
<title>Node10&#45;&gt;Node1</title>
<path fill="none" stroke="#9a32cd" stroke-dasharray="5,2" d="M380.6,-141.32C434.1,-156.25 517.65,-185.85 574,-236 601.96,-260.88 619.7,-303.18 626.66,-322.21"/>
<polygon fill="#9a32cd" stroke="#9a32cd" points="381.21,-137.86 370.65,-138.61 379.38,-144.61 381.21,-137.86"/>
<text text-anchor="middle" x="504" y="-239" font-family="Helvetica,sans-Serif" font-size="10.00"> sphericalRepresentation</text>
</g>
<!-- Node11&#45;&gt;Node1 -->
<g id="edge15" class="edge">
<title>Node11&#45;&gt;Node1</title>
<path fill="none" stroke="#9a32cd" stroke-dasharray="5,2" d="M395.06,-241.47C445.52,-251.65 516.03,-269 574,-295 590.16,-302.25 606.87,-313.93 617.78,-322.23"/>
<polygon fill="#9a32cd" stroke="#9a32cd" points="395.73,-238.03 385.24,-239.52 394.37,-244.9 395.73,-238.03"/>
<text text-anchor="middle" x="504" y="-298" font-family="Helvetica,sans-Serif" font-size="10.00"> cylindricalRepresentation</text>
</g>
</g>
</svg>
        <g id="navigator" transform="translate(0 0)" fill="#404254">
                <rect fill="#f2f5e9" fill-opacity="0.5" stroke="#606060" stroke-width=".5" x="0" y="0" width="60" height="60"/>
                <use id="zoomplus" xlink:href="#zoomPlus" x="17" y="9" onmousedown="handleZoom(evt,'in')"/>
                <use id="zoomminus" xlink:href="#zoomMin" x="42" y="9" onmousedown="handleZoom(evt,'out')"/>
                <use id="reset" xlink:href="#resetDef" x="30" y="36" onmousedown="handleReset()"/>
                <g id="arrowUp" xlink:href="#dirArrow" transform="translate(30 24)" onmousedown="handlePan(0,-1)">
                  <use xlink:href="#rim" fill="#404040">
                        <set attributeName="fill" to="#808080" begin="arrowUp.mouseover" end="arrowUp.mouseout"/>
                  </use>
                  <path fill="none" stroke="white" stroke-width="1.5" d="M0,-3.0v7 M-2.5,-0.5L0,-3.0L2.5,-0.5"/>
                </g>
                <g id="arrowRight" xlink:href="#dirArrow" transform="rotate(90) translate(36 -43)" onmousedown="handlePan(1,0)">
                  <use xlink:href="#rim" fill="#404040">
                        <set attributeName="fill" to="#808080" begin="arrowRight.mouseover" end="arrowRight.mouseout"/>
                  </use>
                  <path fill="none" stroke="white" stroke-width="1.5" d="M0,-3.0v7 M-2.5,-0.5L0,-3.0L2.5,-0.5"/>
                </g>
                <g id="arrowDown" xlink:href="#dirArrow" transform="rotate(180) translate(-30 -48)" onmousedown="handlePan(0,1)">
                  <use xlink:href="#rim" fill="#404040">
                        <set attributeName="fill" to="#808080" begin="arrowDown.mouseover" end="arrowDown.mouseout"/>
                  </use>
                  <path fill="none" stroke="white" stroke-width="1.5" d="M0,-3.0v7 M-2.5,-0.5L0,-3.0L2.5,-0.5"/>
                </g>
                <g id="arrowLeft" xlink:href="#dirArrow" transform="rotate(270) translate(-36 17)" onmousedown="handlePan(-1,0)">
                  <use xlink:href="#rim" fill="#404040">
                        <set attributeName="fill" to="#808080" begin="arrowLeft.mouseover" end="arrowLeft.mouseout"/>
                  </use>
                  <path fill="none" stroke="white" stroke-width="1.5" d="M0,-3.0v7 M-2.5,-0.5L0,-3.0L2.5,-0.5"/>
                </g>
        </g>
        <svg viewBox="0 0 15 15" width="100%" height="30px" preserveAspectRatio="xMaxYMin meet">
         <g id="arrow_out" transform="scale(0.3 0.3)">
          <a xlink:href="structe57_1_1_image2_d__coll__graph_org.svg" target="_base">
           <rect id="button" ry="5" rx="5" y="6" x="6" height="38" width="38"
                fill="#f2f5e9" fill-opacity="0.5" stroke="#606060" stroke-width="1.0"/>
           <path id="arrow"
             d="M 11.500037,31.436501 C 11.940474,20.09759 22.043105,11.32322 32.158766,21.979434 L 37.068811,17.246167 C 37.068811,17.246167 37.088388,32 37.088388,32 L 22.160133,31.978069 C 22.160133,31.978069 26.997745,27.140456 26.997745,27.140456 C 18.528582,18.264221 13.291696,25.230495 11.500037,31.436501 z"
             style="fill:#404040;"/>
          </a>
         </g>
        </svg>
</svg>
