<?xml version="1.0" encoding="UTF-8" standalone="no"?>
<!DOCTYPE svg PUBLIC "-//W3C//DTD SVG 1.1//EN"
 "http://www.w3.org/Graphics/SVG/1.1/DTD/svg11.dtd">
<!-- Generated by graphviz version 8.1.0 (20230707.0739)
 -->
<!-- Title: e57::Image2D Pages: 1 -->
<!--zoomable 517 -->
<svg id="main" version="1.1" xmlns="http://www.w3.org/2000/svg" xmlns:xlink="http://www.w3.org/1999/xlink" xml:space="preserve" onload="init(evt)">
<style type="text/css"><![CDATA[
.edge:hover path { stroke: red; }
.edge:hover polygon { stroke: red; fill: red; }
]]></style>
<script type="text/javascript"><![CDATA[
var edges = document.getElementsByTagName('g');
if (edges && edges.length) {
  for (var i=0;i<edges.length;i++) {
    if (edges[i].id.substr(0,4)=='edge') {
      edges[i].setAttribute('class','edge');
    }
  }
}
]]></script>
        <defs>
                <circle id="rim" cx="0" cy="0" r="7"/>
                <circle id="rim2" cx="0" cy="0" r="3.5"/>
                <g id="zoomPlus">
                        <use xlink:href="#rim" fill="#404040">
                                <set attributeName="fill" to="#808080" begin="zoomplus.mouseover" end="zoomplus.mouseout"/>
                        </use>
                        <path d="M-4,0h8M0,-4v8" fill="none" stroke="white" stroke-width="1.5" pointer-events="none"/>
                </g>
                <g id="zoomMin">
                        <use xlink:href="#rim" fill="#404040">
                                <set attributeName="fill" to="#808080" begin="zoomminus.mouseover" end="zoomminus.mouseout"/>
                        </use>
                        <path d="M-4,0h8" fill="none" stroke="white" stroke-width="1.5" pointer-events="none"/>
                </g>
                <g id="dirArrow">
                        <path fill="none" stroke="white" stroke-width="1.5" d="M0,-3.0v7 M-2.5,-0.5L0,-3.0L2.5,-0.5"/>
                </g>
               <g id="resetDef">
                       <use xlink:href="#rim2" fill="#404040">
                               <set attributeName="fill" to="#808080" begin="reset.mouseover" end="reset.mouseout"/>
                       </use>
               </g>
        </defs>

<script type="text/javascript">
var viewWidth = 676;
var viewHeight = 517;
var sectionId = 'dynsection-0';
</script>
<script xlink:href="../../svgpan.js"/>
<svg id="graph" class="graph">
<g id="viewport">
<title>e57::Image2D</title>
<!-- Node1 -->
<g id="node1" class="node">
<title>Node1</title>
<g id="a_node1"><a xlink:title="Stores an image from a camera.">
<polygon fill="#999999" stroke="#666666" points="667.5,-331.4 590,-331.4 590,-312.15 667.5,-312.15 667.5,-331.4"/>
<text text-anchor="middle" x="628.75" y="-317.9" font-family="Helvetica,sans-Serif" font-size="10.00">e57::Image2D</text>
</a>
</g>
</g>
<!-- Node2 -->
<g id="node2" class="node">
<title>Node2</title>
<g id="a_node2"><a xlink:href="../../d1/dd7/structe57_1_1_date_time.html" target="_top" xlink:title="Encodes date and time.">
<polygon fill="white" stroke="#666666" points="366.88,-411.4 286.38,-411.4 286.38,-392.15 366.88,-392.15 366.88,-411.4"/>
<text text-anchor="middle" x="326.62" y="-397.9" font-family="Helvetica,sans-Serif" font-size="10.00">e57::DateTime</text>
</a>
</g>
</g>
<!-- Node2&#45;&gt;Node1 -->
<g id="edge1" class="edge">
<title>Node2&#45;&gt;Node1</title>
<path fill="none" stroke="#9a32cd" stroke-dasharray="5,2" d="M377.85,-394.94C427.98,-387.22 506.74,-372.68 572,-349.78 585.49,-345.04 599.89,-337.74 610.68,-331.79"/>
<polygon fill="#9a32cd" stroke="#9a32cd" points="377.35,-391.62 367.98,-396.57 378.39,-398.55 377.35,-391.62"/>
<text text-anchor="middle" x="502.25" y="-387.53" font-family="Helvetica,sans-Serif" font-size="10.00"> acquisitionDateTime</text>
</g>
<!-- Node3 -->
<g id="node3" class="node">
<title>Node3</title>
<g id="a_node3"><a xlink:title=" ">
<polygon fill="white" stroke="#666666" points="65.5,-346.4 20.25,-346.4 20.25,-327.15 65.5,-327.15 65.5,-346.4"/>
<text text-anchor="middle" x="42.88" y="-332.9" font-family="Helvetica,sans-Serif" font-size="10.00">int32_t</text>
</a>
</g>
</g>
<!-- Node3&#45;&gt;Node2 -->
<g id="edge2" class="edge">
<title>Node3&#45;&gt;Node2</title>
<path fill="none" stroke="#9a32cd" stroke-dasharray="5,2" d="M57.23,-354.84C68.12,-367.99 84.76,-384.83 103.75,-392.78 163.5,-417.77 240.38,-413.84 286.18,-408.18"/>
<polygon fill="#9a32cd" stroke="#9a32cd" points="59.59,-353.18 50.65,-347.48 54.09,-357.5 59.59,-353.18"/>
<text text-anchor="middle" x="162.25" y="-414.53" font-family="Helvetica,sans-Serif" font-size="10.00"> isAtomicClockReferenced</text>
</g>
<!-- Node7 -->
<g id="node7" class="node">
<title>Node7</title>
<g id="a_node7"><a xlink:href="../../d9/d81/structe57_1_1_visual_reference_representation.html" target="_top" xlink:title="Stores an image that is to be used only as a visual reference.">
<polygon fill="white" stroke="#666666" points="414.5,-350.4 238.75,-350.4 238.75,-331.15 414.5,-331.15 414.5,-350.4"/>
<text text-anchor="middle" x="326.62" y="-336.9" font-family="Helvetica,sans-Serif" font-size="10.00">e57::VisualReferenceRepresentation</text>
</a>
</g>
</g>
<!-- Node3&#45;&gt;Node7 -->
<g id="edge8" class="edge">
<title>Node3&#45;&gt;Node7</title>
<path fill="none" stroke="#9a32cd" stroke-dasharray="5,2" d="M73.57,-351.27C82.99,-355.15 93.6,-358.82 103.75,-360.78 166.98,-372.98 241.82,-360.85 286.41,-350.87"/>
<polygon fill="#9a32cd" stroke="#9a32cd" points="75.09,-347.67 64.53,-346.86 72.28,-354.08 75.09,-347.67"/>
<text text-anchor="middle" x="162.25" y="-379.78" font-family="Helvetica,sans-Serif" font-size="10.00"> imageHeight</text>
<text text-anchor="middle" x="162.25" y="-368.53" font-family="Helvetica,sans-Serif" font-size="10.00">imageWidth</text>
</g>
<!-- Node9 -->
<g id="node9" class="node">
<title>Node9</title>
<g id="a_node9"><a xlink:href="../../dd/d7a/structe57_1_1_pinhole_representation.html" target="_top" xlink:title="Stores an image that is mapped from 3D using the pinhole camera projection model.">
<polygon fill="white" stroke="#666666" points="394.62,-313.4 258.62,-313.4 258.62,-294.15 394.62,-294.15 394.62,-313.4"/>
<text text-anchor="middle" x="326.62" y="-299.9" font-family="Helvetica,sans-Serif" font-size="10.00">e57::PinholeRepresentation</text>
</a>
</g>
</g>
<!-- Node3&#45;&gt;Node9 -->
<g id="edge11" class="edge">
<title>Node3&#45;&gt;Node9</title>
<path fill="none" stroke="#9a32cd" stroke-dasharray="5,2" d="M76.7,-332.93C121.01,-327.74 200.98,-318.37 258.33,-311.66"/>
<polygon fill="#9a32cd" stroke="#9a32cd" points="76.51,-329.55 66.98,-334.19 77.32,-336.5 76.51,-329.55"/>
<text text-anchor="middle" x="162.25" y="-342.78" font-family="Helvetica,sans-Serif" font-size="10.00"> imageHeight</text>
<text text-anchor="middle" x="162.25" y="-331.53" font-family="Helvetica,sans-Serif" font-size="10.00">imageWidth</text>
</g>
<!-- Node10 -->
<g id="node10" class="node">
<title>Node10</title>
<g id="a_node10"><a xlink:href="../../d9/d2d/structe57_1_1_spherical_representation.html" target="_top" xlink:title="Stores an image that is mapped from 3D using a spherical projection model.">
<polygon fill="white" stroke="#666666" points="398.75,-140.4 254.5,-140.4 254.5,-121.15 398.75,-121.15 398.75,-140.4"/>
<text text-anchor="middle" x="326.62" y="-126.9" font-family="Helvetica,sans-Serif" font-size="10.00">e57::SphericalRepresentation</text>
</a>
</g>
</g>
<!-- Node3&#45;&gt;Node10 -->
<g id="edge14" class="edge">
<title>Node3&#45;&gt;Node10</title>
<path fill="none" stroke="#9a32cd" stroke-dasharray="5,2" d="M46.65,-316.16C53.58,-268.15 73.31,-151.2 103.75,-128.28 126.71,-110.98 198.31,-114.7 254.04,-120.81"/>
<polygon fill="#9a32cd" stroke="#9a32cd" points="43.08,-315.4 45.17,-325.79 50.02,-316.37 43.08,-315.4"/>
<text text-anchor="middle" x="162.25" y="-141.78" font-family="Helvetica,sans-Serif" font-size="10.00"> imageHeight</text>
<text text-anchor="middle" x="162.25" y="-130.53" font-family="Helvetica,sans-Serif" font-size="10.00">imageWidth</text>
</g>
<!-- Node11 -->
<g id="node11" class="node">
<title>Node11</title>
<g id="a_node11"><a xlink:href="../../df/d8e/structe57_1_1_cylindrical_representation.html" target="_top" xlink:title="Stores an image that is mapped from 3D using a cylindrical projection model.">
<polygon fill="white" stroke="#666666" points="401.38,-243.4 251.88,-243.4 251.88,-224.15 401.38,-224.15 401.38,-243.4"/>
<text text-anchor="middle" x="326.62" y="-229.9" font-family="Helvetica,sans-Serif" font-size="10.00">e57::CylindricalRepresentation</text>
</a>
</g>
</g>
<!-- Node3&#45;&gt;Node11 -->
<g id="edge17" class="edge">
<title>Node3&#45;&gt;Node11</title>
<path fill="none" stroke="#9a32cd" stroke-dasharray="5,2" d="M49.26,-316.42C56.9,-292.16 73.43,-252.73 103.75,-235.28 161.51,-202.03 242.53,-213.03 288.99,-223.66"/>
<polygon fill="#9a32cd" stroke="#9a32cd" points="45.64,-315.36 46.21,-325.94 52.36,-317.31 45.64,-315.36"/>
<text text-anchor="middle" x="162.25" y="-248.78" font-family="Helvetica,sans-Serif" font-size="10.00"> imageHeight</text>
<text text-anchor="middle" x="162.25" y="-237.53" font-family="Helvetica,sans-Serif" font-size="10.00">imageWidth</text>
</g>
<!-- Node4 -->
<g id="node4" class="node">
<title>Node4</title>
<g id="a_node4"><a xlink:href="../../d2/df3/structe57_1_1_rigid_body_transform.html" target="_top" xlink:title="Defines a rigid body transform in cartesian coordinates.">
<polygon fill="white" stroke="#666666" points="390.12,-472.4 263.12,-472.4 263.12,-453.15 390.12,-453.15 390.12,-472.4"/>
<text text-anchor="middle" x="326.62" y="-458.9" font-family="Helvetica,sans-Serif" font-size="10.00">e57::RigidBodyTransform</text>
</a>
</g>
</g>
<!-- Node4&#45;&gt;Node1 -->
<g id="edge3" class="edge">
<title>Node4&#45;&gt;Node1</title>
<path fill="none" stroke="#9a32cd" stroke-dasharray="5,2" d="M401.28,-457.55C452.89,-450.84 521.41,-435.56 572,-400.78 598,-382.89 615.88,-348.67 623.54,-331.75"/>
<polygon fill="#9a32cd" stroke="#9a32cd" points="401.04,-454.17 391.53,-458.85 401.88,-461.12 401.04,-454.17"/>
<text text-anchor="middle" x="502.25" y="-454.53" font-family="Helvetica,sans-Serif" font-size="10.00"> pose</text>
</g>
<!-- Node5 -->
<g id="node5" class="node">
<title>Node5</title>
<g id="a_node5"><a xlink:href="../../dc/da9/structe57_1_1_quaternion.html" target="_top" xlink:title="Represents a rigid body rotation.">
<polygon fill="white" stroke="#666666" points="85.38,-472.4 0.38,-472.4 0.38,-453.15 85.38,-453.15 85.38,-472.4"/>
<text text-anchor="middle" x="42.88" y="-458.9" font-family="Helvetica,sans-Serif" font-size="10.00">e57::Quaternion</text>
</a>
</g>
</g>
<!-- Node5&#45;&gt;Node4 -->
<g id="edge4" class="edge">
<title>Node5&#45;&gt;Node4</title>
<path fill="none" stroke="#9a32cd" stroke-dasharray="5,2" d="M96.63,-462.78C143.69,-462.78 212.68,-462.78 262.63,-462.78"/>
<polygon fill="#9a32cd" stroke="#9a32cd" points="96.75,-459.28 86.75,-462.78 96.75,-466.28 96.75,-459.28"/>
<text text-anchor="middle" x="162.25" y="-464.53" font-family="Helvetica,sans-Serif" font-size="10.00"> rotation</text>
</g>
<!-- Node6 -->
<g id="node6" class="node">
<title>Node6</title>
<g id="a_node6"><a xlink:href="../../d6/dad/structe57_1_1_translation.html" target="_top" xlink:title="Defines a rigid body translation in Cartesian coordinates.">
<polygon fill="white" stroke="#666666" points="85.75,-509.4 0,-509.4 0,-490.15 85.75,-490.15 85.75,-509.4"/>
<text text-anchor="middle" x="42.88" y="-495.9" font-family="Helvetica,sans-Serif" font-size="10.00">e57::Translation</text>
</a>
</g>
</g>
<!-- Node6&#45;&gt;Node4 -->
<g id="edge5" class="edge">
<title>Node6&#45;&gt;Node4</title>
<path fill="none" stroke="#9a32cd" stroke-dasharray="5,2" d="M96.58,-493.48C131.77,-489.21 179.06,-483.35 220.75,-477.78 234.33,-475.96 248.89,-473.93 262.71,-471.97"/>
<polygon fill="#9a32cd" stroke="#9a32cd" points="96.58,-490.07 87.07,-494.75 97.42,-497.02 96.58,-490.07"/>
<text text-anchor="middle" x="162.25" y="-494.53" font-family="Helvetica,sans-Serif" font-size="10.00"> translation</text>
</g>
<!-- Node7&#45;&gt;Node1 -->
<g id="edge6" class="edge">
<title>Node7&#45;&gt;Node1</title>
<path fill="none" stroke="#9a32cd" stroke-dasharray="5,2" d="M425.53,-334.58C481.58,-331.03 548.72,-326.78 589.79,-324.18"/>
<polygon fill="#9a32cd" stroke="#9a32cd" points="425.6,-331.13 415.84,-335.25 426.04,-338.12 425.6,-331.13"/>
<text text-anchor="middle" x="502.25" y="-336.53" font-family="Helvetica,sans-Serif" font-size="10.00"> visualReferenceRepresentation</text>
</g>
<!-- Node8 -->
<g id="node8" class="node">
<title>Node8</title>
<g id="a_node8"><a xlink:title=" ">
<polygon fill="white" stroke="#666666" points="65.5,-135.4 20.25,-135.4 20.25,-116.15 65.5,-116.15 65.5,-135.4"/>
<text text-anchor="middle" x="42.88" y="-121.9" font-family="Helvetica,sans-Serif" font-size="10.00">int64_t</text>
</a>
</g>
</g>
<!-- Node8&#45;&gt;Node7 -->
<g id="edge7" class="edge">
<title>Node8&#45;&gt;Node7</title>
<path fill="none" stroke="#9a32cd" stroke-dasharray="5,2" d="M47.11,-146.32C52.91,-175.87 68,-229.89 103.75,-257.78 145.43,-290.28 179.66,-245.79 220.75,-279.03 237.1,-292.25 222.57,-309.35 238.75,-322.78 242.54,-325.92 246.75,-328.56 251.2,-330.78"/>
<polygon fill="#9a32cd" stroke="#9a32cd" points="50.41,-145.86 45.21,-136.63 43.52,-147.09 50.41,-145.86"/>
<text text-anchor="middle" x="162.25" y="-304.03" font-family="Helvetica,sans-Serif" font-size="10.00"> imageMaskSize</text>
<text text-anchor="middle" x="162.25" y="-292.78" font-family="Helvetica,sans-Serif" font-size="10.00">jpegImageSize</text>
<text text-anchor="middle" x="162.25" y="-281.53" font-family="Helvetica,sans-Serif" font-size="10.00">pngImageSize</text>
</g>
<!-- Node8&#45;&gt;Node9 -->
<g id="edge10" class="edge">
<title>Node8&#45;&gt;Node9</title>
<path fill="none" stroke="#9a32cd" stroke-dasharray="5,2" d="M70.87,-140.78C80.94,-145.85 92.63,-151.15 103.75,-154.78 153.99,-171.17 182.44,-139.61 220.75,-176.03 246.14,-200.16 217.96,-224.57 238.75,-252.78 253.17,-272.34 277.55,-285.7 296.81,-293.82"/>
<polygon fill="#9a32cd" stroke="#9a32cd" points="72.91,-137.37 62.42,-135.85 69.67,-143.58 72.91,-137.37"/>
<text text-anchor="middle" x="162.25" y="-201.03" font-family="Helvetica,sans-Serif" font-size="10.00"> imageMaskSize</text>
<text text-anchor="middle" x="162.25" y="-189.78" font-family="Helvetica,sans-Serif" font-size="10.00">jpegImageSize</text>
<text text-anchor="middle" x="162.25" y="-178.53" font-family="Helvetica,sans-Serif" font-size="10.00">pngImageSize</text>
</g>
<!-- Node8&#45;&gt;Node10 -->
<g id="edge13" class="edge">
<title>Node8&#45;&gt;Node10</title>
<path fill="none" stroke="#9a32cd" stroke-dasharray="5,2" d="M48.56,-105.26C55.63,-79.62 71.76,-36.85 103.75,-18.03 148.57,8.34 173.08,2.74 220.75,-18.03 270.26,-39.59 306.93,-97.32 320.2,-120.72"/>
<polygon fill="#9a32cd" stroke="#9a32cd" points="44.98,-104.13 45.92,-114.68 51.77,-105.84 44.98,-104.13"/>
<text text-anchor="middle" x="162.25" y="-43.03" font-family="Helvetica,sans-Serif" font-size="10.00"> imageMaskSize</text>
<text text-anchor="middle" x="162.25" y="-31.78" font-family="Helvetica,sans-Serif" font-size="10.00">jpegImageSize</text>
<text text-anchor="middle" x="162.25" y="-20.53" font-family="Helvetica,sans-Serif" font-size="10.00">pngImageSize</text>
</g>
<!-- Node8&#45;&gt;Node11 -->
<g id="edge16" class="edge">
<title>Node8&#45;&gt;Node11</title>
<path fill="none" stroke="#9a32cd" stroke-dasharray="5,2" d="M58.58,-108.01C69.61,-96.16 85.84,-81.6 103.75,-75.03 152.57,-57.12 179.9,-42.85 220.75,-75.03 247.59,-96.17 221.79,-120.11 238.75,-149.78 257.07,-181.83 291.26,-209.51 310.84,-223.68"/>
<polygon fill="#9a32cd" stroke="#9a32cd" points="56.51,-105.19 52.52,-115 61.76,-109.83 56.51,-105.19"/>
<text text-anchor="middle" x="162.25" y="-100.03" font-family="Helvetica,sans-Serif" font-size="10.00"> imageMaskSize</text>
<text text-anchor="middle" x="162.25" y="-88.78" font-family="Helvetica,sans-Serif" font-size="10.00">jpegImageSize</text>
<text text-anchor="middle" x="162.25" y="-77.53" font-family="Helvetica,sans-Serif" font-size="10.00">pngImageSize</text>
</g>
<!-- Node9&#45;&gt;Node1 -->
<g id="edge9" class="edge">
<title>Node9&#45;&gt;Node1</title>
<path fill="none" stroke="#9a32cd" stroke-dasharray="5,2" d="M405.84,-299.6C453.99,-298.28 516.84,-298.8 572,-306.53 580.05,-307.65 588.59,-309.59 596.5,-311.72"/>
<polygon fill="#9a32cd" stroke="#9a32cd" points="405.76,-296.13 395.87,-299.94 405.97,-303.13 405.76,-296.13"/>
<text text-anchor="middle" x="502.25" y="-308.53" font-family="Helvetica,sans-Serif" font-size="10.00"> pinholeRepresentation</text>
</g>
<!-- Node10&#45;&gt;Node1 -->
<g id="edge12" class="edge">
<title>Node10&#45;&gt;Node1</title>
<path fill="none" stroke="#9a32cd" stroke-dasharray="5,2" d="M384.14,-143.67C437.36,-158.1 516.92,-185.8 572,-232.53 598.61,-255.1 616.55,-293.67 623.94,-311.8"/>
<polygon fill="#9a32cd" stroke="#9a32cd" points="385.09,-140.04 374.53,-140.87 383.31,-146.81 385.09,-140.04"/>
<text text-anchor="middle" x="502.25" y="-234.53" font-family="Helvetica,sans-Serif" font-size="10.00"> sphericalRepresentation</text>
</g>
<!-- Node11&#45;&gt;Node1 -->
<g id="edge15" class="edge">
<title>Node11&#45;&gt;Node1</title>
<path fill="none" stroke="#9a32cd" stroke-dasharray="5,2" d="M412.43,-243.22C460.58,-250.57 521.19,-263.23 572,-284.53 588.32,-291.36 604.91,-303.21 615.7,-311.71"/>
<polygon fill="#9a32cd" stroke="#9a32cd" points="413.13,-239.64 402.73,-241.64 412.11,-246.56 413.13,-239.64"/>
<text text-anchor="middle" x="502.25" y="-286.53" font-family="Helvetica,sans-Serif" font-size="10.00"> cylindricalRepresentation</text>
</g>
</g>
</svg>
        <g id="navigator" transform="translate(0 0)" fill="#404254">
                <rect fill="#f2f5e9" fill-opacity="0.5" stroke="#606060" stroke-width=".5" x="0" y="0" width="60" height="60"/>
                <use id="zoomplus" xlink:href="#zoomPlus" x="17" y="9" onmousedown="handleZoom(evt,'in')"/>
                <use id="zoomminus" xlink:href="#zoomMin" x="42" y="9" onmousedown="handleZoom(evt,'out')"/>
                <use id="reset" xlink:href="#resetDef" x="30" y="36" onmousedown="handleReset()"/>
                <g id="arrowUp" xlink:href="#dirArrow" transform="translate(30 24)" onmousedown="handlePan(0,-1)">
                  <use xlink:href="#rim" fill="#404040">
                        <set attributeName="fill" to="#808080" begin="arrowUp.mouseover" end="arrowUp.mouseout"/>
                  </use>
                  <path fill="none" stroke="white" stroke-width="1.5" d="M0,-3.0v7 M-2.5,-0.5L0,-3.0L2.5,-0.5"/>
                </g>
                <g id="arrowRight" xlink:href="#dirArrow" transform="rotate(90) translate(36 -43)" onmousedown="handlePan(1,0)">
                  <use xlink:href="#rim" fill="#404040">
                        <set attributeName="fill" to="#808080" begin="arrowRight.mouseover" end="arrowRight.mouseout"/>
                  </use>
                  <path fill="none" stroke="white" stroke-width="1.5" d="M0,-3.0v7 M-2.5,-0.5L0,-3.0L2.5,-0.5"/>
                </g>
                <g id="arrowDown" xlink:href="#dirArrow" transform="rotate(180) translate(-30 -48)" onmousedown="handlePan(0,1)">
                  <use xlink:href="#rim" fill="#404040">
                        <set attributeName="fill" to="#808080" begin="arrowDown.mouseover" end="arrowDown.mouseout"/>
                  </use>
                  <path fill="none" stroke="white" stroke-width="1.5" d="M0,-3.0v7 M-2.5,-0.5L0,-3.0L2.5,-0.5"/>
                </g>
                <g id="arrowLeft" xlink:href="#dirArrow" transform="rotate(270) translate(-36 17)" onmousedown="handlePan(-1,0)">
                  <use xlink:href="#rim" fill="#404040">
                        <set attributeName="fill" to="#808080" begin="arrowLeft.mouseover" end="arrowLeft.mouseout"/>
                  </use>
                  <path fill="none" stroke="white" stroke-width="1.5" d="M0,-3.0v7 M-2.5,-0.5L0,-3.0L2.5,-0.5"/>
                </g>
        </g>
        <svg viewBox="0 0 15 15" width="100%" height="30px" preserveAspectRatio="xMaxYMin meet">
         <g id="arrow_out" transform="scale(0.3 0.3)">
          <a xlink:href="structe57_1_1_image2_d__coll__graph_org.svg" target="_base">
           <rect id="button" ry="5" rx="5" y="6" x="6" height="38" width="38"
                fill="#f2f5e9" fill-opacity="0.5" stroke="#606060" stroke-width="1.0"/>
           <path id="arrow"
             d="M 11.500037,31.436501 C 11.940474,20.09759 22.043105,11.32322 32.158766,21.979434 L 37.068811,17.246167 C 37.068811,17.246167 37.088388,32 37.088388,32 L 22.160133,31.978069 C 22.160133,31.978069 26.997745,27.140456 26.997745,27.140456 C 18.528582,18.264221 13.291696,25.230495 11.500037,31.436501 z"
             style="fill:#404040;"/>
          </a>
         </g>
        </svg>
</svg>
