<?xml version="1.0" encoding="UTF-8" standalone="no"?>
<!DOCTYPE svg PUBLIC "-//W3C//DTD SVG 1.1//EN"
 "http://www.w3.org/Graphics/SVG/1.1/DTD/svg11.dtd">
<!-- Generated by graphviz version 7.0.0 (20221023.0053)
 -->
<!-- Title: e57::Image2D Pages: 1 -->
<svg width="678pt" height="509pt"
 viewBox="0.00 0.00 678.00 509.50" xmlns="http://www.w3.org/2000/svg" xmlns:xlink="http://www.w3.org/1999/xlink">
<g id="graph0" class="graph" transform="scale(1 1) rotate(0) translate(4 505.5)">
<title>e57::Image2D</title>
<!-- Node1 -->
<g id="node1" class="node">
<title>Node1</title>
<g id="a_node1"><a xlink:title="Stores an image from a camera.">
<polygon fill="#999999" stroke="#666666" points="670,-341.5 592,-341.5 592,-322.5 670,-322.5 670,-341.5"/>
<text text-anchor="middle" x="631" y="-329.5" font-family="Helvetica,sans-Serif" font-size="10.00">e57::Image2D</text>
</a>
</g>
</g>
<!-- Node2 -->
<g id="node2" class="node">
<title>Node2</title>
<g id="a_node2"><a xlink:href="../../d1/dd7/structe57_1_1_date_time.html" target="_top" xlink:title="Encodes date and time.">
<polygon fill="white" stroke="#666666" points="368.5,-414.5 287.5,-414.5 287.5,-395.5 368.5,-395.5 368.5,-414.5"/>
<text text-anchor="middle" x="328" y="-402.5" font-family="Helvetica,sans-Serif" font-size="10.00">e57::DateTime</text>
</a>
</g>
</g>
<!-- Node2&#45;&gt;Node1 -->
<g id="edge1" class="edge">
<title>Node2&#45;&gt;Node1</title>
<path fill="none" stroke="#9a32cd" stroke-dasharray="5,2" d="M380.12,-399.86C430.42,-393.83 508.93,-381.75 574,-360 587.81,-355.38 602.51,-347.92 613.38,-341.87"/>
<polygon fill="#9a32cd" stroke="#9a32cd" points="379.93,-396.36 370.4,-400.99 380.74,-403.31 379.93,-396.36"/>
<text text-anchor="middle" x="504" y="-395" font-family="Helvetica,sans-Serif" font-size="10.00"> acquisitionDateTime</text>
</g>
<!-- Node3 -->
<g id="node3" class="node">
<title>Node3</title>
<g id="a_node3"><a xlink:title=" ">
<polygon fill="white" stroke="#666666" points="66,-340.5 20,-340.5 20,-321.5 66,-321.5 66,-340.5"/>
<text text-anchor="middle" x="43" y="-328.5" font-family="Helvetica,sans-Serif" font-size="10.00">int32_t</text>
</a>
</g>
</g>
<!-- Node3&#45;&gt;Node2 -->
<g id="edge2" class="edge">
<title>Node3&#45;&gt;Node2</title>
<path fill="none" stroke="#9a32cd" stroke-dasharray="5,2" d="M57.72,-349.57C68.65,-362.8 85.19,-379.65 104,-388 163.62,-414.47 241.02,-413.52 287.2,-409.74"/>
<polygon fill="#9a32cd" stroke="#9a32cd" points="60.67,-347.66 51.74,-341.95 55.16,-351.98 60.67,-347.66"/>
<text text-anchor="middle" x="163" y="-414" font-family="Helvetica,sans-Serif" font-size="10.00"> isAtomicClockReferenced</text>
</g>
<!-- Node7 -->
<g id="node7" class="node">
<title>Node7</title>
<g id="a_node7"><a xlink:href="../../d9/d81/structe57_1_1_visual_reference_representation.html" target="_top" xlink:title="Stores an image that is to be used only as a visual reference.">
<polygon fill="white" stroke="#666666" points="416,-360.5 240,-360.5 240,-341.5 416,-341.5 416,-360.5"/>
<text text-anchor="middle" x="328" y="-348.5" font-family="Helvetica,sans-Serif" font-size="10.00">e57::VisualReferenceRepresentation</text>
</a>
</g>
</g>
<!-- Node3&#45;&gt;Node7 -->
<g id="edge8" class="edge">
<title>Node3&#45;&gt;Node7</title>
<path fill="none" stroke="#9a32cd" stroke-dasharray="5,2" d="M74.86,-345.3C84.04,-348.87 94.25,-352.19 104,-354 148.26,-362.19 198.31,-362.32 239.76,-360.03"/>
<polygon fill="#9a32cd" stroke="#9a32cd" points="76.26,-342.09 65.68,-341.49 73.58,-348.55 76.26,-342.09"/>
<text text-anchor="middle" x="163" y="-376" font-family="Helvetica,sans-Serif" font-size="10.00"> imageHeight</text>
<text text-anchor="middle" x="163" y="-365" font-family="Helvetica,sans-Serif" font-size="10.00">imageWidth</text>
</g>
<!-- Node9 -->
<g id="node9" class="node">
<title>Node9</title>
<g id="a_node9"><a xlink:href="../../dd/d7a/structe57_1_1_pinhole_representation.html" target="_top" xlink:title="Stores an image that is mapped from 3D using the pinhole camera projection model.">
<polygon fill="white" stroke="#666666" points="396.5,-323.5 259.5,-323.5 259.5,-304.5 396.5,-304.5 396.5,-323.5"/>
<text text-anchor="middle" x="328" y="-311.5" font-family="Helvetica,sans-Serif" font-size="10.00">e57::PinholeRepresentation</text>
</a>
</g>
</g>
<!-- Node3&#45;&gt;Node9 -->
<g id="edge11" class="edge">
<title>Node3&#45;&gt;Node9</title>
<path fill="none" stroke="#9a32cd" stroke-dasharray="5,2" d="M77.52,-328.98C122.06,-326.31 201.76,-321.52 259.11,-318.08"/>
<polygon fill="#9a32cd" stroke="#9a32cd" points="77.49,-325.48 67.72,-329.57 77.91,-332.47 77.49,-325.48"/>
<text text-anchor="middle" x="163" y="-342" font-family="Helvetica,sans-Serif" font-size="10.00"> imageHeight</text>
<text text-anchor="middle" x="163" y="-331" font-family="Helvetica,sans-Serif" font-size="10.00">imageWidth</text>
</g>
<!-- Node10 -->
<g id="node10" class="node">
<title>Node10</title>
<g id="a_node10"><a xlink:href="../../d9/d2d/structe57_1_1_spherical_representation.html" target="_top" xlink:title="Stores an image that is mapped from 3D using a spherical projection model.">
<polygon fill="white" stroke="#666666" points="400.5,-138.5 255.5,-138.5 255.5,-119.5 400.5,-119.5 400.5,-138.5"/>
<text text-anchor="middle" x="328" y="-126.5" font-family="Helvetica,sans-Serif" font-size="10.00">e57::SphericalRepresentation</text>
</a>
</g>
</g>
<!-- Node3&#45;&gt;Node10 -->
<g id="edge14" class="edge">
<title>Node3&#45;&gt;Node10</title>
<path fill="none" stroke="#9a32cd" stroke-dasharray="5,2" d="M46.98,-309.82C54.18,-262.05 74.16,-148.35 104,-126 127.36,-108.5 200.53,-112.65 256.76,-119.02"/>
<polygon fill="#9a32cd" stroke="#9a32cd" points="43.52,-309.27 45.54,-319.67 50.45,-310.28 43.52,-309.27"/>
<text text-anchor="middle" x="163" y="-140" font-family="Helvetica,sans-Serif" font-size="10.00"> imageHeight</text>
<text text-anchor="middle" x="163" y="-129" font-family="Helvetica,sans-Serif" font-size="10.00">imageWidth</text>
</g>
<!-- Node11 -->
<g id="node11" class="node">
<title>Node11</title>
<g id="a_node11"><a xlink:href="../../df/d8e/structe57_1_1_cylindrical_representation.html" target="_top" xlink:title="Stores an image that is mapped from 3D using a cylindrical projection model.">
<polygon fill="white" stroke="#666666" points="403,-239.5 253,-239.5 253,-220.5 403,-220.5 403,-239.5"/>
<text text-anchor="middle" x="328" y="-227.5" font-family="Helvetica,sans-Serif" font-size="10.00">e57::CylindricalRepresentation</text>
</a>
</g>
</g>
<!-- Node3&#45;&gt;Node11 -->
<g id="edge17" class="edge">
<title>Node3&#45;&gt;Node11</title>
<path fill="none" stroke="#9a32cd" stroke-dasharray="5,2" d="M49.6,-310.59C57.4,-286.64 74.04,-248.05 104,-231 162.71,-197.58 245,-209.26 291.44,-220.08"/>
<polygon fill="#9a32cd" stroke="#9a32cd" points="46.35,-309.26 46.83,-319.85 53.05,-311.27 46.35,-309.26"/>
<text text-anchor="middle" x="163" y="-245" font-family="Helvetica,sans-Serif" font-size="10.00"> imageHeight</text>
<text text-anchor="middle" x="163" y="-234" font-family="Helvetica,sans-Serif" font-size="10.00">imageWidth</text>
</g>
<!-- Node4 -->
<g id="node4" class="node">
<title>Node4</title>
<g id="a_node4"><a xlink:href="../../d2/df3/structe57_1_1_rigid_body_transform.html" target="_top" xlink:title="Defines a rigid body transform in cartesian coordinates.">
<polygon fill="white" stroke="#666666" points="392,-464.5 264,-464.5 264,-445.5 392,-445.5 392,-464.5"/>
<text text-anchor="middle" x="328" y="-452.5" font-family="Helvetica,sans-Serif" font-size="10.00">e57::RigidBodyTransform</text>
</a>
</g>
</g>
<!-- Node4&#45;&gt;Node1 -->
<g id="edge3" class="edge">
<title>Node4&#45;&gt;Node1</title>
<path fill="none" stroke="#9a32cd" stroke-dasharray="5,2" d="M403.8,-454.18C455.17,-450.47 523.01,-439.07 574,-407 599.72,-390.82 617.75,-358.26 625.59,-341.88"/>
<polygon fill="#9a32cd" stroke="#9a32cd" points="403.72,-450.68 393.96,-454.8 404.16,-457.67 403.72,-450.68"/>
<text text-anchor="middle" x="504" y="-454" font-family="Helvetica,sans-Serif" font-size="10.00"> pose</text>
</g>
<!-- Node5 -->
<g id="node5" class="node">
<title>Node5</title>
<g id="a_node5"><a xlink:href="../../dc/da9/structe57_1_1_quaternion.html" target="_top" xlink:title="Represents a rigid body rotation.">
<polygon fill="white" stroke="#666666" points="86,-464.5 0,-464.5 0,-445.5 86,-445.5 86,-464.5"/>
<text text-anchor="middle" x="43" y="-452.5" font-family="Helvetica,sans-Serif" font-size="10.00">e57::Quaternion</text>
</a>
</g>
</g>
<!-- Node5&#45;&gt;Node4 -->
<g id="edge4" class="edge">
<title>Node5&#45;&gt;Node4</title>
<path fill="none" stroke="#9a32cd" stroke-dasharray="5,2" d="M97.58,-455C144.8,-455 213.65,-455 263.6,-455"/>
<polygon fill="#9a32cd" stroke="#9a32cd" points="97.88,-451.5 87.88,-455 97.88,-458.5 97.88,-451.5"/>
<text text-anchor="middle" x="163" y="-458" font-family="Helvetica,sans-Serif" font-size="10.00"> rotation</text>
</g>
<!-- Node6 -->
<g id="node6" class="node">
<title>Node6</title>
<g id="a_node6"><a xlink:href="../../d6/dad/structe57_1_1_translation.html" target="_top" xlink:title="Defines a rigid body translation in Cartesian coordinates.">
<polygon fill="white" stroke="#666666" points="86,-501.5 0,-501.5 0,-482.5 86,-482.5 86,-501.5"/>
<text text-anchor="middle" x="43" y="-489.5" font-family="Helvetica,sans-Serif" font-size="10.00">e57::Translation</text>
</a>
</g>
</g>
<!-- Node6&#45;&gt;Node4 -->
<g id="edge5" class="edge">
<title>Node6&#45;&gt;Node4</title>
<path fill="none" stroke="#9a32cd" stroke-dasharray="5,2" d="M97.5,-485.65C132.86,-481.39 180.22,-475.56 222,-470 235.51,-468.2 249.98,-466.19 263.73,-464.23"/>
<polygon fill="#9a32cd" stroke="#9a32cd" points="97.48,-482.13 87.97,-486.8 98.32,-489.08 97.48,-482.13"/>
<text text-anchor="middle" x="163" y="-487" font-family="Helvetica,sans-Serif" font-size="10.00"> translation</text>
</g>
<!-- Node7&#45;&gt;Node1 -->
<g id="edge6" class="edge">
<title>Node7&#45;&gt;Node1</title>
<path fill="none" stroke="#9a32cd" stroke-dasharray="5,2" d="M427.85,-344.76C483.76,-341.23 550.48,-337.02 591.54,-334.43"/>
<polygon fill="#9a32cd" stroke="#9a32cd" points="427.74,-341.26 417.98,-345.38 428.18,-348.24 427.74,-341.26"/>
<text text-anchor="middle" x="504" y="-348" font-family="Helvetica,sans-Serif" font-size="10.00"> visualReferenceRepresentation</text>
</g>
<!-- Node8 -->
<g id="node8" class="node">
<title>Node8</title>
<g id="a_node8"><a xlink:title=" ">
<polygon fill="white" stroke="#666666" points="66,-132.5 20,-132.5 20,-113.5 66,-113.5 66,-132.5"/>
<text text-anchor="middle" x="43" y="-120.5" font-family="Helvetica,sans-Serif" font-size="10.00">int64_t</text>
</a>
</g>
</g>
<!-- Node8&#45;&gt;Node7 -->
<g id="edge7" class="edge">
<title>Node8&#45;&gt;Node7</title>
<path fill="none" stroke="#9a32cd" stroke-dasharray="5,2" d="M47.9,-144.08C54.38,-173 70.15,-224.62 104,-253 145.55,-287.83 181.76,-247.66 222,-284 238.91,-299.27 222.77,-317.09 240,-332 244.21,-335.64 248.95,-338.63 254,-341.09"/>
<polygon fill="#9a32cd" stroke="#9a32cd" points="51.35,-143.45 45.91,-134.36 44.49,-144.86 51.35,-143.45"/>
<text text-anchor="middle" x="163" y="-309" font-family="Helvetica,sans-Serif" font-size="10.00"> imageMaskSize</text>
<text text-anchor="middle" x="163" y="-298" font-family="Helvetica,sans-Serif" font-size="10.00">jpegImageSize</text>
<text text-anchor="middle" x="163" y="-287" font-family="Helvetica,sans-Serif" font-size="10.00">pngImageSize</text>
</g>
<!-- Node8&#45;&gt;Node9 -->
<g id="edge10" class="edge">
<title>Node8&#45;&gt;Node9</title>
<path fill="none" stroke="#9a32cd" stroke-dasharray="5,2" d="M71.45,-138.28C81.44,-143.3 92.99,-148.48 104,-152 154.67,-168.18 183.19,-135.62 222,-172 247.33,-195.74 221.06,-218.91 240,-248 256.66,-273.58 286.77,-293.09 306.83,-304.04"/>
<polygon fill="#9a32cd" stroke="#9a32cd" points="73.14,-135.21 62.65,-133.69 69.9,-141.42 73.14,-135.21"/>
<text text-anchor="middle" x="163" y="-197" font-family="Helvetica,sans-Serif" font-size="10.00"> imageMaskSize</text>
<text text-anchor="middle" x="163" y="-186" font-family="Helvetica,sans-Serif" font-size="10.00">jpegImageSize</text>
<text text-anchor="middle" x="163" y="-175" font-family="Helvetica,sans-Serif" font-size="10.00">pngImageSize</text>
</g>
<!-- Node8&#45;&gt;Node10 -->
<g id="edge13" class="edge">
<title>Node8&#45;&gt;Node10</title>
<path fill="none" stroke="#9a32cd" stroke-dasharray="5,2" d="M49.07,-102.3C56.44,-77.23 72.79,-36.11 104,-18 149.36,8.33 173.83,2.74 222,-18 271.22,-39.19 308.14,-96.05 321.52,-119.09"/>
<polygon fill="#9a32cd" stroke="#9a32cd" points="45.76,-101.12 46.54,-111.69 52.52,-102.94 45.76,-101.12"/>
<text text-anchor="middle" x="163" y="-43" font-family="Helvetica,sans-Serif" font-size="10.00"> imageMaskSize</text>
<text text-anchor="middle" x="163" y="-32" font-family="Helvetica,sans-Serif" font-size="10.00">jpegImageSize</text>
<text text-anchor="middle" x="163" y="-21" font-family="Helvetica,sans-Serif" font-size="10.00">pngImageSize</text>
</g>
<!-- Node8&#45;&gt;Node11 -->
<g id="edge16" class="edge">
<title>Node8&#45;&gt;Node11</title>
<path fill="none" stroke="#9a32cd" stroke-dasharray="5,2" d="M59.9,-104.77C70.98,-93.53 86.81,-80.13 104,-74 153.4,-56.39 180.72,-41.66 222,-74 248.31,-94.61 223.24,-118.09 240,-147 258.43,-178.78 292.64,-206.09 312.22,-220.06"/>
<polygon fill="#9a32cd" stroke="#9a32cd" points="57.39,-102.33 53.13,-112.03 62.51,-107.1 57.39,-102.33"/>
<text text-anchor="middle" x="163" y="-99" font-family="Helvetica,sans-Serif" font-size="10.00"> imageMaskSize</text>
<text text-anchor="middle" x="163" y="-88" font-family="Helvetica,sans-Serif" font-size="10.00">jpegImageSize</text>
<text text-anchor="middle" x="163" y="-77" font-family="Helvetica,sans-Serif" font-size="10.00">pngImageSize</text>
</g>
<!-- Node9&#45;&gt;Node1 -->
<g id="edge9" class="edge">
<title>Node9&#45;&gt;Node1</title>
<path fill="none" stroke="#9a32cd" stroke-dasharray="5,2" d="M408.22,-309.99C456.38,-308.79 518.99,-309.42 574,-317 581.98,-318.1 590.44,-319.97 598.3,-322.04"/>
<polygon fill="#9a32cd" stroke="#9a32cd" points="408.34,-306.48 398.44,-310.27 408.54,-313.48 408.34,-306.48"/>
<text text-anchor="middle" x="504" y="-320" font-family="Helvetica,sans-Serif" font-size="10.00"> pinholeRepresentation</text>
</g>
<!-- Node10&#45;&gt;Node1 -->
<g id="edge12" class="edge">
<title>Node10&#45;&gt;Node1</title>
<path fill="none" stroke="#9a32cd" stroke-dasharray="5,2" d="M383,-141.99C436.58,-157.13 518.49,-186.59 574,-236 601.96,-260.88 619.7,-303.18 626.66,-322.21"/>
<polygon fill="#9a32cd" stroke="#9a32cd" points="384.05,-138.65 373.48,-139.38 382.2,-145.4 384.05,-138.65"/>
<text text-anchor="middle" x="504" y="-239" font-family="Helvetica,sans-Serif" font-size="10.00"> sphericalRepresentation</text>
</g>
<!-- Node11&#45;&gt;Node1 -->
<g id="edge15" class="edge">
<title>Node11&#45;&gt;Node1</title>
<path fill="none" stroke="#9a32cd" stroke-dasharray="5,2" d="M398.54,-242.17C448.73,-252.45 517.35,-269.59 574,-295 590.16,-302.25 606.87,-313.93 617.78,-322.23"/>
<polygon fill="#9a32cd" stroke="#9a32cd" points="399.46,-238.79 388.97,-240.26 398.09,-245.65 399.46,-238.79"/>
<text text-anchor="middle" x="504" y="-298" font-family="Helvetica,sans-Serif" font-size="10.00"> cylindricalRepresentation</text>
</g>
</g>
</svg>
