<svg height="509pt" viewBox="0 0 678 509.5" width="678pt" xmlns="http://www.w3.org/2000/svg" xmlns:xlink="http://www.w3.org/1999/xlink"><g transform="translate(4 505.5)"><a xlink:title="Stores an image from a camera."><path d="m670-341.5h-78v19h78z" fill="#999" stroke="#666"/><text font-family="Helvetica,sans-Serif" font-size="10" text-anchor="middle" x="631" y="-329.5">e57::Image2D</text></a><a target="_top" xlink:href="../../d1/dd7/structe57_1_1_date_time.html" xlink:title="Encodes date and time."><path d="m368.5-414.5h-81v19h81z" fill="#fff" stroke="#666"/><text font-family="Helvetica,sans-Serif" font-size="10" text-anchor="middle" x="328" y="-402.5">e57::DateTime</text></a><g><path d="m378.85-400.01c50.25 5.98 129.54 18.08 195.15 40.01 14.02 4.69 28.95 12.3 39.86 18.4" fill="none" stroke="#9a32cd" stroke-dasharray="5 2"/><path d="m378.43-396.54-9.53-4.62 10.33-2.33z" fill="#9a32cd" stroke="#9a32cd"/><text font-family="Helvetica,sans-Serif" font-size="10" text-anchor="middle" x="504" y="-395">acquisitionDateTime</text></g><a xlink:title=""><path d="m66-340.5h-46v19h46z" fill="#fff" stroke="#666"/><text font-family="Helvetica,sans-Serif" font-size="10" text-anchor="middle" x="43" y="-328.5">int32_t</text></a><g><path d="m57.09-348.81c10.92-13.33 27.74-30.67 46.91-39.19 59.62-26.47 137.02-25.52 183.2-21.74" fill="none" stroke="#9a32cd" stroke-dasharray="5 2"/><path d="m59.72-346.48-8.91 5.72 3.39-10.03z" fill="#9a32cd" stroke="#9a32cd"/><text font-family="Helvetica,sans-Serif" font-size="10" text-anchor="middle" x="163" y="-414">isAtomicClockReferenced</text></g><a target="_top" xlink:href="../../d9/d81/structe57_1_1_visual_reference_representation.html" xlink:title="Stores an image that is to be used only as a visual reference."><path d="m416-360.5h-176v19h176z" fill="#fff" stroke="#666"/><text font-family="Helvetica,sans-Serif" font-size="10" text-anchor="middle" x="328" y="-348.5">e57::VisualReferenceRepresentation</text></a><g><path d="m72.98-344.56c9.65-3.84 20.6-7.51 31.02-9.44 44.26-8.19 94.31-8.32 135.76-6.03" fill="none" stroke="#9a32cd" stroke-dasharray="5 2"/><path d="m74.04-341.21-10.57.66 7.85-7.11z" fill="#9a32cd" stroke="#9a32cd"/><g font-family="Helvetica,sans-Serif" font-size="10" text-anchor="middle"><text x="163" y="-376">imageHeight</text><text x="163" y="-365">imageWidth</text></g></g><a target="_top" xlink:href="../../dd/d7a/structe57_1_1_pinhole_representation.html" xlink:title="Stores an image that is mapped from 3D using the pinhole camera projection model."><path d="m396.5-323.5h-137v19h137z" fill="#fff" stroke="#666"/><text font-family="Helvetica,sans-Serif" font-size="10" text-anchor="middle" x="328" y="-311.5">e57::PinholeRepresentation</text></a><g><path d="m76.41-329.05c44.38 2.67 125.15 7.52 183 10.99" fill="none" stroke="#9a32cd" stroke-dasharray="5 2"/><path d="m75.98-325.57-9.77-4.09 10.19-2.9z" fill="#9a32cd" stroke="#9a32cd"/><g font-family="Helvetica,sans-Serif" font-size="10" text-anchor="middle"><text x="163" y="-342">imageHeight</text><text x="163" y="-331">imageWidth</text></g></g><a target="_top" xlink:href="../../d9/d2d/structe57_1_1_spherical_representation.html" xlink:title="Stores an image that is mapped from 3D using a spherical projection model."><path d="m400.5-138.5h-145v19h145z" fill="#fff" stroke="#666"/><text font-family="Helvetica,sans-Serif" font-size="10" text-anchor="middle" x="328" y="-126.5">e57::SphericalRepresentation</text></a><g><path d="m46.75-311.35c7 46.83 27.09 162.76 57.25 185.35 23.9 17.91 99.96 13.15 156.64 6.53" fill="none" stroke="#9a32cd" stroke-dasharray="5 2"/><path d="m43.26-311.03 2.03-10.4 4.9 9.4z" fill="#9a32cd" stroke="#9a32cd"/><g font-family="Helvetica,sans-Serif" font-size="10" text-anchor="middle"><text x="163" y="-140">imageHeight</text><text x="163" y="-129">imageWidth</text></g></g><a target="_top" xlink:href="../../df/d8e/structe57_1_1_cylindrical_representation.html" xlink:title="Stores an image that is mapped from 3D using a cylindrical projection model."><path d="m403-239.5h-150v19h150z" fill="#fff" stroke="#666"/><text font-family="Helvetica,sans-Serif" font-size="10" text-anchor="middle" x="328" y="-227.5">e57::CylindricalRepresentation</text></a><g><path d="m49.29-311.56c7.65 23.86 24.34 63.28 54.71 80.56 59.39 33.8 142.89 21.47 189.02 10.55" fill="none" stroke="#9a32cd" stroke-dasharray="5 2"/><path d="m45.89-310.71.5-10.59 6.21 8.59z" fill="#9a32cd" stroke="#9a32cd"/><g font-family="Helvetica,sans-Serif" font-size="10" text-anchor="middle"><text x="163" y="-245">imageHeight</text><text x="163" y="-234">imageWidth</text></g></g><a target="_top" xlink:href="../../d2/df3/structe57_1_1_rigid_body_transform.html" xlink:title="Defines a rigid body transform in cartesian coordinates."><path d="m392-464.5h-128v19h128z" fill="#fff" stroke="#666"/><text font-family="Helvetica,sans-Serif" font-size="10" text-anchor="middle" x="328" y="-452.5">e57::RigidBodyTransform</text></a><g><path d="m402.25-454.29c51.55 3.6 120.24 14.89 171.75 47.29 25.86 16.27 43.94 49.09 51.72 65.38" fill="none" stroke="#9a32cd" stroke-dasharray="5 2"/><path d="m401.95-450.81-9.77-4.1 10.2-2.88z" fill="#9a32cd" stroke="#9a32cd"/><text font-family="Helvetica,sans-Serif" font-size="10" text-anchor="middle" x="504" y="-454">pose</text></g><a target="_top" xlink:href="../../dc/da9/structe57_1_1_quaternion.html" xlink:title="Represents a rigid body rotation."><path d="m86-464.5h-86v19h86z" fill="#fff" stroke="#666"/><text font-family="Helvetica,sans-Serif" font-size="10" text-anchor="middle" x="43" y="-452.5">e57::Quaternion</text></a><g><path d="m96.11-455h167.88" fill="none" stroke="#9a32cd" stroke-dasharray="5 2"/><path d="m96.06-451.5-10-3.5 10-3.5z" fill="#9a32cd" stroke="#9a32cd"/><text font-family="Helvetica,sans-Serif" font-size="10" text-anchor="middle" x="163" y="-458">rotation</text></g><a target="_top" xlink:href="../../d6/dad/structe57_1_1_translation.html" xlink:title="Defines a rigid body translation in Cartesian coordinates."><path d="m86-501.5h-86v19h86z" fill="#fff" stroke="#666"/><text font-family="Helvetica,sans-Serif" font-size="10" text-anchor="middle" x="43" y="-489.5">e57::Translation</text></a><g><path d="m96.23-485.81c35.5 4.28 83.49 10.18 125.77 15.81 13.51 1.8 27.98 3.81 41.73 5.77" fill="none" stroke="#9a32cd" stroke-dasharray="5 2"/><path d="m95.62-482.35-9.51-4.67 10.34-2.28z" fill="#9a32cd" stroke="#9a32cd"/><text font-family="Helvetica,sans-Serif" font-size="10" text-anchor="middle" x="163" y="-487">translation</text></g><g><path d="m426.09-344.87c56.38 3.56 124.27 7.84 165.74 10.46" fill="none" stroke="#9a32cd" stroke-dasharray="5 2"/><path d="m425.82-341.38-9.76-4.12 10.2-2.87z" fill="#9a32cd" stroke="#9a32cd"/><text font-family="Helvetica,sans-Serif" font-size="10" text-anchor="middle" x="504" y="-348">visualReferenceRepresentation</text></g><a xlink:title=""><path d="m66-132.5h-46v19h46z" fill="#fff" stroke="#666"/><text font-family="Helvetica,sans-Serif" font-size="10" text-anchor="middle" x="43" y="-120.5">int64_t</text></a><g><path d="m47.56-142.5c6.25-28.59 21.96-81.6 56.44-110.5 41.55-34.83 77.76 5.34 118-31 16.91-15.27.77-33.09 18-48 4.44-3.84 9.48-6.97 14.84-9.49" fill="none" stroke="#9a32cd" stroke-dasharray="5 2"/><path d="m50.95-141.63-5.4 9.11-1.46-10.5z" fill="#9a32cd" stroke="#9a32cd"/><g font-family="Helvetica,sans-Serif" font-size="10" text-anchor="middle"><text x="163" y="-309">imageMaskSize</text><text x="163" y="-298">jpegImageSize</text><text x="163" y="-287">pngImageSize</text></g></g><g><path d="m69.5-137.29c10.42-5.32 22.77-10.96 34.5-14.71 50.67-16.18 79.19 16.38 118-20 25.33-23.74-.94-46.91 18-76 16.86-25.89 47.52-45.57 67.57-56.45" fill="none" stroke="#9a32cd" stroke-dasharray="5 2"/><path d="m71.02-134.14-10.48 1.57 7.21-7.76z" fill="#9a32cd" stroke="#9a32cd"/><g font-family="Helvetica,sans-Serif" font-size="10" text-anchor="middle"><text x="163" y="-197">imageMaskSize</text><text x="163" y="-186">jpegImageSize</text><text x="163" y="-175">pngImageSize</text></g></g><g><path d="m48.66-103.69c7.18 24.91 23.55 67.24 55.34 85.69 45.36 26.33 69.83 20.74 118 0 49.46-21.29 86.5-78.61 99.72-101.43" fill="none" stroke="#9a32cd" stroke-dasharray="5 2"/><path d="m45.25-102.91.81-10.56 5.96 8.76z" fill="#9a32cd" stroke="#9a32cd"/><g font-family="Helvetica,sans-Serif" font-size="10" text-anchor="middle"><text x="163" y="-43">imageMaskSize</text><text x="163" y="-32">jpegImageSize</text><text x="163" y="-21">pngImageSize</text></g></g><g><path d="m58.93-105.77c11.11 11.44 27.37 25.46 45.07 31.77 49.4 17.61 76.72 32.34 118 0 26.31-20.61 1.24-44.09 18-73 18.53-31.96 53.03-59.4 72.55-73.3" fill="none" stroke="#9a32cd" stroke-dasharray="5 2"/><path d="m56.33-103.43-4.23-9.71 9.36 4.96z" fill="#9a32cd" stroke="#9a32cd"/><g font-family="Helvetica,sans-Serif" font-size="10" text-anchor="middle"><text x="163" y="-99">imageMaskSize</text><text x="163" y="-88">jpegImageSize</text><text x="163" y="-77">pngImageSize</text></g></g><g><path d="m406.75-310.03c48.35 1.26 111.68.69 167.25-6.97 8.48-1.17 17.5-3.21 25.77-5.42" fill="none" stroke="#9a32cd" stroke-dasharray="5 2"/><path d="m406.56-306.53-9.89-3.79 10.1-3.21z" fill="#9a32cd" stroke="#9a32cd"/><text font-family="Helvetica,sans-Serif" font-size="10" text-anchor="middle" x="504" y="-320">pinholeRepresentation</text></g><g><path d="m380.6-141.32c53.5-14.93 137.05-44.53 193.4-94.68 27.96-24.88 45.7-67.18 52.66-86.21" fill="none" stroke="#9a32cd" stroke-dasharray="5 2"/><path d="m381.21-137.86-10.56-.75 8.73-6z" fill="#9a32cd" stroke="#9a32cd"/><text font-family="Helvetica,sans-Serif" font-size="10" text-anchor="middle" x="504" y="-239">sphericalRepresentation</text></g><g><path d="m395.06-241.47c50.46-10.18 120.97-27.53 178.94-53.53 16.16-7.25 32.87-18.93 43.78-27.23" fill="none" stroke="#9a32cd" stroke-dasharray="5 2"/><path d="m395.73-238.03-10.49-1.49 9.13-5.38z" fill="#9a32cd" stroke="#9a32cd"/><text font-family="Helvetica,sans-Serif" font-size="10" text-anchor="middle" x="504" y="-298">cylindricalRepresentation</text></g></g></svg>