<?xml version="1.0" encoding="UTF-8" standalone="no"?>
<!DOCTYPE svg PUBLIC "-//W3C//DTD SVG 1.1//EN"
 "http://www.w3.org/Graphics/SVG/1.1/DTD/svg11.dtd">
<!-- Generated by graphviz version 9.0.0 (20230911.1827)
 -->
<!-- Title: e57::Image2D Pages: 1 -->
<!--zoomable 517 -->
<svg id="main" version="1.1" xmlns="http://www.w3.org/2000/svg" xmlns:xlink="http://www.w3.org/1999/xlink" xml:space="preserve" onload="init(evt)">
<style type="text/css"><![CDATA[
.edge:hover path { stroke: red; }
.edge:hover polygon { stroke: red; fill: red; }
]]></style>
<script type="text/javascript"><![CDATA[
var edges = document.getElementsByTagName('g');
if (edges && edges.length) {
  for (var i=0;i<edges.length;i++) {
    if (edges[i].id.substr(0,4)=='edge') {
      edges[i].setAttribute('class','edge');
    }
  }
}
]]></script>
        <defs>
                <circle id="rim" cx="0" cy="0" r="7"/>
                <circle id="rim2" cx="0" cy="0" r="3.5"/>
                <g id="zoomPlus">
                        <use xlink:href="#rim" fill="#404040">
                                <set attributeName="fill" to="#808080" begin="zoomplus.mouseover" end="zoomplus.mouseout"/>
                        </use>
                        <path d="M-4,0h8M0,-4v8" fill="none" stroke="white" stroke-width="1.5" pointer-events="none"/>
                </g>
                <g id="zoomMin">
                        <use xlink:href="#rim" fill="#404040">
                                <set attributeName="fill" to="#808080" begin="zoomminus.mouseover" end="zoomminus.mouseout"/>
                        </use>
                        <path d="M-4,0h8" fill="none" stroke="white" stroke-width="1.5" pointer-events="none"/>
                </g>
                <g id="dirArrow">
                        <path fill="none" stroke="white" stroke-width="1.5" d="M0,-3.0v7 M-2.5,-0.5L0,-3.0L2.5,-0.5"/>
                </g>
               <g id="resetDef">
                       <use xlink:href="#rim2" fill="#404040">
                               <set attributeName="fill" to="#808080" begin="reset.mouseover" end="reset.mouseout"/>
                       </use>
               </g>
        </defs>

<script type="text/javascript">
var viewWidth = 676;
var viewHeight = 517;
var sectionId = 'dynsection-0';
</script>
<script xlink:href="../../svgpan.js"/>
<svg id="graph" class="graph">
<g id="viewport">
<title>e57::Image2D</title>
<!-- Node1 -->
<g id="node1" class="node">
<title>Node1</title>
<g id="a_node1"><a xlink:title="Stores an image from a camera.">
<polygon fill="#999999" stroke="#666666" points="667.5,-331.4 590,-331.4 590,-312.15 667.5,-312.15 667.5,-331.4"/>
<text text-anchor="middle" x="628.75" y="-317.9" font-family="Helvetica,sans-Serif" font-size="10.00">e57::Image2D</text>
</a>
</g>
</g>
<!-- Node2 -->
<g id="node2" class="node">
<title>Node2</title>
<g id="a_node2"><a xlink:href="../../d1/dd7/structe57_1_1_date_time.html" target="_top" xlink:title="Encodes date and time.">
<polygon fill="white" stroke="#666666" points="366.88,-411.4 286.38,-411.4 286.38,-392.15 366.88,-392.15 366.88,-411.4"/>
<text text-anchor="middle" x="326.62" y="-397.9" font-family="Helvetica,sans-Serif" font-size="10.00">e57::DateTime</text>
</a>
</g>
</g>
<!-- Node2&#45;&gt;Node1 -->
<g id="edge1" class="edge">
<title>Node2&#45;&gt;Node1</title>
<path fill="none" stroke="#9a32cd" stroke-dasharray="5,2" d="M378.16,-394.89C428.31,-387.16 506.88,-372.63 572,-349.78 585.49,-345.04 599.89,-337.74 610.68,-331.79"/>
<polygon fill="#9a32cd" stroke="#9a32cd" points="377.85,-391.4 368.48,-396.35 378.89,-398.32 377.85,-391.4"/>
<text text-anchor="middle" x="502.25" y="-387.53" font-family="Helvetica,sans-Serif" font-size="10.00"> acquisitionDateTime</text>
</g>
<!-- Node3 -->
<g id="node3" class="node">
<title>Node3</title>
<g id="a_node3"><a xlink:title=" ">
<polygon fill="white" stroke="#666666" points="65.5,-346.4 20.25,-346.4 20.25,-327.15 65.5,-327.15 65.5,-346.4"/>
<text text-anchor="middle" x="42.88" y="-332.9" font-family="Helvetica,sans-Serif" font-size="10.00">int32_t</text>
</a>
</g>
</g>
<!-- Node3&#45;&gt;Node2 -->
<g id="edge2" class="edge">
<title>Node3&#45;&gt;Node2</title>
<path fill="none" stroke="#9a32cd" stroke-dasharray="5,2" d="M57.55,-355.22C68.44,-368.31 84.94,-384.91 103.75,-392.78 163.5,-417.77 240.38,-413.84 286.18,-408.18"/>
<polygon fill="#9a32cd" stroke="#9a32cd" points="60.53,-353.35 51.59,-347.67 55.03,-357.69 60.53,-353.35"/>
<text text-anchor="middle" x="162.25" y="-414.53" font-family="Helvetica,sans-Serif" font-size="10.00"> isAtomicClockReferenced</text>
</g>
<!-- Node7 -->
<g id="node7" class="node">
<title>Node7</title>
<g id="a_node7"><a xlink:href="../../d9/d81/structe57_1_1_visual_reference_representation.html" target="_top" xlink:title="Stores an image that is to be used only as a visual reference.">
<polygon fill="white" stroke="#666666" points="414.5,-350.4 238.75,-350.4 238.75,-331.15 414.5,-331.15 414.5,-350.4"/>
<text text-anchor="middle" x="326.62" y="-336.9" font-family="Helvetica,sans-Serif" font-size="10.00">e57::VisualReferenceRepresentation</text>
</a>
</g>
</g>
<!-- Node3&#45;&gt;Node7 -->
<g id="edge8" class="edge">
<title>Node3&#45;&gt;Node7</title>
<path fill="none" stroke="#9a32cd" stroke-dasharray="5,2" d="M73.87,-351.39C83.22,-355.23 93.71,-358.84 103.75,-360.78 166.98,-372.98 241.82,-360.85 286.41,-350.87"/>
<polygon fill="#9a32cd" stroke="#9a32cd" points="75.48,-348.27 64.91,-347.47 72.67,-354.69 75.48,-348.27"/>
<text text-anchor="middle" x="162.25" y="-379.78" font-family="Helvetica,sans-Serif" font-size="10.00"> imageHeight</text>
<text text-anchor="middle" x="162.25" y="-368.53" font-family="Helvetica,sans-Serif" font-size="10.00">imageWidth</text>
</g>
<!-- Node9 -->
<g id="node9" class="node">
<title>Node9</title>
<g id="a_node9"><a xlink:href="../../dd/d7a/structe57_1_1_pinhole_representation.html" target="_top" xlink:title="Stores an image that is mapped from 3D using the pinhole camera projection model.">
<polygon fill="white" stroke="#666666" points="394.62,-313.4 258.62,-313.4 258.62,-294.15 394.62,-294.15 394.62,-313.4"/>
<text text-anchor="middle" x="326.62" y="-299.9" font-family="Helvetica,sans-Serif" font-size="10.00">e57::PinholeRepresentation</text>
</a>
</g>
</g>
<!-- Node3&#45;&gt;Node9 -->
<g id="edge11" class="edge">
<title>Node3&#45;&gt;Node9</title>
<path fill="none" stroke="#9a32cd" stroke-dasharray="5,2" d="M77.27,-332.86C121.69,-327.66 201.23,-318.35 258.33,-311.66"/>
<polygon fill="#9a32cd" stroke="#9a32cd" points="77.01,-329.37 67.49,-334.01 77.83,-336.32 77.01,-329.37"/>
<text text-anchor="middle" x="162.25" y="-342.78" font-family="Helvetica,sans-Serif" font-size="10.00"> imageHeight</text>
<text text-anchor="middle" x="162.25" y="-331.53" font-family="Helvetica,sans-Serif" font-size="10.00">imageWidth</text>
</g>
<!-- Node10 -->
<g id="node10" class="node">
<title>Node10</title>
<g id="a_node10"><a xlink:href="../../d9/d2d/structe57_1_1_spherical_representation.html" target="_top" xlink:title="Stores an image that is mapped from 3D using a spherical projection model.">
<polygon fill="white" stroke="#666666" points="398.75,-140.4 254.5,-140.4 254.5,-121.15 398.75,-121.15 398.75,-140.4"/>
<text text-anchor="middle" x="326.62" y="-126.9" font-family="Helvetica,sans-Serif" font-size="10.00">e57::SphericalRepresentation</text>
</a>
</g>
</g>
<!-- Node3&#45;&gt;Node10 -->
<g id="edge14" class="edge">
<title>Node3&#45;&gt;Node10</title>
<path fill="none" stroke="#9a32cd" stroke-dasharray="5,2" d="M46.74,-315.55C53.75,-267.16 73.44,-151.1 103.75,-128.28 126.71,-110.98 198.31,-114.7 254.04,-120.81"/>
<polygon fill="#9a32cd" stroke="#9a32cd" points="43.3,-314.9 45.38,-325.29 50.23,-315.87 43.3,-314.9"/>
<text text-anchor="middle" x="162.25" y="-141.78" font-family="Helvetica,sans-Serif" font-size="10.00"> imageHeight</text>
<text text-anchor="middle" x="162.25" y="-130.53" font-family="Helvetica,sans-Serif" font-size="10.00">imageWidth</text>
</g>
<!-- Node11 -->
<g id="node11" class="node">
<title>Node11</title>
<g id="a_node11"><a xlink:href="../../df/d8e/structe57_1_1_cylindrical_representation.html" target="_top" xlink:title="Stores an image that is mapped from 3D using a cylindrical projection model.">
<polygon fill="white" stroke="#666666" points="401.38,-243.4 251.88,-243.4 251.88,-224.15 401.38,-224.15 401.38,-243.4"/>
<text text-anchor="middle" x="326.62" y="-229.9" font-family="Helvetica,sans-Serif" font-size="10.00">e57::CylindricalRepresentation</text>
</a>
</g>
</g>
<!-- Node3&#45;&gt;Node11 -->
<g id="edge17" class="edge">
<title>Node3&#45;&gt;Node11</title>
<path fill="none" stroke="#9a32cd" stroke-dasharray="5,2" d="M49.37,-316.08C57.05,-291.8 73.56,-252.65 103.75,-235.28 161.51,-202.03 242.53,-213.03 288.99,-223.66"/>
<polygon fill="#9a32cd" stroke="#9a32cd" points="46.07,-314.91 46.63,-325.49 52.79,-316.86 46.07,-314.91"/>
<text text-anchor="middle" x="162.25" y="-248.78" font-family="Helvetica,sans-Serif" font-size="10.00"> imageHeight</text>
<text text-anchor="middle" x="162.25" y="-237.53" font-family="Helvetica,sans-Serif" font-size="10.00">imageWidth</text>
</g>
<!-- Node4 -->
<g id="node4" class="node">
<title>Node4</title>
<g id="a_node4"><a xlink:href="../../d2/df3/structe57_1_1_rigid_body_transform.html" target="_top" xlink:title="Defines a rigid body transform in cartesian coordinates.">
<polygon fill="white" stroke="#666666" points="390.12,-472.4 263.12,-472.4 263.12,-453.15 390.12,-453.15 390.12,-472.4"/>
<text text-anchor="middle" x="326.62" y="-458.9" font-family="Helvetica,sans-Serif" font-size="10.00">e57::RigidBodyTransform</text>
</a>
</g>
</g>
<!-- Node4&#45;&gt;Node1 -->
<g id="edge3" class="edge">
<title>Node4&#45;&gt;Node1</title>
<path fill="none" stroke="#9a32cd" stroke-dasharray="5,2" d="M401.93,-457.46C453.46,-450.71 521.62,-435.42 572,-400.78 598,-382.89 615.88,-348.67 623.54,-331.75"/>
<polygon fill="#9a32cd" stroke="#9a32cd" points="401.54,-453.98 392.04,-458.67 402.39,-460.93 401.54,-453.98"/>
<text text-anchor="middle" x="502.25" y="-454.53" font-family="Helvetica,sans-Serif" font-size="10.00"> pose</text>
</g>
<!-- Node5 -->
<g id="node5" class="node">
<title>Node5</title>
<g id="a_node5"><a xlink:href="../../dc/da9/structe57_1_1_quaternion.html" target="_top" xlink:title="Represents a rigid body rotation.">
<polygon fill="white" stroke="#666666" points="85.38,-472.4 0.38,-472.4 0.38,-453.15 85.38,-453.15 85.38,-472.4"/>
<text text-anchor="middle" x="42.88" y="-458.9" font-family="Helvetica,sans-Serif" font-size="10.00">e57::Quaternion</text>
</a>
</g>
</g>
<!-- Node5&#45;&gt;Node4 -->
<g id="edge4" class="edge">
<title>Node5&#45;&gt;Node4</title>
<path fill="none" stroke="#9a32cd" stroke-dasharray="5,2" d="M97.22,-462.78C144.27,-462.78 212.89,-462.78 262.63,-462.78"/>
<polygon fill="#9a32cd" stroke="#9a32cd" points="97.27,-459.28 87.27,-462.78 97.27,-466.28 97.27,-459.28"/>
<text text-anchor="middle" x="162.25" y="-464.53" font-family="Helvetica,sans-Serif" font-size="10.00"> rotation</text>
</g>
<!-- Node6 -->
<g id="node6" class="node">
<title>Node6</title>
<g id="a_node6"><a xlink:href="../../d6/dad/structe57_1_1_translation.html" target="_top" xlink:title="Defines a rigid body translation in Cartesian coordinates.">
<polygon fill="white" stroke="#666666" points="85.75,-509.4 0,-509.4 0,-490.15 85.75,-490.15 85.75,-509.4"/>
<text text-anchor="middle" x="42.88" y="-495.9" font-family="Helvetica,sans-Serif" font-size="10.00">e57::Translation</text>
</a>
</g>
</g>
<!-- Node6&#45;&gt;Node4 -->
<g id="edge5" class="edge">
<title>Node6&#45;&gt;Node4</title>
<path fill="none" stroke="#9a32cd" stroke-dasharray="5,2" d="M97.5,-493.36C132.58,-489.11 179.42,-483.3 220.75,-477.78 234.33,-475.96 248.89,-473.93 262.71,-471.97"/>
<polygon fill="#9a32cd" stroke="#9a32cd" points="97.08,-489.89 87.58,-494.57 97.92,-496.84 97.08,-489.89"/>
<text text-anchor="middle" x="162.25" y="-494.53" font-family="Helvetica,sans-Serif" font-size="10.00"> translation</text>
</g>
<!-- Node7&#45;&gt;Node1 -->
<g id="edge6" class="edge">
<title>Node7&#45;&gt;Node1</title>
<path fill="none" stroke="#9a32cd" stroke-dasharray="5,2" d="M426.23,-334.53C482.14,-330.99 548.89,-326.77 589.79,-324.18"/>
<polygon fill="#9a32cd" stroke="#9a32cd" points="426.11,-331.03 416.35,-335.16 426.55,-338.02 426.11,-331.03"/>
<text text-anchor="middle" x="502.25" y="-336.53" font-family="Helvetica,sans-Serif" font-size="10.00"> visualReferenceRepresentation</text>
</g>
<!-- Node8 -->
<g id="node8" class="node">
<title>Node8</title>
<g id="a_node8"><a xlink:title=" ">
<polygon fill="white" stroke="#666666" points="65.5,-135.4 20.25,-135.4 20.25,-116.15 65.5,-116.15 65.5,-135.4"/>
<text text-anchor="middle" x="42.88" y="-121.9" font-family="Helvetica,sans-Serif" font-size="10.00">int64_t</text>
</a>
</g>
</g>
<!-- Node8&#45;&gt;Node7 -->
<g id="edge7" class="edge">
<title>Node8&#45;&gt;Node7</title>
<path fill="none" stroke="#9a32cd" stroke-dasharray="5,2" d="M47.19,-146.71C53.05,-176.35 68.16,-230.02 103.75,-257.78 145.43,-290.28 179.66,-245.79 220.75,-279.03 237.1,-292.25 222.57,-309.35 238.75,-322.78 242.54,-325.92 246.75,-328.56 251.2,-330.78"/>
<polygon fill="#9a32cd" stroke="#9a32cd" points="50.68,-146.35 45.48,-137.12 43.79,-147.58 50.68,-146.35"/>
<text text-anchor="middle" x="162.25" y="-304.03" font-family="Helvetica,sans-Serif" font-size="10.00"> imageMaskSize</text>
<text text-anchor="middle" x="162.25" y="-292.78" font-family="Helvetica,sans-Serif" font-size="10.00">jpegImageSize</text>
<text text-anchor="middle" x="162.25" y="-281.53" font-family="Helvetica,sans-Serif" font-size="10.00">pngImageSize</text>
</g>
<!-- Node8&#45;&gt;Node9 -->
<g id="edge10" class="edge">
<title>Node8&#45;&gt;Node9</title>
<path fill="none" stroke="#9a32cd" stroke-dasharray="5,2" d="M71.5,-141.1C81.43,-146.07 92.86,-151.22 103.75,-154.78 153.99,-171.17 182.44,-139.61 220.75,-176.03 246.14,-200.16 217.96,-224.57 238.75,-252.78 253.17,-272.34 277.55,-285.7 296.81,-293.82"/>
<polygon fill="#9a32cd" stroke="#9a32cd" points="73.25,-138.06 62.77,-136.54 70.02,-144.27 73.25,-138.06"/>
<text text-anchor="middle" x="162.25" y="-201.03" font-family="Helvetica,sans-Serif" font-size="10.00"> imageMaskSize</text>
<text text-anchor="middle" x="162.25" y="-189.78" font-family="Helvetica,sans-Serif" font-size="10.00">jpegImageSize</text>
<text text-anchor="middle" x="162.25" y="-178.53" font-family="Helvetica,sans-Serif" font-size="10.00">pngImageSize</text>
</g>
<!-- Node8&#45;&gt;Node10 -->
<g id="edge13" class="edge">
<title>Node8&#45;&gt;Node10</title>
<path fill="none" stroke="#9a32cd" stroke-dasharray="5,2" d="M48.75,-104.56C55.92,-78.85 72.05,-36.68 103.75,-18.03 148.57,8.34 173.08,2.74 220.75,-18.03 270.26,-39.59 306.93,-97.32 320.2,-120.72"/>
<polygon fill="#9a32cd" stroke="#9a32cd" points="45.37,-103.66 46.29,-114.21 52.15,-105.38 45.37,-103.66"/>
<text text-anchor="middle" x="162.25" y="-43.03" font-family="Helvetica,sans-Serif" font-size="10.00"> imageMaskSize</text>
<text text-anchor="middle" x="162.25" y="-31.78" font-family="Helvetica,sans-Serif" font-size="10.00">jpegImageSize</text>
<text text-anchor="middle" x="162.25" y="-20.53" font-family="Helvetica,sans-Serif" font-size="10.00">pngImageSize</text>
</g>
<!-- Node8&#45;&gt;Node11 -->
<g id="edge16" class="edge">
<title>Node8&#45;&gt;Node11</title>
<path fill="none" stroke="#9a32cd" stroke-dasharray="5,2" d="M58.9,-107.66C69.92,-95.88 86.01,-81.53 103.75,-75.03 152.57,-57.12 179.9,-42.85 220.75,-75.03 247.59,-96.17 221.79,-120.11 238.75,-149.78 257.07,-181.83 291.26,-209.51 310.84,-223.68"/>
<polygon fill="#9a32cd" stroke="#9a32cd" points="56.53,-105.06 52.52,-114.87 61.77,-109.7 56.53,-105.06"/>
<text text-anchor="middle" x="162.25" y="-100.03" font-family="Helvetica,sans-Serif" font-size="10.00"> imageMaskSize</text>
<text text-anchor="middle" x="162.25" y="-88.78" font-family="Helvetica,sans-Serif" font-size="10.00">jpegImageSize</text>
<text text-anchor="middle" x="162.25" y="-77.53" font-family="Helvetica,sans-Serif" font-size="10.00">pngImageSize</text>
</g>
<!-- Node9&#45;&gt;Node1 -->
<g id="edge9" class="edge">
<title>Node9&#45;&gt;Node1</title>
<path fill="none" stroke="#9a32cd" stroke-dasharray="5,2" d="M406.15,-299.59C454.26,-298.28 516.96,-298.82 572,-306.53 580.05,-307.65 588.59,-309.59 596.5,-311.72"/>
<polygon fill="#9a32cd" stroke="#9a32cd" points="406.27,-296.08 396.38,-299.89 406.49,-303.08 406.27,-296.08"/>
<text text-anchor="middle" x="502.25" y="-308.53" font-family="Helvetica,sans-Serif" font-size="10.00"> pinholeRepresentation</text>
</g>
<!-- Node10&#45;&gt;Node1 -->
<g id="edge12" class="edge">
<title>Node10&#45;&gt;Node1</title>
<path fill="none" stroke="#9a32cd" stroke-dasharray="5,2" d="M384.47,-143.76C437.69,-158.21 517.03,-185.9 572,-232.53 598.61,-255.1 616.55,-293.67 623.94,-311.8"/>
<polygon fill="#9a32cd" stroke="#9a32cd" points="385.56,-140.43 374.99,-141.26 383.77,-147.19 385.56,-140.43"/>
<text text-anchor="middle" x="502.25" y="-234.53" font-family="Helvetica,sans-Serif" font-size="10.00"> sphericalRepresentation</text>
</g>
<!-- Node11&#45;&gt;Node1 -->
<g id="edge15" class="edge">
<title>Node11&#45;&gt;Node1</title>
<path fill="none" stroke="#9a32cd" stroke-dasharray="5,2" d="M413.04,-243.31C461.09,-250.68 521.41,-263.32 572,-284.53 588.32,-291.36 604.91,-303.21 615.7,-311.71"/>
<polygon fill="#9a32cd" stroke="#9a32cd" points="413.63,-239.86 403.23,-241.86 412.61,-246.79 413.63,-239.86"/>
<text text-anchor="middle" x="502.25" y="-286.53" font-family="Helvetica,sans-Serif" font-size="10.00"> cylindricalRepresentation</text>
</g>
</g>
</svg>
        <g id="navigator" transform="translate(0 0)" fill="#404254">
                <rect fill="#f2f5e9" fill-opacity="0.5" stroke="#606060" stroke-width=".5" x="0" y="0" width="60" height="60"/>
                <use id="zoomplus" xlink:href="#zoomPlus" x="17" y="9" onmousedown="handleZoom(evt,'in')"/>
                <use id="zoomminus" xlink:href="#zoomMin" x="42" y="9" onmousedown="handleZoom(evt,'out')"/>
                <use id="reset" xlink:href="#resetDef" x="30" y="36" onmousedown="handleReset()"/>
                <g id="arrowUp" xlink:href="#dirArrow" transform="translate(30 24)" onmousedown="handlePan(0,-1)">
                  <use xlink:href="#rim" fill="#404040">
                        <set attributeName="fill" to="#808080" begin="arrowUp.mouseover" end="arrowUp.mouseout"/>
                  </use>
                  <path fill="none" stroke="white" stroke-width="1.5" d="M0,-3.0v7 M-2.5,-0.5L0,-3.0L2.5,-0.5"/>
                </g>
                <g id="arrowRight" xlink:href="#dirArrow" transform="rotate(90) translate(36 -43)" onmousedown="handlePan(1,0)">
                  <use xlink:href="#rim" fill="#404040">
                        <set attributeName="fill" to="#808080" begin="arrowRight.mouseover" end="arrowRight.mouseout"/>
                  </use>
                  <path fill="none" stroke="white" stroke-width="1.5" d="M0,-3.0v7 M-2.5,-0.5L0,-3.0L2.5,-0.5"/>
                </g>
                <g id="arrowDown" xlink:href="#dirArrow" transform="rotate(180) translate(-30 -48)" onmousedown="handlePan(0,1)">
                  <use xlink:href="#rim" fill="#404040">
                        <set attributeName="fill" to="#808080" begin="arrowDown.mouseover" end="arrowDown.mouseout"/>
                  </use>
                  <path fill="none" stroke="white" stroke-width="1.5" d="M0,-3.0v7 M-2.5,-0.5L0,-3.0L2.5,-0.5"/>
                </g>
                <g id="arrowLeft" xlink:href="#dirArrow" transform="rotate(270) translate(-36 17)" onmousedown="handlePan(-1,0)">
                  <use xlink:href="#rim" fill="#404040">
                        <set attributeName="fill" to="#808080" begin="arrowLeft.mouseover" end="arrowLeft.mouseout"/>
                  </use>
                  <path fill="none" stroke="white" stroke-width="1.5" d="M0,-3.0v7 M-2.5,-0.5L0,-3.0L2.5,-0.5"/>
                </g>
        </g>
        <svg viewBox="0 0 15 15" width="100%" height="30px" preserveAspectRatio="xMaxYMin meet">
         <g id="arrow_out" transform="scale(0.3 0.3)">
          <a xlink:href="structe57_1_1_image2_d__coll__graph_org.svg" target="_base">
           <rect id="button" ry="5" rx="5" y="6" x="6" height="38" width="38"
                fill="#f2f5e9" fill-opacity="0.5" stroke="#606060" stroke-width="1.0"/>
           <path id="arrow"
             d="M 11.500037,31.436501 C 11.940474,20.09759 22.043105,11.32322 32.158766,21.979434 L 37.068811,17.246167 C 37.068811,17.246167 37.088388,32 37.088388,32 L 22.160133,31.978069 C 22.160133,31.978069 26.997745,27.140456 26.997745,27.140456 C 18.528582,18.264221 13.291696,25.230495 11.500037,31.436501 z"
             style="fill:#404040;"/>
          </a>
         </g>
        </svg>
</svg>
