<?xml version="1.0" encoding="UTF-8" standalone="no"?>
<!DOCTYPE svg PUBLIC "-//W3C//DTD SVG 1.1//EN"
 "http://www.w3.org/Graphics/SVG/1.1/DTD/svg11.dtd">
<!-- Generated by graphviz version 2.49.0 (20210828.1703)
 -->
<!-- Title: e57::CompressedVectorReaderImpl Pages: 1 -->
<svg width="309pt" height="333pt"
 viewBox="0.00 0.00 309.00 333.00" xmlns="http://www.w3.org/2000/svg" xmlns:xlink="http://www.w3.org/1999/xlink">
<g id="graph0" class="graph" transform="scale(1 1) rotate(0) translate(4 329)">
<title>e57::CompressedVectorReaderImpl</title>
<polygon fill="white" stroke="transparent" points="-4,4 -4,-329 305,-329 305,4 -4,4"/>
<!-- Node1 -->
<g id="node1" class="node">
<title>Node1</title>
<g id="a_node1"><a xlink:title=" ">
<polygon fill="#bfbfbf" stroke="black" points="0,-0.5 0,-19.5 175,-19.5 175,-0.5 0,-0.5"/>
<text text-anchor="middle" x="87.5" y="-7.5" font-family="Helvetica,sans-Serif" font-size="10.00">e57::CompressedVectorReaderImpl</text>
</a>
</g>
</g>
<!-- Node2 -->
<g id="node2" class="node">
<title>Node2</title>
<g id="a_node2"><a xlink:href="../../d4/dc6/classe57_1_1_packet_read_cache.html" target="_top" xlink:title=" ">
<polygon fill="white" stroke="black" points="119.5,-67.5 119.5,-86.5 241.5,-86.5 241.5,-67.5 119.5,-67.5"/>
<text text-anchor="middle" x="180.5" y="-74.5" font-family="Helvetica,sans-Serif" font-size="10.00">e57::PacketReadCache</text>
</a>
</g>
</g>
<!-- Node2&#45;&gt;Node1 -->
<g id="edge1" class="edge">
<title>Node2&#45;&gt;Node1</title>
<path fill="none" stroke="#9a32cd" stroke-dasharray="5,2" d="M159.64,-61.42C141.25,-48.57 115.09,-30.28 99.84,-19.63"/>
<polygon fill="#9a32cd" stroke="#9a32cd" points="157.76,-64.37 167.96,-67.23 161.77,-58.64 157.76,-64.37"/>
<text text-anchor="middle" x="158.5" y="-41" font-family="Helvetica,sans-Serif" font-size="10.00"> cache_</text>
</g>
<!-- Node3 -->
<g id="node3" class="node">
<title>Node3</title>
<g id="a_node3"><a xlink:href="../../dd/d96/classe57_1_1_checked_file.html" target="_top" xlink:title=" ">
<polygon fill="white" stroke="black" points="178.5,-141 178.5,-160 272.5,-160 272.5,-141 178.5,-141"/>
<text text-anchor="middle" x="225.5" y="-148" font-family="Helvetica,sans-Serif" font-size="10.00">e57::CheckedFile</text>
</a>
</g>
</g>
<!-- Node3&#45;&gt;Node2 -->
<g id="edge2" class="edge">
<title>Node3&#45;&gt;Node2</title>
<path fill="none" stroke="#9a32cd" stroke-dasharray="5,2" d="M214.65,-132.25C205.63,-117.93 193.17,-98.13 186.06,-86.84"/>
<polygon fill="#9a32cd" stroke="#9a32cd" points="211.69,-134.13 219.98,-140.73 217.62,-130.41 211.69,-134.13"/>
<text text-anchor="middle" x="219.5" y="-108" font-family="Helvetica,sans-Serif" font-size="10.00"> cFile_</text>
</g>
<!-- Node4 -->
<g id="node4" class="node">
<title>Node4</title>
<g id="a_node4"><a xlink:title=" ">
<polygon fill="white" stroke="#bfbfbf" points="66.5,-305.5 66.5,-324.5 118.5,-324.5 118.5,-305.5 66.5,-305.5"/>
<text text-anchor="middle" x="92.5" y="-312.5" font-family="Helvetica,sans-Serif" font-size="10.00">uint64_t</text>
</a>
</g>
</g>
<!-- Node4&#45;&gt;Node1 -->
<g id="edge6" class="edge">
<title>Node4&#45;&gt;Node1</title>
<path fill="none" stroke="#9a32cd" stroke-dasharray="5,2" d="M76.73,-297.55C63.42,-281.88 46.5,-256.96 46.5,-231.5 46.5,-231.5 46.5,-231.5 46.5,-76 46.5,-52.78 65.44,-31.1 77.58,-19.59"/>
<polygon fill="#9a32cd" stroke="#9a32cd" points="74.35,-300.14 83.63,-305.25 79.57,-295.47 74.35,-300.14"/>
<text text-anchor="middle" x="103.5" y="-159" font-family="Helvetica,sans-Serif" font-size="10.00"> maxRecordCount_</text>
<text text-anchor="middle" x="103.5" y="-148" font-family="Helvetica,sans-Serif" font-size="10.00">recordCount_</text>
<text text-anchor="middle" x="103.5" y="-137" font-family="Helvetica,sans-Serif" font-size="10.00">sectionEndLogicalOffset_</text>
</g>
<!-- Node4&#45;&gt;Node3 -->
<g id="edge3" class="edge">
<title>Node4&#45;&gt;Node3</title>
<path fill="none" stroke="#9a32cd" stroke-dasharray="5,2" d="M89.12,-295.2C86.31,-273.65 85.06,-238.2 101.5,-214 121.28,-184.89 158.83,-168.65 187.45,-160.08"/>
<polygon fill="#9a32cd" stroke="#9a32cd" points="85.7,-295.98 90.69,-305.32 92.61,-294.9 85.7,-295.98"/>
<text text-anchor="middle" x="153" y="-239" font-family="Helvetica,sans-Serif" font-size="10.00"> logicalLength_</text>
<text text-anchor="middle" x="153" y="-228" font-family="Helvetica,sans-Serif" font-size="10.00">physicalLength_</text>
<text text-anchor="middle" x="153" y="-217" font-family="Helvetica,sans-Serif" font-size="10.00">physicalPageSizeMask</text>
</g>
<!-- Node5 -->
<g id="node5" class="node">
<title>Node5</title>
<g id="a_node5"><a xlink:href="../../da/d20/classe57_1_1_buffer_view.html" target="_top" xlink:title=" ">
<polygon fill="white" stroke="black" points="214,-221 214,-240 301,-240 301,-221 214,-221"/>
<text text-anchor="middle" x="257.5" y="-228" font-family="Helvetica,sans-Serif" font-size="10.00">e57::BufferView</text>
</a>
</g>
</g>
<!-- Node4&#45;&gt;Node5 -->
<g id="edge5" class="edge">
<title>Node4&#45;&gt;Node5</title>
<path fill="none" stroke="#9a32cd" stroke-dasharray="5,2" d="M118.87,-300.81C152.98,-283.76 211.43,-254.54 240.31,-240.1"/>
<polygon fill="#9a32cd" stroke="#9a32cd" points="116.92,-297.88 109.54,-305.48 120.05,-304.14 116.92,-297.88"/>
<text text-anchor="middle" x="225" y="-279" font-family="Helvetica,sans-Serif" font-size="10.00"> cursorStream_</text>
<text text-anchor="middle" x="225" y="-268" font-family="Helvetica,sans-Serif" font-size="10.00">streamSize_</text>
</g>
<!-- Node5&#45;&gt;Node3 -->
<g id="edge4" class="edge">
<title>Node5&#45;&gt;Node3</title>
<path fill="none" stroke="#9a32cd" stroke-dasharray="5,2" d="M250.11,-211.49C243.55,-195.51 234.24,-172.81 229.16,-160.42"/>
<polygon fill="#9a32cd" stroke="#9a32cd" points="246.92,-212.93 253.95,-220.85 253.4,-210.27 246.92,-212.93"/>
<text text-anchor="middle" x="264.5" y="-188" font-family="Helvetica,sans-Serif" font-size="10.00"> bufView_</text>
</g>
</g>
</svg>
