<?xml version="1.0" encoding="UTF-8" standalone="no"?>
<!DOCTYPE svg PUBLIC "-//W3C//DTD SVG 1.1//EN"
 "http://www.w3.org/Graphics/SVG/1.1/DTD/svg11.dtd">
<!-- Generated by graphviz version 2.49.0 (20210828.1703)
 -->
<!-- Title: CompressedVectorWriterImpl.h Pages: 1 -->
<svg width="505pt" height="308pt"
 viewBox="0.00 0.00 505.00 308.00" xmlns="http://www.w3.org/2000/svg" xmlns:xlink="http://www.w3.org/1999/xlink">
<g id="graph0" class="graph" transform="scale(1 1) rotate(0) translate(4 304)">
<title>CompressedVectorWriterImpl.h</title>
<polygon fill="white" stroke="transparent" points="-4,4 -4,-304 501,-304 501,4 -4,4"/>
<!-- Node1 -->
<g id="node1" class="node">
<title>Node1</title>
<g id="a_node1"><a xlink:title=" ">
<polygon fill="#bfbfbf" stroke="black" points="268,-280.5 268,-299.5 423,-299.5 423,-280.5 268,-280.5"/>
<text text-anchor="middle" x="345.5" y="-287.5" font-family="Helvetica,sans-Serif" font-size="10.00">CompressedVectorWriterImpl.h</text>
</a>
</g>
</g>
<!-- Node2 -->
<g id="node2" class="node">
<title>Node2</title>
<g id="a_node2"><a xlink:href="../../df/d4b/_encoder_8h.html" target="_top" xlink:title=" ">
<polygon fill="white" stroke="black" points="276.5,-224.5 276.5,-243.5 338.5,-243.5 338.5,-224.5 276.5,-224.5"/>
<text text-anchor="middle" x="307.5" y="-231.5" font-family="Helvetica,sans-Serif" font-size="10.00">Encoder.h</text>
</a>
</g>
</g>
<!-- Node1&#45;&gt;Node2 -->
<g id="edge1" class="edge">
<title>Node1&#45;&gt;Node2</title>
<path fill="none" stroke="midnightblue" d="M339.23,-280.08C333.86,-272.46 325.98,-261.26 319.42,-251.94"/>
<polygon fill="midnightblue" stroke="midnightblue" points="322.28,-249.91 313.66,-243.75 316.55,-253.94 322.28,-249.91"/>
</g>
<!-- Node16 -->
<g id="node16" class="node">
<title>Node16</title>
<g id="a_node16"><a xlink:href="../../d7/dbe/_packet_8h.html" target="_top" xlink:title=" ">
<polygon fill="white" stroke="black" points="383,-224.5 383,-243.5 438,-243.5 438,-224.5 383,-224.5"/>
<text text-anchor="middle" x="410.5" y="-231.5" font-family="Helvetica,sans-Serif" font-size="10.00">Packet.h</text>
</a>
</g>
</g>
<!-- Node1&#45;&gt;Node16 -->
<g id="edge18" class="edge">
<title>Node1&#45;&gt;Node16</title>
<path fill="none" stroke="midnightblue" d="M355.94,-280.32C365.65,-272.26 380.32,-260.08 392,-250.37"/>
<polygon fill="midnightblue" stroke="midnightblue" points="394.41,-252.92 399.87,-243.83 389.94,-247.53 394.41,-252.92"/>
</g>
<!-- Node3 -->
<g id="node3" class="node">
<title>Node3</title>
<g id="a_node3"><a xlink:href="../../db/d1f/_common_8h.html" target="_top" xlink:title=" ">
<polygon fill="white" stroke="black" points="261,-168.5 261,-187.5 326,-187.5 326,-168.5 261,-168.5"/>
<text text-anchor="middle" x="293.5" y="-175.5" font-family="Helvetica,sans-Serif" font-size="10.00">Common.h</text>
</a>
</g>
</g>
<!-- Node2&#45;&gt;Node3 -->
<g id="edge2" class="edge">
<title>Node2&#45;&gt;Node3</title>
<path fill="none" stroke="midnightblue" d="M305.19,-224.08C303.33,-216.93 300.66,-206.64 298.35,-197.69"/>
<polygon fill="midnightblue" stroke="midnightblue" points="301.67,-196.55 295.77,-187.75 294.89,-198.31 301.67,-196.55"/>
</g>
<!-- Node4 -->
<g id="node4" class="node">
<title>Node4</title>
<g id="a_node4"><a xlink:title=" ">
<polygon fill="white" stroke="#bfbfbf" points="267.5,-112.5 267.5,-131.5 319.5,-131.5 319.5,-112.5 267.5,-112.5"/>
<text text-anchor="middle" x="293.5" y="-119.5" font-family="Helvetica,sans-Serif" font-size="10.00">iomanip</text>
</a>
</g>
</g>
<!-- Node3&#45;&gt;Node4 -->
<g id="edge3" class="edge">
<title>Node3&#45;&gt;Node4</title>
<path fill="none" stroke="midnightblue" d="M293.5,-168.08C293.5,-161.01 293.5,-150.86 293.5,-141.99"/>
<polygon fill="midnightblue" stroke="midnightblue" points="297,-141.75 293.5,-131.75 290,-141.75 297,-141.75"/>
</g>
<!-- Node5 -->
<g id="node5" class="node">
<title>Node5</title>
<g id="a_node5"><a xlink:title=" ">
<polygon fill="white" stroke="#bfbfbf" points="292,-0.5 292,-19.5 347,-19.5 347,-0.5 292,-0.5"/>
<text text-anchor="middle" x="319.5" y="-7.5" font-family="Helvetica,sans-Serif" font-size="10.00">iostream</text>
</a>
</g>
</g>
<!-- Node3&#45;&gt;Node5 -->
<g id="edge4" class="edge">
<title>Node3&#45;&gt;Node5</title>
<path fill="none" stroke="midnightblue" d="M306.68,-168.45C318.31,-160.31 335,-147.09 345.5,-132 360.69,-110.18 361.76,-102.15 366.5,-76 368.09,-67.25 369.99,-64.17 366.5,-56 361.35,-43.95 351.22,-33.58 341.67,-25.84"/>
<polygon fill="midnightblue" stroke="midnightblue" points="343.67,-22.96 333.58,-19.74 339.46,-28.55 343.67,-22.96"/>
</g>
<!-- Node6 -->
<g id="node6" class="node">
<title>Node6</title>
<g id="a_node6"><a xlink:title=" ">
<polygon fill="white" stroke="#bfbfbf" points="149.5,-112.5 149.5,-131.5 179.5,-131.5 179.5,-112.5 149.5,-112.5"/>
<text text-anchor="middle" x="164.5" y="-119.5" font-family="Helvetica,sans-Serif" font-size="10.00">set</text>
</a>
</g>
</g>
<!-- Node3&#45;&gt;Node6 -->
<g id="edge5" class="edge">
<title>Node3&#45;&gt;Node6</title>
<path fill="none" stroke="midnightblue" d="M273.06,-168.44C250.21,-158.88 213.22,-143.39 188.88,-133.2"/>
<polygon fill="midnightblue" stroke="midnightblue" points="190.18,-129.96 179.6,-129.32 187.48,-136.41 190.18,-129.96"/>
</g>
<!-- Node7 -->
<g id="node7" class="node">
<title>Node7</title>
<g id="a_node7"><a xlink:title=" ">
<polygon fill="white" stroke="#bfbfbf" points="197.5,-112.5 197.5,-131.5 249.5,-131.5 249.5,-112.5 197.5,-112.5"/>
<text text-anchor="middle" x="223.5" y="-119.5" font-family="Helvetica,sans-Serif" font-size="10.00">sstream</text>
</a>
</g>
</g>
<!-- Node3&#45;&gt;Node7 -->
<g id="edge6" class="edge">
<title>Node3&#45;&gt;Node7</title>
<path fill="none" stroke="midnightblue" d="M282.25,-168.32C271.7,-160.18 255.7,-147.84 243.06,-138.09"/>
<polygon fill="midnightblue" stroke="midnightblue" points="245.01,-135.17 234.95,-131.83 240.73,-140.71 245.01,-135.17"/>
</g>
<!-- Node8 -->
<g id="node8" class="node">
<title>Node8</title>
<g id="a_node8"><a xlink:title=" ">
<polygon fill="white" stroke="#bfbfbf" points="0,-0.5 0,-19.5 41,-19.5 41,-0.5 0,-0.5"/>
<text text-anchor="middle" x="20.5" y="-7.5" font-family="Helvetica,sans-Serif" font-size="10.00">string</text>
</a>
</g>
</g>
<!-- Node3&#45;&gt;Node8 -->
<g id="edge7" class="edge">
<title>Node3&#45;&gt;Node8</title>
<path fill="none" stroke="midnightblue" d="M260.85,-175.35C201.32,-171.65 78.52,-160.68 48.5,-132 20.52,-105.27 18.01,-56.56 19.01,-29.82"/>
<polygon fill="midnightblue" stroke="midnightblue" points="22.52,-29.72 19.61,-19.53 15.53,-29.31 22.52,-29.72"/>
</g>
<!-- Node9 -->
<g id="node9" class="node">
<title>Node9</title>
<g id="a_node9"><a xlink:title=" ">
<polygon fill="white" stroke="#bfbfbf" points="313.5,-56.5 313.5,-75.5 357.5,-75.5 357.5,-56.5 313.5,-56.5"/>
<text text-anchor="middle" x="335.5" y="-63.5" font-family="Helvetica,sans-Serif" font-size="10.00">vector</text>
</a>
</g>
</g>
<!-- Node3&#45;&gt;Node9 -->
<g id="edge8" class="edge">
<title>Node3&#45;&gt;Node9</title>
<path fill="none" stroke="midnightblue" d="M302.7,-168.32C310.98,-159.89 322.71,-146.31 328.5,-132 334.42,-117.35 335.97,-99.41 336.16,-86.09"/>
<polygon fill="midnightblue" stroke="midnightblue" points="339.65,-85.74 336.04,-75.78 332.65,-85.82 339.65,-85.74"/>
</g>
<!-- Node10 -->
<g id="node10" class="node">
<title>Node10</title>
<g id="a_node10"><a xlink:href="../../d1/df2/_e57_format_8h.html" target="_top" xlink:title="header file for the E57 API">
<polygon fill="white" stroke="black" points="57.5,-112.5 57.5,-131.5 131.5,-131.5 131.5,-112.5 57.5,-112.5"/>
<text text-anchor="middle" x="94.5" y="-119.5" font-family="Helvetica,sans-Serif" font-size="10.00">E57Format.h</text>
</a>
</g>
</g>
<!-- Node3&#45;&gt;Node10 -->
<g id="edge9" class="edge">
<title>Node3&#45;&gt;Node10</title>
<path fill="none" stroke="midnightblue" d="M261.97,-168.44C227.91,-159.2 173.49,-144.44 135.98,-134.26"/>
<polygon fill="midnightblue" stroke="midnightblue" points="136.45,-130.76 125.88,-131.52 134.62,-137.51 136.45,-130.76"/>
</g>
<!-- Node10&#45;&gt;Node9 -->
<g id="edge12" class="edge">
<title>Node10&#45;&gt;Node9</title>
<path fill="none" stroke="midnightblue" d="M131.63,-112.68C178.69,-102.14 259.03,-84.13 303.5,-74.17"/>
<polygon fill="midnightblue" stroke="midnightblue" points="304.48,-77.54 313.47,-71.94 302.95,-70.71 304.48,-77.54"/>
</g>
<!-- Node11 -->
<g id="node11" class="node">
<title>Node11</title>
<g id="a_node11"><a xlink:title=" ">
<polygon fill="white" stroke="#bfbfbf" points="156.5,-56.5 156.5,-75.5 196.5,-75.5 196.5,-56.5 156.5,-56.5"/>
<text text-anchor="middle" x="176.5" y="-63.5" font-family="Helvetica,sans-Serif" font-size="10.00">cfloat</text>
</a>
</g>
</g>
<!-- Node10&#45;&gt;Node11 -->
<g id="edge10" class="edge">
<title>Node10&#45;&gt;Node11</title>
<path fill="none" stroke="midnightblue" d="M107.67,-112.32C120.35,-103.98 139.73,-91.21 154.71,-81.35"/>
<polygon fill="midnightblue" stroke="midnightblue" points="156.93,-84.08 163.36,-75.65 153.08,-78.23 156.93,-84.08"/>
</g>
<!-- Node12 -->
<g id="node12" class="node">
<title>Node12</title>
<g id="a_node12"><a xlink:title=" ">
<polygon fill="white" stroke="#bfbfbf" points="215,-56.5 215,-75.5 268,-75.5 268,-56.5 215,-56.5"/>
<text text-anchor="middle" x="241.5" y="-63.5" font-family="Helvetica,sans-Serif" font-size="10.00">memory</text>
</a>
</g>
</g>
<!-- Node10&#45;&gt;Node12 -->
<g id="edge11" class="edge">
<title>Node10&#45;&gt;Node12</title>
<path fill="none" stroke="midnightblue" d="M117.79,-112.44C142.31,-103.44 181.1,-89.19 208.7,-79.05"/>
<polygon fill="midnightblue" stroke="midnightblue" points="210.14,-82.25 218.32,-75.52 207.72,-75.68 210.14,-82.25"/>
</g>
<!-- Node13 -->
<g id="node13" class="node">
<title>Node13</title>
<g id="a_node13"><a xlink:href="../../d4/d6e/_e57_exception_8h.html" target="_top" xlink:title=" ">
<polygon fill="white" stroke="black" points="51,-56.5 51,-75.5 138,-75.5 138,-56.5 51,-56.5"/>
<text text-anchor="middle" x="94.5" y="-63.5" font-family="Helvetica,sans-Serif" font-size="10.00">E57Exception.h</text>
</a>
</g>
</g>
<!-- Node10&#45;&gt;Node13 -->
<g id="edge13" class="edge">
<title>Node10&#45;&gt;Node13</title>
<path fill="none" stroke="midnightblue" d="M94.5,-112.08C94.5,-105.01 94.5,-94.86 94.5,-85.99"/>
<polygon fill="midnightblue" stroke="midnightblue" points="98,-85.75 94.5,-75.75 91,-85.75 98,-85.75"/>
</g>
<!-- Node13&#45;&gt;Node5 -->
<g id="edge15" class="edge">
<title>Node13&#45;&gt;Node5</title>
<path fill="none" stroke="midnightblue" d="M130.15,-56.44C171.59,-46.5 239.68,-30.16 281.92,-20.02"/>
<polygon fill="midnightblue" stroke="midnightblue" points="282.91,-23.38 291.82,-17.64 281.28,-16.57 282.91,-23.38"/>
</g>
<!-- Node13&#45;&gt;Node8 -->
<g id="edge16" class="edge">
<title>Node13&#45;&gt;Node8</title>
<path fill="none" stroke="midnightblue" d="M82.61,-56.32C71.35,-48.11 54.21,-35.6 40.79,-25.81"/>
<polygon fill="midnightblue" stroke="midnightblue" points="42.75,-22.9 32.61,-19.83 38.62,-28.56 42.75,-22.9"/>
</g>
<!-- Node14 -->
<g id="node14" class="node">
<title>Node14</title>
<g id="a_node14"><a xlink:title=" ">
<polygon fill="white" stroke="#bfbfbf" points="150,-0.5 150,-19.5 209,-19.5 209,-0.5 150,-0.5"/>
<text text-anchor="middle" x="179.5" y="-7.5" font-family="Helvetica,sans-Serif" font-size="10.00">exception</text>
</a>
</g>
</g>
<!-- Node13&#45;&gt;Node14 -->
<g id="edge14" class="edge">
<title>Node13&#45;&gt;Node14</title>
<path fill="none" stroke="midnightblue" d="M108.16,-56.32C121.42,-47.9 141.77,-34.97 157.35,-25.07"/>
<polygon fill="midnightblue" stroke="midnightblue" points="159.31,-27.97 165.88,-19.65 155.56,-22.06 159.31,-27.97"/>
</g>
<!-- Node15 -->
<g id="node15" class="node">
<title>Node15</title>
<g id="a_node15"><a xlink:title=" ">
<polygon fill="white" stroke="#bfbfbf" points="59.5,-0.5 59.5,-19.5 131.5,-19.5 131.5,-0.5 59.5,-0.5"/>
<text text-anchor="middle" x="95.5" y="-7.5" font-family="Helvetica,sans-Serif" font-size="10.00">E57Export.h</text>
</a>
</g>
</g>
<!-- Node13&#45;&gt;Node15 -->
<g id="edge17" class="edge">
<title>Node13&#45;&gt;Node15</title>
<path fill="none" stroke="midnightblue" d="M94.67,-56.08C94.8,-49.01 94.98,-38.86 95.15,-29.99"/>
<polygon fill="midnightblue" stroke="midnightblue" points="98.65,-29.81 95.34,-19.75 91.65,-29.68 98.65,-29.81"/>
</g>
<!-- Node16&#45;&gt;Node3 -->
<g id="edge21" class="edge">
<title>Node16&#45;&gt;Node3</title>
<path fill="none" stroke="midnightblue" d="M391.96,-224.44C372.88,-215.64 342.93,-201.81 321.06,-191.72"/>
<polygon fill="midnightblue" stroke="midnightblue" points="322.5,-188.53 311.95,-187.52 319.57,-194.88 322.5,-188.53"/>
</g>
<!-- Node16&#45;&gt;Node9 -->
<g id="edge20" class="edge">
<title>Node16&#45;&gt;Node9</title>
<path fill="none" stroke="midnightblue" d="M406.47,-224.08C394.61,-197.83 359.69,-120.55 343.69,-85.12"/>
<polygon fill="midnightblue" stroke="midnightblue" points="346.68,-83.24 339.37,-75.57 340.3,-86.12 346.68,-83.24"/>
</g>
<!-- Node17 -->
<g id="node17" class="node">
<title>Node17</title>
<g id="a_node17"><a xlink:title=" ">
<polygon fill="white" stroke="#bfbfbf" points="452,-168.5 452,-187.5 497,-187.5 497,-168.5 452,-168.5"/>
<text text-anchor="middle" x="474.5" y="-175.5" font-family="Helvetica,sans-Serif" font-size="10.00">cstdint</text>
</a>
</g>
</g>
<!-- Node16&#45;&gt;Node17 -->
<g id="edge19" class="edge">
<title>Node16&#45;&gt;Node17</title>
<path fill="none" stroke="midnightblue" d="M420.78,-224.32C430.34,-216.26 444.78,-204.08 456.28,-194.37"/>
<polygon fill="midnightblue" stroke="midnightblue" points="458.64,-196.96 464.03,-187.83 454.13,-191.61 458.64,-196.96"/>
</g>
</g>
</svg>
