<?xml version="1.0" encoding="UTF-8" standalone="no"?>
<!DOCTYPE svg PUBLIC "-//W3C//DTD SVG 1.1//EN"
 "http://www.w3.org/Graphics/SVG/1.1/DTD/svg11.dtd">
<!-- Generated by graphviz version 7.0.0 (20221023.0053)
 -->
<!-- Title: CompressedVectorWriterImpl.h Pages: 1 -->
<svg width="436pt" height="302pt"
 viewBox="0.00 0.00 436.00 302.00" xmlns="http://www.w3.org/2000/svg" xmlns:xlink="http://www.w3.org/1999/xlink">
<g id="graph0" class="graph" transform="scale(1 1) rotate(0) translate(4 298)">
<title>CompressedVectorWriterImpl.h</title>
<!-- Node1 -->
<g id="node1" class="node">
<title>Node1</title>
<g id="a_node1"><a xlink:title=" ">
<polygon fill="#999999" stroke="#666666" points="193.5,-294 40.5,-294 40.5,-275 193.5,-275 193.5,-294"/>
<text text-anchor="middle" x="117" y="-282" font-family="Helvetica,sans-Serif" font-size="10.00">CompressedVectorWriterImpl.h</text>
</a>
</g>
</g>
<!-- Node2 -->
<g id="node2" class="node">
<title>Node2</title>
<g id="a_node2"><a xlink:href="../../df/d4b/_encoder_8h.html" target="_top" xlink:title=" ">
<polygon fill="white" stroke="#666666" points="109,-239 49,-239 49,-220 109,-220 109,-239"/>
<text text-anchor="middle" x="79" y="-227" font-family="Helvetica,sans-Serif" font-size="10.00">Encoder.h</text>
</a>
</g>
</g>
<!-- Node1&#45;&gt;Node2 -->
<g id="edge1" class="edge">
<title>Node1&#45;&gt;Node2</title>
<path fill="none" stroke="#63b8ff" d="M110.73,-274.75C105.64,-267.66 98.3,-257.42 91.97,-248.59"/>
<polygon fill="#63b8ff" stroke="#63b8ff" points="94.96,-246.76 86.29,-240.67 89.28,-250.84 94.96,-246.76"/>
</g>
<!-- Node15 -->
<g id="node15" class="node">
<title>Node15</title>
<g id="a_node15"><a xlink:href="../../d7/dbe/_packet_8h.html" target="_top" xlink:title=" ">
<polygon fill="white" stroke="#666666" points="183,-239 127,-239 127,-220 183,-220 183,-239"/>
<text text-anchor="middle" x="155" y="-227" font-family="Helvetica,sans-Serif" font-size="10.00">Packet.h</text>
</a>
</g>
</g>
<!-- Node1&#45;&gt;Node15 -->
<g id="edge16" class="edge">
<title>Node1&#45;&gt;Node15</title>
<path fill="none" stroke="#63b8ff" d="M123.27,-274.75C128.36,-267.66 135.7,-257.42 142.03,-248.59"/>
<polygon fill="#63b8ff" stroke="#63b8ff" points="144.72,-250.84 147.71,-240.67 139.04,-246.76 144.72,-250.84"/>
</g>
<!-- Node3 -->
<g id="node3" class="node">
<title>Node3</title>
<g id="a_node3"><a xlink:href="../../db/d1f/_common_8h.html" target="_top" xlink:title=" ">
<polygon fill="white" stroke="#666666" points="118.5,-184 53.5,-184 53.5,-165 118.5,-165 118.5,-184"/>
<text text-anchor="middle" x="86" y="-172" font-family="Helvetica,sans-Serif" font-size="10.00">Common.h</text>
</a>
</g>
</g>
<!-- Node2&#45;&gt;Node3 -->
<g id="edge2" class="edge">
<title>Node2&#45;&gt;Node3</title>
<path fill="none" stroke="#63b8ff" d="M80.16,-219.75C81.02,-213.19 82.24,-203.95 83.34,-195.6"/>
<polygon fill="#63b8ff" stroke="#63b8ff" points="86.78,-196.31 84.62,-185.94 79.84,-195.4 86.78,-196.31"/>
</g>
<!-- Node4 -->
<g id="node4" class="node">
<title>Node4</title>
<g id="a_node4"><a xlink:title=" ">
<polygon fill="#e0e0e0" stroke="#999999" points="30,-129 0,-129 0,-110 30,-110 30,-129"/>
<text text-anchor="middle" x="15" y="-117" font-family="Helvetica,sans-Serif" font-size="10.00">set</text>
</a>
</g>
</g>
<!-- Node3&#45;&gt;Node4 -->
<g id="edge3" class="edge">
<title>Node3&#45;&gt;Node4</title>
<path fill="none" stroke="#63b8ff" d="M73.96,-164.51C63.59,-156.77 48.4,-145.43 36.03,-136.2"/>
<polygon fill="#63b8ff" stroke="#63b8ff" points="38.19,-133.44 28.08,-130.26 34,-139.05 38.19,-133.44"/>
</g>
<!-- Node5 -->
<g id="node5" class="node">
<title>Node5</title>
<g id="a_node5"><a xlink:title=" ">
<polygon fill="#e0e0e0" stroke="#999999" points="78.5,-19 37.5,-19 37.5,0 78.5,0 78.5,-19"/>
<text text-anchor="middle" x="58" y="-7" font-family="Helvetica,sans-Serif" font-size="10.00">string</text>
</a>
</g>
</g>
<!-- Node3&#45;&gt;Node5 -->
<g id="edge4" class="edge">
<title>Node3&#45;&gt;Node5</title>
<path fill="none" stroke="#63b8ff" d="M84.49,-164.74C80.16,-139.53 67.6,-66.36 61.46,-30.62"/>
<polygon fill="#63b8ff" stroke="#63b8ff" points="64.91,-30.06 59.77,-20.8 58.01,-31.25 64.91,-30.06"/>
</g>
<!-- Node6 -->
<g id="node6" class="node">
<title>Node6</title>
<g id="a_node6"><a xlink:title=" ">
<polygon fill="#e0e0e0" stroke="#999999" points="130,-74 86,-74 86,-55 130,-55 130,-74"/>
<text text-anchor="middle" x="108" y="-62" font-family="Helvetica,sans-Serif" font-size="10.00">vector</text>
</a>
</g>
</g>
<!-- Node3&#45;&gt;Node6 -->
<g id="edge5" class="edge">
<title>Node3&#45;&gt;Node6</title>
<path fill="none" stroke="#63b8ff" d="M87.8,-164.66C91.3,-147.5 99.09,-109.26 103.91,-85.6"/>
<polygon fill="#63b8ff" stroke="#63b8ff" points="107.31,-86.44 105.87,-75.94 100.45,-85.04 107.31,-86.44"/>
</g>
<!-- Node7 -->
<g id="node7" class="node">
<title>Node7</title>
<g id="a_node7"><a xlink:href="../../d1/df2/_e57_format_8h.html" target="_top" xlink:title="Header file for the E57 API.">
<polygon fill="white" stroke="#666666" points="280.5,-129 207.5,-129 207.5,-110 280.5,-110 280.5,-129"/>
<text text-anchor="middle" x="244" y="-117" font-family="Helvetica,sans-Serif" font-size="10.00">E57Format.h</text>
</a>
</g>
</g>
<!-- Node3&#45;&gt;Node7 -->
<g id="edge6" class="edge">
<title>Node3&#45;&gt;Node7</title>
<path fill="none" stroke="#63b8ff" d="M112.8,-164.51C138.53,-155.88 177.63,-142.76 206.45,-133.1"/>
<polygon fill="#63b8ff" stroke="#63b8ff" points="207.53,-136.43 215.9,-129.93 205.3,-129.79 207.53,-136.43"/>
</g>
<!-- Node7&#45;&gt;Node6 -->
<g id="edge10" class="edge">
<title>Node7&#45;&gt;Node6</title>
<path fill="none" stroke="#63b8ff" d="M220.93,-109.51C198.98,-100.96 165.72,-88 140.98,-78.35"/>
<polygon fill="#63b8ff" stroke="#63b8ff" points="142.28,-75.1 131.69,-74.73 139.74,-81.62 142.28,-75.1"/>
</g>
<!-- Node8 -->
<g id="node8" class="node">
<title>Node8</title>
<g id="a_node8"><a xlink:title=" ">
<polygon fill="#e0e0e0" stroke="#999999" points="293.5,-74 252.5,-74 252.5,-55 293.5,-55 293.5,-74"/>
<text text-anchor="middle" x="273" y="-62" font-family="Helvetica,sans-Serif" font-size="10.00">cfloat</text>
</a>
</g>
</g>
<!-- Node7&#45;&gt;Node8 -->
<g id="edge7" class="edge">
<title>Node7&#45;&gt;Node8</title>
<path fill="none" stroke="#63b8ff" d="M248.79,-109.75C252.54,-102.88 257.91,-93.08 262.63,-84.45"/>
<polygon fill="#63b8ff" stroke="#63b8ff" points="265.65,-86.22 267.38,-75.77 259.51,-82.86 265.65,-86.22"/>
</g>
<!-- Node9 -->
<g id="node9" class="node">
<title>Node9</title>
<g id="a_node9"><a xlink:title=" ">
<polygon fill="#e0e0e0" stroke="#999999" points="428,-74 382,-74 382,-55 428,-55 428,-74"/>
<text text-anchor="middle" x="405" y="-62" font-family="Helvetica,sans-Serif" font-size="10.00">cstdint</text>
</a>
</g>
</g>
<!-- Node7&#45;&gt;Node9 -->
<g id="edge8" class="edge">
<title>Node7&#45;&gt;Node9</title>
<path fill="none" stroke="#63b8ff" d="M271.31,-109.51C298.84,-100.45 341.38,-86.44 371.06,-76.67"/>
<polygon fill="#63b8ff" stroke="#63b8ff" points="371.9,-80.08 380.3,-73.63 369.71,-73.43 371.9,-80.08"/>
</g>
<!-- Node10 -->
<g id="node10" class="node">
<title>Node10</title>
<g id="a_node10"><a xlink:title=" ">
<polygon fill="#e0e0e0" stroke="#999999" points="364,-74 312,-74 312,-55 364,-55 364,-74"/>
<text text-anchor="middle" x="338" y="-62" font-family="Helvetica,sans-Serif" font-size="10.00">memory</text>
</a>
</g>
</g>
<!-- Node7&#45;&gt;Node10 -->
<g id="edge9" class="edge">
<title>Node7&#45;&gt;Node10</title>
<path fill="none" stroke="#63b8ff" d="M259.95,-109.51C274.35,-101.39 295.79,-89.3 312.56,-79.85"/>
<polygon fill="#63b8ff" stroke="#63b8ff" points="313.98,-83.06 320.97,-75.1 310.54,-76.96 313.98,-83.06"/>
</g>
<!-- Node11 -->
<g id="node11" class="node">
<title>Node11</title>
<g id="a_node11"><a xlink:href="../../d4/d6e/_e57_exception_8h.html" target="_top" xlink:title="Exception handling for E57 API.">
<polygon fill="white" stroke="#666666" points="234,-74 148,-74 148,-55 234,-55 234,-74"/>
<text text-anchor="middle" x="191" y="-62" font-family="Helvetica,sans-Serif" font-size="10.00">E57Exception.h</text>
</a>
</g>
</g>
<!-- Node7&#45;&gt;Node11 -->
<g id="edge11" class="edge">
<title>Node7&#45;&gt;Node11</title>
<path fill="none" stroke="#63b8ff" d="M235.25,-109.75C227.85,-102.35 217.04,-91.54 207.95,-82.45"/>
<polygon fill="#63b8ff" stroke="#63b8ff" points="210.56,-80.11 201.01,-75.51 205.61,-85.06 210.56,-80.11"/>
</g>
<!-- Node11&#45;&gt;Node5 -->
<g id="edge14" class="edge">
<title>Node11&#45;&gt;Node5</title>
<path fill="none" stroke="#63b8ff" d="M168.44,-54.51C146.72,-45.85 113.67,-32.68 89.39,-23.01"/>
<polygon fill="#63b8ff" stroke="#63b8ff" points="90.91,-19.85 80.32,-19.4 88.32,-26.35 90.91,-19.85"/>
</g>
<!-- Node12 -->
<g id="node12" class="node">
<title>Node12</title>
<g id="a_node12"><a xlink:title=" ">
<polygon fill="#e0e0e0" stroke="#999999" points="155.5,-19 96.5,-19 96.5,0 155.5,0 155.5,-19"/>
<text text-anchor="middle" x="126" y="-7" font-family="Helvetica,sans-Serif" font-size="10.00">exception</text>
</a>
</g>
</g>
<!-- Node11&#45;&gt;Node12 -->
<g id="edge12" class="edge">
<title>Node11&#45;&gt;Node12</title>
<path fill="none" stroke="#63b8ff" d="M179.97,-54.51C170.58,-46.85 156.85,-35.66 145.59,-26.47"/>
<polygon fill="#63b8ff" stroke="#63b8ff" points="148,-23.92 138.04,-20.31 143.57,-29.35 148,-23.92"/>
</g>
<!-- Node13 -->
<g id="node13" class="node">
<title>Node13</title>
<g id="a_node13"><a xlink:title=" ">
<polygon fill="#e0e0e0" stroke="#999999" points="228,-19 174,-19 174,0 228,0 228,-19"/>
<text text-anchor="middle" x="201" y="-7" font-family="Helvetica,sans-Serif" font-size="10.00">iostream</text>
</a>
</g>
</g>
<!-- Node11&#45;&gt;Node13 -->
<g id="edge13" class="edge">
<title>Node11&#45;&gt;Node13</title>
<path fill="none" stroke="#63b8ff" d="M192.65,-54.75C193.89,-48.19 195.63,-38.95 197.21,-30.6"/>
<polygon fill="#63b8ff" stroke="#63b8ff" points="200.62,-31.4 199.03,-20.93 193.74,-30.11 200.62,-31.4"/>
</g>
<!-- Node14 -->
<g id="node14" class="node">
<title>Node14</title>
<g id="a_node14"><a xlink:title=" ">
<polygon fill="#e0e0e0" stroke="#999999" points="317.5,-19 246.5,-19 246.5,0 317.5,0 317.5,-19"/>
<text text-anchor="middle" x="282" y="-7" font-family="Helvetica,sans-Serif" font-size="10.00">E57Export.h</text>
</a>
</g>
</g>
<!-- Node11&#45;&gt;Node14 -->
<g id="edge15" class="edge">
<title>Node11&#45;&gt;Node14</title>
<path fill="none" stroke="#63b8ff" d="M206.44,-54.51C220.25,-46.47 240.75,-34.53 256.91,-25.11"/>
<polygon fill="#63b8ff" stroke="#63b8ff" points="258.6,-28.18 265.48,-20.12 255.08,-22.13 258.6,-28.18"/>
</g>
<!-- Node15&#45;&gt;Node3 -->
<g id="edge19" class="edge">
<title>Node15&#45;&gt;Node3</title>
<path fill="none" stroke="#63b8ff" d="M143.3,-219.51C133.22,-211.77 118.46,-200.43 106.44,-191.2"/>
<polygon fill="#63b8ff" stroke="#63b8ff" points="108.79,-188.6 98.73,-185.28 104.53,-194.15 108.79,-188.6"/>
</g>
<!-- Node15&#45;&gt;Node6 -->
<g id="edge18" class="edge">
<title>Node15&#45;&gt;Node6</title>
<path fill="none" stroke="#63b8ff" d="M152.47,-219.74C145.17,-194.42 123.92,-120.72 113.67,-85.16"/>
<polygon fill="#63b8ff" stroke="#63b8ff" points="117.09,-84.4 110.96,-75.76 110.37,-86.34 117.09,-84.4"/>
</g>
<!-- Node15&#45;&gt;Node9 -->
<g id="edge17" class="edge">
<title>Node15&#45;&gt;Node9</title>
<path fill="none" stroke="#63b8ff" d="M168.8,-219.5C209.69,-192.84 330.56,-114.03 381.71,-80.68"/>
<polygon fill="#63b8ff" stroke="#63b8ff" points="383.51,-83.69 389.98,-75.29 379.69,-77.82 383.51,-83.69"/>
</g>
</g>
</svg>
