<?xml version="1.0" encoding="UTF-8" standalone="no"?>
<!DOCTYPE svg PUBLIC "-//W3C//DTD SVG 1.1//EN"
 "http://www.w3.org/Graphics/SVG/1.1/DTD/svg11.dtd">
<!-- Generated by graphviz version 7.0.0 (20221023.0053)
 -->
<!-- Title: e57::RigidBodyTransform Pages: 1 -->
<svg width="198pt" height="93pt"
 viewBox="0.00 0.00 198.00 93.00" xmlns="http://www.w3.org/2000/svg" xmlns:xlink="http://www.w3.org/1999/xlink">
<g id="graph0" class="graph" transform="scale(1 1) rotate(0) translate(4 89)">
<title>e57::RigidBodyTransform</title>
<!-- Node1 -->
<g id="node1" class="node">
<title>Node1</title>
<g id="a_node1"><a xlink:title="Defines a rigid body transform in cartesian coordinates.">
<polygon fill="#999999" stroke="#666666" points="159,-19 31,-19 31,0 159,0 159,-19"/>
<text text-anchor="middle" x="95" y="-7" font-family="Helvetica,sans-Serif" font-size="10.00">e57::RigidBodyTransform</text>
</a>
</g>
</g>
<!-- Node2 -->
<g id="node2" class="node">
<title>Node2</title>
<g id="a_node2"><a xlink:href="../../dc/da9/structe57_1_1_quaternion.html" target="_top" xlink:title="Represents a rigid body rotation.">
<polygon fill="white" stroke="#666666" points="86,-85 0,-85 0,-66 86,-66 86,-85"/>
<text text-anchor="middle" x="43" y="-73" font-family="Helvetica,sans-Serif" font-size="10.00">e57::Quaternion</text>
</a>
</g>
</g>
<!-- Node2&#45;&gt;Node1 -->
<g id="edge1" class="edge">
<title>Node2&#45;&gt;Node1</title>
<path fill="none" stroke="#9a32cd" stroke-dasharray="5,2" d="M57.41,-56.76C67.31,-44.58 80.02,-28.94 87.83,-19.32"/>
<polygon fill="#9a32cd" stroke="#9a32cd" points="54.77,-54.46 51.18,-64.43 60.21,-58.87 54.77,-54.46"/>
<text text-anchor="middle" x="91" y="-40" font-family="Helvetica,sans-Serif" font-size="10.00"> rotation</text>
</g>
<!-- Node3 -->
<g id="node3" class="node">
<title>Node3</title>
<g id="a_node3"><a xlink:href="../../d6/dad/structe57_1_1_translation.html" target="_top" xlink:title="Defines a rigid body translation in Cartesian coordinates.">
<polygon fill="white" stroke="#666666" points="190,-85 104,-85 104,-66 190,-66 190,-85"/>
<text text-anchor="middle" x="147" y="-73" font-family="Helvetica,sans-Serif" font-size="10.00">e57::Translation</text>
</a>
</g>
</g>
<!-- Node3&#45;&gt;Node1 -->
<g id="edge2" class="edge">
<title>Node3&#45;&gt;Node1</title>
<path fill="none" stroke="#9a32cd" stroke-dasharray="5,2" d="M132.59,-56.76C122.69,-44.58 109.98,-28.94 102.17,-19.32"/>
<polygon fill="#9a32cd" stroke="#9a32cd" points="129.79,-58.87 138.82,-64.43 135.23,-54.46 129.79,-58.87"/>
<text text-anchor="middle" x="148.5" y="-40" font-family="Helvetica,sans-Serif" font-size="10.00"> translation</text>
</g>
</g>
</svg>
