<?xml version="1.0" encoding="UTF-8" standalone="no"?>
<!DOCTYPE svg PUBLIC "-//W3C//DTD SVG 1.1//EN"
 "http://www.w3.org/Graphics/SVG/1.1/DTD/svg11.dtd">
<!-- Generated by graphviz version 9.0.0 (20230911.1827)
 -->
<!-- Title: e57::RigidBodyTransform Pages: 1 -->
<svg width="196pt" height="94pt"
 viewBox="0.00 0.00 196.38 93.75" xmlns="http://www.w3.org/2000/svg" xmlns:xlink="http://www.w3.org/1999/xlink">
<g id="graph0" class="graph" transform="scale(1 1) rotate(0) translate(4 89.75)">
<title>e57::RigidBodyTransform</title>
<!-- Node1 -->
<g id="node1" class="node">
<title>Node1</title>
<g id="a_node1"><a xlink:title="Defines a rigid body transform in cartesian coordinates.">
<polygon fill="#999999" stroke="#666666" points="157,-19.25 30,-19.25 30,0 157,0 157,-19.25"/>
<text text-anchor="middle" x="93.5" y="-5.75" font-family="Helvetica,sans-Serif" font-size="10.00">e57::RigidBodyTransform</text>
</a>
</g>
</g>
<!-- Node2 -->
<g id="node2" class="node">
<title>Node2</title>
<g id="a_node2"><a xlink:href="../../dc/da9/structe57_1_1_quaternion.html" target="_top" xlink:title="Represents a rigid body rotation.">
<polygon fill="white" stroke="#666666" points="85,-85.75 0,-85.75 0,-66.5 85,-66.5 85,-85.75"/>
<text text-anchor="middle" x="42.5" y="-72.25" font-family="Helvetica,sans-Serif" font-size="10.00">e57::Quaternion</text>
</a>
</g>
</g>
<!-- Node2&#45;&gt;Node1 -->
<g id="edge1" class="edge">
<title>Node2&#45;&gt;Node1</title>
<path fill="none" stroke="#9a32cd" stroke-dasharray="5,2" d="M56.64,-57.24C66.34,-44.97 78.81,-29.21 86.47,-19.52"/>
<polygon fill="#9a32cd" stroke="#9a32cd" points="53.99,-54.95 50.53,-64.97 59.48,-59.3 53.99,-54.95"/>
<text text-anchor="middle" x="89.12" y="-39" font-family="Helvetica,sans-Serif" font-size="10.00"> rotation</text>
</g>
<!-- Node3 -->
<g id="node3" class="node">
<title>Node3</title>
<g id="a_node3"><a xlink:href="../../d6/dad/structe57_1_1_translation.html" target="_top" xlink:title="Defines a rigid body translation in Cartesian coordinates.">
<polygon fill="white" stroke="#666666" points="188.38,-85.75 102.62,-85.75 102.62,-66.5 188.38,-66.5 188.38,-85.75"/>
<text text-anchor="middle" x="145.5" y="-72.25" font-family="Helvetica,sans-Serif" font-size="10.00">e57::Translation</text>
</a>
</g>
</g>
<!-- Node3&#45;&gt;Node1 -->
<g id="edge2" class="edge">
<title>Node3&#45;&gt;Node1</title>
<path fill="none" stroke="#9a32cd" stroke-dasharray="5,2" d="M131.09,-57.24C121.19,-44.97 108.48,-29.21 100.67,-19.52"/>
<polygon fill="#9a32cd" stroke="#9a32cd" points="128.32,-59.39 137.32,-64.98 133.77,-55 128.32,-59.39"/>
<text text-anchor="middle" x="146.5" y="-39" font-family="Helvetica,sans-Serif" font-size="10.00"> translation</text>
</g>
</g>
</svg>
