<svg height="82pt" viewBox="0 0 288 82" width="288pt" xmlns="http://www.w3.org/2000/svg"><g transform="translate(4 78)"><a xlink:title="Exception handling for E57 API."><path d="m180.5-74h-86v19h86z" fill="#999" stroke="#666"/><text font-family="Helvetica,sans-Serif" font-size="10" text-anchor="middle" x="137.5" y="-62">E57Exception.h</text></a><a xlink:title=""><path d="m59-19h-59v19h59z" fill="#e0e0e0" stroke="#999"/><text font-family="Helvetica,sans-Serif" font-size="10" text-anchor="middle" x="29.5" y="-7">exception</text></a><g stroke="#63b8ff"><path d="m120.15-54.98c-17.22 8.44-43.85 21.51-63.8 31.3" fill="none"/><path d="m57.69-20.43-10.52 1.26 7.43-7.55z" fill="#63b8ff"/></g><a xlink:title=""><path d="m131.5-19h-54v19h54z" fill="#e0e0e0" stroke="#999"/><text font-family="Helvetica,sans-Serif" font-size="10" text-anchor="middle" x="104.5" y="-7">iostream</text></a><g stroke="#63b8ff"><path d="m132.05-54.75c-4.56 7.33-11.22 18.02-16.84 27.05" fill="none"/><path d="m118.1-25.73-8.25 6.64 2.31-10.34z" fill="#63b8ff"/></g><a xlink:title=""><path d="m191-19h-41v19h41z" fill="#e0e0e0" stroke="#999"/><text font-family="Helvetica,sans-Serif" font-size="10" text-anchor="middle" x="170.5" y="-7">string</text></a><g stroke="#63b8ff"><path d="m142.95-54.75c4.56 7.33 11.22 18.02 16.84 27.05" fill="none"/><path d="m162.84-29.43 2.31 10.34-8.25-6.64z" fill="#63b8ff"/></g><a xlink:title=""><path d="m280-19h-71v19h71z" fill="#e0e0e0" stroke="#999"/><text font-family="Helvetica,sans-Serif" font-size="10" text-anchor="middle" x="244.5" y="-7">E57Export.h</text></a><g stroke="#63b8ff"><path d="m154.69-54.98c17.06 8.44 43.44 21.51 63.21 31.3" fill="none"/><path d="m219.59-26.75 7.41 7.58-10.52-1.3z" fill="#63b8ff"/></g></g></svg>