<?xml version="1.0" encoding="UTF-8" standalone="no"?>
<!DOCTYPE svg PUBLIC "-//W3C//DTD SVG 1.1//EN"
 "http://www.w3.org/Graphics/SVG/1.1/DTD/svg11.dtd">
<!-- Generated by graphviz version 9.0.0 (20230911.1827)
 -->
<!-- Title: E57Exception.h Pages: 1 -->
<svg width="284pt" height="83pt"
 viewBox="0.00 0.00 284.00 82.50" xmlns="http://www.w3.org/2000/svg" xmlns:xlink="http://www.w3.org/1999/xlink">
<g id="graph0" class="graph" transform="scale(1 1) rotate(0) translate(4 78.5)">
<title>E57Exception.h</title>
<!-- Node1 -->
<g id="node1" class="node">
<title>Node1</title>
<g id="a_node1"><a xlink:title="Exception handling for E57 API.">
<polygon fill="#999999" stroke="#666666" points="177.5,-74.5 92.5,-74.5 92.5,-55.25 177.5,-55.25 177.5,-74.5"/>
<text text-anchor="middle" x="135" y="-61" font-family="Helvetica,sans-Serif" font-size="10.00">E57Exception.h</text>
</a>
</g>
</g>
<!-- Node2 -->
<g id="node2" class="node">
<title>Node2</title>
<g id="a_node2"><a xlink:title=" ">
<polygon fill="#e0e0e0" stroke="#999999" points="58,-19.25 0,-19.25 0,0 58,0 58,-19.25"/>
<text text-anchor="middle" x="29" y="-5.75" font-family="Helvetica,sans-Serif" font-size="10.00">exception</text>
</a>
</g>
</g>
<!-- Node1&#45;&gt;Node2 -->
<g id="edge1" class="edge">
<title>Node1&#45;&gt;Node2</title>
<path fill="none" stroke="#63b8ff" d="M117.02,-54.84C100.65,-46.62 76.21,-34.34 57.24,-24.81"/>
<polygon fill="#63b8ff" stroke="#63b8ff" points="58.93,-21.74 48.42,-20.38 55.79,-28 58.93,-21.74"/>
</g>
<!-- Node3 -->
<g id="node3" class="node">
<title>Node3</title>
<g id="a_node3"><a xlink:title=" ">
<polygon fill="#e0e0e0" stroke="#999999" points="129.75,-19.25 76.25,-19.25 76.25,0 129.75,0 129.75,-19.25"/>
<text text-anchor="middle" x="103" y="-5.75" font-family="Helvetica,sans-Serif" font-size="10.00">iostream</text>
</a>
</g>
</g>
<!-- Node1&#45;&gt;Node3 -->
<g id="edge2" class="edge">
<title>Node1&#45;&gt;Node3</title>
<path fill="none" stroke="#63b8ff" d="M129.72,-55.08C125.53,-48.11 119.52,-38.12 114.27,-29.37"/>
<polygon fill="#63b8ff" stroke="#63b8ff" points="117.33,-27.68 109.18,-20.91 111.33,-31.28 117.33,-27.68"/>
</g>
<!-- Node4 -->
<g id="node4" class="node">
<title>Node4</title>
<g id="a_node4"><a xlink:title=" ">
<polygon fill="#e0e0e0" stroke="#999999" points="188,-19.25 148,-19.25 148,0 188,0 188,-19.25"/>
<text text-anchor="middle" x="168" y="-5.75" font-family="Helvetica,sans-Serif" font-size="10.00">string</text>
</a>
</g>
</g>
<!-- Node1&#45;&gt;Node4 -->
<g id="edge3" class="edge">
<title>Node1&#45;&gt;Node4</title>
<path fill="none" stroke="#63b8ff" d="M140.45,-55.08C144.77,-48.11 150.96,-38.12 156.38,-29.37"/>
<polygon fill="#63b8ff" stroke="#63b8ff" points="159.34,-31.24 161.64,-20.9 153.39,-27.55 159.34,-31.24"/>
</g>
<!-- Node5 -->
<g id="node5" class="node">
<title>Node5</title>
<g id="a_node5"><a xlink:title=" ">
<polygon fill="#e0e0e0" stroke="#999999" points="276,-19.25 206,-19.25 206,0 276,0 276,-19.25"/>
<text text-anchor="middle" x="241" y="-5.75" font-family="Helvetica,sans-Serif" font-size="10.00">E57Export.h</text>
</a>
</g>
</g>
<!-- Node1&#45;&gt;Node5 -->
<g id="edge4" class="edge">
<title>Node1&#45;&gt;Node5</title>
<path fill="none" stroke="#63b8ff" d="M152.98,-54.84C169.35,-46.62 193.79,-34.34 212.76,-24.81"/>
<polygon fill="#63b8ff" stroke="#63b8ff" points="214.21,-28 221.58,-20.38 211.07,-21.74 214.21,-28"/>
</g>
</g>
</svg>
