<?xml version="1.0" encoding="UTF-8" standalone="no"?>
<!DOCTYPE svg PUBLIC "-//W3C//DTD SVG 1.1//EN"
 "http://www.w3.org/Graphics/SVG/1.1/DTD/svg11.dtd">
<!-- Generated by graphviz version 2.49.0 (20210828.1703)
 -->
<!-- Title: e57::PointGroupingSchemes Pages: 1 -->
<svg width="153pt" height="173pt"
 viewBox="0.00 0.00 153.00 173.00" xmlns="http://www.w3.org/2000/svg" xmlns:xlink="http://www.w3.org/1999/xlink">
<g id="graph0" class="graph" transform="scale(1 1) rotate(0) translate(4 169)">
<title>e57::PointGroupingSchemes</title>
<polygon fill="white" stroke="transparent" points="-4,4 -4,-169 149,-169 149,4 -4,4"/>
<!-- Node1 -->
<g id="node1" class="node">
<title>Node1</title>
<g id="a_node1"><a xlink:title="Supports the division of points within an Data3D into logical groupings.">
<polygon fill="#bfbfbf" stroke="black" points="0,-0.5 0,-19.5 144,-19.5 144,-0.5 0,-0.5"/>
<text text-anchor="middle" x="72" y="-7.5" font-family="Helvetica,sans-Serif" font-size="10.00">e57::PointGroupingSchemes</text>
</a>
</g>
</g>
<!-- Node2 -->
<g id="node2" class="node">
<title>Node2</title>
<g id="a_node2"><a xlink:href="../../df/dfe/structe57_1_1_grouping_by_line.html" target="_top" xlink:title="Stores a set of point groups organized by the rowIndex or columnIndex attribute of the PointRecord.">
<polygon fill="white" stroke="black" points="17,-67.5 17,-86.5 127,-86.5 127,-67.5 17,-67.5"/>
<text text-anchor="middle" x="72" y="-74.5" font-family="Helvetica,sans-Serif" font-size="10.00">e57::GroupingByLine</text>
</a>
</g>
</g>
<!-- Node2&#45;&gt;Node1 -->
<g id="edge1" class="edge">
<title>Node2&#45;&gt;Node1</title>
<path fill="none" stroke="#9a32cd" stroke-dasharray="5,2" d="M72,-57.04C72,-44.67 72,-29.12 72,-19.63"/>
<polygon fill="#9a32cd" stroke="#9a32cd" points="68.5,-57.23 72,-67.23 75.5,-57.23 68.5,-57.23"/>
<text text-anchor="middle" x="108.5" y="-41" font-family="Helvetica,sans-Serif" font-size="10.00"> groupingByLine</text>
</g>
<!-- Node3 -->
<g id="node3" class="node">
<title>Node3</title>
<g id="a_node3"><a xlink:title=" ">
<polygon fill="white" stroke="#bfbfbf" points="48.5,-145.5 48.5,-164.5 95.5,-164.5 95.5,-145.5 48.5,-145.5"/>
<text text-anchor="middle" x="72" y="-152.5" font-family="Helvetica,sans-Serif" font-size="10.00">int64_t</text>
</a>
</g>
</g>
<!-- Node3&#45;&gt;Node2 -->
<g id="edge2" class="edge">
<title>Node3&#45;&gt;Node2</title>
<path fill="none" stroke="#9a32cd" stroke-dasharray="5,2" d="M72,-135.22C72,-119.7 72,-98.36 72,-86.62"/>
<polygon fill="#9a32cd" stroke="#9a32cd" points="68.5,-135.28 72,-145.28 75.5,-135.28 68.5,-135.28"/>
<text text-anchor="middle" x="106" y="-119" font-family="Helvetica,sans-Serif" font-size="10.00"> groupsSize</text>
<text text-anchor="middle" x="106" y="-108" font-family="Helvetica,sans-Serif" font-size="10.00">pointCountSize</text>
</g>
</g>
</svg>
