<?xml version="1.0" encoding="UTF-8" standalone="no"?>
<!DOCTYPE svg PUBLIC "-//W3C//DTD SVG 1.1//EN"
 "http://www.w3.org/Graphics/SVG/1.1/DTD/svg11.dtd">
<!-- Generated by graphviz version 8.1.0 (20230707.0739)
 -->
<!-- Title: e57::PointGroupingSchemes Pages: 1 -->
<svg width="149pt" height="172pt"
 viewBox="0.00 0.00 148.50 171.50" xmlns="http://www.w3.org/2000/svg" xmlns:xlink="http://www.w3.org/1999/xlink">
<g id="graph0" class="graph" transform="scale(1 1) rotate(0) translate(4 167.5)">
<title>e57::PointGroupingSchemes</title>
<!-- Node1 -->
<g id="node1" class="node">
<title>Node1</title>
<g id="a_node1"><a xlink:title="Supports the division of points within an Data3D into logical groupings.">
<polygon fill="#999999" stroke="#666666" points="140.5,-19.25 0,-19.25 0,0 140.5,0 140.5,-19.25"/>
<text text-anchor="middle" x="70.25" y="-5.75" font-family="Helvetica,sans-Serif" font-size="10.00">e57::PointGroupingSchemes</text>
</a>
</g>
</g>
<!-- Node2 -->
<g id="node2" class="node">
<title>Node2</title>
<g id="a_node2"><a xlink:href="../../df/dfe/structe57_1_1_grouping_by_line.html" target="_top" xlink:title="Stores a set of point groups organized by the rowIndex or columnIndex attribute of the PointRecord.">
<polygon fill="white" stroke="#666666" points="123.62,-85.75 16.88,-85.75 16.88,-66.5 123.62,-66.5 123.62,-85.75"/>
<text text-anchor="middle" x="70.25" y="-72.25" font-family="Helvetica,sans-Serif" font-size="10.00">e57::GroupingByLine</text>
</a>
</g>
</g>
<!-- Node2&#45;&gt;Node1 -->
<g id="edge1" class="edge">
<title>Node2&#45;&gt;Node1</title>
<path fill="none" stroke="#9a32cd" stroke-dasharray="5,2" d="M70.25,-55.4C70.25,-43.43 70.25,-28.73 70.25,-19.52"/>
<polygon fill="#9a32cd" stroke="#9a32cd" points="66.75,-55.16 70.25,-65.16 73.75,-55.16 66.75,-55.16"/>
<text text-anchor="middle" x="105.12" y="-39" font-family="Helvetica,sans-Serif" font-size="10.00"> groupingByLine</text>
</g>
<!-- Node3 -->
<g id="node3" class="node">
<title>Node3</title>
<g id="a_node3"><a xlink:title=" ">
<polygon fill="white" stroke="#666666" points="92.88,-163.5 47.62,-163.5 47.62,-144.25 92.88,-144.25 92.88,-163.5"/>
<text text-anchor="middle" x="70.25" y="-150" font-family="Helvetica,sans-Serif" font-size="10.00">int64_t</text>
</a>
</g>
</g>
<!-- Node3&#45;&gt;Node2 -->
<g id="edge2" class="edge">
<title>Node3&#45;&gt;Node2</title>
<path fill="none" stroke="#9a32cd" stroke-dasharray="5,2" d="M70.25,-133.05C70.25,-117.85 70.25,-97.6 70.25,-86.1"/>
<polygon fill="#9a32cd" stroke="#9a32cd" points="66.75,-132.89 70.25,-142.89 73.75,-132.89 66.75,-132.89"/>
<text text-anchor="middle" x="103.62" y="-116.75" font-family="Helvetica,sans-Serif" font-size="10.00"> groupsSize</text>
<text text-anchor="middle" x="103.62" y="-105.5" font-family="Helvetica,sans-Serif" font-size="10.00">pointCountSize</text>
</g>
</g>
</svg>
