<?xml version="1.0" encoding="UTF-8" standalone="no"?>
<!DOCTYPE svg PUBLIC "-//W3C//DTD SVG 1.1//EN"
 "http://www.w3.org/Graphics/SVG/1.1/DTD/svg11.dtd">
<!-- Generated by graphviz version 7.0.0 (20221023.0053)
 -->
<!-- Title: e57::PointGroupingSchemes Pages: 1 -->
<svg width="149pt" height="170pt"
 viewBox="0.00 0.00 149.00 170.00" xmlns="http://www.w3.org/2000/svg" xmlns:xlink="http://www.w3.org/1999/xlink">
<g id="graph0" class="graph" transform="scale(1 1) rotate(0) translate(4 166)">
<title>e57::PointGroupingSchemes</title>
<!-- Node1 -->
<g id="node1" class="node">
<title>Node1</title>
<g id="a_node1"><a xlink:title="Supports the division of points within an Data3D into logical groupings.">
<polygon fill="#999999" stroke="#666666" points="141,-19 0,-19 0,0 141,0 141,-19"/>
<text text-anchor="middle" x="70.5" y="-7" font-family="Helvetica,sans-Serif" font-size="10.00">e57::PointGroupingSchemes</text>
</a>
</g>
</g>
<!-- Node2 -->
<g id="node2" class="node">
<title>Node2</title>
<g id="a_node2"><a xlink:href="../../df/dfe/structe57_1_1_grouping_by_line.html" target="_top" xlink:title="Stores a set of point groups organized by the rowIndex or columnIndex attribute of the PointRecord.">
<polygon fill="white" stroke="#666666" points="124,-85 17,-85 17,-66 124,-66 124,-85"/>
<text text-anchor="middle" x="70.5" y="-73" font-family="Helvetica,sans-Serif" font-size="10.00">e57::GroupingByLine</text>
</a>
</g>
</g>
<!-- Node2&#45;&gt;Node1 -->
<g id="edge1" class="edge">
<title>Node2&#45;&gt;Node1</title>
<path fill="none" stroke="#9a32cd" stroke-dasharray="5,2" d="M70.5,-54.18C70.5,-42.44 70.5,-28.27 70.5,-19.32"/>
<polygon fill="#9a32cd" stroke="#9a32cd" points="67,-54.09 70.5,-64.09 74,-54.09 67,-54.09"/>
<text text-anchor="middle" x="105.5" y="-40" font-family="Helvetica,sans-Serif" font-size="10.00"> groupingByLine</text>
</g>
<!-- Node3 -->
<g id="node3" class="node">
<title>Node3</title>
<g id="a_node3"><a xlink:title=" ">
<polygon fill="white" stroke="#666666" points="93.5,-162 47.5,-162 47.5,-143 93.5,-143 93.5,-162"/>
<text text-anchor="middle" x="70.5" y="-150" font-family="Helvetica,sans-Serif" font-size="10.00">int64_t</text>
</a>
</g>
</g>
<!-- Node3&#45;&gt;Node2 -->
<g id="edge2" class="edge">
<title>Node3&#45;&gt;Node2</title>
<path fill="none" stroke="#9a32cd" stroke-dasharray="5,2" d="M70.5,-131.42C70.5,-116.43 70.5,-96.66 70.5,-85.39"/>
<polygon fill="#9a32cd" stroke="#9a32cd" points="67,-131.09 70.5,-141.09 74,-131.09 67,-131.09"/>
<text text-anchor="middle" x="104" y="-117" font-family="Helvetica,sans-Serif" font-size="10.00"> groupsSize</text>
<text text-anchor="middle" x="104" y="-106" font-family="Helvetica,sans-Serif" font-size="10.00">pointCountSize</text>
</g>
</g>
</svg>
