<svg height="434pt" viewBox="0 0 786 433.5" width="786pt" xmlns="http://www.w3.org/2000/svg" xmlns:xlink="http://www.w3.org/1999/xlink"><g transform="translate(4 429.5)"><a xlink:title="Stores the top&#45;level information for a single lidar scan."><path d="m778-209h-72v19h72z" fill="#999" stroke="#666"/><text font-family="Helvetica,sans-Serif" font-size="10" text-anchor="middle" x="742" y="-197">e57::Data3D</text></a><a target="_top" xlink:href="../../d1/dd7/structe57_1_1_date_time.html" xlink:title="Encodes date and time."><path d="m533.5-414h-81v19h81z" fill="#fff" stroke="#666"/><text font-family="Helvetica,sans-Serif" font-size="10" text-anchor="middle" x="493" y="-402">e57::DateTime</text></a><g><path d="m543.76-406.74c43.29.77 105.06 8.84 144.24 44.24 46.36 41.9 52.33 124.74 52.97 153.16" fill="none" stroke="#9a32cd" stroke-dasharray="5 2"/><path d="m543.71-403.24-9.98-3.56 10.02-3.44z" fill="#9a32cd" stroke="#9a32cd"/><g font-family="Helvetica,sans-Serif" font-size="10" text-anchor="middle"><text x="635.5" y="-417.5">acquisitionEnd</text><text x="635.5" y="-406.5">acquisitionStart</text></g></g><a xlink:title=""><path d="m236.5-425h-46v19h46z" fill="#fff" stroke="#666"/><text font-family="Helvetica,sans-Serif" font-size="10" text-anchor="middle" x="213.5" y="-413">int32_t</text></a><g><path d="m246.86-414.22c50.99 2.02 149.9 5.94 205.22 8.14" fill="none" stroke="#9a32cd" stroke-dasharray="5 2"/><path d="m246.59-410.72-9.85-3.9 10.13-3.1z" fill="#9a32cd" stroke="#9a32cd"/><text font-family="Helvetica,sans-Serif" font-size="10" text-anchor="middle" x="344" y="-415.5">isAtomicClockReferenced</text></g><a target="_top" xlink:href="../../d2/df3/structe57_1_1_rigid_body_transform.html" xlink:title="Defines a rigid body transform in cartesian coordinates."><path d="m557-351h-128v19h128z" fill="#fff" stroke="#666"/><text font-family="Helvetica,sans-Serif" font-size="10" text-anchor="middle" x="493" y="-339">e57::RigidBodyTransform</text></a><g><path d="m567.5-348.39c39.24.09 86.34 6.63 120.5 31.89 36.4 26.92 48.4 84.72 51.81 107.49" fill="none" stroke="#9a32cd" stroke-dasharray="5 2"/><path d="m567.48-344.89-10.04-3.38 9.96-3.62z" fill="#9a32cd" stroke="#9a32cd"/><text font-family="Helvetica,sans-Serif" font-size="10" text-anchor="middle" x="635.5" y="-350.5">pose</text></g><a target="_top" xlink:href="../../dc/da9/structe57_1_1_quaternion.html" xlink:title="Represents a rigid body rotation."><path d="m256.5-388h-86v19h86z" fill="#fff" stroke="#666"/><text font-family="Helvetica,sans-Serif" font-size="10" text-anchor="middle" x="213.5" y="-376">e57::Quaternion</text></a><g><path d="m266.79-373.12c37.88 4.08 90.29 10.08 136.21 16.62 11.32 1.61 23.43 3.53 34.94 5.44" fill="none" stroke="#9a32cd" stroke-dasharray="5 2"/><path d="m266.08-369.67-9.58-4.55 10.32-2.41z" fill="#9a32cd" stroke="#9a32cd"/><text font-family="Helvetica,sans-Serif" font-size="10" text-anchor="middle" x="344" y="-373.5">rotation</text></g><a target="_top" xlink:href="../../d6/dad/structe57_1_1_translation.html" xlink:title="Defines a rigid body translation in Cartesian coordinates."><path d="m256.5-351h-86v19h86z" fill="#fff" stroke="#666"/><text font-family="Helvetica,sans-Serif" font-size="10" text-anchor="middle" x="213.5" y="-339">e57::Translation</text></a><g><path d="m266.7-341.5h162.11" fill="none" stroke="#9a32cd" stroke-dasharray="5 2"/><path d="m266.65-338-10-3.5 10-3.5z" fill="#9a32cd" stroke="#9a32cd"/><text font-family="Helvetica,sans-Serif" font-size="10" text-anchor="middle" x="344" y="-344.5">translation</text></g><a target="_top" xlink:href="../../d7/d4c/structe57_1_1_index_bounds.html" xlink:title="Stores the minimum and maximum of rowIndex, columnIndex, and returnIndex fields for a set of points."><path d="m391.5-246h-95v19h95z" fill="#fff" stroke="#666"/><text font-family="Helvetica,sans-Serif" font-size="10" text-anchor="middle" x="344" y="-234">e57::IndexBounds</text></a><g><path d="m401.75-237.33c6.49-.07 13.02-.13 19.25-.17 118.78-.78 152.73-20.45 267 12 13.21 3.75 27.11 10.7 37.36 16.47" fill="none" stroke="#9a32cd" stroke-dasharray="5 2"/><path d="m401.66-233.83-10.04-3.38 9.96-3.62z" fill="#9a32cd" stroke="#9a32cd"/><text font-family="Helvetica,sans-Serif" font-size="10" text-anchor="middle" x="493" y="-246.5">indexBounds</text></g><a xlink:title=""><path d="m46-232h-46v19h46z" fill="#fff" stroke="#666"/><text font-family="Helvetica,sans-Serif" font-size="10" text-anchor="middle" x="23" y="-220">int64_t</text></a><g><path d="m29.86-242.45c5.84-15.88 16.53-37.05 34.14-47.05 30.15-17.11 43.36-1.27 78 0 188.38 6.89 235.06 16.47 423 31 54.68 4.23 72.78-12.05 123 10 19.74 8.66 36.88 27.81 46 39.43" fill="none" stroke="#9a32cd" stroke-dasharray="5 2"/><path d="m33.03-240.89-6.46 8.39-.18-10.59z" fill="#9a32cd" stroke="#9a32cd"/><text font-family="Helvetica,sans-Serif" font-size="10" text-anchor="middle" x="344" y="-284.5">pointsSize</text></g><g><path d="m56.39-222.29c23.71.04 56.67-.15 85.61-1.21 52.94-1.93 113.62-6.13 154.33-9.24" fill="none" stroke="#9a32cd" stroke-dasharray="5 2"/><path d="m56.18-218.79-9.99-3.53 10.01-3.47z" fill="#9a32cd" stroke="#9a32cd"/><g font-family="Helvetica,sans-Serif" font-size="10" text-anchor="middle"><text x="103" y="-281.5">columnMaximum</text><text x="103" y="-270.5">columnMinimum</text><text x="103" y="-259.5">returnMaximum</text><text x="103" y="-248.5">returnMinimum</text><text x="103" y="-237.5">rowMaximum</text><text x="103" y="-226.5">rowMinimum</text></g></g><a target="_top" xlink:href="../../df/dfe/structe57_1_1_grouping_by_line.html" xlink:title="Stores a set of point groups organized by the rowIndex or columnIndex attribute of the PointRecord."><path d="m267-191h-107v19h107z" fill="#fff" stroke="#666"/><text font-family="Helvetica,sans-Serif" font-size="10" text-anchor="middle" x="213.5" y="-179">e57::GroupingByLine</text></a><g><path d="m35.05-204.35c6.97 9.62 16.93 20.53 28.95 25.85 34.67 15.34 78.48 12.07 109.51 6.51" fill="none" stroke="#9a32cd" stroke-dasharray="5 2"/><path d="m31.94-202.7-2.63-10.26 8.46 6.37z" fill="#9a32cd" stroke="#9a32cd"/><g font-family="Helvetica,sans-Serif" font-size="10" text-anchor="middle"><text x="103" y="-192.5">groupsSize</text><text x="103" y="-181.5">pointCountSize</text></g></g><a target="_top" xlink:href="../../d7/d34/structe57_1_1_cartesian_bounds.html" xlink:title="Specifies an axis&#45;aligned box in local cartesian coordinates."><path d="m549.5-191h-113v19h113z" fill="#fff" stroke="#666"/><text font-family="Helvetica,sans-Serif" font-size="10" text-anchor="middle" x="493" y="-179">e57::CartesianBounds</text></a><g><path d="m560.25-178.28c37.65.77 85.56-.03 127.75-6.22 8.04-1.18 16.59-3.23 24.41-5.44" fill="none" stroke="#9a32cd" stroke-dasharray="5 2"/><path d="m559.83-174.79-9.91-3.75 10.08-3.25z" fill="#9a32cd" stroke="#9a32cd"/><text font-family="Helvetica,sans-Serif" font-size="10" text-anchor="middle" x="635.5" y="-187.5">cartesianBounds</text></g><a target="_top" xlink:href="../../d2/d00/structe57_1_1_spherical_bounds.html" xlink:title="Stores the bounds of some data in spherical coordinates."><path d="m549-154h-112v19h112z" fill="#fff" stroke="#666"/><text font-family="Helvetica,sans-Serif" font-size="10" text-anchor="middle" x="493" y="-142">e57::SphericalBounds</text></a><g><path d="m559.22-142.31c38.54-.7 87.67-5.14 128.78-20.19 16.44-6.02 32.52-18.44 42.58-27.23" fill="none" stroke="#9a32cd" stroke-dasharray="5 2"/><path d="m559.2-138.81-10.04-3.4 9.96-3.6z" fill="#9a32cd" stroke="#9a32cd"/><text font-family="Helvetica,sans-Serif" font-size="10" text-anchor="middle" x="635.5" y="-165.5">sphericalBounds</text></g><a target="_top" xlink:href="../../db/df2/structe57_1_1_intensity_limits.html" xlink:title="Specifies the limits for the value of signal intensity that a sensor is capable of producing."><path d="m544-117h-102v19h102z" fill="#fff" stroke="#666"/><text font-family="Helvetica,sans-Serif" font-size="10" text-anchor="middle" x="493" y="-105">e57::IntensityLimits</text></a><g><path d="m554.62-101.52c40.33 1.16 93.09-2.94 133.38-25.98 25.2-14.41 41.86-46.19 49.02-62.27" fill="none" stroke="#9a32cd" stroke-dasharray="5 2"/><path d="m554.24-98.03-9.85-3.91 10.13-3.09z" fill="#9a32cd" stroke="#9a32cd"/><text font-family="Helvetica,sans-Serif" font-size="10" text-anchor="middle" x="635.5" y="-130.5">intensityLimits</text></g><a target="_top" xlink:href="../../dc/dc8/structe57_1_1_color_limits.html" xlink:title="Specifies the limits for the value of red, green, and blue color that a sensor is capable of producin..."><path d="m537-80h-88v19h88z" fill="#fff" stroke="#666"/><text font-family="Helvetica,sans-Serif" font-size="10" text-anchor="middle" x="493" y="-68">e57::ColorLimits</text></a><g><path d="m547.07-61.34c41.95 4.26 100.04 3.26 140.93-25.16 35.95-24.98 48.16-80.89 51.72-103.37" fill="none" stroke="#9a32cd" stroke-dasharray="5 2"/><path d="m546.58-57.88-9.53-4.61 10.33-2.34z" fill="#9a32cd" stroke="#9a32cd"/><text font-family="Helvetica,sans-Serif" font-size="10" text-anchor="middle" x="635.5" y="-89.5">colorLimits</text></g><a target="_top" xlink:href="../../dd/d87/structe57_1_1_point_grouping_schemes.html" xlink:title="Supports the division of points within an Data3D into logical groupings."><path d="m563.5-228h-141v19h141z" fill="#fff" stroke="#666"/><text font-family="Helvetica,sans-Serif" font-size="10" text-anchor="middle" x="493" y="-216">e57::PointGroupingSchemes</text></a><g><path d="m574.02-212.34c44.53 3.42 97.7 7.51 131.88 10.14" fill="none" stroke="#9a32cd" stroke-dasharray="5 2"/><path d="m573.49-208.87-9.7-4.26 10.24-2.72z" fill="#9a32cd" stroke="#9a32cd"/><text font-family="Helvetica,sans-Serif" font-size="10" text-anchor="middle" x="635.5" y="-213.5">pointGroupingSchemes</text></g><g><path d="m277.12-189.85c43.19-5.76 100.64-13.42 145.26-19.37" fill="none" stroke="#9a32cd" stroke-dasharray="5 2"/><path d="m277.4-186.36-10.38-2.14 9.45-4.79z" fill="#9a32cd" stroke="#9a32cd"/><text font-family="Helvetica,sans-Serif" font-size="10" text-anchor="middle" x="344" y="-209.5">groupingByLine</text></g><a target="_top" xlink:href="../../dc/d25/structe57_1_1_point_standardized_fields_available.html" xlink:title="Used to interrogate if standardized fields are available."><path d="m565-42.5h-144v30h144z" fill="#fff" stroke="#666"/><text font-family="Helvetica,sans-Serif" font-size="10" x="429" y="-30.5">e57::PointStandardizedFields</text><text font-family="Helvetica,sans-Serif" font-size="10" text-anchor="middle" x="493" y="-19.5">Available</text></a><g><path d="m575.42-15.03c37.84 1.34 81.28-4.04 112.58-28.47 47.35-36.96 52.68-118.26 53.07-146.28" fill="none" stroke="#9a32cd" stroke-dasharray="5 2"/><path d="m575.23-11.53-9.8-4.01 10.16-2.98z" fill="#9a32cd" stroke="#9a32cd"/><text font-family="Helvetica,sans-Serif" font-size="10" text-anchor="middle" x="635.5" y="-46.5">pointFields</text></g><a xlink:title=""><path d="m239-56h-51v19h51z" fill="#fff" stroke="#666"/><text font-family="Helvetica,sans-Serif" font-size="10" text-anchor="middle" x="213.5" y="-44">uint32_t</text></a><g><path d="m249.32-44.12c42.84 2.94 116.65 7.99 171.65 11.76" fill="none" stroke="#9a32cd" stroke-dasharray="5 2"/><path d="m248.86-40.64-9.73-4.17 10.21-2.81z" fill="#9a32cd" stroke="#9a32cd"/><g font-family="Helvetica,sans-Serif" font-size="10" text-anchor="middle"><text x="344" y="-55.5">columnIndexMaximum</text><text x="344" y="-44.5">rowIndexMaximum</text></g></g><a xlink:title=""><path d="m236.5-19h-46v19h46z" fill="#fff" stroke="#666"/><text font-family="Helvetica,sans-Serif" font-size="10" text-anchor="middle" x="213.5" y="-7">uint8_t</text></a><g><path d="m246.95-8.86c37.62.43 101.45.21 156.05-4.64 5.76-.51 11.72-1.17 17.7-1.92" fill="none" stroke="#9a32cd" stroke-dasharray="5 2"/><path d="m246.56-5.37-9.95-3.64 10.05-3.36z" fill="#9a32cd" stroke="#9a32cd"/><text font-family="Helvetica,sans-Serif" font-size="10" text-anchor="middle" x="344" y="-16.5">returnMaximum</text></g></g></svg>