<?xml version="1.0" encoding="UTF-8" standalone="no"?>
<!DOCTYPE svg PUBLIC "-//W3C//DTD SVG 1.1//EN"
 "http://www.w3.org/Graphics/SVG/1.1/DTD/svg11.dtd">
<!-- Generated by graphviz version 9.0.0 (20230911.1827)
 -->
<!-- Title: e57::Data3D Pages: 1 -->
<svg width="782pt" height="394pt"
 viewBox="0.00 0.00 781.50 394.25" xmlns="http://www.w3.org/2000/svg" xmlns:xlink="http://www.w3.org/1999/xlink">
<g id="graph0" class="graph" transform="scale(1 1) rotate(0) translate(4 390.25)">
<title>e57::Data3D</title>
<!-- Node1 -->
<g id="node1" class="node">
<title>Node1</title>
<g id="a_node1"><a xlink:title="Stores the top&#45;level information for a single lidar scan.">
<polygon fill="#999999" stroke="#666666" points="773.5,-191.25 702,-191.25 702,-172 773.5,-172 773.5,-191.25"/>
<text text-anchor="middle" x="737.75" y="-177.75" font-family="Helvetica,sans-Serif" font-size="10.00">e57::Data3D</text>
</a>
</g>
</g>
<!-- Node2 -->
<g id="node2" class="node">
<title>Node2</title>
<g id="a_node2"><a xlink:href="../../d1/dd7/structe57_1_1_date_time.html" target="_top" xlink:title="Encodes date and time.">
<polygon fill="white" stroke="#666666" points="530.25,-376.25 449.75,-376.25 449.75,-357 530.25,-357 530.25,-376.25"/>
<text text-anchor="middle" x="490" y="-362.75" font-family="Helvetica,sans-Serif" font-size="10.00">e57::DateTime</text>
</a>
</g>
</g>
<!-- Node2&#45;&gt;Node1 -->
<g id="edge1" class="edge">
<title>Node2&#45;&gt;Node1</title>
<path fill="none" stroke="#9a32cd" stroke-dasharray="5,2" d="M541.93,-368.06C584.69,-366.55 644.9,-357.73 684,-323.62 724.83,-288.02 734.11,-217.77 736.17,-191.68"/>
<polygon fill="#9a32cd" stroke="#9a32cd" points="542.08,-364.55 532.15,-368.27 542.23,-371.55 542.08,-364.55"/>
<text text-anchor="middle" x="631.88" y="-376.62" font-family="Helvetica,sans-Serif" font-size="10.00"> acquisitionEnd</text>
<text text-anchor="middle" x="631.88" y="-365.38" font-family="Helvetica,sans-Serif" font-size="10.00">acquisitionStart</text>
</g>
<!-- Node3 -->
<g id="node3" class="node">
<title>Node3</title>
<g id="a_node3"><a xlink:title=" ">
<polygon fill="white" stroke="#666666" points="234.5,-386.25 189.25,-386.25 189.25,-367 234.5,-367 234.5,-386.25"/>
<text text-anchor="middle" x="211.88" y="-372.75" font-family="Helvetica,sans-Serif" font-size="10.00">int32_t</text>
</a>
</g>
</g>
<!-- Node3&#45;&gt;Node2 -->
<g id="edge2" class="edge">
<title>Node3&#45;&gt;Node2</title>
<path fill="none" stroke="#9a32cd" stroke-dasharray="5,2" d="M245.87,-375.43C296.93,-373.58 394.89,-370.03 449.59,-368.05"/>
<polygon fill="#9a32cd" stroke="#9a32cd" points="245.92,-371.93 236.05,-375.79 246.17,-378.92 245.92,-371.93"/>
<text text-anchor="middle" x="341.75" y="-375.38" font-family="Helvetica,sans-Serif" font-size="10.00"> isAtomicClockReferenced</text>
</g>
<!-- Node4 -->
<g id="node4" class="node">
<title>Node4</title>
<g id="a_node4"><a xlink:href="../../d2/df3/structe57_1_1_rigid_body_transform.html" target="_top" xlink:title="Defines a rigid body transform in cartesian coordinates.">
<polygon fill="white" stroke="#666666" points="553.5,-313.25 426.5,-313.25 426.5,-294 553.5,-294 553.5,-313.25"/>
<text text-anchor="middle" x="490" y="-299.75" font-family="Helvetica,sans-Serif" font-size="10.00">e57::RigidBodyTransform</text>
</a>
</g>
</g>
<!-- Node4&#45;&gt;Node1 -->
<g id="edge3" class="edge">
<title>Node4&#45;&gt;Node1</title>
<path fill="none" stroke="#9a32cd" stroke-dasharray="5,2" d="M565.09,-309.42C603.58,-308.84 649.63,-302.18 684,-278.62 714.99,-257.39 729.45,-211.81 734.52,-191.61"/>
<polygon fill="#9a32cd" stroke="#9a32cd" points="565.44,-305.92 555.44,-309.42 565.44,-312.92 565.44,-305.92"/>
<text text-anchor="middle" x="631.88" y="-310.38" font-family="Helvetica,sans-Serif" font-size="10.00"> pose</text>
</g>
<!-- Node5 -->
<g id="node5" class="node">
<title>Node5</title>
<g id="a_node5"><a xlink:href="../../dc/da9/structe57_1_1_quaternion.html" target="_top" xlink:title="Represents a rigid body rotation.">
<polygon fill="white" stroke="#666666" points="254.38,-349.25 169.38,-349.25 169.38,-330 254.38,-330 254.38,-349.25"/>
<text text-anchor="middle" x="211.88" y="-335.75" font-family="Helvetica,sans-Serif" font-size="10.00">e57::Quaternion</text>
</a>
</g>
</g>
<!-- Node5&#45;&gt;Node4 -->
<g id="edge4" class="edge">
<title>Node5&#45;&gt;Node4</title>
<path fill="none" stroke="#9a32cd" stroke-dasharray="5,2" d="M265.8,-333.98C303.37,-329.83 354.96,-323.85 400.25,-317.62 408.9,-316.43 418.02,-315.1 426.98,-313.73"/>
<polygon fill="#9a32cd" stroke="#9a32cd" points="265.67,-330.47 256.12,-335.04 266.44,-337.43 265.67,-330.47"/>
<text text-anchor="middle" x="341.75" y="-333.38" font-family="Helvetica,sans-Serif" font-size="10.00"> rotation</text>
</g>
<!-- Node6 -->
<g id="node6" class="node">
<title>Node6</title>
<g id="a_node6"><a xlink:href="../../d6/dad/structe57_1_1_translation.html" target="_top" xlink:title="Defines a rigid body translation in Cartesian coordinates.">
<polygon fill="white" stroke="#666666" points="254.75,-312.25 169,-312.25 169,-293 254.75,-293 254.75,-312.25"/>
<text text-anchor="middle" x="211.88" y="-298.75" font-family="Helvetica,sans-Serif" font-size="10.00">e57::Translation</text>
</a>
</g>
</g>
<!-- Node6&#45;&gt;Node4 -->
<g id="edge5" class="edge">
<title>Node6&#45;&gt;Node4</title>
<path fill="none" stroke="#9a32cd" stroke-dasharray="5,2" d="M266.56,-302.82C312.22,-302.98 377.86,-303.22 426,-303.4"/>
<polygon fill="#9a32cd" stroke="#9a32cd" points="266.64,-299.32 256.63,-302.78 266.61,-306.32 266.64,-299.32"/>
<text text-anchor="middle" x="341.75" y="-304.38" font-family="Helvetica,sans-Serif" font-size="10.00"> translation</text>
</g>
<!-- Node7 -->
<g id="node7" class="node">
<title>Node7</title>
<g id="a_node7"><a xlink:href="../../d7/d4c/structe57_1_1_index_bounds.html" target="_top" xlink:title="Stores the minimum and maximum of rowIndex, columnIndex, and returnIndex fields for a set of points.">
<polygon fill="white" stroke="#666666" points="389.12,-274.25 294.38,-274.25 294.38,-255 389.12,-255 389.12,-274.25"/>
<text text-anchor="middle" x="341.75" y="-260.75" font-family="Helvetica,sans-Serif" font-size="10.00">e57::IndexBounds</text>
</a>
</g>
</g>
<!-- Node7&#45;&gt;Node1 -->
<g id="edge6" class="edge">
<title>Node7&#45;&gt;Node1</title>
<path fill="none" stroke="#9a32cd" stroke-dasharray="5,2" d="M400.75,-267.49C470.72,-268.82 590.59,-264.15 684,-224.62 701.63,-217.17 718.07,-201.93 727.77,-191.74"/>
<polygon fill="#9a32cd" stroke="#9a32cd" points="401.14,-264 391.05,-267.26 400.97,-271 401.14,-264"/>
<text text-anchor="middle" x="490" y="-269.38" font-family="Helvetica,sans-Serif" font-size="10.00"> indexBounds</text>
</g>
<!-- Node8 -->
<g id="node8" class="node">
<title>Node8</title>
<g id="a_node8"><a xlink:title=" ">
<polygon fill="white" stroke="#666666" points="45.25,-251.25 0,-251.25 0,-232 45.25,-232 45.25,-251.25"/>
<text text-anchor="middle" x="22.62" y="-237.75" font-family="Helvetica,sans-Serif" font-size="10.00">int64_t</text>
</a>
</g>
</g>
<!-- Node8&#45;&gt;Node7 -->
<g id="edge7" class="edge">
<title>Node8&#45;&gt;Node7</title>
<path fill="none" stroke="#9a32cd" stroke-dasharray="5,2" d="M56.85,-244.03C113.59,-248.15 229.33,-256.54 294.14,-261.24"/>
<polygon fill="#9a32cd" stroke="#9a32cd" points="57.41,-240.57 47.18,-243.33 56.9,-247.55 57.41,-240.57"/>
<text text-anchor="middle" x="101.88" y="-307.62" font-family="Helvetica,sans-Serif" font-size="10.00"> columnMaximum</text>
<text text-anchor="middle" x="101.88" y="-296.38" font-family="Helvetica,sans-Serif" font-size="10.00">columnMinimum</text>
<text text-anchor="middle" x="101.88" y="-285.12" font-family="Helvetica,sans-Serif" font-size="10.00">returnMaximum</text>
<text text-anchor="middle" x="101.88" y="-273.88" font-family="Helvetica,sans-Serif" font-size="10.00">returnMinimum</text>
<text text-anchor="middle" x="101.88" y="-262.62" font-family="Helvetica,sans-Serif" font-size="10.00">rowMaximum</text>
<text text-anchor="middle" x="101.88" y="-251.38" font-family="Helvetica,sans-Serif" font-size="10.00">rowMinimum</text>
</g>
<!-- Node14 -->
<g id="node14" class="node">
<title>Node14</title>
<g id="a_node14"><a xlink:href="../../df/dfe/structe57_1_1_grouping_by_line.html" target="_top" xlink:title="Stores a set of point groups organized by the rowIndex or columnIndex attribute of the PointRecord.">
<polygon fill="white" stroke="#666666" points="265.25,-228.25 158.5,-228.25 158.5,-209 265.25,-209 265.25,-228.25"/>
<text text-anchor="middle" x="211.88" y="-214.75" font-family="Helvetica,sans-Serif" font-size="10.00">e57::GroupingByLine</text>
</a>
</g>
</g>
<!-- Node8&#45;&gt;Node14 -->
<g id="edge14" class="edge">
<title>Node8&#45;&gt;Node14</title>
<path fill="none" stroke="#9a32cd" stroke-dasharray="5,2" d="M47.97,-226.05C52.85,-223.62 58.08,-221.46 63.25,-220.12 94.02,-212.15 129.61,-211.55 158.14,-213.05"/>
<polygon fill="#9a32cd" stroke="#9a32cd" points="46.31,-222.97 39.28,-230.9 49.72,-229.08 46.31,-222.97"/>
<text text-anchor="middle" x="101.88" y="-232.62" font-family="Helvetica,sans-Serif" font-size="10.00"> groupsSize</text>
<text text-anchor="middle" x="101.88" y="-221.38" font-family="Helvetica,sans-Serif" font-size="10.00">pointCountSize</text>
</g>
<!-- Node9 -->
<g id="node9" class="node">
<title>Node9</title>
<g id="a_node9"><a xlink:href="../../d7/d34/structe57_1_1_cartesian_bounds.html" target="_top" xlink:title="Specifies an axis&#45;aligned box in local cartesian coordinates.">
<polygon fill="white" stroke="#666666" points="546.38,-191.25 433.62,-191.25 433.62,-172 546.38,-172 546.38,-191.25"/>
<text text-anchor="middle" x="490" y="-177.75" font-family="Helvetica,sans-Serif" font-size="10.00">e57::CartesianBounds</text>
</a>
</g>
</g>
<!-- Node9&#45;&gt;Node1 -->
<g id="edge8" class="edge">
<title>Node9&#45;&gt;Node1</title>
<path fill="none" stroke="#9a32cd" stroke-dasharray="5,2" d="M558.25,-181.62C604.65,-181.62 664.45,-181.62 701.7,-181.62"/>
<polygon fill="#9a32cd" stroke="#9a32cd" points="558.28,-178.13 548.28,-181.63 558.28,-185.13 558.28,-178.13"/>
<text text-anchor="middle" x="631.88" y="-183.38" font-family="Helvetica,sans-Serif" font-size="10.00"> cartesianBounds</text>
</g>
<!-- Node10 -->
<g id="node10" class="node">
<title>Node10</title>
<g id="a_node10"><a xlink:href="../../d2/d00/structe57_1_1_spherical_bounds.html" target="_top" xlink:title="Stores the bounds of some data in spherical coordinates.">
<polygon fill="white" stroke="#666666" points="545.62,-154.25 434.38,-154.25 434.38,-135 545.62,-135 545.62,-154.25"/>
<text text-anchor="middle" x="490" y="-140.75" font-family="Helvetica,sans-Serif" font-size="10.00">e57::SphericalBounds</text>
</a>
</g>
</g>
<!-- Node10&#45;&gt;Node1 -->
<g id="edge9" class="edge">
<title>Node10&#45;&gt;Node1</title>
<path fill="none" stroke="#9a32cd" stroke-dasharray="5,2" d="M557.15,-149.29C594.61,-152.63 642.19,-158.04 684,-166.38 690.92,-167.75 698.24,-169.61 705.16,-171.55"/>
<polygon fill="#9a32cd" stroke="#9a32cd" points="557.64,-145.82 547.38,-148.45 557.04,-152.8 557.64,-145.82"/>
<text text-anchor="middle" x="631.88" y="-167.38" font-family="Helvetica,sans-Serif" font-size="10.00"> sphericalBounds</text>
</g>
<!-- Node11 -->
<g id="node11" class="node">
<title>Node11</title>
<g id="a_node11"><a xlink:href="../../db/df2/structe57_1_1_intensity_limits.html" target="_top" xlink:title="Specifies the limits for the value of signal intensity that a sensor is capable of producing.">
<polygon fill="white" stroke="#666666" points="540.75,-117.25 439.25,-117.25 439.25,-98 540.75,-98 540.75,-117.25"/>
<text text-anchor="middle" x="490" y="-103.75" font-family="Helvetica,sans-Serif" font-size="10.00">e57::IntensityLimits</text>
</a>
</g>
</g>
<!-- Node11&#45;&gt;Node1 -->
<g id="edge10" class="edge">
<title>Node11&#45;&gt;Node1</title>
<path fill="none" stroke="#9a32cd" stroke-dasharray="5,2" d="M552.62,-108.14C591.79,-110.53 642.72,-117.52 684,-136.38 702.22,-144.7 718.99,-161.25 728.53,-171.86"/>
<polygon fill="#9a32cd" stroke="#9a32cd" points="552.8,-104.65 542.64,-107.63 552.44,-111.64 552.8,-104.65"/>
<text text-anchor="middle" x="631.88" y="-137.38" font-family="Helvetica,sans-Serif" font-size="10.00"> intensityLimits</text>
</g>
<!-- Node12 -->
<g id="node12" class="node">
<title>Node12</title>
<g id="a_node12"><a xlink:href="../../dc/dc8/structe57_1_1_color_limits.html" target="_top" xlink:title="Specifies the limits for the value of red, green, and blue color that a sensor is capable of producin...">
<polygon fill="white" stroke="#666666" points="533.62,-80.25 446.38,-80.25 446.38,-61 533.62,-61 533.62,-80.25"/>
<text text-anchor="middle" x="490" y="-66.75" font-family="Helvetica,sans-Serif" font-size="10.00">e57::ColorLimits</text>
</a>
</g>
</g>
<!-- Node12&#45;&gt;Node1 -->
<g id="edge11" class="edge">
<title>Node12&#45;&gt;Node1</title>
<path fill="none" stroke="#9a32cd" stroke-dasharray="5,2" d="M545.57,-65.52C586.76,-64.37 643.01,-68.83 684,-95.38 712.29,-113.69 727.82,-153.05 733.81,-171.58"/>
<polygon fill="#9a32cd" stroke="#9a32cd" points="545.46,-62.02 535.62,-65.93 545.75,-69.02 545.46,-62.02"/>
<text text-anchor="middle" x="631.88" y="-96.38" font-family="Helvetica,sans-Serif" font-size="10.00"> colorLimits</text>
</g>
<!-- Node13 -->
<g id="node13" class="node">
<title>Node13</title>
<g id="a_node13"><a xlink:href="../../dd/d87/structe57_1_1_point_grouping_schemes.html" target="_top" xlink:title="Supports the division of points within an Data3D into logical groupings.">
<polygon fill="white" stroke="#666666" points="560.25,-228.25 419.75,-228.25 419.75,-209 560.25,-209 560.25,-228.25"/>
<text text-anchor="middle" x="490" y="-214.75" font-family="Helvetica,sans-Serif" font-size="10.00">e57::PointGroupingSchemes</text>
</a>
</g>
</g>
<!-- Node13&#45;&gt;Node1 -->
<g id="edge12" class="edge">
<title>Node13&#45;&gt;Node1</title>
<path fill="none" stroke="#9a32cd" stroke-dasharray="5,2" d="M571.64,-211.57C606.38,-207.88 647.36,-202.63 684,-195.62 689.77,-194.52 695.84,-193.13 701.72,-191.66"/>
<polygon fill="#9a32cd" stroke="#9a32cd" points="571.68,-208.05 562.1,-212.56 572.41,-215.01 571.68,-208.05"/>
<text text-anchor="middle" x="631.88" y="-211.38" font-family="Helvetica,sans-Serif" font-size="10.00"> pointGroupingSchemes</text>
</g>
<!-- Node14&#45;&gt;Node13 -->
<g id="edge13" class="edge">
<title>Node14&#45;&gt;Node13</title>
<path fill="none" stroke="#9a32cd" stroke-dasharray="5,2" d="M276.84,-218.62C319.51,-218.62 375.59,-218.62 419.38,-218.62"/>
<polygon fill="#9a32cd" stroke="#9a32cd" points="276.98,-215.13 266.98,-218.63 276.98,-222.13 276.98,-215.13"/>
<text text-anchor="middle" x="341.75" y="-220.38" font-family="Helvetica,sans-Serif" font-size="10.00"> groupingByLine</text>
</g>
<!-- Node15 -->
<g id="node15" class="node">
<title>Node15</title>
<g id="a_node15"><a xlink:href="../../dc/d25/structe57_1_1_point_standardized_fields_available.html" target="_top" xlink:title="Used to interrogate if standardized fields are available.">
<polygon fill="white" stroke="#666666" points="561.75,-42.88 418.25,-42.88 418.25,-12.37 561.75,-12.37 561.75,-42.88"/>
<text text-anchor="start" x="426.25" y="-29.38" font-family="Helvetica,sans-Serif" font-size="10.00">e57::PointStandardizedFields</text>
<text text-anchor="middle" x="490" y="-18.12" font-family="Helvetica,sans-Serif" font-size="10.00">Available</text>
</a>
</g>
</g>
<!-- Node15&#45;&gt;Node1 -->
<g id="edge15" class="edge">
<title>Node15&#45;&gt;Node1</title>
<path fill="none" stroke="#9a32cd" stroke-dasharray="5,2" d="M573.58,-19.27C610.71,-19.75 653.04,-26.69 684,-50.38 723.99,-80.96 733.76,-146.73 736.06,-171.72"/>
<polygon fill="#9a32cd" stroke="#9a32cd" points="573.74,-15.77 563.75,-19.31 573.77,-22.77 573.74,-15.77"/>
<text text-anchor="middle" x="631.88" y="-51.38" font-family="Helvetica,sans-Serif" font-size="10.00"> pointFields</text>
</g>
<!-- Node16 -->
<g id="node16" class="node">
<title>Node16</title>
<g id="a_node16"><a xlink:title=" ">
<polygon fill="white" stroke="#666666" points="237.12,-56.25 186.62,-56.25 186.62,-37 237.12,-37 237.12,-56.25"/>
<text text-anchor="middle" x="211.88" y="-42.75" font-family="Helvetica,sans-Serif" font-size="10.00">uint32_t</text>
</a>
</g>
</g>
<!-- Node16&#45;&gt;Node15 -->
<g id="edge16" class="edge">
<title>Node16&#45;&gt;Node15</title>
<path fill="none" stroke="#9a32cd" stroke-dasharray="5,2" d="M248.59,-44.17C291.3,-41.23 363.79,-36.24 418.03,-32.51"/>
<polygon fill="#9a32cd" stroke="#9a32cd" points="248.63,-40.66 238.89,-44.83 249.11,-47.64 248.63,-40.66"/>
<text text-anchor="middle" x="341.75" y="-54.62" font-family="Helvetica,sans-Serif" font-size="10.00"> columnIndexMaximum</text>
<text text-anchor="middle" x="341.75" y="-43.38" font-family="Helvetica,sans-Serif" font-size="10.00">rowIndexMaximum</text>
</g>
<!-- Node17 -->
<g id="node17" class="node">
<title>Node17</title>
<g id="a_node17"><a xlink:title=" ">
<polygon fill="white" stroke="#666666" points="234.5,-19.25 189.25,-19.25 189.25,0 234.5,0 234.5,-19.25"/>
<text text-anchor="middle" x="211.88" y="-5.75" font-family="Helvetica,sans-Serif" font-size="10.00">uint8_t</text>
</a>
</g>
</g>
<!-- Node17&#45;&gt;Node15 -->
<g id="edge17" class="edge">
<title>Node17&#45;&gt;Node15</title>
<path fill="none" stroke="#9a32cd" stroke-dasharray="5,2" d="M246.1,-8.9C283.62,-8.4 346.45,-8.54 400.25,-13.38 406,-13.89 411.94,-14.56 417.9,-15.32"/>
<polygon fill="#9a32cd" stroke="#9a32cd" points="246.31,-5.39 236.37,-9.05 246.42,-12.39 246.31,-5.39"/>
<text text-anchor="middle" x="341.75" y="-15.38" font-family="Helvetica,sans-Serif" font-size="10.00"> returnMaximum</text>
</g>
</g>
</svg>
