<?xml version="1.0" encoding="UTF-8" standalone="no"?>
<!DOCTYPE svg PUBLIC "-//W3C//DTD SVG 1.1//EN"
 "http://www.w3.org/Graphics/SVG/1.1/DTD/svg11.dtd">
<!-- Generated by graphviz version 7.0.0 (20221023.0053)
 -->
<!-- Title: e57::Data3D Pages: 1 -->
<!--zoomable 434 -->
<svg id="main" version="1.1" xmlns="http://www.w3.org/2000/svg" xmlns:xlink="http://www.w3.org/1999/xlink" xml:space="preserve" onload="init(evt)">
<style type="text/css"><![CDATA[
.edge:hover path { stroke: red; }
.edge:hover polygon { stroke: red; fill: red; }
]]></style>
<script type="text/javascript"><![CDATA[
var edges = document.getElementsByTagName('g');
if (edges && edges.length) {
  for (var i=0;i<edges.length;i++) {
    if (edges[i].id.substr(0,4)=='edge') {
      edges[i].setAttribute('class','edge');
    }
  }
}
]]></script>
        <defs>
                <circle id="rim" cx="0" cy="0" r="7"/>
                <circle id="rim2" cx="0" cy="0" r="3.5"/>
                <g id="zoomPlus">
                        <use xlink:href="#rim" fill="#404040">
                                <set attributeName="fill" to="#808080" begin="zoomplus.mouseover" end="zoomplus.mouseout"/>
                        </use>
                        <path d="M-4,0h8M0,-4v8" fill="none" stroke="white" stroke-width="1.5" pointer-events="none"/>
                </g>
                <g id="zoomMin">
                        <use xlink:href="#rim" fill="#404040">
                                <set attributeName="fill" to="#808080" begin="zoomminus.mouseover" end="zoomminus.mouseout"/>
                        </use>
                        <path d="M-4,0h8" fill="none" stroke="white" stroke-width="1.5" pointer-events="none"/>
                </g>
                <g id="dirArrow">
                        <path fill="none" stroke="white" stroke-width="1.5" d="M0,-3.0v7 M-2.5,-0.5L0,-3.0L2.5,-0.5"/>
                </g>
               <g id="resetDef">
                       <use xlink:href="#rim2" fill="#404040">
                               <set attributeName="fill" to="#808080" begin="reset.mouseover" end="reset.mouseout"/>
                       </use>
               </g>
        </defs>

<script type="text/javascript">
var viewWidth = 786;
var viewHeight = 434;
var sectionId = 'dynsection-0';
</script>
<script xlink:href="../../svgpan.js"/>
<svg id="graph" class="graph">
<g id="viewport">
<title>e57::Data3D</title>
<!-- Node1 -->
<g id="node1" class="node">
<title>Node1</title>
<g id="a_node1"><a xlink:title="Stores the top&#45;level information for a single lidar scan.">
<polygon fill="#999999" stroke="#666666" points="778,-209 706,-209 706,-190 778,-190 778,-209"/>
<text text-anchor="middle" x="742" y="-197" font-family="Helvetica,sans-Serif" font-size="10.00">e57::Data3D</text>
</a>
</g>
</g>
<!-- Node2 -->
<g id="node2" class="node">
<title>Node2</title>
<g id="a_node2"><a xlink:href="../../d1/dd7/structe57_1_1_date_time.html" target="_top" xlink:title="Encodes date and time.">
<polygon fill="white" stroke="#666666" points="533.5,-414 452.5,-414 452.5,-395 533.5,-395 533.5,-414"/>
<text text-anchor="middle" x="493" y="-402" font-family="Helvetica,sans-Serif" font-size="10.00">e57::DateTime</text>
</a>
</g>
</g>
<!-- Node2&#45;&gt;Node1 -->
<g id="edge1" class="edge">
<title>Node2&#45;&gt;Node1</title>
<path fill="none" stroke="#9a32cd" stroke-dasharray="5,2" d="M545.14,-406.72C588.35,-405.8 649.24,-397.53 688,-362.5 734.36,-320.6 740.33,-237.76 740.97,-209.34"/>
<polygon fill="#9a32cd" stroke="#9a32cd" points="545.22,-403.22 535.24,-406.79 545.27,-410.22 545.22,-403.22"/>
<text text-anchor="middle" x="635.5" y="-417.5" font-family="Helvetica,sans-Serif" font-size="10.00"> acquisitionEnd</text>
<text text-anchor="middle" x="635.5" y="-406.5" font-family="Helvetica,sans-Serif" font-size="10.00">acquisitionStart</text>
</g>
<!-- Node3 -->
<g id="node3" class="node">
<title>Node3</title>
<g id="a_node3"><a xlink:title=" ">
<polygon fill="white" stroke="#666666" points="236.5,-425 190.5,-425 190.5,-406 236.5,-406 236.5,-425"/>
<text text-anchor="middle" x="213.5" y="-413" font-family="Helvetica,sans-Serif" font-size="10.00">int32_t</text>
</a>
</g>
</g>
<!-- Node3&#45;&gt;Node2 -->
<g id="edge2" class="edge">
<title>Node3&#45;&gt;Node2</title>
<path fill="none" stroke="#9a32cd" stroke-dasharray="5,2" d="M248.15,-414.17C299.5,-412.13 397.22,-408.26 452.08,-406.08"/>
<polygon fill="#9a32cd" stroke="#9a32cd" points="248.11,-410.67 238.25,-414.56 248.38,-417.66 248.11,-410.67"/>
<text text-anchor="middle" x="344" y="-415.5" font-family="Helvetica,sans-Serif" font-size="10.00"> isAtomicClockReferenced</text>
</g>
<!-- Node4 -->
<g id="node4" class="node">
<title>Node4</title>
<g id="a_node4"><a xlink:href="../../d2/df3/structe57_1_1_rigid_body_transform.html" target="_top" xlink:title="Defines a rigid body transform in cartesian coordinates.">
<polygon fill="white" stroke="#666666" points="557,-351 429,-351 429,-332 557,-332 557,-351"/>
<text text-anchor="middle" x="493" y="-339" font-family="Helvetica,sans-Serif" font-size="10.00">e57::RigidBodyTransform</text>
</a>
</g>
</g>
<!-- Node4&#45;&gt;Node1 -->
<g id="edge3" class="edge">
<title>Node4&#45;&gt;Node1</title>
<path fill="none" stroke="#9a32cd" stroke-dasharray="5,2" d="M568.75,-348.38C607.73,-348.16 654.2,-341.5 688,-316.5 724.22,-289.71 736.28,-232.35 739.75,-209.35"/>
<polygon fill="#9a32cd" stroke="#9a32cd" points="568.99,-344.89 558.95,-348.29 568.92,-351.89 568.99,-344.89"/>
<text text-anchor="middle" x="635.5" y="-350.5" font-family="Helvetica,sans-Serif" font-size="10.00"> pose</text>
</g>
<!-- Node5 -->
<g id="node5" class="node">
<title>Node5</title>
<g id="a_node5"><a xlink:href="../../dc/da9/structe57_1_1_quaternion.html" target="_top" xlink:title="Represents a rigid body rotation.">
<polygon fill="white" stroke="#666666" points="256.5,-388 170.5,-388 170.5,-369 256.5,-369 256.5,-388"/>
<text text-anchor="middle" x="213.5" y="-376" font-family="Helvetica,sans-Serif" font-size="10.00">e57::Quaternion</text>
</a>
</g>
</g>
<!-- Node5&#45;&gt;Node4 -->
<g id="edge4" class="edge">
<title>Node5&#45;&gt;Node4</title>
<path fill="none" stroke="#9a32cd" stroke-dasharray="5,2" d="M268.13,-372.97C305.9,-368.9 357.63,-362.97 403,-356.5 413.55,-355 424.77,-353.23 435.57,-351.45"/>
<polygon fill="#9a32cd" stroke="#9a32cd" points="267.95,-369.47 258.38,-374.01 268.7,-376.43 267.95,-369.47"/>
<text text-anchor="middle" x="344" y="-373.5" font-family="Helvetica,sans-Serif" font-size="10.00"> rotation</text>
</g>
<!-- Node6 -->
<g id="node6" class="node">
<title>Node6</title>
<g id="a_node6"><a xlink:href="../../d6/dad/structe57_1_1_translation.html" target="_top" xlink:title="Defines a rigid body translation in Cartesian coordinates.">
<polygon fill="white" stroke="#666666" points="256.5,-351 170.5,-351 170.5,-332 256.5,-332 256.5,-351"/>
<text text-anchor="middle" x="213.5" y="-339" font-family="Helvetica,sans-Serif" font-size="10.00">e57::Translation</text>
</a>
</g>
</g>
<!-- Node6&#45;&gt;Node4 -->
<g id="edge5" class="edge">
<title>Node6&#45;&gt;Node4</title>
<path fill="none" stroke="#9a32cd" stroke-dasharray="5,2" d="M268.45,-341.5C314.34,-341.5 380.31,-341.5 428.69,-341.5"/>
<polygon fill="#9a32cd" stroke="#9a32cd" points="268.46,-338 258.46,-341.5 268.46,-345 268.46,-338"/>
<text text-anchor="middle" x="344" y="-344.5" font-family="Helvetica,sans-Serif" font-size="10.00"> translation</text>
</g>
<!-- Node7 -->
<g id="node7" class="node">
<title>Node7</title>
<g id="a_node7"><a xlink:href="../../d7/d4c/structe57_1_1_index_bounds.html" target="_top" xlink:title="Stores the minimum and maximum of rowIndex, columnIndex, and returnIndex fields for a set of points.">
<polygon fill="white" stroke="#666666" points="391.5,-246 296.5,-246 296.5,-227 391.5,-227 391.5,-246"/>
<text text-anchor="middle" x="344" y="-234" font-family="Helvetica,sans-Serif" font-size="10.00">e57::IndexBounds</text>
</a>
</g>
</g>
<!-- Node7&#45;&gt;Node1 -->
<g id="edge6" class="edge">
<title>Node7&#45;&gt;Node1</title>
<path fill="none" stroke="#9a32cd" stroke-dasharray="5,2" d="M402.68,-237.34C408.86,-237.4 415.06,-237.46 421,-237.5 539.78,-238.28 573.73,-257.95 688,-225.5 701.01,-221.8 714.7,-215.01 724.9,-209.29"/>
<polygon fill="#9a32cd" stroke="#9a32cd" points="403.18,-233.84 393.14,-237.23 403.09,-240.84 403.18,-233.84"/>
<text text-anchor="middle" x="493" y="-246.5" font-family="Helvetica,sans-Serif" font-size="10.00"> indexBounds</text>
</g>
<!-- Node8 -->
<g id="node8" class="node">
<title>Node8</title>
<g id="a_node8"><a xlink:title=" ">
<polygon fill="white" stroke="#666666" points="46,-232 0,-232 0,-213 46,-213 46,-232"/>
<text text-anchor="middle" x="23" y="-220" font-family="Helvetica,sans-Serif" font-size="10.00">int64_t</text>
</a>
</g>
</g>
<!-- Node8&#45;&gt;Node1 -->
<g id="edge18" class="edge">
<title>Node8&#45;&gt;Node1</title>
<path fill="none" stroke="#9a32cd" stroke-dasharray="5,2" d="M30.21,-243.37C36.12,-259.14 46.73,-279.69 64,-289.5 94.15,-306.61 107.36,-290.77 142,-289.5 330.38,-282.61 377.06,-273.03 565,-258.5 619.68,-254.27 637.78,-270.55 688,-248.5 707.51,-239.94 724.48,-221.14 733.68,-209.48"/>
<polygon fill="#9a32cd" stroke="#9a32cd" points="33.54,-242.31 27.05,-233.93 26.9,-244.53 33.54,-242.31"/>
<text text-anchor="middle" x="344" y="-284.5" font-family="Helvetica,sans-Serif" font-size="10.00"> pointCount</text>
</g>
<!-- Node8&#45;&gt;Node7 -->
<g id="edge7" class="edge">
<title>Node8&#45;&gt;Node7</title>
<path fill="none" stroke="#9a32cd" stroke-dasharray="5,2" d="M57.68,-222.28C81.29,-222.26 113.58,-222.46 142,-223.5 194.94,-225.43 255.62,-229.63 296.33,-232.74"/>
<polygon fill="#9a32cd" stroke="#9a32cd" points="57.69,-218.78 47.71,-222.31 57.72,-225.78 57.69,-218.78"/>
<text text-anchor="middle" x="103" y="-281.5" font-family="Helvetica,sans-Serif" font-size="10.00"> columnMaximum</text>
<text text-anchor="middle" x="103" y="-270.5" font-family="Helvetica,sans-Serif" font-size="10.00">columnMinimum</text>
<text text-anchor="middle" x="103" y="-259.5" font-family="Helvetica,sans-Serif" font-size="10.00">returnMaximum</text>
<text text-anchor="middle" x="103" y="-248.5" font-family="Helvetica,sans-Serif" font-size="10.00">returnMinimum</text>
<text text-anchor="middle" x="103" y="-237.5" font-family="Helvetica,sans-Serif" font-size="10.00">rowMaximum</text>
<text text-anchor="middle" x="103" y="-226.5" font-family="Helvetica,sans-Serif" font-size="10.00">rowMinimum</text>
</g>
<!-- Node14 -->
<g id="node14" class="node">
<title>Node14</title>
<g id="a_node14"><a xlink:href="../../df/dfe/structe57_1_1_grouping_by_line.html" target="_top" xlink:title="Stores a set of point groups organized by the rowIndex or columnIndex attribute of the PointRecord.">
<polygon fill="white" stroke="#666666" points="267,-191 160,-191 160,-172 267,-172 267,-191"/>
<text text-anchor="middle" x="213.5" y="-179" font-family="Helvetica,sans-Serif" font-size="10.00">e57::GroupingByLine</text>
</a>
</g>
</g>
<!-- Node8&#45;&gt;Node14 -->
<g id="edge14" class="edge">
<title>Node8&#45;&gt;Node14</title>
<path fill="none" stroke="#9a32cd" stroke-dasharray="5,2" d="M35.95,-203.12C42.87,-193.81 52.49,-183.59 64,-178.5 97.72,-163.58 140.11,-166.27 170.95,-171.54"/>
<polygon fill="#9a32cd" stroke="#9a32cd" points="33.11,-201.08 30.39,-211.33 38.9,-205.01 33.11,-201.08"/>
<text text-anchor="middle" x="103" y="-192.5" font-family="Helvetica,sans-Serif" font-size="10.00"> groupsSize</text>
<text text-anchor="middle" x="103" y="-181.5" font-family="Helvetica,sans-Serif" font-size="10.00">pointCountSize</text>
</g>
<!-- Node9 -->
<g id="node9" class="node">
<title>Node9</title>
<g id="a_node9"><a xlink:href="../../d7/d34/structe57_1_1_cartesian_bounds.html" target="_top" xlink:title="Specifies an axis&#45;aligned box in local cartesian coordinates.">
<polygon fill="white" stroke="#666666" points="549.5,-191 436.5,-191 436.5,-172 549.5,-172 549.5,-191"/>
<text text-anchor="middle" x="493" y="-179" font-family="Helvetica,sans-Serif" font-size="10.00">e57::CartesianBounds</text>
</a>
</g>
</g>
<!-- Node9&#45;&gt;Node1 -->
<g id="edge8" class="edge">
<title>Node9&#45;&gt;Node1</title>
<path fill="none" stroke="#9a32cd" stroke-dasharray="5,2" d="M561.22,-178.26C598.72,-177.52 646.17,-178.36 688,-184.5 695.57,-185.61 703.58,-187.49 711.03,-189.55"/>
<polygon fill="#9a32cd" stroke="#9a32cd" points="561.34,-174.76 551.43,-178.5 561.51,-181.76 561.34,-174.76"/>
<text text-anchor="middle" x="635.5" y="-187.5" font-family="Helvetica,sans-Serif" font-size="10.00"> cartesianBounds</text>
</g>
<!-- Node10 -->
<g id="node10" class="node">
<title>Node10</title>
<g id="a_node10"><a xlink:href="../../d2/d00/structe57_1_1_spherical_bounds.html" target="_top" xlink:title="Stores the bounds of some data in spherical coordinates.">
<polygon fill="white" stroke="#666666" points="549,-154 437,-154 437,-135 549,-135 549,-154"/>
<text text-anchor="middle" x="493" y="-142" font-family="Helvetica,sans-Serif" font-size="10.00">e57::SphericalBounds</text>
</a>
</g>
</g>
<!-- Node10&#45;&gt;Node1 -->
<g id="edge9" class="edge">
<title>Node10&#45;&gt;Node1</title>
<path fill="none" stroke="#9a32cd" stroke-dasharray="5,2" d="M560.21,-142.33C598.59,-143.09 647.24,-147.57 688,-162.5 704.44,-168.52 720.52,-180.94 730.58,-189.73"/>
<polygon fill="#9a32cd" stroke="#9a32cd" points="560.71,-138.83 550.67,-142.22 560.63,-145.83 560.71,-138.83"/>
<text text-anchor="middle" x="635.5" y="-165.5" font-family="Helvetica,sans-Serif" font-size="10.00"> sphericalBounds</text>
</g>
<!-- Node11 -->
<g id="node11" class="node">
<title>Node11</title>
<g id="a_node11"><a xlink:href="../../db/df2/structe57_1_1_intensity_limits.html" target="_top" xlink:title="Specifies the limits for the value of signal intensity that a sensor is capable of producing.">
<polygon fill="white" stroke="#666666" points="544,-117 442,-117 442,-98 544,-98 544,-117"/>
<text text-anchor="middle" x="493" y="-105" font-family="Helvetica,sans-Serif" font-size="10.00">e57::IntensityLimits</text>
</a>
</g>
</g>
<!-- Node11&#45;&gt;Node1 -->
<g id="edge10" class="edge">
<title>Node11&#45;&gt;Node1</title>
<path fill="none" stroke="#9a32cd" stroke-dasharray="5,2" d="M555.65,-101.49C595.85,-100.43 648.05,-104.66 688,-127.5 713.06,-141.83 729.68,-173.35 736.9,-189.51"/>
<polygon fill="#9a32cd" stroke="#9a32cd" points="555.76,-97.99 545.9,-101.88 556.03,-104.98 555.76,-97.99"/>
<text text-anchor="middle" x="635.5" y="-130.5" font-family="Helvetica,sans-Serif" font-size="10.00"> intensityLimits</text>
</g>
<!-- Node12 -->
<g id="node12" class="node">
<title>Node12</title>
<g id="a_node12"><a xlink:href="../../dc/dc8/structe57_1_1_color_limits.html" target="_top" xlink:title="Specifies the limits for the value of red, green, and blue color that a sensor is capable of producin...">
<polygon fill="white" stroke="#666666" points="537,-80 449,-80 449,-61 537,-61 537,-80"/>
<text text-anchor="middle" x="493" y="-68" font-family="Helvetica,sans-Serif" font-size="10.00">e57::ColorLimits</text>
</a>
</g>
</g>
<!-- Node12&#45;&gt;Node1 -->
<g id="edge11" class="edge">
<title>Node12&#45;&gt;Node1</title>
<path fill="none" stroke="#9a32cd" stroke-dasharray="5,2" d="M548.8,-61.17C590.6,-57.11 647.67,-58.47 688,-86.5 723.77,-111.35 736.04,-166.84 739.66,-189.54"/>
<polygon fill="#9a32cd" stroke="#9a32cd" points="548.5,-57.69 538.95,-62.28 549.28,-64.64 548.5,-57.69"/>
<text text-anchor="middle" x="635.5" y="-89.5" font-family="Helvetica,sans-Serif" font-size="10.00"> colorLimits</text>
</g>
<!-- Node13 -->
<g id="node13" class="node">
<title>Node13</title>
<g id="a_node13"><a xlink:href="../../dd/d87/structe57_1_1_point_grouping_schemes.html" target="_top" xlink:title="Supports the division of points within an Data3D into logical groupings.">
<polygon fill="white" stroke="#666666" points="563.5,-228 422.5,-228 422.5,-209 563.5,-209 563.5,-228"/>
<text text-anchor="middle" x="493" y="-216" font-family="Helvetica,sans-Serif" font-size="10.00">e57::PointGroupingSchemes</text>
</a>
</g>
</g>
<!-- Node13&#45;&gt;Node1 -->
<g id="edge12" class="edge">
<title>Node13&#45;&gt;Node1</title>
<path fill="none" stroke="#9a32cd" stroke-dasharray="5,2" d="M575.12,-212.26C619.27,-208.86 671.65,-204.83 705.56,-202.23"/>
<polygon fill="#9a32cd" stroke="#9a32cd" points="575,-208.76 565.3,-213.02 575.54,-215.74 575,-208.76"/>
<text text-anchor="middle" x="635.5" y="-213.5" font-family="Helvetica,sans-Serif" font-size="10.00"> pointGroupingSchemes</text>
</g>
<!-- Node14&#45;&gt;Node13 -->
<g id="edge13" class="edge">
<title>Node14&#45;&gt;Node13</title>
<path fill="none" stroke="#9a32cd" stroke-dasharray="5,2" d="M278.51,-190.03C321.42,-195.76 377.93,-203.29 422.03,-209.17"/>
<polygon fill="#9a32cd" stroke="#9a32cd" points="279.22,-186.6 268.85,-188.75 278.3,-193.54 279.22,-186.6"/>
<text text-anchor="middle" x="344" y="-209.5" font-family="Helvetica,sans-Serif" font-size="10.00"> groupingByLine</text>
</g>
<!-- Node15 -->
<g id="node15" class="node">
<title>Node15</title>
<g id="a_node15"><a xlink:href="../../dc/d25/structe57_1_1_point_standardized_fields_available.html" target="_top" xlink:title="Used to interrogate if standardized fields are available.">
<polygon fill="white" stroke="#666666" points="565,-42.5 421,-42.5 421,-12.5 565,-12.5 565,-42.5"/>
<text text-anchor="start" x="429" y="-30.5" font-family="Helvetica,sans-Serif" font-size="10.00">e57::PointStandardizedFields</text>
<text text-anchor="middle" x="493" y="-19.5" font-family="Helvetica,sans-Serif" font-size="10.00">Available</text>
</a>
</g>
</g>
<!-- Node15&#45;&gt;Node1 -->
<g id="edge15" class="edge">
<title>Node15&#45;&gt;Node1</title>
<path fill="none" stroke="#9a32cd" stroke-dasharray="5,2" d="M576.87,-14.98C614.37,-13.83 657.1,-19.38 688,-43.5 735.35,-80.46 740.68,-161.76 741.07,-189.78"/>
<polygon fill="#9a32cd" stroke="#9a32cd" points="576.76,-11.48 566.94,-15.46 577.1,-18.47 576.76,-11.48"/>
<text text-anchor="middle" x="635.5" y="-46.5" font-family="Helvetica,sans-Serif" font-size="10.00"> pointFields</text>
</g>
<!-- Node16 -->
<g id="node16" class="node">
<title>Node16</title>
<g id="a_node16"><a xlink:title=" ">
<polygon fill="white" stroke="#666666" points="239,-56 188,-56 188,-37 239,-37 239,-56"/>
<text text-anchor="middle" x="213.5" y="-44" font-family="Helvetica,sans-Serif" font-size="10.00">uint32_t</text>
</a>
</g>
</g>
<!-- Node16&#45;&gt;Node15 -->
<g id="edge16" class="edge">
<title>Node16&#45;&gt;Node15</title>
<path fill="none" stroke="#9a32cd" stroke-dasharray="5,2" d="M250.4,-44.04C293.31,-41.1 366.16,-36.12 420.67,-32.38"/>
<polygon fill="#9a32cd" stroke="#9a32cd" points="250.37,-40.54 240.64,-44.71 250.85,-47.52 250.37,-40.54"/>
<text text-anchor="middle" x="344" y="-55.5" font-family="Helvetica,sans-Serif" font-size="10.00"> columnIndexMaximum</text>
<text text-anchor="middle" x="344" y="-44.5" font-family="Helvetica,sans-Serif" font-size="10.00">rowIndexMaximum</text>
</g>
<!-- Node17 -->
<g id="node17" class="node">
<title>Node17</title>
<g id="a_node17"><a xlink:title=" ">
<polygon fill="white" stroke="#666666" points="236.5,-19 190.5,-19 190.5,0 236.5,0 236.5,-19"/>
<text text-anchor="middle" x="213.5" y="-7" font-family="Helvetica,sans-Serif" font-size="10.00">uint8_t</text>
</a>
</g>
</g>
<!-- Node17&#45;&gt;Node15 -->
<g id="edge17" class="edge">
<title>Node17&#45;&gt;Node15</title>
<path fill="none" stroke="#9a32cd" stroke-dasharray="5,2" d="M248.23,-8.85C286.01,-8.44 349.01,-8.7 403,-13.5 408.76,-14.01 414.72,-14.67 420.7,-15.42"/>
<polygon fill="#9a32cd" stroke="#9a32cd" points="248.36,-5.35 238.41,-8.98 248.46,-12.35 248.36,-5.35"/>
<text text-anchor="middle" x="344" y="-16.5" font-family="Helvetica,sans-Serif" font-size="10.00"> returnMaximum</text>
</g>
</g>
</svg>
        <g id="navigator" transform="translate(0 0)" fill="#404254">
                <rect fill="#f2f5e9" fill-opacity="0.5" stroke="#606060" stroke-width=".5" x="0" y="0" width="60" height="60"/>
                <use id="zoomplus" xlink:href="#zoomPlus" x="17" y="9" onmousedown="handleZoom(evt,'in')"/>
                <use id="zoomminus" xlink:href="#zoomMin" x="42" y="9" onmousedown="handleZoom(evt,'out')"/>
                <use id="reset" xlink:href="#resetDef" x="30" y="36" onmousedown="handleReset()"/>
                <g id="arrowUp" xlink:href="#dirArrow" transform="translate(30 24)" onmousedown="handlePan(0,-1)">
                  <use xlink:href="#rim" fill="#404040">
                        <set attributeName="fill" to="#808080" begin="arrowUp.mouseover" end="arrowUp.mouseout"/>
                  </use>
                  <path fill="none" stroke="white" stroke-width="1.5" d="M0,-3.0v7 M-2.5,-0.5L0,-3.0L2.5,-0.5"/>
                </g>
                <g id="arrowRight" xlink:href="#dirArrow" transform="rotate(90) translate(36 -43)" onmousedown="handlePan(1,0)">
                  <use xlink:href="#rim" fill="#404040">
                        <set attributeName="fill" to="#808080" begin="arrowRight.mouseover" end="arrowRight.mouseout"/>
                  </use>
                  <path fill="none" stroke="white" stroke-width="1.5" d="M0,-3.0v7 M-2.5,-0.5L0,-3.0L2.5,-0.5"/>
                </g>
                <g id="arrowDown" xlink:href="#dirArrow" transform="rotate(180) translate(-30 -48)" onmousedown="handlePan(0,1)">
                  <use xlink:href="#rim" fill="#404040">
                        <set attributeName="fill" to="#808080" begin="arrowDown.mouseover" end="arrowDown.mouseout"/>
                  </use>
                  <path fill="none" stroke="white" stroke-width="1.5" d="M0,-3.0v7 M-2.5,-0.5L0,-3.0L2.5,-0.5"/>
                </g>
                <g id="arrowLeft" xlink:href="#dirArrow" transform="rotate(270) translate(-36 17)" onmousedown="handlePan(-1,0)">
                  <use xlink:href="#rim" fill="#404040">
                        <set attributeName="fill" to="#808080" begin="arrowLeft.mouseover" end="arrowLeft.mouseout"/>
                  </use>
                  <path fill="none" stroke="white" stroke-width="1.5" d="M0,-3.0v7 M-2.5,-0.5L0,-3.0L2.5,-0.5"/>
                </g>
        </g>
        <svg viewBox="0 0 15 15" width="100%" height="30px" preserveAspectRatio="xMaxYMin meet">
         <g id="arrow_out" transform="scale(0.3 0.3)">
          <a xlink:href="structe57_1_1_data3_d__coll__graph_org.svg" target="_base">
           <rect id="button" ry="5" rx="5" y="6" x="6" height="38" width="38"
                fill="#f2f5e9" fill-opacity="0.5" stroke="#606060" stroke-width="1.0"/>
           <path id="arrow"
             d="M 11.500037,31.436501 C 11.940474,20.09759 22.043105,11.32322 32.158766,21.979434 L 37.068811,17.246167 C 37.068811,17.246167 37.088388,32 37.088388,32 L 22.160133,31.978069 C 22.160133,31.978069 26.997745,27.140456 26.997745,27.140456 C 18.528582,18.264221 13.291696,25.230495 11.500037,31.436501 z"
             style="fill:#404040;"/>
          </a>
         </g>
        </svg>
</svg>
