<?xml version="1.0" encoding="UTF-8" standalone="no"?>
<!DOCTYPE svg PUBLIC "-//W3C//DTD SVG 1.1//EN"
 "http://www.w3.org/Graphics/SVG/1.1/DTD/svg11.dtd">
<!-- Generated by graphviz version 7.1.0 (20230121.1956)
 -->
<!-- Title: e57::Data3D Pages: 1 -->
<!--zoomable 394 -->
<svg id="main" version="1.1" xmlns="http://www.w3.org/2000/svg" xmlns:xlink="http://www.w3.org/1999/xlink" xml:space="preserve" onload="init(evt)">
<style type="text/css"><![CDATA[
.edge:hover path { stroke: red; }
.edge:hover polygon { stroke: red; fill: red; }
]]></style>
<script type="text/javascript"><![CDATA[
var edges = document.getElementsByTagName('g');
if (edges && edges.length) {
  for (var i=0;i<edges.length;i++) {
    if (edges[i].id.substr(0,4)=='edge') {
      edges[i].setAttribute('class','edge');
    }
  }
}
]]></script>
        <defs>
                <circle id="rim" cx="0" cy="0" r="7"/>
                <circle id="rim2" cx="0" cy="0" r="3.5"/>
                <g id="zoomPlus">
                        <use xlink:href="#rim" fill="#404040">
                                <set attributeName="fill" to="#808080" begin="zoomplus.mouseover" end="zoomplus.mouseout"/>
                        </use>
                        <path d="M-4,0h8M0,-4v8" fill="none" stroke="white" stroke-width="1.5" pointer-events="none"/>
                </g>
                <g id="zoomMin">
                        <use xlink:href="#rim" fill="#404040">
                                <set attributeName="fill" to="#808080" begin="zoomminus.mouseover" end="zoomminus.mouseout"/>
                        </use>
                        <path d="M-4,0h8" fill="none" stroke="white" stroke-width="1.5" pointer-events="none"/>
                </g>
                <g id="dirArrow">
                        <path fill="none" stroke="white" stroke-width="1.5" d="M0,-3.0v7 M-2.5,-0.5L0,-3.0L2.5,-0.5"/>
                </g>
               <g id="resetDef">
                       <use xlink:href="#rim2" fill="#404040">
                               <set attributeName="fill" to="#808080" begin="reset.mouseover" end="reset.mouseout"/>
                       </use>
               </g>
        </defs>

<script type="text/javascript">
var viewWidth = 786;
var viewHeight = 394;
var sectionId = 'dynsection-0';
</script>
<script xlink:href="../../svgpan.js"/>
<svg id="graph" class="graph">
<g id="viewport">
<title>e57::Data3D</title>
<!-- Node1 -->
<g id="node1" class="node">
<title>Node1</title>
<g id="a_node1"><a xlink:title="Stores the top&#45;level information for a single lidar scan.">
<polygon fill="#999999" stroke="#666666" points="778,-191 706,-191 706,-172 778,-172 778,-191"/>
<text text-anchor="middle" x="742" y="-179" font-family="Helvetica,sans-Serif" font-size="10.00">e57::Data3D</text>
</a>
</g>
</g>
<!-- Node2 -->
<g id="node2" class="node">
<title>Node2</title>
<g id="a_node2"><a xlink:href="../../d1/dd7/structe57_1_1_date_time.html" target="_top" xlink:title="Encodes date and time.">
<polygon fill="white" stroke="#666666" points="533.5,-375 452.5,-375 452.5,-356 533.5,-356 533.5,-375"/>
<text text-anchor="middle" x="493" y="-363" font-family="Helvetica,sans-Serif" font-size="10.00">e57::DateTime</text>
</a>
</g>
</g>
<!-- Node2&#45;&gt;Node1 -->
<g id="edge1" class="edge">
<title>Node2&#45;&gt;Node1</title>
<path fill="none" stroke="#9a32cd" stroke-dasharray="5,2" d="M545.16,-367.29C588.11,-366.06 648.62,-357.58 688,-323.5 729.19,-287.85 738.42,-217.01 740.45,-191.2"/>
<polygon fill="#9a32cd" stroke="#9a32cd" points="545.27,-363.79 535.33,-367.43 545.38,-370.79 545.27,-363.79"/>
<text text-anchor="middle" x="635.5" y="-377.5" font-family="Helvetica,sans-Serif" font-size="10.00"> acquisitionEnd</text>
<text text-anchor="middle" x="635.5" y="-366.5" font-family="Helvetica,sans-Serif" font-size="10.00">acquisitionStart</text>
</g>
<!-- Node3 -->
<g id="node3" class="node">
<title>Node3</title>
<g id="a_node3"><a xlink:title=" ">
<polygon fill="white" stroke="#666666" points="236.5,-385 190.5,-385 190.5,-366 236.5,-366 236.5,-385"/>
<text text-anchor="middle" x="213.5" y="-373" font-family="Helvetica,sans-Serif" font-size="10.00">int32_t</text>
</a>
</g>
</g>
<!-- Node3&#45;&gt;Node2 -->
<g id="edge2" class="edge">
<title>Node3&#45;&gt;Node2</title>
<path fill="none" stroke="#9a32cd" stroke-dasharray="5,2" d="M248.15,-374.29C299.5,-372.44 397.22,-368.92 452.08,-366.94"/>
<polygon fill="#9a32cd" stroke="#9a32cd" points="248.12,-370.79 238.25,-374.64 248.37,-377.78 248.12,-370.79"/>
<text text-anchor="middle" x="344" y="-375.5" font-family="Helvetica,sans-Serif" font-size="10.00"> isAtomicClockReferenced</text>
</g>
<!-- Node4 -->
<g id="node4" class="node">
<title>Node4</title>
<g id="a_node4"><a xlink:href="../../d2/df3/structe57_1_1_rigid_body_transform.html" target="_top" xlink:title="Defines a rigid body transform in cartesian coordinates.">
<polygon fill="white" stroke="#666666" points="557,-313 429,-313 429,-294 557,-294 557,-313"/>
<text text-anchor="middle" x="493" y="-301" font-family="Helvetica,sans-Serif" font-size="10.00">e57::RigidBodyTransform</text>
</a>
</g>
</g>
<!-- Node4&#45;&gt;Node1 -->
<g id="edge3" class="edge">
<title>Node4&#45;&gt;Node1</title>
<path fill="none" stroke="#9a32cd" stroke-dasharray="5,2" d="M568.45,-309.35C607.14,-308.79 653.42,-302.13 688,-278.5 719.05,-257.28 733.62,-211.69 738.75,-191.49"/>
<polygon fill="#9a32cd" stroke="#9a32cd" points="568.75,-305.85 558.75,-309.35 568.74,-312.85 568.75,-305.85"/>
<text text-anchor="middle" x="635.5" y="-311.5" font-family="Helvetica,sans-Serif" font-size="10.00"> pose</text>
</g>
<!-- Node5 -->
<g id="node5" class="node">
<title>Node5</title>
<g id="a_node5"><a xlink:href="../../dc/da9/structe57_1_1_quaternion.html" target="_top" xlink:title="Represents a rigid body rotation.">
<polygon fill="white" stroke="#666666" points="256.5,-348 170.5,-348 170.5,-329 256.5,-329 256.5,-348"/>
<text text-anchor="middle" x="213.5" y="-336" font-family="Helvetica,sans-Serif" font-size="10.00">e57::Quaternion</text>
</a>
</g>
</g>
<!-- Node5&#45;&gt;Node4 -->
<g id="edge4" class="edge">
<title>Node5&#45;&gt;Node4</title>
<path fill="none" stroke="#9a32cd" stroke-dasharray="5,2" d="M268.09,-332.66C305.84,-328.45 357.56,-322.47 403,-316.5 411.36,-315.4 420.15,-314.19 428.83,-312.96"/>
<polygon fill="#9a32cd" stroke="#9a32cd" points="267.9,-329.16 258.35,-333.74 268.67,-336.12 267.9,-329.16"/>
<text text-anchor="middle" x="344" y="-333.5" font-family="Helvetica,sans-Serif" font-size="10.00"> rotation</text>
</g>
<!-- Node6 -->
<g id="node6" class="node">
<title>Node6</title>
<g id="a_node6"><a xlink:href="../../d6/dad/structe57_1_1_translation.html" target="_top" xlink:title="Defines a rigid body translation in Cartesian coordinates.">
<polygon fill="white" stroke="#666666" points="256.5,-311 170.5,-311 170.5,-292 256.5,-292 256.5,-311"/>
<text text-anchor="middle" x="213.5" y="-299" font-family="Helvetica,sans-Serif" font-size="10.00">e57::Translation</text>
</a>
</g>
</g>
<!-- Node6&#45;&gt;Node4 -->
<g id="edge5" class="edge">
<title>Node6&#45;&gt;Node4</title>
<path fill="none" stroke="#9a32cd" stroke-dasharray="5,2" d="M268.45,-301.89C314.34,-302.22 380.31,-302.7 428.69,-303.04"/>
<polygon fill="#9a32cd" stroke="#9a32cd" points="268.49,-298.39 258.46,-301.82 268.44,-305.39 268.49,-298.39"/>
<text text-anchor="middle" x="344" y="-305.5" font-family="Helvetica,sans-Serif" font-size="10.00"> translation</text>
</g>
<!-- Node7 -->
<g id="node7" class="node">
<title>Node7</title>
<g id="a_node7"><a xlink:href="../../d7/d4c/structe57_1_1_index_bounds.html" target="_top" xlink:title="Stores the minimum and maximum of rowIndex, columnIndex, and returnIndex fields for a set of points.">
<polygon fill="white" stroke="#666666" points="391.5,-273 296.5,-273 296.5,-254 391.5,-254 391.5,-273"/>
<text text-anchor="middle" x="344" y="-261" font-family="Helvetica,sans-Serif" font-size="10.00">e57::IndexBounds</text>
</a>
</g>
</g>
<!-- Node7&#45;&gt;Node1 -->
<g id="edge6" class="edge">
<title>Node7&#45;&gt;Node1</title>
<path fill="none" stroke="#9a32cd" stroke-dasharray="5,2" d="M402.98,-266.6C473.24,-268.21 593.91,-264 688,-224.5 705.92,-216.98 722.63,-201.45 732.33,-191.25"/>
<polygon fill="#9a32cd" stroke="#9a32cd" points="403.33,-263.1 393.24,-266.32 403.13,-270.1 403.33,-263.1"/>
<text text-anchor="middle" x="493" y="-269.5" font-family="Helvetica,sans-Serif" font-size="10.00"> indexBounds</text>
</g>
<!-- Node8 -->
<g id="node8" class="node">
<title>Node8</title>
<g id="a_node8"><a xlink:title=" ">
<polygon fill="white" stroke="#666666" points="46,-250 0,-250 0,-231 46,-231 46,-250"/>
<text text-anchor="middle" x="23" y="-238" font-family="Helvetica,sans-Serif" font-size="10.00">int64_t</text>
</a>
</g>
</g>
<!-- Node8&#45;&gt;Node7 -->
<g id="edge7" class="edge">
<title>Node8&#45;&gt;Node7</title>
<path fill="none" stroke="#9a32cd" stroke-dasharray="5,2" d="M57.7,-242.93C114.92,-247.06 231.15,-255.44 296.21,-260.13"/>
<polygon fill="#9a32cd" stroke="#9a32cd" points="58.17,-239.45 47.94,-242.23 57.66,-246.44 58.17,-239.45"/>
<text text-anchor="middle" x="103" y="-306.5" font-family="Helvetica,sans-Serif" font-size="10.00"> columnMaximum</text>
<text text-anchor="middle" x="103" y="-295.5" font-family="Helvetica,sans-Serif" font-size="10.00">columnMinimum</text>
<text text-anchor="middle" x="103" y="-284.5" font-family="Helvetica,sans-Serif" font-size="10.00">returnMaximum</text>
<text text-anchor="middle" x="103" y="-273.5" font-family="Helvetica,sans-Serif" font-size="10.00">returnMinimum</text>
<text text-anchor="middle" x="103" y="-262.5" font-family="Helvetica,sans-Serif" font-size="10.00">rowMaximum</text>
<text text-anchor="middle" x="103" y="-251.5" font-family="Helvetica,sans-Serif" font-size="10.00">rowMinimum</text>
</g>
<!-- Node14 -->
<g id="node14" class="node">
<title>Node14</title>
<g id="a_node14"><a xlink:href="../../df/dfe/structe57_1_1_grouping_by_line.html" target="_top" xlink:title="Stores a set of point groups organized by the rowIndex or columnIndex attribute of the PointRecord.">
<polygon fill="white" stroke="#666666" points="267,-228 160,-228 160,-209 267,-209 267,-228"/>
<text text-anchor="middle" x="213.5" y="-216" font-family="Helvetica,sans-Serif" font-size="10.00">e57::GroupingByLine</text>
</a>
</g>
</g>
<!-- Node8&#45;&gt;Node14 -->
<g id="edge14" class="edge">
<title>Node8&#45;&gt;Node14</title>
<path fill="none" stroke="#9a32cd" stroke-dasharray="5,2" d="M48.86,-225.15C53.72,-222.83 58.9,-220.78 64,-219.5 95.01,-211.74 130.82,-211.27 159.51,-212.84"/>
<polygon fill="#9a32cd" stroke="#9a32cd" points="47.38,-221.98 40.22,-229.79 50.69,-228.15 47.38,-221.98"/>
<text text-anchor="middle" x="103" y="-233.5" font-family="Helvetica,sans-Serif" font-size="10.00"> groupsSize</text>
<text text-anchor="middle" x="103" y="-222.5" font-family="Helvetica,sans-Serif" font-size="10.00">pointCountSize</text>
</g>
<!-- Node9 -->
<g id="node9" class="node">
<title>Node9</title>
<g id="a_node9"><a xlink:href="../../d7/d34/structe57_1_1_cartesian_bounds.html" target="_top" xlink:title="Specifies an axis&#45;aligned box in local cartesian coordinates.">
<polygon fill="white" stroke="#666666" points="549.5,-191 436.5,-191 436.5,-172 549.5,-172 549.5,-191"/>
<text text-anchor="middle" x="493" y="-179" font-family="Helvetica,sans-Serif" font-size="10.00">e57::CartesianBounds</text>
</a>
</g>
</g>
<!-- Node9&#45;&gt;Node1 -->
<g id="edge8" class="edge">
<title>Node9&#45;&gt;Node1</title>
<path fill="none" stroke="#9a32cd" stroke-dasharray="5,2" d="M560.99,-181.5C607.66,-181.5 668.08,-181.5 705.68,-181.5"/>
<polygon fill="#9a32cd" stroke="#9a32cd" points="561.25,-178 551.25,-181.5 561.25,-185 561.25,-178"/>
<text text-anchor="middle" x="635.5" y="-184.5" font-family="Helvetica,sans-Serif" font-size="10.00"> cartesianBounds</text>
</g>
<!-- Node10 -->
<g id="node10" class="node">
<title>Node10</title>
<g id="a_node10"><a xlink:href="../../d2/d00/structe57_1_1_spherical_bounds.html" target="_top" xlink:title="Stores the bounds of some data in spherical coordinates.">
<polygon fill="white" stroke="#666666" points="549,-154 437,-154 437,-135 549,-135 549,-154"/>
<text text-anchor="middle" x="493" y="-142" font-family="Helvetica,sans-Serif" font-size="10.00">e57::SphericalBounds</text>
</a>
</g>
</g>
<!-- Node10&#45;&gt;Node1 -->
<g id="edge9" class="edge">
<title>Node10&#45;&gt;Node1</title>
<path fill="none" stroke="#9a32cd" stroke-dasharray="5,2" d="M560.48,-149.34C598.12,-152.76 645.95,-158.22 688,-166.5 694.85,-167.85 702.1,-169.65 708.97,-171.53"/>
<polygon fill="#9a32cd" stroke="#9a32cd" points="560.91,-145.87 550.65,-148.48 560.3,-152.84 560.91,-145.87"/>
<text text-anchor="middle" x="635.5" y="-169.5" font-family="Helvetica,sans-Serif" font-size="10.00"> sphericalBounds</text>
</g>
<!-- Node11 -->
<g id="node11" class="node">
<title>Node11</title>
<g id="a_node11"><a xlink:href="../../db/df2/structe57_1_1_intensity_limits.html" target="_top" xlink:title="Specifies the limits for the value of signal intensity that a sensor is capable of producing.">
<polygon fill="white" stroke="#666666" points="544,-117 442,-117 442,-98 544,-98 544,-117"/>
<text text-anchor="middle" x="493" y="-105" font-family="Helvetica,sans-Serif" font-size="10.00">e57::IntensityLimits</text>
</a>
</g>
</g>
<!-- Node11&#45;&gt;Node1 -->
<g id="edge10" class="edge">
<title>Node11&#45;&gt;Node1</title>
<path fill="none" stroke="#9a32cd" stroke-dasharray="5,2" d="M555.66,-108.11C595.05,-110.55 646.37,-117.6 688,-136.5 706.25,-144.78 723.11,-161.25 732.72,-171.8"/>
<polygon fill="#9a32cd" stroke="#9a32cd" points="556.04,-104.63 545.87,-107.6 555.67,-111.62 556.04,-104.63"/>
<text text-anchor="middle" x="635.5" y="-139.5" font-family="Helvetica,sans-Serif" font-size="10.00"> intensityLimits</text>
</g>
<!-- Node12 -->
<g id="node12" class="node">
<title>Node12</title>
<g id="a_node12"><a xlink:href="../../dc/dc8/structe57_1_1_color_limits.html" target="_top" xlink:title="Specifies the limits for the value of red, green, and blue color that a sensor is capable of producin...">
<polygon fill="white" stroke="#666666" points="537,-80 449,-80 449,-61 537,-61 537,-80"/>
<text text-anchor="middle" x="493" y="-68" font-family="Helvetica,sans-Serif" font-size="10.00">e57::ColorLimits</text>
</a>
</g>
</g>
<!-- Node12&#45;&gt;Node1 -->
<g id="edge11" class="edge">
<title>Node12&#45;&gt;Node1</title>
<path fill="none" stroke="#9a32cd" stroke-dasharray="5,2" d="M548.56,-65.46C589.98,-64.32 646.67,-68.81 688,-95.5 716.44,-113.86 732.12,-153.42 738.12,-171.77"/>
<polygon fill="#9a32cd" stroke="#9a32cd" points="548.67,-61.95 538.82,-65.85 548.95,-68.94 548.67,-61.95"/>
<text text-anchor="middle" x="635.5" y="-98.5" font-family="Helvetica,sans-Serif" font-size="10.00"> colorLimits</text>
</g>
<!-- Node13 -->
<g id="node13" class="node">
<title>Node13</title>
<g id="a_node13"><a xlink:href="../../dd/d87/structe57_1_1_point_grouping_schemes.html" target="_top" xlink:title="Supports the division of points within an Data3D into logical groupings.">
<polygon fill="white" stroke="#666666" points="563.5,-228 422.5,-228 422.5,-209 563.5,-209 563.5,-228"/>
<text text-anchor="middle" x="493" y="-216" font-family="Helvetica,sans-Serif" font-size="10.00">e57::PointGroupingSchemes</text>
</a>
</g>
</g>
<!-- Node13&#45;&gt;Node1 -->
<g id="edge12" class="edge">
<title>Node13&#45;&gt;Node1</title>
<path fill="none" stroke="#9a32cd" stroke-dasharray="5,2" d="M575.05,-211.45C609.98,-207.76 651.17,-202.51 688,-195.5 693.89,-194.38 700.09,-192.96 706.09,-191.46"/>
<polygon fill="#9a32cd" stroke="#9a32cd" points="575.04,-207.94 565.46,-212.44 575.76,-214.9 575.04,-207.94"/>
<text text-anchor="middle" x="635.5" y="-212.5" font-family="Helvetica,sans-Serif" font-size="10.00"> pointGroupingSchemes</text>
</g>
<!-- Node14&#45;&gt;Node13 -->
<g id="edge13" class="edge">
<title>Node14&#45;&gt;Node13</title>
<path fill="none" stroke="#9a32cd" stroke-dasharray="5,2" d="M278.78,-218.5C321.66,-218.5 378.02,-218.5 422.03,-218.5"/>
<polygon fill="#9a32cd" stroke="#9a32cd" points="278.86,-215 268.86,-218.5 278.86,-222 278.86,-215"/>
<text text-anchor="middle" x="344" y="-221.5" font-family="Helvetica,sans-Serif" font-size="10.00"> groupingByLine</text>
</g>
<!-- Node15 -->
<g id="node15" class="node">
<title>Node15</title>
<g id="a_node15"><a xlink:href="../../dc/d25/structe57_1_1_point_standardized_fields_available.html" target="_top" xlink:title="Used to interrogate if standardized fields are available.">
<polygon fill="white" stroke="#666666" points="565,-42.5 421,-42.5 421,-12.5 565,-12.5 565,-42.5"/>
<text text-anchor="start" x="429" y="-30.5" font-family="Helvetica,sans-Serif" font-size="10.00">e57::PointStandardizedFields</text>
<text text-anchor="middle" x="493" y="-19.5" font-family="Helvetica,sans-Serif" font-size="10.00">Available</text>
</a>
</g>
</g>
<!-- Node15&#45;&gt;Node1 -->
<g id="edge15" class="edge">
<title>Node15&#45;&gt;Node1</title>
<path fill="none" stroke="#9a32cd" stroke-dasharray="5,2" d="M576.55,-19.19C613.97,-19.66 656.73,-26.62 688,-50.5 727.97,-81.02 737.91,-146.67 740.29,-171.61"/>
<polygon fill="#9a32cd" stroke="#9a32cd" points="576.62,-15.69 566.64,-19.23 576.65,-22.69 576.62,-15.69"/>
<text text-anchor="middle" x="635.5" y="-53.5" font-family="Helvetica,sans-Serif" font-size="10.00"> pointFields</text>
</g>
<!-- Node16 -->
<g id="node16" class="node">
<title>Node16</title>
<g id="a_node16"><a xlink:title=" ">
<polygon fill="white" stroke="#666666" points="239,-56 188,-56 188,-37 239,-37 239,-56"/>
<text text-anchor="middle" x="213.5" y="-44" font-family="Helvetica,sans-Serif" font-size="10.00">uint32_t</text>
</a>
</g>
</g>
<!-- Node16&#45;&gt;Node15 -->
<g id="edge16" class="edge">
<title>Node16&#45;&gt;Node15</title>
<path fill="none" stroke="#9a32cd" stroke-dasharray="5,2" d="M250.4,-44.04C293.31,-41.1 366.16,-36.12 420.67,-32.38"/>
<polygon fill="#9a32cd" stroke="#9a32cd" points="250.37,-40.54 240.64,-44.71 250.85,-47.52 250.37,-40.54"/>
<text text-anchor="middle" x="344" y="-55.5" font-family="Helvetica,sans-Serif" font-size="10.00"> columnIndexMaximum</text>
<text text-anchor="middle" x="344" y="-44.5" font-family="Helvetica,sans-Serif" font-size="10.00">rowIndexMaximum</text>
</g>
<!-- Node17 -->
<g id="node17" class="node">
<title>Node17</title>
<g id="a_node17"><a xlink:title=" ">
<polygon fill="white" stroke="#666666" points="236.5,-19 190.5,-19 190.5,0 236.5,0 236.5,-19"/>
<text text-anchor="middle" x="213.5" y="-7" font-family="Helvetica,sans-Serif" font-size="10.00">uint8_t</text>
</a>
</g>
</g>
<!-- Node17&#45;&gt;Node15 -->
<g id="edge17" class="edge">
<title>Node17&#45;&gt;Node15</title>
<path fill="none" stroke="#9a32cd" stroke-dasharray="5,2" d="M248.23,-8.85C286.01,-8.44 349.01,-8.7 403,-13.5 408.76,-14.01 414.72,-14.67 420.7,-15.42"/>
<polygon fill="#9a32cd" stroke="#9a32cd" points="248.36,-5.35 238.41,-8.98 248.46,-12.35 248.36,-5.35"/>
<text text-anchor="middle" x="344" y="-16.5" font-family="Helvetica,sans-Serif" font-size="10.00"> returnMaximum</text>
</g>
</g>
</svg>
        <g id="navigator" transform="translate(0 0)" fill="#404254">
                <rect fill="#f2f5e9" fill-opacity="0.5" stroke="#606060" stroke-width=".5" x="0" y="0" width="60" height="60"/>
                <use id="zoomplus" xlink:href="#zoomPlus" x="17" y="9" onmousedown="handleZoom(evt,'in')"/>
                <use id="zoomminus" xlink:href="#zoomMin" x="42" y="9" onmousedown="handleZoom(evt,'out')"/>
                <use id="reset" xlink:href="#resetDef" x="30" y="36" onmousedown="handleReset()"/>
                <g id="arrowUp" xlink:href="#dirArrow" transform="translate(30 24)" onmousedown="handlePan(0,-1)">
                  <use xlink:href="#rim" fill="#404040">
                        <set attributeName="fill" to="#808080" begin="arrowUp.mouseover" end="arrowUp.mouseout"/>
                  </use>
                  <path fill="none" stroke="white" stroke-width="1.5" d="M0,-3.0v7 M-2.5,-0.5L0,-3.0L2.5,-0.5"/>
                </g>
                <g id="arrowRight" xlink:href="#dirArrow" transform="rotate(90) translate(36 -43)" onmousedown="handlePan(1,0)">
                  <use xlink:href="#rim" fill="#404040">
                        <set attributeName="fill" to="#808080" begin="arrowRight.mouseover" end="arrowRight.mouseout"/>
                  </use>
                  <path fill="none" stroke="white" stroke-width="1.5" d="M0,-3.0v7 M-2.5,-0.5L0,-3.0L2.5,-0.5"/>
                </g>
                <g id="arrowDown" xlink:href="#dirArrow" transform="rotate(180) translate(-30 -48)" onmousedown="handlePan(0,1)">
                  <use xlink:href="#rim" fill="#404040">
                        <set attributeName="fill" to="#808080" begin="arrowDown.mouseover" end="arrowDown.mouseout"/>
                  </use>
                  <path fill="none" stroke="white" stroke-width="1.5" d="M0,-3.0v7 M-2.5,-0.5L0,-3.0L2.5,-0.5"/>
                </g>
                <g id="arrowLeft" xlink:href="#dirArrow" transform="rotate(270) translate(-36 17)" onmousedown="handlePan(-1,0)">
                  <use xlink:href="#rim" fill="#404040">
                        <set attributeName="fill" to="#808080" begin="arrowLeft.mouseover" end="arrowLeft.mouseout"/>
                  </use>
                  <path fill="none" stroke="white" stroke-width="1.5" d="M0,-3.0v7 M-2.5,-0.5L0,-3.0L2.5,-0.5"/>
                </g>
        </g>
        <svg viewBox="0 0 15 15" width="100%" height="30px" preserveAspectRatio="xMaxYMin meet">
         <g id="arrow_out" transform="scale(0.3 0.3)">
          <a xlink:href="structe57_1_1_data3_d__coll__graph_org.svg" target="_base">
           <rect id="button" ry="5" rx="5" y="6" x="6" height="38" width="38"
                fill="#f2f5e9" fill-opacity="0.5" stroke="#606060" stroke-width="1.0"/>
           <path id="arrow"
             d="M 11.500037,31.436501 C 11.940474,20.09759 22.043105,11.32322 32.158766,21.979434 L 37.068811,17.246167 C 37.068811,17.246167 37.088388,32 37.088388,32 L 22.160133,31.978069 C 22.160133,31.978069 26.997745,27.140456 26.997745,27.140456 C 18.528582,18.264221 13.291696,25.230495 11.500037,31.436501 z"
             style="fill:#404040;"/>
          </a>
         </g>
        </svg>
</svg>
