<?xml version="1.0" encoding="UTF-8" standalone="no"?>
<!DOCTYPE svg PUBLIC "-//W3C//DTD SVG 1.1//EN"
 "http://www.w3.org/Graphics/SVG/1.1/DTD/svg11.dtd">
<!-- Generated by graphviz version 8.1.0 (20230707.0739)
 -->
<!-- Title: e57::Data3D Pages: 1 -->
<svg width="782pt" height="394pt"
 viewBox="0.00 0.00 781.50 394.25" xmlns="http://www.w3.org/2000/svg" xmlns:xlink="http://www.w3.org/1999/xlink">
<g id="graph0" class="graph" transform="scale(1 1) rotate(0) translate(4 390.25)">
<title>e57::Data3D</title>
<!-- Node1 -->
<g id="node1" class="node">
<title>Node1</title>
<g id="a_node1"><a xlink:title="Stores the top&#45;level information for a single lidar scan.">
<polygon fill="#999999" stroke="#666666" points="773.5,-191.25 702,-191.25 702,-172 773.5,-172 773.5,-191.25"/>
<text text-anchor="middle" x="737.75" y="-177.75" font-family="Helvetica,sans-Serif" font-size="10.00">e57::Data3D</text>
</a>
</g>
</g>
<!-- Node2 -->
<g id="node2" class="node">
<title>Node2</title>
<g id="a_node2"><a xlink:href="../../d1/dd7/structe57_1_1_date_time.html" target="_top" xlink:title="Encodes date and time.">
<polygon fill="white" stroke="#666666" points="530.25,-376.25 449.75,-376.25 449.75,-357 530.25,-357 530.25,-376.25"/>
<text text-anchor="middle" x="490" y="-362.75" font-family="Helvetica,sans-Serif" font-size="10.00">e57::DateTime</text>
</a>
</g>
</g>
<!-- Node2&#45;&gt;Node1 -->
<g id="edge1" class="edge">
<title>Node2&#45;&gt;Node1</title>
<path fill="none" stroke="#9a32cd" stroke-dasharray="5,2" d="M541.39,-368.07C584.18,-366.62 644.73,-357.87 684,-323.62 724.83,-288.02 734.11,-217.77 736.17,-191.68"/>
<polygon fill="#9a32cd" stroke="#9a32cd" points="541.57,-364.59 531.64,-368.3 541.71,-371.59 541.57,-364.59"/>
<text text-anchor="middle" x="631.88" y="-376.62" font-family="Helvetica,sans-Serif" font-size="10.00"> acquisitionEnd</text>
<text text-anchor="middle" x="631.88" y="-365.38" font-family="Helvetica,sans-Serif" font-size="10.00">acquisitionStart</text>
</g>
<!-- Node3 -->
<g id="node3" class="node">
<title>Node3</title>
<g id="a_node3"><a xlink:title=" ">
<polygon fill="white" stroke="#666666" points="234.5,-386.25 189.25,-386.25 189.25,-367 234.5,-367 234.5,-386.25"/>
<text text-anchor="middle" x="211.88" y="-372.75" font-family="Helvetica,sans-Serif" font-size="10.00">int32_t</text>
</a>
</g>
</g>
<!-- Node3&#45;&gt;Node2 -->
<g id="edge2" class="edge">
<title>Node3&#45;&gt;Node2</title>
<path fill="none" stroke="#9a32cd" stroke-dasharray="5,2" d="M245.23,-375.45C296.1,-373.61 394.66,-370.04 449.59,-368.05"/>
<polygon fill="#9a32cd" stroke="#9a32cd" points="245.41,-371.98 235.54,-375.84 245.66,-378.98 245.41,-371.98"/>
<text text-anchor="middle" x="341.75" y="-375.38" font-family="Helvetica,sans-Serif" font-size="10.00"> isAtomicClockReferenced</text>
</g>
<!-- Node4 -->
<g id="node4" class="node">
<title>Node4</title>
<g id="a_node4"><a xlink:href="../../d2/df3/structe57_1_1_rigid_body_transform.html" target="_top" xlink:title="Defines a rigid body transform in cartesian coordinates.">
<polygon fill="white" stroke="#666666" points="553.5,-313.25 426.5,-313.25 426.5,-294 553.5,-294 553.5,-313.25"/>
<text text-anchor="middle" x="490" y="-299.75" font-family="Helvetica,sans-Serif" font-size="10.00">e57::RigidBodyTransform</text>
</a>
</g>
</g>
<!-- Node4&#45;&gt;Node1 -->
<g id="edge3" class="edge">
<title>Node4&#45;&gt;Node1</title>
<path fill="none" stroke="#9a32cd" stroke-dasharray="5,2" d="M564.59,-309.43C603.19,-308.9 649.48,-302.28 684,-278.62 714.99,-257.39 729.45,-211.81 734.52,-191.61"/>
<polygon fill="#9a32cd" stroke="#9a32cd" points="564.93,-305.93 554.93,-309.42 564.93,-312.93 564.93,-305.93"/>
<text text-anchor="middle" x="631.88" y="-310.38" font-family="Helvetica,sans-Serif" font-size="10.00"> pose</text>
</g>
<!-- Node5 -->
<g id="node5" class="node">
<title>Node5</title>
<g id="a_node5"><a xlink:href="../../dc/da9/structe57_1_1_quaternion.html" target="_top" xlink:title="Represents a rigid body rotation.">
<polygon fill="white" stroke="#666666" points="254.38,-349.25 169.38,-349.25 169.38,-330 254.38,-330 254.38,-349.25"/>
<text text-anchor="middle" x="211.88" y="-335.75" font-family="Helvetica,sans-Serif" font-size="10.00">e57::Quaternion</text>
</a>
</g>
</g>
<!-- Node5&#45;&gt;Node4 -->
<g id="edge4" class="edge">
<title>Node5&#45;&gt;Node4</title>
<path fill="none" stroke="#9a32cd" stroke-dasharray="5,2" d="M265.31,-334.03C302.92,-329.88 354.77,-323.88 400.25,-317.62 408.9,-316.43 418.02,-315.1 426.98,-313.73"/>
<polygon fill="#9a32cd" stroke="#9a32cd" points="265.17,-330.63 255.61,-335.2 265.93,-337.59 265.17,-330.63"/>
<text text-anchor="middle" x="341.75" y="-333.38" font-family="Helvetica,sans-Serif" font-size="10.00"> rotation</text>
</g>
<!-- Node6 -->
<g id="node6" class="node">
<title>Node6</title>
<g id="a_node6"><a xlink:href="../../d6/dad/structe57_1_1_translation.html" target="_top" xlink:title="Defines a rigid body translation in Cartesian coordinates.">
<polygon fill="white" stroke="#666666" points="254.75,-312.25 169,-312.25 169,-293 254.75,-293 254.75,-312.25"/>
<text text-anchor="middle" x="211.88" y="-298.75" font-family="Helvetica,sans-Serif" font-size="10.00">e57::Translation</text>
</a>
</g>
</g>
<!-- Node6&#45;&gt;Node4 -->
<g id="edge5" class="edge">
<title>Node6&#45;&gt;Node4</title>
<path fill="none" stroke="#9a32cd" stroke-dasharray="5,2" d="M265.98,-302.82C311.66,-302.98 377.66,-303.22 426,-303.4"/>
<polygon fill="#9a32cd" stroke="#9a32cd" points="266.13,-299.31 256.11,-302.78 266.1,-306.31 266.13,-299.31"/>
<text text-anchor="middle" x="341.75" y="-304.38" font-family="Helvetica,sans-Serif" font-size="10.00"> translation</text>
</g>
<!-- Node7 -->
<g id="node7" class="node">
<title>Node7</title>
<g id="a_node7"><a xlink:href="../../d7/d4c/structe57_1_1_index_bounds.html" target="_top" xlink:title="Stores the minimum and maximum of rowIndex, columnIndex, and returnIndex fields for a set of points.">
<polygon fill="white" stroke="#666666" points="389.12,-274.25 294.38,-274.25 294.38,-255 389.12,-255 389.12,-274.25"/>
<text text-anchor="middle" x="341.75" y="-260.75" font-family="Helvetica,sans-Serif" font-size="10.00">e57::IndexBounds</text>
</a>
</g>
</g>
<!-- Node7&#45;&gt;Node1 -->
<g id="edge6" class="edge">
<title>Node7&#45;&gt;Node1</title>
<path fill="none" stroke="#9a32cd" stroke-dasharray="5,2" d="M400.32,-267.49C470.23,-268.84 590.4,-264.23 684,-224.62 701.63,-217.17 718.07,-201.93 727.77,-191.74"/>
<polygon fill="#9a32cd" stroke="#9a32cd" points="400.62,-263.97 390.54,-267.22 400.45,-270.97 400.62,-263.97"/>
<text text-anchor="middle" x="490" y="-269.38" font-family="Helvetica,sans-Serif" font-size="10.00"> indexBounds</text>
</g>
<!-- Node8 -->
<g id="node8" class="node">
<title>Node8</title>
<g id="a_node8"><a xlink:title=" ">
<polygon fill="white" stroke="#666666" points="45.25,-251.25 0,-251.25 0,-232 45.25,-232 45.25,-251.25"/>
<text text-anchor="middle" x="22.62" y="-237.75" font-family="Helvetica,sans-Serif" font-size="10.00">int64_t</text>
</a>
</g>
</g>
<!-- Node8&#45;&gt;Node7 -->
<g id="edge7" class="edge">
<title>Node8&#45;&gt;Node7</title>
<path fill="none" stroke="#9a32cd" stroke-dasharray="5,2" d="M56.49,-244.01C113.11,-248.12 229.2,-256.53 294.14,-261.24"/>
<polygon fill="#9a32cd" stroke="#9a32cd" points="56.9,-240.46 46.67,-243.22 56.39,-247.44 56.9,-240.46"/>
<text text-anchor="middle" x="101.88" y="-307.62" font-family="Helvetica,sans-Serif" font-size="10.00"> columnMaximum</text>
<text text-anchor="middle" x="101.88" y="-296.38" font-family="Helvetica,sans-Serif" font-size="10.00">columnMinimum</text>
<text text-anchor="middle" x="101.88" y="-285.12" font-family="Helvetica,sans-Serif" font-size="10.00">returnMaximum</text>
<text text-anchor="middle" x="101.88" y="-273.88" font-family="Helvetica,sans-Serif" font-size="10.00">returnMinimum</text>
<text text-anchor="middle" x="101.88" y="-262.62" font-family="Helvetica,sans-Serif" font-size="10.00">rowMaximum</text>
<text text-anchor="middle" x="101.88" y="-251.38" font-family="Helvetica,sans-Serif" font-size="10.00">rowMinimum</text>
</g>
<!-- Node14 -->
<g id="node14" class="node">
<title>Node14</title>
<g id="a_node14"><a xlink:href="../../df/dfe/structe57_1_1_grouping_by_line.html" target="_top" xlink:title="Stores a set of point groups organized by the rowIndex or columnIndex attribute of the PointRecord.">
<polygon fill="white" stroke="#666666" points="265.25,-228.25 158.5,-228.25 158.5,-209 265.25,-209 265.25,-228.25"/>
<text text-anchor="middle" x="211.88" y="-214.75" font-family="Helvetica,sans-Serif" font-size="10.00">e57::GroupingByLine</text>
</a>
</g>
</g>
<!-- Node8&#45;&gt;Node14 -->
<g id="edge14" class="edge">
<title>Node8&#45;&gt;Node14</title>
<path fill="none" stroke="#9a32cd" stroke-dasharray="5,2" d="M47.18,-226.45C52.29,-223.85 57.8,-221.54 63.25,-220.12 94.02,-212.15 129.61,-211.55 158.14,-213.05"/>
<polygon fill="#9a32cd" stroke="#9a32cd" points="45.96,-223.68 38.96,-231.64 49.39,-229.78 45.96,-223.68"/>
<text text-anchor="middle" x="101.88" y="-232.62" font-family="Helvetica,sans-Serif" font-size="10.00"> groupsSize</text>
<text text-anchor="middle" x="101.88" y="-221.38" font-family="Helvetica,sans-Serif" font-size="10.00">pointCountSize</text>
</g>
<!-- Node9 -->
<g id="node9" class="node">
<title>Node9</title>
<g id="a_node9"><a xlink:href="../../d7/d34/structe57_1_1_cartesian_bounds.html" target="_top" xlink:title="Specifies an axis&#45;aligned box in local cartesian coordinates.">
<polygon fill="white" stroke="#666666" points="546.38,-191.25 433.62,-191.25 433.62,-172 546.38,-172 546.38,-191.25"/>
<text text-anchor="middle" x="490" y="-177.75" font-family="Helvetica,sans-Serif" font-size="10.00">e57::CartesianBounds</text>
</a>
</g>
</g>
<!-- Node9&#45;&gt;Node1 -->
<g id="edge8" class="edge">
<title>Node9&#45;&gt;Node1</title>
<path fill="none" stroke="#9a32cd" stroke-dasharray="5,2" d="M557.66,-181.62C604.14,-181.62 664.3,-181.62 701.7,-181.62"/>
<polygon fill="#9a32cd" stroke="#9a32cd" points="557.76,-178.13 547.76,-181.62 557.76,-185.13 557.76,-178.13"/>
<text text-anchor="middle" x="631.88" y="-183.38" font-family="Helvetica,sans-Serif" font-size="10.00"> cartesianBounds</text>
</g>
<!-- Node10 -->
<g id="node10" class="node">
<title>Node10</title>
<g id="a_node10"><a xlink:href="../../d2/d00/structe57_1_1_spherical_bounds.html" target="_top" xlink:title="Stores the bounds of some data in spherical coordinates.">
<polygon fill="white" stroke="#666666" points="545.62,-154.25 434.38,-154.25 434.38,-135 545.62,-135 545.62,-154.25"/>
<text text-anchor="middle" x="490" y="-140.75" font-family="Helvetica,sans-Serif" font-size="10.00">e57::SphericalBounds</text>
</a>
</g>
</g>
<!-- Node10&#45;&gt;Node1 -->
<g id="edge9" class="edge">
<title>Node10&#45;&gt;Node1</title>
<path fill="none" stroke="#9a32cd" stroke-dasharray="5,2" d="M556.67,-149.25C594.2,-152.59 642.01,-158 684,-166.38 690.92,-167.75 698.24,-169.61 705.16,-171.55"/>
<polygon fill="#9a32cd" stroke="#9a32cd" points="557.13,-145.69 546.87,-148.32 556.53,-152.67 557.13,-145.69"/>
<text text-anchor="middle" x="631.88" y="-167.38" font-family="Helvetica,sans-Serif" font-size="10.00"> sphericalBounds</text>
</g>
<!-- Node11 -->
<g id="node11" class="node">
<title>Node11</title>
<g id="a_node11"><a xlink:href="../../db/df2/structe57_1_1_intensity_limits.html" target="_top" xlink:title="Specifies the limits for the value of signal intensity that a sensor is capable of producing.">
<polygon fill="white" stroke="#666666" points="540.75,-117.25 439.25,-117.25 439.25,-98 540.75,-98 540.75,-117.25"/>
<text text-anchor="middle" x="490" y="-103.75" font-family="Helvetica,sans-Serif" font-size="10.00">e57::IntensityLimits</text>
</a>
</g>
</g>
<!-- Node11&#45;&gt;Node1 -->
<g id="edge10" class="edge">
<title>Node11&#45;&gt;Node1</title>
<path fill="none" stroke="#9a32cd" stroke-dasharray="5,2" d="M551.86,-108.1C591.14,-110.44 642.45,-117.4 684,-136.38 702.22,-144.7 718.99,-161.25 728.53,-171.86"/>
<polygon fill="#9a32cd" stroke="#9a32cd" points="552.29,-104.56 542.13,-107.55 551.94,-111.55 552.29,-104.56"/>
<text text-anchor="middle" x="631.88" y="-137.38" font-family="Helvetica,sans-Serif" font-size="10.00"> intensityLimits</text>
</g>
<!-- Node12 -->
<g id="node12" class="node">
<title>Node12</title>
<g id="a_node12"><a xlink:href="../../dc/dc8/structe57_1_1_color_limits.html" target="_top" xlink:title="Specifies the limits for the value of red, green, and blue color that a sensor is capable of producin...">
<polygon fill="white" stroke="#666666" points="533.62,-80.25 446.38,-80.25 446.38,-61 533.62,-61 533.62,-80.25"/>
<text text-anchor="middle" x="490" y="-66.75" font-family="Helvetica,sans-Serif" font-size="10.00">e57::ColorLimits</text>
</a>
</g>
</g>
<!-- Node12&#45;&gt;Node1 -->
<g id="edge11" class="edge">
<title>Node12&#45;&gt;Node1</title>
<path fill="none" stroke="#9a32cd" stroke-dasharray="5,2" d="M545.04,-65.54C586.28,-64.33 642.83,-68.71 684,-95.38 712.29,-113.69 727.82,-153.05 733.81,-171.58"/>
<polygon fill="#9a32cd" stroke="#9a32cd" points="544.95,-62.08 535.1,-65.99 545.24,-69.07 544.95,-62.08"/>
<text text-anchor="middle" x="631.88" y="-96.38" font-family="Helvetica,sans-Serif" font-size="10.00"> colorLimits</text>
</g>
<!-- Node13 -->
<g id="node13" class="node">
<title>Node13</title>
<g id="a_node13"><a xlink:href="../../dd/d87/structe57_1_1_point_grouping_schemes.html" target="_top" xlink:title="Supports the division of points within an Data3D into logical groupings.">
<polygon fill="white" stroke="#666666" points="560.25,-228.25 419.75,-228.25 419.75,-209 560.25,-209 560.25,-228.25"/>
<text text-anchor="middle" x="490" y="-214.75" font-family="Helvetica,sans-Serif" font-size="10.00">e57::PointGroupingSchemes</text>
</a>
</g>
</g>
<!-- Node13&#45;&gt;Node1 -->
<g id="edge12" class="edge">
<title>Node13&#45;&gt;Node1</title>
<path fill="none" stroke="#9a32cd" stroke-dasharray="5,2" d="M571.19,-211.62C606.03,-207.92 647.21,-202.66 684,-195.62 689.77,-194.52 695.84,-193.13 701.72,-191.66"/>
<polygon fill="#9a32cd" stroke="#9a32cd" points="571.18,-208.21 561.59,-212.72 571.9,-215.17 571.18,-208.21"/>
<text text-anchor="middle" x="631.88" y="-211.38" font-family="Helvetica,sans-Serif" font-size="10.00"> pointGroupingSchemes</text>
</g>
<!-- Node14&#45;&gt;Node13 -->
<g id="edge13" class="edge">
<title>Node14&#45;&gt;Node13</title>
<path fill="none" stroke="#9a32cd" stroke-dasharray="5,2" d="M276.29,-218.62C319.03,-218.62 375.4,-218.62 419.38,-218.62"/>
<polygon fill="#9a32cd" stroke="#9a32cd" points="276.46,-215.13 266.46,-218.62 276.46,-222.13 276.46,-215.13"/>
<text text-anchor="middle" x="341.75" y="-220.38" font-family="Helvetica,sans-Serif" font-size="10.00"> groupingByLine</text>
</g>
<!-- Node15 -->
<g id="node15" class="node">
<title>Node15</title>
<g id="a_node15"><a xlink:href="../../dc/d25/structe57_1_1_point_standardized_fields_available.html" target="_top" xlink:title="Used to interrogate if standardized fields are available.">
<polygon fill="white" stroke="#666666" points="561.75,-42.88 418.25,-42.88 418.25,-12.37 561.75,-12.37 561.75,-42.88"/>
<text text-anchor="start" x="426.25" y="-29.38" font-family="Helvetica,sans-Serif" font-size="10.00">e57::PointStandardizedFields</text>
<text text-anchor="middle" x="490" y="-18.12" font-family="Helvetica,sans-Serif" font-size="10.00">Available</text>
</a>
</g>
</g>
<!-- Node15&#45;&gt;Node1 -->
<g id="edge15" class="edge">
<title>Node15&#45;&gt;Node1</title>
<path fill="none" stroke="#9a32cd" stroke-dasharray="5,2" d="M573.1,-19.26C610.34,-19.69 652.9,-26.59 684,-50.38 723.99,-80.96 733.76,-146.73 736.06,-171.72"/>
<polygon fill="#9a32cd" stroke="#9a32cd" points="573.22,-15.76 563.24,-19.31 573.26,-22.76 573.22,-15.76"/>
<text text-anchor="middle" x="631.88" y="-51.38" font-family="Helvetica,sans-Serif" font-size="10.00"> pointFields</text>
</g>
<!-- Node16 -->
<g id="node16" class="node">
<title>Node16</title>
<g id="a_node16"><a xlink:title=" ">
<polygon fill="white" stroke="#666666" points="237.12,-56.25 186.62,-56.25 186.62,-37 237.12,-37 237.12,-56.25"/>
<text text-anchor="middle" x="211.88" y="-42.75" font-family="Helvetica,sans-Serif" font-size="10.00">uint32_t</text>
</a>
</g>
</g>
<!-- Node16&#45;&gt;Node15 -->
<g id="edge16" class="edge">
<title>Node16&#45;&gt;Node15</title>
<path fill="none" stroke="#9a32cd" stroke-dasharray="5,2" d="M248.32,-44.19C290.99,-41.25 363.67,-36.25 418.03,-32.51"/>
<polygon fill="#9a32cd" stroke="#9a32cd" points="248.12,-40.76 238.38,-44.94 248.6,-47.74 248.12,-40.76"/>
<text text-anchor="middle" x="341.75" y="-54.62" font-family="Helvetica,sans-Serif" font-size="10.00"> columnIndexMaximum</text>
<text text-anchor="middle" x="341.75" y="-43.38" font-family="Helvetica,sans-Serif" font-size="10.00">rowIndexMaximum</text>
</g>
<!-- Node17 -->
<g id="node17" class="node">
<title>Node17</title>
<g id="a_node17"><a xlink:title=" ">
<polygon fill="white" stroke="#666666" points="234.5,-19.25 189.25,-19.25 189.25,0 234.5,0 234.5,-19.25"/>
<text text-anchor="middle" x="211.88" y="-5.75" font-family="Helvetica,sans-Serif" font-size="10.00">uint8_t</text>
</a>
</g>
</g>
<!-- Node17&#45;&gt;Node15 -->
<g id="edge17" class="edge">
<title>Node17&#45;&gt;Node15</title>
<path fill="none" stroke="#9a32cd" stroke-dasharray="5,2" d="M245.61,-8.9C283.07,-8.4 346.21,-8.52 400.25,-13.38 406,-13.89 411.94,-14.56 417.9,-15.32"/>
<polygon fill="#9a32cd" stroke="#9a32cd" points="245.8,-5.42 235.85,-9.08 245.91,-12.42 245.8,-5.42"/>
<text text-anchor="middle" x="341.75" y="-15.38" font-family="Helvetica,sans-Serif" font-size="10.00"> returnMaximum</text>
</g>
</g>
</svg>
