<?xml version="1.0" encoding="UTF-8" standalone="no"?>
<!DOCTYPE svg PUBLIC "-//W3C//DTD SVG 1.1//EN"
 "http://www.w3.org/Graphics/SVG/1.1/DTD/svg11.dtd">
<!-- Generated by graphviz version 6.0.1 (20220911.1526)
 -->
<!-- Title: e57::Data3D Pages: 1 -->
<!--zoomable 434 -->
<svg id="main" version="1.1" xmlns="http://www.w3.org/2000/svg" xmlns:xlink="http://www.w3.org/1999/xlink" xml:space="preserve" onload="init(evt)">
<style type="text/css"><![CDATA[
.edge:hover path { stroke: red; }
.edge:hover polygon { stroke: red; fill: red; }
]]></style>
<script type="text/javascript"><![CDATA[
var edges = document.getElementsByTagName('g');
if (edges && edges.length) {
  for (var i=0;i<edges.length;i++) {
    if (edges[i].id.substr(0,4)=='edge') {
      edges[i].setAttribute('class','edge');
    }
  }
}
]]></script>
        <defs>
                <circle id="rim" cx="0" cy="0" r="7"/>
                <circle id="rim2" cx="0" cy="0" r="3.5"/>
                <g id="zoomPlus">
                        <use xlink:href="#rim" fill="#404040">
                                <set attributeName="fill" to="#808080" begin="zoomplus.mouseover" end="zoomplus.mouseout"/>
                        </use>
                        <path d="M-4,0h8M0,-4v8" fill="none" stroke="white" stroke-width="1.5" pointer-events="none"/>
                </g>
                <g id="zoomMin">
                        <use xlink:href="#rim" fill="#404040">
                                <set attributeName="fill" to="#808080" begin="zoomminus.mouseover" end="zoomminus.mouseout"/>
                        </use>
                        <path d="M-4,0h8" fill="none" stroke="white" stroke-width="1.5" pointer-events="none"/>
                </g>
                <g id="dirArrow">
                        <path fill="none" stroke="white" stroke-width="1.5" d="M0,-3.0v7 M-2.5,-0.5L0,-3.0L2.5,-0.5"/>
                </g>
               <g id="resetDef">
                       <use xlink:href="#rim2" fill="#404040">
                               <set attributeName="fill" to="#808080" begin="reset.mouseover" end="reset.mouseout"/>
                       </use>
               </g>
        </defs>

<script type="text/javascript">
var viewWidth = 786;
var viewHeight = 434;
var sectionId = 'dynsection-0';
</script>
<script xlink:href="../../svgpan.js"/>
<svg id="graph" class="graph">
<g id="viewport">
<title>e57::Data3D</title>
<!-- Node1 -->
<g id="node1" class="node">
<title>Node1</title>
<g id="a_node1"><a xlink:title="Stores the top&#45;level information for a single lidar scan.">
<polygon fill="#999999" stroke="#666666" points="778,-209 706,-209 706,-190 778,-190 778,-209"/>
<text text-anchor="middle" x="742" y="-197" font-family="Helvetica,sans-Serif" font-size="10.00">e57::Data3D</text>
</a>
</g>
</g>
<!-- Node2 -->
<g id="node2" class="node">
<title>Node2</title>
<g id="a_node2"><a xlink:href="../../d1/dd7/structe57_1_1_date_time.html" target="_top" xlink:title="Encodes date and time.">
<polygon fill="white" stroke="#666666" points="533.5,-414 452.5,-414 452.5,-395 533.5,-395 533.5,-414"/>
<text text-anchor="middle" x="493" y="-402" font-family="Helvetica,sans-Serif" font-size="10.00">e57::DateTime</text>
</a>
</g>
</g>
<!-- Node2&#45;&gt;Node1 -->
<g id="edge1" class="edge">
<title>Node2&#45;&gt;Node1</title>
<path fill="none" stroke="#9a32cd" stroke-dasharray="5,2" d="M543.76,-406.74C587.05,-405.97 648.82,-397.9 688,-362.5 734.36,-320.6 740.33,-237.76 740.97,-209.34"/>
<polygon fill="#9a32cd" stroke="#9a32cd" points="543.71,-403.24 533.73,-406.8 543.75,-410.24 543.71,-403.24"/>
<text text-anchor="middle" x="635.5" y="-417.5" font-family="Helvetica,sans-Serif" font-size="10.00"> acquisitionEnd</text>
<text text-anchor="middle" x="635.5" y="-406.5" font-family="Helvetica,sans-Serif" font-size="10.00">acquisitionStart</text>
</g>
<!-- Node3 -->
<g id="node3" class="node">
<title>Node3</title>
<g id="a_node3"><a xlink:title=" ">
<polygon fill="white" stroke="#666666" points="236.5,-425 190.5,-425 190.5,-406 236.5,-406 236.5,-425"/>
<text text-anchor="middle" x="213.5" y="-413" font-family="Helvetica,sans-Serif" font-size="10.00">int32_t</text>
</a>
</g>
</g>
<!-- Node3&#45;&gt;Node2 -->
<g id="edge2" class="edge">
<title>Node3&#45;&gt;Node2</title>
<path fill="none" stroke="#9a32cd" stroke-dasharray="5,2" d="M246.86,-414.22C297.85,-412.2 396.76,-408.28 452.08,-406.08"/>
<polygon fill="#9a32cd" stroke="#9a32cd" points="246.59,-410.72 236.74,-414.62 246.87,-417.72 246.59,-410.72"/>
<text text-anchor="middle" x="344" y="-415.5" font-family="Helvetica,sans-Serif" font-size="10.00"> isAtomicClockReferenced</text>
</g>
<!-- Node4 -->
<g id="node4" class="node">
<title>Node4</title>
<g id="a_node4"><a xlink:href="../../d2/df3/structe57_1_1_rigid_body_transform.html" target="_top" xlink:title="Defines a rigid body transform in cartesian coordinates.">
<polygon fill="white" stroke="#666666" points="557,-351 429,-351 429,-332 557,-332 557,-351"/>
<text text-anchor="middle" x="493" y="-339" font-family="Helvetica,sans-Serif" font-size="10.00">e57::RigidBodyTransform</text>
</a>
</g>
</g>
<!-- Node4&#45;&gt;Node1 -->
<g id="edge3" class="edge">
<title>Node4&#45;&gt;Node1</title>
<path fill="none" stroke="#9a32cd" stroke-dasharray="5,2" d="M567.5,-348.39C606.74,-348.3 653.84,-341.76 688,-316.5 724.4,-289.58 736.4,-231.78 739.81,-209.01"/>
<polygon fill="#9a32cd" stroke="#9a32cd" points="567.48,-344.89 557.44,-348.27 567.4,-351.89 567.48,-344.89"/>
<text text-anchor="middle" x="635.5" y="-350.5" font-family="Helvetica,sans-Serif" font-size="10.00"> pose</text>
</g>
<!-- Node5 -->
<g id="node5" class="node">
<title>Node5</title>
<g id="a_node5"><a xlink:href="../../dc/da9/structe57_1_1_quaternion.html" target="_top" xlink:title="Represents a rigid body rotation.">
<polygon fill="white" stroke="#666666" points="256.5,-388 170.5,-388 170.5,-369 256.5,-369 256.5,-388"/>
<text text-anchor="middle" x="213.5" y="-376" font-family="Helvetica,sans-Serif" font-size="10.00">e57::Quaternion</text>
</a>
</g>
</g>
<!-- Node5&#45;&gt;Node4 -->
<g id="edge4" class="edge">
<title>Node5&#45;&gt;Node4</title>
<path fill="none" stroke="#9a32cd" stroke-dasharray="5,2" d="M266.79,-373.12C304.67,-369.04 357.08,-363.04 403,-356.5 414.32,-354.89 426.43,-352.97 437.94,-351.06"/>
<polygon fill="#9a32cd" stroke="#9a32cd" points="266.08,-369.67 256.5,-374.22 266.82,-376.63 266.08,-369.67"/>
<text text-anchor="middle" x="344" y="-373.5" font-family="Helvetica,sans-Serif" font-size="10.00"> rotation</text>
</g>
<!-- Node6 -->
<g id="node6" class="node">
<title>Node6</title>
<g id="a_node6"><a xlink:href="../../d6/dad/structe57_1_1_translation.html" target="_top" xlink:title="Defines a rigid body translation in Cartesian coordinates.">
<polygon fill="white" stroke="#666666" points="256.5,-351 170.5,-351 170.5,-332 256.5,-332 256.5,-351"/>
<text text-anchor="middle" x="213.5" y="-339" font-family="Helvetica,sans-Serif" font-size="10.00">e57::Translation</text>
</a>
</g>
</g>
<!-- Node6&#45;&gt;Node4 -->
<g id="edge5" class="edge">
<title>Node6&#45;&gt;Node4</title>
<path fill="none" stroke="#9a32cd" stroke-dasharray="5,2" d="M266.7,-341.5C312.69,-341.5 379.8,-341.5 428.81,-341.5"/>
<polygon fill="#9a32cd" stroke="#9a32cd" points="266.65,-338 256.65,-341.5 266.65,-345 266.65,-338"/>
<text text-anchor="middle" x="344" y="-344.5" font-family="Helvetica,sans-Serif" font-size="10.00"> translation</text>
</g>
<!-- Node7 -->
<g id="node7" class="node">
<title>Node7</title>
<g id="a_node7"><a xlink:href="../../d7/d4c/structe57_1_1_index_bounds.html" target="_top" xlink:title="Stores the minimum and maximum of rowIndex, columnIndex, and returnIndex fields for a set of points.">
<polygon fill="white" stroke="#666666" points="391.5,-246 296.5,-246 296.5,-227 391.5,-227 391.5,-246"/>
<text text-anchor="middle" x="344" y="-234" font-family="Helvetica,sans-Serif" font-size="10.00">e57::IndexBounds</text>
</a>
</g>
</g>
<!-- Node7&#45;&gt;Node1 -->
<g id="edge6" class="edge">
<title>Node7&#45;&gt;Node1</title>
<path fill="none" stroke="#9a32cd" stroke-dasharray="5,2" d="M401.75,-237.33C408.24,-237.4 414.77,-237.46 421,-237.5 539.78,-238.28 573.73,-257.95 688,-225.5 701.21,-221.75 715.11,-214.8 725.36,-209.03"/>
<polygon fill="#9a32cd" stroke="#9a32cd" points="401.66,-233.83 391.62,-237.21 401.58,-240.83 401.66,-233.83"/>
<text text-anchor="middle" x="493" y="-246.5" font-family="Helvetica,sans-Serif" font-size="10.00"> indexBounds</text>
</g>
<!-- Node8 -->
<g id="node8" class="node">
<title>Node8</title>
<g id="a_node8"><a xlink:title=" ">
<polygon fill="white" stroke="#666666" points="46,-232 0,-232 0,-213 46,-213 46,-232"/>
<text text-anchor="middle" x="23" y="-220" font-family="Helvetica,sans-Serif" font-size="10.00">int64_t</text>
</a>
</g>
</g>
<!-- Node8&#45;&gt;Node1 -->
<g id="edge18" class="edge">
<title>Node8&#45;&gt;Node1</title>
<path fill="none" stroke="#9a32cd" stroke-dasharray="5,2" d="M29.86,-242.45C35.7,-258.33 46.39,-279.5 64,-289.5 94.15,-306.61 107.36,-290.77 142,-289.5 330.38,-282.61 377.06,-273.03 565,-258.5 619.68,-254.27 637.78,-270.55 688,-248.5 707.74,-239.84 724.88,-220.69 734,-209.07"/>
<polygon fill="#9a32cd" stroke="#9a32cd" points="33.03,-240.89 26.57,-232.5 26.39,-243.09 33.03,-240.89"/>
<text text-anchor="middle" x="344" y="-284.5" font-family="Helvetica,sans-Serif" font-size="10.00"> pointsSize</text>
</g>
<!-- Node8&#45;&gt;Node7 -->
<g id="edge7" class="edge">
<title>Node8&#45;&gt;Node7</title>
<path fill="none" stroke="#9a32cd" stroke-dasharray="5,2" d="M56.39,-222.29C80.1,-222.25 113.06,-222.44 142,-223.5 194.94,-225.43 255.62,-229.63 296.33,-232.74"/>
<polygon fill="#9a32cd" stroke="#9a32cd" points="56.18,-218.79 46.19,-222.32 56.2,-225.79 56.18,-218.79"/>
<text text-anchor="middle" x="103" y="-281.5" font-family="Helvetica,sans-Serif" font-size="10.00"> columnMaximum</text>
<text text-anchor="middle" x="103" y="-270.5" font-family="Helvetica,sans-Serif" font-size="10.00">columnMinimum</text>
<text text-anchor="middle" x="103" y="-259.5" font-family="Helvetica,sans-Serif" font-size="10.00">returnMaximum</text>
<text text-anchor="middle" x="103" y="-248.5" font-family="Helvetica,sans-Serif" font-size="10.00">returnMinimum</text>
<text text-anchor="middle" x="103" y="-237.5" font-family="Helvetica,sans-Serif" font-size="10.00">rowMaximum</text>
<text text-anchor="middle" x="103" y="-226.5" font-family="Helvetica,sans-Serif" font-size="10.00">rowMinimum</text>
</g>
<!-- Node14 -->
<g id="node14" class="node">
<title>Node14</title>
<g id="a_node14"><a xlink:href="../../df/dfe/structe57_1_1_grouping_by_line.html" target="_top" xlink:title="Stores a set of point groups organized by the rowIndex or columnIndex attribute of the PointRecord.">
<polygon fill="white" stroke="#666666" points="267,-191 160,-191 160,-172 267,-172 267,-191"/>
<text text-anchor="middle" x="213.5" y="-179" font-family="Helvetica,sans-Serif" font-size="10.00">e57::GroupingByLine</text>
</a>
</g>
</g>
<!-- Node8&#45;&gt;Node14 -->
<g id="edge14" class="edge">
<title>Node8&#45;&gt;Node14</title>
<path fill="none" stroke="#9a32cd" stroke-dasharray="5,2" d="M35.05,-204.35C42.02,-194.73 51.98,-183.82 64,-178.5 98.67,-163.16 142.48,-166.43 173.51,-171.99"/>
<polygon fill="#9a32cd" stroke="#9a32cd" points="31.94,-202.7 29.31,-212.96 37.77,-206.59 31.94,-202.7"/>
<text text-anchor="middle" x="103" y="-192.5" font-family="Helvetica,sans-Serif" font-size="10.00"> groupsSize</text>
<text text-anchor="middle" x="103" y="-181.5" font-family="Helvetica,sans-Serif" font-size="10.00">pointCountSize</text>
</g>
<!-- Node9 -->
<g id="node9" class="node">
<title>Node9</title>
<g id="a_node9"><a xlink:href="../../d7/d34/structe57_1_1_cartesian_bounds.html" target="_top" xlink:title="Specifies an axis&#45;aligned box in local cartesian coordinates.">
<polygon fill="white" stroke="#666666" points="549.5,-191 436.5,-191 436.5,-172 549.5,-172 549.5,-191"/>
<text text-anchor="middle" x="493" y="-179" font-family="Helvetica,sans-Serif" font-size="10.00">e57::CartesianBounds</text>
</a>
</g>
</g>
<!-- Node9&#45;&gt;Node1 -->
<g id="edge8" class="edge">
<title>Node9&#45;&gt;Node1</title>
<path fill="none" stroke="#9a32cd" stroke-dasharray="5,2" d="M560.25,-178.28C597.9,-177.51 645.81,-178.31 688,-184.5 696.04,-185.68 704.59,-187.73 712.41,-189.94"/>
<polygon fill="#9a32cd" stroke="#9a32cd" points="559.83,-174.79 549.92,-178.54 560,-181.79 559.83,-174.79"/>
<text text-anchor="middle" x="635.5" y="-187.5" font-family="Helvetica,sans-Serif" font-size="10.00"> cartesianBounds</text>
</g>
<!-- Node10 -->
<g id="node10" class="node">
<title>Node10</title>
<g id="a_node10"><a xlink:href="../../d2/d00/structe57_1_1_spherical_bounds.html" target="_top" xlink:title="Stores the bounds of some data in spherical coordinates.">
<polygon fill="white" stroke="#666666" points="549,-154 437,-154 437,-135 549,-135 549,-154"/>
<text text-anchor="middle" x="493" y="-142" font-family="Helvetica,sans-Serif" font-size="10.00">e57::SphericalBounds</text>
</a>
</g>
</g>
<!-- Node10&#45;&gt;Node1 -->
<g id="edge9" class="edge">
<title>Node10&#45;&gt;Node1</title>
<path fill="none" stroke="#9a32cd" stroke-dasharray="5,2" d="M559.22,-142.31C597.76,-143.01 646.89,-147.45 688,-162.5 704.44,-168.52 720.52,-180.94 730.58,-189.73"/>
<polygon fill="#9a32cd" stroke="#9a32cd" points="559.2,-138.81 549.16,-142.21 559.12,-145.81 559.2,-138.81"/>
<text text-anchor="middle" x="635.5" y="-165.5" font-family="Helvetica,sans-Serif" font-size="10.00"> sphericalBounds</text>
</g>
<!-- Node11 -->
<g id="node11" class="node">
<title>Node11</title>
<g id="a_node11"><a xlink:href="../../db/df2/structe57_1_1_intensity_limits.html" target="_top" xlink:title="Specifies the limits for the value of signal intensity that a sensor is capable of producing.">
<polygon fill="white" stroke="#666666" points="544,-117 442,-117 442,-98 544,-98 544,-117"/>
<text text-anchor="middle" x="493" y="-105" font-family="Helvetica,sans-Serif" font-size="10.00">e57::IntensityLimits</text>
</a>
</g>
</g>
<!-- Node11&#45;&gt;Node1 -->
<g id="edge10" class="edge">
<title>Node11&#45;&gt;Node1</title>
<path fill="none" stroke="#9a32cd" stroke-dasharray="5,2" d="M554.62,-101.52C594.95,-100.36 647.71,-104.46 688,-127.5 713.2,-141.91 729.86,-173.69 737.02,-189.77"/>
<polygon fill="#9a32cd" stroke="#9a32cd" points="554.24,-98.03 544.39,-101.94 554.52,-105.03 554.24,-98.03"/>
<text text-anchor="middle" x="635.5" y="-130.5" font-family="Helvetica,sans-Serif" font-size="10.00"> intensityLimits</text>
</g>
<!-- Node12 -->
<g id="node12" class="node">
<title>Node12</title>
<g id="a_node12"><a xlink:href="../../dc/dc8/structe57_1_1_color_limits.html" target="_top" xlink:title="Specifies the limits for the value of red, green, and blue color that a sensor is capable of producin...">
<polygon fill="white" stroke="#666666" points="537,-80 449,-80 449,-61 537,-61 537,-80"/>
<text text-anchor="middle" x="493" y="-68" font-family="Helvetica,sans-Serif" font-size="10.00">e57::ColorLimits</text>
</a>
</g>
</g>
<!-- Node12&#45;&gt;Node1 -->
<g id="edge11" class="edge">
<title>Node12&#45;&gt;Node1</title>
<path fill="none" stroke="#9a32cd" stroke-dasharray="5,2" d="M547.07,-61.34C589.02,-57.08 647.11,-58.08 688,-86.5 723.95,-111.48 736.16,-167.39 739.72,-189.87"/>
<polygon fill="#9a32cd" stroke="#9a32cd" points="546.58,-57.88 537.05,-62.49 547.38,-64.83 546.58,-57.88"/>
<text text-anchor="middle" x="635.5" y="-89.5" font-family="Helvetica,sans-Serif" font-size="10.00"> colorLimits</text>
</g>
<!-- Node13 -->
<g id="node13" class="node">
<title>Node13</title>
<g id="a_node13"><a xlink:href="../../dd/d87/structe57_1_1_point_grouping_schemes.html" target="_top" xlink:title="Supports the division of points within an Data3D into logical groupings.">
<polygon fill="white" stroke="#666666" points="563.5,-228 422.5,-228 422.5,-209 563.5,-209 563.5,-228"/>
<text text-anchor="middle" x="493" y="-216" font-family="Helvetica,sans-Serif" font-size="10.00">e57::PointGroupingSchemes</text>
</a>
</g>
</g>
<!-- Node13&#45;&gt;Node1 -->
<g id="edge12" class="edge">
<title>Node13&#45;&gt;Node1</title>
<path fill="none" stroke="#9a32cd" stroke-dasharray="5,2" d="M574.02,-212.34C618.55,-208.92 671.72,-204.83 705.9,-202.2"/>
<polygon fill="#9a32cd" stroke="#9a32cd" points="573.49,-208.87 563.79,-213.13 574.03,-215.85 573.49,-208.87"/>
<text text-anchor="middle" x="635.5" y="-213.5" font-family="Helvetica,sans-Serif" font-size="10.00"> pointGroupingSchemes</text>
</g>
<!-- Node14&#45;&gt;Node13 -->
<g id="edge13" class="edge">
<title>Node14&#45;&gt;Node13</title>
<path fill="none" stroke="#9a32cd" stroke-dasharray="5,2" d="M277.12,-189.85C320.31,-195.61 377.76,-203.27 422.38,-209.22"/>
<polygon fill="#9a32cd" stroke="#9a32cd" points="277.4,-186.36 267.02,-188.5 276.47,-193.29 277.4,-186.36"/>
<text text-anchor="middle" x="344" y="-209.5" font-family="Helvetica,sans-Serif" font-size="10.00"> groupingByLine</text>
</g>
<!-- Node15 -->
<g id="node15" class="node">
<title>Node15</title>
<g id="a_node15"><a xlink:href="../../dc/d25/structe57_1_1_point_standardized_fields_available.html" target="_top" xlink:title="Used to interrogate if standardized fields are available.">
<polygon fill="white" stroke="#666666" points="565,-42.5 421,-42.5 421,-12.5 565,-12.5 565,-42.5"/>
<text text-anchor="start" x="429" y="-30.5" font-family="Helvetica,sans-Serif" font-size="10.00">e57::PointStandardizedFields</text>
<text text-anchor="middle" x="493" y="-19.5" font-family="Helvetica,sans-Serif" font-size="10.00">Available</text>
</a>
</g>
</g>
<!-- Node15&#45;&gt;Node1 -->
<g id="edge15" class="edge">
<title>Node15&#45;&gt;Node1</title>
<path fill="none" stroke="#9a32cd" stroke-dasharray="5,2" d="M575.42,-15.03C613.26,-13.69 656.7,-19.07 688,-43.5 735.35,-80.46 740.68,-161.76 741.07,-189.78"/>
<polygon fill="#9a32cd" stroke="#9a32cd" points="575.23,-11.53 565.43,-15.54 575.59,-18.52 575.23,-11.53"/>
<text text-anchor="middle" x="635.5" y="-46.5" font-family="Helvetica,sans-Serif" font-size="10.00"> pointFields</text>
</g>
<!-- Node16 -->
<g id="node16" class="node">
<title>Node16</title>
<g id="a_node16"><a xlink:title=" ">
<polygon fill="white" stroke="#666666" points="239,-56 188,-56 188,-37 239,-37 239,-56"/>
<text text-anchor="middle" x="213.5" y="-44" font-family="Helvetica,sans-Serif" font-size="10.00">uint32_t</text>
</a>
</g>
</g>
<!-- Node16&#45;&gt;Node15 -->
<g id="edge16" class="edge">
<title>Node16&#45;&gt;Node15</title>
<path fill="none" stroke="#9a32cd" stroke-dasharray="5,2" d="M249.32,-44.12C292.16,-41.18 365.97,-36.13 420.97,-32.36"/>
<polygon fill="#9a32cd" stroke="#9a32cd" points="248.86,-40.64 239.13,-44.81 249.34,-47.62 248.86,-40.64"/>
<text text-anchor="middle" x="344" y="-55.5" font-family="Helvetica,sans-Serif" font-size="10.00"> columnIndexMaximum</text>
<text text-anchor="middle" x="344" y="-44.5" font-family="Helvetica,sans-Serif" font-size="10.00">rowIndexMaximum</text>
</g>
<!-- Node17 -->
<g id="node17" class="node">
<title>Node17</title>
<g id="a_node17"><a xlink:title=" ">
<polygon fill="white" stroke="#666666" points="236.5,-19 190.5,-19 190.5,0 236.5,0 236.5,-19"/>
<text text-anchor="middle" x="213.5" y="-7" font-family="Helvetica,sans-Serif" font-size="10.00">uint8_t</text>
</a>
</g>
</g>
<!-- Node17&#45;&gt;Node15 -->
<g id="edge17" class="edge">
<title>Node17&#45;&gt;Node15</title>
<path fill="none" stroke="#9a32cd" stroke-dasharray="5,2" d="M246.95,-8.86C284.57,-8.43 348.4,-8.65 403,-13.5 408.76,-14.01 414.72,-14.67 420.7,-15.42"/>
<polygon fill="#9a32cd" stroke="#9a32cd" points="246.56,-5.37 236.61,-9.01 246.66,-12.37 246.56,-5.37"/>
<text text-anchor="middle" x="344" y="-16.5" font-family="Helvetica,sans-Serif" font-size="10.00"> returnMaximum</text>
</g>
</g>
</svg>
        <g id="navigator" transform="translate(0 0)" fill="#404254">
                <rect fill="#f2f5e9" fill-opacity="0.5" stroke="#606060" stroke-width=".5" x="0" y="0" width="60" height="60"/>
                <use id="zoomplus" xlink:href="#zoomPlus" x="17" y="9" onmousedown="handleZoom(evt,'in')"/>
                <use id="zoomminus" xlink:href="#zoomMin" x="42" y="9" onmousedown="handleZoom(evt,'out')"/>
                <use id="reset" xlink:href="#resetDef" x="30" y="36" onmousedown="handleReset()"/>
                <g id="arrowUp" xlink:href="#dirArrow" transform="translate(30 24)" onmousedown="handlePan(0,-1)">
                  <use xlink:href="#rim" fill="#404040">
                        <set attributeName="fill" to="#808080" begin="arrowUp.mouseover" end="arrowUp.mouseout"/>
                  </use>
                  <path fill="none" stroke="white" stroke-width="1.5" d="M0,-3.0v7 M-2.5,-0.5L0,-3.0L2.5,-0.5"/>
                </g>
                <g id="arrowRight" xlink:href="#dirArrow" transform="rotate(90) translate(36 -43)" onmousedown="handlePan(1,0)">
                  <use xlink:href="#rim" fill="#404040">
                        <set attributeName="fill" to="#808080" begin="arrowRight.mouseover" end="arrowRight.mouseout"/>
                  </use>
                  <path fill="none" stroke="white" stroke-width="1.5" d="M0,-3.0v7 M-2.5,-0.5L0,-3.0L2.5,-0.5"/>
                </g>
                <g id="arrowDown" xlink:href="#dirArrow" transform="rotate(180) translate(-30 -48)" onmousedown="handlePan(0,1)">
                  <use xlink:href="#rim" fill="#404040">
                        <set attributeName="fill" to="#808080" begin="arrowDown.mouseover" end="arrowDown.mouseout"/>
                  </use>
                  <path fill="none" stroke="white" stroke-width="1.5" d="M0,-3.0v7 M-2.5,-0.5L0,-3.0L2.5,-0.5"/>
                </g>
                <g id="arrowLeft" xlink:href="#dirArrow" transform="rotate(270) translate(-36 17)" onmousedown="handlePan(-1,0)">
                  <use xlink:href="#rim" fill="#404040">
                        <set attributeName="fill" to="#808080" begin="arrowLeft.mouseover" end="arrowLeft.mouseout"/>
                  </use>
                  <path fill="none" stroke="white" stroke-width="1.5" d="M0,-3.0v7 M-2.5,-0.5L0,-3.0L2.5,-0.5"/>
                </g>
        </g>
        <svg viewBox="0 0 15 15" width="100%" height="30px" preserveAspectRatio="xMaxYMin meet">
         <g id="arrow_out" transform="scale(0.3 0.3)">
          <a xlink:href="structe57_1_1_data3_d__coll__graph_org.svg" target="_base">
           <rect id="button" ry="5" rx="5" y="6" x="6" height="38" width="38"
                fill="#f2f5e9" fill-opacity="0.5" stroke="#606060" stroke-width="1.0"/>
           <path id="arrow"
             d="M 11.500037,31.436501 C 11.940474,20.09759 22.043105,11.32322 32.158766,21.979434 L 37.068811,17.246167 C 37.068811,17.246167 37.088388,32 37.088388,32 L 22.160133,31.978069 C 22.160133,31.978069 26.997745,27.140456 26.997745,27.140456 C 18.528582,18.264221 13.291696,25.230495 11.500037,31.436501 z"
             style="fill:#404040;"/>
          </a>
         </g>
        </svg>
</svg>
