<?xml version="1.0" encoding="UTF-8" standalone="no"?>
<!DOCTYPE svg PUBLIC "-//W3C//DTD SVG 1.1//EN"
 "http://www.w3.org/Graphics/SVG/1.1/DTD/svg11.dtd">
<!-- Generated by graphviz version 2.49.0 (20210828.1703)
 -->
<!-- Title: e57::E57FileHeader Pages: 1 -->
<svg width="196pt" height="128pt"
 viewBox="0.00 0.00 196.00 128.00" xmlns="http://www.w3.org/2000/svg" xmlns:xlink="http://www.w3.org/1999/xlink">
<g id="graph0" class="graph" transform="scale(1 1) rotate(0) translate(4 124)">
<title>e57::E57FileHeader</title>
<polygon fill="white" stroke="transparent" points="-4,4 -4,-124 192,-124 192,4 -4,4"/>
<!-- Node1 -->
<g id="node1" class="node">
<title>Node1</title>
<g id="a_node1"><a xlink:title=" ">
<polygon fill="#bfbfbf" stroke="black" points="15.5,-0.5 15.5,-19.5 120.5,-19.5 120.5,-0.5 15.5,-0.5"/>
<text text-anchor="middle" x="68" y="-7.5" font-family="Helvetica,sans-Serif" font-size="10.00">e57::E57FileHeader</text>
</a>
</g>
</g>
<!-- Node2 -->
<g id="node2" class="node">
<title>Node2</title>
<g id="a_node2"><a xlink:title=" ">
<polygon fill="white" stroke="#bfbfbf" points="0,-100.5 0,-119.5 52,-119.5 52,-100.5 0,-100.5"/>
<text text-anchor="middle" x="26" y="-107.5" font-family="Helvetica,sans-Serif" font-size="10.00">uint32_t</text>
</a>
</g>
</g>
<!-- Node2&#45;&gt;Node1 -->
<g id="edge1" class="edge">
<title>Node2&#45;&gt;Node1</title>
<path fill="none" stroke="#9a32cd" stroke-dasharray="5,2" d="M21.71,-90.36C19.27,-75.29 18.22,-54.02 27,-38 31.42,-29.93 39.41,-23.86 47.17,-19.54"/>
<polygon fill="#9a32cd" stroke="#9a32cd" points="18.34,-91.35 23.71,-100.49 25.21,-90 18.34,-91.35"/>
<text text-anchor="middle" x="58" y="-63" font-family="Helvetica,sans-Serif" font-size="10.00"> majorVersion</text>
<text text-anchor="middle" x="58" y="-52" font-family="Helvetica,sans-Serif" font-size="10.00">minorVersion</text>
</g>
<!-- Node3 -->
<g id="node3" class="node">
<title>Node3</title>
<g id="a_node3"><a xlink:title=" ">
<polygon fill="white" stroke="#bfbfbf" points="85,-100.5 85,-119.5 137,-119.5 137,-100.5 85,-100.5"/>
<text text-anchor="middle" x="111" y="-107.5" font-family="Helvetica,sans-Serif" font-size="10.00">uint64_t</text>
</a>
</g>
</g>
<!-- Node3&#45;&gt;Node1 -->
<g id="edge2" class="edge">
<title>Node3&#45;&gt;Node1</title>
<path fill="none" stroke="#9a32cd" stroke-dasharray="5,2" d="M107.18,-90.38C103.69,-75.63 97.75,-54.78 89,-38 85.59,-31.47 80.56,-24.93 76.28,-19.93"/>
<polygon fill="#9a32cd" stroke="#9a32cd" points="103.79,-91.29 109.36,-100.31 110.63,-89.79 103.79,-91.29"/>
<text text-anchor="middle" x="146" y="-74" font-family="Helvetica,sans-Serif" font-size="10.00"> filePhysicalLength</text>
<text text-anchor="middle" x="146" y="-63" font-family="Helvetica,sans-Serif" font-size="10.00">pageSize</text>
<text text-anchor="middle" x="146" y="-52" font-family="Helvetica,sans-Serif" font-size="10.00">xmlLogicalLength</text>
<text text-anchor="middle" x="146" y="-41" font-family="Helvetica,sans-Serif" font-size="10.00">xmlPhysicalOffset</text>
</g>
</g>
</svg>
