<?xml version="1.0" encoding="UTF-8" standalone="no"?>
<!DOCTYPE svg PUBLIC "-//W3C//DTD SVG 1.1//EN"
 "http://www.w3.org/Graphics/SVG/1.1/DTD/svg11.dtd">
<!-- Generated by graphviz version 7.0.0 (20221023.0053)
 -->
<!-- Title: e57::E57FileHeader Pages: 1 -->
<svg width="194pt" height="126pt"
 viewBox="0.00 0.00 193.50 126.00" xmlns="http://www.w3.org/2000/svg" xmlns:xlink="http://www.w3.org/1999/xlink">
<g id="graph0" class="graph" transform="scale(1 1) rotate(0) translate(4 122)">
<title>e57::E57FileHeader</title>
<!-- Node1 -->
<g id="node1" class="node">
<title>Node1</title>
<g id="a_node1"><a xlink:title=" ">
<polygon fill="#999999" stroke="#666666" points="119,-19 16,-19 16,0 119,0 119,-19"/>
<text text-anchor="middle" x="67.5" y="-7" font-family="Helvetica,sans-Serif" font-size="10.00">e57::E57FileHeader</text>
</a>
</g>
</g>
<!-- Node2 -->
<g id="node2" class="node">
<title>Node2</title>
<g id="a_node2"><a xlink:title=" ">
<polygon fill="white" stroke="#666666" points="51,-118 0,-118 0,-99 51,-99 51,-118"/>
<text text-anchor="middle" x="25.5" y="-106" font-family="Helvetica,sans-Serif" font-size="10.00">uint32_t</text>
</a>
</g>
</g>
<!-- Node2&#45;&gt;Node1 -->
<g id="edge1" class="edge">
<title>Node2&#45;&gt;Node1</title>
<path fill="none" stroke="#9a32cd" stroke-dasharray="5,2" d="M20.99,-87.6C18.71,-72.73 17.98,-52.39 26.5,-37 30.77,-29.29 38.34,-23.47 45.82,-19.28"/>
<polygon fill="#9a32cd" stroke="#9a32cd" points="17.49,-87.94 22.82,-97.1 24.37,-86.62 17.49,-87.94"/>
<text text-anchor="middle" x="57" y="-62" font-family="Helvetica,sans-Serif" font-size="10.00"> majorVersion</text>
<text text-anchor="middle" x="57" y="-51" font-family="Helvetica,sans-Serif" font-size="10.00">minorVersion</text>
</g>
<!-- Node3 -->
<g id="node3" class="node">
<title>Node3</title>
<g id="a_node3"><a xlink:title=" ">
<polygon fill="white" stroke="#666666" points="135,-118 84,-118 84,-99 135,-99 135,-118"/>
<text text-anchor="middle" x="109.5" y="-106" font-family="Helvetica,sans-Serif" font-size="10.00">uint64_t</text>
</a>
</g>
</g>
<!-- Node3&#45;&gt;Node1 -->
<g id="edge2" class="edge">
<title>Node3&#45;&gt;Node1</title>
<path fill="none" stroke="#9a32cd" stroke-dasharray="5,2" d="M105.27,-87.74C101.7,-73.2 95.84,-53.23 87.5,-37 84.23,-30.64 79.44,-24.23 75.36,-19.3"/>
<polygon fill="#9a32cd" stroke="#9a32cd" points="101.84,-88.44 107.48,-97.41 108.66,-86.88 101.84,-88.44"/>
<text text-anchor="middle" x="144" y="-73" font-family="Helvetica,sans-Serif" font-size="10.00"> filePhysicalLength</text>
<text text-anchor="middle" x="144" y="-62" font-family="Helvetica,sans-Serif" font-size="10.00">pageSize</text>
<text text-anchor="middle" x="144" y="-51" font-family="Helvetica,sans-Serif" font-size="10.00">xmlLogicalLength</text>
<text text-anchor="middle" x="144" y="-40" font-family="Helvetica,sans-Serif" font-size="10.00">xmlPhysicalOffset</text>
</g>
</g>
</svg>
