<?xml version="1.0" encoding="UTF-8" standalone="no"?>
<!DOCTYPE svg PUBLIC "-//W3C//DTD SVG 1.1//EN"
 "http://www.w3.org/Graphics/SVG/1.1/DTD/svg11.dtd">
<!-- Generated by graphviz version 7.0.0 (20221023.0053)
 -->
<!-- Title: e57::BitpackFloatDecoder Pages: 1 -->
<svg width="202pt" height="171pt"
 viewBox="0.00 0.00 201.50 171.00" xmlns="http://www.w3.org/2000/svg" xmlns:xlink="http://www.w3.org/1999/xlink">
<g id="graph0" class="graph" transform="scale(1 1) rotate(0) translate(4 167)">
<title>e57::BitpackFloatDecoder</title>
<!-- Node1 -->
<g id="node1" class="node">
<title>Node1</title>
<g id="a_node1"><a xlink:title=" ">
<polygon fill="#999999" stroke="#666666" points="142.5,-19 12.5,-19 12.5,0 142.5,0 142.5,-19"/>
<text text-anchor="middle" x="77.5" y="-7" font-family="Helvetica,sans-Serif" font-size="10.00">e57::BitpackFloatDecoder</text>
</a>
</g>
</g>
<!-- Node2 -->
<g id="node2" class="node">
<title>Node2</title>
<g id="a_node2"><a xlink:href="../../d5/df3/classe57_1_1_bitpack_decoder.html" target="_top" xlink:title=" ">
<polygon fill="white" stroke="#666666" points="131.5,-75 23.5,-75 23.5,-56 131.5,-56 131.5,-75"/>
<text text-anchor="middle" x="77.5" y="-63" font-family="Helvetica,sans-Serif" font-size="10.00">e57::BitpackDecoder</text>
</a>
</g>
</g>
<!-- Node2&#45;&gt;Node1 -->
<g id="edge1" class="edge">
<title>Node2&#45;&gt;Node1</title>
<path fill="none" stroke="#63b8ff" d="M77.5,-44.11C77.5,-35.52 77.5,-25.97 77.5,-19.25"/>
<polygon fill="#63b8ff" stroke="#63b8ff" points="74,-44.07 77.5,-54.07 81,-44.07 74,-44.07"/>
</g>
<!-- Node3 -->
<g id="node3" class="node">
<title>Node3</title>
<g id="a_node3"><a xlink:href="../../d2/d14/classe57_1_1_decoder.html" target="_top" xlink:title=" ">
<polygon fill="white" stroke="#666666" points="75,-163 0,-163 0,-144 75,-144 75,-163"/>
<text text-anchor="middle" x="37.5" y="-151" font-family="Helvetica,sans-Serif" font-size="10.00">e57::Decoder</text>
</a>
</g>
</g>
<!-- Node3&#45;&gt;Node2 -->
<g id="edge2" class="edge">
<title>Node3&#45;&gt;Node2</title>
<path fill="none" stroke="#63b8ff" d="M46.38,-133.4C54.77,-115.36 66.99,-89.09 73.33,-75.46"/>
<polygon fill="#63b8ff" stroke="#63b8ff" points="43.31,-131.7 42.27,-142.25 49.66,-134.66 43.31,-131.7"/>
</g>
<!-- Node4 -->
<g id="node4" class="node">
<title>Node4</title>
<g id="a_node4"><a xlink:title=" ">
<polygon fill="white" stroke="#666666" points="144,-163 93,-163 93,-144 144,-144 144,-163"/>
<text text-anchor="middle" x="118.5" y="-151" font-family="Helvetica,sans-Serif" font-size="10.00">uint64_t</text>
</a>
</g>
</g>
<!-- Node4&#45;&gt;Node2 -->
<g id="edge3" class="edge">
<title>Node4&#45;&gt;Node2</title>
<path fill="none" stroke="#9a32cd" stroke-dasharray="5,2" d="M109.4,-133.4C100.79,-115.36 88.27,-89.09 81.77,-75.46"/>
<polygon fill="#9a32cd" stroke="#9a32cd" points="106.15,-134.73 113.62,-142.25 112.47,-131.72 106.15,-134.73"/>
<text text-anchor="start" x="104.5" y="-118" font-family="Helvetica,sans-Serif" font-size="10.00"> currentRecordIndex</text>
<text text-anchor="middle" x="149" y="-107" font-family="Helvetica,sans-Serif" font-size="10.00">_</text>
<text text-anchor="middle" x="149" y="-96" font-family="Helvetica,sans-Serif" font-size="10.00">maxRecordCount_</text>
</g>
</g>
</svg>
