<?xml version="1.0" encoding="UTF-8" standalone="no"?>
<!DOCTYPE svg PUBLIC "-//W3C//DTD SVG 1.1//EN"
 "http://www.w3.org/Graphics/SVG/1.1/DTD/svg11.dtd">
<!-- Generated by graphviz version 7.0.0 (20221023.0053)
 -->
<!-- Title: e57::BitpackStringEncoder Pages: 1 -->
<svg width="267pt" height="149pt"
 viewBox="0.00 0.00 267.00 149.00" xmlns="http://www.w3.org/2000/svg" xmlns:xlink="http://www.w3.org/1999/xlink">
<g id="graph0" class="graph" transform="scale(1 1) rotate(0) translate(4 145)">
<title>e57::BitpackStringEncoder</title>
<!-- Node1 -->
<g id="node1" class="node">
<title>Node1</title>
<g id="a_node1"><a xlink:title=" ">
<polygon fill="#999999" stroke="#666666" points="190.5,-19 57.5,-19 57.5,0 190.5,0 190.5,-19"/>
<text text-anchor="middle" x="124" y="-7" font-family="Helvetica,sans-Serif" font-size="10.00">e57::BitpackStringEncoder</text>
</a>
</g>
</g>
<!-- Node2 -->
<g id="node2" class="node">
<title>Node2</title>
<g id="a_node2"><a xlink:href="../../d6/d4e/classe57_1_1_bitpack_encoder.html" target="_top" xlink:title=" ">
<polygon fill="white" stroke="#666666" points="123.5,-75 16.5,-75 16.5,-56 123.5,-56 123.5,-75"/>
<text text-anchor="middle" x="70" y="-63" font-family="Helvetica,sans-Serif" font-size="10.00">e57::BitpackEncoder</text>
</a>
</g>
</g>
<!-- Node2&#45;&gt;Node1 -->
<g id="edge1" class="edge">
<title>Node2&#45;&gt;Node1</title>
<path fill="none" stroke="#63b8ff" d="M86.86,-47.64C96.26,-38.24 107.6,-26.9 115.25,-19.25"/>
<polygon fill="#63b8ff" stroke="#63b8ff" points="84.58,-44.97 79.99,-54.51 89.53,-49.92 84.58,-44.97"/>
</g>
<!-- Node3 -->
<g id="node3" class="node">
<title>Node3</title>
<g id="a_node3"><a xlink:href="../../d1/d09/classe57_1_1_encoder.html" target="_top" xlink:title=" ">
<polygon fill="white" stroke="#666666" points="74,-141 0,-141 0,-122 74,-122 74,-141"/>
<text text-anchor="middle" x="37" y="-129" font-family="Helvetica,sans-Serif" font-size="10.00">e57::Encoder</text>
</a>
</g>
</g>
<!-- Node3&#45;&gt;Node2 -->
<g id="edge2" class="edge">
<title>Node3&#45;&gt;Node2</title>
<path fill="none" stroke="#63b8ff" d="M43.13,-111.12C45.3,-105.16 47.97,-98.68 51,-93 54.3,-86.81 58.86,-80.39 62.69,-75.43"/>
<polygon fill="#63b8ff" stroke="#63b8ff" points="39.96,-109.55 40.08,-120.14 46.6,-111.79 39.96,-109.55"/>
</g>
<!-- Node4 -->
<g id="node4" class="node">
<title>Node4</title>
<g id="a_node4"><a xlink:title=" ">
<polygon fill="white" stroke="#666666" points="173.5,-141 122.5,-141 122.5,-122 173.5,-122 173.5,-141"/>
<text text-anchor="middle" x="148" y="-129" font-family="Helvetica,sans-Serif" font-size="10.00">uint64_t</text>
</a>
</g>
</g>
<!-- Node4&#45;&gt;Node1 -->
<g id="edge4" class="edge">
<title>Node4&#45;&gt;Node1</title>
<path fill="none" stroke="#9a32cd" stroke-dasharray="5,2" d="M161.48,-112.37C162.92,-109.68 164.17,-106.85 165,-104 166.38,-99.31 166.12,-97.76 165,-93 158.2,-64.04 139.64,-33.61 129.99,-19.14"/>
<polygon fill="#9a32cd" stroke="#9a32cd" points="158.68,-110.25 156.2,-120.55 164.56,-114.04 158.68,-110.25"/>
<text text-anchor="middle" x="209" y="-63" font-family="Helvetica,sans-Serif" font-size="10.00"> totalBytesProcessed_</text>
</g>
<!-- Node4&#45;&gt;Node2 -->
<g id="edge3" class="edge">
<title>Node4&#45;&gt;Node2</title>
<path fill="none" stroke="#9a32cd" stroke-dasharray="5,2" d="M111.04,-126.86C96.15,-123.38 80.33,-116.72 71,-104 64.99,-95.81 65.93,-83.68 67.59,-75.45"/>
<polygon fill="#9a32cd" stroke="#9a32cd" points="110.15,-130.25 120.62,-128.66 111.44,-123.37 110.15,-130.25"/>
<text text-anchor="middle" x="118" y="-96" font-family="Helvetica,sans-Serif" font-size="10.00"> currentRecordIndex_</text>
</g>
</g>
</svg>
