<?xml version="1.0" encoding="UTF-8" standalone="no"?>
<!DOCTYPE svg PUBLIC "-//W3C//DTD SVG 1.1//EN"
 "http://www.w3.org/Graphics/SVG/1.1/DTD/svg11.dtd">
<!-- Generated by graphviz version 9.0.0 (20230911.1827)
 -->
<!-- Title: E57Version.h Pages: 1 -->
<svg width="136pt" height="83pt"
 viewBox="0.00 0.00 136.00 82.50" xmlns="http://www.w3.org/2000/svg" xmlns:xlink="http://www.w3.org/1999/xlink">
<g id="graph0" class="graph" transform="scale(1 1) rotate(0) translate(4 78.5)">
<title>E57Version.h</title>
<!-- Node1 -->
<g id="node1" class="node">
<title>Node1</title>
<g id="a_node1"><a xlink:title="ASTM &amp; libE57Format version information.">
<polygon fill="#999999" stroke="#666666" points="93.25,-74.5 18.75,-74.5 18.75,-55.25 93.25,-55.25 93.25,-74.5"/>
<text text-anchor="middle" x="56" y="-61" font-family="Helvetica,sans-Serif" font-size="10.00">E57Version.h</text>
</a>
</g>
</g>
<!-- Node2 -->
<g id="node2" class="node">
<title>Node2</title>
<g id="a_node2"><a xlink:title=" ">
<polygon fill="#e0e0e0" stroke="#999999" points="40,-19.25 0,-19.25 0,0 40,0 40,-19.25"/>
<text text-anchor="middle" x="20" y="-5.75" font-family="Helvetica,sans-Serif" font-size="10.00">string</text>
</a>
</g>
</g>
<!-- Node1&#45;&gt;Node2 -->
<g id="edge1" class="edge">
<title>Node1&#45;&gt;Node2</title>
<path fill="none" stroke="#63b8ff" d="M50.06,-55.08C45.29,-48.03 38.44,-37.9 32.48,-29.08"/>
<polygon fill="#63b8ff" stroke="#63b8ff" points="35.42,-27.19 26.92,-20.86 29.62,-31.11 35.42,-27.19"/>
</g>
<!-- Node3 -->
<g id="node3" class="node">
<title>Node3</title>
<g id="a_node3"><a xlink:title=" ">
<polygon fill="#e0e0e0" stroke="#999999" points="128,-19.25 58,-19.25 58,0 128,0 128,-19.25"/>
<text text-anchor="middle" x="93" y="-5.75" font-family="Helvetica,sans-Serif" font-size="10.00">E57Export.h</text>
</a>
</g>
</g>
<!-- Node1&#45;&gt;Node3 -->
<g id="edge2" class="edge">
<title>Node1&#45;&gt;Node3</title>
<path fill="none" stroke="#63b8ff" d="M62.11,-55.08C67.06,-47.96 74.2,-37.68 80.37,-28.8"/>
<polygon fill="#63b8ff" stroke="#63b8ff" points="83.06,-31.06 85.89,-20.85 77.31,-27.07 83.06,-31.06"/>
</g>
</g>
</svg>
