<?xml version="1.0" encoding="UTF-8" standalone="no"?>
<!DOCTYPE svg PUBLIC "-//W3C//DTD SVG 1.1//EN"
 "http://www.w3.org/Graphics/SVG/1.1/DTD/svg11.dtd">
<!-- Generated by graphviz version 7.0.0 (20221023.0053)
 -->
<!-- Title: E57XmlParser.cpp Pages: 1 -->
<svg width="2066pt" height="412pt"
 viewBox="0.00 0.00 2066.00 412.00" xmlns="http://www.w3.org/2000/svg" xmlns:xlink="http://www.w3.org/1999/xlink">
<g id="graph0" class="graph" transform="scale(1 1) rotate(0) translate(4 408)">
<title>E57XmlParser.cpp</title>
<!-- Node1 -->
<g id="node1" class="node">
<title>Node1</title>
<g id="a_node1"><a xlink:title=" ">
<polygon fill="#999999" stroke="#666666" points="872,-404 774,-404 774,-385 872,-385 872,-404"/>
<text text-anchor="middle" x="823" y="-392" font-family="Helvetica,sans-Serif" font-size="10.00">E57XmlParser.cpp</text>
</a>
</g>
</g>
<!-- Node2 -->
<g id="node2" class="node">
<title>Node2</title>
<g id="a_node2"><a xlink:title=" ">
<polygon fill="#e0e0e0" stroke="#999999" points="40,-349 0,-349 0,-330 40,-330 40,-349"/>
<text text-anchor="middle" x="20" y="-337" font-family="Helvetica,sans-Serif" font-size="10.00">limits</text>
</a>
</g>
</g>
<!-- Node1&#45;&gt;Node2 -->
<g id="edge1" class="edge">
<title>Node1&#45;&gt;Node2</title>
<path fill="none" stroke="#63b8ff" d="M773.68,-392.13C629.52,-387.91 209.57,-373.94 51.39,-348.94"/>
<polygon fill="#63b8ff" stroke="#63b8ff" points="52.39,-345.56 41.95,-347.37 51.24,-352.47 52.39,-345.56"/>
</g>
<!-- Node3 -->
<g id="node3" class="node">
<title>Node3</title>
<g id="a_node3"><a xlink:title=" ">
<polygon fill="#e0e0e0" stroke="#999999" points="100,-349 58,-349 58,-330 100,-330 100,-349"/>
<text text-anchor="middle" x="79" y="-337" font-family="Helvetica,sans-Serif" font-size="10.00">locale</text>
</a>
</g>
</g>
<!-- Node1&#45;&gt;Node3 -->
<g id="edge2" class="edge">
<title>Node1&#45;&gt;Node3</title>
<path fill="none" stroke="#63b8ff" d="M773.67,-394.04C658.84,-394.51 364.78,-391.28 111.45,-349.02"/>
<polygon fill="#63b8ff" stroke="#63b8ff" points="112.11,-345.58 101.67,-347.36 110.94,-352.48 112.11,-345.58"/>
</g>
<!-- Node4 -->
<g id="node4" class="node">
<title>Node4</title>
<g id="a_node4"><a xlink:title=" ">
<polygon fill="#e0e0e0" stroke="#999999" points="207,-294 155,-294 155,-275 207,-275 207,-294"/>
<text text-anchor="middle" x="181" y="-282" font-family="Helvetica,sans-Serif" font-size="10.00">sstream</text>
</a>
</g>
</g>
<!-- Node1&#45;&gt;Node4 -->
<g id="edge3" class="edge">
<title>Node1&#45;&gt;Node4</title>
<path fill="none" stroke="#63b8ff" d="M773.71,-393.35C654.19,-392.38 351.89,-386.21 259,-349 233.8,-338.9 210.44,-317.65 195.98,-302.51"/>
<polygon fill="#63b8ff" stroke="#63b8ff" points="198.92,-300.54 189.57,-295.55 193.77,-305.28 198.92,-300.54"/>
</g>
<!-- Node5 -->
<g id="node5" class="node">
<title>Node5</title>
<g id="a_node5"><a xlink:title=" ">
<polygon fill="#e0e0e0" stroke="#999999" points="1521.5,-349 1382.5,-349 1382.5,-330 1521.5,-330 1521.5,-349"/>
<text text-anchor="middle" x="1452" y="-337" font-family="Helvetica,sans-Serif" font-size="10.00">xercesc/sax2/Attributes.hpp</text>
</a>
</g>
</g>
<!-- Node1&#45;&gt;Node5 -->
<g id="edge4" class="edge">
<title>Node1&#45;&gt;Node5</title>
<path fill="none" stroke="#63b8ff" d="M872.25,-389.8C967.87,-382.55 1185.3,-365.7 1368,-349 1369.02,-348.91 1370.05,-348.81 1371.08,-348.72"/>
<polygon fill="#63b8ff" stroke="#63b8ff" points="1371.2,-352.22 1380.83,-347.8 1370.55,-345.25 1371.2,-352.22"/>
</g>
<!-- Node6 -->
<g id="node6" class="node">
<title>Node6</title>
<g id="a_node6"><a xlink:title=" ">
<polygon fill="#e0e0e0" stroke="#999999" points="1720,-349 1540,-349 1540,-330 1720,-330 1720,-349"/>
<text text-anchor="middle" x="1630" y="-337" font-family="Helvetica,sans-Serif" font-size="10.00">xercesc/sax2/XMLReaderFactory.hpp</text>
</a>
</g>
</g>
<!-- Node1&#45;&gt;Node6 -->
<g id="edge5" class="edge">
<title>Node1&#45;&gt;Node6</title>
<path fill="none" stroke="#63b8ff" d="M872.38,-390.79C986.04,-384.46 1275.19,-367.87 1528.37,-349.18"/>
<polygon fill="#63b8ff" stroke="#63b8ff" points="1528.41,-352.69 1538.12,-348.46 1527.89,-345.71 1528.41,-352.69"/>
</g>
<!-- Node7 -->
<g id="node7" class="node">
<title>Node7</title>
<g id="a_node7"><a xlink:title=" ">
<polygon fill="#e0e0e0" stroke="#999999" points="1894,-349 1738,-349 1738,-330 1894,-330 1894,-349"/>
<text text-anchor="middle" x="1816" y="-337" font-family="Helvetica,sans-Serif" font-size="10.00">xercesc/util/BinInputStream.hpp</text>
</a>
</g>
</g>
<!-- Node1&#45;&gt;Node7 -->
<g id="edge6" class="edge">
<title>Node1&#45;&gt;Node7</title>
<path fill="none" stroke="#63b8ff" d="M872.16,-391.92C1006.86,-387.42 1393.5,-373.29 1726.44,-349.15"/>
<polygon fill="#63b8ff" stroke="#63b8ff" points="1726.53,-352.65 1736.25,-348.43 1726.02,-345.67 1726.53,-352.65"/>
</g>
<!-- Node8 -->
<g id="node8" class="node">
<title>Node8</title>
<g id="a_node8"><a xlink:title=" ">
<polygon fill="#e0e0e0" stroke="#999999" points="2058,-349 1912,-349 1912,-330 2058,-330 2058,-349"/>
<text text-anchor="middle" x="1985" y="-337" font-family="Helvetica,sans-Serif" font-size="10.00">xercesc/util/TransService.hpp</text>
</a>
</g>
</g>
<!-- Node1&#45;&gt;Node8 -->
<g id="edge7" class="edge">
<title>Node1&#45;&gt;Node8</title>
<path fill="none" stroke="#63b8ff" d="M872.31,-392.56C1023.96,-389.43 1497.08,-377.95 1900.39,-349.14"/>
<polygon fill="#63b8ff" stroke="#63b8ff" points="1900.47,-352.64 1910.19,-348.43 1899.97,-345.66 1900.47,-352.64"/>
</g>
<!-- Node9 -->
<g id="node9" class="node">
<title>Node9</title>
<g id="a_node9"><a xlink:href="../../d7/d0c/_blob_node_impl_8h.html" target="_top" xlink:title=" ">
<polygon fill="white" stroke="#666666" points="1124,-294 1038,-294 1038,-275 1124,-275 1124,-294"/>
<text text-anchor="middle" x="1081" y="-282" font-family="Helvetica,sans-Serif" font-size="10.00">BlobNodeImpl.h</text>
</a>
</g>
</g>
<!-- Node1&#45;&gt;Node9 -->
<g id="edge8" class="edge">
<title>Node1&#45;&gt;Node9</title>
<path fill="none" stroke="#63b8ff" d="M872.28,-391.74C916,-388.19 980.18,-377.96 1028,-349 1046.19,-337.99 1061.06,-318.47 1070.38,-303.97"/>
<polygon fill="#63b8ff" stroke="#63b8ff" points="1073.15,-306.15 1075.36,-295.79 1067.17,-302.51 1073.15,-306.15"/>
</g>
<!-- Node23 -->
<g id="node23" class="node">
<title>Node23</title>
<g id="a_node23"><a xlink:href="../../dd/d41/_checked_file_8h.html" target="_top" xlink:title=" ">
<polygon fill="white" stroke="#666666" points="348,-349 268,-349 268,-330 348,-330 348,-349"/>
<text text-anchor="middle" x="308" y="-337" font-family="Helvetica,sans-Serif" font-size="10.00">CheckedFile.h</text>
</a>
</g>
</g>
<!-- Node1&#45;&gt;Node23 -->
<g id="edge24" class="edge">
<title>Node1&#45;&gt;Node23</title>
<path fill="none" stroke="#63b8ff" d="M773.62,-388.42C675.9,-378.36 458.76,-356.02 359.41,-345.79"/>
<polygon fill="#63b8ff" stroke="#63b8ff" points="359.99,-342.33 349.69,-344.79 359.28,-349.3 359.99,-342.33"/>
</g>
<!-- Node25 -->
<g id="node25" class="node">
<title>Node25</title>
<g id="a_node25"><a xlink:href="../../da/dbb/_compressed_vector_node_impl_8h.html" target="_top" xlink:title=" ">
<polygon fill="white" stroke="#666666" points="488.5,-294 337.5,-294 337.5,-275 488.5,-275 488.5,-294"/>
<text text-anchor="middle" x="413" y="-282" font-family="Helvetica,sans-Serif" font-size="10.00">CompressedVectorNodeImpl.h</text>
</a>
</g>
</g>
<!-- Node1&#45;&gt;Node25 -->
<g id="edge27" class="edge">
<title>Node1&#45;&gt;Node25</title>
<path fill="none" stroke="#63b8ff" d="M789.1,-384.57C715.44,-365.17 540.76,-319.15 457.99,-297.35"/>
<polygon fill="#63b8ff" stroke="#63b8ff" points="458.97,-293.99 448.4,-294.83 457.18,-300.76 458.97,-293.99"/>
</g>
<!-- Node26 -->
<g id="node26" class="node">
<title>Node26</title>
<g id="a_node26"><a xlink:href="../../da/dee/_e57_xml_parser_8h.html" target="_top" xlink:title=" ">
<polygon fill="white" stroke="#666666" points="1325.5,-349 1238.5,-349 1238.5,-330 1325.5,-330 1325.5,-349"/>
<text text-anchor="middle" x="1282" y="-337" font-family="Helvetica,sans-Serif" font-size="10.00">E57XmlParser.h</text>
</a>
</g>
</g>
<!-- Node1&#45;&gt;Node26 -->
<g id="edge29" class="edge">
<title>Node1&#45;&gt;Node26</title>
<path fill="none" stroke="#63b8ff" d="M872.12,-387.83C958.42,-377.86 1136.63,-357.29 1226.95,-346.86"/>
<polygon fill="#63b8ff" stroke="#63b8ff" points="1227.27,-350.34 1236.8,-345.72 1226.47,-343.39 1227.27,-350.34"/>
</g>
<!-- Node30 -->
<g id="node30" class="node">
<title>Node30</title>
<g id="a_node30"><a xlink:href="../../d4/d15/_float_node_impl_8h.html" target="_top" xlink:title=" ">
<polygon fill="white" stroke="#666666" points="595.5,-294 506.5,-294 506.5,-275 595.5,-275 595.5,-294"/>
<text text-anchor="middle" x="551" y="-282" font-family="Helvetica,sans-Serif" font-size="10.00">FloatNodeImpl.h</text>
</a>
</g>
</g>
<!-- Node1&#45;&gt;Node30 -->
<g id="edge34" class="edge">
<title>Node1&#45;&gt;Node30</title>
<path fill="none" stroke="#63b8ff" d="M800.74,-384.66C752.92,-365.68 640.19,-320.91 584.01,-298.61"/>
<polygon fill="#63b8ff" stroke="#63b8ff" points="585.56,-295.46 574.97,-295.02 582.98,-301.96 585.56,-295.46"/>
</g>
<!-- Node31 -->
<g id="node31" class="node">
<title>Node31</title>
<g id="a_node31"><a xlink:href="../../da/d09/_image_file_impl_8h.html" target="_top" xlink:title=" ">
<polygon fill="white" stroke="#666666" points="1505,-239 1419,-239 1419,-220 1505,-220 1505,-239"/>
<text text-anchor="middle" x="1462" y="-227" font-family="Helvetica,sans-Serif" font-size="10.00">ImageFileImpl.h</text>
</a>
</g>
</g>
<!-- Node1&#45;&gt;Node31 -->
<g id="edge36" class="edge">
<title>Node1&#45;&gt;Node31</title>
<path fill="none" stroke="#63b8ff" d="M872.19,-391.51C982.9,-386.68 1248.69,-372.89 1335,-349 1353.58,-343.86 1355.68,-336 1374,-330 1459,-302.15 1514.69,-362.67 1572,-294 1592.77,-269.12 1553.42,-251.87 1516.15,-241.7"/>
<polygon fill="#63b8ff" stroke="#63b8ff" points="1517.25,-238.37 1506.7,-239.27 1515.51,-245.15 1517.25,-238.37"/>
</g>
<!-- Node32 -->
<g id="node32" class="node">
<title>Node32</title>
<g id="a_node32"><a xlink:href="../../d4/d47/_integer_node_impl_8h.html" target="_top" xlink:title=" ">
<polygon fill="white" stroke="#666666" points="710.5,-294 613.5,-294 613.5,-275 710.5,-275 710.5,-294"/>
<text text-anchor="middle" x="662" y="-282" font-family="Helvetica,sans-Serif" font-size="10.00">IntegerNodeImpl.h</text>
</a>
</g>
</g>
<!-- Node1&#45;&gt;Node32 -->
<g id="edge39" class="edge">
<title>Node1&#45;&gt;Node32</title>
<path fill="none" stroke="#63b8ff" d="M809.82,-384.66C782.35,-366.23 718.65,-323.5 684.53,-300.62"/>
<polygon fill="#63b8ff" stroke="#63b8ff" points="686.87,-297.97 676.61,-295.3 682.97,-303.78 686.87,-297.97"/>
</g>
<!-- Node33 -->
<g id="node33" class="node">
<title>Node33</title>
<g id="a_node33"><a xlink:href="../../d5/dae/_scaled_integer_node_impl_8h.html" target="_top" xlink:title=" ">
<polygon fill="white" stroke="#666666" points="855.5,-294 728.5,-294 728.5,-275 855.5,-275 855.5,-294"/>
<text text-anchor="middle" x="792" y="-282" font-family="Helvetica,sans-Serif" font-size="10.00">ScaledIntegerNodeImpl.h</text>
</a>
</g>
</g>
<!-- Node1&#45;&gt;Node33 -->
<g id="edge41" class="edge">
<title>Node1&#45;&gt;Node33</title>
<path fill="none" stroke="#63b8ff" d="M818.93,-384.81C814.92,-375.96 808.85,-361.77 805,-349 800.66,-334.62 797.31,-317.97 795.1,-305.33"/>
<polygon fill="#63b8ff" stroke="#63b8ff" points="798.6,-305.04 793.52,-295.75 791.69,-306.18 798.6,-305.04"/>
</g>
<!-- Node34 -->
<g id="node34" class="node">
<title>Node34</title>
<g id="a_node34"><a xlink:href="../../db/d42/_string_functions_8h.html" target="_top" xlink:title=" ">
<polygon fill="white" stroke="#666666" points="211.5,-349 118.5,-349 118.5,-330 211.5,-330 211.5,-349"/>
<text text-anchor="middle" x="165" y="-337" font-family="Helvetica,sans-Serif" font-size="10.00">StringFunctions.h</text>
</a>
</g>
</g>
<!-- Node1&#45;&gt;Node34 -->
<g id="edge43" class="edge">
<title>Node1&#45;&gt;Node34</title>
<path fill="none" stroke="#63b8ff" d="M773.76,-390.9C671.52,-385.27 428.82,-370.67 226,-349 225,-348.89 223.99,-348.78 222.98,-348.67"/>
<polygon fill="#63b8ff" stroke="#63b8ff" points="223.77,-345.24 213.42,-347.53 222.94,-352.19 223.77,-345.24"/>
</g>
<!-- Node36 -->
<g id="node36" class="node">
<title>Node36</title>
<g id="a_node36"><a xlink:href="../../d6/d64/_string_node_impl_8h.html" target="_top" xlink:title=" ">
<polygon fill="white" stroke="#666666" points="906,-349 814,-349 814,-330 906,-330 906,-349"/>
<text text-anchor="middle" x="860" y="-337" font-family="Helvetica,sans-Serif" font-size="10.00">StringNodeImpl.h</text>
</a>
</g>
</g>
<!-- Node1&#45;&gt;Node36 -->
<g id="edge48" class="edge">
<title>Node1&#45;&gt;Node36</title>
<path fill="none" stroke="#63b8ff" d="M829.11,-384.75C834.01,-377.73 841.05,-367.64 847.17,-358.87"/>
<polygon fill="#63b8ff" stroke="#63b8ff" points="850.04,-360.89 852.89,-350.68 844.3,-356.88 850.04,-360.89"/>
</g>
<!-- Node37 -->
<g id="node37" class="node">
<title>Node37</title>
<g id="a_node37"><a xlink:href="../../d4/dd8/_vector_node_impl_8h.html" target="_top" xlink:title=" ">
<polygon fill="white" stroke="#666666" points="1019.5,-349 924.5,-349 924.5,-330 1019.5,-330 1019.5,-349"/>
<text text-anchor="middle" x="972" y="-337" font-family="Helvetica,sans-Serif" font-size="10.00">VectorNodeImpl.h</text>
</a>
</g>
</g>
<!-- Node1&#45;&gt;Node37 -->
<g id="edge50" class="edge">
<title>Node1&#45;&gt;Node37</title>
<path fill="none" stroke="#63b8ff" d="M848.28,-384.51C872.5,-375.89 909.3,-362.8 936.47,-353.14"/>
<polygon fill="#63b8ff" stroke="#63b8ff" points="937.42,-356.51 945.67,-349.87 935.08,-349.92 937.42,-356.51"/>
</g>
<!-- Node10 -->
<g id="node10" class="node">
<title>Node10</title>
<g id="a_node10"><a xlink:href="../../df/d7b/_node_impl_8h.html" target="_top" xlink:title=" ">
<polygon fill="white" stroke="#666666" points="760.5,-239 693.5,-239 693.5,-220 760.5,-220 760.5,-239"/>
<text text-anchor="middle" x="727" y="-227" font-family="Helvetica,sans-Serif" font-size="10.00">NodeImpl.h</text>
</a>
</g>
</g>
<!-- Node9&#45;&gt;Node10 -->
<g id="edge9" class="edge">
<title>Node9&#45;&gt;Node10</title>
<path fill="none" stroke="#63b8ff" d="M1037.62,-276.5C1034.37,-275.99 1031.13,-275.48 1028,-275 937.21,-261.01 830.86,-245.49 772,-236.98"/>
<polygon fill="#63b8ff" stroke="#63b8ff" points="772.77,-233.55 762.37,-235.59 771.77,-240.48 772.77,-233.55"/>
</g>
<!-- Node11 -->
<g id="node11" class="node">
<title>Node11</title>
<g id="a_node11"><a xlink:href="../../db/d1f/_common_8h.html" target="_top" xlink:title=" ">
<polygon fill="white" stroke="#666666" points="566.5,-184 501.5,-184 501.5,-165 566.5,-165 566.5,-184"/>
<text text-anchor="middle" x="534" y="-172" font-family="Helvetica,sans-Serif" font-size="10.00">Common.h</text>
</a>
</g>
</g>
<!-- Node10&#45;&gt;Node11 -->
<g id="edge10" class="edge">
<title>Node10&#45;&gt;Node11</title>
<path fill="none" stroke="#63b8ff" d="M694.26,-219.51C662.14,-210.69 612.96,-197.18 577.55,-187.46"/>
<polygon fill="#63b8ff" stroke="#63b8ff" points="578.61,-184.12 568.04,-184.85 576.75,-190.87 578.61,-184.12"/>
</g>
<!-- Node12 -->
<g id="node12" class="node">
<title>Node12</title>
<g id="a_node12"><a xlink:title=" ">
<polygon fill="#e0e0e0" stroke="#999999" points="473,-129 443,-129 443,-110 473,-110 473,-129"/>
<text text-anchor="middle" x="458" y="-117" font-family="Helvetica,sans-Serif" font-size="10.00">set</text>
</a>
</g>
</g>
<!-- Node11&#45;&gt;Node12 -->
<g id="edge11" class="edge">
<title>Node11&#45;&gt;Node12</title>
<path fill="none" stroke="#63b8ff" d="M521.11,-164.51C509.9,-156.7 493.43,-145.21 480.12,-135.93"/>
<polygon fill="#63b8ff" stroke="#63b8ff" points="482.15,-133.07 471.94,-130.22 478.14,-138.81 482.15,-133.07"/>
</g>
<!-- Node13 -->
<g id="node13" class="node">
<title>Node13</title>
<g id="a_node13"><a xlink:title=" ">
<polygon fill="#e0e0e0" stroke="#999999" points="117.5,-19 76.5,-19 76.5,0 117.5,0 117.5,-19"/>
<text text-anchor="middle" x="97" y="-7" font-family="Helvetica,sans-Serif" font-size="10.00">string</text>
</a>
</g>
</g>
<!-- Node11&#45;&gt;Node13 -->
<g id="edge12" class="edge">
<title>Node11&#45;&gt;Node13</title>
<path fill="none" stroke="#63b8ff" d="M509.88,-164.5C435.81,-136.88 211.6,-53.25 128.46,-22.24"/>
<polygon fill="#63b8ff" stroke="#63b8ff" points="129.93,-19.05 119.34,-18.83 127.49,-25.61 129.93,-19.05"/>
</g>
<!-- Node14 -->
<g id="node14" class="node">
<title>Node14</title>
<g id="a_node14"><a xlink:title=" ">
<polygon fill="#e0e0e0" stroke="#999999" points="465,-74 421,-74 421,-55 465,-55 465,-74"/>
<text text-anchor="middle" x="443" y="-62" font-family="Helvetica,sans-Serif" font-size="10.00">vector</text>
</a>
</g>
</g>
<!-- Node11&#45;&gt;Node14 -->
<g id="edge13" class="edge">
<title>Node11&#45;&gt;Node14</title>
<path fill="none" stroke="#63b8ff" d="M527.03,-164.8C517.13,-152.49 498.4,-129.35 482,-110 474.28,-100.89 465.53,-90.88 458.28,-82.66"/>
<polygon fill="#63b8ff" stroke="#63b8ff" points="461.11,-80.58 451.86,-75.42 455.88,-85.23 461.11,-80.58"/>
</g>
<!-- Node15 -->
<g id="node15" class="node">
<title>Node15</title>
<g id="a_node15"><a xlink:href="../../d1/df2/_e57_format_8h.html" target="_top" xlink:title="Header file for the E57 API.">
<polygon fill="white" stroke="#666666" points="602.5,-129 529.5,-129 529.5,-110 602.5,-110 602.5,-129"/>
<text text-anchor="middle" x="566" y="-117" font-family="Helvetica,sans-Serif" font-size="10.00">E57Format.h</text>
</a>
</g>
</g>
<!-- Node11&#45;&gt;Node15 -->
<g id="edge14" class="edge">
<title>Node11&#45;&gt;Node15</title>
<path fill="none" stroke="#63b8ff" d="M539.28,-164.75C543.47,-157.81 549.48,-147.86 554.73,-139.16"/>
<polygon fill="#63b8ff" stroke="#63b8ff" points="557.65,-141.11 559.82,-130.74 551.65,-137.49 557.65,-141.11"/>
</g>
<!-- Node15&#45;&gt;Node14 -->
<g id="edge18" class="edge">
<title>Node15&#45;&gt;Node14</title>
<path fill="none" stroke="#63b8ff" d="M545.13,-109.51C525.58,-101.08 496.1,-88.38 473.83,-78.79"/>
<polygon fill="#63b8ff" stroke="#63b8ff" points="475.52,-75.7 464.95,-74.96 472.75,-82.13 475.52,-75.7"/>
</g>
<!-- Node16 -->
<g id="node16" class="node">
<title>Node16</title>
<g id="a_node16"><a xlink:title=" ">
<polygon fill="#e0e0e0" stroke="#999999" points="524.5,-74 483.5,-74 483.5,-55 524.5,-55 524.5,-74"/>
<text text-anchor="middle" x="504" y="-62" font-family="Helvetica,sans-Serif" font-size="10.00">cfloat</text>
</a>
</g>
</g>
<!-- Node15&#45;&gt;Node16 -->
<g id="edge15" class="edge">
<title>Node15&#45;&gt;Node16</title>
<path fill="none" stroke="#63b8ff" d="M555.48,-109.51C546.61,-101.93 533.69,-90.88 523.01,-81.75"/>
<polygon fill="#63b8ff" stroke="#63b8ff" points="525.39,-79.18 515.51,-75.34 520.84,-84.5 525.39,-79.18"/>
</g>
<!-- Node17 -->
<g id="node17" class="node">
<title>Node17</title>
<g id="a_node17"><a xlink:title=" ">
<polygon fill="#e0e0e0" stroke="#999999" points="589,-74 543,-74 543,-55 589,-55 589,-74"/>
<text text-anchor="middle" x="566" y="-62" font-family="Helvetica,sans-Serif" font-size="10.00">cstdint</text>
</a>
</g>
</g>
<!-- Node15&#45;&gt;Node17 -->
<g id="edge16" class="edge">
<title>Node15&#45;&gt;Node17</title>
<path fill="none" stroke="#63b8ff" d="M566,-109.75C566,-103.27 566,-94.16 566,-85.9"/>
<polygon fill="#63b8ff" stroke="#63b8ff" points="569.5,-85.96 566,-75.96 562.5,-85.96 569.5,-85.96"/>
</g>
<!-- Node18 -->
<g id="node18" class="node">
<title>Node18</title>
<g id="a_node18"><a xlink:title=" ">
<polygon fill="#e0e0e0" stroke="#999999" points="1125,-74 1073,-74 1073,-55 1125,-55 1125,-74"/>
<text text-anchor="middle" x="1099" y="-62" font-family="Helvetica,sans-Serif" font-size="10.00">memory</text>
</a>
</g>
</g>
<!-- Node15&#45;&gt;Node18 -->
<g id="edge17" class="edge">
<title>Node15&#45;&gt;Node18</title>
<path fill="none" stroke="#63b8ff" d="M602.64,-114.86C699.72,-105.2 962.89,-79.03 1061.24,-69.25"/>
<polygon fill="#63b8ff" stroke="#63b8ff" points="1061.55,-72.74 1071.16,-68.27 1060.86,-65.78 1061.55,-72.74"/>
</g>
<!-- Node19 -->
<g id="node19" class="node">
<title>Node19</title>
<g id="a_node19"><a xlink:href="../../d4/d6e/_e57_exception_8h.html" target="_top" xlink:title="Exception handling for E57 API.">
<polygon fill="white" stroke="#666666" points="693,-74 607,-74 607,-55 693,-55 693,-74"/>
<text text-anchor="middle" x="650" y="-62" font-family="Helvetica,sans-Serif" font-size="10.00">E57Exception.h</text>
</a>
</g>
</g>
<!-- Node15&#45;&gt;Node19 -->
<g id="edge19" class="edge">
<title>Node15&#45;&gt;Node19</title>
<path fill="none" stroke="#63b8ff" d="M580.25,-109.51C592.88,-101.54 611.56,-89.75 626.41,-80.38"/>
<polygon fill="#63b8ff" stroke="#63b8ff" points="628.09,-83.46 634.68,-75.17 624.36,-77.54 628.09,-83.46"/>
</g>
<!-- Node19&#45;&gt;Node13 -->
<g id="edge22" class="edge">
<title>Node19&#45;&gt;Node13</title>
<path fill="none" stroke="#63b8ff" d="M606.62,-56.17C603.71,-55.75 600.81,-55.35 598,-55 421.24,-32.73 208,-17.69 128.71,-12.5"/>
<polygon fill="#63b8ff" stroke="#63b8ff" points="129.29,-9.04 119.09,-11.88 128.84,-16.02 129.29,-9.04"/>
</g>
<!-- Node20 -->
<g id="node20" class="node">
<title>Node20</title>
<g id="a_node20"><a xlink:title=" ">
<polygon fill="#e0e0e0" stroke="#999999" points="637.5,-19 578.5,-19 578.5,0 637.5,0 637.5,-19"/>
<text text-anchor="middle" x="608" y="-7" font-family="Helvetica,sans-Serif" font-size="10.00">exception</text>
</a>
</g>
</g>
<!-- Node19&#45;&gt;Node20 -->
<g id="edge20" class="edge">
<title>Node19&#45;&gt;Node20</title>
<path fill="none" stroke="#63b8ff" d="M643.06,-54.75C637.38,-47.58 629.16,-37.2 622.11,-28.3"/>
<polygon fill="#63b8ff" stroke="#63b8ff" points="624.98,-26.29 616.03,-20.63 619.49,-30.64 624.98,-26.29"/>
</g>
<!-- Node21 -->
<g id="node21" class="node">
<title>Node21</title>
<g id="a_node21"><a xlink:title=" ">
<polygon fill="#e0e0e0" stroke="#999999" points="396,-19 342,-19 342,0 396,0 396,-19"/>
<text text-anchor="middle" x="369" y="-7" font-family="Helvetica,sans-Serif" font-size="10.00">iostream</text>
</a>
</g>
</g>
<!-- Node19&#45;&gt;Node21 -->
<g id="edge21" class="edge">
<title>Node19&#45;&gt;Node21</title>
<path fill="none" stroke="#63b8ff" d="M606.71,-55.33C552.18,-45.05 459.33,-27.54 407.28,-17.72"/>
<polygon fill="#63b8ff" stroke="#63b8ff" points="408.16,-14.33 397.69,-15.91 406.87,-21.2 408.16,-14.33"/>
</g>
<!-- Node22 -->
<g id="node22" class="node">
<title>Node22</title>
<g id="a_node22"><a xlink:title=" ">
<polygon fill="#e0e0e0" stroke="#999999" points="726.5,-19 655.5,-19 655.5,0 726.5,0 726.5,-19"/>
<text text-anchor="middle" x="691" y="-7" font-family="Helvetica,sans-Serif" font-size="10.00">E57Export.h</text>
</a>
</g>
</g>
<!-- Node19&#45;&gt;Node22 -->
<g id="edge23" class="edge">
<title>Node19&#45;&gt;Node22</title>
<path fill="none" stroke="#63b8ff" d="M656.77,-54.75C662.32,-47.58 670.34,-37.2 677.23,-28.3"/>
<polygon fill="#63b8ff" stroke="#63b8ff" points="679.81,-30.69 683.16,-20.64 674.27,-26.41 679.81,-30.69"/>
</g>
<!-- Node23&#45;&gt;Node11 -->
<g id="edge26" class="edge">
<title>Node23&#45;&gt;Node11</title>
<path fill="none" stroke="#63b8ff" d="M290.82,-329.67C269.99,-317.77 239.4,-295.69 254,-275 307.92,-198.62 425.81,-180.52 490.08,-176.46"/>
<polygon fill="#63b8ff" stroke="#63b8ff" points="490.12,-179.96 499.92,-175.93 489.75,-172.97 490.12,-179.96"/>
</g>
<!-- Node24 -->
<g id="node24" class="node">
<title>Node24</title>
<g id="a_node24"><a xlink:title=" ">
<polygon fill="#e0e0e0" stroke="#999999" points="319,-294 263,-294 263,-275 319,-275 319,-294"/>
<text text-anchor="middle" x="291" y="-282" font-family="Helvetica,sans-Serif" font-size="10.00">algorithm</text>
</a>
</g>
</g>
<!-- Node23&#45;&gt;Node24 -->
<g id="edge25" class="edge">
<title>Node23&#45;&gt;Node24</title>
<path fill="none" stroke="#63b8ff" d="M305.19,-329.75C303.06,-323.11 300.06,-313.73 297.36,-305.31"/>
<polygon fill="#63b8ff" stroke="#63b8ff" points="300.72,-304.34 294.33,-295.88 294.05,-306.47 300.72,-304.34"/>
</g>
<!-- Node25&#45;&gt;Node10 -->
<g id="edge28" class="edge">
<title>Node25&#45;&gt;Node10</title>
<path fill="none" stroke="#63b8ff" d="M466.27,-274.51C527,-264.26 625.21,-247.68 682.18,-238.07"/>
<polygon fill="#63b8ff" stroke="#63b8ff" points="682.57,-241.55 691.85,-236.43 681.4,-234.65 682.57,-241.55"/>
</g>
<!-- Node26&#45;&gt;Node11 -->
<g id="edge33" class="edge">
<title>Node26&#45;&gt;Node11</title>
<path fill="none" stroke="#63b8ff" d="M1314.46,-329.57C1348.18,-318.74 1393.27,-298.95 1372,-275 1318.73,-215.03 743.36,-184.85 578.13,-177.38"/>
<polygon fill="#63b8ff" stroke="#63b8ff" points="578.61,-173.9 568.47,-176.95 578.3,-180.89 578.61,-173.9"/>
</g>
<!-- Node27 -->
<g id="node27" class="node">
<title>Node27</title>
<g id="a_node27"><a xlink:title=" ">
<polygon fill="#e0e0e0" stroke="#999999" points="1362.5,-294 1321.5,-294 1321.5,-275 1362.5,-275 1362.5,-294"/>
<text text-anchor="middle" x="1342" y="-282" font-family="Helvetica,sans-Serif" font-size="10.00">stack</text>
</a>
</g>
</g>
<!-- Node26&#45;&gt;Node27 -->
<g id="edge30" class="edge">
<title>Node26&#45;&gt;Node27</title>
<path fill="none" stroke="#63b8ff" d="M1292.18,-329.51C1300.76,-321.93 1313.27,-310.88 1323.6,-301.75"/>
<polygon fill="#63b8ff" stroke="#63b8ff" points="1325.66,-304.6 1330.84,-295.36 1321.03,-299.36 1325.66,-304.6"/>
</g>
<!-- Node28 -->
<g id="node28" class="node">
<title>Node28</title>
<g id="a_node28"><a xlink:title=" ">
<polygon fill="#e0e0e0" stroke="#999999" points="1563,-294 1419,-294 1419,-275 1563,-275 1563,-294"/>
<text text-anchor="middle" x="1491" y="-282" font-family="Helvetica,sans-Serif" font-size="10.00">xercesc/sax/InputSource.hpp</text>
</a>
</g>
</g>
<!-- Node26&#45;&gt;Node28 -->
<g id="edge31" class="edge">
<title>Node26&#45;&gt;Node28</title>
<path fill="none" stroke="#63b8ff" d="M1317.45,-329.51C1352.54,-320.61 1406.42,-306.95 1444.83,-297.21"/>
<polygon fill="#63b8ff" stroke="#63b8ff" points="1445.42,-300.67 1454.25,-294.82 1443.7,-293.88 1445.42,-300.67"/>
</g>
<!-- Node29 -->
<g id="node29" class="node">
<title>Node29</title>
<g id="a_node29"><a xlink:title=" ">
<polygon fill="#e0e0e0" stroke="#999999" points="1303.5,-294 1142.5,-294 1142.5,-275 1303.5,-275 1303.5,-294"/>
<text text-anchor="middle" x="1223" y="-282" font-family="Helvetica,sans-Serif" font-size="10.00">xercesc/sax2/DefaultHandler.hpp</text>
</a>
</g>
</g>
<!-- Node26&#45;&gt;Node29 -->
<g id="edge32" class="edge">
<title>Node26&#45;&gt;Node29</title>
<path fill="none" stroke="#63b8ff" d="M1271.99,-329.51C1263.63,-322 1251.5,-311.1 1241.4,-302.03"/>
<polygon fill="#63b8ff" stroke="#63b8ff" points="1243.76,-299.45 1233.99,-295.37 1239.09,-304.66 1243.76,-299.45"/>
</g>
<!-- Node30&#45;&gt;Node10 -->
<g id="edge35" class="edge">
<title>Node30&#45;&gt;Node10</title>
<path fill="none" stroke="#63b8ff" d="M580.86,-274.51C609.89,-265.76 654.22,-252.42 686.44,-242.71"/>
<polygon fill="#63b8ff" stroke="#63b8ff" points="687.28,-246.12 695.84,-239.88 685.26,-239.41 687.28,-246.12"/>
</g>
<!-- Node31&#45;&gt;Node11 -->
<g id="edge38" class="edge">
<title>Node31&#45;&gt;Node11</title>
<path fill="none" stroke="#63b8ff" d="M1418.79,-221.61C1414.15,-221 1409.48,-220.45 1405,-220 1089.05,-188.45 706.27,-178.73 578.16,-176.24"/>
<polygon fill="#63b8ff" stroke="#63b8ff" points="578.49,-172.75 568.43,-176.06 578.36,-179.75 578.49,-172.75"/>
</g>
<!-- Node31&#45;&gt;Node18 -->
<g id="edge37" class="edge">
<title>Node31&#45;&gt;Node18</title>
<path fill="none" stroke="#63b8ff" d="M1441.97,-219.5C1381.6,-192.4 1201.19,-111.39 1129.17,-79.05"/>
<polygon fill="#63b8ff" stroke="#63b8ff" points="1130.91,-75.99 1120.35,-75.09 1128.04,-82.38 1130.91,-75.99"/>
</g>
<!-- Node32&#45;&gt;Node10 -->
<g id="edge40" class="edge">
<title>Node32&#45;&gt;Node10</title>
<path fill="none" stroke="#63b8ff" d="M673.03,-274.51C682.42,-266.85 696.15,-255.66 707.41,-246.47"/>
<polygon fill="#63b8ff" stroke="#63b8ff" points="709.43,-249.35 714.96,-240.31 705,-243.92 709.43,-249.35"/>
</g>
<!-- Node33&#45;&gt;Node10 -->
<g id="edge42" class="edge">
<title>Node33&#45;&gt;Node10</title>
<path fill="none" stroke="#63b8ff" d="M780.97,-274.51C771.58,-266.85 757.85,-255.66 746.59,-246.47"/>
<polygon fill="#63b8ff" stroke="#63b8ff" points="749,-243.92 739.04,-240.31 744.57,-249.35 749,-243.92"/>
</g>
<!-- Node34&#45;&gt;Node4 -->
<g id="edge46" class="edge">
<title>Node34&#45;&gt;Node4</title>
<path fill="none" stroke="#63b8ff" d="M167.64,-329.75C169.64,-323.11 172.48,-313.73 175.02,-305.31"/>
<polygon fill="#63b8ff" stroke="#63b8ff" points="178.32,-306.48 177.86,-295.89 171.62,-304.45 178.32,-306.48"/>
</g>
<!-- Node34&#45;&gt;Node13 -->
<g id="edge47" class="edge">
<title>Node34&#45;&gt;Node13</title>
<path fill="none" stroke="#63b8ff" d="M118.07,-330.77C93.54,-324.56 64.62,-313.5 45,-294 23.6,-272.73 21,-260.67 21,-230.5 21,-230.5 21,-230.5 21,-118.5 21,-80.18 53.39,-45.87 75.88,-26.66"/>
<polygon fill="#63b8ff" stroke="#63b8ff" points="78.09,-29.38 83.62,-20.34 73.66,-23.95 78.09,-29.38"/>
</g>
<!-- Node34&#45;&gt;Node21 -->
<g id="edge45" class="edge">
<title>Node34&#45;&gt;Node21</title>
<path fill="none" stroke="#63b8ff" d="M134.05,-329.56C115.36,-322.67 92.44,-311.34 78,-294 59.15,-271.36 59,-259.96 59,-230.5 59,-230.5 59,-230.5 59,-173.5 59,-52.23 247.15,-20.98 330.29,-13.09"/>
<polygon fill="#63b8ff" stroke="#63b8ff" points="330.6,-16.58 340.25,-12.22 329.99,-9.61 330.6,-16.58"/>
</g>
<!-- Node35 -->
<g id="node35" class="node">
<title>Node35</title>
<g id="a_node35"><a xlink:title=" ">
<polygon fill="#e0e0e0" stroke="#999999" points="137,-294 87,-294 87,-275 137,-275 137,-294"/>
<text text-anchor="middle" x="112" y="-282" font-family="Helvetica,sans-Serif" font-size="10.00">iomanip</text>
</a>
</g>
</g>
<!-- Node34&#45;&gt;Node35 -->
<g id="edge44" class="edge">
<title>Node34&#45;&gt;Node35</title>
<path fill="none" stroke="#63b8ff" d="M156.25,-329.75C148.85,-322.35 138.04,-311.54 128.95,-302.45"/>
<polygon fill="#63b8ff" stroke="#63b8ff" points="131.56,-300.11 122.01,-295.51 126.61,-305.06 131.56,-300.11"/>
</g>
<!-- Node36&#45;&gt;Node10 -->
<g id="edge49" class="edge">
<title>Node36&#45;&gt;Node10</title>
<path fill="none" stroke="#63b8ff" d="M863.77,-329.73C868.81,-316.5 875.82,-291.26 864,-275 843.12,-246.26 803.23,-235.71 771.85,-232.02"/>
<polygon fill="#63b8ff" stroke="#63b8ff" points="772.53,-228.57 762.24,-231.09 771.85,-235.54 772.53,-228.57"/>
</g>
<!-- Node38 -->
<g id="node38" class="node">
<title>Node38</title>
<g id="a_node38"><a xlink:href="../../d4/dd2/_structure_node_impl_8h.html" target="_top" xlink:title=" ">
<polygon fill="white" stroke="#666666" points="1019.5,-294 912.5,-294 912.5,-275 1019.5,-275 1019.5,-294"/>
<text text-anchor="middle" x="966" y="-282" font-family="Helvetica,sans-Serif" font-size="10.00">StructureNodeImpl.h</text>
</a>
</g>
</g>
<!-- Node37&#45;&gt;Node38 -->
<g id="edge51" class="edge">
<title>Node37&#45;&gt;Node38</title>
<path fill="none" stroke="#63b8ff" d="M971.01,-329.75C970.27,-323.19 969.22,-313.95 968.28,-305.6"/>
<polygon fill="#63b8ff" stroke="#63b8ff" points="971.79,-305.49 967.18,-295.95 964.83,-306.28 971.79,-305.49"/>
</g>
<!-- Node38&#45;&gt;Node10 -->
<g id="edge52" class="edge">
<title>Node38&#45;&gt;Node10</title>
<path fill="none" stroke="#63b8ff" d="M925.46,-274.51C882.82,-265.05 815.92,-250.22 771.76,-240.43"/>
<polygon fill="#63b8ff" stroke="#63b8ff" points="772.77,-237.07 762.25,-238.32 771.26,-243.9 772.77,-237.07"/>
</g>
</g>
</svg>
