<?xml version="1.0" encoding="UTF-8" standalone="no"?>
<!DOCTYPE svg PUBLIC "-//W3C//DTD SVG 1.1//EN"
 "http://www.w3.org/Graphics/SVG/1.1/DTD/svg11.dtd">
<!-- Generated by graphviz version 8.1.0 (20230707.0739)
 -->
<!-- Title: E57SimpleData.cpp Pages: 1 -->
<svg width="442pt" height="248pt"
 viewBox="0.00 0.00 442.00 248.25" xmlns="http://www.w3.org/2000/svg" xmlns:xlink="http://www.w3.org/1999/xlink">
<g id="graph0" class="graph" transform="scale(1 1) rotate(0) translate(4 244.25)">
<title>E57SimpleData.cpp</title>
<!-- Node1 -->
<g id="node1" class="node">
<title>Node1</title>
<g id="a_node1"><a xlink:title=" ">
<polygon fill="#999999" stroke="#666666" points="246.5,-240.25 143.5,-240.25 143.5,-221 246.5,-221 246.5,-240.25"/>
<text text-anchor="middle" x="195" y="-226.75" font-family="Helvetica,sans-Serif" font-size="10.00">E57SimpleData.cpp</text>
</a>
</g>
</g>
<!-- Node2 -->
<g id="node2" class="node">
<title>Node2</title>
<g id="a_node2"><a xlink:title=" ">
<polygon fill="#e0e0e0" stroke="#999999" points="82.5,-185 39.5,-185 39.5,-165.75 82.5,-165.75 82.5,-185"/>
<text text-anchor="middle" x="61" y="-171.5" font-family="Helvetica,sans-Serif" font-size="10.00">cmath</text>
</a>
</g>
</g>
<!-- Node1&#45;&gt;Node2 -->
<g id="edge1" class="edge">
<title>Node1&#45;&gt;Node2</title>
<path fill="none" stroke="#63b8ff" d="M172.27,-220.59C150.54,-211.96 117.58,-198.86 93.16,-189.16"/>
<polygon fill="#63b8ff" stroke="#63b8ff" points="94.54,-185.54 83.95,-185.1 91.95,-192.04 94.54,-185.54"/>
</g>
<!-- Node3 -->
<g id="node3" class="node">
<title>Node3</title>
<g id="a_node3"><a xlink:href="../../d3/d5e/_e57_simple_data_8h.html" target="_top" xlink:title="Data structures for E57 Simple API.">
<polygon fill="white" stroke="#666666" points="193.25,-185 100.75,-185 100.75,-165.75 193.25,-165.75 193.25,-185"/>
<text text-anchor="middle" x="147" y="-171.5" font-family="Helvetica,sans-Serif" font-size="10.00">E57SimpleData.h</text>
</a>
</g>
</g>
<!-- Node1&#45;&gt;Node3 -->
<g id="edge2" class="edge">
<title>Node1&#45;&gt;Node3</title>
<path fill="none" stroke="#63b8ff" d="M187.07,-220.83C180.37,-213.4 170.58,-202.54 162.36,-193.41"/>
<polygon fill="#63b8ff" stroke="#63b8ff" points="165.39,-191.44 156.1,-186.36 160.19,-196.13 165.39,-191.44"/>
</g>
<!-- Node14 -->
<g id="node14" class="node">
<title>Node14</title>
<g id="a_node14"><a xlink:title=" ">
<polygon fill="#e0e0e0" stroke="#999999" points="275,-185 211,-185 211,-165.75 275,-165.75 275,-185"/>
<text text-anchor="middle" x="243" y="-171.5" font-family="Helvetica,sans-Serif" font-size="10.00">Common.h</text>
</a>
</g>
</g>
<!-- Node1&#45;&gt;Node14 -->
<g id="edge13" class="edge">
<title>Node1&#45;&gt;Node14</title>
<path fill="none" stroke="#63b8ff" d="M202.93,-220.83C209.63,-213.4 219.42,-202.54 227.64,-193.41"/>
<polygon fill="#63b8ff" stroke="#63b8ff" points="229.81,-196.13 233.9,-186.36 224.61,-191.44 229.81,-196.13"/>
</g>
<!-- Node15 -->
<g id="node15" class="node">
<title>Node15</title>
<g id="a_node15"><a xlink:title=" ">
<polygon fill="#e0e0e0" stroke="#999999" points="385.25,-185 292.75,-185 292.75,-165.75 385.25,-165.75 385.25,-185"/>
<text text-anchor="middle" x="339" y="-171.5" font-family="Helvetica,sans-Serif" font-size="10.00">StringFunctions.h</text>
</a>
</g>
</g>
<!-- Node1&#45;&gt;Node15 -->
<g id="edge14" class="edge">
<title>Node1&#45;&gt;Node15</title>
<path fill="none" stroke="#63b8ff" d="M219.43,-220.59C242.7,-211.99 277.98,-198.94 304.19,-189.25"/>
<polygon fill="#63b8ff" stroke="#63b8ff" points="305.29,-192.2 313.45,-185.45 302.86,-185.64 305.29,-192.2"/>
</g>
<!-- Node4 -->
<g id="node4" class="node">
<title>Node4</title>
<g id="a_node4"><a xlink:href="../../d1/df2/_e57_format_8h.html" target="_top" xlink:title="Header file for the E57 API.">
<polygon fill="white" stroke="#666666" points="183.12,-129.75 110.88,-129.75 110.88,-110.5 183.12,-110.5 183.12,-129.75"/>
<text text-anchor="middle" x="147" y="-116.25" font-family="Helvetica,sans-Serif" font-size="10.00">E57Format.h</text>
</a>
</g>
</g>
<!-- Node3&#45;&gt;Node4 -->
<g id="edge3" class="edge">
<title>Node3&#45;&gt;Node4</title>
<path fill="none" stroke="#63b8ff" d="M147,-165.58C147,-158.92 147,-149.49 147,-141.03"/>
<polygon fill="#63b8ff" stroke="#63b8ff" points="150.5,-141.11 147,-131.11 143.5,-141.11 150.5,-141.11"/>
</g>
<!-- Node5 -->
<g id="node5" class="node">
<title>Node5</title>
<g id="a_node5"><a xlink:title=" ">
<polygon fill="#e0e0e0" stroke="#999999" points="40,-74.5 0,-74.5 0,-55.25 40,-55.25 40,-74.5"/>
<text text-anchor="middle" x="20" y="-61" font-family="Helvetica,sans-Serif" font-size="10.00">cfloat</text>
</a>
</g>
</g>
<!-- Node4&#45;&gt;Node5 -->
<g id="edge4" class="edge">
<title>Node4&#45;&gt;Node5</title>
<path fill="none" stroke="#63b8ff" d="M125.46,-110.09C104.84,-101.45 73.53,-88.32 50.38,-78.61"/>
<polygon fill="#63b8ff" stroke="#63b8ff" points="51.96,-75.06 41.39,-74.42 49.26,-81.52 51.96,-75.06"/>
</g>
<!-- Node6 -->
<g id="node6" class="node">
<title>Node6</title>
<g id="a_node6"><a xlink:title=" ">
<polygon fill="#e0e0e0" stroke="#999999" points="103.62,-74.5 58.38,-74.5 58.38,-55.25 103.62,-55.25 103.62,-74.5"/>
<text text-anchor="middle" x="81" y="-61" font-family="Helvetica,sans-Serif" font-size="10.00">cstdint</text>
</a>
</g>
</g>
<!-- Node4&#45;&gt;Node6 -->
<g id="edge5" class="edge">
<title>Node4&#45;&gt;Node6</title>
<path fill="none" stroke="#63b8ff" d="M135.8,-110.09C126.17,-102.32 112.05,-90.92 100.55,-81.65"/>
<polygon fill="#63b8ff" stroke="#63b8ff" points="103.01,-78.33 93.03,-74.77 98.62,-83.78 103.01,-78.33"/>
</g>
<!-- Node7 -->
<g id="node7" class="node">
<title>Node7</title>
<g id="a_node7"><a xlink:title=" ">
<polygon fill="#e0e0e0" stroke="#999999" points="172.62,-74.5 121.38,-74.5 121.38,-55.25 172.62,-55.25 172.62,-74.5"/>
<text text-anchor="middle" x="147" y="-61" font-family="Helvetica,sans-Serif" font-size="10.00">memory</text>
</a>
</g>
</g>
<!-- Node4&#45;&gt;Node7 -->
<g id="edge6" class="edge">
<title>Node4&#45;&gt;Node7</title>
<path fill="none" stroke="#63b8ff" d="M147,-110.33C147,-103.67 147,-94.24 147,-85.78"/>
<polygon fill="#63b8ff" stroke="#63b8ff" points="150.5,-85.86 147,-75.86 143.5,-85.86 150.5,-85.86"/>
</g>
<!-- Node8 -->
<g id="node8" class="node">
<title>Node8</title>
<g id="a_node8"><a xlink:title=" ">
<polygon fill="#e0e0e0" stroke="#999999" points="233.5,-74.5 190.5,-74.5 190.5,-55.25 233.5,-55.25 233.5,-74.5"/>
<text text-anchor="middle" x="212" y="-61" font-family="Helvetica,sans-Serif" font-size="10.00">vector</text>
</a>
</g>
</g>
<!-- Node4&#45;&gt;Node8 -->
<g id="edge7" class="edge">
<title>Node4&#45;&gt;Node8</title>
<path fill="none" stroke="#63b8ff" d="M158.03,-110.09C167.51,-102.32 181.42,-90.92 192.75,-81.65"/>
<polygon fill="#63b8ff" stroke="#63b8ff" points="194.62,-83.82 200.14,-74.77 190.18,-78.4 194.62,-83.82"/>
</g>
<!-- Node9 -->
<g id="node9" class="node">
<title>Node9</title>
<g id="a_node9"><a xlink:href="../../d4/d6e/_e57_exception_8h.html" target="_top" xlink:title="Exception handling for E57 API.">
<polygon fill="white" stroke="#666666" points="336.5,-74.5 251.5,-74.5 251.5,-55.25 336.5,-55.25 336.5,-74.5"/>
<text text-anchor="middle" x="294" y="-61" font-family="Helvetica,sans-Serif" font-size="10.00">E57Exception.h</text>
</a>
</g>
</g>
<!-- Node4&#45;&gt;Node9 -->
<g id="edge8" class="edge">
<title>Node4&#45;&gt;Node9</title>
<path fill="none" stroke="#63b8ff" d="M171.94,-110.09C195.8,-101.45 232.03,-88.32 258.82,-78.62"/>
<polygon fill="#63b8ff" stroke="#63b8ff" points="259.73,-81.65 267.94,-74.95 257.35,-75.07 259.73,-81.65"/>
</g>
<!-- Node10 -->
<g id="node10" class="node">
<title>Node10</title>
<g id="a_node10"><a xlink:title=" ">
<polygon fill="#e0e0e0" stroke="#999999" points="216,-19.25 158,-19.25 158,0 216,0 216,-19.25"/>
<text text-anchor="middle" x="187" y="-5.75" font-family="Helvetica,sans-Serif" font-size="10.00">exception</text>
</a>
</g>
</g>
<!-- Node9&#45;&gt;Node10 -->
<g id="edge9" class="edge">
<title>Node9&#45;&gt;Node10</title>
<path fill="none" stroke="#63b8ff" d="M275.85,-54.84C259.17,-46.54 234.2,-34.11 214.97,-24.54"/>
<polygon fill="#63b8ff" stroke="#63b8ff" points="216.75,-21.02 206.24,-19.7 213.63,-27.29 216.75,-21.02"/>
</g>
<!-- Node11 -->
<g id="node11" class="node">
<title>Node11</title>
<g id="a_node11"><a xlink:title=" ">
<polygon fill="#e0e0e0" stroke="#999999" points="287.75,-19.25 234.25,-19.25 234.25,0 287.75,0 287.75,-19.25"/>
<text text-anchor="middle" x="261" y="-5.75" font-family="Helvetica,sans-Serif" font-size="10.00">iostream</text>
</a>
</g>
</g>
<!-- Node9&#45;&gt;Node11 -->
<g id="edge10" class="edge">
<title>Node9&#45;&gt;Node11</title>
<path fill="none" stroke="#63b8ff" d="M288.55,-55.08C284.13,-47.96 277.76,-37.68 272.26,-28.8"/>
<polygon fill="#63b8ff" stroke="#63b8ff" points="274.81,-27.27 266.57,-20.61 268.86,-30.95 274.81,-27.27"/>
</g>
<!-- Node12 -->
<g id="node12" class="node">
<title>Node12</title>
<g id="a_node12"><a xlink:title=" ">
<polygon fill="#e0e0e0" stroke="#999999" points="346,-19.25 306,-19.25 306,0 346,0 346,-19.25"/>
<text text-anchor="middle" x="326" y="-5.75" font-family="Helvetica,sans-Serif" font-size="10.00">string</text>
</a>
</g>
</g>
<!-- Node9&#45;&gt;Node12 -->
<g id="edge11" class="edge">
<title>Node9&#45;&gt;Node12</title>
<path fill="none" stroke="#63b8ff" d="M299.28,-55.08C303.57,-47.96 309.74,-37.68 315.08,-28.8"/>
<polygon fill="#63b8ff" stroke="#63b8ff" points="318.45,-30.98 320.6,-20.61 312.45,-27.38 318.45,-30.98"/>
</g>
<!-- Node13 -->
<g id="node13" class="node">
<title>Node13</title>
<g id="a_node13"><a xlink:title=" ">
<polygon fill="#e0e0e0" stroke="#999999" points="434,-19.25 364,-19.25 364,0 434,0 434,-19.25"/>
<text text-anchor="middle" x="399" y="-5.75" font-family="Helvetica,sans-Serif" font-size="10.00">E57Export.h</text>
</a>
</g>
</g>
<!-- Node9&#45;&gt;Node13 -->
<g id="edge12" class="edge">
<title>Node9&#45;&gt;Node13</title>
<path fill="none" stroke="#63b8ff" d="M311.81,-54.84C328.1,-46.58 352.46,-34.23 371.29,-24.68"/>
<polygon fill="#63b8ff" stroke="#63b8ff" points="372.77,-27.35 380.1,-19.7 369.6,-21.1 372.77,-27.35"/>
</g>
</g>
</svg>
