<?xml version="1.0" encoding="UTF-8" standalone="no"?>
<!DOCTYPE svg PUBLIC "-//W3C//DTD SVG 1.1//EN"
 "http://www.w3.org/Graphics/SVG/1.1/DTD/svg11.dtd">
<!-- Generated by graphviz version 7.0.6 (20230106.0513)
 -->
<!-- Title: E57SimpleData.cpp Pages: 1 -->
<svg width="544pt" height="247pt"
 viewBox="0.00 0.00 544.00 247.00" xmlns="http://www.w3.org/2000/svg" xmlns:xlink="http://www.w3.org/1999/xlink">
<g id="graph0" class="graph" transform="scale(1 1) rotate(0) translate(4 243)">
<title>E57SimpleData.cpp</title>
<!-- Node1 -->
<g id="node1" class="node">
<title>Node1</title>
<g id="a_node1"><a xlink:title=" ">
<polygon fill="#999999" stroke="#666666" points="428.5,-239 324.5,-239 324.5,-220 428.5,-220 428.5,-239"/>
<text text-anchor="middle" x="376.5" y="-227" font-family="Helvetica,sans-Serif" font-size="10.00">E57SimpleData.cpp</text>
</a>
</g>
</g>
<!-- Node2 -->
<g id="node2" class="node">
<title>Node2</title>
<g id="a_node2"><a xlink:title=" ">
<polygon fill="#e0e0e0" stroke="#999999" points="274.5,-184 230.5,-184 230.5,-165 274.5,-165 274.5,-184"/>
<text text-anchor="middle" x="252.5" y="-172" font-family="Helvetica,sans-Serif" font-size="10.00">cmath</text>
</a>
</g>
</g>
<!-- Node1&#45;&gt;Node2 -->
<g id="edge1" class="edge">
<title>Node1&#45;&gt;Node2</title>
<path fill="none" stroke="#63b8ff" d="M355.47,-219.51C335.75,-211.08 306.03,-198.38 283.59,-188.79"/>
<polygon fill="#63b8ff" stroke="#63b8ff" points="285.19,-185.66 274.62,-184.95 282.44,-192.1 285.19,-185.66"/>
</g>
<!-- Node3 -->
<g id="node3" class="node">
<title>Node3</title>
<g id="a_node3"><a xlink:href="../../d3/d5e/_e57_simple_data_8h.html" target="_top" xlink:title="Data structures for E57 Simple API.">
<polygon fill="white" stroke="#666666" points="386,-184 293,-184 293,-165 386,-165 386,-184"/>
<text text-anchor="middle" x="339.5" y="-172" font-family="Helvetica,sans-Serif" font-size="10.00">E57SimpleData.h</text>
</a>
</g>
</g>
<!-- Node1&#45;&gt;Node3 -->
<g id="edge2" class="edge">
<title>Node1&#45;&gt;Node3</title>
<path fill="none" stroke="#63b8ff" d="M370.39,-219.75C365.49,-212.73 358.45,-202.64 352.33,-193.87"/>
<polygon fill="#63b8ff" stroke="#63b8ff" points="355.2,-191.88 346.61,-185.68 349.46,-195.89 355.2,-191.88"/>
</g>
<!-- Node14 -->
<g id="node14" class="node">
<title>Node14</title>
<g id="a_node14"><a xlink:title=" ">
<polygon fill="#e0e0e0" stroke="#999999" points="454,-19 389,-19 389,0 454,0 454,-19"/>
<text text-anchor="middle" x="421.5" y="-7" font-family="Helvetica,sans-Serif" font-size="10.00">Common.h</text>
</a>
</g>
</g>
<!-- Node1&#45;&gt;Node14 -->
<g id="edge14" class="edge">
<title>Node1&#45;&gt;Node14</title>
<path fill="none" stroke="#63b8ff" d="M380.85,-219.51C384.96,-210.67 391,-196.69 394.5,-184 409.54,-129.52 416.96,-62.96 419.9,-30.38"/>
<polygon fill="#63b8ff" stroke="#63b8ff" points="423.36,-31.08 420.72,-20.82 416.38,-30.49 423.36,-31.08"/>
</g>
<!-- Node15 -->
<g id="node15" class="node">
<title>Node15</title>
<g id="a_node15"><a xlink:title=" ">
<polygon fill="#e0e0e0" stroke="#999999" points="536,-184 443,-184 443,-165 536,-165 536,-184"/>
<text text-anchor="middle" x="489.5" y="-172" font-family="Helvetica,sans-Serif" font-size="10.00">StringFunctions.h</text>
</a>
</g>
</g>
<!-- Node1&#45;&gt;Node15 -->
<g id="edge15" class="edge">
<title>Node1&#45;&gt;Node15</title>
<path fill="none" stroke="#63b8ff" d="M395.67,-219.51C413.39,-211.2 439.98,-198.73 460.33,-189.18"/>
<polygon fill="#63b8ff" stroke="#63b8ff" points="461.68,-192.42 469.24,-185 458.7,-186.08 461.68,-192.42"/>
</g>
<!-- Node4 -->
<g id="node4" class="node">
<title>Node4</title>
<g id="a_node4"><a xlink:href="../../d1/df2/_e57_format_8h.html" target="_top" xlink:title="Header file for the E57 API.">
<polygon fill="white" stroke="#666666" points="219,-129 146,-129 146,-110 219,-110 219,-129"/>
<text text-anchor="middle" x="182.5" y="-117" font-family="Helvetica,sans-Serif" font-size="10.00">E57Format.h</text>
</a>
</g>
</g>
<!-- Node3&#45;&gt;Node4 -->
<g id="edge3" class="edge">
<title>Node3&#45;&gt;Node4</title>
<path fill="none" stroke="#63b8ff" d="M312.87,-164.51C287.3,-155.88 248.45,-142.76 219.81,-133.1"/>
<polygon fill="#63b8ff" stroke="#63b8ff" points="221.03,-129.81 210.44,-129.93 218.79,-136.45 221.03,-129.81"/>
</g>
<!-- Node5 -->
<g id="node5" class="node">
<title>Node5</title>
<g id="a_node5"><a xlink:title=" ">
<polygon fill="#e0e0e0" stroke="#999999" points="41,-74 0,-74 0,-55 41,-55 41,-74"/>
<text text-anchor="middle" x="20.5" y="-62" font-family="Helvetica,sans-Serif" font-size="10.00">cfloat</text>
</a>
</g>
</g>
<!-- Node4&#45;&gt;Node5 -->
<g id="edge4" class="edge">
<title>Node4&#45;&gt;Node5</title>
<path fill="none" stroke="#63b8ff" d="M155.02,-109.51C126.52,-100.19 82.03,-85.63 52.1,-75.84"/>
<polygon fill="#63b8ff" stroke="#63b8ff" points="53.44,-72.59 42.84,-72.81 51.26,-79.25 53.44,-72.59"/>
</g>
<!-- Node6 -->
<g id="node6" class="node">
<title>Node6</title>
<g id="a_node6"><a xlink:title=" ">
<polygon fill="#e0e0e0" stroke="#999999" points="105.5,-74 59.5,-74 59.5,-55 105.5,-55 105.5,-74"/>
<text text-anchor="middle" x="82.5" y="-62" font-family="Helvetica,sans-Serif" font-size="10.00">cstdint</text>
</a>
</g>
</g>
<!-- Node4&#45;&gt;Node6 -->
<g id="edge5" class="edge">
<title>Node4&#45;&gt;Node6</title>
<path fill="none" stroke="#63b8ff" d="M165.54,-109.51C150.14,-101.35 127.19,-89.19 109.31,-79.71"/>
<polygon fill="#63b8ff" stroke="#63b8ff" points="111.03,-76.66 100.55,-75.07 107.75,-82.84 111.03,-76.66"/>
</g>
<!-- Node7 -->
<g id="node7" class="node">
<title>Node7</title>
<g id="a_node7"><a xlink:title=" ">
<polygon fill="#e0e0e0" stroke="#999999" points="175.5,-74 123.5,-74 123.5,-55 175.5,-55 175.5,-74"/>
<text text-anchor="middle" x="149.5" y="-62" font-family="Helvetica,sans-Serif" font-size="10.00">memory</text>
</a>
</g>
</g>
<!-- Node4&#45;&gt;Node7 -->
<g id="edge6" class="edge">
<title>Node4&#45;&gt;Node7</title>
<path fill="none" stroke="#63b8ff" d="M177.05,-109.75C172.73,-102.81 166.54,-92.86 161.12,-84.16"/>
<polygon fill="#63b8ff" stroke="#63b8ff" points="164.12,-82.37 155.87,-75.73 158.18,-86.07 164.12,-82.37"/>
</g>
<!-- Node8 -->
<g id="node8" class="node">
<title>Node8</title>
<g id="a_node8"><a xlink:title=" ">
<polygon fill="#e0e0e0" stroke="#999999" points="237.5,-74 193.5,-74 193.5,-55 237.5,-55 237.5,-74"/>
<text text-anchor="middle" x="215.5" y="-62" font-family="Helvetica,sans-Serif" font-size="10.00">vector</text>
</a>
</g>
</g>
<!-- Node4&#45;&gt;Node8 -->
<g id="edge7" class="edge">
<title>Node4&#45;&gt;Node8</title>
<path fill="none" stroke="#63b8ff" d="M187.95,-109.75C192.27,-102.81 198.46,-92.86 203.88,-84.16"/>
<polygon fill="#63b8ff" stroke="#63b8ff" points="206.82,-86.07 209.13,-75.73 200.88,-82.37 206.82,-86.07"/>
</g>
<!-- Node9 -->
<g id="node9" class="node">
<title>Node9</title>
<g id="a_node9"><a xlink:href="../../d4/d6e/_e57_exception_8h.html" target="_top" xlink:title="Exception handling for E57 API.">
<polygon fill="white" stroke="#666666" points="341.5,-74 255.5,-74 255.5,-55 341.5,-55 341.5,-74"/>
<text text-anchor="middle" x="298.5" y="-62" font-family="Helvetica,sans-Serif" font-size="10.00">E57Exception.h</text>
</a>
</g>
</g>
<!-- Node4&#45;&gt;Node9 -->
<g id="edge8" class="edge">
<title>Node4&#45;&gt;Node9</title>
<path fill="none" stroke="#63b8ff" d="M202.18,-109.51C220.45,-101.16 247.91,-88.61 268.85,-79.05"/>
<polygon fill="#63b8ff" stroke="#63b8ff" points="270.1,-82.33 277.74,-74.99 267.19,-75.96 270.1,-82.33"/>
</g>
<!-- Node10 -->
<g id="node10" class="node">
<title>Node10</title>
<g id="a_node10"><a xlink:title=" ">
<polygon fill="#e0e0e0" stroke="#999999" points="150,-19 91,-19 91,0 150,0 150,-19"/>
<text text-anchor="middle" x="120.5" y="-7" font-family="Helvetica,sans-Serif" font-size="10.00">exception</text>
</a>
</g>
</g>
<!-- Node9&#45;&gt;Node10 -->
<g id="edge9" class="edge">
<title>Node9&#45;&gt;Node10</title>
<path fill="none" stroke="#63b8ff" d="M268.3,-54.51C238.85,-45.74 193.83,-32.34 161.22,-22.62"/>
<polygon fill="#63b8ff" stroke="#63b8ff" points="162.28,-19.29 151.7,-19.79 160.29,-26 162.28,-19.29"/>
</g>
<!-- Node11 -->
<g id="node11" class="node">
<title>Node11</title>
<g id="a_node11"><a xlink:title=" ">
<polygon fill="#e0e0e0" stroke="#999999" points="222.5,-19 168.5,-19 168.5,0 222.5,0 222.5,-19"/>
<text text-anchor="middle" x="195.5" y="-7" font-family="Helvetica,sans-Serif" font-size="10.00">iostream</text>
</a>
</g>
</g>
<!-- Node9&#45;&gt;Node11 -->
<g id="edge10" class="edge">
<title>Node9&#45;&gt;Node11</title>
<path fill="none" stroke="#63b8ff" d="M281.03,-54.51C265.1,-46.31 241.31,-34.07 222.86,-24.58"/>
<polygon fill="#63b8ff" stroke="#63b8ff" points="224.55,-21.51 214.06,-20.05 221.35,-27.74 224.55,-21.51"/>
</g>
<!-- Node12 -->
<g id="node12" class="node">
<title>Node12</title>
<g id="a_node12"><a xlink:title=" ">
<polygon fill="#e0e0e0" stroke="#999999" points="282,-19 241,-19 241,0 282,0 282,-19"/>
<text text-anchor="middle" x="261.5" y="-7" font-family="Helvetica,sans-Serif" font-size="10.00">string</text>
</a>
</g>
</g>
<!-- Node9&#45;&gt;Node12 -->
<g id="edge11" class="edge">
<title>Node9&#45;&gt;Node12</title>
<path fill="none" stroke="#63b8ff" d="M292.39,-54.75C287.49,-47.73 280.45,-37.64 274.33,-28.87"/>
<polygon fill="#63b8ff" stroke="#63b8ff" points="277.2,-26.88 268.61,-20.68 271.46,-30.89 277.2,-26.88"/>
</g>
<!-- Node13 -->
<g id="node13" class="node">
<title>Node13</title>
<g id="a_node13"><a xlink:title=" ">
<polygon fill="#e0e0e0" stroke="#999999" points="371,-19 300,-19 300,0 371,0 371,-19"/>
<text text-anchor="middle" x="335.5" y="-7" font-family="Helvetica,sans-Serif" font-size="10.00">E57Export.h</text>
</a>
</g>
</g>
<!-- Node9&#45;&gt;Node13 -->
<g id="edge12" class="edge">
<title>Node9&#45;&gt;Node13</title>
<path fill="none" stroke="#63b8ff" d="M304.61,-54.75C309.51,-47.73 316.55,-37.64 322.67,-28.87"/>
<polygon fill="#63b8ff" stroke="#63b8ff" points="325.54,-30.89 328.39,-20.68 319.8,-26.88 325.54,-30.89"/>
</g>
<!-- Node9&#45;&gt;Node14 -->
<g id="edge13" class="edge">
<title>Node9&#45;&gt;Node14</title>
<path fill="none" stroke="#63b8ff" d="M319.37,-54.51C338.92,-46.08 368.4,-33.38 390.67,-23.79"/>
<polygon fill="#63b8ff" stroke="#63b8ff" points="391.75,-27.13 399.55,-19.96 388.98,-20.7 391.75,-27.13"/>
</g>
</g>
</svg>
