<?xml version="1.0" encoding="UTF-8" standalone="no"?>
<!DOCTYPE svg PUBLIC "-//W3C//DTD SVG 1.1//EN"
 "http://www.w3.org/Graphics/SVG/1.1/DTD/svg11.dtd">
<!-- Generated by graphviz version 9.0.0 (20230911.1827)
 -->
<!-- Title: E57SimpleData.cpp Pages: 1 -->
<svg width="442pt" height="248pt"
 viewBox="0.00 0.00 442.00 248.25" xmlns="http://www.w3.org/2000/svg" xmlns:xlink="http://www.w3.org/1999/xlink">
<g id="graph0" class="graph" transform="scale(1 1) rotate(0) translate(4 244.25)">
<title>E57SimpleData.cpp</title>
<!-- Node1 -->
<g id="node1" class="node">
<title>Node1</title>
<g id="a_node1"><a xlink:title=" ">
<polygon fill="#999999" stroke="#666666" points="246.5,-240.25 143.5,-240.25 143.5,-221 246.5,-221 246.5,-240.25"/>
<text text-anchor="middle" x="195" y="-226.75" font-family="Helvetica,sans-Serif" font-size="10.00">E57SimpleData.cpp</text>
</a>
</g>
</g>
<!-- Node2 -->
<g id="node2" class="node">
<title>Node2</title>
<g id="a_node2"><a xlink:title=" ">
<polygon fill="#e0e0e0" stroke="#999999" points="82.5,-185 39.5,-185 39.5,-165.75 82.5,-165.75 82.5,-185"/>
<text text-anchor="middle" x="61" y="-171.5" font-family="Helvetica,sans-Serif" font-size="10.00">cmath</text>
</a>
</g>
</g>
<!-- Node1&#45;&gt;Node2 -->
<g id="edge1" class="edge">
<title>Node1&#45;&gt;Node2</title>
<path fill="none" stroke="#63b8ff" d="M172.27,-220.59C150.64,-212 117.88,-198.98 93.49,-189.29"/>
<polygon fill="#63b8ff" stroke="#63b8ff" points="94.94,-186.1 84.36,-185.66 92.36,-192.6 94.94,-186.1"/>
</g>
<!-- Node3 -->
<g id="node3" class="node">
<title>Node3</title>
<g id="a_node3"><a xlink:href="../../d3/d5e/_e57_simple_data_8h.html" target="_top" xlink:title="Data structures for E57 Simple API.">
<polygon fill="white" stroke="#666666" points="193.25,-185 100.75,-185 100.75,-165.75 193.25,-165.75 193.25,-185"/>
<text text-anchor="middle" x="147" y="-171.5" font-family="Helvetica,sans-Serif" font-size="10.00">E57SimpleData.h</text>
</a>
</g>
</g>
<!-- Node1&#45;&gt;Node3 -->
<g id="edge2" class="edge">
<title>Node1&#45;&gt;Node3</title>
<path fill="none" stroke="#63b8ff" d="M187.07,-220.83C180.44,-213.48 170.78,-202.76 162.61,-193.69"/>
<polygon fill="#63b8ff" stroke="#63b8ff" points="165.41,-191.57 156.11,-186.48 160.21,-196.25 165.41,-191.57"/>
</g>
<!-- Node14 -->
<g id="node14" class="node">
<title>Node14</title>
<g id="a_node14"><a xlink:title=" ">
<polygon fill="#e0e0e0" stroke="#999999" points="275,-185 211,-185 211,-165.75 275,-165.75 275,-185"/>
<text text-anchor="middle" x="243" y="-171.5" font-family="Helvetica,sans-Serif" font-size="10.00">Common.h</text>
</a>
</g>
</g>
<!-- Node1&#45;&gt;Node14 -->
<g id="edge13" class="edge">
<title>Node1&#45;&gt;Node14</title>
<path fill="none" stroke="#63b8ff" d="M202.93,-220.83C209.56,-213.48 219.22,-202.76 227.39,-193.69"/>
<polygon fill="#63b8ff" stroke="#63b8ff" points="229.79,-196.25 233.89,-186.48 224.59,-191.57 229.79,-196.25"/>
</g>
<!-- Node15 -->
<g id="node15" class="node">
<title>Node15</title>
<g id="a_node15"><a xlink:title=" ">
<polygon fill="#e0e0e0" stroke="#999999" points="385.25,-185 292.75,-185 292.75,-165.75 385.25,-165.75 385.25,-185"/>
<text text-anchor="middle" x="339" y="-171.5" font-family="Helvetica,sans-Serif" font-size="10.00">StringFunctions.h</text>
</a>
</g>
</g>
<!-- Node1&#45;&gt;Node15 -->
<g id="edge14" class="edge">
<title>Node1&#45;&gt;Node15</title>
<path fill="none" stroke="#63b8ff" d="M219.43,-220.59C242.6,-212.02 277.66,-199.06 303.84,-189.38"/>
<polygon fill="#63b8ff" stroke="#63b8ff" points="304.87,-192.73 313.03,-185.98 302.44,-186.16 304.87,-192.73"/>
</g>
<!-- Node4 -->
<g id="node4" class="node">
<title>Node4</title>
<g id="a_node4"><a xlink:href="../../d1/df2/_e57_format_8h.html" target="_top" xlink:title="Header file for the E57 API.">
<polygon fill="white" stroke="#666666" points="183.12,-129.75 110.88,-129.75 110.88,-110.5 183.12,-110.5 183.12,-129.75"/>
<text text-anchor="middle" x="147" y="-116.25" font-family="Helvetica,sans-Serif" font-size="10.00">E57Format.h</text>
</a>
</g>
</g>
<!-- Node3&#45;&gt;Node4 -->
<g id="edge3" class="edge">
<title>Node3&#45;&gt;Node4</title>
<path fill="none" stroke="#63b8ff" d="M147,-165.58C147,-159.07 147,-149.92 147,-141.62"/>
<polygon fill="#63b8ff" stroke="#63b8ff" points="150.5,-141.62 147,-131.62 143.5,-141.62 150.5,-141.62"/>
</g>
<!-- Node5 -->
<g id="node5" class="node">
<title>Node5</title>
<g id="a_node5"><a xlink:title=" ">
<polygon fill="#e0e0e0" stroke="#999999" points="40,-74.5 0,-74.5 0,-55.25 40,-55.25 40,-74.5"/>
<text text-anchor="middle" x="20" y="-61" font-family="Helvetica,sans-Serif" font-size="10.00">cfloat</text>
</a>
</g>
</g>
<!-- Node4&#45;&gt;Node5 -->
<g id="edge4" class="edge">
<title>Node4&#45;&gt;Node5</title>
<path fill="none" stroke="#63b8ff" d="M125.46,-110.09C104.93,-101.48 73.81,-88.44 50.7,-78.75"/>
<polygon fill="#63b8ff" stroke="#63b8ff" points="52.36,-75.65 41.78,-75.01 49.65,-82.1 52.36,-75.65"/>
</g>
<!-- Node6 -->
<g id="node6" class="node">
<title>Node6</title>
<g id="a_node6"><a xlink:title=" ">
<polygon fill="#e0e0e0" stroke="#999999" points="103.62,-74.5 58.38,-74.5 58.38,-55.25 103.62,-55.25 103.62,-74.5"/>
<text text-anchor="middle" x="81" y="-61" font-family="Helvetica,sans-Serif" font-size="10.00">cstdint</text>
</a>
</g>
</g>
<!-- Node4&#45;&gt;Node6 -->
<g id="edge5" class="edge">
<title>Node4&#45;&gt;Node6</title>
<path fill="none" stroke="#63b8ff" d="M135.8,-110.09C126.26,-102.4 112.33,-91.15 100.89,-81.93"/>
<polygon fill="#63b8ff" stroke="#63b8ff" points="103.19,-79.28 93.21,-75.73 98.79,-84.73 103.19,-79.28"/>
</g>
<!-- Node7 -->
<g id="node7" class="node">
<title>Node7</title>
<g id="a_node7"><a xlink:title=" ">
<polygon fill="#e0e0e0" stroke="#999999" points="172.62,-74.5 121.38,-74.5 121.38,-55.25 172.62,-55.25 172.62,-74.5"/>
<text text-anchor="middle" x="147" y="-61" font-family="Helvetica,sans-Serif" font-size="10.00">memory</text>
</a>
</g>
</g>
<!-- Node4&#45;&gt;Node7 -->
<g id="edge6" class="edge">
<title>Node4&#45;&gt;Node7</title>
<path fill="none" stroke="#63b8ff" d="M147,-110.33C147,-103.82 147,-94.67 147,-86.37"/>
<polygon fill="#63b8ff" stroke="#63b8ff" points="150.5,-86.37 147,-76.37 143.5,-86.37 150.5,-86.37"/>
</g>
<!-- Node8 -->
<g id="node8" class="node">
<title>Node8</title>
<g id="a_node8"><a xlink:title=" ">
<polygon fill="#e0e0e0" stroke="#999999" points="233.5,-74.5 190.5,-74.5 190.5,-55.25 233.5,-55.25 233.5,-74.5"/>
<text text-anchor="middle" x="212" y="-61" font-family="Helvetica,sans-Serif" font-size="10.00">vector</text>
</a>
</g>
</g>
<!-- Node4&#45;&gt;Node8 -->
<g id="edge7" class="edge">
<title>Node4&#45;&gt;Node8</title>
<path fill="none" stroke="#63b8ff" d="M158.03,-110.09C167.42,-102.4 181.15,-91.15 192.41,-81.93"/>
<polygon fill="#63b8ff" stroke="#63b8ff" points="194.45,-84.78 199.97,-75.73 190.01,-79.36 194.45,-84.78"/>
</g>
<!-- Node9 -->
<g id="node9" class="node">
<title>Node9</title>
<g id="a_node9"><a xlink:href="../../d4/d6e/_e57_exception_8h.html" target="_top" xlink:title="Exception handling for E57 API.">
<polygon fill="white" stroke="#666666" points="336.5,-74.5 251.5,-74.5 251.5,-55.25 336.5,-55.25 336.5,-74.5"/>
<text text-anchor="middle" x="294" y="-61" font-family="Helvetica,sans-Serif" font-size="10.00">E57Exception.h</text>
</a>
</g>
</g>
<!-- Node4&#45;&gt;Node9 -->
<g id="edge8" class="edge">
<title>Node4&#45;&gt;Node9</title>
<path fill="none" stroke="#63b8ff" d="M171.94,-110.09C195.69,-101.49 231.71,-88.44 258.46,-78.75"/>
<polygon fill="#63b8ff" stroke="#63b8ff" points="259.31,-82.16 267.52,-75.47 256.92,-75.58 259.31,-82.16"/>
</g>
<!-- Node10 -->
<g id="node10" class="node">
<title>Node10</title>
<g id="a_node10"><a xlink:title=" ">
<polygon fill="#e0e0e0" stroke="#999999" points="216,-19.25 158,-19.25 158,0 216,0 216,-19.25"/>
<text text-anchor="middle" x="187" y="-5.75" font-family="Helvetica,sans-Serif" font-size="10.00">exception</text>
</a>
</g>
</g>
<!-- Node9&#45;&gt;Node10 -->
<g id="edge9" class="edge">
<title>Node9&#45;&gt;Node10</title>
<path fill="none" stroke="#63b8ff" d="M275.85,-54.84C259.32,-46.62 234.66,-34.34 215.5,-24.81"/>
<polygon fill="#63b8ff" stroke="#63b8ff" points="217.11,-21.7 206.6,-20.38 213.99,-27.97 217.11,-21.7"/>
</g>
<!-- Node11 -->
<g id="node11" class="node">
<title>Node11</title>
<g id="a_node11"><a xlink:title=" ">
<polygon fill="#e0e0e0" stroke="#999999" points="287.75,-19.25 234.25,-19.25 234.25,0 287.75,0 287.75,-19.25"/>
<text text-anchor="middle" x="261" y="-5.75" font-family="Helvetica,sans-Serif" font-size="10.00">iostream</text>
</a>
</g>
</g>
<!-- Node9&#45;&gt;Node11 -->
<g id="edge10" class="edge">
<title>Node9&#45;&gt;Node11</title>
<path fill="none" stroke="#63b8ff" d="M288.55,-55.08C284.23,-48.11 278.04,-38.12 272.62,-29.37"/>
<polygon fill="#63b8ff" stroke="#63b8ff" points="275.61,-27.55 267.36,-20.9 269.66,-31.24 275.61,-27.55"/>
</g>
<!-- Node12 -->
<g id="node12" class="node">
<title>Node12</title>
<g id="a_node12"><a xlink:title=" ">
<polygon fill="#e0e0e0" stroke="#999999" points="346,-19.25 306,-19.25 306,0 346,0 346,-19.25"/>
<text text-anchor="middle" x="326" y="-5.75" font-family="Helvetica,sans-Serif" font-size="10.00">string</text>
</a>
</g>
</g>
<!-- Node9&#45;&gt;Node12 -->
<g id="edge11" class="edge">
<title>Node9&#45;&gt;Node12</title>
<path fill="none" stroke="#63b8ff" d="M299.28,-55.08C303.47,-48.11 309.48,-38.12 314.73,-29.37"/>
<polygon fill="#63b8ff" stroke="#63b8ff" points="317.67,-31.28 319.82,-20.91 311.67,-27.68 317.67,-31.28"/>
</g>
<!-- Node13 -->
<g id="node13" class="node">
<title>Node13</title>
<g id="a_node13"><a xlink:title=" ">
<polygon fill="#e0e0e0" stroke="#999999" points="434,-19.25 364,-19.25 364,0 434,0 434,-19.25"/>
<text text-anchor="middle" x="399" y="-5.75" font-family="Helvetica,sans-Serif" font-size="10.00">E57Export.h</text>
</a>
</g>
</g>
<!-- Node9&#45;&gt;Node13 -->
<g id="edge12" class="edge">
<title>Node9&#45;&gt;Node13</title>
<path fill="none" stroke="#63b8ff" d="M311.81,-54.84C328.03,-46.62 352.24,-34.34 371.03,-24.81"/>
<polygon fill="#63b8ff" stroke="#63b8ff" points="372.42,-28.03 379.75,-20.39 369.25,-21.79 372.42,-28.03"/>
</g>
</g>
</svg>
