<?xml version="1.0" encoding="UTF-8" standalone="no"?>
<!DOCTYPE svg PUBLIC "-//W3C//DTD SVG 1.1//EN"
 "http://www.w3.org/Graphics/SVG/1.1/DTD/svg11.dtd">
<!-- Generated by graphviz version 7.0.0 (20221023.0053)
 -->
<!-- Title: e57::PacketReadCache Pages: 1 -->
<svg width="175pt" height="159pt"
 viewBox="0.00 0.00 174.50 159.00" xmlns="http://www.w3.org/2000/svg" xmlns:xlink="http://www.w3.org/1999/xlink">
<g id="graph0" class="graph" transform="scale(1 1) rotate(0) translate(4 155)">
<title>e57::PacketReadCache</title>
<!-- Node1 -->
<g id="node1" class="node">
<title>Node1</title>
<g id="a_node1"><a xlink:title=" ">
<polygon fill="#999999" stroke="#666666" points="121,-19 0,-19 0,0 121,0 121,-19"/>
<text text-anchor="middle" x="60.5" y="-7" font-family="Helvetica,sans-Serif" font-size="10.00">e57::PacketReadCache</text>
</a>
</g>
</g>
<!-- Node2 -->
<g id="node2" class="node">
<title>Node2</title>
<g id="a_node2"><a xlink:href="../../dd/d96/classe57_1_1_checked_file.html" target="_top" xlink:title=" ">
<polygon fill="white" stroke="#666666" points="107,-85 14,-85 14,-66 107,-66 107,-85"/>
<text text-anchor="middle" x="60.5" y="-73" font-family="Helvetica,sans-Serif" font-size="10.00">e57::CheckedFile</text>
</a>
</g>
</g>
<!-- Node2&#45;&gt;Node1 -->
<g id="edge1" class="edge">
<title>Node2&#45;&gt;Node1</title>
<path fill="none" stroke="#9a32cd" stroke-dasharray="5,2" d="M60.5,-54.18C60.5,-42.44 60.5,-28.27 60.5,-19.32"/>
<polygon fill="#9a32cd" stroke="#9a32cd" points="57,-54.09 60.5,-64.09 64,-54.09 57,-54.09"/>
<text text-anchor="middle" x="75.5" y="-40" font-family="Helvetica,sans-Serif" font-size="10.00"> cFile_</text>
</g>
<!-- Node3 -->
<g id="node3" class="node">
<title>Node3</title>
<g id="a_node3"><a xlink:title=" ">
<polygon fill="white" stroke="#666666" points="86,-151 35,-151 35,-132 86,-132 86,-151"/>
<text text-anchor="middle" x="60.5" y="-139" font-family="Helvetica,sans-Serif" font-size="10.00">uint64_t</text>
</a>
</g>
</g>
<!-- Node3&#45;&gt;Node2 -->
<g id="edge2" class="edge">
<title>Node3&#45;&gt;Node2</title>
<path fill="none" stroke="#9a32cd" stroke-dasharray="5,2" d="M60.5,-120.18C60.5,-108.44 60.5,-94.27 60.5,-85.32"/>
<polygon fill="#9a32cd" stroke="#9a32cd" points="57,-120.09 60.5,-130.09 64,-120.09 57,-120.09"/>
<text text-anchor="middle" x="113.5" y="-106" font-family="Helvetica,sans-Serif" font-size="10.00"> physicalPageSizeMask</text>
</g>
</g>
</svg>
