<?xml version="1.0" encoding="UTF-8" standalone="no"?>
<!DOCTYPE svg PUBLIC "-//W3C//DTD SVG 1.1//EN"
 "http://www.w3.org/Graphics/SVG/1.1/DTD/svg11.dtd">
<!-- Generated by graphviz version 2.49.0 (20210828.1703)
 -->
<!-- Title: e57::GroupingByLine Pages: 1 -->
<svg width="131pt" height="106pt"
 viewBox="0.00 0.00 131.00 106.00" xmlns="http://www.w3.org/2000/svg" xmlns:xlink="http://www.w3.org/1999/xlink">
<g id="graph0" class="graph" transform="scale(1 1) rotate(0) translate(4 102)">
<title>e57::GroupingByLine</title>
<polygon fill="white" stroke="transparent" points="-4,4 -4,-102 127,-102 127,4 -4,4"/>
<!-- Node1 -->
<g id="node1" class="node">
<title>Node1</title>
<g id="a_node1"><a xlink:title="Stores a set of point groups organized by the rowIndex or columnIndex attribute of the PointRecord.">
<polygon fill="#bfbfbf" stroke="black" points="0,-0.5 0,-19.5 110,-19.5 110,-0.5 0,-0.5"/>
<text text-anchor="middle" x="55" y="-7.5" font-family="Helvetica,sans-Serif" font-size="10.00">e57::GroupingByLine</text>
</a>
</g>
</g>
<!-- Node2 -->
<g id="node2" class="node">
<title>Node2</title>
<g id="a_node2"><a xlink:title=" ">
<polygon fill="white" stroke="#bfbfbf" points="31.5,-78.5 31.5,-97.5 78.5,-97.5 78.5,-78.5 31.5,-78.5"/>
<text text-anchor="middle" x="55" y="-85.5" font-family="Helvetica,sans-Serif" font-size="10.00">int64_t</text>
</a>
</g>
</g>
<!-- Node2&#45;&gt;Node1 -->
<g id="edge1" class="edge">
<title>Node2&#45;&gt;Node1</title>
<path fill="none" stroke="#9a32cd" stroke-dasharray="5,2" d="M55,-68.22C55,-52.7 55,-31.36 55,-19.62"/>
<polygon fill="#9a32cd" stroke="#9a32cd" points="51.5,-68.28 55,-78.28 58.5,-68.28 51.5,-68.28"/>
<text text-anchor="middle" x="89" y="-52" font-family="Helvetica,sans-Serif" font-size="10.00"> groupsSize</text>
<text text-anchor="middle" x="89" y="-41" font-family="Helvetica,sans-Serif" font-size="10.00">pointCountSize</text>
</g>
</g>
</svg>
