<?xml version="1.0" encoding="UTF-8" standalone="no"?>
<!DOCTYPE svg PUBLIC "-//W3C//DTD SVG 1.1//EN"
 "http://www.w3.org/Graphics/SVG/1.1/DTD/svg11.dtd">
<!-- Generated by graphviz version 7.0.0 (20221023.0053)
 -->
<!-- Title: VectorNodeImpl.h Pages: 1 -->
<svg width="611pt" height="82pt"
 viewBox="0.00 0.00 610.50 82.00" xmlns="http://www.w3.org/2000/svg" xmlns:xlink="http://www.w3.org/1999/xlink">
<g id="graph0" class="graph" transform="scale(1 1) rotate(0) translate(4 78)">
<title>VectorNodeImpl.h</title>
<!-- Node1 -->
<g id="node1" class="node">
<title>Node1</title>
<g id="a_node1"><a xlink:title=" ">
<polygon fill="#999999" stroke="#666666" points="382,-74 287,-74 287,-55 382,-55 382,-74"/>
<text text-anchor="middle" x="334.5" y="-62" font-family="Helvetica,sans-Serif" font-size="10.00">VectorNodeImpl.h</text>
</a>
</g>
</g>
<!-- Node2 -->
<g id="node2" class="node">
<title>Node2</title>
<g id="a_node2"><a xlink:href="../../db/dd2/_compressed_vector_node_impl_8cpp.html" target="_top" xlink:title=" ">
<polygon fill="white" stroke="#666666" points="161,-19 0,-19 0,0 161,0 161,-19"/>
<text text-anchor="middle" x="80.5" y="-7" font-family="Helvetica,sans-Serif" font-size="10.00">CompressedVectorNodeImpl.cpp</text>
</a>
</g>
</g>
<!-- Node1&#45;&gt;Node2 -->
<g id="edge1" class="edge">
<title>Node1&#45;&gt;Node2</title>
<path fill="none" stroke="#63b8ff" d="M280.25,-52.18C233.39,-42.4 166.58,-28.46 123.37,-19.45"/>
<polygon fill="#63b8ff" stroke="#63b8ff" points="279.43,-55.58 289.93,-54.2 280.86,-48.73 279.43,-55.58"/>
</g>
<!-- Node3 -->
<g id="node3" class="node">
<title>Node3</title>
<g id="a_node3"><a xlink:href="../../da/d44/_e57_xml_parser_8cpp.html" target="_top" xlink:title=" ">
<polygon fill="white" stroke="#666666" points="277.5,-19 179.5,-19 179.5,0 277.5,0 277.5,-19"/>
<text text-anchor="middle" x="228.5" y="-7" font-family="Helvetica,sans-Serif" font-size="10.00">E57XmlParser.cpp</text>
</a>
</g>
</g>
<!-- Node1&#45;&gt;Node3 -->
<g id="edge2" class="edge">
<title>Node1&#45;&gt;Node3</title>
<path fill="none" stroke="#63b8ff" d="M306.3,-49.4C287.22,-39.86 262.6,-27.55 246.22,-19.36"/>
<polygon fill="#63b8ff" stroke="#63b8ff" points="304.66,-52.49 315.16,-53.83 307.79,-46.23 304.66,-52.49"/>
</g>
<!-- Node4 -->
<g id="node4" class="node">
<title>Node4</title>
<g id="a_node4"><a xlink:href="../../d8/d81/_node_impl_8cpp.html" target="_top" xlink:title=" ">
<polygon fill="white" stroke="#666666" points="373,-19 296,-19 296,0 373,0 373,-19"/>
<text text-anchor="middle" x="334.5" y="-7" font-family="Helvetica,sans-Serif" font-size="10.00">NodeImpl.cpp</text>
</a>
</g>
</g>
<!-- Node1&#45;&gt;Node4 -->
<g id="edge3" class="edge">
<title>Node1&#45;&gt;Node4</title>
<path fill="none" stroke="#63b8ff" d="M334.5,-43.35C334.5,-35.1 334.5,-25.97 334.5,-19.44"/>
<polygon fill="#63b8ff" stroke="#63b8ff" points="331,-43.23 334.5,-53.23 338,-43.23 331,-43.23"/>
</g>
<!-- Node5 -->
<g id="node5" class="node">
<title>Node5</title>
<g id="a_node5"><a xlink:href="../../da/ded/_vector_node_8cpp.html" target="_top" xlink:title=" ">
<polygon fill="white" stroke="#666666" points="478,-19 391,-19 391,0 478,0 478,-19"/>
<text text-anchor="middle" x="434.5" y="-7" font-family="Helvetica,sans-Serif" font-size="10.00">VectorNode.cpp</text>
</a>
</g>
</g>
<!-- Node1&#45;&gt;Node5 -->
<g id="edge4" class="edge">
<title>Node1&#45;&gt;Node5</title>
<path fill="none" stroke="#63b8ff" d="M361.61,-49.13C379.54,-39.63 402.48,-27.47 417.79,-19.36"/>
<polygon fill="#63b8ff" stroke="#63b8ff" points="360,-46.02 352.8,-53.8 363.28,-52.21 360,-46.02"/>
</g>
<!-- Node6 -->
<g id="node6" class="node">
<title>Node6</title>
<g id="a_node6"><a xlink:href="../../dd/d16/_vector_node_impl_8cpp.html" target="_top" xlink:title=" ">
<polygon fill="white" stroke="#666666" points="602.5,-19 496.5,-19 496.5,0 602.5,0 602.5,-19"/>
<text text-anchor="middle" x="549.5" y="-7" font-family="Helvetica,sans-Serif" font-size="10.00">VectorNodeImpl.cpp</text>
</a>
</g>
</g>
<!-- Node1&#45;&gt;Node6 -->
<g id="edge5" class="edge">
<title>Node1&#45;&gt;Node6</title>
<path fill="none" stroke="#63b8ff" d="M381.94,-51.81C421.52,-42.05 477.1,-28.35 513.21,-19.45"/>
<polygon fill="#63b8ff" stroke="#63b8ff" points="381.31,-48.36 372.44,-54.15 382.99,-55.15 381.31,-48.36"/>
</g>
</g>
</svg>
