<?xml version="1.0" encoding="UTF-8" standalone="no"?>
<!DOCTYPE svg PUBLIC "-//W3C//DTD SVG 1.1//EN"
 "http://www.w3.org/Graphics/SVG/1.1/DTD/svg11.dtd">
<!-- Generated by graphviz version 2.49.0 (20210828.1703)
 -->
<!-- Title: e57::E57XmlParser::ParseInfo Pages: 1 -->
<svg width="119pt" height="150pt"
 viewBox="0.00 0.00 118.50 150.00" xmlns="http://www.w3.org/2000/svg" xmlns:xlink="http://www.w3.org/1999/xlink">
<g id="graph0" class="graph" transform="scale(1 1) rotate(0) translate(4 146)">
<title>e57::E57XmlParser::ParseInfo</title>
<polygon fill="white" stroke="transparent" points="-4,4 -4,-146 114.5,-146 114.5,4 -4,4"/>
<!-- Node1 -->
<g id="node1" class="node">
<title>Node1</title>
<g id="a_node1"><a xlink:title="Image file we are reading.">
<polygon fill="#bfbfbf" stroke="black" points="0,-0.5 0,-30.5 109,-30.5 109,-0.5 0,-0.5"/>
<text text-anchor="start" x="8" y="-18.5" font-family="Helvetica,sans-Serif" font-size="10.00">e57::E57XmlParser::</text>
<text text-anchor="middle" x="54.5" y="-7.5" font-family="Helvetica,sans-Serif" font-size="10.00">ParseInfo</text>
</a>
</g>
</g>
<!-- Node2 -->
<g id="node2" class="node">
<title>Node2</title>
<g id="a_node2"><a xlink:title=" ">
<polygon fill="white" stroke="#bfbfbf" points="31,-122.5 31,-141.5 78,-141.5 78,-122.5 31,-122.5"/>
<text text-anchor="middle" x="54.5" y="-129.5" font-family="Helvetica,sans-Serif" font-size="10.00">int64_t</text>
</a>
</g>
</g>
<!-- Node2&#45;&gt;Node1 -->
<g id="edge1" class="edge">
<title>Node2&#45;&gt;Node1</title>
<path fill="none" stroke="#9a32cd" stroke-dasharray="5,2" d="M54.5,-112.29C54.5,-89.48 54.5,-51.41 54.5,-30.81"/>
<polygon fill="#9a32cd" stroke="#9a32cd" points="51,-112.39 54.5,-122.39 58,-112.39 51,-112.39"/>
<text text-anchor="middle" x="82.5" y="-96" font-family="Helvetica,sans-Serif" font-size="10.00"> fileOffset</text>
<text text-anchor="middle" x="82.5" y="-85" font-family="Helvetica,sans-Serif" font-size="10.00">length</text>
<text text-anchor="middle" x="82.5" y="-74" font-family="Helvetica,sans-Serif" font-size="10.00">maximum</text>
<text text-anchor="middle" x="82.5" y="-63" font-family="Helvetica,sans-Serif" font-size="10.00">minimum</text>
<text text-anchor="middle" x="82.5" y="-52" font-family="Helvetica,sans-Serif" font-size="10.00">recordCount</text>
</g>
</g>
</svg>
