<?xml version="1.0" encoding="UTF-8" standalone="no"?>
<!DOCTYPE svg PUBLIC "-//W3C//DTD SVG 1.1//EN"
 "http://www.w3.org/Graphics/SVG/1.1/DTD/svg11.dtd">
<!-- Generated by graphviz version 2.49.0 (20210828.1703)
 -->
<!-- Title: e57::E57Root Pages: 1 -->
<svg width="280pt" height="173pt"
 viewBox="0.00 0.00 280.00 173.00" xmlns="http://www.w3.org/2000/svg" xmlns:xlink="http://www.w3.org/1999/xlink">
<g id="graph0" class="graph" transform="scale(1 1) rotate(0) translate(4 169)">
<title>e57::E57Root</title>
<polygon fill="white" stroke="transparent" points="-4,4 -4,-169 276,-169 276,4 -4,4"/>
<!-- Node1 -->
<g id="node1" class="node">
<title>Node1</title>
<g id="a_node1"><a xlink:title="Stores the top&#45;level information for the XML section of the file.">
<polygon fill="#bfbfbf" stroke="black" points="71,-0.5 71,-19.5 149,-19.5 149,-0.5 71,-0.5"/>
<text text-anchor="middle" x="110" y="-7.5" font-family="Helvetica,sans-Serif" font-size="10.00">e57::E57Root</text>
</a>
</g>
</g>
<!-- Node2 -->
<g id="node2" class="node">
<title>Node2</title>
<g id="a_node2"><a xlink:title=" ">
<polygon fill="white" stroke="#bfbfbf" points="0,-78.5 0,-97.5 52,-97.5 52,-78.5 0,-78.5"/>
<text text-anchor="middle" x="26" y="-85.5" font-family="Helvetica,sans-Serif" font-size="10.00">uint32_t</text>
</a>
</g>
</g>
<!-- Node2&#45;&gt;Node1 -->
<g id="edge1" class="edge">
<title>Node2&#45;&gt;Node1</title>
<path fill="none" stroke="#9a32cd" stroke-dasharray="5,2" d="M29.49,-68.36C32.22,-58.28 36.95,-46.25 45,-38 53.2,-29.61 64.39,-23.71 75.17,-19.62"/>
<polygon fill="#9a32cd" stroke="#9a32cd" points="26.04,-67.74 27.25,-78.26 32.87,-69.28 26.04,-67.74"/>
<text text-anchor="middle" x="75.5" y="-52" font-family="Helvetica,sans-Serif" font-size="10.00"> versionMajor</text>
<text text-anchor="middle" x="75.5" y="-41" font-family="Helvetica,sans-Serif" font-size="10.00">versionMinor</text>
</g>
<!-- Node3 -->
<g id="node3" class="node">
<title>Node3</title>
<g id="a_node3"><a xlink:href="../../d1/dd7/structe57_1_1_date_time.html" target="_top" xlink:title="Encodes date and time.">
<polygon fill="white" stroke="black" points="70,-78.5 70,-97.5 152,-97.5 152,-78.5 70,-78.5"/>
<text text-anchor="middle" x="111" y="-85.5" font-family="Helvetica,sans-Serif" font-size="10.00">e57::DateTime</text>
</a>
</g>
</g>
<!-- Node3&#45;&gt;Node1 -->
<g id="edge2" class="edge">
<title>Node3&#45;&gt;Node1</title>
<path fill="none" stroke="#9a32cd" stroke-dasharray="5,2" d="M110.75,-68.22C110.55,-52.7 110.27,-31.36 110.11,-19.62"/>
<polygon fill="#9a32cd" stroke="#9a32cd" points="107.25,-68.33 110.89,-78.28 114.25,-68.24 107.25,-68.33"/>
<text text-anchor="middle" x="151" y="-46.5" font-family="Helvetica,sans-Serif" font-size="10.00"> creationDateTime</text>
</g>
<!-- Node4 -->
<g id="node4" class="node">
<title>Node4</title>
<g id="a_node4"><a xlink:title=" ">
<polygon fill="white" stroke="#bfbfbf" points="87.5,-145.5 87.5,-164.5 134.5,-164.5 134.5,-145.5 87.5,-145.5"/>
<text text-anchor="middle" x="111" y="-152.5" font-family="Helvetica,sans-Serif" font-size="10.00">int32_t</text>
</a>
</g>
</g>
<!-- Node4&#45;&gt;Node3 -->
<g id="edge3" class="edge">
<title>Node4&#45;&gt;Node3</title>
<path fill="none" stroke="#9a32cd" stroke-dasharray="5,2" d="M111,-135.04C111,-122.67 111,-107.12 111,-97.63"/>
<polygon fill="#9a32cd" stroke="#9a32cd" points="107.5,-135.23 111,-145.23 114.5,-135.23 107.5,-135.23"/>
<text text-anchor="middle" x="170" y="-119" font-family="Helvetica,sans-Serif" font-size="10.00"> isAtomicClockReferenced</text>
</g>
<!-- Node5 -->
<g id="node5" class="node">
<title>Node5</title>
<g id="a_node5"><a xlink:title=" ">
<polygon fill="white" stroke="#bfbfbf" points="191.5,-78.5 191.5,-97.5 238.5,-97.5 238.5,-78.5 191.5,-78.5"/>
<text text-anchor="middle" x="215" y="-85.5" font-family="Helvetica,sans-Serif" font-size="10.00">int64_t</text>
</a>
</g>
</g>
<!-- Node5&#45;&gt;Node1 -->
<g id="edge4" class="edge">
<title>Node5&#45;&gt;Node1</title>
<path fill="none" stroke="#9a32cd" stroke-dasharray="5,2" d="M210.75,-68.75C207.48,-58.44 201.96,-46.05 193,-38 180.94,-27.17 164.46,-20.67 149.36,-16.78"/>
<polygon fill="#9a32cd" stroke="#9a32cd" points="207.39,-69.74 213.39,-78.48 214.14,-67.91 207.39,-69.74"/>
<text text-anchor="middle" x="239.5" y="-52" font-family="Helvetica,sans-Serif" font-size="10.00"> data3DSize</text>
<text text-anchor="middle" x="239.5" y="-41" font-family="Helvetica,sans-Serif" font-size="10.00">images2DSize</text>
</g>
</g>
</svg>
