<?xml version="1.0" encoding="UTF-8" standalone="no"?>
<!DOCTYPE svg PUBLIC "-//W3C//DTD SVG 1.1//EN"
 "http://www.w3.org/Graphics/SVG/1.1/DTD/svg11.dtd">
<!-- Generated by graphviz version 7.1.0 (20230121.1956)
 -->
<!-- Title: e57::E57Root Pages: 1 -->
<svg width="277pt" height="170pt"
 viewBox="0.00 0.00 276.50 170.00" xmlns="http://www.w3.org/2000/svg" xmlns:xlink="http://www.w3.org/1999/xlink">
<g id="graph0" class="graph" transform="scale(1 1) rotate(0) translate(4 166)">
<title>e57::E57Root</title>
<!-- Node1 -->
<g id="node1" class="node">
<title>Node1</title>
<g id="a_node1"><a xlink:title="Stores the top&#45;level information for the XML section of the file.">
<polygon fill="#999999" stroke="#666666" points="147,-19 70,-19 70,0 147,0 147,-19"/>
<text text-anchor="middle" x="108.5" y="-7" font-family="Helvetica,sans-Serif" font-size="10.00">e57::E57Root</text>
</a>
</g>
</g>
<!-- Node2 -->
<g id="node2" class="node">
<title>Node2</title>
<g id="a_node2"><a xlink:title=" ">
<polygon fill="white" stroke="#666666" points="51,-96 0,-96 0,-77 51,-77 51,-96"/>
<text text-anchor="middle" x="25.5" y="-84" font-family="Helvetica,sans-Serif" font-size="10.00">uint32_t</text>
</a>
</g>
</g>
<!-- Node2&#45;&gt;Node1 -->
<g id="edge1" class="edge">
<title>Node2&#45;&gt;Node1</title>
<path fill="none" stroke="#9a32cd" stroke-dasharray="5,2" d="M29.85,-65.77C32.85,-56.07 37.74,-44.82 45.5,-37 53.36,-29.09 63.94,-23.41 74.19,-19.4"/>
<polygon fill="#9a32cd" stroke="#9a32cd" points="26.47,-64.83 27.36,-75.39 33.25,-66.58 26.47,-64.83"/>
<text text-anchor="middle" x="75" y="-51" font-family="Helvetica,sans-Serif" font-size="10.00"> versionMajor</text>
<text text-anchor="middle" x="75" y="-40" font-family="Helvetica,sans-Serif" font-size="10.00">versionMinor</text>
</g>
<!-- Node3 -->
<g id="node3" class="node">
<title>Node3</title>
<g id="a_node3"><a xlink:href="../../d1/dd7/structe57_1_1_date_time.html" target="_top" xlink:title="Encodes date and time.">
<polygon fill="white" stroke="#666666" points="150,-96 69,-96 69,-77 150,-77 150,-96"/>
<text text-anchor="middle" x="109.5" y="-84" font-family="Helvetica,sans-Serif" font-size="10.00">e57::DateTime</text>
</a>
</g>
</g>
<!-- Node3&#45;&gt;Node1 -->
<g id="edge2" class="edge">
<title>Node3&#45;&gt;Node1</title>
<path fill="none" stroke="#9a32cd" stroke-dasharray="5,2" d="M109.23,-65.42C109.03,-50.43 108.77,-30.66 108.62,-19.39"/>
<polygon fill="#9a32cd" stroke="#9a32cd" points="105.73,-65.14 109.36,-75.09 112.73,-65.04 105.73,-65.14"/>
<text text-anchor="middle" x="149" y="-45.5" font-family="Helvetica,sans-Serif" font-size="10.00"> creationDateTime</text>
</g>
<!-- Node4 -->
<g id="node4" class="node">
<title>Node4</title>
<g id="a_node4"><a xlink:title=" ">
<polygon fill="white" stroke="#666666" points="132.5,-162 86.5,-162 86.5,-143 132.5,-143 132.5,-162"/>
<text text-anchor="middle" x="109.5" y="-150" font-family="Helvetica,sans-Serif" font-size="10.00">int32_t</text>
</a>
</g>
</g>
<!-- Node4&#45;&gt;Node3 -->
<g id="edge3" class="edge">
<title>Node4&#45;&gt;Node3</title>
<path fill="none" stroke="#9a32cd" stroke-dasharray="5,2" d="M109.5,-131.18C109.5,-119.44 109.5,-105.27 109.5,-96.32"/>
<polygon fill="#9a32cd" stroke="#9a32cd" points="106,-131.09 109.5,-141.09 113,-131.09 106,-131.09"/>
<text text-anchor="middle" x="168.5" y="-117" font-family="Helvetica,sans-Serif" font-size="10.00"> isAtomicClockReferenced</text>
</g>
<!-- Node5 -->
<g id="node5" class="node">
<title>Node5</title>
<g id="a_node5"><a xlink:title=" ">
<polygon fill="white" stroke="#666666" points="235.5,-96 189.5,-96 189.5,-77 235.5,-77 235.5,-96"/>
<text text-anchor="middle" x="212.5" y="-84" font-family="Helvetica,sans-Serif" font-size="10.00">int64_t</text>
</a>
</g>
</g>
<!-- Node5&#45;&gt;Node1 -->
<g id="edge4" class="edge">
<title>Node5&#45;&gt;Node1</title>
<path fill="none" stroke="#9a32cd" stroke-dasharray="5,2" d="M207.67,-65.79C204.33,-55.93 198.93,-44.53 190.5,-37 178.56,-26.34 162.27,-19.96 147.36,-16.15"/>
<polygon fill="#9a32cd" stroke="#9a32cd" points="204.25,-66.57 210.36,-75.23 210.98,-64.65 204.25,-66.57"/>
<text text-anchor="middle" x="236.5" y="-51" font-family="Helvetica,sans-Serif" font-size="10.00"> data3DSize</text>
<text text-anchor="middle" x="236.5" y="-40" font-family="Helvetica,sans-Serif" font-size="10.00">images2DSize</text>
</g>
</g>
</svg>
