<?xml version="1.0" encoding="UTF-8" standalone="no"?>
<!DOCTYPE svg PUBLIC "-//W3C//DTD SVG 1.1//EN"
 "http://www.w3.org/Graphics/SVG/1.1/DTD/svg11.dtd">
<!-- Generated by graphviz version 8.1.0 (20230707.0739)
 -->
<!-- Title: e57::E57Root Pages: 1 -->
<svg width="275pt" height="172pt"
 viewBox="0.00 0.00 275.00 171.50" xmlns="http://www.w3.org/2000/svg" xmlns:xlink="http://www.w3.org/1999/xlink">
<g id="graph0" class="graph" transform="scale(1 1) rotate(0) translate(4 167.5)">
<title>e57::E57Root</title>
<!-- Node1 -->
<g id="node1" class="node">
<title>Node1</title>
<g id="a_node1"><a xlink:title="Stores the top&#45;level information for the XML section of the file.">
<polygon fill="#999999" stroke="#666666" points="146.25,-19.25 70.25,-19.25 70.25,0 146.25,0 146.25,-19.25"/>
<text text-anchor="middle" x="108.25" y="-5.75" font-family="Helvetica,sans-Serif" font-size="10.00">e57::E57Root</text>
</a>
</g>
</g>
<!-- Node2 -->
<g id="node2" class="node">
<title>Node2</title>
<g id="a_node2"><a xlink:title=" ">
<polygon fill="white" stroke="#666666" points="50.5,-97 0,-97 0,-77.75 50.5,-77.75 50.5,-97"/>
<text text-anchor="middle" x="25.25" y="-83.5" font-family="Helvetica,sans-Serif" font-size="10.00">uint32_t</text>
</a>
</g>
</g>
<!-- Node2&#45;&gt;Node1 -->
<g id="edge1" class="edge">
<title>Node2&#45;&gt;Node1</title>
<path fill="none" stroke="#9a32cd" stroke-dasharray="5,2" d="M29.57,-67.06C32.65,-57.09 37.7,-45.36 45.75,-37.25 53.56,-29.38 64.06,-23.7 74.22,-19.66"/>
<polygon fill="#9a32cd" stroke="#9a32cd" points="25.95,-66.06 26.81,-76.62 32.72,-67.83 25.95,-66.06"/>
<text text-anchor="middle" x="74.5" y="-50.25" font-family="Helvetica,sans-Serif" font-size="10.00"> versionMajor</text>
<text text-anchor="middle" x="74.5" y="-39" font-family="Helvetica,sans-Serif" font-size="10.00">versionMinor</text>
</g>
<!-- Node3 -->
<g id="node3" class="node">
<title>Node3</title>
<g id="a_node3"><a xlink:href="../../d1/dd7/structe57_1_1_date_time.html" target="_top" xlink:title="Encodes date and time.">
<polygon fill="white" stroke="#666666" points="149.5,-97 69,-97 69,-77.75 149.5,-77.75 149.5,-97"/>
<text text-anchor="middle" x="109.25" y="-83.5" font-family="Helvetica,sans-Serif" font-size="10.00">e57::DateTime</text>
</a>
</g>
</g>
<!-- Node3&#45;&gt;Node1 -->
<g id="edge2" class="edge">
<title>Node3&#45;&gt;Node1</title>
<path fill="none" stroke="#9a32cd" stroke-dasharray="5,2" d="M108.99,-66.55C108.79,-51.35 108.52,-31.1 108.37,-19.6"/>
<polygon fill="#9a32cd" stroke="#9a32cd" points="105.5,-66.44 109.13,-76.39 112.5,-66.34 105.5,-66.44"/>
<text text-anchor="middle" x="148.38" y="-44.62" font-family="Helvetica,sans-Serif" font-size="10.00"> creationDateTime</text>
</g>
<!-- Node4 -->
<g id="node4" class="node">
<title>Node4</title>
<g id="a_node4"><a xlink:title=" ">
<polygon fill="white" stroke="#666666" points="131.88,-163.5 86.62,-163.5 86.62,-144.25 131.88,-144.25 131.88,-163.5"/>
<text text-anchor="middle" x="109.25" y="-150" font-family="Helvetica,sans-Serif" font-size="10.00">int32_t</text>
</a>
</g>
</g>
<!-- Node4&#45;&gt;Node3 -->
<g id="edge3" class="edge">
<title>Node4&#45;&gt;Node3</title>
<path fill="none" stroke="#9a32cd" stroke-dasharray="5,2" d="M109.25,-133.15C109.25,-121.18 109.25,-106.48 109.25,-97.27"/>
<polygon fill="#9a32cd" stroke="#9a32cd" points="105.75,-132.91 109.25,-142.91 112.75,-132.91 105.75,-132.91"/>
<text text-anchor="middle" x="167.75" y="-116.75" font-family="Helvetica,sans-Serif" font-size="10.00"> isAtomicClockReferenced</text>
</g>
<!-- Node5 -->
<g id="node5" class="node">
<title>Node5</title>
<g id="a_node5"><a xlink:title=" ">
<polygon fill="white" stroke="#666666" points="233.88,-97 188.62,-97 188.62,-77.75 233.88,-77.75 233.88,-97"/>
<text text-anchor="middle" x="211.25" y="-83.5" font-family="Helvetica,sans-Serif" font-size="10.00">int64_t</text>
</a>
</g>
</g>
<!-- Node5&#45;&gt;Node1 -->
<g id="edge4" class="edge">
<title>Node5&#45;&gt;Node1</title>
<path fill="none" stroke="#9a32cd" stroke-dasharray="5,2" d="M206.68,-67.09C203.37,-56.96 197.92,-45.07 189.25,-37.25 177.49,-26.64 161.41,-20.25 146.67,-16.41"/>
<polygon fill="#9a32cd" stroke="#9a32cd" points="203.51,-67.76 209.55,-76.45 210.25,-65.88 203.51,-67.76"/>
<text text-anchor="middle" x="235.12" y="-50.25" font-family="Helvetica,sans-Serif" font-size="10.00"> data3DSize</text>
<text text-anchor="middle" x="235.12" y="-39" font-family="Helvetica,sans-Serif" font-size="10.00">images2DSize</text>
</g>
</g>
</svg>
