<svg height="170pt" viewBox="0 0 276.5 170" width="277pt" xmlns="http://www.w3.org/2000/svg" xmlns:xlink="http://www.w3.org/1999/xlink"><g transform="translate(4 166)"><a xlink:title="Stores the top&#45;level information for the XML section of the file."><path d="m147-19h-77v19h77z" fill="#999" stroke="#666"/><text font-family="Helvetica,sans-Serif" font-size="10" text-anchor="middle" x="108.5" y="-7">e57::E57Root</text></a><a xlink:title=""><path d="m51-96h-51v19h51z" fill="#fff" stroke="#666"/><text font-family="Helvetica,sans-Serif" font-size="10" text-anchor="middle" x="25.5" y="-84">uint32_t</text></a><g><path d="m29.46-67.06c2.96 9.98 7.93 21.9 16.04 30.06 8.11 8.17 19.12 13.95 29.67 17.98" fill="none" stroke="#9a32cd" stroke-dasharray="5 2"/><path d="m26.04-66.3.94-10.55 5.84 8.84z" fill="#9a32cd" stroke="#9a32cd"/><g font-family="Helvetica,sans-Serif" font-size="10" text-anchor="middle"><text x="75" y="-51">versionMajor</text><text x="75" y="-40">versionMinor</text></g></g><a target="_top" xlink:href="../../d1/dd7/structe57_1_1_date_time.html" xlink:title="Encodes date and time."><path d="m150-96h-81v19h81z" fill="#fff" stroke="#666"/><text font-family="Helvetica,sans-Serif" font-size="10" text-anchor="middle" x="109.5" y="-84">e57::DateTime</text></a><g><path d="m109.25-66.52c-.21 15.28-.48 36.04-.64 47.52" fill="none" stroke="#9a32cd" stroke-dasharray="5 2"/><path d="m105.75-66.94 3.64-9.96 3.36 10.05z" fill="#9a32cd" stroke="#9a32cd"/><text font-family="Helvetica,sans-Serif" font-size="10" text-anchor="middle" x="149" y="-45.5">creationDateTime</text></g><a xlink:title=""><path d="m132.5-162h-46v19h46z" fill="#fff" stroke="#666"/><text font-family="Helvetica,sans-Serif" font-size="10" text-anchor="middle" x="109.5" y="-150">int32_t</text></a><g><path d="m109.5-132.58v36.17" fill="none" stroke="#9a32cd" stroke-dasharray="5 2"/><path d="m106-132.87 3.5-10 3.5 10z" fill="#9a32cd" stroke="#9a32cd"/><text font-family="Helvetica,sans-Serif" font-size="10" text-anchor="middle" x="168.5" y="-117">isAtomicClockReferenced</text></g><a xlink:title=""><path d="m235.5-96h-46v19h46z" fill="#fff" stroke="#666"/><text font-family="Helvetica,sans-Serif" font-size="10" text-anchor="middle" x="212.5" y="-84">int64_t</text></a><g><path d="m207.99-66.76c-3.31 10.07-8.78 21.98-17.49 29.76-11.94 10.66-28.23 17.04-43.14 20.85" fill="none" stroke="#9a32cd" stroke-dasharray="5 2"/><path d="m204.7-68 6.08-8.68.66 10.57z" fill="#9a32cd" stroke="#9a32cd"/><g font-family="Helvetica,sans-Serif" font-size="10" text-anchor="middle"><text x="236.5" y="-51">data3DSize</text><text x="236.5" y="-40">images2DSize</text></g></g></g></svg>