<?xml version="1.0" encoding="UTF-8" standalone="no"?>
<!DOCTYPE svg PUBLIC "-//W3C//DTD SVG 1.1//EN"
 "http://www.w3.org/Graphics/SVG/1.1/DTD/svg11.dtd">
<!-- Generated by graphviz version 9.0.0 (20230911.1827)
 -->
<!-- Title: e57::E57Root Pages: 1 -->
<svg width="275pt" height="172pt"
 viewBox="0.00 0.00 275.00 171.50" xmlns="http://www.w3.org/2000/svg" xmlns:xlink="http://www.w3.org/1999/xlink">
<g id="graph0" class="graph" transform="scale(1 1) rotate(0) translate(4 167.5)">
<title>e57::E57Root</title>
<!-- Node1 -->
<g id="node1" class="node">
<title>Node1</title>
<g id="a_node1"><a xlink:title="Stores the top&#45;level information for the XML section of the file.">
<polygon fill="#999999" stroke="#666666" points="146.25,-19.25 70.25,-19.25 70.25,0 146.25,0 146.25,-19.25"/>
<text text-anchor="middle" x="108.25" y="-5.75" font-family="Helvetica,sans-Serif" font-size="10.00">e57::E57Root</text>
</a>
</g>
</g>
<!-- Node2 -->
<g id="node2" class="node">
<title>Node2</title>
<g id="a_node2"><a xlink:title=" ">
<polygon fill="white" stroke="#666666" points="50.5,-97 0,-97 0,-77.75 50.5,-77.75 50.5,-97"/>
<text text-anchor="middle" x="25.25" y="-83.5" font-family="Helvetica,sans-Serif" font-size="10.00">uint32_t</text>
</a>
</g>
</g>
<!-- Node2&#45;&gt;Node1 -->
<g id="edge1" class="edge">
<title>Node2&#45;&gt;Node1</title>
<path fill="none" stroke="#9a32cd" stroke-dasharray="5,2" d="M29.67,-66.73C32.76,-56.84 37.79,-45.27 45.75,-37.25 53.56,-29.38 64.06,-23.7 74.22,-19.66"/>
<polygon fill="#9a32cd" stroke="#9a32cd" points="26.35,-65.6 27.19,-76.16 33.12,-67.38 26.35,-65.6"/>
<text text-anchor="middle" x="74.5" y="-50.25" font-family="Helvetica,sans-Serif" font-size="10.00"> versionMajor</text>
<text text-anchor="middle" x="74.5" y="-39" font-family="Helvetica,sans-Serif" font-size="10.00">versionMinor</text>
</g>
<!-- Node3 -->
<g id="node3" class="node">
<title>Node3</title>
<g id="a_node3"><a xlink:href="../../d1/dd7/structe57_1_1_date_time.html" target="_top" xlink:title="Encodes date and time.">
<polygon fill="white" stroke="#666666" points="149.5,-97 69,-97 69,-77.75 149.5,-77.75 149.5,-97"/>
<text text-anchor="middle" x="109.25" y="-83.5" font-family="Helvetica,sans-Serif" font-size="10.00">e57::DateTime</text>
</a>
</g>
</g>
<!-- Node3&#45;&gt;Node1 -->
<g id="edge2" class="edge">
<title>Node3&#45;&gt;Node1</title>
<path fill="none" stroke="#9a32cd" stroke-dasharray="5,2" d="M108.98,-66.1C108.78,-50.95 108.52,-30.98 108.37,-19.6"/>
<polygon fill="#9a32cd" stroke="#9a32cd" points="105.48,-65.92 109.11,-75.87 112.48,-65.83 105.48,-65.92"/>
<text text-anchor="middle" x="148.38" y="-44.62" font-family="Helvetica,sans-Serif" font-size="10.00"> creationDateTime</text>
</g>
<!-- Node4 -->
<g id="node4" class="node">
<title>Node4</title>
<g id="a_node4"><a xlink:title=" ">
<polygon fill="white" stroke="#666666" points="131.88,-163.5 86.62,-163.5 86.62,-144.25 131.88,-144.25 131.88,-163.5"/>
<text text-anchor="middle" x="109.25" y="-150" font-family="Helvetica,sans-Serif" font-size="10.00">int32_t</text>
</a>
</g>
</g>
<!-- Node4&#45;&gt;Node3 -->
<g id="edge3" class="edge">
<title>Node4&#45;&gt;Node3</title>
<path fill="none" stroke="#9a32cd" stroke-dasharray="5,2" d="M109.25,-132.4C109.25,-120.57 109.25,-106.29 109.25,-97.27"/>
<polygon fill="#9a32cd" stroke="#9a32cd" points="105.75,-132.39 109.25,-142.39 112.75,-132.39 105.75,-132.39"/>
<text text-anchor="middle" x="167.75" y="-116.75" font-family="Helvetica,sans-Serif" font-size="10.00"> isAtomicClockReferenced</text>
</g>
<!-- Node5 -->
<g id="node5" class="node">
<title>Node5</title>
<g id="a_node5"><a xlink:title=" ">
<polygon fill="white" stroke="#666666" points="233.88,-97 188.62,-97 188.62,-77.75 233.88,-77.75 233.88,-97"/>
<text text-anchor="middle" x="211.25" y="-83.5" font-family="Helvetica,sans-Serif" font-size="10.00">int64_t</text>
</a>
</g>
</g>
<!-- Node5&#45;&gt;Node1 -->
<g id="edge4" class="edge">
<title>Node5&#45;&gt;Node1</title>
<path fill="none" stroke="#9a32cd" stroke-dasharray="5,2" d="M206.46,-66.43C203.14,-56.45 197.74,-44.9 189.25,-37.25 177.49,-26.64 161.41,-20.25 146.67,-16.41"/>
<polygon fill="#9a32cd" stroke="#9a32cd" points="203.07,-67.32 209.15,-76 209.81,-65.42 203.07,-67.32"/>
<text text-anchor="middle" x="235.12" y="-50.25" font-family="Helvetica,sans-Serif" font-size="10.00"> data3DSize</text>
<text text-anchor="middle" x="235.12" y="-39" font-family="Helvetica,sans-Serif" font-size="10.00">images2DSize</text>
</g>
</g>
</svg>
