<?xml version="1.0" encoding="UTF-8" standalone="no"?>
<!DOCTYPE svg PUBLIC "-//W3C//DTD SVG 1.1//EN"
 "http://www.w3.org/Graphics/SVG/1.1/DTD/svg11.dtd">
<!-- Generated by graphviz version 2.49.0 (20210828.1703)
 -->
<!-- Title: ImageFileImpl.cpp Pages: 1 -->
<svg width="828pt" height="364pt"
 viewBox="0.00 0.00 828.00 364.00" xmlns="http://www.w3.org/2000/svg" xmlns:xlink="http://www.w3.org/1999/xlink">
<g id="graph0" class="graph" transform="scale(1 1) rotate(0) translate(4 360)">
<title>ImageFileImpl.cpp</title>
<polygon fill="white" stroke="transparent" points="-4,4 -4,-360 824,-360 824,4 -4,4"/>
<!-- Node1 -->
<g id="node1" class="node">
<title>Node1</title>
<g id="a_node1"><a xlink:title=" ">
<polygon fill="#bfbfbf" stroke="black" points="257.5,-336.5 257.5,-355.5 355.5,-355.5 355.5,-336.5 257.5,-336.5"/>
<text text-anchor="middle" x="306.5" y="-343.5" font-family="Helvetica,sans-Serif" font-size="10.00">ImageFileImpl.cpp</text>
</a>
</g>
</g>
<!-- Node2 -->
<g id="node2" class="node">
<title>Node2</title>
<g id="a_node2"><a xlink:href="../../da/d09/_image_file_impl_8h.html" target="_top" xlink:title=" ">
<polygon fill="white" stroke="black" points="27.5,-224.5 27.5,-243.5 115.5,-243.5 115.5,-224.5 27.5,-224.5"/>
<text text-anchor="middle" x="71.5" y="-231.5" font-family="Helvetica,sans-Serif" font-size="10.00">ImageFileImpl.h</text>
</a>
</g>
</g>
<!-- Node1&#45;&gt;Node2 -->
<g id="edge1" class="edge">
<title>Node1&#45;&gt;Node2</title>
<path fill="none" stroke="midnightblue" d="M257.5,-337.22C224.43,-330.59 180.58,-319.01 145.5,-300 121.91,-287.21 99.43,-265.68 85.57,-250.92"/>
<polygon fill="midnightblue" stroke="midnightblue" points="88.13,-248.54 78.8,-243.52 82.97,-253.26 88.13,-248.54"/>
</g>
<!-- Node16 -->
<g id="node16" class="node">
<title>Node16</title>
<g id="a_node16"><a xlink:href="../../dd/d41/_checked_file_8h.html" target="_top" xlink:title=" ">
<polygon fill="white" stroke="black" points="154.5,-280.5 154.5,-299.5 234.5,-299.5 234.5,-280.5 154.5,-280.5"/>
<text text-anchor="middle" x="194.5" y="-287.5" font-family="Helvetica,sans-Serif" font-size="10.00">CheckedFile.h</text>
</a>
</g>
</g>
<!-- Node1&#45;&gt;Node16 -->
<g id="edge19" class="edge">
<title>Node1&#45;&gt;Node16</title>
<path fill="none" stroke="midnightblue" d="M288.51,-336.32C270.46,-327.62 242.45,-314.12 221.7,-304.11"/>
<polygon fill="midnightblue" stroke="midnightblue" points="222.98,-300.84 212.45,-299.65 219.94,-307.15 222.98,-300.84"/>
</g>
<!-- Node18 -->
<g id="node18" class="node">
<title>Node18</title>
<g id="a_node18"><a xlink:href="../../d3/df2/_e57_version_8h.html" target="_top" xlink:title=" ">
<polygon fill="white" stroke="black" points="643.5,-280.5 643.5,-299.5 719.5,-299.5 719.5,-280.5 643.5,-280.5"/>
<text text-anchor="middle" x="681.5" y="-287.5" font-family="Helvetica,sans-Serif" font-size="10.00">E57Version.h</text>
</a>
</g>
</g>
<!-- Node1&#45;&gt;Node18 -->
<g id="edge22" class="edge">
<title>Node1&#45;&gt;Node18</title>
<path fill="none" stroke="midnightblue" d="M355.52,-337.94C427.62,-327.56 561.43,-308.29 633.14,-297.96"/>
<polygon fill="midnightblue" stroke="midnightblue" points="633.86,-301.4 643.26,-296.51 632.86,-294.47 633.86,-301.4"/>
</g>
<!-- Node20 -->
<g id="node20" class="node">
<title>Node20</title>
<g id="a_node20"><a xlink:href="../../da/dee/_e57_xml_parser_8h.html" target="_top" xlink:title=" ">
<polygon fill="white" stroke="black" points="420,-280.5 420,-299.5 509,-299.5 509,-280.5 420,-280.5"/>
<text text-anchor="middle" x="464.5" y="-287.5" font-family="Helvetica,sans-Serif" font-size="10.00">E57XmlParser.h</text>
</a>
</g>
</g>
<!-- Node1&#45;&gt;Node20 -->
<g id="edge24" class="edge">
<title>Node1&#45;&gt;Node20</title>
<path fill="none" stroke="midnightblue" d="M331.54,-336.44C358.12,-327.36 400.31,-312.94 430.02,-302.78"/>
<polygon fill="midnightblue" stroke="midnightblue" points="431.25,-306.06 439.58,-299.52 428.99,-299.44 431.25,-306.06"/>
</g>
<!-- Node24 -->
<g id="node24" class="node">
<title>Node24</title>
<g id="a_node24"><a xlink:href="../../d4/dd2/_structure_node_impl_8h.html" target="_top" xlink:title=" ">
<polygon fill="white" stroke="black" points="252.5,-280.5 252.5,-299.5 360.5,-299.5 360.5,-280.5 252.5,-280.5"/>
<text text-anchor="middle" x="306.5" y="-287.5" font-family="Helvetica,sans-Serif" font-size="10.00">StructureNodeImpl.h</text>
</a>
</g>
</g>
<!-- Node1&#45;&gt;Node24 -->
<g id="edge29" class="edge">
<title>Node1&#45;&gt;Node24</title>
<path fill="none" stroke="midnightblue" d="M306.5,-336.08C306.5,-329.01 306.5,-318.86 306.5,-309.99"/>
<polygon fill="midnightblue" stroke="midnightblue" points="310,-309.75 306.5,-299.75 303,-309.75 310,-309.75"/>
</g>
<!-- Node3 -->
<g id="node3" class="node">
<title>Node3</title>
<g id="a_node3"><a xlink:title=" ">
<polygon fill="white" stroke="#bfbfbf" points="0,-56.5 0,-75.5 53,-75.5 53,-56.5 0,-56.5"/>
<text text-anchor="middle" x="26.5" y="-63.5" font-family="Helvetica,sans-Serif" font-size="10.00">memory</text>
</a>
</g>
</g>
<!-- Node2&#45;&gt;Node3 -->
<g id="edge2" class="edge">
<title>Node2&#45;&gt;Node3</title>
<path fill="none" stroke="midnightblue" d="M69.08,-224.08C62,-197.95 41.2,-121.21 31.54,-85.58"/>
<polygon fill="midnightblue" stroke="midnightblue" points="34.82,-84.3 28.82,-75.57 28.06,-86.14 34.82,-84.3"/>
</g>
<!-- Node4 -->
<g id="node4" class="node">
<title>Node4</title>
<g id="a_node4"><a xlink:href="../../db/d1f/_common_8h.html" target="_top" xlink:title=" ">
<polygon fill="white" stroke="black" points="249,-168.5 249,-187.5 314,-187.5 314,-168.5 249,-168.5"/>
<text text-anchor="middle" x="281.5" y="-175.5" font-family="Helvetica,sans-Serif" font-size="10.00">Common.h</text>
</a>
</g>
</g>
<!-- Node2&#45;&gt;Node4 -->
<g id="edge3" class="edge">
<title>Node2&#45;&gt;Node4</title>
<path fill="none" stroke="midnightblue" d="M104.78,-224.44C141.05,-215.11 199.22,-200.16 238.83,-189.97"/>
<polygon fill="midnightblue" stroke="midnightblue" points="239.91,-193.31 248.73,-187.43 238.17,-186.53 239.91,-193.31"/>
</g>
<!-- Node5 -->
<g id="node5" class="node">
<title>Node5</title>
<g id="a_node5"><a xlink:title=" ">
<polygon fill="white" stroke="#bfbfbf" points="188.5,-112.5 188.5,-131.5 240.5,-131.5 240.5,-112.5 188.5,-112.5"/>
<text text-anchor="middle" x="214.5" y="-119.5" font-family="Helvetica,sans-Serif" font-size="10.00">iomanip</text>
</a>
</g>
</g>
<!-- Node4&#45;&gt;Node5 -->
<g id="edge4" class="edge">
<title>Node4&#45;&gt;Node5</title>
<path fill="none" stroke="midnightblue" d="M270.74,-168.32C260.73,-160.26 245.61,-148.08 233.57,-138.37"/>
<polygon fill="midnightblue" stroke="midnightblue" points="235.44,-135.38 225.46,-131.83 231.05,-140.83 235.44,-135.38"/>
</g>
<!-- Node6 -->
<g id="node6" class="node">
<title>Node6</title>
<g id="a_node6"><a xlink:title=" ">
<polygon fill="white" stroke="#bfbfbf" points="220,-0.5 220,-19.5 275,-19.5 275,-0.5 220,-0.5"/>
<text text-anchor="middle" x="247.5" y="-7.5" font-family="Helvetica,sans-Serif" font-size="10.00">iostream</text>
</a>
</g>
</g>
<!-- Node4&#45;&gt;Node6 -->
<g id="edge5" class="edge">
<title>Node4&#45;&gt;Node6</title>
<path fill="none" stroke="midnightblue" d="M284.2,-168.42C290.13,-148.09 302.6,-95.71 287.5,-56 283.16,-44.6 274.47,-34.24 266.29,-26.34"/>
<polygon fill="midnightblue" stroke="midnightblue" points="268.54,-23.66 258.77,-19.57 263.86,-28.86 268.54,-23.66"/>
</g>
<!-- Node7 -->
<g id="node7" class="node">
<title>Node7</title>
<g id="a_node7"><a xlink:title=" ">
<polygon fill="white" stroke="#bfbfbf" points="334.5,-112.5 334.5,-131.5 364.5,-131.5 364.5,-112.5 334.5,-112.5"/>
<text text-anchor="middle" x="349.5" y="-119.5" font-family="Helvetica,sans-Serif" font-size="10.00">set</text>
</a>
</g>
</g>
<!-- Node4&#45;&gt;Node7 -->
<g id="edge6" class="edge">
<title>Node4&#45;&gt;Node7</title>
<path fill="none" stroke="midnightblue" d="M292.43,-168.32C302.67,-160.18 318.22,-147.84 330.5,-138.09"/>
<polygon fill="midnightblue" stroke="midnightblue" points="332.72,-140.79 338.38,-131.83 328.37,-135.31 332.72,-140.79"/>
</g>
<!-- Node8 -->
<g id="node8" class="node">
<title>Node8</title>
<g id="a_node8"><a xlink:title=" ">
<polygon fill="white" stroke="#bfbfbf" points="382.5,-112.5 382.5,-131.5 434.5,-131.5 434.5,-112.5 382.5,-112.5"/>
<text text-anchor="middle" x="408.5" y="-119.5" font-family="Helvetica,sans-Serif" font-size="10.00">sstream</text>
</a>
</g>
</g>
<!-- Node4&#45;&gt;Node8 -->
<g id="edge7" class="edge">
<title>Node4&#45;&gt;Node8</title>
<path fill="none" stroke="midnightblue" d="M301.62,-168.44C322.52,-159.56 355.43,-145.56 379.22,-135.45"/>
<polygon fill="midnightblue" stroke="midnightblue" points="380.64,-138.65 388.47,-131.52 377.9,-132.21 380.64,-138.65"/>
</g>
<!-- Node9 -->
<g id="node9" class="node">
<title>Node9</title>
<g id="a_node9"><a xlink:title=" ">
<polygon fill="white" stroke="#bfbfbf" points="346,-0.5 346,-19.5 387,-19.5 387,-0.5 346,-0.5"/>
<text text-anchor="middle" x="366.5" y="-7.5" font-family="Helvetica,sans-Serif" font-size="10.00">string</text>
</a>
</g>
</g>
<!-- Node4&#45;&gt;Node9 -->
<g id="edge8" class="edge">
<title>Node4&#45;&gt;Node9</title>
<path fill="none" stroke="midnightblue" d="M314.16,-172.61C356.81,-166.13 427.91,-152.51 443.5,-132 471.32,-95.4 418.95,-48.65 387.6,-25.43"/>
<polygon fill="midnightblue" stroke="midnightblue" points="389.56,-22.53 379.4,-19.54 385.47,-28.21 389.56,-22.53"/>
</g>
<!-- Node10 -->
<g id="node10" class="node">
<title>Node10</title>
<g id="a_node10"><a xlink:title=" ">
<polygon fill="white" stroke="#bfbfbf" points="234.5,-56.5 234.5,-75.5 278.5,-75.5 278.5,-56.5 234.5,-56.5"/>
<text text-anchor="middle" x="256.5" y="-63.5" font-family="Helvetica,sans-Serif" font-size="10.00">vector</text>
</a>
</g>
</g>
<!-- Node4&#45;&gt;Node10 -->
<g id="edge9" class="edge">
<title>Node4&#45;&gt;Node10</title>
<path fill="none" stroke="midnightblue" d="M279.54,-168.37C275.5,-150.62 266.2,-109.67 260.73,-85.6"/>
<polygon fill="midnightblue" stroke="midnightblue" points="264.08,-84.57 258.45,-75.59 257.26,-86.12 264.08,-84.57"/>
</g>
<!-- Node11 -->
<g id="node11" class="node">
<title>Node11</title>
<g id="a_node11"><a xlink:href="../../d1/df2/_e57_format_8h.html" target="_top" xlink:title="header file for the E57 API">
<polygon fill="white" stroke="black" points="96.5,-112.5 96.5,-131.5 170.5,-131.5 170.5,-112.5 96.5,-112.5"/>
<text text-anchor="middle" x="133.5" y="-119.5" font-family="Helvetica,sans-Serif" font-size="10.00">E57Format.h</text>
</a>
</g>
</g>
<!-- Node4&#45;&gt;Node11 -->
<g id="edge10" class="edge">
<title>Node4&#45;&gt;Node11</title>
<path fill="none" stroke="midnightblue" d="M258.05,-168.44C233.37,-159.44 194.31,-145.19 166.52,-135.05"/>
<polygon fill="midnightblue" stroke="midnightblue" points="167.44,-131.66 156.84,-131.52 165.04,-138.23 167.44,-131.66"/>
</g>
<!-- Node11&#45;&gt;Node3 -->
<g id="edge12" class="edge">
<title>Node11&#45;&gt;Node3</title>
<path fill="none" stroke="midnightblue" d="M116.31,-112.32C99.15,-103.66 72.55,-90.24 52.75,-80.25"/>
<polygon fill="midnightblue" stroke="midnightblue" points="54.15,-77.04 43.65,-75.65 51,-83.28 54.15,-77.04"/>
</g>
<!-- Node11&#45;&gt;Node10 -->
<g id="edge13" class="edge">
<title>Node11&#45;&gt;Node10</title>
<path fill="none" stroke="midnightblue" d="M152.99,-112.44C173.14,-103.6 204.82,-89.69 227.83,-79.59"/>
<polygon fill="midnightblue" stroke="midnightblue" points="229.35,-82.74 237.1,-75.52 226.54,-76.33 229.35,-82.74"/>
</g>
<!-- Node12 -->
<g id="node12" class="node">
<title>Node12</title>
<g id="a_node12"><a xlink:title=" ">
<polygon fill="white" stroke="#bfbfbf" points="176.5,-56.5 176.5,-75.5 216.5,-75.5 216.5,-56.5 176.5,-56.5"/>
<text text-anchor="middle" x="196.5" y="-63.5" font-family="Helvetica,sans-Serif" font-size="10.00">cfloat</text>
</a>
</g>
</g>
<!-- Node11&#45;&gt;Node12 -->
<g id="edge11" class="edge">
<title>Node11&#45;&gt;Node12</title>
<path fill="none" stroke="midnightblue" d="M143.62,-112.32C153.03,-104.26 167.24,-92.08 178.57,-82.37"/>
<polygon fill="midnightblue" stroke="midnightblue" points="180.88,-85 186.19,-75.83 176.32,-79.68 180.88,-85"/>
</g>
<!-- Node13 -->
<g id="node13" class="node">
<title>Node13</title>
<g id="a_node13"><a xlink:href="../../d4/d6e/_e57_exception_8h.html" target="_top" xlink:title=" ">
<polygon fill="white" stroke="black" points="71,-56.5 71,-75.5 158,-75.5 158,-56.5 71,-56.5"/>
<text text-anchor="middle" x="114.5" y="-63.5" font-family="Helvetica,sans-Serif" font-size="10.00">E57Exception.h</text>
</a>
</g>
</g>
<!-- Node11&#45;&gt;Node13 -->
<g id="edge14" class="edge">
<title>Node11&#45;&gt;Node13</title>
<path fill="none" stroke="midnightblue" d="M130.36,-112.08C127.82,-104.85 124.14,-94.41 120.97,-85.4"/>
<polygon fill="midnightblue" stroke="midnightblue" points="124.2,-84.02 117.58,-75.75 117.6,-86.35 124.2,-84.02"/>
</g>
<!-- Node13&#45;&gt;Node6 -->
<g id="edge16" class="edge">
<title>Node13&#45;&gt;Node6</title>
<path fill="none" stroke="midnightblue" d="M135.57,-56.44C157.56,-47.52 192.23,-33.44 217.16,-23.32"/>
<polygon fill="midnightblue" stroke="midnightblue" points="218.58,-26.52 226.52,-19.52 215.94,-20.04 218.58,-26.52"/>
</g>
<!-- Node13&#45;&gt;Node9 -->
<g id="edge17" class="edge">
<title>Node13&#45;&gt;Node9</title>
<path fill="none" stroke="midnightblue" d="M154.43,-56.44C204.9,-45.63 290.67,-27.25 336.12,-17.51"/>
<polygon fill="midnightblue" stroke="midnightblue" points="336.93,-20.92 345.98,-15.4 335.47,-14.07 336.93,-20.92"/>
</g>
<!-- Node14 -->
<g id="node14" class="node">
<title>Node14</title>
<g id="a_node14"><a xlink:title=" ">
<polygon fill="white" stroke="#bfbfbf" points="127,-0.5 127,-19.5 186,-19.5 186,-0.5 127,-0.5"/>
<text text-anchor="middle" x="156.5" y="-7.5" font-family="Helvetica,sans-Serif" font-size="10.00">exception</text>
</a>
</g>
</g>
<!-- Node13&#45;&gt;Node14 -->
<g id="edge15" class="edge">
<title>Node13&#45;&gt;Node14</title>
<path fill="none" stroke="midnightblue" d="M121.44,-56.08C127.43,-48.38 136.25,-37.03 143.55,-27.65"/>
<polygon fill="midnightblue" stroke="midnightblue" points="146.32,-29.79 149.69,-19.75 140.79,-25.5 146.32,-29.79"/>
</g>
<!-- Node15 -->
<g id="node15" class="node">
<title>Node15</title>
<g id="a_node15"><a xlink:title=" ">
<polygon fill="white" stroke="#bfbfbf" points="36.5,-0.5 36.5,-19.5 108.5,-19.5 108.5,-0.5 36.5,-0.5"/>
<text text-anchor="middle" x="72.5" y="-7.5" font-family="Helvetica,sans-Serif" font-size="10.00">E57Export.h</text>
</a>
</g>
</g>
<!-- Node13&#45;&gt;Node15 -->
<g id="edge18" class="edge">
<title>Node13&#45;&gt;Node15</title>
<path fill="none" stroke="midnightblue" d="M107.56,-56.08C101.57,-48.38 92.75,-37.03 85.45,-27.65"/>
<polygon fill="midnightblue" stroke="midnightblue" points="88.21,-25.5 79.31,-19.75 82.68,-29.79 88.21,-25.5"/>
</g>
<!-- Node16&#45;&gt;Node4 -->
<g id="edge21" class="edge">
<title>Node16&#45;&gt;Node4</title>
<path fill="none" stroke="midnightblue" d="M199.76,-280.26C207.6,-267.47 223.1,-243.09 238.5,-224 246.73,-213.8 256.81,-203.17 265.14,-194.8"/>
<polygon fill="midnightblue" stroke="midnightblue" points="267.82,-197.08 272.47,-187.56 262.9,-192.1 267.82,-197.08"/>
</g>
<!-- Node17 -->
<g id="node17" class="node">
<title>Node17</title>
<g id="a_node17"><a xlink:title=" ">
<polygon fill="white" stroke="#bfbfbf" points="133.5,-224.5 133.5,-243.5 191.5,-243.5 191.5,-224.5 133.5,-224.5"/>
<text text-anchor="middle" x="162.5" y="-231.5" font-family="Helvetica,sans-Serif" font-size="10.00">algorithm</text>
</a>
</g>
</g>
<!-- Node16&#45;&gt;Node17 -->
<g id="edge20" class="edge">
<title>Node16&#45;&gt;Node17</title>
<path fill="none" stroke="midnightblue" d="M189.22,-280.08C184.79,-272.61 178.34,-261.72 172.88,-252.52"/>
<polygon fill="midnightblue" stroke="midnightblue" points="175.79,-250.57 167.69,-243.75 169.77,-254.14 175.79,-250.57"/>
</g>
<!-- Node19 -->
<g id="node19" class="node">
<title>Node19</title>
<g id="a_node19"><a xlink:title=" ">
<polygon fill="white" stroke="#bfbfbf" points="775,-224.5 775,-243.5 820,-243.5 820,-224.5 775,-224.5"/>
<text text-anchor="middle" x="797.5" y="-231.5" font-family="Helvetica,sans-Serif" font-size="10.00">cstdint</text>
</a>
</g>
</g>
<!-- Node18&#45;&gt;Node19 -->
<g id="edge23" class="edge">
<title>Node18&#45;&gt;Node19</title>
<path fill="none" stroke="midnightblue" d="M699.88,-280.44C718.72,-271.68 748.23,-257.94 769.88,-247.86"/>
<polygon fill="midnightblue" stroke="midnightblue" points="771.62,-250.91 779.21,-243.52 768.66,-244.56 771.62,-250.91"/>
</g>
<!-- Node20&#45;&gt;Node4 -->
<g id="edge28" class="edge">
<title>Node20&#45;&gt;Node4</title>
<path fill="none" stroke="midnightblue" d="M509.24,-288.03C576.85,-285.52 700.1,-276.49 727.5,-244 733.23,-237.21 733.46,-230.59 727.5,-224 700.73,-194.39 430.4,-183.34 324.1,-180.12"/>
<polygon fill="midnightblue" stroke="midnightblue" points="324.14,-176.62 314.05,-179.82 323.94,-183.61 324.14,-176.62"/>
</g>
<!-- Node21 -->
<g id="node21" class="node">
<title>Node21</title>
<g id="a_node21"><a xlink:title=" ">
<polygon fill="white" stroke="#bfbfbf" points="333.5,-224.5 333.5,-243.5 373.5,-243.5 373.5,-224.5 333.5,-224.5"/>
<text text-anchor="middle" x="353.5" y="-231.5" font-family="Helvetica,sans-Serif" font-size="10.00">stack</text>
</a>
</g>
</g>
<!-- Node20&#45;&gt;Node21 -->
<g id="edge25" class="edge">
<title>Node20&#45;&gt;Node21</title>
<path fill="none" stroke="midnightblue" d="M446.67,-280.32C428.78,-271.62 401.02,-258.12 380.45,-248.11"/>
<polygon fill="midnightblue" stroke="midnightblue" points="381.81,-244.88 371.29,-243.65 378.75,-251.18 381.81,-244.88"/>
</g>
<!-- Node22 -->
<g id="node22" class="node">
<title>Node22</title>
<g id="a_node22"><a xlink:title=" ">
<polygon fill="white" stroke="#bfbfbf" points="392,-224.5 392,-243.5 537,-243.5 537,-224.5 392,-224.5"/>
<text text-anchor="middle" x="464.5" y="-231.5" font-family="Helvetica,sans-Serif" font-size="10.00">xercesc/sax/InputSource.hpp</text>
</a>
</g>
</g>
<!-- Node20&#45;&gt;Node22 -->
<g id="edge26" class="edge">
<title>Node20&#45;&gt;Node22</title>
<path fill="none" stroke="midnightblue" d="M464.5,-280.08C464.5,-273.01 464.5,-262.86 464.5,-253.99"/>
<polygon fill="midnightblue" stroke="midnightblue" points="468,-253.75 464.5,-243.75 461,-253.75 468,-253.75"/>
</g>
<!-- Node23 -->
<g id="node23" class="node">
<title>Node23</title>
<g id="a_node23"><a xlink:title=" ">
<polygon fill="white" stroke="#bfbfbf" points="555,-224.5 555,-243.5 718,-243.5 718,-224.5 555,-224.5"/>
<text text-anchor="middle" x="636.5" y="-231.5" font-family="Helvetica,sans-Serif" font-size="10.00">xercesc/sax2/DefaultHandler.hpp</text>
</a>
</g>
</g>
<!-- Node20&#45;&gt;Node23 -->
<g id="edge27" class="edge">
<title>Node20&#45;&gt;Node23</title>
<path fill="none" stroke="midnightblue" d="M491.75,-280.44C520.94,-271.28 567.42,-256.69 599.81,-246.52"/>
<polygon fill="midnightblue" stroke="midnightblue" points="600.88,-249.85 609.37,-243.52 598.78,-243.17 600.88,-249.85"/>
</g>
<!-- Node25 -->
<g id="node25" class="node">
<title>Node25</title>
<g id="a_node25"><a xlink:href="../../df/d7b/_node_impl_8h.html" target="_top" xlink:title=" ">
<polygon fill="white" stroke="black" points="247.5,-224.5 247.5,-243.5 315.5,-243.5 315.5,-224.5 247.5,-224.5"/>
<text text-anchor="middle" x="281.5" y="-231.5" font-family="Helvetica,sans-Serif" font-size="10.00">NodeImpl.h</text>
</a>
</g>
</g>
<!-- Node24&#45;&gt;Node25 -->
<g id="edge30" class="edge">
<title>Node24&#45;&gt;Node25</title>
<path fill="none" stroke="midnightblue" d="M302.37,-280.08C298.99,-272.77 294.08,-262.18 289.88,-253.1"/>
<polygon fill="midnightblue" stroke="midnightblue" points="292.93,-251.36 285.55,-243.75 286.58,-254.3 292.93,-251.36"/>
</g>
<!-- Node25&#45;&gt;Node4 -->
<g id="edge31" class="edge">
<title>Node25&#45;&gt;Node4</title>
<path fill="none" stroke="midnightblue" d="M281.5,-224.08C281.5,-217.01 281.5,-206.86 281.5,-197.99"/>
<polygon fill="midnightblue" stroke="midnightblue" points="285,-197.75 281.5,-187.75 278,-197.75 285,-197.75"/>
</g>
</g>
</svg>
