<?xml version="1.0" encoding="UTF-8" standalone="no"?>
<!DOCTYPE svg PUBLIC "-//W3C//DTD SVG 1.1//EN"
 "http://www.w3.org/Graphics/SVG/1.1/DTD/svg11.dtd">
<!-- Generated by graphviz version 7.0.0 (20221023.0053)
 -->
<!-- Title: ImageFileImpl.cpp Pages: 1 -->
<!--zoomable 357 -->
<svg id="main" version="1.1" xmlns="http://www.w3.org/2000/svg" xmlns:xlink="http://www.w3.org/1999/xlink" xml:space="preserve" onload="init(evt)">
<style type="text/css"><![CDATA[
.edge:hover path { stroke: red; }
.edge:hover polygon { stroke: red; fill: red; }
]]></style>
<script type="text/javascript"><![CDATA[
var edges = document.getElementsByTagName('g');
if (edges && edges.length) {
  for (var i=0;i<edges.length;i++) {
    if (edges[i].id.substr(0,4)=='edge') {
      edges[i].setAttribute('class','edge');
    }
  }
}
]]></script>
        <defs>
                <circle id="rim" cx="0" cy="0" r="7"/>
                <circle id="rim2" cx="0" cy="0" r="3.5"/>
                <g id="zoomPlus">
                        <use xlink:href="#rim" fill="#404040">
                                <set attributeName="fill" to="#808080" begin="zoomplus.mouseover" end="zoomplus.mouseout"/>
                        </use>
                        <path d="M-4,0h8M0,-4v8" fill="none" stroke="white" stroke-width="1.5" pointer-events="none"/>
                </g>
                <g id="zoomMin">
                        <use xlink:href="#rim" fill="#404040">
                                <set attributeName="fill" to="#808080" begin="zoomminus.mouseover" end="zoomminus.mouseout"/>
                        </use>
                        <path d="M-4,0h8" fill="none" stroke="white" stroke-width="1.5" pointer-events="none"/>
                </g>
                <g id="dirArrow">
                        <path fill="none" stroke="white" stroke-width="1.5" d="M0,-3.0v7 M-2.5,-0.5L0,-3.0L2.5,-0.5"/>
                </g>
               <g id="resetDef">
                       <use xlink:href="#rim2" fill="#404040">
                               <set attributeName="fill" to="#808080" begin="reset.mouseover" end="reset.mouseout"/>
                       </use>
               </g>
        </defs>

<script type="text/javascript">
var viewWidth = 797;
var viewHeight = 357;
var sectionId = 'dynsection-0';
</script>
<script xlink:href="../../svgpan.js"/>
<svg id="graph" class="graph">
<g id="viewport">
<title>ImageFileImpl.cpp</title>
<!-- Node1 -->
<g id="node1" class="node">
<title>Node1</title>
<g id="a_node1"><a xlink:title=" ">
<polygon fill="#999999" stroke="#666666" points="609.5,-349 512.5,-349 512.5,-330 609.5,-330 609.5,-349"/>
<text text-anchor="middle" x="561" y="-337" font-family="Helvetica,sans-Serif" font-size="10.00">ImageFileImpl.cpp</text>
</a>
</g>
</g>
<!-- Node2 -->
<g id="node2" class="node">
<title>Node2</title>
<g id="a_node2"><a xlink:href="../../da/d09/_image_file_impl_8h.html" target="_top" xlink:title=" ">
<polygon fill="white" stroke="#666666" points="86,-239 0,-239 0,-220 86,-220 86,-239"/>
<text text-anchor="middle" x="43" y="-227" font-family="Helvetica,sans-Serif" font-size="10.00">ImageFileImpl.h</text>
</a>
</g>
</g>
<!-- Node1&#45;&gt;Node2 -->
<g id="edge1" class="edge">
<title>Node1&#45;&gt;Node2</title>
<path fill="none" stroke="#63b8ff" d="M512.04,-337.08C412.64,-333.62 190.71,-322.82 121,-294 95.91,-283.63 72.52,-262.43 58.03,-247.38"/>
<polygon fill="#63b8ff" stroke="#63b8ff" points="60.98,-245.41 51.6,-240.47 55.85,-250.18 60.98,-245.41"/>
</g>
<!-- Node15 -->
<g id="node15" class="node">
<title>Node15</title>
<g id="a_node15"><a xlink:href="../../dd/d41/_checked_file_8h.html" target="_top" xlink:title=" ">
<polygon fill="white" stroke="#666666" points="210,-294 130,-294 130,-275 210,-275 210,-294"/>
<text text-anchor="middle" x="170" y="-282" font-family="Helvetica,sans-Serif" font-size="10.00">CheckedFile.h</text>
</a>
</g>
</g>
<!-- Node1&#45;&gt;Node15 -->
<g id="edge17" class="edge">
<title>Node1&#45;&gt;Node15</title>
<path fill="none" stroke="#63b8ff" d="M512.27,-331.89C438.08,-321.84 297.44,-302.77 221.59,-292.49"/>
<polygon fill="#63b8ff" stroke="#63b8ff" points="222.31,-289.06 211.94,-291.18 221.37,-296 222.31,-289.06"/>
</g>
<!-- Node17 -->
<g id="node17" class="node">
<title>Node17</title>
<g id="a_node17"><a xlink:href="../../d3/df2/_e57_version_8h.html" target="_top" xlink:title=" ">
<polygon fill="white" stroke="#666666" points="679.5,-184 604.5,-184 604.5,-165 679.5,-165 679.5,-184"/>
<text text-anchor="middle" x="642" y="-172" font-family="Helvetica,sans-Serif" font-size="10.00">E57Version.h</text>
</a>
</g>
</g>
<!-- Node1&#45;&gt;Node17 -->
<g id="edge20" class="edge">
<title>Node1&#45;&gt;Node17</title>
<path fill="none" stroke="#63b8ff" d="M603.51,-329.54C647.22,-317.6 711.69,-291.54 732,-239 741.39,-214.7 715.3,-198.28 688.83,-188.24"/>
<polygon fill="#63b8ff" stroke="#63b8ff" points="689.99,-184.93 679.39,-184.94 687.68,-191.54 689.99,-184.93"/>
</g>
<!-- Node18 -->
<g id="node18" class="node">
<title>Node18</title>
<g id="a_node18"><a xlink:href="../../da/dee/_e57_xml_parser_8h.html" target="_top" xlink:title=" ">
<polygon fill="white" stroke="#666666" points="497.5,-294 410.5,-294 410.5,-275 497.5,-275 497.5,-294"/>
<text text-anchor="middle" x="454" y="-282" font-family="Helvetica,sans-Serif" font-size="10.00">E57XmlParser.h</text>
</a>
</g>
</g>
<!-- Node1&#45;&gt;Node18 -->
<g id="edge22" class="edge">
<title>Node1&#45;&gt;Node18</title>
<path fill="none" stroke="#63b8ff" d="M542.85,-329.51C526.22,-321.27 501.36,-308.96 482.15,-299.45"/>
<polygon fill="#63b8ff" stroke="#63b8ff" points="483.75,-296.33 473.24,-295.03 480.65,-302.6 483.75,-296.33"/>
</g>
<!-- Node22 -->
<g id="node22" class="node">
<title>Node22</title>
<g id="a_node22"><a xlink:href="../../db/d42/_string_functions_8h.html" target="_top" xlink:title=" ">
<polygon fill="white" stroke="#666666" points="535.5,-74 442.5,-74 442.5,-55 535.5,-55 535.5,-74"/>
<text text-anchor="middle" x="489" y="-62" font-family="Helvetica,sans-Serif" font-size="10.00">StringFunctions.h</text>
</a>
</g>
</g>
<!-- Node1&#45;&gt;Node22 -->
<g id="edge27" class="edge">
<title>Node1&#45;&gt;Node22</title>
<path fill="none" stroke="#63b8ff" d="M609.91,-336.39C676.91,-330.59 789,-309.12 789,-230.5 789,-230.5 789,-230.5 789,-173.5 789,-122.64 634.44,-89.15 547.2,-74.3"/>
<polygon fill="#63b8ff" stroke="#63b8ff" points="547.81,-70.85 537.37,-72.66 546.66,-77.76 547.81,-70.85"/>
</g>
<!-- Node25 -->
<g id="node25" class="node">
<title>Node25</title>
<g id="a_node25"><a xlink:href="../../d4/dd2/_structure_node_impl_8h.html" target="_top" xlink:title=" ">
<polygon fill="white" stroke="#666666" points="672.5,-294 565.5,-294 565.5,-275 672.5,-275 672.5,-294"/>
<text text-anchor="middle" x="619" y="-282" font-family="Helvetica,sans-Serif" font-size="10.00">StructureNodeImpl.h</text>
</a>
</g>
</g>
<!-- Node1&#45;&gt;Node25 -->
<g id="edge32" class="edge">
<title>Node1&#45;&gt;Node25</title>
<path fill="none" stroke="#63b8ff" d="M570.84,-329.51C579.05,-322 590.98,-311.1 600.91,-302.03"/>
<polygon fill="#63b8ff" stroke="#63b8ff" points="603.17,-304.71 608.19,-295.38 598.45,-299.54 603.17,-304.71"/>
</g>
<!-- Node3 -->
<g id="node3" class="node">
<title>Node3</title>
<g id="a_node3"><a xlink:title=" ">
<polygon fill="#e0e0e0" stroke="#999999" points="92,-74 40,-74 40,-55 92,-55 92,-74"/>
<text text-anchor="middle" x="66" y="-62" font-family="Helvetica,sans-Serif" font-size="10.00">memory</text>
</a>
</g>
</g>
<!-- Node2&#45;&gt;Node3 -->
<g id="edge2" class="edge">
<title>Node2&#45;&gt;Node3</title>
<path fill="none" stroke="#63b8ff" d="M44.24,-219.74C47.79,-194.53 58.12,-121.36 63.16,-85.62"/>
<polygon fill="#63b8ff" stroke="#63b8ff" points="66.61,-86.2 64.55,-75.81 59.68,-85.22 66.61,-86.2"/>
</g>
<!-- Node4 -->
<g id="node4" class="node">
<title>Node4</title>
<g id="a_node4"><a xlink:href="../../db/d1f/_common_8h.html" target="_top" xlink:title=" ">
<polygon fill="white" stroke="#666666" points="258.5,-184 193.5,-184 193.5,-165 258.5,-165 258.5,-184"/>
<text text-anchor="middle" x="226" y="-172" font-family="Helvetica,sans-Serif" font-size="10.00">Common.h</text>
</a>
</g>
</g>
<!-- Node2&#45;&gt;Node4 -->
<g id="edge3" class="edge">
<title>Node2&#45;&gt;Node4</title>
<path fill="none" stroke="#63b8ff" d="M74.04,-219.51C104.37,-210.73 150.73,-197.3 184.27,-187.59"/>
<polygon fill="#63b8ff" stroke="#63b8ff" points="185.02,-191.01 193.66,-184.87 183.08,-184.29 185.02,-191.01"/>
</g>
<!-- Node5 -->
<g id="node5" class="node">
<title>Node5</title>
<g id="a_node5"><a xlink:title=" ">
<polygon fill="#e0e0e0" stroke="#999999" points="171,-129 141,-129 141,-110 171,-110 171,-129"/>
<text text-anchor="middle" x="156" y="-117" font-family="Helvetica,sans-Serif" font-size="10.00">set</text>
</a>
</g>
</g>
<!-- Node4&#45;&gt;Node5 -->
<g id="edge4" class="edge">
<title>Node4&#45;&gt;Node5</title>
<path fill="none" stroke="#63b8ff" d="M214.13,-164.51C203.91,-156.77 188.93,-145.43 176.74,-136.2"/>
<polygon fill="#63b8ff" stroke="#63b8ff" points="178.99,-133.52 168.91,-130.27 174.77,-139.1 178.99,-133.52"/>
</g>
<!-- Node6 -->
<g id="node6" class="node">
<title>Node6</title>
<g id="a_node6"><a xlink:title=" ">
<polygon fill="#e0e0e0" stroke="#999999" points="384.5,-19 343.5,-19 343.5,0 384.5,0 384.5,-19"/>
<text text-anchor="middle" x="364" y="-7" font-family="Helvetica,sans-Serif" font-size="10.00">string</text>
</a>
</g>
</g>
<!-- Node4&#45;&gt;Node6 -->
<g id="edge5" class="edge">
<title>Node4&#45;&gt;Node6</title>
<path fill="none" stroke="#63b8ff" d="M242.09,-164.61C255.97,-156.46 276.09,-143.49 291,-129 321.37,-99.49 344.37,-54.85 355.86,-29.62"/>
<polygon fill="#63b8ff" stroke="#63b8ff" points="358.99,-31.19 359.82,-20.62 352.59,-28.36 358.99,-31.19"/>
</g>
<!-- Node7 -->
<g id="node7" class="node">
<title>Node7</title>
<g id="a_node7"><a xlink:title=" ">
<polygon fill="#e0e0e0" stroke="#999999" points="322,-74 278,-74 278,-55 322,-55 322,-74"/>
<text text-anchor="middle" x="300" y="-62" font-family="Helvetica,sans-Serif" font-size="10.00">vector</text>
</a>
</g>
</g>
<!-- Node4&#45;&gt;Node7 -->
<g id="edge6" class="edge">
<title>Node4&#45;&gt;Node7</title>
<path fill="none" stroke="#63b8ff" d="M237.12,-164.54C246.99,-156.16 261.31,-142.87 271,-129 280.56,-115.31 288.24,-97.95 293.28,-84.85"/>
<polygon fill="#63b8ff" stroke="#63b8ff" points="296.49,-86.25 296.63,-75.66 289.92,-83.85 296.49,-86.25"/>
</g>
<!-- Node8 -->
<g id="node8" class="node">
<title>Node8</title>
<g id="a_node8"><a xlink:href="../../d1/df2/_e57_format_8h.html" target="_top" xlink:title="Header file for the E57 API.">
<polygon fill="white" stroke="#666666" points="262.5,-129 189.5,-129 189.5,-110 262.5,-110 262.5,-129"/>
<text text-anchor="middle" x="226" y="-117" font-family="Helvetica,sans-Serif" font-size="10.00">E57Format.h</text>
</a>
</g>
</g>
<!-- Node4&#45;&gt;Node8 -->
<g id="edge7" class="edge">
<title>Node4&#45;&gt;Node8</title>
<path fill="none" stroke="#63b8ff" d="M226,-164.75C226,-158.27 226,-149.16 226,-140.9"/>
<polygon fill="#63b8ff" stroke="#63b8ff" points="229.5,-140.96 226,-130.96 222.5,-140.96 229.5,-140.96"/>
</g>
<!-- Node8&#45;&gt;Node3 -->
<g id="edge10" class="edge">
<title>Node8&#45;&gt;Node3</title>
<path fill="none" stroke="#63b8ff" d="M198.86,-109.51C172.53,-100.79 132.38,-87.49 103.11,-77.79"/>
<polygon fill="#63b8ff" stroke="#63b8ff" points="104.51,-74.57 93.91,-74.75 102.3,-81.21 104.51,-74.57"/>
</g>
<!-- Node8&#45;&gt;Node7 -->
<g id="edge11" class="edge">
<title>Node8&#45;&gt;Node7</title>
<path fill="none" stroke="#63b8ff" d="M238.55,-109.51C249.46,-101.7 265.5,-90.21 278.46,-80.93"/>
<polygon fill="#63b8ff" stroke="#63b8ff" points="280.31,-83.91 286.4,-75.24 276.23,-78.22 280.31,-83.91"/>
</g>
<!-- Node9 -->
<g id="node9" class="node">
<title>Node9</title>
<g id="a_node9"><a xlink:title=" ">
<polygon fill="#e0e0e0" stroke="#999999" points="155.5,-74 114.5,-74 114.5,-55 155.5,-55 155.5,-74"/>
<text text-anchor="middle" x="135" y="-62" font-family="Helvetica,sans-Serif" font-size="10.00">cfloat</text>
</a>
</g>
</g>
<!-- Node8&#45;&gt;Node9 -->
<g id="edge8" class="edge">
<title>Node8&#45;&gt;Node9</title>
<path fill="none" stroke="#63b8ff" d="M210.56,-109.51C196.75,-101.47 176.25,-89.53 160.09,-80.11"/>
<polygon fill="#63b8ff" stroke="#63b8ff" points="161.92,-77.13 151.52,-75.12 158.4,-83.18 161.92,-77.13"/>
</g>
<!-- Node10 -->
<g id="node10" class="node">
<title>Node10</title>
<g id="a_node10"><a xlink:title=" ">
<polygon fill="#e0e0e0" stroke="#999999" points="424,-74 378,-74 378,-55 424,-55 424,-74"/>
<text text-anchor="middle" x="401" y="-62" font-family="Helvetica,sans-Serif" font-size="10.00">cstdint</text>
</a>
</g>
</g>
<!-- Node8&#45;&gt;Node10 -->
<g id="edge9" class="edge">
<title>Node8&#45;&gt;Node10</title>
<path fill="none" stroke="#63b8ff" d="M255.69,-109.51C286.48,-100.18 334.56,-85.62 366.9,-75.83"/>
<polygon fill="#63b8ff" stroke="#63b8ff" points="367.62,-79.27 376.17,-73.02 365.59,-72.57 367.62,-79.27"/>
</g>
<!-- Node11 -->
<g id="node11" class="node">
<title>Node11</title>
<g id="a_node11"><a xlink:href="../../d4/d6e/_e57_exception_8h.html" target="_top" xlink:title="Exception handling for E57 API.">
<polygon fill="white" stroke="#666666" points="260,-74 174,-74 174,-55 260,-55 260,-74"/>
<text text-anchor="middle" x="217" y="-62" font-family="Helvetica,sans-Serif" font-size="10.00">E57Exception.h</text>
</a>
</g>
</g>
<!-- Node8&#45;&gt;Node11 -->
<g id="edge12" class="edge">
<title>Node8&#45;&gt;Node11</title>
<path fill="none" stroke="#63b8ff" d="M224.51,-109.75C223.4,-103.19 221.83,-93.95 220.41,-85.6"/>
<polygon fill="#63b8ff" stroke="#63b8ff" points="223.9,-85.21 218.77,-75.93 217,-86.38 223.9,-85.21"/>
</g>
<!-- Node11&#45;&gt;Node6 -->
<g id="edge15" class="edge">
<title>Node11&#45;&gt;Node6</title>
<path fill="none" stroke="#63b8ff" d="M241.94,-54.51C266.88,-45.52 305.33,-31.65 332.39,-21.9"/>
<polygon fill="#63b8ff" stroke="#63b8ff" points="333.58,-25.19 341.8,-18.5 331.21,-18.6 333.58,-25.19"/>
</g>
<!-- Node12 -->
<g id="node12" class="node">
<title>Node12</title>
<g id="a_node12"><a xlink:title=" ">
<polygon fill="#e0e0e0" stroke="#999999" points="163.5,-19 104.5,-19 104.5,0 163.5,0 163.5,-19"/>
<text text-anchor="middle" x="134" y="-7" font-family="Helvetica,sans-Serif" font-size="10.00">exception</text>
</a>
</g>
</g>
<!-- Node11&#45;&gt;Node12 -->
<g id="edge13" class="edge">
<title>Node11&#45;&gt;Node12</title>
<path fill="none" stroke="#63b8ff" d="M202.92,-54.51C190.44,-46.54 171.98,-34.75 157.31,-25.38"/>
<polygon fill="#63b8ff" stroke="#63b8ff" points="159.46,-22.6 149.15,-20.17 155.69,-28.5 159.46,-22.6"/>
</g>
<!-- Node13 -->
<g id="node13" class="node">
<title>Node13</title>
<g id="a_node13"><a xlink:title=" ">
<polygon fill="#e0e0e0" stroke="#999999" points="325,-19 271,-19 271,0 325,0 325,-19"/>
<text text-anchor="middle" x="298" y="-7" font-family="Helvetica,sans-Serif" font-size="10.00">iostream</text>
</a>
</g>
</g>
<!-- Node11&#45;&gt;Node13 -->
<g id="edge14" class="edge">
<title>Node11&#45;&gt;Node13</title>
<path fill="none" stroke="#63b8ff" d="M230.74,-54.51C242.8,-46.62 260.59,-34.98 274.84,-25.65"/>
<polygon fill="#63b8ff" stroke="#63b8ff" points="276.74,-28.59 283.2,-20.19 272.91,-22.73 276.74,-28.59"/>
</g>
<!-- Node14 -->
<g id="node14" class="node">
<title>Node14</title>
<g id="a_node14"><a xlink:title=" ">
<polygon fill="#e0e0e0" stroke="#999999" points="252.5,-19 181.5,-19 181.5,0 252.5,0 252.5,-19"/>
<text text-anchor="middle" x="217" y="-7" font-family="Helvetica,sans-Serif" font-size="10.00">E57Export.h</text>
</a>
</g>
</g>
<!-- Node11&#45;&gt;Node14 -->
<g id="edge16" class="edge">
<title>Node11&#45;&gt;Node14</title>
<path fill="none" stroke="#63b8ff" d="M217,-54.75C217,-48.27 217,-39.16 217,-30.9"/>
<polygon fill="#63b8ff" stroke="#63b8ff" points="220.5,-30.96 217,-20.96 213.5,-30.96 220.5,-30.96"/>
</g>
<!-- Node15&#45;&gt;Node4 -->
<g id="edge19" class="edge">
<title>Node15&#45;&gt;Node4</title>
<path fill="none" stroke="#63b8ff" d="M158.42,-274.76C143.51,-262.41 120.89,-239.22 133,-220 144.01,-202.53 163.98,-191.77 182.6,-185.22"/>
<polygon fill="#63b8ff" stroke="#63b8ff" points="183.41,-188.63 191.89,-182.28 181.3,-181.96 183.41,-188.63"/>
</g>
<!-- Node16 -->
<g id="node16" class="node">
<title>Node16</title>
<g id="a_node16"><a xlink:title=" ">
<polygon fill="#e0e0e0" stroke="#999999" points="198,-239 142,-239 142,-220 198,-220 198,-239"/>
<text text-anchor="middle" x="170" y="-227" font-family="Helvetica,sans-Serif" font-size="10.00">algorithm</text>
</a>
</g>
</g>
<!-- Node15&#45;&gt;Node16 -->
<g id="edge18" class="edge">
<title>Node15&#45;&gt;Node16</title>
<path fill="none" stroke="#63b8ff" d="M170,-274.75C170,-268.27 170,-259.16 170,-250.9"/>
<polygon fill="#63b8ff" stroke="#63b8ff" points="173.5,-250.96 170,-240.96 166.5,-250.96 173.5,-250.96"/>
</g>
<!-- Node17&#45;&gt;Node10 -->
<g id="edge21" class="edge">
<title>Node17&#45;&gt;Node10</title>
<path fill="none" stroke="#63b8ff" d="M622.28,-164.66C580.18,-145.79 481.27,-101.47 431.19,-79.03"/>
<polygon fill="#63b8ff" stroke="#63b8ff" points="432.93,-75.97 422.38,-75.08 430.07,-82.36 432.93,-75.97"/>
</g>
<!-- Node18&#45;&gt;Node4 -->
<g id="edge26" class="edge">
<title>Node18&#45;&gt;Node4</title>
<path fill="none" stroke="#63b8ff" d="M410.24,-279.41C356.25,-273.5 268.66,-260.82 245,-239 233.08,-228.01 228.53,-209.89 226.84,-195.81"/>
<polygon fill="#63b8ff" stroke="#63b8ff" points="230.33,-195.55 226.08,-185.85 223.35,-196.08 230.33,-195.55"/>
</g>
<!-- Node19 -->
<g id="node19" class="node">
<title>Node19</title>
<g id="a_node19"><a xlink:title=" ">
<polygon fill="#e0e0e0" stroke="#999999" points="474.5,-239 433.5,-239 433.5,-220 474.5,-220 474.5,-239"/>
<text text-anchor="middle" x="454" y="-227" font-family="Helvetica,sans-Serif" font-size="10.00">stack</text>
</a>
</g>
</g>
<!-- Node18&#45;&gt;Node19 -->
<g id="edge23" class="edge">
<title>Node18&#45;&gt;Node19</title>
<path fill="none" stroke="#63b8ff" d="M454,-274.75C454,-268.27 454,-259.16 454,-250.9"/>
<polygon fill="#63b8ff" stroke="#63b8ff" points="457.5,-250.96 454,-240.96 450.5,-250.96 457.5,-250.96"/>
</g>
<!-- Node20 -->
<g id="node20" class="node">
<title>Node20</title>
<g id="a_node20"><a xlink:title=" ">
<polygon fill="#e0e0e0" stroke="#999999" points="637,-239 493,-239 493,-220 637,-220 637,-239"/>
<text text-anchor="middle" x="565" y="-227" font-family="Helvetica,sans-Serif" font-size="10.00">xercesc/sax/InputSource.hpp</text>
</a>
</g>
</g>
<!-- Node18&#45;&gt;Node20 -->
<g id="edge24" class="edge">
<title>Node18&#45;&gt;Node20</title>
<path fill="none" stroke="#63b8ff" d="M472.83,-274.51C490.16,-266.24 516.11,-253.84 536.07,-244.31"/>
<polygon fill="#63b8ff" stroke="#63b8ff" points="537.57,-247.48 545.08,-240.01 534.55,-241.16 537.57,-247.48"/>
</g>
<!-- Node21 -->
<g id="node21" class="node">
<title>Node21</title>
<g id="a_node21"><a xlink:title=" ">
<polygon fill="#e0e0e0" stroke="#999999" points="415.5,-239 254.5,-239 254.5,-220 415.5,-220 415.5,-239"/>
<text text-anchor="middle" x="335" y="-227" font-family="Helvetica,sans-Serif" font-size="10.00">xercesc/sax2/DefaultHandler.hpp</text>
</a>
</g>
</g>
<!-- Node18&#45;&gt;Node21 -->
<g id="edge25" class="edge">
<title>Node18&#45;&gt;Node21</title>
<path fill="none" stroke="#63b8ff" d="M433.81,-274.51C414.98,-266.12 386.63,-253.5 365.13,-243.92"/>
<polygon fill="#63b8ff" stroke="#63b8ff" points="366.83,-240.85 356.27,-239.97 363.98,-247.24 366.83,-240.85"/>
</g>
<!-- Node22&#45;&gt;Node6 -->
<g id="edge31" class="edge">
<title>Node22&#45;&gt;Node6</title>
<path fill="none" stroke="#63b8ff" d="M467.8,-54.51C447.92,-46.08 417.97,-33.38 395.34,-23.79"/>
<polygon fill="#63b8ff" stroke="#63b8ff" points="396.86,-20.63 386.28,-19.95 394.13,-27.07 396.86,-20.63"/>
</g>
<!-- Node22&#45;&gt;Node13 -->
<g id="edge29" class="edge">
<title>Node22&#45;&gt;Node13</title>
<path fill="none" stroke="#63b8ff" d="M456.6,-54.51C423.27,-45.26 371.39,-30.87 336.12,-21.08"/>
<polygon fill="#63b8ff" stroke="#63b8ff" points="337.32,-17.78 326.75,-18.48 335.45,-24.52 337.32,-17.78"/>
</g>
<!-- Node23 -->
<g id="node23" class="node">
<title>Node23</title>
<g id="a_node23"><a xlink:title=" ">
<polygon fill="#e0e0e0" stroke="#999999" points="483,-19 433,-19 433,0 483,0 483,-19"/>
<text text-anchor="middle" x="458" y="-7" font-family="Helvetica,sans-Serif" font-size="10.00">iomanip</text>
</a>
</g>
</g>
<!-- Node22&#45;&gt;Node23 -->
<g id="edge28" class="edge">
<title>Node22&#45;&gt;Node23</title>
<path fill="none" stroke="#63b8ff" d="M483.88,-54.75C479.82,-47.81 474.01,-37.86 468.91,-29.16"/>
<polygon fill="#63b8ff" stroke="#63b8ff" points="472.06,-27.61 463.99,-20.75 466.02,-31.15 472.06,-27.61"/>
</g>
<!-- Node24 -->
<g id="node24" class="node">
<title>Node24</title>
<g id="a_node24"><a xlink:title=" ">
<polygon fill="#e0e0e0" stroke="#999999" points="553,-19 501,-19 501,0 553,0 553,-19"/>
<text text-anchor="middle" x="527" y="-7" font-family="Helvetica,sans-Serif" font-size="10.00">sstream</text>
</a>
</g>
</g>
<!-- Node22&#45;&gt;Node24 -->
<g id="edge30" class="edge">
<title>Node22&#45;&gt;Node24</title>
<path fill="none" stroke="#63b8ff" d="M495.27,-54.75C500.36,-47.66 507.7,-37.42 514.03,-28.59"/>
<polygon fill="#63b8ff" stroke="#63b8ff" points="516.72,-30.84 519.71,-20.67 511.04,-26.76 516.72,-30.84"/>
</g>
<!-- Node26 -->
<g id="node26" class="node">
<title>Node26</title>
<g id="a_node26"><a xlink:href="../../df/d7b/_node_impl_8h.html" target="_top" xlink:title=" ">
<polygon fill="white" stroke="#666666" points="722.5,-239 655.5,-239 655.5,-220 722.5,-220 722.5,-239"/>
<text text-anchor="middle" x="689" y="-227" font-family="Helvetica,sans-Serif" font-size="10.00">NodeImpl.h</text>
</a>
</g>
</g>
<!-- Node25&#45;&gt;Node26 -->
<g id="edge33" class="edge">
<title>Node25&#45;&gt;Node26</title>
<path fill="none" stroke="#63b8ff" d="M630.87,-274.51C641.09,-266.77 656.07,-255.43 668.26,-246.2"/>
<polygon fill="#63b8ff" stroke="#63b8ff" points="670.23,-249.1 676.09,-240.27 666.01,-243.52 670.23,-249.1"/>
</g>
<!-- Node26&#45;&gt;Node4 -->
<g id="edge34" class="edge">
<title>Node26&#45;&gt;Node4</title>
<path fill="none" stroke="#63b8ff" d="M655.25,-221.53C652.13,-220.98 649.01,-220.46 646,-220 509.46,-199.31 346.51,-184.98 269.9,-178.85"/>
<polygon fill="#63b8ff" stroke="#63b8ff" points="270.56,-175.39 260.31,-178.09 270,-182.37 270.56,-175.39"/>
</g>
</g>
</svg>
        <g id="navigator" transform="translate(0 0)" fill="#404254">
                <rect fill="#f2f5e9" fill-opacity="0.5" stroke="#606060" stroke-width=".5" x="0" y="0" width="60" height="60"/>
                <use id="zoomplus" xlink:href="#zoomPlus" x="17" y="9" onmousedown="handleZoom(evt,'in')"/>
                <use id="zoomminus" xlink:href="#zoomMin" x="42" y="9" onmousedown="handleZoom(evt,'out')"/>
                <use id="reset" xlink:href="#resetDef" x="30" y="36" onmousedown="handleReset()"/>
                <g id="arrowUp" xlink:href="#dirArrow" transform="translate(30 24)" onmousedown="handlePan(0,-1)">
                  <use xlink:href="#rim" fill="#404040">
                        <set attributeName="fill" to="#808080" begin="arrowUp.mouseover" end="arrowUp.mouseout"/>
                  </use>
                  <path fill="none" stroke="white" stroke-width="1.5" d="M0,-3.0v7 M-2.5,-0.5L0,-3.0L2.5,-0.5"/>
                </g>
                <g id="arrowRight" xlink:href="#dirArrow" transform="rotate(90) translate(36 -43)" onmousedown="handlePan(1,0)">
                  <use xlink:href="#rim" fill="#404040">
                        <set attributeName="fill" to="#808080" begin="arrowRight.mouseover" end="arrowRight.mouseout"/>
                  </use>
                  <path fill="none" stroke="white" stroke-width="1.5" d="M0,-3.0v7 M-2.5,-0.5L0,-3.0L2.5,-0.5"/>
                </g>
                <g id="arrowDown" xlink:href="#dirArrow" transform="rotate(180) translate(-30 -48)" onmousedown="handlePan(0,1)">
                  <use xlink:href="#rim" fill="#404040">
                        <set attributeName="fill" to="#808080" begin="arrowDown.mouseover" end="arrowDown.mouseout"/>
                  </use>
                  <path fill="none" stroke="white" stroke-width="1.5" d="M0,-3.0v7 M-2.5,-0.5L0,-3.0L2.5,-0.5"/>
                </g>
                <g id="arrowLeft" xlink:href="#dirArrow" transform="rotate(270) translate(-36 17)" onmousedown="handlePan(-1,0)">
                  <use xlink:href="#rim" fill="#404040">
                        <set attributeName="fill" to="#808080" begin="arrowLeft.mouseover" end="arrowLeft.mouseout"/>
                  </use>
                  <path fill="none" stroke="white" stroke-width="1.5" d="M0,-3.0v7 M-2.5,-0.5L0,-3.0L2.5,-0.5"/>
                </g>
        </g>
        <svg viewBox="0 0 15 15" width="100%" height="30px" preserveAspectRatio="xMaxYMin meet">
         <g id="arrow_out" transform="scale(0.3 0.3)">
          <a xlink:href="_image_file_impl_8cpp__incl_org.svg" target="_base">
           <rect id="button" ry="5" rx="5" y="6" x="6" height="38" width="38"
                fill="#f2f5e9" fill-opacity="0.5" stroke="#606060" stroke-width="1.0"/>
           <path id="arrow"
             d="M 11.500037,31.436501 C 11.940474,20.09759 22.043105,11.32322 32.158766,21.979434 L 37.068811,17.246167 C 37.068811,17.246167 37.088388,32 37.088388,32 L 22.160133,31.978069 C 22.160133,31.978069 26.997745,27.140456 26.997745,27.140456 C 18.528582,18.264221 13.291696,25.230495 11.500037,31.436501 z"
             style="fill:#404040;"/>
          </a>
         </g>
        </svg>
</svg>
