<?xml version="1.0" encoding="UTF-8" standalone="no"?>
<!DOCTYPE svg PUBLIC "-//W3C//DTD SVG 1.1//EN"
 "http://www.w3.org/Graphics/SVG/1.1/DTD/svg11.dtd">
<!-- Generated by graphviz version 7.0.0 (20221023.0053)
 -->
<!-- Title: NodeImpl.h Pages: 1 -->
<!--zoomable 192 -->
<svg id="main" version="1.1" xmlns="http://www.w3.org/2000/svg" xmlns:xlink="http://www.w3.org/1999/xlink" xml:space="preserve" onload="init(evt)">
<style type="text/css"><![CDATA[
.edge:hover path { stroke: red; }
.edge:hover polygon { stroke: red; fill: red; }
]]></style>
<script type="text/javascript"><![CDATA[
var edges = document.getElementsByTagName('g');
if (edges && edges.length) {
  for (var i=0;i<edges.length;i++) {
    if (edges[i].id.substr(0,4)=='edge') {
      edges[i].setAttribute('class','edge');
    }
  }
}
]]></script>
        <defs>
                <circle id="rim" cx="0" cy="0" r="7"/>
                <circle id="rim2" cx="0" cy="0" r="3.5"/>
                <g id="zoomPlus">
                        <use xlink:href="#rim" fill="#404040">
                                <set attributeName="fill" to="#808080" begin="zoomplus.mouseover" end="zoomplus.mouseout"/>
                        </use>
                        <path d="M-4,0h8M0,-4v8" fill="none" stroke="white" stroke-width="1.5" pointer-events="none"/>
                </g>
                <g id="zoomMin">
                        <use xlink:href="#rim" fill="#404040">
                                <set attributeName="fill" to="#808080" begin="zoomminus.mouseover" end="zoomminus.mouseout"/>
                        </use>
                        <path d="M-4,0h8" fill="none" stroke="white" stroke-width="1.5" pointer-events="none"/>
                </g>
                <g id="dirArrow">
                        <path fill="none" stroke="white" stroke-width="1.5" d="M0,-3.0v7 M-2.5,-0.5L0,-3.0L2.5,-0.5"/>
                </g>
               <g id="resetDef">
                       <use xlink:href="#rim2" fill="#404040">
                               <set attributeName="fill" to="#808080" begin="reset.mouseover" end="reset.mouseout"/>
                       </use>
               </g>
        </defs>

<script type="text/javascript">
var viewWidth = 2219;
var viewHeight = 192;
var sectionId = 'dynsection-1';
</script>
<script xlink:href="../../svgpan.js"/>
<svg id="graph" class="graph">
<g id="viewport">
<title>NodeImpl.h</title>
<!-- Node1 -->
<g id="node1" class="node">
<title>Node1</title>
<g id="a_node1"><a xlink:title=" ">
<polygon fill="#999999" stroke="#666666" points="1416.5,-184 1349.5,-184 1349.5,-165 1416.5,-165 1416.5,-184"/>
<text text-anchor="middle" x="1383" y="-172" font-family="Helvetica,sans-Serif" font-size="10.00">NodeImpl.h</text>
</a>
</g>
</g>
<!-- Node2 -->
<g id="node2" class="node">
<title>Node2</title>
<g id="a_node2"><a xlink:href="../../d7/d0c/_blob_node_impl_8h.html" target="_top" xlink:title=" ">
<polygon fill="white" stroke="#666666" points="1326,-129 1240,-129 1240,-110 1326,-110 1326,-129"/>
<text text-anchor="middle" x="1283" y="-117" font-family="Helvetica,sans-Serif" font-size="10.00">BlobNodeImpl.h</text>
</a>
</g>
</g>
<!-- Node1&#45;&gt;Node2 -->
<g id="edge1" class="edge">
<title>Node1&#45;&gt;Node2</title>
<path fill="none" stroke="#63b8ff" d="M1355.89,-159.13C1337.96,-149.63 1315.02,-137.47 1299.71,-129.36"/>
<polygon fill="#63b8ff" stroke="#63b8ff" points="1354.22,-162.21 1364.7,-163.8 1357.5,-156.02 1354.22,-162.21"/>
</g>
<!-- Node6 -->
<g id="node6" class="node">
<title>Node6</title>
<g id="a_node6"><a xlink:href="../../da/dbb/_compressed_vector_node_impl_8h.html" target="_top" xlink:title=" ">
<polygon fill="white" stroke="#666666" points="810.5,-74 659.5,-74 659.5,-55 810.5,-55 810.5,-74"/>
<text text-anchor="middle" x="735" y="-62" font-family="Helvetica,sans-Serif" font-size="10.00">CompressedVectorNodeImpl.h</text>
</a>
</g>
</g>
<!-- Node1&#45;&gt;Node6 -->
<g id="edge5" class="edge">
<title>Node1&#45;&gt;Node6</title>
<path fill="none" stroke="#63b8ff" d="M1338.16,-167.54C1278.45,-159.47 1169.6,-144.32 1077,-129 970.35,-111.35 845.64,-87.34 780.26,-74.49"/>
<polygon fill="#63b8ff" stroke="#63b8ff" points="1337.55,-170.99 1347.93,-168.85 1338.48,-164.05 1337.55,-170.99"/>
</g>
<!-- Node13 -->
<g id="node13" class="node">
<title>Node13</title>
<g id="a_node13"><a xlink:href="../../d4/d15/_float_node_impl_8h.html" target="_top" xlink:title=" ">
<polygon fill="white" stroke="#666666" points="1427.5,-74 1338.5,-74 1338.5,-55 1427.5,-55 1427.5,-74"/>
<text text-anchor="middle" x="1383" y="-62" font-family="Helvetica,sans-Serif" font-size="10.00">FloatNodeImpl.h</text>
</a>
</g>
</g>
<!-- Node1&#45;&gt;Node13 -->
<g id="edge13" class="edge">
<title>Node1&#45;&gt;Node13</title>
<path fill="none" stroke="#63b8ff" d="M1383,-153.24C1383,-129.63 1383,-91.65 1383,-74.46"/>
<polygon fill="#63b8ff" stroke="#63b8ff" points="1379.5,-153.15 1383,-163.15 1386.5,-153.15 1379.5,-153.15"/>
</g>
<!-- Node16 -->
<g id="node16" class="node">
<title>Node16</title>
<g id="a_node16"><a xlink:href="../../d4/d47/_integer_node_impl_8h.html" target="_top" xlink:title=" ">
<polygon fill="white" stroke="#666666" points="925.5,-74 828.5,-74 828.5,-55 925.5,-55 925.5,-74"/>
<text text-anchor="middle" x="877" y="-62" font-family="Helvetica,sans-Serif" font-size="10.00">IntegerNodeImpl.h</text>
</a>
</g>
</g>
<!-- Node1&#45;&gt;Node16 -->
<g id="edge19" class="edge">
<title>Node1&#45;&gt;Node16</title>
<path fill="none" stroke="#63b8ff" d="M1338.24,-164.32C1294.93,-155.4 1227.43,-141.43 1169,-129 1079.18,-109.9 973.98,-86.85 917.6,-74.45"/>
<polygon fill="#63b8ff" stroke="#63b8ff" points="1337.27,-167.69 1347.77,-166.28 1338.68,-160.83 1337.27,-167.69"/>
</g>
<!-- Node19 -->
<g id="node19" class="node">
<title>Node19</title>
<g id="a_node19"><a xlink:href="../../de/db6/_node_8cpp.html" target="_top" xlink:title=" ">
<polygon fill="white" stroke="#666666" points="2171.5,-129 2112.5,-129 2112.5,-110 2171.5,-110 2171.5,-129"/>
<text text-anchor="middle" x="2142" y="-117" font-family="Helvetica,sans-Serif" font-size="10.00">Node.cpp</text>
</a>
</g>
</g>
<!-- Node1&#45;&gt;Node19 -->
<g id="edge25" class="edge">
<title>Node1&#45;&gt;Node19</title>
<path fill="none" stroke="#63b8ff" d="M1428.28,-173.1C1542.17,-171.57 1849.61,-164.23 2103,-129 2106.02,-128.58 2109.15,-128.05 2112.27,-127.47"/>
<polygon fill="#63b8ff" stroke="#63b8ff" points="1428.39,-169.6 1418.43,-173.22 1428.48,-176.6 1428.39,-169.6"/>
</g>
<!-- Node20 -->
<g id="node20" class="node">
<title>Node20</title>
<g id="a_node20"><a xlink:href="../../d8/d81/_node_impl_8cpp.html" target="_top" xlink:title=" ">
<polygon fill="white" stroke="#666666" points="2052.5,-19 1975.5,-19 1975.5,0 2052.5,0 2052.5,-19"/>
<text text-anchor="middle" x="2014" y="-7" font-family="Helvetica,sans-Serif" font-size="10.00">NodeImpl.cpp</text>
</a>
</g>
</g>
<!-- Node1&#45;&gt;Node20 -->
<g id="edge26" class="edge">
<title>Node1&#45;&gt;Node20</title>
<path fill="none" stroke="#63b8ff" d="M1428.08,-169.54C1546.6,-158.54 1864.05,-124.97 1955,-74 1979.42,-60.32 1999.5,-33 2008.66,-19.08"/>
<polygon fill="#63b8ff" stroke="#63b8ff" points="1428.06,-166.03 1418.43,-170.43 1428.7,-173 1428.06,-166.03"/>
</g>
<!-- Node21 -->
<g id="node21" class="node">
<title>Node21</title>
<g id="a_node21"><a xlink:href="../../d5/dae/_scaled_integer_node_impl_8h.html" target="_top" xlink:title=" ">
<polygon fill="white" stroke="#666666" points="1070.5,-74 943.5,-74 943.5,-55 1070.5,-55 1070.5,-74"/>
<text text-anchor="middle" x="1007" y="-62" font-family="Helvetica,sans-Serif" font-size="10.00">ScaledIntegerNodeImpl.h</text>
</a>
</g>
</g>
<!-- Node1&#45;&gt;Node21 -->
<g id="edge27" class="edge">
<title>Node1&#45;&gt;Node21</title>
<path fill="none" stroke="#63b8ff" d="M1340.85,-161.39C1264.6,-139.49 1105.44,-93.77 1038.13,-74.44"/>
<polygon fill="#63b8ff" stroke="#63b8ff" points="1339.88,-164.76 1350.46,-164.15 1341.81,-158.03 1339.88,-164.76"/>
</g>
<!-- Node24 -->
<g id="node24" class="node">
<title>Node24</title>
<g id="a_node24"><a xlink:href="../../d6/d64/_string_node_impl_8h.html" target="_top" xlink:title=" ">
<polygon fill="white" stroke="#666666" points="2094,-129 2002,-129 2002,-110 2094,-110 2094,-129"/>
<text text-anchor="middle" x="2048" y="-117" font-family="Helvetica,sans-Serif" font-size="10.00">StringNodeImpl.h</text>
</a>
</g>
</g>
<!-- Node1&#45;&gt;Node24 -->
<g id="edge33" class="edge">
<title>Node1&#45;&gt;Node24</title>
<path fill="none" stroke="#63b8ff" d="M1428.09,-171.22C1528.73,-165.92 1779.24,-151.44 1988,-129 1992.39,-128.53 1996.96,-127.98 2001.53,-127.4"/>
<polygon fill="#63b8ff" stroke="#63b8ff" points="1428.17,-167.71 1418.36,-171.73 1428.53,-174.71 1428.17,-167.71"/>
</g>
<!-- Node27 -->
<g id="node27" class="node">
<title>Node27</title>
<g id="a_node27"><a xlink:href="../../d4/dd2/_structure_node_impl_8h.html" target="_top" xlink:title=" ">
<polygon fill="white" stroke="#666666" points="1674.5,-129 1567.5,-129 1567.5,-110 1674.5,-110 1674.5,-129"/>
<text text-anchor="middle" x="1621" y="-117" font-family="Helvetica,sans-Serif" font-size="10.00">StructureNodeImpl.h</text>
</a>
</g>
</g>
<!-- Node1&#45;&gt;Node27 -->
<g id="edge37" class="edge">
<title>Node1&#45;&gt;Node27</title>
<path fill="none" stroke="#63b8ff" d="M1427.81,-163.52C1471.89,-153.71 1538.54,-138.86 1580.91,-129.43"/>
<polygon fill="#63b8ff" stroke="#63b8ff" points="1427.32,-160.04 1418.32,-165.63 1428.85,-166.88 1427.32,-160.04"/>
</g>
<!-- Node3 -->
<g id="node3" class="node">
<title>Node3</title>
<g id="a_node3"><a xlink:href="../../df/dfe/_blob_node_8cpp.html" target="_top" xlink:title=" ">
<polygon fill="white" stroke="#666666" points="1282,-74 1204,-74 1204,-55 1282,-55 1282,-74"/>
<text text-anchor="middle" x="1243" y="-62" font-family="Helvetica,sans-Serif" font-size="10.00">BlobNode.cpp</text>
</a>
</g>
</g>
<!-- Node2&#45;&gt;Node3 -->
<g id="edge2" class="edge">
<title>Node2&#45;&gt;Node3</title>
<path fill="none" stroke="#63b8ff" d="M1269.53,-100.65C1262.88,-91.84 1255.14,-81.59 1249.75,-74.44"/>
<polygon fill="#63b8ff" stroke="#63b8ff" points="1266.67,-102.67 1275.48,-108.54 1272.25,-98.45 1266.67,-102.67"/>
</g>
<!-- Node4 -->
<g id="node4" class="node">
<title>Node4</title>
<g id="a_node4"><a xlink:href="../../d4/d79/_blob_node_impl_8cpp.html" target="_top" xlink:title=" ">
<polygon fill="white" stroke="#666666" points="1185.5,-74 1088.5,-74 1088.5,-55 1185.5,-55 1185.5,-74"/>
<text text-anchor="middle" x="1137" y="-62" font-family="Helvetica,sans-Serif" font-size="10.00">BlobNodeImpl.cpp</text>
</a>
</g>
</g>
<!-- Node2&#45;&gt;Node4 -->
<g id="edge3" class="edge">
<title>Node2&#45;&gt;Node4</title>
<path fill="none" stroke="#63b8ff" d="M1247.42,-105.58C1220.74,-95.9 1184.91,-82.89 1161.4,-74.36"/>
<polygon fill="#63b8ff" stroke="#63b8ff" points="1246.22,-108.87 1256.81,-108.99 1248.6,-102.29 1246.22,-108.87"/>
</g>
<!-- Node5 -->
<g id="node5" class="node">
<title>Node5</title>
<g id="a_node5"><a xlink:href="../../da/d44/_e57_xml_parser_8cpp.html" target="_top" xlink:title=" ">
<polygon fill="white" stroke="#666666" points="1512,-19 1414,-19 1414,0 1512,0 1512,-19"/>
<text text-anchor="middle" x="1463" y="-7" font-family="Helvetica,sans-Serif" font-size="10.00">E57XmlParser.cpp</text>
</a>
</g>
</g>
<!-- Node2&#45;&gt;Node5 -->
<g id="edge4" class="edge">
<title>Node2&#45;&gt;Node5</title>
<path fill="none" stroke="#63b8ff" d="M1292.43,-99.67C1300.4,-85.54 1313.06,-66.68 1329,-55 1353.92,-36.75 1386.77,-25.68 1413.71,-19.15"/>
<polygon fill="#63b8ff" stroke="#63b8ff" points="1289.38,-97.96 1287.78,-108.43 1295.56,-101.24 1289.38,-97.96"/>
</g>
<!-- Node6&#45;&gt;Node5 -->
<g id="edge11" class="edge">
<title>Node6&#45;&gt;Node5</title>
<path fill="none" stroke="#63b8ff" d="M822.24,-54.77C1080.55,-34.21 1148.54,-45.22 1404,-19 1407.19,-18.67 1410.47,-18.3 1413.78,-17.9"/>
<polygon fill="#63b8ff" stroke="#63b8ff" points="822.19,-51.26 812.5,-55.55 822.75,-58.24 822.19,-51.26"/>
</g>
<!-- Node7 -->
<g id="node7" class="node">
<title>Node7</title>
<g id="a_node7"><a xlink:href="../../d2/dab/_compressed_vector_node_8cpp.html" target="_top" xlink:title=" ">
<polygon fill="white" stroke="#666666" points="325.5,-19 182.5,-19 182.5,0 325.5,0 325.5,-19"/>
<text text-anchor="middle" x="254" y="-7" font-family="Helvetica,sans-Serif" font-size="10.00">CompressedVectorNode.cpp</text>
</a>
</g>
</g>
<!-- Node6&#45;&gt;Node7 -->
<g id="edge6" class="edge">
<title>Node6&#45;&gt;Node7</title>
<path fill="none" stroke="#63b8ff" d="M647.78,-53.89C555.48,-43.72 411.53,-27.86 325.63,-18.39"/>
<polygon fill="#63b8ff" stroke="#63b8ff" points="647.22,-57.35 657.55,-54.97 647.99,-50.39 647.22,-57.35"/>
</g>
<!-- Node8 -->
<g id="node8" class="node">
<title>Node8</title>
<g id="a_node8"><a xlink:href="../../db/dd2/_compressed_vector_node_impl_8cpp.html" target="_top" xlink:title=" ">
<polygon fill="white" stroke="#666666" points="1395.5,-19 1234.5,-19 1234.5,0 1395.5,0 1395.5,-19"/>
<text text-anchor="middle" x="1315" y="-7" font-family="Helvetica,sans-Serif" font-size="10.00">CompressedVectorNodeImpl.cpp</text>
</a>
</g>
</g>
<!-- Node6&#45;&gt;Node8 -->
<g id="edge7" class="edge">
<title>Node6&#45;&gt;Node8</title>
<path fill="none" stroke="#63b8ff" d="M821.99,-54.73C1001.25,-37.78 1048.3,-35.18 1225,-19 1227.97,-18.73 1230.99,-18.45 1234.05,-18.17"/>
<polygon fill="#63b8ff" stroke="#63b8ff" points="821.68,-51.24 812.06,-55.67 822.34,-58.21 821.68,-51.24"/>
</g>
<!-- Node9 -->
<g id="node9" class="node">
<title>Node9</title>
<g id="a_node9"><a xlink:href="../../d5/d8d/_compressed_vector_reader_impl_8cpp.html" target="_top" xlink:title=" ">
<polygon fill="white" stroke="#666666" points="514,-19 344,-19 344,0 514,0 514,-19"/>
<text text-anchor="middle" x="429" y="-7" font-family="Helvetica,sans-Serif" font-size="10.00">CompressedVectorReaderImpl.cpp</text>
</a>
</g>
</g>
<!-- Node6&#45;&gt;Node9 -->
<g id="edge8" class="edge">
<title>Node6&#45;&gt;Node9</title>
<path fill="none" stroke="#63b8ff" d="M671.8,-52.55C615.34,-42.77 533.63,-28.62 480.91,-19.49"/>
<polygon fill="#63b8ff" stroke="#63b8ff" points="671.15,-55.99 681.6,-54.25 672.34,-49.1 671.15,-55.99"/>
</g>
<!-- Node10 -->
<g id="node10" class="node">
<title>Node10</title>
<g id="a_node10"><a xlink:href="../../de/d63/_compressed_vector_writer_impl_8cpp.html" target="_top" xlink:title=" ">
<polygon fill="white" stroke="#666666" points="164,-19 0,-19 0,0 164,0 164,-19"/>
<text text-anchor="middle" x="82" y="-7" font-family="Helvetica,sans-Serif" font-size="10.00">CompressedVectorWriterImpl.cpp</text>
</a>
</g>
</g>
<!-- Node6&#45;&gt;Node10 -->
<g id="edge9" class="edge">
<title>Node6&#45;&gt;Node10</title>
<path fill="none" stroke="#63b8ff" d="M647.66,-56.97C537.12,-48.61 340.88,-33.49 173,-19 170.15,-18.75 167.26,-18.5 164.34,-18.24"/>
<polygon fill="#63b8ff" stroke="#63b8ff" points="647.33,-60.45 657.56,-57.72 647.85,-53.47 647.33,-60.45"/>
</g>
<!-- Node11 -->
<g id="node11" class="node">
<title>Node11</title>
<g id="a_node11"><a xlink:href="../../d0/dfe/_decoder_8cpp.html" target="_top" xlink:title=" ">
<polygon fill="white" stroke="#666666" points="924.5,-19 853.5,-19 853.5,0 924.5,0 924.5,-19"/>
<text text-anchor="middle" x="889" y="-7" font-family="Helvetica,sans-Serif" font-size="10.00">Decoder.cpp</text>
</a>
</g>
</g>
<!-- Node6&#45;&gt;Node11 -->
<g id="edge10" class="edge">
<title>Node6&#45;&gt;Node11</title>
<path fill="none" stroke="#63b8ff" d="M771.74,-50.85C799.87,-41.17 837.97,-28.06 863.01,-19.45"/>
<polygon fill="#63b8ff" stroke="#63b8ff" points="770.87,-47.45 762.56,-54.02 773.15,-54.07 770.87,-47.45"/>
</g>
<!-- Node12 -->
<g id="node12" class="node">
<title>Node12</title>
<g id="a_node12"><a xlink:href="../../d8/d08/_encoder_8cpp.html" target="_top" xlink:title=" ">
<polygon fill="white" stroke="#666666" points="835.5,-19 764.5,-19 764.5,0 835.5,0 835.5,-19"/>
<text text-anchor="middle" x="800" y="-7" font-family="Helvetica,sans-Serif" font-size="10.00">Encoder.cpp</text>
</a>
</g>
</g>
<!-- Node6&#45;&gt;Node12 -->
<g id="edge12" class="edge">
<title>Node6&#45;&gt;Node12</title>
<path fill="none" stroke="#63b8ff" d="M754.79,-47.37C766.08,-38.16 779.79,-26.98 789.14,-19.36"/>
<polygon fill="#63b8ff" stroke="#63b8ff" points="752.74,-44.52 747.2,-53.55 757.16,-49.95 752.74,-44.52"/>
</g>
<!-- Node13&#45;&gt;Node5 -->
<g id="edge15" class="edge">
<title>Node13&#45;&gt;Node5</title>
<path fill="none" stroke="#63b8ff" d="M1406.11,-48.19C1420.23,-38.84 1437.78,-27.21 1449.63,-19.36"/>
<polygon fill="#63b8ff" stroke="#63b8ff" points="1404.24,-45.23 1397.83,-53.67 1408.1,-51.07 1404.24,-45.23"/>
</g>
<!-- Node13&#45;&gt;Node11 -->
<g id="edge14" class="edge">
<title>Node13&#45;&gt;Node11</title>
<path fill="none" stroke="#63b8ff" d="M1326.81,-58.24C1214.78,-47.7 971.08,-24.55 933,-19 930.38,-18.62 927.68,-18.19 924.97,-17.73"/>
<polygon fill="#63b8ff" stroke="#63b8ff" points="1326.4,-61.71 1336.69,-59.16 1327.06,-54.74 1326.4,-61.71"/>
</g>
<!-- Node13&#45;&gt;Node12 -->
<g id="edge16" class="edge">
<title>Node13&#45;&gt;Node12</title>
<path fill="none" stroke="#63b8ff" d="M1326.94,-58.21C1315.07,-57.13 1302.63,-56.01 1291,-55 1092.43,-37.83 1041.48,-45.94 844,-19 841.38,-18.64 838.68,-18.23 835.96,-17.78"/>
<polygon fill="#63b8ff" stroke="#63b8ff" points="1326.3,-61.67 1336.58,-59.1 1326.94,-54.7 1326.3,-61.67"/>
</g>
<!-- Node14 -->
<g id="node14" class="node">
<title>Node14</title>
<g id="a_node14"><a xlink:href="../../d0/dfe/_float_node_8cpp.html" target="_top" xlink:title=" ">
<polygon fill="white" stroke="#666666" points="1610,-19 1530,-19 1530,0 1610,0 1610,-19"/>
<text text-anchor="middle" x="1570" y="-7" font-family="Helvetica,sans-Serif" font-size="10.00">FloatNode.cpp</text>
</a>
</g>
</g>
<!-- Node13&#45;&gt;Node14 -->
<g id="edge17" class="edge">
<title>Node13&#45;&gt;Node14</title>
<path fill="none" stroke="#63b8ff" d="M1425.37,-51.49C1459.72,-41.76 1507.37,-28.25 1538.43,-19.45"/>
<polygon fill="#63b8ff" stroke="#63b8ff" points="1424.84,-48 1416.18,-54.1 1426.75,-54.74 1424.84,-48"/>
</g>
<!-- Node15 -->
<g id="node15" class="node">
<title>Node15</title>
<g id="a_node15"><a xlink:href="../../d2/d72/_float_node_impl_8cpp.html" target="_top" xlink:title=" ">
<polygon fill="white" stroke="#666666" points="1727.5,-19 1628.5,-19 1628.5,0 1727.5,0 1727.5,-19"/>
<text text-anchor="middle" x="1678" y="-7" font-family="Helvetica,sans-Serif" font-size="10.00">FloatNodeImpl.cpp</text>
</a>
</g>
</g>
<!-- Node13&#45;&gt;Node15 -->
<g id="edge18" class="edge">
<title>Node13&#45;&gt;Node15</title>
<path fill="none" stroke="#63b8ff" d="M1439.01,-53.44C1493.56,-43.64 1575.7,-28.88 1628.08,-19.47"/>
<polygon fill="#63b8ff" stroke="#63b8ff" points="1438.52,-49.97 1429.29,-55.18 1439.76,-56.86 1438.52,-49.97"/>
</g>
<!-- Node16&#45;&gt;Node5 -->
<g id="edge21" class="edge">
<title>Node16&#45;&gt;Node5</title>
<path fill="none" stroke="#63b8ff" d="M937.05,-54.73C1144.11,-31.89 1199.42,-41.55 1404,-19 1407.19,-18.65 1410.47,-18.26 1413.78,-17.84"/>
<polygon fill="#63b8ff" stroke="#63b8ff" points="936.84,-51.23 927.29,-55.82 937.62,-58.19 936.84,-51.23"/>
</g>
<!-- Node16&#45;&gt;Node11 -->
<g id="edge20" class="edge">
<title>Node16&#45;&gt;Node11</title>
<path fill="none" stroke="#63b8ff" d="M881.5,-43.64C883.38,-35.31 885.48,-26.05 886.98,-19.44"/>
<polygon fill="#63b8ff" stroke="#63b8ff" points="878.11,-42.75 879.32,-53.27 884.94,-44.29 878.11,-42.75"/>
</g>
<!-- Node16&#45;&gt;Node12 -->
<g id="edge22" class="edge">
<title>Node16&#45;&gt;Node12</title>
<path fill="none" stroke="#63b8ff" d="M854.75,-48.19C841.17,-38.84 824.27,-27.21 812.87,-19.36"/>
<polygon fill="#63b8ff" stroke="#63b8ff" points="852.47,-50.86 862.69,-53.65 856.44,-45.1 852.47,-50.86"/>
</g>
<!-- Node17 -->
<g id="node17" class="node">
<title>Node17</title>
<g id="a_node17"><a xlink:href="../../d6/d3e/_integer_node_8cpp.html" target="_top" xlink:title=" ">
<polygon fill="white" stroke="#666666" points="746.5,-19 657.5,-19 657.5,0 746.5,0 746.5,-19"/>
<text text-anchor="middle" x="702" y="-7" font-family="Helvetica,sans-Serif" font-size="10.00">IntegerNode.cpp</text>
</a>
</g>
</g>
<!-- Node16&#45;&gt;Node17 -->
<g id="edge23" class="edge">
<title>Node16&#45;&gt;Node17</title>
<path fill="none" stroke="#63b8ff" d="M836.51,-51.24C804.43,-41.52 760.36,-28.18 731.54,-19.45"/>
<polygon fill="#63b8ff" stroke="#63b8ff" points="835.28,-54.52 845.87,-54.07 837.31,-47.82 835.28,-54.52"/>
</g>
<!-- Node18 -->
<g id="node18" class="node">
<title>Node18</title>
<g id="a_node18"><a xlink:href="../../d0/d54/_integer_node_impl_8cpp.html" target="_top" xlink:title=" ">
<polygon fill="white" stroke="#666666" points="639.5,-19 532.5,-19 532.5,0 639.5,0 639.5,-19"/>
<text text-anchor="middle" x="586" y="-7" font-family="Helvetica,sans-Serif" font-size="10.00">IntegerNodeImpl.cpp</text>
</a>
</g>
</g>
<!-- Node16&#45;&gt;Node18 -->
<g id="edge24" class="edge">
<title>Node16&#45;&gt;Node18</title>
<path fill="none" stroke="#63b8ff" d="M817.22,-52.61C763.51,-42.83 685.59,-28.64 635.35,-19.49"/>
<polygon fill="#63b8ff" stroke="#63b8ff" points="816.34,-56.01 826.8,-54.36 817.59,-49.12 816.34,-56.01"/>
</g>
<!-- Node21&#45;&gt;Node5 -->
<g id="edge29" class="edge">
<title>Node21&#45;&gt;Node5</title>
<path fill="none" stroke="#63b8ff" d="M1082.38,-54.62C1225.31,-38.41 1263.5,-36.9 1404,-19 1407.18,-18.59 1410.46,-18.16 1413.76,-17.72"/>
<polygon fill="#63b8ff" stroke="#63b8ff" points="1082.03,-51.14 1072.49,-55.75 1082.82,-58.1 1082.03,-51.14"/>
</g>
<!-- Node21&#45;&gt;Node11 -->
<g id="edge28" class="edge">
<title>Node21&#45;&gt;Node11</title>
<path fill="none" stroke="#63b8ff" d="M976.49,-49.8C955.13,-40.2 927.21,-27.66 908.72,-19.36"/>
<polygon fill="#63b8ff" stroke="#63b8ff" points="975.05,-52.98 985.6,-53.89 977.91,-46.6 975.05,-52.98"/>
</g>
<!-- Node21&#45;&gt;Node12 -->
<g id="edge30" class="edge">
<title>Node21&#45;&gt;Node12</title>
<path fill="none" stroke="#63b8ff" d="M961.08,-51.74C922.99,-41.99 869.63,-28.33 834.94,-19.45"/>
<polygon fill="#63b8ff" stroke="#63b8ff" points="959.86,-55.04 970.42,-54.13 961.6,-48.26 959.86,-55.04"/>
</g>
<!-- Node22 -->
<g id="node22" class="node">
<title>Node22</title>
<g id="a_node22"><a xlink:href="../../da/d49/_scaled_integer_node_8cpp.html" target="_top" xlink:title=" ">
<polygon fill="white" stroke="#666666" points="1061.5,-19 942.5,-19 942.5,0 1061.5,0 1061.5,-19"/>
<text text-anchor="middle" x="1002" y="-7" font-family="Helvetica,sans-Serif" font-size="10.00">ScaledIntegerNode.cpp</text>
</a>
</g>
</g>
<!-- Node21&#45;&gt;Node22 -->
<g id="edge31" class="edge">
<title>Node21&#45;&gt;Node22</title>
<path fill="none" stroke="#63b8ff" d="M1005.1,-43.35C1004.32,-35.1 1003.46,-25.97 1002.84,-19.44"/>
<polygon fill="#63b8ff" stroke="#63b8ff" points="1001.61,-43.61 1006.03,-53.24 1008.58,-42.96 1001.61,-43.61"/>
</g>
<!-- Node23 -->
<g id="node23" class="node">
<title>Node23</title>
<g id="a_node23"><a xlink:href="../../d1/dfa/_scaled_integer_node_impl_8cpp.html" target="_top" xlink:title=" ">
<polygon fill="white" stroke="#666666" points="1216.5,-19 1079.5,-19 1079.5,0 1216.5,0 1216.5,-19"/>
<text text-anchor="middle" x="1148" y="-7" font-family="Helvetica,sans-Serif" font-size="10.00">ScaledIntegerNodeImpl.cpp</text>
</a>
</g>
</g>
<!-- Node21&#45;&gt;Node23 -->
<g id="edge32" class="edge">
<title>Node21&#45;&gt;Node23</title>
<path fill="none" stroke="#63b8ff" d="M1041.36,-50.58C1067.13,-40.9 1101.73,-27.89 1124.43,-19.36"/>
<polygon fill="#63b8ff" stroke="#63b8ff" points="1040.46,-47.18 1032.34,-53.98 1042.93,-53.73 1040.46,-47.18"/>
</g>
<!-- Node24&#45;&gt;Node5 -->
<g id="edge34" class="edge">
<title>Node24&#45;&gt;Node5</title>
<path fill="none" stroke="#63b8ff" d="M1990.62,-109.92C1948.72,-102.74 1890.94,-90.93 1842,-74 1823.78,-67.7 1821.47,-60.52 1803,-55 1681.93,-18.85 1646.18,-36.16 1521,-19 1518.18,-18.61 1515.28,-18.21 1512.35,-17.8"/>
<polygon fill="#63b8ff" stroke="#63b8ff" points="1989.79,-113.33 2000.23,-111.53 1990.95,-106.42 1989.79,-113.33"/>
</g>
<!-- Node25 -->
<g id="node25" class="node">
<title>Node25</title>
<g id="a_node25"><a xlink:href="../../d9/d8e/_string_node_8cpp.html" target="_top" xlink:title=" ">
<polygon fill="white" stroke="#666666" points="2089,-74 2005,-74 2005,-55 2089,-55 2089,-74"/>
<text text-anchor="middle" x="2047" y="-62" font-family="Helvetica,sans-Serif" font-size="10.00">StringNode.cpp</text>
</a>
</g>
</g>
<!-- Node24&#45;&gt;Node25 -->
<g id="edge35" class="edge">
<title>Node24&#45;&gt;Node25</title>
<path fill="none" stroke="#63b8ff" d="M2047.62,-98.35C2047.46,-90.1 2047.29,-80.97 2047.17,-74.44"/>
<polygon fill="#63b8ff" stroke="#63b8ff" points="2044.12,-98.3 2047.81,-108.23 2051.12,-98.17 2044.12,-98.3"/>
</g>
<!-- Node26 -->
<g id="node26" class="node">
<title>Node26</title>
<g id="a_node26"><a xlink:href="../../d2/d8a/_string_node_impl_8cpp.html" target="_top" xlink:title=" ">
<polygon fill="white" stroke="#666666" points="2210.5,-74 2107.5,-74 2107.5,-55 2210.5,-55 2210.5,-74"/>
<text text-anchor="middle" x="2159" y="-62" font-family="Helvetica,sans-Serif" font-size="10.00">StringNodeImpl.cpp</text>
</a>
</g>
</g>
<!-- Node24&#45;&gt;Node26 -->
<g id="edge36" class="edge">
<title>Node24&#45;&gt;Node26</title>
<path fill="none" stroke="#63b8ff" d="M2076.97,-104.67C2097.03,-95.09 2123.14,-82.62 2140.45,-74.36"/>
<polygon fill="#63b8ff" stroke="#63b8ff" points="2075.71,-101.39 2068.2,-108.86 2078.73,-107.71 2075.71,-101.39"/>
</g>
<!-- Node28 -->
<g id="node28" class="node">
<title>Node28</title>
<g id="a_node28"><a xlink:href="../../d4/d1f/_image_file_impl_8cpp.html" target="_top" xlink:title=" ">
<polygon fill="white" stroke="#666666" points="1794.5,-74 1697.5,-74 1697.5,-55 1794.5,-55 1794.5,-74"/>
<text text-anchor="middle" x="1746" y="-62" font-family="Helvetica,sans-Serif" font-size="10.00">ImageFileImpl.cpp</text>
</a>
</g>
</g>
<!-- Node27&#45;&gt;Node28 -->
<g id="edge38" class="edge">
<title>Node27&#45;&gt;Node28</title>
<path fill="none" stroke="#63b8ff" d="M1652.69,-105.06C1675.4,-95.43 1705.34,-82.74 1725.11,-74.36"/>
<polygon fill="#63b8ff" stroke="#63b8ff" points="1651.44,-101.79 1643.6,-108.92 1654.17,-108.24 1651.44,-101.79"/>
</g>
<!-- Node29 -->
<g id="node29" class="node">
<title>Node29</title>
<g id="a_node29"><a xlink:href="../../dc/dad/_structure_node_8cpp.html" target="_top" xlink:title=" ">
<polygon fill="white" stroke="#666666" points="1544,-74 1446,-74 1446,-55 1544,-55 1544,-74"/>
<text text-anchor="middle" x="1495" y="-62" font-family="Helvetica,sans-Serif" font-size="10.00">StructureNode.cpp</text>
</a>
</g>
</g>
<!-- Node27&#45;&gt;Node29 -->
<g id="edge39" class="edge">
<title>Node27&#45;&gt;Node29</title>
<path fill="none" stroke="#63b8ff" d="M1589.05,-105.06C1566.16,-95.43 1535.98,-82.74 1516.06,-74.36"/>
<polygon fill="#63b8ff" stroke="#63b8ff" points="1587.66,-108.27 1598.23,-108.92 1590.37,-101.82 1587.66,-108.27"/>
</g>
<!-- Node30 -->
<g id="node30" class="node">
<title>Node30</title>
<g id="a_node30"><a xlink:href="../../de/d17/_structure_node_impl_8cpp.html" target="_top" xlink:title=" ">
<polygon fill="white" stroke="#666666" points="1679.5,-74 1562.5,-74 1562.5,-55 1679.5,-55 1679.5,-74"/>
<text text-anchor="middle" x="1621" y="-62" font-family="Helvetica,sans-Serif" font-size="10.00">StructureNodeImpl.cpp</text>
</a>
</g>
</g>
<!-- Node27&#45;&gt;Node30 -->
<g id="edge40" class="edge">
<title>Node27&#45;&gt;Node30</title>
<path fill="none" stroke="#63b8ff" d="M1621,-98.35C1621,-90.1 1621,-80.97 1621,-74.44"/>
<polygon fill="#63b8ff" stroke="#63b8ff" points="1617.5,-98.23 1621,-108.23 1624.5,-98.23 1617.5,-98.23"/>
</g>
<!-- Node31 -->
<g id="node31" class="node">
<title>Node31</title>
<g id="a_node31"><a xlink:href="../../d4/dd8/_vector_node_impl_8h.html" target="_top" xlink:title=" ">
<polygon fill="white" stroke="#666666" points="1946.5,-74 1851.5,-74 1851.5,-55 1946.5,-55 1946.5,-74"/>
<text text-anchor="middle" x="1899" y="-62" font-family="Helvetica,sans-Serif" font-size="10.00">VectorNodeImpl.h</text>
</a>
</g>
</g>
<!-- Node27&#45;&gt;Node31 -->
<g id="edge41" class="edge">
<title>Node27&#45;&gt;Node31</title>
<path fill="none" stroke="#63b8ff" d="M1679.4,-107.37C1730.74,-97.58 1804.49,-83.52 1852.07,-74.45"/>
<polygon fill="#63b8ff" stroke="#63b8ff" points="1678.81,-103.91 1669.65,-109.23 1680.12,-110.79 1678.81,-103.91"/>
</g>
<!-- Node31&#45;&gt;Node5 -->
<g id="edge43" class="edge">
<title>Node31&#45;&gt;Node5</title>
<path fill="none" stroke="#63b8ff" d="M1840.07,-55.39C1839.04,-55.26 1838.01,-55.13 1837,-55 1696.75,-37.4 1661.17,-37.25 1521,-19 1518.17,-18.63 1515.27,-18.24 1512.35,-17.84"/>
<polygon fill="#63b8ff" stroke="#63b8ff" points="1839.42,-58.83 1849.79,-56.65 1840.32,-51.89 1839.42,-58.83"/>
</g>
<!-- Node31&#45;&gt;Node8 -->
<g id="edge42" class="edge">
<title>Node31&#45;&gt;Node8</title>
<path fill="none" stroke="#63b8ff" d="M1839.93,-58.26C1747.26,-50.03 1562.06,-33.49 1405,-19 1402.03,-18.73 1399.01,-18.45 1395.95,-18.16"/>
<polygon fill="#63b8ff" stroke="#63b8ff" points="1839.53,-61.74 1849.8,-59.14 1840.15,-54.77 1839.53,-61.74"/>
</g>
<!-- Node31&#45;&gt;Node20 -->
<g id="edge44" class="edge">
<title>Node31&#45;&gt;Node20</title>
<path fill="none" stroke="#63b8ff" d="M1928.73,-49.8C1949.55,-40.2 1976.76,-27.66 1994.78,-19.36"/>
<polygon fill="#63b8ff" stroke="#63b8ff" points="1927.5,-46.51 1919.88,-53.88 1930.43,-52.87 1927.5,-46.51"/>
</g>
<!-- Node32 -->
<g id="node32" class="node">
<title>Node32</title>
<g id="a_node32"><a xlink:href="../../da/ded/_vector_node_8cpp.html" target="_top" xlink:title=" ">
<polygon fill="white" stroke="#666666" points="1832.5,-19 1745.5,-19 1745.5,0 1832.5,0 1832.5,-19"/>
<text text-anchor="middle" x="1789" y="-7" font-family="Helvetica,sans-Serif" font-size="10.00">VectorNode.cpp</text>
</a>
</g>
</g>
<!-- Node31&#45;&gt;Node32 -->
<g id="edge45" class="edge">
<title>Node31&#45;&gt;Node32</title>
<path fill="none" stroke="#63b8ff" d="M1870.01,-49.53C1850.17,-39.97 1824.46,-27.59 1807.38,-19.36"/>
<polygon fill="#63b8ff" stroke="#63b8ff" points="1868.45,-52.66 1878.98,-53.85 1871.49,-46.36 1868.45,-52.66"/>
</g>
<!-- Node33 -->
<g id="node33" class="node">
<title>Node33</title>
<g id="a_node33"><a xlink:href="../../dd/d16/_vector_node_impl_8cpp.html" target="_top" xlink:title=" ">
<polygon fill="white" stroke="#666666" points="1957,-19 1851,-19 1851,0 1957,0 1957,-19"/>
<text text-anchor="middle" x="1904" y="-7" font-family="Helvetica,sans-Serif" font-size="10.00">VectorNodeImpl.cpp</text>
</a>
</g>
</g>
<!-- Node31&#45;&gt;Node33 -->
<g id="edge46" class="edge">
<title>Node31&#45;&gt;Node33</title>
<path fill="none" stroke="#63b8ff" d="M1900.9,-43.35C1901.68,-35.1 1902.54,-25.97 1903.16,-19.44"/>
<polygon fill="#63b8ff" stroke="#63b8ff" points="1897.42,-42.96 1899.97,-53.24 1904.39,-43.61 1897.42,-42.96"/>
</g>
</g>
</svg>
        <g id="navigator" transform="translate(0 0)" fill="#404254">
                <rect fill="#f2f5e9" fill-opacity="0.5" stroke="#606060" stroke-width=".5" x="0" y="0" width="60" height="60"/>
                <use id="zoomplus" xlink:href="#zoomPlus" x="17" y="9" onmousedown="handleZoom(evt,'in')"/>
                <use id="zoomminus" xlink:href="#zoomMin" x="42" y="9" onmousedown="handleZoom(evt,'out')"/>
                <use id="reset" xlink:href="#resetDef" x="30" y="36" onmousedown="handleReset()"/>
                <g id="arrowUp" xlink:href="#dirArrow" transform="translate(30 24)" onmousedown="handlePan(0,-1)">
                  <use xlink:href="#rim" fill="#404040">
                        <set attributeName="fill" to="#808080" begin="arrowUp.mouseover" end="arrowUp.mouseout"/>
                  </use>
                  <path fill="none" stroke="white" stroke-width="1.5" d="M0,-3.0v7 M-2.5,-0.5L0,-3.0L2.5,-0.5"/>
                </g>
                <g id="arrowRight" xlink:href="#dirArrow" transform="rotate(90) translate(36 -43)" onmousedown="handlePan(1,0)">
                  <use xlink:href="#rim" fill="#404040">
                        <set attributeName="fill" to="#808080" begin="arrowRight.mouseover" end="arrowRight.mouseout"/>
                  </use>
                  <path fill="none" stroke="white" stroke-width="1.5" d="M0,-3.0v7 M-2.5,-0.5L0,-3.0L2.5,-0.5"/>
                </g>
                <g id="arrowDown" xlink:href="#dirArrow" transform="rotate(180) translate(-30 -48)" onmousedown="handlePan(0,1)">
                  <use xlink:href="#rim" fill="#404040">
                        <set attributeName="fill" to="#808080" begin="arrowDown.mouseover" end="arrowDown.mouseout"/>
                  </use>
                  <path fill="none" stroke="white" stroke-width="1.5" d="M0,-3.0v7 M-2.5,-0.5L0,-3.0L2.5,-0.5"/>
                </g>
                <g id="arrowLeft" xlink:href="#dirArrow" transform="rotate(270) translate(-36 17)" onmousedown="handlePan(-1,0)">
                  <use xlink:href="#rim" fill="#404040">
                        <set attributeName="fill" to="#808080" begin="arrowLeft.mouseover" end="arrowLeft.mouseout"/>
                  </use>
                  <path fill="none" stroke="white" stroke-width="1.5" d="M0,-3.0v7 M-2.5,-0.5L0,-3.0L2.5,-0.5"/>
                </g>
        </g>
        <svg viewBox="0 0 15 15" width="100%" height="30px" preserveAspectRatio="xMaxYMin meet">
         <g id="arrow_out" transform="scale(0.3 0.3)">
          <a xlink:href="_node_impl_8h__dep__incl_org.svg" target="_base">
           <rect id="button" ry="5" rx="5" y="6" x="6" height="38" width="38"
                fill="#f2f5e9" fill-opacity="0.5" stroke="#606060" stroke-width="1.0"/>
           <path id="arrow"
             d="M 11.500037,31.436501 C 11.940474,20.09759 22.043105,11.32322 32.158766,21.979434 L 37.068811,17.246167 C 37.068811,17.246167 37.088388,32 37.088388,32 L 22.160133,31.978069 C 22.160133,31.978069 26.997745,27.140456 26.997745,27.140456 C 18.528582,18.264221 13.291696,25.230495 11.500037,31.436501 z"
             style="fill:#404040;"/>
          </a>
         </g>
        </svg>
</svg>
