<?xml version="1.0" encoding="UTF-8" standalone="no"?>
<!DOCTYPE svg PUBLIC "-//W3C//DTD SVG 1.1//EN"
 "http://www.w3.org/Graphics/SVG/1.1/DTD/svg11.dtd">
<!-- Generated by graphviz version 9.0.0 (20230911.1827)
 -->
<!-- Title: BlobNode.cpp Pages: 1 -->
<svg width="204pt" height="83pt"
 viewBox="0.00 0.00 204.12 82.50" xmlns="http://www.w3.org/2000/svg" xmlns:xlink="http://www.w3.org/1999/xlink">
<g id="graph0" class="graph" transform="scale(1 1) rotate(0) translate(4 78.5)">
<title>BlobNode.cpp</title>
<!-- Node1 -->
<g id="node1" class="node">
<title>Node1</title>
<g id="a_node1"><a xlink:title=" ">
<polygon fill="#999999" stroke="#666666" points="134.62,-74.5 57.12,-74.5 57.12,-55.25 134.62,-55.25 134.62,-74.5"/>
<text text-anchor="middle" x="95.88" y="-61" font-family="Helvetica,sans-Serif" font-size="10.00">BlobNode.cpp</text>
</a>
</g>
</g>
<!-- Node2 -->
<g id="node2" class="node">
<title>Node2</title>
<g id="a_node2"><a xlink:title=" ">
<polygon fill="#e0e0e0" stroke="#999999" points="85.75,-19.25 0,-19.25 0,0 85.75,0 85.75,-19.25"/>
<text text-anchor="middle" x="42.88" y="-5.75" font-family="Helvetica,sans-Serif" font-size="10.00">BlobNodeImpl.h</text>
</a>
</g>
</g>
<!-- Node1&#45;&gt;Node2 -->
<g id="edge1" class="edge">
<title>Node1&#45;&gt;Node2</title>
<path fill="none" stroke="#63b8ff" d="M87.12,-55.08C79.73,-47.65 68.91,-36.79 59.83,-27.66"/>
<polygon fill="#63b8ff" stroke="#63b8ff" points="62.42,-25.3 52.88,-20.68 57.46,-30.24 62.42,-25.3"/>
</g>
<!-- Node3 -->
<g id="node3" class="node">
<title>Node3</title>
<g id="a_node3"><a xlink:title=" ">
<polygon fill="#e0e0e0" stroke="#999999" points="196.12,-19.25 103.62,-19.25 103.62,0 196.12,0 196.12,-19.25"/>
<text text-anchor="middle" x="149.88" y="-5.75" font-family="Helvetica,sans-Serif" font-size="10.00">StringFunctions.h</text>
</a>
</g>
</g>
<!-- Node1&#45;&gt;Node3 -->
<g id="edge2" class="edge">
<title>Node1&#45;&gt;Node3</title>
<path fill="none" stroke="#63b8ff" d="M104.79,-55.08C112.33,-47.65 123.34,-36.79 132.6,-27.66"/>
<polygon fill="#63b8ff" stroke="#63b8ff" points="135.02,-30.19 139.69,-20.67 130.11,-25.2 135.02,-30.19"/>
</g>
</g>
</svg>
