<?xml version="1.0" encoding="UTF-8" standalone="no"?>
<!DOCTYPE svg PUBLIC "-//W3C//DTD SVG 1.1//EN"
 "http://www.w3.org/Graphics/SVG/1.1/DTD/svg11.dtd">
<!-- Generated by graphviz version 7.0.0 (20221023.0053)
 -->
<!-- Title: e57::Encoder Pages: 1 -->
<svg width="435pt" height="113pt"
 viewBox="0.00 0.00 435.00 113.00" xmlns="http://www.w3.org/2000/svg" xmlns:xlink="http://www.w3.org/1999/xlink">
<g id="graph0" class="graph" transform="scale(1 1) rotate(0) translate(4 109)">
<title>e57::Encoder</title>
<!-- Node1 -->
<g id="node1" class="node">
<title>Node1</title>
<g id="a_node1"><a xlink:title=" ">
<polygon fill="#999999" stroke="#666666" points="74,-43 0,-43 0,-24 74,-24 74,-43"/>
<text text-anchor="middle" x="37" y="-31" font-family="Helvetica,sans-Serif" font-size="10.00">e57::Encoder</text>
</a>
</g>
</g>
<!-- Node2 -->
<g id="node2" class="node">
<title>Node2</title>
<g id="a_node2"><a xlink:href="../../d6/d4e/classe57_1_1_bitpack_encoder.html" target="_top" xlink:title=" ">
<polygon fill="white" stroke="#666666" points="235.5,-62 128.5,-62 128.5,-43 235.5,-43 235.5,-62"/>
<text text-anchor="middle" x="182" y="-50" font-family="Helvetica,sans-Serif" font-size="10.00">e57::BitpackEncoder</text>
</a>
</g>
</g>
<!-- Node1&#45;&gt;Node2 -->
<g id="edge1" class="edge">
<title>Node1&#45;&gt;Node2</title>
<path fill="none" stroke="#63b8ff" d="M85.57,-39.82C99.22,-41.63 114.19,-43.62 128.15,-45.48"/>
<polygon fill="#63b8ff" stroke="#63b8ff" points="86.33,-36.39 75.96,-38.54 85.41,-43.33 86.33,-36.39"/>
</g>
<!-- Node6 -->
<g id="node6" class="node">
<title>Node6</title>
<g id="a_node6"><a xlink:href="../../d9/d05/classe57_1_1_constant_integer_encoder.html" target="_top" xlink:title=" ">
<polygon fill="white" stroke="#666666" points="254,-25 110,-25 110,-6 254,-6 254,-25"/>
<text text-anchor="middle" x="182" y="-13" font-family="Helvetica,sans-Serif" font-size="10.00">e57::ConstantIntegerEncoder</text>
</a>
</g>
</g>
<!-- Node1&#45;&gt;Node6 -->
<g id="edge5" class="edge">
<title>Node1&#45;&gt;Node6</title>
<path fill="none" stroke="#63b8ff" d="M85.72,-27.49C93.38,-26.53 101.46,-25.51 109.54,-24.5"/>
<polygon fill="#63b8ff" stroke="#63b8ff" points="85.44,-24 75.96,-28.72 86.32,-30.95 85.44,-24"/>
</g>
<!-- Node3 -->
<g id="node3" class="node">
<title>Node3</title>
<g id="a_node3"><a xlink:href="../../dd/d88/classe57_1_1_bitpack_float_encoder.html" target="_top" xlink:title=" ">
<polygon fill="white" stroke="#666666" points="423,-105 294,-105 294,-86 423,-86 423,-105"/>
<text text-anchor="middle" x="358.5" y="-93" font-family="Helvetica,sans-Serif" font-size="10.00">e57::BitpackFloatEncoder</text>
</a>
</g>
</g>
<!-- Node2&#45;&gt;Node3 -->
<g id="edge2" class="edge">
<title>Node2&#45;&gt;Node3</title>
<path fill="none" stroke="#63b8ff" d="M234.4,-65.17C260.74,-71.66 292.35,-79.45 316.95,-85.51"/>
<polygon fill="#63b8ff" stroke="#63b8ff" points="235.49,-61.83 224.94,-62.84 233.81,-68.63 235.49,-61.83"/>
</g>
<!-- Node4 -->
<g id="node4" class="node">
<title>Node4</title>
<g id="a_node4"><a xlink:href="../../d0/d93/classe57_1_1_bitpack_integer_encoder.html" target="_top" xlink:title=" ">
<polygon fill="white" stroke="#666666" points="427,-67.5 290,-67.5 290,-37.5 427,-37.5 427,-67.5"/>
<text text-anchor="start" x="298" y="-55.5" font-family="Helvetica,sans-Serif" font-size="10.00">e57::BitpackIntegerEncoder</text>
<text text-anchor="middle" x="358.5" y="-44.5" font-family="Helvetica,sans-Serif" font-size="10.00">&lt; RegisterT &gt;</text>
</a>
</g>
</g>
<!-- Node2&#45;&gt;Node4 -->
<g id="edge3" class="edge">
<title>Node2&#45;&gt;Node4</title>
<path fill="none" stroke="#63b8ff" d="M247.22,-52.5C261.05,-52.5 275.71,-52.5 289.67,-52.5"/>
<polygon fill="#63b8ff" stroke="#63b8ff" points="247.34,-49 237.34,-52.5 247.34,-56 247.34,-49"/>
</g>
<!-- Node5 -->
<g id="node5" class="node">
<title>Node5</title>
<g id="a_node5"><a xlink:href="../../dc/df1/classe57_1_1_bitpack_string_encoder.html" target="_top" xlink:title=" ">
<polygon fill="white" stroke="#666666" points="425,-19 292,-19 292,0 425,0 425,-19"/>
<text text-anchor="middle" x="358.5" y="-7" font-family="Helvetica,sans-Serif" font-size="10.00">e57::BitpackStringEncoder</text>
</a>
</g>
</g>
<!-- Node2&#45;&gt;Node5 -->
<g id="edge4" class="edge">
<title>Node2&#45;&gt;Node5</title>
<path fill="none" stroke="#63b8ff" d="M234.4,-39.83C260.74,-33.34 292.35,-25.55 316.95,-19.49"/>
<polygon fill="#63b8ff" stroke="#63b8ff" points="233.81,-36.37 224.94,-42.16 235.49,-43.17 233.81,-36.37"/>
</g>
</g>
</svg>
