<?xml version="1.0" encoding="UTF-8" standalone="no"?>
<!DOCTYPE svg PUBLIC "-//W3C//DTD SVG 1.1//EN"
 "http://www.w3.org/Graphics/SVG/1.1/DTD/svg11.dtd">
<!-- Generated by graphviz version 7.0.0 (20221023.0053)
 -->
<!-- Title: CheckedFile.h Pages: 1 -->
<svg width="537pt" height="247pt"
 viewBox="0.00 0.00 536.50 247.00" xmlns="http://www.w3.org/2000/svg" xmlns:xlink="http://www.w3.org/1999/xlink">
<g id="graph0" class="graph" transform="scale(1 1) rotate(0) translate(4 243)">
<title>CheckedFile.h</title>
<!-- Node1 -->
<g id="node1" class="node">
<title>Node1</title>
<g id="a_node1"><a xlink:title=" ">
<polygon fill="#999999" stroke="#666666" points="107,-239 27,-239 27,-220 107,-220 107,-239"/>
<text text-anchor="middle" x="67" y="-227" font-family="Helvetica,sans-Serif" font-size="10.00">CheckedFile.h</text>
</a>
</g>
</g>
<!-- Node2 -->
<g id="node2" class="node">
<title>Node2</title>
<g id="a_node2"><a xlink:title=" ">
<polygon fill="#e0e0e0" stroke="#999999" points="56,-184 0,-184 0,-165 56,-165 56,-184"/>
<text text-anchor="middle" x="28" y="-172" font-family="Helvetica,sans-Serif" font-size="10.00">algorithm</text>
</a>
</g>
</g>
<!-- Node1&#45;&gt;Node2 -->
<g id="edge1" class="edge">
<title>Node1&#45;&gt;Node2</title>
<path fill="none" stroke="#63b8ff" d="M60.56,-219.75C55.34,-212.66 47.81,-202.42 41.31,-193.59"/>
<polygon fill="#63b8ff" stroke="#63b8ff" points="44.22,-191.64 35.48,-185.66 38.58,-195.79 44.22,-191.64"/>
</g>
<!-- Node3 -->
<g id="node3" class="node">
<title>Node3</title>
<g id="a_node3"><a xlink:href="../../db/d1f/_common_8h.html" target="_top" xlink:title=" ">
<polygon fill="white" stroke="#666666" points="139.5,-184 74.5,-184 74.5,-165 139.5,-165 139.5,-184"/>
<text text-anchor="middle" x="107" y="-172" font-family="Helvetica,sans-Serif" font-size="10.00">Common.h</text>
</a>
</g>
</g>
<!-- Node1&#45;&gt;Node3 -->
<g id="edge2" class="edge">
<title>Node1&#45;&gt;Node3</title>
<path fill="none" stroke="#63b8ff" d="M73.61,-219.75C78.96,-212.66 86.68,-202.42 93.35,-193.59"/>
<polygon fill="#63b8ff" stroke="#63b8ff" points="96.11,-195.74 99.34,-185.65 90.52,-191.52 96.11,-195.74"/>
</g>
<!-- Node4 -->
<g id="node4" class="node">
<title>Node4</title>
<g id="a_node4"><a xlink:title=" ">
<polygon fill="#e0e0e0" stroke="#999999" points="57,-129 27,-129 27,-110 57,-110 57,-129"/>
<text text-anchor="middle" x="42" y="-117" font-family="Helvetica,sans-Serif" font-size="10.00">set</text>
</a>
</g>
</g>
<!-- Node3&#45;&gt;Node4 -->
<g id="edge3" class="edge">
<title>Node3&#45;&gt;Node4</title>
<path fill="none" stroke="#63b8ff" d="M95.97,-164.51C86.58,-156.85 72.85,-145.66 61.59,-136.47"/>
<polygon fill="#63b8ff" stroke="#63b8ff" points="64,-133.92 54.04,-130.31 59.57,-139.35 64,-133.92"/>
</g>
<!-- Node5 -->
<g id="node5" class="node">
<title>Node5</title>
<g id="a_node5"><a xlink:title=" ">
<polygon fill="#e0e0e0" stroke="#999999" points="197.5,-19 156.5,-19 156.5,0 197.5,0 197.5,-19"/>
<text text-anchor="middle" x="177" y="-7" font-family="Helvetica,sans-Serif" font-size="10.00">string</text>
</a>
</g>
</g>
<!-- Node3&#45;&gt;Node5 -->
<g id="edge4" class="edge">
<title>Node3&#45;&gt;Node5</title>
<path fill="none" stroke="#63b8ff" d="M103.94,-164.74C97.28,-144.07 83.65,-91.25 104,-55 112.98,-39.02 130.28,-28.1 145.79,-21.08"/>
<polygon fill="#63b8ff" stroke="#63b8ff" points="146.8,-24.45 154.72,-17.4 144.14,-17.97 146.8,-24.45"/>
</g>
<!-- Node6 -->
<g id="node6" class="node">
<title>Node6</title>
<g id="a_node6"><a xlink:title=" ">
<polygon fill="#e0e0e0" stroke="#999999" points="157,-74 113,-74 113,-55 157,-55 157,-74"/>
<text text-anchor="middle" x="135" y="-62" font-family="Helvetica,sans-Serif" font-size="10.00">vector</text>
</a>
</g>
</g>
<!-- Node3&#45;&gt;Node6 -->
<g id="edge5" class="edge">
<title>Node3&#45;&gt;Node6</title>
<path fill="none" stroke="#63b8ff" d="M109.29,-164.66C113.74,-147.5 123.66,-109.26 129.79,-85.6"/>
<polygon fill="#63b8ff" stroke="#63b8ff" points="133.18,-86.48 132.3,-75.93 126.4,-84.73 133.18,-86.48"/>
</g>
<!-- Node7 -->
<g id="node7" class="node">
<title>Node7</title>
<g id="a_node7"><a xlink:href="../../d1/df2/_e57_format_8h.html" target="_top" xlink:title="Header file for the E57 API.">
<polygon fill="white" stroke="#666666" points="259.5,-129 186.5,-129 186.5,-110 259.5,-110 259.5,-129"/>
<text text-anchor="middle" x="223" y="-117" font-family="Helvetica,sans-Serif" font-size="10.00">E57Format.h</text>
</a>
</g>
</g>
<!-- Node3&#45;&gt;Node7 -->
<g id="edge6" class="edge">
<title>Node3&#45;&gt;Node7</title>
<path fill="none" stroke="#63b8ff" d="M126.68,-164.51C144.95,-156.16 172.41,-143.61 193.35,-134.05"/>
<polygon fill="#63b8ff" stroke="#63b8ff" points="194.6,-137.33 202.24,-129.99 191.69,-130.96 194.6,-137.33"/>
</g>
<!-- Node7&#45;&gt;Node6 -->
<g id="edge10" class="edge">
<title>Node7&#45;&gt;Node6</title>
<path fill="none" stroke="#63b8ff" d="M208.07,-109.51C194.72,-101.47 174.89,-89.53 159.26,-80.11"/>
<polygon fill="#63b8ff" stroke="#63b8ff" points="161.38,-77.3 151,-75.14 157.76,-83.3 161.38,-77.3"/>
</g>
<!-- Node8 -->
<g id="node8" class="node">
<title>Node8</title>
<g id="a_node8"><a xlink:title=" ">
<polygon fill="#e0e0e0" stroke="#999999" points="216.5,-74 175.5,-74 175.5,-55 216.5,-55 216.5,-74"/>
<text text-anchor="middle" x="196" y="-62" font-family="Helvetica,sans-Serif" font-size="10.00">cfloat</text>
</a>
</g>
</g>
<!-- Node7&#45;&gt;Node8 -->
<g id="edge7" class="edge">
<title>Node7&#45;&gt;Node8</title>
<path fill="none" stroke="#63b8ff" d="M218.54,-109.75C215.05,-102.88 210.05,-93.08 205.65,-84.45"/>
<polygon fill="#63b8ff" stroke="#63b8ff" points="208.9,-83.11 201.24,-75.79 202.66,-86.29 208.9,-83.11"/>
</g>
<!-- Node9 -->
<g id="node9" class="node">
<title>Node9</title>
<g id="a_node9"><a xlink:title=" ">
<polygon fill="#e0e0e0" stroke="#999999" points="281,-74 235,-74 235,-55 281,-55 281,-74"/>
<text text-anchor="middle" x="258" y="-62" font-family="Helvetica,sans-Serif" font-size="10.00">cstdint</text>
</a>
</g>
</g>
<!-- Node7&#45;&gt;Node9 -->
<g id="edge8" class="edge">
<title>Node7&#45;&gt;Node9</title>
<path fill="none" stroke="#63b8ff" d="M228.78,-109.75C233.41,-102.73 240.07,-92.64 245.87,-83.87"/>
<polygon fill="#63b8ff" stroke="#63b8ff" points="248.67,-85.98 251.26,-75.71 242.83,-82.12 248.67,-85.98"/>
</g>
<!-- Node10 -->
<g id="node10" class="node">
<title>Node10</title>
<g id="a_node10"><a xlink:title=" ">
<polygon fill="#e0e0e0" stroke="#999999" points="351,-74 299,-74 299,-55 351,-55 351,-74"/>
<text text-anchor="middle" x="325" y="-62" font-family="Helvetica,sans-Serif" font-size="10.00">memory</text>
</a>
</g>
</g>
<!-- Node7&#45;&gt;Node10 -->
<g id="edge9" class="edge">
<title>Node7&#45;&gt;Node10</title>
<path fill="none" stroke="#63b8ff" d="M240.3,-109.51C256.08,-101.31 279.64,-89.07 297.91,-79.58"/>
<polygon fill="#63b8ff" stroke="#63b8ff" points="299.35,-82.77 306.61,-75.06 296.12,-76.56 299.35,-82.77"/>
</g>
<!-- Node11 -->
<g id="node11" class="node">
<title>Node11</title>
<g id="a_node11"><a xlink:href="../../d4/d6e/_e57_exception_8h.html" target="_top" xlink:title="Exception handling for E57 API.">
<polygon fill="white" stroke="#666666" points="455,-74 369,-74 369,-55 455,-55 455,-74"/>
<text text-anchor="middle" x="412" y="-62" font-family="Helvetica,sans-Serif" font-size="10.00">E57Exception.h</text>
</a>
</g>
</g>
<!-- Node7&#45;&gt;Node11 -->
<g id="edge11" class="edge">
<title>Node7&#45;&gt;Node11</title>
<path fill="none" stroke="#63b8ff" d="M255.06,-109.51C286.52,-100.69 334.68,-87.18 369.35,-77.46"/>
<polygon fill="#63b8ff" stroke="#63b8ff" points="369.96,-80.93 378.64,-74.85 368.07,-74.19 369.96,-80.93"/>
</g>
<!-- Node11&#45;&gt;Node5 -->
<g id="edge14" class="edge">
<title>Node11&#45;&gt;Node5</title>
<path fill="none" stroke="#63b8ff" d="M372.14,-54.51C326.05,-44.12 251.13,-27.22 208.79,-17.67"/>
<polygon fill="#63b8ff" stroke="#63b8ff" points="209.76,-14.3 199.23,-15.51 208.22,-21.13 209.76,-14.3"/>
</g>
<!-- Node12 -->
<g id="node12" class="node">
<title>Node12</title>
<g id="a_node12"><a xlink:title=" ">
<polygon fill="#e0e0e0" stroke="#999999" points="366.5,-19 307.5,-19 307.5,0 366.5,0 366.5,-19"/>
<text text-anchor="middle" x="337" y="-7" font-family="Helvetica,sans-Serif" font-size="10.00">exception</text>
</a>
</g>
</g>
<!-- Node11&#45;&gt;Node12 -->
<g id="edge12" class="edge">
<title>Node11&#45;&gt;Node12</title>
<path fill="none" stroke="#63b8ff" d="M399.28,-54.51C388.22,-46.7 371.96,-35.21 358.83,-25.93"/>
<polygon fill="#63b8ff" stroke="#63b8ff" points="360.96,-23.14 350.77,-20.23 356.92,-28.86 360.96,-23.14"/>
</g>
<!-- Node13 -->
<g id="node13" class="node">
<title>Node13</title>
<g id="a_node13"><a xlink:title=" ">
<polygon fill="#e0e0e0" stroke="#999999" points="439,-19 385,-19 385,0 439,0 439,-19"/>
<text text-anchor="middle" x="412" y="-7" font-family="Helvetica,sans-Serif" font-size="10.00">iostream</text>
</a>
</g>
</g>
<!-- Node11&#45;&gt;Node13 -->
<g id="edge13" class="edge">
<title>Node11&#45;&gt;Node13</title>
<path fill="none" stroke="#63b8ff" d="M412,-54.75C412,-48.27 412,-39.16 412,-30.9"/>
<polygon fill="#63b8ff" stroke="#63b8ff" points="415.5,-30.96 412,-20.96 408.5,-30.96 415.5,-30.96"/>
</g>
<!-- Node14 -->
<g id="node14" class="node">
<title>Node14</title>
<g id="a_node14"><a xlink:title=" ">
<polygon fill="#e0e0e0" stroke="#999999" points="528.5,-19 457.5,-19 457.5,0 528.5,0 528.5,-19"/>
<text text-anchor="middle" x="493" y="-7" font-family="Helvetica,sans-Serif" font-size="10.00">E57Export.h</text>
</a>
</g>
</g>
<!-- Node11&#45;&gt;Node14 -->
<g id="edge15" class="edge">
<title>Node11&#45;&gt;Node14</title>
<path fill="none" stroke="#63b8ff" d="M425.74,-54.51C437.8,-46.62 455.59,-34.98 469.84,-25.65"/>
<polygon fill="#63b8ff" stroke="#63b8ff" points="471.74,-28.59 478.2,-20.19 467.91,-22.73 471.74,-28.59"/>
</g>
</g>
</svg>
