<?xml version="1.0" encoding="UTF-8" standalone="no"?>
<!DOCTYPE svg PUBLIC "-//W3C//DTD SVG 1.1//EN"
 "http://www.w3.org/Graphics/SVG/1.1/DTD/svg11.dtd">
<!-- Generated by graphviz version 7.0.0 (20221023.0053)
 -->
<!-- Title: E57SimpleData.h Pages: 1 -->
<svg width="542pt" height="192pt"
 viewBox="0.00 0.00 542.00 192.00" xmlns="http://www.w3.org/2000/svg" xmlns:xlink="http://www.w3.org/1999/xlink">
<g id="graph0" class="graph" transform="scale(1 1) rotate(0) translate(4 188)">
<title>E57SimpleData.h</title>
<!-- Node1 -->
<g id="node1" class="node">
<title>Node1</title>
<g id="a_node1"><a xlink:title="Data structures for E57 Simple API.">
<polygon fill="#999999" stroke="#666666" points="300.5,-184 207.5,-184 207.5,-165 300.5,-165 300.5,-184"/>
<text text-anchor="middle" x="254" y="-172" font-family="Helvetica,sans-Serif" font-size="10.00">E57SimpleData.h</text>
</a>
</g>
</g>
<!-- Node2 -->
<g id="node2" class="node">
<title>Node2</title>
<g id="a_node2"><a xlink:href="../../de/db4/_e57_simple_data_8cpp.html" target="_top" xlink:title=" ">
<polygon fill="white" stroke="#666666" points="104,-129 0,-129 0,-110 104,-110 104,-129"/>
<text text-anchor="middle" x="52" y="-117" font-family="Helvetica,sans-Serif" font-size="10.00">E57SimpleData.cpp</text>
</a>
</g>
</g>
<!-- Node1&#45;&gt;Node2 -->
<g id="edge1" class="edge">
<title>Node1&#45;&gt;Node2</title>
<path fill="none" stroke="#63b8ff" d="M208.71,-161.62C171.57,-151.87 119.8,-138.29 86.1,-129.45"/>
<polygon fill="#63b8ff" stroke="#63b8ff" points="207.71,-164.97 218.27,-164.13 209.49,-158.2 207.71,-164.97"/>
</g>
<!-- Node3 -->
<g id="node3" class="node">
<title>Node3</title>
<g id="a_node3"><a xlink:href="../../dc/d3a/_e57_simple_reader_8h.html" target="_top" xlink:title="E57 Simple API for reading E57.">
<polygon fill="white" stroke="#666666" points="225.5,-129 122.5,-129 122.5,-110 225.5,-110 225.5,-129"/>
<text text-anchor="middle" x="174" y="-117" font-family="Helvetica,sans-Serif" font-size="10.00">E57SimpleReader.h</text>
</a>
</g>
</g>
<!-- Node1&#45;&gt;Node3 -->
<g id="edge2" class="edge">
<title>Node1&#45;&gt;Node3</title>
<path fill="none" stroke="#63b8ff" d="M230.89,-158.19C216.77,-148.84 199.22,-137.21 187.37,-129.36"/>
<polygon fill="#63b8ff" stroke="#63b8ff" points="228.9,-161.07 239.17,-163.67 232.76,-155.23 228.9,-161.07"/>
</g>
<!-- Node5 -->
<g id="node5" class="node">
<title>Node5</title>
<g id="a_node5"><a xlink:href="../../d0/d52/_reader_impl_8h.html" target="_top" xlink:title=" ">
<polygon fill="white" stroke="#666666" points="284.5,-74 209.5,-74 209.5,-55 284.5,-55 284.5,-74"/>
<text text-anchor="middle" x="247" y="-62" font-family="Helvetica,sans-Serif" font-size="10.00">ReaderImpl.h</text>
</a>
</g>
</g>
<!-- Node1&#45;&gt;Node5 -->
<g id="edge12" class="edge">
<title>Node1&#45;&gt;Node5</title>
<path fill="none" stroke="#63b8ff" d="M252.69,-153.24C251.16,-129.63 248.69,-91.65 247.58,-74.46"/>
<polygon fill="#63b8ff" stroke="#63b8ff" points="249.19,-153.4 253.33,-163.15 256.18,-152.95 249.19,-153.4"/>
</g>
<!-- Node7 -->
<g id="node7" class="node">
<title>Node7</title>
<g id="a_node7"><a xlink:href="../../d3/d3a/_e57_simple_writer_8h.html" target="_top" xlink:title="E57 Simple API for writing E57.">
<polygon fill="white" stroke="#666666" points="379.5,-129 282.5,-129 282.5,-110 379.5,-110 379.5,-129"/>
<text text-anchor="middle" x="331" y="-117" font-family="Helvetica,sans-Serif" font-size="10.00">E57SimpleWriter.h</text>
</a>
</g>
</g>
<!-- Node1&#45;&gt;Node7 -->
<g id="edge7" class="edge">
<title>Node1&#45;&gt;Node7</title>
<path fill="none" stroke="#63b8ff" d="M276.25,-158.19C289.83,-148.84 306.73,-137.21 318.13,-129.36"/>
<polygon fill="#63b8ff" stroke="#63b8ff" points="274.56,-155.1 268.31,-163.65 278.53,-160.86 274.56,-155.1"/>
</g>
<!-- Node9 -->
<g id="node9" class="node">
<title>Node9</title>
<g id="a_node9"><a xlink:href="../../d2/d80/_writer_impl_8h.html" target="_top" xlink:title=" ">
<polygon fill="white" stroke="#666666" points="436.5,-74 367.5,-74 367.5,-55 436.5,-55 436.5,-74"/>
<text text-anchor="middle" x="402" y="-62" font-family="Helvetica,sans-Serif" font-size="10.00">WriterImpl.h</text>
</a>
</g>
</g>
<!-- Node1&#45;&gt;Node9 -->
<g id="edge13" class="edge">
<title>Node1&#45;&gt;Node9</title>
<path fill="none" stroke="#63b8ff" d="M312.16,-167.33C338.81,-161.56 368.68,-150.43 388,-129 401.91,-113.57 403.06,-87.52 402.6,-74.08"/>
<polygon fill="#63b8ff" stroke="#63b8ff" points="311.62,-163.87 302.47,-169.21 312.95,-170.74 311.62,-163.87"/>
</g>
<!-- Node4 -->
<g id="node4" class="node">
<title>Node4</title>
<g id="a_node4"><a xlink:href="../../dd/d80/_e57_simple_reader_8cpp.html" target="_top" xlink:title=" ">
<polygon fill="white" stroke="#666666" points="205.5,-19 92.5,-19 92.5,0 205.5,0 205.5,-19"/>
<text text-anchor="middle" x="149" y="-7" font-family="Helvetica,sans-Serif" font-size="10.00">E57SimpleReader.cpp</text>
</a>
</g>
</g>
<!-- Node3&#45;&gt;Node4 -->
<g id="edge3" class="edge">
<title>Node3&#45;&gt;Node4</title>
<path fill="none" stroke="#63b8ff" d="M169.39,-98.57C163.93,-74.98 155.07,-36.73 151.07,-19.46"/>
<polygon fill="#63b8ff" stroke="#63b8ff" points="165.95,-99.23 171.61,-108.19 172.77,-97.66 165.95,-99.23"/>
</g>
<!-- Node3&#45;&gt;Node5 -->
<g id="edge4" class="edge">
<title>Node3&#45;&gt;Node5</title>
<path fill="none" stroke="#63b8ff" d="M195.47,-102.92C208.28,-93.61 224.1,-82.13 234.8,-74.36"/>
<polygon fill="#63b8ff" stroke="#63b8ff" points="193.64,-99.91 187.61,-108.62 197.76,-105.58 193.64,-99.91"/>
</g>
<!-- Node5&#45;&gt;Node4 -->
<g id="edge5" class="edge">
<title>Node5&#45;&gt;Node4</title>
<path fill="none" stroke="#63b8ff" d="M220.68,-49.27C203.08,-39.74 180.45,-27.51 165.38,-19.36"/>
<polygon fill="#63b8ff" stroke="#63b8ff" points="218.58,-52.11 229.04,-53.79 221.91,-45.95 218.58,-52.11"/>
</g>
<!-- Node6 -->
<g id="node6" class="node">
<title>Node6</title>
<g id="a_node6"><a xlink:href="../../de/d9f/_reader_impl_8cpp.html" target="_top" xlink:title=" ">
<polygon fill="white" stroke="#666666" points="310,-19 224,-19 224,0 310,0 310,-19"/>
<text text-anchor="middle" x="267" y="-7" font-family="Helvetica,sans-Serif" font-size="10.00">ReaderImpl.cpp</text>
</a>
</g>
</g>
<!-- Node5&#45;&gt;Node6 -->
<g id="edge6" class="edge">
<title>Node5&#45;&gt;Node6</title>
<path fill="none" stroke="#63b8ff" d="M254.28,-44.22C257.47,-35.74 261.07,-26.21 263.63,-19.44"/>
<polygon fill="#63b8ff" stroke="#63b8ff" points="251.09,-42.74 250.84,-53.33 257.64,-45.21 251.09,-42.74"/>
</g>
<!-- Node8 -->
<g id="node8" class="node">
<title>Node8</title>
<g id="a_node8"><a xlink:href="../../dc/d80/_e57_simple_writer_8cpp.html" target="_top" xlink:title=" ">
<polygon fill="white" stroke="#666666" points="435.5,-19 328.5,-19 328.5,0 435.5,0 435.5,-19"/>
<text text-anchor="middle" x="382" y="-7" font-family="Helvetica,sans-Serif" font-size="10.00">E57SimpleWriter.cpp</text>
</a>
</g>
</g>
<!-- Node7&#45;&gt;Node8 -->
<g id="edge8" class="edge">
<title>Node7&#45;&gt;Node8</title>
<path fill="none" stroke="#63b8ff" d="M338.71,-99.09C343.88,-86.41 351,-69.56 358,-55 364.09,-42.34 371.94,-28.12 376.97,-19.24"/>
<polygon fill="#63b8ff" stroke="#63b8ff" points="335.47,-97.77 334.98,-108.35 341.96,-100.38 335.47,-97.77"/>
</g>
<!-- Node7&#45;&gt;Node9 -->
<g id="edge9" class="edge">
<title>Node7&#45;&gt;Node9</title>
<path fill="none" stroke="#63b8ff" d="M352.25,-102.64C364.64,-93.39 379.82,-82.05 390.13,-74.36"/>
<polygon fill="#63b8ff" stroke="#63b8ff" points="350.18,-99.82 344.26,-108.6 354.36,-105.43 350.18,-99.82"/>
</g>
<!-- Node9&#45;&gt;Node8 -->
<g id="edge10" class="edge">
<title>Node9&#45;&gt;Node8</title>
<path fill="none" stroke="#63b8ff" d="M394.72,-44.22C391.53,-35.74 387.93,-26.21 385.37,-19.44"/>
<polygon fill="#63b8ff" stroke="#63b8ff" points="391.36,-45.21 398.16,-53.33 397.91,-42.74 391.36,-45.21"/>
</g>
<!-- Node10 -->
<g id="node10" class="node">
<title>Node10</title>
<g id="a_node10"><a xlink:href="../../da/da6/_writer_impl_8cpp.html" target="_top" xlink:title=" ">
<polygon fill="white" stroke="#666666" points="534,-19 454,-19 454,0 534,0 534,-19"/>
<text text-anchor="middle" x="494" y="-7" font-family="Helvetica,sans-Serif" font-size="10.00">WriterImpl.cpp</text>
</a>
</g>
</g>
<!-- Node9&#45;&gt;Node10 -->
<g id="edge11" class="edge">
<title>Node9&#45;&gt;Node10</title>
<path fill="none" stroke="#63b8ff" d="M427.17,-49C443.63,-39.52 464.6,-27.43 478.62,-19.36"/>
<polygon fill="#63b8ff" stroke="#63b8ff" points="425.84,-45.73 418.92,-53.75 429.33,-51.79 425.84,-45.73"/>
</g>
</g>
</svg>
