<?xml version="1.0" encoding="UTF-8" standalone="no"?>
<!DOCTYPE svg PUBLIC "-//W3C//DTD SVG 1.1//EN"
 "http://www.w3.org/Graphics/SVG/1.1/DTD/svg11.dtd">
<!-- Generated by graphviz version 8.1.0 (20230707.0739)
 -->
<!-- Title: E57SimpleData.h Pages: 1 -->
<svg width="359pt" height="138pt"
 viewBox="0.00 0.00 358.88 137.75" xmlns="http://www.w3.org/2000/svg" xmlns:xlink="http://www.w3.org/1999/xlink">
<g id="graph0" class="graph" transform="scale(1 1) rotate(0) translate(4 133.75)">
<title>E57SimpleData.h</title>
<!-- Node1 -->
<g id="node1" class="node">
<title>Node1</title>
<g id="a_node1"><a xlink:title="Data structures for E57 Simple API.">
<polygon fill="#999999" stroke="#666666" points="218.75,-129.75 126.25,-129.75 126.25,-110.5 218.75,-110.5 218.75,-129.75"/>
<text text-anchor="middle" x="172.5" y="-116.25" font-family="Helvetica,sans-Serif" font-size="10.00">E57SimpleData.h</text>
</a>
</g>
</g>
<!-- Node2 -->
<g id="node2" class="node">
<title>Node2</title>
<g id="a_node2"><a xlink:href="../../de/db4/_e57_simple_data_8cpp.html" target="_top" xlink:title=" ">
<polygon fill="white" stroke="#666666" points="103,-74.5 0,-74.5 0,-55.25 103,-55.25 103,-74.5"/>
<text text-anchor="middle" x="51.5" y="-61" font-family="Helvetica,sans-Serif" font-size="10.00">E57SimpleData.cpp</text>
</a>
</g>
</g>
<!-- Node1&#45;&gt;Node2 -->
<g id="edge1" class="edge">
<title>Node1&#45;&gt;Node2</title>
<path fill="none" stroke="#63b8ff" d="M142.18,-105.78C120.31,-96.16 91.37,-83.42 72.13,-74.95"/>
<polygon fill="#63b8ff" stroke="#63b8ff" points="140.41,-109.27 150.97,-110.09 143.23,-102.86 140.41,-109.27"/>
</g>
<!-- Node3 -->
<g id="node3" class="node">
<title>Node3</title>
<g id="a_node3"><a xlink:href="../../dc/d3a/_e57_simple_reader_8h.html" target="_top" xlink:title="E57 Simple API for reading E57.">
<polygon fill="white" stroke="#666666" points="223.62,-74.5 121.38,-74.5 121.38,-55.25 223.62,-55.25 223.62,-74.5"/>
<text text-anchor="middle" x="172.5" y="-61" font-family="Helvetica,sans-Serif" font-size="10.00">E57SimpleReader.h</text>
</a>
</g>
</g>
<!-- Node1&#45;&gt;Node3 -->
<g id="edge2" class="edge">
<title>Node1&#45;&gt;Node3</title>
<path fill="none" stroke="#63b8ff" d="M172.5,-99.46C172.5,-91.02 172.5,-81.58 172.5,-74.86"/>
<polygon fill="#63b8ff" stroke="#63b8ff" points="169,-99.33 172.5,-109.33 176,-99.33 169,-99.33"/>
</g>
<!-- Node5 -->
<g id="node5" class="node">
<title>Node5</title>
<g id="a_node5"><a xlink:href="../../d3/d3a/_e57_simple_writer_8h.html" target="_top" xlink:title="E57 Simple API for writing E57.">
<polygon fill="white" stroke="#666666" points="342.62,-74.5 246.38,-74.5 246.38,-55.25 342.62,-55.25 342.62,-74.5"/>
<text text-anchor="middle" x="294.5" y="-61" font-family="Helvetica,sans-Serif" font-size="10.00">E57SimpleWriter.h</text>
</a>
</g>
</g>
<!-- Node1&#45;&gt;Node5 -->
<g id="edge4" class="edge">
<title>Node1&#45;&gt;Node5</title>
<path fill="none" stroke="#63b8ff" d="M203.07,-105.78C225.12,-96.16 254.3,-83.42 273.7,-74.95"/>
<polygon fill="#63b8ff" stroke="#63b8ff" points="201.96,-102.88 194.2,-110.09 204.76,-109.3 201.96,-102.88"/>
</g>
<!-- Node4 -->
<g id="node4" class="node">
<title>Node4</title>
<g id="a_node4"><a xlink:href="../../dd/d80/_e57_simple_reader_8cpp.html" target="_top" xlink:title=" ">
<polygon fill="white" stroke="#666666" points="225.88,-19.25 113.12,-19.25 113.12,0 225.88,0 225.88,-19.25"/>
<text text-anchor="middle" x="169.5" y="-5.75" font-family="Helvetica,sans-Serif" font-size="10.00">E57SimpleReader.cpp</text>
</a>
</g>
</g>
<!-- Node3&#45;&gt;Node4 -->
<g id="edge3" class="edge">
<title>Node3&#45;&gt;Node4</title>
<path fill="none" stroke="#63b8ff" d="M171.39,-44.21C170.92,-35.77 170.38,-26.33 170.01,-19.61"/>
<polygon fill="#63b8ff" stroke="#63b8ff" points="167.95,-44.29 172,-54.08 174.94,-43.9 167.95,-44.29"/>
</g>
<!-- Node6 -->
<g id="node6" class="node">
<title>Node6</title>
<g id="a_node6"><a xlink:href="../../dc/d80/_e57_simple_writer_8cpp.html" target="_top" xlink:title=" ">
<polygon fill="white" stroke="#666666" points="350.88,-19.25 244.12,-19.25 244.12,0 350.88,0 350.88,-19.25"/>
<text text-anchor="middle" x="297.5" y="-5.75" font-family="Helvetica,sans-Serif" font-size="10.00">E57SimpleWriter.cpp</text>
</a>
</g>
</g>
<!-- Node5&#45;&gt;Node6 -->
<g id="edge5" class="edge">
<title>Node5&#45;&gt;Node6</title>
<path fill="none" stroke="#63b8ff" d="M295.61,-44.21C296.08,-35.77 296.62,-26.33 296.99,-19.61"/>
<polygon fill="#63b8ff" stroke="#63b8ff" points="292.06,-43.9 295,-54.08 299.05,-44.29 292.06,-43.9"/>
</g>
</g>
</svg>
