<?xml version="1.0" encoding="UTF-8" standalone="no"?>
<!DOCTYPE svg PUBLIC "-//W3C//DTD SVG 1.1//EN"
 "http://www.w3.org/Graphics/SVG/1.1/DTD/svg11.dtd">
<!-- Generated by graphviz version 7.0.0 (20221023.0053)
 -->
<!-- Title: IndexPacket Pages: 1 -->
<svg width="346pt" height="214pt"
 viewBox="0.00 0.00 346.00 214.00" xmlns="http://www.w3.org/2000/svg" xmlns:xlink="http://www.w3.org/1999/xlink">
<g id="graph0" class="graph" transform="scale(1 1) rotate(0) translate(4 210)">
<title>IndexPacket</title>
<!-- Node1 -->
<g id="node1" class="node">
<title>Node1</title>
<g id="a_node1"><a xlink:title=" ">
<polygon fill="#999999" stroke="#666666" points="135.5,-19 64.5,-19 64.5,0 135.5,0 135.5,-19"/>
<text text-anchor="middle" x="100" y="-7" font-family="Helvetica,sans-Serif" font-size="10.00">IndexPacket</text>
</a>
</g>
</g>
<!-- Node2 -->
<g id="node2" class="node">
<title>Node2</title>
<g id="a_node2"><a xlink:title=" ">
<polygon fill="white" stroke="#666666" points="46,-123.5 0,-123.5 0,-104.5 46,-104.5 46,-123.5"/>
<text text-anchor="middle" x="23" y="-111.5" font-family="Helvetica,sans-Serif" font-size="10.00">uint8_t</text>
</a>
</g>
</g>
<!-- Node2&#45;&gt;Node1 -->
<g id="edge1" class="edge">
<title>Node2&#45;&gt;Node1</title>
<path fill="none" stroke="#9a32cd" stroke-dasharray="5,2" d="M23.33,-93.24C24.6,-76.52 28.84,-52.83 42,-37 48.58,-29.08 58.04,-23.42 67.41,-19.42"/>
<polygon fill="#9a32cd" stroke="#9a32cd" points="19.85,-92.76 22.91,-102.9 26.84,-93.06 19.85,-92.76"/>
<text text-anchor="middle" x="69" y="-73" font-family="Helvetica,sans-Serif" font-size="10.00"> indexLevel</text>
<text text-anchor="middle" x="69" y="-62" font-family="Helvetica,sans-Serif" font-size="10.00">packetFlags</text>
<text text-anchor="middle" x="69" y="-51" font-family="Helvetica,sans-Serif" font-size="10.00">packetType</text>
<text text-anchor="middle" x="69" y="-40" font-family="Helvetica,sans-Serif" font-size="10.00">reserved1</text>
</g>
<!-- Node3 -->
<g id="node3" class="node">
<title>Node3</title>
<g id="a_node3"><a xlink:title=" ">
<polygon fill="white" stroke="#666666" points="125.5,-123.5 74.5,-123.5 74.5,-104.5 125.5,-104.5 125.5,-123.5"/>
<text text-anchor="middle" x="100" y="-111.5" font-family="Helvetica,sans-Serif" font-size="10.00">uint16_t</text>
</a>
</g>
</g>
<!-- Node3&#45;&gt;Node1 -->
<g id="edge2" class="edge">
<title>Node3&#45;&gt;Node1</title>
<path fill="none" stroke="#9a32cd" stroke-dasharray="5,2" d="M100,-92.79C100,-70.42 100,-35.39 100,-19.22"/>
<polygon fill="#9a32cd" stroke="#9a32cd" points="96.5,-92.75 100,-102.75 103.5,-92.75 96.5,-92.75"/>
<text text-anchor="middle" x="160.5" y="-62" font-family="Helvetica,sans-Serif" font-size="10.00"> entryCount</text>
<text text-anchor="middle" x="160.5" y="-51" font-family="Helvetica,sans-Serif" font-size="10.00">packetLogicalLengthMinus1</text>
</g>
<!-- Node4 -->
<g id="node4" class="node">
<title>Node4</title>
<g id="a_node4"><a xlink:href="../../d3/d3a/struct_index_packet_1_1_index_packet_entry.html" target="_top" xlink:title=" ">
<polygon fill="white" stroke="#666666" points="310,-129 178,-129 178,-99 310,-99 310,-129"/>
<text text-anchor="start" x="186" y="-117" font-family="Helvetica,sans-Serif" font-size="10.00">IndexPacket::IndexPacket</text>
<text text-anchor="middle" x="244" y="-106" font-family="Helvetica,sans-Serif" font-size="10.00">Entry</text>
</a>
</g>
</g>
<!-- Node4&#45;&gt;Node1 -->
<g id="edge3" class="edge">
<title>Node4&#45;&gt;Node1</title>
<path fill="none" stroke="#9a32cd" stroke-dasharray="5,2" d="M243.1,-87.55C241.13,-70.89 235.81,-49.9 222,-37 209.69,-25.5 167.32,-18.19 135.95,-14.23"/>
<polygon fill="#9a32cd" stroke="#9a32cd" points="239.59,-87.54 243.89,-97.22 246.56,-86.97 239.59,-87.54"/>
<text text-anchor="middle" x="259.5" y="-56.5" font-family="Helvetica,sans-Serif" font-size="10.00"> entries</text>
</g>
<!-- Node5 -->
<g id="node5" class="node">
<title>Node5</title>
<g id="a_node5"><a xlink:title=" ">
<polygon fill="white" stroke="#666666" points="269.5,-206 218.5,-206 218.5,-187 269.5,-187 269.5,-206"/>
<text text-anchor="middle" x="244" y="-194" font-family="Helvetica,sans-Serif" font-size="10.00">uint64_t</text>
</a>
</g>
</g>
<!-- Node5&#45;&gt;Node4 -->
<g id="edge4" class="edge">
<title>Node5&#45;&gt;Node4</title>
<path fill="none" stroke="#9a32cd" stroke-dasharray="5,2" d="M244,-175.45C244,-161.14 244,-142.22 244,-129.39"/>
<polygon fill="#9a32cd" stroke="#9a32cd" points="240.5,-175.06 244,-185.06 247.5,-175.06 240.5,-175.06"/>
<text text-anchor="middle" x="291" y="-161" font-family="Helvetica,sans-Serif" font-size="10.00"> chunkPhysicalOffset</text>
<text text-anchor="middle" x="291" y="-150" font-family="Helvetica,sans-Serif" font-size="10.00">chunkRecordNumber</text>
</g>
</g>
</svg>
