<?xml version="1.0" encoding="UTF-8" standalone="no"?>
<!DOCTYPE svg PUBLIC "-//W3C//DTD SVG 1.1//EN"
 "http://www.w3.org/Graphics/SVG/1.1/DTD/svg11.dtd">
<!-- Generated by graphviz version 2.49.0 (20210828.1703)
 -->
<!-- Title: IndexPacket Pages: 1 -->
<svg width="351pt" height="217pt"
 viewBox="0.00 0.00 350.50 217.00" xmlns="http://www.w3.org/2000/svg" xmlns:xlink="http://www.w3.org/1999/xlink">
<g id="graph0" class="graph" transform="scale(1 1) rotate(0) translate(4 213)">
<title>IndexPacket</title>
<polygon fill="white" stroke="transparent" points="-4,4 -4,-213 346.5,-213 346.5,4 -4,4"/>
<!-- Node1 -->
<g id="node1" class="node">
<title>Node1</title>
<g id="a_node1"><a xlink:title=" ">
<polygon fill="#bfbfbf" stroke="black" points="64.5,-0.5 64.5,-19.5 136.5,-19.5 136.5,-0.5 64.5,-0.5"/>
<text text-anchor="middle" x="100.5" y="-7.5" font-family="Helvetica,sans-Serif" font-size="10.00">IndexPacket</text>
</a>
</g>
</g>
<!-- Node2 -->
<g id="node2" class="node">
<title>Node2</title>
<g id="a_node2"><a xlink:title=" ">
<polygon fill="white" stroke="#bfbfbf" points="0,-106 0,-125 47,-125 47,-106 0,-106"/>
<text text-anchor="middle" x="23.5" y="-113" font-family="Helvetica,sans-Serif" font-size="10.00">uint8_t</text>
</a>
</g>
</g>
<!-- Node2&#45;&gt;Node1 -->
<g id="edge1" class="edge">
<title>Node2&#45;&gt;Node1</title>
<path fill="none" stroke="#9a32cd" stroke-dasharray="5,2" d="M23.75,-95.61C24.92,-78.76 29.06,-54.3 42.5,-38 49.42,-29.6 59.54,-23.67 69.4,-19.56"/>
<polygon fill="#9a32cd" stroke="#9a32cd" points="20.25,-95.74 23.34,-105.87 27.24,-96.02 20.25,-95.74"/>
<text text-anchor="middle" x="69.5" y="-74" font-family="Helvetica,sans-Serif" font-size="10.00"> indexLevel</text>
<text text-anchor="middle" x="69.5" y="-63" font-family="Helvetica,sans-Serif" font-size="10.00">packetFlags</text>
<text text-anchor="middle" x="69.5" y="-52" font-family="Helvetica,sans-Serif" font-size="10.00">packetType</text>
<text text-anchor="middle" x="69.5" y="-41" font-family="Helvetica,sans-Serif" font-size="10.00">reserved1</text>
</g>
<!-- Node3 -->
<g id="node3" class="node">
<title>Node3</title>
<g id="a_node3"><a xlink:title=" ">
<polygon fill="white" stroke="#bfbfbf" points="74.5,-106 74.5,-125 126.5,-125 126.5,-106 74.5,-106"/>
<text text-anchor="middle" x="100.5" y="-113" font-family="Helvetica,sans-Serif" font-size="10.00">uint16_t</text>
</a>
</g>
</g>
<!-- Node3&#45;&gt;Node1 -->
<g id="edge2" class="edge">
<title>Node3&#45;&gt;Node1</title>
<path fill="none" stroke="#9a32cd" stroke-dasharray="5,2" d="M100.5,-95.6C100.5,-72.97 100.5,-36.07 100.5,-19.51"/>
<polygon fill="#9a32cd" stroke="#9a32cd" points="97,-95.68 100.5,-105.68 104,-95.68 97,-95.68"/>
<text text-anchor="middle" x="162.5" y="-63" font-family="Helvetica,sans-Serif" font-size="10.00"> entryCount</text>
<text text-anchor="middle" x="162.5" y="-52" font-family="Helvetica,sans-Serif" font-size="10.00">packetLogicalLengthMinus1</text>
</g>
<!-- Node4 -->
<g id="node4" class="node">
<title>Node4</title>
<g id="a_node4"><a xlink:href="../../d3/d3a/struct_index_packet_1_1_index_packet_entry.html" target="_top" xlink:title=" ">
<polygon fill="white" stroke="black" points="181.5,-100.5 181.5,-130.5 313.5,-130.5 313.5,-100.5 181.5,-100.5"/>
<text text-anchor="start" x="189.5" y="-118.5" font-family="Helvetica,sans-Serif" font-size="10.00">IndexPacket::IndexPacket</text>
<text text-anchor="middle" x="247.5" y="-107.5" font-family="Helvetica,sans-Serif" font-size="10.00">Entry</text>
</a>
</g>
</g>
<!-- Node4&#45;&gt;Node1 -->
<g id="edge3" class="edge">
<title>Node4&#45;&gt;Node1</title>
<path fill="none" stroke="#9a32cd" stroke-dasharray="5,2" d="M246.79,-90.15C244.97,-73.19 239.74,-51.32 225.5,-38 212.81,-26.14 168.92,-18.69 136.72,-14.69"/>
<polygon fill="#9a32cd" stroke="#9a32cd" points="243.32,-90.73 247.56,-100.44 250.3,-90.21 243.32,-90.73"/>
<text text-anchor="middle" x="263" y="-57.5" font-family="Helvetica,sans-Serif" font-size="10.00"> entries</text>
</g>
<!-- Node5 -->
<g id="node5" class="node">
<title>Node5</title>
<g id="a_node5"><a xlink:title=" ">
<polygon fill="white" stroke="#bfbfbf" points="221.5,-189.5 221.5,-208.5 273.5,-208.5 273.5,-189.5 221.5,-189.5"/>
<text text-anchor="middle" x="247.5" y="-196.5" font-family="Helvetica,sans-Serif" font-size="10.00">uint64_t</text>
</a>
</g>
</g>
<!-- Node5&#45;&gt;Node4 -->
<g id="edge4" class="edge">
<title>Node5&#45;&gt;Node4</title>
<path fill="none" stroke="#9a32cd" stroke-dasharray="5,2" d="M247.5,-179.23C247.5,-164.41 247.5,-144.05 247.5,-130.6"/>
<polygon fill="#9a32cd" stroke="#9a32cd" points="244,-179.28 247.5,-189.28 251,-179.28 244,-179.28"/>
<text text-anchor="middle" x="295" y="-163" font-family="Helvetica,sans-Serif" font-size="10.00"> chunkPhysicalOffset</text>
<text text-anchor="middle" x="295" y="-152" font-family="Helvetica,sans-Serif" font-size="10.00">chunkRecordNumber</text>
</g>
</g>
</svg>
