<svg height="82pt" viewBox="0 0 1447.5 82" width="1448pt" xmlns="http://www.w3.org/2000/svg"><g transform="translate(4 78)"><a xlink:title=""><path d="m813.5-74h-83v19h83z" fill="#999" stroke="#666"/><text font-family="Helvetica,sans-Serif" font-size="10" text-anchor="middle" x="772" y="-62">E57Format.cpp</text></a><a xlink:title=""><path d="m86-19h-86v19h86z" fill="#e0e0e0" stroke="#999"/><text font-family="Helvetica,sans-Serif" font-size="10" text-anchor="middle" x="43" y="-7">BlobNodeImpl.h</text></a><g stroke="#63b8ff"><path d="m730.27-62.16c-104.81 3.67-387.78 15.44-633.97 43.13" fill="none"/><path d="m96.42-15.52-10.33-2.35 9.54-4.61z" fill="#63b8ff"/></g><a xlink:title=""><path d="m255.5-19h-151v19h151z" fill="#e0e0e0" stroke="#999"/><text font-family="Helvetica,sans-Serif" font-size="10" text-anchor="middle" x="180" y="-7">CompressedVectorNodeImpl.h</text></a><g stroke="#63b8ff"><path d="m730.5-60.06c-85.08 7.11-285.68 24.07-464.81 40.91" fill="none"/><path d="m265.84-15.65-10.29-2.54 9.63-4.43z" fill="#63b8ff"/></g><a xlink:title=""><path d="m432.5-19h-159v19h159z" fill="#e0e0e0" stroke="#999"/><text font-family="Helvetica,sans-Serif" font-size="10" text-anchor="middle" x="353" y="-7">CompressedVectorReaderImpl.h</text></a><g stroke="#63b8ff"><path d="m730.29-58.22c-69.86 8.83-211.55 26.76-300.03 37.95" fill="none"/><path d="m430.64-16.79-10.36-2.22 9.48-4.73z" fill="#63b8ff"/></g><a xlink:title=""><path d="m603.5-19h-153v19h153z" fill="#e0e0e0" stroke="#999"/><text font-family="Helvetica,sans-Serif" font-size="10" text-anchor="middle" x="527" y="-7">CompressedVectorWriterImpl.h</text></a><g stroke="#63b8ff"><path d="m732.64-54.98c-42.38 9.16-109.9 23.77-155.92 33.72" fill="none"/><path d="m577.19-17.78-10.52-1.3 9.04-5.54z" fill="#63b8ff"/></g><a xlink:title=""><path d="m710.5-19h-89v19h89z" fill="#e0e0e0" stroke="#999"/><text font-family="Helvetica,sans-Serif" font-size="10" text-anchor="middle" x="666" y="-7">FloatNodeImpl.h</text></a><g stroke="#63b8ff"><path d="m754.97-54.98c-16.9 8.44-43.03 21.51-62.61 31.3" fill="none"/><path d="m693.85-20.51-10.51 1.34 7.38-7.6z" fill="#63b8ff"/></g><a xlink:title=""><path d="m815-19h-86v19h86z" fill="#e0e0e0" stroke="#999"/><text font-family="Helvetica,sans-Serif" font-size="10" text-anchor="middle" x="772" y="-7">ImageFileImpl.h</text></a><g stroke="#63b8ff"><path d="m772-54.75v25.62" fill="none"/><path d="m775.5-29.09-3.5 10-3.5-10z" fill="#63b8ff"/></g><a xlink:title=""><path d="m930.5-19h-97v19h97z" fill="#e0e0e0" stroke="#999"/><text font-family="Helvetica,sans-Serif" font-size="10" text-anchor="middle" x="882" y="-7">IntegerNodeImpl.h</text></a><g stroke="#63b8ff"><path d="m789.67-54.98c17.62 8.48 44.91 21.63 65.26 31.44" fill="none"/><path d="m856.52-26.66 7.49 7.49-10.53-1.19z" fill="#63b8ff"/></g><a xlink:title=""><path d="m1075.5-19h-127v19h127z" fill="#e0e0e0" stroke="#999"/><text font-family="Helvetica,sans-Serif" font-size="10" text-anchor="middle" x="1012" y="-7">ScaledIntegerNodeImpl.h</text></a><g stroke="#63b8ff"><path d="m810.56-54.98c41.51 9.16 107.65 23.77 152.73 33.72" fill="none"/><path d="m964.13-24.66 9.01 5.58-10.52 1.26z" fill="#63b8ff"/></g><a xlink:title=""><path d="m1216-19h-122v19h122z" fill="#e0e0e0" stroke="#999"/><text font-family="Helvetica,sans-Serif" font-size="10" text-anchor="middle" x="1155" y="-7">SourceDestBufferImpl.h</text></a><g stroke="#63b8ff"><path d="m813.72-57.73c64.88 8.98 190.77 26.4 270.18 37.39" fill="none"/><path d="m1084.4-23.8 9.43 4.83-10.39 2.1z" fill="#63b8ff"/></g><a xlink:title=""><path d="m1326-19h-92v19h92z" fill="#e0e0e0" stroke="#999"/><text font-family="Helvetica,sans-Serif" font-size="10" text-anchor="middle" x="1280" y="-7">StringNodeImpl.h</text></a><g stroke="#63b8ff"><path d="m813.62-60.19c78.18 6.39 252.56 21.44 409.86 41.06" fill="none"/><path d="m1224.33-22.55 9.48 4.72-10.36 2.23z" fill="#63b8ff"/></g><a xlink:title=""><path d="m1439.5-19h-95v19h95z" fill="#e0e0e0" stroke="#999"/><text font-family="Helvetica,sans-Serif" font-size="10" text-anchor="middle" x="1392" y="-7">VectorNodeImpl.h</text></a><g stroke="#63b8ff"><path d="m813.77-61.19c91.98 5.3 319.17 19.56 520.5 42.19" fill="none"/><path d="m1334.9-22.45 9.55 4.61-10.33 2.35z" fill="#63b8ff"/></g></g></svg>