<?xml version="1.0" encoding="UTF-8" standalone="no"?>
<!DOCTYPE svg PUBLIC "-//W3C//DTD SVG 1.1//EN"
 "http://www.w3.org/Graphics/SVG/1.1/DTD/svg11.dtd">
<!-- Generated by graphviz version 7.0.0 (20221023.0053)
 -->
<!-- Title: Decoder.h Pages: 1 -->
<svg width="526pt" height="192pt"
 viewBox="0.00 0.00 525.50 192.00" xmlns="http://www.w3.org/2000/svg" xmlns:xlink="http://www.w3.org/1999/xlink">
<g id="graph0" class="graph" transform="scale(1 1) rotate(0) translate(4 188)">
<title>Decoder.h</title>
<!-- Node1 -->
<g id="node1" class="node">
<title>Node1</title>
<g id="a_node1"><a xlink:title=" ">
<polygon fill="#999999" stroke="#666666" points="410,-184 349,-184 349,-165 410,-165 410,-184"/>
<text text-anchor="middle" x="379.5" y="-172" font-family="Helvetica,sans-Serif" font-size="10.00">Decoder.h</text>
</a>
</g>
</g>
<!-- Node2 -->
<g id="node2" class="node">
<title>Node2</title>
<g id="a_node2"><a xlink:href="../../d4/d28/_decode_channel_8h.html" target="_top" xlink:title=" ">
<polygon fill="white" stroke="#666666" points="377,-129 282,-129 282,-110 377,-110 377,-129"/>
<text text-anchor="middle" x="329.5" y="-117" font-family="Helvetica,sans-Serif" font-size="10.00">DecodeChannel.h</text>
</a>
</g>
</g>
<!-- Node1&#45;&gt;Node2 -->
<g id="edge1" class="edge">
<title>Node1&#45;&gt;Node2</title>
<path fill="none" stroke="#63b8ff" d="M363.46,-156.5C354.97,-147.5 344.9,-136.82 337.94,-129.44"/>
<polygon fill="#63b8ff" stroke="#63b8ff" points="360.8,-158.78 370.2,-163.65 365.89,-153.97 360.8,-158.78"/>
</g>
<!-- Node8 -->
<g id="node8" class="node">
<title>Node8</title>
<g id="a_node8"><a xlink:href="../../d0/dfe/_decoder_8cpp.html" target="_top" xlink:title=" ">
<polygon fill="white" stroke="#666666" points="466,-129 395,-129 395,-110 466,-110 466,-129"/>
<text text-anchor="middle" x="430.5" y="-117" font-family="Helvetica,sans-Serif" font-size="10.00">Decoder.cpp</text>
</a>
</g>
</g>
<!-- Node1&#45;&gt;Node8 -->
<g id="edge7" class="edge">
<title>Node1&#45;&gt;Node8</title>
<path fill="none" stroke="#63b8ff" d="M395.86,-156.5C404.52,-147.5 414.8,-136.82 421.9,-129.44"/>
<polygon fill="#63b8ff" stroke="#63b8ff" points="393.38,-154.02 388.97,-163.66 398.43,-158.88 393.38,-154.02"/>
</g>
<!-- Node3 -->
<g id="node3" class="node">
<title>Node3</title>
<g id="a_node3"><a xlink:href="../../da/db5/_compressed_vector_reader_impl_8h.html" target="_top" xlink:title=" ">
<polygon fill="white" stroke="#666666" points="334,-74 175,-74 175,-55 334,-55 334,-74"/>
<text text-anchor="middle" x="254.5" y="-62" font-family="Helvetica,sans-Serif" font-size="10.00">CompressedVectorReaderImpl.h</text>
</a>
</g>
</g>
<!-- Node2&#45;&gt;Node3 -->
<g id="edge2" class="edge">
<title>Node2&#45;&gt;Node3</title>
<path fill="none" stroke="#63b8ff" d="M307.45,-102.92C294.28,-93.61 278.03,-82.13 267.03,-74.36"/>
<polygon fill="#63b8ff" stroke="#63b8ff" points="305.35,-105.72 315.54,-108.64 309.39,-100.01 305.35,-105.72"/>
</g>
<!-- Node7 -->
<g id="node7" class="node">
<title>Node7</title>
<g id="a_node7"><a xlink:href="../../d4/d70/_decode_channel_8cpp.html" target="_top" xlink:title=" ">
<polygon fill="white" stroke="#666666" points="457,-74 352,-74 352,-55 457,-55 457,-74"/>
<text text-anchor="middle" x="404.5" y="-62" font-family="Helvetica,sans-Serif" font-size="10.00">DecodeChannel.cpp</text>
</a>
</g>
</g>
<!-- Node2&#45;&gt;Node7 -->
<g id="edge6" class="edge">
<title>Node2&#45;&gt;Node7</title>
<path fill="none" stroke="#63b8ff" d="M351.55,-102.92C364.72,-93.61 380.97,-82.13 391.97,-74.36"/>
<polygon fill="#63b8ff" stroke="#63b8ff" points="349.61,-100.01 343.46,-108.64 353.65,-105.72 349.61,-100.01"/>
</g>
<!-- Node4 -->
<g id="node4" class="node">
<title>Node4</title>
<g id="a_node4"><a xlink:href="../../db/dd2/_compressed_vector_node_impl_8cpp.html" target="_top" xlink:title=" ">
<polygon fill="white" stroke="#666666" points="161,-19 0,-19 0,0 161,0 161,-19"/>
<text text-anchor="middle" x="80.5" y="-7" font-family="Helvetica,sans-Serif" font-size="10.00">CompressedVectorNodeImpl.cpp</text>
</a>
</g>
</g>
<!-- Node3&#45;&gt;Node4 -->
<g id="edge3" class="edge">
<title>Node3&#45;&gt;Node4</title>
<path fill="none" stroke="#63b8ff" d="M214.24,-51.24C182.35,-41.52 138.53,-28.18 109.87,-19.45"/>
<polygon fill="#63b8ff" stroke="#63b8ff" points="212.95,-54.5 223.54,-54.07 214.99,-47.81 212.95,-54.5"/>
</g>
<!-- Node5 -->
<g id="node5" class="node">
<title>Node5</title>
<g id="a_node5"><a xlink:href="../../d8/d3d/_compressed_vector_reader_8cpp.html" target="_top" xlink:title=" ">
<polygon fill="white" stroke="#666666" points="329.5,-19 179.5,-19 179.5,0 329.5,0 329.5,-19"/>
<text text-anchor="middle" x="254.5" y="-7" font-family="Helvetica,sans-Serif" font-size="10.00">CompressedVectorReader.cpp</text>
</a>
</g>
</g>
<!-- Node3&#45;&gt;Node5 -->
<g id="edge4" class="edge">
<title>Node3&#45;&gt;Node5</title>
<path fill="none" stroke="#63b8ff" d="M254.5,-43.35C254.5,-35.1 254.5,-25.97 254.5,-19.44"/>
<polygon fill="#63b8ff" stroke="#63b8ff" points="251,-43.23 254.5,-53.23 258,-43.23 251,-43.23"/>
</g>
<!-- Node6 -->
<g id="node6" class="node">
<title>Node6</title>
<g id="a_node6"><a xlink:href="../../d5/d8d/_compressed_vector_reader_impl_8cpp.html" target="_top" xlink:title=" ">
<polygon fill="white" stroke="#666666" points="517.5,-19 347.5,-19 347.5,0 517.5,0 517.5,-19"/>
<text text-anchor="middle" x="432.5" y="-7" font-family="Helvetica,sans-Serif" font-size="10.00">CompressedVectorReaderImpl.cpp</text>
</a>
</g>
</g>
<!-- Node3&#45;&gt;Node6 -->
<g id="edge5" class="edge">
<title>Node3&#45;&gt;Node6</title>
<path fill="none" stroke="#63b8ff" d="M295.68,-51.24C328.31,-41.52 373.14,-28.18 402.45,-19.45"/>
<polygon fill="#63b8ff" stroke="#63b8ff" points="294.73,-47.87 286.15,-54.08 296.73,-54.58 294.73,-47.87"/>
</g>
</g>
</svg>
