<?xml version="1.0" encoding="UTF-8" standalone="no"?>
<!DOCTYPE svg PUBLIC "-//W3C//DTD SVG 1.1//EN"
 "http://www.w3.org/Graphics/SVG/1.1/DTD/svg11.dtd">
<!-- Generated by graphviz version 9.0.0 (20230911.1827)
 -->
<!-- Title: E57SimpleWriter.cpp Pages: 1 -->
<svg width="475pt" height="304pt"
 viewBox="0.00 0.00 474.88 303.50" xmlns="http://www.w3.org/2000/svg" xmlns:xlink="http://www.w3.org/1999/xlink">
<g id="graph0" class="graph" transform="scale(1 1) rotate(0) translate(4 299.5)">
<title>E57SimpleWriter.cpp</title>
<!-- Node1 -->
<g id="node1" class="node">
<title>Node1</title>
<g id="a_node1"><a xlink:title=" ">
<polygon fill="#999999" stroke="#666666" points="190.25,-295.5 83.5,-295.5 83.5,-276.25 190.25,-276.25 190.25,-295.5"/>
<text text-anchor="middle" x="136.88" y="-282" font-family="Helvetica,sans-Serif" font-size="10.00">E57SimpleWriter.cpp</text>
</a>
</g>
</g>
<!-- Node2 -->
<g id="node2" class="node">
<title>Node2</title>
<g id="a_node2"><a xlink:title=" ">
<polygon fill="#e0e0e0" stroke="#999999" points="55.75,-240.25 0,-240.25 0,-221 55.75,-221 55.75,-240.25"/>
<text text-anchor="middle" x="27.88" y="-226.75" font-family="Helvetica,sans-Serif" font-size="10.00">algorithm</text>
</a>
</g>
</g>
<!-- Node1&#45;&gt;Node2 -->
<g id="edge1" class="edge">
<title>Node1&#45;&gt;Node2</title>
<path fill="none" stroke="#63b8ff" d="M118.38,-275.84C101.47,-267.58 76.19,-255.23 56.64,-245.68"/>
<polygon fill="#63b8ff" stroke="#63b8ff" points="58.34,-242.61 47.82,-241.37 55.26,-248.9 58.34,-242.61"/>
</g>
<!-- Node3 -->
<g id="node3" class="node">
<title>Node3</title>
<g id="a_node3"><a xlink:title=" ">
<polygon fill="#e0e0e0" stroke="#999999" points="113.5,-240.25 74.25,-240.25 74.25,-221 113.5,-221 113.5,-240.25"/>
<text text-anchor="middle" x="93.88" y="-226.75" font-family="Helvetica,sans-Serif" font-size="10.00">limits</text>
</a>
</g>
</g>
<!-- Node1&#45;&gt;Node3 -->
<g id="edge2" class="edge">
<title>Node1&#45;&gt;Node3</title>
<path fill="none" stroke="#63b8ff" d="M129.77,-276.08C123.96,-268.88 115.54,-258.46 108.32,-249.51"/>
<polygon fill="#63b8ff" stroke="#63b8ff" points="111.09,-247.37 102.08,-241.79 105.64,-251.77 111.09,-247.37"/>
</g>
<!-- Node4 -->
<g id="node4" class="node">
<title>Node4</title>
<g id="a_node4"><a xlink:href="../../d3/d3a/_e57_simple_writer_8h.html" target="_top" xlink:title="E57 Simple API for writing E57.">
<polygon fill="white" stroke="#666666" points="228,-240.25 131.75,-240.25 131.75,-221 228,-221 228,-240.25"/>
<text text-anchor="middle" x="179.88" y="-226.75" font-family="Helvetica,sans-Serif" font-size="10.00">E57SimpleWriter.h</text>
</a>
</g>
</g>
<!-- Node1&#45;&gt;Node4 -->
<g id="edge3" class="edge">
<title>Node1&#45;&gt;Node4</title>
<path fill="none" stroke="#63b8ff" d="M143.98,-276.08C149.79,-268.88 158.21,-258.46 165.43,-249.51"/>
<polygon fill="#63b8ff" stroke="#63b8ff" points="168.11,-251.77 171.67,-241.79 162.66,-247.37 168.11,-251.77"/>
</g>
<!-- Node16 -->
<g id="node16" class="node">
<title>Node16</title>
<g id="a_node16"><a xlink:title=" ">
<polygon fill="#e0e0e0" stroke="#999999" points="314.12,-240.25 245.62,-240.25 245.62,-221 314.12,-221 314.12,-240.25"/>
<text text-anchor="middle" x="279.88" y="-226.75" font-family="Helvetica,sans-Serif" font-size="10.00">WriterImpl.h</text>
</a>
</g>
</g>
<!-- Node1&#45;&gt;Node16 -->
<g id="edge15" class="edge">
<title>Node1&#45;&gt;Node16</title>
<path fill="none" stroke="#63b8ff" d="M161.13,-275.84C184.14,-267.27 218.97,-254.31 244.96,-244.63"/>
<polygon fill="#63b8ff" stroke="#63b8ff" points="245.93,-248 254.08,-241.23 243.49,-241.44 245.93,-248"/>
</g>
<!-- Node5 -->
<g id="node5" class="node">
<title>Node5</title>
<g id="a_node5"><a xlink:href="../../d3/d5e/_e57_simple_data_8h.html" target="_top" xlink:title="Data structures for E57 Simple API.">
<polygon fill="white" stroke="#666666" points="226.12,-185 133.62,-185 133.62,-165.75 226.12,-165.75 226.12,-185"/>
<text text-anchor="middle" x="179.88" y="-171.5" font-family="Helvetica,sans-Serif" font-size="10.00">E57SimpleData.h</text>
</a>
</g>
</g>
<!-- Node4&#45;&gt;Node5 -->
<g id="edge4" class="edge">
<title>Node4&#45;&gt;Node5</title>
<path fill="none" stroke="#63b8ff" d="M179.88,-220.83C179.88,-214.32 179.88,-205.17 179.88,-196.87"/>
<polygon fill="#63b8ff" stroke="#63b8ff" points="183.38,-196.87 179.88,-186.87 176.38,-196.87 183.38,-196.87"/>
</g>
<!-- Node6 -->
<g id="node6" class="node">
<title>Node6</title>
<g id="a_node6"><a xlink:href="../../d1/df2/_e57_format_8h.html" target="_top" xlink:title="Header file for the E57 API.">
<polygon fill="white" stroke="#666666" points="216,-129.75 143.75,-129.75 143.75,-110.5 216,-110.5 216,-129.75"/>
<text text-anchor="middle" x="179.88" y="-116.25" font-family="Helvetica,sans-Serif" font-size="10.00">E57Format.h</text>
</a>
</g>
</g>
<!-- Node5&#45;&gt;Node6 -->
<g id="edge5" class="edge">
<title>Node5&#45;&gt;Node6</title>
<path fill="none" stroke="#63b8ff" d="M179.88,-165.58C179.88,-159.07 179.88,-149.92 179.88,-141.62"/>
<polygon fill="#63b8ff" stroke="#63b8ff" points="183.38,-141.62 179.88,-131.62 176.38,-141.62 183.38,-141.62"/>
</g>
<!-- Node7 -->
<g id="node7" class="node">
<title>Node7</title>
<g id="a_node7"><a xlink:title=" ">
<polygon fill="#e0e0e0" stroke="#999999" points="72.88,-74.5 32.88,-74.5 32.88,-55.25 72.88,-55.25 72.88,-74.5"/>
<text text-anchor="middle" x="52.88" y="-61" font-family="Helvetica,sans-Serif" font-size="10.00">cfloat</text>
</a>
</g>
</g>
<!-- Node6&#45;&gt;Node7 -->
<g id="edge6" class="edge">
<title>Node6&#45;&gt;Node7</title>
<path fill="none" stroke="#63b8ff" d="M158.33,-110.09C137.8,-101.48 106.69,-88.44 83.57,-78.75"/>
<polygon fill="#63b8ff" stroke="#63b8ff" points="85.23,-75.65 74.66,-75.01 82.53,-82.1 85.23,-75.65"/>
</g>
<!-- Node8 -->
<g id="node8" class="node">
<title>Node8</title>
<g id="a_node8"><a xlink:title=" ">
<polygon fill="#e0e0e0" stroke="#999999" points="136.5,-74.5 91.25,-74.5 91.25,-55.25 136.5,-55.25 136.5,-74.5"/>
<text text-anchor="middle" x="113.88" y="-61" font-family="Helvetica,sans-Serif" font-size="10.00">cstdint</text>
</a>
</g>
</g>
<!-- Node6&#45;&gt;Node8 -->
<g id="edge7" class="edge">
<title>Node6&#45;&gt;Node8</title>
<path fill="none" stroke="#63b8ff" d="M168.68,-110.09C159.14,-102.4 145.2,-91.15 133.77,-81.93"/>
<polygon fill="#63b8ff" stroke="#63b8ff" points="136.06,-79.28 126.08,-75.73 131.67,-84.73 136.06,-79.28"/>
</g>
<!-- Node9 -->
<g id="node9" class="node">
<title>Node9</title>
<g id="a_node9"><a xlink:title=" ">
<polygon fill="#e0e0e0" stroke="#999999" points="205.5,-74.5 154.25,-74.5 154.25,-55.25 205.5,-55.25 205.5,-74.5"/>
<text text-anchor="middle" x="179.88" y="-61" font-family="Helvetica,sans-Serif" font-size="10.00">memory</text>
</a>
</g>
</g>
<!-- Node6&#45;&gt;Node9 -->
<g id="edge8" class="edge">
<title>Node6&#45;&gt;Node9</title>
<path fill="none" stroke="#63b8ff" d="M179.88,-110.33C179.88,-103.82 179.88,-94.67 179.88,-86.37"/>
<polygon fill="#63b8ff" stroke="#63b8ff" points="183.38,-86.37 179.88,-76.37 176.38,-86.37 183.38,-86.37"/>
</g>
<!-- Node10 -->
<g id="node10" class="node">
<title>Node10</title>
<g id="a_node10"><a xlink:title=" ">
<polygon fill="#e0e0e0" stroke="#999999" points="266.38,-74.5 223.38,-74.5 223.38,-55.25 266.38,-55.25 266.38,-74.5"/>
<text text-anchor="middle" x="244.88" y="-61" font-family="Helvetica,sans-Serif" font-size="10.00">vector</text>
</a>
</g>
</g>
<!-- Node6&#45;&gt;Node10 -->
<g id="edge9" class="edge">
<title>Node6&#45;&gt;Node10</title>
<path fill="none" stroke="#63b8ff" d="M190.9,-110.09C200.3,-102.4 214.02,-91.15 225.28,-81.93"/>
<polygon fill="#63b8ff" stroke="#63b8ff" points="227.32,-84.78 232.84,-75.73 222.89,-79.36 227.32,-84.78"/>
</g>
<!-- Node11 -->
<g id="node11" class="node">
<title>Node11</title>
<g id="a_node11"><a xlink:href="../../d4/d6e/_e57_exception_8h.html" target="_top" xlink:title="Exception handling for E57 API.">
<polygon fill="white" stroke="#666666" points="369.38,-74.5 284.38,-74.5 284.38,-55.25 369.38,-55.25 369.38,-74.5"/>
<text text-anchor="middle" x="326.88" y="-61" font-family="Helvetica,sans-Serif" font-size="10.00">E57Exception.h</text>
</a>
</g>
</g>
<!-- Node6&#45;&gt;Node11 -->
<g id="edge10" class="edge">
<title>Node6&#45;&gt;Node11</title>
<path fill="none" stroke="#63b8ff" d="M204.81,-110.09C228.57,-101.49 264.58,-88.44 291.34,-78.75"/>
<polygon fill="#63b8ff" stroke="#63b8ff" points="292.18,-82.16 300.39,-75.47 289.8,-75.58 292.18,-82.16"/>
</g>
<!-- Node12 -->
<g id="node12" class="node">
<title>Node12</title>
<g id="a_node12"><a xlink:title=" ">
<polygon fill="#e0e0e0" stroke="#999999" points="248.88,-19.25 190.88,-19.25 190.88,0 248.88,0 248.88,-19.25"/>
<text text-anchor="middle" x="219.88" y="-5.75" font-family="Helvetica,sans-Serif" font-size="10.00">exception</text>
</a>
</g>
</g>
<!-- Node11&#45;&gt;Node12 -->
<g id="edge11" class="edge">
<title>Node11&#45;&gt;Node12</title>
<path fill="none" stroke="#63b8ff" d="M308.72,-54.84C292.2,-46.62 267.53,-34.34 248.38,-24.81"/>
<polygon fill="#63b8ff" stroke="#63b8ff" points="249.98,-21.7 239.47,-20.38 246.86,-27.97 249.98,-21.7"/>
</g>
<!-- Node13 -->
<g id="node13" class="node">
<title>Node13</title>
<g id="a_node13"><a xlink:title=" ">
<polygon fill="#e0e0e0" stroke="#999999" points="320.62,-19.25 267.12,-19.25 267.12,0 320.62,0 320.62,-19.25"/>
<text text-anchor="middle" x="293.88" y="-5.75" font-family="Helvetica,sans-Serif" font-size="10.00">iostream</text>
</a>
</g>
</g>
<!-- Node11&#45;&gt;Node13 -->
<g id="edge12" class="edge">
<title>Node11&#45;&gt;Node13</title>
<path fill="none" stroke="#63b8ff" d="M321.43,-55.08C317.1,-48.11 310.91,-38.12 305.49,-29.37"/>
<polygon fill="#63b8ff" stroke="#63b8ff" points="308.48,-27.55 300.24,-20.9 302.53,-31.24 308.48,-27.55"/>
</g>
<!-- Node14 -->
<g id="node14" class="node">
<title>Node14</title>
<g id="a_node14"><a xlink:title=" ">
<polygon fill="#e0e0e0" stroke="#999999" points="378.88,-19.25 338.88,-19.25 338.88,0 378.88,0 378.88,-19.25"/>
<text text-anchor="middle" x="358.88" y="-5.75" font-family="Helvetica,sans-Serif" font-size="10.00">string</text>
</a>
</g>
</g>
<!-- Node11&#45;&gt;Node14 -->
<g id="edge13" class="edge">
<title>Node11&#45;&gt;Node14</title>
<path fill="none" stroke="#63b8ff" d="M332.16,-55.08C336.35,-48.11 342.35,-38.12 347.61,-29.37"/>
<polygon fill="#63b8ff" stroke="#63b8ff" points="350.55,-31.28 352.7,-20.91 344.55,-27.68 350.55,-31.28"/>
</g>
<!-- Node15 -->
<g id="node15" class="node">
<title>Node15</title>
<g id="a_node15"><a xlink:title=" ">
<polygon fill="#e0e0e0" stroke="#999999" points="466.88,-19.25 396.88,-19.25 396.88,0 466.88,0 466.88,-19.25"/>
<text text-anchor="middle" x="431.88" y="-5.75" font-family="Helvetica,sans-Serif" font-size="10.00">E57Export.h</text>
</a>
</g>
</g>
<!-- Node11&#45;&gt;Node15 -->
<g id="edge14" class="edge">
<title>Node11&#45;&gt;Node15</title>
<path fill="none" stroke="#63b8ff" d="M344.69,-54.84C360.9,-46.62 385.11,-34.34 403.91,-24.81"/>
<polygon fill="#63b8ff" stroke="#63b8ff" points="405.29,-28.03 412.63,-20.39 402.12,-21.79 405.29,-28.03"/>
</g>
</g>
</svg>
