<?xml version="1.0" encoding="UTF-8" standalone="no"?>
<!DOCTYPE svg PUBLIC "-//W3C//DTD SVG 1.1//EN"
 "http://www.w3.org/Graphics/SVG/1.1/DTD/svg11.dtd">
<!-- Generated by graphviz version 8.1.0 (20230707.0739)
 -->
<!-- Title: e57::VisualReferenceRepresentation Pages: 1 -->
<svg width="194pt" height="116pt"
 viewBox="0.00 0.00 193.62 116.25" xmlns="http://www.w3.org/2000/svg" xmlns:xlink="http://www.w3.org/1999/xlink">
<g id="graph0" class="graph" transform="scale(1 1) rotate(0) translate(4 112.25)">
<title>e57::VisualReferenceRepresentation</title>
<!-- Node1 -->
<g id="node1" class="node">
<title>Node1</title>
<g id="a_node1"><a xlink:title="Stores an image that is to be used only as a visual reference.">
<polygon fill="#999999" stroke="#666666" points="175.75,-19.25 0,-19.25 0,0 175.75,0 175.75,-19.25"/>
<text text-anchor="middle" x="87.88" y="-5.75" font-family="Helvetica,sans-Serif" font-size="10.00">e57::VisualReferenceRepresentation</text>
</a>
</g>
</g>
<!-- Node2 -->
<g id="node2" class="node">
<title>Node2</title>
<g id="a_node2"><a xlink:title=" ">
<polygon fill="white" stroke="#666666" points="62.5,-108.25 17.25,-108.25 17.25,-89 62.5,-89 62.5,-108.25"/>
<text text-anchor="middle" x="39.88" y="-94.75" font-family="Helvetica,sans-Serif" font-size="10.00">int64_t</text>
</a>
</g>
</g>
<!-- Node2&#45;&gt;Node1 -->
<g id="edge1" class="edge">
<title>Node2&#45;&gt;Node1</title>
<path fill="none" stroke="#9a32cd" stroke-dasharray="5,2" d="M35.59,-78.03C33.93,-65.51 33.89,-49.4 41.12,-37.25 45.81,-29.38 53.76,-23.64 61.78,-19.54"/>
<polygon fill="#9a32cd" stroke="#9a32cd" points="32.29,-78.46 37.49,-87.69 39.18,-77.23 32.29,-78.46"/>
<text text-anchor="middle" x="78.25" y="-61.5" font-family="Helvetica,sans-Serif" font-size="10.00"> imageMaskSize</text>
<text text-anchor="middle" x="78.25" y="-50.25" font-family="Helvetica,sans-Serif" font-size="10.00">jpegImageSize</text>
<text text-anchor="middle" x="78.25" y="-39" font-family="Helvetica,sans-Serif" font-size="10.00">pngImageSize</text>
</g>
<!-- Node3 -->
<g id="node3" class="node">
<title>Node3</title>
<g id="a_node3"><a xlink:title=" ">
<polygon fill="white" stroke="#666666" points="158.5,-108.25 113.25,-108.25 113.25,-89 158.5,-89 158.5,-108.25"/>
<text text-anchor="middle" x="135.88" y="-94.75" font-family="Helvetica,sans-Serif" font-size="10.00">int32_t</text>
</a>
</g>
</g>
<!-- Node3&#45;&gt;Node1 -->
<g id="edge2" class="edge">
<title>Node3&#45;&gt;Node1</title>
<path fill="none" stroke="#9a32cd" stroke-dasharray="5,2" d="M131.14,-78.43C127.56,-66.06 121.89,-49.99 113.88,-37.25 109.75,-30.69 103.78,-24.43 98.6,-19.63"/>
<polygon fill="#9a32cd" stroke="#9a32cd" points="127.98,-79.15 133.94,-87.91 134.74,-77.34 127.98,-79.15"/>
<text text-anchor="middle" x="156.75" y="-55.88" font-family="Helvetica,sans-Serif" font-size="10.00"> imageHeight</text>
<text text-anchor="middle" x="156.75" y="-44.62" font-family="Helvetica,sans-Serif" font-size="10.00">imageWidth</text>
</g>
</g>
</svg>
