<?xml version="1.0" encoding="UTF-8" standalone="no"?>
<!DOCTYPE svg PUBLIC "-//W3C//DTD SVG 1.1//EN"
 "http://www.w3.org/Graphics/SVG/1.1/DTD/svg11.dtd">
<!-- Generated by graphviz version 7.0.0 (20221023.0053)
 -->
<!-- Title: StringFunctions.h Pages: 1 -->
<!--zoomable 82 -->
<svg id="main" version="1.1" xmlns="http://www.w3.org/2000/svg" xmlns:xlink="http://www.w3.org/1999/xlink" xml:space="preserve" onload="init(evt)">
<style type="text/css"><![CDATA[
.edge:hover path { stroke: red; }
.edge:hover polygon { stroke: red; fill: red; }
]]></style>
<script type="text/javascript"><![CDATA[
var edges = document.getElementsByTagName('g');
if (edges && edges.length) {
  for (var i=0;i<edges.length;i++) {
    if (edges[i].id.substr(0,4)=='edge') {
      edges[i].setAttribute('class','edge');
    }
  }
}
]]></script>
        <defs>
                <circle id="rim" cx="0" cy="0" r="7"/>
                <circle id="rim2" cx="0" cy="0" r="3.5"/>
                <g id="zoomPlus">
                        <use xlink:href="#rim" fill="#404040">
                                <set attributeName="fill" to="#808080" begin="zoomplus.mouseover" end="zoomplus.mouseout"/>
                        </use>
                        <path d="M-4,0h8M0,-4v8" fill="none" stroke="white" stroke-width="1.5" pointer-events="none"/>
                </g>
                <g id="zoomMin">
                        <use xlink:href="#rim" fill="#404040">
                                <set attributeName="fill" to="#808080" begin="zoomminus.mouseover" end="zoomminus.mouseout"/>
                        </use>
                        <path d="M-4,0h8" fill="none" stroke="white" stroke-width="1.5" pointer-events="none"/>
                </g>
                <g id="dirArrow">
                        <path fill="none" stroke="white" stroke-width="1.5" d="M0,-3.0v7 M-2.5,-0.5L0,-3.0L2.5,-0.5"/>
                </g>
               <g id="resetDef">
                       <use xlink:href="#rim2" fill="#404040">
                               <set attributeName="fill" to="#808080" begin="reset.mouseover" end="reset.mouseout"/>
                       </use>
               </g>
        </defs>

<script type="text/javascript">
var viewWidth = 1159;
var viewHeight = 82;
var sectionId = 'dynsection-1';
</script>
<script xlink:href="../../svgpan.js"/>
<svg id="graph" class="graph">
<g id="viewport">
<title>StringFunctions.h</title>
<!-- Node1 -->
<g id="node1" class="node">
<title>Node1</title>
<g id="a_node1"><a xlink:title=" ">
<polygon fill="#999999" stroke="#666666" points="630.5,-74 537.5,-74 537.5,-55 630.5,-55 630.5,-74"/>
<text text-anchor="middle" x="584" y="-62" font-family="Helvetica,sans-Serif" font-size="10.00">StringFunctions.h</text>
</a>
</g>
</g>
<!-- Node2 -->
<g id="node2" class="node">
<title>Node2</title>
<g id="a_node2"><a xlink:href="../../df/dfe/_blob_node_8cpp.html" target="_top" xlink:title=" ">
<polygon fill="white" stroke="#666666" points="78,-19 0,-19 0,0 78,0 78,-19"/>
<text text-anchor="middle" x="39" y="-7" font-family="Helvetica,sans-Serif" font-size="10.00">BlobNode.cpp</text>
</a>
</g>
</g>
<!-- Node1&#45;&gt;Node2 -->
<g id="edge1" class="edge">
<title>Node1&#45;&gt;Node2</title>
<path fill="none" stroke="#63b8ff" d="M525.86,-59.92C432.88,-53.83 245.11,-40.04 87,-19 84.15,-18.62 81.21,-18.19 78.25,-17.73"/>
<polygon fill="#63b8ff" stroke="#63b8ff" points="525.54,-63.41 535.75,-60.56 525.99,-56.42 525.54,-63.41"/>
</g>
<!-- Node3 -->
<g id="node3" class="node">
<title>Node3</title>
<g id="a_node3"><a xlink:href="../../d2/dab/_compressed_vector_node_8cpp.html" target="_top" xlink:title=" ">
<polygon fill="white" stroke="#666666" points="239.5,-19 96.5,-19 96.5,0 239.5,0 239.5,-19"/>
<text text-anchor="middle" x="168" y="-7" font-family="Helvetica,sans-Serif" font-size="10.00">CompressedVectorNode.cpp</text>
</a>
</g>
</g>
<!-- Node1&#45;&gt;Node3 -->
<g id="edge2" class="edge">
<title>Node1&#45;&gt;Node3</title>
<path fill="none" stroke="#63b8ff" d="M525.96,-56.11C450.72,-46.52 319.58,-29.81 238.64,-19.5"/>
<polygon fill="#63b8ff" stroke="#63b8ff" points="525.22,-59.54 535.59,-57.33 526.11,-52.6 525.22,-59.54"/>
</g>
<!-- Node4 -->
<g id="node4" class="node">
<title>Node4</title>
<g id="a_node4"><a xlink:href="../../de/db4/_e57_simple_data_8cpp.html" target="_top" xlink:title=" ">
<polygon fill="white" stroke="#666666" points="362,-19 258,-19 258,0 362,0 362,-19"/>
<text text-anchor="middle" x="310" y="-7" font-family="Helvetica,sans-Serif" font-size="10.00">E57SimpleData.cpp</text>
</a>
</g>
</g>
<!-- Node1&#45;&gt;Node4 -->
<g id="edge3" class="edge">
<title>Node1&#45;&gt;Node4</title>
<path fill="none" stroke="#63b8ff" d="M526.44,-52.37C475.84,-42.58 403.15,-28.52 356.25,-19.45"/>
<polygon fill="#63b8ff" stroke="#63b8ff" points="525.55,-55.76 536.03,-54.22 526.88,-48.89 525.55,-55.76"/>
</g>
<!-- Node5 -->
<g id="node5" class="node">
<title>Node5</title>
<g id="a_node5"><a xlink:href="../../d0/dfe/_float_node_8cpp.html" target="_top" xlink:title=" ">
<polygon fill="white" stroke="#666666" points="460,-19 380,-19 380,0 460,0 460,-19"/>
<text text-anchor="middle" x="420" y="-7" font-family="Helvetica,sans-Serif" font-size="10.00">FloatNode.cpp</text>
</a>
</g>
</g>
<!-- Node1&#45;&gt;Node5 -->
<g id="edge4" class="edge">
<title>Node1&#45;&gt;Node5</title>
<path fill="none" stroke="#63b8ff" d="M545.27,-50.98C515.27,-41.29 474.46,-28.1 447.68,-19.45"/>
<polygon fill="#63b8ff" stroke="#63b8ff" points="544.15,-54.3 554.74,-54.04 546.3,-47.64 544.15,-54.3"/>
</g>
<!-- Node6 -->
<g id="node6" class="node">
<title>Node6</title>
<g id="a_node6"><a xlink:href="../../d6/d3e/_integer_node_8cpp.html" target="_top" xlink:title=" ">
<polygon fill="white" stroke="#666666" points="567.5,-19 478.5,-19 478.5,0 567.5,0 567.5,-19"/>
<text text-anchor="middle" x="523" y="-7" font-family="Helvetica,sans-Serif" font-size="10.00">IntegerNode.cpp</text>
</a>
</g>
</g>
<!-- Node1&#45;&gt;Node6 -->
<g id="edge5" class="edge">
<title>Node1&#45;&gt;Node6</title>
<path fill="none" stroke="#63b8ff" d="M565.11,-47.09C554.58,-37.94 541.88,-26.9 533.19,-19.36"/>
<polygon fill="#63b8ff" stroke="#63b8ff" points="562.67,-49.6 572.51,-53.52 567.26,-44.32 562.67,-49.6"/>
</g>
<!-- Node7 -->
<g id="node7" class="node">
<title>Node7</title>
<g id="a_node7"><a xlink:href="../../da/d49/_scaled_integer_node_8cpp.html" target="_top" xlink:title=" ">
<polygon fill="white" stroke="#666666" points="704.5,-19 585.5,-19 585.5,0 704.5,0 704.5,-19"/>
<text text-anchor="middle" x="645" y="-7" font-family="Helvetica,sans-Serif" font-size="10.00">ScaledIntegerNode.cpp</text>
</a>
</g>
</g>
<!-- Node1&#45;&gt;Node7 -->
<g id="edge6" class="edge">
<title>Node1&#45;&gt;Node7</title>
<path fill="none" stroke="#63b8ff" d="M602.89,-47.09C613.42,-37.94 626.12,-26.9 634.81,-19.36"/>
<polygon fill="#63b8ff" stroke="#63b8ff" points="600.74,-44.32 595.49,-53.52 605.33,-49.6 600.74,-44.32"/>
</g>
<!-- Node8 -->
<g id="node8" class="node">
<title>Node8</title>
<g id="a_node8"><a xlink:href="../../de/d52/_string_functions_8cpp.html" target="_top" xlink:title=" ">
<polygon fill="white" stroke="#666666" points="827,-19 723,-19 723,0 827,0 827,-19"/>
<text text-anchor="middle" x="775" y="-7" font-family="Helvetica,sans-Serif" font-size="10.00">StringFunctions.cpp</text>
</a>
</g>
</g>
<!-- Node1&#45;&gt;Node8 -->
<g id="edge7" class="edge">
<title>Node1&#45;&gt;Node8</title>
<path fill="none" stroke="#63b8ff" d="M627.28,-51.49C662.36,-41.76 711.03,-28.25 742.76,-19.45"/>
<polygon fill="#63b8ff" stroke="#63b8ff" points="626.56,-48.06 617.86,-54.1 628.43,-54.8 626.56,-48.06"/>
</g>
<!-- Node9 -->
<g id="node9" class="node">
<title>Node9</title>
<g id="a_node9"><a xlink:href="../../d9/d8e/_string_node_8cpp.html" target="_top" xlink:title=" ">
<polygon fill="white" stroke="#666666" points="929,-19 845,-19 845,0 929,0 929,-19"/>
<text text-anchor="middle" x="887" y="-7" font-family="Helvetica,sans-Serif" font-size="10.00">StringNode.cpp</text>
</a>
</g>
</g>
<!-- Node1&#45;&gt;Node9 -->
<g id="edge8" class="edge">
<title>Node1&#45;&gt;Node9</title>
<path fill="none" stroke="#63b8ff" d="M641.72,-53.4C700.97,-43.04 791.76,-27.16 844.67,-17.9"/>
<polygon fill="#63b8ff" stroke="#63b8ff" points="641.42,-49.9 632.17,-55.07 642.62,-56.8 641.42,-49.9"/>
</g>
<!-- Node10 -->
<g id="node10" class="node">
<title>Node10</title>
<g id="a_node10"><a xlink:href="../../dc/dad/_structure_node_8cpp.html" target="_top" xlink:title=" ">
<polygon fill="white" stroke="#666666" points="1045,-19 947,-19 947,0 1045,0 1045,-19"/>
<text text-anchor="middle" x="996" y="-7" font-family="Helvetica,sans-Serif" font-size="10.00">StructureNode.cpp</text>
</a>
</g>
</g>
<!-- Node1&#45;&gt;Node10 -->
<g id="edge9" class="edge">
<title>Node1&#45;&gt;Node10</title>
<path fill="none" stroke="#63b8ff" d="M642.23,-56.55C712.42,-48.09 833.93,-33.17 938,-19 940.82,-18.62 943.72,-18.21 946.65,-17.8"/>
<polygon fill="#63b8ff" stroke="#63b8ff" points="642.01,-53.05 632.5,-57.72 642.84,-60 642.01,-53.05"/>
</g>
<!-- Node11 -->
<g id="node11" class="node">
<title>Node11</title>
<g id="a_node11"><a xlink:href="../../da/ded/_vector_node_8cpp.html" target="_top" xlink:title=" ">
<polygon fill="white" stroke="#666666" points="1150.5,-19 1063.5,-19 1063.5,0 1150.5,0 1150.5,-19"/>
<text text-anchor="middle" x="1107" y="-7" font-family="Helvetica,sans-Serif" font-size="10.00">VectorNode.cpp</text>
</a>
</g>
</g>
<!-- Node1&#45;&gt;Node11 -->
<g id="edge10" class="edge">
<title>Node1&#45;&gt;Node11</title>
<path fill="none" stroke="#63b8ff" d="M642.26,-59.2C731.21,-52.36 906.16,-37.83 1054,-19 1056.96,-18.62 1060,-18.21 1063.07,-17.77"/>
<polygon fill="#63b8ff" stroke="#63b8ff" points="642.02,-55.71 632.32,-59.96 642.55,-62.69 642.02,-55.71"/>
</g>
</g>
</svg>
        <g id="navigator" transform="translate(0 0)" fill="#404254">
                <rect fill="#f2f5e9" fill-opacity="0.5" stroke="#606060" stroke-width=".5" x="0" y="0" width="60" height="60"/>
                <use id="zoomplus" xlink:href="#zoomPlus" x="17" y="9" onmousedown="handleZoom(evt,'in')"/>
                <use id="zoomminus" xlink:href="#zoomMin" x="42" y="9" onmousedown="handleZoom(evt,'out')"/>
                <use id="reset" xlink:href="#resetDef" x="30" y="36" onmousedown="handleReset()"/>
                <g id="arrowUp" xlink:href="#dirArrow" transform="translate(30 24)" onmousedown="handlePan(0,-1)">
                  <use xlink:href="#rim" fill="#404040">
                        <set attributeName="fill" to="#808080" begin="arrowUp.mouseover" end="arrowUp.mouseout"/>
                  </use>
                  <path fill="none" stroke="white" stroke-width="1.5" d="M0,-3.0v7 M-2.5,-0.5L0,-3.0L2.5,-0.5"/>
                </g>
                <g id="arrowRight" xlink:href="#dirArrow" transform="rotate(90) translate(36 -43)" onmousedown="handlePan(1,0)">
                  <use xlink:href="#rim" fill="#404040">
                        <set attributeName="fill" to="#808080" begin="arrowRight.mouseover" end="arrowRight.mouseout"/>
                  </use>
                  <path fill="none" stroke="white" stroke-width="1.5" d="M0,-3.0v7 M-2.5,-0.5L0,-3.0L2.5,-0.5"/>
                </g>
                <g id="arrowDown" xlink:href="#dirArrow" transform="rotate(180) translate(-30 -48)" onmousedown="handlePan(0,1)">
                  <use xlink:href="#rim" fill="#404040">
                        <set attributeName="fill" to="#808080" begin="arrowDown.mouseover" end="arrowDown.mouseout"/>
                  </use>
                  <path fill="none" stroke="white" stroke-width="1.5" d="M0,-3.0v7 M-2.5,-0.5L0,-3.0L2.5,-0.5"/>
                </g>
                <g id="arrowLeft" xlink:href="#dirArrow" transform="rotate(270) translate(-36 17)" onmousedown="handlePan(-1,0)">
                  <use xlink:href="#rim" fill="#404040">
                        <set attributeName="fill" to="#808080" begin="arrowLeft.mouseover" end="arrowLeft.mouseout"/>
                  </use>
                  <path fill="none" stroke="white" stroke-width="1.5" d="M0,-3.0v7 M-2.5,-0.5L0,-3.0L2.5,-0.5"/>
                </g>
        </g>
        <svg viewBox="0 0 15 15" width="100%" height="30px" preserveAspectRatio="xMaxYMin meet">
         <g id="arrow_out" transform="scale(0.3 0.3)">
          <a xlink:href="_string_functions_8h__dep__incl_org.svg" target="_base">
           <rect id="button" ry="5" rx="5" y="6" x="6" height="38" width="38"
                fill="#f2f5e9" fill-opacity="0.5" stroke="#606060" stroke-width="1.0"/>
           <path id="arrow"
             d="M 11.500037,31.436501 C 11.940474,20.09759 22.043105,11.32322 32.158766,21.979434 L 37.068811,17.246167 C 37.068811,17.246167 37.088388,32 37.088388,32 L 22.160133,31.978069 C 22.160133,31.978069 26.997745,27.140456 26.997745,27.140456 C 18.528582,18.264221 13.291696,25.230495 11.500037,31.436501 z"
             style="fill:#404040;"/>
          </a>
         </g>
        </svg>
</svg>
