<?xml version="1.0" encoding="UTF-8" standalone="no"?>
<!DOCTYPE svg PUBLIC "-//W3C//DTD SVG 1.1//EN"
 "http://www.w3.org/Graphics/SVG/1.1/DTD/svg11.dtd">
<!-- Generated by graphviz version 7.0.0 (20221023.0053)
 -->
<!-- Title: VectorNodeImpl.cpp Pages: 1 -->
<svg width="549pt" height="412pt"
 viewBox="0.00 0.00 549.00 412.00" xmlns="http://www.w3.org/2000/svg" xmlns:xlink="http://www.w3.org/1999/xlink">
<g id="graph0" class="graph" transform="scale(1 1) rotate(0) translate(4 408)">
<title>VectorNodeImpl.cpp</title>
<!-- Node1 -->
<g id="node1" class="node">
<title>Node1</title>
<g id="a_node1"><a xlink:title=" ">
<polygon fill="#999999" stroke="#666666" points="430,-404 324,-404 324,-385 430,-385 430,-404"/>
<text text-anchor="middle" x="377" y="-392" font-family="Helvetica,sans-Serif" font-size="10.00">VectorNodeImpl.cpp</text>
</a>
</g>
</g>
<!-- Node2 -->
<g id="node2" class="node">
<title>Node2</title>
<g id="a_node2"><a xlink:href="../../d4/dd8/_vector_node_impl_8h.html" target="_top" xlink:title=" ">
<polygon fill="white" stroke="#666666" points="424.5,-349 329.5,-349 329.5,-330 424.5,-330 424.5,-349"/>
<text text-anchor="middle" x="377" y="-337" font-family="Helvetica,sans-Serif" font-size="10.00">VectorNodeImpl.h</text>
</a>
</g>
</g>
<!-- Node1&#45;&gt;Node2 -->
<g id="edge1" class="edge">
<title>Node1&#45;&gt;Node2</title>
<path fill="none" stroke="#63b8ff" d="M377,-384.75C377,-378.27 377,-369.16 377,-360.9"/>
<polygon fill="#63b8ff" stroke="#63b8ff" points="380.5,-360.96 377,-350.96 373.5,-360.96 380.5,-360.96"/>
</g>
<!-- Node17 -->
<g id="node17" class="node">
<title>Node17</title>
<g id="a_node17"><a xlink:href="../../dd/d41/_checked_file_8h.html" target="_top" xlink:title=" ">
<polygon fill="white" stroke="#666666" points="311,-349 231,-349 231,-330 311,-330 311,-349"/>
<text text-anchor="middle" x="271" y="-337" font-family="Helvetica,sans-Serif" font-size="10.00">CheckedFile.h</text>
</a>
</g>
</g>
<!-- Node1&#45;&gt;Node17 -->
<g id="edge18" class="edge">
<title>Node1&#45;&gt;Node17</title>
<path fill="none" stroke="#63b8ff" d="M359.02,-384.51C342.55,-376.27 317.91,-363.96 298.89,-354.45"/>
<polygon fill="#63b8ff" stroke="#63b8ff" points="300.58,-351.38 290.07,-350.03 297.45,-357.64 300.58,-351.38"/>
</g>
<!-- Node19 -->
<g id="node19" class="node">
<title>Node19</title>
<g id="a_node19"><a xlink:href="../../db/d42/_string_functions_8h.html" target="_top" xlink:title=" ">
<polygon fill="white" stroke="#666666" points="492.5,-74 399.5,-74 399.5,-55 492.5,-55 492.5,-74"/>
<text text-anchor="middle" x="446" y="-62" font-family="Helvetica,sans-Serif" font-size="10.00">StringFunctions.h</text>
</a>
</g>
</g>
<!-- Node1&#45;&gt;Node19 -->
<g id="edge21" class="edge">
<title>Node1&#45;&gt;Node19</title>
<path fill="none" stroke="#63b8ff" d="M392.85,-384.65C405.6,-376.79 423.12,-364.22 434,-349 451.37,-324.7 456,-315.37 456,-285.5 456,-285.5 456,-285.5 456,-173.5 456,-142.79 451.94,-107.38 449,-85.72"/>
<polygon fill="#63b8ff" stroke="#63b8ff" points="452.48,-85.34 447.6,-75.93 445.55,-86.33 452.48,-85.34"/>
</g>
<!-- Node3 -->
<g id="node3" class="node">
<title>Node3</title>
<g id="a_node3"><a xlink:href="../../d4/dd2/_structure_node_impl_8h.html" target="_top" xlink:title=" ">
<polygon fill="white" stroke="#666666" points="427.5,-294 320.5,-294 320.5,-275 427.5,-275 427.5,-294"/>
<text text-anchor="middle" x="374" y="-282" font-family="Helvetica,sans-Serif" font-size="10.00">StructureNodeImpl.h</text>
</a>
</g>
</g>
<!-- Node2&#45;&gt;Node3 -->
<g id="edge2" class="edge">
<title>Node2&#45;&gt;Node3</title>
<path fill="none" stroke="#63b8ff" d="M376.5,-329.75C376.14,-323.27 375.62,-314.16 375.15,-305.9"/>
<polygon fill="#63b8ff" stroke="#63b8ff" points="378.65,-305.74 374.59,-295.95 371.66,-306.13 378.65,-305.74"/>
</g>
<!-- Node4 -->
<g id="node4" class="node">
<title>Node4</title>
<g id="a_node4"><a xlink:href="../../df/d7b/_node_impl_8h.html" target="_top" xlink:title=" ">
<polygon fill="white" stroke="#666666" points="393.5,-239 326.5,-239 326.5,-220 393.5,-220 393.5,-239"/>
<text text-anchor="middle" x="360" y="-227" font-family="Helvetica,sans-Serif" font-size="10.00">NodeImpl.h</text>
</a>
</g>
</g>
<!-- Node3&#45;&gt;Node4 -->
<g id="edge3" class="edge">
<title>Node3&#45;&gt;Node4</title>
<path fill="none" stroke="#63b8ff" d="M371.69,-274.75C369.94,-268.11 367.46,-258.73 365.23,-250.31"/>
<polygon fill="#63b8ff" stroke="#63b8ff" points="368.69,-249.68 362.75,-240.91 361.92,-251.47 368.69,-249.68"/>
</g>
<!-- Node5 -->
<g id="node5" class="node">
<title>Node5</title>
<g id="a_node5"><a xlink:href="../../db/d1f/_common_8h.html" target="_top" xlink:title=" ">
<polygon fill="white" stroke="#666666" points="383.5,-184 318.5,-184 318.5,-165 383.5,-165 383.5,-184"/>
<text text-anchor="middle" x="351" y="-172" font-family="Helvetica,sans-Serif" font-size="10.00">Common.h</text>
</a>
</g>
</g>
<!-- Node4&#45;&gt;Node5 -->
<g id="edge4" class="edge">
<title>Node4&#45;&gt;Node5</title>
<path fill="none" stroke="#63b8ff" d="M358.51,-219.75C357.4,-213.19 355.83,-203.95 354.41,-195.6"/>
<polygon fill="#63b8ff" stroke="#63b8ff" points="357.9,-195.21 352.77,-185.93 351,-196.38 357.9,-195.21"/>
</g>
<!-- Node6 -->
<g id="node6" class="node">
<title>Node6</title>
<g id="a_node6"><a xlink:title=" ">
<polygon fill="#e0e0e0" stroke="#999999" points="428,-129 398,-129 398,-110 428,-110 428,-129"/>
<text text-anchor="middle" x="413" y="-117" font-family="Helvetica,sans-Serif" font-size="10.00">set</text>
</a>
</g>
</g>
<!-- Node5&#45;&gt;Node6 -->
<g id="edge5" class="edge">
<title>Node5&#45;&gt;Node6</title>
<path fill="none" stroke="#63b8ff" d="M361.52,-164.51C370.39,-156.93 383.31,-145.88 393.99,-136.75"/>
<polygon fill="#63b8ff" stroke="#63b8ff" points="396.16,-139.5 401.49,-130.34 391.61,-134.18 396.16,-139.5"/>
</g>
<!-- Node7 -->
<g id="node7" class="node">
<title>Node7</title>
<g id="a_node7"><a xlink:title=" ">
<polygon fill="#e0e0e0" stroke="#999999" points="402.5,-19 361.5,-19 361.5,0 402.5,0 402.5,-19"/>
<text text-anchor="middle" x="382" y="-7" font-family="Helvetica,sans-Serif" font-size="10.00">string</text>
</a>
</g>
</g>
<!-- Node5&#45;&gt;Node7 -->
<g id="edge6" class="edge">
<title>Node5&#45;&gt;Node7</title>
<path fill="none" stroke="#63b8ff" d="M352.67,-164.74C357.48,-139.42 371.5,-65.72 378.26,-30.16"/>
<polygon fill="#63b8ff" stroke="#63b8ff" points="381.61,-31.27 380.04,-20.79 374.74,-29.96 381.61,-31.27"/>
</g>
<!-- Node8 -->
<g id="node8" class="node">
<title>Node8</title>
<g id="a_node8"><a xlink:title=" ">
<polygon fill="#e0e0e0" stroke="#999999" points="342,-74 298,-74 298,-55 342,-55 342,-74"/>
<text text-anchor="middle" x="320" y="-62" font-family="Helvetica,sans-Serif" font-size="10.00">vector</text>
</a>
</g>
</g>
<!-- Node5&#45;&gt;Node8 -->
<g id="edge7" class="edge">
<title>Node5&#45;&gt;Node8</title>
<path fill="none" stroke="#63b8ff" d="M348.46,-164.66C343.51,-147.42 332.46,-108.9 325.67,-85.27"/>
<polygon fill="#63b8ff" stroke="#63b8ff" points="329.11,-84.56 322.99,-75.92 322.38,-86.49 329.11,-84.56"/>
</g>
<!-- Node9 -->
<g id="node9" class="node">
<title>Node9</title>
<g id="a_node9"><a xlink:href="../../d1/df2/_e57_format_8h.html" target="_top" xlink:title="Header file for the E57 API.">
<polygon fill="white" stroke="#666666" points="232.5,-129 159.5,-129 159.5,-110 232.5,-110 232.5,-129"/>
<text text-anchor="middle" x="196" y="-117" font-family="Helvetica,sans-Serif" font-size="10.00">E57Format.h</text>
</a>
</g>
</g>
<!-- Node5&#45;&gt;Node9 -->
<g id="edge8" class="edge">
<title>Node5&#45;&gt;Node9</title>
<path fill="none" stroke="#63b8ff" d="M324.71,-164.51C299.47,-155.88 261.11,-142.76 232.84,-133.1"/>
<polygon fill="#63b8ff" stroke="#63b8ff" points="234.19,-129.86 223.6,-129.94 231.93,-136.48 234.19,-129.86"/>
</g>
<!-- Node9&#45;&gt;Node8 -->
<g id="edge12" class="edge">
<title>Node9&#45;&gt;Node8</title>
<path fill="none" stroke="#63b8ff" d="M217.03,-109.51C236.75,-101.08 266.47,-88.38 288.91,-78.79"/>
<polygon fill="#63b8ff" stroke="#63b8ff" points="290.06,-82.1 297.88,-74.95 287.31,-75.66 290.06,-82.1"/>
</g>
<!-- Node10 -->
<g id="node10" class="node">
<title>Node10</title>
<g id="a_node10"><a xlink:title=" ">
<polygon fill="#e0e0e0" stroke="#999999" points="175.5,-74 134.5,-74 134.5,-55 175.5,-55 175.5,-74"/>
<text text-anchor="middle" x="155" y="-62" font-family="Helvetica,sans-Serif" font-size="10.00">cfloat</text>
</a>
</g>
</g>
<!-- Node9&#45;&gt;Node10 -->
<g id="edge9" class="edge">
<title>Node9&#45;&gt;Node10</title>
<path fill="none" stroke="#63b8ff" d="M189.23,-109.75C183.68,-102.58 175.66,-92.2 168.77,-83.3"/>
<polygon fill="#63b8ff" stroke="#63b8ff" points="171.73,-81.41 162.84,-75.64 166.19,-85.69 171.73,-81.41"/>
</g>
<!-- Node11 -->
<g id="node11" class="node">
<title>Node11</title>
<g id="a_node11"><a xlink:title=" ">
<polygon fill="#e0e0e0" stroke="#999999" points="46,-74 0,-74 0,-55 46,-55 46,-74"/>
<text text-anchor="middle" x="23" y="-62" font-family="Helvetica,sans-Serif" font-size="10.00">cstdint</text>
</a>
</g>
</g>
<!-- Node9&#45;&gt;Node11 -->
<g id="edge10" class="edge">
<title>Node9&#45;&gt;Node11</title>
<path fill="none" stroke="#63b8ff" d="M166.65,-109.51C136.3,-100.21 88.95,-85.7 56.99,-75.91"/>
<polygon fill="#63b8ff" stroke="#63b8ff" points="58.41,-72.69 47.82,-73.1 56.36,-79.38 58.41,-72.69"/>
</g>
<!-- Node12 -->
<g id="node12" class="node">
<title>Node12</title>
<g id="a_node12"><a xlink:title=" ">
<polygon fill="#e0e0e0" stroke="#999999" points="116,-74 64,-74 64,-55 116,-55 116,-74"/>
<text text-anchor="middle" x="90" y="-62" font-family="Helvetica,sans-Serif" font-size="10.00">memory</text>
</a>
</g>
</g>
<!-- Node9&#45;&gt;Node12 -->
<g id="edge11" class="edge">
<title>Node9&#45;&gt;Node12</title>
<path fill="none" stroke="#63b8ff" d="M178.02,-109.51C161.55,-101.27 136.91,-88.96 117.89,-79.45"/>
<polygon fill="#63b8ff" stroke="#63b8ff" points="119.58,-76.38 109.07,-75.03 116.45,-82.64 119.58,-76.38"/>
</g>
<!-- Node13 -->
<g id="node13" class="node">
<title>Node13</title>
<g id="a_node13"><a xlink:href="../../d4/d6e/_e57_exception_8h.html" target="_top" xlink:title="Exception handling for E57 API.">
<polygon fill="white" stroke="#666666" points="280,-74 194,-74 194,-55 280,-55 280,-74"/>
<text text-anchor="middle" x="237" y="-62" font-family="Helvetica,sans-Serif" font-size="10.00">E57Exception.h</text>
</a>
</g>
</g>
<!-- Node9&#45;&gt;Node13 -->
<g id="edge13" class="edge">
<title>Node9&#45;&gt;Node13</title>
<path fill="none" stroke="#63b8ff" d="M202.77,-109.75C208.32,-102.58 216.34,-92.2 223.23,-83.3"/>
<polygon fill="#63b8ff" stroke="#63b8ff" points="225.81,-85.69 229.16,-75.64 220.27,-81.41 225.81,-85.69"/>
</g>
<!-- Node13&#45;&gt;Node7 -->
<g id="edge16" class="edge">
<title>Node13&#45;&gt;Node7</title>
<path fill="none" stroke="#63b8ff" d="M261.6,-54.51C286.06,-45.57 323.69,-31.81 350.36,-22.06"/>
<polygon fill="#63b8ff" stroke="#63b8ff" points="351.44,-25.4 359.63,-18.68 349.04,-18.82 351.44,-25.4"/>
</g>
<!-- Node14 -->
<g id="node14" class="node">
<title>Node14</title>
<g id="a_node14"><a xlink:title=" ">
<polygon fill="#e0e0e0" stroke="#999999" points="181.5,-19 122.5,-19 122.5,0 181.5,0 181.5,-19"/>
<text text-anchor="middle" x="152" y="-7" font-family="Helvetica,sans-Serif" font-size="10.00">exception</text>
</a>
</g>
</g>
<!-- Node13&#45;&gt;Node14 -->
<g id="edge14" class="edge">
<title>Node13&#45;&gt;Node14</title>
<path fill="none" stroke="#63b8ff" d="M222.58,-54.51C209.8,-46.54 190.9,-34.75 175.87,-25.38"/>
<polygon fill="#63b8ff" stroke="#63b8ff" points="177.83,-22.48 167.49,-20.16 174.12,-28.42 177.83,-22.48"/>
</g>
<!-- Node15 -->
<g id="node15" class="node">
<title>Node15</title>
<g id="a_node15"><a xlink:title=" ">
<polygon fill="#e0e0e0" stroke="#999999" points="343,-19 289,-19 289,0 343,0 343,-19"/>
<text text-anchor="middle" x="316" y="-7" font-family="Helvetica,sans-Serif" font-size="10.00">iostream</text>
</a>
</g>
</g>
<!-- Node13&#45;&gt;Node15 -->
<g id="edge15" class="edge">
<title>Node13&#45;&gt;Node15</title>
<path fill="none" stroke="#63b8ff" d="M250.4,-54.51C262.16,-46.62 279.51,-34.98 293.41,-25.65"/>
<polygon fill="#63b8ff" stroke="#63b8ff" points="295.19,-28.68 301.54,-20.2 291.29,-22.87 295.19,-28.68"/>
</g>
<!-- Node16 -->
<g id="node16" class="node">
<title>Node16</title>
<g id="a_node16"><a xlink:title=" ">
<polygon fill="#e0e0e0" stroke="#999999" points="270.5,-19 199.5,-19 199.5,0 270.5,0 270.5,-19"/>
<text text-anchor="middle" x="235" y="-7" font-family="Helvetica,sans-Serif" font-size="10.00">E57Export.h</text>
</a>
</g>
</g>
<!-- Node13&#45;&gt;Node16 -->
<g id="edge17" class="edge">
<title>Node13&#45;&gt;Node16</title>
<path fill="none" stroke="#63b8ff" d="M236.67,-54.75C236.43,-48.27 236.08,-39.16 235.77,-30.9"/>
<polygon fill="#63b8ff" stroke="#63b8ff" points="239.27,-30.82 235.39,-20.95 232.27,-31.08 239.27,-30.82"/>
</g>
<!-- Node17&#45;&gt;Node5 -->
<g id="edge20" class="edge">
<title>Node17&#45;&gt;Node5</title>
<path fill="none" stroke="#63b8ff" d="M260.45,-329.64C247.38,-317.54 227.89,-295.04 237,-275 254.64,-236.19 295.72,-206.6 323.44,-190.14"/>
<polygon fill="#63b8ff" stroke="#63b8ff" points="325.07,-193.24 332.02,-185.23 321.6,-187.16 325.07,-193.24"/>
</g>
<!-- Node18 -->
<g id="node18" class="node">
<title>Node18</title>
<g id="a_node18"><a xlink:title=" ">
<polygon fill="#e0e0e0" stroke="#999999" points="302,-294 246,-294 246,-275 302,-275 302,-294"/>
<text text-anchor="middle" x="274" y="-282" font-family="Helvetica,sans-Serif" font-size="10.00">algorithm</text>
</a>
</g>
</g>
<!-- Node17&#45;&gt;Node18 -->
<g id="edge19" class="edge">
<title>Node17&#45;&gt;Node18</title>
<path fill="none" stroke="#63b8ff" d="M271.5,-329.75C271.86,-323.27 272.38,-314.16 272.85,-305.9"/>
<polygon fill="#63b8ff" stroke="#63b8ff" points="276.34,-306.13 273.41,-295.95 269.35,-305.74 276.34,-306.13"/>
</g>
<!-- Node19&#45;&gt;Node7 -->
<g id="edge25" class="edge">
<title>Node19&#45;&gt;Node7</title>
<path fill="none" stroke="#63b8ff" d="M435.14,-54.51C425.89,-46.85 412.38,-35.66 401.29,-26.47"/>
<polygon fill="#63b8ff" stroke="#63b8ff" points="403.8,-24.01 393.86,-20.32 399.33,-29.4 403.8,-24.01"/>
</g>
<!-- Node19&#45;&gt;Node15 -->
<g id="edge23" class="edge">
<title>Node19&#45;&gt;Node15</title>
<path fill="none" stroke="#63b8ff" d="M423.95,-54.51C403.19,-46.04 371.84,-33.27 348.27,-23.66"/>
<polygon fill="#63b8ff" stroke="#63b8ff" points="349.71,-20.46 339.13,-19.93 347.07,-26.95 349.71,-20.46"/>
</g>
<!-- Node20 -->
<g id="node20" class="node">
<title>Node20</title>
<g id="a_node20"><a xlink:title=" ">
<polygon fill="#e0e0e0" stroke="#999999" points="471,-19 421,-19 421,0 471,0 471,-19"/>
<text text-anchor="middle" x="446" y="-7" font-family="Helvetica,sans-Serif" font-size="10.00">iomanip</text>
</a>
</g>
</g>
<!-- Node19&#45;&gt;Node20 -->
<g id="edge22" class="edge">
<title>Node19&#45;&gt;Node20</title>
<path fill="none" stroke="#63b8ff" d="M446,-54.75C446,-48.27 446,-39.16 446,-30.9"/>
<polygon fill="#63b8ff" stroke="#63b8ff" points="449.5,-30.96 446,-20.96 442.5,-30.96 449.5,-30.96"/>
</g>
<!-- Node21 -->
<g id="node21" class="node">
<title>Node21</title>
<g id="a_node21"><a xlink:title=" ">
<polygon fill="#e0e0e0" stroke="#999999" points="541,-19 489,-19 489,0 541,0 541,-19"/>
<text text-anchor="middle" x="515" y="-7" font-family="Helvetica,sans-Serif" font-size="10.00">sstream</text>
</a>
</g>
</g>
<!-- Node19&#45;&gt;Node21 -->
<g id="edge24" class="edge">
<title>Node19&#45;&gt;Node21</title>
<path fill="none" stroke="#63b8ff" d="M457.7,-54.51C467.78,-46.77 482.54,-35.43 494.56,-26.2"/>
<polygon fill="#63b8ff" stroke="#63b8ff" points="496.47,-29.15 502.27,-20.28 492.21,-23.6 496.47,-29.15"/>
</g>
</g>
</svg>
