<?xml version="1.0" encoding="UTF-8" standalone="no"?>
<!DOCTYPE svg PUBLIC "-//W3C//DTD SVG 1.1//EN"
 "http://www.w3.org/Graphics/SVG/1.1/DTD/svg11.dtd">
<!-- Generated by graphviz version 7.0.0 (20221023.0053)
 -->
<!-- Title: e57::BlobSectionHeader Pages: 1 -->
<svg width="186pt" height="104pt"
 viewBox="0.00 0.00 186.00 104.00" xmlns="http://www.w3.org/2000/svg" xmlns:xlink="http://www.w3.org/1999/xlink">
<g id="graph0" class="graph" transform="scale(1 1) rotate(0) translate(4 100)">
<title>e57::BlobSectionHeader</title>
<!-- Node1 -->
<g id="node1" class="node">
<title>Node1</title>
<g id="a_node1"><a xlink:title=" ">
<polygon fill="#999999" stroke="#666666" points="122,-19 0,-19 0,0 122,0 122,-19"/>
<text text-anchor="middle" x="61" y="-7" font-family="Helvetica,sans-Serif" font-size="10.00">e57::BlobSectionHeader</text>
</a>
</g>
</g>
<!-- Node2 -->
<g id="node2" class="node">
<title>Node2</title>
<g id="a_node2"><a xlink:title=" ">
<polygon fill="white" stroke="#666666" points="50,-96 4,-96 4,-77 50,-77 50,-96"/>
<text text-anchor="middle" x="27" y="-84" font-family="Helvetica,sans-Serif" font-size="10.00">uint8_t</text>
</a>
</g>
</g>
<!-- Node2&#45;&gt;Node1 -->
<g id="edge1" class="edge">
<title>Node2&#45;&gt;Node1</title>
<path fill="none" stroke="#9a32cd" stroke-dasharray="5,2" d="M23.69,-65.6C23.08,-56.45 23.7,-45.73 28,-37 31.57,-29.75 38.16,-23.84 44.53,-19.45"/>
<polygon fill="#9a32cd" stroke="#9a32cd" points="20.18,-65.75 24.87,-75.24 27.13,-64.89 20.18,-65.75"/>
<text text-anchor="middle" x="51" y="-51" font-family="Helvetica,sans-Serif" font-size="10.00"> reserved1</text>
<text text-anchor="middle" x="51" y="-40" font-family="Helvetica,sans-Serif" font-size="10.00">sectionId</text>
</g>
<!-- Node3 -->
<g id="node3" class="node">
<title>Node3</title>
<g id="a_node3"><a xlink:title=" ">
<polygon fill="white" stroke="#666666" points="121.5,-96 70.5,-96 70.5,-77 121.5,-77 121.5,-96"/>
<text text-anchor="middle" x="96" y="-84" font-family="Helvetica,sans-Serif" font-size="10.00">uint64_t</text>
</a>
</g>
</g>
<!-- Node3&#45;&gt;Node1 -->
<g id="edge2" class="edge">
<title>Node3&#45;&gt;Node1</title>
<path fill="none" stroke="#9a32cd" stroke-dasharray="5,2" d="M87.36,-66.09C83.36,-57.2 78.5,-46.53 74,-37 71.2,-31.07 67.95,-24.44 65.4,-19.3"/>
<polygon fill="#9a32cd" stroke="#9a32cd" points="84.13,-67.44 91.41,-75.14 90.52,-64.58 84.13,-67.44"/>
<text text-anchor="middle" x="130.5" y="-45.5" font-family="Helvetica,sans-Serif" font-size="10.00"> sectionLogicalLength</text>
</g>
</g>
</svg>
