<?xml version="1.0" encoding="UTF-8" standalone="no"?>
<!DOCTYPE svg PUBLIC "-//W3C//DTD SVG 1.1//EN"
 "http://www.w3.org/Graphics/SVG/1.1/DTD/svg11.dtd">
<!-- Generated by graphviz version 2.49.0 (20210828.1703)
 -->
<!-- Title: StructureNodeImpl.cpp Pages: 1 -->
<svg width="433pt" height="364pt"
 viewBox="0.00 0.00 432.51 364.00" xmlns="http://www.w3.org/2000/svg" xmlns:xlink="http://www.w3.org/1999/xlink">
<g id="graph0" class="graph" transform="scale(1 1) rotate(0) translate(4 360)">
<title>StructureNodeImpl.cpp</title>
<polygon fill="white" stroke="transparent" points="-4,4 -4,-360 428.51,-360 428.51,4 -4,4"/>
<!-- Node1 -->
<g id="node1" class="node">
<title>Node1</title>
<g id="a_node1"><a xlink:title=" ">
<polygon fill="#bfbfbf" stroke="black" points="166.51,-336.5 166.51,-355.5 285.51,-355.5 285.51,-336.5 166.51,-336.5"/>
<text text-anchor="middle" x="226.01" y="-343.5" font-family="Helvetica,sans-Serif" font-size="10.00">StructureNodeImpl.cpp</text>
</a>
</g>
</g>
<!-- Node2 -->
<g id="node2" class="node">
<title>Node2</title>
<g id="a_node2"><a xlink:title=" ">
<polygon fill="white" stroke="#bfbfbf" points="54.01,-280.5 54.01,-299.5 98.01,-299.5 98.01,-280.5 54.01,-280.5"/>
<text text-anchor="middle" x="76.01" y="-287.5" font-family="Helvetica,sans-Serif" font-size="10.00">climits</text>
</a>
</g>
</g>
<!-- Node1&#45;&gt;Node2 -->
<g id="edge1" class="edge">
<title>Node1&#45;&gt;Node2</title>
<path fill="none" stroke="midnightblue" d="M202.24,-336.44C176.67,-327.24 135.89,-312.56 107.63,-302.38"/>
<polygon fill="midnightblue" stroke="midnightblue" points="108.79,-299.08 98.2,-298.99 106.42,-305.67 108.79,-299.08"/>
</g>
<!-- Node3 -->
<g id="node3" class="node">
<title>Node3</title>
<g id="a_node3"><a xlink:href="../../dd/d41/_checked_file_8h.html" target="_top" xlink:title=" ">
<polygon fill="white" stroke="black" points="242.01,-280.5 242.01,-299.5 322.01,-299.5 322.01,-280.5 242.01,-280.5"/>
<text text-anchor="middle" x="282.01" y="-287.5" font-family="Helvetica,sans-Serif" font-size="10.00">CheckedFile.h</text>
</a>
</g>
</g>
<!-- Node1&#45;&gt;Node3 -->
<g id="edge2" class="edge">
<title>Node1&#45;&gt;Node3</title>
<path fill="none" stroke="midnightblue" d="M235.01,-336.32C243.2,-328.42 255.52,-316.55 265.48,-306.94"/>
<polygon fill="midnightblue" stroke="midnightblue" points="268.08,-309.29 272.85,-299.83 263.22,-304.26 268.08,-309.29"/>
</g>
<!-- Node18 -->
<g id="node18" class="node">
<title>Node18</title>
<g id="a_node18"><a xlink:href="../../da/d09/_image_file_impl_8h.html" target="_top" xlink:title=" ">
<polygon fill="white" stroke="black" points="329.01,-224.5 329.01,-243.5 417.01,-243.5 417.01,-224.5 329.01,-224.5"/>
<text text-anchor="middle" x="373.01" y="-231.5" font-family="Helvetica,sans-Serif" font-size="10.00">ImageFileImpl.h</text>
</a>
</g>
</g>
<!-- Node1&#45;&gt;Node18 -->
<g id="edge20" class="edge">
<title>Node1&#45;&gt;Node18</title>
<path fill="none" stroke="midnightblue" d="M259.04,-336.38C281.22,-329.35 310.1,-317.65 331.01,-300 346.21,-287.17 357.88,-267.44 365.01,-253.08"/>
<polygon fill="midnightblue" stroke="midnightblue" points="368.31,-254.29 369.4,-243.75 361.98,-251.31 368.31,-254.29"/>
</g>
<!-- Node19 -->
<g id="node19" class="node">
<title>Node19</title>
<g id="a_node19"><a xlink:href="../../d4/dd2/_structure_node_impl_8h.html" target="_top" xlink:title=" ">
<polygon fill="white" stroke="black" points="116.01,-280.5 116.01,-299.5 224.01,-299.5 224.01,-280.5 116.01,-280.5"/>
<text text-anchor="middle" x="170.01" y="-287.5" font-family="Helvetica,sans-Serif" font-size="10.00">StructureNodeImpl.h</text>
</a>
</g>
</g>
<!-- Node1&#45;&gt;Node19 -->
<g id="edge23" class="edge">
<title>Node1&#45;&gt;Node19</title>
<path fill="none" stroke="midnightblue" d="M217.01,-336.32C208.82,-328.42 196.5,-316.55 186.54,-306.94"/>
<polygon fill="midnightblue" stroke="midnightblue" points="188.8,-304.26 179.17,-299.83 183.94,-309.29 188.8,-304.26"/>
</g>
<!-- Node4 -->
<g id="node4" class="node">
<title>Node4</title>
<g id="a_node4"><a xlink:title=" ">
<polygon fill="white" stroke="#bfbfbf" points="215.01,-224.5 215.01,-243.5 273.01,-243.5 273.01,-224.5 215.01,-224.5"/>
<text text-anchor="middle" x="244.01" y="-231.5" font-family="Helvetica,sans-Serif" font-size="10.00">algorithm</text>
</a>
</g>
</g>
<!-- Node3&#45;&gt;Node4 -->
<g id="edge3" class="edge">
<title>Node3&#45;&gt;Node4</title>
<path fill="none" stroke="midnightblue" d="M275.74,-280.08C270.37,-272.46 262.49,-261.26 255.93,-251.94"/>
<polygon fill="midnightblue" stroke="midnightblue" points="258.79,-249.91 250.17,-243.75 253.06,-253.94 258.79,-249.91"/>
</g>
<!-- Node5 -->
<g id="node5" class="node">
<title>Node5</title>
<g id="a_node5"><a xlink:href="../../db/d1f/_common_8h.html" target="_top" xlink:title=" ">
<polygon fill="white" stroke="black" points="145.51,-168.5 145.51,-187.5 210.51,-187.5 210.51,-168.5 145.51,-168.5"/>
<text text-anchor="middle" x="178.01" y="-175.5" font-family="Helvetica,sans-Serif" font-size="10.00">Common.h</text>
</a>
</g>
</g>
<!-- Node3&#45;&gt;Node5 -->
<g id="edge4" class="edge">
<title>Node3&#45;&gt;Node5</title>
<path fill="none" stroke="midnightblue" d="M284.84,-280.15C288.53,-266.78 293.29,-241.17 282.01,-224 268.43,-203.32 243.1,-192.1 220.84,-186.04"/>
<polygon fill="midnightblue" stroke="midnightblue" points="221.42,-182.58 210.88,-183.6 219.76,-189.38 221.42,-182.58"/>
</g>
<!-- Node6 -->
<g id="node6" class="node">
<title>Node6</title>
<g id="a_node6"><a xlink:title=" ">
<polygon fill="white" stroke="#bfbfbf" points="263.01,-112.5 263.01,-131.5 315.01,-131.5 315.01,-112.5 263.01,-112.5"/>
<text text-anchor="middle" x="289.01" y="-119.5" font-family="Helvetica,sans-Serif" font-size="10.00">iomanip</text>
</a>
</g>
</g>
<!-- Node5&#45;&gt;Node6 -->
<g id="edge5" class="edge">
<title>Node5&#45;&gt;Node6</title>
<path fill="none" stroke="midnightblue" d="M195.84,-168.32C213.73,-159.62 241.49,-146.12 262.06,-136.11"/>
<polygon fill="midnightblue" stroke="midnightblue" points="263.76,-139.18 271.22,-131.65 260.7,-132.88 263.76,-139.18"/>
</g>
<!-- Node7 -->
<g id="node7" class="node">
<title>Node7</title>
<g id="a_node7"><a xlink:title=" ">
<polygon fill="white" stroke="#bfbfbf" points="291.51,-0.5 291.51,-19.5 346.51,-19.5 346.51,-0.5 291.51,-0.5"/>
<text text-anchor="middle" x="319.01" y="-7.5" font-family="Helvetica,sans-Serif" font-size="10.00">iostream</text>
</a>
</g>
</g>
<!-- Node5&#45;&gt;Node7 -->
<g id="edge6" class="edge">
<title>Node5&#45;&gt;Node7</title>
<path fill="none" stroke="midnightblue" d="M210.7,-177.32C245.2,-175.67 298.1,-167.1 324.01,-132 346.3,-101.81 335.07,-54.89 326.24,-29.25"/>
<polygon fill="midnightblue" stroke="midnightblue" points="329.45,-27.85 322.7,-19.68 322.88,-30.27 329.45,-27.85"/>
</g>
<!-- Node8 -->
<g id="node8" class="node">
<title>Node8</title>
<g id="a_node8"><a xlink:title=" ">
<polygon fill="white" stroke="#bfbfbf" points="145.01,-112.5 145.01,-131.5 175.01,-131.5 175.01,-112.5 145.01,-112.5"/>
<text text-anchor="middle" x="160.01" y="-119.5" font-family="Helvetica,sans-Serif" font-size="10.00">set</text>
</a>
</g>
</g>
<!-- Node5&#45;&gt;Node8 -->
<g id="edge7" class="edge">
<title>Node5&#45;&gt;Node8</title>
<path fill="none" stroke="midnightblue" d="M175.04,-168.08C172.63,-160.85 169.15,-150.41 166.14,-141.4"/>
<polygon fill="midnightblue" stroke="midnightblue" points="169.41,-140.13 162.93,-131.75 162.77,-142.34 169.41,-140.13"/>
</g>
<!-- Node9 -->
<g id="node9" class="node">
<title>Node9</title>
<g id="a_node9"><a xlink:title=" ">
<polygon fill="white" stroke="#bfbfbf" points="193.01,-112.5 193.01,-131.5 245.01,-131.5 245.01,-112.5 193.01,-112.5"/>
<text text-anchor="middle" x="219.01" y="-119.5" font-family="Helvetica,sans-Serif" font-size="10.00">sstream</text>
</a>
</g>
</g>
<!-- Node5&#45;&gt;Node9 -->
<g id="edge8" class="edge">
<title>Node5&#45;&gt;Node9</title>
<path fill="none" stroke="midnightblue" d="M184.78,-168.08C190.57,-160.46 199.07,-149.26 206.15,-139.94"/>
<polygon fill="midnightblue" stroke="midnightblue" points="209.11,-141.83 212.37,-131.75 203.53,-137.6 209.11,-141.83"/>
</g>
<!-- Node10 -->
<g id="node10" class="node">
<title>Node10</title>
<g id="a_node10"><a xlink:title=" ">
<polygon fill="white" stroke="#bfbfbf" points="4.51,-0.5 4.51,-19.5 45.51,-19.5 45.51,-0.5 4.51,-0.5"/>
<text text-anchor="middle" x="25.01" y="-7.5" font-family="Helvetica,sans-Serif" font-size="10.00">string</text>
</a>
</g>
</g>
<!-- Node5&#45;&gt;Node10 -->
<g id="edge9" class="edge">
<title>Node5&#45;&gt;Node10</title>
<path fill="none" stroke="midnightblue" d="M145.25,-174.4C112.89,-170.26 63.61,-159.58 31.01,-132 3.53,-108.75 -5.1,-91.07 3.01,-56 5.24,-46.36 9.83,-36.41 14.25,-28.31"/>
<polygon fill="midnightblue" stroke="midnightblue" points="17.36,-29.92 19.37,-19.52 11.31,-26.4 17.36,-29.92"/>
</g>
<!-- Node11 -->
<g id="node11" class="node">
<title>Node11</title>
<g id="a_node11"><a xlink:title=" ">
<polygon fill="white" stroke="#bfbfbf" points="12.01,-56.5 12.01,-75.5 56.01,-75.5 56.01,-56.5 12.01,-56.5"/>
<text text-anchor="middle" x="34.01" y="-63.5" font-family="Helvetica,sans-Serif" font-size="10.00">vector</text>
</a>
</g>
</g>
<!-- Node5&#45;&gt;Node11 -->
<g id="edge10" class="edge">
<title>Node5&#45;&gt;Node11</title>
<path fill="none" stroke="midnightblue" d="M145.41,-175.34C114.46,-171.92 69.06,-161.76 44.01,-132 33.33,-119.32 31.55,-100.11 32.01,-85.86"/>
<polygon fill="midnightblue" stroke="midnightblue" points="35.51,-85.94 32.73,-75.72 28.53,-85.45 35.51,-85.94"/>
</g>
<!-- Node12 -->
<g id="node12" class="node">
<title>Node12</title>
<g id="a_node12"><a xlink:href="../../d1/df2/_e57_format_8h.html" target="_top" xlink:title="header file for the E57 API">
<polygon fill="white" stroke="black" points="53.01,-112.5 53.01,-131.5 127.01,-131.5 127.01,-112.5 53.01,-112.5"/>
<text text-anchor="middle" x="90.01" y="-119.5" font-family="Helvetica,sans-Serif" font-size="10.00">E57Format.h</text>
</a>
</g>
</g>
<!-- Node5&#45;&gt;Node12 -->
<g id="edge11" class="edge">
<title>Node5&#45;&gt;Node12</title>
<path fill="none" stroke="midnightblue" d="M163.87,-168.32C150.14,-159.9 129.07,-146.97 112.95,-137.07"/>
<polygon fill="midnightblue" stroke="midnightblue" points="114.47,-133.9 104.11,-131.65 110.81,-139.87 114.47,-133.9"/>
</g>
<!-- Node12&#45;&gt;Node11 -->
<g id="edge14" class="edge">
<title>Node12&#45;&gt;Node11</title>
<path fill="none" stroke="midnightblue" d="M81.01,-112.32C72.82,-104.42 60.5,-92.55 50.54,-82.94"/>
<polygon fill="midnightblue" stroke="midnightblue" points="52.8,-80.26 43.17,-75.83 47.94,-85.29 52.8,-80.26"/>
</g>
<!-- Node13 -->
<g id="node13" class="node">
<title>Node13</title>
<g id="a_node13"><a xlink:title=" ">
<polygon fill="white" stroke="#bfbfbf" points="74.01,-56.5 74.01,-75.5 114.01,-75.5 114.01,-56.5 74.01,-56.5"/>
<text text-anchor="middle" x="94.01" y="-63.5" font-family="Helvetica,sans-Serif" font-size="10.00">cfloat</text>
</a>
</g>
</g>
<!-- Node12&#45;&gt;Node13 -->
<g id="edge12" class="edge">
<title>Node12&#45;&gt;Node13</title>
<path fill="none" stroke="midnightblue" d="M90.67,-112.08C91.2,-105.01 91.95,-94.86 92.6,-85.99"/>
<polygon fill="midnightblue" stroke="midnightblue" points="96.11,-85.98 93.36,-75.75 89.13,-85.47 96.11,-85.98"/>
</g>
<!-- Node14 -->
<g id="node14" class="node">
<title>Node14</title>
<g id="a_node14"><a xlink:title=" ">
<polygon fill="white" stroke="#bfbfbf" points="371.51,-56.5 371.51,-75.5 424.51,-75.5 424.51,-56.5 371.51,-56.5"/>
<text text-anchor="middle" x="398.01" y="-63.5" font-family="Helvetica,sans-Serif" font-size="10.00">memory</text>
</a>
</g>
</g>
<!-- Node12&#45;&gt;Node14 -->
<g id="edge13" class="edge">
<title>Node12&#45;&gt;Node14</title>
<path fill="none" stroke="midnightblue" d="M127.15,-113.66C130.15,-113.09 133.13,-112.53 136.01,-112 216.11,-97.29 310.26,-81.48 361.04,-73.07"/>
<polygon fill="midnightblue" stroke="midnightblue" points="361.9,-76.48 371.2,-71.4 360.76,-69.57 361.9,-76.48"/>
</g>
<!-- Node15 -->
<g id="node15" class="node">
<title>Node15</title>
<g id="a_node15"><a xlink:href="../../d4/d6e/_e57_exception_8h.html" target="_top" xlink:title=" ">
<polygon fill="white" stroke="black" points="132.51,-56.5 132.51,-75.5 219.51,-75.5 219.51,-56.5 132.51,-56.5"/>
<text text-anchor="middle" x="176.01" y="-63.5" font-family="Helvetica,sans-Serif" font-size="10.00">E57Exception.h</text>
</a>
</g>
</g>
<!-- Node12&#45;&gt;Node15 -->
<g id="edge15" class="edge">
<title>Node12&#45;&gt;Node15</title>
<path fill="none" stroke="midnightblue" d="M103.83,-112.32C117.24,-103.9 137.83,-90.97 153.6,-81.07"/>
<polygon fill="midnightblue" stroke="midnightblue" points="155.62,-83.94 162.23,-75.65 151.9,-78.01 155.62,-83.94"/>
</g>
<!-- Node15&#45;&gt;Node7 -->
<g id="edge17" class="edge">
<title>Node15&#45;&gt;Node7</title>
<path fill="none" stroke="midnightblue" d="M198.67,-56.44C222.41,-47.48 259.92,-33.31 286.75,-23.18"/>
<polygon fill="midnightblue" stroke="midnightblue" points="288.34,-26.32 296.46,-19.52 285.87,-19.77 288.34,-26.32"/>
</g>
<!-- Node15&#45;&gt;Node10 -->
<g id="edge18" class="edge">
<title>Node15&#45;&gt;Node10</title>
<path fill="none" stroke="midnightblue" d="M152.08,-56.44C125.9,-47.08 83.86,-32.05 55.37,-21.86"/>
<polygon fill="midnightblue" stroke="midnightblue" points="56.5,-18.54 45.91,-18.47 54.14,-25.14 56.5,-18.54"/>
</g>
<!-- Node16 -->
<g id="node16" class="node">
<title>Node16</title>
<g id="a_node16"><a xlink:title=" ">
<polygon fill="white" stroke="#bfbfbf" points="170.51,-0.5 170.51,-19.5 229.51,-19.5 229.51,-0.5 170.51,-0.5"/>
<text text-anchor="middle" x="200.01" y="-7.5" font-family="Helvetica,sans-Serif" font-size="10.00">exception</text>
</a>
</g>
</g>
<!-- Node15&#45;&gt;Node16 -->
<g id="edge16" class="edge">
<title>Node15&#45;&gt;Node16</title>
<path fill="none" stroke="midnightblue" d="M179.97,-56.08C183.22,-48.77 187.93,-38.18 191.96,-29.1"/>
<polygon fill="midnightblue" stroke="midnightblue" points="195.26,-30.31 196.12,-19.75 188.86,-27.47 195.26,-30.31"/>
</g>
<!-- Node17 -->
<g id="node17" class="node">
<title>Node17</title>
<g id="a_node17"><a xlink:title=" ">
<polygon fill="white" stroke="#bfbfbf" points="80.01,-0.5 80.01,-19.5 152.01,-19.5 152.01,-0.5 80.01,-0.5"/>
<text text-anchor="middle" x="116.01" y="-7.5" font-family="Helvetica,sans-Serif" font-size="10.00">E57Export.h</text>
</a>
</g>
</g>
<!-- Node15&#45;&gt;Node17 -->
<g id="edge19" class="edge">
<title>Node15&#45;&gt;Node17</title>
<path fill="none" stroke="midnightblue" d="M166.37,-56.32C157.5,-48.34 144.14,-36.31 133.4,-26.65"/>
<polygon fill="midnightblue" stroke="midnightblue" points="135.6,-23.92 125.83,-19.83 130.92,-29.13 135.6,-23.92"/>
</g>
<!-- Node18&#45;&gt;Node5 -->
<g id="edge22" class="edge">
<title>Node18&#45;&gt;Node5</title>
<path fill="none" stroke="midnightblue" d="M342.11,-224.44C308.74,-215.2 255.42,-200.44 218.66,-190.26"/>
<polygon fill="midnightblue" stroke="midnightblue" points="219.34,-186.81 208.76,-187.52 217.47,-193.56 219.34,-186.81"/>
</g>
<!-- Node18&#45;&gt;Node14 -->
<g id="edge21" class="edge">
<title>Node18&#45;&gt;Node14</title>
<path fill="none" stroke="midnightblue" d="M374.35,-224.08C378.29,-197.95 389.85,-121.21 395.21,-85.58"/>
<polygon fill="midnightblue" stroke="midnightblue" points="398.69,-85.98 396.72,-75.57 391.77,-84.94 398.69,-85.98"/>
</g>
<!-- Node20 -->
<g id="node20" class="node">
<title>Node20</title>
<g id="a_node20"><a xlink:href="../../df/d7b/_node_impl_8h.html" target="_top" xlink:title=" ">
<polygon fill="white" stroke="black" points="129.01,-224.5 129.01,-243.5 197.01,-243.5 197.01,-224.5 129.01,-224.5"/>
<text text-anchor="middle" x="163.01" y="-231.5" font-family="Helvetica,sans-Serif" font-size="10.00">NodeImpl.h</text>
</a>
</g>
</g>
<!-- Node19&#45;&gt;Node20 -->
<g id="edge24" class="edge">
<title>Node19&#45;&gt;Node20</title>
<path fill="none" stroke="midnightblue" d="M168.85,-280.08C167.93,-272.93 166.59,-262.64 165.43,-253.69"/>
<polygon fill="midnightblue" stroke="midnightblue" points="168.9,-253.22 164.14,-243.75 161.96,-254.12 168.9,-253.22"/>
</g>
<!-- Node20&#45;&gt;Node5 -->
<g id="edge25" class="edge">
<title>Node20&#45;&gt;Node5</title>
<path fill="none" stroke="midnightblue" d="M165.49,-224.08C167.5,-216.85 170.4,-206.41 172.9,-197.4"/>
<polygon fill="midnightblue" stroke="midnightblue" points="176.28,-198.32 175.58,-187.75 169.53,-196.45 176.28,-198.32"/>
</g>
</g>
</svg>
