<?xml version="1.0" encoding="UTF-8" standalone="no"?>
<!DOCTYPE svg PUBLIC "-//W3C//DTD SVG 1.1//EN"
 "http://www.w3.org/Graphics/SVG/1.1/DTD/svg11.dtd">
<!-- Generated by graphviz version 7.0.0 (20221023.0053)
 -->
<!-- Title: StructureNodeImpl.cpp Pages: 1 -->
<svg width="545pt" height="357pt"
 viewBox="0.00 0.00 545.00 357.00" xmlns="http://www.w3.org/2000/svg" xmlns:xlink="http://www.w3.org/1999/xlink">
<g id="graph0" class="graph" transform="scale(1 1) rotate(0) translate(4 353)">
<title>StructureNodeImpl.cpp</title>
<!-- Node1 -->
<g id="node1" class="node">
<title>Node1</title>
<g id="a_node1"><a xlink:title=" ">
<polygon fill="#999999" stroke="#666666" points="330.5,-349 213.5,-349 213.5,-330 330.5,-330 330.5,-349"/>
<text text-anchor="middle" x="272" y="-337" font-family="Helvetica,sans-Serif" font-size="10.00">StructureNodeImpl.cpp</text>
</a>
</g>
</g>
<!-- Node2 -->
<g id="node2" class="node">
<title>Node2</title>
<g id="a_node2"><a xlink:title=" ">
<polygon fill="#e0e0e0" stroke="#999999" points="101.5,-294 56.5,-294 56.5,-275 101.5,-275 101.5,-294"/>
<text text-anchor="middle" x="79" y="-282" font-family="Helvetica,sans-Serif" font-size="10.00">climits</text>
</a>
</g>
</g>
<!-- Node1&#45;&gt;Node2 -->
<g id="edge1" class="edge">
<title>Node1&#45;&gt;Node2</title>
<path fill="none" stroke="#63b8ff" d="M239.26,-329.51C204.03,-319.84 148.29,-304.53 112.7,-294.75"/>
<polygon fill="#63b8ff" stroke="#63b8ff" points="113.93,-291.46 103.36,-292.19 112.07,-298.21 113.93,-291.46"/>
</g>
<!-- Node3 -->
<g id="node3" class="node">
<title>Node3</title>
<g id="a_node3"><a xlink:href="../../dd/d41/_checked_file_8h.html" target="_top" xlink:title=" ">
<polygon fill="white" stroke="#666666" points="200,-294 120,-294 120,-275 200,-275 200,-294"/>
<text text-anchor="middle" x="160" y="-282" font-family="Helvetica,sans-Serif" font-size="10.00">CheckedFile.h</text>
</a>
</g>
</g>
<!-- Node1&#45;&gt;Node3 -->
<g id="edge2" class="edge">
<title>Node1&#45;&gt;Node3</title>
<path fill="none" stroke="#63b8ff" d="M253,-329.51C235.44,-321.2 209.08,-308.73 188.91,-299.18"/>
<polygon fill="#63b8ff" stroke="#63b8ff" points="190.62,-296.12 180.09,-295.01 187.63,-302.45 190.62,-296.12"/>
</g>
<!-- Node17 -->
<g id="node17" class="node">
<title>Node17</title>
<g id="a_node17"><a xlink:href="../../da/d09/_image_file_impl_8h.html" target="_top" xlink:title=" ">
<polygon fill="white" stroke="#666666" points="397,-239 311,-239 311,-220 397,-220 397,-239"/>
<text text-anchor="middle" x="354" y="-227" font-family="Helvetica,sans-Serif" font-size="10.00">ImageFileImpl.h</text>
</a>
</g>
</g>
<!-- Node1&#45;&gt;Node17 -->
<g id="edge18" class="edge">
<title>Node1&#45;&gt;Node17</title>
<path fill="none" stroke="#63b8ff" d="M290.87,-329.55C304.96,-321.95 323.67,-309.77 335,-294 344.26,-281.11 349.06,-263.68 351.51,-250.34"/>
<polygon fill="#63b8ff" stroke="#63b8ff" points="354.96,-251 352.99,-240.58 348.03,-249.95 354.96,-251"/>
</g>
<!-- Node18 -->
<g id="node18" class="node">
<title>Node18</title>
<g id="a_node18"><a xlink:href="../../db/d42/_string_functions_8h.html" target="_top" xlink:title=" ">
<polygon fill="white" stroke="#666666" points="491.5,-74 398.5,-74 398.5,-55 491.5,-55 491.5,-74"/>
<text text-anchor="middle" x="445" y="-62" font-family="Helvetica,sans-Serif" font-size="10.00">StringFunctions.h</text>
</a>
</g>
</g>
<!-- Node1&#45;&gt;Node18 -->
<g id="edge21" class="edge">
<title>Node1&#45;&gt;Node18</title>
<path fill="none" stroke="#63b8ff" d="M315.25,-329.55C363.54,-316.73 435,-288.04 435,-230.5 435,-230.5 435,-230.5 435,-173.5 435,-142.79 439.06,-107.38 442,-85.72"/>
<polygon fill="#63b8ff" stroke="#63b8ff" points="445.45,-86.33 443.4,-75.93 438.52,-85.34 445.45,-86.33"/>
</g>
<!-- Node21 -->
<g id="node21" class="node">
<title>Node21</title>
<g id="a_node21"><a xlink:href="../../d4/dd2/_structure_node_impl_8h.html" target="_top" xlink:title=" ">
<polygon fill="white" stroke="#666666" points="325.5,-294 218.5,-294 218.5,-275 325.5,-275 325.5,-294"/>
<text text-anchor="middle" x="272" y="-282" font-family="Helvetica,sans-Serif" font-size="10.00">StructureNodeImpl.h</text>
</a>
</g>
</g>
<!-- Node1&#45;&gt;Node21 -->
<g id="edge26" class="edge">
<title>Node1&#45;&gt;Node21</title>
<path fill="none" stroke="#63b8ff" d="M272,-329.75C272,-323.27 272,-314.16 272,-305.9"/>
<polygon fill="#63b8ff" stroke="#63b8ff" points="275.5,-305.96 272,-295.96 268.5,-305.96 275.5,-305.96"/>
</g>
<!-- Node4 -->
<g id="node4" class="node">
<title>Node4</title>
<g id="a_node4"><a xlink:title=" ">
<polygon fill="#e0e0e0" stroke="#999999" points="207,-239 151,-239 151,-220 207,-220 207,-239"/>
<text text-anchor="middle" x="179" y="-227" font-family="Helvetica,sans-Serif" font-size="10.00">algorithm</text>
</a>
</g>
</g>
<!-- Node3&#45;&gt;Node4 -->
<g id="edge3" class="edge">
<title>Node3&#45;&gt;Node4</title>
<path fill="none" stroke="#63b8ff" d="M163.14,-274.75C165.54,-268.04 168.96,-258.52 172,-250.02"/>
<polygon fill="#63b8ff" stroke="#63b8ff" points="175.2,-251.46 175.28,-240.87 168.61,-249.1 175.2,-251.46"/>
</g>
<!-- Node5 -->
<g id="node5" class="node">
<title>Node5</title>
<g id="a_node5"><a xlink:href="../../db/d1f/_common_8h.html" target="_top" xlink:title=" ">
<polygon fill="white" stroke="#666666" points="234.5,-184 169.5,-184 169.5,-165 234.5,-165 234.5,-184"/>
<text text-anchor="middle" x="202" y="-172" font-family="Helvetica,sans-Serif" font-size="10.00">Common.h</text>
</a>
</g>
</g>
<!-- Node3&#45;&gt;Node5 -->
<g id="edge4" class="edge">
<title>Node3&#45;&gt;Node5</title>
<path fill="none" stroke="#63b8ff" d="M153.73,-274.9C145.39,-262.33 132.73,-238.42 142,-220 148.36,-207.37 160.19,-197.42 171.67,-190.17"/>
<polygon fill="#63b8ff" stroke="#63b8ff" points="173.31,-193.27 180.22,-185.24 169.81,-187.2 173.31,-193.27"/>
</g>
<!-- Node6 -->
<g id="node6" class="node">
<title>Node6</title>
<g id="a_node6"><a xlink:title=" ">
<polygon fill="#e0e0e0" stroke="#999999" points="109,-129 79,-129 79,-110 109,-110 109,-129"/>
<text text-anchor="middle" x="94" y="-117" font-family="Helvetica,sans-Serif" font-size="10.00">set</text>
</a>
</g>
</g>
<!-- Node5&#45;&gt;Node6 -->
<g id="edge5" class="edge">
<title>Node5&#45;&gt;Node6</title>
<path fill="none" stroke="#63b8ff" d="M183.68,-164.51C166.01,-155.84 139.11,-142.64 119.38,-132.96"/>
<polygon fill="#63b8ff" stroke="#63b8ff" points="121.14,-129.92 110.62,-128.66 118.06,-136.2 121.14,-129.92"/>
</g>
<!-- Node7 -->
<g id="node7" class="node">
<title>Node7</title>
<g id="a_node7"><a xlink:title=" ">
<polygon fill="#e0e0e0" stroke="#999999" points="320.5,-19 279.5,-19 279.5,0 320.5,0 320.5,-19"/>
<text text-anchor="middle" x="300" y="-7" font-family="Helvetica,sans-Serif" font-size="10.00">string</text>
</a>
</g>
</g>
<!-- Node5&#45;&gt;Node7 -->
<g id="edge6" class="edge">
<title>Node5&#45;&gt;Node7</title>
<path fill="none" stroke="#63b8ff" d="M212.64,-164.65C222.5,-156.13 237.22,-142.57 248,-129 265.73,-106.68 269.49,-100.08 281,-74 287.2,-59.95 292.1,-43.28 295.37,-30.55"/>
<polygon fill="#63b8ff" stroke="#63b8ff" points="298.77,-31.39 297.73,-20.84 291.97,-29.74 298.77,-31.39"/>
</g>
<!-- Node8 -->
<g id="node8" class="node">
<title>Node8</title>
<g id="a_node8"><a xlink:title=" ">
<polygon fill="#e0e0e0" stroke="#999999" points="44,-74 0,-74 0,-55 44,-55 44,-74"/>
<text text-anchor="middle" x="22" y="-62" font-family="Helvetica,sans-Serif" font-size="10.00">vector</text>
</a>
</g>
</g>
<!-- Node5&#45;&gt;Node8 -->
<g id="edge7" class="edge">
<title>Node5&#45;&gt;Node8</title>
<path fill="none" stroke="#63b8ff" d="M191.65,-164.51C176.28,-151.45 146.21,-126.94 118,-110 97.86,-97.91 73.88,-86.79 54.93,-78.69"/>
<polygon fill="#63b8ff" stroke="#63b8ff" points="56.39,-75.51 45.81,-74.87 53.68,-81.97 56.39,-75.51"/>
</g>
<!-- Node9 -->
<g id="node9" class="node">
<title>Node9</title>
<g id="a_node9"><a xlink:href="../../d1/df2/_e57_format_8h.html" target="_top" xlink:title="Header file for the E57 API.">
<polygon fill="white" stroke="#666666" points="238.5,-129 165.5,-129 165.5,-110 238.5,-110 238.5,-129"/>
<text text-anchor="middle" x="202" y="-117" font-family="Helvetica,sans-Serif" font-size="10.00">E57Format.h</text>
</a>
</g>
</g>
<!-- Node5&#45;&gt;Node9 -->
<g id="edge8" class="edge">
<title>Node5&#45;&gt;Node9</title>
<path fill="none" stroke="#63b8ff" d="M202,-164.75C202,-158.27 202,-149.16 202,-140.9"/>
<polygon fill="#63b8ff" stroke="#63b8ff" points="205.5,-140.96 202,-130.96 198.5,-140.96 205.5,-140.96"/>
</g>
<!-- Node9&#45;&gt;Node8 -->
<g id="edge12" class="edge">
<title>Node9&#45;&gt;Node8</title>
<path fill="none" stroke="#63b8ff" d="M171.47,-109.51C139.25,-100.02 88.65,-85.12 55.4,-75.33"/>
<polygon fill="#63b8ff" stroke="#63b8ff" points="56.45,-72 45.87,-72.53 54.47,-78.71 56.45,-72"/>
</g>
<!-- Node10 -->
<g id="node10" class="node">
<title>Node10</title>
<g id="a_node10"><a xlink:title=" ">
<polygon fill="#e0e0e0" stroke="#999999" points="271.5,-74 230.5,-74 230.5,-55 271.5,-55 271.5,-74"/>
<text text-anchor="middle" x="251" y="-62" font-family="Helvetica,sans-Serif" font-size="10.00">cfloat</text>
</a>
</g>
</g>
<!-- Node9&#45;&gt;Node10 -->
<g id="edge9" class="edge">
<title>Node9&#45;&gt;Node10</title>
<path fill="none" stroke="#63b8ff" d="M210.09,-109.75C216.86,-102.43 226.72,-91.76 235.06,-82.74"/>
<polygon fill="#63b8ff" stroke="#63b8ff" points="237.49,-85.27 241.71,-75.55 232.35,-80.52 237.49,-85.27"/>
</g>
<!-- Node11 -->
<g id="node11" class="node">
<title>Node11</title>
<g id="a_node11"><a xlink:title=" ">
<polygon fill="#e0e0e0" stroke="#999999" points="108,-74 62,-74 62,-55 108,-55 108,-74"/>
<text text-anchor="middle" x="85" y="-62" font-family="Helvetica,sans-Serif" font-size="10.00">cstdint</text>
</a>
</g>
</g>
<!-- Node9&#45;&gt;Node11 -->
<g id="edge10" class="edge">
<title>Node9&#45;&gt;Node11</title>
<path fill="none" stroke="#63b8ff" d="M182.15,-109.51C163.72,-101.16 136.02,-88.61 114.91,-79.05"/>
<polygon fill="#63b8ff" stroke="#63b8ff" points="116.49,-75.92 105.93,-74.98 113.6,-82.3 116.49,-75.92"/>
</g>
<!-- Node12 -->
<g id="node12" class="node">
<title>Node12</title>
<g id="a_node12"><a xlink:title=" ">
<polygon fill="#e0e0e0" stroke="#999999" points="380,-74 328,-74 328,-55 380,-55 380,-74"/>
<text text-anchor="middle" x="354" y="-62" font-family="Helvetica,sans-Serif" font-size="10.00">memory</text>
</a>
</g>
</g>
<!-- Node9&#45;&gt;Node12 -->
<g id="edge11" class="edge">
<title>Node9&#45;&gt;Node12</title>
<path fill="none" stroke="#63b8ff" d="M227.78,-109.51C252.43,-100.92 289.81,-87.88 317.51,-78.22"/>
<polygon fill="#63b8ff" stroke="#63b8ff" points="318.62,-81.54 326.91,-74.94 316.32,-74.93 318.62,-81.54"/>
</g>
<!-- Node13 -->
<g id="node13" class="node">
<title>Node13</title>
<g id="a_node13"><a xlink:href="../../d4/d6e/_e57_exception_8h.html" target="_top" xlink:title="Exception handling for E57 API.">
<polygon fill="white" stroke="#666666" points="212,-74 126,-74 126,-55 212,-55 212,-74"/>
<text text-anchor="middle" x="169" y="-62" font-family="Helvetica,sans-Serif" font-size="10.00">E57Exception.h</text>
</a>
</g>
</g>
<!-- Node9&#45;&gt;Node13 -->
<g id="edge13" class="edge">
<title>Node9&#45;&gt;Node13</title>
<path fill="none" stroke="#63b8ff" d="M196.55,-109.75C192.23,-102.81 186.04,-92.86 180.62,-84.16"/>
<polygon fill="#63b8ff" stroke="#63b8ff" points="183.62,-82.37 175.37,-75.73 177.68,-86.07 183.62,-82.37"/>
</g>
<!-- Node13&#45;&gt;Node7 -->
<g id="edge16" class="edge">
<title>Node13&#45;&gt;Node7</title>
<path fill="none" stroke="#63b8ff" d="M191.22,-54.51C212.52,-45.89 244.87,-32.8 268.76,-23.14"/>
<polygon fill="#63b8ff" stroke="#63b8ff" points="270.04,-26.4 278,-19.4 267.41,-19.91 270.04,-26.4"/>
</g>
<!-- Node14 -->
<g id="node14" class="node">
<title>Node14</title>
<g id="a_node14"><a xlink:title=" ">
<polygon fill="#e0e0e0" stroke="#999999" points="229.5,-19 170.5,-19 170.5,0 229.5,0 229.5,-19"/>
<text text-anchor="middle" x="200" y="-7" font-family="Helvetica,sans-Serif" font-size="10.00">exception</text>
</a>
</g>
</g>
<!-- Node13&#45;&gt;Node14 -->
<g id="edge14" class="edge">
<title>Node13&#45;&gt;Node14</title>
<path fill="none" stroke="#63b8ff" d="M174.12,-54.75C178.18,-47.81 183.99,-37.86 189.09,-29.16"/>
<polygon fill="#63b8ff" stroke="#63b8ff" points="191.98,-31.15 194.01,-20.75 185.94,-27.61 191.98,-31.15"/>
</g>
<!-- Node15 -->
<g id="node15" class="node">
<title>Node15</title>
<g id="a_node15"><a xlink:title=" ">
<polygon fill="#e0e0e0" stroke="#999999" points="397,-19 343,-19 343,0 397,0 397,-19"/>
<text text-anchor="middle" x="370" y="-7" font-family="Helvetica,sans-Serif" font-size="10.00">iostream</text>
</a>
</g>
</g>
<!-- Node13&#45;&gt;Node15 -->
<g id="edge15" class="edge">
<title>Node13&#45;&gt;Node15</title>
<path fill="none" stroke="#63b8ff" d="M203.1,-54.51C238.72,-45.11 294.51,-30.41 331.65,-20.61"/>
<polygon fill="#63b8ff" stroke="#63b8ff" points="332.29,-24.06 341.07,-18.13 330.51,-17.29 332.29,-24.06"/>
</g>
<!-- Node16 -->
<g id="node16" class="node">
<title>Node16</title>
<g id="a_node16"><a xlink:title=" ">
<polygon fill="#e0e0e0" stroke="#999999" points="152.5,-19 81.5,-19 81.5,0 152.5,0 152.5,-19"/>
<text text-anchor="middle" x="117" y="-7" font-family="Helvetica,sans-Serif" font-size="10.00">E57Export.h</text>
</a>
</g>
</g>
<!-- Node13&#45;&gt;Node16 -->
<g id="edge17" class="edge">
<title>Node13&#45;&gt;Node16</title>
<path fill="none" stroke="#63b8ff" d="M160.41,-54.75C153.16,-47.35 142.55,-36.54 133.63,-27.45"/>
<polygon fill="#63b8ff" stroke="#63b8ff" points="136.34,-25.21 126.83,-20.52 131.34,-30.11 136.34,-25.21"/>
</g>
<!-- Node17&#45;&gt;Node5 -->
<g id="edge20" class="edge">
<title>Node17&#45;&gt;Node5</title>
<path fill="none" stroke="#63b8ff" d="M328.22,-219.51C303.57,-210.92 266.19,-197.88 238.49,-188.22"/>
<polygon fill="#63b8ff" stroke="#63b8ff" points="239.68,-184.93 229.09,-184.94 237.38,-191.54 239.68,-184.93"/>
</g>
<!-- Node17&#45;&gt;Node12 -->
<g id="edge19" class="edge">
<title>Node17&#45;&gt;Node12</title>
<path fill="none" stroke="#63b8ff" d="M354,-219.74C354,-194.53 354,-121.36 354,-85.62"/>
<polygon fill="#63b8ff" stroke="#63b8ff" points="357.5,-85.82 354,-75.82 350.5,-85.82 357.5,-85.82"/>
</g>
<!-- Node18&#45;&gt;Node7 -->
<g id="edge25" class="edge">
<title>Node18&#45;&gt;Node7</title>
<path fill="none" stroke="#63b8ff" d="M420.4,-54.51C395.94,-45.57 358.31,-31.81 331.64,-22.06"/>
<polygon fill="#63b8ff" stroke="#63b8ff" points="332.96,-18.82 322.37,-18.68 330.56,-25.4 332.96,-18.82"/>
</g>
<!-- Node18&#45;&gt;Node15 -->
<g id="edge23" class="edge">
<title>Node18&#45;&gt;Node15</title>
<path fill="none" stroke="#63b8ff" d="M432.28,-54.51C421.22,-46.7 404.96,-35.21 391.83,-25.93"/>
<polygon fill="#63b8ff" stroke="#63b8ff" points="393.96,-23.14 383.77,-20.23 389.92,-28.86 393.96,-23.14"/>
</g>
<!-- Node19 -->
<g id="node19" class="node">
<title>Node19</title>
<g id="a_node19"><a xlink:title=" ">
<polygon fill="#e0e0e0" stroke="#999999" points="467,-19 417,-19 417,0 467,0 467,-19"/>
<text text-anchor="middle" x="442" y="-7" font-family="Helvetica,sans-Serif" font-size="10.00">iomanip</text>
</a>
</g>
</g>
<!-- Node18&#45;&gt;Node19 -->
<g id="edge22" class="edge">
<title>Node18&#45;&gt;Node19</title>
<path fill="none" stroke="#63b8ff" d="M444.5,-54.75C444.14,-48.27 443.62,-39.16 443.15,-30.9"/>
<polygon fill="#63b8ff" stroke="#63b8ff" points="446.65,-30.74 442.59,-20.95 439.66,-31.13 446.65,-30.74"/>
</g>
<!-- Node20 -->
<g id="node20" class="node">
<title>Node20</title>
<g id="a_node20"><a xlink:title=" ">
<polygon fill="#e0e0e0" stroke="#999999" points="537,-19 485,-19 485,0 537,0 537,-19"/>
<text text-anchor="middle" x="511" y="-7" font-family="Helvetica,sans-Serif" font-size="10.00">sstream</text>
</a>
</g>
</g>
<!-- Node18&#45;&gt;Node20 -->
<g id="edge24" class="edge">
<title>Node18&#45;&gt;Node20</title>
<path fill="none" stroke="#63b8ff" d="M456.2,-54.51C465.74,-46.85 479.67,-35.66 491.11,-26.47"/>
<polygon fill="#63b8ff" stroke="#63b8ff" points="493.18,-29.3 498.79,-20.31 488.8,-23.84 493.18,-29.3"/>
</g>
<!-- Node22 -->
<g id="node22" class="node">
<title>Node22</title>
<g id="a_node22"><a xlink:href="../../df/d7b/_node_impl_8h.html" target="_top" xlink:title=" ">
<polygon fill="white" stroke="#666666" points="292.5,-239 225.5,-239 225.5,-220 292.5,-220 292.5,-239"/>
<text text-anchor="middle" x="259" y="-227" font-family="Helvetica,sans-Serif" font-size="10.00">NodeImpl.h</text>
</a>
</g>
</g>
<!-- Node21&#45;&gt;Node22 -->
<g id="edge27" class="edge">
<title>Node21&#45;&gt;Node22</title>
<path fill="none" stroke="#63b8ff" d="M269.85,-274.75C268.24,-268.19 265.98,-258.95 263.93,-250.6"/>
<polygon fill="#63b8ff" stroke="#63b8ff" points="267.34,-249.79 261.55,-240.91 260.54,-251.46 267.34,-249.79"/>
</g>
<!-- Node22&#45;&gt;Node5 -->
<g id="edge28" class="edge">
<title>Node22&#45;&gt;Node5</title>
<path fill="none" stroke="#63b8ff" d="M249.33,-219.51C241.26,-212 229.53,-201.1 219.78,-192.03"/>
<polygon fill="#63b8ff" stroke="#63b8ff" points="222.34,-189.63 212.63,-185.39 217.57,-194.76 222.34,-189.63"/>
</g>
</g>
</svg>
