<?xml version="1.0" encoding="UTF-8" standalone="no"?>
<!DOCTYPE svg PUBLIC "-//W3C//DTD SVG 1.1//EN"
 "http://www.w3.org/Graphics/SVG/1.1/DTD/svg11.dtd">
<!-- Generated by graphviz version 7.0.0 (20221023.0053)
 -->
<!-- Title: Packet.h Pages: 1 -->
<svg width="380pt" height="247pt"
 viewBox="0.00 0.00 380.26 247.00" xmlns="http://www.w3.org/2000/svg" xmlns:xlink="http://www.w3.org/1999/xlink">
<g id="graph0" class="graph" transform="scale(1 1) rotate(0) translate(4 243)">
<title>Packet.h</title>
<!-- Node1 -->
<g id="node1" class="node">
<title>Node1</title>
<g id="a_node1"><a xlink:title=" ">
<polygon fill="#999999" stroke="#666666" points="293.5,-239 237.5,-239 237.5,-220 293.5,-220 293.5,-239"/>
<text text-anchor="middle" x="265.5" y="-227" font-family="Helvetica,sans-Serif" font-size="10.00">Packet.h</text>
</a>
</g>
</g>
<!-- Node2 -->
<g id="node2" class="node">
<title>Node2</title>
<g id="a_node2"><a xlink:title=" ">
<polygon fill="#e0e0e0" stroke="#999999" points="57.5,-74 11.5,-74 11.5,-55 57.5,-55 57.5,-74"/>
<text text-anchor="middle" x="34.5" y="-62" font-family="Helvetica,sans-Serif" font-size="10.00">cstdint</text>
</a>
</g>
</g>
<!-- Node1&#45;&gt;Node2 -->
<g id="edge1" class="edge">
<title>Node1&#45;&gt;Node2</title>
<path fill="none" stroke="#63b8ff" d="M252.75,-219.5C215.13,-192.95 104.21,-114.69 56.61,-81.1"/>
<polygon fill="#63b8ff" stroke="#63b8ff" points="58.63,-78.25 48.45,-75.34 54.6,-83.97 58.63,-78.25"/>
</g>
<!-- Node3 -->
<g id="node3" class="node">
<title>Node3</title>
<g id="a_node3"><a xlink:title=" ">
<polygon fill="#e0e0e0" stroke="#999999" points="353.5,-74 309.5,-74 309.5,-55 353.5,-55 353.5,-74"/>
<text text-anchor="middle" x="331.5" y="-62" font-family="Helvetica,sans-Serif" font-size="10.00">vector</text>
</a>
</g>
</g>
<!-- Node1&#45;&gt;Node3 -->
<g id="edge2" class="edge">
<title>Node1&#45;&gt;Node3</title>
<path fill="none" stroke="#63b8ff" d="M267.87,-219.75C271.31,-207.39 278.08,-184.19 285.5,-165 296.58,-136.36 311.96,-104.3 321.83,-84.51"/>
<polygon fill="#63b8ff" stroke="#63b8ff" points="324.87,-86.25 326.24,-75.74 318.62,-83.1 324.87,-86.25"/>
</g>
<!-- Node4 -->
<g id="node4" class="node">
<title>Node4</title>
<g id="a_node4"><a xlink:href="../../db/d1f/_common_8h.html" target="_top" xlink:title=" ">
<polygon fill="white" stroke="#666666" points="359,-184 294,-184 294,-165 359,-165 359,-184"/>
<text text-anchor="middle" x="326.5" y="-172" font-family="Helvetica,sans-Serif" font-size="10.00">Common.h</text>
</a>
</g>
</g>
<!-- Node1&#45;&gt;Node4 -->
<g id="edge3" class="edge">
<title>Node1&#45;&gt;Node4</title>
<path fill="none" stroke="#63b8ff" d="M275.85,-219.51C284.58,-211.93 297.29,-200.88 307.8,-191.75"/>
<polygon fill="#63b8ff" stroke="#63b8ff" points="309.91,-194.55 315.16,-185.35 305.32,-189.27 309.91,-194.55"/>
</g>
<!-- Node4&#45;&gt;Node3 -->
<g id="edge6" class="edge">
<title>Node4&#45;&gt;Node3</title>
<path fill="none" stroke="#63b8ff" d="M325.07,-164.86C323.24,-152.62 320.54,-129.56 322.5,-110 323.31,-101.86 324.95,-93.01 326.6,-85.36"/>
<polygon fill="#63b8ff" stroke="#63b8ff" points="329.98,-86.29 328.84,-75.76 323.16,-84.7 329.98,-86.29"/>
</g>
<!-- Node5 -->
<g id="node5" class="node">
<title>Node5</title>
<g id="a_node5"><a xlink:title=" ">
<polygon fill="#e0e0e0" stroke="#999999" points="361.5,-129 331.5,-129 331.5,-110 361.5,-110 361.5,-129"/>
<text text-anchor="middle" x="346.5" y="-117" font-family="Helvetica,sans-Serif" font-size="10.00">set</text>
</a>
</g>
</g>
<!-- Node4&#45;&gt;Node5 -->
<g id="edge4" class="edge">
<title>Node4&#45;&gt;Node5</title>
<path fill="none" stroke="#63b8ff" d="M329.8,-164.75C332.33,-158.04 335.93,-148.52 339.13,-140.02"/>
<polygon fill="#63b8ff" stroke="#63b8ff" points="342.34,-141.45 342.59,-130.86 335.79,-138.98 342.34,-141.45"/>
</g>
<!-- Node6 -->
<g id="node6" class="node">
<title>Node6</title>
<g id="a_node6"><a xlink:title=" ">
<polygon fill="#e0e0e0" stroke="#999999" points="345,-19 304,-19 304,0 345,0 345,-19"/>
<text text-anchor="middle" x="324.5" y="-7" font-family="Helvetica,sans-Serif" font-size="10.00">string</text>
</a>
</g>
</g>
<!-- Node4&#45;&gt;Node6 -->
<g id="edge5" class="edge">
<title>Node4&#45;&gt;Node6</title>
<path fill="none" stroke="#63b8ff" d="M339.7,-164.68C350.26,-156.76 364.31,-144.07 370.5,-129 373.71,-121.19 371.11,-118.42 370.5,-110 368.72,-85.36 372.7,-77.5 362.5,-55 357.86,-44.76 350.13,-35.05 342.84,-27.34"/>
<polygon fill="#63b8ff" stroke="#63b8ff" points="345.35,-24.9 335.79,-20.34 340.43,-29.87 345.35,-24.9"/>
</g>
<!-- Node7 -->
<g id="node7" class="node">
<title>Node7</title>
<g id="a_node7"><a xlink:href="../../d1/df2/_e57_format_8h.html" target="_top" xlink:title="Header file for the E57 API.">
<polygon fill="white" stroke="#666666" points="237,-129 164,-129 164,-110 237,-110 237,-129"/>
<text text-anchor="middle" x="200.5" y="-117" font-family="Helvetica,sans-Serif" font-size="10.00">E57Format.h</text>
</a>
</g>
</g>
<!-- Node4&#45;&gt;Node7 -->
<g id="edge7" class="edge">
<title>Node4&#45;&gt;Node7</title>
<path fill="none" stroke="#63b8ff" d="M305.13,-164.51C285.09,-156.08 254.9,-143.38 232.09,-133.79"/>
<polygon fill="#63b8ff" stroke="#63b8ff" points="233.53,-130.6 222.95,-129.94 230.81,-137.05 233.53,-130.6"/>
</g>
<!-- Node7&#45;&gt;Node2 -->
<g id="edge9" class="edge">
<title>Node7&#45;&gt;Node2</title>
<path fill="none" stroke="#63b8ff" d="M172.34,-109.51C143.67,-100.36 99.2,-86.16 68.57,-76.38"/>
<polygon fill="#63b8ff" stroke="#63b8ff" points="69.99,-73.16 59.4,-73.45 67.86,-79.83 69.99,-73.16"/>
</g>
<!-- Node7&#45;&gt;Node3 -->
<g id="edge11" class="edge">
<title>Node7&#45;&gt;Node3</title>
<path fill="none" stroke="#63b8ff" d="M222.72,-109.51C243.64,-101.04 275.23,-88.27 298.98,-78.66"/>
<polygon fill="#63b8ff" stroke="#63b8ff" points="300.25,-81.92 308.2,-74.93 297.62,-75.43 300.25,-81.92"/>
</g>
<!-- Node8 -->
<g id="node8" class="node">
<title>Node8</title>
<g id="a_node8"><a xlink:title=" ">
<polygon fill="#e0e0e0" stroke="#999999" points="221,-74 180,-74 180,-55 221,-55 221,-74"/>
<text text-anchor="middle" x="200.5" y="-62" font-family="Helvetica,sans-Serif" font-size="10.00">cfloat</text>
</a>
</g>
</g>
<!-- Node7&#45;&gt;Node8 -->
<g id="edge8" class="edge">
<title>Node7&#45;&gt;Node8</title>
<path fill="none" stroke="#63b8ff" d="M200.5,-109.75C200.5,-103.27 200.5,-94.16 200.5,-85.9"/>
<polygon fill="#63b8ff" stroke="#63b8ff" points="204,-85.96 200.5,-75.96 197,-85.96 204,-85.96"/>
</g>
<!-- Node9 -->
<g id="node9" class="node">
<title>Node9</title>
<g id="a_node9"><a xlink:title=" ">
<polygon fill="#e0e0e0" stroke="#999999" points="291.5,-74 239.5,-74 239.5,-55 291.5,-55 291.5,-74"/>
<text text-anchor="middle" x="265.5" y="-62" font-family="Helvetica,sans-Serif" font-size="10.00">memory</text>
</a>
</g>
</g>
<!-- Node7&#45;&gt;Node9 -->
<g id="edge10" class="edge">
<title>Node7&#45;&gt;Node9</title>
<path fill="none" stroke="#63b8ff" d="M211.53,-109.51C220.92,-101.85 234.65,-90.66 245.91,-81.47"/>
<polygon fill="#63b8ff" stroke="#63b8ff" points="247.93,-84.35 253.46,-75.31 243.5,-78.92 247.93,-84.35"/>
</g>
<!-- Node10 -->
<g id="node10" class="node">
<title>Node10</title>
<g id="a_node10"><a xlink:href="../../d4/d6e/_e57_exception_8h.html" target="_top" xlink:title="Exception handling for E57 API.">
<polygon fill="white" stroke="#666666" points="161.5,-74 75.5,-74 75.5,-55 161.5,-55 161.5,-74"/>
<text text-anchor="middle" x="118.5" y="-62" font-family="Helvetica,sans-Serif" font-size="10.00">E57Exception.h</text>
</a>
</g>
</g>
<!-- Node7&#45;&gt;Node10 -->
<g id="edge12" class="edge">
<title>Node7&#45;&gt;Node10</title>
<path fill="none" stroke="#63b8ff" d="M186.59,-109.51C174.26,-101.54 156.03,-89.75 141.53,-80.38"/>
<polygon fill="#63b8ff" stroke="#63b8ff" points="143.77,-77.67 133.48,-75.18 139.97,-83.55 143.77,-77.67"/>
</g>
<!-- Node10&#45;&gt;Node6 -->
<g id="edge15" class="edge">
<title>Node10&#45;&gt;Node6</title>
<path fill="none" stroke="#63b8ff" d="M153.45,-54.51C192.46,-44.47 255.04,-28.37 292.72,-18.68"/>
<polygon fill="#63b8ff" stroke="#63b8ff" points="293.28,-22.15 302.09,-16.26 291.54,-15.37 293.28,-22.15"/>
</g>
<!-- Node11 -->
<g id="node11" class="node">
<title>Node11</title>
<g id="a_node11"><a xlink:title=" ">
<polygon fill="#e0e0e0" stroke="#999999" points="148,-19 89,-19 89,0 148,0 148,-19"/>
<text text-anchor="middle" x="118.5" y="-7" font-family="Helvetica,sans-Serif" font-size="10.00">exception</text>
</a>
</g>
</g>
<!-- Node10&#45;&gt;Node11 -->
<g id="edge13" class="edge">
<title>Node10&#45;&gt;Node11</title>
<path fill="none" stroke="#63b8ff" d="M118.5,-54.75C118.5,-48.27 118.5,-39.16 118.5,-30.9"/>
<polygon fill="#63b8ff" stroke="#63b8ff" points="122,-30.96 118.5,-20.96 115,-30.96 122,-30.96"/>
</g>
<!-- Node12 -->
<g id="node12" class="node">
<title>Node12</title>
<g id="a_node12"><a xlink:title=" ">
<polygon fill="#e0e0e0" stroke="#999999" points="220.5,-19 166.5,-19 166.5,0 220.5,0 220.5,-19"/>
<text text-anchor="middle" x="193.5" y="-7" font-family="Helvetica,sans-Serif" font-size="10.00">iostream</text>
</a>
</g>
</g>
<!-- Node10&#45;&gt;Node12 -->
<g id="edge14" class="edge">
<title>Node10&#45;&gt;Node12</title>
<path fill="none" stroke="#63b8ff" d="M131.22,-54.51C142.28,-46.7 158.54,-35.21 171.67,-25.93"/>
<polygon fill="#63b8ff" stroke="#63b8ff" points="173.58,-28.86 179.73,-20.23 169.54,-23.14 173.58,-28.86"/>
</g>
<!-- Node13 -->
<g id="node13" class="node">
<title>Node13</title>
<g id="a_node13"><a xlink:title=" ">
<polygon fill="#e0e0e0" stroke="#999999" points="71,-19 0,-19 0,0 71,0 71,-19"/>
<text text-anchor="middle" x="35.5" y="-7" font-family="Helvetica,sans-Serif" font-size="10.00">E57Export.h</text>
</a>
</g>
</g>
<!-- Node10&#45;&gt;Node13 -->
<g id="edge16" class="edge">
<title>Node10&#45;&gt;Node13</title>
<path fill="none" stroke="#63b8ff" d="M104.42,-54.51C91.94,-46.54 73.48,-34.75 58.81,-25.38"/>
<polygon fill="#63b8ff" stroke="#63b8ff" points="60.96,-22.6 50.65,-20.17 57.19,-28.5 60.96,-22.6"/>
</g>
</g>
</svg>
