<?xml version="1.0" encoding="UTF-8" standalone="no"?>
<!DOCTYPE svg PUBLIC "-//W3C//DTD SVG 1.1//EN"
 "http://www.w3.org/Graphics/SVG/1.1/DTD/svg11.dtd">
<!-- Generated by graphviz version 2.49.0 (20210828.1703)
 -->
<!-- Title: BlobNodeImpl.cpp Pages: 1 -->
<svg width="433pt" height="364pt"
 viewBox="0.00 0.00 432.51 364.00" xmlns="http://www.w3.org/2000/svg" xmlns:xlink="http://www.w3.org/1999/xlink">
<g id="graph0" class="graph" transform="scale(1 1) rotate(0) translate(4 360)">
<title>BlobNodeImpl.cpp</title>
<polygon fill="white" stroke="transparent" points="-4,4 -4,-360 428.51,-360 428.51,4 -4,4"/>
<!-- Node1 -->
<g id="node1" class="node">
<title>Node1</title>
<g id="a_node1"><a xlink:title=" ">
<polygon fill="#bfbfbf" stroke="black" points="196.01,-336.5 196.01,-355.5 294.01,-355.5 294.01,-336.5 196.01,-336.5"/>
<text text-anchor="middle" x="245.01" y="-343.5" font-family="Helvetica,sans-Serif" font-size="10.00">BlobNodeImpl.cpp</text>
</a>
</g>
</g>
<!-- Node2 -->
<g id="node2" class="node">
<title>Node2</title>
<g id="a_node2"><a xlink:href="../../d7/d0c/_blob_node_impl_8h.html" target="_top" xlink:title=" ">
<polygon fill="white" stroke="black" points="46.01,-280.5 46.01,-299.5 134.01,-299.5 134.01,-280.5 46.01,-280.5"/>
<text text-anchor="middle" x="90.01" y="-287.5" font-family="Helvetica,sans-Serif" font-size="10.00">BlobNodeImpl.h</text>
</a>
</g>
</g>
<!-- Node1&#45;&gt;Node2 -->
<g id="edge1" class="edge">
<title>Node1&#45;&gt;Node2</title>
<path fill="none" stroke="midnightblue" d="M220.45,-336.44C194.49,-327.4 153.34,-313.06 124.21,-302.92"/>
<polygon fill="midnightblue" stroke="midnightblue" points="125.05,-299.5 114.45,-299.52 122.74,-306.11 125.05,-299.5"/>
</g>
<!-- Node17 -->
<g id="node17" class="node">
<title>Node17</title>
<g id="a_node17"><a xlink:href="../../dd/d41/_checked_file_8h.html" target="_top" xlink:title=" ">
<polygon fill="white" stroke="black" points="152.01,-280.5 152.01,-299.5 232.01,-299.5 232.01,-280.5 152.01,-280.5"/>
<text text-anchor="middle" x="192.01" y="-287.5" font-family="Helvetica,sans-Serif" font-size="10.00">CheckedFile.h</text>
</a>
</g>
</g>
<!-- Node1&#45;&gt;Node17 -->
<g id="edge19" class="edge">
<title>Node1&#45;&gt;Node17</title>
<path fill="none" stroke="midnightblue" d="M236.26,-336.08C228.54,-328.22 217.1,-316.57 207.79,-307.08"/>
<polygon fill="midnightblue" stroke="midnightblue" points="210.1,-304.44 200.6,-299.75 205.1,-309.34 210.1,-304.44"/>
</g>
<!-- Node19 -->
<g id="node19" class="node">
<title>Node19</title>
<g id="a_node19"><a xlink:href="../../da/d09/_image_file_impl_8h.html" target="_top" xlink:title=" ">
<polygon fill="white" stroke="black" points="330.01,-224.5 330.01,-243.5 418.01,-243.5 418.01,-224.5 330.01,-224.5"/>
<text text-anchor="middle" x="374.01" y="-231.5" font-family="Helvetica,sans-Serif" font-size="10.00">ImageFileImpl.h</text>
</a>
</g>
</g>
<!-- Node1&#45;&gt;Node19 -->
<g id="edge22" class="edge">
<title>Node1&#45;&gt;Node19</title>
<path fill="none" stroke="midnightblue" d="M289.47,-336.45C311.96,-329.98 338.02,-318.85 355.01,-300 366.43,-287.32 371.01,-268.12 372.83,-253.87"/>
<polygon fill="midnightblue" stroke="midnightblue" points="376.34,-254 373.78,-243.72 369.37,-253.35 376.34,-254"/>
</g>
<!-- Node20 -->
<g id="node20" class="node">
<title>Node20</title>
<g id="a_node20"><a xlink:href="../../d9/d64/_section_headers_8h.html" target="_top" xlink:title=" ">
<polygon fill="white" stroke="black" points="250.01,-280.5 250.01,-299.5 346.01,-299.5 346.01,-280.5 250.01,-280.5"/>
<text text-anchor="middle" x="298.01" y="-287.5" font-family="Helvetica,sans-Serif" font-size="10.00">SectionHeaders.h</text>
</a>
</g>
</g>
<!-- Node1&#45;&gt;Node20 -->
<g id="edge25" class="edge">
<title>Node1&#45;&gt;Node20</title>
<path fill="none" stroke="midnightblue" d="M253.76,-336.08C261.48,-328.22 272.91,-316.57 282.22,-307.08"/>
<polygon fill="midnightblue" stroke="midnightblue" points="284.91,-309.34 289.42,-299.75 279.92,-304.44 284.91,-309.34"/>
</g>
<!-- Node3 -->
<g id="node3" class="node">
<title>Node3</title>
<g id="a_node3"><a xlink:href="../../df/d7b/_node_impl_8h.html" target="_top" xlink:title=" ">
<polygon fill="white" stroke="black" points="72.01,-224.5 72.01,-243.5 140.01,-243.5 140.01,-224.5 72.01,-224.5"/>
<text text-anchor="middle" x="106.01" y="-231.5" font-family="Helvetica,sans-Serif" font-size="10.00">NodeImpl.h</text>
</a>
</g>
</g>
<!-- Node2&#45;&gt;Node3 -->
<g id="edge2" class="edge">
<title>Node2&#45;&gt;Node3</title>
<path fill="none" stroke="midnightblue" d="M92.65,-280.08C94.79,-272.85 97.89,-262.41 100.56,-253.4"/>
<polygon fill="midnightblue" stroke="midnightblue" points="103.93,-254.33 103.41,-243.75 97.22,-252.34 103.93,-254.33"/>
</g>
<!-- Node4 -->
<g id="node4" class="node">
<title>Node4</title>
<g id="a_node4"><a xlink:href="../../db/d1f/_common_8h.html" target="_top" xlink:title=" ">
<polygon fill="white" stroke="black" points="143.51,-168.5 143.51,-187.5 208.51,-187.5 208.51,-168.5 143.51,-168.5"/>
<text text-anchor="middle" x="176.01" y="-175.5" font-family="Helvetica,sans-Serif" font-size="10.00">Common.h</text>
</a>
</g>
</g>
<!-- Node3&#45;&gt;Node4 -->
<g id="edge3" class="edge">
<title>Node3&#45;&gt;Node4</title>
<path fill="none" stroke="midnightblue" d="M117.25,-224.32C127.81,-216.18 143.81,-203.84 156.45,-194.09"/>
<polygon fill="midnightblue" stroke="midnightblue" points="158.78,-196.71 164.56,-187.83 154.5,-191.17 158.78,-196.71"/>
</g>
<!-- Node5 -->
<g id="node5" class="node">
<title>Node5</title>
<g id="a_node5"><a xlink:title=" ">
<polygon fill="white" stroke="#bfbfbf" points="263.01,-112.5 263.01,-131.5 315.01,-131.5 315.01,-112.5 263.01,-112.5"/>
<text text-anchor="middle" x="289.01" y="-119.5" font-family="Helvetica,sans-Serif" font-size="10.00">iomanip</text>
</a>
</g>
</g>
<!-- Node4&#45;&gt;Node5 -->
<g id="edge4" class="edge">
<title>Node4&#45;&gt;Node5</title>
<path fill="none" stroke="midnightblue" d="M193.91,-168.44C212.26,-159.68 241.01,-145.94 262.1,-135.86"/>
<polygon fill="midnightblue" stroke="midnightblue" points="263.67,-138.99 271.19,-131.52 260.65,-132.67 263.67,-138.99"/>
</g>
<!-- Node6 -->
<g id="node6" class="node">
<title>Node6</title>
<g id="a_node6"><a xlink:title=" ">
<polygon fill="white" stroke="#bfbfbf" points="291.51,-0.5 291.51,-19.5 346.51,-19.5 346.51,-0.5 291.51,-0.5"/>
<text text-anchor="middle" x="319.01" y="-7.5" font-family="Helvetica,sans-Serif" font-size="10.00">iostream</text>
</a>
</g>
</g>
<!-- Node4&#45;&gt;Node6 -->
<g id="edge5" class="edge">
<title>Node4&#45;&gt;Node6</title>
<path fill="none" stroke="midnightblue" d="M208.81,-177.48C243.77,-176 297.62,-167.6 324.01,-132 346.35,-101.85 335.11,-54.92 326.25,-29.26"/>
<polygon fill="midnightblue" stroke="midnightblue" points="329.46,-27.85 322.7,-19.68 322.89,-30.28 329.46,-27.85"/>
</g>
<!-- Node7 -->
<g id="node7" class="node">
<title>Node7</title>
<g id="a_node7"><a xlink:title=" ">
<polygon fill="white" stroke="#bfbfbf" points="145.01,-112.5 145.01,-131.5 175.01,-131.5 175.01,-112.5 145.01,-112.5"/>
<text text-anchor="middle" x="160.01" y="-119.5" font-family="Helvetica,sans-Serif" font-size="10.00">set</text>
</a>
</g>
</g>
<!-- Node4&#45;&gt;Node7 -->
<g id="edge6" class="edge">
<title>Node4&#45;&gt;Node7</title>
<path fill="none" stroke="midnightblue" d="M173.37,-168.08C171.22,-160.85 168.13,-150.41 165.46,-141.4"/>
<polygon fill="midnightblue" stroke="midnightblue" points="168.8,-140.34 162.6,-131.75 162.09,-142.33 168.8,-140.34"/>
</g>
<!-- Node8 -->
<g id="node8" class="node">
<title>Node8</title>
<g id="a_node8"><a xlink:title=" ">
<polygon fill="white" stroke="#bfbfbf" points="193.01,-112.5 193.01,-131.5 245.01,-131.5 245.01,-112.5 193.01,-112.5"/>
<text text-anchor="middle" x="219.01" y="-119.5" font-family="Helvetica,sans-Serif" font-size="10.00">sstream</text>
</a>
</g>
</g>
<!-- Node4&#45;&gt;Node8 -->
<g id="edge7" class="edge">
<title>Node4&#45;&gt;Node8</title>
<path fill="none" stroke="midnightblue" d="M183.11,-168.08C189.24,-160.38 198.28,-149.03 205.75,-139.65"/>
<polygon fill="midnightblue" stroke="midnightblue" points="208.55,-141.75 212.04,-131.75 203.07,-137.39 208.55,-141.75"/>
</g>
<!-- Node9 -->
<g id="node9" class="node">
<title>Node9</title>
<g id="a_node9"><a xlink:title=" ">
<polygon fill="white" stroke="#bfbfbf" points="4.51,-0.5 4.51,-19.5 45.51,-19.5 45.51,-0.5 4.51,-0.5"/>
<text text-anchor="middle" x="25.01" y="-7.5" font-family="Helvetica,sans-Serif" font-size="10.00">string</text>
</a>
</g>
</g>
<!-- Node4&#45;&gt;Node9 -->
<g id="edge8" class="edge">
<title>Node4&#45;&gt;Node9</title>
<path fill="none" stroke="midnightblue" d="M143.39,-174.24C111.45,-169.98 63.05,-159.21 31.01,-132 3.57,-108.7 -5.11,-91.07 3.01,-56 5.24,-46.36 9.83,-36.41 14.24,-28.31"/>
<polygon fill="midnightblue" stroke="midnightblue" points="17.36,-29.92 19.37,-19.52 11.31,-26.4 17.36,-29.92"/>
</g>
<!-- Node10 -->
<g id="node10" class="node">
<title>Node10</title>
<g id="a_node10"><a xlink:title=" ">
<polygon fill="white" stroke="#bfbfbf" points="12.01,-56.5 12.01,-75.5 56.01,-75.5 56.01,-56.5 12.01,-56.5"/>
<text text-anchor="middle" x="34.01" y="-63.5" font-family="Helvetica,sans-Serif" font-size="10.00">vector</text>
</a>
</g>
</g>
<!-- Node4&#45;&gt;Node10 -->
<g id="edge9" class="edge">
<title>Node4&#45;&gt;Node10</title>
<path fill="none" stroke="midnightblue" d="M143.3,-175.12C112.82,-171.53 68.5,-161.23 44.01,-132 33.36,-119.29 31.57,-100.09 32.02,-85.85"/>
<polygon fill="midnightblue" stroke="midnightblue" points="35.52,-85.93 32.73,-75.71 28.54,-85.44 35.52,-85.93"/>
</g>
<!-- Node11 -->
<g id="node11" class="node">
<title>Node11</title>
<g id="a_node11"><a xlink:href="../../d1/df2/_e57_format_8h.html" target="_top" xlink:title="header file for the E57 API">
<polygon fill="white" stroke="black" points="53.01,-112.5 53.01,-131.5 127.01,-131.5 127.01,-112.5 53.01,-112.5"/>
<text text-anchor="middle" x="90.01" y="-119.5" font-family="Helvetica,sans-Serif" font-size="10.00">E57Format.h</text>
</a>
</g>
</g>
<!-- Node4&#45;&gt;Node11 -->
<g id="edge10" class="edge">
<title>Node4&#45;&gt;Node11</title>
<path fill="none" stroke="midnightblue" d="M162.19,-168.32C148.77,-159.9 128.18,-146.97 112.42,-137.07"/>
<polygon fill="midnightblue" stroke="midnightblue" points="114.12,-134.01 103.79,-131.65 110.4,-139.94 114.12,-134.01"/>
</g>
<!-- Node11&#45;&gt;Node10 -->
<g id="edge13" class="edge">
<title>Node11&#45;&gt;Node10</title>
<path fill="none" stroke="midnightblue" d="M81.01,-112.32C72.81,-104.42 60.5,-92.55 50.54,-82.94"/>
<polygon fill="midnightblue" stroke="midnightblue" points="52.8,-80.26 43.17,-75.83 47.94,-85.29 52.8,-80.26"/>
</g>
<!-- Node12 -->
<g id="node12" class="node">
<title>Node12</title>
<g id="a_node12"><a xlink:title=" ">
<polygon fill="white" stroke="#bfbfbf" points="74.01,-56.5 74.01,-75.5 114.01,-75.5 114.01,-56.5 74.01,-56.5"/>
<text text-anchor="middle" x="94.01" y="-63.5" font-family="Helvetica,sans-Serif" font-size="10.00">cfloat</text>
</a>
</g>
</g>
<!-- Node11&#45;&gt;Node12 -->
<g id="edge11" class="edge">
<title>Node11&#45;&gt;Node12</title>
<path fill="none" stroke="midnightblue" d="M90.67,-112.08C91.19,-105.01 91.94,-94.86 92.6,-85.99"/>
<polygon fill="midnightblue" stroke="midnightblue" points="96.11,-85.98 93.36,-75.75 89.13,-85.47 96.11,-85.98"/>
</g>
<!-- Node13 -->
<g id="node13" class="node">
<title>Node13</title>
<g id="a_node13"><a xlink:title=" ">
<polygon fill="white" stroke="#bfbfbf" points="371.51,-56.5 371.51,-75.5 424.51,-75.5 424.51,-56.5 371.51,-56.5"/>
<text text-anchor="middle" x="398.01" y="-63.5" font-family="Helvetica,sans-Serif" font-size="10.00">memory</text>
</a>
</g>
</g>
<!-- Node11&#45;&gt;Node13 -->
<g id="edge12" class="edge">
<title>Node11&#45;&gt;Node13</title>
<path fill="none" stroke="midnightblue" d="M127.15,-113.66C130.15,-113.09 133.13,-112.53 136.01,-112 216.1,-97.29 310.25,-81.48 361.04,-73.07"/>
<polygon fill="midnightblue" stroke="midnightblue" points="361.9,-76.48 371.19,-71.4 360.76,-69.57 361.9,-76.48"/>
</g>
<!-- Node14 -->
<g id="node14" class="node">
<title>Node14</title>
<g id="a_node14"><a xlink:href="../../d4/d6e/_e57_exception_8h.html" target="_top" xlink:title=" ">
<polygon fill="white" stroke="black" points="132.51,-56.5 132.51,-75.5 219.51,-75.5 219.51,-56.5 132.51,-56.5"/>
<text text-anchor="middle" x="176.01" y="-63.5" font-family="Helvetica,sans-Serif" font-size="10.00">E57Exception.h</text>
</a>
</g>
</g>
<!-- Node11&#45;&gt;Node14 -->
<g id="edge14" class="edge">
<title>Node11&#45;&gt;Node14</title>
<path fill="none" stroke="midnightblue" d="M103.83,-112.32C117.24,-103.9 137.83,-90.97 153.59,-81.07"/>
<polygon fill="midnightblue" stroke="midnightblue" points="155.62,-83.94 162.22,-75.65 151.89,-78.01 155.62,-83.94"/>
</g>
<!-- Node14&#45;&gt;Node6 -->
<g id="edge16" class="edge">
<title>Node14&#45;&gt;Node6</title>
<path fill="none" stroke="midnightblue" d="M198.67,-56.44C222.41,-47.48 259.92,-33.31 286.75,-23.18"/>
<polygon fill="midnightblue" stroke="midnightblue" points="288.34,-26.32 296.45,-19.52 285.86,-19.77 288.34,-26.32"/>
</g>
<!-- Node14&#45;&gt;Node9 -->
<g id="edge17" class="edge">
<title>Node14&#45;&gt;Node9</title>
<path fill="none" stroke="midnightblue" d="M152.08,-56.44C125.9,-47.08 83.86,-32.05 55.37,-21.86"/>
<polygon fill="midnightblue" stroke="midnightblue" points="56.5,-18.54 45.9,-18.47 54.14,-25.14 56.5,-18.54"/>
</g>
<!-- Node15 -->
<g id="node15" class="node">
<title>Node15</title>
<g id="a_node15"><a xlink:title=" ">
<polygon fill="white" stroke="#bfbfbf" points="170.51,-0.5 170.51,-19.5 229.51,-19.5 229.51,-0.5 170.51,-0.5"/>
<text text-anchor="middle" x="200.01" y="-7.5" font-family="Helvetica,sans-Serif" font-size="10.00">exception</text>
</a>
</g>
</g>
<!-- Node14&#45;&gt;Node15 -->
<g id="edge15" class="edge">
<title>Node14&#45;&gt;Node15</title>
<path fill="none" stroke="midnightblue" d="M179.97,-56.08C183.22,-48.77 187.93,-38.18 191.96,-29.1"/>
<polygon fill="midnightblue" stroke="midnightblue" points="195.26,-30.31 196.12,-19.75 188.86,-27.47 195.26,-30.31"/>
</g>
<!-- Node16 -->
<g id="node16" class="node">
<title>Node16</title>
<g id="a_node16"><a xlink:title=" ">
<polygon fill="white" stroke="#bfbfbf" points="80.01,-0.5 80.01,-19.5 152.01,-19.5 152.01,-0.5 80.01,-0.5"/>
<text text-anchor="middle" x="116.01" y="-7.5" font-family="Helvetica,sans-Serif" font-size="10.00">E57Export.h</text>
</a>
</g>
</g>
<!-- Node14&#45;&gt;Node16 -->
<g id="edge18" class="edge">
<title>Node14&#45;&gt;Node16</title>
<path fill="none" stroke="midnightblue" d="M166.37,-56.32C157.5,-48.34 144.13,-36.31 133.4,-26.65"/>
<polygon fill="midnightblue" stroke="midnightblue" points="135.6,-23.92 125.82,-19.83 130.91,-29.13 135.6,-23.92"/>
</g>
<!-- Node17&#45;&gt;Node4 -->
<g id="edge21" class="edge">
<title>Node17&#45;&gt;Node4</title>
<path fill="none" stroke="midnightblue" d="M190.75,-280.37C188.17,-262.62 182.21,-221.67 178.71,-197.6"/>
<polygon fill="midnightblue" stroke="midnightblue" points="182.16,-196.98 177.26,-187.59 175.23,-197.99 182.16,-196.98"/>
</g>
<!-- Node18 -->
<g id="node18" class="node">
<title>Node18</title>
<g id="a_node18"><a xlink:title=" ">
<polygon fill="white" stroke="#bfbfbf" points="204.01,-224.5 204.01,-243.5 262.01,-243.5 262.01,-224.5 204.01,-224.5"/>
<text text-anchor="middle" x="233.01" y="-231.5" font-family="Helvetica,sans-Serif" font-size="10.00">algorithm</text>
</a>
</g>
</g>
<!-- Node17&#45;&gt;Node18 -->
<g id="edge20" class="edge">
<title>Node17&#45;&gt;Node18</title>
<path fill="none" stroke="midnightblue" d="M198.78,-280.08C204.57,-272.46 213.07,-261.26 220.15,-251.94"/>
<polygon fill="midnightblue" stroke="midnightblue" points="223.1,-253.83 226.36,-243.75 217.53,-249.6 223.1,-253.83"/>
</g>
<!-- Node19&#45;&gt;Node4 -->
<g id="edge24" class="edge">
<title>Node19&#45;&gt;Node4</title>
<path fill="none" stroke="midnightblue" d="M342.63,-224.44C308.75,-215.2 254.6,-200.44 217.28,-190.26"/>
<polygon fill="midnightblue" stroke="midnightblue" points="217.8,-186.77 207.23,-187.52 215.96,-193.52 217.8,-186.77"/>
</g>
<!-- Node19&#45;&gt;Node13 -->
<g id="edge23" class="edge">
<title>Node19&#45;&gt;Node13</title>
<path fill="none" stroke="midnightblue" d="M375.3,-224.08C379.08,-197.95 390.17,-121.21 395.32,-85.58"/>
<polygon fill="midnightblue" stroke="midnightblue" points="398.8,-85.97 396.77,-75.57 391.87,-84.96 398.8,-85.97"/>
</g>
<!-- Node20&#45;&gt;Node4 -->
<g id="edge26" class="edge">
<title>Node20&#45;&gt;Node4</title>
<path fill="none" stroke="midnightblue" d="M296.48,-280.33C293.68,-266.74 286.51,-240.28 271.01,-224 256.5,-208.77 235.79,-198.13 217.41,-191.03"/>
<polygon fill="midnightblue" stroke="midnightblue" points="218.37,-187.66 207.78,-187.55 215.99,-194.24 218.37,-187.66"/>
</g>
</g>
</svg>
