<?xml version="1.0" encoding="UTF-8" standalone="no"?>
<!DOCTYPE svg PUBLIC "-//W3C//DTD SVG 1.1//EN"
 "http://www.w3.org/Graphics/SVG/1.1/DTD/svg11.dtd">
<!-- Generated by graphviz version 7.0.0 (20221023.0053)
 -->
<!-- Title: StringNode.cpp Pages: 1 -->
<svg width="547pt" height="357pt"
 viewBox="0.00 0.00 547.00 357.00" xmlns="http://www.w3.org/2000/svg" xmlns:xlink="http://www.w3.org/1999/xlink">
<g id="graph0" class="graph" transform="scale(1 1) rotate(0) translate(4 353)">
<title>StringNode.cpp</title>
<!-- Node1 -->
<g id="node1" class="node">
<title>Node1</title>
<g id="a_node1"><a xlink:title=" ">
<polygon fill="#999999" stroke="#666666" points="250,-349 166,-349 166,-330 250,-330 250,-349"/>
<text text-anchor="middle" x="208" y="-337" font-family="Helvetica,sans-Serif" font-size="10.00">StringNode.cpp</text>
</a>
</g>
</g>
<!-- Node2 -->
<g id="node2" class="node">
<title>Node2</title>
<g id="a_node2"><a xlink:href="../../db/d42/_string_functions_8h.html" target="_top" xlink:title=" ">
<polygon fill="white" stroke="#666666" points="140.5,-74 47.5,-74 47.5,-55 140.5,-55 140.5,-74"/>
<text text-anchor="middle" x="94" y="-62" font-family="Helvetica,sans-Serif" font-size="10.00">StringFunctions.h</text>
</a>
</g>
</g>
<!-- Node1&#45;&gt;Node2 -->
<g id="edge1" class="edge">
<title>Node1&#45;&gt;Node2</title>
<path fill="none" stroke="#63b8ff" d="M191.45,-329.63C164.23,-313.69 113,-277.45 113,-230.5 113,-230.5 113,-230.5 113,-173.5 113,-142.31 105.22,-106.8 99.61,-85.28"/>
<polygon fill="#63b8ff" stroke="#63b8ff" points="103.04,-84.56 97.04,-75.83 96.29,-86.4 103.04,-84.56"/>
</g>
<!-- Node7 -->
<g id="node7" class="node">
<title>Node7</title>
<g id="a_node7"><a xlink:href="../../d6/d64/_string_node_impl_8h.html" target="_top" xlink:title=" ">
<polygon fill="white" stroke="#666666" points="314,-294 222,-294 222,-275 314,-275 314,-294"/>
<text text-anchor="middle" x="268" y="-282" font-family="Helvetica,sans-Serif" font-size="10.00">StringNodeImpl.h</text>
</a>
</g>
</g>
<!-- Node1&#45;&gt;Node7 -->
<g id="edge6" class="edge">
<title>Node1&#45;&gt;Node7</title>
<path fill="none" stroke="#63b8ff" d="M218.18,-329.51C226.76,-321.93 239.27,-310.88 249.6,-301.75"/>
<polygon fill="#63b8ff" stroke="#63b8ff" points="251.66,-304.6 256.84,-295.36 247.03,-299.36 251.66,-304.6"/>
</g>
<!-- Node3 -->
<g id="node3" class="node">
<title>Node3</title>
<g id="a_node3"><a xlink:title=" ">
<polygon fill="#e0e0e0" stroke="#999999" points="50,-19 0,-19 0,0 50,0 50,-19"/>
<text text-anchor="middle" x="25" y="-7" font-family="Helvetica,sans-Serif" font-size="10.00">iomanip</text>
</a>
</g>
</g>
<!-- Node2&#45;&gt;Node3 -->
<g id="edge2" class="edge">
<title>Node2&#45;&gt;Node3</title>
<path fill="none" stroke="#63b8ff" d="M82.3,-54.51C72.22,-46.77 57.46,-35.43 45.44,-26.2"/>
<polygon fill="#63b8ff" stroke="#63b8ff" points="47.79,-23.6 37.73,-20.28 43.53,-29.15 47.79,-23.6"/>
</g>
<!-- Node4 -->
<g id="node4" class="node">
<title>Node4</title>
<g id="a_node4"><a xlink:title=" ">
<polygon fill="#e0e0e0" stroke="#999999" points="252,-19 198,-19 198,0 252,0 252,-19"/>
<text text-anchor="middle" x="225" y="-7" font-family="Helvetica,sans-Serif" font-size="10.00">iostream</text>
</a>
</g>
</g>
<!-- Node2&#45;&gt;Node4 -->
<g id="edge3" class="edge">
<title>Node2&#45;&gt;Node4</title>
<path fill="none" stroke="#63b8ff" d="M116.22,-54.51C137.14,-46.04 168.73,-33.27 192.48,-23.66"/>
<polygon fill="#63b8ff" stroke="#63b8ff" points="193.75,-26.92 201.7,-19.93 191.12,-20.43 193.75,-26.92"/>
</g>
<!-- Node5 -->
<g id="node5" class="node">
<title>Node5</title>
<g id="a_node5"><a xlink:title=" ">
<polygon fill="#e0e0e0" stroke="#999999" points="120,-19 68,-19 68,0 120,0 120,-19"/>
<text text-anchor="middle" x="94" y="-7" font-family="Helvetica,sans-Serif" font-size="10.00">sstream</text>
</a>
</g>
</g>
<!-- Node2&#45;&gt;Node5 -->
<g id="edge4" class="edge">
<title>Node2&#45;&gt;Node5</title>
<path fill="none" stroke="#63b8ff" d="M94,-54.75C94,-48.27 94,-39.16 94,-30.9"/>
<polygon fill="#63b8ff" stroke="#63b8ff" points="97.5,-30.96 94,-20.96 90.5,-30.96 97.5,-30.96"/>
</g>
<!-- Node6 -->
<g id="node6" class="node">
<title>Node6</title>
<g id="a_node6"><a xlink:title=" ">
<polygon fill="#e0e0e0" stroke="#999999" points="179.5,-19 138.5,-19 138.5,0 179.5,0 179.5,-19"/>
<text text-anchor="middle" x="159" y="-7" font-family="Helvetica,sans-Serif" font-size="10.00">string</text>
</a>
</g>
</g>
<!-- Node2&#45;&gt;Node6 -->
<g id="edge5" class="edge">
<title>Node2&#45;&gt;Node6</title>
<path fill="none" stroke="#63b8ff" d="M105.03,-54.51C114.42,-46.85 128.15,-35.66 139.41,-26.47"/>
<polygon fill="#63b8ff" stroke="#63b8ff" points="141.43,-29.35 146.96,-20.31 137,-23.92 141.43,-29.35"/>
</g>
<!-- Node8 -->
<g id="node8" class="node">
<title>Node8</title>
<g id="a_node8"><a xlink:href="../../df/d7b/_node_impl_8h.html" target="_top" xlink:title=" ">
<polygon fill="white" stroke="#666666" points="358.5,-239 291.5,-239 291.5,-220 358.5,-220 358.5,-239"/>
<text text-anchor="middle" x="325" y="-227" font-family="Helvetica,sans-Serif" font-size="10.00">NodeImpl.h</text>
</a>
</g>
</g>
<!-- Node7&#45;&gt;Node8 -->
<g id="edge7" class="edge">
<title>Node7&#45;&gt;Node8</title>
<path fill="none" stroke="#63b8ff" d="M277.67,-274.51C285.74,-267 297.47,-256.1 307.22,-247.03"/>
<polygon fill="#63b8ff" stroke="#63b8ff" points="309.43,-249.76 314.37,-240.39 304.66,-244.63 309.43,-249.76"/>
</g>
<!-- Node9 -->
<g id="node9" class="node">
<title>Node9</title>
<g id="a_node9"><a xlink:href="../../db/d1f/_common_8h.html" target="_top" xlink:title=" ">
<polygon fill="white" stroke="#666666" points="385.5,-184 320.5,-184 320.5,-165 385.5,-165 385.5,-184"/>
<text text-anchor="middle" x="353" y="-172" font-family="Helvetica,sans-Serif" font-size="10.00">Common.h</text>
</a>
</g>
</g>
<!-- Node8&#45;&gt;Node9 -->
<g id="edge8" class="edge">
<title>Node8&#45;&gt;Node9</title>
<path fill="none" stroke="#63b8ff" d="M329.62,-219.75C333.25,-212.88 338.43,-203.08 342.99,-194.45"/>
<polygon fill="#63b8ff" stroke="#63b8ff" points="345.99,-196.26 347.57,-185.78 339.8,-192.99 345.99,-196.26"/>
</g>
<!-- Node9&#45;&gt;Node6 -->
<g id="edge10" class="edge">
<title>Node9&#45;&gt;Node6</title>
<path fill="none" stroke="#63b8ff" d="M329.19,-164.52C294.1,-150.22 228.3,-119.19 188,-74 176.76,-61.4 169.16,-43.7 164.58,-30.19"/>
<polygon fill="#63b8ff" stroke="#63b8ff" points="167.93,-29.19 161.64,-20.67 161.24,-31.26 167.93,-29.19"/>
</g>
<!-- Node10 -->
<g id="node10" class="node">
<title>Node10</title>
<g id="a_node10"><a xlink:title=" ">
<polygon fill="#e0e0e0" stroke="#999999" points="476,-129 446,-129 446,-110 476,-110 476,-129"/>
<text text-anchor="middle" x="461" y="-117" font-family="Helvetica,sans-Serif" font-size="10.00">set</text>
</a>
</g>
</g>
<!-- Node9&#45;&gt;Node10 -->
<g id="edge9" class="edge">
<title>Node9&#45;&gt;Node10</title>
<path fill="none" stroke="#63b8ff" d="M371.32,-164.51C388.99,-155.84 415.89,-142.64 435.62,-132.96"/>
<polygon fill="#63b8ff" stroke="#63b8ff" points="436.94,-136.2 444.38,-128.66 433.86,-129.92 436.94,-136.2"/>
</g>
<!-- Node11 -->
<g id="node11" class="node">
<title>Node11</title>
<g id="a_node11"><a xlink:title=" ">
<polygon fill="#e0e0e0" stroke="#999999" points="539,-74 495,-74 495,-55 539,-55 539,-74"/>
<text text-anchor="middle" x="517" y="-62" font-family="Helvetica,sans-Serif" font-size="10.00">vector</text>
</a>
</g>
</g>
<!-- Node9&#45;&gt;Node11 -->
<g id="edge11" class="edge">
<title>Node9&#45;&gt;Node11</title>
<path fill="none" stroke="#63b8ff" d="M363.79,-164.57C379.44,-151.79 409.58,-127.86 437,-110 453.88,-99 473.65,-87.99 489.32,-79.67"/>
<polygon fill="#63b8ff" stroke="#63b8ff" points="490.85,-82.82 498.08,-75.07 487.6,-76.62 490.85,-82.82"/>
</g>
<!-- Node12 -->
<g id="node12" class="node">
<title>Node12</title>
<g id="a_node12"><a xlink:href="../../d1/df2/_e57_format_8h.html" target="_top" xlink:title="Header file for the E57 API.">
<polygon fill="white" stroke="#666666" points="389.5,-129 316.5,-129 316.5,-110 389.5,-110 389.5,-129"/>
<text text-anchor="middle" x="353" y="-117" font-family="Helvetica,sans-Serif" font-size="10.00">E57Format.h</text>
</a>
</g>
</g>
<!-- Node9&#45;&gt;Node12 -->
<g id="edge12" class="edge">
<title>Node9&#45;&gt;Node12</title>
<path fill="none" stroke="#63b8ff" d="M353,-164.75C353,-158.27 353,-149.16 353,-140.9"/>
<polygon fill="#63b8ff" stroke="#63b8ff" points="356.5,-140.96 353,-130.96 349.5,-140.96 356.5,-140.96"/>
</g>
<!-- Node12&#45;&gt;Node11 -->
<g id="edge16" class="edge">
<title>Node12&#45;&gt;Node11</title>
<path fill="none" stroke="#63b8ff" d="M380.82,-109.51C409.26,-100.32 453.45,-86.04 483.73,-76.25"/>
<polygon fill="#63b8ff" stroke="#63b8ff" points="484.71,-79.61 493.15,-73.21 482.56,-72.95 484.71,-79.61"/>
</g>
<!-- Node13 -->
<g id="node13" class="node">
<title>Node13</title>
<g id="a_node13"><a xlink:title=" ">
<polygon fill="#e0e0e0" stroke="#999999" points="342.5,-74 301.5,-74 301.5,-55 342.5,-55 342.5,-74"/>
<text text-anchor="middle" x="322" y="-62" font-family="Helvetica,sans-Serif" font-size="10.00">cfloat</text>
</a>
</g>
</g>
<!-- Node12&#45;&gt;Node13 -->
<g id="edge13" class="edge">
<title>Node12&#45;&gt;Node13</title>
<path fill="none" stroke="#63b8ff" d="M347.88,-109.75C343.82,-102.81 338.01,-92.86 332.91,-84.16"/>
<polygon fill="#63b8ff" stroke="#63b8ff" points="336.06,-82.61 327.99,-75.75 330.02,-86.15 336.06,-82.61"/>
</g>
<!-- Node14 -->
<g id="node14" class="node">
<title>Node14</title>
<g id="a_node14"><a xlink:title=" ">
<polygon fill="#e0e0e0" stroke="#999999" points="407,-74 361,-74 361,-55 407,-55 407,-74"/>
<text text-anchor="middle" x="384" y="-62" font-family="Helvetica,sans-Serif" font-size="10.00">cstdint</text>
</a>
</g>
</g>
<!-- Node12&#45;&gt;Node14 -->
<g id="edge14" class="edge">
<title>Node12&#45;&gt;Node14</title>
<path fill="none" stroke="#63b8ff" d="M358.12,-109.75C362.18,-102.81 367.99,-92.86 373.09,-84.16"/>
<polygon fill="#63b8ff" stroke="#63b8ff" points="375.98,-86.15 378.01,-75.75 369.94,-82.61 375.98,-86.15"/>
</g>
<!-- Node15 -->
<g id="node15" class="node">
<title>Node15</title>
<g id="a_node15"><a xlink:title=" ">
<polygon fill="#e0e0e0" stroke="#999999" points="477,-74 425,-74 425,-55 477,-55 477,-74"/>
<text text-anchor="middle" x="451" y="-62" font-family="Helvetica,sans-Serif" font-size="10.00">memory</text>
</a>
</g>
</g>
<!-- Node12&#45;&gt;Node15 -->
<g id="edge15" class="edge">
<title>Node12&#45;&gt;Node15</title>
<path fill="none" stroke="#63b8ff" d="M369.62,-109.51C384.78,-101.31 407.42,-89.07 424.97,-79.58"/>
<polygon fill="#63b8ff" stroke="#63b8ff" points="426.16,-82.91 433.29,-75.08 422.83,-76.76 426.16,-82.91"/>
</g>
<!-- Node16 -->
<g id="node16" class="node">
<title>Node16</title>
<g id="a_node16"><a xlink:href="../../d4/d6e/_e57_exception_8h.html" target="_top" xlink:title="Exception handling for E57 API.">
<polygon fill="white" stroke="#666666" points="283,-74 197,-74 197,-55 283,-55 283,-74"/>
<text text-anchor="middle" x="240" y="-62" font-family="Helvetica,sans-Serif" font-size="10.00">E57Exception.h</text>
</a>
</g>
</g>
<!-- Node12&#45;&gt;Node16 -->
<g id="edge17" class="edge">
<title>Node12&#45;&gt;Node16</title>
<path fill="none" stroke="#63b8ff" d="M333.83,-109.51C316.11,-101.2 289.52,-88.73 269.17,-79.18"/>
<polygon fill="#63b8ff" stroke="#63b8ff" points="270.8,-76.08 260.26,-75 267.82,-82.42 270.8,-76.08"/>
</g>
<!-- Node16&#45;&gt;Node4 -->
<g id="edge19" class="edge">
<title>Node16&#45;&gt;Node4</title>
<path fill="none" stroke="#63b8ff" d="M237.52,-54.75C235.65,-48.11 232.99,-38.73 230.61,-30.31"/>
<polygon fill="#63b8ff" stroke="#63b8ff" points="234.03,-29.57 227.94,-20.9 227.3,-31.47 234.03,-29.57"/>
</g>
<!-- Node16&#45;&gt;Node6 -->
<g id="edge20" class="edge">
<title>Node16&#45;&gt;Node6</title>
<path fill="none" stroke="#63b8ff" d="M226.26,-54.51C214.2,-46.62 196.41,-34.98 182.16,-25.65"/>
<polygon fill="#63b8ff" stroke="#63b8ff" points="184.09,-22.73 173.8,-20.19 180.26,-28.59 184.09,-22.73"/>
</g>
<!-- Node17 -->
<g id="node17" class="node">
<title>Node17</title>
<g id="a_node17"><a xlink:title=" ">
<polygon fill="#e0e0e0" stroke="#999999" points="329.5,-19 270.5,-19 270.5,0 329.5,0 329.5,-19"/>
<text text-anchor="middle" x="300" y="-7" font-family="Helvetica,sans-Serif" font-size="10.00">exception</text>
</a>
</g>
</g>
<!-- Node16&#45;&gt;Node17 -->
<g id="edge18" class="edge">
<title>Node16&#45;&gt;Node17</title>
<path fill="none" stroke="#63b8ff" d="M250.18,-54.51C258.76,-46.93 271.27,-35.88 281.6,-26.75"/>
<polygon fill="#63b8ff" stroke="#63b8ff" points="283.66,-29.6 288.84,-20.36 279.03,-24.36 283.66,-29.6"/>
</g>
<!-- Node18 -->
<g id="node18" class="node">
<title>Node18</title>
<g id="a_node18"><a xlink:title=" ">
<polygon fill="#e0e0e0" stroke="#999999" points="418.5,-19 347.5,-19 347.5,0 418.5,0 418.5,-19"/>
<text text-anchor="middle" x="383" y="-7" font-family="Helvetica,sans-Serif" font-size="10.00">E57Export.h</text>
</a>
</g>
</g>
<!-- Node16&#45;&gt;Node18 -->
<g id="edge21" class="edge">
<title>Node16&#45;&gt;Node18</title>
<path fill="none" stroke="#63b8ff" d="M264.26,-54.51C287.41,-45.93 322.51,-32.92 348.56,-23.27"/>
<polygon fill="#63b8ff" stroke="#63b8ff" points="349.52,-26.64 357.68,-19.88 347.09,-20.08 349.52,-26.64"/>
</g>
</g>
</svg>
