<?xml version="1.0" encoding="UTF-8" standalone="no"?>
<!DOCTYPE svg PUBLIC "-//W3C//DTD SVG 1.1//EN"
 "http://www.w3.org/Graphics/SVG/1.1/DTD/svg11.dtd">
<!-- Generated by graphviz version 8.1.0 (20230707.0739)
 -->
<!-- Title: StringNode.cpp Pages: 1 -->
<svg width="210pt" height="83pt"
 viewBox="0.00 0.00 210.12 82.50" xmlns="http://www.w3.org/2000/svg" xmlns:xlink="http://www.w3.org/1999/xlink">
<g id="graph0" class="graph" transform="scale(1 1) rotate(0) translate(4 78.5)">
<title>StringNode.cpp</title>
<!-- Node1 -->
<g id="node1" class="node">
<title>Node1</title>
<g id="a_node1"><a xlink:title=" ">
<polygon fill="#999999" stroke="#666666" points="143,-74.5 59.5,-74.5 59.5,-55.25 143,-55.25 143,-74.5"/>
<text text-anchor="middle" x="101.25" y="-61" font-family="Helvetica,sans-Serif" font-size="10.00">StringNode.cpp</text>
</a>
</g>
</g>
<!-- Node2 -->
<g id="node2" class="node">
<title>Node2</title>
<g id="a_node2"><a xlink:title=" ">
<polygon fill="#e0e0e0" stroke="#999999" points="92.5,-19.25 0,-19.25 0,0 92.5,0 92.5,-19.25"/>
<text text-anchor="middle" x="46.25" y="-5.75" font-family="Helvetica,sans-Serif" font-size="10.00">StringFunctions.h</text>
</a>
</g>
</g>
<!-- Node1&#45;&gt;Node2 -->
<g id="edge1" class="edge">
<title>Node1&#45;&gt;Node2</title>
<path fill="none" stroke="#63b8ff" d="M92.17,-55.08C84.33,-47.5 72.81,-36.34 63.26,-27.1"/>
<polygon fill="#63b8ff" stroke="#63b8ff" points="66.15,-25.05 56.53,-20.61 61.28,-30.08 66.15,-25.05"/>
</g>
<!-- Node3 -->
<g id="node3" class="node">
<title>Node3</title>
<g id="a_node3"><a xlink:title=" ">
<polygon fill="#e0e0e0" stroke="#999999" points="202.12,-19.25 110.38,-19.25 110.38,0 202.12,0 202.12,-19.25"/>
<text text-anchor="middle" x="156.25" y="-5.75" font-family="Helvetica,sans-Serif" font-size="10.00">StringNodeImpl.h</text>
</a>
</g>
</g>
<!-- Node1&#45;&gt;Node3 -->
<g id="edge2" class="edge">
<title>Node1&#45;&gt;Node3</title>
<path fill="none" stroke="#63b8ff" d="M110.33,-55.08C118.17,-47.5 129.69,-36.34 139.24,-27.1"/>
<polygon fill="#63b8ff" stroke="#63b8ff" points="141.22,-30.08 145.97,-20.61 136.35,-25.05 141.22,-30.08"/>
</g>
</g>
</svg>
