<?xml version="1.0" encoding="UTF-8" standalone="no"?>
<!DOCTYPE svg PUBLIC "-//W3C//DTD SVG 1.1//EN"
 "http://www.w3.org/Graphics/SVG/1.1/DTD/svg11.dtd">
<!-- Generated by graphviz version 7.0.0 (20221023.0053)
 -->
<!-- Title: CompressedVectorNodeImpl.cpp Pages: 1 -->
<!--zoomable 412 -->
<svg id="main" version="1.1" xmlns="http://www.w3.org/2000/svg" xmlns:xlink="http://www.w3.org/1999/xlink" xml:space="preserve" onload="init(evt)">
<style type="text/css"><![CDATA[
.edge:hover path { stroke: red; }
.edge:hover polygon { stroke: red; fill: red; }
]]></style>
<script type="text/javascript"><![CDATA[
var edges = document.getElementsByTagName('g');
if (edges && edges.length) {
  for (var i=0;i<edges.length;i++) {
    if (edges[i].id.substr(0,4)=='edge') {
      edges[i].setAttribute('class','edge');
    }
  }
}
]]></script>
        <defs>
                <circle id="rim" cx="0" cy="0" r="7"/>
                <circle id="rim2" cx="0" cy="0" r="3.5"/>
                <g id="zoomPlus">
                        <use xlink:href="#rim" fill="#404040">
                                <set attributeName="fill" to="#808080" begin="zoomplus.mouseover" end="zoomplus.mouseout"/>
                        </use>
                        <path d="M-4,0h8M0,-4v8" fill="none" stroke="white" stroke-width="1.5" pointer-events="none"/>
                </g>
                <g id="zoomMin">
                        <use xlink:href="#rim" fill="#404040">
                                <set attributeName="fill" to="#808080" begin="zoomminus.mouseover" end="zoomminus.mouseout"/>
                        </use>
                        <path d="M-4,0h8" fill="none" stroke="white" stroke-width="1.5" pointer-events="none"/>
                </g>
                <g id="dirArrow">
                        <path fill="none" stroke="white" stroke-width="1.5" d="M0,-3.0v7 M-2.5,-0.5L0,-3.0L2.5,-0.5"/>
                </g>
               <g id="resetDef">
                       <use xlink:href="#rim2" fill="#404040">
                               <set attributeName="fill" to="#808080" begin="reset.mouseover" end="reset.mouseout"/>
                       </use>
               </g>
        </defs>

<script type="text/javascript">
var viewWidth = 713;
var viewHeight = 412;
var sectionId = 'dynsection-0';
</script>
<script xlink:href="../../svgpan.js"/>
<svg id="graph" class="graph">
<g id="viewport">
<title>CompressedVectorNodeImpl.cpp</title>
<!-- Node1 -->
<g id="node1" class="node">
<title>Node1</title>
<g id="a_node1"><a xlink:title=" ">
<polygon fill="#999999" stroke="#666666" points="447,-404 286,-404 286,-385 447,-385 447,-404"/>
<text text-anchor="middle" x="366.5" y="-392" font-family="Helvetica,sans-Serif" font-size="10.00">CompressedVectorNodeImpl.cpp</text>
</a>
</g>
</g>
<!-- Node2 -->
<g id="node2" class="node">
<title>Node2</title>
<g id="a_node2"><a xlink:href="../../da/dbb/_compressed_vector_node_impl_8h.html" target="_top" xlink:title=" ">
<polygon fill="white" stroke="#666666" points="195,-349 44,-349 44,-330 195,-330 195,-349"/>
<text text-anchor="middle" x="119.5" y="-337" font-family="Helvetica,sans-Serif" font-size="10.00">CompressedVectorNodeImpl.h</text>
</a>
</g>
</g>
<!-- Node1&#45;&gt;Node2 -->
<g id="edge1" class="edge">
<title>Node1&#45;&gt;Node2</title>
<path fill="none" stroke="#63b8ff" d="M324.6,-384.51C282.6,-375.5 217.81,-361.6 172.32,-351.83"/>
<polygon fill="#63b8ff" stroke="#63b8ff" points="173.18,-348.44 162.67,-349.76 171.72,-355.28 173.18,-348.44"/>
</g>
<!-- Node16 -->
<g id="node16" class="node">
<title>Node16</title>
<g id="a_node16"><a xlink:href="../../dd/d41/_checked_file_8h.html" target="_top" xlink:title=" ">
<polygon fill="white" stroke="#666666" points="406.5,-349 326.5,-349 326.5,-330 406.5,-330 406.5,-349"/>
<text text-anchor="middle" x="366.5" y="-337" font-family="Helvetica,sans-Serif" font-size="10.00">CheckedFile.h</text>
</a>
</g>
</g>
<!-- Node1&#45;&gt;Node16 -->
<g id="edge17" class="edge">
<title>Node1&#45;&gt;Node16</title>
<path fill="none" stroke="#63b8ff" d="M366.5,-384.75C366.5,-378.27 366.5,-369.16 366.5,-360.9"/>
<polygon fill="#63b8ff" stroke="#63b8ff" points="370,-360.96 366.5,-350.96 363,-360.96 370,-360.96"/>
</g>
<!-- Node18 -->
<g id="node18" class="node">
<title>Node18</title>
<g id="a_node18"><a xlink:href="../../da/db5/_compressed_vector_reader_impl_8h.html" target="_top" xlink:title=" ">
<polygon fill="white" stroke="#666666" points="584,-349 425,-349 425,-330 584,-330 584,-349"/>
<text text-anchor="middle" x="504.5" y="-337" font-family="Helvetica,sans-Serif" font-size="10.00">CompressedVectorReaderImpl.h</text>
</a>
</g>
</g>
<!-- Node1&#45;&gt;Node18 -->
<g id="edge20" class="edge">
<title>Node1&#45;&gt;Node18</title>
<path fill="none" stroke="#63b8ff" d="M389.91,-384.51C412.15,-375.97 445.83,-363.03 470.92,-353.4"/>
<polygon fill="#63b8ff" stroke="#63b8ff" points="471.94,-356.75 480.02,-349.9 469.43,-350.22 471.94,-356.75"/>
</g>
<!-- Node21 -->
<g id="node21" class="node">
<title>Node21</title>
<g id="a_node21"><a xlink:href="../../d9/d8f/_compressed_vector_writer_impl_8h.html" target="_top" xlink:title=" ">
<polygon fill="white" stroke="#666666" points="153,-294 0,-294 0,-275 153,-275 153,-294"/>
<text text-anchor="middle" x="76.5" y="-282" font-family="Helvetica,sans-Serif" font-size="10.00">CompressedVectorWriterImpl.h</text>
</a>
</g>
</g>
<!-- Node1&#45;&gt;Node21 -->
<g id="edge24" class="edge">
<title>Node1&#45;&gt;Node21</title>
<path fill="none" stroke="#63b8ff" d="M285.61,-394.36C198.02,-393.35 66.47,-385.55 34.5,-349 21.36,-333.98 38.34,-314.58 54.48,-301.2"/>
<polygon fill="#63b8ff" stroke="#63b8ff" points="56.22,-304.28 61.96,-295.37 51.92,-298.75 56.22,-304.28"/>
</g>
<!-- Node24 -->
<g id="node24" class="node">
<title>Node24</title>
<g id="a_node24"><a xlink:href="../../da/d09/_image_file_impl_8h.html" target="_top" xlink:title=" ">
<polygon fill="white" stroke="#666666" points="621.5,-239 535.5,-239 535.5,-220 621.5,-220 621.5,-239"/>
<text text-anchor="middle" x="578.5" y="-227" font-family="Helvetica,sans-Serif" font-size="10.00">ImageFileImpl.h</text>
</a>
</g>
</g>
<!-- Node1&#45;&gt;Node24 -->
<g id="edge31" class="edge">
<title>Node1&#45;&gt;Node24</title>
<path fill="none" stroke="#63b8ff" d="M447.38,-388.31C504.87,-382.73 575.03,-371.44 593.5,-349 616.7,-320.81 600.9,-275.36 588.77,-249.71"/>
<polygon fill="#63b8ff" stroke="#63b8ff" points="591.91,-248.16 584.28,-240.81 585.65,-251.31 591.91,-248.16"/>
</g>
<!-- Node25 -->
<g id="node25" class="node">
<title>Node25</title>
<g id="a_node25"><a xlink:href="../../db/d42/_string_functions_8h.html" target="_top" xlink:title=" ">
<polygon fill="white" stroke="#666666" points="662,-74 569,-74 569,-55 662,-55 662,-74"/>
<text text-anchor="middle" x="615.5" y="-62" font-family="Helvetica,sans-Serif" font-size="10.00">StringFunctions.h</text>
</a>
</g>
</g>
<!-- Node1&#45;&gt;Node25 -->
<g id="edge34" class="edge">
<title>Node1&#45;&gt;Node25</title>
<path fill="none" stroke="#63b8ff" d="M447.35,-385.96C508.12,-378.99 585.23,-366.97 611.5,-349 638.84,-330.3 650.5,-318.62 650.5,-285.5 650.5,-285.5 650.5,-285.5 650.5,-173.5 650.5,-141.07 636.04,-105.72 625.71,-84.59"/>
<polygon fill="#63b8ff" stroke="#63b8ff" points="628.87,-83.08 621.2,-75.77 622.64,-86.27 628.87,-83.08"/>
</g>
<!-- Node28 -->
<g id="node28" class="node">
<title>Node28</title>
<g id="a_node28"><a xlink:href="../../d4/dd8/_vector_node_impl_8h.html" target="_top" xlink:title=" ">
<polygon fill="white" stroke="#666666" points="308,-349 213,-349 213,-330 308,-330 308,-349"/>
<text text-anchor="middle" x="260.5" y="-337" font-family="Helvetica,sans-Serif" font-size="10.00">VectorNodeImpl.h</text>
</a>
</g>
</g>
<!-- Node1&#45;&gt;Node28 -->
<g id="edge39" class="edge">
<title>Node1&#45;&gt;Node28</title>
<path fill="none" stroke="#63b8ff" d="M348.52,-384.51C332.05,-376.27 307.41,-363.96 288.39,-354.45"/>
<polygon fill="#63b8ff" stroke="#63b8ff" points="290.08,-351.38 279.57,-350.03 286.95,-357.64 290.08,-351.38"/>
</g>
<!-- Node3 -->
<g id="node3" class="node">
<title>Node3</title>
<g id="a_node3"><a xlink:href="../../df/d7b/_node_impl_8h.html" target="_top" xlink:title=" ">
<polygon fill="white" stroke="#666666" points="384,-239 317,-239 317,-220 384,-220 384,-239"/>
<text text-anchor="middle" x="350.5" y="-227" font-family="Helvetica,sans-Serif" font-size="10.00">NodeImpl.h</text>
</a>
</g>
</g>
<!-- Node2&#45;&gt;Node3 -->
<g id="edge2" class="edge">
<title>Node2&#45;&gt;Node3</title>
<path fill="none" stroke="#63b8ff" d="M128.19,-329.84C142.22,-316.29 171.29,-290.08 200.5,-275 218.87,-265.51 268.45,-251.57 305.61,-241.83"/>
<polygon fill="#63b8ff" stroke="#63b8ff" points="306.43,-245.23 315.23,-239.33 304.68,-238.46 306.43,-245.23"/>
</g>
<!-- Node4 -->
<g id="node4" class="node">
<title>Node4</title>
<g id="a_node4"><a xlink:href="../../db/d1f/_common_8h.html" target="_top" xlink:title=" ">
<polygon fill="white" stroke="#666666" points="413,-184 348,-184 348,-165 413,-165 413,-184"/>
<text text-anchor="middle" x="380.5" y="-172" font-family="Helvetica,sans-Serif" font-size="10.00">Common.h</text>
</a>
</g>
</g>
<!-- Node3&#45;&gt;Node4 -->
<g id="edge3" class="edge">
<title>Node3&#45;&gt;Node4</title>
<path fill="none" stroke="#63b8ff" d="M355.45,-219.75C359.34,-212.88 364.89,-203.08 369.78,-194.45"/>
<polygon fill="#63b8ff" stroke="#63b8ff" points="372.81,-196.19 374.69,-185.76 366.72,-192.74 372.81,-196.19"/>
</g>
<!-- Node5 -->
<g id="node5" class="node">
<title>Node5</title>
<g id="a_node5"><a xlink:title=" ">
<polygon fill="#e0e0e0" stroke="#999999" points="424.5,-129 394.5,-129 394.5,-110 424.5,-110 424.5,-129"/>
<text text-anchor="middle" x="409.5" y="-117" font-family="Helvetica,sans-Serif" font-size="10.00">set</text>
</a>
</g>
</g>
<!-- Node4&#45;&gt;Node5 -->
<g id="edge4" class="edge">
<title>Node4&#45;&gt;Node5</title>
<path fill="none" stroke="#63b8ff" d="M385.29,-164.75C389.04,-157.88 394.41,-148.08 399.13,-139.45"/>
<polygon fill="#63b8ff" stroke="#63b8ff" points="402.15,-141.22 403.88,-130.77 396.01,-137.86 402.15,-141.22"/>
</g>
<!-- Node6 -->
<g id="node6" class="node">
<title>Node6</title>
<g id="a_node6"><a xlink:title=" ">
<polygon fill="#e0e0e0" stroke="#999999" points="561,-19 520,-19 520,0 561,0 561,-19"/>
<text text-anchor="middle" x="540.5" y="-7" font-family="Helvetica,sans-Serif" font-size="10.00">string</text>
</a>
</g>
</g>
<!-- Node4&#45;&gt;Node6 -->
<g id="edge5" class="edge">
<title>Node4&#45;&gt;Node6</title>
<path fill="none" stroke="#63b8ff" d="M400.8,-164.58C431.51,-150.06 489.57,-118.39 521.5,-74 530.77,-61.12 535.56,-43.68 538.02,-30.34"/>
<polygon fill="#63b8ff" stroke="#63b8ff" points="541.46,-31 539.49,-20.58 534.54,-29.95 541.46,-31"/>
</g>
<!-- Node7 -->
<g id="node7" class="node">
<title>Node7</title>
<g id="a_node7"><a xlink:title=" ">
<polygon fill="#e0e0e0" stroke="#999999" points="214.5,-74 170.5,-74 170.5,-55 214.5,-55 214.5,-74"/>
<text text-anchor="middle" x="192.5" y="-62" font-family="Helvetica,sans-Serif" font-size="10.00">vector</text>
</a>
</g>
</g>
<!-- Node4&#45;&gt;Node7 -->
<g id="edge6" class="edge">
<title>Node4&#45;&gt;Node7</title>
<path fill="none" stroke="#63b8ff" d="M362.16,-164.54C344.59,-155.83 317.44,-142.05 294.5,-129 266.89,-113.3 236.04,-93.81 215.57,-80.59"/>
<polygon fill="#63b8ff" stroke="#63b8ff" points="217.71,-77.81 207.42,-75.3 213.9,-83.68 217.71,-77.81"/>
</g>
<!-- Node8 -->
<g id="node8" class="node">
<title>Node8</title>
<g id="a_node8"><a xlink:href="../../d1/df2/_e57_format_8h.html" target="_top" xlink:title="Header file for the E57 API.">
<polygon fill="white" stroke="#666666" points="376,-129 303,-129 303,-110 376,-110 376,-129"/>
<text text-anchor="middle" x="339.5" y="-117" font-family="Helvetica,sans-Serif" font-size="10.00">E57Format.h</text>
</a>
</g>
</g>
<!-- Node4&#45;&gt;Node8 -->
<g id="edge7" class="edge">
<title>Node4&#45;&gt;Node8</title>
<path fill="none" stroke="#63b8ff" d="M373.73,-164.75C368.18,-157.58 360.16,-147.2 353.27,-138.3"/>
<polygon fill="#63b8ff" stroke="#63b8ff" points="356.23,-136.41 347.34,-130.64 350.69,-140.69 356.23,-136.41"/>
</g>
<!-- Node8&#45;&gt;Node7 -->
<g id="edge11" class="edge">
<title>Node8&#45;&gt;Node7</title>
<path fill="none" stroke="#63b8ff" d="M314.56,-109.51C289.94,-100.63 252.16,-87.01 225.15,-77.27"/>
<polygon fill="#63b8ff" stroke="#63b8ff" points="226.69,-74.11 216.09,-74.01 224.31,-80.69 226.69,-74.11"/>
</g>
<!-- Node9 -->
<g id="node9" class="node">
<title>Node9</title>
<g id="a_node9"><a xlink:title=" ">
<polygon fill="#e0e0e0" stroke="#999999" points="442,-74 401,-74 401,-55 442,-55 442,-74"/>
<text text-anchor="middle" x="421.5" y="-62" font-family="Helvetica,sans-Serif" font-size="10.00">cfloat</text>
</a>
</g>
</g>
<!-- Node8&#45;&gt;Node9 -->
<g id="edge8" class="edge">
<title>Node8&#45;&gt;Node9</title>
<path fill="none" stroke="#63b8ff" d="M353.41,-109.51C365.74,-101.54 383.97,-89.75 398.47,-80.38"/>
<polygon fill="#63b8ff" stroke="#63b8ff" points="400.03,-83.55 406.52,-75.18 396.23,-77.67 400.03,-83.55"/>
</g>
<!-- Node10 -->
<g id="node10" class="node">
<title>Node10</title>
<g id="a_node10"><a xlink:title=" ">
<polygon fill="#e0e0e0" stroke="#999999" points="278.5,-74 232.5,-74 232.5,-55 278.5,-55 278.5,-74"/>
<text text-anchor="middle" x="255.5" y="-62" font-family="Helvetica,sans-Serif" font-size="10.00">cstdint</text>
</a>
</g>
</g>
<!-- Node8&#45;&gt;Node10 -->
<g id="edge9" class="edge">
<title>Node8&#45;&gt;Node10</title>
<path fill="none" stroke="#63b8ff" d="M325.25,-109.51C312.62,-101.54 293.94,-89.75 279.09,-80.38"/>
<polygon fill="#63b8ff" stroke="#63b8ff" points="281.14,-77.54 270.82,-75.17 277.41,-83.46 281.14,-77.54"/>
</g>
<!-- Node11 -->
<g id="node11" class="node">
<title>Node11</title>
<g id="a_node11"><a xlink:title=" ">
<polygon fill="#e0e0e0" stroke="#999999" points="512.5,-74 460.5,-74 460.5,-55 512.5,-55 512.5,-74"/>
<text text-anchor="middle" x="486.5" y="-62" font-family="Helvetica,sans-Serif" font-size="10.00">memory</text>
</a>
</g>
</g>
<!-- Node8&#45;&gt;Node11 -->
<g id="edge10" class="edge">
<title>Node8&#45;&gt;Node11</title>
<path fill="none" stroke="#63b8ff" d="M364.44,-109.51C388.34,-100.89 424.64,-87.8 451.45,-78.14"/>
<polygon fill="#63b8ff" stroke="#63b8ff" points="452.29,-81.56 460.51,-74.87 449.91,-74.97 452.29,-81.56"/>
</g>
<!-- Node12 -->
<g id="node12" class="node">
<title>Node12</title>
<g id="a_node12"><a xlink:href="../../d4/d6e/_e57_exception_8h.html" target="_top" xlink:title="Exception handling for E57 API.">
<polygon fill="white" stroke="#666666" points="382.5,-74 296.5,-74 296.5,-55 382.5,-55 382.5,-74"/>
<text text-anchor="middle" x="339.5" y="-62" font-family="Helvetica,sans-Serif" font-size="10.00">E57Exception.h</text>
</a>
</g>
</g>
<!-- Node8&#45;&gt;Node12 -->
<g id="edge12" class="edge">
<title>Node8&#45;&gt;Node12</title>
<path fill="none" stroke="#63b8ff" d="M339.5,-109.75C339.5,-103.27 339.5,-94.16 339.5,-85.9"/>
<polygon fill="#63b8ff" stroke="#63b8ff" points="343,-85.96 339.5,-75.96 336,-85.96 343,-85.96"/>
</g>
<!-- Node12&#45;&gt;Node6 -->
<g id="edge15" class="edge">
<title>Node12&#45;&gt;Node6</title>
<path fill="none" stroke="#63b8ff" d="M373.6,-54.51C411.29,-44.57 471.55,-28.68 508.42,-18.96"/>
<polygon fill="#63b8ff" stroke="#63b8ff" points="509.27,-22.35 518.05,-16.42 507.49,-15.59 509.27,-22.35"/>
</g>
<!-- Node13 -->
<g id="node13" class="node">
<title>Node13</title>
<g id="a_node13"><a xlink:title=" ">
<polygon fill="#e0e0e0" stroke="#999999" points="299,-19 240,-19 240,0 299,0 299,-19"/>
<text text-anchor="middle" x="269.5" y="-7" font-family="Helvetica,sans-Serif" font-size="10.00">exception</text>
</a>
</g>
</g>
<!-- Node12&#45;&gt;Node13 -->
<g id="edge13" class="edge">
<title>Node12&#45;&gt;Node13</title>
<path fill="none" stroke="#63b8ff" d="M327.63,-54.51C317.41,-46.77 302.43,-35.43 290.24,-26.2"/>
<polygon fill="#63b8ff" stroke="#63b8ff" points="292.49,-23.52 282.41,-20.27 288.27,-29.1 292.49,-23.52"/>
</g>
<!-- Node14 -->
<g id="node14" class="node">
<title>Node14</title>
<g id="a_node14"><a xlink:title=" ">
<polygon fill="#e0e0e0" stroke="#999999" points="474.5,-19 420.5,-19 420.5,0 474.5,0 474.5,-19"/>
<text text-anchor="middle" x="447.5" y="-7" font-family="Helvetica,sans-Serif" font-size="10.00">iostream</text>
</a>
</g>
</g>
<!-- Node12&#45;&gt;Node14 -->
<g id="edge14" class="edge">
<title>Node12&#45;&gt;Node14</title>
<path fill="none" stroke="#63b8ff" d="M357.82,-54.51C374.68,-46.24 399.93,-33.84 419.35,-24.31"/>
<polygon fill="#63b8ff" stroke="#63b8ff" points="420.66,-27.57 428.09,-20.02 417.57,-21.29 420.66,-27.57"/>
</g>
<!-- Node15 -->
<g id="node15" class="node">
<title>Node15</title>
<g id="a_node15"><a xlink:title=" ">
<polygon fill="#e0e0e0" stroke="#999999" points="388,-19 317,-19 317,0 388,0 388,-19"/>
<text text-anchor="middle" x="352.5" y="-7" font-family="Helvetica,sans-Serif" font-size="10.00">E57Export.h</text>
</a>
</g>
</g>
<!-- Node12&#45;&gt;Node15 -->
<g id="edge16" class="edge">
<title>Node12&#45;&gt;Node15</title>
<path fill="none" stroke="#63b8ff" d="M341.65,-54.75C343.26,-48.19 345.52,-38.95 347.57,-30.6"/>
<polygon fill="#63b8ff" stroke="#63b8ff" points="350.96,-31.46 349.95,-20.91 344.16,-29.79 350.96,-31.46"/>
</g>
<!-- Node16&#45;&gt;Node4 -->
<g id="edge19" class="edge">
<title>Node16&#45;&gt;Node4</title>
<path fill="none" stroke="#63b8ff" d="M376.11,-329.69C384.37,-321.41 395.7,-308.18 400.5,-294 411.94,-260.19 399.15,-218.64 389.42,-194.8"/>
<polygon fill="#63b8ff" stroke="#63b8ff" points="392.67,-193.52 385.48,-185.74 386.26,-196.31 392.67,-193.52"/>
</g>
<!-- Node17 -->
<g id="node17" class="node">
<title>Node17</title>
<g id="a_node17"><a xlink:title=" ">
<polygon fill="#e0e0e0" stroke="#999999" points="391.5,-294 335.5,-294 335.5,-275 391.5,-275 391.5,-294"/>
<text text-anchor="middle" x="363.5" y="-282" font-family="Helvetica,sans-Serif" font-size="10.00">algorithm</text>
</a>
</g>
</g>
<!-- Node16&#45;&gt;Node17 -->
<g id="edge18" class="edge">
<title>Node16&#45;&gt;Node17</title>
<path fill="none" stroke="#63b8ff" d="M366,-329.75C365.64,-323.27 365.12,-314.16 364.65,-305.9"/>
<polygon fill="#63b8ff" stroke="#63b8ff" points="368.15,-305.74 364.09,-295.95 361.16,-306.13 368.15,-305.74"/>
</g>
<!-- Node19 -->
<g id="node19" class="node">
<title>Node19</title>
<g id="a_node19"><a xlink:href="../../d4/d28/_decode_channel_8h.html" target="_top" xlink:title=" ">
<polygon fill="white" stroke="#666666" points="549,-294 454,-294 454,-275 549,-275 549,-294"/>
<text text-anchor="middle" x="501.5" y="-282" font-family="Helvetica,sans-Serif" font-size="10.00">DecodeChannel.h</text>
</a>
</g>
</g>
<!-- Node18&#45;&gt;Node19 -->
<g id="edge21" class="edge">
<title>Node18&#45;&gt;Node19</title>
<path fill="none" stroke="#63b8ff" d="M504,-329.75C503.64,-323.27 503.12,-314.16 502.65,-305.9"/>
<polygon fill="#63b8ff" stroke="#63b8ff" points="506.15,-305.74 502.09,-295.95 499.16,-306.13 506.15,-305.74"/>
</g>
<!-- Node20 -->
<g id="node20" class="node">
<title>Node20</title>
<g id="a_node20"><a xlink:href="../../d9/d00/_decoder_8h.html" target="_top" xlink:title=" ">
<polygon fill="white" stroke="#666666" points="514,-239 453,-239 453,-220 514,-220 514,-239"/>
<text text-anchor="middle" x="483.5" y="-227" font-family="Helvetica,sans-Serif" font-size="10.00">Decoder.h</text>
</a>
</g>
</g>
<!-- Node19&#45;&gt;Node20 -->
<g id="edge22" class="edge">
<title>Node19&#45;&gt;Node20</title>
<path fill="none" stroke="#63b8ff" d="M498.53,-274.75C496.27,-268.11 493.09,-258.73 490.23,-250.31"/>
<polygon fill="#63b8ff" stroke="#63b8ff" points="493.55,-249.22 487.02,-240.88 486.93,-251.47 493.55,-249.22"/>
</g>
<!-- Node20&#45;&gt;Node4 -->
<g id="edge23" class="edge">
<title>Node20&#45;&gt;Node4</title>
<path fill="none" stroke="#63b8ff" d="M466.03,-219.51C450.1,-211.31 426.31,-199.07 407.86,-189.58"/>
<polygon fill="#63b8ff" stroke="#63b8ff" points="409.55,-186.51 399.06,-185.05 406.35,-192.74 409.55,-186.51"/>
</g>
<!-- Node22 -->
<g id="node22" class="node">
<title>Node22</title>
<g id="a_node22"><a xlink:href="../../df/d4b/_encoder_8h.html" target="_top" xlink:title=" ">
<polygon fill="white" stroke="#666666" points="298.5,-239 238.5,-239 238.5,-220 298.5,-220 298.5,-239"/>
<text text-anchor="middle" x="268.5" y="-227" font-family="Helvetica,sans-Serif" font-size="10.00">Encoder.h</text>
</a>
</g>
</g>
<!-- Node21&#45;&gt;Node22 -->
<g id="edge25" class="edge">
<title>Node21&#45;&gt;Node22</title>
<path fill="none" stroke="#63b8ff" d="M109.07,-274.51C141.7,-265.5 192.03,-251.61 227.39,-241.85"/>
<polygon fill="#63b8ff" stroke="#63b8ff" points="228.14,-245.27 236.85,-239.24 226.28,-238.52 228.14,-245.27"/>
</g>
<!-- Node23 -->
<g id="node23" class="node">
<title>Node23</title>
<g id="a_node23"><a xlink:href="../../d7/dbe/_packet_8h.html" target="_top" xlink:title=" ">
<polygon fill="white" stroke="#666666" points="220.5,-239 164.5,-239 164.5,-220 220.5,-220 220.5,-239"/>
<text text-anchor="middle" x="192.5" y="-227" font-family="Helvetica,sans-Serif" font-size="10.00">Packet.h</text>
</a>
</g>
</g>
<!-- Node21&#45;&gt;Node23 -->
<g id="edge27" class="edge">
<title>Node21&#45;&gt;Node23</title>
<path fill="none" stroke="#63b8ff" d="M96.18,-274.51C114.45,-266.16 141.91,-253.61 162.85,-244.05"/>
<polygon fill="#63b8ff" stroke="#63b8ff" points="164.1,-247.33 171.74,-239.99 161.19,-240.96 164.1,-247.33"/>
</g>
<!-- Node22&#45;&gt;Node4 -->
<g id="edge26" class="edge">
<title>Node22&#45;&gt;Node4</title>
<path fill="none" stroke="#63b8ff" d="M287.5,-219.51C305.06,-211.2 331.42,-198.73 351.59,-189.18"/>
<polygon fill="#63b8ff" stroke="#63b8ff" points="352.87,-192.45 360.41,-185.01 349.88,-186.12 352.87,-192.45"/>
</g>
<!-- Node23&#45;&gt;Node4 -->
<g id="edge30" class="edge">
<title>Node23&#45;&gt;Node4</title>
<path fill="none" stroke="#63b8ff" d="M220.65,-220.57C251.74,-211.8 302.17,-197.58 338.06,-187.46"/>
<polygon fill="#63b8ff" stroke="#63b8ff" points="338.57,-190.96 347.24,-184.88 336.67,-184.22 338.57,-190.96"/>
</g>
<!-- Node23&#45;&gt;Node7 -->
<g id="edge29" class="edge">
<title>Node23&#45;&gt;Node7</title>
<path fill="none" stroke="#63b8ff" d="M192.5,-219.74C192.5,-194.53 192.5,-121.36 192.5,-85.62"/>
<polygon fill="#63b8ff" stroke="#63b8ff" points="196,-85.82 192.5,-75.82 189,-85.82 196,-85.82"/>
</g>
<!-- Node23&#45;&gt;Node10 -->
<g id="edge28" class="edge">
<title>Node23&#45;&gt;Node10</title>
<path fill="none" stroke="#63b8ff" d="M195.89,-219.74C205.72,-194.31 234.41,-120.08 248.08,-84.69"/>
<polygon fill="#63b8ff" stroke="#63b8ff" points="251.21,-86.31 251.55,-75.72 244.68,-83.78 251.21,-86.31"/>
</g>
<!-- Node24&#45;&gt;Node4 -->
<g id="edge33" class="edge">
<title>Node24&#45;&gt;Node4</title>
<path fill="none" stroke="#63b8ff" d="M544.91,-219.51C511.62,-210.6 460.45,-196.9 424.05,-187.16"/>
<polygon fill="#63b8ff" stroke="#63b8ff" points="425.29,-183.87 414.73,-184.66 423.48,-190.63 425.29,-183.87"/>
</g>
<!-- Node24&#45;&gt;Node11 -->
<g id="edge32" class="edge">
<title>Node24&#45;&gt;Node11</title>
<path fill="none" stroke="#63b8ff" d="M573.55,-219.74C559.14,-194.2 516.94,-119.43 497.07,-84.23"/>
<polygon fill="#63b8ff" stroke="#63b8ff" points="500.18,-82.61 492.21,-75.63 494.08,-86.05 500.18,-82.61"/>
</g>
<!-- Node25&#45;&gt;Node6 -->
<g id="edge38" class="edge">
<title>Node25&#45;&gt;Node6</title>
<path fill="none" stroke="#63b8ff" d="M602.78,-54.51C591.72,-46.7 575.46,-35.21 562.33,-25.93"/>
<polygon fill="#63b8ff" stroke="#63b8ff" points="564.46,-23.14 554.27,-20.23 560.42,-28.86 564.46,-23.14"/>
</g>
<!-- Node25&#45;&gt;Node14 -->
<g id="edge36" class="edge">
<title>Node25&#45;&gt;Node14</title>
<path fill="none" stroke="#63b8ff" d="M587,-54.51C559.07,-45.7 516.32,-32.21 485.51,-22.49"/>
<polygon fill="#63b8ff" stroke="#63b8ff" points="486.78,-19.22 476.19,-19.55 484.67,-25.9 486.78,-19.22"/>
</g>
<!-- Node26 -->
<g id="node26" class="node">
<title>Node26</title>
<g id="a_node26"><a xlink:title=" ">
<polygon fill="#e0e0e0" stroke="#999999" points="634.5,-19 584.5,-19 584.5,0 634.5,0 634.5,-19"/>
<text text-anchor="middle" x="609.5" y="-7" font-family="Helvetica,sans-Serif" font-size="10.00">iomanip</text>
</a>
</g>
</g>
<!-- Node25&#45;&gt;Node26 -->
<g id="edge35" class="edge">
<title>Node25&#45;&gt;Node26</title>
<path fill="none" stroke="#63b8ff" d="M614.51,-54.75C613.77,-48.19 612.72,-38.95 611.78,-30.6"/>
<polygon fill="#63b8ff" stroke="#63b8ff" points="615.29,-30.49 610.68,-20.95 608.33,-31.28 615.29,-30.49"/>
</g>
<!-- Node27 -->
<g id="node27" class="node">
<title>Node27</title>
<g id="a_node27"><a xlink:title=" ">
<polygon fill="#e0e0e0" stroke="#999999" points="704.5,-19 652.5,-19 652.5,0 704.5,0 704.5,-19"/>
<text text-anchor="middle" x="678.5" y="-7" font-family="Helvetica,sans-Serif" font-size="10.00">sstream</text>
</a>
</g>
</g>
<!-- Node25&#45;&gt;Node27 -->
<g id="edge37" class="edge">
<title>Node25&#45;&gt;Node27</title>
<path fill="none" stroke="#63b8ff" d="M626.19,-54.51C635.2,-46.93 648.33,-35.88 659.18,-26.75"/>
<polygon fill="#63b8ff" stroke="#63b8ff" points="661.41,-29.45 666.81,-20.33 656.91,-24.09 661.41,-29.45"/>
</g>
<!-- Node29 -->
<g id="node29" class="node">
<title>Node29</title>
<g id="a_node29"><a xlink:href="../../d4/dd2/_structure_node_impl_8h.html" target="_top" xlink:title=" ">
<polygon fill="white" stroke="#666666" points="317,-294 210,-294 210,-275 317,-275 317,-294"/>
<text text-anchor="middle" x="263.5" y="-282" font-family="Helvetica,sans-Serif" font-size="10.00">StructureNodeImpl.h</text>
</a>
</g>
</g>
<!-- Node28&#45;&gt;Node29 -->
<g id="edge40" class="edge">
<title>Node28&#45;&gt;Node29</title>
<path fill="none" stroke="#63b8ff" d="M261,-329.75C261.36,-323.27 261.88,-314.16 262.35,-305.9"/>
<polygon fill="#63b8ff" stroke="#63b8ff" points="265.84,-306.13 262.91,-295.95 258.85,-305.74 265.84,-306.13"/>
</g>
<!-- Node29&#45;&gt;Node3 -->
<g id="edge41" class="edge">
<title>Node29&#45;&gt;Node3</title>
<path fill="none" stroke="#63b8ff" d="M278.26,-274.51C291.46,-266.47 311.06,-254.53 326.51,-245.11"/>
<polygon fill="#63b8ff" stroke="#63b8ff" points="327.95,-248.34 334.67,-240.15 324.31,-242.36 327.95,-248.34"/>
</g>
</g>
</svg>
        <g id="navigator" transform="translate(0 0)" fill="#404254">
                <rect fill="#f2f5e9" fill-opacity="0.5" stroke="#606060" stroke-width=".5" x="0" y="0" width="60" height="60"/>
                <use id="zoomplus" xlink:href="#zoomPlus" x="17" y="9" onmousedown="handleZoom(evt,'in')"/>
                <use id="zoomminus" xlink:href="#zoomMin" x="42" y="9" onmousedown="handleZoom(evt,'out')"/>
                <use id="reset" xlink:href="#resetDef" x="30" y="36" onmousedown="handleReset()"/>
                <g id="arrowUp" xlink:href="#dirArrow" transform="translate(30 24)" onmousedown="handlePan(0,-1)">
                  <use xlink:href="#rim" fill="#404040">
                        <set attributeName="fill" to="#808080" begin="arrowUp.mouseover" end="arrowUp.mouseout"/>
                  </use>
                  <path fill="none" stroke="white" stroke-width="1.5" d="M0,-3.0v7 M-2.5,-0.5L0,-3.0L2.5,-0.5"/>
                </g>
                <g id="arrowRight" xlink:href="#dirArrow" transform="rotate(90) translate(36 -43)" onmousedown="handlePan(1,0)">
                  <use xlink:href="#rim" fill="#404040">
                        <set attributeName="fill" to="#808080" begin="arrowRight.mouseover" end="arrowRight.mouseout"/>
                  </use>
                  <path fill="none" stroke="white" stroke-width="1.5" d="M0,-3.0v7 M-2.5,-0.5L0,-3.0L2.5,-0.5"/>
                </g>
                <g id="arrowDown" xlink:href="#dirArrow" transform="rotate(180) translate(-30 -48)" onmousedown="handlePan(0,1)">
                  <use xlink:href="#rim" fill="#404040">
                        <set attributeName="fill" to="#808080" begin="arrowDown.mouseover" end="arrowDown.mouseout"/>
                  </use>
                  <path fill="none" stroke="white" stroke-width="1.5" d="M0,-3.0v7 M-2.5,-0.5L0,-3.0L2.5,-0.5"/>
                </g>
                <g id="arrowLeft" xlink:href="#dirArrow" transform="rotate(270) translate(-36 17)" onmousedown="handlePan(-1,0)">
                  <use xlink:href="#rim" fill="#404040">
                        <set attributeName="fill" to="#808080" begin="arrowLeft.mouseover" end="arrowLeft.mouseout"/>
                  </use>
                  <path fill="none" stroke="white" stroke-width="1.5" d="M0,-3.0v7 M-2.5,-0.5L0,-3.0L2.5,-0.5"/>
                </g>
        </g>
        <svg viewBox="0 0 15 15" width="100%" height="30px" preserveAspectRatio="xMaxYMin meet">
         <g id="arrow_out" transform="scale(0.3 0.3)">
          <a xlink:href="_compressed_vector_node_impl_8cpp__incl_org.svg" target="_base">
           <rect id="button" ry="5" rx="5" y="6" x="6" height="38" width="38"
                fill="#f2f5e9" fill-opacity="0.5" stroke="#606060" stroke-width="1.0"/>
           <path id="arrow"
             d="M 11.500037,31.436501 C 11.940474,20.09759 22.043105,11.32322 32.158766,21.979434 L 37.068811,17.246167 C 37.068811,17.246167 37.088388,32 37.088388,32 L 22.160133,31.978069 C 22.160133,31.978069 26.997745,27.140456 26.997745,27.140456 C 18.528582,18.264221 13.291696,25.230495 11.500037,31.436501 z"
             style="fill:#404040;"/>
          </a>
         </g>
        </svg>
</svg>
