<?xml version="1.0" encoding="UTF-8" standalone="no"?>
<!DOCTYPE svg PUBLIC "-//W3C//DTD SVG 1.1//EN"
 "http://www.w3.org/Graphics/SVG/1.1/DTD/svg11.dtd">
<!-- Generated by graphviz version 2.49.0 (20210828.1703)
 -->
<!-- Title: CompressedVectorNodeImpl.cpp Pages: 1 -->
<svg width="678pt" height="420pt"
 viewBox="0.00 0.00 678.03 420.00" xmlns="http://www.w3.org/2000/svg" xmlns:xlink="http://www.w3.org/1999/xlink">
<g id="graph0" class="graph" transform="scale(1 1) rotate(0) translate(4 416)">
<title>CompressedVectorNodeImpl.cpp</title>
<polygon fill="white" stroke="transparent" points="-4,4 -4,-416 674.03,-416 674.03,4 -4,4"/>
<!-- Node1 -->
<g id="node1" class="node">
<title>Node1</title>
<g id="a_node1"><a xlink:title=" ">
<polygon fill="#bfbfbf" stroke="black" points="270,-392.5 270,-411.5 433,-411.5 433,-392.5 270,-392.5"/>
<text text-anchor="middle" x="351.5" y="-399.5" font-family="Helvetica,sans-Serif" font-size="10.00">CompressedVectorNodeImpl.cpp</text>
</a>
</g>
</g>
<!-- Node2 -->
<g id="node2" class="node">
<title>Node2</title>
<g id="a_node2"><a xlink:href="../../da/dbb/_compressed_vector_node_impl_8h.html" target="_top" xlink:title=" ">
<polygon fill="white" stroke="black" points="204,-336.5 204,-355.5 357,-355.5 357,-336.5 204,-336.5"/>
<text text-anchor="middle" x="280.5" y="-343.5" font-family="Helvetica,sans-Serif" font-size="10.00">CompressedVectorNodeImpl.h</text>
</a>
</g>
</g>
<!-- Node1&#45;&gt;Node2 -->
<g id="edge1" class="edge">
<title>Node1&#45;&gt;Node2</title>
<path fill="none" stroke="midnightblue" d="M340.09,-392.32C329.39,-384.18 313.16,-371.84 300.34,-362.09"/>
<polygon fill="midnightblue" stroke="midnightblue" points="302.19,-359.1 292.11,-355.83 297.96,-364.67 302.19,-359.1"/>
</g>
<!-- Node17 -->
<g id="node17" class="node">
<title>Node17</title>
<g id="a_node17"><a xlink:href="../../dd/d41/_checked_file_8h.html" target="_top" xlink:title=" ">
<polygon fill="white" stroke="black" points="105.5,-336.5 105.5,-355.5 185.5,-355.5 185.5,-336.5 105.5,-336.5"/>
<text text-anchor="middle" x="145.5" y="-343.5" font-family="Helvetica,sans-Serif" font-size="10.00">CheckedFile.h</text>
</a>
</g>
</g>
<!-- Node1&#45;&gt;Node17 -->
<g id="edge19" class="edge">
<title>Node1&#45;&gt;Node17</title>
<path fill="none" stroke="midnightblue" d="M318.86,-392.44C283.45,-383.16 226.79,-368.31 187.95,-358.13"/>
<polygon fill="midnightblue" stroke="midnightblue" points="188.55,-354.67 177.99,-355.52 186.77,-361.44 188.55,-354.67"/>
</g>
<!-- Node19 -->
<g id="node19" class="node">
<title>Node19</title>
<g id="a_node19"><a xlink:href="../../da/db5/_compressed_vector_reader_impl_8h.html" target="_top" xlink:title=" ">
<polygon fill="white" stroke="black" points="489.5,-336.5 489.5,-355.5 651.5,-355.5 651.5,-336.5 489.5,-336.5"/>
<text text-anchor="middle" x="570.5" y="-343.5" font-family="Helvetica,sans-Serif" font-size="10.00">CompressedVectorReaderImpl.h</text>
</a>
</g>
</g>
<!-- Node1&#45;&gt;Node19 -->
<g id="edge22" class="edge">
<title>Node1&#45;&gt;Node19</title>
<path fill="none" stroke="midnightblue" d="M386.2,-392.44C424.08,-383.1 484.85,-368.12 526.16,-357.93"/>
<polygon fill="midnightblue" stroke="midnightblue" points="527.09,-361.31 535.96,-355.52 525.41,-354.51 527.09,-361.31"/>
</g>
<!-- Node22 -->
<g id="node22" class="node">
<title>Node22</title>
<g id="a_node22"><a xlink:href="../../d9/d8f/_compressed_vector_writer_impl_8h.html" target="_top" xlink:title=" ">
<polygon fill="white" stroke="black" points="0,-280.5 0,-299.5 155,-299.5 155,-280.5 0,-280.5"/>
<text text-anchor="middle" x="77.5" y="-287.5" font-family="Helvetica,sans-Serif" font-size="10.00">CompressedVectorWriterImpl.h</text>
</a>
</g>
</g>
<!-- Node1&#45;&gt;Node22 -->
<g id="edge26" class="edge">
<title>Node1&#45;&gt;Node22</title>
<path fill="none" stroke="midnightblue" d="M269.79,-395.84C205.12,-390.12 121.65,-378.54 96.5,-356 83.52,-344.37 79.2,-324.42 77.87,-309.68"/>
<polygon fill="midnightblue" stroke="midnightblue" points="81.36,-309.45 77.33,-299.65 74.37,-309.82 81.36,-309.45"/>
</g>
<!-- Node26 -->
<g id="node26" class="node">
<title>Node26</title>
<g id="a_node26"><a xlink:href="../../da/d09/_image_file_impl_8h.html" target="_top" xlink:title=" ">
<polygon fill="white" stroke="black" points="497.5,-224.5 497.5,-243.5 585.5,-243.5 585.5,-224.5 497.5,-224.5"/>
<text text-anchor="middle" x="541.5" y="-231.5" font-family="Helvetica,sans-Serif" font-size="10.00">ImageFileImpl.h</text>
</a>
</g>
</g>
<!-- Node1&#45;&gt;Node26 -->
<g id="edge33" class="edge">
<title>Node1&#45;&gt;Node26</title>
<path fill="none" stroke="midnightblue" d="M433.14,-400.72C514.59,-398.5 631.64,-389.37 660.5,-356 696.4,-314.49 617.07,-269.33 571.18,-247.81"/>
<polygon fill="midnightblue" stroke="midnightblue" points="572.5,-244.56 561.95,-243.58 569.59,-250.93 572.5,-244.56"/>
</g>
<!-- Node27 -->
<g id="node27" class="node">
<title>Node27</title>
<g id="a_node27"><a xlink:href="../../d4/dd8/_vector_node_impl_8h.html" target="_top" xlink:title=" ">
<polygon fill="white" stroke="black" points="375.5,-336.5 375.5,-355.5 471.5,-355.5 471.5,-336.5 375.5,-336.5"/>
<text text-anchor="middle" x="423.5" y="-343.5" font-family="Helvetica,sans-Serif" font-size="10.00">VectorNodeImpl.h</text>
</a>
</g>
</g>
<!-- Node1&#45;&gt;Node27 -->
<g id="edge36" class="edge">
<title>Node1&#45;&gt;Node27</title>
<path fill="none" stroke="midnightblue" d="M363.07,-392.32C373.92,-384.18 390.38,-371.84 403.38,-362.09"/>
<polygon fill="midnightblue" stroke="midnightblue" points="405.82,-364.63 411.72,-355.83 401.62,-359.03 405.82,-364.63"/>
</g>
<!-- Node3 -->
<g id="node3" class="node">
<title>Node3</title>
<g id="a_node3"><a xlink:href="../../df/d7b/_node_impl_8h.html" target="_top" xlink:title=" ">
<polygon fill="white" stroke="black" points="278.5,-224.5 278.5,-243.5 346.5,-243.5 346.5,-224.5 278.5,-224.5"/>
<text text-anchor="middle" x="312.5" y="-231.5" font-family="Helvetica,sans-Serif" font-size="10.00">NodeImpl.h</text>
</a>
</g>
</g>
<!-- Node2&#45;&gt;Node3 -->
<g id="edge2" class="edge">
<title>Node2&#45;&gt;Node3</title>
<path fill="none" stroke="midnightblue" d="M283.01,-336.37C288.2,-318.54 300.2,-277.3 307.18,-253.27"/>
<polygon fill="midnightblue" stroke="midnightblue" points="310.57,-254.17 310,-243.59 303.85,-252.22 310.57,-254.17"/>
</g>
<!-- Node4 -->
<g id="node4" class="node">
<title>Node4</title>
<g id="a_node4"><a xlink:href="../../db/d1f/_common_8h.html" target="_top" xlink:title=" ">
<polygon fill="white" stroke="black" points="248,-168.5 248,-187.5 313,-187.5 313,-168.5 248,-168.5"/>
<text text-anchor="middle" x="280.5" y="-175.5" font-family="Helvetica,sans-Serif" font-size="10.00">Common.h</text>
</a>
</g>
</g>
<!-- Node3&#45;&gt;Node4 -->
<g id="edge3" class="edge">
<title>Node3&#45;&gt;Node4</title>
<path fill="none" stroke="midnightblue" d="M307.22,-224.08C302.79,-216.61 296.34,-205.72 290.88,-196.52"/>
<polygon fill="midnightblue" stroke="midnightblue" points="293.79,-194.57 285.69,-187.75 287.77,-198.14 293.79,-194.57"/>
</g>
<!-- Node5 -->
<g id="node5" class="node">
<title>Node5</title>
<g id="a_node5"><a xlink:title=" ">
<polygon fill="white" stroke="#bfbfbf" points="103.5,-112.5 103.5,-131.5 155.5,-131.5 155.5,-112.5 103.5,-112.5"/>
<text text-anchor="middle" x="129.5" y="-119.5" font-family="Helvetica,sans-Serif" font-size="10.00">iomanip</text>
</a>
</g>
</g>
<!-- Node4&#45;&gt;Node5 -->
<g id="edge4" class="edge">
<title>Node4&#45;&gt;Node5</title>
<path fill="none" stroke="midnightblue" d="M256.57,-168.44C231.28,-159.4 191.2,-145.06 162.82,-134.92"/>
<polygon fill="midnightblue" stroke="midnightblue" points="163.91,-131.59 153.31,-131.52 161.55,-138.18 163.91,-131.59"/>
</g>
<!-- Node6 -->
<g id="node6" class="node">
<title>Node6</title>
<g id="a_node6"><a xlink:title=" ">
<polygon fill="white" stroke="#bfbfbf" points="366,-0.5 366,-19.5 421,-19.5 421,-0.5 366,-0.5"/>
<text text-anchor="middle" x="393.5" y="-7.5" font-family="Helvetica,sans-Serif" font-size="10.00">iostream</text>
</a>
</g>
</g>
<!-- Node4&#45;&gt;Node6 -->
<g id="edge5" class="edge">
<title>Node4&#45;&gt;Node6</title>
<path fill="none" stroke="midnightblue" d="M313.41,-169.62C334.19,-163.2 359.8,-151.74 374.5,-132 396.97,-101.83 397.46,-55.57 395.61,-29.87"/>
<polygon fill="midnightblue" stroke="midnightblue" points="399.07,-29.28 394.67,-19.64 392.1,-29.92 399.07,-29.28"/>
</g>
<!-- Node7 -->
<g id="node7" class="node">
<title>Node7</title>
<g id="a_node7"><a xlink:title=" ">
<polygon fill="white" stroke="#bfbfbf" points="265.5,-112.5 265.5,-131.5 295.5,-131.5 295.5,-112.5 265.5,-112.5"/>
<text text-anchor="middle" x="280.5" y="-119.5" font-family="Helvetica,sans-Serif" font-size="10.00">set</text>
</a>
</g>
</g>
<!-- Node4&#45;&gt;Node7 -->
<g id="edge6" class="edge">
<title>Node4&#45;&gt;Node7</title>
<path fill="none" stroke="midnightblue" d="M280.5,-168.08C280.5,-161.01 280.5,-150.86 280.5,-141.99"/>
<polygon fill="midnightblue" stroke="midnightblue" points="284,-141.75 280.5,-131.75 277,-141.75 284,-141.75"/>
</g>
<!-- Node8 -->
<g id="node8" class="node">
<title>Node8</title>
<g id="a_node8"><a xlink:title=" ">
<polygon fill="white" stroke="#bfbfbf" points="313.5,-112.5 313.5,-131.5 365.5,-131.5 365.5,-112.5 313.5,-112.5"/>
<text text-anchor="middle" x="339.5" y="-119.5" font-family="Helvetica,sans-Serif" font-size="10.00">sstream</text>
</a>
</g>
</g>
<!-- Node4&#45;&gt;Node8 -->
<g id="edge7" class="edge">
<title>Node4&#45;&gt;Node8</title>
<path fill="none" stroke="midnightblue" d="M289.98,-168.32C298.7,-160.34 311.84,-148.31 322.4,-138.65"/>
<polygon fill="midnightblue" stroke="midnightblue" points="324.83,-141.17 329.85,-131.83 320.11,-136 324.83,-141.17"/>
</g>
<!-- Node9 -->
<g id="node9" class="node">
<title>Node9</title>
<g id="a_node9"><a xlink:title=" ">
<polygon fill="white" stroke="#bfbfbf" points="461,-0.5 461,-19.5 502,-19.5 502,-0.5 461,-0.5"/>
<text text-anchor="middle" x="481.5" y="-7.5" font-family="Helvetica,sans-Serif" font-size="10.00">string</text>
</a>
</g>
</g>
<!-- Node4&#45;&gt;Node9 -->
<g id="edge8" class="edge">
<title>Node4&#45;&gt;Node9</title>
<path fill="none" stroke="midnightblue" d="M313.38,-172.23C361.59,-163.21 449.51,-138.62 484.5,-76 492.41,-61.84 490.5,-43.11 487.3,-29.4"/>
<polygon fill="midnightblue" stroke="midnightblue" points="490.65,-28.37 484.62,-19.65 483.9,-30.23 490.65,-28.37"/>
</g>
<!-- Node10 -->
<g id="node10" class="node">
<title>Node10</title>
<g id="a_node10"><a xlink:title=" ">
<polygon fill="white" stroke="#bfbfbf" points="53.5,-56.5 53.5,-75.5 97.5,-75.5 97.5,-56.5 53.5,-56.5"/>
<text text-anchor="middle" x="75.5" y="-63.5" font-family="Helvetica,sans-Serif" font-size="10.00">vector</text>
</a>
</g>
</g>
<!-- Node4&#45;&gt;Node10 -->
<g id="edge9" class="edge">
<title>Node4&#45;&gt;Node10</title>
<path fill="none" stroke="midnightblue" d="M247.95,-173.07C200.69,-166.73 116.31,-152.81 94.5,-132 82.02,-120.09 77.6,-100.47 76.11,-85.9"/>
<polygon fill="midnightblue" stroke="midnightblue" points="79.57,-85.29 75.44,-75.54 72.59,-85.74 79.57,-85.29"/>
</g>
<!-- Node11 -->
<g id="node11" class="node">
<title>Node11</title>
<g id="a_node11"><a xlink:href="../../d1/df2/_e57_format_8h.html" target="_top" xlink:title="header file for the E57 API">
<polygon fill="white" stroke="black" points="173.5,-112.5 173.5,-131.5 247.5,-131.5 247.5,-112.5 173.5,-112.5"/>
<text text-anchor="middle" x="210.5" y="-119.5" font-family="Helvetica,sans-Serif" font-size="10.00">E57Format.h</text>
</a>
</g>
</g>
<!-- Node4&#45;&gt;Node11 -->
<g id="edge10" class="edge">
<title>Node4&#45;&gt;Node11</title>
<path fill="none" stroke="midnightblue" d="M269.25,-168.32C258.7,-160.18 242.7,-147.84 230.06,-138.09"/>
<polygon fill="midnightblue" stroke="midnightblue" points="232.01,-135.17 221.95,-131.83 227.73,-140.71 232.01,-135.17"/>
</g>
<!-- Node11&#45;&gt;Node10 -->
<g id="edge13" class="edge">
<title>Node11&#45;&gt;Node10</title>
<path fill="none" stroke="midnightblue" d="M189.11,-112.44C166.79,-103.52 131.6,-89.44 106.29,-79.32"/>
<polygon fill="midnightblue" stroke="midnightblue" points="107.38,-75.98 96.79,-75.52 104.78,-82.48 107.38,-75.98"/>
</g>
<!-- Node12 -->
<g id="node12" class="node">
<title>Node12</title>
<g id="a_node12"><a xlink:title=" ">
<polygon fill="white" stroke="#bfbfbf" points="190.5,-56.5 190.5,-75.5 230.5,-75.5 230.5,-56.5 190.5,-56.5"/>
<text text-anchor="middle" x="210.5" y="-63.5" font-family="Helvetica,sans-Serif" font-size="10.00">cfloat</text>
</a>
</g>
</g>
<!-- Node11&#45;&gt;Node12 -->
<g id="edge11" class="edge">
<title>Node11&#45;&gt;Node12</title>
<path fill="none" stroke="midnightblue" d="M210.5,-112.08C210.5,-105.01 210.5,-94.86 210.5,-85.99"/>
<polygon fill="midnightblue" stroke="midnightblue" points="214,-85.75 210.5,-75.75 207,-85.75 214,-85.75"/>
</g>
<!-- Node13 -->
<g id="node13" class="node">
<title>Node13</title>
<g id="a_node13"><a xlink:title=" ">
<polygon fill="white" stroke="#bfbfbf" points="422,-56.5 422,-75.5 475,-75.5 475,-56.5 422,-56.5"/>
<text text-anchor="middle" x="448.5" y="-63.5" font-family="Helvetica,sans-Serif" font-size="10.00">memory</text>
</a>
</g>
</g>
<!-- Node11&#45;&gt;Node13 -->
<g id="edge12" class="edge">
<title>Node11&#45;&gt;Node13</title>
<path fill="none" stroke="midnightblue" d="M247.69,-112.56C292.56,-102.38 367.53,-85.37 412.07,-75.27"/>
<polygon fill="midnightblue" stroke="midnightblue" points="412.91,-78.66 421.89,-73.04 411.36,-71.84 412.91,-78.66"/>
</g>
<!-- Node14 -->
<g id="node14" class="node">
<title>Node14</title>
<g id="a_node14"><a xlink:href="../../d4/d6e/_e57_exception_8h.html" target="_top" xlink:title=" ">
<polygon fill="white" stroke="black" points="275,-56.5 275,-75.5 362,-75.5 362,-56.5 275,-56.5"/>
<text text-anchor="middle" x="318.5" y="-63.5" font-family="Helvetica,sans-Serif" font-size="10.00">E57Exception.h</text>
</a>
</g>
</g>
<!-- Node11&#45;&gt;Node14 -->
<g id="edge14" class="edge">
<title>Node11&#45;&gt;Node14</title>
<path fill="none" stroke="midnightblue" d="M227.85,-112.32C245.17,-103.66 272.02,-90.24 292,-80.25"/>
<polygon fill="midnightblue" stroke="midnightblue" points="293.81,-83.26 301.19,-75.65 290.68,-77 293.81,-83.26"/>
</g>
<!-- Node14&#45;&gt;Node6 -->
<g id="edge16" class="edge">
<title>Node14&#45;&gt;Node6</title>
<path fill="none" stroke="midnightblue" d="M330.55,-56.32C341.96,-48.11 359.33,-35.6 372.93,-25.81"/>
<polygon fill="midnightblue" stroke="midnightblue" points="375.16,-28.52 381.23,-19.83 371.07,-22.84 375.16,-28.52"/>
</g>
<!-- Node14&#45;&gt;Node9 -->
<g id="edge17" class="edge">
<title>Node14&#45;&gt;Node9</title>
<path fill="none" stroke="midnightblue" d="M344.33,-56.44C373.36,-46.82 420.45,-31.22 451.2,-21.04"/>
<polygon fill="midnightblue" stroke="midnightblue" points="452.56,-24.27 460.95,-17.81 450.36,-17.63 452.56,-24.27"/>
</g>
<!-- Node15 -->
<g id="node15" class="node">
<title>Node15</title>
<g id="a_node15"><a xlink:title=" ">
<polygon fill="white" stroke="#bfbfbf" points="289,-0.5 289,-19.5 348,-19.5 348,-0.5 289,-0.5"/>
<text text-anchor="middle" x="318.5" y="-7.5" font-family="Helvetica,sans-Serif" font-size="10.00">exception</text>
</a>
</g>
</g>
<!-- Node14&#45;&gt;Node15 -->
<g id="edge15" class="edge">
<title>Node14&#45;&gt;Node15</title>
<path fill="none" stroke="midnightblue" d="M318.5,-56.08C318.5,-49.01 318.5,-38.86 318.5,-29.99"/>
<polygon fill="midnightblue" stroke="midnightblue" points="322,-29.75 318.5,-19.75 315,-29.75 322,-29.75"/>
</g>
<!-- Node16 -->
<g id="node16" class="node">
<title>Node16</title>
<g id="a_node16"><a xlink:title=" ">
<polygon fill="white" stroke="#bfbfbf" points="198.5,-0.5 198.5,-19.5 270.5,-19.5 270.5,-0.5 198.5,-0.5"/>
<text text-anchor="middle" x="234.5" y="-7.5" font-family="Helvetica,sans-Serif" font-size="10.00">E57Export.h</text>
</a>
</g>
</g>
<!-- Node14&#45;&gt;Node16 -->
<g id="edge18" class="edge">
<title>Node14&#45;&gt;Node16</title>
<path fill="none" stroke="midnightblue" d="M305,-56.32C291.9,-47.9 271.79,-34.97 256.39,-25.07"/>
<polygon fill="midnightblue" stroke="midnightblue" points="258.27,-22.12 247.96,-19.65 254.48,-28.01 258.27,-22.12"/>
</g>
<!-- Node17&#45;&gt;Node4 -->
<g id="edge21" class="edge">
<title>Node17&#45;&gt;Node4</title>
<path fill="none" stroke="midnightblue" d="M152.76,-336.08C174.38,-309.49 238.59,-230.54 266.87,-195.76"/>
<polygon fill="midnightblue" stroke="midnightblue" points="269.94,-197.53 273.53,-187.57 264.51,-193.12 269.94,-197.53"/>
</g>
<!-- Node18 -->
<g id="node18" class="node">
<title>Node18</title>
<g id="a_node18"><a xlink:title=" ">
<polygon fill="white" stroke="#bfbfbf" points="226.5,-280.5 226.5,-299.5 284.5,-299.5 284.5,-280.5 226.5,-280.5"/>
<text text-anchor="middle" x="255.5" y="-287.5" font-family="Helvetica,sans-Serif" font-size="10.00">algorithm</text>
</a>
</g>
</g>
<!-- Node17&#45;&gt;Node18 -->
<g id="edge20" class="edge">
<title>Node17&#45;&gt;Node18</title>
<path fill="none" stroke="midnightblue" d="M163.17,-336.32C180.89,-327.62 208.4,-314.12 228.79,-304.11"/>
<polygon fill="midnightblue" stroke="midnightblue" points="230.44,-307.2 237.87,-299.65 227.35,-300.92 230.44,-307.2"/>
</g>
<!-- Node20 -->
<g id="node20" class="node">
<title>Node20</title>
<g id="a_node20"><a xlink:href="../../d4/d28/_decode_channel_8h.html" target="_top" xlink:title=" ">
<polygon fill="white" stroke="black" points="502,-280.5 502,-299.5 599,-299.5 599,-280.5 502,-280.5"/>
<text text-anchor="middle" x="550.5" y="-287.5" font-family="Helvetica,sans-Serif" font-size="10.00">DecodeChannel.h</text>
</a>
</g>
</g>
<!-- Node19&#45;&gt;Node20 -->
<g id="edge23" class="edge">
<title>Node19&#45;&gt;Node20</title>
<path fill="none" stroke="midnightblue" d="M567.2,-336.08C564.52,-328.85 560.65,-318.41 557.31,-309.4"/>
<polygon fill="midnightblue" stroke="midnightblue" points="560.5,-307.91 553.74,-299.75 553.93,-310.34 560.5,-307.91"/>
</g>
<!-- Node21 -->
<g id="node21" class="node">
<title>Node21</title>
<g id="a_node21"><a xlink:href="../../d9/d00/_decoder_8h.html" target="_top" xlink:title=" ">
<polygon fill="white" stroke="black" points="391.5,-224.5 391.5,-243.5 453.5,-243.5 453.5,-224.5 391.5,-224.5"/>
<text text-anchor="middle" x="422.5" y="-231.5" font-family="Helvetica,sans-Serif" font-size="10.00">Decoder.h</text>
</a>
</g>
</g>
<!-- Node20&#45;&gt;Node21 -->
<g id="edge24" class="edge">
<title>Node20&#45;&gt;Node21</title>
<path fill="none" stroke="midnightblue" d="M530.22,-280.44C509.15,-271.56 475.98,-257.56 452.01,-247.45"/>
<polygon fill="midnightblue" stroke="midnightblue" points="453.26,-244.18 442.69,-243.52 450.54,-250.63 453.26,-244.18"/>
</g>
<!-- Node21&#45;&gt;Node4 -->
<g id="edge25" class="edge">
<title>Node21&#45;&gt;Node4</title>
<path fill="none" stroke="midnightblue" d="M400,-224.44C376.42,-215.48 339.18,-201.31 312.54,-191.18"/>
<polygon fill="midnightblue" stroke="midnightblue" points="313.49,-187.8 302.9,-187.52 311,-194.34 313.49,-187.8"/>
</g>
<!-- Node23 -->
<g id="node23" class="node">
<title>Node23</title>
<g id="a_node23"><a xlink:href="../../df/d4b/_encoder_8h.html" target="_top" xlink:title=" ">
<polygon fill="white" stroke="black" points="108.5,-224.5 108.5,-243.5 170.5,-243.5 170.5,-224.5 108.5,-224.5"/>
<text text-anchor="middle" x="139.5" y="-231.5" font-family="Helvetica,sans-Serif" font-size="10.00">Encoder.h</text>
</a>
</g>
</g>
<!-- Node22&#45;&gt;Node23 -->
<g id="edge27" class="edge">
<title>Node22&#45;&gt;Node23</title>
<path fill="none" stroke="midnightblue" d="M87.46,-280.32C96.63,-272.34 110.44,-260.31 121.53,-250.65"/>
<polygon fill="midnightblue" stroke="midnightblue" points="124.12,-253.04 129.36,-243.83 119.52,-247.76 124.12,-253.04"/>
</g>
<!-- Node24 -->
<g id="node24" class="node">
<title>Node24</title>
<g id="a_node24"><a xlink:href="../../d7/dbe/_packet_8h.html" target="_top" xlink:title=" ">
<polygon fill="white" stroke="black" points="35,-224.5 35,-243.5 90,-243.5 90,-224.5 35,-224.5"/>
<text text-anchor="middle" x="62.5" y="-231.5" font-family="Helvetica,sans-Serif" font-size="10.00">Packet.h</text>
</a>
</g>
</g>
<!-- Node22&#45;&gt;Node24 -->
<g id="edge29" class="edge">
<title>Node22&#45;&gt;Node24</title>
<path fill="none" stroke="midnightblue" d="M75.02,-280.08C73.01,-272.85 70.11,-262.41 67.61,-253.4"/>
<polygon fill="midnightblue" stroke="midnightblue" points="70.98,-252.45 64.93,-243.75 64.24,-254.32 70.98,-252.45"/>
</g>
<!-- Node23&#45;&gt;Node4 -->
<g id="edge28" class="edge">
<title>Node23&#45;&gt;Node4</title>
<path fill="none" stroke="midnightblue" d="M161.84,-224.44C185.25,-215.48 222.24,-201.31 248.69,-191.18"/>
<polygon fill="midnightblue" stroke="midnightblue" points="250.18,-194.36 258.26,-187.52 247.67,-187.82 250.18,-194.36"/>
</g>
<!-- Node24&#45;&gt;Node4 -->
<g id="edge32" class="edge">
<title>Node24&#45;&gt;Node4</title>
<path fill="none" stroke="midnightblue" d="M90.11,-226.16C127.42,-216.92 194.28,-200.36 238.02,-189.52"/>
<polygon fill="midnightblue" stroke="midnightblue" points="238.93,-192.9 247.79,-187.1 237.24,-186.11 238.93,-192.9"/>
</g>
<!-- Node24&#45;&gt;Node10 -->
<g id="edge31" class="edge">
<title>Node24&#45;&gt;Node10</title>
<path fill="none" stroke="midnightblue" d="M61.01,-224.41C59.52,-215.38 57.35,-200.74 56.5,-188 54.07,-151.37 63.56,-109.11 70,-85.48"/>
<polygon fill="midnightblue" stroke="midnightblue" points="73.39,-86.32 72.77,-75.75 66.66,-84.41 73.39,-86.32"/>
</g>
<!-- Node25 -->
<g id="node25" class="node">
<title>Node25</title>
<g id="a_node25"><a xlink:title=" ">
<polygon fill="white" stroke="#bfbfbf" points="66,-168.5 66,-187.5 111,-187.5 111,-168.5 66,-168.5"/>
<text text-anchor="middle" x="88.5" y="-175.5" font-family="Helvetica,sans-Serif" font-size="10.00">cstdint</text>
</a>
</g>
</g>
<!-- Node24&#45;&gt;Node25 -->
<g id="edge30" class="edge">
<title>Node24&#45;&gt;Node25</title>
<path fill="none" stroke="midnightblue" d="M66.79,-224.08C70.35,-216.69 75.52,-205.95 79.92,-196.81"/>
<polygon fill="midnightblue" stroke="midnightblue" points="83.1,-198.28 84.29,-187.75 76.79,-195.24 83.1,-198.28"/>
</g>
<!-- Node26&#45;&gt;Node4 -->
<g id="edge35" class="edge">
<title>Node26&#45;&gt;Node4</title>
<path fill="none" stroke="midnightblue" d="M500.14,-224.44C451.7,-214.42 371.86,-197.9 322.95,-187.78"/>
<polygon fill="midnightblue" stroke="midnightblue" points="323.51,-184.32 313,-185.73 322.09,-191.18 323.51,-184.32"/>
</g>
<!-- Node26&#45;&gt;Node13 -->
<g id="edge34" class="edge">
<title>Node26&#45;&gt;Node13</title>
<path fill="none" stroke="midnightblue" d="M536.5,-224.08C521.73,-197.72 478.12,-119.88 458.39,-84.66"/>
<polygon fill="midnightblue" stroke="midnightblue" points="461.24,-82.58 453.3,-75.57 455.13,-86 461.24,-82.58"/>
</g>
<!-- Node28 -->
<g id="node28" class="node">
<title>Node28</title>
<g id="a_node28"><a xlink:href="../../d4/dd2/_structure_node_impl_8h.html" target="_top" xlink:title=" ">
<polygon fill="white" stroke="black" points="354.5,-280.5 354.5,-299.5 462.5,-299.5 462.5,-280.5 354.5,-280.5"/>
<text text-anchor="middle" x="408.5" y="-287.5" font-family="Helvetica,sans-Serif" font-size="10.00">StructureNodeImpl.h</text>
</a>
</g>
</g>
<!-- Node27&#45;&gt;Node28 -->
<g id="edge37" class="edge">
<title>Node27&#45;&gt;Node28</title>
<path fill="none" stroke="midnightblue" d="M421.02,-336.08C419.01,-328.85 416.11,-318.41 413.61,-309.4"/>
<polygon fill="midnightblue" stroke="midnightblue" points="416.98,-308.45 410.93,-299.75 410.24,-310.32 416.98,-308.45"/>
</g>
<!-- Node28&#45;&gt;Node3 -->
<g id="edge38" class="edge">
<title>Node28&#45;&gt;Node3</title>
<path fill="none" stroke="midnightblue" d="M393.08,-280.32C377.96,-271.82 354.68,-258.73 337.03,-248.8"/>
<polygon fill="midnightblue" stroke="midnightblue" points="338.32,-245.51 327.89,-243.65 334.89,-251.61 338.32,-245.51"/>
</g>
</g>
</svg>
