<?xml version="1.0" encoding="UTF-8" standalone="no"?>
<!DOCTYPE svg PUBLIC "-//W3C//DTD SVG 1.1//EN"
 "http://www.w3.org/Graphics/SVG/1.1/DTD/svg11.dtd">
<!-- Generated by graphviz version 8.1.0 (20230707.0739)
 -->
<!-- Title: e57::PointStandardizedFieldsAvailable Pages: 1 -->
<svg width="218pt" height="116pt"
 viewBox="0.00 0.00 217.75 116.25" xmlns="http://www.w3.org/2000/svg" xmlns:xlink="http://www.w3.org/1999/xlink">
<g id="graph0" class="graph" transform="scale(1 1) rotate(0) translate(4 112.25)">
<title>e57::PointStandardizedFieldsAvailable</title>
<!-- Node1 -->
<g id="node1" class="node">
<title>Node1</title>
<g id="a_node1"><a xlink:title="Used to interrogate if standardized fields are available.">
<polygon fill="#999999" stroke="#666666" points="159,-30.5 15.5,-30.5 15.5,0 159,0 159,-30.5"/>
<text text-anchor="start" x="23.5" y="-17" font-family="Helvetica,sans-Serif" font-size="10.00">e57::PointStandardizedFields</text>
<text text-anchor="middle" x="87.25" y="-5.75" font-family="Helvetica,sans-Serif" font-size="10.00">Available</text>
</a>
</g>
</g>
<!-- Node2 -->
<g id="node2" class="node">
<title>Node2</title>
<g id="a_node2"><a xlink:title=" ">
<polygon fill="white" stroke="#666666" points="50.5,-108.25 0,-108.25 0,-89 50.5,-89 50.5,-108.25"/>
<text text-anchor="middle" x="25.25" y="-94.75" font-family="Helvetica,sans-Serif" font-size="10.00">uint32_t</text>
</a>
</g>
</g>
<!-- Node2&#45;&gt;Node1 -->
<g id="edge1" class="edge">
<title>Node2&#45;&gt;Node1</title>
<path fill="none" stroke="#9a32cd" stroke-dasharray="5,2" d="M21.08,-77.7C20.16,-68.21 20.73,-57.09 26,-48.5 30.53,-41.13 37.35,-35.35 44.83,-30.85"/>
<polygon fill="#9a32cd" stroke="#9a32cd" points="17.77,-78.2 22.8,-87.53 24.69,-77.11 17.77,-78.2"/>
<text text-anchor="middle" x="76.88" y="-61.5" font-family="Helvetica,sans-Serif" font-size="10.00"> columnIndexMaximum</text>
<text text-anchor="middle" x="76.88" y="-50.25" font-family="Helvetica,sans-Serif" font-size="10.00">rowIndexMaximum</text>
</g>
<!-- Node3 -->
<g id="node3" class="node">
<title>Node3</title>
<g id="a_node3"><a xlink:title=" ">
<polygon fill="white" stroke="#666666" points="171.88,-108.25 126.62,-108.25 126.62,-89 171.88,-89 171.88,-108.25"/>
<text text-anchor="middle" x="149.25" y="-94.75" font-family="Helvetica,sans-Serif" font-size="10.00">uint8_t</text>
</a>
</g>
</g>
<!-- Node3&#45;&gt;Node1 -->
<g id="edge2" class="edge">
<title>Node3&#45;&gt;Node1</title>
<path fill="none" stroke="#9a32cd" stroke-dasharray="5,2" d="M143.08,-78.46C139.42,-68.87 134.14,-57.44 127.25,-48.5 122.24,-42 115.66,-36.01 109.3,-31"/>
<polygon fill="#9a32cd" stroke="#9a32cd" points="140.03,-79.33 146.64,-87.61 146.64,-77.01 140.03,-79.33"/>
<text text-anchor="middle" x="174.5" y="-55.88" font-family="Helvetica,sans-Serif" font-size="10.00"> returnMaximum</text>
</g>
</g>
</svg>
