<svg height="115pt" viewBox="0 0 219.5 115" width="220pt" xmlns="http://www.w3.org/2000/svg"><g transform="translate(4 111)"><a xlink:title="Used to interrogate if standardized fields are available."><path d="m159.5-30h-144v30h144z" fill="#999" stroke="#666"/><text font-family="Helvetica,sans-Serif" font-size="10" x="23.5" y="-18">e57::PointStandardizedFields</text><text font-family="Helvetica,sans-Serif" font-size="10" text-anchor="middle" x="87.5" y="-7">Available</text></a><a xlink:title=""><path d="m51-107h-51v19h51z" fill="#fff" stroke="#666"/><text font-family="Helvetica,sans-Serif" font-size="10" text-anchor="middle" x="25.5" y="-95">uint32_t</text></a><g><path d="m21.6-77.77c-.99 9.57-.52 21.02 4.9 29.77 4.66 7.53 11.72 13.37 19.41 17.89" fill="none" stroke="#9a32cd" stroke-dasharray="5 2"/><path d="m18.18-78.56 5.03-9.32 1.88 10.43z" fill="#9a32cd" stroke="#9a32cd"/><g font-family="Helvetica,sans-Serif" font-size="10" text-anchor="middle"><text x="77.5" y="-62">columnIndexMaximum</text><text x="77.5" y="-51">rowIndexMaximum</text></g></g><a xlink:title=""><path d="m173.5-107h-46v19h46z" fill="#fff" stroke="#666"/><text font-family="Helvetica,sans-Serif" font-size="10" text-anchor="middle" x="150.5" y="-95">uint8_t</text></a><g><path d="m144.72-78.49c-3.67 9.66-9.08 21.42-16.22 30.49-5.25 6.67-12.17 12.75-18.83 17.79" fill="none" stroke="#9a32cd" stroke-dasharray="5 2"/><path d="m141.41-79.65 6.6-8.29.01 10.6z" fill="#9a32cd" stroke="#9a32cd"/><text font-family="Helvetica,sans-Serif" font-size="10" text-anchor="middle" x="176" y="-56.5">returnMaximum</text></g></g></svg>