<?xml version="1.0" encoding="UTF-8" standalone="no"?>
<!DOCTYPE svg PUBLIC "-//W3C//DTD SVG 1.1//EN"
 "http://www.w3.org/Graphics/SVG/1.1/DTD/svg11.dtd">
<!-- Generated by graphviz version 7.0.0 (20221023.0053)
 -->
<!-- Title: CompressedVectorNodeImpl.h Pages: 1 -->
<svg width="510pt" height="302pt"
 viewBox="0.00 0.00 509.50 302.00" xmlns="http://www.w3.org/2000/svg" xmlns:xlink="http://www.w3.org/1999/xlink">
<g id="graph0" class="graph" transform="scale(1 1) rotate(0) translate(4 298)">
<title>CompressedVectorNodeImpl.h</title>
<!-- Node1 -->
<g id="node1" class="node">
<title>Node1</title>
<g id="a_node1"><a xlink:title=" ">
<polygon fill="#999999" stroke="#666666" points="158.5,-294 7.5,-294 7.5,-275 158.5,-275 158.5,-294"/>
<text text-anchor="middle" x="83" y="-282" font-family="Helvetica,sans-Serif" font-size="10.00">CompressedVectorNodeImpl.h</text>
</a>
</g>
</g>
<!-- Node2 -->
<g id="node2" class="node">
<title>Node2</title>
<g id="a_node2"><a xlink:href="../../df/d7b/_node_impl_8h.html" target="_top" xlink:title=" ">
<polygon fill="white" stroke="#666666" points="116.5,-239 49.5,-239 49.5,-220 116.5,-220 116.5,-239"/>
<text text-anchor="middle" x="83" y="-227" font-family="Helvetica,sans-Serif" font-size="10.00">NodeImpl.h</text>
</a>
</g>
</g>
<!-- Node1&#45;&gt;Node2 -->
<g id="edge1" class="edge">
<title>Node1&#45;&gt;Node2</title>
<path fill="none" stroke="#63b8ff" d="M83,-274.75C83,-268.27 83,-259.16 83,-250.9"/>
<polygon fill="#63b8ff" stroke="#63b8ff" points="86.5,-250.96 83,-240.96 79.5,-250.96 86.5,-250.96"/>
</g>
<!-- Node3 -->
<g id="node3" class="node">
<title>Node3</title>
<g id="a_node3"><a xlink:href="../../db/d1f/_common_8h.html" target="_top" xlink:title=" ">
<polygon fill="white" stroke="#666666" points="115.5,-184 50.5,-184 50.5,-165 115.5,-165 115.5,-184"/>
<text text-anchor="middle" x="83" y="-172" font-family="Helvetica,sans-Serif" font-size="10.00">Common.h</text>
</a>
</g>
</g>
<!-- Node2&#45;&gt;Node3 -->
<g id="edge2" class="edge">
<title>Node2&#45;&gt;Node3</title>
<path fill="none" stroke="#63b8ff" d="M83,-219.75C83,-213.27 83,-204.16 83,-195.9"/>
<polygon fill="#63b8ff" stroke="#63b8ff" points="86.5,-195.96 83,-185.96 79.5,-195.96 86.5,-195.96"/>
</g>
<!-- Node4 -->
<g id="node4" class="node">
<title>Node4</title>
<g id="a_node4"><a xlink:title=" ">
<polygon fill="#e0e0e0" stroke="#999999" points="30,-129 0,-129 0,-110 30,-110 30,-129"/>
<text text-anchor="middle" x="15" y="-117" font-family="Helvetica,sans-Serif" font-size="10.00">set</text>
</a>
</g>
</g>
<!-- Node3&#45;&gt;Node4 -->
<g id="edge3" class="edge">
<title>Node3&#45;&gt;Node4</title>
<path fill="none" stroke="#63b8ff" d="M71.46,-164.51C61.54,-156.77 46.99,-145.43 35.14,-136.2"/>
<polygon fill="#63b8ff" stroke="#63b8ff" points="37.6,-133.68 27.56,-130.29 33.29,-139.2 37.6,-133.68"/>
</g>
<!-- Node5 -->
<g id="node5" class="node">
<title>Node5</title>
<g id="a_node5"><a xlink:title=" ">
<polygon fill="#e0e0e0" stroke="#999999" points="170.5,-19 129.5,-19 129.5,0 170.5,0 170.5,-19"/>
<text text-anchor="middle" x="150" y="-7" font-family="Helvetica,sans-Serif" font-size="10.00">string</text>
</a>
</g>
</g>
<!-- Node3&#45;&gt;Node5 -->
<g id="edge4" class="edge">
<title>Node3&#45;&gt;Node5</title>
<path fill="none" stroke="#63b8ff" d="M79.59,-164.75C72.14,-144.09 56.63,-91.28 77,-55 85.98,-39.02 103.28,-28.1 118.79,-21.08"/>
<polygon fill="#63b8ff" stroke="#63b8ff" points="119.8,-24.45 127.72,-17.4 117.14,-17.97 119.8,-24.45"/>
</g>
<!-- Node6 -->
<g id="node6" class="node">
<title>Node6</title>
<g id="a_node6"><a xlink:title=" ">
<polygon fill="#e0e0e0" stroke="#999999" points="130,-74 86,-74 86,-55 130,-55 130,-74"/>
<text text-anchor="middle" x="108" y="-62" font-family="Helvetica,sans-Serif" font-size="10.00">vector</text>
</a>
</g>
</g>
<!-- Node3&#45;&gt;Node6 -->
<g id="edge5" class="edge">
<title>Node3&#45;&gt;Node6</title>
<path fill="none" stroke="#63b8ff" d="M85.05,-164.66C89.02,-147.5 97.87,-109.26 103.35,-85.6"/>
<polygon fill="#63b8ff" stroke="#63b8ff" points="106.74,-86.47 105.58,-75.93 99.92,-84.89 106.74,-86.47"/>
</g>
<!-- Node7 -->
<g id="node7" class="node">
<title>Node7</title>
<g id="a_node7"><a xlink:href="../../d1/df2/_e57_format_8h.html" target="_top" xlink:title="Header file for the E57 API.">
<polygon fill="white" stroke="#666666" points="232.5,-129 159.5,-129 159.5,-110 232.5,-110 232.5,-129"/>
<text text-anchor="middle" x="196" y="-117" font-family="Helvetica,sans-Serif" font-size="10.00">E57Format.h</text>
</a>
</g>
</g>
<!-- Node3&#45;&gt;Node7 -->
<g id="edge6" class="edge">
<title>Node3&#45;&gt;Node7</title>
<path fill="none" stroke="#63b8ff" d="M102.17,-164.51C119.89,-156.2 146.48,-143.73 166.83,-134.18"/>
<polygon fill="#63b8ff" stroke="#63b8ff" points="168.18,-137.42 175.74,-130 165.2,-131.08 168.18,-137.42"/>
</g>
<!-- Node7&#45;&gt;Node6 -->
<g id="edge10" class="edge">
<title>Node7&#45;&gt;Node6</title>
<path fill="none" stroke="#63b8ff" d="M181.07,-109.51C167.72,-101.47 147.89,-89.53 132.26,-80.11"/>
<polygon fill="#63b8ff" stroke="#63b8ff" points="134.38,-77.3 124,-75.14 130.76,-83.3 134.38,-77.3"/>
</g>
<!-- Node8 -->
<g id="node8" class="node">
<title>Node8</title>
<g id="a_node8"><a xlink:title=" ">
<polygon fill="#e0e0e0" stroke="#999999" points="189.5,-74 148.5,-74 148.5,-55 189.5,-55 189.5,-74"/>
<text text-anchor="middle" x="169" y="-62" font-family="Helvetica,sans-Serif" font-size="10.00">cfloat</text>
</a>
</g>
</g>
<!-- Node7&#45;&gt;Node8 -->
<g id="edge7" class="edge">
<title>Node7&#45;&gt;Node8</title>
<path fill="none" stroke="#63b8ff" d="M191.54,-109.75C188.05,-102.88 183.05,-93.08 178.65,-84.45"/>
<polygon fill="#63b8ff" stroke="#63b8ff" points="181.9,-83.11 174.24,-75.79 175.66,-86.29 181.9,-83.11"/>
</g>
<!-- Node9 -->
<g id="node9" class="node">
<title>Node9</title>
<g id="a_node9"><a xlink:title=" ">
<polygon fill="#e0e0e0" stroke="#999999" points="254,-74 208,-74 208,-55 254,-55 254,-74"/>
<text text-anchor="middle" x="231" y="-62" font-family="Helvetica,sans-Serif" font-size="10.00">cstdint</text>
</a>
</g>
</g>
<!-- Node7&#45;&gt;Node9 -->
<g id="edge8" class="edge">
<title>Node7&#45;&gt;Node9</title>
<path fill="none" stroke="#63b8ff" d="M201.78,-109.75C206.41,-102.73 213.07,-92.64 218.87,-83.87"/>
<polygon fill="#63b8ff" stroke="#63b8ff" points="221.67,-85.98 224.26,-75.71 215.83,-82.12 221.67,-85.98"/>
</g>
<!-- Node10 -->
<g id="node10" class="node">
<title>Node10</title>
<g id="a_node10"><a xlink:title=" ">
<polygon fill="#e0e0e0" stroke="#999999" points="324,-74 272,-74 272,-55 324,-55 324,-74"/>
<text text-anchor="middle" x="298" y="-62" font-family="Helvetica,sans-Serif" font-size="10.00">memory</text>
</a>
</g>
</g>
<!-- Node7&#45;&gt;Node10 -->
<g id="edge9" class="edge">
<title>Node7&#45;&gt;Node10</title>
<path fill="none" stroke="#63b8ff" d="M213.3,-109.51C229.08,-101.31 252.64,-89.07 270.91,-79.58"/>
<polygon fill="#63b8ff" stroke="#63b8ff" points="272.35,-82.77 279.61,-75.06 269.12,-76.56 272.35,-82.77"/>
</g>
<!-- Node11 -->
<g id="node11" class="node">
<title>Node11</title>
<g id="a_node11"><a xlink:href="../../d4/d6e/_e57_exception_8h.html" target="_top" xlink:title="Exception handling for E57 API.">
<polygon fill="white" stroke="#666666" points="428,-74 342,-74 342,-55 428,-55 428,-74"/>
<text text-anchor="middle" x="385" y="-62" font-family="Helvetica,sans-Serif" font-size="10.00">E57Exception.h</text>
</a>
</g>
</g>
<!-- Node7&#45;&gt;Node11 -->
<g id="edge11" class="edge">
<title>Node7&#45;&gt;Node11</title>
<path fill="none" stroke="#63b8ff" d="M228.06,-109.51C259.52,-100.69 307.68,-87.18 342.35,-77.46"/>
<polygon fill="#63b8ff" stroke="#63b8ff" points="342.96,-80.93 351.64,-74.85 341.07,-74.19 342.96,-80.93"/>
</g>
<!-- Node11&#45;&gt;Node5 -->
<g id="edge14" class="edge">
<title>Node11&#45;&gt;Node5</title>
<path fill="none" stroke="#63b8ff" d="M345.14,-54.51C299.05,-44.12 224.13,-27.22 181.79,-17.67"/>
<polygon fill="#63b8ff" stroke="#63b8ff" points="182.76,-14.3 172.23,-15.51 181.22,-21.13 182.76,-14.3"/>
</g>
<!-- Node12 -->
<g id="node12" class="node">
<title>Node12</title>
<g id="a_node12"><a xlink:title=" ">
<polygon fill="#e0e0e0" stroke="#999999" points="339.5,-19 280.5,-19 280.5,0 339.5,0 339.5,-19"/>
<text text-anchor="middle" x="310" y="-7" font-family="Helvetica,sans-Serif" font-size="10.00">exception</text>
</a>
</g>
</g>
<!-- Node11&#45;&gt;Node12 -->
<g id="edge12" class="edge">
<title>Node11&#45;&gt;Node12</title>
<path fill="none" stroke="#63b8ff" d="M372.28,-54.51C361.22,-46.7 344.96,-35.21 331.83,-25.93"/>
<polygon fill="#63b8ff" stroke="#63b8ff" points="333.96,-23.14 323.77,-20.23 329.92,-28.86 333.96,-23.14"/>
</g>
<!-- Node13 -->
<g id="node13" class="node">
<title>Node13</title>
<g id="a_node13"><a xlink:title=" ">
<polygon fill="#e0e0e0" stroke="#999999" points="412,-19 358,-19 358,0 412,0 412,-19"/>
<text text-anchor="middle" x="385" y="-7" font-family="Helvetica,sans-Serif" font-size="10.00">iostream</text>
</a>
</g>
</g>
<!-- Node11&#45;&gt;Node13 -->
<g id="edge13" class="edge">
<title>Node11&#45;&gt;Node13</title>
<path fill="none" stroke="#63b8ff" d="M385,-54.75C385,-48.27 385,-39.16 385,-30.9"/>
<polygon fill="#63b8ff" stroke="#63b8ff" points="388.5,-30.96 385,-20.96 381.5,-30.96 388.5,-30.96"/>
</g>
<!-- Node14 -->
<g id="node14" class="node">
<title>Node14</title>
<g id="a_node14"><a xlink:title=" ">
<polygon fill="#e0e0e0" stroke="#999999" points="501.5,-19 430.5,-19 430.5,0 501.5,0 501.5,-19"/>
<text text-anchor="middle" x="466" y="-7" font-family="Helvetica,sans-Serif" font-size="10.00">E57Export.h</text>
</a>
</g>
</g>
<!-- Node11&#45;&gt;Node14 -->
<g id="edge15" class="edge">
<title>Node11&#45;&gt;Node14</title>
<path fill="none" stroke="#63b8ff" d="M398.74,-54.51C410.8,-46.62 428.59,-34.98 442.84,-25.65"/>
<polygon fill="#63b8ff" stroke="#63b8ff" points="444.74,-28.59 451.2,-20.19 440.91,-22.73 444.74,-28.59"/>
</g>
</g>
</svg>
