<?xml version="1.0" encoding="UTF-8" standalone="no"?>
<!DOCTYPE svg PUBLIC "-//W3C//DTD SVG 1.1//EN"
 "http://www.w3.org/Graphics/SVG/1.1/DTD/svg11.dtd">
<!-- Generated by graphviz version 2.49.0 (20210828.1703)
 -->
<!-- Title: e57::DataPacket Pages: 1 -->
<svg width="258pt" height="173pt"
 viewBox="0.00 0.00 258.00 173.00" xmlns="http://www.w3.org/2000/svg" xmlns:xlink="http://www.w3.org/1999/xlink">
<g id="graph0" class="graph" transform="scale(1 1) rotate(0) translate(4 169)">
<title>e57::DataPacket</title>
<polygon fill="white" stroke="transparent" points="-4,4 -4,-169 254,-169 254,4 -4,4"/>
<!-- Node1 -->
<g id="node1" class="node">
<title>Node1</title>
<g id="a_node1"><a xlink:title=" ">
<polygon fill="#bfbfbf" stroke="black" points="0,-0.5 0,-19.5 90,-19.5 90,-0.5 0,-0.5"/>
<text text-anchor="middle" x="45" y="-7.5" font-family="Helvetica,sans-Serif" font-size="10.00">e57::DataPacket</text>
</a>
</g>
</g>
<!-- Node2 -->
<g id="node2" class="node">
<title>Node2</title>
<g id="a_node2"><a xlink:href="../../da/ddf/classe57_1_1_data_packet_header.html" target="_top" xlink:title=" ">
<polygon fill="white" stroke="black" points="64.5,-67.5 64.5,-86.5 187.5,-86.5 187.5,-67.5 64.5,-67.5"/>
<text text-anchor="middle" x="126" y="-74.5" font-family="Helvetica,sans-Serif" font-size="10.00">e57::DataPacketHeader</text>
</a>
</g>
</g>
<!-- Node2&#45;&gt;Node1 -->
<g id="edge1" class="edge">
<title>Node2&#45;&gt;Node1</title>
<path fill="none" stroke="#9a32cd" stroke-dasharray="5,2" d="M106.95,-60.71C90.99,-47.91 68.79,-30.09 55.75,-19.63"/>
<polygon fill="#9a32cd" stroke="#9a32cd" points="105.09,-63.7 115.08,-67.23 109.47,-58.25 105.09,-63.7"/>
<text text-anchor="middle" x="108" y="-41" font-family="Helvetica,sans-Serif" font-size="10.00"> header</text>
</g>
<!-- Node3 -->
<g id="node3" class="node">
<title>Node3</title>
<g id="a_node3"><a xlink:title=" ">
<polygon fill="white" stroke="#bfbfbf" points="1.5,-145.5 1.5,-164.5 48.5,-164.5 48.5,-145.5 1.5,-145.5"/>
<text text-anchor="middle" x="25" y="-152.5" font-family="Helvetica,sans-Serif" font-size="10.00">uint8_t</text>
</a>
</g>
</g>
<!-- Node3&#45;&gt;Node1 -->
<g id="edge4" class="edge">
<title>Node3&#45;&gt;Node1</title>
<path fill="none" stroke="#9a32cd" stroke-dasharray="5,2" d="M19.91,-135.57C15.8,-117.8 11.51,-90.24 17,-67 21.25,-49.02 32.2,-30.22 39.08,-19.62"/>
<polygon fill="#9a32cd" stroke="#9a32cd" points="16.58,-136.64 22.43,-145.48 23.36,-134.92 16.58,-136.64"/>
<text text-anchor="middle" x="36" y="-74.5" font-family="Helvetica,sans-Serif" font-size="10.00"> payload</text>
</g>
<!-- Node3&#45;&gt;Node2 -->
<g id="edge2" class="edge">
<title>Node3&#45;&gt;Node2</title>
<path fill="none" stroke="#9a32cd" stroke-dasharray="5,2" d="M36,-136.76C43.25,-126.48 53.5,-113.77 65,-105 75.31,-97.14 88.28,-90.98 99.6,-86.55"/>
<polygon fill="#9a32cd" stroke="#9a32cd" points="32.91,-135.08 30.24,-145.33 38.72,-138.98 32.91,-135.08"/>
<text text-anchor="middle" x="93.5" y="-119" font-family="Helvetica,sans-Serif" font-size="10.00"> packetFlags</text>
<text text-anchor="middle" x="93.5" y="-108" font-family="Helvetica,sans-Serif" font-size="10.00">packetType</text>
</g>
<!-- Node4 -->
<g id="node4" class="node">
<title>Node4</title>
<g id="a_node4"><a xlink:title=" ">
<polygon fill="white" stroke="#bfbfbf" points="100,-145.5 100,-164.5 152,-164.5 152,-145.5 100,-145.5"/>
<text text-anchor="middle" x="126" y="-152.5" font-family="Helvetica,sans-Serif" font-size="10.00">uint16_t</text>
</a>
</g>
</g>
<!-- Node4&#45;&gt;Node2 -->
<g id="edge3" class="edge">
<title>Node4&#45;&gt;Node2</title>
<path fill="none" stroke="#9a32cd" stroke-dasharray="5,2" d="M126,-135.22C126,-119.7 126,-98.36 126,-86.62"/>
<polygon fill="#9a32cd" stroke="#9a32cd" points="122.5,-135.28 126,-145.28 129.5,-135.28 122.5,-135.28"/>
<text text-anchor="middle" x="188" y="-119" font-family="Helvetica,sans-Serif" font-size="10.00"> bytestreamCount</text>
<text text-anchor="middle" x="188" y="-108" font-family="Helvetica,sans-Serif" font-size="10.00">packetLogicalLengthMinus1</text>
</g>
</g>
</svg>
