<?xml version="1.0" encoding="UTF-8" standalone="no"?>
<!DOCTYPE svg PUBLIC "-//W3C//DTD SVG 1.1//EN"
 "http://www.w3.org/Graphics/SVG/1.1/DTD/svg11.dtd">
<!-- Generated by graphviz version 7.0.0 (20221023.0053)
 -->
<!-- Title: e57::DataPacket Pages: 1 -->
<svg width="253pt" height="170pt"
 viewBox="0.00 0.00 253.00 170.00" xmlns="http://www.w3.org/2000/svg" xmlns:xlink="http://www.w3.org/1999/xlink">
<g id="graph0" class="graph" transform="scale(1 1) rotate(0) translate(4 166)">
<title>e57::DataPacket</title>
<!-- Node1 -->
<g id="node1" class="node">
<title>Node1</title>
<g id="a_node1"><a xlink:title=" ">
<polygon fill="#999999" stroke="#666666" points="90,-19 0,-19 0,0 90,0 90,-19"/>
<text text-anchor="middle" x="45" y="-7" font-family="Helvetica,sans-Serif" font-size="10.00">e57::DataPacket</text>
</a>
</g>
</g>
<!-- Node2 -->
<g id="node2" class="node">
<title>Node2</title>
<g id="a_node2"><a xlink:href="../../da/ddf/classe57_1_1_data_packet_header.html" target="_top" xlink:title=" ">
<polygon fill="white" stroke="#666666" points="185,-85 63,-85 63,-66 185,-66 185,-85"/>
<text text-anchor="middle" x="124" y="-73" font-family="Helvetica,sans-Serif" font-size="10.00">e57::DataPacketHeader</text>
</a>
</g>
</g>
<!-- Node2&#45;&gt;Node1 -->
<g id="edge1" class="edge">
<title>Node2&#45;&gt;Node1</title>
<path fill="none" stroke="#9a32cd" stroke-dasharray="5,2" d="M104.3,-58.54C89,-46.14 68.35,-29.42 55.89,-19.32"/>
<polygon fill="#9a32cd" stroke="#9a32cd" points="101.87,-61.07 111.84,-64.65 106.27,-55.63 101.87,-61.07"/>
<text text-anchor="middle" x="106.5" y="-40" font-family="Helvetica,sans-Serif" font-size="10.00"> header</text>
</g>
<!-- Node3 -->
<g id="node3" class="node">
<title>Node3</title>
<g id="a_node3"><a xlink:title=" ">
<polygon fill="white" stroke="#666666" points="48,-162 2,-162 2,-143 48,-143 48,-162"/>
<text text-anchor="middle" x="25" y="-150" font-family="Helvetica,sans-Serif" font-size="10.00">uint8_t</text>
</a>
</g>
</g>
<!-- Node3&#45;&gt;Node1 -->
<g id="edge4" class="edge">
<title>Node3&#45;&gt;Node1</title>
<path fill="none" stroke="#9a32cd" stroke-dasharray="5,2" d="M19.58,-131.85C15.6,-114.36 11.72,-88.17 17,-66 21.2,-48.36 31.94,-29.97 38.84,-19.41"/>
<polygon fill="#9a32cd" stroke="#9a32cd" points="16.16,-132.57 22,-141.41 22.94,-130.86 16.16,-132.57"/>
<text text-anchor="middle" x="35.5" y="-73" font-family="Helvetica,sans-Serif" font-size="10.00"> payload</text>
</g>
<!-- Node3&#45;&gt;Node2 -->
<g id="edge2" class="edge">
<title>Node3&#45;&gt;Node2</title>
<path fill="none" stroke="#9a32cd" stroke-dasharray="5,2" d="M36.17,-133.1C42.94,-123.15 52.32,-111.25 63,-103 72.68,-95.52 84.81,-89.69 95.69,-85.42"/>
<polygon fill="#9a32cd" stroke="#9a32cd" points="33.39,-130.94 30.93,-141.25 39.28,-134.73 33.39,-130.94"/>
<text text-anchor="middle" x="91.5" y="-117" font-family="Helvetica,sans-Serif" font-size="10.00"> packetFlags</text>
<text text-anchor="middle" x="91.5" y="-106" font-family="Helvetica,sans-Serif" font-size="10.00">packetType</text>
</g>
<!-- Node4 -->
<g id="node4" class="node">
<title>Node4</title>
<g id="a_node4"><a xlink:title=" ">
<polygon fill="white" stroke="#666666" points="149.5,-162 98.5,-162 98.5,-143 149.5,-143 149.5,-162"/>
<text text-anchor="middle" x="124" y="-150" font-family="Helvetica,sans-Serif" font-size="10.00">uint16_t</text>
</a>
</g>
</g>
<!-- Node4&#45;&gt;Node2 -->
<g id="edge3" class="edge">
<title>Node4&#45;&gt;Node2</title>
<path fill="none" stroke="#9a32cd" stroke-dasharray="5,2" d="M124,-131.42C124,-116.43 124,-96.66 124,-85.39"/>
<polygon fill="#9a32cd" stroke="#9a32cd" points="120.5,-131.09 124,-141.09 127.5,-131.09 120.5,-131.09"/>
<text text-anchor="middle" x="184.5" y="-117" font-family="Helvetica,sans-Serif" font-size="10.00"> bytestreamCount</text>
<text text-anchor="middle" x="184.5" y="-106" font-family="Helvetica,sans-Serif" font-size="10.00">packetLogicalLengthMinus1</text>
</g>
</g>
</svg>
