<?xml version="1.0" encoding="UTF-8" standalone="no"?>
<!DOCTYPE svg PUBLIC "-//W3C//DTD SVG 1.1//EN"
 "http://www.w3.org/Graphics/SVG/1.1/DTD/svg11.dtd">
<!-- Generated by graphviz version 7.0.0 (20221023.0053)
 -->
<!-- Title: e57::BitpackIntegerEncoder&lt; RegisterT &gt; Pages: 1 -->
<svg width="325pt" height="181pt"
 viewBox="0.00 0.00 325.00 181.00" xmlns="http://www.w3.org/2000/svg" xmlns:xlink="http://www.w3.org/1999/xlink">
<g id="graph0" class="graph" transform="scale(1 1) rotate(0) translate(4 177)">
<title>e57::BitpackIntegerEncoder&lt; RegisterT &gt;</title>
<!-- Node1 -->
<g id="node1" class="node">
<title>Node1</title>
<g id="a_node1"><a xlink:title=" ">
<polygon fill="#999999" stroke="#666666" points="247.5,-30 110.5,-30 110.5,0 247.5,0 247.5,-30"/>
<text text-anchor="start" x="118.5" y="-18" font-family="Helvetica,sans-Serif" font-size="10.00">e57::BitpackIntegerEncoder</text>
<text text-anchor="middle" x="179" y="-7" font-family="Helvetica,sans-Serif" font-size="10.00">&lt; RegisterT &gt;</text>
</a>
</g>
</g>
<!-- Node2 -->
<g id="node2" class="node">
<title>Node2</title>
<g id="a_node2"><a xlink:href="../../d6/d4e/classe57_1_1_bitpack_encoder.html" target="_top" xlink:title=" ">
<polygon fill="white" stroke="#666666" points="123.5,-107 16.5,-107 16.5,-88 123.5,-88 123.5,-107"/>
<text text-anchor="middle" x="70" y="-95" font-family="Helvetica,sans-Serif" font-size="10.00">e57::BitpackEncoder</text>
</a>
</g>
</g>
<!-- Node2&#45;&gt;Node1 -->
<g id="edge1" class="edge">
<title>Node2&#45;&gt;Node1</title>
<path fill="none" stroke="#63b8ff" d="M91.21,-80.84C111,-66.22 140.3,-44.58 159.52,-30.39"/>
<polygon fill="#63b8ff" stroke="#63b8ff" points="89.26,-77.92 83.3,-86.68 93.42,-83.55 89.26,-77.92"/>
</g>
<!-- Node3 -->
<g id="node3" class="node">
<title>Node3</title>
<g id="a_node3"><a xlink:href="../../d1/d09/classe57_1_1_encoder.html" target="_top" xlink:title=" ">
<polygon fill="white" stroke="#666666" points="74,-173 0,-173 0,-154 74,-154 74,-173"/>
<text text-anchor="middle" x="37" y="-161" font-family="Helvetica,sans-Serif" font-size="10.00">e57::Encoder</text>
</a>
</g>
</g>
<!-- Node3&#45;&gt;Node2 -->
<g id="edge2" class="edge">
<title>Node3&#45;&gt;Node2</title>
<path fill="none" stroke="#63b8ff" d="M43.13,-143.12C45.3,-137.16 47.97,-130.68 51,-125 54.3,-118.81 58.86,-112.39 62.69,-107.43"/>
<polygon fill="#63b8ff" stroke="#63b8ff" points="39.96,-141.55 40.08,-152.14 46.6,-143.79 39.96,-141.55"/>
</g>
<!-- Node4 -->
<g id="node4" class="node">
<title>Node4</title>
<g id="a_node4"><a xlink:title=" ">
<polygon fill="white" stroke="#666666" points="173.5,-173 122.5,-173 122.5,-154 173.5,-154 173.5,-173"/>
<text text-anchor="middle" x="148" y="-161" font-family="Helvetica,sans-Serif" font-size="10.00">uint64_t</text>
</a>
</g>
</g>
<!-- Node4&#45;&gt;Node1 -->
<g id="edge5" class="edge">
<title>Node4&#45;&gt;Node1</title>
<path fill="none" stroke="#9a32cd" stroke-dasharray="5,2" d="M161.17,-144.27C162.66,-141.59 164,-138.79 165,-136 178.06,-99.46 179.56,-53.06 179.38,-30.14"/>
<polygon fill="#9a32cd" stroke="#9a32cd" points="158.38,-142.15 155.9,-152.45 164.26,-145.94 158.38,-142.15"/>
<text text-anchor="middle" x="213" y="-95" font-family="Helvetica,sans-Serif" font-size="10.00"> sourceBitMask_</text>
</g>
<!-- Node4&#45;&gt;Node2 -->
<g id="edge3" class="edge">
<title>Node4&#45;&gt;Node2</title>
<path fill="none" stroke="#9a32cd" stroke-dasharray="5,2" d="M111.04,-158.86C96.15,-155.38 80.33,-148.72 71,-136 64.99,-127.81 65.93,-115.68 67.59,-107.45"/>
<polygon fill="#9a32cd" stroke="#9a32cd" points="110.15,-162.25 120.62,-160.66 111.44,-155.37 110.15,-162.25"/>
<text text-anchor="middle" x="118" y="-128" font-family="Helvetica,sans-Serif" font-size="10.00"> currentRecordIndex_</text>
</g>
<!-- Node5 -->
<g id="node5" class="node">
<title>Node5</title>
<g id="a_node5"><a xlink:title=" ">
<polygon fill="white" stroke="#666666" points="317,-107 271,-107 271,-88 317,-88 317,-107"/>
<text text-anchor="middle" x="294" y="-95" font-family="Helvetica,sans-Serif" font-size="10.00">int64_t</text>
</a>
</g>
</g>
<!-- Node5&#45;&gt;Node1 -->
<g id="edge4" class="edge">
<title>Node5&#45;&gt;Node1</title>
<path fill="none" stroke="#9a32cd" stroke-dasharray="5,2" d="M271.91,-81.04C251.02,-66.42 219.92,-44.65 199.55,-30.39"/>
<polygon fill="#9a32cd" stroke="#9a32cd" points="269.81,-83.84 280.01,-86.71 273.83,-78.11 269.81,-83.84"/>
<text text-anchor="middle" x="279" y="-62" font-family="Helvetica,sans-Serif" font-size="10.00"> maximum_</text>
<text text-anchor="middle" x="279" y="-51" font-family="Helvetica,sans-Serif" font-size="10.00">minimum_</text>
</g>
</g>
</svg>
