<?xml version="1.0" encoding="UTF-8" standalone="no"?>
<!DOCTYPE svg PUBLIC "-//W3C//DTD SVG 1.1//EN"
 "http://www.w3.org/Graphics/SVG/1.1/DTD/svg11.dtd">
<!-- Generated by graphviz version 2.49.0 (20210828.1703)
 -->
<!-- Title: e57::BitpackIntegerEncoder&lt; RegisterT &gt; Pages: 1 -->
<svg width="331pt" height="184pt"
 viewBox="0.00 0.00 330.50 184.00" xmlns="http://www.w3.org/2000/svg" xmlns:xlink="http://www.w3.org/1999/xlink">
<g id="graph0" class="graph" transform="scale(1 1) rotate(0) translate(4 180)">
<title>e57::BitpackIntegerEncoder&lt; RegisterT &gt;</title>
<polygon fill="white" stroke="transparent" points="-4,4 -4,-180 326.5,-180 326.5,4 -4,4"/>
<!-- Node1 -->
<g id="node1" class="node">
<title>Node1</title>
<g id="a_node1"><a xlink:title=" ">
<polygon fill="#bfbfbf" stroke="black" points="113,-0.5 113,-30.5 253,-30.5 253,-0.5 113,-0.5"/>
<text text-anchor="start" x="121" y="-18.5" font-family="Helvetica,sans-Serif" font-size="10.00">e57::BitpackIntegerEncoder</text>
<text text-anchor="middle" x="183" y="-7.5" font-family="Helvetica,sans-Serif" font-size="10.00">&lt; RegisterT &gt;</text>
</a>
</g>
</g>
<!-- Node2 -->
<g id="node2" class="node">
<title>Node2</title>
<g id="a_node2"><a xlink:href="../../d6/d4e/classe57_1_1_bitpack_encoder.html" target="_top" xlink:title=" ">
<polygon fill="white" stroke="black" points="16.5,-89.5 16.5,-108.5 125.5,-108.5 125.5,-89.5 16.5,-89.5"/>
<text text-anchor="middle" x="71" y="-96.5" font-family="Helvetica,sans-Serif" font-size="10.00">e57::BitpackEncoder</text>
</a>
</g>
</g>
<!-- Node2&#45;&gt;Node1 -->
<g id="edge1" class="edge">
<title>Node2&#45;&gt;Node1</title>
<path fill="none" stroke="midnightblue" d="M91.32,-83.22C111.87,-68.26 143.42,-45.3 163.63,-30.6"/>
<polygon fill="midnightblue" stroke="midnightblue" points="89.01,-80.56 82.99,-89.28 93.13,-86.22 89.01,-80.56"/>
</g>
<!-- Node3 -->
<g id="node3" class="node">
<title>Node3</title>
<g id="a_node3"><a xlink:href="../../d1/d09/classe57_1_1_encoder.html" target="_top" xlink:title=" ">
<polygon fill="white" stroke="black" points="0,-156.5 0,-175.5 76,-175.5 76,-156.5 0,-156.5"/>
<text text-anchor="middle" x="38" y="-163.5" font-family="Helvetica,sans-Serif" font-size="10.00">e57::Encoder</text>
</a>
</g>
</g>
<!-- Node3&#45;&gt;Node2 -->
<g id="edge2" class="edge">
<title>Node3&#45;&gt;Node2</title>
<path fill="none" stroke="midnightblue" d="M43.71,-146.54C45.96,-140.19 48.78,-133.14 52,-127 55.41,-120.5 60.16,-113.75 64.06,-108.63"/>
<polygon fill="midnightblue" stroke="midnightblue" points="40.31,-145.68 40.5,-156.28 46.96,-147.88 40.31,-145.68"/>
</g>
<!-- Node4 -->
<g id="node4" class="node">
<title>Node4</title>
<g id="a_node4"><a xlink:title=" ">
<polygon fill="white" stroke="#bfbfbf" points="125,-156.5 125,-175.5 177,-175.5 177,-156.5 125,-156.5"/>
<text text-anchor="middle" x="151" y="-163.5" font-family="Helvetica,sans-Serif" font-size="10.00">uint64_t</text>
</a>
</g>
</g>
<!-- Node4&#45;&gt;Node1 -->
<g id="edge5" class="edge">
<title>Node4&#45;&gt;Node1</title>
<path fill="none" stroke="#9a32cd" stroke-dasharray="5,2" d="M164.27,-147.63C166.12,-144.55 167.8,-141.28 169,-138 182.52,-101.12 183.81,-54.09 183.49,-30.84"/>
<polygon fill="#9a32cd" stroke="#9a32cd" points="161.24,-145.86 158.5,-156.1 167.03,-149.81 161.24,-145.86"/>
<text text-anchor="middle" x="218" y="-96.5" font-family="Helvetica,sans-Serif" font-size="10.00"> sourceBitMask_</text>
</g>
<!-- Node4&#45;&gt;Node2 -->
<g id="edge3" class="edge">
<title>Node4&#45;&gt;Node2</title>
<path fill="none" stroke="#9a32cd" stroke-dasharray="5,2" d="M114.76,-161.73C99.01,-158.32 81.93,-151.51 72,-138 65.82,-129.6 66.89,-117.09 68.61,-108.75"/>
<polygon fill="#9a32cd" stroke="#9a32cd" points="114.37,-165.22 124.82,-163.52 115.59,-158.32 114.37,-165.22"/>
<text text-anchor="middle" x="120.5" y="-130" font-family="Helvetica,sans-Serif" font-size="10.00"> currentRecordIndex_</text>
</g>
<!-- Node5 -->
<g id="node5" class="node">
<title>Node5</title>
<g id="a_node5"><a xlink:title=" ">
<polygon fill="white" stroke="#bfbfbf" points="275.5,-89.5 275.5,-108.5 322.5,-108.5 322.5,-89.5 275.5,-89.5"/>
<text text-anchor="middle" x="299" y="-96.5" font-family="Helvetica,sans-Serif" font-size="10.00">int64_t</text>
</a>
</g>
</g>
<!-- Node5&#45;&gt;Node1 -->
<g id="edge4" class="edge">
<title>Node5&#45;&gt;Node1</title>
<path fill="none" stroke="#9a32cd" stroke-dasharray="5,2" d="M278.24,-83.42C256.96,-68.47 224.09,-45.37 203.06,-30.6"/>
<polygon fill="#9a32cd" stroke="#9a32cd" points="276.39,-86.39 286.59,-89.28 280.42,-80.67 276.39,-86.39"/>
<text text-anchor="middle" x="284" y="-63" font-family="Helvetica,sans-Serif" font-size="10.00"> maximum_</text>
<text text-anchor="middle" x="284" y="-52" font-family="Helvetica,sans-Serif" font-size="10.00">minimum_</text>
</g>
</g>
</svg>
