<?xml version="1.0" encoding="UTF-8" standalone="no"?>
<!DOCTYPE svg PUBLIC "-//W3C//DTD SVG 1.1//EN"
 "http://www.w3.org/Graphics/SVG/1.1/DTD/svg11.dtd">
<!-- Generated by graphviz version 7.0.0 (20221023.0053)
 -->
<!-- Title: e57::ConstantIntegerEncoder Pages: 1 -->
<svg width="279pt" height="93pt"
 viewBox="0.00 0.00 279.00 93.00" xmlns="http://www.w3.org/2000/svg" xmlns:xlink="http://www.w3.org/1999/xlink">
<g id="graph0" class="graph" transform="scale(1 1) rotate(0) translate(4 89)">
<title>e57::ConstantIntegerEncoder</title>
<!-- Node1 -->
<g id="node1" class="node">
<title>Node1</title>
<g id="a_node1"><a xlink:title=" ">
<polygon fill="#999999" stroke="#666666" points="190,-19 46,-19 46,0 190,0 190,-19"/>
<text text-anchor="middle" x="118" y="-7" font-family="Helvetica,sans-Serif" font-size="10.00">e57::ConstantIntegerEncoder</text>
</a>
</g>
</g>
<!-- Node2 -->
<g id="node2" class="node">
<title>Node2</title>
<g id="a_node2"><a xlink:href="../../d1/d09/classe57_1_1_encoder.html" target="_top" xlink:title=" ">
<polygon fill="white" stroke="#666666" points="74,-85 0,-85 0,-66 74,-66 74,-85"/>
<text text-anchor="middle" x="37" y="-73" font-family="Helvetica,sans-Serif" font-size="10.00">e57::Encoder</text>
</a>
</g>
</g>
<!-- Node2&#45;&gt;Node1 -->
<g id="edge1" class="edge">
<title>Node2&#45;&gt;Node1</title>
<path fill="none" stroke="#63b8ff" d="M57.2,-58.54C72.89,-46.14 94.06,-29.42 106.83,-19.32"/>
<polygon fill="#63b8ff" stroke="#63b8ff" points="55.13,-55.72 49.45,-64.66 59.47,-61.21 55.13,-55.72"/>
</g>
<!-- Node3 -->
<g id="node3" class="node">
<title>Node3</title>
<g id="a_node3"><a xlink:title=" ">
<polygon fill="white" stroke="#666666" points="143.5,-85 92.5,-85 92.5,-66 143.5,-66 143.5,-85"/>
<text text-anchor="middle" x="118" y="-73" font-family="Helvetica,sans-Serif" font-size="10.00">uint64_t</text>
</a>
</g>
</g>
<!-- Node3&#45;&gt;Node1 -->
<g id="edge2" class="edge">
<title>Node3&#45;&gt;Node1</title>
<path fill="none" stroke="#9a32cd" stroke-dasharray="5,2" d="M118,-54.18C118,-42.44 118,-28.27 118,-19.32"/>
<polygon fill="#9a32cd" stroke="#9a32cd" points="114.5,-54.09 118,-64.09 121.5,-54.09 114.5,-54.09"/>
<text text-anchor="middle" x="165" y="-40" font-family="Helvetica,sans-Serif" font-size="10.00"> currentRecordIndex_</text>
</g>
<!-- Node4 -->
<g id="node4" class="node">
<title>Node4</title>
<g id="a_node4"><a xlink:title=" ">
<polygon fill="white" stroke="#666666" points="258,-85 212,-85 212,-66 258,-66 258,-85"/>
<text text-anchor="middle" x="235" y="-73" font-family="Helvetica,sans-Serif" font-size="10.00">int64_t</text>
</a>
</g>
</g>
<!-- Node4&#45;&gt;Node1 -->
<g id="edge3" class="edge">
<title>Node4&#45;&gt;Node1</title>
<path fill="none" stroke="#9a32cd" stroke-dasharray="5,2" d="M227.37,-55.31C223.88,-48.67 219.13,-41.72 213,-37 202.55,-28.96 189.8,-23.35 177.06,-19.45"/>
<polygon fill="#9a32cd" stroke="#9a32cd" points="224.15,-56.69 231.45,-64.36 230.53,-53.81 224.15,-56.69"/>
<text text-anchor="middle" x="246.5" y="-40" font-family="Helvetica,sans-Serif" font-size="10.00"> minimum_</text>
</g>
</g>
</svg>
