<?xml version="1.0" encoding="UTF-8" standalone="no"?>
<!DOCTYPE svg PUBLIC "-//W3C//DTD SVG 1.1//EN"
 "http://www.w3.org/Graphics/SVG/1.1/DTD/svg11.dtd">
<!-- Generated by graphviz version 7.0.0 (20221023.0053)
 -->
<!-- Title: e57::BitpackDecoder Pages: 1 -->
<svg width="202pt" height="115pt"
 viewBox="0.00 0.00 201.50 115.00" xmlns="http://www.w3.org/2000/svg" xmlns:xlink="http://www.w3.org/1999/xlink">
<g id="graph0" class="graph" transform="scale(1 1) rotate(0) translate(4 111)">
<title>e57::BitpackDecoder</title>
<!-- Node1 -->
<g id="node1" class="node">
<title>Node1</title>
<g id="a_node1"><a xlink:title=" ">
<polygon fill="#999999" stroke="#666666" points="131.5,-19 23.5,-19 23.5,0 131.5,0 131.5,-19"/>
<text text-anchor="middle" x="77.5" y="-7" font-family="Helvetica,sans-Serif" font-size="10.00">e57::BitpackDecoder</text>
</a>
</g>
</g>
<!-- Node2 -->
<g id="node2" class="node">
<title>Node2</title>
<g id="a_node2"><a xlink:href="../../d2/d14/classe57_1_1_decoder.html" target="_top" xlink:title=" ">
<polygon fill="white" stroke="#666666" points="75,-107 0,-107 0,-88 75,-88 75,-107"/>
<text text-anchor="middle" x="37.5" y="-95" font-family="Helvetica,sans-Serif" font-size="10.00">e57::Decoder</text>
</a>
</g>
</g>
<!-- Node2&#45;&gt;Node1 -->
<g id="edge1" class="edge">
<title>Node2&#45;&gt;Node1</title>
<path fill="none" stroke="#63b8ff" d="M46.38,-77.4C54.77,-59.36 66.99,-33.09 73.33,-19.46"/>
<polygon fill="#63b8ff" stroke="#63b8ff" points="43.31,-75.7 42.27,-86.25 49.66,-78.66 43.31,-75.7"/>
</g>
<!-- Node3 -->
<g id="node3" class="node">
<title>Node3</title>
<g id="a_node3"><a xlink:title=" ">
<polygon fill="white" stroke="#666666" points="144,-107 93,-107 93,-88 144,-88 144,-107"/>
<text text-anchor="middle" x="118.5" y="-95" font-family="Helvetica,sans-Serif" font-size="10.00">uint64_t</text>
</a>
</g>
</g>
<!-- Node3&#45;&gt;Node1 -->
<g id="edge2" class="edge">
<title>Node3&#45;&gt;Node1</title>
<path fill="none" stroke="#9a32cd" stroke-dasharray="5,2" d="M109.4,-77.4C100.79,-59.36 88.27,-33.09 81.77,-19.46"/>
<polygon fill="#9a32cd" stroke="#9a32cd" points="106.15,-78.73 113.62,-86.25 112.47,-75.72 106.15,-78.73"/>
<text text-anchor="start" x="104.5" y="-62" font-family="Helvetica,sans-Serif" font-size="10.00"> currentRecordIndex</text>
<text text-anchor="middle" x="149" y="-51" font-family="Helvetica,sans-Serif" font-size="10.00">_</text>
<text text-anchor="middle" x="149" y="-40" font-family="Helvetica,sans-Serif" font-size="10.00">maxRecordCount_</text>
</g>
</g>
</svg>
