<?xml version="1.0" encoding="UTF-8" standalone="no"?>
<!DOCTYPE svg PUBLIC "-//W3C//DTD SVG 1.1//EN"
 "http://www.w3.org/Graphics/SVG/1.1/DTD/svg11.dtd">
<!-- Generated by graphviz version 7.0.0 (20221023.0053)
 -->
<!-- Title: e57::BitpackDecoder Pages: 1 -->
<svg width="401pt" height="113pt"
 viewBox="0.00 0.00 401.00 113.00" xmlns="http://www.w3.org/2000/svg" xmlns:xlink="http://www.w3.org/1999/xlink">
<g id="graph0" class="graph" transform="scale(1 1) rotate(0) translate(4 109)">
<title>e57::BitpackDecoder</title>
<!-- Node1 -->
<g id="node1" class="node">
<title>Node1</title>
<g id="a_node1"><a xlink:title=" ">
<polygon fill="#999999" stroke="#666666" points="219,-62 111,-62 111,-43 219,-43 219,-62"/>
<text text-anchor="middle" x="165" y="-50" font-family="Helvetica,sans-Serif" font-size="10.00">e57::BitpackDecoder</text>
</a>
</g>
</g>
<!-- Node3 -->
<g id="node3" class="node">
<title>Node3</title>
<g id="a_node3"><a xlink:href="../../de/d9f/classe57_1_1_bitpack_float_decoder.html" target="_top" xlink:title=" ">
<polygon fill="white" stroke="#666666" points="389,-105 259,-105 259,-86 389,-86 389,-105"/>
<text text-anchor="middle" x="324" y="-93" font-family="Helvetica,sans-Serif" font-size="10.00">e57::BitpackFloatDecoder</text>
</a>
</g>
</g>
<!-- Node1&#45;&gt;Node3 -->
<g id="edge2" class="edge">
<title>Node1&#45;&gt;Node3</title>
<path fill="none" stroke="#63b8ff" d="M213.2,-65.43C236.7,-71.86 264.68,-79.53 286.51,-85.51"/>
<polygon fill="#63b8ff" stroke="#63b8ff" points="214.44,-62.14 203.87,-62.87 212.59,-68.89 214.44,-62.14"/>
</g>
<!-- Node4 -->
<g id="node4" class="node">
<title>Node4</title>
<g id="a_node4"><a xlink:href="../../d9/d17/classe57_1_1_bitpack_integer_decoder.html" target="_top" xlink:title=" ">
<polygon fill="white" stroke="#666666" points="393,-67.5 255,-67.5 255,-37.5 393,-37.5 393,-67.5"/>
<text text-anchor="start" x="263" y="-55.5" font-family="Helvetica,sans-Serif" font-size="10.00">e57::BitpackIntegerDecoder</text>
<text text-anchor="middle" x="324" y="-44.5" font-family="Helvetica,sans-Serif" font-size="10.00">&lt; RegisterT &gt;</text>
</a>
</g>
</g>
<!-- Node1&#45;&gt;Node4 -->
<g id="edge3" class="edge">
<title>Node1&#45;&gt;Node4</title>
<path fill="none" stroke="#63b8ff" d="M230.58,-52.5C238.5,-52.5 246.62,-52.5 254.59,-52.5"/>
<polygon fill="#63b8ff" stroke="#63b8ff" points="230.67,-49 220.67,-52.5 230.67,-56 230.67,-49"/>
</g>
<!-- Node5 -->
<g id="node5" class="node">
<title>Node5</title>
<g id="a_node5"><a xlink:href="../../d9/d8f/classe57_1_1_bitpack_string_decoder.html" target="_top" xlink:title=" ">
<polygon fill="white" stroke="#666666" points="391,-19 257,-19 257,0 391,0 391,-19"/>
<text text-anchor="middle" x="324" y="-7" font-family="Helvetica,sans-Serif" font-size="10.00">e57::BitpackStringDecoder</text>
</a>
</g>
</g>
<!-- Node1&#45;&gt;Node5 -->
<g id="edge4" class="edge">
<title>Node1&#45;&gt;Node5</title>
<path fill="none" stroke="#63b8ff" d="M213.2,-39.57C236.7,-33.14 264.68,-25.47 286.51,-19.49"/>
<polygon fill="#63b8ff" stroke="#63b8ff" points="212.59,-36.11 203.87,-42.13 214.44,-42.86 212.59,-36.11"/>
</g>
<!-- Node2 -->
<g id="node2" class="node">
<title>Node2</title>
<g id="a_node2"><a xlink:href="../../d2/d14/classe57_1_1_decoder.html" target="_top" xlink:title=" ">
<polygon fill="white" stroke="#666666" points="75,-62 0,-62 0,-43 75,-43 75,-62"/>
<text text-anchor="middle" x="37.5" y="-50" font-family="Helvetica,sans-Serif" font-size="10.00">e57::Decoder</text>
</a>
</g>
</g>
<!-- Node2&#45;&gt;Node1 -->
<g id="edge1" class="edge">
<title>Node2&#45;&gt;Node1</title>
<path fill="none" stroke="#63b8ff" d="M86.92,-52.5C94.66,-52.5 102.7,-52.5 110.55,-52.5"/>
<polygon fill="#63b8ff" stroke="#63b8ff" points="86.99,-49 76.99,-52.5 86.99,-56 86.99,-49"/>
</g>
</g>
</svg>
