<?xml version="1.0" encoding="UTF-8" standalone="no"?>
<!DOCTYPE svg PUBLIC "-//W3C//DTD SVG 1.1//EN"
 "http://www.w3.org/Graphics/SVG/1.1/DTD/svg11.dtd">
<!-- Generated by graphviz version 7.0.0 (20221023.0053)
 -->
<!-- Title: e57::BitpackEncoder Pages: 1 -->
<svg width="398pt" height="113pt"
 viewBox="0.00 0.00 398.00 113.00" xmlns="http://www.w3.org/2000/svg" xmlns:xlink="http://www.w3.org/1999/xlink">
<g id="graph0" class="graph" transform="scale(1 1) rotate(0) translate(4 109)">
<title>e57::BitpackEncoder</title>
<!-- Node1 -->
<g id="node1" class="node">
<title>Node1</title>
<g id="a_node1"><a xlink:title=" ">
<polygon fill="#999999" stroke="#666666" points="217,-62 110,-62 110,-43 217,-43 217,-62"/>
<text text-anchor="middle" x="163.5" y="-50" font-family="Helvetica,sans-Serif" font-size="10.00">e57::BitpackEncoder</text>
</a>
</g>
</g>
<!-- Node3 -->
<g id="node3" class="node">
<title>Node3</title>
<g id="a_node3"><a xlink:href="../../dd/d88/classe57_1_1_bitpack_float_encoder.html" target="_top" xlink:title=" ">
<polygon fill="white" stroke="#666666" points="386,-105 257,-105 257,-86 386,-86 386,-105"/>
<text text-anchor="middle" x="321.5" y="-93" font-family="Helvetica,sans-Serif" font-size="10.00">e57::BitpackFloatEncoder</text>
</a>
</g>
</g>
<!-- Node1&#45;&gt;Node3 -->
<g id="edge2" class="edge">
<title>Node1&#45;&gt;Node3</title>
<path fill="none" stroke="#63b8ff" d="M211.72,-65.52C235,-71.93 262.65,-79.55 284.24,-85.51"/>
<polygon fill="#63b8ff" stroke="#63b8ff" points="212.71,-62.16 202.14,-62.88 210.85,-68.91 212.71,-62.16"/>
</g>
<!-- Node4 -->
<g id="node4" class="node">
<title>Node4</title>
<g id="a_node4"><a xlink:href="../../d0/d93/classe57_1_1_bitpack_integer_encoder.html" target="_top" xlink:title=" ">
<polygon fill="white" stroke="#666666" points="390,-67.5 253,-67.5 253,-37.5 390,-37.5 390,-67.5"/>
<text text-anchor="start" x="261" y="-55.5" font-family="Helvetica,sans-Serif" font-size="10.00">e57::BitpackIntegerEncoder</text>
<text text-anchor="middle" x="321.5" y="-44.5" font-family="Helvetica,sans-Serif" font-size="10.00">&lt; RegisterT &gt;</text>
</a>
</g>
</g>
<!-- Node1&#45;&gt;Node4 -->
<g id="edge3" class="edge">
<title>Node1&#45;&gt;Node4</title>
<path fill="none" stroke="#63b8ff" d="M228.67,-52.5C236.54,-52.5 244.61,-52.5 252.53,-52.5"/>
<polygon fill="#63b8ff" stroke="#63b8ff" points="228.83,-49 218.83,-52.5 228.83,-56 228.83,-49"/>
</g>
<!-- Node5 -->
<g id="node5" class="node">
<title>Node5</title>
<g id="a_node5"><a xlink:href="../../dc/df1/classe57_1_1_bitpack_string_encoder.html" target="_top" xlink:title=" ">
<polygon fill="white" stroke="#666666" points="388,-19 255,-19 255,0 388,0 388,-19"/>
<text text-anchor="middle" x="321.5" y="-7" font-family="Helvetica,sans-Serif" font-size="10.00">e57::BitpackStringEncoder</text>
</a>
</g>
</g>
<!-- Node1&#45;&gt;Node5 -->
<g id="edge4" class="edge">
<title>Node1&#45;&gt;Node5</title>
<path fill="none" stroke="#63b8ff" d="M211.72,-39.48C235,-33.07 262.65,-25.45 284.24,-19.49"/>
<polygon fill="#63b8ff" stroke="#63b8ff" points="210.85,-36.09 202.14,-42.12 212.71,-42.84 210.85,-36.09"/>
</g>
<!-- Node2 -->
<g id="node2" class="node">
<title>Node2</title>
<g id="a_node2"><a xlink:href="../../d1/d09/classe57_1_1_encoder.html" target="_top" xlink:title=" ">
<polygon fill="white" stroke="#666666" points="74,-62 0,-62 0,-43 74,-43 74,-62"/>
<text text-anchor="middle" x="37" y="-50" font-family="Helvetica,sans-Serif" font-size="10.00">e57::Encoder</text>
</a>
</g>
</g>
<!-- Node2&#45;&gt;Node1 -->
<g id="edge1" class="edge">
<title>Node2&#45;&gt;Node1</title>
<path fill="none" stroke="#63b8ff" d="M85.59,-52.5C93.47,-52.5 101.68,-52.5 109.69,-52.5"/>
<polygon fill="#63b8ff" stroke="#63b8ff" points="85.86,-49 75.86,-52.5 85.86,-56 85.86,-49"/>
</g>
</g>
</svg>
