<?xml version="1.0" encoding="UTF-8" standalone="no"?>
<!DOCTYPE svg PUBLIC "-//W3C//DTD SVG 1.1//EN"
 "http://www.w3.org/Graphics/SVG/1.1/DTD/svg11.dtd">
<!-- Generated by graphviz version 7.0.0 (20221023.0053)
 -->
<!-- Title: SourceDestBufferImpl.h Pages: 1 -->
<svg width="1038pt" height="82pt"
 viewBox="0.00 0.00 1038.00 82.00" xmlns="http://www.w3.org/2000/svg" xmlns:xlink="http://www.w3.org/1999/xlink">
<g id="graph0" class="graph" transform="scale(1 1) rotate(0) translate(4 78)">
<title>SourceDestBufferImpl.h</title>
<!-- Node1 -->
<g id="node1" class="node">
<title>Node1</title>
<g id="a_node1"><a xlink:title=" ">
<polygon fill="#999999" stroke="#666666" points="634,-74 512,-74 512,-55 634,-55 634,-74"/>
<text text-anchor="middle" x="573" y="-62" font-family="Helvetica,sans-Serif" font-size="10.00">SourceDestBufferImpl.h</text>
</a>
</g>
</g>
<!-- Node2 -->
<g id="node2" class="node">
<title>Node2</title>
<g id="a_node2"><a xlink:href="../../d5/d8d/_compressed_vector_reader_impl_8cpp.html" target="_top" xlink:title=" ">
<polygon fill="white" stroke="#666666" points="170,-19 0,-19 0,0 170,0 170,-19"/>
<text text-anchor="middle" x="85" y="-7" font-family="Helvetica,sans-Serif" font-size="10.00">CompressedVectorReaderImpl.cpp</text>
</a>
</g>
</g>
<!-- Node1&#45;&gt;Node2 -->
<g id="edge1" class="edge">
<title>Node1&#45;&gt;Node2</title>
<path fill="none" stroke="#63b8ff" d="M500.35,-55.61C411.36,-45.94 260.96,-29.61 167.64,-19.48"/>
<polygon fill="#63b8ff" stroke="#63b8ff" points="499.86,-59.08 510.18,-56.68 500.62,-52.12 499.86,-59.08"/>
</g>
<!-- Node3 -->
<g id="node3" class="node">
<title>Node3</title>
<g id="a_node3"><a xlink:href="../../de/d63/_compressed_vector_writer_impl_8cpp.html" target="_top" xlink:title=" ">
<polygon fill="white" stroke="#666666" points="352,-19 188,-19 188,0 352,0 352,-19"/>
<text text-anchor="middle" x="270" y="-7" font-family="Helvetica,sans-Serif" font-size="10.00">CompressedVectorWriterImpl.cpp</text>
</a>
</g>
</g>
<!-- Node1&#45;&gt;Node3 -->
<g id="edge2" class="edge">
<title>Node1&#45;&gt;Node3</title>
<path fill="none" stroke="#63b8ff" d="M510.42,-52.55C454.51,-42.77 373.6,-28.62 321.4,-19.49"/>
<polygon fill="#63b8ff" stroke="#63b8ff" points="509.66,-55.97 520.11,-54.25 510.86,-49.08 509.66,-55.97"/>
</g>
<!-- Node4 -->
<g id="node4" class="node">
<title>Node4</title>
<g id="a_node4"><a xlink:href="../../d4/d70/_decode_channel_8cpp.html" target="_top" xlink:title=" ">
<polygon fill="white" stroke="#666666" points="475.5,-19 370.5,-19 370.5,0 475.5,0 475.5,-19"/>
<text text-anchor="middle" x="423" y="-7" font-family="Helvetica,sans-Serif" font-size="10.00">DecodeChannel.cpp</text>
</a>
</g>
</g>
<!-- Node1&#45;&gt;Node4 -->
<g id="edge3" class="edge">
<title>Node1&#45;&gt;Node4</title>
<path fill="none" stroke="#63b8ff" d="M536.85,-50.73C509.48,-41.06 472.59,-28.02 448.32,-19.45"/>
<polygon fill="#63b8ff" stroke="#63b8ff" points="535.53,-53.97 546.13,-54.01 537.86,-47.37 535.53,-53.97"/>
</g>
<!-- Node5 -->
<g id="node5" class="node">
<title>Node5</title>
<g id="a_node5"><a xlink:href="../../d0/dfe/_decoder_8cpp.html" target="_top" xlink:title=" ">
<polygon fill="white" stroke="#666666" points="564.5,-19 493.5,-19 493.5,0 564.5,0 564.5,-19"/>
<text text-anchor="middle" x="529" y="-7" font-family="Helvetica,sans-Serif" font-size="10.00">Decoder.cpp</text>
</a>
</g>
</g>
<!-- Node1&#45;&gt;Node5 -->
<g id="edge4" class="edge">
<title>Node1&#45;&gt;Node5</title>
<path fill="none" stroke="#63b8ff" d="M558.42,-45.93C551.05,-37.06 542.42,-26.67 536.42,-19.44"/>
<polygon fill="#63b8ff" stroke="#63b8ff" points="555.69,-48.13 564.77,-53.58 561.07,-43.65 555.69,-48.13"/>
</g>
<!-- Node6 -->
<g id="node6" class="node">
<title>Node6</title>
<g id="a_node6"><a xlink:href="../../d8/d08/_encoder_8cpp.html" target="_top" xlink:title=" ">
<polygon fill="white" stroke="#666666" points="653.5,-19 582.5,-19 582.5,0 653.5,0 653.5,-19"/>
<text text-anchor="middle" x="618" y="-7" font-family="Helvetica,sans-Serif" font-size="10.00">Encoder.cpp</text>
</a>
</g>
</g>
<!-- Node1&#45;&gt;Node6 -->
<g id="edge5" class="edge">
<title>Node1&#45;&gt;Node6</title>
<path fill="none" stroke="#63b8ff" d="M587.68,-46.22C595.26,-37.28 604.21,-26.74 610.41,-19.44"/>
<polygon fill="#63b8ff" stroke="#63b8ff" points="585.21,-43.71 581.41,-53.59 590.55,-48.24 585.21,-43.71"/>
</g>
<!-- Node7 -->
<g id="node7" class="node">
<title>Node7</title>
<g id="a_node7"><a xlink:href="../../d8/d81/_node_impl_8cpp.html" target="_top" xlink:title=" ">
<polygon fill="white" stroke="#666666" points="748.5,-19 671.5,-19 671.5,0 748.5,0 748.5,-19"/>
<text text-anchor="middle" x="710" y="-7" font-family="Helvetica,sans-Serif" font-size="10.00">NodeImpl.cpp</text>
</a>
</g>
</g>
<!-- Node1&#45;&gt;Node7 -->
<g id="edge6" class="edge">
<title>Node1&#45;&gt;Node7</title>
<path fill="none" stroke="#63b8ff" d="M606.72,-50.45C631.73,-40.78 665.14,-27.85 687.1,-19.36"/>
<polygon fill="#63b8ff" stroke="#63b8ff" points="605.72,-47.09 597.65,-53.96 608.24,-53.62 605.72,-47.09"/>
</g>
<!-- Node8 -->
<g id="node8" class="node">
<title>Node8</title>
<g id="a_node8"><a xlink:href="../../d6/dc4/_source_dest_buffer_8cpp.html" target="_top" xlink:title=" ">
<polygon fill="white" stroke="#666666" points="879.5,-19 766.5,-19 766.5,0 879.5,0 879.5,-19"/>
<text text-anchor="middle" x="823" y="-7" font-family="Helvetica,sans-Serif" font-size="10.00">SourceDestBuffer.cpp</text>
</a>
</g>
</g>
<!-- Node1&#45;&gt;Node8 -->
<g id="edge7" class="edge">
<title>Node1&#45;&gt;Node8</title>
<path fill="none" stroke="#63b8ff" d="M626.39,-52.18C672.52,-42.4 738.28,-28.46 780.8,-19.45"/>
<polygon fill="#63b8ff" stroke="#63b8ff" points="625.95,-48.7 616.89,-54.2 627.4,-55.55 625.95,-48.7"/>
</g>
<!-- Node9 -->
<g id="node9" class="node">
<title>Node9</title>
<g id="a_node9"><a xlink:href="../../d6/dc5/_source_dest_buffer_impl_8cpp.html" target="_top" xlink:title=" ">
<polygon fill="white" stroke="#666666" points="1030,-19 898,-19 898,0 1030,0 1030,-19"/>
<text text-anchor="middle" x="964" y="-7" font-family="Helvetica,sans-Serif" font-size="10.00">SourceDestBufferImpl.cpp</text>
</a>
</g>
</g>
<!-- Node1&#45;&gt;Node9 -->
<g id="edge8" class="edge">
<title>Node1&#45;&gt;Node9</title>
<path fill="none" stroke="#63b8ff" d="M645.36,-53.69C717.62,-43.9 827.76,-28.97 897.78,-19.48"/>
<polygon fill="#63b8ff" stroke="#63b8ff" points="645.03,-50.2 635.59,-55.02 645.97,-57.14 645.03,-50.2"/>
</g>
</g>
</svg>
