<?xml version="1.0" encoding="UTF-8" standalone="no"?>
<!DOCTYPE svg PUBLIC "-//W3C//DTD SVG 1.1//EN"
 "http://www.w3.org/Graphics/SVG/1.1/DTD/svg11.dtd">
<!-- Generated by graphviz version 7.0.0 (20221023.0053)
 -->
<!-- Title: WriterImpl.cpp Pages: 1 -->
<svg width="436pt" height="357pt"
 viewBox="0.00 0.00 435.50 357.00" xmlns="http://www.w3.org/2000/svg" xmlns:xlink="http://www.w3.org/1999/xlink">
<g id="graph0" class="graph" transform="scale(1 1) rotate(0) translate(4 353)">
<title>WriterImpl.cpp</title>
<!-- Node1 -->
<g id="node1" class="node">
<title>Node1</title>
<g id="a_node1"><a xlink:title=" ">
<polygon fill="#999999" stroke="#666666" points="387.5,-349 307.5,-349 307.5,-330 387.5,-330 387.5,-349"/>
<text text-anchor="middle" x="347.5" y="-337" font-family="Helvetica,sans-Serif" font-size="10.00">WriterImpl.cpp</text>
</a>
</g>
</g>
<!-- Node2 -->
<g id="node2" class="node">
<title>Node2</title>
<g id="a_node2"><a xlink:href="../../d2/d80/_writer_impl_8h.html" target="_top" xlink:title=" ">
<polygon fill="white" stroke="#666666" points="305,-294 236,-294 236,-275 305,-275 305,-294"/>
<text text-anchor="middle" x="270.5" y="-282" font-family="Helvetica,sans-Serif" font-size="10.00">WriterImpl.h</text>
</a>
</g>
</g>
<!-- Node1&#45;&gt;Node2 -->
<g id="edge1" class="edge">
<title>Node1&#45;&gt;Node2</title>
<path fill="none" stroke="#63b8ff" d="M334.44,-329.51C322.98,-321.62 306.07,-309.98 292.52,-300.65"/>
<polygon fill="#63b8ff" stroke="#63b8ff" points="294.84,-298 284.62,-295.22 290.87,-303.77 294.84,-298"/>
</g>
<!-- Node15 -->
<g id="node15" class="node">
<title>Node15</title>
<g id="a_node15"><a xlink:href="../../db/d1f/_common_8h.html" target="_top" xlink:title=" ">
<polygon fill="white" stroke="#666666" points="380,-184 315,-184 315,-165 380,-165 380,-184"/>
<text text-anchor="middle" x="347.5" y="-172" font-family="Helvetica,sans-Serif" font-size="10.00">Common.h</text>
</a>
</g>
</g>
<!-- Node1&#45;&gt;Node15 -->
<g id="edge15" class="edge">
<title>Node1&#45;&gt;Node15</title>
<path fill="none" stroke="#63b8ff" d="M347.5,-329.74C347.5,-304.53 347.5,-231.36 347.5,-195.62"/>
<polygon fill="#63b8ff" stroke="#63b8ff" points="351,-195.82 347.5,-185.82 344,-195.82 351,-195.82"/>
</g>
<!-- Node17 -->
<g id="node17" class="node">
<title>Node17</title>
<g id="a_node17"><a xlink:title=" ">
<polygon fill="#e0e0e0" stroke="#999999" points="419.5,-294 375.5,-294 375.5,-275 419.5,-275 419.5,-294"/>
<text text-anchor="middle" x="397.5" y="-282" font-family="Helvetica,sans-Serif" font-size="10.00">cmath</text>
</a>
</g>
</g>
<!-- Node1&#45;&gt;Node17 -->
<g id="edge20" class="edge">
<title>Node1&#45;&gt;Node17</title>
<path fill="none" stroke="#63b8ff" d="M355.76,-329.75C362.66,-322.43 372.72,-311.76 381.24,-302.74"/>
<polygon fill="#63b8ff" stroke="#63b8ff" points="383.71,-305.22 388.03,-295.54 378.62,-300.42 383.71,-305.22"/>
</g>
<!-- Node3 -->
<g id="node3" class="node">
<title>Node3</title>
<g id="a_node3"><a xlink:href="../../d3/d5e/_e57_simple_data_8h.html" target="_top" xlink:title="Data structures for E57 Simple API.">
<polygon fill="white" stroke="#666666" points="276,-184 183,-184 183,-165 276,-165 276,-184"/>
<text text-anchor="middle" x="229.5" y="-172" font-family="Helvetica,sans-Serif" font-size="10.00">E57SimpleData.h</text>
</a>
</g>
</g>
<!-- Node2&#45;&gt;Node3 -->
<g id="edge2" class="edge">
<title>Node2&#45;&gt;Node3</title>
<path fill="none" stroke="#63b8ff" d="M250.98,-274.5C237.44,-267.09 220.47,-255.16 212.5,-239 205.4,-224.61 211.23,-206.87 217.93,-193.8"/>
<polygon fill="#63b8ff" stroke="#63b8ff" points="220.8,-195.82 222.74,-185.41 214.73,-192.34 220.8,-195.82"/>
</g>
<!-- Node14 -->
<g id="node14" class="node">
<title>Node14</title>
<g id="a_node14"><a xlink:href="../../d3/d3a/_e57_simple_writer_8h.html" target="_top" xlink:title="E57 Simple API for writing E57.">
<polygon fill="white" stroke="#666666" points="319,-239 222,-239 222,-220 319,-220 319,-239"/>
<text text-anchor="middle" x="270.5" y="-227" font-family="Helvetica,sans-Serif" font-size="10.00">E57SimpleWriter.h</text>
</a>
</g>
</g>
<!-- Node2&#45;&gt;Node14 -->
<g id="edge13" class="edge">
<title>Node2&#45;&gt;Node14</title>
<path fill="none" stroke="#63b8ff" d="M270.5,-274.75C270.5,-268.27 270.5,-259.16 270.5,-250.9"/>
<polygon fill="#63b8ff" stroke="#63b8ff" points="274,-250.96 270.5,-240.96 267,-250.96 274,-250.96"/>
</g>
<!-- Node4 -->
<g id="node4" class="node">
<title>Node4</title>
<g id="a_node4"><a xlink:href="../../d1/df2/_e57_format_8h.html" target="_top" xlink:title="Header file for the E57 API.">
<polygon fill="white" stroke="#666666" points="266,-129 193,-129 193,-110 266,-110 266,-129"/>
<text text-anchor="middle" x="229.5" y="-117" font-family="Helvetica,sans-Serif" font-size="10.00">E57Format.h</text>
</a>
</g>
</g>
<!-- Node3&#45;&gt;Node4 -->
<g id="edge3" class="edge">
<title>Node3&#45;&gt;Node4</title>
<path fill="none" stroke="#63b8ff" d="M229.5,-164.75C229.5,-158.27 229.5,-149.16 229.5,-140.9"/>
<polygon fill="#63b8ff" stroke="#63b8ff" points="233,-140.96 229.5,-130.96 226,-140.96 233,-140.96"/>
</g>
<!-- Node5 -->
<g id="node5" class="node">
<title>Node5</title>
<g id="a_node5"><a xlink:title=" ">
<polygon fill="#e0e0e0" stroke="#999999" points="41,-74 0,-74 0,-55 41,-55 41,-74"/>
<text text-anchor="middle" x="20.5" y="-62" font-family="Helvetica,sans-Serif" font-size="10.00">cfloat</text>
</a>
</g>
</g>
<!-- Node4&#45;&gt;Node5 -->
<g id="edge4" class="edge">
<title>Node4&#45;&gt;Node5</title>
<path fill="none" stroke="#63b8ff" d="M192.73,-109.73C158.75,-101.54 106.59,-88.77 52.33,-74.42"/>
<polygon fill="#63b8ff" stroke="#63b8ff" points="53.48,-71.11 42.92,-71.92 51.69,-77.87 53.48,-71.11"/>
</g>
<!-- Node6 -->
<g id="node6" class="node">
<title>Node6</title>
<g id="a_node6"><a xlink:title=" ">
<polygon fill="#e0e0e0" stroke="#999999" points="105.5,-74 59.5,-74 59.5,-55 105.5,-55 105.5,-74"/>
<text text-anchor="middle" x="82.5" y="-62" font-family="Helvetica,sans-Serif" font-size="10.00">cstdint</text>
</a>
</g>
</g>
<!-- Node4&#45;&gt;Node6 -->
<g id="edge5" class="edge">
<title>Node4&#45;&gt;Node6</title>
<path fill="none" stroke="#63b8ff" d="M204.56,-109.51C180.23,-100.74 143.04,-87.33 116.11,-77.62"/>
<polygon fill="#63b8ff" stroke="#63b8ff" points="117.64,-74.45 107.04,-74.35 115.26,-81.03 117.64,-74.45"/>
</g>
<!-- Node7 -->
<g id="node7" class="node">
<title>Node7</title>
<g id="a_node7"><a xlink:title=" ">
<polygon fill="#e0e0e0" stroke="#999999" points="175.5,-74 123.5,-74 123.5,-55 175.5,-55 175.5,-74"/>
<text text-anchor="middle" x="149.5" y="-62" font-family="Helvetica,sans-Serif" font-size="10.00">memory</text>
</a>
</g>
</g>
<!-- Node4&#45;&gt;Node7 -->
<g id="edge6" class="edge">
<title>Node4&#45;&gt;Node7</title>
<path fill="none" stroke="#63b8ff" d="M215.93,-109.51C204.02,-101.62 186.45,-89.98 172.37,-80.65"/>
<polygon fill="#63b8ff" stroke="#63b8ff" points="174.4,-77.8 164.13,-75.19 170.54,-83.63 174.4,-77.8"/>
</g>
<!-- Node8 -->
<g id="node8" class="node">
<title>Node8</title>
<g id="a_node8"><a xlink:title=" ">
<polygon fill="#e0e0e0" stroke="#999999" points="341.5,-74 297.5,-74 297.5,-55 341.5,-55 341.5,-74"/>
<text text-anchor="middle" x="319.5" y="-62" font-family="Helvetica,sans-Serif" font-size="10.00">vector</text>
</a>
</g>
</g>
<!-- Node4&#45;&gt;Node8 -->
<g id="edge7" class="edge">
<title>Node4&#45;&gt;Node8</title>
<path fill="none" stroke="#63b8ff" d="M244.77,-109.51C258.43,-101.47 278.7,-89.53 294.68,-80.11"/>
<polygon fill="#63b8ff" stroke="#63b8ff" points="296.31,-83.22 303.15,-75.13 292.76,-77.18 296.31,-83.22"/>
</g>
<!-- Node9 -->
<g id="node9" class="node">
<title>Node9</title>
<g id="a_node9"><a xlink:href="../../d4/d6e/_e57_exception_8h.html" target="_top" xlink:title="Exception handling for E57 API.">
<polygon fill="white" stroke="#666666" points="279.5,-74 193.5,-74 193.5,-55 279.5,-55 279.5,-74"/>
<text text-anchor="middle" x="236.5" y="-62" font-family="Helvetica,sans-Serif" font-size="10.00">E57Exception.h</text>
</a>
</g>
</g>
<!-- Node4&#45;&gt;Node9 -->
<g id="edge8" class="edge">
<title>Node4&#45;&gt;Node9</title>
<path fill="none" stroke="#63b8ff" d="M230.66,-109.75C231.52,-103.19 232.74,-93.95 233.84,-85.6"/>
<polygon fill="#63b8ff" stroke="#63b8ff" points="237.28,-86.31 235.12,-75.94 230.34,-85.4 237.28,-86.31"/>
</g>
<!-- Node10 -->
<g id="node10" class="node">
<title>Node10</title>
<g id="a_node10"><a xlink:title=" ">
<polygon fill="#e0e0e0" stroke="#999999" points="169,-19 110,-19 110,0 169,0 169,-19"/>
<text text-anchor="middle" x="139.5" y="-7" font-family="Helvetica,sans-Serif" font-size="10.00">exception</text>
</a>
</g>
</g>
<!-- Node9&#45;&gt;Node10 -->
<g id="edge9" class="edge">
<title>Node9&#45;&gt;Node10</title>
<path fill="none" stroke="#63b8ff" d="M220.05,-54.51C205.18,-46.39 183.06,-34.3 165.75,-24.85"/>
<polygon fill="#63b8ff" stroke="#63b8ff" points="167.49,-21.81 157.04,-20.08 164.14,-27.95 167.49,-21.81"/>
</g>
<!-- Node11 -->
<g id="node11" class="node">
<title>Node11</title>
<g id="a_node11"><a xlink:title=" ">
<polygon fill="#e0e0e0" stroke="#999999" points="241.5,-19 187.5,-19 187.5,0 241.5,0 241.5,-19"/>
<text text-anchor="middle" x="214.5" y="-7" font-family="Helvetica,sans-Serif" font-size="10.00">iostream</text>
</a>
</g>
</g>
<!-- Node9&#45;&gt;Node11 -->
<g id="edge10" class="edge">
<title>Node9&#45;&gt;Node11</title>
<path fill="none" stroke="#63b8ff" d="M232.87,-54.75C230.08,-48.04 226.13,-38.52 222.6,-30.02"/>
<polygon fill="#63b8ff" stroke="#63b8ff" points="225.86,-28.73 218.79,-20.84 219.39,-31.42 225.86,-28.73"/>
</g>
<!-- Node12 -->
<g id="node12" class="node">
<title>Node12</title>
<g id="a_node12"><a xlink:title=" ">
<polygon fill="#e0e0e0" stroke="#999999" points="390,-19 349,-19 349,0 390,0 390,-19"/>
<text text-anchor="middle" x="369.5" y="-7" font-family="Helvetica,sans-Serif" font-size="10.00">string</text>
</a>
</g>
</g>
<!-- Node9&#45;&gt;Node12 -->
<g id="edge11" class="edge">
<title>Node9&#45;&gt;Node12</title>
<path fill="none" stroke="#63b8ff" d="M259.06,-54.51C280.78,-45.85 313.83,-32.68 338.11,-23.01"/>
<polygon fill="#63b8ff" stroke="#63b8ff" points="339.18,-26.35 347.18,-19.4 336.59,-19.85 339.18,-26.35"/>
</g>
<!-- Node13 -->
<g id="node13" class="node">
<title>Node13</title>
<g id="a_node13"><a xlink:title=" ">
<polygon fill="#e0e0e0" stroke="#999999" points="331,-19 260,-19 260,0 331,0 331,-19"/>
<text text-anchor="middle" x="295.5" y="-7" font-family="Helvetica,sans-Serif" font-size="10.00">E57Export.h</text>
</a>
</g>
</g>
<!-- Node9&#45;&gt;Node13 -->
<g id="edge12" class="edge">
<title>Node9&#45;&gt;Node13</title>
<path fill="none" stroke="#63b8ff" d="M246.51,-54.51C254.87,-47 267,-36.1 277.1,-27.03"/>
<polygon fill="#63b8ff" stroke="#63b8ff" points="279.41,-29.66 284.51,-20.37 274.74,-24.45 279.41,-29.66"/>
</g>
<!-- Node14&#45;&gt;Node3 -->
<g id="edge14" class="edge">
<title>Node14&#45;&gt;Node3</title>
<path fill="none" stroke="#63b8ff" d="M263.73,-219.75C258.18,-212.58 250.16,-202.2 243.27,-193.3"/>
<polygon fill="#63b8ff" stroke="#63b8ff" points="246.23,-191.41 237.34,-185.64 240.69,-195.69 246.23,-191.41"/>
</g>
<!-- Node15&#45;&gt;Node4 -->
<g id="edge19" class="edge">
<title>Node15&#45;&gt;Node4</title>
<path fill="none" stroke="#63b8ff" d="M327.48,-164.51C308.89,-156.16 280.96,-143.61 259.67,-134.05"/>
<polygon fill="#63b8ff" stroke="#63b8ff" points="261.16,-130.88 250.6,-129.98 258.29,-137.27 261.16,-130.88"/>
</g>
<!-- Node15&#45;&gt;Node8 -->
<g id="edge18" class="edge">
<title>Node15&#45;&gt;Node8</title>
<path fill="none" stroke="#63b8ff" d="M345.21,-164.66C340.76,-147.5 330.84,-109.26 324.71,-85.6"/>
<polygon fill="#63b8ff" stroke="#63b8ff" points="328.1,-84.73 322.2,-75.93 321.32,-86.48 328.1,-84.73"/>
</g>
<!-- Node15&#45;&gt;Node12 -->
<g id="edge17" class="edge">
<title>Node15&#45;&gt;Node12</title>
<path fill="none" stroke="#63b8ff" d="M348.68,-164.74C352.08,-139.53 361.96,-66.36 366.78,-30.62"/>
<polygon fill="#63b8ff" stroke="#63b8ff" points="370.24,-31.19 368.11,-20.81 363.3,-30.25 370.24,-31.19"/>
</g>
<!-- Node16 -->
<g id="node16" class="node">
<title>Node16</title>
<g id="a_node16"><a xlink:title=" ">
<polygon fill="#e0e0e0" stroke="#999999" points="427.5,-129 397.5,-129 397.5,-110 427.5,-110 427.5,-129"/>
<text text-anchor="middle" x="412.5" y="-117" font-family="Helvetica,sans-Serif" font-size="10.00">set</text>
</a>
</g>
</g>
<!-- Node15&#45;&gt;Node16 -->
<g id="edge16" class="edge">
<title>Node15&#45;&gt;Node16</title>
<path fill="none" stroke="#63b8ff" d="M358.53,-164.51C367.92,-156.85 381.65,-145.66 392.91,-136.47"/>
<polygon fill="#63b8ff" stroke="#63b8ff" points="394.93,-139.35 400.46,-130.31 390.5,-133.92 394.93,-139.35"/>
</g>
</g>
</svg>
