<?xml version="1.0" encoding="UTF-8" standalone="no"?>
<!DOCTYPE svg PUBLIC "-//W3C//DTD SVG 1.1//EN"
 "http://www.w3.org/Graphics/SVG/1.1/DTD/svg11.dtd">
<!-- Generated by graphviz version 2.49.0 (20210828.1703)
 -->
<!-- Title: WriterImpl.cpp Pages: 1 -->
<svg width="425pt" height="308pt"
 viewBox="0.00 0.00 424.50 308.00" xmlns="http://www.w3.org/2000/svg" xmlns:xlink="http://www.w3.org/1999/xlink">
<g id="graph0" class="graph" transform="scale(1 1) rotate(0) translate(4 304)">
<title>WriterImpl.cpp</title>
<polygon fill="white" stroke="transparent" points="-4,4 -4,-304 420.5,-304 420.5,4 -4,4"/>
<!-- Node1 -->
<g id="node1" class="node">
<title>Node1</title>
<g id="a_node1"><a xlink:title=" ">
<polygon fill="#bfbfbf" stroke="black" points="173.5,-280.5 173.5,-299.5 254.5,-299.5 254.5,-280.5 173.5,-280.5"/>
<text text-anchor="middle" x="214" y="-287.5" font-family="Helvetica,sans-Serif" font-size="10.00">WriterImpl.cpp</text>
</a>
</g>
</g>
<!-- Node2 -->
<g id="node2" class="node">
<title>Node2</title>
<g id="a_node2"><a xlink:href="../../d2/d80/_writer_impl_8h.html" target="_top" xlink:title=" ">
<polygon fill="white" stroke="black" points="107,-224.5 107,-243.5 177,-243.5 177,-224.5 107,-224.5"/>
<text text-anchor="middle" x="142" y="-231.5" font-family="Helvetica,sans-Serif" font-size="10.00">WriterImpl.h</text>
</a>
</g>
</g>
<!-- Node1&#45;&gt;Node2 -->
<g id="edge1" class="edge">
<title>Node1&#45;&gt;Node2</title>
<path fill="none" stroke="midnightblue" d="M202.43,-280.32C191.58,-272.18 175.12,-259.84 162.12,-250.09"/>
<polygon fill="midnightblue" stroke="midnightblue" points="163.88,-247.03 153.78,-243.83 159.68,-252.63 163.88,-247.03"/>
</g>
<!-- Node13 -->
<g id="node13" class="node">
<title>Node13</title>
<g id="a_node13"><a xlink:href="../../db/d1f/_common_8h.html" target="_top" xlink:title=" ">
<polygon fill="white" stroke="black" points="200.5,-168.5 200.5,-187.5 265.5,-187.5 265.5,-168.5 200.5,-168.5"/>
<text text-anchor="middle" x="233" y="-175.5" font-family="Helvetica,sans-Serif" font-size="10.00">Common.h</text>
</a>
</g>
</g>
<!-- Node1&#45;&gt;Node13 -->
<g id="edge12" class="edge">
<title>Node1&#45;&gt;Node13</title>
<path fill="none" stroke="midnightblue" d="M215.49,-280.37C218.56,-262.62 225.63,-221.67 229.79,-197.6"/>
<polygon fill="midnightblue" stroke="midnightblue" points="233.26,-198.04 231.52,-187.59 226.36,-196.85 233.26,-198.04"/>
</g>
<!-- Node17 -->
<g id="node17" class="node">
<title>Node17</title>
<g id="a_node17"><a xlink:title=" ">
<polygon fill="white" stroke="#bfbfbf" points="242,-224.5 242,-243.5 286,-243.5 286,-224.5 242,-224.5"/>
<text text-anchor="middle" x="264" y="-231.5" font-family="Helvetica,sans-Serif" font-size="10.00">cmath</text>
</a>
</g>
</g>
<!-- Node1&#45;&gt;Node17 -->
<g id="edge20" class="edge">
<title>Node1&#45;&gt;Node17</title>
<path fill="none" stroke="midnightblue" d="M222.26,-280.08C229.46,-272.3 240.11,-260.8 248.85,-251.37"/>
<polygon fill="midnightblue" stroke="midnightblue" points="251.67,-253.47 255.9,-243.75 246.53,-248.71 251.67,-253.47"/>
</g>
<!-- Node3 -->
<g id="node3" class="node">
<title>Node3</title>
<g id="a_node3"><a xlink:href="../../d3/d5e/_e57_simple_data_8h.html" target="_top" xlink:title="Data structures for E57 Simple API.">
<polygon fill="white" stroke="black" points="78,-168.5 78,-187.5 172,-187.5 172,-168.5 78,-168.5"/>
<text text-anchor="middle" x="125" y="-175.5" font-family="Helvetica,sans-Serif" font-size="10.00">E57SimpleData.h</text>
</a>
</g>
</g>
<!-- Node2&#45;&gt;Node3 -->
<g id="edge2" class="edge">
<title>Node2&#45;&gt;Node3</title>
<path fill="none" stroke="midnightblue" d="M139.19,-224.08C136.92,-216.85 133.63,-206.41 130.79,-197.4"/>
<polygon fill="midnightblue" stroke="midnightblue" points="134.1,-196.24 127.75,-187.75 127.42,-198.34 134.1,-196.24"/>
</g>
<!-- Node4 -->
<g id="node4" class="node">
<title>Node4</title>
<g id="a_node4"><a xlink:href="../../d1/df2/_e57_format_8h.html" target="_top" xlink:title="header file for the E57 API">
<polygon fill="white" stroke="black" points="48,-112.5 48,-131.5 122,-131.5 122,-112.5 48,-112.5"/>
<text text-anchor="middle" x="85" y="-119.5" font-family="Helvetica,sans-Serif" font-size="10.00">E57Format.h</text>
</a>
</g>
</g>
<!-- Node3&#45;&gt;Node4 -->
<g id="edge3" class="edge">
<title>Node3&#45;&gt;Node4</title>
<path fill="none" stroke="midnightblue" d="M118.39,-168.08C112.74,-160.46 104.46,-149.26 97.55,-139.94"/>
<polygon fill="midnightblue" stroke="midnightblue" points="100.25,-137.7 91.48,-131.75 94.62,-141.87 100.25,-137.7"/>
</g>
<!-- Node5 -->
<g id="node5" class="node">
<title>Node5</title>
<g id="a_node5"><a xlink:title=" ">
<polygon fill="white" stroke="#bfbfbf" points="0,-56.5 0,-75.5 40,-75.5 40,-56.5 0,-56.5"/>
<text text-anchor="middle" x="20" y="-63.5" font-family="Helvetica,sans-Serif" font-size="10.00">cfloat</text>
</a>
</g>
</g>
<!-- Node4&#45;&gt;Node5 -->
<g id="edge4" class="edge">
<title>Node4&#45;&gt;Node5</title>
<path fill="none" stroke="midnightblue" d="M74.56,-112.32C64.85,-104.26 50.18,-92.08 38.5,-82.37"/>
<polygon fill="midnightblue" stroke="midnightblue" points="40.56,-79.53 30.63,-75.83 36.09,-84.92 40.56,-79.53"/>
</g>
<!-- Node6 -->
<g id="node6" class="node">
<title>Node6</title>
<g id="a_node6"><a xlink:title=" ">
<polygon fill="white" stroke="#bfbfbf" points="58.5,-56.5 58.5,-75.5 111.5,-75.5 111.5,-56.5 58.5,-56.5"/>
<text text-anchor="middle" x="85" y="-63.5" font-family="Helvetica,sans-Serif" font-size="10.00">memory</text>
</a>
</g>
</g>
<!-- Node4&#45;&gt;Node6 -->
<g id="edge5" class="edge">
<title>Node4&#45;&gt;Node6</title>
<path fill="none" stroke="midnightblue" d="M85,-112.08C85,-105.01 85,-94.86 85,-85.99"/>
<polygon fill="midnightblue" stroke="midnightblue" points="88.5,-85.75 85,-75.75 81.5,-85.75 88.5,-85.75"/>
</g>
<!-- Node7 -->
<g id="node7" class="node">
<title>Node7</title>
<g id="a_node7"><a xlink:title=" ">
<polygon fill="white" stroke="#bfbfbf" points="235,-56.5 235,-75.5 279,-75.5 279,-56.5 235,-56.5"/>
<text text-anchor="middle" x="257" y="-63.5" font-family="Helvetica,sans-Serif" font-size="10.00">vector</text>
</a>
</g>
</g>
<!-- Node4&#45;&gt;Node7 -->
<g id="edge6" class="edge">
<title>Node4&#45;&gt;Node7</title>
<path fill="none" stroke="midnightblue" d="M112.25,-112.44C142.85,-102.84 192.46,-87.26 224.91,-77.07"/>
<polygon fill="midnightblue" stroke="midnightblue" points="226.3,-80.31 234.8,-73.97 224.21,-73.63 226.3,-80.31"/>
</g>
<!-- Node8 -->
<g id="node8" class="node">
<title>Node8</title>
<g id="a_node8"><a xlink:href="../../d4/d6e/_e57_exception_8h.html" target="_top" xlink:title=" ">
<polygon fill="white" stroke="black" points="129.5,-56.5 129.5,-75.5 216.5,-75.5 216.5,-56.5 129.5,-56.5"/>
<text text-anchor="middle" x="173" y="-63.5" font-family="Helvetica,sans-Serif" font-size="10.00">E57Exception.h</text>
</a>
</g>
</g>
<!-- Node4&#45;&gt;Node8 -->
<g id="edge7" class="edge">
<title>Node4&#45;&gt;Node8</title>
<path fill="none" stroke="midnightblue" d="M99.14,-112.32C112.87,-103.9 133.94,-90.97 150.06,-81.07"/>
<polygon fill="midnightblue" stroke="midnightblue" points="152.2,-83.87 158.9,-75.65 148.54,-77.9 152.2,-83.87"/>
</g>
<!-- Node9 -->
<g id="node9" class="node">
<title>Node9</title>
<g id="a_node9"><a xlink:title=" ">
<polygon fill="white" stroke="#bfbfbf" points="101.5,-0.5 101.5,-19.5 160.5,-19.5 160.5,-0.5 101.5,-0.5"/>
<text text-anchor="middle" x="131" y="-7.5" font-family="Helvetica,sans-Serif" font-size="10.00">exception</text>
</a>
</g>
</g>
<!-- Node8&#45;&gt;Node9 -->
<g id="edge8" class="edge">
<title>Node8&#45;&gt;Node9</title>
<path fill="none" stroke="midnightblue" d="M166.06,-56.08C160.07,-48.38 151.25,-37.03 143.95,-27.65"/>
<polygon fill="midnightblue" stroke="midnightblue" points="146.71,-25.5 137.81,-19.75 141.18,-29.79 146.71,-25.5"/>
</g>
<!-- Node10 -->
<g id="node10" class="node">
<title>Node10</title>
<g id="a_node10"><a xlink:title=" ">
<polygon fill="white" stroke="#bfbfbf" points="361.5,-0.5 361.5,-19.5 416.5,-19.5 416.5,-0.5 361.5,-0.5"/>
<text text-anchor="middle" x="389" y="-7.5" font-family="Helvetica,sans-Serif" font-size="10.00">iostream</text>
</a>
</g>
</g>
<!-- Node8&#45;&gt;Node10 -->
<g id="edge9" class="edge">
<title>Node8&#45;&gt;Node10</title>
<path fill="none" stroke="midnightblue" d="M207.23,-56.44C246.6,-46.6 311.02,-30.5 351.66,-20.34"/>
<polygon fill="midnightblue" stroke="midnightblue" points="352.59,-23.71 361.45,-17.89 350.9,-16.92 352.59,-23.71"/>
</g>
<!-- Node11 -->
<g id="node11" class="node">
<title>Node11</title>
<g id="a_node11"><a xlink:title=" ">
<polygon fill="white" stroke="#bfbfbf" points="294.5,-0.5 294.5,-19.5 335.5,-19.5 335.5,-0.5 294.5,-0.5"/>
<text text-anchor="middle" x="315" y="-7.5" font-family="Helvetica,sans-Serif" font-size="10.00">string</text>
</a>
</g>
</g>
<!-- Node8&#45;&gt;Node11 -->
<g id="edge10" class="edge">
<title>Node8&#45;&gt;Node11</title>
<path fill="none" stroke="midnightblue" d="M195.5,-56.44C219.63,-47.27 258.08,-32.64 284.83,-22.47"/>
<polygon fill="midnightblue" stroke="midnightblue" points="286.35,-25.64 294.45,-18.82 283.86,-19.1 286.35,-25.64"/>
</g>
<!-- Node12 -->
<g id="node12" class="node">
<title>Node12</title>
<g id="a_node12"><a xlink:title=" ">
<polygon fill="white" stroke="#bfbfbf" points="179,-0.5 179,-19.5 251,-19.5 251,-0.5 179,-0.5"/>
<text text-anchor="middle" x="215" y="-7.5" font-family="Helvetica,sans-Serif" font-size="10.00">E57Export.h</text>
</a>
</g>
</g>
<!-- Node8&#45;&gt;Node12 -->
<g id="edge11" class="edge">
<title>Node8&#45;&gt;Node12</title>
<path fill="none" stroke="midnightblue" d="M179.94,-56.08C185.93,-48.38 194.75,-37.03 202.05,-27.65"/>
<polygon fill="midnightblue" stroke="midnightblue" points="204.82,-29.79 208.19,-19.75 199.29,-25.5 204.82,-29.79"/>
</g>
<!-- Node13&#45;&gt;Node4 -->
<g id="edge19" class="edge">
<title>Node13&#45;&gt;Node4</title>
<path fill="none" stroke="midnightblue" d="M209.55,-168.44C184.87,-159.44 145.81,-145.19 118.02,-135.05"/>
<polygon fill="midnightblue" stroke="midnightblue" points="118.94,-131.66 108.34,-131.52 116.54,-138.23 118.94,-131.66"/>
</g>
<!-- Node13&#45;&gt;Node7 -->
<g id="edge18" class="edge">
<title>Node13&#45;&gt;Node7</title>
<path fill="none" stroke="midnightblue" d="M212.67,-168.3C188.96,-156.84 154.7,-135.37 169,-112 175.5,-101.37 202.96,-88.32 225.49,-79.01"/>
<polygon fill="midnightblue" stroke="midnightblue" points="226.81,-82.25 234.77,-75.27 224.19,-75.76 226.81,-82.25"/>
</g>
<!-- Node13&#45;&gt;Node10 -->
<g id="edge14" class="edge">
<title>Node13&#45;&gt;Node10</title>
<path fill="none" stroke="midnightblue" d="M265.6,-176.33C298.56,-173.76 348.35,-164.32 375,-132 399.02,-102.86 396.34,-55.5 392.53,-29.51"/>
<polygon fill="midnightblue" stroke="midnightblue" points="395.95,-28.79 390.84,-19.51 389.05,-29.95 395.95,-28.79"/>
</g>
<!-- Node13&#45;&gt;Node11 -->
<g id="edge17" class="edge">
<title>Node13&#45;&gt;Node11</title>
<path fill="none" stroke="midnightblue" d="M265.59,-175.16C294.93,-171.57 336.49,-161.26 357,-132 380.18,-98.93 349.34,-51.9 329.46,-27.34"/>
<polygon fill="midnightblue" stroke="midnightblue" points="332.1,-25.06 322.99,-19.66 326.75,-29.56 332.1,-25.06"/>
</g>
<!-- Node14 -->
<g id="node14" class="node">
<title>Node14</title>
<g id="a_node14"><a xlink:title=" ">
<polygon fill="white" stroke="#bfbfbf" points="178,-112.5 178,-131.5 230,-131.5 230,-112.5 178,-112.5"/>
<text text-anchor="middle" x="204" y="-119.5" font-family="Helvetica,sans-Serif" font-size="10.00">iomanip</text>
</a>
</g>
</g>
<!-- Node13&#45;&gt;Node14 -->
<g id="edge13" class="edge">
<title>Node13&#45;&gt;Node14</title>
<path fill="none" stroke="midnightblue" d="M228.21,-168.08C224.24,-160.69 218.47,-149.95 213.57,-140.81"/>
<polygon fill="midnightblue" stroke="midnightblue" points="216.51,-138.91 208.7,-131.75 210.35,-142.22 216.51,-138.91"/>
</g>
<!-- Node15 -->
<g id="node15" class="node">
<title>Node15</title>
<g id="a_node15"><a xlink:title=" ">
<polygon fill="white" stroke="#bfbfbf" points="248,-112.5 248,-131.5 278,-131.5 278,-112.5 248,-112.5"/>
<text text-anchor="middle" x="263" y="-119.5" font-family="Helvetica,sans-Serif" font-size="10.00">set</text>
</a>
</g>
</g>
<!-- Node13&#45;&gt;Node15 -->
<g id="edge15" class="edge">
<title>Node13&#45;&gt;Node15</title>
<path fill="none" stroke="midnightblue" d="M237.95,-168.08C242.1,-160.61 248.15,-149.72 253.27,-140.52"/>
<polygon fill="midnightblue" stroke="midnightblue" points="256.34,-142.19 258.14,-131.75 250.22,-138.79 256.34,-142.19"/>
</g>
<!-- Node16 -->
<g id="node16" class="node">
<title>Node16</title>
<g id="a_node16"><a xlink:title=" ">
<polygon fill="white" stroke="#bfbfbf" points="296,-112.5 296,-131.5 348,-131.5 348,-112.5 296,-112.5"/>
<text text-anchor="middle" x="322" y="-119.5" font-family="Helvetica,sans-Serif" font-size="10.00">sstream</text>
</a>
</g>
</g>
<!-- Node13&#45;&gt;Node16 -->
<g id="edge16" class="edge">
<title>Node13&#45;&gt;Node16</title>
<path fill="none" stroke="midnightblue" d="M247.3,-168.32C261.18,-159.9 282.49,-146.97 298.8,-137.07"/>
<polygon fill="midnightblue" stroke="midnightblue" points="301,-139.83 307.74,-131.65 297.37,-133.85 301,-139.83"/>
</g>
</g>
</svg>
