<?xml version="1.0" encoding="UTF-8" standalone="no"?>
<!DOCTYPE svg PUBLIC "-//W3C//DTD SVG 1.1//EN"
 "http://www.w3.org/Graphics/SVG/1.1/DTD/svg11.dtd">
<!-- Generated by graphviz version 8.1.0 (20230707.0739)
 -->
<!-- Title: E57Exception.cpp Pages: 1 -->
<svg width="284pt" height="138pt"
 viewBox="0.00 0.00 284.00 137.75" xmlns="http://www.w3.org/2000/svg" xmlns:xlink="http://www.w3.org/1999/xlink">
<g id="graph0" class="graph" transform="scale(1 1) rotate(0) translate(4 133.75)">
<title>E57Exception.cpp</title>
<!-- Node1 -->
<g id="node1" class="node">
<title>Node1</title>
<g id="a_node1"><a xlink:title=" ">
<polygon fill="#999999" stroke="#666666" points="182.75,-129.75 87.25,-129.75 87.25,-110.5 182.75,-110.5 182.75,-129.75"/>
<text text-anchor="middle" x="135" y="-116.25" font-family="Helvetica,sans-Serif" font-size="10.00">E57Exception.cpp</text>
</a>
</g>
</g>
<!-- Node2 -->
<g id="node2" class="node">
<title>Node2</title>
<g id="a_node2"><a xlink:href="../../d4/d6e/_e57_exception_8h.html" target="_top" xlink:title="Exception handling for E57 API.">
<polygon fill="white" stroke="#666666" points="177.5,-74.5 92.5,-74.5 92.5,-55.25 177.5,-55.25 177.5,-74.5"/>
<text text-anchor="middle" x="135" y="-61" font-family="Helvetica,sans-Serif" font-size="10.00">E57Exception.h</text>
</a>
</g>
</g>
<!-- Node1&#45;&gt;Node2 -->
<g id="edge1" class="edge">
<title>Node1&#45;&gt;Node2</title>
<path fill="none" stroke="#63b8ff" d="M135,-110.33C135,-103.67 135,-94.24 135,-85.78"/>
<polygon fill="#63b8ff" stroke="#63b8ff" points="138.5,-85.86 135,-75.86 131.5,-85.86 138.5,-85.86"/>
</g>
<!-- Node3 -->
<g id="node3" class="node">
<title>Node3</title>
<g id="a_node3"><a xlink:title=" ">
<polygon fill="#e0e0e0" stroke="#999999" points="58,-19.25 0,-19.25 0,0 58,0 58,-19.25"/>
<text text-anchor="middle" x="29" y="-5.75" font-family="Helvetica,sans-Serif" font-size="10.00">exception</text>
</a>
</g>
</g>
<!-- Node2&#45;&gt;Node3 -->
<g id="edge2" class="edge">
<title>Node2&#45;&gt;Node3</title>
<path fill="none" stroke="#63b8ff" d="M117.02,-54.84C100.5,-46.54 75.75,-34.11 56.71,-24.54"/>
<polygon fill="#63b8ff" stroke="#63b8ff" points="58.58,-21.06 48.07,-19.7 55.43,-27.32 58.58,-21.06"/>
</g>
<!-- Node4 -->
<g id="node4" class="node">
<title>Node4</title>
<g id="a_node4"><a xlink:title=" ">
<polygon fill="#e0e0e0" stroke="#999999" points="129.75,-19.25 76.25,-19.25 76.25,0 129.75,0 129.75,-19.25"/>
<text text-anchor="middle" x="103" y="-5.75" font-family="Helvetica,sans-Serif" font-size="10.00">iostream</text>
</a>
</g>
</g>
<!-- Node2&#45;&gt;Node4 -->
<g id="edge3" class="edge">
<title>Node2&#45;&gt;Node4</title>
<path fill="none" stroke="#63b8ff" d="M129.72,-55.08C125.43,-47.96 119.26,-37.68 113.92,-28.8"/>
<polygon fill="#63b8ff" stroke="#63b8ff" points="116.55,-27.38 108.4,-20.61 110.55,-30.98 116.55,-27.38"/>
</g>
<!-- Node5 -->
<g id="node5" class="node">
<title>Node5</title>
<g id="a_node5"><a xlink:title=" ">
<polygon fill="#e0e0e0" stroke="#999999" points="188,-19.25 148,-19.25 148,0 188,0 188,-19.25"/>
<text text-anchor="middle" x="168" y="-5.75" font-family="Helvetica,sans-Serif" font-size="10.00">string</text>
</a>
</g>
</g>
<!-- Node2&#45;&gt;Node5 -->
<g id="edge4" class="edge">
<title>Node2&#45;&gt;Node5</title>
<path fill="none" stroke="#63b8ff" d="M140.45,-55.08C144.87,-47.96 151.24,-37.68 156.74,-28.8"/>
<polygon fill="#63b8ff" stroke="#63b8ff" points="160.14,-30.95 162.43,-20.61 154.19,-27.27 160.14,-30.95"/>
</g>
<!-- Node6 -->
<g id="node6" class="node">
<title>Node6</title>
<g id="a_node6"><a xlink:title=" ">
<polygon fill="#e0e0e0" stroke="#999999" points="276,-19.25 206,-19.25 206,0 276,0 276,-19.25"/>
<text text-anchor="middle" x="241" y="-5.75" font-family="Helvetica,sans-Serif" font-size="10.00">E57Export.h</text>
</a>
</g>
</g>
<!-- Node2&#45;&gt;Node6 -->
<g id="edge5" class="edge">
<title>Node2&#45;&gt;Node6</title>
<path fill="none" stroke="#63b8ff" d="M152.98,-54.84C169.5,-46.54 194.25,-34.11 213.29,-24.54"/>
<polygon fill="#63b8ff" stroke="#63b8ff" points="214.57,-27.32 221.93,-19.7 211.42,-21.06 214.57,-27.32"/>
</g>
</g>
</svg>
