<svg height="137pt" viewBox="0 0 352.5 137" width="353pt" xmlns="http://www.w3.org/2000/svg" xmlns:xlink="http://www.w3.org/1999/xlink"><g transform="translate(4 133)"><a xlink:title=""><path d="m267.5-129h-96v19h96z" fill="#999" stroke="#666"/><text font-family="Helvetica,sans-Serif" font-size="10" text-anchor="middle" x="219.5" y="-117">E57Exception.cpp</text></a><a target="_top" xlink:href="../../d4/d6e/_e57_exception_8h.html" xlink:title="Exception handling for E57 API."><path d="m213.5-74h-86v19h86z" fill="#fff" stroke="#666"/><text font-family="Helvetica,sans-Serif" font-size="10" text-anchor="middle" x="170.5" y="-62">E57Exception.h</text></a><g stroke="#63b8ff"><path d="m211.41-109.75c-7.07 7.64-17.5 18.93-26.06 28.19" fill="none"/><path d="m187.8-79.06-9.36 4.97 4.22-9.72z" fill="#63b8ff"/></g><a target="_top" xlink:href="../../d3/df2/_e57_version_8h.html" xlink:title=""><path d="m333-74h-75v19h75z" fill="#fff" stroke="#666"/><text font-family="Helvetica,sans-Serif" font-size="10" text-anchor="middle" x="295.5" y="-62">E57Version.h</text></a><g stroke="#63b8ff"><path d="m231.71-109.98c11.57 8.06 29.17 20.33 42.95 29.95" fill="none"/><path d="m276.87-82.76 6.2 8.59-10.21-2.85z" fill="#63b8ff"/></g><a xlink:title=""><path d="m59-19h-59v19h59z" fill="#e0e0e0" stroke="#999"/><text font-family="Helvetica,sans-Serif" font-size="10" text-anchor="middle" x="29.5" y="-7">exception</text></a><g stroke="#63b8ff"><path d="m147.85-54.98c-23.2 8.71-59.47 22.35-85.75 32.23" fill="none"/><path d="m63.16-19.41-10.59.24 8.13-6.8z" fill="#63b8ff"/></g><a xlink:title=""><path d="m131.5-19h-54v19h54z" fill="#e0e0e0" stroke="#999"/><text font-family="Helvetica,sans-Serif" font-size="10" text-anchor="middle" x="104.5" y="-7">iostream</text></a><g stroke="#63b8ff"><path d="m159.9-54.98c-9.86 7.91-24.75 19.87-36.62 29.4" fill="none"/><path d="m125.29-22.7-9.99 3.53 5.6-8.99z" fill="#63b8ff"/></g><a xlink:title=""><path d="m191-19h-41v19h41z" fill="#e0e0e0" stroke="#999"/><text font-family="Helvetica,sans-Serif" font-size="10" text-anchor="middle" x="170.5" y="-7">string</text></a><g stroke="#63b8ff"><path d="m170.5-54.75v25.62" fill="none"/><path d="m174-29.09-3.5 10-3.5-10z" fill="#63b8ff"/></g><a xlink:title=""><path d="m280-19h-71v19h71z" fill="#e0e0e0" stroke="#999"/><text font-family="Helvetica,sans-Serif" font-size="10" text-anchor="middle" x="244.5" y="-7">E57Export.h</text></a><g stroke="#63b8ff"><path d="m182.39-54.98c11.26 8.06 28.4 20.33 41.82 29.95" fill="none"/><path d="m226.3-27.84 6.09 8.67-10.16-2.98z" fill="#63b8ff"/></g><a xlink:title=""><path d="m344.5-19h-46v19h46z" fill="#e0e0e0" stroke="#999"/><text font-family="Helvetica,sans-Serif" font-size="10" text-anchor="middle" x="321.5" y="-7">cstdint</text></a><g stroke="#63b8ff"><path d="m299.79-54.75c3.52 7.18 8.62 17.57 12.99 26.48" fill="none"/><path d="m316.02-29.61 1.27 10.52-7.55-7.44z" fill="#63b8ff"/></g></g></svg>