<?xml version="1.0" encoding="UTF-8" standalone="no"?>
<!DOCTYPE svg PUBLIC "-//W3C//DTD SVG 1.1//EN"
 "http://www.w3.org/Graphics/SVG/1.1/DTD/svg11.dtd">
<!-- Generated by graphviz version 9.0.0 (20230911.1827)
 -->
<!-- Title: E57Version.cpp Pages: 1 -->
<svg width="307pt" height="138pt"
 viewBox="0.00 0.00 306.62 137.75" xmlns="http://www.w3.org/2000/svg" xmlns:xlink="http://www.w3.org/1999/xlink">
<g id="graph0" class="graph" transform="scale(1 1) rotate(0) translate(4 133.75)">
<title>E57Version.cpp</title>
<!-- Node1 -->
<g id="node1" class="node">
<title>Node1</title>
<g id="a_node1"><a xlink:title=" ">
<polygon fill="#999999" stroke="#666666" points="154.12,-129.75 69.12,-129.75 69.12,-110.5 154.12,-110.5 154.12,-129.75"/>
<text text-anchor="middle" x="111.62" y="-116.25" font-family="Helvetica,sans-Serif" font-size="10.00">E57Version.cpp</text>
</a>
</g>
</g>
<!-- Node2 -->
<g id="node2" class="node">
<title>Node2</title>
<g id="a_node2"><a xlink:title=" ">
<polygon fill="#e0e0e0" stroke="#999999" points="51.25,-74.5 0,-74.5 0,-55.25 51.25,-55.25 51.25,-74.5"/>
<text text-anchor="middle" x="25.62" y="-61" font-family="Helvetica,sans-Serif" font-size="10.00">sstream</text>
</a>
</g>
</g>
<!-- Node1&#45;&gt;Node2 -->
<g id="edge1" class="edge">
<title>Node1&#45;&gt;Node2</title>
<path fill="none" stroke="#63b8ff" d="M97.04,-110.09C84.19,-102.14 65.21,-90.39 50.05,-81"/>
<polygon fill="#63b8ff" stroke="#63b8ff" points="51.92,-78.04 41.57,-75.75 48.23,-83.99 51.92,-78.04"/>
</g>
<!-- Node3 -->
<g id="node3" class="node">
<title>Node3</title>
<g id="a_node3"><a xlink:href="../../d9/dc0/_a_s_t_m_version_8h.html" target="_top" xlink:title=" ">
<polygon fill="white" stroke="#666666" points="154.12,-74.5 69.12,-74.5 69.12,-55.25 154.12,-55.25 154.12,-74.5"/>
<text text-anchor="middle" x="111.62" y="-61" font-family="Helvetica,sans-Serif" font-size="10.00">ASTMVersion.h</text>
</a>
</g>
</g>
<!-- Node1&#45;&gt;Node3 -->
<g id="edge2" class="edge">
<title>Node1&#45;&gt;Node3</title>
<path fill="none" stroke="#63b8ff" d="M111.62,-110.33C111.62,-103.82 111.62,-94.67 111.62,-86.37"/>
<polygon fill="#63b8ff" stroke="#63b8ff" points="115.13,-86.37 111.63,-76.37 108.13,-86.37 115.13,-86.37"/>
</g>
<!-- Node5 -->
<g id="node5" class="node">
<title>Node5</title>
<g id="a_node5"><a xlink:href="../../d3/df2/_e57_version_8h.html" target="_top" xlink:title="ASTM &amp; libE57Format version information.">
<polygon fill="white" stroke="#666666" points="246.88,-74.5 172.38,-74.5 172.38,-55.25 246.88,-55.25 246.88,-74.5"/>
<text text-anchor="middle" x="209.62" y="-61" font-family="Helvetica,sans-Serif" font-size="10.00">E57Version.h</text>
</a>
</g>
</g>
<!-- Node1&#45;&gt;Node5 -->
<g id="edge4" class="edge">
<title>Node1&#45;&gt;Node5</title>
<path fill="none" stroke="#63b8ff" d="M128.25,-110.09C143.31,-101.91 165.77,-89.71 183.28,-80.19"/>
<polygon fill="#63b8ff" stroke="#63b8ff" points="184.47,-83.52 191.59,-75.68 181.13,-77.37 184.47,-83.52"/>
</g>
<!-- Node4 -->
<g id="node4" class="node">
<title>Node4</title>
<g id="a_node4"><a xlink:title=" ">
<polygon fill="#e0e0e0" stroke="#999999" points="134.25,-19.25 89,-19.25 89,0 134.25,0 134.25,-19.25"/>
<text text-anchor="middle" x="111.62" y="-5.75" font-family="Helvetica,sans-Serif" font-size="10.00">cstdint</text>
</a>
</g>
</g>
<!-- Node3&#45;&gt;Node4 -->
<g id="edge3" class="edge">
<title>Node3&#45;&gt;Node4</title>
<path fill="none" stroke="#63b8ff" d="M111.62,-55.08C111.62,-48.57 111.62,-39.42 111.62,-31.12"/>
<polygon fill="#63b8ff" stroke="#63b8ff" points="115.13,-31.12 111.63,-21.12 108.13,-31.12 115.13,-31.12"/>
</g>
<!-- Node6 -->
<g id="node6" class="node">
<title>Node6</title>
<g id="a_node6"><a xlink:title=" ">
<polygon fill="#e0e0e0" stroke="#999999" points="210.62,-19.25 170.62,-19.25 170.62,0 210.62,0 210.62,-19.25"/>
<text text-anchor="middle" x="190.62" y="-5.75" font-family="Helvetica,sans-Serif" font-size="10.00">string</text>
</a>
</g>
</g>
<!-- Node5&#45;&gt;Node6 -->
<g id="edge5" class="edge">
<title>Node5&#45;&gt;Node6</title>
<path fill="none" stroke="#63b8ff" d="M206.49,-55.08C204.08,-48.34 200.67,-38.77 197.62,-30.24"/>
<polygon fill="#63b8ff" stroke="#63b8ff" points="201,-29.28 194.34,-21.03 194.4,-31.63 201,-29.28"/>
</g>
<!-- Node7 -->
<g id="node7" class="node">
<title>Node7</title>
<g id="a_node7"><a xlink:title=" ">
<polygon fill="#e0e0e0" stroke="#999999" points="298.62,-19.25 228.62,-19.25 228.62,0 298.62,0 298.62,-19.25"/>
<text text-anchor="middle" x="263.62" y="-5.75" font-family="Helvetica,sans-Serif" font-size="10.00">E57Export.h</text>
</a>
</g>
</g>
<!-- Node5&#45;&gt;Node7 -->
<g id="edge6" class="edge">
<title>Node5&#45;&gt;Node7</title>
<path fill="none" stroke="#63b8ff" d="M218.54,-55.08C226.08,-47.65 237.09,-36.79 246.35,-27.66"/>
<polygon fill="#63b8ff" stroke="#63b8ff" points="248.77,-30.19 253.44,-20.67 243.86,-25.2 248.77,-30.19"/>
</g>
</g>
</svg>
