<?xml version="1.0" encoding="UTF-8" standalone="no"?>
<!DOCTYPE svg PUBLIC "-//W3C//DTD SVG 1.1//EN"
 "http://www.w3.org/Graphics/SVG/1.1/DTD/svg11.dtd">
<!-- Generated by graphviz version 8.1.0 (20230707.0739)
 -->
<!-- Title: E57Version.cpp Pages: 1 -->
<svg width="307pt" height="138pt"
 viewBox="0.00 0.00 306.62 137.75" xmlns="http://www.w3.org/2000/svg" xmlns:xlink="http://www.w3.org/1999/xlink">
<g id="graph0" class="graph" transform="scale(1 1) rotate(0) translate(4 133.75)">
<title>E57Version.cpp</title>
<!-- Node1 -->
<g id="node1" class="node">
<title>Node1</title>
<g id="a_node1"><a xlink:title=" ">
<polygon fill="#999999" stroke="#666666" points="154.12,-129.75 69.12,-129.75 69.12,-110.5 154.12,-110.5 154.12,-129.75"/>
<text text-anchor="middle" x="111.62" y="-116.25" font-family="Helvetica,sans-Serif" font-size="10.00">E57Version.cpp</text>
</a>
</g>
</g>
<!-- Node2 -->
<g id="node2" class="node">
<title>Node2</title>
<g id="a_node2"><a xlink:title=" ">
<polygon fill="#e0e0e0" stroke="#999999" points="51.25,-74.5 0,-74.5 0,-55.25 51.25,-55.25 51.25,-74.5"/>
<text text-anchor="middle" x="25.62" y="-61" font-family="Helvetica,sans-Serif" font-size="10.00">sstream</text>
</a>
</g>
</g>
<!-- Node1&#45;&gt;Node2 -->
<g id="edge1" class="edge">
<title>Node1&#45;&gt;Node2</title>
<path fill="none" stroke="#63b8ff" d="M97.04,-110.09C84.06,-102.06 64.85,-90.16 49.61,-80.73"/>
<polygon fill="#63b8ff" stroke="#63b8ff" points="51.63,-77.24 41.29,-74.95 47.94,-83.19 51.63,-77.24"/>
</g>
<!-- Node3 -->
<g id="node3" class="node">
<title>Node3</title>
<g id="a_node3"><a xlink:href="../../d9/dc0/_a_s_t_m_version_8h.html" target="_top" xlink:title=" ">
<polygon fill="white" stroke="#666666" points="154.12,-74.5 69.12,-74.5 69.12,-55.25 154.12,-55.25 154.12,-74.5"/>
<text text-anchor="middle" x="111.62" y="-61" font-family="Helvetica,sans-Serif" font-size="10.00">ASTMVersion.h</text>
</a>
</g>
</g>
<!-- Node1&#45;&gt;Node3 -->
<g id="edge2" class="edge">
<title>Node1&#45;&gt;Node3</title>
<path fill="none" stroke="#63b8ff" d="M111.62,-110.33C111.62,-103.67 111.62,-94.24 111.62,-85.78"/>
<polygon fill="#63b8ff" stroke="#63b8ff" points="115.13,-85.86 111.62,-75.86 108.13,-85.86 115.13,-85.86"/>
</g>
<!-- Node5 -->
<g id="node5" class="node">
<title>Node5</title>
<g id="a_node5"><a xlink:href="../../d3/df2/_e57_version_8h.html" target="_top" xlink:title="ASTM &amp; libE57Format version information.">
<polygon fill="white" stroke="#666666" points="246.88,-74.5 172.38,-74.5 172.38,-55.25 246.88,-55.25 246.88,-74.5"/>
<text text-anchor="middle" x="209.62" y="-61" font-family="Helvetica,sans-Serif" font-size="10.00">E57Version.h</text>
</a>
</g>
</g>
<!-- Node1&#45;&gt;Node5 -->
<g id="edge4" class="edge">
<title>Node1&#45;&gt;Node5</title>
<path fill="none" stroke="#63b8ff" d="M128.25,-110.09C143.31,-101.91 165.77,-89.71 183.28,-80.19"/>
<polygon fill="#63b8ff" stroke="#63b8ff" points="184.8,-82.8 191.92,-74.95 181.46,-76.65 184.8,-82.8"/>
</g>
<!-- Node4 -->
<g id="node4" class="node">
<title>Node4</title>
<g id="a_node4"><a xlink:title=" ">
<polygon fill="#e0e0e0" stroke="#999999" points="134.25,-19.25 89,-19.25 89,0 134.25,0 134.25,-19.25"/>
<text text-anchor="middle" x="111.62" y="-5.75" font-family="Helvetica,sans-Serif" font-size="10.00">cstdint</text>
</a>
</g>
</g>
<!-- Node3&#45;&gt;Node4 -->
<g id="edge3" class="edge">
<title>Node3&#45;&gt;Node4</title>
<path fill="none" stroke="#63b8ff" d="M111.62,-55.08C111.62,-48.42 111.62,-38.99 111.62,-30.53"/>
<polygon fill="#63b8ff" stroke="#63b8ff" points="115.13,-30.61 111.62,-20.61 108.13,-30.61 115.13,-30.61"/>
</g>
<!-- Node6 -->
<g id="node6" class="node">
<title>Node6</title>
<g id="a_node6"><a xlink:title=" ">
<polygon fill="#e0e0e0" stroke="#999999" points="210.62,-19.25 170.62,-19.25 170.62,0 210.62,0 210.62,-19.25"/>
<text text-anchor="middle" x="190.62" y="-5.75" font-family="Helvetica,sans-Serif" font-size="10.00">string</text>
</a>
</g>
</g>
<!-- Node5&#45;&gt;Node6 -->
<g id="edge5" class="edge">
<title>Node5&#45;&gt;Node6</title>
<path fill="none" stroke="#63b8ff" d="M206.49,-55.08C204.05,-48.26 200.59,-38.56 197.52,-29.95"/>
<polygon fill="#63b8ff" stroke="#63b8ff" points="200.49,-28.85 193.83,-20.61 193.89,-31.2 200.49,-28.85"/>
</g>
<!-- Node7 -->
<g id="node7" class="node">
<title>Node7</title>
<g id="a_node7"><a xlink:title=" ">
<polygon fill="#e0e0e0" stroke="#999999" points="298.62,-19.25 228.62,-19.25 228.62,0 298.62,0 298.62,-19.25"/>
<text text-anchor="middle" x="263.62" y="-5.75" font-family="Helvetica,sans-Serif" font-size="10.00">E57Export.h</text>
</a>
</g>
</g>
<!-- Node5&#45;&gt;Node7 -->
<g id="edge6" class="edge">
<title>Node5&#45;&gt;Node7</title>
<path fill="none" stroke="#63b8ff" d="M218.54,-55.08C226.23,-47.5 237.55,-36.34 246.92,-27.1"/>
<polygon fill="#63b8ff" stroke="#63b8ff" points="248.85,-30.12 253.51,-20.61 243.94,-25.14 248.85,-30.12"/>
</g>
</g>
</svg>
