<?xml version="1.0" encoding="UTF-8" standalone="no"?>
<!DOCTYPE svg PUBLIC "-//W3C//DTD SVG 1.1//EN"
 "http://www.w3.org/Graphics/SVG/1.1/DTD/svg11.dtd">
<!-- Generated by graphviz version 7.0.6 (20230106.0513)
 -->
<!-- Title: E57Version.cpp Pages: 1 -->
<svg width="311pt" height="137pt"
 viewBox="0.00 0.00 310.50 137.00" xmlns="http://www.w3.org/2000/svg" xmlns:xlink="http://www.w3.org/1999/xlink">
<g id="graph0" class="graph" transform="scale(1 1) rotate(0) translate(4 133)">
<title>E57Version.cpp</title>
<!-- Node1 -->
<g id="node1" class="node">
<title>Node1</title>
<g id="a_node1"><a xlink:title=" ">
<polygon fill="#999999" stroke="#666666" points="156,-129 70,-129 70,-110 156,-110 156,-129"/>
<text text-anchor="middle" x="113" y="-117" font-family="Helvetica,sans-Serif" font-size="10.00">E57Version.cpp</text>
</a>
</g>
</g>
<!-- Node2 -->
<g id="node2" class="node">
<title>Node2</title>
<g id="a_node2"><a xlink:title=" ">
<polygon fill="#e0e0e0" stroke="#999999" points="52,-74 0,-74 0,-55 52,-55 52,-74"/>
<text text-anchor="middle" x="26" y="-62" font-family="Helvetica,sans-Serif" font-size="10.00">sstream</text>
</a>
</g>
</g>
<!-- Node1&#45;&gt;Node2 -->
<g id="edge1" class="edge">
<title>Node1&#45;&gt;Node2</title>
<path fill="none" stroke="#63b8ff" d="M98.24,-109.51C85.04,-101.47 65.44,-89.53 49.99,-80.11"/>
<polygon fill="#63b8ff" stroke="#63b8ff" points="52.19,-77.36 41.83,-75.15 48.55,-83.34 52.19,-77.36"/>
</g>
<!-- Node3 -->
<g id="node3" class="node">
<title>Node3</title>
<g id="a_node3"><a xlink:href="../../d9/dc0/_a_s_t_m_version_8h.html" target="_top" xlink:title=" ">
<polygon fill="white" stroke="#666666" points="156,-74 70,-74 70,-55 156,-55 156,-74"/>
<text text-anchor="middle" x="113" y="-62" font-family="Helvetica,sans-Serif" font-size="10.00">ASTMVersion.h</text>
</a>
</g>
</g>
<!-- Node1&#45;&gt;Node3 -->
<g id="edge2" class="edge">
<title>Node1&#45;&gt;Node3</title>
<path fill="none" stroke="#63b8ff" d="M113,-109.75C113,-103.27 113,-94.16 113,-85.9"/>
<polygon fill="#63b8ff" stroke="#63b8ff" points="116.5,-85.96 113,-75.96 109.5,-85.96 116.5,-85.96"/>
</g>
<!-- Node5 -->
<g id="node5" class="node">
<title>Node5</title>
<g id="a_node5"><a xlink:href="../../d3/df2/_e57_version_8h.html" target="_top" xlink:title="ASTM &amp; libE57Format version information.">
<polygon fill="white" stroke="#666666" points="249.5,-74 174.5,-74 174.5,-55 249.5,-55 249.5,-74"/>
<text text-anchor="middle" x="212" y="-62" font-family="Helvetica,sans-Serif" font-size="10.00">E57Version.h</text>
</a>
</g>
</g>
<!-- Node1&#45;&gt;Node5 -->
<g id="edge4" class="edge">
<title>Node1&#45;&gt;Node5</title>
<path fill="none" stroke="#63b8ff" d="M129.79,-109.51C145.1,-101.31 167.97,-89.07 185.7,-79.58"/>
<polygon fill="#63b8ff" stroke="#63b8ff" points="186.96,-82.88 194.12,-75.07 183.65,-76.71 186.96,-82.88"/>
</g>
<!-- Node4 -->
<g id="node4" class="node">
<title>Node4</title>
<g id="a_node4"><a xlink:title=" ">
<polygon fill="#e0e0e0" stroke="#999999" points="136,-19 90,-19 90,0 136,0 136,-19"/>
<text text-anchor="middle" x="113" y="-7" font-family="Helvetica,sans-Serif" font-size="10.00">cstdint</text>
</a>
</g>
</g>
<!-- Node3&#45;&gt;Node4 -->
<g id="edge3" class="edge">
<title>Node3&#45;&gt;Node4</title>
<path fill="none" stroke="#63b8ff" d="M113,-54.75C113,-48.27 113,-39.16 113,-30.9"/>
<polygon fill="#63b8ff" stroke="#63b8ff" points="116.5,-30.96 113,-20.96 109.5,-30.96 116.5,-30.96"/>
</g>
<!-- Node6 -->
<g id="node6" class="node">
<title>Node6</title>
<g id="a_node6"><a xlink:title=" ">
<polygon fill="#e0e0e0" stroke="#999999" points="213.5,-19 172.5,-19 172.5,0 213.5,0 213.5,-19"/>
<text text-anchor="middle" x="193" y="-7" font-family="Helvetica,sans-Serif" font-size="10.00">string</text>
</a>
</g>
</g>
<!-- Node5&#45;&gt;Node6 -->
<g id="edge5" class="edge">
<title>Node5&#45;&gt;Node6</title>
<path fill="none" stroke="#63b8ff" d="M208.86,-54.75C206.46,-48.04 203.04,-38.52 200,-30.02"/>
<polygon fill="#63b8ff" stroke="#63b8ff" points="203.39,-29.1 196.72,-20.87 196.8,-31.46 203.39,-29.1"/>
</g>
<!-- Node7 -->
<g id="node7" class="node">
<title>Node7</title>
<g id="a_node7"><a xlink:title=" ">
<polygon fill="#e0e0e0" stroke="#999999" points="302.5,-19 231.5,-19 231.5,0 302.5,0 302.5,-19"/>
<text text-anchor="middle" x="267" y="-7" font-family="Helvetica,sans-Serif" font-size="10.00">E57Export.h</text>
</a>
</g>
</g>
<!-- Node5&#45;&gt;Node7 -->
<g id="edge6" class="edge">
<title>Node5&#45;&gt;Node7</title>
<path fill="none" stroke="#63b8ff" d="M221.08,-54.75C228.84,-47.27 240.21,-36.32 249.7,-27.17"/>
<polygon fill="#63b8ff" stroke="#63b8ff" points="251.86,-29.95 256.63,-20.49 247,-24.91 251.86,-29.95"/>
</g>
</g>
</svg>
