<?xml version="1.0" encoding="UTF-8" standalone="no"?>
<!DOCTYPE svg PUBLIC "-//W3C//DTD SVG 1.1//EN"
 "http://www.w3.org/Graphics/SVG/1.1/DTD/svg11.dtd">
<!-- Generated by graphviz version 7.0.0 (20221023.0053)
 -->
<!-- Title: EmptyPacketHeader Pages: 1 -->
<svg width="220pt" height="104pt"
 viewBox="0.00 0.00 220.00 104.00" xmlns="http://www.w3.org/2000/svg" xmlns:xlink="http://www.w3.org/1999/xlink">
<g id="graph0" class="graph" transform="scale(1 1) rotate(0) translate(4 100)">
<title>EmptyPacketHeader</title>
<!-- Node1 -->
<g id="node1" class="node">
<title>Node1</title>
<g id="a_node1"><a xlink:title=" ">
<polygon fill="#999999" stroke="#666666" points="114.5,-19 7.5,-19 7.5,0 114.5,0 114.5,-19"/>
<text text-anchor="middle" x="61" y="-7" font-family="Helvetica,sans-Serif" font-size="10.00">EmptyPacketHeader</text>
</a>
</g>
</g>
<!-- Node2 -->
<g id="node2" class="node">
<title>Node2</title>
<g id="a_node2"><a xlink:title=" ">
<polygon fill="white" stroke="#666666" points="46,-96 0,-96 0,-77 46,-77 46,-96"/>
<text text-anchor="middle" x="23" y="-84" font-family="Helvetica,sans-Serif" font-size="10.00">uint8_t</text>
</a>
</g>
</g>
<!-- Node2&#45;&gt;Node1 -->
<g id="edge1" class="edge">
<title>Node2&#45;&gt;Node1</title>
<path fill="none" stroke="#9a32cd" stroke-dasharray="5,2" d="M19.48,-65.49C18.82,-56.32 19.47,-45.61 24,-37 27.98,-29.45 35.18,-23.55 42.19,-19.26"/>
<polygon fill="#9a32cd" stroke="#9a32cd" points="15.98,-65.72 20.74,-75.18 22.92,-64.82 15.98,-65.72"/>
<text text-anchor="middle" x="51" y="-51" font-family="Helvetica,sans-Serif" font-size="10.00"> packetType</text>
<text text-anchor="middle" x="51" y="-40" font-family="Helvetica,sans-Serif" font-size="10.00">reserved1</text>
</g>
<!-- Node3 -->
<g id="node3" class="node">
<title>Node3</title>
<g id="a_node3"><a xlink:title=" ">
<polygon fill="white" stroke="#666666" points="125.5,-96 74.5,-96 74.5,-77 125.5,-77 125.5,-96"/>
<text text-anchor="middle" x="100" y="-84" font-family="Helvetica,sans-Serif" font-size="10.00">uint16_t</text>
</a>
</g>
</g>
<!-- Node3&#45;&gt;Node1 -->
<g id="edge2" class="edge">
<title>Node3&#45;&gt;Node1</title>
<path fill="none" stroke="#9a32cd" stroke-dasharray="5,2" d="M92,-66.17C88.07,-57.16 83.1,-46.38 78,-37 74.66,-30.85 70.41,-24.23 66.99,-19.14"/>
<polygon fill="#9a32cd" stroke="#9a32cd" points="88.76,-67.5 95.88,-75.34 95.2,-64.76 88.76,-67.5"/>
<text text-anchor="middle" x="150" y="-45.5" font-family="Helvetica,sans-Serif" font-size="10.00"> packetLogicalLengthMinus1</text>
</g>
</g>
</svg>
