<?xml version="1.0" encoding="UTF-8" standalone="no"?>
<!DOCTYPE svg PUBLIC "-//W3C//DTD SVG 1.1//EN"
 "http://www.w3.org/Graphics/SVG/1.1/DTD/svg11.dtd">
<!-- Generated by graphviz version 2.49.0 (20210828.1703)
 -->
<!-- Title: EmptyPacketHeader Pages: 1 -->
<svg width="224pt" height="106pt"
 viewBox="0.00 0.00 223.50 106.00" xmlns="http://www.w3.org/2000/svg" xmlns:xlink="http://www.w3.org/1999/xlink">
<g id="graph0" class="graph" transform="scale(1 1) rotate(0) translate(4 102)">
<title>EmptyPacketHeader</title>
<polygon fill="white" stroke="transparent" points="-4,4 -4,-102 219.5,-102 219.5,4 -4,4"/>
<!-- Node1 -->
<g id="node1" class="node">
<title>Node1</title>
<g id="a_node1"><a xlink:title=" ">
<polygon fill="#bfbfbf" stroke="black" points="7.5,-0.5 7.5,-19.5 115.5,-19.5 115.5,-0.5 7.5,-0.5"/>
<text text-anchor="middle" x="61.5" y="-7.5" font-family="Helvetica,sans-Serif" font-size="10.00">EmptyPacketHeader</text>
</a>
</g>
</g>
<!-- Node2 -->
<g id="node2" class="node">
<title>Node2</title>
<g id="a_node2"><a xlink:title=" ">
<polygon fill="white" stroke="#bfbfbf" points="0,-78.5 0,-97.5 47,-97.5 47,-78.5 0,-78.5"/>
<text text-anchor="middle" x="23.5" y="-85.5" font-family="Helvetica,sans-Serif" font-size="10.00">uint8_t</text>
</a>
</g>
</g>
<!-- Node2&#45;&gt;Node1 -->
<g id="edge1" class="edge">
<title>Node2&#45;&gt;Node1</title>
<path fill="none" stroke="#9a32cd" stroke-dasharray="5,2" d="M20.1,-68.39C19.25,-58.8 19.7,-47.22 24.5,-38 28.62,-30.1 36.21,-23.95 43.46,-19.52"/>
<polygon fill="#9a32cd" stroke="#9a32cd" points="16.65,-69.05 21.5,-78.47 23.59,-68.08 16.65,-69.05"/>
<text text-anchor="middle" x="51.5" y="-52" font-family="Helvetica,sans-Serif" font-size="10.00"> packetType</text>
<text text-anchor="middle" x="51.5" y="-41" font-family="Helvetica,sans-Serif" font-size="10.00">reserved1</text>
</g>
<!-- Node3 -->
<g id="node3" class="node">
<title>Node3</title>
<g id="a_node3"><a xlink:title=" ">
<polygon fill="white" stroke="#bfbfbf" points="74.5,-78.5 74.5,-97.5 126.5,-97.5 126.5,-78.5 74.5,-78.5"/>
<text text-anchor="middle" x="100.5" y="-85.5" font-family="Helvetica,sans-Serif" font-size="10.00">uint16_t</text>
</a>
</g>
</g>
<!-- Node3&#45;&gt;Node1 -->
<g id="edge2" class="edge">
<title>Node3&#45;&gt;Node1</title>
<path fill="none" stroke="#9a32cd" stroke-dasharray="5,2" d="M93.01,-68.7C89,-59.36 83.81,-47.91 78.5,-38 75.15,-31.75 70.9,-25 67.49,-19.81"/>
<polygon fill="#9a32cd" stroke="#9a32cd" points="89.87,-70.28 96.97,-78.15 96.33,-67.57 89.87,-70.28"/>
<text text-anchor="middle" x="152" y="-46.5" font-family="Helvetica,sans-Serif" font-size="10.00"> packetLogicalLengthMinus1</text>
</g>
</g>
</svg>
