<?xml version="1.0" encoding="UTF-8" standalone="no"?>
<!DOCTYPE svg PUBLIC "-//W3C//DTD SVG 1.1//EN"
 "http://www.w3.org/Graphics/SVG/1.1/DTD/svg11.dtd">
<!-- Generated by graphviz version 8.1.0 (20230707.0739)
 -->
<!-- Title: e57::SphericalRepresentation Pages: 1 -->
<svg width="178pt" height="116pt"
 viewBox="0.00 0.00 177.88 116.25" xmlns="http://www.w3.org/2000/svg" xmlns:xlink="http://www.w3.org/1999/xlink">
<g id="graph0" class="graph" transform="scale(1 1) rotate(0) translate(4 112.25)">
<title>e57::SphericalRepresentation</title>
<!-- Node1 -->
<g id="node1" class="node">
<title>Node1</title>
<g id="a_node1"><a xlink:title="Stores an image that is mapped from 3D using a spherical projection model.">
<polygon fill="#999999" stroke="#666666" points="144.25,-19.25 0,-19.25 0,0 144.25,0 144.25,-19.25"/>
<text text-anchor="middle" x="72.12" y="-5.75" font-family="Helvetica,sans-Serif" font-size="10.00">e57::SphericalRepresentation</text>
</a>
</g>
</g>
<!-- Node2 -->
<g id="node2" class="node">
<title>Node2</title>
<g id="a_node2"><a xlink:title=" ">
<polygon fill="white" stroke="#666666" points="46.75,-108.25 1.5,-108.25 1.5,-89 46.75,-89 46.75,-108.25"/>
<text text-anchor="middle" x="24.12" y="-94.75" font-family="Helvetica,sans-Serif" font-size="10.00">int64_t</text>
</a>
</g>
</g>
<!-- Node2&#45;&gt;Node1 -->
<g id="edge1" class="edge">
<title>Node2&#45;&gt;Node1</title>
<path fill="none" stroke="#9a32cd" stroke-dasharray="5,2" d="M19.84,-78.03C18.18,-65.51 18.14,-49.4 25.38,-37.25 30.06,-29.38 38.01,-23.64 46.03,-19.54"/>
<polygon fill="#9a32cd" stroke="#9a32cd" points="16.54,-78.46 21.74,-87.69 23.43,-77.23 16.54,-78.46"/>
<text text-anchor="middle" x="62.5" y="-61.5" font-family="Helvetica,sans-Serif" font-size="10.00"> imageMaskSize</text>
<text text-anchor="middle" x="62.5" y="-50.25" font-family="Helvetica,sans-Serif" font-size="10.00">jpegImageSize</text>
<text text-anchor="middle" x="62.5" y="-39" font-family="Helvetica,sans-Serif" font-size="10.00">pngImageSize</text>
</g>
<!-- Node3 -->
<g id="node3" class="node">
<title>Node3</title>
<g id="a_node3"><a xlink:title=" ">
<polygon fill="white" stroke="#666666" points="142.75,-108.25 97.5,-108.25 97.5,-89 142.75,-89 142.75,-108.25"/>
<text text-anchor="middle" x="120.12" y="-94.75" font-family="Helvetica,sans-Serif" font-size="10.00">int32_t</text>
</a>
</g>
</g>
<!-- Node3&#45;&gt;Node1 -->
<g id="edge2" class="edge">
<title>Node3&#45;&gt;Node1</title>
<path fill="none" stroke="#9a32cd" stroke-dasharray="5,2" d="M115.39,-78.43C111.81,-66.06 106.14,-49.99 98.12,-37.25 94,-30.69 88.03,-24.43 82.85,-19.63"/>
<polygon fill="#9a32cd" stroke="#9a32cd" points="112.23,-79.15 118.19,-87.91 118.99,-77.34 112.23,-79.15"/>
<text text-anchor="middle" x="141" y="-55.88" font-family="Helvetica,sans-Serif" font-size="10.00"> imageHeight</text>
<text text-anchor="middle" x="141" y="-44.62" font-family="Helvetica,sans-Serif" font-size="10.00">imageWidth</text>
</g>
</g>
</svg>
