<?xml version="1.0" encoding="UTF-8" standalone="no"?>
<!DOCTYPE svg PUBLIC "-//W3C//DTD SVG 1.1//EN"
 "http://www.w3.org/Graphics/SVG/1.1/DTD/svg11.dtd">
<!-- Generated by graphviz version 7.1.0 (20230121.1956)
 -->
<!-- Title: e57::CylindricalRepresentation Pages: 1 -->
<svg width="181pt" height="115pt"
 viewBox="0.00 0.00 181.00 115.00" xmlns="http://www.w3.org/2000/svg" xmlns:xlink="http://www.w3.org/1999/xlink">
<g id="graph0" class="graph" transform="scale(1 1) rotate(0) translate(4 111)">
<title>e57::CylindricalRepresentation</title>
<!-- Node1 -->
<g id="node1" class="node">
<title>Node1</title>
<g id="a_node1"><a xlink:title="Stores an image that is mapped from 3D using a cylindrical projection model.">
<polygon fill="#999999" stroke="#666666" points="150,-19 0,-19 0,0 150,0 150,-19"/>
<text text-anchor="middle" x="75" y="-7" font-family="Helvetica,sans-Serif" font-size="10.00">e57::CylindricalRepresentation</text>
</a>
</g>
</g>
<!-- Node2 -->
<g id="node2" class="node">
<title>Node2</title>
<g id="a_node2"><a xlink:title=" ">
<polygon fill="white" stroke="#666666" points="50,-107 4,-107 4,-88 50,-88 50,-107"/>
<text text-anchor="middle" x="27" y="-95" font-family="Helvetica,sans-Serif" font-size="10.00">int64_t</text>
</a>
</g>
</g>
<!-- Node2&#45;&gt;Node1 -->
<g id="edge1" class="edge">
<title>Node2&#45;&gt;Node1</title>
<path fill="none" stroke="#9a32cd" stroke-dasharray="5,2" d="M22.57,-76.42C20.97,-64.2 21.02,-48.73 28,-37 32.7,-29.11 40.69,-23.38 48.76,-19.31"/>
<polygon fill="#9a32cd" stroke="#9a32cd" points="19.11,-76.99 24.33,-86.21 26,-75.74 19.11,-76.99"/>
<text text-anchor="middle" x="64.5" y="-62" font-family="Helvetica,sans-Serif" font-size="10.00"> imageMaskSize</text>
<text text-anchor="middle" x="64.5" y="-51" font-family="Helvetica,sans-Serif" font-size="10.00">jpegImageSize</text>
<text text-anchor="middle" x="64.5" y="-40" font-family="Helvetica,sans-Serif" font-size="10.00">pngImageSize</text>
</g>
<!-- Node3 -->
<g id="node3" class="node">
<title>Node3</title>
<g id="a_node3"><a xlink:title=" ">
<polygon fill="white" stroke="#666666" points="146,-107 100,-107 100,-88 146,-88 146,-107"/>
<text text-anchor="middle" x="123" y="-95" font-family="Helvetica,sans-Serif" font-size="10.00">int32_t</text>
</a>
</g>
</g>
<!-- Node3&#45;&gt;Node1 -->
<g id="edge2" class="edge">
<title>Node3&#45;&gt;Node1</title>
<path fill="none" stroke="#9a32cd" stroke-dasharray="5,2" d="M118,-76.82C114.4,-64.74 108.79,-49.29 101,-37 96.86,-30.47 90.89,-24.24 85.71,-19.46"/>
<polygon fill="#9a32cd" stroke="#9a32cd" points="114.62,-77.73 120.64,-86.45 121.37,-75.88 114.62,-77.73"/>
<text text-anchor="middle" x="144" y="-56.5" font-family="Helvetica,sans-Serif" font-size="10.00"> imageHeight</text>
<text text-anchor="middle" x="144" y="-45.5" font-family="Helvetica,sans-Serif" font-size="10.00">imageWidth</text>
</g>
</g>
</svg>
