<?xml version="1.0" encoding="UTF-8" standalone="no"?>
<!DOCTYPE svg PUBLIC "-//W3C//DTD SVG 1.1//EN"
 "http://www.w3.org/Graphics/SVG/1.1/DTD/svg11.dtd">
<!-- Generated by graphviz version 8.1.0 (20230707.0739)
 -->
<!-- Title: e57::CylindricalRepresentation Pages: 1 -->
<svg width="181pt" height="116pt"
 viewBox="0.00 0.00 180.50 116.25" xmlns="http://www.w3.org/2000/svg" xmlns:xlink="http://www.w3.org/1999/xlink">
<g id="graph0" class="graph" transform="scale(1 1) rotate(0) translate(4 112.25)">
<title>e57::CylindricalRepresentation</title>
<!-- Node1 -->
<g id="node1" class="node">
<title>Node1</title>
<g id="a_node1"><a xlink:title="Stores an image that is mapped from 3D using a cylindrical projection model.">
<polygon fill="#999999" stroke="#666666" points="149.5,-19.25 0,-19.25 0,0 149.5,0 149.5,-19.25"/>
<text text-anchor="middle" x="74.75" y="-5.75" font-family="Helvetica,sans-Serif" font-size="10.00">e57::CylindricalRepresentation</text>
</a>
</g>
</g>
<!-- Node2 -->
<g id="node2" class="node">
<title>Node2</title>
<g id="a_node2"><a xlink:title=" ">
<polygon fill="white" stroke="#666666" points="49.38,-108.25 4.12,-108.25 4.12,-89 49.38,-89 49.38,-108.25"/>
<text text-anchor="middle" x="26.75" y="-94.75" font-family="Helvetica,sans-Serif" font-size="10.00">int64_t</text>
</a>
</g>
</g>
<!-- Node2&#45;&gt;Node1 -->
<g id="edge1" class="edge">
<title>Node2&#45;&gt;Node1</title>
<path fill="none" stroke="#9a32cd" stroke-dasharray="5,2" d="M22.47,-78.03C20.81,-65.51 20.77,-49.4 28,-37.25 32.68,-29.38 40.63,-23.64 48.66,-19.54"/>
<polygon fill="#9a32cd" stroke="#9a32cd" points="19.17,-78.46 24.37,-87.69 26.06,-77.23 19.17,-78.46"/>
<text text-anchor="middle" x="65.12" y="-61.5" font-family="Helvetica,sans-Serif" font-size="10.00"> imageMaskSize</text>
<text text-anchor="middle" x="65.12" y="-50.25" font-family="Helvetica,sans-Serif" font-size="10.00">jpegImageSize</text>
<text text-anchor="middle" x="65.12" y="-39" font-family="Helvetica,sans-Serif" font-size="10.00">pngImageSize</text>
</g>
<!-- Node3 -->
<g id="node3" class="node">
<title>Node3</title>
<g id="a_node3"><a xlink:title=" ">
<polygon fill="white" stroke="#666666" points="145.38,-108.25 100.12,-108.25 100.12,-89 145.38,-89 145.38,-108.25"/>
<text text-anchor="middle" x="122.75" y="-94.75" font-family="Helvetica,sans-Serif" font-size="10.00">int32_t</text>
</a>
</g>
</g>
<!-- Node3&#45;&gt;Node1 -->
<g id="edge2" class="edge">
<title>Node3&#45;&gt;Node1</title>
<path fill="none" stroke="#9a32cd" stroke-dasharray="5,2" d="M118.02,-78.43C114.44,-66.06 108.76,-49.99 100.75,-37.25 96.62,-30.69 90.65,-24.43 85.47,-19.63"/>
<polygon fill="#9a32cd" stroke="#9a32cd" points="114.85,-79.15 120.81,-87.91 121.62,-77.34 114.85,-79.15"/>
<text text-anchor="middle" x="143.62" y="-55.88" font-family="Helvetica,sans-Serif" font-size="10.00"> imageHeight</text>
<text text-anchor="middle" x="143.62" y="-44.62" font-family="Helvetica,sans-Serif" font-size="10.00">imageWidth</text>
</g>
</g>
</svg>
