<svg height="115pt" viewBox="0 0 181 115" width="181pt" xmlns="http://www.w3.org/2000/svg"><g transform="translate(4 111)"><a xlink:title="Stores an image that is mapped from 3D using a cylindrical projection model."><path d="m150-19h-150v19h150z" fill="#999" stroke="#666"/><text font-family="Helvetica,sans-Serif" font-size="10" text-anchor="middle" x="75" y="-7">e57::CylindricalRepresentation</text></a><a xlink:title=""><path d="m50-107h-46v19h46z" fill="#fff" stroke="#666"/><text font-family="Helvetica,sans-Serif" font-size="10" text-anchor="middle" x="27" y="-95">int64_t</text></a><g><path d="m22.73-77.57c-1.75 12.39-1.93 28.47 5.27 40.57 4.79 8.05 13.01 13.85 21.25 17.94" fill="none" stroke="#9a32cd" stroke-dasharray="5 2"/><path d="m19.34-78.5 5.26-9.2 1.62 10.47z" fill="#9a32cd" stroke="#9a32cd"/><g font-family="Helvetica,sans-Serif" font-size="10" text-anchor="middle"><text x="64.5" y="-62">imageMaskSize</text><text x="64.5" y="-51">jpegImageSize</text><text x="64.5" y="-40">pngImageSize</text></g></g><a xlink:title=""><path d="m146-107h-46v19h46z" fill="#fff" stroke="#666"/><text font-family="Helvetica,sans-Serif" font-size="10" text-anchor="middle" x="123" y="-95">int32_t</text></a><g><path d="m118.34-77.95c-3.59 12.23-9.3 28.27-17.34 40.95-4.21 6.64-10.31 12.97-15.55 17.78" fill="none" stroke="#9a32cd" stroke-dasharray="5 2"/><path d="m115.04-79.17 6-8.74.76 10.57z" fill="#9a32cd" stroke="#9a32cd"/><g font-family="Helvetica,sans-Serif" font-size="10" text-anchor="middle"><text x="144" y="-56.5">imageHeight</text><text x="144" y="-45.5">imageWidth</text></g></g></g></svg>