<?xml version="1.0" encoding="UTF-8" standalone="no"?>
<!DOCTYPE svg PUBLIC "-//W3C//DTD SVG 1.1//EN"
 "http://www.w3.org/Graphics/SVG/1.1/DTD/svg11.dtd">
<!-- Generated by graphviz version 7.0.0 (20221023.0053)
 -->
<!-- Title: e57::ConstantIntegerDecoder Pages: 1 -->
<svg width="283pt" height="115pt"
 viewBox="0.00 0.00 282.50 115.00" xmlns="http://www.w3.org/2000/svg" xmlns:xlink="http://www.w3.org/1999/xlink">
<g id="graph0" class="graph" transform="scale(1 1) rotate(0) translate(4 111)">
<title>e57::ConstantIntegerDecoder</title>
<!-- Node1 -->
<g id="node1" class="node">
<title>Node1</title>
<g id="a_node1"><a xlink:title=" ">
<polygon fill="#999999" stroke="#666666" points="191,-19 46,-19 46,0 191,0 191,-19"/>
<text text-anchor="middle" x="118.5" y="-7" font-family="Helvetica,sans-Serif" font-size="10.00">e57::ConstantIntegerDecoder</text>
</a>
</g>
</g>
<!-- Node2 -->
<g id="node2" class="node">
<title>Node2</title>
<g id="a_node2"><a xlink:href="../../d2/d14/classe57_1_1_decoder.html" target="_top" xlink:title=" ">
<polygon fill="white" stroke="#666666" points="75,-107 0,-107 0,-88 75,-88 75,-107"/>
<text text-anchor="middle" x="37.5" y="-95" font-family="Helvetica,sans-Serif" font-size="10.00">e57::Decoder</text>
</a>
</g>
</g>
<!-- Node2&#45;&gt;Node1 -->
<g id="edge1" class="edge">
<title>Node2&#45;&gt;Node1</title>
<path fill="none" stroke="#63b8ff" d="M53.36,-79.66C70.35,-61.63 96.67,-33.67 110.06,-19.46"/>
<polygon fill="#63b8ff" stroke="#63b8ff" points="51.21,-76.84 46.9,-86.52 56.31,-81.64 51.21,-76.84"/>
</g>
<!-- Node3 -->
<g id="node3" class="node">
<title>Node3</title>
<g id="a_node3"><a xlink:title=" ">
<polygon fill="white" stroke="#666666" points="144,-107 93,-107 93,-88 144,-88 144,-107"/>
<text text-anchor="middle" x="118.5" y="-95" font-family="Helvetica,sans-Serif" font-size="10.00">uint64_t</text>
</a>
</g>
</g>
<!-- Node3&#45;&gt;Node1 -->
<g id="edge2" class="edge">
<title>Node3&#45;&gt;Node1</title>
<path fill="none" stroke="#9a32cd" stroke-dasharray="5,2" d="M118.5,-76.37C118.5,-58.37 118.5,-32.83 118.5,-19.46"/>
<polygon fill="#9a32cd" stroke="#9a32cd" points="115,-76.11 118.5,-86.11 122,-76.11 115,-76.11"/>
<text text-anchor="start" x="118.5" y="-62" font-family="Helvetica,sans-Serif" font-size="10.00"> currentRecordIndex</text>
<text text-anchor="middle" x="163" y="-51" font-family="Helvetica,sans-Serif" font-size="10.00">_</text>
<text text-anchor="middle" x="163" y="-40" font-family="Helvetica,sans-Serif" font-size="10.00">maxRecordCount_</text>
</g>
<!-- Node4 -->
<g id="node4" class="node">
<title>Node4</title>
<g id="a_node4"><a xlink:title=" ">
<polygon fill="white" stroke="#666666" points="253.5,-107 207.5,-107 207.5,-88 253.5,-88 253.5,-107"/>
<text text-anchor="middle" x="230.5" y="-95" font-family="Helvetica,sans-Serif" font-size="10.00">int64_t</text>
</a>
</g>
</g>
<!-- Node4&#45;&gt;Node1 -->
<g id="edge3" class="edge">
<title>Node4&#45;&gt;Node1</title>
<path fill="none" stroke="#9a32cd" stroke-dasharray="5,2" d="M227.86,-76.82C225.12,-63.84 219.6,-47.37 208.5,-37 199.93,-28.99 189.06,-23.39 177.87,-19.48"/>
<polygon fill="#9a32cd" stroke="#9a32cd" points="224.36,-77.12 229.47,-86.4 231.26,-75.96 224.36,-77.12"/>
<text text-anchor="middle" x="250" y="-51" font-family="Helvetica,sans-Serif" font-size="10.00"> minimum_</text>
</g>
</g>
</svg>
