<?xml version="1.0" encoding="UTF-8" standalone="no"?>
<!DOCTYPE svg PUBLIC "-//W3C//DTD SVG 1.1//EN"
 "http://www.w3.org/Graphics/SVG/1.1/DTD/svg11.dtd">
<!-- Generated by graphviz version 2.49.0 (20210828.1703)
 -->
<!-- Title: e57::ConstantIntegerDecoder Pages: 1 -->
<svg width="288pt" height="117pt"
 viewBox="0.00 0.00 287.50 117.00" xmlns="http://www.w3.org/2000/svg" xmlns:xlink="http://www.w3.org/1999/xlink">
<g id="graph0" class="graph" transform="scale(1 1) rotate(0) translate(4 113)">
<title>e57::ConstantIntegerDecoder</title>
<polygon fill="white" stroke="transparent" points="-4,4 -4,-113 283.5,-113 283.5,4 -4,4"/>
<!-- Node1 -->
<g id="node1" class="node">
<title>Node1</title>
<g id="a_node1"><a xlink:title=" ">
<polygon fill="#bfbfbf" stroke="black" points="47.5,-0.5 47.5,-19.5 195.5,-19.5 195.5,-0.5 47.5,-0.5"/>
<text text-anchor="middle" x="121.5" y="-7.5" font-family="Helvetica,sans-Serif" font-size="10.00">e57::ConstantIntegerDecoder</text>
</a>
</g>
</g>
<!-- Node2 -->
<g id="node2" class="node">
<title>Node2</title>
<g id="a_node2"><a xlink:href="../../d2/d14/classe57_1_1_decoder.html" target="_top" xlink:title=" ">
<polygon fill="white" stroke="black" points="0,-89.5 0,-108.5 77,-108.5 77,-89.5 0,-89.5"/>
<text text-anchor="middle" x="38.5" y="-96.5" font-family="Helvetica,sans-Serif" font-size="10.00">e57::Decoder</text>
</a>
</g>
</g>
<!-- Node2&#45;&gt;Node1 -->
<g id="edge1" class="edge">
<title>Node2&#45;&gt;Node1</title>
<path fill="none" stroke="midnightblue" d="M54.01,-81.74C71.56,-63.35 99.5,-34.06 113.27,-19.62"/>
<polygon fill="midnightblue" stroke="midnightblue" points="51.13,-79.69 46.76,-89.34 56.2,-84.52 51.13,-79.69"/>
</g>
<!-- Node3 -->
<g id="node3" class="node">
<title>Node3</title>
<g id="a_node3"><a xlink:title=" ">
<polygon fill="white" stroke="#bfbfbf" points="95.5,-89.5 95.5,-108.5 147.5,-108.5 147.5,-89.5 95.5,-89.5"/>
<text text-anchor="middle" x="121.5" y="-96.5" font-family="Helvetica,sans-Serif" font-size="10.00">uint64_t</text>
</a>
</g>
</g>
<!-- Node3&#45;&gt;Node1 -->
<g id="edge2" class="edge">
<title>Node3&#45;&gt;Node1</title>
<path fill="none" stroke="#9a32cd" stroke-dasharray="5,2" d="M121.5,-79.19C121.5,-60.74 121.5,-33.41 121.5,-19.62"/>
<polygon fill="#9a32cd" stroke="#9a32cd" points="118,-79.34 121.5,-89.34 125,-79.34 118,-79.34"/>
<text text-anchor="start" x="121.5" y="-63" font-family="Helvetica,sans-Serif" font-size="10.00"> currentRecordIndex</text>
<text text-anchor="middle" x="167" y="-52" font-family="Helvetica,sans-Serif" font-size="10.00">_</text>
<text text-anchor="middle" x="167" y="-41" font-family="Helvetica,sans-Serif" font-size="10.00">maxRecordCount_</text>
</g>
<!-- Node4 -->
<g id="node4" class="node">
<title>Node4</title>
<g id="a_node4"><a xlink:title=" ">
<polygon fill="white" stroke="#bfbfbf" points="212,-89.5 212,-108.5 259,-108.5 259,-89.5 212,-89.5"/>
<text text-anchor="middle" x="235.5" y="-96.5" font-family="Helvetica,sans-Serif" font-size="10.00">int64_t</text>
</a>
</g>
</g>
<!-- Node4&#45;&gt;Node1 -->
<g id="edge3" class="edge">
<title>Node4&#45;&gt;Node1</title>
<path fill="none" stroke="#9a32cd" stroke-dasharray="5,2" d="M233.15,-79.36C230.53,-66.1 225.02,-48.78 213.5,-38 204.39,-29.47 192.72,-23.62 180.77,-19.61"/>
<polygon fill="#9a32cd" stroke="#9a32cd" points="229.71,-80 234.74,-89.32 236.62,-78.89 229.71,-80"/>
<text text-anchor="middle" x="255" y="-52" font-family="Helvetica,sans-Serif" font-size="10.00"> minimum_</text>
</g>
</g>
</svg>
