<?xml version="1.0" encoding="UTF-8" standalone="no"?>
<!DOCTYPE svg PUBLIC "-//W3C//DTD SVG 1.1//EN"
 "http://www.w3.org/Graphics/SVG/1.1/DTD/svg11.dtd">
<!-- Generated by graphviz version 7.0.0 (20221023.0053)
 -->
<!-- Title: e57::Decoder Pages: 1 -->
<svg width="438pt" height="113pt"
 viewBox="0.00 0.00 438.00 113.00" xmlns="http://www.w3.org/2000/svg" xmlns:xlink="http://www.w3.org/1999/xlink">
<g id="graph0" class="graph" transform="scale(1 1) rotate(0) translate(4 109)">
<title>e57::Decoder</title>
<!-- Node1 -->
<g id="node1" class="node">
<title>Node1</title>
<g id="a_node1"><a xlink:title=" ">
<polygon fill="#999999" stroke="#666666" points="75,-43 0,-43 0,-24 75,-24 75,-43"/>
<text text-anchor="middle" x="37.5" y="-31" font-family="Helvetica,sans-Serif" font-size="10.00">e57::Decoder</text>
</a>
</g>
</g>
<!-- Node2 -->
<g id="node2" class="node">
<title>Node2</title>
<g id="a_node2"><a xlink:href="../../d5/df3/classe57_1_1_bitpack_decoder.html" target="_top" xlink:title=" ">
<polygon fill="white" stroke="#666666" points="237.5,-62 129.5,-62 129.5,-43 237.5,-43 237.5,-62"/>
<text text-anchor="middle" x="183.5" y="-50" font-family="Helvetica,sans-Serif" font-size="10.00">e57::BitpackDecoder</text>
</a>
</g>
</g>
<!-- Node1&#45;&gt;Node2 -->
<g id="edge1" class="edge">
<title>Node1&#45;&gt;Node2</title>
<path fill="none" stroke="#63b8ff" d="M86.34,-39.81C100.02,-41.62 115.01,-43.6 129,-45.44"/>
<polygon fill="#63b8ff" stroke="#63b8ff" points="87.08,-36.38 76.71,-38.54 86.17,-43.32 87.08,-36.38"/>
</g>
<!-- Node6 -->
<g id="node6" class="node">
<title>Node6</title>
<g id="a_node6"><a xlink:href="../../d3/d10/classe57_1_1_constant_integer_decoder.html" target="_top" xlink:title=" ">
<polygon fill="white" stroke="#666666" points="256,-25 111,-25 111,-6 256,-6 256,-25"/>
<text text-anchor="middle" x="183.5" y="-13" font-family="Helvetica,sans-Serif" font-size="10.00">e57::ConstantIntegerDecoder</text>
</a>
</g>
</g>
<!-- Node1&#45;&gt;Node6 -->
<g id="edge5" class="edge">
<title>Node1&#45;&gt;Node6</title>
<path fill="none" stroke="#63b8ff" d="M86.55,-27.49C94.27,-26.53 102.41,-25.51 110.54,-24.5"/>
<polygon fill="#63b8ff" stroke="#63b8ff" points="86.2,-24.01 76.71,-28.72 87.07,-30.96 86.2,-24.01"/>
</g>
<!-- Node3 -->
<g id="node3" class="node">
<title>Node3</title>
<g id="a_node3"><a xlink:href="../../de/d9f/classe57_1_1_bitpack_float_decoder.html" target="_top" xlink:title=" ">
<polygon fill="white" stroke="#666666" points="426,-105 296,-105 296,-86 426,-86 426,-105"/>
<text text-anchor="middle" x="361" y="-93" font-family="Helvetica,sans-Serif" font-size="10.00">e57::BitpackFloatDecoder</text>
</a>
</g>
</g>
<!-- Node2&#45;&gt;Node3 -->
<g id="edge2" class="edge">
<title>Node2&#45;&gt;Node3</title>
<path fill="none" stroke="#63b8ff" d="M236.2,-65.17C262.68,-71.66 294.48,-79.45 319.21,-85.51"/>
<polygon fill="#63b8ff" stroke="#63b8ff" points="237.22,-61.81 226.67,-62.83 235.55,-68.61 237.22,-61.81"/>
</g>
<!-- Node4 -->
<g id="node4" class="node">
<title>Node4</title>
<g id="a_node4"><a xlink:href="../../d9/d17/classe57_1_1_bitpack_integer_decoder.html" target="_top" xlink:title=" ">
<polygon fill="white" stroke="#666666" points="430,-67.5 292,-67.5 292,-37.5 430,-37.5 430,-67.5"/>
<text text-anchor="start" x="300" y="-55.5" font-family="Helvetica,sans-Serif" font-size="10.00">e57::BitpackIntegerDecoder</text>
<text text-anchor="middle" x="361" y="-44.5" font-family="Helvetica,sans-Serif" font-size="10.00">&lt; RegisterT &gt;</text>
</a>
</g>
</g>
<!-- Node2&#45;&gt;Node4 -->
<g id="edge3" class="edge">
<title>Node2&#45;&gt;Node4</title>
<path fill="none" stroke="#63b8ff" d="M249.09,-52.5C262.99,-52.5 277.74,-52.5 291.78,-52.5"/>
<polygon fill="#63b8ff" stroke="#63b8ff" points="249.15,-49 239.15,-52.5 249.15,-56 249.15,-49"/>
</g>
<!-- Node5 -->
<g id="node5" class="node">
<title>Node5</title>
<g id="a_node5"><a xlink:href="../../d9/d8f/classe57_1_1_bitpack_string_decoder.html" target="_top" xlink:title=" ">
<polygon fill="white" stroke="#666666" points="428,-19 294,-19 294,0 428,0 428,-19"/>
<text text-anchor="middle" x="361" y="-7" font-family="Helvetica,sans-Serif" font-size="10.00">e57::BitpackStringDecoder</text>
</a>
</g>
</g>
<!-- Node2&#45;&gt;Node5 -->
<g id="edge4" class="edge">
<title>Node2&#45;&gt;Node5</title>
<path fill="none" stroke="#63b8ff" d="M236.2,-39.83C262.68,-33.34 294.48,-25.55 319.21,-19.49"/>
<polygon fill="#63b8ff" stroke="#63b8ff" points="235.55,-36.39 226.67,-42.17 237.22,-43.19 235.55,-36.39"/>
</g>
</g>
</svg>
