<?xml version="1.0" encoding="UTF-8" standalone="no"?>
<!DOCTYPE svg PUBLIC "-//W3C//DTD SVG 1.1//EN"
 "http://www.w3.org/Graphics/SVG/1.1/DTD/svg11.dtd">
<!-- Generated by graphviz version 2.44.0 (20200408.0750)
 -->
<!-- Title: CheckedFile.cpp Pages: 1 -->
<svg width="666pt" height="308pt"
 viewBox="0.00 0.00 666.00 308.00" xmlns="http://www.w3.org/2000/svg" xmlns:xlink="http://www.w3.org/1999/xlink">
<g id="graph0" class="graph" transform="scale(1 1) rotate(0) translate(4 304)">
<title>CheckedFile.cpp</title>
<polygon fill="white" stroke="transparent" points="-4,4 -4,-304 662,-304 662,4 -4,4"/>
<!-- Node1 -->
<g id="node1" class="node">
<title>Node1</title>
<g id="a_node1"><a xlink:title=" ">
<polygon fill="#bfbfbf" stroke="black" points="133,-280.5 133,-299.5 223,-299.5 223,-280.5 133,-280.5"/>
<text text-anchor="middle" x="178" y="-287.5" font-family="Helvetica,sans-Serif" font-size="10.00">CheckedFile.cpp</text>
</a>
</g>
</g>
<!-- Node2 -->
<g id="node2" class="node">
<title>Node2</title>
<g id="a_node2"><a xlink:title=" ">
<polygon fill="white" stroke="#bfbfbf" points="0,-224.5 0,-243.5 44,-243.5 44,-224.5 0,-224.5"/>
<text text-anchor="middle" x="22" y="-231.5" font-family="Helvetica,sans-Serif" font-size="10.00">cmath</text>
</a>
</g>
</g>
<!-- Node1&#45;&gt;Node2 -->
<g id="edge1" class="edge">
<title>Node1&#45;&gt;Node2</title>
<path fill="none" stroke="midnightblue" d="M153.28,-280.44C126.38,-271.13 83.29,-256.22 53.87,-246.03"/>
<polygon fill="midnightblue" stroke="midnightblue" points="54.68,-242.61 44.08,-242.64 52.39,-249.22 54.68,-242.61"/>
</g>
<!-- Node3 -->
<g id="node3" class="node">
<title>Node3</title>
<g id="a_node3"><a xlink:title=" ">
<polygon fill="white" stroke="#bfbfbf" points="62.5,-224.5 62.5,-243.5 105.5,-243.5 105.5,-224.5 62.5,-224.5"/>
<text text-anchor="middle" x="84" y="-231.5" font-family="Helvetica,sans-Serif" font-size="10.00">cstdio</text>
</a>
</g>
</g>
<!-- Node1&#45;&gt;Node3 -->
<g id="edge2" class="edge">
<title>Node1&#45;&gt;Node3</title>
<path fill="none" stroke="midnightblue" d="M162.9,-280.32C148.1,-271.82 125.31,-258.73 108.02,-248.8"/>
<polygon fill="midnightblue" stroke="midnightblue" points="109.48,-245.6 99.07,-243.65 105.99,-251.67 109.48,-245.6"/>
</g>
<!-- Node4 -->
<g id="node4" class="node">
<title>Node4</title>
<g id="a_node4"><a xlink:title=" ">
<polygon fill="white" stroke="#bfbfbf" points="124,-224.5 124,-243.5 170,-243.5 170,-224.5 124,-224.5"/>
<text text-anchor="middle" x="147" y="-231.5" font-family="Helvetica,sans-Serif" font-size="10.00">cstring</text>
</a>
</g>
</g>
<!-- Node1&#45;&gt;Node4 -->
<g id="edge3" class="edge">
<title>Node1&#45;&gt;Node4</title>
<path fill="none" stroke="midnightblue" d="M172.88,-280.08C168.59,-272.61 162.34,-261.72 157.06,-252.52"/>
<polygon fill="midnightblue" stroke="midnightblue" points="160.04,-250.68 152.02,-243.75 153.97,-254.17 160.04,-250.68"/>
</g>
<!-- Node5 -->
<g id="node5" class="node">
<title>Node5</title>
<g id="a_node5"><a xlink:title=" ">
<polygon fill="white" stroke="#bfbfbf" points="188,-224.5 188,-243.5 232,-243.5 232,-224.5 188,-224.5"/>
<text text-anchor="middle" x="210" y="-231.5" font-family="Helvetica,sans-Serif" font-size="10.00">fcntl.h</text>
</a>
</g>
</g>
<!-- Node1&#45;&gt;Node5 -->
<g id="edge4" class="edge">
<title>Node1&#45;&gt;Node5</title>
<path fill="none" stroke="midnightblue" d="M183.28,-280.08C187.71,-272.61 194.16,-261.72 199.62,-252.52"/>
<polygon fill="midnightblue" stroke="midnightblue" points="202.73,-254.14 204.81,-243.75 196.71,-250.57 202.73,-254.14"/>
</g>
<!-- Node6 -->
<g id="node6" class="node">
<title>Node6</title>
<g id="a_node6"><a xlink:title=" ">
<polygon fill="white" stroke="#bfbfbf" points="250.5,-224.5 250.5,-243.5 297.5,-243.5 297.5,-224.5 250.5,-224.5"/>
<text text-anchor="middle" x="274" y="-231.5" font-family="Helvetica,sans-Serif" font-size="10.00">CRC.h</text>
</a>
</g>
</g>
<!-- Node1&#45;&gt;Node6 -->
<g id="edge5" class="edge">
<title>Node1&#45;&gt;Node6</title>
<path fill="none" stroke="midnightblue" d="M193.42,-280.32C208.54,-271.82 231.82,-258.73 249.47,-248.8"/>
<polygon fill="midnightblue" stroke="midnightblue" points="251.61,-251.61 258.61,-243.65 248.18,-245.51 251.61,-251.61"/>
</g>
<!-- Node7 -->
<g id="node7" class="node">
<title>Node7</title>
<g id="a_node7"><a xlink:href="_checked_file_8h.html" target="_top" xlink:title=" ">
<polygon fill="white" stroke="black" points="316,-224.5 316,-243.5 396,-243.5 396,-224.5 316,-224.5"/>
<text text-anchor="middle" x="356" y="-231.5" font-family="Helvetica,sans-Serif" font-size="10.00">CheckedFile.h</text>
</a>
</g>
</g>
<!-- Node1&#45;&gt;Node7 -->
<g id="edge6" class="edge">
<title>Node1&#45;&gt;Node7</title>
<path fill="none" stroke="midnightblue" d="M206.2,-280.44C236.41,-271.28 284.51,-256.69 318.03,-246.52"/>
<polygon fill="midnightblue" stroke="midnightblue" points="319.37,-249.77 327.93,-243.52 317.34,-243.07 319.37,-249.77"/>
</g>
<!-- Node8 -->
<g id="node8" class="node">
<title>Node8</title>
<g id="a_node8"><a xlink:title=" ">
<polygon fill="white" stroke="#bfbfbf" points="289,-168.5 289,-187.5 345,-187.5 345,-168.5 289,-168.5"/>
<text text-anchor="middle" x="317" y="-175.5" font-family="Helvetica,sans-Serif" font-size="10.00">algorithm</text>
</a>
</g>
</g>
<!-- Node7&#45;&gt;Node8 -->
<g id="edge7" class="edge">
<title>Node7&#45;&gt;Node8</title>
<path fill="none" stroke="midnightblue" d="M349.56,-224.08C344.05,-216.46 335.97,-205.26 329.24,-195.94"/>
<polygon fill="midnightblue" stroke="midnightblue" points="332.01,-193.81 323.32,-187.75 326.34,-197.91 332.01,-193.81"/>
</g>
<!-- Node9 -->
<g id="node9" class="node">
<title>Node9</title>
<g id="a_node9"><a xlink:href="_common_8h.html" target="_top" xlink:title=" ">
<polygon fill="white" stroke="black" points="363.5,-168.5 363.5,-187.5 428.5,-187.5 428.5,-168.5 363.5,-168.5"/>
<text text-anchor="middle" x="396" y="-175.5" font-family="Helvetica,sans-Serif" font-size="10.00">Common.h</text>
</a>
</g>
</g>
<!-- Node7&#45;&gt;Node9 -->
<g id="edge8" class="edge">
<title>Node7&#45;&gt;Node9</title>
<path fill="none" stroke="midnightblue" d="M362.61,-224.08C368.26,-216.46 376.54,-205.26 383.45,-195.94"/>
<polygon fill="midnightblue" stroke="midnightblue" points="386.38,-197.87 389.52,-187.75 380.75,-193.7 386.38,-197.87"/>
</g>
<!-- Node10 -->
<g id="node10" class="node">
<title>Node10</title>
<g id="a_node10"><a xlink:title=" ">
<polygon fill="white" stroke="#bfbfbf" points="236,-112.5 236,-131.5 286,-131.5 286,-112.5 236,-112.5"/>
<text text-anchor="middle" x="261" y="-119.5" font-family="Helvetica,sans-Serif" font-size="10.00">iomanip</text>
</a>
</g>
</g>
<!-- Node9&#45;&gt;Node10 -->
<g id="edge9" class="edge">
<title>Node9&#45;&gt;Node10</title>
<path fill="none" stroke="midnightblue" d="M374.61,-168.44C352.29,-159.52 317.1,-145.44 291.79,-135.32"/>
<polygon fill="midnightblue" stroke="midnightblue" points="292.88,-131.98 282.29,-131.52 290.28,-138.48 292.88,-131.98"/>
</g>
<!-- Node11 -->
<g id="node11" class="node">
<title>Node11</title>
<g id="a_node11"><a xlink:title=" ">
<polygon fill="white" stroke="#bfbfbf" points="305,-0.5 305,-19.5 359,-19.5 359,-0.5 305,-0.5"/>
<text text-anchor="middle" x="332" y="-7.5" font-family="Helvetica,sans-Serif" font-size="10.00">iostream</text>
</a>
</g>
</g>
<!-- Node9&#45;&gt;Node11 -->
<g id="edge10" class="edge">
<title>Node9&#45;&gt;Node11</title>
<path fill="none" stroke="midnightblue" d="M389.42,-168.47C382.95,-159.73 373.16,-145.54 367,-132 351.21,-97.29 340.69,-53.72 335.59,-29.47"/>
<polygon fill="midnightblue" stroke="midnightblue" points="338.99,-28.62 333.57,-19.51 332.13,-30.01 338.99,-28.62"/>
</g>
<!-- Node12 -->
<g id="node12" class="node">
<title>Node12</title>
<g id="a_node12"><a xlink:title=" ">
<polygon fill="white" stroke="#bfbfbf" points="516,-112.5 516,-131.5 546,-131.5 546,-112.5 516,-112.5"/>
<text text-anchor="middle" x="531" y="-119.5" font-family="Helvetica,sans-Serif" font-size="10.00">set</text>
</a>
</g>
</g>
<!-- Node9&#45;&gt;Node12 -->
<g id="edge11" class="edge">
<title>Node9&#45;&gt;Node12</title>
<path fill="none" stroke="midnightblue" d="M417.39,-168.44C441.68,-158.73 481.21,-142.91 506.66,-132.74"/>
<polygon fill="midnightblue" stroke="midnightblue" points="507.99,-135.97 515.98,-129.01 505.39,-129.47 507.99,-135.97"/>
</g>
<!-- Node13 -->
<g id="node13" class="node">
<title>Node13</title>
<g id="a_node13"><a xlink:title=" ">
<polygon fill="white" stroke="#bfbfbf" points="564,-112.5 564,-131.5 616,-131.5 616,-112.5 564,-112.5"/>
<text text-anchor="middle" x="590" y="-119.5" font-family="Helvetica,sans-Serif" font-size="10.00">sstream</text>
</a>
</g>
</g>
<!-- Node9&#45;&gt;Node13 -->
<g id="edge12" class="edge">
<title>Node9&#45;&gt;Node13</title>
<path fill="none" stroke="midnightblue" d="M426.74,-168.44C461.31,-158.82 517.39,-143.21 553.99,-133.02"/>
<polygon fill="midnightblue" stroke="midnightblue" points="555.06,-136.36 563.76,-130.3 553.19,-129.61 555.06,-136.36"/>
</g>
<!-- Node14 -->
<g id="node14" class="node">
<title>Node14</title>
<g id="a_node14"><a xlink:title=" ">
<polygon fill="white" stroke="#bfbfbf" points="386.5,-0.5 386.5,-19.5 427.5,-19.5 427.5,-0.5 386.5,-0.5"/>
<text text-anchor="middle" x="407" y="-7.5" font-family="Helvetica,sans-Serif" font-size="10.00">string</text>
</a>
</g>
</g>
<!-- Node9&#45;&gt;Node14 -->
<g id="edge13" class="edge">
<title>Node9&#45;&gt;Node14</title>
<path fill="none" stroke="midnightblue" d="M391.06,-168.28C380.28,-148.07 356.73,-96.69 371,-56 374.79,-45.21 382.37,-35.08 389.6,-27.18"/>
<polygon fill="midnightblue" stroke="midnightblue" points="392.33,-29.4 396.84,-19.81 387.33,-24.49 392.33,-29.4"/>
</g>
<!-- Node15 -->
<g id="node15" class="node">
<title>Node15</title>
<g id="a_node15"><a xlink:title=" ">
<polygon fill="white" stroke="#bfbfbf" points="380,-56.5 380,-75.5 424,-75.5 424,-56.5 380,-56.5"/>
<text text-anchor="middle" x="402" y="-63.5" font-family="Helvetica,sans-Serif" font-size="10.00">vector</text>
</a>
</g>
</g>
<!-- Node9&#45;&gt;Node15 -->
<g id="edge14" class="edge">
<title>Node9&#45;&gt;Node15</title>
<path fill="none" stroke="midnightblue" d="M396.47,-168.37C397.44,-150.62 399.67,-109.67 400.99,-85.6"/>
<polygon fill="midnightblue" stroke="midnightblue" points="404.48,-85.77 401.53,-75.59 397.49,-85.39 404.48,-85.77"/>
</g>
<!-- Node16 -->
<g id="node16" class="node">
<title>Node16</title>
<g id="a_node16"><a xlink:href="_e57_format_8h.html" target="_top" xlink:title=" ">
<polygon fill="white" stroke="black" points="424.5,-112.5 424.5,-131.5 497.5,-131.5 497.5,-112.5 424.5,-112.5"/>
<text text-anchor="middle" x="461" y="-119.5" font-family="Helvetica,sans-Serif" font-size="10.00">E57Format.h</text>
</a>
</g>
</g>
<!-- Node9&#45;&gt;Node16 -->
<g id="edge15" class="edge">
<title>Node9&#45;&gt;Node16</title>
<path fill="none" stroke="midnightblue" d="M406.44,-168.32C416.15,-160.26 430.82,-148.08 442.5,-138.37"/>
<polygon fill="midnightblue" stroke="midnightblue" points="444.91,-140.92 450.37,-131.83 440.44,-135.53 444.91,-140.92"/>
</g>
<!-- Node16&#45;&gt;Node15 -->
<g id="edge18" class="edge">
<title>Node16&#45;&gt;Node15</title>
<path fill="none" stroke="midnightblue" d="M451.52,-112.32C442.8,-104.34 429.66,-92.31 419.1,-82.65"/>
<polygon fill="midnightblue" stroke="midnightblue" points="421.39,-80 411.65,-75.83 416.67,-85.17 421.39,-80"/>
</g>
<!-- Node17 -->
<g id="node17" class="node">
<title>Node17</title>
<g id="a_node17"><a xlink:title=" ">
<polygon fill="white" stroke="#bfbfbf" points="546.5,-56.5 546.5,-75.5 587.5,-75.5 587.5,-56.5 546.5,-56.5"/>
<text text-anchor="middle" x="567" y="-63.5" font-family="Helvetica,sans-Serif" font-size="10.00">cfloat</text>
</a>
</g>
</g>
<!-- Node16&#45;&gt;Node17 -->
<g id="edge16" class="edge">
<title>Node16&#45;&gt;Node17</title>
<path fill="none" stroke="midnightblue" d="M478.03,-112.32C495.03,-103.66 521.38,-90.24 540.99,-80.25"/>
<polygon fill="midnightblue" stroke="midnightblue" points="542.69,-83.31 550.01,-75.65 539.51,-77.08 542.69,-83.31"/>
</g>
<!-- Node18 -->
<g id="node18" class="node">
<title>Node18</title>
<g id="a_node18"><a xlink:title=" ">
<polygon fill="white" stroke="#bfbfbf" points="606,-56.5 606,-75.5 658,-75.5 658,-56.5 606,-56.5"/>
<text text-anchor="middle" x="632" y="-63.5" font-family="Helvetica,sans-Serif" font-size="10.00">memory</text>
</a>
</g>
</g>
<!-- Node16&#45;&gt;Node18 -->
<g id="edge17" class="edge">
<title>Node16&#45;&gt;Node18</title>
<path fill="none" stroke="midnightblue" d="M488.1,-112.44C517.24,-103.24 563.74,-88.56 595.95,-78.38"/>
<polygon fill="midnightblue" stroke="midnightblue" points="597.39,-81.6 605.87,-75.25 595.28,-74.92 597.39,-81.6"/>
</g>
<!-- Node19 -->
<g id="node19" class="node">
<title>Node19</title>
<g id="a_node19"><a xlink:href="_e57_exception_8h.html" target="_top" xlink:title=" ">
<polygon fill="white" stroke="black" points="442,-56.5 442,-75.5 528,-75.5 528,-56.5 442,-56.5"/>
<text text-anchor="middle" x="485" y="-63.5" font-family="Helvetica,sans-Serif" font-size="10.00">E57Exception.h</text>
</a>
</g>
</g>
<!-- Node16&#45;&gt;Node19 -->
<g id="edge19" class="edge">
<title>Node16&#45;&gt;Node19</title>
<path fill="none" stroke="midnightblue" d="M464.96,-112.08C468.21,-104.77 472.92,-94.18 476.95,-85.1"/>
<polygon fill="midnightblue" stroke="midnightblue" points="480.25,-86.31 481.11,-75.75 473.85,-83.47 480.25,-86.31"/>
</g>
<!-- Node19&#45;&gt;Node11 -->
<g id="edge21" class="edge">
<title>Node19&#45;&gt;Node11</title>
<path fill="none" stroke="midnightblue" d="M460.76,-56.44C435.13,-47.4 394.51,-33.06 365.76,-22.92"/>
<polygon fill="midnightblue" stroke="midnightblue" points="366.72,-19.54 356.13,-19.52 364.39,-26.15 366.72,-19.54"/>
</g>
<!-- Node19&#45;&gt;Node14 -->
<g id="edge22" class="edge">
<title>Node19&#45;&gt;Node14</title>
<path fill="none" stroke="midnightblue" d="M472.47,-56.32C460.41,-47.98 441.97,-35.21 427.73,-25.35"/>
<polygon fill="midnightblue" stroke="midnightblue" points="429.72,-22.47 419.5,-19.65 425.73,-28.22 429.72,-22.47"/>
</g>
<!-- Node20 -->
<g id="node20" class="node">
<title>Node20</title>
<g id="a_node20"><a xlink:title=" ">
<polygon fill="white" stroke="#bfbfbf" points="450.5,-0.5 450.5,-19.5 509.5,-19.5 509.5,-0.5 450.5,-0.5"/>
<text text-anchor="middle" x="480" y="-7.5" font-family="Helvetica,sans-Serif" font-size="10.00">exception</text>
</a>
</g>
</g>
<!-- Node19&#45;&gt;Node20 -->
<g id="edge20" class="edge">
<title>Node19&#45;&gt;Node20</title>
<path fill="none" stroke="midnightblue" d="M484.17,-56.08C483.52,-49.01 482.58,-38.86 481.76,-29.99"/>
<polygon fill="midnightblue" stroke="midnightblue" points="485.22,-29.39 480.81,-19.75 478.25,-30.03 485.22,-29.39"/>
</g>
<!-- Node21 -->
<g id="node21" class="node">
<title>Node21</title>
<g id="a_node21"><a xlink:title=" ">
<polygon fill="white" stroke="#bfbfbf" points="527.5,-0.5 527.5,-19.5 598.5,-19.5 598.5,-0.5 527.5,-0.5"/>
<text text-anchor="middle" x="563" y="-7.5" font-family="Helvetica,sans-Serif" font-size="10.00">E57Export.h</text>
</a>
</g>
</g>
<!-- Node19&#45;&gt;Node21 -->
<g id="edge23" class="edge">
<title>Node19&#45;&gt;Node21</title>
<path fill="none" stroke="midnightblue" d="M497.53,-56.32C509.59,-47.98 528.03,-35.21 542.27,-25.35"/>
<polygon fill="midnightblue" stroke="midnightblue" points="544.27,-28.22 550.5,-19.65 540.28,-22.47 544.27,-28.22"/>
</g>
</g>
</svg>
