<?xml version="1.0" encoding="UTF-8" standalone="no"?>
<!DOCTYPE svg PUBLIC "-//W3C//DTD SVG 1.1//EN"
 "http://www.w3.org/Graphics/SVG/1.1/DTD/svg11.dtd">
<!-- Generated by graphviz version 2.44.0 (20200408.0750)
 -->
<!-- Title: Common.h Pages: 1 -->
<svg width="1196pt" height="252pt"
 viewBox="0.00 0.00 1195.50 252.00" xmlns="http://www.w3.org/2000/svg" xmlns:xlink="http://www.w3.org/1999/xlink">
<g id="graph0" class="graph" transform="scale(1 1) rotate(0) translate(4 248)">
<title>Common.h</title>
<polygon fill="white" stroke="transparent" points="-4,4 -4,-248 1191.5,-248 1191.5,4 -4,4"/>
<!-- Node1 -->
<g id="node1" class="node">
<title>Node1</title>
<g id="a_node1"><a xlink:title=" ">
<polygon fill="#bfbfbf" stroke="black" points="744.5,-224.5 744.5,-243.5 809.5,-243.5 809.5,-224.5 744.5,-224.5"/>
<text text-anchor="middle" x="777" y="-231.5" font-family="Helvetica,sans-Serif" font-size="10.00">Common.h</text>
</a>
</g>
</g>
<!-- Node2 -->
<g id="node2" class="node">
<title>Node2</title>
<g id="a_node2"><a xlink:href="_checked_file_8h.html" target="_top" xlink:title=" ">
<polygon fill="white" stroke="black" points="336,-56.5 336,-75.5 416,-75.5 416,-56.5 336,-56.5"/>
<text text-anchor="middle" x="376" y="-63.5" font-family="Helvetica,sans-Serif" font-size="10.00">CheckedFile.h</text>
</a>
</g>
</g>
<!-- Node1&#45;&gt;Node2 -->
<g id="edge1" class="edge">
<title>Node1&#45;&gt;Node2</title>
<path fill="none" stroke="midnightblue" d="M734.04,-230.76C684.82,-226.89 602.65,-216.39 538,-188 471.79,-158.92 407.24,-98.29 384.55,-75.72"/>
<polygon fill="midnightblue" stroke="midnightblue" points="734.09,-234.27 744.32,-231.51 734.6,-227.29 734.09,-234.27"/>
</g>
<!-- Node9 -->
<g id="node9" class="node">
<title>Node9</title>
<g id="a_node9"><a xlink:href="_common_8cpp.html" target="_top" xlink:title=" ">
<polygon fill="white" stroke="black" points="900.5,-168.5 900.5,-187.5 975.5,-187.5 975.5,-168.5 900.5,-168.5"/>
<text text-anchor="middle" x="938" y="-175.5" font-family="Helvetica,sans-Serif" font-size="10.00">Common.cpp</text>
</a>
</g>
</g>
<!-- Node1&#45;&gt;Node9 -->
<g id="edge8" class="edge">
<title>Node1&#45;&gt;Node9</title>
<path fill="none" stroke="midnightblue" d="M812.26,-221.17C842.58,-211 885.57,-196.59 912.61,-187.52"/>
<polygon fill="midnightblue" stroke="midnightblue" points="810.88,-217.95 802.51,-224.44 813.1,-224.58 810.88,-217.95"/>
</g>
<!-- Node10 -->
<g id="node10" class="node">
<title>Node10</title>
<g id="a_node10"><a xlink:href="_decoder_8h.html" target="_top" xlink:title=" ">
<polygon fill="white" stroke="black" points="1054.5,-56.5 1054.5,-75.5 1115.5,-75.5 1115.5,-56.5 1054.5,-56.5"/>
<text text-anchor="middle" x="1085" y="-63.5" font-family="Helvetica,sans-Serif" font-size="10.00">Decoder.h</text>
</a>
</g>
</g>
<!-- Node1&#45;&gt;Node10 -->
<g id="edge9" class="edge">
<title>Node1&#45;&gt;Node10</title>
<path fill="none" stroke="midnightblue" d="M800.34,-219.34C823.28,-206 859.35,-185.25 891,-168 955.85,-132.65 1034.14,-92.71 1068.02,-75.57"/>
<polygon fill="midnightblue" stroke="midnightblue" points="798.53,-216.35 791.66,-224.41 802.06,-222.39 798.53,-216.35"/>
</g>
<!-- Node12 -->
<g id="node12" class="node">
<title>Node12</title>
<g id="a_node12"><a xlink:href="_packet_8h.html" target="_top" xlink:title=" ">
<polygon fill="white" stroke="black" points="510,-112.5 510,-131.5 566,-131.5 566,-112.5 510,-112.5"/>
<text text-anchor="middle" x="538" y="-119.5" font-family="Helvetica,sans-Serif" font-size="10.00">Packet.h</text>
</a>
</g>
</g>
<!-- Node1&#45;&gt;Node12 -->
<g id="edge12" class="edge">
<title>Node1&#45;&gt;Node12</title>
<path fill="none" stroke="midnightblue" d="M734.28,-223.22C704.94,-215.65 665.57,-203.79 633,-188 599.73,-171.87 564.94,-145.11 548.19,-131.5"/>
<polygon fill="midnightblue" stroke="midnightblue" points="733.66,-226.67 744.21,-225.71 735.37,-219.88 733.66,-226.67"/>
</g>
<!-- Node17 -->
<g id="node17" class="node">
<title>Node17</title>
<g id="a_node17"><a xlink:href="_node_impl_8h.html" target="_top" xlink:title=" ">
<polygon fill="white" stroke="black" points="642.5,-168.5 642.5,-187.5 709.5,-187.5 709.5,-168.5 642.5,-168.5"/>
<text text-anchor="middle" x="676" y="-175.5" font-family="Helvetica,sans-Serif" font-size="10.00">NodeImpl.h</text>
</a>
</g>
</g>
<!-- Node1&#45;&gt;Node17 -->
<g id="edge22" class="edge">
<title>Node1&#45;&gt;Node17</title>
<path fill="none" stroke="midnightblue" d="M751.92,-219.59C733.24,-209.61 708.3,-196.27 692.19,-187.65"/>
<polygon fill="midnightblue" stroke="midnightblue" points="750.3,-222.7 760.77,-224.32 753.6,-216.52 750.3,-222.7"/>
</g>
<!-- Node19 -->
<g id="node19" class="node">
<title>Node19</title>
<g id="a_node19"><a xlink:href="_image_file_impl_8h.html" target="_top" xlink:title=" ">
<polygon fill="white" stroke="black" points="622,-56.5 622,-75.5 708,-75.5 708,-56.5 622,-56.5"/>
<text text-anchor="middle" x="665" y="-63.5" font-family="Helvetica,sans-Serif" font-size="10.00">ImageFileImpl.h</text>
</a>
</g>
</g>
<!-- Node1&#45;&gt;Node19 -->
<g id="edge27" class="edge">
<title>Node1&#45;&gt;Node19</title>
<path fill="none" stroke="midnightblue" d="M775.03,-214.28C771.51,-188.77 762.1,-142.72 738,-112 724.77,-95.13 703.33,-83 687.09,-75.62"/>
<polygon fill="midnightblue" stroke="midnightblue" points="771.59,-214.93 776.27,-224.44 778.53,-214.09 771.59,-214.93"/>
</g>
<!-- Node21 -->
<g id="node21" class="node">
<title>Node21</title>
<g id="a_node21"><a xlink:href="_source_dest_buffer_impl_8h.html" target="_top" xlink:title=" ">
<polygon fill="white" stroke="black" points="836,-56.5 836,-75.5 958,-75.5 958,-56.5 836,-56.5"/>
<text text-anchor="middle" x="897" y="-63.5" font-family="Helvetica,sans-Serif" font-size="10.00">SourceDestBufferImpl.h</text>
</a>
</g>
</g>
<!-- Node1&#45;&gt;Node21 -->
<g id="edge37" class="edge">
<title>Node1&#45;&gt;Node21</title>
<path fill="none" stroke="midnightblue" d="M779.57,-214.18C783.92,-188.55 794.84,-142.38 820,-112 834.12,-94.95 856.49,-82.9 873.49,-75.6"/>
<polygon fill="midnightblue" stroke="midnightblue" points="776.07,-213.97 778.01,-224.39 782.98,-215.03 776.07,-213.97"/>
</g>
<!-- Node22 -->
<g id="node22" class="node">
<title>Node22</title>
<g id="a_node22"><a xlink:href="_encoder_8h.html" target="_top" xlink:title=" ">
<polygon fill="white" stroke="black" points="976,-56.5 976,-75.5 1036,-75.5 1036,-56.5 976,-56.5"/>
<text text-anchor="middle" x="1006" y="-63.5" font-family="Helvetica,sans-Serif" font-size="10.00">Encoder.h</text>
</a>
</g>
</g>
<!-- Node1&#45;&gt;Node22 -->
<g id="edge44" class="edge">
<title>Node1&#45;&gt;Node22</title>
<path fill="none" stroke="midnightblue" d="M786.89,-215.24C803.93,-185.19 838.84,-126.2 858,-112 867.6,-104.88 935.4,-85.91 975.83,-75"/>
<polygon fill="midnightblue" stroke="midnightblue" points="783.69,-213.78 781.84,-224.21 789.79,-217.21 783.69,-213.78"/>
</g>
<!-- Node23 -->
<g id="node23" class="node">
<title>Node23</title>
<g id="a_node23"><a xlink:href="_e57_xml_parser_8h.html" target="_top" xlink:title=" ">
<polygon fill="white" stroke="black" points="438.5,-56.5 438.5,-75.5 525.5,-75.5 525.5,-56.5 438.5,-56.5"/>
<text text-anchor="middle" x="482" y="-63.5" font-family="Helvetica,sans-Serif" font-size="10.00">E57XmlParser.h</text>
</a>
</g>
</g>
<!-- Node1&#45;&gt;Node23 -->
<g id="edge47" class="edge">
<title>Node1&#45;&gt;Node23</title>
<path fill="none" stroke="midnightblue" d="M734,-230.76C671.74,-225.02 557.74,-204.58 501,-132 487.82,-115.14 483.78,-89.4 482.54,-75.93"/>
<polygon fill="midnightblue" stroke="midnightblue" points="734.01,-234.28 744.27,-231.62 734.59,-227.3 734.01,-234.28"/>
</g>
<!-- Node24 -->
<g id="node24" class="node">
<title>Node24</title>
<g id="a_node24"><a xlink:href="_writer_impl_8cpp.html" target="_top" xlink:title=" ">
<polygon fill="white" stroke="black" points="994,-168.5 994,-187.5 1074,-187.5 1074,-168.5 994,-168.5"/>
<text text-anchor="middle" x="1034" y="-175.5" font-family="Helvetica,sans-Serif" font-size="10.00">WriterImpl.cpp</text>
</a>
</g>
</g>
<!-- Node1&#45;&gt;Node24 -->
<g id="edge50" class="edge">
<title>Node1&#45;&gt;Node24</title>
<path fill="none" stroke="midnightblue" d="M819.39,-224.09C867.74,-213.93 946.23,-197.44 993.7,-187.47"/>
<polygon fill="midnightblue" stroke="midnightblue" points="818.62,-220.68 809.55,-226.16 820.06,-227.53 818.62,-220.68"/>
</g>
<!-- Node3 -->
<g id="node3" class="node">
<title>Node3</title>
<g id="a_node3"><a xlink:href="_checked_file_8cpp.html" target="_top" xlink:title=" ">
<polygon fill="white" stroke="black" points="84,-0.5 84,-19.5 174,-19.5 174,-0.5 84,-0.5"/>
<text text-anchor="middle" x="129" y="-7.5" font-family="Helvetica,sans-Serif" font-size="10.00">CheckedFile.cpp</text>
</a>
</g>
</g>
<!-- Node2&#45;&gt;Node3 -->
<g id="edge2" class="edge">
<title>Node2&#45;&gt;Node3</title>
<path fill="none" stroke="midnightblue" d="M326.97,-54.28C280.3,-44.08 210.97,-28.92 167.95,-19.52"/>
<polygon fill="midnightblue" stroke="midnightblue" points="326.35,-57.73 336.86,-56.44 327.84,-50.89 326.35,-57.73"/>
</g>
<!-- Node4 -->
<g id="node4" class="node">
<title>Node4</title>
<g id="a_node4"><a xlink:href="_e57_format_impl_8cpp.html" target="_top" xlink:title=" ">
<polygon fill="white" stroke="black" points="996,-0.5 996,-19.5 1098,-19.5 1098,-0.5 996,-0.5"/>
<text text-anchor="middle" x="1047" y="-7.5" font-family="Helvetica,sans-Serif" font-size="10.00">E57FormatImpl.cpp</text>
</a>
</g>
</g>
<!-- Node2&#45;&gt;Node4 -->
<g id="edge3" class="edge">
<title>Node2&#45;&gt;Node4</title>
<path fill="none" stroke="midnightblue" d="M426.24,-56.33C427.17,-56.22 428.09,-56.11 429,-56 675.84,-27.16 739.9,-46.46 987,-20 989.93,-19.69 992.94,-19.33 995.97,-18.95"/>
<polygon fill="midnightblue" stroke="midnightblue" points="425.59,-52.89 416.16,-57.73 426.55,-59.83 425.59,-52.89"/>
</g>
<!-- Node5 -->
<g id="node5" class="node">
<title>Node5</title>
<g id="a_node5"><a xlink:href="_e57_xml_parser_8cpp.html" target="_top" xlink:title=" ">
<polygon fill="white" stroke="black" points="443,-0.5 443,-19.5 541,-19.5 541,-0.5 443,-0.5"/>
<text text-anchor="middle" x="492" y="-7.5" font-family="Helvetica,sans-Serif" font-size="10.00">E57XmlParser.cpp</text>
</a>
</g>
</g>
<!-- Node2&#45;&gt;Node5 -->
<g id="edge4" class="edge">
<title>Node2&#45;&gt;Node5</title>
<path fill="none" stroke="midnightblue" d="M403.72,-52.1C425.39,-42.01 454.9,-28.27 473.71,-19.52"/>
<polygon fill="midnightblue" stroke="midnightblue" points="401.97,-49.05 394.38,-56.44 404.92,-55.4 401.97,-49.05"/>
</g>
<!-- Node6 -->
<g id="node6" class="node">
<title>Node6</title>
<g id="a_node6"><a xlink:href="_image_file_impl_8cpp.html" target="_top" xlink:title=" ">
<polygon fill="white" stroke="black" points="327.5,-0.5 327.5,-19.5 424.5,-19.5 424.5,-0.5 327.5,-0.5"/>
<text text-anchor="middle" x="376" y="-7.5" font-family="Helvetica,sans-Serif" font-size="10.00">ImageFileImpl.cpp</text>
</a>
</g>
</g>
<!-- Node2&#45;&gt;Node6 -->
<g id="edge5" class="edge">
<title>Node2&#45;&gt;Node6</title>
<path fill="none" stroke="midnightblue" d="M376,-45.8C376,-36.91 376,-26.78 376,-19.75"/>
<polygon fill="midnightblue" stroke="midnightblue" points="372.5,-46.08 376,-56.08 379.5,-46.08 372.5,-46.08"/>
</g>
<!-- Node7 -->
<g id="node7" class="node">
<title>Node7</title>
<g id="a_node7"><a xlink:href="_packet_8cpp.html" target="_top" xlink:title=" ">
<polygon fill="white" stroke="black" points="0,-0.5 0,-19.5 66,-19.5 66,-0.5 0,-0.5"/>
<text text-anchor="middle" x="33" y="-7.5" font-family="Helvetica,sans-Serif" font-size="10.00">Packet.cpp</text>
</a>
</g>
</g>
<!-- Node2&#45;&gt;Node7 -->
<g id="edge6" class="edge">
<title>Node2&#45;&gt;Node7</title>
<path fill="none" stroke="midnightblue" d="M326,-58.5C266.15,-50.5 162.97,-35.98 75,-20 72.21,-19.49 69.33,-18.94 66.43,-18.36"/>
<polygon fill="midnightblue" stroke="midnightblue" points="325.57,-61.98 335.94,-59.82 326.49,-55.04 325.57,-61.98"/>
</g>
<!-- Node8 -->
<g id="node8" class="node">
<title>Node8</title>
<g id="a_node8"><a xlink:href="_structure_node_impl_8cpp.html" target="_top" xlink:title=" ">
<polygon fill="white" stroke="black" points="192.5,-0.5 192.5,-19.5 309.5,-19.5 309.5,-0.5 192.5,-0.5"/>
<text text-anchor="middle" x="251" y="-7.5" font-family="Helvetica,sans-Serif" font-size="10.00">StructureNodeImpl.cpp</text>
</a>
</g>
</g>
<!-- Node2&#45;&gt;Node8 -->
<g id="edge7" class="edge">
<title>Node2&#45;&gt;Node8</title>
<path fill="none" stroke="midnightblue" d="M346.76,-52.37C323.35,-42.26 291.16,-28.35 270.71,-19.52"/>
<polygon fill="midnightblue" stroke="midnightblue" points="345.63,-55.69 356.19,-56.44 348.4,-49.26 345.63,-55.69"/>
</g>
<!-- Node10&#45;&gt;Node4 -->
<g id="edge11" class="edge">
<title>Node10&#45;&gt;Node4</title>
<path fill="none" stroke="midnightblue" d="M1072.94,-47.86C1066.36,-38.5 1058.49,-27.33 1053.16,-19.75"/>
<polygon fill="midnightblue" stroke="midnightblue" points="1070.11,-49.92 1078.73,-56.08 1075.83,-45.89 1070.11,-49.92"/>
</g>
<!-- Node11 -->
<g id="node11" class="node">
<title>Node11</title>
<g id="a_node11"><a xlink:href="_decoder_8cpp.html" target="_top" xlink:title=" ">
<polygon fill="white" stroke="black" points="1116.5,-0.5 1116.5,-19.5 1187.5,-19.5 1187.5,-0.5 1116.5,-0.5"/>
<text text-anchor="middle" x="1152" y="-7.5" font-family="Helvetica,sans-Serif" font-size="10.00">Decoder.cpp</text>
</a>
</g>
</g>
<!-- Node10&#45;&gt;Node11 -->
<g id="edge10" class="edge">
<title>Node10&#45;&gt;Node11</title>
<path fill="none" stroke="midnightblue" d="M1103.83,-49.82C1115.84,-40.15 1130.97,-27.95 1141.04,-19.83"/>
<polygon fill="midnightblue" stroke="midnightblue" points="1101.35,-47.32 1095.76,-56.32 1105.75,-52.77 1101.35,-47.32"/>
</g>
<!-- Node12&#45;&gt;Node7 -->
<g id="edge21" class="edge">
<title>Node12&#45;&gt;Node7</title>
<path fill="none" stroke="midnightblue" d="M499.96,-114.78C451.66,-106.71 365.85,-91.78 293,-76 210.01,-58.02 113.21,-32.64 64.47,-19.55"/>
<polygon fill="midnightblue" stroke="midnightblue" points="499.52,-118.26 509.96,-116.44 500.67,-111.35 499.52,-118.26"/>
</g>
<!-- Node13 -->
<g id="node13" class="node">
<title>Node13</title>
<g id="a_node13"><a xlink:href="_e57_format_impl_8h.html" target="_top" xlink:title=" ">
<polygon fill="white" stroke="black" points="726,-56.5 726,-75.5 818,-75.5 818,-56.5 726,-56.5"/>
<text text-anchor="middle" x="772" y="-63.5" font-family="Helvetica,sans-Serif" font-size="10.00">E57FormatImpl.h</text>
</a>
</g>
</g>
<!-- Node12&#45;&gt;Node13 -->
<g id="edge13" class="edge">
<title>Node12&#45;&gt;Node13</title>
<path fill="none" stroke="midnightblue" d="M576.21,-112.18C620.03,-102.07 691.41,-85.6 734.8,-75.58"/>
<polygon fill="midnightblue" stroke="midnightblue" points="575.18,-108.83 566.23,-114.49 576.76,-115.65 575.18,-108.83"/>
</g>
<!-- Node13&#45;&gt;Node4 -->
<g id="edge16" class="edge">
<title>Node13&#45;&gt;Node4</title>
<path fill="none" stroke="midnightblue" d="M825.61,-54.47C877.58,-44.27 955.44,-28.98 1003.63,-19.52"/>
<polygon fill="midnightblue" stroke="midnightblue" points="824.71,-51.08 815.57,-56.44 826.06,-57.95 824.71,-51.08"/>
</g>
<!-- Node13&#45;&gt;Node5 -->
<g id="edge17" class="edge">
<title>Node13&#45;&gt;Node5</title>
<path fill="none" stroke="midnightblue" d="M717.75,-54.54C664.83,-44.33 585.33,-29 536.16,-19.52"/>
<polygon fill="midnightblue" stroke="midnightblue" points="717.15,-57.99 727.63,-56.44 718.48,-51.11 717.15,-57.99"/>
</g>
<!-- Node13&#45;&gt;Node6 -->
<g id="edge19" class="edge">
<title>Node13&#45;&gt;Node6</title>
<path fill="none" stroke="midnightblue" d="M715.77,-55.87C589.84,-37.75 556.36,-37.27 434,-20 430.97,-19.57 427.86,-19.12 424.72,-18.66"/>
<polygon fill="midnightblue" stroke="midnightblue" points="715.41,-59.35 725.8,-57.32 716.41,-52.42 715.41,-59.35"/>
</g>
<!-- Node13&#45;&gt;Node11 -->
<g id="edge14" class="edge">
<title>Node13&#45;&gt;Node11</title>
<path fill="none" stroke="midnightblue" d="M828.13,-55.88C952.84,-37.98 986.33,-39.8 1107,-20 1109.99,-19.51 1113.08,-18.97 1116.18,-18.4"/>
<polygon fill="midnightblue" stroke="midnightblue" points="827.59,-52.42 818.2,-57.32 828.59,-59.35 827.59,-52.42"/>
</g>
<!-- Node14 -->
<g id="node14" class="node">
<title>Node14</title>
<g id="a_node14"><a xlink:href="_e57_format_8cpp.html" target="_top" xlink:title=" ">
<polygon fill="white" stroke="black" points="805.5,-0.5 805.5,-19.5 888.5,-19.5 888.5,-0.5 805.5,-0.5"/>
<text text-anchor="middle" x="847" y="-7.5" font-family="Helvetica,sans-Serif" font-size="10.00">E57Format.cpp</text>
</a>
</g>
</g>
<!-- Node13&#45;&gt;Node14 -->
<g id="edge15" class="edge">
<title>Node13&#45;&gt;Node14</title>
<path fill="none" stroke="midnightblue" d="M792.31,-50.38C805.86,-40.62 823.24,-28.11 834.73,-19.83"/>
<polygon fill="midnightblue" stroke="midnightblue" points="790.12,-47.64 784.05,-56.32 794.21,-53.32 790.12,-47.64"/>
</g>
<!-- Node15 -->
<g id="node15" class="node">
<title>Node15</title>
<g id="a_node15"><a xlink:href="_encoder_8cpp.html" target="_top" xlink:title=" ">
<polygon fill="white" stroke="black" points="906.5,-0.5 906.5,-19.5 977.5,-19.5 977.5,-0.5 906.5,-0.5"/>
<text text-anchor="middle" x="942" y="-7.5" font-family="Helvetica,sans-Serif" font-size="10.00">Encoder.cpp</text>
</a>
</g>
</g>
<!-- Node13&#45;&gt;Node15 -->
<g id="edge18" class="edge">
<title>Node13&#45;&gt;Node15</title>
<path fill="none" stroke="midnightblue" d="M808.82,-53.3C840.85,-43.13 886.52,-28.62 915.19,-19.52"/>
<polygon fill="midnightblue" stroke="midnightblue" points="807.41,-50.08 798.94,-56.44 809.53,-56.75 807.41,-50.08"/>
</g>
<!-- Node16 -->
<g id="node16" class="node">
<title>Node16</title>
<g id="a_node16"><a xlink:href="_node_impl_8cpp.html" target="_top" xlink:title=" ">
<polygon fill="white" stroke="black" points="559.5,-0.5 559.5,-19.5 636.5,-19.5 636.5,-0.5 559.5,-0.5"/>
<text text-anchor="middle" x="598" y="-7.5" font-family="Helvetica,sans-Serif" font-size="10.00">NodeImpl.cpp</text>
</a>
</g>
</g>
<!-- Node13&#45;&gt;Node16 -->
<g id="edge20" class="edge">
<title>Node13&#45;&gt;Node16</title>
<path fill="none" stroke="midnightblue" d="M734.74,-53.44C701.93,-43.26 654.92,-28.66 625.44,-19.52"/>
<polygon fill="midnightblue" stroke="midnightblue" points="733.84,-56.82 744.43,-56.44 735.92,-50.14 733.84,-56.82"/>
</g>
<!-- Node17&#45;&gt;Node16 -->
<g id="edge26" class="edge">
<title>Node17&#45;&gt;Node16</title>
<path fill="none" stroke="midnightblue" d="M647.46,-163.5C634.82,-156.02 621.02,-145.48 613,-132 591.02,-95.08 594.47,-40.63 596.84,-19.66"/>
<polygon fill="midnightblue" stroke="midnightblue" points="645.91,-166.64 656.36,-168.4 649.29,-160.51 645.91,-166.64"/>
</g>
<!-- Node18 -->
<g id="node18" class="node">
<title>Node18</title>
<g id="a_node18"><a xlink:href="_structure_node_impl_8h.html" target="_top" xlink:title=" ">
<polygon fill="white" stroke="black" points="622.5,-112.5 622.5,-131.5 729.5,-131.5 729.5,-112.5 622.5,-112.5"/>
<text text-anchor="middle" x="676" y="-119.5" font-family="Helvetica,sans-Serif" font-size="10.00">StructureNodeImpl.h</text>
</a>
</g>
</g>
<!-- Node17&#45;&gt;Node18 -->
<g id="edge23" class="edge">
<title>Node17&#45;&gt;Node18</title>
<path fill="none" stroke="midnightblue" d="M676,-157.8C676,-148.91 676,-138.78 676,-131.75"/>
<polygon fill="midnightblue" stroke="midnightblue" points="672.5,-158.08 676,-168.08 679.5,-158.08 672.5,-158.08"/>
</g>
<!-- Node18&#45;&gt;Node8 -->
<g id="edge25" class="edge">
<title>Node18&#45;&gt;Node8</title>
<path fill="none" stroke="midnightblue" d="M612.01,-114.75C518.39,-105.3 352.43,-87.29 327,-76 297.17,-62.75 270.16,-33.91 257.92,-19.52"/>
<polygon fill="midnightblue" stroke="midnightblue" points="611.92,-118.26 622.22,-115.77 612.62,-111.29 611.92,-118.26"/>
</g>
<!-- Node18&#45;&gt;Node13 -->
<g id="edge24" class="edge">
<title>Node18&#45;&gt;Node13</title>
<path fill="none" stroke="midnightblue" d="M700.57,-107.18C718.24,-97.24 741.51,-84.15 756.61,-75.65"/>
<polygon fill="midnightblue" stroke="midnightblue" points="698.42,-104.37 691.42,-112.32 701.86,-110.47 698.42,-104.37"/>
</g>
<!-- Node19&#45;&gt;Node4 -->
<g id="edge30" class="edge">
<title>Node19&#45;&gt;Node4</title>
<path fill="none" stroke="midnightblue" d="M718.08,-55.88C838.34,-37.63 870.3,-36.53 987,-20 989.92,-19.59 992.92,-19.16 995.95,-18.72"/>
<polygon fill="midnightblue" stroke="midnightblue" points="717.47,-52.44 708.11,-57.41 718.52,-59.36 717.47,-52.44"/>
</g>
<!-- Node19&#45;&gt;Node5 -->
<g id="edge31" class="edge">
<title>Node19&#45;&gt;Node5</title>
<path fill="none" stroke="midnightblue" d="M627.95,-53.44C595.34,-43.26 548.59,-28.66 519.28,-19.52"/>
<polygon fill="midnightblue" stroke="midnightblue" points="627,-56.8 637.59,-56.44 629.08,-50.12 627,-56.8"/>
</g>
<!-- Node19&#45;&gt;Node6 -->
<g id="edge33" class="edge">
<title>Node19&#45;&gt;Node6</title>
<path fill="none" stroke="midnightblue" d="M611.58,-55.02C557.13,-44.84 473.54,-29.23 421.95,-19.59"/>
<polygon fill="midnightblue" stroke="midnightblue" points="611.26,-58.52 621.73,-56.92 612.55,-51.64 611.26,-58.52"/>
</g>
<!-- Node19&#45;&gt;Node8 -->
<g id="edge36" class="edge">
<title>Node19&#45;&gt;Node8</title>
<path fill="none" stroke="midnightblue" d="M611.93,-58.19C543.85,-49.45 422.11,-33.74 318,-20 315.32,-19.65 312.59,-19.28 309.82,-18.92"/>
<polygon fill="midnightblue" stroke="midnightblue" points="611.62,-61.68 621.99,-59.49 612.51,-54.74 611.62,-61.68"/>
</g>
<!-- Node19&#45;&gt;Node11 -->
<g id="edge28" class="edge">
<title>Node19&#45;&gt;Node11</title>
<path fill="none" stroke="midnightblue" d="M718.05,-55.96C891.28,-33.57 937.95,-44.64 1107,-20 1110,-19.56 1113.09,-19.06 1116.2,-18.51"/>
<polygon fill="midnightblue" stroke="midnightblue" points="717.55,-52.5 708.09,-57.27 718.46,-59.44 717.55,-52.5"/>
</g>
<!-- Node19&#45;&gt;Node14 -->
<g id="edge29" class="edge">
<title>Node19&#45;&gt;Node14</title>
<path fill="none" stroke="midnightblue" d="M703.53,-53.57C737.86,-43.38 787.33,-28.7 818.3,-19.52"/>
<polygon fill="midnightblue" stroke="midnightblue" points="702.43,-50.24 693.84,-56.44 704.42,-56.95 702.43,-50.24"/>
</g>
<!-- Node19&#45;&gt;Node15 -->
<g id="edge32" class="edge">
<title>Node19&#45;&gt;Node15</title>
<path fill="none" stroke="midnightblue" d="M718.16,-54.78C765.2,-45.72 835.68,-32.08 897,-20 899.97,-19.41 903.05,-18.81 906.14,-18.19"/>
<polygon fill="midnightblue" stroke="midnightblue" points="717.36,-51.37 708.2,-56.7 718.68,-58.24 717.36,-51.37"/>
</g>
<!-- Node19&#45;&gt;Node16 -->
<g id="edge34" class="edge">
<title>Node19&#45;&gt;Node16</title>
<path fill="none" stroke="midnightblue" d="M646.17,-49.82C634.16,-40.15 619.03,-27.95 608.96,-19.83"/>
<polygon fill="midnightblue" stroke="midnightblue" points="644.25,-52.77 654.24,-56.32 648.65,-47.32 644.25,-52.77"/>
</g>
<!-- Node20 -->
<g id="node20" class="node">
<title>Node20</title>
<g id="a_node20"><a xlink:href="_source_dest_buffer_impl_8cpp.html" target="_top" xlink:title=" ">
<polygon fill="white" stroke="black" points="655,-0.5 655,-19.5 787,-19.5 787,-0.5 655,-0.5"/>
<text text-anchor="middle" x="721" y="-7.5" font-family="Helvetica,sans-Serif" font-size="10.00">SourceDestBufferImpl.cpp</text>
</a>
</g>
</g>
<!-- Node19&#45;&gt;Node20 -->
<g id="edge35" class="edge">
<title>Node19&#45;&gt;Node20</title>
<path fill="none" stroke="midnightblue" d="M681.33,-49.25C691.26,-39.67 703.59,-27.79 711.84,-19.83"/>
<polygon fill="midnightblue" stroke="midnightblue" points="678.77,-46.86 674,-56.32 683.63,-51.9 678.77,-46.86"/>
</g>
<!-- Node21&#45;&gt;Node4 -->
<g id="edge40" class="edge">
<title>Node21&#45;&gt;Node4</title>
<path fill="none" stroke="midnightblue" d="M930.22,-53.04C958.45,-42.88 998.26,-28.55 1023.34,-19.52"/>
<polygon fill="midnightblue" stroke="midnightblue" points="928.99,-49.76 920.77,-56.44 931.36,-56.35 928.99,-49.76"/>
</g>
<!-- Node21&#45;&gt;Node11 -->
<g id="edge38" class="edge">
<title>Node21&#45;&gt;Node11</title>
<path fill="none" stroke="midnightblue" d="M947.33,-54.34C997.19,-43.78 1072.29,-27.88 1116.31,-18.56"/>
<polygon fill="midnightblue" stroke="midnightblue" points="946.46,-50.95 937.41,-56.44 947.91,-57.8 946.46,-50.95"/>
</g>
<!-- Node21&#45;&gt;Node14 -->
<g id="edge39" class="edge">
<title>Node21&#45;&gt;Node14</title>
<path fill="none" stroke="midnightblue" d="M881.92,-48.72C873.11,-39.2 862.33,-27.56 855.1,-19.75"/>
<polygon fill="midnightblue" stroke="midnightblue" points="879.38,-51.12 888.74,-56.08 884.52,-46.37 879.38,-51.12"/>
</g>
<!-- Node21&#45;&gt;Node15 -->
<g id="edge41" class="edge">
<title>Node21&#45;&gt;Node15</title>
<path fill="none" stroke="midnightblue" d="M911.05,-48.14C918.89,-38.74 928.33,-27.4 934.71,-19.75"/>
<polygon fill="midnightblue" stroke="midnightblue" points="908.14,-46.16 904.43,-56.08 913.52,-50.64 908.14,-46.16"/>
</g>
<!-- Node21&#45;&gt;Node16 -->
<g id="edge42" class="edge">
<title>Node21&#45;&gt;Node16</title>
<path fill="none" stroke="midnightblue" d="M838.71,-54.68C787.82,-45.65 712,-32.1 646,-20 642.91,-19.43 639.72,-18.84 636.51,-18.25"/>
<polygon fill="midnightblue" stroke="midnightblue" points="838.4,-58.19 848.86,-56.49 839.63,-51.29 838.4,-58.19"/>
</g>
<!-- Node21&#45;&gt;Node20 -->
<g id="edge43" class="edge">
<title>Node21&#45;&gt;Node20</title>
<path fill="none" stroke="midnightblue" d="M859.31,-53.44C826.13,-43.26 778.57,-28.66 748.76,-19.52"/>
<polygon fill="midnightblue" stroke="midnightblue" points="858.53,-56.86 869.11,-56.44 860.58,-50.16 858.53,-56.86"/>
</g>
<!-- Node22&#45;&gt;Node4 -->
<g id="edge45" class="edge">
<title>Node22&#45;&gt;Node4</title>
<path fill="none" stroke="midnightblue" d="M1019.02,-47.86C1026.12,-38.5 1034.6,-27.33 1040.36,-19.75"/>
<polygon fill="midnightblue" stroke="midnightblue" points="1016.03,-46 1012.77,-56.08 1021.61,-50.24 1016.03,-46"/>
</g>
<!-- Node22&#45;&gt;Node15 -->
<g id="edge46" class="edge">
<title>Node22&#45;&gt;Node15</title>
<path fill="none" stroke="midnightblue" d="M988.01,-49.82C976.54,-40.15 962.09,-27.95 952.47,-19.83"/>
<polygon fill="midnightblue" stroke="midnightblue" points="985.82,-52.55 995.72,-56.32 990.33,-47.2 985.82,-52.55"/>
</g>
<!-- Node23&#45;&gt;Node5 -->
<g id="edge48" class="edge">
<title>Node23&#45;&gt;Node5</title>
<path fill="none" stroke="midnightblue" d="M485.5,-46.1C487.16,-37.14 489.06,-26.86 490.38,-19.75"/>
<polygon fill="midnightblue" stroke="midnightblue" points="482.03,-45.61 483.65,-56.08 488.91,-46.89 482.03,-45.61"/>
</g>
<!-- Node23&#45;&gt;Node6 -->
<g id="edge49" class="edge">
<title>Node23&#45;&gt;Node6</title>
<path fill="none" stroke="midnightblue" d="M455.94,-51.73C436.32,-41.73 409.97,-28.31 392.99,-19.65"/>
<polygon fill="midnightblue" stroke="midnightblue" points="454.47,-54.9 464.97,-56.32 457.65,-48.67 454.47,-54.9"/>
</g>
</g>
</svg>
