<?xml version="1.0" encoding="UTF-8" standalone="no"?>
<!DOCTYPE svg PUBLIC "-//W3C//DTD SVG 1.1//EN"
 "http://www.w3.org/Graphics/SVG/1.1/DTD/svg11.dtd">
<!-- Generated by graphviz version 2.48.0 (20210717.1556)
 -->
<!-- Title: CompressedVectorReaderImpl.cpp Pages: 1 -->
<svg width="600pt" height="420pt"
 viewBox="0.00 0.00 599.50 420.00" xmlns="http://www.w3.org/2000/svg" xmlns:xlink="http://www.w3.org/1999/xlink">
<g id="graph0" class="graph" transform="scale(1 1) rotate(0) translate(4 416)">
<title>CompressedVectorReaderImpl.cpp</title>
<polygon fill="white" stroke="transparent" points="-4,4 -4,-416 595.5,-416 595.5,4 -4,4"/>
<!-- Node1 -->
<g id="node1" class="node">
<title>Node1</title>
<g id="a_node1"><a xlink:title=" ">
<polygon fill="#bfbfbf" stroke="black" points="177,-392.5 177,-411.5 349,-411.5 349,-392.5 177,-392.5"/>
<text text-anchor="middle" x="263" y="-399.5" font-family="Helvetica,sans-Serif" font-size="10.00">CompressedVectorReaderImpl.cpp</text>
</a>
</g>
</g>
<!-- Node2 -->
<g id="node2" class="node">
<title>Node2</title>
<g id="a_node2"><a xlink:href="_compressed_vector_reader_impl_8h.html" target="_top" xlink:title=" ">
<polygon fill="white" stroke="black" points="392,-336.5 392,-355.5 554,-355.5 554,-336.5 392,-336.5"/>
<text text-anchor="middle" x="473" y="-343.5" font-family="Helvetica,sans-Serif" font-size="10.00">CompressedVectorReaderImpl.h</text>
</a>
</g>
</g>
<!-- Node1&#45;&gt;Node2 -->
<g id="edge1" class="edge">
<title>Node1&#45;&gt;Node2</title>
<path fill="none" stroke="midnightblue" d="M296.28,-392.44C332.45,-383.14 390.38,-368.25 429.98,-358.06"/>
<polygon fill="midnightblue" stroke="midnightblue" points="431.07,-361.4 439.88,-355.52 429.32,-354.62 431.07,-361.4"/>
</g>
<!-- Node18 -->
<g id="node18" class="node">
<title>Node18</title>
<g id="a_node18"><a xlink:href="_checked_file_8h.html" target="_top" xlink:title=" ">
<polygon fill="white" stroke="black" points="294,-336.5 294,-355.5 374,-355.5 374,-336.5 294,-336.5"/>
<text text-anchor="middle" x="334" y="-343.5" font-family="Helvetica,sans-Serif" font-size="10.00">CheckedFile.h</text>
</a>
</g>
</g>
<!-- Node1&#45;&gt;Node18 -->
<g id="edge20" class="edge">
<title>Node1&#45;&gt;Node18</title>
<path fill="none" stroke="midnightblue" d="M274.41,-392.32C285.11,-384.18 301.34,-371.84 314.16,-362.09"/>
<polygon fill="midnightblue" stroke="midnightblue" points="316.54,-364.67 322.39,-355.83 312.31,-359.1 316.54,-364.67"/>
</g>
<!-- Node20 -->
<g id="node20" class="node">
<title>Node20</title>
<g id="a_node20"><a xlink:href="_compressed_vector_node_impl_8h.html" target="_top" xlink:title=" ">
<polygon fill="white" stroke="black" points="35.5,-336.5 35.5,-355.5 188.5,-355.5 188.5,-336.5 35.5,-336.5"/>
<text text-anchor="middle" x="112" y="-343.5" font-family="Helvetica,sans-Serif" font-size="10.00">CompressedVectorNodeImpl.h</text>
</a>
</g>
</g>
<!-- Node1&#45;&gt;Node20 -->
<g id="edge23" class="edge">
<title>Node1&#45;&gt;Node20</title>
<path fill="none" stroke="midnightblue" d="M239.07,-392.44C213.78,-383.4 173.7,-369.06 145.32,-358.92"/>
<polygon fill="midnightblue" stroke="midnightblue" points="146.41,-355.59 135.81,-355.52 144.05,-362.18 146.41,-355.59"/>
</g>
<!-- Node22 -->
<g id="node22" class="node">
<title>Node22</title>
<g id="a_node22"><a xlink:href="_image_file_impl_8h.html" target="_top" xlink:title=" ">
<polygon fill="white" stroke="black" points="0,-224.5 0,-243.5 88,-243.5 88,-224.5 0,-224.5"/>
<text text-anchor="middle" x="44" y="-231.5" font-family="Helvetica,sans-Serif" font-size="10.00">ImageFileImpl.h</text>
</a>
</g>
</g>
<!-- Node1&#45;&gt;Node22 -->
<g id="edge26" class="edge">
<title>Node1&#45;&gt;Node22</title>
<path fill="none" stroke="midnightblue" d="M176.71,-395.95C117.06,-390.44 45.13,-379.11 26,-356 1.49,-326.4 20.63,-278.18 33.95,-252.46"/>
<polygon fill="midnightblue" stroke="midnightblue" points="37.12,-253.96 38.84,-243.5 30.98,-250.61 37.12,-253.96"/>
</g>
<!-- Node23 -->
<g id="node23" class="node">
<title>Node23</title>
<g id="a_node23"><a xlink:href="_packet_8h.html" target="_top" xlink:title=" ">
<polygon fill="white" stroke="black" points="536.5,-224.5 536.5,-243.5 591.5,-243.5 591.5,-224.5 536.5,-224.5"/>
<text text-anchor="middle" x="564" y="-231.5" font-family="Helvetica,sans-Serif" font-size="10.00">Packet.h</text>
</a>
</g>
</g>
<!-- Node1&#45;&gt;Node23 -->
<g id="edge29" class="edge">
<title>Node1&#45;&gt;Node23</title>
<path fill="none" stroke="midnightblue" d="M349.24,-400.08C427.84,-397.19 535.72,-387.41 563,-356 587.71,-327.55 578.28,-279.56 570.43,-253.38"/>
<polygon fill="midnightblue" stroke="midnightblue" points="573.67,-252.05 567.26,-243.62 567.02,-254.21 573.67,-252.05"/>
</g>
<!-- Node25 -->
<g id="node25" class="node">
<title>Node25</title>
<g id="a_node25"><a xlink:href="_section_headers_8h.html" target="_top" xlink:title=" ">
<polygon fill="white" stroke="black" points="147,-224.5 147,-243.5 243,-243.5 243,-224.5 147,-224.5"/>
<text text-anchor="middle" x="195" y="-231.5" font-family="Helvetica,sans-Serif" font-size="10.00">SectionHeaders.h</text>
</a>
</g>
</g>
<!-- Node1&#45;&gt;Node25 -->
<g id="edge33" class="edge">
<title>Node1&#45;&gt;Node25</title>
<path fill="none" stroke="midnightblue" d="M254.11,-392.29C238.14,-375.97 205.16,-338.89 193,-300 188.31,-285 189.31,-267.09 191.2,-253.87"/>
<polygon fill="midnightblue" stroke="midnightblue" points="194.71,-254.11 192.97,-243.66 187.82,-252.91 194.71,-254.11"/>
</g>
<!-- Node26 -->
<g id="node26" class="node">
<title>Node26</title>
<g id="a_node26"><a xlink:href="_source_dest_buffer_impl_8h.html" target="_top" xlink:title=" ">
<polygon fill="white" stroke="black" points="202,-280.5 202,-299.5 324,-299.5 324,-280.5 202,-280.5"/>
<text text-anchor="middle" x="263" y="-287.5" font-family="Helvetica,sans-Serif" font-size="10.00">SourceDestBufferImpl.h</text>
</a>
</g>
</g>
<!-- Node1&#45;&gt;Node26 -->
<g id="edge35" class="edge">
<title>Node1&#45;&gt;Node26</title>
<path fill="none" stroke="midnightblue" d="M263,-392.37C263,-374.62 263,-333.67 263,-309.6"/>
<polygon fill="midnightblue" stroke="midnightblue" points="266.5,-309.59 263,-299.59 259.5,-309.59 266.5,-309.59"/>
</g>
<!-- Node3 -->
<g id="node3" class="node">
<title>Node3</title>
<g id="a_node3"><a xlink:href="_decode_channel_8h.html" target="_top" xlink:title=" ">
<polygon fill="white" stroke="black" points="456.5,-280.5 456.5,-299.5 553.5,-299.5 553.5,-280.5 456.5,-280.5"/>
<text text-anchor="middle" x="505" y="-287.5" font-family="Helvetica,sans-Serif" font-size="10.00">DecodeChannel.h</text>
</a>
</g>
</g>
<!-- Node2&#45;&gt;Node3 -->
<g id="edge2" class="edge">
<title>Node2&#45;&gt;Node3</title>
<path fill="none" stroke="midnightblue" d="M478.28,-336.08C482.71,-328.61 489.16,-317.72 494.62,-308.52"/>
<polygon fill="midnightblue" stroke="midnightblue" points="497.73,-310.14 499.81,-299.75 491.71,-306.57 497.73,-310.14"/>
</g>
<!-- Node4 -->
<g id="node4" class="node">
<title>Node4</title>
<g id="a_node4"><a xlink:href="_decoder_8h.html" target="_top" xlink:title=" ">
<polygon fill="white" stroke="black" points="456,-224.5 456,-243.5 518,-243.5 518,-224.5 456,-224.5"/>
<text text-anchor="middle" x="487" y="-231.5" font-family="Helvetica,sans-Serif" font-size="10.00">Decoder.h</text>
</a>
</g>
</g>
<!-- Node3&#45;&gt;Node4 -->
<g id="edge3" class="edge">
<title>Node3&#45;&gt;Node4</title>
<path fill="none" stroke="midnightblue" d="M502.03,-280.08C499.62,-272.85 496.14,-262.41 493.13,-253.4"/>
<polygon fill="midnightblue" stroke="midnightblue" points="496.4,-252.13 489.92,-243.75 489.76,-254.34 496.4,-252.13"/>
</g>
<!-- Node5 -->
<g id="node5" class="node">
<title>Node5</title>
<g id="a_node5"><a xlink:href="_common_8h.html" target="_top" xlink:title=" ">
<polygon fill="white" stroke="black" points="239.5,-168.5 239.5,-187.5 304.5,-187.5 304.5,-168.5 239.5,-168.5"/>
<text text-anchor="middle" x="272" y="-175.5" font-family="Helvetica,sans-Serif" font-size="10.00">Common.h</text>
</a>
</g>
</g>
<!-- Node4&#45;&gt;Node5 -->
<g id="edge4" class="edge">
<title>Node4&#45;&gt;Node5</title>
<path fill="none" stroke="midnightblue" d="M455.74,-225.15C418.51,-215.8 356.15,-200.14 314.55,-189.69"/>
<polygon fill="midnightblue" stroke="midnightblue" points="315.26,-186.26 304.71,-187.22 313.56,-193.05 315.26,-186.26"/>
</g>
<!-- Node6 -->
<g id="node6" class="node">
<title>Node6</title>
<g id="a_node6"><a xlink:title=" ">
<polygon fill="white" stroke="#bfbfbf" points="375,-112.5 375,-131.5 427,-131.5 427,-112.5 375,-112.5"/>
<text text-anchor="middle" x="401" y="-119.5" font-family="Helvetica,sans-Serif" font-size="10.00">iomanip</text>
</a>
</g>
</g>
<!-- Node5&#45;&gt;Node6 -->
<g id="edge5" class="edge">
<title>Node5&#45;&gt;Node6</title>
<path fill="none" stroke="midnightblue" d="M292.44,-168.44C313.67,-159.56 347.1,-145.56 371.25,-135.45"/>
<polygon fill="midnightblue" stroke="midnightblue" points="372.78,-138.61 380.66,-131.52 370.08,-132.15 372.78,-138.61"/>
</g>
<!-- Node7 -->
<g id="node7" class="node">
<title>Node7</title>
<g id="a_node7"><a xlink:title=" ">
<polygon fill="white" stroke="#bfbfbf" points="386.5,-0.5 386.5,-19.5 441.5,-19.5 441.5,-0.5 386.5,-0.5"/>
<text text-anchor="middle" x="414" y="-7.5" font-family="Helvetica,sans-Serif" font-size="10.00">iostream</text>
</a>
</g>
</g>
<!-- Node5&#45;&gt;Node7 -->
<g id="edge6" class="edge">
<title>Node5&#45;&gt;Node7</title>
<path fill="none" stroke="midnightblue" d="M304.69,-172.72C347.82,-166.34 420.16,-152.78 436,-132 459.32,-101.42 438.94,-53.98 424.81,-28.54"/>
<polygon fill="midnightblue" stroke="midnightblue" points="427.69,-26.53 419.62,-19.66 421.64,-30.06 427.69,-26.53"/>
</g>
<!-- Node8 -->
<g id="node8" class="node">
<title>Node8</title>
<g id="a_node8"><a xlink:title=" ">
<polygon fill="white" stroke="#bfbfbf" points="257,-112.5 257,-131.5 287,-131.5 287,-112.5 257,-112.5"/>
<text text-anchor="middle" x="272" y="-119.5" font-family="Helvetica,sans-Serif" font-size="10.00">set</text>
</a>
</g>
</g>
<!-- Node5&#45;&gt;Node8 -->
<g id="edge7" class="edge">
<title>Node5&#45;&gt;Node8</title>
<path fill="none" stroke="midnightblue" d="M272,-168.08C272,-161.01 272,-150.86 272,-141.99"/>
<polygon fill="midnightblue" stroke="midnightblue" points="275.5,-141.75 272,-131.75 268.5,-141.75 275.5,-141.75"/>
</g>
<!-- Node9 -->
<g id="node9" class="node">
<title>Node9</title>
<g id="a_node9"><a xlink:title=" ">
<polygon fill="white" stroke="#bfbfbf" points="305,-112.5 305,-131.5 357,-131.5 357,-112.5 305,-112.5"/>
<text text-anchor="middle" x="331" y="-119.5" font-family="Helvetica,sans-Serif" font-size="10.00">sstream</text>
</a>
</g>
</g>
<!-- Node5&#45;&gt;Node9 -->
<g id="edge8" class="edge">
<title>Node5&#45;&gt;Node9</title>
<path fill="none" stroke="midnightblue" d="M281.48,-168.32C290.2,-160.34 303.34,-148.31 313.9,-138.65"/>
<polygon fill="midnightblue" stroke="midnightblue" points="316.33,-141.17 321.35,-131.83 311.61,-136 316.33,-141.17"/>
</g>
<!-- Node10 -->
<g id="node10" class="node">
<title>Node10</title>
<g id="a_node10"><a xlink:title=" ">
<polygon fill="white" stroke="#bfbfbf" points="105.5,-0.5 105.5,-19.5 146.5,-19.5 146.5,-0.5 105.5,-0.5"/>
<text text-anchor="middle" x="126" y="-7.5" font-family="Helvetica,sans-Serif" font-size="10.00">string</text>
</a>
</g>
</g>
<!-- Node5&#45;&gt;Node10 -->
<g id="edge9" class="edge">
<title>Node5&#45;&gt;Node10</title>
<path fill="none" stroke="midnightblue" d="M239.19,-172.08C198.46,-165.21 132.54,-151.39 118,-132 95.46,-101.93 108.24,-54.97 118.05,-29.29"/>
<polygon fill="midnightblue" stroke="midnightblue" points="121.42,-30.28 121.96,-19.7 114.94,-27.64 121.42,-30.28"/>
</g>
<!-- Node11 -->
<g id="node11" class="node">
<title>Node11</title>
<g id="a_node11"><a xlink:title=" ">
<polygon fill="white" stroke="#bfbfbf" points="291,-56.5 291,-75.5 335,-75.5 335,-56.5 291,-56.5"/>
<text text-anchor="middle" x="313" y="-63.5" font-family="Helvetica,sans-Serif" font-size="10.00">vector</text>
</a>
</g>
</g>
<!-- Node5&#45;&gt;Node11 -->
<g id="edge10" class="edge">
<title>Node5&#45;&gt;Node11</title>
<path fill="none" stroke="midnightblue" d="M264.25,-168.29C253.9,-155.52 237.95,-131.18 248,-112 255.28,-98.11 269.01,-87.65 281.98,-80.33"/>
<polygon fill="midnightblue" stroke="midnightblue" points="283.93,-83.27 291.19,-75.55 280.7,-77.05 283.93,-83.27"/>
</g>
<!-- Node12 -->
<g id="node12" class="node">
<title>Node12</title>
<g id="a_node12"><a xlink:href="_e57_format_8h.html" target="_top" xlink:title="header file for the E57 API">
<polygon fill="white" stroke="black" points="127,-112.5 127,-131.5 201,-131.5 201,-112.5 127,-112.5"/>
<text text-anchor="middle" x="164" y="-119.5" font-family="Helvetica,sans-Serif" font-size="10.00">E57Format.h</text>
</a>
</g>
</g>
<!-- Node5&#45;&gt;Node12 -->
<g id="edge11" class="edge">
<title>Node5&#45;&gt;Node12</title>
<path fill="none" stroke="midnightblue" d="M254.65,-168.32C237.33,-159.66 210.48,-146.24 190.5,-136.25"/>
<polygon fill="midnightblue" stroke="midnightblue" points="191.82,-133 181.31,-131.65 188.69,-139.26 191.82,-133"/>
</g>
<!-- Node12&#45;&gt;Node11 -->
<g id="edge14" class="edge">
<title>Node12&#45;&gt;Node11</title>
<path fill="none" stroke="midnightblue" d="M187.61,-112.44C212.9,-103.28 253.17,-88.68 281.22,-78.52"/>
<polygon fill="midnightblue" stroke="midnightblue" points="282.75,-81.69 290.96,-74.99 280.36,-75.11 282.75,-81.69"/>
</g>
<!-- Node13 -->
<g id="node13" class="node">
<title>Node13</title>
<g id="a_node13"><a xlink:title=" ">
<polygon fill="white" stroke="#bfbfbf" points="127,-56.5 127,-75.5 167,-75.5 167,-56.5 127,-56.5"/>
<text text-anchor="middle" x="147" y="-63.5" font-family="Helvetica,sans-Serif" font-size="10.00">cfloat</text>
</a>
</g>
</g>
<!-- Node12&#45;&gt;Node13 -->
<g id="edge12" class="edge">
<title>Node12&#45;&gt;Node13</title>
<path fill="none" stroke="midnightblue" d="M161.19,-112.08C158.92,-104.85 155.63,-94.41 152.79,-85.4"/>
<polygon fill="midnightblue" stroke="midnightblue" points="156.1,-84.24 149.75,-75.75 149.42,-86.34 156.1,-84.24"/>
</g>
<!-- Node14 -->
<g id="node14" class="node">
<title>Node14</title>
<g id="a_node14"><a xlink:title=" ">
<polygon fill="white" stroke="#bfbfbf" points="17.5,-56.5 17.5,-75.5 70.5,-75.5 70.5,-56.5 17.5,-56.5"/>
<text text-anchor="middle" x="44" y="-63.5" font-family="Helvetica,sans-Serif" font-size="10.00">memory</text>
</a>
</g>
</g>
<!-- Node12&#45;&gt;Node14 -->
<g id="edge13" class="edge">
<title>Node12&#45;&gt;Node14</title>
<path fill="none" stroke="midnightblue" d="M144.99,-112.44C125.41,-103.64 94.69,-89.81 72.27,-79.72"/>
<polygon fill="midnightblue" stroke="midnightblue" points="73.48,-76.43 62.93,-75.52 70.61,-82.81 73.48,-76.43"/>
</g>
<!-- Node15 -->
<g id="node15" class="node">
<title>Node15</title>
<g id="a_node15"><a xlink:href="_e57_exception_8h.html" target="_top" xlink:title=" ">
<polygon fill="white" stroke="black" points="185.5,-56.5 185.5,-75.5 272.5,-75.5 272.5,-56.5 185.5,-56.5"/>
<text text-anchor="middle" x="229" y="-63.5" font-family="Helvetica,sans-Serif" font-size="10.00">E57Exception.h</text>
</a>
</g>
</g>
<!-- Node12&#45;&gt;Node15 -->
<g id="edge15" class="edge">
<title>Node12&#45;&gt;Node15</title>
<path fill="none" stroke="midnightblue" d="M174.44,-112.32C184.15,-104.26 198.82,-92.08 210.5,-82.37"/>
<polygon fill="midnightblue" stroke="midnightblue" points="212.91,-84.92 218.37,-75.83 208.44,-79.53 212.91,-84.92"/>
</g>
<!-- Node15&#45;&gt;Node7 -->
<g id="edge17" class="edge">
<title>Node15&#45;&gt;Node7</title>
<path fill="none" stroke="midnightblue" d="M258.31,-56.44C290.31,-47.11 341.61,-32.13 376.51,-21.94"/>
<polygon fill="midnightblue" stroke="midnightblue" points="377.72,-25.24 386.33,-19.08 375.75,-18.52 377.72,-25.24"/>
</g>
<!-- Node15&#45;&gt;Node10 -->
<g id="edge18" class="edge">
<title>Node15&#45;&gt;Node10</title>
<path fill="none" stroke="midnightblue" d="M212.45,-56.32C196.01,-47.7 170.57,-34.36 151.53,-24.39"/>
<polygon fill="midnightblue" stroke="midnightblue" points="152.99,-21.2 142.51,-19.65 149.74,-27.4 152.99,-21.2"/>
</g>
<!-- Node16 -->
<g id="node16" class="node">
<title>Node16</title>
<g id="a_node16"><a xlink:title=" ">
<polygon fill="white" stroke="#bfbfbf" points="269.5,-0.5 269.5,-19.5 328.5,-19.5 328.5,-0.5 269.5,-0.5"/>
<text text-anchor="middle" x="299" y="-7.5" font-family="Helvetica,sans-Serif" font-size="10.00">exception</text>
</a>
</g>
</g>
<!-- Node15&#45;&gt;Node16 -->
<g id="edge16" class="edge">
<title>Node15&#45;&gt;Node16</title>
<path fill="none" stroke="midnightblue" d="M240.25,-56.32C250.8,-48.18 266.8,-35.84 279.44,-26.09"/>
<polygon fill="midnightblue" stroke="midnightblue" points="281.77,-28.71 287.55,-19.83 277.49,-23.17 281.77,-28.71"/>
</g>
<!-- Node17 -->
<g id="node17" class="node">
<title>Node17</title>
<g id="a_node17"><a xlink:title=" ">
<polygon fill="white" stroke="#bfbfbf" points="179,-0.5 179,-19.5 251,-19.5 251,-0.5 179,-0.5"/>
<text text-anchor="middle" x="215" y="-7.5" font-family="Helvetica,sans-Serif" font-size="10.00">E57Export.h</text>
</a>
</g>
</g>
<!-- Node15&#45;&gt;Node17 -->
<g id="edge19" class="edge">
<title>Node15&#45;&gt;Node17</title>
<path fill="none" stroke="midnightblue" d="M226.69,-56.08C224.83,-48.93 222.16,-38.64 219.85,-29.69"/>
<polygon fill="midnightblue" stroke="midnightblue" points="223.17,-28.55 217.27,-19.75 216.39,-30.31 223.17,-28.55"/>
</g>
<!-- Node18&#45;&gt;Node5 -->
<g id="edge22" class="edge">
<title>Node18&#45;&gt;Node5</title>
<path fill="none" stroke="midnightblue" d="M359.12,-336.4C385.67,-325.76 422.05,-305.84 409,-280 386.99,-236.43 336.34,-207.03 303.18,-191.66"/>
<polygon fill="midnightblue" stroke="midnightblue" points="304.47,-188.41 293.91,-187.52 301.61,-194.8 304.47,-188.41"/>
</g>
<!-- Node19 -->
<g id="node19" class="node">
<title>Node19</title>
<g id="a_node19"><a xlink:title=" ">
<polygon fill="white" stroke="#bfbfbf" points="342,-280.5 342,-299.5 400,-299.5 400,-280.5 342,-280.5"/>
<text text-anchor="middle" x="371" y="-287.5" font-family="Helvetica,sans-Serif" font-size="10.00">algorithm</text>
</a>
</g>
</g>
<!-- Node18&#45;&gt;Node19 -->
<g id="edge21" class="edge">
<title>Node18&#45;&gt;Node19</title>
<path fill="none" stroke="midnightblue" d="M340.11,-336.08C345.28,-328.53 352.85,-317.49 359.19,-308.23"/>
<polygon fill="midnightblue" stroke="midnightblue" points="362.24,-309.98 365,-299.75 356.46,-306.02 362.24,-309.98"/>
</g>
<!-- Node21 -->
<g id="node21" class="node">
<title>Node21</title>
<g id="a_node21"><a xlink:href="_node_impl_8h.html" target="_top" xlink:title=" ">
<polygon fill="white" stroke="black" points="78,-280.5 78,-299.5 146,-299.5 146,-280.5 78,-280.5"/>
<text text-anchor="middle" x="112" y="-287.5" font-family="Helvetica,sans-Serif" font-size="10.00">NodeImpl.h</text>
</a>
</g>
</g>
<!-- Node20&#45;&gt;Node21 -->
<g id="edge24" class="edge">
<title>Node20&#45;&gt;Node21</title>
<path fill="none" stroke="midnightblue" d="M112,-336.08C112,-329.01 112,-318.86 112,-309.99"/>
<polygon fill="midnightblue" stroke="midnightblue" points="115.5,-309.75 112,-299.75 108.5,-309.75 115.5,-309.75"/>
</g>
<!-- Node21&#45;&gt;Node5 -->
<g id="edge25" class="edge">
<title>Node21&#45;&gt;Node5</title>
<path fill="none" stroke="midnightblue" d="M113.16,-280.11C115.43,-266.22 121.75,-239.36 138,-224 162.89,-200.48 200.46,-189.23 229.49,-183.86"/>
<polygon fill="midnightblue" stroke="midnightblue" points="230.09,-187.31 239.37,-182.2 228.93,-180.41 230.09,-187.31"/>
</g>
<!-- Node22&#45;&gt;Node5 -->
<g id="edge28" class="edge">
<title>Node22&#45;&gt;Node5</title>
<path fill="none" stroke="midnightblue" d="M80.13,-224.44C120.7,-214.83 186.47,-199.26 229.49,-189.07"/>
<polygon fill="midnightblue" stroke="midnightblue" points="230.44,-192.44 239.37,-186.73 228.83,-185.63 230.44,-192.44"/>
</g>
<!-- Node22&#45;&gt;Node14 -->
<g id="edge27" class="edge">
<title>Node22&#45;&gt;Node14</title>
<path fill="none" stroke="midnightblue" d="M44,-224.08C44,-197.95 44,-121.21 44,-85.58"/>
<polygon fill="midnightblue" stroke="midnightblue" points="47.5,-85.57 44,-75.57 40.5,-85.57 47.5,-85.57"/>
</g>
<!-- Node23&#45;&gt;Node5 -->
<g id="edge32" class="edge">
<title>Node23&#45;&gt;Node5</title>
<path fill="none" stroke="midnightblue" d="M536.16,-226.03C533.08,-225.31 529.98,-224.62 527,-224 452.7,-208.42 365.47,-193.82 314.69,-185.68"/>
<polygon fill="midnightblue" stroke="midnightblue" points="315.16,-182.21 304.73,-184.09 314.06,-189.12 315.16,-182.21"/>
</g>
<!-- Node23&#45;&gt;Node11 -->
<g id="edge31" class="edge">
<title>Node23&#45;&gt;Node11</title>
<path fill="none" stroke="midnightblue" d="M557.13,-224.43C539.32,-202.73 489.31,-144.98 436,-112 407.32,-94.26 370.59,-81.97 344.76,-74.77"/>
<polygon fill="midnightblue" stroke="midnightblue" points="345.66,-71.39 335.09,-72.17 343.84,-78.15 345.66,-71.39"/>
</g>
<!-- Node24 -->
<g id="node24" class="node">
<title>Node24</title>
<g id="a_node24"><a xlink:title=" ">
<polygon fill="white" stroke="#bfbfbf" points="541.5,-168.5 541.5,-187.5 586.5,-187.5 586.5,-168.5 541.5,-168.5"/>
<text text-anchor="middle" x="564" y="-175.5" font-family="Helvetica,sans-Serif" font-size="10.00">cstdint</text>
</a>
</g>
</g>
<!-- Node23&#45;&gt;Node24 -->
<g id="edge30" class="edge">
<title>Node23&#45;&gt;Node24</title>
<path fill="none" stroke="midnightblue" d="M564,-224.08C564,-217.01 564,-206.86 564,-197.99"/>
<polygon fill="midnightblue" stroke="midnightblue" points="567.5,-197.75 564,-187.75 560.5,-197.75 567.5,-197.75"/>
</g>
<!-- Node25&#45;&gt;Node5 -->
<g id="edge34" class="edge">
<title>Node25&#45;&gt;Node5</title>
<path fill="none" stroke="midnightblue" d="M207.37,-224.32C219.16,-216.06 237.13,-203.45 251.14,-193.63"/>
<polygon fill="midnightblue" stroke="midnightblue" points="253.48,-196.26 259.66,-187.65 249.46,-190.53 253.48,-196.26"/>
</g>
<!-- Node26&#45;&gt;Node5 -->
<g id="edge36" class="edge">
<title>Node26&#45;&gt;Node5</title>
<path fill="none" stroke="midnightblue" d="M263.71,-280.37C265.16,-262.62 268.51,-221.67 270.48,-197.6"/>
<polygon fill="midnightblue" stroke="midnightblue" points="273.97,-197.84 271.3,-187.59 266.99,-197.27 273.97,-197.84"/>
</g>
</g>
</svg>
