<?xml version="1.0" encoding="UTF-8" standalone="no"?>
<!DOCTYPE svg PUBLIC "-//W3C//DTD SVG 1.1//EN"
 "http://www.w3.org/Graphics/SVG/1.1/DTD/svg11.dtd">
<!-- Generated by graphviz version 2.48.0 (20210717.1556)
 -->
<!-- Title: DecodeChannel.cpp Pages: 1 -->
<svg width="434pt" height="364pt"
 viewBox="0.00 0.00 433.50 364.00" xmlns="http://www.w3.org/2000/svg" xmlns:xlink="http://www.w3.org/1999/xlink">
<g id="graph0" class="graph" transform="scale(1 1) rotate(0) translate(4 360)">
<title>DecodeChannel.cpp</title>
<polygon fill="white" stroke="transparent" points="-4,4 -4,-360 429.5,-360 429.5,4 -4,4"/>
<!-- Node1 -->
<g id="node1" class="node">
<title>Node1</title>
<g id="a_node1"><a xlink:title=" ">
<polygon fill="#bfbfbf" stroke="black" points="107.5,-336.5 107.5,-355.5 214.5,-355.5 214.5,-336.5 107.5,-336.5"/>
<text text-anchor="middle" x="161" y="-343.5" font-family="Helvetica,sans-Serif" font-size="10.00">DecodeChannel.cpp</text>
</a>
</g>
</g>
<!-- Node2 -->
<g id="node2" class="node">
<title>Node2</title>
<g id="a_node2"><a xlink:href="_decode_channel_8h.html" target="_top" xlink:title=" ">
<polygon fill="white" stroke="black" points="74.5,-280.5 74.5,-299.5 171.5,-299.5 171.5,-280.5 74.5,-280.5"/>
<text text-anchor="middle" x="123" y="-287.5" font-family="Helvetica,sans-Serif" font-size="10.00">DecodeChannel.h</text>
</a>
</g>
</g>
<!-- Node1&#45;&gt;Node2 -->
<g id="edge1" class="edge">
<title>Node1&#45;&gt;Node2</title>
<path fill="none" stroke="midnightblue" d="M154.73,-336.08C149.36,-328.46 141.48,-317.26 134.92,-307.94"/>
<polygon fill="midnightblue" stroke="midnightblue" points="137.78,-305.91 129.16,-299.75 132.05,-309.94 137.78,-305.91"/>
</g>
<!-- Node17 -->
<g id="node17" class="node">
<title>Node17</title>
<g id="a_node17"><a xlink:href="_source_dest_buffer_impl_8h.html" target="_top" xlink:title=" ">
<polygon fill="white" stroke="black" points="156,-224.5 156,-243.5 278,-243.5 278,-224.5 156,-224.5"/>
<text text-anchor="middle" x="217" y="-231.5" font-family="Helvetica,sans-Serif" font-size="10.00">SourceDestBufferImpl.h</text>
</a>
</g>
</g>
<!-- Node1&#45;&gt;Node17 -->
<g id="edge19" class="edge">
<title>Node1&#45;&gt;Node17</title>
<path fill="none" stroke="midnightblue" d="M165.39,-336.37C174.55,-318.38 195.85,-276.55 208.03,-252.63"/>
<polygon fill="midnightblue" stroke="midnightblue" points="211.21,-254.09 212.63,-243.59 204.97,-250.92 211.21,-254.09"/>
</g>
<!-- Node3 -->
<g id="node3" class="node">
<title>Node3</title>
<g id="a_node3"><a xlink:href="_decoder_8h.html" target="_top" xlink:title=" ">
<polygon fill="white" stroke="black" points="76,-224.5 76,-243.5 138,-243.5 138,-224.5 76,-224.5"/>
<text text-anchor="middle" x="107" y="-231.5" font-family="Helvetica,sans-Serif" font-size="10.00">Decoder.h</text>
</a>
</g>
</g>
<!-- Node2&#45;&gt;Node3 -->
<g id="edge2" class="edge">
<title>Node2&#45;&gt;Node3</title>
<path fill="none" stroke="midnightblue" d="M120.36,-280.08C118.21,-272.85 115.12,-262.41 112.45,-253.4"/>
<polygon fill="midnightblue" stroke="midnightblue" points="115.79,-252.34 109.59,-243.75 109.08,-254.33 115.79,-252.34"/>
</g>
<!-- Node4 -->
<g id="node4" class="node">
<title>Node4</title>
<g id="a_node4"><a xlink:href="_common_8h.html" target="_top" xlink:title=" ">
<polygon fill="white" stroke="black" points="129.5,-168.5 129.5,-187.5 194.5,-187.5 194.5,-168.5 129.5,-168.5"/>
<text text-anchor="middle" x="162" y="-175.5" font-family="Helvetica,sans-Serif" font-size="10.00">Common.h</text>
</a>
</g>
</g>
<!-- Node3&#45;&gt;Node4 -->
<g id="edge3" class="edge">
<title>Node3&#45;&gt;Node4</title>
<path fill="none" stroke="midnightblue" d="M116.08,-224.08C124.17,-216.14 136.2,-204.34 145.91,-194.8"/>
<polygon fill="midnightblue" stroke="midnightblue" points="148.4,-197.25 153.09,-187.75 143.5,-192.26 148.4,-197.25"/>
</g>
<!-- Node5 -->
<g id="node5" class="node">
<title>Node5</title>
<g id="a_node5"><a xlink:title=" ">
<polygon fill="white" stroke="#bfbfbf" points="0,-112.5 0,-131.5 52,-131.5 52,-112.5 0,-112.5"/>
<text text-anchor="middle" x="26" y="-119.5" font-family="Helvetica,sans-Serif" font-size="10.00">iomanip</text>
</a>
</g>
</g>
<!-- Node4&#45;&gt;Node5 -->
<g id="edge4" class="edge">
<title>Node4&#45;&gt;Node5</title>
<path fill="none" stroke="midnightblue" d="M140.45,-168.44C117.97,-159.52 82.51,-145.44 57.02,-135.32"/>
<polygon fill="midnightblue" stroke="midnightblue" points="58.03,-131.95 47.45,-131.52 55.45,-138.46 58.03,-131.95"/>
</g>
<!-- Node6 -->
<g id="node6" class="node">
<title>Node6</title>
<g id="a_node6"><a xlink:title=" ">
<polygon fill="white" stroke="#bfbfbf" points="71.5,-0.5 71.5,-19.5 126.5,-19.5 126.5,-0.5 71.5,-0.5"/>
<text text-anchor="middle" x="99" y="-7.5" font-family="Helvetica,sans-Serif" font-size="10.00">iostream</text>
</a>
</g>
</g>
<!-- Node4&#45;&gt;Node6 -->
<g id="edge5" class="edge">
<title>Node4&#45;&gt;Node6</title>
<path fill="none" stroke="midnightblue" d="M154.88,-168.2C148.13,-159.48 138.15,-145.5 132,-132 116.27,-97.44 106.66,-53.82 102.13,-29.52"/>
<polygon fill="midnightblue" stroke="midnightblue" points="105.55,-28.77 100.35,-19.54 98.66,-29.99 105.55,-28.77"/>
</g>
<!-- Node7 -->
<g id="node7" class="node">
<title>Node7</title>
<g id="a_node7"><a xlink:title=" ">
<polygon fill="white" stroke="#bfbfbf" points="282,-112.5 282,-131.5 312,-131.5 312,-112.5 282,-112.5"/>
<text text-anchor="middle" x="297" y="-119.5" font-family="Helvetica,sans-Serif" font-size="10.00">set</text>
</a>
</g>
</g>
<!-- Node4&#45;&gt;Node7 -->
<g id="edge6" class="edge">
<title>Node4&#45;&gt;Node7</title>
<path fill="none" stroke="midnightblue" d="M183.39,-168.44C207.68,-158.73 247.21,-142.91 272.66,-132.74"/>
<polygon fill="midnightblue" stroke="midnightblue" points="273.99,-135.97 281.98,-129.01 271.39,-129.47 273.99,-135.97"/>
</g>
<!-- Node8 -->
<g id="node8" class="node">
<title>Node8</title>
<g id="a_node8"><a xlink:title=" ">
<polygon fill="white" stroke="#bfbfbf" points="330,-112.5 330,-131.5 382,-131.5 382,-112.5 330,-112.5"/>
<text text-anchor="middle" x="356" y="-119.5" font-family="Helvetica,sans-Serif" font-size="10.00">sstream</text>
</a>
</g>
</g>
<!-- Node4&#45;&gt;Node8 -->
<g id="edge7" class="edge">
<title>Node4&#45;&gt;Node8</title>
<path fill="none" stroke="midnightblue" d="M192.74,-168.44C227.31,-158.82 283.39,-143.21 319.99,-133.02"/>
<polygon fill="midnightblue" stroke="midnightblue" points="321.06,-136.36 329.76,-130.3 319.19,-129.61 321.06,-136.36"/>
</g>
<!-- Node9 -->
<g id="node9" class="node">
<title>Node9</title>
<g id="a_node9"><a xlink:title=" ">
<polygon fill="white" stroke="#bfbfbf" points="153.5,-0.5 153.5,-19.5 194.5,-19.5 194.5,-0.5 153.5,-0.5"/>
<text text-anchor="middle" x="174" y="-7.5" font-family="Helvetica,sans-Serif" font-size="10.00">string</text>
</a>
</g>
</g>
<!-- Node4&#45;&gt;Node9 -->
<g id="edge8" class="edge">
<title>Node4&#45;&gt;Node9</title>
<path fill="none" stroke="midnightblue" d="M157.02,-168.27C146.16,-148.03 122.46,-96.59 137,-56 140.94,-45 148.86,-34.77 156.36,-26.85"/>
<polygon fill="midnightblue" stroke="midnightblue" points="158.89,-29.27 163.56,-19.76 153.98,-24.28 158.89,-29.27"/>
</g>
<!-- Node10 -->
<g id="node10" class="node">
<title>Node10</title>
<g id="a_node10"><a xlink:title=" ">
<polygon fill="white" stroke="#bfbfbf" points="146,-56.5 146,-75.5 190,-75.5 190,-56.5 146,-56.5"/>
<text text-anchor="middle" x="168" y="-63.5" font-family="Helvetica,sans-Serif" font-size="10.00">vector</text>
</a>
</g>
</g>
<!-- Node4&#45;&gt;Node10 -->
<g id="edge9" class="edge">
<title>Node4&#45;&gt;Node10</title>
<path fill="none" stroke="midnightblue" d="M162.47,-168.37C163.44,-150.62 165.67,-109.67 166.99,-85.6"/>
<polygon fill="midnightblue" stroke="midnightblue" points="170.48,-85.77 167.53,-75.59 163.49,-85.39 170.48,-85.77"/>
</g>
<!-- Node11 -->
<g id="node11" class="node">
<title>Node11</title>
<g id="a_node11"><a xlink:href="_e57_format_8h.html" target="_top" xlink:title="header file for the E57 API">
<polygon fill="white" stroke="black" points="190,-112.5 190,-131.5 264,-131.5 264,-112.5 190,-112.5"/>
<text text-anchor="middle" x="227" y="-119.5" font-family="Helvetica,sans-Serif" font-size="10.00">E57Format.h</text>
</a>
</g>
</g>
<!-- Node4&#45;&gt;Node11 -->
<g id="edge10" class="edge">
<title>Node4&#45;&gt;Node11</title>
<path fill="none" stroke="midnightblue" d="M172.44,-168.32C182.15,-160.26 196.82,-148.08 208.5,-138.37"/>
<polygon fill="midnightblue" stroke="midnightblue" points="210.91,-140.92 216.37,-131.83 206.44,-135.53 210.91,-140.92"/>
</g>
<!-- Node11&#45;&gt;Node10 -->
<g id="edge13" class="edge">
<title>Node11&#45;&gt;Node10</title>
<path fill="none" stroke="midnightblue" d="M217.52,-112.32C208.8,-104.34 195.66,-92.31 185.1,-82.65"/>
<polygon fill="midnightblue" stroke="midnightblue" points="187.39,-80 177.65,-75.83 182.67,-85.17 187.39,-80"/>
</g>
<!-- Node12 -->
<g id="node12" class="node">
<title>Node12</title>
<g id="a_node12"><a xlink:title=" ">
<polygon fill="white" stroke="#bfbfbf" points="314,-56.5 314,-75.5 354,-75.5 354,-56.5 314,-56.5"/>
<text text-anchor="middle" x="334" y="-63.5" font-family="Helvetica,sans-Serif" font-size="10.00">cfloat</text>
</a>
</g>
</g>
<!-- Node11&#45;&gt;Node12 -->
<g id="edge11" class="edge">
<title>Node11&#45;&gt;Node12</title>
<path fill="none" stroke="midnightblue" d="M244.19,-112.32C261.35,-103.66 287.95,-90.24 307.75,-80.25"/>
<polygon fill="midnightblue" stroke="midnightblue" points="309.5,-83.28 316.85,-75.65 306.35,-77.04 309.5,-83.28"/>
</g>
<!-- Node13 -->
<g id="node13" class="node">
<title>Node13</title>
<g id="a_node13"><a xlink:title=" ">
<polygon fill="white" stroke="#bfbfbf" points="372.5,-56.5 372.5,-75.5 425.5,-75.5 425.5,-56.5 372.5,-56.5"/>
<text text-anchor="middle" x="399" y="-63.5" font-family="Helvetica,sans-Serif" font-size="10.00">memory</text>
</a>
</g>
</g>
<!-- Node11&#45;&gt;Node13 -->
<g id="edge12" class="edge">
<title>Node11&#45;&gt;Node13</title>
<path fill="none" stroke="midnightblue" d="M254.25,-112.44C283.61,-103.23 330.47,-88.52 362.88,-78.34"/>
<polygon fill="midnightblue" stroke="midnightblue" points="363.95,-81.67 372.44,-75.34 361.85,-75 363.95,-81.67"/>
</g>
<!-- Node14 -->
<g id="node14" class="node">
<title>Node14</title>
<g id="a_node14"><a xlink:href="_e57_exception_8h.html" target="_top" xlink:title=" ">
<polygon fill="white" stroke="black" points="208.5,-56.5 208.5,-75.5 295.5,-75.5 295.5,-56.5 208.5,-56.5"/>
<text text-anchor="middle" x="252" y="-63.5" font-family="Helvetica,sans-Serif" font-size="10.00">E57Exception.h</text>
</a>
</g>
</g>
<!-- Node11&#45;&gt;Node14 -->
<g id="edge14" class="edge">
<title>Node11&#45;&gt;Node14</title>
<path fill="none" stroke="midnightblue" d="M231.13,-112.08C234.51,-104.77 239.42,-94.18 243.62,-85.1"/>
<polygon fill="midnightblue" stroke="midnightblue" points="246.92,-86.3 247.95,-75.75 240.57,-83.36 246.92,-86.3"/>
</g>
<!-- Node14&#45;&gt;Node6 -->
<g id="edge16" class="edge">
<title>Node14&#45;&gt;Node6</title>
<path fill="none" stroke="midnightblue" d="M227.76,-56.44C202.13,-47.4 161.51,-33.06 132.76,-22.92"/>
<polygon fill="midnightblue" stroke="midnightblue" points="133.72,-19.54 123.13,-19.52 131.39,-26.15 133.72,-19.54"/>
</g>
<!-- Node14&#45;&gt;Node9 -->
<g id="edge17" class="edge">
<title>Node14&#45;&gt;Node9</title>
<path fill="none" stroke="midnightblue" d="M239.47,-56.32C227.41,-47.98 208.97,-35.21 194.73,-25.35"/>
<polygon fill="midnightblue" stroke="midnightblue" points="196.72,-22.47 186.5,-19.65 192.73,-28.22 196.72,-22.47"/>
</g>
<!-- Node15 -->
<g id="node15" class="node">
<title>Node15</title>
<g id="a_node15"><a xlink:title=" ">
<polygon fill="white" stroke="#bfbfbf" points="217.5,-0.5 217.5,-19.5 276.5,-19.5 276.5,-0.5 217.5,-0.5"/>
<text text-anchor="middle" x="247" y="-7.5" font-family="Helvetica,sans-Serif" font-size="10.00">exception</text>
</a>
</g>
</g>
<!-- Node14&#45;&gt;Node15 -->
<g id="edge15" class="edge">
<title>Node14&#45;&gt;Node15</title>
<path fill="none" stroke="midnightblue" d="M251.17,-56.08C250.52,-49.01 249.58,-38.86 248.76,-29.99"/>
<polygon fill="midnightblue" stroke="midnightblue" points="252.22,-29.39 247.81,-19.75 245.25,-30.03 252.22,-29.39"/>
</g>
<!-- Node16 -->
<g id="node16" class="node">
<title>Node16</title>
<g id="a_node16"><a xlink:title=" ">
<polygon fill="white" stroke="#bfbfbf" points="295,-0.5 295,-19.5 367,-19.5 367,-0.5 295,-0.5"/>
<text text-anchor="middle" x="331" y="-7.5" font-family="Helvetica,sans-Serif" font-size="10.00">E57Export.h</text>
</a>
</g>
</g>
<!-- Node14&#45;&gt;Node16 -->
<g id="edge18" class="edge">
<title>Node14&#45;&gt;Node16</title>
<path fill="none" stroke="midnightblue" d="M264.69,-56.32C276.9,-47.98 295.58,-35.21 310,-25.35"/>
<polygon fill="midnightblue" stroke="midnightblue" points="312.06,-28.19 318.34,-19.65 308.11,-22.41 312.06,-28.19"/>
</g>
<!-- Node17&#45;&gt;Node4 -->
<g id="edge20" class="edge">
<title>Node17&#45;&gt;Node4</title>
<path fill="none" stroke="midnightblue" d="M207.92,-224.08C199.83,-216.14 187.8,-204.34 178.09,-194.8"/>
<polygon fill="midnightblue" stroke="midnightblue" points="180.5,-192.26 170.91,-187.75 175.6,-197.25 180.5,-192.26"/>
</g>
</g>
</svg>
