<?xml version="1.0" encoding="UTF-8" standalone="no"?>
<!DOCTYPE svg PUBLIC "-//W3C//DTD SVG 1.1//EN"
 "http://www.w3.org/Graphics/SVG/1.1/DTD/svg11.dtd">
<!-- Generated by graphviz version 2.44.0 (20200408.0750)
 -->
<!-- Title: Decoder.cpp Pages: 1 -->
<svg width="490pt" height="420pt"
 viewBox="0.00 0.00 490.00 420.00" xmlns="http://www.w3.org/2000/svg" xmlns:xlink="http://www.w3.org/1999/xlink">
<g id="graph0" class="graph" transform="scale(1 1) rotate(0) translate(4 416)">
<title>Decoder.cpp</title>
<polygon fill="white" stroke="transparent" points="-4,4 -4,-416 486,-416 486,4 -4,4"/>
<!-- Node1 -->
<g id="node1" class="node">
<title>Node1</title>
<g id="a_node1"><a xlink:title=" ">
<polygon fill="#bfbfbf" stroke="black" points="185.5,-392.5 185.5,-411.5 256.5,-411.5 256.5,-392.5 185.5,-392.5"/>
<text text-anchor="middle" x="221" y="-399.5" font-family="Helvetica,sans-Serif" font-size="10.00">Decoder.cpp</text>
</a>
</g>
</g>
<!-- Node2 -->
<g id="node2" class="node">
<title>Node2</title>
<g id="a_node2"><a xlink:title=" ">
<polygon fill="white" stroke="#bfbfbf" points="0,-336.5 0,-355.5 56,-355.5 56,-336.5 0,-336.5"/>
<text text-anchor="middle" x="28" y="-343.5" font-family="Helvetica,sans-Serif" font-size="10.00">algorithm</text>
</a>
</g>
</g>
<!-- Node1&#45;&gt;Node2 -->
<g id="edge1" class="edge">
<title>Node1&#45;&gt;Node2</title>
<path fill="none" stroke="midnightblue" d="M190.42,-392.44C156.71,-383.01 102.43,-367.83 66.01,-357.63"/>
<polygon fill="midnightblue" stroke="midnightblue" points="66.81,-354.23 56.24,-354.9 64.93,-360.97 66.81,-354.23"/>
</g>
<!-- Node3 -->
<g id="node3" class="node">
<title>Node3</title>
<g id="a_node3"><a xlink:title=" ">
<polygon fill="white" stroke="#bfbfbf" points="74,-336.5 74,-355.5 120,-355.5 120,-336.5 74,-336.5"/>
<text text-anchor="middle" x="97" y="-343.5" font-family="Helvetica,sans-Serif" font-size="10.00">cstring</text>
</a>
</g>
</g>
<!-- Node1&#45;&gt;Node3 -->
<g id="edge2" class="edge">
<title>Node1&#45;&gt;Node3</title>
<path fill="none" stroke="midnightblue" d="M201.35,-392.44C181.04,-383.6 149.1,-369.69 125.9,-359.59"/>
<polygon fill="midnightblue" stroke="midnightblue" points="127.12,-356.3 116.56,-355.52 124.33,-362.72 127.12,-356.3"/>
</g>
<!-- Node4 -->
<g id="node4" class="node">
<title>Node4</title>
<g id="a_node4"><a xlink:href="_decoder_8h.html" target="_top" xlink:title=" ">
<polygon fill="white" stroke="black" points="227.5,-280.5 227.5,-299.5 288.5,-299.5 288.5,-280.5 227.5,-280.5"/>
<text text-anchor="middle" x="258" y="-287.5" font-family="Helvetica,sans-Serif" font-size="10.00">Decoder.h</text>
</a>
</g>
</g>
<!-- Node1&#45;&gt;Node4 -->
<g id="edge3" class="edge">
<title>Node1&#45;&gt;Node4</title>
<path fill="none" stroke="midnightblue" d="M224.7,-392.47C228.52,-383.48 234.55,-368.88 239,-356 244.34,-340.55 249.48,-322.7 253.07,-309.62"/>
<polygon fill="midnightblue" stroke="midnightblue" points="256.46,-310.48 255.69,-299.92 249.7,-308.66 256.46,-310.48"/>
</g>
<!-- Node18 -->
<g id="node18" class="node">
<title>Node18</title>
<g id="a_node18"><a xlink:href="_e57_format_impl_8h.html" target="_top" xlink:title=" ">
<polygon fill="white" stroke="black" points="138,-336.5 138,-355.5 230,-355.5 230,-336.5 138,-336.5"/>
<text text-anchor="middle" x="184" y="-343.5" font-family="Helvetica,sans-Serif" font-size="10.00">E57FormatImpl.h</text>
</a>
</g>
</g>
<!-- Node1&#45;&gt;Node18 -->
<g id="edge20" class="edge">
<title>Node1&#45;&gt;Node18</title>
<path fill="none" stroke="midnightblue" d="M214.89,-392.08C209.72,-384.53 202.15,-373.49 195.81,-364.23"/>
<polygon fill="midnightblue" stroke="midnightblue" points="198.54,-362.02 190,-355.75 192.76,-365.98 198.54,-362.02"/>
</g>
<!-- Node23 -->
<g id="node23" class="node">
<title>Node23</title>
<g id="a_node23"><a xlink:href="_image_file_impl_8h.html" target="_top" xlink:title=" ">
<polygon fill="white" stroke="black" points="396,-224.5 396,-243.5 482,-243.5 482,-224.5 396,-224.5"/>
<text text-anchor="middle" x="439" y="-231.5" font-family="Helvetica,sans-Serif" font-size="10.00">ImageFileImpl.h</text>
</a>
</g>
</g>
<!-- Node1&#45;&gt;Node23 -->
<g id="edge28" class="edge">
<title>Node1&#45;&gt;Node23</title>
<path fill="none" stroke="midnightblue" d="M256.68,-396.1C307.06,-387.06 397.42,-362.58 438,-300 446.82,-286.4 446.06,-267.6 443.69,-253.72"/>
<polygon fill="midnightblue" stroke="midnightblue" points="447.09,-252.89 441.6,-243.83 440.24,-254.34 447.09,-252.89"/>
</g>
<!-- Node24 -->
<g id="node24" class="node">
<title>Node24</title>
<g id="a_node24"><a xlink:href="_source_dest_buffer_impl_8h.html" target="_top" xlink:title=" ">
<polygon fill="white" stroke="black" points="307,-280.5 307,-299.5 429,-299.5 429,-280.5 307,-280.5"/>
<text text-anchor="middle" x="368" y="-287.5" font-family="Helvetica,sans-Serif" font-size="10.00">SourceDestBufferImpl.h</text>
</a>
</g>
</g>
<!-- Node1&#45;&gt;Node24 -->
<g id="edge31" class="edge">
<title>Node1&#45;&gt;Node24</title>
<path fill="none" stroke="midnightblue" d="M232.53,-392.37C257.55,-373.65 317.02,-329.15 348.18,-305.83"/>
<polygon fill="midnightblue" stroke="midnightblue" points="350.61,-308.39 356.52,-299.59 346.42,-302.78 350.61,-308.39"/>
</g>
<!-- Node5 -->
<g id="node5" class="node">
<title>Node5</title>
<g id="a_node5"><a xlink:href="_common_8h.html" target="_top" xlink:title=" ">
<polygon fill="white" stroke="black" points="225.5,-168.5 225.5,-187.5 290.5,-187.5 290.5,-168.5 225.5,-168.5"/>
<text text-anchor="middle" x="258" y="-175.5" font-family="Helvetica,sans-Serif" font-size="10.00">Common.h</text>
</a>
</g>
</g>
<!-- Node4&#45;&gt;Node5 -->
<g id="edge4" class="edge">
<title>Node4&#45;&gt;Node5</title>
<path fill="none" stroke="midnightblue" d="M258,-280.37C258,-262.62 258,-221.67 258,-197.6"/>
<polygon fill="midnightblue" stroke="midnightblue" points="261.5,-197.59 258,-187.59 254.5,-197.59 261.5,-197.59"/>
</g>
<!-- Node6 -->
<g id="node6" class="node">
<title>Node6</title>
<g id="a_node6"><a xlink:title=" ">
<polygon fill="white" stroke="#bfbfbf" points="361,-112.5 361,-131.5 411,-131.5 411,-112.5 361,-112.5"/>
<text text-anchor="middle" x="386" y="-119.5" font-family="Helvetica,sans-Serif" font-size="10.00">iomanip</text>
</a>
</g>
</g>
<!-- Node5&#45;&gt;Node6 -->
<g id="edge5" class="edge">
<title>Node5&#45;&gt;Node6</title>
<path fill="none" stroke="midnightblue" d="M278.28,-168.44C299.35,-159.56 332.52,-145.56 356.49,-135.45"/>
<polygon fill="midnightblue" stroke="midnightblue" points="357.96,-138.63 365.81,-131.52 355.24,-132.18 357.96,-138.63"/>
</g>
<!-- Node7 -->
<g id="node7" class="node">
<title>Node7</title>
<g id="a_node7"><a xlink:title=" ">
<polygon fill="white" stroke="#bfbfbf" points="417,-0.5 417,-19.5 471,-19.5 471,-0.5 417,-0.5"/>
<text text-anchor="middle" x="444" y="-7.5" font-family="Helvetica,sans-Serif" font-size="10.00">iostream</text>
</a>
</g>
</g>
<!-- Node5&#45;&gt;Node7 -->
<g id="edge6" class="edge">
<title>Node5&#45;&gt;Node7</title>
<path fill="none" stroke="midnightblue" d="M290.77,-177.44C327.66,-176.05 386.75,-167.85 420,-132 446.01,-103.96 447.41,-56.16 445.88,-29.82"/>
<polygon fill="midnightblue" stroke="midnightblue" points="449.35,-29.35 445.08,-19.66 442.38,-29.91 449.35,-29.35"/>
</g>
<!-- Node8 -->
<g id="node8" class="node">
<title>Node8</title>
<g id="a_node8"><a xlink:title=" ">
<polygon fill="white" stroke="#bfbfbf" points="243,-112.5 243,-131.5 273,-131.5 273,-112.5 243,-112.5"/>
<text text-anchor="middle" x="258" y="-119.5" font-family="Helvetica,sans-Serif" font-size="10.00">set</text>
</a>
</g>
</g>
<!-- Node5&#45;&gt;Node8 -->
<g id="edge7" class="edge">
<title>Node5&#45;&gt;Node8</title>
<path fill="none" stroke="midnightblue" d="M258,-168.08C258,-161.01 258,-150.86 258,-141.99"/>
<polygon fill="midnightblue" stroke="midnightblue" points="261.5,-141.75 258,-131.75 254.5,-141.75 261.5,-141.75"/>
</g>
<!-- Node9 -->
<g id="node9" class="node">
<title>Node9</title>
<g id="a_node9"><a xlink:title=" ">
<polygon fill="white" stroke="#bfbfbf" points="291,-112.5 291,-131.5 343,-131.5 343,-112.5 291,-112.5"/>
<text text-anchor="middle" x="317" y="-119.5" font-family="Helvetica,sans-Serif" font-size="10.00">sstream</text>
</a>
</g>
</g>
<!-- Node5&#45;&gt;Node9 -->
<g id="edge8" class="edge">
<title>Node5&#45;&gt;Node9</title>
<path fill="none" stroke="midnightblue" d="M267.48,-168.32C276.2,-160.34 289.34,-148.31 299.9,-138.65"/>
<polygon fill="midnightblue" stroke="midnightblue" points="302.33,-141.17 307.35,-131.83 297.61,-136 302.33,-141.17"/>
</g>
<!-- Node10 -->
<g id="node10" class="node">
<title>Node10</title>
<g id="a_node10"><a xlink:title=" ">
<polygon fill="white" stroke="#bfbfbf" points="92.5,-0.5 92.5,-19.5 133.5,-19.5 133.5,-0.5 92.5,-0.5"/>
<text text-anchor="middle" x="113" y="-7.5" font-family="Helvetica,sans-Serif" font-size="10.00">string</text>
</a>
</g>
</g>
<!-- Node5&#45;&gt;Node10 -->
<g id="edge9" class="edge">
<title>Node5&#45;&gt;Node10</title>
<path fill="none" stroke="midnightblue" d="M225.43,-172.13C196.97,-166.49 155.8,-154.89 127,-132 97.89,-108.86 83.95,-92.3 92,-56 94.12,-46.43 98.51,-36.48 102.72,-28.37"/>
<polygon fill="midnightblue" stroke="midnightblue" points="105.82,-30 107.62,-19.56 99.7,-26.6 105.82,-30"/>
</g>
<!-- Node11 -->
<g id="node11" class="node">
<title>Node11</title>
<g id="a_node11"><a xlink:title=" ">
<polygon fill="white" stroke="#bfbfbf" points="101,-56.5 101,-75.5 145,-75.5 145,-56.5 101,-56.5"/>
<text text-anchor="middle" x="123" y="-63.5" font-family="Helvetica,sans-Serif" font-size="10.00">vector</text>
</a>
</g>
</g>
<!-- Node5&#45;&gt;Node11 -->
<g id="edge10" class="edge">
<title>Node5&#45;&gt;Node11</title>
<path fill="none" stroke="midnightblue" d="M225.29,-172.36C199.25,-166.99 163.69,-155.63 142,-132 130.46,-119.42 125.9,-100.21 124.11,-85.92"/>
<polygon fill="midnightblue" stroke="midnightblue" points="127.58,-85.4 123.19,-75.75 120.61,-86.02 127.58,-85.4"/>
</g>
<!-- Node12 -->
<g id="node12" class="node">
<title>Node12</title>
<g id="a_node12"><a xlink:href="_e57_format_8h.html" target="_top" xlink:title=" ">
<polygon fill="white" stroke="black" points="151.5,-112.5 151.5,-131.5 224.5,-131.5 224.5,-112.5 151.5,-112.5"/>
<text text-anchor="middle" x="188" y="-119.5" font-family="Helvetica,sans-Serif" font-size="10.00">E57Format.h</text>
</a>
</g>
</g>
<!-- Node5&#45;&gt;Node12 -->
<g id="edge11" class="edge">
<title>Node5&#45;&gt;Node12</title>
<path fill="none" stroke="midnightblue" d="M246.75,-168.32C236.2,-160.18 220.2,-147.84 207.56,-138.09"/>
<polygon fill="midnightblue" stroke="midnightblue" points="209.51,-135.17 199.45,-131.83 205.23,-140.71 209.51,-135.17"/>
</g>
<!-- Node12&#45;&gt;Node11 -->
<g id="edge14" class="edge">
<title>Node12&#45;&gt;Node11</title>
<path fill="none" stroke="midnightblue" d="M177.56,-112.32C167.85,-104.26 153.18,-92.08 141.5,-82.37"/>
<polygon fill="midnightblue" stroke="midnightblue" points="143.56,-79.53 133.63,-75.83 139.09,-84.92 143.56,-79.53"/>
</g>
<!-- Node13 -->
<g id="node13" class="node">
<title>Node13</title>
<g id="a_node13"><a xlink:title=" ">
<polygon fill="white" stroke="#bfbfbf" points="165.5,-56.5 165.5,-75.5 206.5,-75.5 206.5,-56.5 165.5,-56.5"/>
<text text-anchor="middle" x="186" y="-63.5" font-family="Helvetica,sans-Serif" font-size="10.00">cfloat</text>
</a>
</g>
</g>
<!-- Node12&#45;&gt;Node13 -->
<g id="edge12" class="edge">
<title>Node12&#45;&gt;Node13</title>
<path fill="none" stroke="midnightblue" d="M187.67,-112.08C187.41,-105.01 187.03,-94.86 186.7,-85.99"/>
<polygon fill="midnightblue" stroke="midnightblue" points="190.19,-85.61 186.32,-75.75 183.2,-85.87 190.19,-85.61"/>
</g>
<!-- Node14 -->
<g id="node14" class="node">
<title>Node14</title>
<g id="a_node14"><a xlink:title=" ">
<polygon fill="white" stroke="#bfbfbf" points="363,-56.5 363,-75.5 415,-75.5 415,-56.5 363,-56.5"/>
<text text-anchor="middle" x="389" y="-63.5" font-family="Helvetica,sans-Serif" font-size="10.00">memory</text>
</a>
</g>
</g>
<!-- Node12&#45;&gt;Node14 -->
<g id="edge13" class="edge">
<title>Node12&#45;&gt;Node14</title>
<path fill="none" stroke="midnightblue" d="M219.85,-112.44C255.97,-102.74 314.76,-86.95 352.65,-76.77"/>
<polygon fill="midnightblue" stroke="midnightblue" points="354,-80.03 362.74,-74.05 352.18,-73.27 354,-80.03"/>
</g>
<!-- Node15 -->
<g id="node15" class="node">
<title>Node15</title>
<g id="a_node15"><a xlink:href="_e57_exception_8h.html" target="_top" xlink:title=" ">
<polygon fill="white" stroke="black" points="225,-56.5 225,-75.5 311,-75.5 311,-56.5 225,-56.5"/>
<text text-anchor="middle" x="268" y="-63.5" font-family="Helvetica,sans-Serif" font-size="10.00">E57Exception.h</text>
</a>
</g>
</g>
<!-- Node12&#45;&gt;Node15 -->
<g id="edge15" class="edge">
<title>Node12&#45;&gt;Node15</title>
<path fill="none" stroke="midnightblue" d="M200.85,-112.32C213.22,-103.98 232.13,-91.21 246.74,-81.35"/>
<polygon fill="midnightblue" stroke="midnightblue" points="248.85,-84.15 255.18,-75.65 244.93,-78.35 248.85,-84.15"/>
</g>
<!-- Node15&#45;&gt;Node7 -->
<g id="edge17" class="edge">
<title>Node15&#45;&gt;Node7</title>
<path fill="none" stroke="midnightblue" d="M295.89,-56.44C325.93,-47.23 373.87,-32.52 407.04,-22.34"/>
<polygon fill="midnightblue" stroke="midnightblue" points="408.29,-25.62 416.82,-19.34 406.23,-18.93 408.29,-25.62"/>
</g>
<!-- Node15&#45;&gt;Node10 -->
<g id="edge18" class="edge">
<title>Node15&#45;&gt;Node10</title>
<path fill="none" stroke="midnightblue" d="M243.44,-56.44C216.41,-47.03 172.92,-31.87 143.67,-21.68"/>
<polygon fill="midnightblue" stroke="midnightblue" points="144.56,-18.29 133.97,-18.3 142.26,-24.9 144.56,-18.29"/>
</g>
<!-- Node16 -->
<g id="node16" class="node">
<title>Node16</title>
<g id="a_node16"><a xlink:title=" ">
<polygon fill="white" stroke="#bfbfbf" points="271.5,-0.5 271.5,-19.5 330.5,-19.5 330.5,-0.5 271.5,-0.5"/>
<text text-anchor="middle" x="301" y="-7.5" font-family="Helvetica,sans-Serif" font-size="10.00">exception</text>
</a>
</g>
</g>
<!-- Node15&#45;&gt;Node16 -->
<g id="edge16" class="edge">
<title>Node15&#45;&gt;Node16</title>
<path fill="none" stroke="midnightblue" d="M273.45,-56.08C278.01,-48.61 284.67,-37.72 290.29,-28.52"/>
<polygon fill="midnightblue" stroke="midnightblue" points="293.42,-30.11 295.65,-19.75 287.45,-26.46 293.42,-30.11"/>
</g>
<!-- Node17 -->
<g id="node17" class="node">
<title>Node17</title>
<g id="a_node17"><a xlink:title=" ">
<polygon fill="white" stroke="#bfbfbf" points="182.5,-0.5 182.5,-19.5 253.5,-19.5 253.5,-0.5 182.5,-0.5"/>
<text text-anchor="middle" x="218" y="-7.5" font-family="Helvetica,sans-Serif" font-size="10.00">E57Export.h</text>
</a>
</g>
</g>
<!-- Node15&#45;&gt;Node17 -->
<g id="edge19" class="edge">
<title>Node15&#45;&gt;Node17</title>
<path fill="none" stroke="midnightblue" d="M259.74,-56.08C252.54,-48.3 241.89,-36.8 233.15,-27.37"/>
<polygon fill="midnightblue" stroke="midnightblue" points="235.47,-24.71 226.1,-19.75 230.33,-29.47 235.47,-24.71"/>
</g>
<!-- Node19 -->
<g id="node19" class="node">
<title>Node19</title>
<g id="a_node19"><a xlink:href="_packet_8h.html" target="_top" xlink:title=" ">
<polygon fill="white" stroke="black" points="47,-224.5 47,-243.5 103,-243.5 103,-224.5 47,-224.5"/>
<text text-anchor="middle" x="75" y="-231.5" font-family="Helvetica,sans-Serif" font-size="10.00">Packet.h</text>
</a>
</g>
</g>
<!-- Node18&#45;&gt;Node19 -->
<g id="edge21" class="edge">
<title>Node18&#45;&gt;Node19</title>
<path fill="none" stroke="midnightblue" d="M151.95,-336.48C132.28,-329.68 108.05,-318.2 93,-300 82.17,-286.9 77.83,-267.75 76.11,-253.63"/>
<polygon fill="midnightblue" stroke="midnightblue" points="79.59,-253.24 75.21,-243.59 72.62,-253.86 79.59,-253.24"/>
</g>
<!-- Node21 -->
<g id="node21" class="node">
<title>Node21</title>
<g id="a_node21"><a xlink:href="_structure_node_impl_8h.html" target="_top" xlink:title=" ">
<polygon fill="white" stroke="black" points="102.5,-280.5 102.5,-299.5 209.5,-299.5 209.5,-280.5 102.5,-280.5"/>
<text text-anchor="middle" x="156" y="-287.5" font-family="Helvetica,sans-Serif" font-size="10.00">StructureNodeImpl.h</text>
</a>
</g>
</g>
<!-- Node18&#45;&gt;Node21 -->
<g id="edge25" class="edge">
<title>Node18&#45;&gt;Node21</title>
<path fill="none" stroke="midnightblue" d="M179.38,-336.08C175.54,-328.69 169.98,-317.95 165.24,-308.81"/>
<polygon fill="midnightblue" stroke="midnightblue" points="168.25,-307.02 160.54,-299.75 162.03,-310.24 168.25,-307.02"/>
</g>
<!-- Node19&#45;&gt;Node5 -->
<g id="edge24" class="edge">
<title>Node19&#45;&gt;Node5</title>
<path fill="none" stroke="midnightblue" d="M103.19,-224.68C134.31,-215.5 184.59,-200.66 219.36,-190.4"/>
<polygon fill="midnightblue" stroke="midnightblue" points="220.57,-193.69 229.17,-187.51 218.59,-186.98 220.57,-193.69"/>
</g>
<!-- Node19&#45;&gt;Node11 -->
<g id="edge23" class="edge">
<title>Node19&#45;&gt;Node11</title>
<path fill="none" stroke="midnightblue" d="M77.58,-224.08C85.14,-197.95 107.32,-121.21 117.63,-85.58"/>
<polygon fill="midnightblue" stroke="midnightblue" points="121.11,-86.15 120.52,-75.57 114.38,-84.2 121.11,-86.15"/>
</g>
<!-- Node20 -->
<g id="node20" class="node">
<title>Node20</title>
<g id="a_node20"><a xlink:title=" ">
<polygon fill="white" stroke="#bfbfbf" points="11,-168.5 11,-187.5 57,-187.5 57,-168.5 11,-168.5"/>
<text text-anchor="middle" x="34" y="-175.5" font-family="Helvetica,sans-Serif" font-size="10.00">cstdint</text>
</a>
</g>
</g>
<!-- Node19&#45;&gt;Node20 -->
<g id="edge22" class="edge">
<title>Node19&#45;&gt;Node20</title>
<path fill="none" stroke="midnightblue" d="M68.23,-224.08C62.44,-216.46 53.94,-205.26 46.86,-195.94"/>
<polygon fill="midnightblue" stroke="midnightblue" points="49.48,-193.6 40.64,-187.75 43.9,-197.83 49.48,-193.6"/>
</g>
<!-- Node22 -->
<g id="node22" class="node">
<title>Node22</title>
<g id="a_node22"><a xlink:href="_node_impl_8h.html" target="_top" xlink:title=" ">
<polygon fill="white" stroke="black" points="142.5,-224.5 142.5,-243.5 209.5,-243.5 209.5,-224.5 142.5,-224.5"/>
<text text-anchor="middle" x="176" y="-231.5" font-family="Helvetica,sans-Serif" font-size="10.00">NodeImpl.h</text>
</a>
</g>
</g>
<!-- Node21&#45;&gt;Node22 -->
<g id="edge26" class="edge">
<title>Node21&#45;&gt;Node22</title>
<path fill="none" stroke="midnightblue" d="M159.3,-280.08C161.98,-272.85 165.85,-262.41 169.19,-253.4"/>
<polygon fill="midnightblue" stroke="midnightblue" points="172.57,-254.34 172.76,-243.75 166,-251.91 172.57,-254.34"/>
</g>
<!-- Node22&#45;&gt;Node5 -->
<g id="edge27" class="edge">
<title>Node22&#45;&gt;Node5</title>
<path fill="none" stroke="midnightblue" d="M189.17,-224.32C201.85,-215.98 221.23,-203.21 236.21,-193.35"/>
<polygon fill="midnightblue" stroke="midnightblue" points="238.43,-196.08 244.86,-187.65 234.58,-190.23 238.43,-196.08"/>
</g>
<!-- Node23&#45;&gt;Node5 -->
<g id="edge30" class="edge">
<title>Node23&#45;&gt;Node5</title>
<path fill="none" stroke="midnightblue" d="M410.32,-224.44C379.47,-215.24 330.27,-200.56 296.17,-190.39"/>
<polygon fill="midnightblue" stroke="midnightblue" points="297.13,-187.02 286.55,-187.52 295.13,-193.73 297.13,-187.02"/>
</g>
<!-- Node23&#45;&gt;Node14 -->
<g id="edge29" class="edge">
<title>Node23&#45;&gt;Node14</title>
<path fill="none" stroke="midnightblue" d="M438.94,-224.45C438.54,-204.17 435.91,-151.9 420,-112 415.92,-101.78 409.17,-91.57 403.01,-83.48"/>
<polygon fill="midnightblue" stroke="midnightblue" points="405.69,-81.23 396.71,-75.61 400.23,-85.61 405.69,-81.23"/>
</g>
<!-- Node24&#45;&gt;Node5 -->
<g id="edge32" class="edge">
<title>Node24&#45;&gt;Node5</title>
<path fill="none" stroke="midnightblue" d="M359.37,-280.37C340.89,-261.89 297.29,-218.29 273.74,-194.74"/>
<polygon fill="midnightblue" stroke="midnightblue" points="276.14,-192.19 266.59,-187.59 271.19,-197.14 276.14,-192.19"/>
</g>
</g>
</svg>
