<?xml version="1.0" encoding="UTF-8" standalone="no"?>
<!DOCTYPE svg PUBLIC "-//W3C//DTD SVG 1.1//EN"
 "http://www.w3.org/Graphics/SVG/1.1/DTD/svg11.dtd">
<!-- Generated by graphviz version 2.44.0 (20200408.0750)
 -->
<!-- Title: Decoder.h Pages: 1 -->
<svg width="430pt" height="252pt"
 viewBox="0.00 0.00 430.00 252.00" xmlns="http://www.w3.org/2000/svg" xmlns:xlink="http://www.w3.org/1999/xlink">
<g id="graph0" class="graph" transform="scale(1 1) rotate(0) translate(4 248)">
<title>Decoder.h</title>
<polygon fill="white" stroke="transparent" points="-4,4 -4,-248 426,-248 426,4 -4,4"/>
<!-- Node1 -->
<g id="node1" class="node">
<title>Node1</title>
<g id="a_node1"><a xlink:title=" ">
<polygon fill="#bfbfbf" stroke="black" points="129.5,-224.5 129.5,-243.5 190.5,-243.5 190.5,-224.5 129.5,-224.5"/>
<text text-anchor="middle" x="160" y="-231.5" font-family="Helvetica,sans-Serif" font-size="10.00">Decoder.h</text>
</a>
</g>
</g>
<!-- Node2 -->
<g id="node2" class="node">
<title>Node2</title>
<g id="a_node2"><a xlink:href="_common_8h.html" target="_top" xlink:title=" ">
<polygon fill="white" stroke="black" points="127.5,-168.5 127.5,-187.5 192.5,-187.5 192.5,-168.5 127.5,-168.5"/>
<text text-anchor="middle" x="160" y="-175.5" font-family="Helvetica,sans-Serif" font-size="10.00">Common.h</text>
</a>
</g>
</g>
<!-- Node1&#45;&gt;Node2 -->
<g id="edge1" class="edge">
<title>Node1&#45;&gt;Node2</title>
<path fill="none" stroke="midnightblue" d="M160,-224.08C160,-217.01 160,-206.86 160,-197.99"/>
<polygon fill="midnightblue" stroke="midnightblue" points="163.5,-197.75 160,-187.75 156.5,-197.75 163.5,-197.75"/>
</g>
<!-- Node3 -->
<g id="node3" class="node">
<title>Node3</title>
<g id="a_node3"><a xlink:title=" ">
<polygon fill="white" stroke="#bfbfbf" points="0,-112.5 0,-131.5 50,-131.5 50,-112.5 0,-112.5"/>
<text text-anchor="middle" x="25" y="-119.5" font-family="Helvetica,sans-Serif" font-size="10.00">iomanip</text>
</a>
</g>
</g>
<!-- Node2&#45;&gt;Node3 -->
<g id="edge2" class="edge">
<title>Node2&#45;&gt;Node3</title>
<path fill="none" stroke="midnightblue" d="M138.61,-168.44C116.29,-159.52 81.1,-145.44 55.79,-135.32"/>
<polygon fill="midnightblue" stroke="midnightblue" points="56.88,-131.98 46.29,-131.52 54.28,-138.48 56.88,-131.98"/>
</g>
<!-- Node4 -->
<g id="node4" class="node">
<title>Node4</title>
<g id="a_node4"><a xlink:title=" ">
<polygon fill="white" stroke="#bfbfbf" points="69,-0.5 69,-19.5 123,-19.5 123,-0.5 69,-0.5"/>
<text text-anchor="middle" x="96" y="-7.5" font-family="Helvetica,sans-Serif" font-size="10.00">iostream</text>
</a>
</g>
</g>
<!-- Node2&#45;&gt;Node4 -->
<g id="edge3" class="edge">
<title>Node2&#45;&gt;Node4</title>
<path fill="none" stroke="midnightblue" d="M153.42,-168.47C146.95,-159.73 137.16,-145.54 131,-132 115.21,-97.29 104.69,-53.72 99.59,-29.47"/>
<polygon fill="midnightblue" stroke="midnightblue" points="102.99,-28.62 97.57,-19.51 96.13,-30.01 102.99,-28.62"/>
</g>
<!-- Node5 -->
<g id="node5" class="node">
<title>Node5</title>
<g id="a_node5"><a xlink:title=" ">
<polygon fill="white" stroke="#bfbfbf" points="280,-112.5 280,-131.5 310,-131.5 310,-112.5 280,-112.5"/>
<text text-anchor="middle" x="295" y="-119.5" font-family="Helvetica,sans-Serif" font-size="10.00">set</text>
</a>
</g>
</g>
<!-- Node2&#45;&gt;Node5 -->
<g id="edge4" class="edge">
<title>Node2&#45;&gt;Node5</title>
<path fill="none" stroke="midnightblue" d="M181.39,-168.44C205.68,-158.73 245.21,-142.91 270.66,-132.74"/>
<polygon fill="midnightblue" stroke="midnightblue" points="271.99,-135.97 279.98,-129.01 269.39,-129.47 271.99,-135.97"/>
</g>
<!-- Node6 -->
<g id="node6" class="node">
<title>Node6</title>
<g id="a_node6"><a xlink:title=" ">
<polygon fill="white" stroke="#bfbfbf" points="328,-112.5 328,-131.5 380,-131.5 380,-112.5 328,-112.5"/>
<text text-anchor="middle" x="354" y="-119.5" font-family="Helvetica,sans-Serif" font-size="10.00">sstream</text>
</a>
</g>
</g>
<!-- Node2&#45;&gt;Node6 -->
<g id="edge5" class="edge">
<title>Node2&#45;&gt;Node6</title>
<path fill="none" stroke="midnightblue" d="M190.74,-168.44C225.31,-158.82 281.39,-143.21 317.99,-133.02"/>
<polygon fill="midnightblue" stroke="midnightblue" points="319.06,-136.36 327.76,-130.3 317.19,-129.61 319.06,-136.36"/>
</g>
<!-- Node7 -->
<g id="node7" class="node">
<title>Node7</title>
<g id="a_node7"><a xlink:title=" ">
<polygon fill="white" stroke="#bfbfbf" points="150.5,-0.5 150.5,-19.5 191.5,-19.5 191.5,-0.5 150.5,-0.5"/>
<text text-anchor="middle" x="171" y="-7.5" font-family="Helvetica,sans-Serif" font-size="10.00">string</text>
</a>
</g>
</g>
<!-- Node2&#45;&gt;Node7 -->
<g id="edge6" class="edge">
<title>Node2&#45;&gt;Node7</title>
<path fill="none" stroke="midnightblue" d="M155.06,-168.28C144.28,-148.07 120.73,-96.69 135,-56 138.79,-45.21 146.37,-35.08 153.6,-27.18"/>
<polygon fill="midnightblue" stroke="midnightblue" points="156.33,-29.4 160.84,-19.81 151.33,-24.49 156.33,-29.4"/>
</g>
<!-- Node8 -->
<g id="node8" class="node">
<title>Node8</title>
<g id="a_node8"><a xlink:title=" ">
<polygon fill="white" stroke="#bfbfbf" points="144,-56.5 144,-75.5 188,-75.5 188,-56.5 144,-56.5"/>
<text text-anchor="middle" x="166" y="-63.5" font-family="Helvetica,sans-Serif" font-size="10.00">vector</text>
</a>
</g>
</g>
<!-- Node2&#45;&gt;Node8 -->
<g id="edge7" class="edge">
<title>Node2&#45;&gt;Node8</title>
<path fill="none" stroke="midnightblue" d="M160.47,-168.37C161.44,-150.62 163.67,-109.67 164.99,-85.6"/>
<polygon fill="midnightblue" stroke="midnightblue" points="168.48,-85.77 165.53,-75.59 161.49,-85.39 168.48,-85.77"/>
</g>
<!-- Node9 -->
<g id="node9" class="node">
<title>Node9</title>
<g id="a_node9"><a xlink:href="_e57_format_8h.html" target="_top" xlink:title=" ">
<polygon fill="white" stroke="black" points="188.5,-112.5 188.5,-131.5 261.5,-131.5 261.5,-112.5 188.5,-112.5"/>
<text text-anchor="middle" x="225" y="-119.5" font-family="Helvetica,sans-Serif" font-size="10.00">E57Format.h</text>
</a>
</g>
</g>
<!-- Node2&#45;&gt;Node9 -->
<g id="edge8" class="edge">
<title>Node2&#45;&gt;Node9</title>
<path fill="none" stroke="midnightblue" d="M170.44,-168.32C180.15,-160.26 194.82,-148.08 206.5,-138.37"/>
<polygon fill="midnightblue" stroke="midnightblue" points="208.91,-140.92 214.37,-131.83 204.44,-135.53 208.91,-140.92"/>
</g>
<!-- Node9&#45;&gt;Node8 -->
<g id="edge11" class="edge">
<title>Node9&#45;&gt;Node8</title>
<path fill="none" stroke="midnightblue" d="M215.52,-112.32C206.8,-104.34 193.66,-92.31 183.1,-82.65"/>
<polygon fill="midnightblue" stroke="midnightblue" points="185.39,-80 175.65,-75.83 180.67,-85.17 185.39,-80"/>
</g>
<!-- Node10 -->
<g id="node10" class="node">
<title>Node10</title>
<g id="a_node10"><a xlink:title=" ">
<polygon fill="white" stroke="#bfbfbf" points="310.5,-56.5 310.5,-75.5 351.5,-75.5 351.5,-56.5 310.5,-56.5"/>
<text text-anchor="middle" x="331" y="-63.5" font-family="Helvetica,sans-Serif" font-size="10.00">cfloat</text>
</a>
</g>
</g>
<!-- Node9&#45;&gt;Node10 -->
<g id="edge9" class="edge">
<title>Node9&#45;&gt;Node10</title>
<path fill="none" stroke="midnightblue" d="M242.03,-112.32C259.03,-103.66 285.38,-90.24 304.99,-80.25"/>
<polygon fill="midnightblue" stroke="midnightblue" points="306.69,-83.31 314.01,-75.65 303.51,-77.08 306.69,-83.31"/>
</g>
<!-- Node11 -->
<g id="node11" class="node">
<title>Node11</title>
<g id="a_node11"><a xlink:title=" ">
<polygon fill="white" stroke="#bfbfbf" points="370,-56.5 370,-75.5 422,-75.5 422,-56.5 370,-56.5"/>
<text text-anchor="middle" x="396" y="-63.5" font-family="Helvetica,sans-Serif" font-size="10.00">memory</text>
</a>
</g>
</g>
<!-- Node9&#45;&gt;Node11 -->
<g id="edge10" class="edge">
<title>Node9&#45;&gt;Node11</title>
<path fill="none" stroke="midnightblue" d="M252.1,-112.44C281.24,-103.24 327.74,-88.56 359.95,-78.38"/>
<polygon fill="midnightblue" stroke="midnightblue" points="361.39,-81.6 369.87,-75.25 359.28,-74.92 361.39,-81.6"/>
</g>
<!-- Node12 -->
<g id="node12" class="node">
<title>Node12</title>
<g id="a_node12"><a xlink:href="_e57_exception_8h.html" target="_top" xlink:title=" ">
<polygon fill="white" stroke="black" points="206,-56.5 206,-75.5 292,-75.5 292,-56.5 206,-56.5"/>
<text text-anchor="middle" x="249" y="-63.5" font-family="Helvetica,sans-Serif" font-size="10.00">E57Exception.h</text>
</a>
</g>
</g>
<!-- Node9&#45;&gt;Node12 -->
<g id="edge12" class="edge">
<title>Node9&#45;&gt;Node12</title>
<path fill="none" stroke="midnightblue" d="M228.96,-112.08C232.21,-104.77 236.92,-94.18 240.95,-85.1"/>
<polygon fill="midnightblue" stroke="midnightblue" points="244.25,-86.31 245.11,-75.75 237.85,-83.47 244.25,-86.31"/>
</g>
<!-- Node12&#45;&gt;Node4 -->
<g id="edge14" class="edge">
<title>Node12&#45;&gt;Node4</title>
<path fill="none" stroke="midnightblue" d="M224.76,-56.44C199.13,-47.4 158.51,-33.06 129.76,-22.92"/>
<polygon fill="midnightblue" stroke="midnightblue" points="130.72,-19.54 120.13,-19.52 128.39,-26.15 130.72,-19.54"/>
</g>
<!-- Node12&#45;&gt;Node7 -->
<g id="edge15" class="edge">
<title>Node12&#45;&gt;Node7</title>
<path fill="none" stroke="midnightblue" d="M236.47,-56.32C224.41,-47.98 205.97,-35.21 191.73,-25.35"/>
<polygon fill="midnightblue" stroke="midnightblue" points="193.72,-22.47 183.5,-19.65 189.73,-28.22 193.72,-22.47"/>
</g>
<!-- Node13 -->
<g id="node13" class="node">
<title>Node13</title>
<g id="a_node13"><a xlink:title=" ">
<polygon fill="white" stroke="#bfbfbf" points="214.5,-0.5 214.5,-19.5 273.5,-19.5 273.5,-0.5 214.5,-0.5"/>
<text text-anchor="middle" x="244" y="-7.5" font-family="Helvetica,sans-Serif" font-size="10.00">exception</text>
</a>
</g>
</g>
<!-- Node12&#45;&gt;Node13 -->
<g id="edge13" class="edge">
<title>Node12&#45;&gt;Node13</title>
<path fill="none" stroke="midnightblue" d="M248.17,-56.08C247.52,-49.01 246.58,-38.86 245.76,-29.99"/>
<polygon fill="midnightblue" stroke="midnightblue" points="249.22,-29.39 244.81,-19.75 242.25,-30.03 249.22,-29.39"/>
</g>
<!-- Node14 -->
<g id="node14" class="node">
<title>Node14</title>
<g id="a_node14"><a xlink:title=" ">
<polygon fill="white" stroke="#bfbfbf" points="291.5,-0.5 291.5,-19.5 362.5,-19.5 362.5,-0.5 291.5,-0.5"/>
<text text-anchor="middle" x="327" y="-7.5" font-family="Helvetica,sans-Serif" font-size="10.00">E57Export.h</text>
</a>
</g>
</g>
<!-- Node12&#45;&gt;Node14 -->
<g id="edge16" class="edge">
<title>Node12&#45;&gt;Node14</title>
<path fill="none" stroke="midnightblue" d="M261.53,-56.32C273.59,-47.98 292.03,-35.21 306.27,-25.35"/>
<polygon fill="midnightblue" stroke="midnightblue" points="308.27,-28.22 314.5,-19.65 304.28,-22.47 308.27,-28.22"/>
</g>
</g>
</svg>
