<?xml version="1.0" encoding="UTF-8" standalone="no"?>
<!DOCTYPE svg PUBLIC "-//W3C//DTD SVG 1.1//EN"
 "http://www.w3.org/Graphics/SVG/1.1/DTD/svg11.dtd">
<!-- Generated by graphviz version 2.48.0 (20210717.1556)
 -->
<!-- Title: Decoder.h Pages: 1 -->
<svg width="491pt" height="196pt"
 viewBox="0.00 0.00 491.00 196.00" xmlns="http://www.w3.org/2000/svg" xmlns:xlink="http://www.w3.org/1999/xlink">
<g id="graph0" class="graph" transform="scale(1 1) rotate(0) translate(4 192)">
<title>Decoder.h</title>
<polygon fill="white" stroke="transparent" points="-4,4 -4,-192 487,-192 487,4 -4,4"/>
<!-- Node1 -->
<g id="node1" class="node">
<title>Node1</title>
<g id="a_node1"><a xlink:title=" ">
<polygon fill="#bfbfbf" stroke="black" points="363.5,-168.5 363.5,-187.5 425.5,-187.5 425.5,-168.5 363.5,-168.5"/>
<text text-anchor="middle" x="394.5" y="-175.5" font-family="Helvetica,sans-Serif" font-size="10.00">Decoder.h</text>
</a>
</g>
</g>
<!-- Node2 -->
<g id="node2" class="node">
<title>Node2</title>
<g id="a_node2"><a xlink:href="_decode_channel_8h.html" target="_top" xlink:title=" ">
<polygon fill="white" stroke="black" points="295,-112.5 295,-131.5 392,-131.5 392,-112.5 295,-112.5"/>
<text text-anchor="middle" x="343.5" y="-119.5" font-family="Helvetica,sans-Serif" font-size="10.00">DecodeChannel.h</text>
</a>
</g>
</g>
<!-- Node1&#45;&gt;Node2 -->
<g id="edge1" class="edge">
<title>Node1&#45;&gt;Node2</title>
<path fill="none" stroke="midnightblue" d="M379.12,-160.72C370.13,-151.2 359.14,-139.56 351.76,-131.75"/>
<polygon fill="midnightblue" stroke="midnightblue" points="376.67,-163.22 386.08,-168.08 381.76,-158.41 376.67,-163.22"/>
</g>
<!-- Node8 -->
<g id="node8" class="node">
<title>Node8</title>
<g id="a_node8"><a xlink:href="_decoder_8cpp.html" target="_top" xlink:title=" ">
<polygon fill="white" stroke="black" points="410,-112.5 410,-131.5 483,-131.5 483,-112.5 410,-112.5"/>
<text text-anchor="middle" x="446.5" y="-119.5" font-family="Helvetica,sans-Serif" font-size="10.00">Decoder.cpp</text>
</a>
</g>
</g>
<!-- Node1&#45;&gt;Node8 -->
<g id="edge7" class="edge">
<title>Node1&#45;&gt;Node8</title>
<path fill="none" stroke="midnightblue" d="M410.18,-160.72C419.34,-151.2 430.55,-139.56 438.07,-131.75"/>
<polygon fill="midnightblue" stroke="midnightblue" points="407.5,-158.45 403.09,-168.08 412.54,-163.31 407.5,-158.45"/>
</g>
<!-- Node3 -->
<g id="node3" class="node">
<title>Node3</title>
<g id="a_node3"><a xlink:href="_compressed_vector_reader_impl_8h.html" target="_top" xlink:title=" ">
<polygon fill="white" stroke="black" points="186.5,-56.5 186.5,-75.5 348.5,-75.5 348.5,-56.5 186.5,-56.5"/>
<text text-anchor="middle" x="267.5" y="-63.5" font-family="Helvetica,sans-Serif" font-size="10.00">CompressedVectorReaderImpl.h</text>
</a>
</g>
</g>
<!-- Node2&#45;&gt;Node3 -->
<g id="edge2" class="edge">
<title>Node2&#45;&gt;Node3</title>
<path fill="none" stroke="midnightblue" d="M322.92,-106.38C309.19,-96.62 291.57,-84.11 279.93,-75.83"/>
<polygon fill="midnightblue" stroke="midnightblue" points="321.11,-109.38 331.29,-112.32 325.16,-103.68 321.11,-109.38"/>
</g>
<!-- Node7 -->
<g id="node7" class="node">
<title>Node7</title>
<g id="a_node7"><a xlink:href="_decode_channel_8cpp.html" target="_top" xlink:title=" ">
<polygon fill="white" stroke="black" points="367,-56.5 367,-75.5 474,-75.5 474,-56.5 367,-56.5"/>
<text text-anchor="middle" x="420.5" y="-63.5" font-family="Helvetica,sans-Serif" font-size="10.00">DecodeChannel.cpp</text>
</a>
</g>
</g>
<!-- Node2&#45;&gt;Node7 -->
<g id="edge6" class="edge">
<title>Node2&#45;&gt;Node7</title>
<path fill="none" stroke="midnightblue" d="M364.4,-106.34C378.41,-96.52 396.38,-83.91 408.16,-75.65"/>
<polygon fill="midnightblue" stroke="midnightblue" points="362.05,-103.72 355.87,-112.32 366.07,-109.45 362.05,-103.72"/>
</g>
<!-- Node4 -->
<g id="node4" class="node">
<title>Node4</title>
<g id="a_node4"><a xlink:href="_compressed_vector_node_impl_8cpp.html" target="_top" xlink:title=" ">
<polygon fill="white" stroke="black" points="0,-0.5 0,-19.5 163,-19.5 163,-0.5 0,-0.5"/>
<text text-anchor="middle" x="81.5" y="-7.5" font-family="Helvetica,sans-Serif" font-size="10.00">CompressedVectorNodeImpl.cpp</text>
</a>
</g>
</g>
<!-- Node3&#45;&gt;Node4 -->
<g id="edge3" class="edge">
<title>Node3&#45;&gt;Node4</title>
<path fill="none" stroke="midnightblue" d="M228.12,-53.57C193.03,-43.38 142.48,-28.7 110.83,-19.52"/>
<polygon fill="midnightblue" stroke="midnightblue" points="227.45,-57.02 238.03,-56.44 229.4,-50.29 227.45,-57.02"/>
</g>
<!-- Node5 -->
<g id="node5" class="node">
<title>Node5</title>
<g id="a_node5"><a xlink:href="_compressed_vector_reader_impl_8cpp.html" target="_top" xlink:title=" ">
<polygon fill="white" stroke="black" points="181.5,-0.5 181.5,-19.5 353.5,-19.5 353.5,-0.5 181.5,-0.5"/>
<text text-anchor="middle" x="267.5" y="-7.5" font-family="Helvetica,sans-Serif" font-size="10.00">CompressedVectorReaderImpl.cpp</text>
</a>
</g>
</g>
<!-- Node3&#45;&gt;Node5 -->
<g id="edge4" class="edge">
<title>Node3&#45;&gt;Node5</title>
<path fill="none" stroke="midnightblue" d="M267.5,-45.8C267.5,-36.91 267.5,-26.78 267.5,-19.75"/>
<polygon fill="midnightblue" stroke="midnightblue" points="264,-46.08 267.5,-56.08 271,-46.08 264,-46.08"/>
</g>
<!-- Node6 -->
<g id="node6" class="node">
<title>Node6</title>
<g id="a_node6"><a xlink:href="_e57_format_8cpp.html" target="_top" xlink:title=" ">
<polygon fill="white" stroke="black" points="372,-0.5 372,-19.5 457,-19.5 457,-0.5 372,-0.5"/>
<text text-anchor="middle" x="414.5" y="-7.5" font-family="Helvetica,sans-Serif" font-size="10.00">E57Format.cpp</text>
</a>
</g>
</g>
<!-- Node3&#45;&gt;Node6 -->
<g id="edge5" class="edge">
<title>Node3&#45;&gt;Node6</title>
<path fill="none" stroke="midnightblue" d="M300.42,-52.91C328.06,-42.75 366.84,-28.51 391.32,-19.52"/>
<polygon fill="midnightblue" stroke="midnightblue" points="298.97,-49.71 290.79,-56.44 301.39,-56.28 298.97,-49.71"/>
</g>
</g>
</svg>
