<?xml version="1.0" encoding="UTF-8" standalone="no"?>
<!DOCTYPE svg PUBLIC "-//W3C//DTD SVG 1.1//EN"
 "http://www.w3.org/Graphics/SVG/1.1/DTD/svg11.dtd">
<!-- Generated by graphviz version 2.44.0 (20200408.0750)
 -->
<!-- Title: E57SimpleData.h Pages: 1 -->
<svg width="550pt" height="140pt"
 viewBox="0.00 0.00 550.00 140.00" xmlns="http://www.w3.org/2000/svg" xmlns:xlink="http://www.w3.org/1999/xlink">
<g id="graph0" class="graph" transform="scale(1 1) rotate(0) translate(4 136)">
<title>E57SimpleData.h</title>
<polygon fill="white" stroke="transparent" points="-4,4 -4,-136 546,-136 546,4 -4,4"/>
<!-- Node1 -->
<g id="node1" class="node">
<title>Node1</title>
<g id="a_node1"><a xlink:title=" ">
<polygon fill="#bfbfbf" stroke="black" points="220.5,-112.5 220.5,-131.5 313.5,-131.5 313.5,-112.5 220.5,-112.5"/>
<text text-anchor="middle" x="267" y="-119.5" font-family="Helvetica,sans-Serif" font-size="10.00">E57SimpleData.h</text>
</a>
</g>
</g>
<!-- Node2 -->
<g id="node2" class="node">
<title>Node2</title>
<g id="a_node2"><a xlink:href="_e57_simple_data_8cpp.html" target="_top" xlink:title=" ">
<polygon fill="white" stroke="black" points="0,-56.5 0,-75.5 104,-75.5 104,-56.5 0,-56.5"/>
<text text-anchor="middle" x="52" y="-63.5" font-family="Helvetica,sans-Serif" font-size="10.00">E57SimpleData.cpp</text>
</a>
</g>
</g>
<!-- Node1&#45;&gt;Node2 -->
<g id="edge1" class="edge">
<title>Node1&#45;&gt;Node2</title>
<path fill="none" stroke="midnightblue" d="M223.04,-109.96C182.43,-99.76 122.96,-84.82 85.91,-75.52"/>
<polygon fill="midnightblue" stroke="midnightblue" points="222.38,-113.4 232.93,-112.44 224.09,-106.61 222.38,-113.4"/>
</g>
<!-- Node3 -->
<g id="node3" class="node">
<title>Node3</title>
<g id="a_node3"><a xlink:href="_reader_impl_8h.html" target="_top" xlink:title=" ">
<polygon fill="white" stroke="black" points="122.5,-56.5 122.5,-75.5 197.5,-75.5 197.5,-56.5 122.5,-56.5"/>
<text text-anchor="middle" x="160" y="-63.5" font-family="Helvetica,sans-Serif" font-size="10.00">ReaderImpl.h</text>
</a>
</g>
</g>
<!-- Node1&#45;&gt;Node3 -->
<g id="edge2" class="edge">
<title>Node1&#45;&gt;Node3</title>
<path fill="none" stroke="midnightblue" d="M240.7,-107.73C220.89,-97.73 194.29,-84.31 177.15,-75.65"/>
<polygon fill="midnightblue" stroke="midnightblue" points="239.3,-110.94 249.81,-112.32 242.46,-104.69 239.3,-110.94"/>
</g>
<!-- Node6 -->
<g id="node6" class="node">
<title>Node6</title>
<g id="a_node6"><a xlink:href="_writer_impl_8h.html" target="_top" xlink:title=" ">
<polygon fill="white" stroke="black" points="451.5,-56.5 451.5,-75.5 520.5,-75.5 520.5,-56.5 451.5,-56.5"/>
<text text-anchor="middle" x="486" y="-63.5" font-family="Helvetica,sans-Serif" font-size="10.00">WriterImpl.h</text>
</a>
</g>
</g>
<!-- Node1&#45;&gt;Node6 -->
<g id="edge5" class="edge">
<title>Node1&#45;&gt;Node6</title>
<path fill="none" stroke="midnightblue" d="M311.51,-110.02C352.88,-99.82 413.64,-84.84 451.46,-75.52"/>
<polygon fill="midnightblue" stroke="midnightblue" points="310.57,-106.65 301.7,-112.44 312.25,-113.45 310.57,-106.65"/>
</g>
<!-- Node9 -->
<g id="node9" class="node">
<title>Node9</title>
<g id="a_node9"><a xlink:href="_e57_simple_reader_8h.html" target="_top" xlink:title=" ">
<polygon fill="white" stroke="black" points="215.5,-56.5 215.5,-75.5 318.5,-75.5 318.5,-56.5 215.5,-56.5"/>
<text text-anchor="middle" x="267" y="-63.5" font-family="Helvetica,sans-Serif" font-size="10.00">E57SimpleReader.h</text>
</a>
</g>
</g>
<!-- Node1&#45;&gt;Node9 -->
<g id="edge8" class="edge">
<title>Node1&#45;&gt;Node9</title>
<path fill="none" stroke="midnightblue" d="M267,-101.8C267,-92.91 267,-82.78 267,-75.75"/>
<polygon fill="midnightblue" stroke="midnightblue" points="263.5,-102.08 267,-112.08 270.5,-102.08 263.5,-102.08"/>
</g>
<!-- Node10 -->
<g id="node10" class="node">
<title>Node10</title>
<g id="a_node10"><a xlink:href="_e57_simple_writer_8h.html" target="_top" xlink:title=" ">
<polygon fill="white" stroke="black" points="336.5,-56.5 336.5,-75.5 433.5,-75.5 433.5,-56.5 336.5,-56.5"/>
<text text-anchor="middle" x="385" y="-63.5" font-family="Helvetica,sans-Serif" font-size="10.00">E57SimpleWriter.h</text>
</a>
</g>
</g>
<!-- Node1&#45;&gt;Node10 -->
<g id="edge10" class="edge">
<title>Node1&#45;&gt;Node10</title>
<path fill="none" stroke="midnightblue" d="M294.9,-108.23C316.97,-98.13 347.18,-84.31 366.39,-75.52"/>
<polygon fill="midnightblue" stroke="midnightblue" points="293.33,-105.1 285.7,-112.44 296.25,-111.46 293.33,-105.1"/>
</g>
<!-- Node4 -->
<g id="node4" class="node">
<title>Node4</title>
<g id="a_node4"><a xlink:href="_e57_simple_reader_8cpp.html" target="_top" xlink:title=" ">
<polygon fill="white" stroke="black" points="205.5,-0.5 205.5,-19.5 318.5,-19.5 318.5,-0.5 205.5,-0.5"/>
<text text-anchor="middle" x="262" y="-7.5" font-family="Helvetica,sans-Serif" font-size="10.00">E57SimpleReader.cpp</text>
</a>
</g>
</g>
<!-- Node3&#45;&gt;Node4 -->
<g id="edge3" class="edge">
<title>Node3&#45;&gt;Node4</title>
<path fill="none" stroke="midnightblue" d="M185.33,-51.59C204.19,-41.61 229.38,-28.27 245.65,-19.65"/>
<polygon fill="midnightblue" stroke="midnightblue" points="183.59,-48.55 176.39,-56.32 186.86,-54.74 183.59,-48.55"/>
</g>
<!-- Node5 -->
<g id="node5" class="node">
<title>Node5</title>
<g id="a_node5"><a xlink:href="_reader_impl_8cpp.html" target="_top" xlink:title=" ">
<polygon fill="white" stroke="black" points="101,-0.5 101,-19.5 187,-19.5 187,-0.5 101,-0.5"/>
<text text-anchor="middle" x="144" y="-7.5" font-family="Helvetica,sans-Serif" font-size="10.00">ReaderImpl.cpp</text>
</a>
</g>
</g>
<!-- Node3&#45;&gt;Node5 -->
<g id="edge4" class="edge">
<title>Node3&#45;&gt;Node5</title>
<path fill="none" stroke="midnightblue" d="M154.49,-46.4C151.81,-37.36 148.72,-26.94 146.59,-19.75"/>
<polygon fill="midnightblue" stroke="midnightblue" points="151.16,-47.49 157.36,-56.08 157.87,-45.5 151.16,-47.49"/>
</g>
<!-- Node7 -->
<g id="node7" class="node">
<title>Node7</title>
<g id="a_node7"><a xlink:href="_e57_simple_writer_8cpp.html" target="_top" xlink:title=" ">
<polygon fill="white" stroke="black" points="336.5,-0.5 336.5,-19.5 443.5,-19.5 443.5,-0.5 336.5,-0.5"/>
<text text-anchor="middle" x="390" y="-7.5" font-family="Helvetica,sans-Serif" font-size="10.00">E57SimpleWriter.cpp</text>
</a>
</g>
</g>
<!-- Node6&#45;&gt;Node7 -->
<g id="edge6" class="edge">
<title>Node6&#45;&gt;Node7</title>
<path fill="none" stroke="midnightblue" d="M461.43,-51.18C443.76,-41.24 420.49,-28.15 405.39,-19.65"/>
<polygon fill="midnightblue" stroke="midnightblue" points="460.14,-54.47 470.58,-56.32 463.58,-48.37 460.14,-54.47"/>
</g>
<!-- Node8 -->
<g id="node8" class="node">
<title>Node8</title>
<g id="a_node8"><a xlink:href="_writer_impl_8cpp.html" target="_top" xlink:title=" ">
<polygon fill="white" stroke="black" points="462,-0.5 462,-19.5 542,-19.5 542,-0.5 462,-0.5"/>
<text text-anchor="middle" x="502" y="-7.5" font-family="Helvetica,sans-Serif" font-size="10.00">WriterImpl.cpp</text>
</a>
</g>
</g>
<!-- Node6&#45;&gt;Node8 -->
<g id="edge7" class="edge">
<title>Node6&#45;&gt;Node8</title>
<path fill="none" stroke="midnightblue" d="M491.51,-46.4C494.19,-37.36 497.28,-26.94 499.41,-19.75"/>
<polygon fill="midnightblue" stroke="midnightblue" points="488.13,-45.5 488.64,-56.08 494.84,-47.49 488.13,-45.5"/>
</g>
<!-- Node9&#45;&gt;Node4 -->
<g id="edge9" class="edge">
<title>Node9&#45;&gt;Node4</title>
<path fill="none" stroke="midnightblue" d="M265.25,-46.1C264.42,-37.14 263.47,-26.86 262.81,-19.75"/>
<polygon fill="midnightblue" stroke="midnightblue" points="261.77,-46.45 266.17,-56.08 268.74,-45.8 261.77,-46.45"/>
</g>
<!-- Node10&#45;&gt;Node7 -->
<g id="edge11" class="edge">
<title>Node10&#45;&gt;Node7</title>
<path fill="none" stroke="midnightblue" d="M386.75,-46.1C387.58,-37.14 388.53,-26.86 389.19,-19.75"/>
<polygon fill="midnightblue" stroke="midnightblue" points="383.26,-45.8 385.83,-56.08 390.23,-46.45 383.26,-45.8"/>
</g>
</g>
</svg>
