<?xml version="1.0" encoding="UTF-8" standalone="no"?>
<!DOCTYPE svg PUBLIC "-//W3C//DTD SVG 1.1//EN"
 "http://www.w3.org/Graphics/SVG/1.1/DTD/svg11.dtd">
<!-- Generated by graphviz version 2.44.0 (20200408.0750)
 -->
<!-- Title: E57Format.h Pages: 1 -->
<svg width="1499pt" height="308pt"
 viewBox="0.00 0.00 1498.50 308.00" xmlns="http://www.w3.org/2000/svg" xmlns:xlink="http://www.w3.org/1999/xlink">
<g id="graph0" class="graph" transform="scale(1 1) rotate(0) translate(4 304)">
<title>E57Format.h</title>
<polygon fill="white" stroke="transparent" points="-4,4 -4,-304 1494.5,-304 1494.5,4 -4,4"/>
<!-- Node1 -->
<g id="node1" class="node">
<title>Node1</title>
<g id="a_node1"><a xlink:title=" ">
<polygon fill="#bfbfbf" stroke="black" points="866.5,-280.5 866.5,-299.5 939.5,-299.5 939.5,-280.5 866.5,-280.5"/>
<text text-anchor="middle" x="903" y="-287.5" font-family="Helvetica,sans-Serif" font-size="10.00">E57Format.h</text>
</a>
</g>
</g>
<!-- Node2 -->
<g id="node2" class="node">
<title>Node2</title>
<g id="a_node2"><a xlink:href="_common_8h.html" target="_top" xlink:title=" ">
<polygon fill="white" stroke="black" points="698.5,-224.5 698.5,-243.5 763.5,-243.5 763.5,-224.5 698.5,-224.5"/>
<text text-anchor="middle" x="731" y="-231.5" font-family="Helvetica,sans-Serif" font-size="10.00">Common.h</text>
</a>
</g>
</g>
<!-- Node1&#45;&gt;Node2 -->
<g id="edge1" class="edge">
<title>Node1&#45;&gt;Node2</title>
<path fill="none" stroke="midnightblue" d="M866.17,-277.44C833.74,-267.26 787.26,-252.66 758.13,-243.52"/>
<polygon fill="midnightblue" stroke="midnightblue" points="865.16,-280.79 875.75,-280.44 867.25,-274.11 865.16,-280.79"/>
</g>
<!-- Node26 -->
<g id="node26" class="node">
<title>Node26</title>
<g id="a_node26"><a xlink:href="_e57_simple_data_8h.html" target="_top" xlink:title=" ">
<polygon fill="white" stroke="black" points="1116.5,-224.5 1116.5,-243.5 1209.5,-243.5 1209.5,-224.5 1116.5,-224.5"/>
<text text-anchor="middle" x="1163" y="-231.5" font-family="Helvetica,sans-Serif" font-size="10.00">E57SimpleData.h</text>
</a>
</g>
</g>
<!-- Node1&#45;&gt;Node26 -->
<g id="edge52" class="edge">
<title>Node1&#45;&gt;Node26</title>
<path fill="none" stroke="midnightblue" d="M949.72,-279.3C998.71,-269.12 1074.94,-253.29 1121.77,-243.56"/>
<polygon fill="midnightblue" stroke="midnightblue" points="948.78,-275.92 939.7,-281.38 950.2,-282.77 948.78,-275.92"/>
</g>
<!-- Node3 -->
<g id="node3" class="node">
<title>Node3</title>
<g id="a_node3"><a xlink:href="_checked_file_8h.html" target="_top" xlink:title=" ">
<polygon fill="white" stroke="black" points="336,-56.5 336,-75.5 416,-75.5 416,-56.5 336,-56.5"/>
<text text-anchor="middle" x="376" y="-63.5" font-family="Helvetica,sans-Serif" font-size="10.00">CheckedFile.h</text>
</a>
</g>
</g>
<!-- Node2&#45;&gt;Node3 -->
<g id="edge2" class="edge">
<title>Node2&#45;&gt;Node3</title>
<path fill="none" stroke="midnightblue" d="M688.05,-233.38C606.95,-233.15 435.73,-227.82 395,-188 363.68,-157.38 370.46,-97.69 374.31,-75.54"/>
<polygon fill="midnightblue" stroke="midnightblue" points="688.41,-236.88 698.41,-233.38 688.41,-229.88 688.41,-236.88"/>
</g>
<!-- Node10 -->
<g id="node10" class="node">
<title>Node10</title>
<g id="a_node10"><a xlink:href="_common_8cpp.html" target="_top" xlink:title=" ">
<polygon fill="white" stroke="black" points="404.5,-168.5 404.5,-187.5 479.5,-187.5 479.5,-168.5 404.5,-168.5"/>
<text text-anchor="middle" x="442" y="-175.5" font-family="Helvetica,sans-Serif" font-size="10.00">Common.cpp</text>
</a>
</g>
</g>
<!-- Node2&#45;&gt;Node10 -->
<g id="edge9" class="edge">
<title>Node2&#45;&gt;Node10</title>
<path fill="none" stroke="midnightblue" d="M688.41,-225.04C632.12,-214.52 533.81,-196.15 479.95,-186.09"/>
<polygon fill="midnightblue" stroke="midnightblue" points="687.94,-228.51 698.41,-226.91 689.22,-221.63 687.94,-228.51"/>
</g>
<!-- Node11 -->
<g id="node11" class="node">
<title>Node11</title>
<g id="a_node11"><a xlink:href="_decoder_8h.html" target="_top" xlink:title=" ">
<polygon fill="white" stroke="black" points="1030.5,-56.5 1030.5,-75.5 1091.5,-75.5 1091.5,-56.5 1030.5,-56.5"/>
<text text-anchor="middle" x="1061" y="-63.5" font-family="Helvetica,sans-Serif" font-size="10.00">Decoder.h</text>
</a>
</g>
</g>
<!-- Node2&#45;&gt;Node11 -->
<g id="edge10" class="edge">
<title>Node2&#45;&gt;Node11</title>
<path fill="none" stroke="midnightblue" d="M759.43,-220.17C777.64,-211.65 801.61,-199.89 822,-188 873.97,-157.71 880.32,-139.16 934,-112 965.52,-96.05 1004.04,-83.26 1030.34,-75.45"/>
<polygon fill="midnightblue" stroke="midnightblue" points="757.83,-217.06 750.22,-224.43 760.77,-223.41 757.83,-217.06"/>
</g>
<!-- Node13 -->
<g id="node13" class="node">
<title>Node13</title>
<g id="a_node13"><a xlink:href="_packet_8h.html" target="_top" xlink:title=" ">
<polygon fill="white" stroke="black" points="536,-112.5 536,-131.5 592,-131.5 592,-112.5 536,-112.5"/>
<text text-anchor="middle" x="564" y="-119.5" font-family="Helvetica,sans-Serif" font-size="10.00">Packet.h</text>
</a>
</g>
</g>
<!-- Node2&#45;&gt;Node13 -->
<g id="edge13" class="edge">
<title>Node2&#45;&gt;Node13</title>
<path fill="none" stroke="midnightblue" d="M688.46,-224.95C662.53,-218.38 629.91,-207 606,-188 586.64,-172.62 573.41,-145.77 567.5,-131.88"/>
<polygon fill="midnightblue" stroke="midnightblue" points="687.85,-228.4 698.39,-227.31 689.47,-221.59 687.85,-228.4"/>
</g>
<!-- Node18 -->
<g id="node18" class="node">
<title>Node18</title>
<g id="a_node18"><a xlink:href="_node_impl_8h.html" target="_top" xlink:title=" ">
<polygon fill="white" stroke="black" points="697.5,-168.5 697.5,-187.5 764.5,-187.5 764.5,-168.5 697.5,-168.5"/>
<text text-anchor="middle" x="731" y="-175.5" font-family="Helvetica,sans-Serif" font-size="10.00">NodeImpl.h</text>
</a>
</g>
</g>
<!-- Node2&#45;&gt;Node18 -->
<g id="edge23" class="edge">
<title>Node2&#45;&gt;Node18</title>
<path fill="none" stroke="midnightblue" d="M731,-213.8C731,-204.91 731,-194.78 731,-187.75"/>
<polygon fill="midnightblue" stroke="midnightblue" points="727.5,-214.08 731,-224.08 734.5,-214.08 727.5,-214.08"/>
</g>
<!-- Node20 -->
<g id="node20" class="node">
<title>Node20</title>
<g id="a_node20"><a xlink:href="_image_file_impl_8h.html" target="_top" xlink:title=" ">
<polygon fill="white" stroke="black" points="560,-56.5 560,-75.5 646,-75.5 646,-56.5 560,-56.5"/>
<text text-anchor="middle" x="603" y="-63.5" font-family="Helvetica,sans-Serif" font-size="10.00">ImageFileImpl.h</text>
</a>
</g>
</g>
<!-- Node2&#45;&gt;Node20 -->
<g id="edge28" class="edge">
<title>Node2&#45;&gt;Node20</title>
<path fill="none" stroke="midnightblue" d="M715.46,-217.08C707.21,-208.54 696.95,-197.79 688,-188 665.68,-163.59 658.01,-159.06 639,-132 625.65,-113 613.28,-88.58 607.11,-75.76"/>
<polygon fill="midnightblue" stroke="midnightblue" points="713.17,-219.74 722.64,-224.48 718.19,-214.87 713.17,-219.74"/>
</g>
<!-- Node22 -->
<g id="node22" class="node">
<title>Node22</title>
<g id="a_node22"><a xlink:href="_source_dest_buffer_impl_8h.html" target="_top" xlink:title=" ">
<polygon fill="white" stroke="black" points="812,-56.5 812,-75.5 934,-75.5 934,-56.5 812,-56.5"/>
<text text-anchor="middle" x="873" y="-63.5" font-family="Helvetica,sans-Serif" font-size="10.00">SourceDestBufferImpl.h</text>
</a>
</g>
</g>
<!-- Node2&#45;&gt;Node22 -->
<g id="edge38" class="edge">
<title>Node2&#45;&gt;Node22</title>
<path fill="none" stroke="midnightblue" d="M746.55,-216.81C754.58,-208.34 764.45,-197.73 773,-188 809.15,-146.85 850.18,-95.72 866.14,-75.66"/>
<polygon fill="midnightblue" stroke="midnightblue" points="743.89,-214.53 739.53,-224.18 748.96,-219.36 743.89,-214.53"/>
</g>
<!-- Node23 -->
<g id="node23" class="node">
<title>Node23</title>
<g id="a_node23"><a xlink:href="_encoder_8h.html" target="_top" xlink:title=" ">
<polygon fill="white" stroke="black" points="952,-56.5 952,-75.5 1012,-75.5 1012,-56.5 952,-56.5"/>
<text text-anchor="middle" x="982" y="-63.5" font-family="Helvetica,sans-Serif" font-size="10.00">Encoder.h</text>
</a>
</g>
</g>
<!-- Node2&#45;&gt;Node23 -->
<g id="edge45" class="edge">
<title>Node2&#45;&gt;Node23</title>
<path fill="none" stroke="midnightblue" d="M752.86,-218.72C765.67,-210.14 782.03,-198.82 796,-188 836.86,-156.36 840.53,-139.95 884,-112 907.94,-96.61 938,-83.63 958.47,-75.63"/>
<polygon fill="midnightblue" stroke="midnightblue" points="750.64,-215.99 744.24,-224.43 754.51,-221.82 750.64,-215.99"/>
</g>
<!-- Node24 -->
<g id="node24" class="node">
<title>Node24</title>
<g id="a_node24"><a xlink:href="_e57_xml_parser_8h.html" target="_top" xlink:title=" ">
<polygon fill="white" stroke="black" points="449.5,-56.5 449.5,-75.5 536.5,-75.5 536.5,-56.5 449.5,-56.5"/>
<text text-anchor="middle" x="493" y="-63.5" font-family="Helvetica,sans-Serif" font-size="10.00">E57XmlParser.h</text>
</a>
</g>
</g>
<!-- Node2&#45;&gt;Node24 -->
<g id="edge48" class="edge">
<title>Node2&#45;&gt;Node24</title>
<path fill="none" stroke="midnightblue" d="M688.61,-225.44C658.25,-218.75 617.22,-207.02 585,-188 554.15,-169.78 548.47,-160.69 527,-132 513.11,-113.44 501.79,-88.42 496.4,-75.5"/>
<polygon fill="midnightblue" stroke="midnightblue" points="687.96,-228.88 698.47,-227.52 689.41,-222.03 687.96,-228.88"/>
</g>
<!-- Node25 -->
<g id="node25" class="node">
<title>Node25</title>
<g id="a_node25"><a xlink:href="_writer_impl_8cpp.html" target="_top" xlink:title=" ">
<polygon fill="white" stroke="black" points="943,-112.5 943,-131.5 1023,-131.5 1023,-112.5 943,-112.5"/>
<text text-anchor="middle" x="983" y="-119.5" font-family="Helvetica,sans-Serif" font-size="10.00">WriterImpl.cpp</text>
</a>
</g>
</g>
<!-- Node2&#45;&gt;Node25 -->
<g id="edge51" class="edge">
<title>Node2&#45;&gt;Node25</title>
<path fill="none" stroke="midnightblue" d="M774.04,-228.4C812.14,-222.94 868.32,-211.44 912,-188 939.39,-173.3 964.46,-145.65 976.12,-131.63"/>
<polygon fill="midnightblue" stroke="midnightblue" points="773.24,-224.97 763.8,-229.78 774.18,-231.91 773.24,-224.97"/>
</g>
<!-- Node4 -->
<g id="node4" class="node">
<title>Node4</title>
<g id="a_node4"><a xlink:href="_checked_file_8cpp.html" target="_top" xlink:title=" ">
<polygon fill="white" stroke="black" points="220,-0.5 220,-19.5 310,-19.5 310,-0.5 220,-0.5"/>
<text text-anchor="middle" x="265" y="-7.5" font-family="Helvetica,sans-Serif" font-size="10.00">CheckedFile.cpp</text>
</a>
</g>
</g>
<!-- Node3&#45;&gt;Node4 -->
<g id="edge3" class="edge">
<title>Node3&#45;&gt;Node4</title>
<path fill="none" stroke="midnightblue" d="M348.99,-51.86C328.41,-41.85 300.66,-28.35 282.79,-19.65"/>
<polygon fill="midnightblue" stroke="midnightblue" points="347.64,-55.1 358.17,-56.32 350.7,-48.8 347.64,-55.1"/>
</g>
<!-- Node5 -->
<g id="node5" class="node">
<title>Node5</title>
<g id="a_node5"><a xlink:href="_e57_format_impl_8cpp.html" target="_top" xlink:title=" ">
<polygon fill="white" stroke="black" points="996,-0.5 996,-19.5 1098,-19.5 1098,-0.5 996,-0.5"/>
<text text-anchor="middle" x="1047" y="-7.5" font-family="Helvetica,sans-Serif" font-size="10.00">E57FormatImpl.cpp</text>
</a>
</g>
</g>
<!-- Node3&#45;&gt;Node5 -->
<g id="edge4" class="edge">
<title>Node3&#45;&gt;Node5</title>
<path fill="none" stroke="midnightblue" d="M426.3,-57.57C430.93,-56.99 435.55,-56.46 440,-56 681.91,-31.05 744.18,-45.77 986,-20 989.19,-19.66 992.48,-19.28 995.78,-18.86"/>
<polygon fill="midnightblue" stroke="midnightblue" points="425.69,-54.12 416.23,-58.88 426.6,-61.06 425.69,-54.12"/>
</g>
<!-- Node6 -->
<g id="node6" class="node">
<title>Node6</title>
<g id="a_node6"><a xlink:href="_e57_xml_parser_8cpp.html" target="_top" xlink:title=" ">
<polygon fill="white" stroke="black" points="328,-0.5 328,-19.5 426,-19.5 426,-0.5 328,-0.5"/>
<text text-anchor="middle" x="377" y="-7.5" font-family="Helvetica,sans-Serif" font-size="10.00">E57XmlParser.cpp</text>
</a>
</g>
</g>
<!-- Node3&#45;&gt;Node6 -->
<g id="edge5" class="edge">
<title>Node3&#45;&gt;Node6</title>
<path fill="none" stroke="midnightblue" d="M376.36,-45.8C376.52,-36.91 376.71,-26.78 376.84,-19.75"/>
<polygon fill="midnightblue" stroke="midnightblue" points="372.85,-46.02 376.17,-56.08 379.85,-46.15 372.85,-46.02"/>
</g>
<!-- Node7 -->
<g id="node7" class="node">
<title>Node7</title>
<g id="a_node7"><a xlink:href="_image_file_impl_8cpp.html" target="_top" xlink:title=" ">
<polygon fill="white" stroke="black" points="444.5,-0.5 444.5,-19.5 541.5,-19.5 541.5,-0.5 444.5,-0.5"/>
<text text-anchor="middle" x="493" y="-7.5" font-family="Helvetica,sans-Serif" font-size="10.00">ImageFileImpl.cpp</text>
</a>
</g>
</g>
<!-- Node3&#45;&gt;Node7 -->
<g id="edge6" class="edge">
<title>Node3&#45;&gt;Node7</title>
<path fill="none" stroke="midnightblue" d="M403.66,-52.23C425.55,-42.13 455.5,-28.31 474.55,-19.52"/>
<polygon fill="midnightblue" stroke="midnightblue" points="402.15,-49.08 394.54,-56.44 405.09,-55.43 402.15,-49.08"/>
</g>
<!-- Node8 -->
<g id="node8" class="node">
<title>Node8</title>
<g id="a_node8"><a xlink:href="_packet_8cpp.html" target="_top" xlink:title=" ">
<polygon fill="white" stroke="black" points="0,-0.5 0,-19.5 66,-19.5 66,-0.5 0,-0.5"/>
<text text-anchor="middle" x="33" y="-7.5" font-family="Helvetica,sans-Serif" font-size="10.00">Packet.cpp</text>
</a>
</g>
</g>
<!-- Node3&#45;&gt;Node8 -->
<g id="edge7" class="edge">
<title>Node3&#45;&gt;Node8</title>
<path fill="none" stroke="midnightblue" d="M326,-58.5C266.15,-50.5 162.97,-35.98 75,-20 72.21,-19.49 69.33,-18.94 66.43,-18.36"/>
<polygon fill="midnightblue" stroke="midnightblue" points="325.57,-61.98 335.94,-59.82 326.49,-55.04 325.57,-61.98"/>
</g>
<!-- Node9 -->
<g id="node9" class="node">
<title>Node9</title>
<g id="a_node9"><a xlink:href="_structure_node_impl_8cpp.html" target="_top" xlink:title=" ">
<polygon fill="white" stroke="black" points="84.5,-0.5 84.5,-19.5 201.5,-19.5 201.5,-0.5 84.5,-0.5"/>
<text text-anchor="middle" x="143" y="-7.5" font-family="Helvetica,sans-Serif" font-size="10.00">StructureNodeImpl.cpp</text>
</a>
</g>
</g>
<!-- Node3&#45;&gt;Node9 -->
<g id="edge8" class="edge">
<title>Node3&#45;&gt;Node9</title>
<path fill="none" stroke="midnightblue" d="M329.2,-54.15C285.17,-43.95 220.15,-28.88 179.75,-19.52"/>
<polygon fill="midnightblue" stroke="midnightblue" points="328.55,-57.6 339.08,-56.44 330.13,-50.78 328.55,-57.6"/>
</g>
<!-- Node11&#45;&gt;Node5 -->
<g id="edge12" class="edge">
<title>Node11&#45;&gt;Node5</title>
<path fill="none" stroke="midnightblue" d="M1056.18,-46.4C1053.83,-37.36 1051.13,-26.94 1049.27,-19.75"/>
<polygon fill="midnightblue" stroke="midnightblue" points="1052.79,-47.28 1058.69,-56.08 1059.57,-45.52 1052.79,-47.28"/>
</g>
<!-- Node12 -->
<g id="node12" class="node">
<title>Node12</title>
<g id="a_node12"><a xlink:href="_decoder_8cpp.html" target="_top" xlink:title=" ">
<polygon fill="white" stroke="black" points="1116.5,-0.5 1116.5,-19.5 1187.5,-19.5 1187.5,-0.5 1116.5,-0.5"/>
<text text-anchor="middle" x="1152" y="-7.5" font-family="Helvetica,sans-Serif" font-size="10.00">Decoder.cpp</text>
</a>
</g>
</g>
<!-- Node11&#45;&gt;Node12 -->
<g id="edge11" class="edge">
<title>Node11&#45;&gt;Node12</title>
<path fill="none" stroke="midnightblue" d="M1084.29,-51.18C1101.04,-41.24 1123.1,-28.15 1137.42,-19.65"/>
<polygon fill="midnightblue" stroke="midnightblue" points="1082.43,-48.21 1075.62,-56.32 1086.01,-54.23 1082.43,-48.21"/>
</g>
<!-- Node13&#45;&gt;Node8 -->
<g id="edge22" class="edge">
<title>Node13&#45;&gt;Node8</title>
<path fill="none" stroke="midnightblue" d="M525.92,-117.98C464.24,-112.59 338.89,-99.63 235,-76 168.18,-60.8 91.83,-33.38 55.06,-19.51"/>
<polygon fill="midnightblue" stroke="midnightblue" points="525.71,-121.47 535.97,-118.84 526.31,-114.5 525.71,-121.47"/>
</g>
<!-- Node14 -->
<g id="node14" class="node">
<title>Node14</title>
<g id="a_node14"><a xlink:href="_e57_format_impl_8h.html" target="_top" xlink:title=" ">
<polygon fill="white" stroke="black" points="664,-56.5 664,-75.5 756,-75.5 756,-56.5 664,-56.5"/>
<text text-anchor="middle" x="710" y="-63.5" font-family="Helvetica,sans-Serif" font-size="10.00">E57FormatImpl.h</text>
</a>
</g>
</g>
<!-- Node13&#45;&gt;Node14 -->
<g id="edge14" class="edge">
<title>Node13&#45;&gt;Node14</title>
<path fill="none" stroke="midnightblue" d="M596.7,-108.91C624.15,-98.75 662.67,-84.51 686.97,-75.52"/>
<polygon fill="midnightblue" stroke="midnightblue" points="595.3,-105.69 587.13,-112.44 597.73,-112.26 595.3,-105.69"/>
</g>
<!-- Node14&#45;&gt;Node5 -->
<g id="edge17" class="edge">
<title>Node14&#45;&gt;Node5</title>
<path fill="none" stroke="midnightblue" d="M766.08,-56.01C830.12,-45.75 934.02,-29.1 995.9,-19.19"/>
<polygon fill="midnightblue" stroke="midnightblue" points="765.47,-52.57 756.15,-57.6 766.58,-59.48 765.47,-52.57"/>
</g>
<!-- Node14&#45;&gt;Node6 -->
<g id="edge18" class="edge">
<title>Node14&#45;&gt;Node6</title>
<path fill="none" stroke="midnightblue" d="M653.88,-55.82C568.03,-41.85 479.72,-27.58 426.22,-18.94"/>
<polygon fill="midnightblue" stroke="midnightblue" points="653.36,-59.28 663.79,-57.43 654.48,-52.37 653.36,-59.28"/>
</g>
<!-- Node14&#45;&gt;Node7 -->
<g id="edge20" class="edge">
<title>Node14&#45;&gt;Node7</title>
<path fill="none" stroke="midnightblue" d="M665.89,-54.02C624.9,-43.82 564.7,-28.84 527.22,-19.52"/>
<polygon fill="midnightblue" stroke="midnightblue" points="665.07,-57.43 675.62,-56.44 666.76,-50.63 665.07,-57.43"/>
</g>
<!-- Node14&#45;&gt;Node12 -->
<g id="edge15" class="edge">
<title>Node14&#45;&gt;Node12</title>
<path fill="none" stroke="midnightblue" d="M766.3,-59.21C859.7,-49.51 1042.76,-30.05 1107,-20 1109.99,-19.53 1113.09,-19 1116.19,-18.45"/>
<polygon fill="midnightblue" stroke="midnightblue" points="765.77,-55.75 756.19,-60.26 766.5,-62.71 765.77,-55.75"/>
</g>
<!-- Node15 -->
<g id="node15" class="node">
<title>Node15</title>
<g id="a_node15"><a xlink:href="_e57_format_8cpp.html" target="_top" xlink:title=" ">
<polygon fill="white" stroke="black" points="559.5,-0.5 559.5,-19.5 642.5,-19.5 642.5,-0.5 559.5,-0.5"/>
<text text-anchor="middle" x="601" y="-7.5" font-family="Helvetica,sans-Serif" font-size="10.00">E57Format.cpp</text>
</a>
</g>
</g>
<!-- Node14&#45;&gt;Node15 -->
<g id="edge16" class="edge">
<title>Node14&#45;&gt;Node15</title>
<path fill="none" stroke="midnightblue" d="M683.48,-51.86C663.27,-41.85 636.01,-28.35 618.47,-19.65"/>
<polygon fill="midnightblue" stroke="midnightblue" points="681.97,-55.02 692.49,-56.32 685.08,-48.75 681.97,-55.02"/>
</g>
<!-- Node16 -->
<g id="node16" class="node">
<title>Node16</title>
<g id="a_node16"><a xlink:href="_encoder_8cpp.html" target="_top" xlink:title=" ">
<polygon fill="white" stroke="black" points="906.5,-0.5 906.5,-19.5 977.5,-19.5 977.5,-0.5 906.5,-0.5"/>
<text text-anchor="middle" x="942" y="-7.5" font-family="Helvetica,sans-Serif" font-size="10.00">Encoder.cpp</text>
</a>
</g>
</g>
<!-- Node14&#45;&gt;Node16 -->
<g id="edge19" class="edge">
<title>Node14&#45;&gt;Node16</title>
<path fill="none" stroke="midnightblue" d="M756.66,-54.14C800.77,-43.87 866.02,-28.69 906.17,-19.34"/>
<polygon fill="midnightblue" stroke="midnightblue" points="755.71,-50.77 746.76,-56.44 757.29,-57.59 755.71,-50.77"/>
</g>
<!-- Node17 -->
<g id="node17" class="node">
<title>Node17</title>
<g id="a_node17"><a xlink:href="_node_impl_8cpp.html" target="_top" xlink:title=" ">
<polygon fill="white" stroke="black" points="811.5,-0.5 811.5,-19.5 888.5,-19.5 888.5,-0.5 811.5,-0.5"/>
<text text-anchor="middle" x="850" y="-7.5" font-family="Helvetica,sans-Serif" font-size="10.00">NodeImpl.cpp</text>
</a>
</g>
</g>
<!-- Node14&#45;&gt;Node17 -->
<g id="edge21" class="edge">
<title>Node14&#45;&gt;Node17</title>
<path fill="none" stroke="midnightblue" d="M741.7,-52.77C768,-42.63 804.72,-28.47 827.92,-19.52"/>
<polygon fill="midnightblue" stroke="midnightblue" points="740.25,-49.58 732.18,-56.44 742.77,-56.11 740.25,-49.58"/>
</g>
<!-- Node18&#45;&gt;Node17 -->
<g id="edge27" class="edge">
<title>Node18&#45;&gt;Node17</title>
<path fill="none" stroke="midnightblue" d="M744.27,-160.24C750.57,-151.96 758.02,-141.68 764,-132 783.96,-99.7 780.31,-86.44 803,-56 813.53,-41.87 828.68,-28.25 838.91,-19.77"/>
<polygon fill="midnightblue" stroke="midnightblue" points="741.37,-158.28 738,-168.32 746.9,-162.57 741.37,-158.28"/>
</g>
<!-- Node19 -->
<g id="node19" class="node">
<title>Node19</title>
<g id="a_node19"><a xlink:href="_structure_node_impl_8h.html" target="_top" xlink:title=" ">
<polygon fill="white" stroke="black" points="648.5,-112.5 648.5,-131.5 755.5,-131.5 755.5,-112.5 648.5,-112.5"/>
<text text-anchor="middle" x="702" y="-119.5" font-family="Helvetica,sans-Serif" font-size="10.00">StructureNodeImpl.h</text>
</a>
</g>
</g>
<!-- Node18&#45;&gt;Node19 -->
<g id="edge24" class="edge">
<title>Node18&#45;&gt;Node19</title>
<path fill="none" stroke="midnightblue" d="M721.32,-158.98C716.4,-149.82 710.64,-139.09 706.7,-131.75"/>
<polygon fill="midnightblue" stroke="midnightblue" points="718.4,-160.93 726.21,-168.08 724.56,-157.62 718.4,-160.93"/>
</g>
<!-- Node19&#45;&gt;Node9 -->
<g id="edge26" class="edge">
<title>Node19&#45;&gt;Node9</title>
<path fill="none" stroke="midnightblue" d="M638.12,-115.05C547.06,-106.27 384.56,-89.45 327,-76 265.47,-61.63 195.94,-33.7 162.72,-19.59"/>
<polygon fill="midnightblue" stroke="midnightblue" points="638.04,-118.56 648.32,-116.03 638.7,-111.59 638.04,-118.56"/>
</g>
<!-- Node19&#45;&gt;Node14 -->
<g id="edge25" class="edge">
<title>Node19&#45;&gt;Node14</title>
<path fill="none" stroke="midnightblue" d="M704.8,-102.1C706.13,-93.14 707.65,-82.86 708.7,-75.75"/>
<polygon fill="midnightblue" stroke="midnightblue" points="701.32,-101.68 703.32,-112.08 708.25,-102.7 701.32,-101.68"/>
</g>
<!-- Node20&#45;&gt;Node5 -->
<g id="edge31" class="edge">
<title>Node20&#45;&gt;Node5</title>
<path fill="none" stroke="midnightblue" d="M656.4,-55.88C803.28,-35.51 842.52,-38.38 986,-20 989.19,-19.59 992.46,-19.16 995.76,-18.7"/>
<polygon fill="midnightblue" stroke="midnightblue" points="655.52,-52.47 646.1,-57.33 656.49,-59.41 655.52,-52.47"/>
</g>
<!-- Node20&#45;&gt;Node6 -->
<g id="edge32" class="edge">
<title>Node20&#45;&gt;Node6</title>
<path fill="none" stroke="midnightblue" d="M557.33,-54.09C514.64,-43.89 451.75,-28.86 412.64,-19.52"/>
<polygon fill="midnightblue" stroke="midnightblue" points="556.65,-57.52 567.19,-56.44 558.28,-50.72 556.65,-57.52"/>
</g>
<!-- Node20&#45;&gt;Node7 -->
<g id="edge34" class="edge">
<title>Node20&#45;&gt;Node7</title>
<path fill="none" stroke="midnightblue" d="M576.24,-51.86C555.84,-41.85 528.33,-28.35 510.63,-19.65"/>
<polygon fill="midnightblue" stroke="midnightblue" points="574.81,-55.06 585.33,-56.32 577.89,-48.78 574.81,-55.06"/>
</g>
<!-- Node20&#45;&gt;Node9 -->
<g id="edge37" class="edge">
<title>Node20&#45;&gt;Node9</title>
<path fill="none" stroke="midnightblue" d="M549.6,-56.62C548.05,-56.41 546.52,-56.2 545,-56 396.97,-36.55 359.24,-37.8 211,-20 207.93,-19.63 204.77,-19.24 201.59,-18.85"/>
<polygon fill="midnightblue" stroke="midnightblue" points="549.56,-60.15 559.96,-58.09 550.55,-53.22 549.56,-60.15"/>
</g>
<!-- Node20&#45;&gt;Node12 -->
<g id="edge29" class="edge">
<title>Node20&#45;&gt;Node12</title>
<path fill="none" stroke="midnightblue" d="M656.06,-55.98C856.67,-31.33 910.62,-47.36 1107,-20 1110,-19.58 1113.1,-19.09 1116.2,-18.56"/>
<polygon fill="midnightblue" stroke="midnightblue" points="655.57,-52.52 646.08,-57.23 656.44,-59.46 655.57,-52.52"/>
</g>
<!-- Node20&#45;&gt;Node15 -->
<g id="edge30" class="edge">
<title>Node20&#45;&gt;Node15</title>
<path fill="none" stroke="midnightblue" d="M602.29,-45.8C601.96,-36.91 601.58,-26.78 601.32,-19.75"/>
<polygon fill="midnightblue" stroke="midnightblue" points="598.8,-46.22 602.67,-56.08 605.8,-45.96 598.8,-46.22"/>
</g>
<!-- Node20&#45;&gt;Node16 -->
<g id="edge33" class="edge">
<title>Node20&#45;&gt;Node16</title>
<path fill="none" stroke="midnightblue" d="M656.11,-55.86C764.04,-38.71 793.01,-38.12 897,-20 899.98,-19.48 903.07,-18.92 906.17,-18.33"/>
<polygon fill="midnightblue" stroke="midnightblue" points="655.44,-52.42 646.12,-57.46 656.54,-59.33 655.44,-52.42"/>
</g>
<!-- Node20&#45;&gt;Node17 -->
<g id="edge35" class="edge">
<title>Node20&#45;&gt;Node17</title>
<path fill="none" stroke="midnightblue" d="M652.06,-54.27C698.88,-44.04 768.48,-28.82 811.45,-19.43"/>
<polygon fill="midnightblue" stroke="midnightblue" points="651.16,-50.89 642.14,-56.44 652.65,-57.73 651.16,-50.89"/>
</g>
<!-- Node21 -->
<g id="node21" class="node">
<title>Node21</title>
<g id="a_node21"><a xlink:href="_source_dest_buffer_impl_8cpp.html" target="_top" xlink:title=" ">
<polygon fill="white" stroke="black" points="661,-0.5 661,-19.5 793,-19.5 793,-0.5 661,-0.5"/>
<text text-anchor="middle" x="727" y="-7.5" font-family="Helvetica,sans-Serif" font-size="10.00">SourceDestBufferImpl.cpp</text>
</a>
</g>
</g>
<!-- Node20&#45;&gt;Node21 -->
<g id="edge36" class="edge">
<title>Node20&#45;&gt;Node21</title>
<path fill="none" stroke="midnightblue" d="M632.01,-52.37C655.23,-42.26 687.16,-28.35 707.44,-19.52"/>
<polygon fill="midnightblue" stroke="midnightblue" points="630.42,-49.24 622.65,-56.44 633.21,-55.66 630.42,-49.24"/>
</g>
<!-- Node22&#45;&gt;Node5 -->
<g id="edge41" class="edge">
<title>Node22&#45;&gt;Node5</title>
<path fill="none" stroke="midnightblue" d="M910.26,-53.44C943.07,-43.26 990.08,-28.66 1019.56,-19.52"/>
<polygon fill="midnightblue" stroke="midnightblue" points="909.08,-50.14 900.57,-56.44 911.16,-56.82 909.08,-50.14"/>
</g>
<!-- Node22&#45;&gt;Node12 -->
<g id="edge39" class="edge">
<title>Node22&#45;&gt;Node12</title>
<path fill="none" stroke="midnightblue" d="M927.94,-54.55C975.37,-45.51 1045.73,-32.02 1107,-20 1109.97,-19.42 1113.05,-18.81 1116.14,-18.2"/>
<polygon fill="midnightblue" stroke="midnightblue" points="927.05,-51.16 917.88,-56.47 928.36,-58.04 927.05,-51.16"/>
</g>
<!-- Node22&#45;&gt;Node15 -->
<g id="edge40" class="edge">
<title>Node22&#45;&gt;Node15</title>
<path fill="none" stroke="midnightblue" d="M819.89,-54.46C768,-44.15 690.08,-28.69 642.56,-19.25"/>
<polygon fill="midnightblue" stroke="midnightblue" points="819.41,-57.93 829.9,-56.44 820.77,-51.06 819.41,-57.93"/>
</g>
<!-- Node22&#45;&gt;Node16 -->
<g id="edge42" class="edge">
<title>Node22&#45;&gt;Node16</title>
<path fill="none" stroke="midnightblue" d="M892.04,-50.1C904.46,-40.38 920.24,-28.03 930.71,-19.83"/>
<polygon fill="midnightblue" stroke="midnightblue" points="889.8,-47.4 884.09,-56.32 894.12,-52.92 889.8,-47.4"/>
</g>
<!-- Node22&#45;&gt;Node17 -->
<g id="edge43" class="edge">
<title>Node22&#45;&gt;Node17</title>
<path fill="none" stroke="midnightblue" d="M865.2,-46.69C861.32,-37.59 856.82,-27.01 853.73,-19.75"/>
<polygon fill="midnightblue" stroke="midnightblue" points="862.06,-48.25 869.2,-56.08 868.5,-45.51 862.06,-48.25"/>
</g>
<!-- Node22&#45;&gt;Node21 -->
<g id="edge44" class="edge">
<title>Node22&#45;&gt;Node21</title>
<path fill="none" stroke="midnightblue" d="M840.3,-52.91C812.85,-42.75 774.33,-28.51 750.03,-19.52"/>
<polygon fill="midnightblue" stroke="midnightblue" points="839.27,-56.26 849.87,-56.44 841.7,-49.69 839.27,-56.26"/>
</g>
<!-- Node23&#45;&gt;Node5 -->
<g id="edge46" class="edge">
<title>Node23&#45;&gt;Node5</title>
<path fill="none" stroke="midnightblue" d="M1000.27,-49.82C1011.92,-40.15 1026.6,-27.95 1036.37,-19.83"/>
<polygon fill="midnightblue" stroke="midnightblue" points="997.9,-47.24 992.44,-56.32 1002.37,-52.63 997.9,-47.24"/>
</g>
<!-- Node23&#45;&gt;Node16 -->
<g id="edge47" class="edge">
<title>Node23&#45;&gt;Node16</title>
<path fill="none" stroke="midnightblue" d="M969.3,-47.86C962.37,-38.5 954.09,-27.33 948.48,-19.75"/>
<polygon fill="midnightblue" stroke="midnightblue" points="966.63,-50.13 975.39,-56.08 972.25,-45.96 966.63,-50.13"/>
</g>
<!-- Node24&#45;&gt;Node6 -->
<g id="edge49" class="edge">
<title>Node24&#45;&gt;Node6</title>
<path fill="none" stroke="midnightblue" d="M465.28,-52.1C443.61,-42.01 414.1,-28.27 395.29,-19.52"/>
<polygon fill="midnightblue" stroke="midnightblue" points="464.08,-55.4 474.62,-56.44 467.03,-49.05 464.08,-55.4"/>
</g>
<!-- Node24&#45;&gt;Node7 -->
<g id="edge50" class="edge">
<title>Node24&#45;&gt;Node7</title>
<path fill="none" stroke="midnightblue" d="M493,-45.8C493,-36.91 493,-26.78 493,-19.75"/>
<polygon fill="midnightblue" stroke="midnightblue" points="489.5,-46.08 493,-56.08 496.5,-46.08 489.5,-46.08"/>
</g>
<!-- Node27 -->
<g id="node27" class="node">
<title>Node27</title>
<g id="a_node27"><a xlink:href="_e57_simple_data_8cpp.html" target="_top" xlink:title=" ">
<polygon fill="white" stroke="black" points="1052,-168.5 1052,-187.5 1156,-187.5 1156,-168.5 1052,-168.5"/>
<text text-anchor="middle" x="1104" y="-175.5" font-family="Helvetica,sans-Serif" font-size="10.00">E57SimpleData.cpp</text>
</a>
</g>
</g>
<!-- Node26&#45;&gt;Node27 -->
<g id="edge53" class="edge">
<title>Node26&#45;&gt;Node27</title>
<path fill="none" stroke="midnightblue" d="M1146.11,-217.54C1135.59,-207.91 1122.43,-195.87 1113.65,-187.83"/>
<polygon fill="midnightblue" stroke="midnightblue" points="1143.78,-220.15 1153.52,-224.32 1148.51,-214.99 1143.78,-220.15"/>
</g>
<!-- Node28 -->
<g id="node28" class="node">
<title>Node28</title>
<g id="a_node28"><a xlink:href="_reader_impl_8h.html" target="_top" xlink:title=" ">
<polygon fill="white" stroke="black" points="1289.5,-168.5 1289.5,-187.5 1364.5,-187.5 1364.5,-168.5 1289.5,-168.5"/>
<text text-anchor="middle" x="1327" y="-175.5" font-family="Helvetica,sans-Serif" font-size="10.00">ReaderImpl.h</text>
</a>
</g>
</g>
<!-- Node26&#45;&gt;Node28 -->
<g id="edge54" class="edge">
<title>Node26&#45;&gt;Node28</title>
<path fill="none" stroke="midnightblue" d="M1198.52,-221.3C1229.42,-211.13 1273.47,-196.62 1301.14,-187.52"/>
<polygon fill="midnightblue" stroke="midnightblue" points="1197.39,-217.99 1188.99,-224.44 1199.58,-224.64 1197.39,-217.99"/>
</g>
<!-- Node31 -->
<g id="node31" class="node">
<title>Node31</title>
<g id="a_node31"><a xlink:href="_writer_impl_8h.html" target="_top" xlink:title=" ">
<polygon fill="white" stroke="black" points="964.5,-168.5 964.5,-187.5 1033.5,-187.5 1033.5,-168.5 964.5,-168.5"/>
<text text-anchor="middle" x="999" y="-175.5" font-family="Helvetica,sans-Serif" font-size="10.00">WriterImpl.h</text>
</a>
</g>
</g>
<!-- Node26&#45;&gt;Node31 -->
<g id="edge57" class="edge">
<title>Node26&#45;&gt;Node31</title>
<path fill="none" stroke="midnightblue" d="M1127.48,-221.3C1096.58,-211.13 1052.53,-196.62 1024.86,-187.52"/>
<polygon fill="midnightblue" stroke="midnightblue" points="1126.42,-224.64 1137.01,-224.44 1128.61,-217.99 1126.42,-224.64"/>
</g>
<!-- Node33 -->
<g id="node33" class="node">
<title>Node33</title>
<g id="a_node33"><a xlink:href="_e57_simple_reader_8h.html" target="_top" xlink:title=" ">
<polygon fill="white" stroke="black" points="1382.5,-168.5 1382.5,-187.5 1485.5,-187.5 1485.5,-168.5 1382.5,-168.5"/>
<text text-anchor="middle" x="1434" y="-175.5" font-family="Helvetica,sans-Serif" font-size="10.00">E57SimpleReader.h</text>
</a>
</g>
</g>
<!-- Node26&#45;&gt;Node33 -->
<g id="edge60" class="edge">
<title>Node26&#45;&gt;Node33</title>
<path fill="none" stroke="midnightblue" d="M1215.83,-222.47C1267.04,-212.27 1343.77,-196.98 1391.26,-187.52"/>
<polygon fill="midnightblue" stroke="midnightblue" points="1215.06,-219.06 1205.94,-224.44 1216.43,-225.92 1215.06,-219.06"/>
</g>
<!-- Node34 -->
<g id="node34" class="node">
<title>Node34</title>
<g id="a_node34"><a xlink:href="_e57_simple_writer_8h.html" target="_top" xlink:title=" ">
<polygon fill="white" stroke="black" points="1174.5,-168.5 1174.5,-187.5 1271.5,-187.5 1271.5,-168.5 1174.5,-168.5"/>
<text text-anchor="middle" x="1223" y="-175.5" font-family="Helvetica,sans-Serif" font-size="10.00">E57SimpleWriter.h</text>
</a>
</g>
</g>
<!-- Node26&#45;&gt;Node34 -->
<g id="edge62" class="edge">
<title>Node26&#45;&gt;Node34</title>
<path fill="none" stroke="midnightblue" d="M1180.18,-217.54C1190.88,-207.91 1204.26,-195.87 1213.18,-187.83"/>
<polygon fill="midnightblue" stroke="midnightblue" points="1177.73,-215.03 1172.64,-224.32 1182.41,-220.24 1177.73,-215.03"/>
</g>
<!-- Node29 -->
<g id="node29" class="node">
<title>Node29</title>
<g id="a_node29"><a xlink:href="_e57_simple_reader_8cpp.html" target="_top" xlink:title=" ">
<polygon fill="white" stroke="black" points="1377.5,-112.5 1377.5,-131.5 1490.5,-131.5 1490.5,-112.5 1377.5,-112.5"/>
<text text-anchor="middle" x="1434" y="-119.5" font-family="Helvetica,sans-Serif" font-size="10.00">E57SimpleReader.cpp</text>
</a>
</g>
</g>
<!-- Node28&#45;&gt;Node29 -->
<g id="edge55" class="edge">
<title>Node28&#45;&gt;Node29</title>
<path fill="none" stroke="midnightblue" d="M1353.3,-163.73C1373.11,-153.73 1399.71,-140.31 1416.85,-131.65"/>
<polygon fill="midnightblue" stroke="midnightblue" points="1351.54,-160.69 1344.19,-168.32 1354.7,-166.94 1351.54,-160.69"/>
</g>
<!-- Node30 -->
<g id="node30" class="node">
<title>Node30</title>
<g id="a_node30"><a xlink:href="_reader_impl_8cpp.html" target="_top" xlink:title=" ">
<polygon fill="white" stroke="black" points="1273,-112.5 1273,-131.5 1359,-131.5 1359,-112.5 1273,-112.5"/>
<text text-anchor="middle" x="1316" y="-119.5" font-family="Helvetica,sans-Serif" font-size="10.00">ReaderImpl.cpp</text>
</a>
</g>
</g>
<!-- Node28&#45;&gt;Node30 -->
<g id="edge56" class="edge">
<title>Node28&#45;&gt;Node30</title>
<path fill="none" stroke="midnightblue" d="M1323.15,-158.1C1321.32,-149.14 1319.23,-138.86 1317.78,-131.75"/>
<polygon fill="midnightblue" stroke="midnightblue" points="1319.76,-158.98 1325.18,-168.08 1326.62,-157.59 1319.76,-158.98"/>
</g>
<!-- Node31&#45;&gt;Node25 -->
<g id="edge59" class="edge">
<title>Node31&#45;&gt;Node25</title>
<path fill="none" stroke="midnightblue" d="M993.49,-158.4C990.81,-149.36 987.72,-138.94 985.59,-131.75"/>
<polygon fill="midnightblue" stroke="midnightblue" points="990.16,-159.49 996.36,-168.08 996.87,-157.5 990.16,-159.49"/>
</g>
<!-- Node32 -->
<g id="node32" class="node">
<title>Node32</title>
<g id="a_node32"><a xlink:href="_e57_simple_writer_8cpp.html" target="_top" xlink:title=" ">
<polygon fill="white" stroke="black" points="1094.5,-112.5 1094.5,-131.5 1201.5,-131.5 1201.5,-112.5 1094.5,-112.5"/>
<text text-anchor="middle" x="1148" y="-119.5" font-family="Helvetica,sans-Serif" font-size="10.00">E57SimpleWriter.cpp</text>
</a>
</g>
</g>
<!-- Node31&#45;&gt;Node32 -->
<g id="edge58" class="edge">
<title>Node31&#45;&gt;Node32</title>
<path fill="none" stroke="midnightblue" d="M1032.37,-164.91C1060.38,-154.75 1099.7,-140.51 1124.5,-131.52"/>
<polygon fill="midnightblue" stroke="midnightblue" points="1030.82,-161.75 1022.61,-168.44 1033.2,-168.33 1030.82,-161.75"/>
</g>
<!-- Node33&#45;&gt;Node29 -->
<g id="edge61" class="edge">
<title>Node33&#45;&gt;Node29</title>
<path fill="none" stroke="midnightblue" d="M1434,-157.8C1434,-148.91 1434,-138.78 1434,-131.75"/>
<polygon fill="midnightblue" stroke="midnightblue" points="1430.5,-158.08 1434,-168.08 1437.5,-158.08 1430.5,-158.08"/>
</g>
<!-- Node34&#45;&gt;Node32 -->
<g id="edge63" class="edge">
<title>Node34&#45;&gt;Node32</title>
<path fill="none" stroke="midnightblue" d="M1202.69,-162.38C1189.14,-152.62 1171.76,-140.11 1160.27,-131.83"/>
<polygon fill="midnightblue" stroke="midnightblue" points="1200.79,-165.32 1210.95,-168.32 1204.88,-159.64 1200.79,-165.32"/>
</g>
</g>
</svg>
