<?xml version="1.0" encoding="UTF-8" standalone="no"?>
<!DOCTYPE svg PUBLIC "-//W3C//DTD SVG 1.1//EN"
 "http://www.w3.org/Graphics/SVG/1.1/DTD/svg11.dtd">
<!-- Generated by graphviz version 2.44.0 (20200408.0750)
 -->
<!-- Title: E57XmlParser.cpp Pages: 1 -->
<svg width="1370pt" height="420pt"
 viewBox="0.00 0.00 1369.50 420.00" xmlns="http://www.w3.org/2000/svg" xmlns:xlink="http://www.w3.org/1999/xlink">
<g id="graph0" class="graph" transform="scale(1 1) rotate(0) translate(4 416)">
<title>E57XmlParser.cpp</title>
<polygon fill="white" stroke="transparent" points="-4,4 -4,-416 1365.5,-416 1365.5,4 -4,4"/>
<!-- Node1 -->
<g id="node1" class="node">
<title>Node1</title>
<g id="a_node1"><a xlink:title=" ">
<polygon fill="#bfbfbf" stroke="black" points="621.5,-392.5 621.5,-411.5 719.5,-411.5 719.5,-392.5 621.5,-392.5"/>
<text text-anchor="middle" x="670.5" y="-399.5" font-family="Helvetica,sans-Serif" font-size="10.00">E57XmlParser.cpp</text>
</a>
</g>
</g>
<!-- Node2 -->
<g id="node2" class="node">
<title>Node2</title>
<g id="a_node2"><a xlink:title=" ">
<polygon fill="white" stroke="#bfbfbf" points="0,-336.5 0,-355.5 139,-355.5 139,-336.5 0,-336.5"/>
<text text-anchor="middle" x="69.5" y="-343.5" font-family="Helvetica,sans-Serif" font-size="10.00">xercesc/sax2/Attributes.hpp</text>
</a>
</g>
</g>
<!-- Node1&#45;&gt;Node2 -->
<g id="edge1" class="edge">
<title>Node1&#45;&gt;Node2</title>
<path fill="none" stroke="midnightblue" d="M621.16,-397.2C530.2,-390.1 329.67,-373.98 149.47,-356.07"/>
<polygon fill="midnightblue" stroke="midnightblue" points="149.57,-352.56 139.28,-355.05 148.88,-359.53 149.57,-352.56"/>
</g>
<!-- Node3 -->
<g id="node3" class="node">
<title>Node3</title>
<g id="a_node3"><a xlink:title=" ">
<polygon fill="white" stroke="#bfbfbf" points="157.5,-336.5 157.5,-355.5 337.5,-355.5 337.5,-336.5 157.5,-336.5"/>
<text text-anchor="middle" x="247.5" y="-343.5" font-family="Helvetica,sans-Serif" font-size="10.00">xercesc/sax2/XMLReaderFactory.hpp</text>
</a>
</g>
</g>
<!-- Node1&#45;&gt;Node3 -->
<g id="edge2" class="edge">
<title>Node1&#45;&gt;Node3</title>
<path fill="none" stroke="midnightblue" d="M621.15,-394.7C548.09,-385.37 410.52,-367.81 324.24,-356.8"/>
<polygon fill="midnightblue" stroke="midnightblue" points="324.6,-353.31 314.24,-355.52 323.71,-360.26 324.6,-353.31"/>
</g>
<!-- Node4 -->
<g id="node4" class="node">
<title>Node4</title>
<g id="a_node4"><a xlink:title=" ">
<polygon fill="white" stroke="#bfbfbf" points="355.5,-336.5 355.5,-355.5 511.5,-355.5 511.5,-336.5 355.5,-336.5"/>
<text text-anchor="middle" x="433.5" y="-343.5" font-family="Helvetica,sans-Serif" font-size="10.00">xercesc/util/BinInputStream.hpp</text>
</a>
</g>
</g>
<!-- Node1&#45;&gt;Node4 -->
<g id="edge3" class="edge">
<title>Node1&#45;&gt;Node4</title>
<path fill="none" stroke="midnightblue" d="M632.95,-392.44C591.69,-383.04 525.36,-367.93 480.63,-357.74"/>
<polygon fill="midnightblue" stroke="midnightblue" points="481.41,-354.33 470.88,-355.52 479.85,-361.15 481.41,-354.33"/>
</g>
<!-- Node5 -->
<g id="node5" class="node">
<title>Node5</title>
<g id="a_node5"><a xlink:title=" ">
<polygon fill="white" stroke="#bfbfbf" points="529.5,-336.5 529.5,-355.5 675.5,-355.5 675.5,-336.5 529.5,-336.5"/>
<text text-anchor="middle" x="602.5" y="-343.5" font-family="Helvetica,sans-Serif" font-size="10.00">xercesc/util/TransService.hpp</text>
</a>
</g>
</g>
<!-- Node1&#45;&gt;Node5 -->
<g id="edge4" class="edge">
<title>Node1&#45;&gt;Node5</title>
<path fill="none" stroke="midnightblue" d="M659.57,-392.32C649.33,-384.18 633.78,-371.84 621.5,-362.09"/>
<polygon fill="midnightblue" stroke="midnightblue" points="623.63,-359.31 613.62,-355.83 619.28,-364.79 623.63,-359.31"/>
</g>
<!-- Node6 -->
<g id="node6" class="node">
<title>Node6</title>
<g id="a_node6"><a xlink:href="_checked_file_8h.html" target="_top" xlink:title=" ">
<polygon fill="white" stroke="black" points="1160.5,-336.5 1160.5,-355.5 1240.5,-355.5 1240.5,-336.5 1160.5,-336.5"/>
<text text-anchor="middle" x="1200.5" y="-343.5" font-family="Helvetica,sans-Serif" font-size="10.00">CheckedFile.h</text>
</a>
</g>
</g>
<!-- Node1&#45;&gt;Node6 -->
<g id="edge5" class="edge">
<title>Node1&#45;&gt;Node6</title>
<path fill="none" stroke="midnightblue" d="M719.89,-395.97C820.63,-385.7 1048.87,-362.45 1150.3,-352.11"/>
<polygon fill="midnightblue" stroke="midnightblue" points="1150.7,-355.59 1160.29,-351.1 1149.99,-348.63 1150.7,-355.59"/>
</g>
<!-- Node21 -->
<g id="node21" class="node">
<title>Node21</title>
<g id="a_node21"><a xlink:href="_e57_format_impl_8h.html" target="_top" xlink:title=" ">
<polygon fill="white" stroke="black" points="693.5,-336.5 693.5,-355.5 785.5,-355.5 785.5,-336.5 693.5,-336.5"/>
<text text-anchor="middle" x="739.5" y="-343.5" font-family="Helvetica,sans-Serif" font-size="10.00">E57FormatImpl.h</text>
</a>
</g>
</g>
<!-- Node1&#45;&gt;Node21 -->
<g id="edge23" class="edge">
<title>Node1&#45;&gt;Node21</title>
<path fill="none" stroke="midnightblue" d="M681.59,-392.32C691.99,-384.18 707.76,-371.84 720.22,-362.09"/>
<polygon fill="midnightblue" stroke="midnightblue" points="722.49,-364.75 728.21,-355.83 718.18,-359.24 722.49,-364.75"/>
</g>
<!-- Node26 -->
<g id="node26" class="node">
<title>Node26</title>
<g id="a_node26"><a xlink:href="_e57_xml_parser_8h.html" target="_top" xlink:title=" ">
<polygon fill="white" stroke="black" points="804,-336.5 804,-355.5 891,-355.5 891,-336.5 804,-336.5"/>
<text text-anchor="middle" x="847.5" y="-343.5" font-family="Helvetica,sans-Serif" font-size="10.00">E57XmlParser.h</text>
</a>
</g>
</g>
<!-- Node1&#45;&gt;Node26 -->
<g id="edge31" class="edge">
<title>Node1&#45;&gt;Node26</title>
<path fill="none" stroke="midnightblue" d="M698.55,-392.44C728.58,-383.28 776.41,-368.69 809.74,-358.52"/>
<polygon fill="midnightblue" stroke="midnightblue" points="811.04,-361.78 819.59,-355.52 809,-355.09 811.04,-361.78"/>
</g>
<!-- Node30 -->
<g id="node30" class="node">
<title>Node30</title>
<g id="a_node30"><a xlink:href="_image_file_impl_8h.html" target="_top" xlink:title=" ">
<polygon fill="white" stroke="black" points="1275.5,-224.5 1275.5,-243.5 1361.5,-243.5 1361.5,-224.5 1275.5,-224.5"/>
<text text-anchor="middle" x="1318.5" y="-231.5" font-family="Helvetica,sans-Serif" font-size="10.00">ImageFileImpl.h</text>
</a>
</g>
</g>
<!-- Node1&#45;&gt;Node30 -->
<g id="edge36" class="edge">
<title>Node1&#45;&gt;Node30</title>
<path fill="none" stroke="midnightblue" d="M719.74,-399.8C851.52,-396.21 1205.27,-384.04 1249.5,-356 1286.66,-332.44 1305.85,-281.26 1313.85,-253.61"/>
<polygon fill="midnightblue" stroke="midnightblue" points="1317.31,-254.22 1316.53,-243.66 1310.55,-252.4 1317.31,-254.22"/>
</g>
<!-- Node7 -->
<g id="node7" class="node">
<title>Node7</title>
<g id="a_node7"><a xlink:title=" ">
<polygon fill="white" stroke="#bfbfbf" points="1172.5,-280.5 1172.5,-299.5 1228.5,-299.5 1228.5,-280.5 1172.5,-280.5"/>
<text text-anchor="middle" x="1200.5" y="-287.5" font-family="Helvetica,sans-Serif" font-size="10.00">algorithm</text>
</a>
</g>
</g>
<!-- Node6&#45;&gt;Node7 -->
<g id="edge6" class="edge">
<title>Node6&#45;&gt;Node7</title>
<path fill="none" stroke="midnightblue" d="M1200.5,-336.08C1200.5,-329.01 1200.5,-318.86 1200.5,-309.99"/>
<polygon fill="midnightblue" stroke="midnightblue" points="1204,-309.75 1200.5,-299.75 1197,-309.75 1204,-309.75"/>
</g>
<!-- Node8 -->
<g id="node8" class="node">
<title>Node8</title>
<g id="a_node8"><a xlink:href="_common_8h.html" target="_top" xlink:title=" ">
<polygon fill="white" stroke="black" points="741,-168.5 741,-187.5 806,-187.5 806,-168.5 741,-168.5"/>
<text text-anchor="middle" x="773.5" y="-175.5" font-family="Helvetica,sans-Serif" font-size="10.00">Common.h</text>
</a>
</g>
</g>
<!-- Node6&#45;&gt;Node8 -->
<g id="edge7" class="edge">
<title>Node6&#45;&gt;Node8</title>
<path fill="none" stroke="midnightblue" d="M1211.7,-336.46C1227.37,-323.49 1252.33,-298.4 1237.5,-280 1184.68,-214.44 920.81,-189.2 816.26,-181.68"/>
<polygon fill="midnightblue" stroke="midnightblue" points="816.29,-178.17 806.07,-180.96 815.8,-185.15 816.29,-178.17"/>
</g>
<!-- Node9 -->
<g id="node9" class="node">
<title>Node9</title>
<g id="a_node9"><a xlink:title=" ">
<polygon fill="white" stroke="#bfbfbf" points="700.5,-112.5 700.5,-131.5 750.5,-131.5 750.5,-112.5 700.5,-112.5"/>
<text text-anchor="middle" x="725.5" y="-119.5" font-family="Helvetica,sans-Serif" font-size="10.00">iomanip</text>
</a>
</g>
</g>
<!-- Node8&#45;&gt;Node9 -->
<g id="edge8" class="edge">
<title>Node8&#45;&gt;Node9</title>
<path fill="none" stroke="midnightblue" d="M765.57,-168.08C758.65,-160.3 748.43,-148.8 740.05,-139.37"/>
<polygon fill="midnightblue" stroke="midnightblue" points="742.54,-136.9 733.28,-131.75 737.31,-141.55 742.54,-136.9"/>
</g>
<!-- Node10 -->
<g id="node10" class="node">
<title>Node10</title>
<g id="a_node10"><a xlink:title=" ">
<polygon fill="white" stroke="#bfbfbf" points="831.5,-0.5 831.5,-19.5 885.5,-19.5 885.5,-0.5 831.5,-0.5"/>
<text text-anchor="middle" x="858.5" y="-7.5" font-family="Helvetica,sans-Serif" font-size="10.00">iostream</text>
</a>
</g>
</g>
<!-- Node8&#45;&gt;Node10 -->
<g id="edge9" class="edge">
<title>Node8&#45;&gt;Node10</title>
<path fill="none" stroke="midnightblue" d="M801.88,-168.38C819.34,-161.5 840.42,-149.96 851.5,-132 870.95,-100.47 866.96,-55.09 862.57,-29.81"/>
<polygon fill="midnightblue" stroke="midnightblue" points="865.95,-28.88 860.61,-19.74 859.08,-30.22 865.95,-28.88"/>
</g>
<!-- Node11 -->
<g id="node11" class="node">
<title>Node11</title>
<g id="a_node11"><a xlink:title=" ">
<polygon fill="white" stroke="#bfbfbf" points="898.5,-112.5 898.5,-131.5 928.5,-131.5 928.5,-112.5 898.5,-112.5"/>
<text text-anchor="middle" x="913.5" y="-119.5" font-family="Helvetica,sans-Serif" font-size="10.00">set</text>
</a>
</g>
</g>
<!-- Node8&#45;&gt;Node11 -->
<g id="edge10" class="edge">
<title>Node8&#45;&gt;Node11</title>
<path fill="none" stroke="midnightblue" d="M795.68,-168.44C821,-158.68 862.31,-142.74 888.68,-132.57"/>
<polygon fill="midnightblue" stroke="midnightblue" points="890.25,-135.72 898.32,-128.85 887.73,-129.19 890.25,-135.72"/>
</g>
<!-- Node12 -->
<g id="node12" class="node">
<title>Node12</title>
<g id="a_node12"><a xlink:title=" ">
<polygon fill="white" stroke="#bfbfbf" points="630.5,-112.5 630.5,-131.5 682.5,-131.5 682.5,-112.5 630.5,-112.5"/>
<text text-anchor="middle" x="656.5" y="-119.5" font-family="Helvetica,sans-Serif" font-size="10.00">sstream</text>
</a>
</g>
</g>
<!-- Node8&#45;&gt;Node12 -->
<g id="edge11" class="edge">
<title>Node8&#45;&gt;Node12</title>
<path fill="none" stroke="midnightblue" d="M754.96,-168.44C735.88,-159.64 705.93,-145.81 684.06,-135.72"/>
<polygon fill="midnightblue" stroke="midnightblue" points="685.5,-132.53 674.95,-131.52 682.57,-138.88 685.5,-132.53"/>
</g>
<!-- Node13 -->
<g id="node13" class="node">
<title>Node13</title>
<g id="a_node13"><a xlink:title=" ">
<polygon fill="white" stroke="#bfbfbf" points="933,-0.5 933,-19.5 974,-19.5 974,-0.5 933,-0.5"/>
<text text-anchor="middle" x="953.5" y="-7.5" font-family="Helvetica,sans-Serif" font-size="10.00">string</text>
</a>
</g>
</g>
<!-- Node8&#45;&gt;Node13 -->
<g id="edge12" class="edge">
<title>Node8&#45;&gt;Node13</title>
<path fill="none" stroke="midnightblue" d="M806.18,-175.53C841.95,-172.35 899.3,-162.47 937.5,-132 965.89,-109.35 972.96,-91.9 967.5,-56 966.13,-47 963.31,-37.33 960.55,-29.26"/>
<polygon fill="midnightblue" stroke="midnightblue" points="963.81,-27.98 957.1,-19.78 957.23,-30.37 963.81,-27.98"/>
</g>
<!-- Node14 -->
<g id="node14" class="node">
<title>Node14</title>
<g id="a_node14"><a xlink:title=" ">
<polygon fill="white" stroke="#bfbfbf" points="580.5,-56.5 580.5,-75.5 624.5,-75.5 624.5,-56.5 580.5,-56.5"/>
<text text-anchor="middle" x="602.5" y="-63.5" font-family="Helvetica,sans-Serif" font-size="10.00">vector</text>
</a>
</g>
</g>
<!-- Node8&#45;&gt;Node14 -->
<g id="edge13" class="edge">
<title>Node8&#45;&gt;Node14</title>
<path fill="none" stroke="midnightblue" d="M740.75,-176.1C706.45,-173.39 653.26,-163.87 621.5,-132 609.45,-119.91 604.96,-100.63 603.33,-86.2"/>
<polygon fill="midnightblue" stroke="midnightblue" points="606.79,-85.6 602.54,-75.9 599.81,-86.13 606.79,-85.6"/>
</g>
<!-- Node15 -->
<g id="node15" class="node">
<title>Node15</title>
<g id="a_node15"><a xlink:href="_e57_format_8h.html" target="_top" xlink:title=" ">
<polygon fill="white" stroke="black" points="769,-112.5 769,-131.5 842,-131.5 842,-112.5 769,-112.5"/>
<text text-anchor="middle" x="805.5" y="-119.5" font-family="Helvetica,sans-Serif" font-size="10.00">E57Format.h</text>
</a>
</g>
</g>
<!-- Node8&#45;&gt;Node15 -->
<g id="edge14" class="edge">
<title>Node8&#45;&gt;Node15</title>
<path fill="none" stroke="midnightblue" d="M778.78,-168.08C783.21,-160.61 789.66,-149.72 795.12,-140.52"/>
<polygon fill="midnightblue" stroke="midnightblue" points="798.23,-142.14 800.31,-131.75 792.21,-138.57 798.23,-142.14"/>
</g>
<!-- Node15&#45;&gt;Node14 -->
<g id="edge17" class="edge">
<title>Node15&#45;&gt;Node14</title>
<path fill="none" stroke="midnightblue" d="M773.33,-112.44C735.32,-102.33 672.45,-85.61 634.51,-75.51"/>
<polygon fill="midnightblue" stroke="midnightblue" points="635.07,-72.04 624.51,-72.85 633.27,-78.81 635.07,-72.04"/>
</g>
<!-- Node16 -->
<g id="node16" class="node">
<title>Node16</title>
<g id="a_node16"><a xlink:title=" ">
<polygon fill="white" stroke="#bfbfbf" points="801,-56.5 801,-75.5 842,-75.5 842,-56.5 801,-56.5"/>
<text text-anchor="middle" x="821.5" y="-63.5" font-family="Helvetica,sans-Serif" font-size="10.00">cfloat</text>
</a>
</g>
</g>
<!-- Node15&#45;&gt;Node16 -->
<g id="edge15" class="edge">
<title>Node15&#45;&gt;Node16</title>
<path fill="none" stroke="midnightblue" d="M808.14,-112.08C810.29,-104.85 813.38,-94.41 816.05,-85.4"/>
<polygon fill="midnightblue" stroke="midnightblue" points="819.42,-86.33 818.91,-75.75 812.71,-84.34 819.42,-86.33"/>
</g>
<!-- Node17 -->
<g id="node17" class="node">
<title>Node17</title>
<g id="a_node17"><a xlink:title=" ">
<polygon fill="white" stroke="#bfbfbf" points="906.5,-56.5 906.5,-75.5 958.5,-75.5 958.5,-56.5 906.5,-56.5"/>
<text text-anchor="middle" x="932.5" y="-63.5" font-family="Helvetica,sans-Serif" font-size="10.00">memory</text>
</a>
</g>
</g>
<!-- Node15&#45;&gt;Node17 -->
<g id="edge16" class="edge">
<title>Node15&#45;&gt;Node17</title>
<path fill="none" stroke="midnightblue" d="M825.62,-112.44C846.52,-103.56 879.43,-89.56 903.22,-79.45"/>
<polygon fill="midnightblue" stroke="midnightblue" points="904.64,-82.65 912.47,-75.52 901.9,-76.21 904.64,-82.65"/>
</g>
<!-- Node18 -->
<g id="node18" class="node">
<title>Node18</title>
<g id="a_node18"><a xlink:href="_e57_exception_8h.html" target="_top" xlink:title=" ">
<polygon fill="white" stroke="black" points="696.5,-56.5 696.5,-75.5 782.5,-75.5 782.5,-56.5 696.5,-56.5"/>
<text text-anchor="middle" x="739.5" y="-63.5" font-family="Helvetica,sans-Serif" font-size="10.00">E57Exception.h</text>
</a>
</g>
</g>
<!-- Node15&#45;&gt;Node18 -->
<g id="edge18" class="edge">
<title>Node15&#45;&gt;Node18</title>
<path fill="none" stroke="midnightblue" d="M794.9,-112.32C785.04,-104.26 770.15,-92.08 758.28,-82.37"/>
<polygon fill="midnightblue" stroke="midnightblue" points="760.25,-79.46 750.3,-75.83 755.82,-84.88 760.25,-79.46"/>
</g>
<!-- Node18&#45;&gt;Node10 -->
<g id="edge20" class="edge">
<title>Node18&#45;&gt;Node10</title>
<path fill="none" stroke="midnightblue" d="M758.36,-56.44C777.77,-47.64 808.23,-33.81 830.46,-23.72"/>
<polygon fill="midnightblue" stroke="midnightblue" points="832.07,-26.84 839.73,-19.52 829.18,-20.46 832.07,-26.84"/>
</g>
<!-- Node18&#45;&gt;Node13 -->
<g id="edge21" class="edge">
<title>Node18&#45;&gt;Node13</title>
<path fill="none" stroke="midnightblue" d="M773.41,-56.44C814.63,-46.04 883.57,-28.65 923.12,-18.67"/>
<polygon fill="midnightblue" stroke="midnightblue" points="924.14,-22.02 932.98,-16.18 922.43,-15.23 924.14,-22.02"/>
</g>
<!-- Node19 -->
<g id="node19" class="node">
<title>Node19</title>
<g id="a_node19"><a xlink:title=" ">
<polygon fill="white" stroke="#bfbfbf" points="640,-0.5 640,-19.5 699,-19.5 699,-0.5 640,-0.5"/>
<text text-anchor="middle" x="669.5" y="-7.5" font-family="Helvetica,sans-Serif" font-size="10.00">exception</text>
</a>
</g>
</g>
<!-- Node18&#45;&gt;Node19 -->
<g id="edge19" class="edge">
<title>Node18&#45;&gt;Node19</title>
<path fill="none" stroke="midnightblue" d="M728.25,-56.32C717.7,-48.18 701.7,-35.84 689.06,-26.09"/>
<polygon fill="midnightblue" stroke="midnightblue" points="691.01,-23.17 680.95,-19.83 686.73,-28.71 691.01,-23.17"/>
</g>
<!-- Node20 -->
<g id="node20" class="node">
<title>Node20</title>
<g id="a_node20"><a xlink:title=" ">
<polygon fill="white" stroke="#bfbfbf" points="717,-0.5 717,-19.5 788,-19.5 788,-0.5 717,-0.5"/>
<text text-anchor="middle" x="752.5" y="-7.5" font-family="Helvetica,sans-Serif" font-size="10.00">E57Export.h</text>
</a>
</g>
</g>
<!-- Node18&#45;&gt;Node20 -->
<g id="edge22" class="edge">
<title>Node18&#45;&gt;Node20</title>
<path fill="none" stroke="midnightblue" d="M741.65,-56.08C743.37,-48.93 745.85,-38.64 748,-29.69"/>
<polygon fill="midnightblue" stroke="midnightblue" points="751.46,-30.29 750.39,-19.75 744.65,-28.65 751.46,-30.29"/>
</g>
<!-- Node22 -->
<g id="node22" class="node">
<title>Node22</title>
<g id="a_node22"><a xlink:href="_packet_8h.html" target="_top" xlink:title=" ">
<polygon fill="white" stroke="black" points="561.5,-224.5 561.5,-243.5 617.5,-243.5 617.5,-224.5 561.5,-224.5"/>
<text text-anchor="middle" x="589.5" y="-231.5" font-family="Helvetica,sans-Serif" font-size="10.00">Packet.h</text>
</a>
</g>
</g>
<!-- Node21&#45;&gt;Node22 -->
<g id="edge24" class="edge">
<title>Node21&#45;&gt;Node22</title>
<path fill="none" stroke="midnightblue" d="M695.54,-336.48C658.71,-328.4 610.18,-315.27 597.5,-300 586.95,-287.3 585.8,-268.1 586.77,-253.86"/>
<polygon fill="midnightblue" stroke="midnightblue" points="590.27,-254.03 587.87,-243.71 583.31,-253.28 590.27,-254.03"/>
</g>
<!-- Node24 -->
<g id="node24" class="node">
<title>Node24</title>
<g id="a_node24"><a xlink:href="_structure_node_impl_8h.html" target="_top" xlink:title=" ">
<polygon fill="white" stroke="black" points="607,-280.5 607,-299.5 714,-299.5 714,-280.5 607,-280.5"/>
<text text-anchor="middle" x="660.5" y="-287.5" font-family="Helvetica,sans-Serif" font-size="10.00">StructureNodeImpl.h</text>
</a>
</g>
</g>
<!-- Node21&#45;&gt;Node24 -->
<g id="edge28" class="edge">
<title>Node21&#45;&gt;Node24</title>
<path fill="none" stroke="midnightblue" d="M726.81,-336.32C714.6,-327.98 695.92,-315.21 681.5,-305.35"/>
<polygon fill="midnightblue" stroke="midnightblue" points="683.39,-302.41 673.16,-299.65 679.44,-308.19 683.39,-302.41"/>
</g>
<!-- Node22&#45;&gt;Node8 -->
<g id="edge27" class="edge">
<title>Node22&#45;&gt;Node8</title>
<path fill="none" stroke="midnightblue" d="M617.85,-224.68C649.13,-215.5 699.68,-200.66 734.65,-190.4"/>
<polygon fill="midnightblue" stroke="midnightblue" points="735.9,-193.68 744.51,-187.51 733.93,-186.96 735.9,-193.68"/>
</g>
<!-- Node22&#45;&gt;Node14 -->
<g id="edge26" class="edge">
<title>Node22&#45;&gt;Node14</title>
<path fill="none" stroke="midnightblue" d="M588.01,-224.41C586.52,-215.38 584.35,-200.74 583.5,-188 581.07,-151.37 590.56,-109.11 597,-85.48"/>
<polygon fill="midnightblue" stroke="midnightblue" points="600.39,-86.32 599.77,-75.75 593.66,-84.41 600.39,-86.32"/>
</g>
<!-- Node23 -->
<g id="node23" class="node">
<title>Node23</title>
<g id="a_node23"><a xlink:title=" ">
<polygon fill="white" stroke="#bfbfbf" points="592.5,-168.5 592.5,-187.5 638.5,-187.5 638.5,-168.5 592.5,-168.5"/>
<text text-anchor="middle" x="615.5" y="-175.5" font-family="Helvetica,sans-Serif" font-size="10.00">cstdint</text>
</a>
</g>
</g>
<!-- Node22&#45;&gt;Node23 -->
<g id="edge25" class="edge">
<title>Node22&#45;&gt;Node23</title>
<path fill="none" stroke="midnightblue" d="M593.79,-224.08C597.35,-216.69 602.52,-205.95 606.92,-196.81"/>
<polygon fill="midnightblue" stroke="midnightblue" points="610.1,-198.28 611.29,-187.75 603.79,-195.24 610.1,-198.28"/>
</g>
<!-- Node25 -->
<g id="node25" class="node">
<title>Node25</title>
<g id="a_node25"><a xlink:href="_node_impl_8h.html" target="_top" xlink:title=" ">
<polygon fill="white" stroke="black" points="637,-224.5 637,-243.5 704,-243.5 704,-224.5 637,-224.5"/>
<text text-anchor="middle" x="670.5" y="-231.5" font-family="Helvetica,sans-Serif" font-size="10.00">NodeImpl.h</text>
</a>
</g>
</g>
<!-- Node24&#45;&gt;Node25 -->
<g id="edge29" class="edge">
<title>Node24&#45;&gt;Node25</title>
<path fill="none" stroke="midnightblue" d="M662.15,-280.08C663.48,-272.93 665.38,-262.64 667.04,-253.69"/>
<polygon fill="midnightblue" stroke="midnightblue" points="670.5,-254.22 668.88,-243.75 663.62,-252.95 670.5,-254.22"/>
</g>
<!-- Node25&#45;&gt;Node8 -->
<g id="edge30" class="edge">
<title>Node25&#45;&gt;Node8</title>
<path fill="none" stroke="midnightblue" d="M687.05,-224.32C703.49,-215.7 728.93,-202.36 747.97,-192.39"/>
<polygon fill="midnightblue" stroke="midnightblue" points="749.76,-195.4 756.99,-187.65 746.51,-189.2 749.76,-195.4"/>
</g>
<!-- Node26&#45;&gt;Node8 -->
<g id="edge35" class="edge">
<title>Node26&#45;&gt;Node8</title>
<path fill="none" stroke="midnightblue" d="M813.7,-336.39C795.11,-329.74 773.61,-318.45 762.5,-300 743.17,-267.9 755.96,-222.09 765.6,-197.05"/>
<polygon fill="midnightblue" stroke="midnightblue" points="768.89,-198.27 769.44,-187.69 762.41,-195.62 768.89,-198.27"/>
</g>
<!-- Node27 -->
<g id="node27" class="node">
<title>Node27</title>
<g id="a_node27"><a xlink:title=" ">
<polygon fill="white" stroke="#bfbfbf" points="771,-280.5 771,-299.5 812,-299.5 812,-280.5 771,-280.5"/>
<text text-anchor="middle" x="791.5" y="-287.5" font-family="Helvetica,sans-Serif" font-size="10.00">stack</text>
</a>
</g>
</g>
<!-- Node26&#45;&gt;Node27 -->
<g id="edge32" class="edge">
<title>Node26&#45;&gt;Node27</title>
<path fill="none" stroke="midnightblue" d="M838.5,-336.32C830.31,-328.42 817.99,-316.55 808.03,-306.94"/>
<polygon fill="midnightblue" stroke="midnightblue" points="810.29,-304.26 800.66,-299.83 805.43,-309.29 810.29,-304.26"/>
</g>
<!-- Node28 -->
<g id="node28" class="node">
<title>Node28</title>
<g id="a_node28"><a xlink:title=" ">
<polygon fill="white" stroke="#bfbfbf" points="830.5,-280.5 830.5,-299.5 974.5,-299.5 974.5,-280.5 830.5,-280.5"/>
<text text-anchor="middle" x="902.5" y="-287.5" font-family="Helvetica,sans-Serif" font-size="10.00">xercesc/sax/InputSource.hpp</text>
</a>
</g>
</g>
<!-- Node26&#45;&gt;Node28 -->
<g id="edge33" class="edge">
<title>Node26&#45;&gt;Node28</title>
<path fill="none" stroke="midnightblue" d="M856.58,-336.08C864.67,-328.14 876.7,-316.34 886.41,-306.8"/>
<polygon fill="midnightblue" stroke="midnightblue" points="888.9,-309.25 893.59,-299.75 884,-304.26 888.9,-309.25"/>
</g>
<!-- Node29 -->
<g id="node29" class="node">
<title>Node29</title>
<g id="a_node29"><a xlink:title=" ">
<polygon fill="white" stroke="#bfbfbf" points="993,-280.5 993,-299.5 1154,-299.5 1154,-280.5 993,-280.5"/>
<text text-anchor="middle" x="1073.5" y="-287.5" font-family="Helvetica,sans-Serif" font-size="10.00">xercesc/sax2/DefaultHandler.hpp</text>
</a>
</g>
</g>
<!-- Node26&#45;&gt;Node29 -->
<g id="edge34" class="edge">
<title>Node26&#45;&gt;Node29</title>
<path fill="none" stroke="midnightblue" d="M883.31,-336.44C922.49,-327.08 985.38,-312.06 1028.02,-301.87"/>
<polygon fill="midnightblue" stroke="midnightblue" points="1028.94,-305.24 1037.86,-299.52 1027.32,-298.44 1028.94,-305.24"/>
</g>
<!-- Node30&#45;&gt;Node8 -->
<g id="edge38" class="edge">
<title>Node30&#45;&gt;Node8</title>
<path fill="none" stroke="midnightblue" d="M1275.28,-225.88C1270.64,-225.2 1265.97,-224.56 1261.5,-224 1097.38,-203.5 901.13,-188.19 816.17,-182"/>
<polygon fill="midnightblue" stroke="midnightblue" points="816.36,-178.51 806.13,-181.28 815.85,-185.49 816.36,-178.51"/>
</g>
<!-- Node30&#45;&gt;Node17 -->
<g id="edge37" class="edge">
<title>Node30&#45;&gt;Node17</title>
<path fill="none" stroke="midnightblue" d="M1298.56,-224.42C1235.03,-197.1 1037.14,-112 961.92,-79.65"/>
<polygon fill="midnightblue" stroke="midnightblue" points="963.12,-76.36 952.55,-75.62 960.36,-82.79 963.12,-76.36"/>
</g>
</g>
</svg>
