<?xml version="1.0" encoding="UTF-8" standalone="no"?>
<!DOCTYPE svg PUBLIC "-//W3C//DTD SVG 1.1//EN"
 "http://www.w3.org/Graphics/SVG/1.1/DTD/svg11.dtd">
<!-- Generated by graphviz version 2.44.0 (20200408.0750)
 -->
<!-- Title: E57XmlParser.h Pages: 1 -->
<svg width="704pt" height="252pt"
 viewBox="0.00 0.00 703.50 252.00" xmlns="http://www.w3.org/2000/svg" xmlns:xlink="http://www.w3.org/1999/xlink">
<g id="graph0" class="graph" transform="scale(1 1) rotate(0) translate(4 248)">
<title>E57XmlParser.h</title>
<polygon fill="white" stroke="transparent" points="-4,4 -4,-248 699.5,-248 699.5,4 -4,4"/>
<!-- Node1 -->
<g id="node1" class="node">
<title>Node1</title>
<g id="a_node1"><a xlink:title=" ">
<polygon fill="#bfbfbf" stroke="black" points="173,-224.5 173,-243.5 260,-243.5 260,-224.5 173,-224.5"/>
<text text-anchor="middle" x="216.5" y="-231.5" font-family="Helvetica,sans-Serif" font-size="10.00">E57XmlParser.h</text>
</a>
</g>
</g>
<!-- Node2 -->
<g id="node2" class="node">
<title>Node2</title>
<g id="a_node2"><a xlink:title=" ">
<polygon fill="white" stroke="#bfbfbf" points="0,-168.5 0,-187.5 41,-187.5 41,-168.5 0,-168.5"/>
<text text-anchor="middle" x="20.5" y="-175.5" font-family="Helvetica,sans-Serif" font-size="10.00">stack</text>
</a>
</g>
</g>
<!-- Node1&#45;&gt;Node2 -->
<g id="edge1" class="edge">
<title>Node1&#45;&gt;Node2</title>
<path fill="none" stroke="midnightblue" d="M183.98,-224.46C152.43,-216.11 102.96,-202.87 50.88,-188.05"/>
<polygon fill="midnightblue" stroke="midnightblue" points="51.71,-184.65 41.14,-185.27 49.79,-191.38 51.71,-184.65"/>
</g>
<!-- Node3 -->
<g id="node3" class="node">
<title>Node3</title>
<g id="a_node3"><a xlink:title=" ">
<polygon fill="white" stroke="#bfbfbf" points="59.5,-168.5 59.5,-187.5 203.5,-187.5 203.5,-168.5 59.5,-168.5"/>
<text text-anchor="middle" x="131.5" y="-175.5" font-family="Helvetica,sans-Serif" font-size="10.00">xercesc/sax/InputSource.hpp</text>
</a>
</g>
</g>
<!-- Node1&#45;&gt;Node3 -->
<g id="edge2" class="edge">
<title>Node1&#45;&gt;Node3</title>
<path fill="none" stroke="midnightblue" d="M202.84,-224.32C189.58,-215.9 169.23,-202.97 153.65,-193.07"/>
<polygon fill="midnightblue" stroke="midnightblue" points="155.44,-190.06 145.12,-187.65 151.69,-195.97 155.44,-190.06"/>
</g>
<!-- Node4 -->
<g id="node4" class="node">
<title>Node4</title>
<g id="a_node4"><a xlink:title=" ">
<polygon fill="white" stroke="#bfbfbf" points="222,-168.5 222,-187.5 383,-187.5 383,-168.5 222,-168.5"/>
<text text-anchor="middle" x="302.5" y="-175.5" font-family="Helvetica,sans-Serif" font-size="10.00">xercesc/sax2/DefaultHandler.hpp</text>
</a>
</g>
</g>
<!-- Node1&#45;&gt;Node4 -->
<g id="edge3" class="edge">
<title>Node1&#45;&gt;Node4</title>
<path fill="none" stroke="midnightblue" d="M230.32,-224.32C243.73,-215.9 264.32,-202.97 280.09,-193.07"/>
<polygon fill="midnightblue" stroke="midnightblue" points="282.11,-195.94 288.72,-187.65 278.39,-190.01 282.11,-195.94"/>
</g>
<!-- Node5 -->
<g id="node5" class="node">
<title>Node5</title>
<g id="a_node5"><a xlink:href="_common_8h.html" target="_top" xlink:title=" ">
<polygon fill="white" stroke="black" points="401,-168.5 401,-187.5 466,-187.5 466,-168.5 401,-168.5"/>
<text text-anchor="middle" x="433.5" y="-175.5" font-family="Helvetica,sans-Serif" font-size="10.00">Common.h</text>
</a>
</g>
</g>
<!-- Node1&#45;&gt;Node5 -->
<g id="edge4" class="edge">
<title>Node1&#45;&gt;Node5</title>
<path fill="none" stroke="midnightblue" d="M250.88,-224.44C288.78,-215.01 349.79,-199.83 390.74,-189.64"/>
<polygon fill="midnightblue" stroke="midnightblue" points="391.84,-192.97 400.7,-187.16 390.15,-186.18 391.84,-192.97"/>
</g>
<!-- Node6 -->
<g id="node6" class="node">
<title>Node6</title>
<g id="a_node6"><a xlink:title=" ">
<polygon fill="white" stroke="#bfbfbf" points="273.5,-112.5 273.5,-131.5 323.5,-131.5 323.5,-112.5 273.5,-112.5"/>
<text text-anchor="middle" x="298.5" y="-119.5" font-family="Helvetica,sans-Serif" font-size="10.00">iomanip</text>
</a>
</g>
</g>
<!-- Node5&#45;&gt;Node6 -->
<g id="edge5" class="edge">
<title>Node5&#45;&gt;Node6</title>
<path fill="none" stroke="midnightblue" d="M412.11,-168.44C389.79,-159.52 354.6,-145.44 329.29,-135.32"/>
<polygon fill="midnightblue" stroke="midnightblue" points="330.38,-131.98 319.79,-131.52 327.78,-138.48 330.38,-131.98"/>
</g>
<!-- Node7 -->
<g id="node7" class="node">
<title>Node7</title>
<g id="a_node7"><a xlink:title=" ">
<polygon fill="white" stroke="#bfbfbf" points="342.5,-0.5 342.5,-19.5 396.5,-19.5 396.5,-0.5 342.5,-0.5"/>
<text text-anchor="middle" x="369.5" y="-7.5" font-family="Helvetica,sans-Serif" font-size="10.00">iostream</text>
</a>
</g>
</g>
<!-- Node5&#45;&gt;Node7 -->
<g id="edge6" class="edge">
<title>Node5&#45;&gt;Node7</title>
<path fill="none" stroke="midnightblue" d="M426.92,-168.47C420.45,-159.73 410.66,-145.54 404.5,-132 388.71,-97.29 378.19,-53.72 373.09,-29.47"/>
<polygon fill="midnightblue" stroke="midnightblue" points="376.49,-28.62 371.07,-19.51 369.63,-30.01 376.49,-28.62"/>
</g>
<!-- Node8 -->
<g id="node8" class="node">
<title>Node8</title>
<g id="a_node8"><a xlink:title=" ">
<polygon fill="white" stroke="#bfbfbf" points="553.5,-112.5 553.5,-131.5 583.5,-131.5 583.5,-112.5 553.5,-112.5"/>
<text text-anchor="middle" x="568.5" y="-119.5" font-family="Helvetica,sans-Serif" font-size="10.00">set</text>
</a>
</g>
</g>
<!-- Node5&#45;&gt;Node8 -->
<g id="edge7" class="edge">
<title>Node5&#45;&gt;Node8</title>
<path fill="none" stroke="midnightblue" d="M454.89,-168.44C479.18,-158.73 518.71,-142.91 544.16,-132.74"/>
<polygon fill="midnightblue" stroke="midnightblue" points="545.49,-135.97 553.48,-129.01 542.89,-129.47 545.49,-135.97"/>
</g>
<!-- Node9 -->
<g id="node9" class="node">
<title>Node9</title>
<g id="a_node9"><a xlink:title=" ">
<polygon fill="white" stroke="#bfbfbf" points="601.5,-112.5 601.5,-131.5 653.5,-131.5 653.5,-112.5 601.5,-112.5"/>
<text text-anchor="middle" x="627.5" y="-119.5" font-family="Helvetica,sans-Serif" font-size="10.00">sstream</text>
</a>
</g>
</g>
<!-- Node5&#45;&gt;Node9 -->
<g id="edge8" class="edge">
<title>Node5&#45;&gt;Node9</title>
<path fill="none" stroke="midnightblue" d="M464.24,-168.44C498.81,-158.82 554.89,-143.21 591.49,-133.02"/>
<polygon fill="midnightblue" stroke="midnightblue" points="592.56,-136.36 601.26,-130.3 590.69,-129.61 592.56,-136.36"/>
</g>
<!-- Node10 -->
<g id="node10" class="node">
<title>Node10</title>
<g id="a_node10"><a xlink:title=" ">
<polygon fill="white" stroke="#bfbfbf" points="424,-0.5 424,-19.5 465,-19.5 465,-0.5 424,-0.5"/>
<text text-anchor="middle" x="444.5" y="-7.5" font-family="Helvetica,sans-Serif" font-size="10.00">string</text>
</a>
</g>
</g>
<!-- Node5&#45;&gt;Node10 -->
<g id="edge9" class="edge">
<title>Node5&#45;&gt;Node10</title>
<path fill="none" stroke="midnightblue" d="M428.56,-168.28C417.78,-148.07 394.23,-96.69 408.5,-56 412.29,-45.21 419.87,-35.08 427.1,-27.18"/>
<polygon fill="midnightblue" stroke="midnightblue" points="429.83,-29.4 434.34,-19.81 424.83,-24.49 429.83,-29.4"/>
</g>
<!-- Node11 -->
<g id="node11" class="node">
<title>Node11</title>
<g id="a_node11"><a xlink:title=" ">
<polygon fill="white" stroke="#bfbfbf" points="417.5,-56.5 417.5,-75.5 461.5,-75.5 461.5,-56.5 417.5,-56.5"/>
<text text-anchor="middle" x="439.5" y="-63.5" font-family="Helvetica,sans-Serif" font-size="10.00">vector</text>
</a>
</g>
</g>
<!-- Node5&#45;&gt;Node11 -->
<g id="edge10" class="edge">
<title>Node5&#45;&gt;Node11</title>
<path fill="none" stroke="midnightblue" d="M433.97,-168.37C434.94,-150.62 437.17,-109.67 438.49,-85.6"/>
<polygon fill="midnightblue" stroke="midnightblue" points="441.98,-85.77 439.03,-75.59 434.99,-85.39 441.98,-85.77"/>
</g>
<!-- Node12 -->
<g id="node12" class="node">
<title>Node12</title>
<g id="a_node12"><a xlink:href="_e57_format_8h.html" target="_top" xlink:title=" ">
<polygon fill="white" stroke="black" points="462,-112.5 462,-131.5 535,-131.5 535,-112.5 462,-112.5"/>
<text text-anchor="middle" x="498.5" y="-119.5" font-family="Helvetica,sans-Serif" font-size="10.00">E57Format.h</text>
</a>
</g>
</g>
<!-- Node5&#45;&gt;Node12 -->
<g id="edge11" class="edge">
<title>Node5&#45;&gt;Node12</title>
<path fill="none" stroke="midnightblue" d="M443.94,-168.32C453.65,-160.26 468.32,-148.08 480,-138.37"/>
<polygon fill="midnightblue" stroke="midnightblue" points="482.41,-140.92 487.87,-131.83 477.94,-135.53 482.41,-140.92"/>
</g>
<!-- Node12&#45;&gt;Node11 -->
<g id="edge14" class="edge">
<title>Node12&#45;&gt;Node11</title>
<path fill="none" stroke="midnightblue" d="M489.02,-112.32C480.3,-104.34 467.16,-92.31 456.6,-82.65"/>
<polygon fill="midnightblue" stroke="midnightblue" points="458.89,-80 449.15,-75.83 454.17,-85.17 458.89,-80"/>
</g>
<!-- Node13 -->
<g id="node13" class="node">
<title>Node13</title>
<g id="a_node13"><a xlink:title=" ">
<polygon fill="white" stroke="#bfbfbf" points="584,-56.5 584,-75.5 625,-75.5 625,-56.5 584,-56.5"/>
<text text-anchor="middle" x="604.5" y="-63.5" font-family="Helvetica,sans-Serif" font-size="10.00">cfloat</text>
</a>
</g>
</g>
<!-- Node12&#45;&gt;Node13 -->
<g id="edge12" class="edge">
<title>Node12&#45;&gt;Node13</title>
<path fill="none" stroke="midnightblue" d="M515.53,-112.32C532.53,-103.66 558.88,-90.24 578.49,-80.25"/>
<polygon fill="midnightblue" stroke="midnightblue" points="580.19,-83.31 587.51,-75.65 577.01,-77.08 580.19,-83.31"/>
</g>
<!-- Node14 -->
<g id="node14" class="node">
<title>Node14</title>
<g id="a_node14"><a xlink:title=" ">
<polygon fill="white" stroke="#bfbfbf" points="643.5,-56.5 643.5,-75.5 695.5,-75.5 695.5,-56.5 643.5,-56.5"/>
<text text-anchor="middle" x="669.5" y="-63.5" font-family="Helvetica,sans-Serif" font-size="10.00">memory</text>
</a>
</g>
</g>
<!-- Node12&#45;&gt;Node14 -->
<g id="edge13" class="edge">
<title>Node12&#45;&gt;Node14</title>
<path fill="none" stroke="midnightblue" d="M525.6,-112.44C554.74,-103.24 601.24,-88.56 633.45,-78.38"/>
<polygon fill="midnightblue" stroke="midnightblue" points="634.89,-81.6 643.37,-75.25 632.78,-74.92 634.89,-81.6"/>
</g>
<!-- Node15 -->
<g id="node15" class="node">
<title>Node15</title>
<g id="a_node15"><a xlink:href="_e57_exception_8h.html" target="_top" xlink:title=" ">
<polygon fill="white" stroke="black" points="479.5,-56.5 479.5,-75.5 565.5,-75.5 565.5,-56.5 479.5,-56.5"/>
<text text-anchor="middle" x="522.5" y="-63.5" font-family="Helvetica,sans-Serif" font-size="10.00">E57Exception.h</text>
</a>
</g>
</g>
<!-- Node12&#45;&gt;Node15 -->
<g id="edge15" class="edge">
<title>Node12&#45;&gt;Node15</title>
<path fill="none" stroke="midnightblue" d="M502.46,-112.08C505.71,-104.77 510.42,-94.18 514.45,-85.1"/>
<polygon fill="midnightblue" stroke="midnightblue" points="517.75,-86.31 518.61,-75.75 511.35,-83.47 517.75,-86.31"/>
</g>
<!-- Node15&#45;&gt;Node7 -->
<g id="edge17" class="edge">
<title>Node15&#45;&gt;Node7</title>
<path fill="none" stroke="midnightblue" d="M498.26,-56.44C472.63,-47.4 432.01,-33.06 403.26,-22.92"/>
<polygon fill="midnightblue" stroke="midnightblue" points="404.22,-19.54 393.63,-19.52 401.89,-26.15 404.22,-19.54"/>
</g>
<!-- Node15&#45;&gt;Node10 -->
<g id="edge18" class="edge">
<title>Node15&#45;&gt;Node10</title>
<path fill="none" stroke="midnightblue" d="M509.97,-56.32C497.91,-47.98 479.47,-35.21 465.23,-25.35"/>
<polygon fill="midnightblue" stroke="midnightblue" points="467.22,-22.47 457,-19.65 463.23,-28.22 467.22,-22.47"/>
</g>
<!-- Node16 -->
<g id="node16" class="node">
<title>Node16</title>
<g id="a_node16"><a xlink:title=" ">
<polygon fill="white" stroke="#bfbfbf" points="488,-0.5 488,-19.5 547,-19.5 547,-0.5 488,-0.5"/>
<text text-anchor="middle" x="517.5" y="-7.5" font-family="Helvetica,sans-Serif" font-size="10.00">exception</text>
</a>
</g>
</g>
<!-- Node15&#45;&gt;Node16 -->
<g id="edge16" class="edge">
<title>Node15&#45;&gt;Node16</title>
<path fill="none" stroke="midnightblue" d="M521.67,-56.08C521.02,-49.01 520.08,-38.86 519.26,-29.99"/>
<polygon fill="midnightblue" stroke="midnightblue" points="522.72,-29.39 518.31,-19.75 515.75,-30.03 522.72,-29.39"/>
</g>
<!-- Node17 -->
<g id="node17" class="node">
<title>Node17</title>
<g id="a_node17"><a xlink:title=" ">
<polygon fill="white" stroke="#bfbfbf" points="565,-0.5 565,-19.5 636,-19.5 636,-0.5 565,-0.5"/>
<text text-anchor="middle" x="600.5" y="-7.5" font-family="Helvetica,sans-Serif" font-size="10.00">E57Export.h</text>
</a>
</g>
</g>
<!-- Node15&#45;&gt;Node17 -->
<g id="edge19" class="edge">
<title>Node15&#45;&gt;Node17</title>
<path fill="none" stroke="midnightblue" d="M535.03,-56.32C547.09,-47.98 565.53,-35.21 579.77,-25.35"/>
<polygon fill="midnightblue" stroke="midnightblue" points="581.77,-28.22 588,-19.65 577.78,-22.47 581.77,-28.22"/>
</g>
</g>
</svg>
