<?xml version="1.0" encoding="UTF-8" standalone="no"?>
<!DOCTYPE svg PUBLIC "-//W3C//DTD SVG 1.1//EN"
 "http://www.w3.org/Graphics/SVG/1.1/DTD/svg11.dtd">
<!-- Generated by graphviz version 2.48.0 (20210717.1556)
 -->
<!-- Title: E57SimpleData.h Pages: 1 -->
<svg width="388pt" height="196pt"
 viewBox="0.00 0.00 388.00 196.00" xmlns="http://www.w3.org/2000/svg" xmlns:xlink="http://www.w3.org/1999/xlink">
<g id="graph0" class="graph" transform="scale(1 1) rotate(0) translate(4 192)">
<title>E57SimpleData.h</title>
<polygon fill="white" stroke="transparent" points="-4,4 -4,-192 384,-192 384,4 -4,4"/>
<!-- Node1 -->
<g id="node1" class="node">
<title>Node1</title>
<g id="a_node1"><a xlink:title="Data structures for E57 Simple API.">
<polygon fill="#bfbfbf" stroke="black" points="71,-168.5 71,-187.5 165,-187.5 165,-168.5 71,-168.5"/>
<text text-anchor="middle" x="118" y="-175.5" font-family="Helvetica,sans-Serif" font-size="10.00">E57SimpleData.h</text>
</a>
</g>
</g>
<!-- Node2 -->
<g id="node2" class="node">
<title>Node2</title>
<g id="a_node2"><a xlink:href="_e57_format_8h.html" target="_top" xlink:title="header file for the E57 API">
<polygon fill="white" stroke="black" points="81,-112.5 81,-131.5 155,-131.5 155,-112.5 81,-112.5"/>
<text text-anchor="middle" x="118" y="-119.5" font-family="Helvetica,sans-Serif" font-size="10.00">E57Format.h</text>
</a>
</g>
</g>
<!-- Node1&#45;&gt;Node2 -->
<g id="edge1" class="edge">
<title>Node1&#45;&gt;Node2</title>
<path fill="none" stroke="midnightblue" d="M118,-168.08C118,-161.01 118,-150.86 118,-141.99"/>
<polygon fill="midnightblue" stroke="midnightblue" points="121.5,-141.75 118,-131.75 114.5,-141.75 121.5,-141.75"/>
</g>
<!-- Node3 -->
<g id="node3" class="node">
<title>Node3</title>
<g id="a_node3"><a xlink:title=" ">
<polygon fill="white" stroke="#bfbfbf" points="0,-56.5 0,-75.5 40,-75.5 40,-56.5 0,-56.5"/>
<text text-anchor="middle" x="20" y="-63.5" font-family="Helvetica,sans-Serif" font-size="10.00">cfloat</text>
</a>
</g>
</g>
<!-- Node2&#45;&gt;Node3 -->
<g id="edge2" class="edge">
<title>Node2&#45;&gt;Node3</title>
<path fill="none" stroke="midnightblue" d="M102.25,-112.32C86.68,-103.74 62.62,-90.49 44.54,-80.52"/>
<polygon fill="midnightblue" stroke="midnightblue" points="46.15,-77.42 35.71,-75.65 42.78,-83.55 46.15,-77.42"/>
</g>
<!-- Node4 -->
<g id="node4" class="node">
<title>Node4</title>
<g id="a_node4"><a xlink:title=" ">
<polygon fill="white" stroke="#bfbfbf" points="58.5,-56.5 58.5,-75.5 111.5,-75.5 111.5,-56.5 58.5,-56.5"/>
<text text-anchor="middle" x="85" y="-63.5" font-family="Helvetica,sans-Serif" font-size="10.00">memory</text>
</a>
</g>
</g>
<!-- Node2&#45;&gt;Node4 -->
<g id="edge3" class="edge">
<title>Node2&#45;&gt;Node4</title>
<path fill="none" stroke="midnightblue" d="M112.55,-112.08C107.99,-104.61 101.33,-93.72 95.71,-84.52"/>
<polygon fill="midnightblue" stroke="midnightblue" points="98.55,-82.46 90.35,-75.75 92.58,-86.11 98.55,-82.46"/>
</g>
<!-- Node5 -->
<g id="node5" class="node">
<title>Node5</title>
<g id="a_node5"><a xlink:title=" ">
<polygon fill="white" stroke="#bfbfbf" points="130,-56.5 130,-75.5 174,-75.5 174,-56.5 130,-56.5"/>
<text text-anchor="middle" x="152" y="-63.5" font-family="Helvetica,sans-Serif" font-size="10.00">vector</text>
</a>
</g>
</g>
<!-- Node2&#45;&gt;Node5 -->
<g id="edge4" class="edge">
<title>Node2&#45;&gt;Node5</title>
<path fill="none" stroke="midnightblue" d="M123.61,-112.08C128.37,-104.53 135.32,-93.49 141.15,-84.23"/>
<polygon fill="midnightblue" stroke="midnightblue" points="144.12,-86.08 146.49,-75.75 138.2,-82.35 144.12,-86.08"/>
</g>
<!-- Node6 -->
<g id="node6" class="node">
<title>Node6</title>
<g id="a_node6"><a xlink:href="_e57_exception_8h.html" target="_top" xlink:title=" ">
<polygon fill="white" stroke="black" points="192.5,-56.5 192.5,-75.5 279.5,-75.5 279.5,-56.5 192.5,-56.5"/>
<text text-anchor="middle" x="236" y="-63.5" font-family="Helvetica,sans-Serif" font-size="10.00">E57Exception.h</text>
</a>
</g>
</g>
<!-- Node2&#45;&gt;Node6 -->
<g id="edge5" class="edge">
<title>Node2&#45;&gt;Node6</title>
<path fill="none" stroke="midnightblue" d="M136.7,-112.44C155.94,-103.64 186.15,-89.81 208.2,-79.72"/>
<polygon fill="midnightblue" stroke="midnightblue" points="209.75,-82.86 217.39,-75.52 206.84,-76.5 209.75,-82.86"/>
</g>
<!-- Node7 -->
<g id="node7" class="node">
<title>Node7</title>
<g id="a_node7"><a xlink:title=" ">
<polygon fill="white" stroke="#bfbfbf" points="98.5,-0.5 98.5,-19.5 157.5,-19.5 157.5,-0.5 98.5,-0.5"/>
<text text-anchor="middle" x="128" y="-7.5" font-family="Helvetica,sans-Serif" font-size="10.00">exception</text>
</a>
</g>
</g>
<!-- Node6&#45;&gt;Node7 -->
<g id="edge6" class="edge">
<title>Node6&#45;&gt;Node7</title>
<path fill="none" stroke="midnightblue" d="M218.65,-56.32C201.33,-47.66 174.48,-34.24 154.5,-24.25"/>
<polygon fill="midnightblue" stroke="midnightblue" points="155.82,-21 145.31,-19.65 152.69,-27.26 155.82,-21"/>
</g>
<!-- Node8 -->
<g id="node8" class="node">
<title>Node8</title>
<g id="a_node8"><a xlink:title=" ">
<polygon fill="white" stroke="#bfbfbf" points="175.5,-0.5 175.5,-19.5 230.5,-19.5 230.5,-0.5 175.5,-0.5"/>
<text text-anchor="middle" x="203" y="-7.5" font-family="Helvetica,sans-Serif" font-size="10.00">iostream</text>
</a>
</g>
</g>
<!-- Node6&#45;&gt;Node8 -->
<g id="edge7" class="edge">
<title>Node6&#45;&gt;Node8</title>
<path fill="none" stroke="midnightblue" d="M230.55,-56.08C225.99,-48.61 219.33,-37.72 213.71,-28.52"/>
<polygon fill="midnightblue" stroke="midnightblue" points="216.55,-26.46 208.35,-19.75 210.58,-30.11 216.55,-26.46"/>
</g>
<!-- Node9 -->
<g id="node9" class="node">
<title>Node9</title>
<g id="a_node9"><a xlink:title=" ">
<polygon fill="white" stroke="#bfbfbf" points="248.5,-0.5 248.5,-19.5 289.5,-19.5 289.5,-0.5 248.5,-0.5"/>
<text text-anchor="middle" x="269" y="-7.5" font-family="Helvetica,sans-Serif" font-size="10.00">string</text>
</a>
</g>
</g>
<!-- Node6&#45;&gt;Node9 -->
<g id="edge8" class="edge">
<title>Node6&#45;&gt;Node9</title>
<path fill="none" stroke="midnightblue" d="M241.45,-56.08C246.01,-48.61 252.67,-37.72 258.29,-28.52"/>
<polygon fill="midnightblue" stroke="midnightblue" points="261.42,-30.11 263.65,-19.75 255.45,-26.46 261.42,-30.11"/>
</g>
<!-- Node10 -->
<g id="node10" class="node">
<title>Node10</title>
<g id="a_node10"><a xlink:title=" ">
<polygon fill="white" stroke="#bfbfbf" points="308,-0.5 308,-19.5 380,-19.5 380,-0.5 308,-0.5"/>
<text text-anchor="middle" x="344" y="-7.5" font-family="Helvetica,sans-Serif" font-size="10.00">E57Export.h</text>
</a>
</g>
</g>
<!-- Node6&#45;&gt;Node10 -->
<g id="edge9" class="edge">
<title>Node6&#45;&gt;Node10</title>
<path fill="none" stroke="midnightblue" d="M253.35,-56.32C270.67,-47.66 297.52,-34.24 317.5,-24.25"/>
<polygon fill="midnightblue" stroke="midnightblue" points="319.31,-27.26 326.69,-19.65 316.18,-21 319.31,-27.26"/>
</g>
</g>
</svg>
