<?xml version="1.0" encoding="UTF-8" standalone="no"?>
<!DOCTYPE svg PUBLIC "-//W3C//DTD SVG 1.1//EN"
 "http://www.w3.org/Graphics/SVG/1.1/DTD/svg11.dtd">
<!-- Generated by graphviz version 2.48.0 (20210717.1556)
 -->
<!-- Title: E57SimpleData.h Pages: 1 -->
<svg width="558pt" height="140pt"
 viewBox="0.00 0.00 558.00 140.00" xmlns="http://www.w3.org/2000/svg" xmlns:xlink="http://www.w3.org/1999/xlink">
<g id="graph0" class="graph" transform="scale(1 1) rotate(0) translate(4 136)">
<title>E57SimpleData.h</title>
<polygon fill="white" stroke="transparent" points="-4,4 -4,-136 554,-136 554,4 -4,4"/>
<!-- Node1 -->
<g id="node1" class="node">
<title>Node1</title>
<g id="a_node1"><a xlink:title="Data structures for E57 Simple API.">
<polygon fill="#bfbfbf" stroke="black" points="223.5,-112.5 223.5,-131.5 317.5,-131.5 317.5,-112.5 223.5,-112.5"/>
<text text-anchor="middle" x="270.5" y="-119.5" font-family="Helvetica,sans-Serif" font-size="10.00">E57SimpleData.h</text>
</a>
</g>
</g>
<!-- Node2 -->
<g id="node2" class="node">
<title>Node2</title>
<g id="a_node2"><a xlink:href="_e57_simple_data_8cpp.html" target="_top" xlink:title=" ">
<polygon fill="white" stroke="black" points="0,-56.5 0,-75.5 105,-75.5 105,-56.5 0,-56.5"/>
<text text-anchor="middle" x="52.5" y="-63.5" font-family="Helvetica,sans-Serif" font-size="10.00">E57SimpleData.cpp</text>
</a>
</g>
</g>
<!-- Node1&#45;&gt;Node2 -->
<g id="edge1" class="edge">
<title>Node1&#45;&gt;Node2</title>
<path fill="none" stroke="midnightblue" d="M226.19,-110.02C185.01,-99.82 124.53,-84.84 86.88,-75.52"/>
<polygon fill="midnightblue" stroke="midnightblue" points="225.41,-113.44 235.96,-112.44 227.09,-106.64 225.41,-113.44"/>
</g>
<!-- Node3 -->
<g id="node3" class="node">
<title>Node3</title>
<g id="a_node3"><a xlink:href="_reader_impl_8h.html" target="_top" xlink:title=" ">
<polygon fill="white" stroke="black" points="123,-56.5 123,-75.5 200,-75.5 200,-56.5 123,-56.5"/>
<text text-anchor="middle" x="161.5" y="-63.5" font-family="Helvetica,sans-Serif" font-size="10.00">ReaderImpl.h</text>
</a>
</g>
</g>
<!-- Node1&#45;&gt;Node3 -->
<g id="edge2" class="edge">
<title>Node1&#45;&gt;Node3</title>
<path fill="none" stroke="midnightblue" d="M243.98,-107.86C223.77,-97.85 196.51,-84.35 178.97,-75.65"/>
<polygon fill="midnightblue" stroke="midnightblue" points="242.47,-111.02 252.99,-112.32 245.58,-104.75 242.47,-111.02"/>
</g>
<!-- Node6 -->
<g id="node6" class="node">
<title>Node6</title>
<g id="a_node6"><a xlink:href="_writer_impl_8h.html" target="_top" xlink:title=" ">
<polygon fill="white" stroke="black" points="458.5,-56.5 458.5,-75.5 528.5,-75.5 528.5,-56.5 458.5,-56.5"/>
<text text-anchor="middle" x="493.5" y="-63.5" font-family="Helvetica,sans-Serif" font-size="10.00">WriterImpl.h</text>
</a>
</g>
</g>
<!-- Node1&#45;&gt;Node6 -->
<g id="edge5" class="edge">
<title>Node1&#45;&gt;Node6</title>
<path fill="none" stroke="midnightblue" d="M315.56,-110.09C357.69,-99.89 419.74,-84.86 458.33,-75.52"/>
<polygon fill="midnightblue" stroke="midnightblue" points="314.73,-106.69 305.84,-112.44 316.38,-113.49 314.73,-106.69"/>
</g>
<!-- Node9 -->
<g id="node9" class="node">
<title>Node9</title>
<g id="a_node9"><a xlink:href="_e57_simple_reader_8h.html" target="_top" xlink:title="E57 Simple API for reading E57.">
<polygon fill="white" stroke="black" points="218,-56.5 218,-75.5 323,-75.5 323,-56.5 218,-56.5"/>
<text text-anchor="middle" x="270.5" y="-63.5" font-family="Helvetica,sans-Serif" font-size="10.00">E57SimpleReader.h</text>
</a>
</g>
</g>
<!-- Node1&#45;&gt;Node9 -->
<g id="edge8" class="edge">
<title>Node1&#45;&gt;Node9</title>
<path fill="none" stroke="midnightblue" d="M270.5,-101.8C270.5,-92.91 270.5,-82.78 270.5,-75.75"/>
<polygon fill="midnightblue" stroke="midnightblue" points="267,-102.08 270.5,-112.08 274,-102.08 267,-102.08"/>
</g>
<!-- Node10 -->
<g id="node10" class="node">
<title>Node10</title>
<g id="a_node10"><a xlink:href="_e57_simple_writer_8h.html" target="_top" xlink:title="E57 Simple API for writing E57.">
<polygon fill="white" stroke="black" points="341,-56.5 341,-75.5 440,-75.5 440,-56.5 341,-56.5"/>
<text text-anchor="middle" x="390.5" y="-63.5" font-family="Helvetica,sans-Serif" font-size="10.00">E57SimpleWriter.h</text>
</a>
</g>
</g>
<!-- Node1&#45;&gt;Node10 -->
<g id="edge10" class="edge">
<title>Node1&#45;&gt;Node10</title>
<path fill="none" stroke="midnightblue" d="M298.87,-108.23C321.32,-98.13 352.04,-84.31 371.57,-75.52"/>
<polygon fill="midnightblue" stroke="midnightblue" points="297.2,-105.15 289.51,-112.44 300.07,-111.53 297.2,-105.15"/>
</g>
<!-- Node4 -->
<g id="node4" class="node">
<title>Node4</title>
<g id="a_node4"><a xlink:href="_e57_simple_reader_8cpp.html" target="_top" xlink:title=" ">
<polygon fill="white" stroke="black" points="206.5,-0.5 206.5,-19.5 322.5,-19.5 322.5,-0.5 206.5,-0.5"/>
<text text-anchor="middle" x="264.5" y="-7.5" font-family="Helvetica,sans-Serif" font-size="10.00">E57SimpleReader.cpp</text>
</a>
</g>
</g>
<!-- Node3&#45;&gt;Node4 -->
<g id="edge3" class="edge">
<title>Node3&#45;&gt;Node4</title>
<path fill="none" stroke="midnightblue" d="M187.08,-51.59C206.12,-41.61 231.56,-28.27 247.99,-19.65"/>
<polygon fill="midnightblue" stroke="midnightblue" points="185.28,-48.58 178.05,-56.32 188.53,-54.78 185.28,-48.58"/>
</g>
<!-- Node5 -->
<g id="node5" class="node">
<title>Node5</title>
<g id="a_node5"><a xlink:href="_reader_impl_8cpp.html" target="_top" xlink:title=" ">
<polygon fill="white" stroke="black" points="101,-0.5 101,-19.5 188,-19.5 188,-0.5 101,-0.5"/>
<text text-anchor="middle" x="144.5" y="-7.5" font-family="Helvetica,sans-Serif" font-size="10.00">ReaderImpl.cpp</text>
</a>
</g>
</g>
<!-- Node3&#45;&gt;Node5 -->
<g id="edge4" class="edge">
<title>Node3&#45;&gt;Node5</title>
<path fill="none" stroke="midnightblue" d="M155.64,-46.4C152.8,-37.36 149.52,-26.94 147.25,-19.75"/>
<polygon fill="midnightblue" stroke="midnightblue" points="152.35,-47.6 158.69,-56.08 159.03,-45.49 152.35,-47.6"/>
</g>
<!-- Node7 -->
<g id="node7" class="node">
<title>Node7</title>
<g id="a_node7"><a xlink:href="_e57_simple_writer_8cpp.html" target="_top" xlink:title=" ">
<polygon fill="white" stroke="black" points="340.5,-0.5 340.5,-19.5 450.5,-19.5 450.5,-0.5 340.5,-0.5"/>
<text text-anchor="middle" x="395.5" y="-7.5" font-family="Helvetica,sans-Serif" font-size="10.00">E57SimpleWriter.cpp</text>
</a>
</g>
</g>
<!-- Node6&#45;&gt;Node7 -->
<g id="edge6" class="edge">
<title>Node6&#45;&gt;Node7</title>
<path fill="none" stroke="midnightblue" d="M468.91,-51.45C450.82,-41.48 426.77,-28.23 411.21,-19.65"/>
<polygon fill="midnightblue" stroke="midnightblue" points="467.31,-54.56 477.75,-56.32 470.69,-48.43 467.31,-54.56"/>
</g>
<!-- Node8 -->
<g id="node8" class="node">
<title>Node8</title>
<g id="a_node8"><a xlink:href="_writer_impl_8cpp.html" target="_top" xlink:title=" ">
<polygon fill="white" stroke="black" points="469,-0.5 469,-19.5 550,-19.5 550,-0.5 469,-0.5"/>
<text text-anchor="middle" x="509.5" y="-7.5" font-family="Helvetica,sans-Serif" font-size="10.00">WriterImpl.cpp</text>
</a>
</g>
</g>
<!-- Node6&#45;&gt;Node8 -->
<g id="edge7" class="edge">
<title>Node6&#45;&gt;Node8</title>
<path fill="none" stroke="midnightblue" d="M499.01,-46.4C501.69,-37.36 504.78,-26.94 506.91,-19.75"/>
<polygon fill="midnightblue" stroke="midnightblue" points="495.63,-45.5 496.14,-56.08 502.34,-47.49 495.63,-45.5"/>
</g>
<!-- Node9&#45;&gt;Node4 -->
<g id="edge9" class="edge">
<title>Node9&#45;&gt;Node4</title>
<path fill="none" stroke="midnightblue" d="M268.4,-46.1C267.4,-37.14 266.26,-26.86 265.47,-19.75"/>
<polygon fill="midnightblue" stroke="midnightblue" points="264.93,-46.53 269.51,-56.08 271.88,-45.76 264.93,-46.53"/>
</g>
<!-- Node10&#45;&gt;Node7 -->
<g id="edge11" class="edge">
<title>Node10&#45;&gt;Node7</title>
<path fill="none" stroke="midnightblue" d="M392.25,-46.1C393.08,-37.14 394.03,-26.86 394.69,-19.75"/>
<polygon fill="midnightblue" stroke="midnightblue" points="388.76,-45.8 391.33,-56.08 395.73,-46.45 388.76,-45.8"/>
</g>
</g>
</svg>
