<?xml version="1.0" encoding="UTF-8" standalone="no"?>
<!DOCTYPE svg PUBLIC "-//W3C//DTD SVG 1.1//EN"
 "http://www.w3.org/Graphics/SVG/1.1/DTD/svg11.dtd">
<!-- Generated by graphviz version 2.44.0 (20200408.0750)
 -->
<!-- Title: E57FormatImpl.h Pages: 1 -->
<svg width="366pt" height="364pt"
 viewBox="0.00 0.00 366.07 364.00" xmlns="http://www.w3.org/2000/svg" xmlns:xlink="http://www.w3.org/1999/xlink">
<g id="graph0" class="graph" transform="scale(1 1) rotate(0) translate(4 360)">
<title>E57FormatImpl.h</title>
<polygon fill="white" stroke="transparent" points="-4,4 -4,-360 362.07,-360 362.07,4 -4,4"/>
<!-- Node1 -->
<g id="node1" class="node">
<title>Node1</title>
<g id="a_node1"><a xlink:title=" ">
<polygon fill="#bfbfbf" stroke="black" points="203.07,-336.5 203.07,-355.5 295.07,-355.5 295.07,-336.5 203.07,-336.5"/>
<text text-anchor="middle" x="249.07" y="-343.5" font-family="Helvetica,sans-Serif" font-size="10.00">E57FormatImpl.h</text>
</a>
</g>
</g>
<!-- Node2 -->
<g id="node2" class="node">
<title>Node2</title>
<g id="a_node2"><a xlink:href="_packet_8h.html" target="_top" xlink:title=" ">
<polygon fill="white" stroke="black" points="262.07,-224.5 262.07,-243.5 318.07,-243.5 318.07,-224.5 262.07,-224.5"/>
<text text-anchor="middle" x="290.07" y="-231.5" font-family="Helvetica,sans-Serif" font-size="10.00">Packet.h</text>
</a>
</g>
</g>
<!-- Node1&#45;&gt;Node2 -->
<g id="edge1" class="edge">
<title>Node1&#45;&gt;Node2</title>
<path fill="none" stroke="midnightblue" d="M253.63,-336.19C258.15,-327.23 265.11,-312.87 270.07,-300 276.04,-284.51 281.48,-266.42 285.18,-253.27"/>
<polygon fill="midnightblue" stroke="midnightblue" points="288.58,-254.11 287.85,-243.54 281.83,-252.26 288.58,-254.11"/>
</g>
<!-- Node17 -->
<g id="node17" class="node">
<title>Node17</title>
<g id="a_node17"><a xlink:href="_structure_node_impl_8h.html" target="_top" xlink:title=" ">
<polygon fill="white" stroke="black" points="154.57,-280.5 154.57,-299.5 261.57,-299.5 261.57,-280.5 154.57,-280.5"/>
<text text-anchor="middle" x="208.07" y="-287.5" font-family="Helvetica,sans-Serif" font-size="10.00">StructureNodeImpl.h</text>
</a>
</g>
</g>
<!-- Node1&#45;&gt;Node17 -->
<g id="edge20" class="edge">
<title>Node1&#45;&gt;Node17</title>
<path fill="none" stroke="midnightblue" d="M242.3,-336.08C236.51,-328.46 228.01,-317.26 220.93,-307.94"/>
<polygon fill="midnightblue" stroke="midnightblue" points="223.55,-305.6 214.72,-299.75 217.98,-309.83 223.55,-305.6"/>
</g>
<!-- Node3 -->
<g id="node3" class="node">
<title>Node3</title>
<g id="a_node3"><a xlink:title=" ">
<polygon fill="white" stroke="#bfbfbf" points="267.07,-168.5 267.07,-187.5 313.07,-187.5 313.07,-168.5 267.07,-168.5"/>
<text text-anchor="middle" x="290.07" y="-175.5" font-family="Helvetica,sans-Serif" font-size="10.00">cstdint</text>
</a>
</g>
</g>
<!-- Node2&#45;&gt;Node3 -->
<g id="edge2" class="edge">
<title>Node2&#45;&gt;Node3</title>
<path fill="none" stroke="midnightblue" d="M290.07,-224.08C290.07,-217.01 290.07,-206.86 290.07,-197.99"/>
<polygon fill="midnightblue" stroke="midnightblue" points="293.57,-197.75 290.07,-187.75 286.57,-197.75 293.57,-197.75"/>
</g>
<!-- Node4 -->
<g id="node4" class="node">
<title>Node4</title>
<g id="a_node4"><a xlink:title=" ">
<polygon fill="white" stroke="#bfbfbf" points="264.07,-56.5 264.07,-75.5 308.07,-75.5 308.07,-56.5 264.07,-56.5"/>
<text text-anchor="middle" x="286.07" y="-63.5" font-family="Helvetica,sans-Serif" font-size="10.00">vector</text>
</a>
</g>
</g>
<!-- Node2&#45;&gt;Node4 -->
<g id="edge3" class="edge">
<title>Node2&#45;&gt;Node4</title>
<path fill="none" stroke="midnightblue" d="M298.54,-224.19C306.14,-215.67 316.89,-202.03 322.07,-188 333.79,-156.24 339.3,-143.57 327.07,-112 322.62,-100.5 313.7,-90.13 305.32,-82.25"/>
<polygon fill="midnightblue" stroke="midnightblue" points="307.44,-79.46 297.61,-75.51 302.83,-84.73 307.44,-79.46"/>
</g>
<!-- Node5 -->
<g id="node5" class="node">
<title>Node5</title>
<g id="a_node5"><a xlink:href="_common_8h.html" target="_top" xlink:title=" ">
<polygon fill="white" stroke="black" points="175.57,-168.5 175.57,-187.5 240.57,-187.5 240.57,-168.5 175.57,-168.5"/>
<text text-anchor="middle" x="208.07" y="-175.5" font-family="Helvetica,sans-Serif" font-size="10.00">Common.h</text>
</a>
</g>
</g>
<!-- Node2&#45;&gt;Node5 -->
<g id="edge4" class="edge">
<title>Node2&#45;&gt;Node5</title>
<path fill="none" stroke="midnightblue" d="M276.9,-224.32C264.23,-215.98 244.84,-203.21 229.87,-193.35"/>
<polygon fill="midnightblue" stroke="midnightblue" points="231.49,-190.23 221.21,-187.65 227.64,-196.08 231.49,-190.23"/>
</g>
<!-- Node5&#45;&gt;Node4 -->
<g id="edge10" class="edge">
<title>Node5&#45;&gt;Node4</title>
<path fill="none" stroke="midnightblue" d="M214.19,-168.37C227.06,-150.22 257.14,-107.8 274.02,-83.99"/>
<polygon fill="midnightblue" stroke="midnightblue" points="277.05,-85.77 279.98,-75.59 271.34,-81.72 277.05,-85.77"/>
</g>
<!-- Node6 -->
<g id="node6" class="node">
<title>Node6</title>
<g id="a_node6"><a xlink:title=" ">
<polygon fill="white" stroke="#bfbfbf" points="268.07,-112.5 268.07,-131.5 318.07,-131.5 318.07,-112.5 268.07,-112.5"/>
<text text-anchor="middle" x="293.07" y="-119.5" font-family="Helvetica,sans-Serif" font-size="10.00">iomanip</text>
</a>
</g>
</g>
<!-- Node5&#45;&gt;Node6 -->
<g id="edge5" class="edge">
<title>Node5&#45;&gt;Node6</title>
<path fill="none" stroke="midnightblue" d="M221.73,-168.32C234.99,-159.9 255.34,-146.97 270.92,-137.07"/>
<polygon fill="midnightblue" stroke="midnightblue" points="272.89,-139.97 279.45,-131.65 269.13,-134.06 272.89,-139.97"/>
</g>
<!-- Node7 -->
<g id="node7" class="node">
<title>Node7</title>
<g id="a_node7"><a xlink:title=" ">
<polygon fill="white" stroke="#bfbfbf" points="304.07,-0.5 304.07,-19.5 358.07,-19.5 358.07,-0.5 304.07,-0.5"/>
<text text-anchor="middle" x="331.07" y="-7.5" font-family="Helvetica,sans-Serif" font-size="10.00">iostream</text>
</a>
</g>
</g>
<!-- Node5&#45;&gt;Node7 -->
<g id="edge6" class="edge">
<title>Node5&#45;&gt;Node7</title>
<path fill="none" stroke="midnightblue" d="M240.8,-168.98C272.32,-160.53 316.72,-146.46 327.07,-132 348.81,-101.63 342.3,-55.12 336.28,-29.51"/>
<polygon fill="midnightblue" stroke="midnightblue" points="339.62,-28.44 333.73,-19.63 332.84,-30.19 339.62,-28.44"/>
</g>
<!-- Node8 -->
<g id="node8" class="node">
<title>Node8</title>
<g id="a_node8"><a xlink:title=" ">
<polygon fill="white" stroke="#bfbfbf" points="20.07,-112.5 20.07,-131.5 50.07,-131.5 50.07,-112.5 20.07,-112.5"/>
<text text-anchor="middle" x="35.07" y="-119.5" font-family="Helvetica,sans-Serif" font-size="10.00">set</text>
</a>
</g>
</g>
<!-- Node5&#45;&gt;Node8 -->
<g id="edge7" class="edge">
<title>Node5&#45;&gt;Node8</title>
<path fill="none" stroke="midnightblue" d="M177.64,-168.44C149.34,-160.35 105.84,-147.55 59.8,-132.09"/>
<polygon fill="midnightblue" stroke="midnightblue" points="60.85,-128.75 50.25,-128.86 58.6,-135.39 60.85,-128.75"/>
</g>
<!-- Node9 -->
<g id="node9" class="node">
<title>Node9</title>
<g id="a_node9"><a xlink:title=" ">
<polygon fill="white" stroke="#bfbfbf" points="68.07,-112.5 68.07,-131.5 120.07,-131.5 120.07,-112.5 68.07,-112.5"/>
<text text-anchor="middle" x="94.07" y="-119.5" font-family="Helvetica,sans-Serif" font-size="10.00">sstream</text>
</a>
</g>
</g>
<!-- Node5&#45;&gt;Node9 -->
<g id="edge8" class="edge">
<title>Node5&#45;&gt;Node9</title>
<path fill="none" stroke="midnightblue" d="M190.01,-168.44C171.5,-159.68 142.49,-145.94 121.22,-135.86"/>
<polygon fill="midnightblue" stroke="midnightblue" points="122.59,-132.63 112.05,-131.52 119.59,-138.96 122.59,-132.63"/>
</g>
<!-- Node10 -->
<g id="node10" class="node">
<title>Node10</title>
<g id="a_node10"><a xlink:title=" ">
<polygon fill="white" stroke="#bfbfbf" points="17.57,-0.5 17.57,-19.5 58.57,-19.5 58.57,-0.5 17.57,-0.5"/>
<text text-anchor="middle" x="38.07" y="-7.5" font-family="Helvetica,sans-Serif" font-size="10.00">string</text>
</a>
</g>
</g>
<!-- Node5&#45;&gt;Node10 -->
<g id="edge9" class="edge">
<title>Node5&#45;&gt;Node10</title>
<path fill="none" stroke="midnightblue" d="M175.28,-174.35C124.67,-169.51 31.25,-157.3 11.07,-132 -13.2,-101.56 10.31,-53.72 26.19,-28.27"/>
<polygon fill="midnightblue" stroke="midnightblue" points="29.26,-29.99 31.79,-19.7 23.4,-26.16 29.26,-29.99"/>
</g>
<!-- Node11 -->
<g id="node11" class="node">
<title>Node11</title>
<g id="a_node11"><a xlink:href="_e57_format_8h.html" target="_top" xlink:title=" ">
<polygon fill="white" stroke="black" points="138.57,-112.5 138.57,-131.5 211.57,-131.5 211.57,-112.5 138.57,-112.5"/>
<text text-anchor="middle" x="175.07" y="-119.5" font-family="Helvetica,sans-Serif" font-size="10.00">E57Format.h</text>
</a>
</g>
</g>
<!-- Node5&#45;&gt;Node11 -->
<g id="edge11" class="edge">
<title>Node5&#45;&gt;Node11</title>
<path fill="none" stroke="midnightblue" d="M202.62,-168.08C198.06,-160.61 191.4,-149.72 185.78,-140.52"/>
<polygon fill="midnightblue" stroke="midnightblue" points="188.62,-138.46 180.42,-131.75 182.65,-142.11 188.62,-138.46"/>
</g>
<!-- Node11&#45;&gt;Node4 -->
<g id="edge14" class="edge">
<title>Node11&#45;&gt;Node4</title>
<path fill="none" stroke="midnightblue" d="M192.91,-112.32C210.79,-103.62 238.55,-90.12 259.12,-80.11"/>
<polygon fill="midnightblue" stroke="midnightblue" points="260.82,-83.18 268.28,-75.65 257.76,-76.88 260.82,-83.18"/>
</g>
<!-- Node12 -->
<g id="node12" class="node">
<title>Node12</title>
<g id="a_node12"><a xlink:title=" ">
<polygon fill="white" stroke="#bfbfbf" points="30.57,-56.5 30.57,-75.5 71.57,-75.5 71.57,-56.5 30.57,-56.5"/>
<text text-anchor="middle" x="51.07" y="-63.5" font-family="Helvetica,sans-Serif" font-size="10.00">cfloat</text>
</a>
</g>
</g>
<!-- Node11&#45;&gt;Node12 -->
<g id="edge12" class="edge">
<title>Node11&#45;&gt;Node12</title>
<path fill="none" stroke="midnightblue" d="M155.42,-112.44C135.11,-103.6 103.17,-89.69 79.97,-79.59"/>
<polygon fill="midnightblue" stroke="midnightblue" points="81.19,-76.3 70.63,-75.52 78.4,-82.72 81.19,-76.3"/>
</g>
<!-- Node13 -->
<g id="node13" class="node">
<title>Node13</title>
<g id="a_node13"><a xlink:title=" ">
<polygon fill="white" stroke="#bfbfbf" points="90.07,-56.5 90.07,-75.5 142.07,-75.5 142.07,-56.5 90.07,-56.5"/>
<text text-anchor="middle" x="116.07" y="-63.5" font-family="Helvetica,sans-Serif" font-size="10.00">memory</text>
</a>
</g>
</g>
<!-- Node11&#45;&gt;Node13 -->
<g id="edge13" class="edge">
<title>Node11&#45;&gt;Node13</title>
<path fill="none" stroke="midnightblue" d="M165.59,-112.32C156.87,-104.34 143.73,-92.31 133.17,-82.65"/>
<polygon fill="midnightblue" stroke="midnightblue" points="135.46,-80 125.72,-75.83 130.74,-85.17 135.46,-80"/>
</g>
<!-- Node14 -->
<g id="node14" class="node">
<title>Node14</title>
<g id="a_node14"><a xlink:href="_e57_exception_8h.html" target="_top" xlink:title=" ">
<polygon fill="white" stroke="black" points="160.07,-56.5 160.07,-75.5 246.07,-75.5 246.07,-56.5 160.07,-56.5"/>
<text text-anchor="middle" x="203.07" y="-63.5" font-family="Helvetica,sans-Serif" font-size="10.00">E57Exception.h</text>
</a>
</g>
</g>
<!-- Node11&#45;&gt;Node14 -->
<g id="edge15" class="edge">
<title>Node11&#45;&gt;Node14</title>
<path fill="none" stroke="midnightblue" d="M179.7,-112.08C183.53,-104.69 189.1,-93.95 193.84,-84.81"/>
<polygon fill="midnightblue" stroke="midnightblue" points="197.04,-86.24 198.53,-75.75 190.82,-83.02 197.04,-86.24"/>
</g>
<!-- Node14&#45;&gt;Node7 -->
<g id="edge17" class="edge">
<title>Node14&#45;&gt;Node7</title>
<path fill="none" stroke="midnightblue" d="M223.35,-56.44C244.42,-47.56 277.59,-33.56 301.56,-23.45"/>
<polygon fill="midnightblue" stroke="midnightblue" points="303.03,-26.63 310.88,-19.52 300.31,-20.18 303.03,-26.63"/>
</g>
<!-- Node14&#45;&gt;Node10 -->
<g id="edge18" class="edge">
<title>Node14&#45;&gt;Node10</title>
<path fill="none" stroke="midnightblue" d="M176.93,-56.44C147.54,-46.82 99.87,-31.22 68.74,-21.04"/>
<polygon fill="midnightblue" stroke="midnightblue" points="69.46,-17.59 58.87,-17.81 67.29,-24.24 69.46,-17.59"/>
</g>
<!-- Node15 -->
<g id="node15" class="node">
<title>Node15</title>
<g id="a_node15"><a xlink:title=" ">
<polygon fill="white" stroke="#bfbfbf" points="187.57,-0.5 187.57,-19.5 246.57,-19.5 246.57,-0.5 187.57,-0.5"/>
<text text-anchor="middle" x="217.07" y="-7.5" font-family="Helvetica,sans-Serif" font-size="10.00">exception</text>
</a>
</g>
</g>
<!-- Node14&#45;&gt;Node15 -->
<g id="edge16" class="edge">
<title>Node14&#45;&gt;Node15</title>
<path fill="none" stroke="midnightblue" d="M205.38,-56.08C207.24,-48.93 209.91,-38.64 212.23,-29.69"/>
<polygon fill="midnightblue" stroke="midnightblue" points="215.68,-30.31 214.8,-19.75 208.91,-28.55 215.68,-30.31"/>
</g>
<!-- Node16 -->
<g id="node16" class="node">
<title>Node16</title>
<g id="a_node16"><a xlink:title=" ">
<polygon fill="white" stroke="#bfbfbf" points="98.57,-0.5 98.57,-19.5 169.57,-19.5 169.57,-0.5 98.57,-0.5"/>
<text text-anchor="middle" x="134.07" y="-7.5" font-family="Helvetica,sans-Serif" font-size="10.00">E57Export.h</text>
</a>
</g>
</g>
<!-- Node14&#45;&gt;Node16 -->
<g id="edge19" class="edge">
<title>Node14&#45;&gt;Node16</title>
<path fill="none" stroke="midnightblue" d="M191.99,-56.32C181.59,-48.18 165.81,-35.84 153.35,-26.09"/>
<polygon fill="midnightblue" stroke="midnightblue" points="155.39,-23.24 145.36,-19.83 151.08,-28.75 155.39,-23.24"/>
</g>
<!-- Node18 -->
<g id="node18" class="node">
<title>Node18</title>
<g id="a_node18"><a xlink:href="_node_impl_8h.html" target="_top" xlink:title=" ">
<polygon fill="white" stroke="black" points="174.57,-224.5 174.57,-243.5 241.57,-243.5 241.57,-224.5 174.57,-224.5"/>
<text text-anchor="middle" x="208.07" y="-231.5" font-family="Helvetica,sans-Serif" font-size="10.00">NodeImpl.h</text>
</a>
</g>
</g>
<!-- Node17&#45;&gt;Node18 -->
<g id="edge21" class="edge">
<title>Node17&#45;&gt;Node18</title>
<path fill="none" stroke="midnightblue" d="M208.07,-280.08C208.07,-273.01 208.07,-262.86 208.07,-253.99"/>
<polygon fill="midnightblue" stroke="midnightblue" points="211.57,-253.75 208.07,-243.75 204.57,-253.75 211.57,-253.75"/>
</g>
<!-- Node18&#45;&gt;Node5 -->
<g id="edge22" class="edge">
<title>Node18&#45;&gt;Node5</title>
<path fill="none" stroke="midnightblue" d="M208.07,-224.08C208.07,-217.01 208.07,-206.86 208.07,-197.99"/>
<polygon fill="midnightblue" stroke="midnightblue" points="211.57,-197.75 208.07,-187.75 204.57,-197.75 211.57,-197.75"/>
</g>
</g>
</svg>
