<?xml version="1.0" encoding="UTF-8" standalone="no"?>
<!DOCTYPE svg PUBLIC "-//W3C//DTD SVG 1.1//EN"
 "http://www.w3.org/Graphics/SVG/1.1/DTD/svg11.dtd">
<!-- Generated by graphviz version 2.44.0 (20200408.0750)
 -->
<!-- Title: E57Format.cpp Pages: 1 -->
<svg width="482pt" height="420pt"
 viewBox="0.00 0.00 481.50 420.00" xmlns="http://www.w3.org/2000/svg" xmlns:xlink="http://www.w3.org/1999/xlink">
<g id="graph0" class="graph" transform="scale(1 1) rotate(0) translate(4 416)">
<title>E57Format.cpp</title>
<polygon fill="white" stroke="transparent" points="-4,4 -4,-416 477.5,-416 477.5,4 -4,4"/>
<!-- Node1 -->
<g id="node1" class="node">
<title>Node1</title>
<g id="a_node1"><a xlink:title=" ">
<polygon fill="#bfbfbf" stroke="black" points="250.5,-392.5 250.5,-411.5 333.5,-411.5 333.5,-392.5 250.5,-392.5"/>
<text text-anchor="middle" x="292" y="-399.5" font-family="Helvetica,sans-Serif" font-size="10.00">E57Format.cpp</text>
</a>
</g>
</g>
<!-- Node2 -->
<g id="node2" class="node">
<title>Node2</title>
<g id="a_node2"><a xlink:href="_e57_format_impl_8h.html" target="_top" xlink:title=" ">
<polygon fill="white" stroke="black" points="113,-336.5 113,-355.5 205,-355.5 205,-336.5 113,-336.5"/>
<text text-anchor="middle" x="159" y="-343.5" font-family="Helvetica,sans-Serif" font-size="10.00">E57FormatImpl.h</text>
</a>
</g>
</g>
<!-- Node1&#45;&gt;Node2 -->
<g id="edge1" class="edge">
<title>Node1&#45;&gt;Node2</title>
<path fill="none" stroke="midnightblue" d="M270.93,-392.44C248.94,-383.52 214.27,-369.44 189.34,-359.32"/>
<polygon fill="midnightblue" stroke="midnightblue" points="190.56,-356.04 179.98,-355.52 187.92,-362.52 190.56,-356.04"/>
</g>
<!-- Node20 -->
<g id="node20" class="node">
<title>Node20</title>
<g id="a_node20"><a xlink:href="_image_file_impl_8h.html" target="_top" xlink:title=" ">
<polygon fill="white" stroke="black" points="338,-224.5 338,-243.5 424,-243.5 424,-224.5 338,-224.5"/>
<text text-anchor="middle" x="381" y="-231.5" font-family="Helvetica,sans-Serif" font-size="10.00">ImageFileImpl.h</text>
</a>
</g>
</g>
<!-- Node1&#45;&gt;Node20 -->
<g id="edge24" class="edge">
<title>Node1&#45;&gt;Node20</title>
<path fill="none" stroke="midnightblue" d="M299.41,-392.41C313.49,-375.7 344.27,-337.16 362,-300 369.12,-285.08 374.15,-266.94 377.24,-253.61"/>
<polygon fill="midnightblue" stroke="midnightblue" points="380.68,-254.25 379.38,-243.73 373.84,-252.77 380.68,-254.25"/>
</g>
<!-- Node21 -->
<g id="node21" class="node">
<title>Node21</title>
<g id="a_node21"><a xlink:href="_source_dest_buffer_impl_8h.html" target="_top" xlink:title=" ">
<polygon fill="white" stroke="black" points="231,-280.5 231,-299.5 353,-299.5 353,-280.5 231,-280.5"/>
<text text-anchor="middle" x="292" y="-287.5" font-family="Helvetica,sans-Serif" font-size="10.00">SourceDestBufferImpl.h</text>
</a>
</g>
</g>
<!-- Node1&#45;&gt;Node21 -->
<g id="edge27" class="edge">
<title>Node1&#45;&gt;Node21</title>
<path fill="none" stroke="midnightblue" d="M292,-392.37C292,-374.62 292,-333.67 292,-309.6"/>
<polygon fill="midnightblue" stroke="midnightblue" points="295.5,-309.59 292,-299.59 288.5,-309.59 295.5,-309.59"/>
</g>
<!-- Node3 -->
<g id="node3" class="node">
<title>Node3</title>
<g id="a_node3"><a xlink:href="_packet_8h.html" target="_top" xlink:title=" ">
<polygon fill="white" stroke="black" points="47,-224.5 47,-243.5 103,-243.5 103,-224.5 47,-224.5"/>
<text text-anchor="middle" x="75" y="-231.5" font-family="Helvetica,sans-Serif" font-size="10.00">Packet.h</text>
</a>
</g>
</g>
<!-- Node2&#45;&gt;Node3 -->
<g id="edge2" class="edge">
<title>Node2&#45;&gt;Node3</title>
<path fill="none" stroke="midnightblue" d="M141.38,-336.46C127.23,-328.76 107.82,-316.16 96,-300 86.05,-286.39 80.67,-267.85 77.86,-254.05"/>
<polygon fill="midnightblue" stroke="midnightblue" points="81.23,-253.03 76.06,-243.79 74.34,-254.24 81.23,-253.03"/>
</g>
<!-- Node18 -->
<g id="node18" class="node">
<title>Node18</title>
<g id="a_node18"><a xlink:href="_structure_node_impl_8h.html" target="_top" xlink:title=" ">
<polygon fill="white" stroke="black" points="105.5,-280.5 105.5,-299.5 212.5,-299.5 212.5,-280.5 105.5,-280.5"/>
<text text-anchor="middle" x="159" y="-287.5" font-family="Helvetica,sans-Serif" font-size="10.00">StructureNodeImpl.h</text>
</a>
</g>
</g>
<!-- Node2&#45;&gt;Node18 -->
<g id="edge21" class="edge">
<title>Node2&#45;&gt;Node18</title>
<path fill="none" stroke="midnightblue" d="M159,-336.08C159,-329.01 159,-318.86 159,-309.99"/>
<polygon fill="midnightblue" stroke="midnightblue" points="162.5,-309.75 159,-299.75 155.5,-309.75 162.5,-309.75"/>
</g>
<!-- Node4 -->
<g id="node4" class="node">
<title>Node4</title>
<g id="a_node4"><a xlink:title=" ">
<polygon fill="white" stroke="#bfbfbf" points="0,-168.5 0,-187.5 46,-187.5 46,-168.5 0,-168.5"/>
<text text-anchor="middle" x="23" y="-175.5" font-family="Helvetica,sans-Serif" font-size="10.00">cstdint</text>
</a>
</g>
</g>
<!-- Node3&#45;&gt;Node4 -->
<g id="edge3" class="edge">
<title>Node3&#45;&gt;Node4</title>
<path fill="none" stroke="midnightblue" d="M66.41,-224.08C58.84,-216.22 47.62,-204.57 38.49,-195.08"/>
<polygon fill="midnightblue" stroke="midnightblue" points="40.88,-192.53 31.43,-187.75 35.84,-197.38 40.88,-192.53"/>
</g>
<!-- Node5 -->
<g id="node5" class="node">
<title>Node5</title>
<g id="a_node5"><a xlink:title=" ">
<polygon fill="white" stroke="#bfbfbf" points="90,-56.5 90,-75.5 134,-75.5 134,-56.5 90,-56.5"/>
<text text-anchor="middle" x="112" y="-63.5" font-family="Helvetica,sans-Serif" font-size="10.00">vector</text>
</a>
</g>
</g>
<!-- Node3&#45;&gt;Node5 -->
<g id="edge4" class="edge">
<title>Node3&#45;&gt;Node5</title>
<path fill="none" stroke="midnightblue" d="M76.99,-224.08C82.81,-197.95 99.92,-121.21 107.86,-85.58"/>
<polygon fill="midnightblue" stroke="midnightblue" points="111.33,-86.09 110.09,-75.57 104.5,-84.57 111.33,-86.09"/>
</g>
<!-- Node6 -->
<g id="node6" class="node">
<title>Node6</title>
<g id="a_node6"><a xlink:href="_common_8h.html" target="_top" xlink:title=" ">
<polygon fill="white" stroke="black" points="259.5,-168.5 259.5,-187.5 324.5,-187.5 324.5,-168.5 259.5,-168.5"/>
<text text-anchor="middle" x="292" y="-175.5" font-family="Helvetica,sans-Serif" font-size="10.00">Common.h</text>
</a>
</g>
</g>
<!-- Node3&#45;&gt;Node6 -->
<g id="edge5" class="edge">
<title>Node3&#45;&gt;Node6</title>
<path fill="none" stroke="midnightblue" d="M103.37,-225.94C140.59,-216.68 206.25,-200.34 249.44,-189.59"/>
<polygon fill="midnightblue" stroke="midnightblue" points="250.51,-192.93 259.37,-187.12 248.82,-186.14 250.51,-192.93"/>
</g>
<!-- Node6&#45;&gt;Node5 -->
<g id="edge11" class="edge">
<title>Node6&#45;&gt;Node5</title>
<path fill="none" stroke="midnightblue" d="M259.33,-176.8C223.14,-174.79 165.37,-165.97 131,-132 118.86,-120 114.38,-100.71 112.77,-86.25"/>
<polygon fill="midnightblue" stroke="midnightblue" points="116.24,-85.64 112.01,-75.92 109.26,-86.15 116.24,-85.64"/>
</g>
<!-- Node7 -->
<g id="node7" class="node">
<title>Node7</title>
<g id="a_node7"><a xlink:title=" ">
<polygon fill="white" stroke="#bfbfbf" points="388,-112.5 388,-131.5 438,-131.5 438,-112.5 388,-112.5"/>
<text text-anchor="middle" x="413" y="-119.5" font-family="Helvetica,sans-Serif" font-size="10.00">iomanip</text>
</a>
</g>
</g>
<!-- Node6&#45;&gt;Node7 -->
<g id="edge6" class="edge">
<title>Node6&#45;&gt;Node7</title>
<path fill="none" stroke="midnightblue" d="M311.17,-168.44C330.91,-159.64 361.89,-145.81 384.49,-135.72"/>
<polygon fill="midnightblue" stroke="midnightblue" points="386.21,-138.79 393.92,-131.52 383.36,-132.4 386.21,-138.79"/>
</g>
<!-- Node8 -->
<g id="node8" class="node">
<title>Node8</title>
<g id="a_node8"><a xlink:title=" ">
<polygon fill="white" stroke="#bfbfbf" points="321,-0.5 321,-19.5 375,-19.5 375,-0.5 321,-0.5"/>
<text text-anchor="middle" x="348" y="-7.5" font-family="Helvetica,sans-Serif" font-size="10.00">iostream</text>
</a>
</g>
</g>
<!-- Node6&#45;&gt;Node8 -->
<g id="edge7" class="edge">
<title>Node6&#45;&gt;Node8</title>
<path fill="none" stroke="midnightblue" d="M306.11,-168.21C317.45,-160.28 332.67,-147.49 340,-132 355.7,-98.81 353.72,-54.69 350.87,-29.93"/>
<polygon fill="midnightblue" stroke="midnightblue" points="354.3,-29.2 349.51,-19.75 347.36,-30.12 354.3,-29.2"/>
</g>
<!-- Node9 -->
<g id="node9" class="node">
<title>Node9</title>
<g id="a_node9"><a xlink:title=" ">
<polygon fill="white" stroke="#bfbfbf" points="140,-112.5 140,-131.5 170,-131.5 170,-112.5 140,-112.5"/>
<text text-anchor="middle" x="155" y="-119.5" font-family="Helvetica,sans-Serif" font-size="10.00">set</text>
</a>
</g>
</g>
<!-- Node6&#45;&gt;Node9 -->
<g id="edge8" class="edge">
<title>Node6&#45;&gt;Node9</title>
<path fill="none" stroke="midnightblue" d="M270.29,-168.44C245.65,-158.73 205.52,-142.91 179.7,-132.74"/>
<polygon fill="midnightblue" stroke="midnightblue" points="180.83,-129.42 170.24,-129.01 178.26,-135.93 180.83,-129.42"/>
</g>
<!-- Node10 -->
<g id="node10" class="node">
<title>Node10</title>
<g id="a_node10"><a xlink:title=" ">
<polygon fill="white" stroke="#bfbfbf" points="188,-112.5 188,-131.5 240,-131.5 240,-112.5 188,-112.5"/>
<text text-anchor="middle" x="214" y="-119.5" font-family="Helvetica,sans-Serif" font-size="10.00">sstream</text>
</a>
</g>
</g>
<!-- Node6&#45;&gt;Node10 -->
<g id="edge9" class="edge">
<title>Node6&#45;&gt;Node10</title>
<path fill="none" stroke="midnightblue" d="M279.47,-168.32C267.41,-159.98 248.97,-147.21 234.73,-137.35"/>
<polygon fill="midnightblue" stroke="midnightblue" points="236.72,-134.47 226.5,-131.65 232.73,-140.22 236.72,-134.47"/>
</g>
<!-- Node11 -->
<g id="node11" class="node">
<title>Node11</title>
<g id="a_node11"><a xlink:title=" ">
<polygon fill="white" stroke="#bfbfbf" points="432.5,-0.5 432.5,-19.5 473.5,-19.5 473.5,-0.5 432.5,-0.5"/>
<text text-anchor="middle" x="453" y="-7.5" font-family="Helvetica,sans-Serif" font-size="10.00">string</text>
</a>
</g>
</g>
<!-- Node6&#45;&gt;Node11 -->
<g id="edge10" class="edge">
<title>Node6&#45;&gt;Node11</title>
<path fill="none" stroke="midnightblue" d="M324.7,-175.95C359.34,-173.11 413.54,-163.5 447,-132 472.43,-108.06 472.25,-90.53 467,-56 465.63,-47 462.81,-37.33 460.05,-29.26"/>
<polygon fill="midnightblue" stroke="midnightblue" points="463.31,-27.98 456.6,-19.78 456.73,-30.37 463.31,-27.98"/>
</g>
<!-- Node12 -->
<g id="node12" class="node">
<title>Node12</title>
<g id="a_node12"><a xlink:href="_e57_format_8h.html" target="_top" xlink:title=" ">
<polygon fill="white" stroke="black" points="258.5,-112.5 258.5,-131.5 331.5,-131.5 331.5,-112.5 258.5,-112.5"/>
<text text-anchor="middle" x="295" y="-119.5" font-family="Helvetica,sans-Serif" font-size="10.00">E57Format.h</text>
</a>
</g>
</g>
<!-- Node6&#45;&gt;Node12 -->
<g id="edge12" class="edge">
<title>Node6&#45;&gt;Node12</title>
<path fill="none" stroke="midnightblue" d="M292.5,-168.08C292.89,-161.01 293.45,-150.86 293.95,-141.99"/>
<polygon fill="midnightblue" stroke="midnightblue" points="297.45,-141.93 294.51,-131.75 290.46,-141.54 297.45,-141.93"/>
</g>
<!-- Node12&#45;&gt;Node5 -->
<g id="edge15" class="edge">
<title>Node12&#45;&gt;Node5</title>
<path fill="none" stroke="midnightblue" d="M266,-112.44C232.85,-102.66 178.72,-86.69 144.26,-76.52"/>
<polygon fill="midnightblue" stroke="midnightblue" points="144.82,-73.04 134.24,-73.56 142.84,-79.75 144.82,-73.04"/>
</g>
<!-- Node13 -->
<g id="node13" class="node">
<title>Node13</title>
<g id="a_node13"><a xlink:title=" ">
<polygon fill="white" stroke="#bfbfbf" points="290.5,-56.5 290.5,-75.5 331.5,-75.5 331.5,-56.5 290.5,-56.5"/>
<text text-anchor="middle" x="311" y="-63.5" font-family="Helvetica,sans-Serif" font-size="10.00">cfloat</text>
</a>
</g>
</g>
<!-- Node12&#45;&gt;Node13 -->
<g id="edge13" class="edge">
<title>Node12&#45;&gt;Node13</title>
<path fill="none" stroke="midnightblue" d="M297.64,-112.08C299.79,-104.85 302.88,-94.41 305.55,-85.4"/>
<polygon fill="midnightblue" stroke="midnightblue" points="308.92,-86.33 308.41,-75.75 302.21,-84.34 308.92,-86.33"/>
</g>
<!-- Node14 -->
<g id="node14" class="node">
<title>Node14</title>
<g id="a_node14"><a xlink:title=" ">
<polygon fill="white" stroke="#bfbfbf" points="406,-56.5 406,-75.5 458,-75.5 458,-56.5 406,-56.5"/>
<text text-anchor="middle" x="432" y="-63.5" font-family="Helvetica,sans-Serif" font-size="10.00">memory</text>
</a>
</g>
</g>
<!-- Node12&#45;&gt;Node14 -->
<g id="edge14" class="edge">
<title>Node12&#45;&gt;Node14</title>
<path fill="none" stroke="midnightblue" d="M316.71,-112.44C339.35,-103.52 375.07,-89.44 400.75,-79.32"/>
<polygon fill="midnightblue" stroke="midnightblue" points="402.37,-82.44 410.39,-75.52 399.81,-75.93 402.37,-82.44"/>
</g>
<!-- Node15 -->
<g id="node15" class="node">
<title>Node15</title>
<g id="a_node15"><a xlink:href="_e57_exception_8h.html" target="_top" xlink:title=" ">
<polygon fill="white" stroke="black" points="186,-56.5 186,-75.5 272,-75.5 272,-56.5 186,-56.5"/>
<text text-anchor="middle" x="229" y="-63.5" font-family="Helvetica,sans-Serif" font-size="10.00">E57Exception.h</text>
</a>
</g>
</g>
<!-- Node12&#45;&gt;Node15 -->
<g id="edge16" class="edge">
<title>Node12&#45;&gt;Node15</title>
<path fill="none" stroke="midnightblue" d="M284.4,-112.32C274.54,-104.26 259.65,-92.08 247.78,-82.37"/>
<polygon fill="midnightblue" stroke="midnightblue" points="249.75,-79.46 239.8,-75.83 245.32,-84.88 249.75,-79.46"/>
</g>
<!-- Node15&#45;&gt;Node8 -->
<g id="edge18" class="edge">
<title>Node15&#45;&gt;Node8</title>
<path fill="none" stroke="midnightblue" d="M247.86,-56.44C267.27,-47.64 297.73,-33.81 319.96,-23.72"/>
<polygon fill="midnightblue" stroke="midnightblue" points="321.57,-26.84 329.23,-19.52 318.68,-20.46 321.57,-26.84"/>
</g>
<!-- Node15&#45;&gt;Node11 -->
<g id="edge19" class="edge">
<title>Node15&#45;&gt;Node11</title>
<path fill="none" stroke="midnightblue" d="M264.49,-56.44C308.16,-45.92 381.56,-28.22 422.7,-18.3"/>
<polygon fill="midnightblue" stroke="midnightblue" points="423.53,-21.71 432.43,-15.96 421.89,-14.9 423.53,-21.71"/>
</g>
<!-- Node16 -->
<g id="node16" class="node">
<title>Node16</title>
<g id="a_node16"><a xlink:title=" ">
<polygon fill="white" stroke="#bfbfbf" points="129.5,-0.5 129.5,-19.5 188.5,-19.5 188.5,-0.5 129.5,-0.5"/>
<text text-anchor="middle" x="159" y="-7.5" font-family="Helvetica,sans-Serif" font-size="10.00">exception</text>
</a>
</g>
</g>
<!-- Node15&#45;&gt;Node16 -->
<g id="edge17" class="edge">
<title>Node15&#45;&gt;Node16</title>
<path fill="none" stroke="midnightblue" d="M217.75,-56.32C207.2,-48.18 191.2,-35.84 178.56,-26.09"/>
<polygon fill="midnightblue" stroke="midnightblue" points="180.51,-23.17 170.45,-19.83 176.23,-28.71 180.51,-23.17"/>
</g>
<!-- Node17 -->
<g id="node17" class="node">
<title>Node17</title>
<g id="a_node17"><a xlink:title=" ">
<polygon fill="white" stroke="#bfbfbf" points="206.5,-0.5 206.5,-19.5 277.5,-19.5 277.5,-0.5 206.5,-0.5"/>
<text text-anchor="middle" x="242" y="-7.5" font-family="Helvetica,sans-Serif" font-size="10.00">E57Export.h</text>
</a>
</g>
</g>
<!-- Node15&#45;&gt;Node17 -->
<g id="edge20" class="edge">
<title>Node15&#45;&gt;Node17</title>
<path fill="none" stroke="midnightblue" d="M231.15,-56.08C232.87,-48.93 235.35,-38.64 237.5,-29.69"/>
<polygon fill="midnightblue" stroke="midnightblue" points="240.96,-30.29 239.89,-19.75 234.15,-28.65 240.96,-30.29"/>
</g>
<!-- Node19 -->
<g id="node19" class="node">
<title>Node19</title>
<g id="a_node19"><a xlink:href="_node_impl_8h.html" target="_top" xlink:title=" ">
<polygon fill="white" stroke="black" points="160.5,-224.5 160.5,-243.5 227.5,-243.5 227.5,-224.5 160.5,-224.5"/>
<text text-anchor="middle" x="194" y="-231.5" font-family="Helvetica,sans-Serif" font-size="10.00">NodeImpl.h</text>
</a>
</g>
</g>
<!-- Node18&#45;&gt;Node19 -->
<g id="edge22" class="edge">
<title>Node18&#45;&gt;Node19</title>
<path fill="none" stroke="midnightblue" d="M164.78,-280.08C169.67,-272.53 176.83,-261.49 182.83,-252.23"/>
<polygon fill="midnightblue" stroke="midnightblue" points="185.83,-254.05 188.33,-243.75 179.95,-250.24 185.83,-254.05"/>
</g>
<!-- Node19&#45;&gt;Node6 -->
<g id="edge23" class="edge">
<title>Node19&#45;&gt;Node6</title>
<path fill="none" stroke="midnightblue" d="M209.75,-224.32C225.32,-215.74 249.38,-202.49 267.46,-192.52"/>
<polygon fill="midnightblue" stroke="midnightblue" points="269.22,-195.55 276.29,-187.65 265.85,-189.42 269.22,-195.55"/>
</g>
<!-- Node20&#45;&gt;Node6 -->
<g id="edge26" class="edge">
<title>Node20&#45;&gt;Node6</title>
<path fill="none" stroke="midnightblue" d="M366.7,-224.32C352.82,-215.9 331.51,-202.97 315.2,-193.07"/>
<polygon fill="midnightblue" stroke="midnightblue" points="316.63,-189.85 306.26,-187.65 313,-195.83 316.63,-189.85"/>
</g>
<!-- Node20&#45;&gt;Node14 -->
<g id="edge25" class="edge">
<title>Node20&#45;&gt;Node14</title>
<path fill="none" stroke="midnightblue" d="M389.16,-224.45C404.14,-208.08 435.52,-170.54 447,-132 451.69,-116.23 446.56,-97.96 441.06,-84.8"/>
<polygon fill="midnightblue" stroke="midnightblue" points="444.13,-83.1 436.75,-75.5 437.78,-86.05 444.13,-83.1"/>
</g>
<!-- Node21&#45;&gt;Node6 -->
<g id="edge28" class="edge">
<title>Node21&#45;&gt;Node6</title>
<path fill="none" stroke="midnightblue" d="M292,-280.37C292,-262.62 292,-221.67 292,-197.6"/>
<polygon fill="midnightblue" stroke="midnightblue" points="295.5,-197.59 292,-187.59 288.5,-197.59 295.5,-197.59"/>
</g>
</g>
</svg>
