<?xml version="1.0" encoding="UTF-8" standalone="no"?>
<!DOCTYPE svg PUBLIC "-//W3C//DTD SVG 1.1//EN"
 "http://www.w3.org/Graphics/SVG/1.1/DTD/svg11.dtd">
<!-- Generated by graphviz version 2.44.0 (20200408.0750)
 -->
<!-- Title: E57FormatImpl.cpp Pages: 1 -->
<svg width="611pt" height="420pt"
 viewBox="0.00 0.00 611.00 420.00" xmlns="http://www.w3.org/2000/svg" xmlns:xlink="http://www.w3.org/1999/xlink">
<g id="graph0" class="graph" transform="scale(1 1) rotate(0) translate(4 416)">
<title>E57FormatImpl.cpp</title>
<polygon fill="white" stroke="transparent" points="-4,4 -4,-416 607,-416 607,4 -4,4"/>
<!-- Node1 -->
<g id="node1" class="node">
<title>Node1</title>
<g id="a_node1"><a xlink:title=" ">
<polygon fill="#bfbfbf" stroke="black" points="267,-392.5 267,-411.5 369,-411.5 369,-392.5 267,-392.5"/>
<text text-anchor="middle" x="318" y="-399.5" font-family="Helvetica,sans-Serif" font-size="10.00">E57FormatImpl.cpp</text>
</a>
</g>
</g>
<!-- Node2 -->
<g id="node2" class="node">
<title>Node2</title>
<g id="a_node2"><a xlink:title=" ">
<polygon fill="white" stroke="#bfbfbf" points="6,-336.5 6,-355.5 50,-355.5 50,-336.5 6,-336.5"/>
<text text-anchor="middle" x="28" y="-343.5" font-family="Helvetica,sans-Serif" font-size="10.00">cmath</text>
</a>
</g>
</g>
<!-- Node1&#45;&gt;Node2 -->
<g id="edge1" class="edge">
<title>Node1&#45;&gt;Node2</title>
<path fill="none" stroke="midnightblue" d="M266.56,-393.78C216.2,-386.32 137.18,-373.6 60.14,-356.06"/>
<polygon fill="midnightblue" stroke="midnightblue" points="60.8,-352.62 50.27,-353.79 59.23,-359.44 60.8,-352.62"/>
</g>
<!-- Node3 -->
<g id="node3" class="node">
<title>Node3</title>
<g id="a_node3"><a xlink:title=" ">
<polygon fill="white" stroke="#bfbfbf" points="68,-336.5 68,-355.5 114,-355.5 114,-336.5 68,-336.5"/>
<text text-anchor="middle" x="91" y="-343.5" font-family="Helvetica,sans-Serif" font-size="10.00">cstring</text>
</a>
</g>
</g>
<!-- Node1&#45;&gt;Node3 -->
<g id="edge2" class="edge">
<title>Node1&#45;&gt;Node3</title>
<path fill="none" stroke="midnightblue" d="M278.65,-392.49C241.25,-384.28 183.21,-371.21 123.94,-356.15"/>
<polygon fill="midnightblue" stroke="midnightblue" points="124.59,-352.71 114.04,-353.62 122.86,-359.49 124.59,-352.71"/>
</g>
<!-- Node4 -->
<g id="node4" class="node">
<title>Node4</title>
<g id="a_node4"><a xlink:href="_e57_format_impl_8h.html" target="_top" xlink:title=" ">
<polygon fill="white" stroke="black" points="132,-336.5 132,-355.5 224,-355.5 224,-336.5 132,-336.5"/>
<text text-anchor="middle" x="178" y="-343.5" font-family="Helvetica,sans-Serif" font-size="10.00">E57FormatImpl.h</text>
</a>
</g>
</g>
<!-- Node1&#45;&gt;Node4 -->
<g id="edge3" class="edge">
<title>Node1&#45;&gt;Node4</title>
<path fill="none" stroke="midnightblue" d="M295.82,-392.44C272.57,-383.48 235.85,-369.31 209.58,-359.18"/>
<polygon fill="midnightblue" stroke="midnightblue" points="210.67,-355.85 200.08,-355.52 208.15,-362.38 210.67,-355.85"/>
</g>
<!-- Node22 -->
<g id="node22" class="node">
<title>Node22</title>
<g id="a_node22"><a xlink:href="_checked_file_8h.html" target="_top" xlink:title=" ">
<polygon fill="white" stroke="black" points="242,-336.5 242,-355.5 322,-355.5 322,-336.5 242,-336.5"/>
<text text-anchor="middle" x="282" y="-343.5" font-family="Helvetica,sans-Serif" font-size="10.00">CheckedFile.h</text>
</a>
</g>
</g>
<!-- Node1&#45;&gt;Node22 -->
<g id="edge26" class="edge">
<title>Node1&#45;&gt;Node22</title>
<path fill="none" stroke="midnightblue" d="M312.06,-392.08C307.02,-384.53 299.66,-373.49 293.49,-364.23"/>
<polygon fill="midnightblue" stroke="midnightblue" points="296.29,-362.13 287.83,-355.75 290.47,-366.01 296.29,-362.13"/>
</g>
<!-- Node24 -->
<g id="node24" class="node">
<title>Node24</title>
<g id="a_node24"><a xlink:href="_decoder_8h.html" target="_top" xlink:title=" ">
<polygon fill="white" stroke="black" points="325.5,-280.5 325.5,-299.5 386.5,-299.5 386.5,-280.5 325.5,-280.5"/>
<text text-anchor="middle" x="356" y="-287.5" font-family="Helvetica,sans-Serif" font-size="10.00">Decoder.h</text>
</a>
</g>
</g>
<!-- Node1&#45;&gt;Node24 -->
<g id="edge29" class="edge">
<title>Node1&#45;&gt;Node24</title>
<path fill="none" stroke="midnightblue" d="M320.98,-392.37C327.14,-374.54 341.39,-333.3 349.69,-309.27"/>
<polygon fill="midnightblue" stroke="midnightblue" points="353.07,-310.19 353.03,-299.59 346.46,-307.9 353.07,-310.19"/>
</g>
<!-- Node25 -->
<g id="node25" class="node">
<title>Node25</title>
<g id="a_node25"><a xlink:href="_encoder_8h.html" target="_top" xlink:title=" ">
<polygon fill="white" stroke="black" points="321,-224.5 321,-243.5 381,-243.5 381,-224.5 321,-224.5"/>
<text text-anchor="middle" x="351" y="-231.5" font-family="Helvetica,sans-Serif" font-size="10.00">Encoder.h</text>
</a>
</g>
</g>
<!-- Node1&#45;&gt;Node25 -->
<g id="edge31" class="edge">
<title>Node1&#45;&gt;Node25</title>
<path fill="none" stroke="midnightblue" d="M327.77,-392.49C345.29,-376.48 381.53,-339.9 395,-300 397.84,-291.58 398.36,-288.23 395,-280 390.2,-268.23 380.67,-257.86 371.71,-250.05"/>
<polygon fill="midnightblue" stroke="midnightblue" points="373.75,-247.2 363.78,-243.63 369.35,-252.64 373.75,-247.2"/>
</g>
<!-- Node26 -->
<g id="node26" class="node">
<title>Node26</title>
<g id="a_node26"><a xlink:href="_image_file_impl_8h.html" target="_top" xlink:title=" ">
<polygon fill="white" stroke="black" points="410,-224.5 410,-243.5 496,-243.5 496,-224.5 410,-224.5"/>
<text text-anchor="middle" x="453" y="-231.5" font-family="Helvetica,sans-Serif" font-size="10.00">ImageFileImpl.h</text>
</a>
</g>
</g>
<!-- Node1&#45;&gt;Node26 -->
<g id="edge33" class="edge">
<title>Node1&#45;&gt;Node26</title>
<path fill="none" stroke="midnightblue" d="M334.75,-392.42C349.12,-384.45 369.7,-371.49 384,-356 413.13,-324.43 435.06,-278.42 445.75,-253.2"/>
<polygon fill="midnightblue" stroke="midnightblue" points="449.06,-254.35 449.63,-243.77 442.59,-251.69 449.06,-254.35"/>
</g>
<!-- Node27 -->
<g id="node27" class="node">
<title>Node27</title>
<g id="a_node27"><a xlink:href="_source_dest_buffer_impl_8h.html" target="_top" xlink:title=" ">
<polygon fill="white" stroke="black" points="481,-280.5 481,-299.5 603,-299.5 603,-280.5 481,-280.5"/>
<text text-anchor="middle" x="542" y="-287.5" font-family="Helvetica,sans-Serif" font-size="10.00">SourceDestBufferImpl.h</text>
</a>
</g>
</g>
<!-- Node1&#45;&gt;Node27 -->
<g id="edge36" class="edge">
<title>Node1&#45;&gt;Node27</title>
<path fill="none" stroke="midnightblue" d="M363.64,-392.45C394.18,-385.5 434.58,-373.87 467,-356 490.43,-343.09 513.02,-321.93 527.18,-307.28"/>
<polygon fill="midnightblue" stroke="midnightblue" points="529.82,-309.58 534.13,-299.9 524.72,-304.78 529.82,-309.58"/>
</g>
<!-- Node5 -->
<g id="node5" class="node">
<title>Node5</title>
<g id="a_node5"><a xlink:href="_packet_8h.html" target="_top" xlink:title=" ">
<polygon fill="white" stroke="black" points="32,-224.5 32,-243.5 88,-243.5 88,-224.5 32,-224.5"/>
<text text-anchor="middle" x="60" y="-231.5" font-family="Helvetica,sans-Serif" font-size="10.00">Packet.h</text>
</a>
</g>
</g>
<!-- Node4&#45;&gt;Node5 -->
<g id="edge4" class="edge">
<title>Node4&#45;&gt;Node5</title>
<path fill="none" stroke="midnightblue" d="M139.9,-336.37C118.87,-329.75 93.87,-318.5 78,-300 66.93,-287.1 62.63,-267.92 60.98,-253.74"/>
<polygon fill="midnightblue" stroke="midnightblue" points="64.45,-253.33 60.14,-243.65 57.48,-253.91 64.45,-253.33"/>
</g>
<!-- Node20 -->
<g id="node20" class="node">
<title>Node20</title>
<g id="a_node20"><a xlink:href="_structure_node_impl_8h.html" target="_top" xlink:title=" ">
<polygon fill="white" stroke="black" points="87.5,-280.5 87.5,-299.5 194.5,-299.5 194.5,-280.5 87.5,-280.5"/>
<text text-anchor="middle" x="141" y="-287.5" font-family="Helvetica,sans-Serif" font-size="10.00">StructureNodeImpl.h</text>
</a>
</g>
</g>
<!-- Node4&#45;&gt;Node20 -->
<g id="edge23" class="edge">
<title>Node4&#45;&gt;Node20</title>
<path fill="none" stroke="midnightblue" d="M171.89,-336.08C166.72,-328.53 159.15,-317.49 152.81,-308.23"/>
<polygon fill="midnightblue" stroke="midnightblue" points="155.54,-306.02 147,-299.75 149.76,-309.98 155.54,-306.02"/>
</g>
<!-- Node6 -->
<g id="node6" class="node">
<title>Node6</title>
<g id="a_node6"><a xlink:title=" ">
<polygon fill="white" stroke="#bfbfbf" points="0,-168.5 0,-187.5 46,-187.5 46,-168.5 0,-168.5"/>
<text text-anchor="middle" x="23" y="-175.5" font-family="Helvetica,sans-Serif" font-size="10.00">cstdint</text>
</a>
</g>
</g>
<!-- Node5&#45;&gt;Node6 -->
<g id="edge5" class="edge">
<title>Node5&#45;&gt;Node6</title>
<path fill="none" stroke="midnightblue" d="M53.89,-224.08C48.72,-216.53 41.15,-205.49 34.81,-196.23"/>
<polygon fill="midnightblue" stroke="midnightblue" points="37.54,-194.02 29,-187.75 31.76,-197.98 37.54,-194.02"/>
</g>
<!-- Node7 -->
<g id="node7" class="node">
<title>Node7</title>
<g id="a_node7"><a xlink:title=" ">
<polygon fill="white" stroke="#bfbfbf" points="160,-56.5 160,-75.5 204,-75.5 204,-56.5 160,-56.5"/>
<text text-anchor="middle" x="182" y="-63.5" font-family="Helvetica,sans-Serif" font-size="10.00">vector</text>
</a>
</g>
</g>
<!-- Node5&#45;&gt;Node7 -->
<g id="edge6" class="edge">
<title>Node5&#45;&gt;Node7</title>
<path fill="none" stroke="midnightblue" d="M63.83,-224.5C73.34,-203.88 99.56,-150.16 131,-112 140.15,-100.89 152.15,-90.16 162.21,-81.97"/>
<polygon fill="midnightblue" stroke="midnightblue" points="164.42,-84.68 170.1,-75.73 160.08,-79.19 164.42,-84.68"/>
</g>
<!-- Node8 -->
<g id="node8" class="node">
<title>Node8</title>
<g id="a_node8"><a xlink:href="_common_8h.html" target="_top" xlink:title=" ">
<polygon fill="white" stroke="black" points="242.5,-168.5 242.5,-187.5 307.5,-187.5 307.5,-168.5 242.5,-168.5"/>
<text text-anchor="middle" x="275" y="-175.5" font-family="Helvetica,sans-Serif" font-size="10.00">Common.h</text>
</a>
</g>
</g>
<!-- Node5&#45;&gt;Node8 -->
<g id="edge7" class="edge">
<title>Node5&#45;&gt;Node8</title>
<path fill="none" stroke="midnightblue" d="M88.11,-225.94C124.88,-216.7 189.67,-200.43 232.47,-189.68"/>
<polygon fill="midnightblue" stroke="midnightblue" points="233.47,-193.04 242.31,-187.21 231.76,-186.25 233.47,-193.04"/>
</g>
<!-- Node8&#45;&gt;Node7 -->
<g id="edge13" class="edge">
<title>Node8&#45;&gt;Node7</title>
<path fill="none" stroke="midnightblue" d="M273.22,-168.16C270.18,-154.8 262.91,-129.2 249,-112 238.33,-98.81 222.77,-88.03 209.33,-80.33"/>
<polygon fill="midnightblue" stroke="midnightblue" points="210.91,-77.21 200.45,-75.5 207.56,-83.36 210.91,-77.21"/>
</g>
<!-- Node9 -->
<g id="node9" class="node">
<title>Node9</title>
<g id="a_node9"><a xlink:title=" ">
<polygon fill="white" stroke="#bfbfbf" points="388,-112.5 388,-131.5 438,-131.5 438,-112.5 388,-112.5"/>
<text text-anchor="middle" x="413" y="-119.5" font-family="Helvetica,sans-Serif" font-size="10.00">iomanip</text>
</a>
</g>
</g>
<!-- Node8&#45;&gt;Node9 -->
<g id="edge8" class="edge">
<title>Node8&#45;&gt;Node9</title>
<path fill="none" stroke="midnightblue" d="M296.87,-168.44C319.78,-159.48 355.98,-145.31 381.87,-135.18"/>
<polygon fill="midnightblue" stroke="midnightblue" points="383.2,-138.42 391.24,-131.52 380.65,-131.9 383.2,-138.42"/>
</g>
<!-- Node10 -->
<g id="node10" class="node">
<title>Node10</title>
<g id="a_node10"><a xlink:title=" ">
<polygon fill="white" stroke="#bfbfbf" points="422,-0.5 422,-19.5 476,-19.5 476,-0.5 422,-0.5"/>
<text text-anchor="middle" x="449" y="-7.5" font-family="Helvetica,sans-Serif" font-size="10.00">iostream</text>
</a>
</g>
</g>
<!-- Node8&#45;&gt;Node10 -->
<g id="edge9" class="edge">
<title>Node8&#45;&gt;Node10</title>
<path fill="none" stroke="midnightblue" d="M307.69,-173.13C352.64,-167.07 429.94,-153.73 447,-132 470.16,-102.51 462,-55.31 454.93,-29.44"/>
<polygon fill="midnightblue" stroke="midnightblue" points="458.26,-28.37 452.06,-19.78 451.55,-30.36 458.26,-28.37"/>
</g>
<!-- Node11 -->
<g id="node11" class="node">
<title>Node11</title>
<g id="a_node11"><a xlink:title=" ">
<polygon fill="white" stroke="#bfbfbf" points="140,-112.5 140,-131.5 170,-131.5 170,-112.5 140,-112.5"/>
<text text-anchor="middle" x="155" y="-119.5" font-family="Helvetica,sans-Serif" font-size="10.00">set</text>
</a>
</g>
</g>
<!-- Node8&#45;&gt;Node11 -->
<g id="edge10" class="edge">
<title>Node8&#45;&gt;Node11</title>
<path fill="none" stroke="midnightblue" d="M255.99,-168.44C235.26,-159.12 202.04,-144.17 179.4,-133.98"/>
<polygon fill="midnightblue" stroke="midnightblue" points="180.68,-130.72 170.13,-129.81 177.81,-137.1 180.68,-130.72"/>
</g>
<!-- Node12 -->
<g id="node12" class="node">
<title>Node12</title>
<g id="a_node12"><a xlink:title=" ">
<polygon fill="white" stroke="#bfbfbf" points="188,-112.5 188,-131.5 240,-131.5 240,-112.5 188,-112.5"/>
<text text-anchor="middle" x="214" y="-119.5" font-family="Helvetica,sans-Serif" font-size="10.00">sstream</text>
</a>
</g>
</g>
<!-- Node8&#45;&gt;Node12 -->
<g id="edge11" class="edge">
<title>Node8&#45;&gt;Node12</title>
<path fill="none" stroke="midnightblue" d="M265.2,-168.32C256.18,-160.34 242.59,-148.31 231.68,-138.65"/>
<polygon fill="midnightblue" stroke="midnightblue" points="233.79,-135.84 223.98,-131.83 229.15,-141.08 233.79,-135.84"/>
</g>
<!-- Node13 -->
<g id="node13" class="node">
<title>Node13</title>
<g id="a_node13"><a xlink:title=" ">
<polygon fill="white" stroke="#bfbfbf" points="135.5,-0.5 135.5,-19.5 176.5,-19.5 176.5,-0.5 135.5,-0.5"/>
<text text-anchor="middle" x="156" y="-7.5" font-family="Helvetica,sans-Serif" font-size="10.00">string</text>
</a>
</g>
</g>
<!-- Node8&#45;&gt;Node13 -->
<g id="edge12" class="edge">
<title>Node8&#45;&gt;Node13</title>
<path fill="none" stroke="midnightblue" d="M242.43,-177.15C208.39,-175.34 156.44,-166.61 131,-132 108.12,-100.88 129.8,-53.66 144.67,-28.4"/>
<polygon fill="midnightblue" stroke="midnightblue" points="147.84,-29.93 150.12,-19.59 141.88,-26.25 147.84,-29.93"/>
</g>
<!-- Node14 -->
<g id="node14" class="node">
<title>Node14</title>
<g id="a_node14"><a xlink:href="_e57_format_8h.html" target="_top" xlink:title=" ">
<polygon fill="white" stroke="black" points="296.5,-112.5 296.5,-131.5 369.5,-131.5 369.5,-112.5 296.5,-112.5"/>
<text text-anchor="middle" x="333" y="-119.5" font-family="Helvetica,sans-Serif" font-size="10.00">E57Format.h</text>
</a>
</g>
</g>
<!-- Node8&#45;&gt;Node14 -->
<g id="edge14" class="edge">
<title>Node8&#45;&gt;Node14</title>
<path fill="none" stroke="midnightblue" d="M284.32,-168.32C292.89,-160.34 305.81,-148.31 316.19,-138.65"/>
<polygon fill="midnightblue" stroke="midnightblue" points="318.58,-141.21 323.51,-131.83 313.81,-136.09 318.58,-141.21"/>
</g>
<!-- Node14&#45;&gt;Node7 -->
<g id="edge17" class="edge">
<title>Node14&#45;&gt;Node7</title>
<path fill="none" stroke="midnightblue" d="M309.07,-112.44C283.33,-103.24 242.28,-88.56 213.83,-78.38"/>
<polygon fill="midnightblue" stroke="midnightblue" points="214.93,-75.06 204.34,-74.99 212.58,-81.65 214.93,-75.06"/>
</g>
<!-- Node15 -->
<g id="node15" class="node">
<title>Node15</title>
<g id="a_node15"><a xlink:title=" ">
<polygon fill="white" stroke="#bfbfbf" points="222.5,-56.5 222.5,-75.5 263.5,-75.5 263.5,-56.5 222.5,-56.5"/>
<text text-anchor="middle" x="243" y="-63.5" font-family="Helvetica,sans-Serif" font-size="10.00">cfloat</text>
</a>
</g>
</g>
<!-- Node14&#45;&gt;Node15 -->
<g id="edge15" class="edge">
<title>Node14&#45;&gt;Node15</title>
<path fill="none" stroke="midnightblue" d="M318.54,-112.32C304.5,-103.9 282.95,-90.97 266.46,-81.07"/>
<polygon fill="midnightblue" stroke="midnightblue" points="267.8,-77.8 257.42,-75.65 264.2,-83.8 267.8,-77.8"/>
</g>
<!-- Node16 -->
<g id="node16" class="node">
<title>Node16</title>
<g id="a_node16"><a xlink:title=" ">
<polygon fill="white" stroke="#bfbfbf" points="386,-56.5 386,-75.5 438,-75.5 438,-56.5 386,-56.5"/>
<text text-anchor="middle" x="412" y="-63.5" font-family="Helvetica,sans-Serif" font-size="10.00">memory</text>
</a>
</g>
</g>
<!-- Node14&#45;&gt;Node16 -->
<g id="edge16" class="edge">
<title>Node14&#45;&gt;Node16</title>
<path fill="none" stroke="midnightblue" d="M345.69,-112.32C357.9,-103.98 376.58,-91.21 391,-81.35"/>
<polygon fill="midnightblue" stroke="midnightblue" points="393.06,-84.19 399.34,-75.65 389.11,-78.41 393.06,-84.19"/>
</g>
<!-- Node17 -->
<g id="node17" class="node">
<title>Node17</title>
<g id="a_node17"><a xlink:href="_e57_exception_8h.html" target="_top" xlink:title=" ">
<polygon fill="white" stroke="black" points="282,-56.5 282,-75.5 368,-75.5 368,-56.5 282,-56.5"/>
<text text-anchor="middle" x="325" y="-63.5" font-family="Helvetica,sans-Serif" font-size="10.00">E57Exception.h</text>
</a>
</g>
</g>
<!-- Node14&#45;&gt;Node17 -->
<g id="edge18" class="edge">
<title>Node14&#45;&gt;Node17</title>
<path fill="none" stroke="midnightblue" d="M331.68,-112.08C330.62,-104.93 329.09,-94.64 327.77,-85.69"/>
<polygon fill="midnightblue" stroke="midnightblue" points="331.22,-85.13 326.3,-75.75 324.3,-86.16 331.22,-85.13"/>
</g>
<!-- Node17&#45;&gt;Node10 -->
<g id="edge20" class="edge">
<title>Node17&#45;&gt;Node10</title>
<path fill="none" stroke="midnightblue" d="M344.65,-56.44C364.96,-47.6 396.9,-33.69 420.1,-23.59"/>
<polygon fill="midnightblue" stroke="midnightblue" points="421.67,-26.72 429.44,-19.52 418.88,-20.3 421.67,-26.72"/>
</g>
<!-- Node17&#45;&gt;Node13 -->
<g id="edge21" class="edge">
<title>Node17&#45;&gt;Node13</title>
<path fill="none" stroke="midnightblue" d="M298.22,-56.44C267.74,-46.7 218.05,-30.83 186.2,-20.65"/>
<polygon fill="midnightblue" stroke="midnightblue" points="187.13,-17.27 176.54,-17.56 185,-23.94 187.13,-17.27"/>
</g>
<!-- Node18 -->
<g id="node18" class="node">
<title>Node18</title>
<g id="a_node18"><a xlink:title=" ">
<polygon fill="white" stroke="#bfbfbf" points="311.5,-0.5 311.5,-19.5 370.5,-19.5 370.5,-0.5 311.5,-0.5"/>
<text text-anchor="middle" x="341" y="-7.5" font-family="Helvetica,sans-Serif" font-size="10.00">exception</text>
</a>
</g>
</g>
<!-- Node17&#45;&gt;Node18 -->
<g id="edge19" class="edge">
<title>Node17&#45;&gt;Node18</title>
<path fill="none" stroke="midnightblue" d="M327.64,-56.08C329.79,-48.85 332.88,-38.41 335.55,-29.4"/>
<polygon fill="midnightblue" stroke="midnightblue" points="338.92,-30.33 338.41,-19.75 332.21,-28.34 338.92,-30.33"/>
</g>
<!-- Node19 -->
<g id="node19" class="node">
<title>Node19</title>
<g id="a_node19"><a xlink:title=" ">
<polygon fill="white" stroke="#bfbfbf" points="222.5,-0.5 222.5,-19.5 293.5,-19.5 293.5,-0.5 222.5,-0.5"/>
<text text-anchor="middle" x="258" y="-7.5" font-family="Helvetica,sans-Serif" font-size="10.00">E57Export.h</text>
</a>
</g>
</g>
<!-- Node17&#45;&gt;Node19 -->
<g id="edge22" class="edge">
<title>Node17&#45;&gt;Node19</title>
<path fill="none" stroke="midnightblue" d="M314.24,-56.32C304.23,-48.26 289.11,-36.08 277.07,-26.37"/>
<polygon fill="midnightblue" stroke="midnightblue" points="278.94,-23.38 268.96,-19.83 274.55,-28.83 278.94,-23.38"/>
</g>
<!-- Node21 -->
<g id="node21" class="node">
<title>Node21</title>
<g id="a_node21"><a xlink:href="_node_impl_8h.html" target="_top" xlink:title=" ">
<polygon fill="white" stroke="black" points="117.5,-224.5 117.5,-243.5 184.5,-243.5 184.5,-224.5 117.5,-224.5"/>
<text text-anchor="middle" x="151" y="-231.5" font-family="Helvetica,sans-Serif" font-size="10.00">NodeImpl.h</text>
</a>
</g>
</g>
<!-- Node20&#45;&gt;Node21 -->
<g id="edge24" class="edge">
<title>Node20&#45;&gt;Node21</title>
<path fill="none" stroke="midnightblue" d="M142.65,-280.08C143.98,-272.93 145.88,-262.64 147.54,-253.69"/>
<polygon fill="midnightblue" stroke="midnightblue" points="151,-254.22 149.38,-243.75 144.12,-252.95 151,-254.22"/>
</g>
<!-- Node21&#45;&gt;Node8 -->
<g id="edge25" class="edge">
<title>Node21&#45;&gt;Node8</title>
<path fill="none" stroke="midnightblue" d="M170.65,-224.44C190.96,-215.6 222.9,-201.69 246.1,-191.59"/>
<polygon fill="midnightblue" stroke="midnightblue" points="247.67,-194.72 255.44,-187.52 244.88,-188.3 247.67,-194.72"/>
</g>
<!-- Node22&#45;&gt;Node8 -->
<g id="edge28" class="edge">
<title>Node22&#45;&gt;Node8</title>
<path fill="none" stroke="midnightblue" d="M270.73,-336.43C261.03,-328.27 247.72,-315.05 242,-300 228.33,-264.04 249.24,-220.09 263.52,-196.3"/>
<polygon fill="midnightblue" stroke="midnightblue" points="266.57,-198.02 268.93,-187.69 260.65,-194.29 266.57,-198.02"/>
</g>
<!-- Node23 -->
<g id="node23" class="node">
<title>Node23</title>
<g id="a_node23"><a xlink:title=" ">
<polygon fill="white" stroke="#bfbfbf" points="251,-280.5 251,-299.5 307,-299.5 307,-280.5 251,-280.5"/>
<text text-anchor="middle" x="279" y="-287.5" font-family="Helvetica,sans-Serif" font-size="10.00">algorithm</text>
</a>
</g>
</g>
<!-- Node22&#45;&gt;Node23 -->
<g id="edge27" class="edge">
<title>Node22&#45;&gt;Node23</title>
<path fill="none" stroke="midnightblue" d="M281.5,-336.08C281.11,-329.01 280.55,-318.86 280.05,-309.99"/>
<polygon fill="midnightblue" stroke="midnightblue" points="283.54,-309.54 279.49,-299.75 276.55,-309.93 283.54,-309.54"/>
</g>
<!-- Node24&#45;&gt;Node8 -->
<g id="edge30" class="edge">
<title>Node24&#45;&gt;Node8</title>
<path fill="none" stroke="midnightblue" d="M346.16,-280.33C336.72,-271.7 322.39,-257.79 312,-244 300.79,-229.13 290.53,-210.51 283.67,-197.02"/>
<polygon fill="midnightblue" stroke="midnightblue" points="286.7,-195.26 279.13,-187.85 280.43,-198.36 286.7,-195.26"/>
</g>
<!-- Node25&#45;&gt;Node8 -->
<g id="edge32" class="edge">
<title>Node25&#45;&gt;Node8</title>
<path fill="none" stroke="midnightblue" d="M338.79,-224.32C327.22,-216.11 309.62,-203.6 295.84,-193.81"/>
<polygon fill="midnightblue" stroke="midnightblue" points="297.61,-190.77 287.43,-187.83 293.56,-196.48 297.61,-190.77"/>
</g>
<!-- Node26&#45;&gt;Node8 -->
<g id="edge35" class="edge">
<title>Node26&#45;&gt;Node8</title>
<path fill="none" stroke="midnightblue" d="M424.8,-224.44C394.59,-215.28 346.49,-200.69 312.97,-190.52"/>
<polygon fill="midnightblue" stroke="midnightblue" points="313.66,-187.07 303.07,-187.52 311.63,-193.77 313.66,-187.07"/>
</g>
<!-- Node26&#45;&gt;Node16 -->
<g id="edge34" class="edge">
<title>Node26&#45;&gt;Node16</title>
<path fill="none" stroke="midnightblue" d="M454.28,-224.44C456.97,-204.14 461.78,-151.83 447,-112 443.01,-101.26 435.47,-91.03 428.41,-83.04"/>
<polygon fill="midnightblue" stroke="midnightblue" points="430.8,-80.48 421.39,-75.61 425.71,-85.28 430.8,-80.48"/>
</g>
<!-- Node27&#45;&gt;Node8 -->
<g id="edge37" class="edge">
<title>Node27&#45;&gt;Node8</title>
<path fill="none" stroke="midnightblue" d="M539.61,-280.24C535.26,-266.02 524.61,-238.1 505,-224 475.55,-202.83 375.56,-189.32 317.57,-183.07"/>
<polygon fill="midnightblue" stroke="midnightblue" points="317.91,-179.59 307.6,-182.02 317.18,-186.55 317.91,-179.59"/>
</g>
</g>
</svg>
