<?xml version="1.0" encoding="UTF-8" standalone="no"?>
<!DOCTYPE svg PUBLIC "-//W3C//DTD SVG 1.1//EN"
 "http://www.w3.org/Graphics/SVG/1.1/DTD/svg11.dtd">
<!-- Generated by graphviz version 2.48.0 (20210717.1556)
 -->
<!-- Title: E57Version.h Pages: 1 -->
<svg width="222pt" height="84pt"
 viewBox="0.00 0.00 221.50 84.00" xmlns="http://www.w3.org/2000/svg" xmlns:xlink="http://www.w3.org/1999/xlink">
<g id="graph0" class="graph" transform="scale(1 1) rotate(0) translate(4 80)">
<title>E57Version.h</title>
<polygon fill="white" stroke="transparent" points="-4,4 -4,-80 217.5,-80 217.5,4 -4,4"/>
<!-- Node1 -->
<g id="node1" class="node">
<title>Node1</title>
<g id="a_node1"><a xlink:title=" ">
<polygon fill="#bfbfbf" stroke="black" points="68.5,-56.5 68.5,-75.5 144.5,-75.5 144.5,-56.5 68.5,-56.5"/>
<text text-anchor="middle" x="106.5" y="-63.5" font-family="Helvetica,sans-Serif" font-size="10.00">E57Version.h</text>
</a>
</g>
</g>
<!-- Node2 -->
<g id="node2" class="node">
<title>Node2</title>
<g id="a_node2"><a xlink:href="_e57_exception_8cpp.html" target="_top" xlink:title=" ">
<polygon fill="white" stroke="black" points="0,-0.5 0,-19.5 97,-19.5 97,-0.5 0,-0.5"/>
<text text-anchor="middle" x="48.5" y="-7.5" font-family="Helvetica,sans-Serif" font-size="10.00">E57Exception.cpp</text>
</a>
</g>
</g>
<!-- Node1&#45;&gt;Node2 -->
<g id="edge1" class="edge">
<title>Node1&#45;&gt;Node2</title>
<path fill="none" stroke="midnightblue" d="M89.59,-49.25C79.3,-39.67 66.53,-27.79 57.99,-19.83"/>
<polygon fill="midnightblue" stroke="midnightblue" points="87.48,-52.07 97.18,-56.32 92.25,-46.95 87.48,-52.07"/>
</g>
<!-- Node3 -->
<g id="node3" class="node">
<title>Node3</title>
<g id="a_node3"><a xlink:href="_image_file_impl_8cpp.html" target="_top" xlink:title=" ">
<polygon fill="white" stroke="black" points="115.5,-0.5 115.5,-19.5 213.5,-19.5 213.5,-0.5 115.5,-0.5"/>
<text text-anchor="middle" x="164.5" y="-7.5" font-family="Helvetica,sans-Serif" font-size="10.00">ImageFileImpl.cpp</text>
</a>
</g>
</g>
<!-- Node1&#45;&gt;Node3 -->
<g id="edge2" class="edge">
<title>Node1&#45;&gt;Node3</title>
<path fill="none" stroke="midnightblue" d="M123.41,-49.25C133.7,-39.67 146.47,-27.79 155.01,-19.83"/>
<polygon fill="midnightblue" stroke="midnightblue" points="120.75,-46.95 115.82,-56.32 125.52,-52.07 120.75,-46.95"/>
</g>
</g>
</svg>
