<?xml version="1.0" encoding="UTF-8" standalone="no"?>
<!DOCTYPE svg PUBLIC "-//W3C//DTD SVG 1.1//EN"
 "http://www.w3.org/Graphics/SVG/1.1/DTD/svg11.dtd">
<!-- Generated by graphviz version 2.48.0 (20210717.1556)
 -->
<!-- Title: E57XmlParser.cpp Pages: 1 -->
<svg width="1793pt" height="420pt"
 viewBox="0.00 0.00 1793.00 420.00" xmlns="http://www.w3.org/2000/svg" xmlns:xlink="http://www.w3.org/1999/xlink">
<g id="graph0" class="graph" transform="scale(1 1) rotate(0) translate(4 416)">
<title>E57XmlParser.cpp</title>
<polygon fill="white" stroke="transparent" points="-4,4 -4,-416 1789,-416 1789,4 -4,4"/>
<!-- Node1 -->
<g id="node1" class="node">
<title>Node1</title>
<g id="a_node1"><a xlink:title=" ">
<polygon fill="#bfbfbf" stroke="black" points="756,-392.5 756,-411.5 855,-411.5 855,-392.5 756,-392.5"/>
<text text-anchor="middle" x="805.5" y="-399.5" font-family="Helvetica,sans-Serif" font-size="10.00">E57XmlParser.cpp</text>
</a>
</g>
</g>
<!-- Node2 -->
<g id="node2" class="node">
<title>Node2</title>
<g id="a_node2"><a xlink:title=" ">
<polygon fill="white" stroke="#bfbfbf" points="0,-336.5 0,-355.5 139,-355.5 139,-336.5 0,-336.5"/>
<text text-anchor="middle" x="69.5" y="-343.5" font-family="Helvetica,sans-Serif" font-size="10.00">xercesc/sax2/Attributes.hpp</text>
</a>
</g>
</g>
<!-- Node1&#45;&gt;Node2 -->
<g id="edge1" class="edge">
<title>Node1&#45;&gt;Node2</title>
<path fill="none" stroke="midnightblue" d="M755.91,-398.4C647.7,-392.56 382.07,-377.28 149.24,-356.12"/>
<polygon fill="midnightblue" stroke="midnightblue" points="149.5,-352.63 139.22,-355.21 148.86,-359.6 149.5,-352.63"/>
</g>
<!-- Node3 -->
<g id="node3" class="node">
<title>Node3</title>
<g id="a_node3"><a xlink:title=" ">
<polygon fill="white" stroke="#bfbfbf" points="157,-336.5 157,-355.5 340,-355.5 340,-336.5 157,-336.5"/>
<text text-anchor="middle" x="248.5" y="-343.5" font-family="Helvetica,sans-Serif" font-size="10.00">xercesc/sax2/XMLReaderFactory.hpp</text>
</a>
</g>
</g>
<!-- Node1&#45;&gt;Node3 -->
<g id="edge2" class="edge">
<title>Node1&#45;&gt;Node3</title>
<path fill="none" stroke="midnightblue" d="M755.58,-396.16C663.73,-387.26 466.42,-368.13 346.81,-356.53"/>
<polygon fill="midnightblue" stroke="midnightblue" points="346.85,-353.02 336.56,-355.54 346.17,-359.99 346.85,-353.02"/>
</g>
<!-- Node4 -->
<g id="node4" class="node">
<title>Node4</title>
<g id="a_node4"><a xlink:title=" ">
<polygon fill="white" stroke="#bfbfbf" points="358.5,-336.5 358.5,-355.5 516.5,-355.5 516.5,-336.5 358.5,-336.5"/>
<text text-anchor="middle" x="437.5" y="-343.5" font-family="Helvetica,sans-Serif" font-size="10.00">xercesc/util/BinInputStream.hpp</text>
</a>
</g>
</g>
<!-- Node1&#45;&gt;Node4 -->
<g id="edge3" class="edge">
<title>Node1&#45;&gt;Node4</title>
<path fill="none" stroke="midnightblue" d="M755.87,-393.72C691.32,-384.25 578.26,-367.65 505.69,-357.01"/>
<polygon fill="midnightblue" stroke="midnightblue" points="506.13,-353.53 495.73,-355.54 505.11,-360.46 506.13,-353.53"/>
</g>
<!-- Node5 -->
<g id="node5" class="node">
<title>Node5</title>
<g id="a_node5"><a xlink:title=" ">
<polygon fill="white" stroke="#bfbfbf" points="535,-336.5 535,-355.5 682,-355.5 682,-336.5 535,-336.5"/>
<text text-anchor="middle" x="608.5" y="-343.5" font-family="Helvetica,sans-Serif" font-size="10.00">xercesc/util/TransService.hpp</text>
</a>
</g>
</g>
<!-- Node1&#45;&gt;Node5 -->
<g id="edge4" class="edge">
<title>Node1&#45;&gt;Node5</title>
<path fill="none" stroke="midnightblue" d="M774.28,-392.44C740.57,-383.2 686.7,-368.44 649.57,-358.26"/>
<polygon fill="midnightblue" stroke="midnightblue" points="650.14,-354.78 639.57,-355.52 648.29,-361.54 650.14,-354.78"/>
</g>
<!-- Node6 -->
<g id="node6" class="node">
<title>Node6</title>
<g id="a_node6"><a xlink:href="_blob_node_impl_8h.html" target="_top" xlink:title=" ">
<polygon fill="white" stroke="black" points="496.5,-280.5 496.5,-299.5 584.5,-299.5 584.5,-280.5 496.5,-280.5"/>
<text text-anchor="middle" x="540.5" y="-287.5" font-family="Helvetica,sans-Serif" font-size="10.00">BlobNodeImpl.h</text>
</a>
</g>
</g>
<!-- Node1&#45;&gt;Node6 -->
<g id="edge5" class="edge">
<title>Node1&#45;&gt;Node6</title>
<path fill="none" stroke="midnightblue" d="M790.35,-392.38C774.45,-383.33 748.71,-368.67 726.5,-356 710.94,-347.12 707.97,-343.05 691.5,-336 657.72,-321.54 617.82,-309.87 587.52,-302.04"/>
<polygon fill="midnightblue" stroke="midnightblue" points="588.19,-298.6 577.64,-299.53 586.47,-305.38 588.19,-298.6"/>
</g>
<!-- Node21 -->
<g id="node21" class="node">
<title>Node21</title>
<g id="a_node21"><a xlink:href="_checked_file_8h.html" target="_top" xlink:title=" ">
<polygon fill="white" stroke="black" points="1226.5,-336.5 1226.5,-355.5 1306.5,-355.5 1306.5,-336.5 1226.5,-336.5"/>
<text text-anchor="middle" x="1266.5" y="-343.5" font-family="Helvetica,sans-Serif" font-size="10.00">CheckedFile.h</text>
</a>
</g>
</g>
<!-- Node1&#45;&gt;Node21 -->
<g id="edge23" class="edge">
<title>Node1&#45;&gt;Node21</title>
<path fill="none" stroke="midnightblue" d="M855.12,-396.76C930.77,-390.03 1079.71,-375.77 1216.21,-356.09"/>
<polygon fill="midnightblue" stroke="midnightblue" points="1217.04,-359.51 1226.43,-354.61 1216.03,-352.58 1217.04,-359.51"/>
</g>
<!-- Node23 -->
<g id="node23" class="node">
<title>Node23</title>
<g id="a_node23"><a xlink:href="_compressed_vector_node_impl_8h.html" target="_top" xlink:title=" ">
<polygon fill="white" stroke="black" points="603,-280.5 603,-299.5 756,-299.5 756,-280.5 603,-280.5"/>
<text text-anchor="middle" x="679.5" y="-287.5" font-family="Helvetica,sans-Serif" font-size="10.00">CompressedVectorNodeImpl.h</text>
</a>
</g>
</g>
<!-- Node1&#45;&gt;Node23 -->
<g id="edge26" class="edge">
<title>Node1&#45;&gt;Node23</title>
<path fill="none" stroke="midnightblue" d="M795.61,-392.37C774.36,-373.81 724.07,-329.91 697.18,-306.44"/>
<polygon fill="midnightblue" stroke="midnightblue" points="699.18,-303.53 689.34,-299.59 694.57,-308.8 699.18,-303.53"/>
</g>
<!-- Node24 -->
<g id="node24" class="node">
<title>Node24</title>
<g id="a_node24"><a xlink:href="_e57_xml_parser_8h.html" target="_top" xlink:title=" ">
<polygon fill="white" stroke="black" points="1376,-336.5 1376,-355.5 1465,-355.5 1465,-336.5 1376,-336.5"/>
<text text-anchor="middle" x="1420.5" y="-343.5" font-family="Helvetica,sans-Serif" font-size="10.00">E57XmlParser.h</text>
</a>
</g>
</g>
<!-- Node1&#45;&gt;Node24 -->
<g id="edge28" class="edge">
<title>Node1&#45;&gt;Node24</title>
<path fill="none" stroke="midnightblue" d="M855.35,-397.57C951.06,-390.82 1167.15,-374.84 1348.5,-356 1354.06,-355.42 1359.86,-354.77 1365.64,-354.1"/>
<polygon fill="midnightblue" stroke="midnightblue" points="1366.47,-357.52 1375.98,-352.86 1365.63,-350.57 1366.47,-357.52"/>
</g>
<!-- Node28 -->
<g id="node28" class="node">
<title>Node28</title>
<g id="a_node28"><a xlink:href="_float_node_impl_8h.html" target="_top" xlink:title=" ">
<polygon fill="white" stroke="black" points="774.5,-280.5 774.5,-299.5 864.5,-299.5 864.5,-280.5 774.5,-280.5"/>
<text text-anchor="middle" x="819.5" y="-287.5" font-family="Helvetica,sans-Serif" font-size="10.00">FloatNodeImpl.h</text>
</a>
</g>
</g>
<!-- Node1&#45;&gt;Node28 -->
<g id="edge33" class="edge">
<title>Node1&#45;&gt;Node28</title>
<path fill="none" stroke="midnightblue" d="M805.84,-392.13C806.41,-379.59 807.75,-355.96 810.5,-336 811.71,-327.21 813.57,-317.55 815.29,-309.44"/>
<polygon fill="midnightblue" stroke="midnightblue" points="818.73,-310.09 817.46,-299.57 811.89,-308.59 818.73,-310.09"/>
</g>
<!-- Node29 -->
<g id="node29" class="node">
<title>Node29</title>
<g id="a_node29"><a xlink:href="_image_file_impl_8h.html" target="_top" xlink:title=" ">
<polygon fill="white" stroke="black" points="1256.5,-224.5 1256.5,-243.5 1344.5,-243.5 1344.5,-224.5 1256.5,-224.5"/>
<text text-anchor="middle" x="1300.5" y="-231.5" font-family="Helvetica,sans-Serif" font-size="10.00">ImageFileImpl.h</text>
</a>
</g>
</g>
<!-- Node1&#45;&gt;Node29 -->
<g id="edge35" class="edge">
<title>Node1&#45;&gt;Node29</title>
<path fill="none" stroke="midnightblue" d="M855.39,-400.34C977.71,-398.2 1284.81,-389.52 1315.5,-356 1341.37,-327.75 1323.17,-278.97 1310.28,-252.81"/>
<polygon fill="midnightblue" stroke="midnightblue" points="1313.25,-250.94 1305.54,-243.68 1307.04,-254.17 1313.25,-250.94"/>
</g>
<!-- Node30 -->
<g id="node30" class="node">
<title>Node30</title>
<g id="a_node30"><a xlink:href="_integer_node_impl_8h.html" target="_top" xlink:title=" ">
<polygon fill="white" stroke="black" points="883,-280.5 883,-299.5 982,-299.5 982,-280.5 883,-280.5"/>
<text text-anchor="middle" x="932.5" y="-287.5" font-family="Helvetica,sans-Serif" font-size="10.00">IntegerNodeImpl.h</text>
</a>
</g>
</g>
<!-- Node1&#45;&gt;Node30 -->
<g id="edge38" class="edge">
<title>Node1&#45;&gt;Node30</title>
<path fill="none" stroke="midnightblue" d="M808.82,-392.39C814.4,-378.88 826.81,-352.53 844.5,-336 859.73,-321.77 880.33,-310.91 897.77,-303.42"/>
<polygon fill="midnightblue" stroke="midnightblue" points="899.14,-306.64 907.07,-299.62 896.49,-300.16 899.14,-306.64"/>
</g>
<!-- Node31 -->
<g id="node31" class="node">
<title>Node31</title>
<g id="a_node31"><a xlink:href="_scaled_integer_node_impl_8h.html" target="_top" xlink:title=" ">
<polygon fill="white" stroke="black" points="853,-336.5 853,-355.5 982,-355.5 982,-336.5 853,-336.5"/>
<text text-anchor="middle" x="917.5" y="-343.5" font-family="Helvetica,sans-Serif" font-size="10.00">ScaledIntegerNodeImpl.h</text>
</a>
</g>
</g>
<!-- Node1&#45;&gt;Node31 -->
<g id="edge40" class="edge">
<title>Node1&#45;&gt;Node31</title>
<path fill="none" stroke="midnightblue" d="M823.49,-392.32C841.54,-383.62 869.55,-370.12 890.3,-360.11"/>
<polygon fill="midnightblue" stroke="midnightblue" points="892.06,-363.15 899.55,-355.65 889.02,-356.84 892.06,-363.15"/>
</g>
<!-- Node32 -->
<g id="node32" class="node">
<title>Node32</title>
<g id="a_node32"><a xlink:href="_string_node_impl_8h.html" target="_top" xlink:title=" ">
<polygon fill="white" stroke="black" points="1000.5,-336.5 1000.5,-355.5 1094.5,-355.5 1094.5,-336.5 1000.5,-336.5"/>
<text text-anchor="middle" x="1047.5" y="-343.5" font-family="Helvetica,sans-Serif" font-size="10.00">StringNodeImpl.h</text>
</a>
</g>
</g>
<!-- Node1&#45;&gt;Node32 -->
<g id="edge42" class="edge">
<title>Node1&#45;&gt;Node32</title>
<path fill="none" stroke="midnightblue" d="M843.85,-392.44C885.97,-383.04 953.71,-367.93 999.37,-357.74"/>
<polygon fill="midnightblue" stroke="midnightblue" points="1000.34,-361.11 1009.33,-355.52 998.81,-354.28 1000.34,-361.11"/>
</g>
<!-- Node33 -->
<g id="node33" class="node">
<title>Node33</title>
<g id="a_node33"><a xlink:href="_vector_node_impl_8h.html" target="_top" xlink:title=" ">
<polygon fill="white" stroke="black" points="1112.5,-336.5 1112.5,-355.5 1208.5,-355.5 1208.5,-336.5 1112.5,-336.5"/>
<text text-anchor="middle" x="1160.5" y="-343.5" font-family="Helvetica,sans-Serif" font-size="10.00">VectorNodeImpl.h</text>
</a>
</g>
</g>
<!-- Node1&#45;&gt;Node33 -->
<g id="edge44" class="edge">
<title>Node1&#45;&gt;Node33</title>
<path fill="none" stroke="midnightblue" d="M855.08,-393.62C912.15,-385.1 1009,-370.56 1102.14,-356.2"/>
<polygon fill="midnightblue" stroke="midnightblue" points="1102.95,-359.62 1112.3,-354.63 1101.88,-352.7 1102.95,-359.62"/>
</g>
<!-- Node7 -->
<g id="node7" class="node">
<title>Node7</title>
<g id="a_node7"><a xlink:href="_node_impl_8h.html" target="_top" xlink:title=" ">
<polygon fill="white" stroke="black" points="937.5,-224.5 937.5,-243.5 1005.5,-243.5 1005.5,-224.5 937.5,-224.5"/>
<text text-anchor="middle" x="971.5" y="-231.5" font-family="Helvetica,sans-Serif" font-size="10.00">NodeImpl.h</text>
</a>
</g>
</g>
<!-- Node6&#45;&gt;Node7 -->
<g id="edge6" class="edge">
<title>Node6&#45;&gt;Node7</title>
<path fill="none" stroke="midnightblue" d="M584.68,-281.47C588,-280.95 591.3,-280.46 594.5,-280 714.44,-262.86 856.51,-247.13 927.09,-239.63"/>
<polygon fill="midnightblue" stroke="midnightblue" points="927.8,-243.07 937.38,-238.54 927.07,-236.11 927.8,-243.07"/>
</g>
<!-- Node8 -->
<g id="node8" class="node">
<title>Node8</title>
<g id="a_node8"><a xlink:href="_common_8h.html" target="_top" xlink:title=" ">
<polygon fill="white" stroke="black" points="1186,-168.5 1186,-187.5 1251,-187.5 1251,-168.5 1186,-168.5"/>
<text text-anchor="middle" x="1218.5" y="-175.5" font-family="Helvetica,sans-Serif" font-size="10.00">Common.h</text>
</a>
</g>
</g>
<!-- Node7&#45;&gt;Node8 -->
<g id="edge7" class="edge">
<title>Node7&#45;&gt;Node8</title>
<path fill="none" stroke="midnightblue" d="M1005.58,-225.55C1050.06,-215.82 1127.89,-198.81 1176.12,-188.26"/>
<polygon fill="midnightblue" stroke="midnightblue" points="1176.92,-191.67 1185.94,-186.12 1175.43,-184.83 1176.92,-191.67"/>
</g>
<!-- Node9 -->
<g id="node9" class="node">
<title>Node9</title>
<g id="a_node9"><a xlink:title=" ">
<polygon fill="white" stroke="#bfbfbf" points="1291.5,-112.5 1291.5,-131.5 1343.5,-131.5 1343.5,-112.5 1291.5,-112.5"/>
<text text-anchor="middle" x="1317.5" y="-119.5" font-family="Helvetica,sans-Serif" font-size="10.00">iomanip</text>
</a>
</g>
</g>
<!-- Node8&#45;&gt;Node9 -->
<g id="edge8" class="edge">
<title>Node8&#45;&gt;Node9</title>
<path fill="none" stroke="midnightblue" d="M1234.41,-168.32C1250.14,-159.74 1274.44,-146.49 1292.71,-136.52"/>
<polygon fill="midnightblue" stroke="midnightblue" points="1294.53,-139.52 1301.63,-131.65 1291.18,-133.37 1294.53,-139.52"/>
</g>
<!-- Node10 -->
<g id="node10" class="node">
<title>Node10</title>
<g id="a_node10"><a xlink:title=" ">
<polygon fill="white" stroke="#bfbfbf" points="1320,-0.5 1320,-19.5 1375,-19.5 1375,-0.5 1320,-0.5"/>
<text text-anchor="middle" x="1347.5" y="-7.5" font-family="Helvetica,sans-Serif" font-size="10.00">iostream</text>
</a>
</g>
</g>
<!-- Node8&#45;&gt;Node10 -->
<g id="edge9" class="edge">
<title>Node8&#45;&gt;Node10</title>
<path fill="none" stroke="midnightblue" d="M1251.23,-176.21C1282.96,-173.49 1329.58,-163.88 1352.5,-132 1374.41,-101.53 1363.33,-54.72 1354.62,-29.18"/>
<polygon fill="midnightblue" stroke="midnightblue" points="1357.86,-27.83 1351.13,-19.64 1351.28,-30.23 1357.86,-27.83"/>
</g>
<!-- Node11 -->
<g id="node11" class="node">
<title>Node11</title>
<g id="a_node11"><a xlink:title=" ">
<polygon fill="white" stroke="#bfbfbf" points="1173.5,-112.5 1173.5,-131.5 1203.5,-131.5 1203.5,-112.5 1173.5,-112.5"/>
<text text-anchor="middle" x="1188.5" y="-119.5" font-family="Helvetica,sans-Serif" font-size="10.00">set</text>
</a>
</g>
</g>
<!-- Node8&#45;&gt;Node11 -->
<g id="edge10" class="edge">
<title>Node8&#45;&gt;Node11</title>
<path fill="none" stroke="midnightblue" d="M1213.55,-168.08C1209.4,-160.61 1203.35,-149.72 1198.23,-140.52"/>
<polygon fill="midnightblue" stroke="midnightblue" points="1201.28,-138.79 1193.36,-131.75 1195.16,-142.19 1201.28,-138.79"/>
</g>
<!-- Node12 -->
<g id="node12" class="node">
<title>Node12</title>
<g id="a_node12"><a xlink:title=" ">
<polygon fill="white" stroke="#bfbfbf" points="1221.5,-112.5 1221.5,-131.5 1273.5,-131.5 1273.5,-112.5 1221.5,-112.5"/>
<text text-anchor="middle" x="1247.5" y="-119.5" font-family="Helvetica,sans-Serif" font-size="10.00">sstream</text>
</a>
</g>
</g>
<!-- Node8&#45;&gt;Node12 -->
<g id="edge11" class="edge">
<title>Node8&#45;&gt;Node12</title>
<path fill="none" stroke="midnightblue" d="M1223.29,-168.08C1227.26,-160.69 1233.03,-149.95 1237.93,-140.81"/>
<polygon fill="midnightblue" stroke="midnightblue" points="1241.15,-142.22 1242.8,-131.75 1234.99,-138.91 1241.15,-142.22"/>
</g>
<!-- Node13 -->
<g id="node13" class="node">
<title>Node13</title>
<g id="a_node13"><a xlink:title=" ">
<polygon fill="white" stroke="#bfbfbf" points="1033,-0.5 1033,-19.5 1074,-19.5 1074,-0.5 1033,-0.5"/>
<text text-anchor="middle" x="1053.5" y="-7.5" font-family="Helvetica,sans-Serif" font-size="10.00">string</text>
</a>
</g>
</g>
<!-- Node8&#45;&gt;Node13 -->
<g id="edge12" class="edge">
<title>Node8&#45;&gt;Node13</title>
<path fill="none" stroke="midnightblue" d="M1185.73,-175.55C1150.56,-172.38 1094.87,-162.5 1058.5,-132 1031.03,-108.97 1023.42,-90.92 1031.5,-56 1033.73,-46.36 1038.32,-36.41 1042.74,-28.31"/>
<polygon fill="midnightblue" stroke="midnightblue" points="1045.85,-29.92 1047.86,-19.52 1039.8,-26.4 1045.85,-29.92"/>
</g>
<!-- Node14 -->
<g id="node14" class="node">
<title>Node14</title>
<g id="a_node14"><a xlink:title=" ">
<polygon fill="white" stroke="#bfbfbf" points="1040.5,-56.5 1040.5,-75.5 1084.5,-75.5 1084.5,-56.5 1040.5,-56.5"/>
<text text-anchor="middle" x="1062.5" y="-63.5" font-family="Helvetica,sans-Serif" font-size="10.00">vector</text>
</a>
</g>
</g>
<!-- Node8&#45;&gt;Node14 -->
<g id="edge13" class="edge">
<title>Node8&#45;&gt;Node14</title>
<path fill="none" stroke="midnightblue" d="M1185.88,-176.45C1152.22,-174.02 1100.75,-164.72 1072.5,-132 1061.67,-119.45 1059.9,-100.23 1060.41,-85.94"/>
<polygon fill="midnightblue" stroke="midnightblue" points="1063.92,-85.99 1061.17,-75.76 1056.93,-85.47 1063.92,-85.99"/>
</g>
<!-- Node15 -->
<g id="node15" class="node">
<title>Node15</title>
<g id="a_node15"><a xlink:href="_e57_format_8h.html" target="_top" xlink:title="header file for the E57 API">
<polygon fill="white" stroke="black" points="1081.5,-112.5 1081.5,-131.5 1155.5,-131.5 1155.5,-112.5 1081.5,-112.5"/>
<text text-anchor="middle" x="1118.5" y="-119.5" font-family="Helvetica,sans-Serif" font-size="10.00">E57Format.h</text>
</a>
</g>
</g>
<!-- Node8&#45;&gt;Node15 -->
<g id="edge14" class="edge">
<title>Node8&#45;&gt;Node15</title>
<path fill="none" stroke="midnightblue" d="M1202.43,-168.32C1186.54,-159.74 1161.99,-146.49 1143.54,-136.52"/>
<polygon fill="midnightblue" stroke="midnightblue" points="1144.99,-133.33 1134.53,-131.65 1141.66,-139.49 1144.99,-133.33"/>
</g>
<!-- Node15&#45;&gt;Node14 -->
<g id="edge17" class="edge">
<title>Node15&#45;&gt;Node14</title>
<path fill="none" stroke="midnightblue" d="M1109.5,-112.32C1101.31,-104.42 1088.99,-92.55 1079.03,-82.94"/>
<polygon fill="midnightblue" stroke="midnightblue" points="1081.29,-80.26 1071.66,-75.83 1076.43,-85.29 1081.29,-80.26"/>
</g>
<!-- Node16 -->
<g id="node16" class="node">
<title>Node16</title>
<g id="a_node16"><a xlink:title=" ">
<polygon fill="white" stroke="#bfbfbf" points="1102.5,-56.5 1102.5,-75.5 1142.5,-75.5 1142.5,-56.5 1102.5,-56.5"/>
<text text-anchor="middle" x="1122.5" y="-63.5" font-family="Helvetica,sans-Serif" font-size="10.00">cfloat</text>
</a>
</g>
</g>
<!-- Node15&#45;&gt;Node16 -->
<g id="edge15" class="edge">
<title>Node15&#45;&gt;Node16</title>
<path fill="none" stroke="midnightblue" d="M1119.16,-112.08C1119.68,-105.01 1120.44,-94.86 1121.09,-85.99"/>
<polygon fill="midnightblue" stroke="midnightblue" points="1124.6,-85.98 1121.85,-75.75 1117.62,-85.47 1124.6,-85.98"/>
</g>
<!-- Node17 -->
<g id="node17" class="node">
<title>Node17</title>
<g id="a_node17"><a xlink:title=" ">
<polygon fill="white" stroke="#bfbfbf" points="1280,-56.5 1280,-75.5 1333,-75.5 1333,-56.5 1280,-56.5"/>
<text text-anchor="middle" x="1306.5" y="-63.5" font-family="Helvetica,sans-Serif" font-size="10.00">memory</text>
</a>
</g>
</g>
<!-- Node15&#45;&gt;Node17 -->
<g id="edge16" class="edge">
<title>Node15&#45;&gt;Node17</title>
<path fill="none" stroke="midnightblue" d="M1148.29,-112.44C1181.27,-102.97 1234.46,-87.69 1269.94,-77.5"/>
<polygon fill="midnightblue" stroke="midnightblue" points="1271.24,-80.77 1279.89,-74.64 1269.31,-74.04 1271.24,-80.77"/>
</g>
<!-- Node18 -->
<g id="node18" class="node">
<title>Node18</title>
<g id="a_node18"><a xlink:href="_e57_exception_8h.html" target="_top" xlink:title=" ">
<polygon fill="white" stroke="black" points="1161,-56.5 1161,-75.5 1248,-75.5 1248,-56.5 1161,-56.5"/>
<text text-anchor="middle" x="1204.5" y="-63.5" font-family="Helvetica,sans-Serif" font-size="10.00">E57Exception.h</text>
</a>
</g>
</g>
<!-- Node15&#45;&gt;Node18 -->
<g id="edge18" class="edge">
<title>Node15&#45;&gt;Node18</title>
<path fill="none" stroke="midnightblue" d="M1132.32,-112.32C1145.73,-103.9 1166.32,-90.97 1182.09,-81.07"/>
<polygon fill="midnightblue" stroke="midnightblue" points="1184.11,-83.94 1190.72,-75.65 1180.39,-78.01 1184.11,-83.94"/>
</g>
<!-- Node18&#45;&gt;Node10 -->
<g id="edge20" class="edge">
<title>Node18&#45;&gt;Node10</title>
<path fill="none" stroke="midnightblue" d="M1227.16,-56.44C1250.9,-47.48 1288.41,-33.31 1315.24,-23.18"/>
<polygon fill="midnightblue" stroke="midnightblue" points="1316.83,-26.32 1324.95,-19.52 1314.36,-19.77 1316.83,-26.32"/>
</g>
<!-- Node18&#45;&gt;Node13 -->
<g id="edge21" class="edge">
<title>Node18&#45;&gt;Node13</title>
<path fill="none" stroke="midnightblue" d="M1180.57,-56.44C1154.39,-47.08 1112.35,-32.05 1083.86,-21.86"/>
<polygon fill="midnightblue" stroke="midnightblue" points="1084.99,-18.54 1074.4,-18.47 1082.63,-25.14 1084.99,-18.54"/>
</g>
<!-- Node19 -->
<g id="node19" class="node">
<title>Node19</title>
<g id="a_node19"><a xlink:title=" ">
<polygon fill="white" stroke="#bfbfbf" points="1199,-0.5 1199,-19.5 1258,-19.5 1258,-0.5 1199,-0.5"/>
<text text-anchor="middle" x="1228.5" y="-7.5" font-family="Helvetica,sans-Serif" font-size="10.00">exception</text>
</a>
</g>
</g>
<!-- Node18&#45;&gt;Node19 -->
<g id="edge19" class="edge">
<title>Node18&#45;&gt;Node19</title>
<path fill="none" stroke="midnightblue" d="M1208.46,-56.08C1211.71,-48.77 1216.42,-38.18 1220.45,-29.1"/>
<polygon fill="midnightblue" stroke="midnightblue" points="1223.75,-30.31 1224.61,-19.75 1217.35,-27.47 1223.75,-30.31"/>
</g>
<!-- Node20 -->
<g id="node20" class="node">
<title>Node20</title>
<g id="a_node20"><a xlink:title=" ">
<polygon fill="white" stroke="#bfbfbf" points="1108.5,-0.5 1108.5,-19.5 1180.5,-19.5 1180.5,-0.5 1108.5,-0.5"/>
<text text-anchor="middle" x="1144.5" y="-7.5" font-family="Helvetica,sans-Serif" font-size="10.00">E57Export.h</text>
</a>
</g>
</g>
<!-- Node18&#45;&gt;Node20 -->
<g id="edge22" class="edge">
<title>Node18&#45;&gt;Node20</title>
<path fill="none" stroke="midnightblue" d="M1194.86,-56.32C1185.99,-48.34 1172.63,-36.31 1161.89,-26.65"/>
<polygon fill="midnightblue" stroke="midnightblue" points="1164.09,-23.92 1154.32,-19.83 1159.41,-29.13 1164.09,-23.92"/>
</g>
<!-- Node21&#45;&gt;Node8 -->
<g id="edge25" class="edge">
<title>Node21&#45;&gt;Node8</title>
<path fill="none" stroke="midnightblue" d="M1259.3,-336.3C1252.55,-327.65 1242.73,-313.72 1237.5,-300 1224.35,-265.51 1220.3,-222.15 1219.05,-197.82"/>
<polygon fill="midnightblue" stroke="midnightblue" points="1222.54,-197.37 1218.64,-187.52 1215.54,-197.66 1222.54,-197.37"/>
</g>
<!-- Node22 -->
<g id="node22" class="node">
<title>Node22</title>
<g id="a_node22"><a xlink:title=" ">
<polygon fill="white" stroke="#bfbfbf" points="1246.5,-280.5 1246.5,-299.5 1304.5,-299.5 1304.5,-280.5 1246.5,-280.5"/>
<text text-anchor="middle" x="1275.5" y="-287.5" font-family="Helvetica,sans-Serif" font-size="10.00">algorithm</text>
</a>
</g>
</g>
<!-- Node21&#45;&gt;Node22 -->
<g id="edge24" class="edge">
<title>Node21&#45;&gt;Node22</title>
<path fill="none" stroke="midnightblue" d="M1267.99,-336.08C1269.18,-328.93 1270.89,-318.64 1272.38,-309.69"/>
<polygon fill="midnightblue" stroke="midnightblue" points="1275.85,-310.19 1274.04,-299.75 1268.95,-309.04 1275.85,-310.19"/>
</g>
<!-- Node23&#45;&gt;Node7 -->
<g id="edge27" class="edge">
<title>Node23&#45;&gt;Node7</title>
<path fill="none" stroke="midnightblue" d="M725.77,-280.44C781.06,-270.22 872.91,-253.23 927.28,-243.18"/>
<polygon fill="midnightblue" stroke="midnightblue" points="928.11,-246.58 937.31,-241.32 926.84,-239.7 928.11,-246.58"/>
</g>
<!-- Node24&#45;&gt;Node8 -->
<g id="edge32" class="edge">
<title>Node24&#45;&gt;Node8</title>
<path fill="none" stroke="midnightblue" d="M1414.43,-336.21C1408.35,-327.27 1398.86,-312.92 1391.5,-300 1372.8,-267.19 1382.03,-248.74 1353.5,-224 1327.65,-201.58 1290.26,-190.25 1261.38,-184.57"/>
<polygon fill="midnightblue" stroke="midnightblue" points="1261.63,-181.06 1251.16,-182.72 1260.38,-187.95 1261.63,-181.06"/>
</g>
<!-- Node25 -->
<g id="node25" class="node">
<title>Node25</title>
<g id="a_node25"><a xlink:title=" ">
<polygon fill="white" stroke="#bfbfbf" points="1400.5,-280.5 1400.5,-299.5 1440.5,-299.5 1440.5,-280.5 1400.5,-280.5"/>
<text text-anchor="middle" x="1420.5" y="-287.5" font-family="Helvetica,sans-Serif" font-size="10.00">stack</text>
</a>
</g>
</g>
<!-- Node24&#45;&gt;Node25 -->
<g id="edge29" class="edge">
<title>Node24&#45;&gt;Node25</title>
<path fill="none" stroke="midnightblue" d="M1420.5,-336.08C1420.5,-329.01 1420.5,-318.86 1420.5,-309.99"/>
<polygon fill="midnightblue" stroke="midnightblue" points="1424,-309.75 1420.5,-299.75 1417,-309.75 1424,-309.75"/>
</g>
<!-- Node26 -->
<g id="node26" class="node">
<title>Node26</title>
<g id="a_node26"><a xlink:title=" ">
<polygon fill="white" stroke="#bfbfbf" points="1459,-280.5 1459,-299.5 1604,-299.5 1604,-280.5 1459,-280.5"/>
<text text-anchor="middle" x="1531.5" y="-287.5" font-family="Helvetica,sans-Serif" font-size="10.00">xercesc/sax/InputSource.hpp</text>
</a>
</g>
</g>
<!-- Node24&#45;&gt;Node26 -->
<g id="edge30" class="edge">
<title>Node24&#45;&gt;Node26</title>
<path fill="none" stroke="midnightblue" d="M1438.33,-336.32C1456.22,-327.62 1483.98,-314.12 1504.55,-304.11"/>
<polygon fill="midnightblue" stroke="midnightblue" points="1506.25,-307.18 1513.71,-299.65 1503.19,-300.88 1506.25,-307.18"/>
</g>
<!-- Node27 -->
<g id="node27" class="node">
<title>Node27</title>
<g id="a_node27"><a xlink:title=" ">
<polygon fill="white" stroke="#bfbfbf" points="1622,-280.5 1622,-299.5 1785,-299.5 1785,-280.5 1622,-280.5"/>
<text text-anchor="middle" x="1703.5" y="-287.5" font-family="Helvetica,sans-Serif" font-size="10.00">xercesc/sax2/DefaultHandler.hpp</text>
</a>
</g>
</g>
<!-- Node24&#45;&gt;Node27 -->
<g id="edge31" class="edge">
<title>Node24&#45;&gt;Node27</title>
<path fill="none" stroke="midnightblue" d="M1465.03,-336.5C1514.75,-327.02 1595.24,-311.66 1648.77,-301.44"/>
<polygon fill="midnightblue" stroke="midnightblue" points="1649.6,-304.85 1658.76,-299.54 1648.28,-297.97 1649.6,-304.85"/>
</g>
<!-- Node28&#45;&gt;Node7 -->
<g id="edge34" class="edge">
<title>Node28&#45;&gt;Node7</title>
<path fill="none" stroke="midnightblue" d="M843.58,-280.44C869.04,-271.4 909.39,-257.06 937.96,-246.92"/>
<polygon fill="midnightblue" stroke="midnightblue" points="939.28,-250.16 947.53,-243.52 936.93,-243.57 939.28,-250.16"/>
</g>
<!-- Node29&#45;&gt;Node8 -->
<g id="edge37" class="edge">
<title>Node29&#45;&gt;Node8</title>
<path fill="none" stroke="midnightblue" d="M1287.33,-224.32C1274.65,-215.98 1255.27,-203.21 1240.29,-193.35"/>
<polygon fill="midnightblue" stroke="midnightblue" points="1241.92,-190.23 1231.64,-187.65 1238.07,-196.08 1241.92,-190.23"/>
</g>
<!-- Node29&#45;&gt;Node17 -->
<g id="edge36" class="edge">
<title>Node29&#45;&gt;Node17</title>
<path fill="none" stroke="midnightblue" d="M1306.77,-224.38C1318.53,-207.61 1343.54,-168.99 1352.5,-132 1354.59,-123.36 1355.95,-120.19 1352.5,-112 1347.47,-100.05 1337.56,-89.69 1328.21,-81.93"/>
<polygon fill="midnightblue" stroke="midnightblue" points="1330.34,-79.15 1320.29,-75.81 1326.06,-84.69 1330.34,-79.15"/>
</g>
<!-- Node30&#45;&gt;Node7 -->
<g id="edge39" class="edge">
<title>Node30&#45;&gt;Node7</title>
<path fill="none" stroke="midnightblue" d="M938.94,-280.08C944.45,-272.46 952.53,-261.26 959.26,-251.94"/>
<polygon fill="midnightblue" stroke="midnightblue" points="962.16,-253.91 965.18,-243.75 956.49,-249.81 962.16,-253.91"/>
</g>
<!-- Node31&#45;&gt;Node7 -->
<g id="edge41" class="edge">
<title>Node31&#45;&gt;Node7</title>
<path fill="none" stroke="midnightblue" d="M944.43,-336.36C961.22,-329.41 981.48,-317.82 991.5,-300 999.96,-284.95 992.23,-265.88 984.04,-252.3"/>
<polygon fill="midnightblue" stroke="midnightblue" points="986.92,-250.31 978.5,-243.89 981.08,-254.16 986.92,-250.31"/>
</g>
<!-- Node32&#45;&gt;Node7 -->
<g id="edge43" class="edge">
<title>Node32&#45;&gt;Node7</title>
<path fill="none" stroke="midnightblue" d="M1042.45,-336.41C1034.96,-323.81 1020.3,-299.66 1006.5,-280 999.75,-270.38 991.73,-260 985.07,-251.64"/>
<polygon fill="midnightblue" stroke="midnightblue" points="987.73,-249.36 978.74,-243.77 982.28,-253.75 987.73,-249.36"/>
</g>
<!-- Node34 -->
<g id="node34" class="node">
<title>Node34</title>
<g id="a_node34"><a xlink:href="_structure_node_impl_8h.html" target="_top" xlink:title=" ">
<polygon fill="white" stroke="black" points="1080.5,-280.5 1080.5,-299.5 1188.5,-299.5 1188.5,-280.5 1080.5,-280.5"/>
<text text-anchor="middle" x="1134.5" y="-287.5" font-family="Helvetica,sans-Serif" font-size="10.00">StructureNodeImpl.h</text>
</a>
</g>
</g>
<!-- Node33&#45;&gt;Node34 -->
<g id="edge45" class="edge">
<title>Node33&#45;&gt;Node34</title>
<path fill="none" stroke="midnightblue" d="M1156.21,-336.08C1152.65,-328.69 1147.48,-317.95 1143.08,-308.81"/>
<polygon fill="midnightblue" stroke="midnightblue" points="1146.21,-307.24 1138.71,-299.75 1139.9,-310.28 1146.21,-307.24"/>
</g>
<!-- Node34&#45;&gt;Node7 -->
<g id="edge46" class="edge">
<title>Node34&#45;&gt;Node7</title>
<path fill="none" stroke="midnightblue" d="M1108.67,-280.44C1081.25,-271.36 1037.72,-256.94 1007.07,-246.78"/>
<polygon fill="midnightblue" stroke="midnightblue" points="1007.8,-243.34 997.21,-243.52 1005.6,-249.98 1007.8,-243.34"/>
</g>
</g>
</svg>
