<?xml version="1.0" encoding="UTF-8" standalone="no"?>
<!DOCTYPE svg PUBLIC "-//W3C//DTD SVG 1.1//EN"
 "http://www.w3.org/Graphics/SVG/1.1/DTD/svg11.dtd">
<!-- Generated by graphviz version 2.44.0 (20200408.0750)
 -->
<!-- Title: E57SimpleReader.h Pages: 1 -->
<svg width="385pt" height="252pt"
 viewBox="0.00 0.00 385.00 252.00" xmlns="http://www.w3.org/2000/svg" xmlns:xlink="http://www.w3.org/1999/xlink">
<g id="graph0" class="graph" transform="scale(1 1) rotate(0) translate(4 248)">
<title>E57SimpleReader.h</title>
<polygon fill="white" stroke="transparent" points="-4,4 -4,-248 381,-248 381,4 -4,4"/>
<!-- Node1 -->
<g id="node1" class="node">
<title>Node1</title>
<g id="a_node1"><a xlink:title=" ">
<polygon fill="#bfbfbf" stroke="black" points="67,-224.5 67,-243.5 170,-243.5 170,-224.5 67,-224.5"/>
<text text-anchor="middle" x="118.5" y="-231.5" font-family="Helvetica,sans-Serif" font-size="10.00">E57SimpleReader.h</text>
</a>
</g>
</g>
<!-- Node2 -->
<g id="node2" class="node">
<title>Node2</title>
<g id="a_node2"><a xlink:href="_e57_simple_data_8h.html" target="_top" xlink:title=" ">
<polygon fill="white" stroke="black" points="72,-168.5 72,-187.5 165,-187.5 165,-168.5 72,-168.5"/>
<text text-anchor="middle" x="118.5" y="-175.5" font-family="Helvetica,sans-Serif" font-size="10.00">E57SimpleData.h</text>
</a>
</g>
</g>
<!-- Node1&#45;&gt;Node2 -->
<g id="edge1" class="edge">
<title>Node1&#45;&gt;Node2</title>
<path fill="none" stroke="midnightblue" d="M118.5,-224.08C118.5,-217.01 118.5,-206.86 118.5,-197.99"/>
<polygon fill="midnightblue" stroke="midnightblue" points="122,-197.75 118.5,-187.75 115,-197.75 122,-197.75"/>
</g>
<!-- Node3 -->
<g id="node3" class="node">
<title>Node3</title>
<g id="a_node3"><a xlink:href="_e57_format_8h.html" target="_top" xlink:title=" ">
<polygon fill="white" stroke="black" points="82,-112.5 82,-131.5 155,-131.5 155,-112.5 82,-112.5"/>
<text text-anchor="middle" x="118.5" y="-119.5" font-family="Helvetica,sans-Serif" font-size="10.00">E57Format.h</text>
</a>
</g>
</g>
<!-- Node2&#45;&gt;Node3 -->
<g id="edge2" class="edge">
<title>Node2&#45;&gt;Node3</title>
<path fill="none" stroke="midnightblue" d="M118.5,-168.08C118.5,-161.01 118.5,-150.86 118.5,-141.99"/>
<polygon fill="midnightblue" stroke="midnightblue" points="122,-141.75 118.5,-131.75 115,-141.75 122,-141.75"/>
</g>
<!-- Node4 -->
<g id="node4" class="node">
<title>Node4</title>
<g id="a_node4"><a xlink:title=" ">
<polygon fill="white" stroke="#bfbfbf" points="0,-56.5 0,-75.5 41,-75.5 41,-56.5 0,-56.5"/>
<text text-anchor="middle" x="20.5" y="-63.5" font-family="Helvetica,sans-Serif" font-size="10.00">cfloat</text>
</a>
</g>
</g>
<!-- Node3&#45;&gt;Node4 -->
<g id="edge3" class="edge">
<title>Node3&#45;&gt;Node4</title>
<path fill="none" stroke="midnightblue" d="M102.75,-112.32C87.18,-103.74 63.12,-90.49 45.04,-80.52"/>
<polygon fill="midnightblue" stroke="midnightblue" points="46.65,-77.42 36.21,-75.65 43.28,-83.55 46.65,-77.42"/>
</g>
<!-- Node5 -->
<g id="node5" class="node">
<title>Node5</title>
<g id="a_node5"><a xlink:title=" ">
<polygon fill="white" stroke="#bfbfbf" points="59.5,-56.5 59.5,-75.5 111.5,-75.5 111.5,-56.5 59.5,-56.5"/>
<text text-anchor="middle" x="85.5" y="-63.5" font-family="Helvetica,sans-Serif" font-size="10.00">memory</text>
</a>
</g>
</g>
<!-- Node3&#45;&gt;Node5 -->
<g id="edge4" class="edge">
<title>Node3&#45;&gt;Node5</title>
<path fill="none" stroke="midnightblue" d="M113.05,-112.08C108.49,-104.61 101.83,-93.72 96.21,-84.52"/>
<polygon fill="midnightblue" stroke="midnightblue" points="99.05,-82.46 90.85,-75.75 93.08,-86.11 99.05,-82.46"/>
</g>
<!-- Node6 -->
<g id="node6" class="node">
<title>Node6</title>
<g id="a_node6"><a xlink:title=" ">
<polygon fill="white" stroke="#bfbfbf" points="129.5,-56.5 129.5,-75.5 173.5,-75.5 173.5,-56.5 129.5,-56.5"/>
<text text-anchor="middle" x="151.5" y="-63.5" font-family="Helvetica,sans-Serif" font-size="10.00">vector</text>
</a>
</g>
</g>
<!-- Node3&#45;&gt;Node6 -->
<g id="edge5" class="edge">
<title>Node3&#45;&gt;Node6</title>
<path fill="none" stroke="midnightblue" d="M123.95,-112.08C128.51,-104.61 135.17,-93.72 140.79,-84.52"/>
<polygon fill="midnightblue" stroke="midnightblue" points="143.92,-86.11 146.15,-75.75 137.95,-82.46 143.92,-86.11"/>
</g>
<!-- Node7 -->
<g id="node7" class="node">
<title>Node7</title>
<g id="a_node7"><a xlink:href="_e57_exception_8h.html" target="_top" xlink:title=" ">
<polygon fill="white" stroke="black" points="191.5,-56.5 191.5,-75.5 277.5,-75.5 277.5,-56.5 191.5,-56.5"/>
<text text-anchor="middle" x="234.5" y="-63.5" font-family="Helvetica,sans-Serif" font-size="10.00">E57Exception.h</text>
</a>
</g>
</g>
<!-- Node3&#45;&gt;Node7 -->
<g id="edge6" class="edge">
<title>Node3&#45;&gt;Node7</title>
<path fill="none" stroke="midnightblue" d="M136.88,-112.44C155.72,-103.68 185.23,-89.94 206.88,-79.86"/>
<polygon fill="midnightblue" stroke="midnightblue" points="208.62,-82.91 216.21,-75.52 205.66,-76.56 208.62,-82.91"/>
</g>
<!-- Node8 -->
<g id="node8" class="node">
<title>Node8</title>
<g id="a_node8"><a xlink:title=" ">
<polygon fill="white" stroke="#bfbfbf" points="97,-0.5 97,-19.5 156,-19.5 156,-0.5 97,-0.5"/>
<text text-anchor="middle" x="126.5" y="-7.5" font-family="Helvetica,sans-Serif" font-size="10.00">exception</text>
</a>
</g>
</g>
<!-- Node7&#45;&gt;Node8 -->
<g id="edge7" class="edge">
<title>Node7&#45;&gt;Node8</title>
<path fill="none" stroke="midnightblue" d="M217.15,-56.32C199.83,-47.66 172.98,-34.24 153,-24.25"/>
<polygon fill="midnightblue" stroke="midnightblue" points="154.32,-21 143.81,-19.65 151.19,-27.26 154.32,-21"/>
</g>
<!-- Node9 -->
<g id="node9" class="node">
<title>Node9</title>
<g id="a_node9"><a xlink:title=" ">
<polygon fill="white" stroke="#bfbfbf" points="174.5,-0.5 174.5,-19.5 228.5,-19.5 228.5,-0.5 174.5,-0.5"/>
<text text-anchor="middle" x="201.5" y="-7.5" font-family="Helvetica,sans-Serif" font-size="10.00">iostream</text>
</a>
</g>
</g>
<!-- Node7&#45;&gt;Node9 -->
<g id="edge8" class="edge">
<title>Node7&#45;&gt;Node9</title>
<path fill="none" stroke="midnightblue" d="M229.05,-56.08C224.49,-48.61 217.83,-37.72 212.21,-28.52"/>
<polygon fill="midnightblue" stroke="midnightblue" points="215.05,-26.46 206.85,-19.75 209.08,-30.11 215.05,-26.46"/>
</g>
<!-- Node10 -->
<g id="node10" class="node">
<title>Node10</title>
<g id="a_node10"><a xlink:title=" ">
<polygon fill="white" stroke="#bfbfbf" points="247,-0.5 247,-19.5 288,-19.5 288,-0.5 247,-0.5"/>
<text text-anchor="middle" x="267.5" y="-7.5" font-family="Helvetica,sans-Serif" font-size="10.00">string</text>
</a>
</g>
</g>
<!-- Node7&#45;&gt;Node10 -->
<g id="edge9" class="edge">
<title>Node7&#45;&gt;Node10</title>
<path fill="none" stroke="midnightblue" d="M239.95,-56.08C244.51,-48.61 251.17,-37.72 256.79,-28.52"/>
<polygon fill="midnightblue" stroke="midnightblue" points="259.92,-30.11 262.15,-19.75 253.95,-26.46 259.92,-30.11"/>
</g>
<!-- Node11 -->
<g id="node11" class="node">
<title>Node11</title>
<g id="a_node11"><a xlink:title=" ">
<polygon fill="white" stroke="#bfbfbf" points="306,-0.5 306,-19.5 377,-19.5 377,-0.5 306,-0.5"/>
<text text-anchor="middle" x="341.5" y="-7.5" font-family="Helvetica,sans-Serif" font-size="10.00">E57Export.h</text>
</a>
</g>
</g>
<!-- Node7&#45;&gt;Node11 -->
<g id="edge10" class="edge">
<title>Node7&#45;&gt;Node11</title>
<path fill="none" stroke="midnightblue" d="M251.69,-56.32C268.85,-47.66 295.45,-34.24 315.25,-24.25"/>
<polygon fill="midnightblue" stroke="midnightblue" points="317,-27.28 324.35,-19.65 313.85,-21.04 317,-27.28"/>
</g>
</g>
</svg>
