<?xml version="1.0" encoding="UTF-8" standalone="no"?>
<!DOCTYPE svg PUBLIC "-//W3C//DTD SVG 1.1//EN"
 "http://www.w3.org/Graphics/SVG/1.1/DTD/svg11.dtd">
<!-- Generated by graphviz version 2.48.0 (20210717.1556)
 -->
<!-- Title: E57Format.cpp Pages: 1 -->
<svg width="1020pt" height="420pt"
 viewBox="0.00 0.00 1020.09 420.00" xmlns="http://www.w3.org/2000/svg" xmlns:xlink="http://www.w3.org/1999/xlink">
<g id="graph0" class="graph" transform="scale(1 1) rotate(0) translate(4 416)">
<title>E57Format.cpp</title>
<polygon fill="white" stroke="transparent" points="-4,4 -4,-416 1016.09,-416 1016.09,4 -4,4"/>
<!-- Node1 -->
<g id="node1" class="node">
<title>Node1</title>
<g id="a_node1"><a xlink:title=" ">
<polygon fill="#bfbfbf" stroke="black" points="525.5,-392.5 525.5,-411.5 610.5,-411.5 610.5,-392.5 525.5,-392.5"/>
<text text-anchor="middle" x="568" y="-399.5" font-family="Helvetica,sans-Serif" font-size="10.00">E57Format.cpp</text>
</a>
</g>
</g>
<!-- Node2 -->
<g id="node2" class="node">
<title>Node2</title>
<g id="a_node2"><a xlink:href="_blob_node_impl_8h.html" target="_top" xlink:title=" ">
<polygon fill="white" stroke="black" points="771,-280.5 771,-299.5 859,-299.5 859,-280.5 771,-280.5"/>
<text text-anchor="middle" x="815" y="-287.5" font-family="Helvetica,sans-Serif" font-size="10.00">BlobNodeImpl.h</text>
</a>
</g>
</g>
<!-- Node1&#45;&gt;Node2 -->
<g id="edge1" class="edge">
<title>Node1&#45;&gt;Node2</title>
<path fill="none" stroke="midnightblue" d="M610.68,-400.56C680.97,-398.82 816.29,-390.9 846,-356 858.33,-341.52 845.05,-321.29 832.25,-307.26"/>
<polygon fill="midnightblue" stroke="midnightblue" points="834.46,-304.51 824.97,-299.81 829.46,-309.41 834.46,-304.51"/>
</g>
<!-- Node17 -->
<g id="node17" class="node">
<title>Node17</title>
<g id="a_node17"><a xlink:href="_compressed_vector_node_impl_8h.html" target="_top" xlink:title=" ">
<polygon fill="white" stroke="black" points="397.5,-280.5 397.5,-299.5 550.5,-299.5 550.5,-280.5 397.5,-280.5"/>
<text text-anchor="middle" x="474" y="-287.5" font-family="Helvetica,sans-Serif" font-size="10.00">CompressedVectorNodeImpl.h</text>
</a>
</g>
</g>
<!-- Node1&#45;&gt;Node17 -->
<g id="edge19" class="edge">
<title>Node1&#45;&gt;Node17</title>
<path fill="none" stroke="midnightblue" d="M554.39,-392.19C542.26,-383.88 524.54,-370.55 512,-356 499.62,-341.64 489.07,-322.69 482.25,-308.96"/>
<polygon fill="midnightblue" stroke="midnightblue" points="485.27,-307.15 477.8,-299.64 478.95,-310.17 485.27,-307.15"/>
</g>
<!-- Node18 -->
<g id="node18" class="node">
<title>Node18</title>
<g id="a_node18"><a xlink:href="_compressed_vector_reader_impl_8h.html" target="_top" xlink:title=" ">
<polygon fill="white" stroke="black" points="0,-336.5 0,-355.5 162,-355.5 162,-336.5 0,-336.5"/>
<text text-anchor="middle" x="81" y="-343.5" font-family="Helvetica,sans-Serif" font-size="10.00">CompressedVectorReaderImpl.h</text>
</a>
</g>
</g>
<!-- Node1&#45;&gt;Node18 -->
<g id="edge21" class="edge">
<title>Node1&#45;&gt;Node18</title>
<path fill="none" stroke="midnightblue" d="M525.21,-396.26C445.5,-387.42 272.87,-368.28 167.83,-356.63"/>
<polygon fill="midnightblue" stroke="midnightblue" points="168.21,-353.15 157.88,-355.53 167.44,-360.11 168.21,-353.15"/>
</g>
<!-- Node21 -->
<g id="node21" class="node">
<title>Node21</title>
<g id="a_node21"><a xlink:href="_compressed_vector_writer_impl_8h.html" target="_top" xlink:title=" ">
<polygon fill="white" stroke="black" points="147.5,-280.5 147.5,-299.5 302.5,-299.5 302.5,-280.5 147.5,-280.5"/>
<text text-anchor="middle" x="225" y="-287.5" font-family="Helvetica,sans-Serif" font-size="10.00">CompressedVectorWriterImpl.h</text>
</a>
</g>
</g>
<!-- Node1&#45;&gt;Node21 -->
<g id="edge25" class="edge">
<title>Node1&#45;&gt;Node21</title>
<path fill="none" stroke="midnightblue" d="M525.27,-398.77C434.62,-393.59 229.65,-379.4 209,-356 197.39,-342.85 205.04,-322.61 213.26,-308.21"/>
<polygon fill="midnightblue" stroke="midnightblue" points="216.23,-310.06 218.56,-299.73 210.29,-306.36 216.23,-310.06"/>
</g>
<!-- Node25 -->
<g id="node25" class="node">
<title>Node25</title>
<g id="a_node25"><a xlink:href="_float_node_impl_8h.html" target="_top" xlink:title=" ">
<polygon fill="white" stroke="black" points="747,-336.5 747,-355.5 837,-355.5 837,-336.5 747,-336.5"/>
<text text-anchor="middle" x="792" y="-343.5" font-family="Helvetica,sans-Serif" font-size="10.00">FloatNodeImpl.h</text>
</a>
</g>
</g>
<!-- Node1&#45;&gt;Node25 -->
<g id="edge32" class="edge">
<title>Node1&#45;&gt;Node25</title>
<path fill="none" stroke="midnightblue" d="M603.49,-392.44C642.32,-383.08 704.66,-368.06 746.92,-357.87"/>
<polygon fill="midnightblue" stroke="midnightblue" points="747.77,-361.26 756.67,-355.52 746.13,-354.46 747.77,-361.26"/>
</g>
<!-- Node26 -->
<g id="node26" class="node">
<title>Node26</title>
<g id="a_node26"><a xlink:href="_image_file_impl_8h.html" target="_top" xlink:title=" ">
<polygon fill="white" stroke="black" points="659,-224.5 659,-243.5 747,-243.5 747,-224.5 659,-224.5"/>
<text text-anchor="middle" x="703" y="-231.5" font-family="Helvetica,sans-Serif" font-size="10.00">ImageFileImpl.h</text>
</a>
</g>
</g>
<!-- Node1&#45;&gt;Node26 -->
<g id="edge34" class="edge">
<title>Node1&#45;&gt;Node26</title>
<path fill="none" stroke="midnightblue" d="M610.55,-398.5C712.48,-391.47 965.38,-367.4 1008,-300 1012.75,-292.49 1013.81,-286.73 1008,-280 976.24,-243.21 836.07,-235.97 757.27,-234.87"/>
<polygon fill="midnightblue" stroke="midnightblue" points="757.08,-231.37 747.04,-234.76 757,-238.37 757.08,-231.37"/>
</g>
<!-- Node27 -->
<g id="node27" class="node">
<title>Node27</title>
<g id="a_node27"><a xlink:href="_integer_node_impl_8h.html" target="_top" xlink:title=" ">
<polygon fill="white" stroke="black" points="218.5,-336.5 218.5,-355.5 317.5,-355.5 317.5,-336.5 218.5,-336.5"/>
<text text-anchor="middle" x="268" y="-343.5" font-family="Helvetica,sans-Serif" font-size="10.00">IntegerNodeImpl.h</text>
</a>
</g>
</g>
<!-- Node1&#45;&gt;Node27 -->
<g id="edge37" class="edge">
<title>Node1&#45;&gt;Node27</title>
<path fill="none" stroke="midnightblue" d="M525.34,-393.32C472.99,-383.9 384.03,-367.89 325.64,-357.38"/>
<polygon fill="midnightblue" stroke="midnightblue" points="325.93,-353.87 315.47,-355.54 324.69,-360.76 325.93,-353.87"/>
</g>
<!-- Node28 -->
<g id="node28" class="node">
<title>Node28</title>
<g id="a_node28"><a xlink:href="_scaled_integer_node_impl_8h.html" target="_top" xlink:title=" ">
<polygon fill="white" stroke="black" points="335.5,-336.5 335.5,-355.5 464.5,-355.5 464.5,-336.5 335.5,-336.5"/>
<text text-anchor="middle" x="400" y="-343.5" font-family="Helvetica,sans-Serif" font-size="10.00">ScaledIntegerNodeImpl.h</text>
</a>
</g>
</g>
<!-- Node1&#45;&gt;Node28 -->
<g id="edge39" class="edge">
<title>Node1&#45;&gt;Node28</title>
<path fill="none" stroke="midnightblue" d="M541.38,-392.44C512.99,-383.32 467.86,-368.81 436.25,-358.65"/>
<polygon fill="midnightblue" stroke="midnightblue" points="437.09,-355.24 426.5,-355.52 434.94,-361.91 437.09,-355.24"/>
</g>
<!-- Node29 -->
<g id="node29" class="node">
<title>Node29</title>
<g id="a_node29"><a xlink:href="_source_dest_buffer_impl_8h.html" target="_top" xlink:title=" ">
<polygon fill="white" stroke="black" points="877,-280.5 877,-299.5 999,-299.5 999,-280.5 877,-280.5"/>
<text text-anchor="middle" x="938" y="-287.5" font-family="Helvetica,sans-Serif" font-size="10.00">SourceDestBufferImpl.h</text>
</a>
</g>
</g>
<!-- Node1&#45;&gt;Node29 -->
<g id="edge41" class="edge">
<title>Node1&#45;&gt;Node29</title>
<path fill="none" stroke="midnightblue" d="M610.73,-401.67C669.87,-401.03 778.8,-394.13 862,-356 886.77,-344.65 909.73,-322.79 923.79,-307.57"/>
<polygon fill="midnightblue" stroke="midnightblue" points="926.59,-309.69 930.65,-299.9 921.37,-305.03 926.59,-309.69"/>
</g>
<!-- Node30 -->
<g id="node30" class="node">
<title>Node30</title>
<g id="a_node30"><a xlink:href="_string_node_impl_8h.html" target="_top" xlink:title=" ">
<polygon fill="white" stroke="black" points="521,-336.5 521,-355.5 615,-355.5 615,-336.5 521,-336.5"/>
<text text-anchor="middle" x="568" y="-343.5" font-family="Helvetica,sans-Serif" font-size="10.00">StringNodeImpl.h</text>
</a>
</g>
</g>
<!-- Node1&#45;&gt;Node30 -->
<g id="edge43" class="edge">
<title>Node1&#45;&gt;Node30</title>
<path fill="none" stroke="midnightblue" d="M568,-392.08C568,-385.01 568,-374.86 568,-365.99"/>
<polygon fill="midnightblue" stroke="midnightblue" points="571.5,-365.75 568,-355.75 564.5,-365.75 571.5,-365.75"/>
</g>
<!-- Node31 -->
<g id="node31" class="node">
<title>Node31</title>
<g id="a_node31"><a xlink:href="_vector_node_impl_8h.html" target="_top" xlink:title=" ">
<polygon fill="white" stroke="black" points="633,-336.5 633,-355.5 729,-355.5 729,-336.5 633,-336.5"/>
<text text-anchor="middle" x="681" y="-343.5" font-family="Helvetica,sans-Serif" font-size="10.00">VectorNodeImpl.h</text>
</a>
</g>
</g>
<!-- Node1&#45;&gt;Node31 -->
<g id="edge45" class="edge">
<title>Node1&#45;&gt;Node31</title>
<path fill="none" stroke="midnightblue" d="M585.91,-392.44C604.25,-383.68 633.01,-369.94 654.09,-359.86"/>
<polygon fill="midnightblue" stroke="midnightblue" points="655.67,-362.99 663.18,-355.52 652.65,-356.67 655.67,-362.99"/>
</g>
<!-- Node3 -->
<g id="node3" class="node">
<title>Node3</title>
<g id="a_node3"><a xlink:href="_node_impl_8h.html" target="_top" xlink:title=" ">
<polygon fill="white" stroke="black" points="469,-224.5 469,-243.5 537,-243.5 537,-224.5 469,-224.5"/>
<text text-anchor="middle" x="503" y="-231.5" font-family="Helvetica,sans-Serif" font-size="10.00">NodeImpl.h</text>
</a>
</g>
</g>
<!-- Node2&#45;&gt;Node3 -->
<g id="edge2" class="edge">
<title>Node2&#45;&gt;Node3</title>
<path fill="none" stroke="midnightblue" d="M770.96,-281.38C711.7,-271.12 606.87,-252.98 547.41,-242.69"/>
<polygon fill="midnightblue" stroke="midnightblue" points="547.66,-239.18 537.21,-240.92 546.47,-246.08 547.66,-239.18"/>
</g>
<!-- Node4 -->
<g id="node4" class="node">
<title>Node4</title>
<g id="a_node4"><a xlink:href="_common_8h.html" target="_top" xlink:title=" ">
<polygon fill="white" stroke="black" points="415.5,-168.5 415.5,-187.5 480.5,-187.5 480.5,-168.5 415.5,-168.5"/>
<text text-anchor="middle" x="448" y="-175.5" font-family="Helvetica,sans-Serif" font-size="10.00">Common.h</text>
</a>
</g>
</g>
<!-- Node3&#45;&gt;Node4 -->
<g id="edge3" class="edge">
<title>Node3&#45;&gt;Node4</title>
<path fill="none" stroke="midnightblue" d="M493.92,-224.08C485.83,-216.14 473.8,-204.34 464.09,-194.8"/>
<polygon fill="midnightblue" stroke="midnightblue" points="466.5,-192.26 456.91,-187.75 461.6,-197.25 466.5,-192.26"/>
</g>
<!-- Node5 -->
<g id="node5" class="node">
<title>Node5</title>
<g id="a_node5"><a xlink:title=" ">
<polygon fill="white" stroke="#bfbfbf" points="568,-112.5 568,-131.5 620,-131.5 620,-112.5 568,-112.5"/>
<text text-anchor="middle" x="594" y="-119.5" font-family="Helvetica,sans-Serif" font-size="10.00">iomanip</text>
</a>
</g>
</g>
<!-- Node4&#45;&gt;Node5 -->
<g id="edge4" class="edge">
<title>Node4&#45;&gt;Node5</title>
<path fill="none" stroke="midnightblue" d="M471.13,-168.44C495.48,-159.44 534.01,-145.19 561.42,-135.05"/>
<polygon fill="midnightblue" stroke="midnightblue" points="562.81,-138.27 570.97,-131.52 560.38,-131.7 562.81,-138.27"/>
</g>
<!-- Node6 -->
<g id="node6" class="node">
<title>Node6</title>
<g id="a_node6"><a xlink:title=" ">
<polygon fill="white" stroke="#bfbfbf" points="605.5,-0.5 605.5,-19.5 660.5,-19.5 660.5,-0.5 605.5,-0.5"/>
<text text-anchor="middle" x="633" y="-7.5" font-family="Helvetica,sans-Serif" font-size="10.00">iostream</text>
</a>
</g>
</g>
<!-- Node4&#45;&gt;Node6 -->
<g id="edge5" class="edge">
<title>Node4&#45;&gt;Node6</title>
<path fill="none" stroke="midnightblue" d="M480.76,-173.54C527.72,-167.85 610.57,-154.78 629,-132 652.71,-102.69 645.16,-55.05 638.51,-29.15"/>
<polygon fill="midnightblue" stroke="midnightblue" points="641.88,-28.19 635.81,-19.5 635.14,-30.08 641.88,-28.19"/>
</g>
<!-- Node7 -->
<g id="node7" class="node">
<title>Node7</title>
<g id="a_node7"><a xlink:title=" ">
<polygon fill="white" stroke="#bfbfbf" points="320,-112.5 320,-131.5 350,-131.5 350,-112.5 320,-112.5"/>
<text text-anchor="middle" x="335" y="-119.5" font-family="Helvetica,sans-Serif" font-size="10.00">set</text>
</a>
</g>
</g>
<!-- Node4&#45;&gt;Node7 -->
<g id="edge6" class="edge">
<title>Node4&#45;&gt;Node7</title>
<path fill="none" stroke="midnightblue" d="M430.09,-168.44C410.99,-159.31 380.61,-144.8 359.34,-134.63"/>
<polygon fill="midnightblue" stroke="midnightblue" points="360.82,-131.46 350.28,-130.3 357.8,-137.77 360.82,-131.46"/>
</g>
<!-- Node8 -->
<g id="node8" class="node">
<title>Node8</title>
<g id="a_node8"><a xlink:title=" ">
<polygon fill="white" stroke="#bfbfbf" points="368,-112.5 368,-131.5 420,-131.5 420,-112.5 368,-112.5"/>
<text text-anchor="middle" x="394" y="-119.5" font-family="Helvetica,sans-Serif" font-size="10.00">sstream</text>
</a>
</g>
</g>
<!-- Node4&#45;&gt;Node8 -->
<g id="edge7" class="edge">
<title>Node4&#45;&gt;Node8</title>
<path fill="none" stroke="midnightblue" d="M439.08,-168.08C431.22,-160.22 419.57,-148.57 410.08,-139.08"/>
<polygon fill="midnightblue" stroke="midnightblue" points="412.3,-136.35 402.75,-131.75 407.35,-141.3 412.3,-136.35"/>
</g>
<!-- Node9 -->
<g id="node9" class="node">
<title>Node9</title>
<g id="a_node9"><a xlink:title=" ">
<polygon fill="white" stroke="#bfbfbf" points="317.5,-0.5 317.5,-19.5 358.5,-19.5 358.5,-0.5 317.5,-0.5"/>
<text text-anchor="middle" x="338" y="-7.5" font-family="Helvetica,sans-Serif" font-size="10.00">string</text>
</a>
</g>
</g>
<!-- Node4&#45;&gt;Node9 -->
<g id="edge8" class="edge">
<title>Node4&#45;&gt;Node9</title>
<path fill="none" stroke="midnightblue" d="M415.47,-176.52C383.03,-174.09 334.71,-164.75 311,-132 288.17,-100.46 311.08,-53.08 326.49,-27.99"/>
<polygon fill="midnightblue" stroke="midnightblue" points="329.46,-29.85 331.92,-19.55 323.57,-26.07 329.46,-29.85"/>
</g>
<!-- Node10 -->
<g id="node10" class="node">
<title>Node10</title>
<g id="a_node10"><a xlink:title=" ">
<polygon fill="white" stroke="#bfbfbf" points="407,-56.5 407,-75.5 451,-75.5 451,-56.5 407,-56.5"/>
<text text-anchor="middle" x="429" y="-63.5" font-family="Helvetica,sans-Serif" font-size="10.00">vector</text>
</a>
</g>
</g>
<!-- Node4&#45;&gt;Node10 -->
<g id="edge9" class="edge">
<title>Node4&#45;&gt;Node10</title>
<path fill="none" stroke="midnightblue" d="M446.51,-168.37C443.44,-150.62 436.37,-109.67 432.21,-85.6"/>
<polygon fill="midnightblue" stroke="midnightblue" points="435.64,-84.85 430.48,-75.59 428.74,-86.04 435.64,-84.85"/>
</g>
<!-- Node11 -->
<g id="node11" class="node">
<title>Node11</title>
<g id="a_node11"><a xlink:href="_e57_format_8h.html" target="_top" xlink:title="header file for the E57 API">
<polygon fill="white" stroke="black" points="476,-112.5 476,-131.5 550,-131.5 550,-112.5 476,-112.5"/>
<text text-anchor="middle" x="513" y="-119.5" font-family="Helvetica,sans-Serif" font-size="10.00">E57Format.h</text>
</a>
</g>
</g>
<!-- Node4&#45;&gt;Node11 -->
<g id="edge10" class="edge">
<title>Node4&#45;&gt;Node11</title>
<path fill="none" stroke="midnightblue" d="M458.44,-168.32C468.15,-160.26 482.82,-148.08 494.5,-138.37"/>
<polygon fill="midnightblue" stroke="midnightblue" points="496.91,-140.92 502.37,-131.83 492.44,-135.53 496.91,-140.92"/>
</g>
<!-- Node11&#45;&gt;Node10 -->
<g id="edge13" class="edge">
<title>Node11&#45;&gt;Node10</title>
<path fill="none" stroke="midnightblue" d="M499.5,-112.32C486.4,-103.9 466.29,-90.97 450.89,-81.07"/>
<polygon fill="midnightblue" stroke="midnightblue" points="452.77,-78.12 442.46,-75.65 448.98,-84.01 452.77,-78.12"/>
</g>
<!-- Node12 -->
<g id="node12" class="node">
<title>Node12</title>
<g id="a_node12"><a xlink:title=" ">
<polygon fill="white" stroke="#bfbfbf" points="575,-56.5 575,-75.5 615,-75.5 615,-56.5 575,-56.5"/>
<text text-anchor="middle" x="595" y="-63.5" font-family="Helvetica,sans-Serif" font-size="10.00">cfloat</text>
</a>
</g>
</g>
<!-- Node11&#45;&gt;Node12 -->
<g id="edge11" class="edge">
<title>Node11&#45;&gt;Node12</title>
<path fill="none" stroke="midnightblue" d="M526.17,-112.32C538.85,-103.98 558.23,-91.21 573.21,-81.35"/>
<polygon fill="midnightblue" stroke="midnightblue" points="575.43,-84.08 581.86,-75.65 571.58,-78.23 575.43,-84.08"/>
</g>
<!-- Node13 -->
<g id="node13" class="node">
<title>Node13</title>
<g id="a_node13"><a xlink:title=" ">
<polygon fill="white" stroke="#bfbfbf" points="676.5,-56.5 676.5,-75.5 729.5,-75.5 729.5,-56.5 676.5,-56.5"/>
<text text-anchor="middle" x="703" y="-63.5" font-family="Helvetica,sans-Serif" font-size="10.00">memory</text>
</a>
</g>
</g>
<!-- Node11&#45;&gt;Node13 -->
<g id="edge12" class="edge">
<title>Node11&#45;&gt;Node13</title>
<path fill="none" stroke="midnightblue" d="M543.11,-112.44C576.53,-102.94 630.5,-87.61 666.35,-77.41"/>
<polygon fill="midnightblue" stroke="midnightblue" points="667.74,-80.66 676.41,-74.56 665.83,-73.93 667.74,-80.66"/>
</g>
<!-- Node14 -->
<g id="node14" class="node">
<title>Node14</title>
<g id="a_node14"><a xlink:href="_e57_exception_8h.html" target="_top" xlink:title=" ">
<polygon fill="white" stroke="black" points="469.5,-56.5 469.5,-75.5 556.5,-75.5 556.5,-56.5 469.5,-56.5"/>
<text text-anchor="middle" x="513" y="-63.5" font-family="Helvetica,sans-Serif" font-size="10.00">E57Exception.h</text>
</a>
</g>
</g>
<!-- Node11&#45;&gt;Node14 -->
<g id="edge14" class="edge">
<title>Node11&#45;&gt;Node14</title>
<path fill="none" stroke="midnightblue" d="M513,-112.08C513,-105.01 513,-94.86 513,-85.99"/>
<polygon fill="midnightblue" stroke="midnightblue" points="516.5,-85.75 513,-75.75 509.5,-85.75 516.5,-85.75"/>
</g>
<!-- Node14&#45;&gt;Node6 -->
<g id="edge16" class="edge">
<title>Node14&#45;&gt;Node6</title>
<path fill="none" stroke="midnightblue" d="M532.01,-56.44C551.59,-47.64 582.31,-33.81 604.73,-23.72"/>
<polygon fill="midnightblue" stroke="midnightblue" points="606.39,-26.81 614.07,-19.52 603.52,-20.43 606.39,-26.81"/>
</g>
<!-- Node14&#45;&gt;Node9 -->
<g id="edge17" class="edge">
<title>Node14&#45;&gt;Node9</title>
<path fill="none" stroke="midnightblue" d="M485.27,-56.44C453.39,-46.61 401.23,-30.51 368.31,-20.35"/>
<polygon fill="midnightblue" stroke="midnightblue" points="369.34,-17.01 358.75,-17.4 367.27,-23.7 369.34,-17.01"/>
</g>
<!-- Node15 -->
<g id="node15" class="node">
<title>Node15</title>
<g id="a_node15"><a xlink:title=" ">
<polygon fill="white" stroke="#bfbfbf" points="498.5,-0.5 498.5,-19.5 557.5,-19.5 557.5,-0.5 498.5,-0.5"/>
<text text-anchor="middle" x="528" y="-7.5" font-family="Helvetica,sans-Serif" font-size="10.00">exception</text>
</a>
</g>
</g>
<!-- Node14&#45;&gt;Node15 -->
<g id="edge15" class="edge">
<title>Node14&#45;&gt;Node15</title>
<path fill="none" stroke="midnightblue" d="M515.48,-56.08C517.49,-48.85 520.39,-38.41 522.89,-29.4"/>
<polygon fill="midnightblue" stroke="midnightblue" points="526.26,-30.32 525.57,-19.75 519.52,-28.45 526.26,-30.32"/>
</g>
<!-- Node16 -->
<g id="node16" class="node">
<title>Node16</title>
<g id="a_node16"><a xlink:title=" ">
<polygon fill="white" stroke="#bfbfbf" points="408,-0.5 408,-19.5 480,-19.5 480,-0.5 408,-0.5"/>
<text text-anchor="middle" x="444" y="-7.5" font-family="Helvetica,sans-Serif" font-size="10.00">E57Export.h</text>
</a>
</g>
</g>
<!-- Node14&#45;&gt;Node16 -->
<g id="edge18" class="edge">
<title>Node14&#45;&gt;Node16</title>
<path fill="none" stroke="midnightblue" d="M501.91,-56.32C491.51,-48.18 475.74,-35.84 463.28,-26.09"/>
<polygon fill="midnightblue" stroke="midnightblue" points="465.32,-23.24 455.29,-19.83 461.01,-28.75 465.32,-23.24"/>
</g>
<!-- Node17&#45;&gt;Node3 -->
<g id="edge20" class="edge">
<title>Node17&#45;&gt;Node3</title>
<path fill="none" stroke="midnightblue" d="M478.79,-280.08C482.76,-272.69 488.53,-261.95 493.43,-252.81"/>
<polygon fill="midnightblue" stroke="midnightblue" points="496.65,-254.22 498.3,-243.75 490.49,-250.91 496.65,-254.22"/>
</g>
<!-- Node19 -->
<g id="node19" class="node">
<title>Node19</title>
<g id="a_node19"><a xlink:href="_decode_channel_8h.html" target="_top" xlink:title=" ">
<polygon fill="white" stroke="black" points="32.5,-280.5 32.5,-299.5 129.5,-299.5 129.5,-280.5 32.5,-280.5"/>
<text text-anchor="middle" x="81" y="-287.5" font-family="Helvetica,sans-Serif" font-size="10.00">DecodeChannel.h</text>
</a>
</g>
</g>
<!-- Node18&#45;&gt;Node19 -->
<g id="edge22" class="edge">
<title>Node18&#45;&gt;Node19</title>
<path fill="none" stroke="midnightblue" d="M81,-336.08C81,-329.01 81,-318.86 81,-309.99"/>
<polygon fill="midnightblue" stroke="midnightblue" points="84.5,-309.75 81,-299.75 77.5,-309.75 84.5,-309.75"/>
</g>
<!-- Node20 -->
<g id="node20" class="node">
<title>Node20</title>
<g id="a_node20"><a xlink:href="_decoder_8h.html" target="_top" xlink:title=" ">
<polygon fill="white" stroke="black" points="306,-224.5 306,-243.5 368,-243.5 368,-224.5 306,-224.5"/>
<text text-anchor="middle" x="337" y="-231.5" font-family="Helvetica,sans-Serif" font-size="10.00">Decoder.h</text>
</a>
</g>
</g>
<!-- Node19&#45;&gt;Node20 -->
<g id="edge23" class="edge">
<title>Node19&#45;&gt;Node20</title>
<path fill="none" stroke="midnightblue" d="M121.56,-280.44C169.24,-270.39 247.93,-253.79 295.86,-243.68"/>
<polygon fill="midnightblue" stroke="midnightblue" points="296.82,-247.05 305.89,-241.56 295.38,-240.2 296.82,-247.05"/>
</g>
<!-- Node20&#45;&gt;Node4 -->
<g id="edge24" class="edge">
<title>Node20&#45;&gt;Node4</title>
<path fill="none" stroke="midnightblue" d="M354.83,-224.32C372.72,-215.62 400.48,-202.12 421.05,-192.11"/>
<polygon fill="midnightblue" stroke="midnightblue" points="422.75,-195.18 430.21,-187.65 419.69,-188.88 422.75,-195.18"/>
</g>
<!-- Node22 -->
<g id="node22" class="node">
<title>Node22</title>
<g id="a_node22"><a xlink:href="_encoder_8h.html" target="_top" xlink:title=" ">
<polygon fill="white" stroke="black" points="388,-224.5 388,-243.5 450,-243.5 450,-224.5 388,-224.5"/>
<text text-anchor="middle" x="419" y="-231.5" font-family="Helvetica,sans-Serif" font-size="10.00">Encoder.h</text>
</a>
</g>
</g>
<!-- Node21&#45;&gt;Node22 -->
<g id="edge26" class="edge">
<title>Node21&#45;&gt;Node22</title>
<path fill="none" stroke="midnightblue" d="M255.74,-280.44C288.94,-271.2 341.99,-256.44 378.56,-246.26"/>
<polygon fill="midnightblue" stroke="midnightblue" points="379.71,-249.57 388.4,-243.52 377.83,-242.83 379.71,-249.57"/>
</g>
<!-- Node23 -->
<g id="node23" class="node">
<title>Node23</title>
<g id="a_node23"><a xlink:href="_packet_8h.html" target="_top" xlink:title=" ">
<polygon fill="white" stroke="black" points="201.5,-224.5 201.5,-243.5 256.5,-243.5 256.5,-224.5 201.5,-224.5"/>
<text text-anchor="middle" x="229" y="-231.5" font-family="Helvetica,sans-Serif" font-size="10.00">Packet.h</text>
</a>
</g>
</g>
<!-- Node21&#45;&gt;Node23 -->
<g id="edge28" class="edge">
<title>Node21&#45;&gt;Node23</title>
<path fill="none" stroke="midnightblue" d="M225.66,-280.08C226.18,-273.01 226.94,-262.86 227.59,-253.99"/>
<polygon fill="midnightblue" stroke="midnightblue" points="231.1,-253.98 228.35,-243.75 224.12,-253.47 231.1,-253.98"/>
</g>
<!-- Node22&#45;&gt;Node4 -->
<g id="edge27" class="edge">
<title>Node22&#45;&gt;Node4</title>
<path fill="none" stroke="midnightblue" d="M423.79,-224.08C427.76,-216.69 433.53,-205.95 438.43,-196.81"/>
<polygon fill="midnightblue" stroke="midnightblue" points="441.65,-198.22 443.3,-187.75 435.49,-194.91 441.65,-198.22"/>
</g>
<!-- Node23&#45;&gt;Node4 -->
<g id="edge31" class="edge">
<title>Node23&#45;&gt;Node4</title>
<path fill="none" stroke="midnightblue" d="M256.74,-226.16C294.22,-216.92 361.39,-200.36 405.32,-189.52"/>
<polygon fill="midnightblue" stroke="midnightblue" points="406.27,-192.89 415.14,-187.1 404.59,-186.1 406.27,-192.89"/>
</g>
<!-- Node23&#45;&gt;Node10 -->
<g id="edge30" class="edge">
<title>Node23&#45;&gt;Node10</title>
<path fill="none" stroke="midnightblue" d="M232.61,-224.35C242.17,-202.46 270.22,-144.3 311,-112 336.38,-91.9 371.74,-80.02 397.12,-73.56"/>
<polygon fill="midnightblue" stroke="midnightblue" points="398.09,-76.93 406.99,-71.19 396.45,-70.12 398.09,-76.93"/>
</g>
<!-- Node24 -->
<g id="node24" class="node">
<title>Node24</title>
<g id="a_node24"><a xlink:title=" ">
<polygon fill="white" stroke="#bfbfbf" points="180.5,-168.5 180.5,-187.5 225.5,-187.5 225.5,-168.5 180.5,-168.5"/>
<text text-anchor="middle" x="203" y="-175.5" font-family="Helvetica,sans-Serif" font-size="10.00">cstdint</text>
</a>
</g>
</g>
<!-- Node23&#45;&gt;Node24 -->
<g id="edge29" class="edge">
<title>Node23&#45;&gt;Node24</title>
<path fill="none" stroke="midnightblue" d="M224.71,-224.08C221.15,-216.69 215.98,-205.95 211.58,-196.81"/>
<polygon fill="midnightblue" stroke="midnightblue" points="214.71,-195.24 207.21,-187.75 208.4,-198.28 214.71,-195.24"/>
</g>
<!-- Node25&#45;&gt;Node3 -->
<g id="edge33" class="edge">
<title>Node25&#45;&gt;Node3</title>
<path fill="none" stroke="midnightblue" d="M785.57,-336.24C774.62,-322.01 750.92,-294.08 724,-280 693.85,-264.23 602.78,-249.13 547.4,-241.06"/>
<polygon fill="midnightblue" stroke="midnightblue" points="547.56,-237.55 537.16,-239.59 546.56,-244.48 547.56,-237.55"/>
</g>
<!-- Node26&#45;&gt;Node4 -->
<g id="edge36" class="edge">
<title>Node26&#45;&gt;Node4</title>
<path fill="none" stroke="midnightblue" d="M662.59,-224.44C615.62,-214.5 538.45,-198.15 490.57,-188.02"/>
<polygon fill="midnightblue" stroke="midnightblue" points="491.04,-184.54 480.53,-185.89 489.59,-191.38 491.04,-184.54"/>
</g>
<!-- Node26&#45;&gt;Node13 -->
<g id="edge35" class="edge">
<title>Node26&#45;&gt;Node13</title>
<path fill="none" stroke="midnightblue" d="M703,-224.08C703,-197.95 703,-121.21 703,-85.58"/>
<polygon fill="midnightblue" stroke="midnightblue" points="706.5,-85.57 703,-75.57 699.5,-85.57 706.5,-85.57"/>
</g>
<!-- Node27&#45;&gt;Node3 -->
<g id="edge38" class="edge">
<title>Node27&#45;&gt;Node3</title>
<path fill="none" stroke="midnightblue" d="M280.91,-336.39C301.18,-323.12 342.01,-297.37 379,-280 407.06,-266.83 440.11,-255 465.03,-246.79"/>
<polygon fill="midnightblue" stroke="midnightblue" points="466.41,-250.02 474.84,-243.6 464.24,-243.36 466.41,-250.02"/>
</g>
<!-- Node28&#45;&gt;Node3 -->
<g id="edge40" class="edge">
<title>Node28&#45;&gt;Node3</title>
<path fill="none" stroke="midnightblue" d="M394.84,-336.16C387.79,-322.81 377.28,-297.22 389,-280 397.48,-267.53 431.54,-255.07 460.24,-246.43"/>
<polygon fill="midnightblue" stroke="midnightblue" points="461.5,-249.71 470.12,-243.54 459.53,-242.99 461.5,-249.71"/>
</g>
<!-- Node29&#45;&gt;Node4 -->
<g id="edge42" class="edge">
<title>Node29&#45;&gt;Node4</title>
<path fill="none" stroke="midnightblue" d="M876.82,-280.59C805.45,-270.57 691.91,-253.95 650,-244 589,-229.51 519.83,-205.56 480.31,-191.13"/>
<polygon fill="midnightblue" stroke="midnightblue" points="481.29,-187.76 470.69,-187.59 478.87,-194.33 481.29,-187.76"/>
</g>
<!-- Node30&#45;&gt;Node3 -->
<g id="edge44" class="edge">
<title>Node30&#45;&gt;Node3</title>
<path fill="none" stroke="midnightblue" d="M568.92,-336.37C569.91,-323.28 570.15,-298.03 560,-280 552.78,-267.17 540.29,-256.68 528.83,-249.07"/>
<polygon fill="midnightblue" stroke="midnightblue" points="530.33,-245.88 519.99,-243.59 526.65,-251.83 530.33,-245.88"/>
</g>
<!-- Node32 -->
<g id="node32" class="node">
<title>Node32</title>
<g id="a_node32"><a xlink:href="_structure_node_impl_8h.html" target="_top" xlink:title=" ">
<polygon fill="white" stroke="black" points="607,-280.5 607,-299.5 715,-299.5 715,-280.5 607,-280.5"/>
<text text-anchor="middle" x="661" y="-287.5" font-family="Helvetica,sans-Serif" font-size="10.00">StructureNodeImpl.h</text>
</a>
</g>
</g>
<!-- Node31&#45;&gt;Node32 -->
<g id="edge46" class="edge">
<title>Node31&#45;&gt;Node32</title>
<path fill="none" stroke="midnightblue" d="M677.7,-336.08C675.02,-328.85 671.15,-318.41 667.81,-309.4"/>
<polygon fill="midnightblue" stroke="midnightblue" points="671,-307.91 664.24,-299.75 664.43,-310.34 671,-307.91"/>
</g>
<!-- Node32&#45;&gt;Node3 -->
<g id="edge47" class="edge">
<title>Node32&#45;&gt;Node3</title>
<path fill="none" stroke="midnightblue" d="M635.96,-280.44C609.38,-271.36 567.19,-256.94 537.48,-246.78"/>
<polygon fill="midnightblue" stroke="midnightblue" points="538.51,-243.44 527.92,-243.52 536.25,-250.06 538.51,-243.44"/>
</g>
</g>
</svg>
