<?xml version="1.0" encoding="UTF-8" standalone="no"?>
<!DOCTYPE svg PUBLIC "-//W3C//DTD SVG 1.1//EN"
 "http://www.w3.org/Graphics/SVG/1.1/DTD/svg11.dtd">
<!-- Generated by graphviz version 2.48.0 (20210717.1556)
 -->
<!-- Title: Encoder.cpp Pages: 1 -->
<svg width="780pt" height="364pt"
 viewBox="0.00 0.00 780.07 364.00" xmlns="http://www.w3.org/2000/svg" xmlns:xlink="http://www.w3.org/1999/xlink">
<g id="graph0" class="graph" transform="scale(1 1) rotate(0) translate(4 360)">
<title>Encoder.cpp</title>
<polygon fill="white" stroke="transparent" points="-4,4 -4,-360 776.07,-360 776.07,4 -4,4"/>
<!-- Node1 -->
<g id="node1" class="node">
<title>Node1</title>
<g id="a_node1"><a xlink:title=" ">
<polygon fill="#bfbfbf" stroke="black" points="296,-336.5 296,-355.5 368,-355.5 368,-336.5 296,-336.5"/>
<text text-anchor="middle" x="332" y="-343.5" font-family="Helvetica,sans-Serif" font-size="10.00">Encoder.cpp</text>
</a>
</g>
</g>
<!-- Node2 -->
<g id="node2" class="node">
<title>Node2</title>
<g id="a_node2"><a xlink:title=" ">
<polygon fill="white" stroke="#bfbfbf" points="0,-280.5 0,-299.5 58,-299.5 58,-280.5 0,-280.5"/>
<text text-anchor="middle" x="29" y="-287.5" font-family="Helvetica,sans-Serif" font-size="10.00">algorithm</text>
</a>
</g>
</g>
<!-- Node1&#45;&gt;Node2 -->
<g id="edge1" class="edge">
<title>Node1&#45;&gt;Node2</title>
<path fill="none" stroke="midnightblue" d="M295.86,-339.62C246.57,-332.11 155.3,-317.63 67.82,-300.06"/>
<polygon fill="midnightblue" stroke="midnightblue" points="68.5,-296.63 58,-298.07 67.11,-303.49 68.5,-296.63"/>
</g>
<!-- Node3 -->
<g id="node3" class="node">
<title>Node3</title>
<g id="a_node3"><a xlink:title=" ">
<polygon fill="white" stroke="#bfbfbf" points="76,-280.5 76,-299.5 122,-299.5 122,-280.5 76,-280.5"/>
<text text-anchor="middle" x="99" y="-287.5" font-family="Helvetica,sans-Serif" font-size="10.00">cstring</text>
</a>
</g>
</g>
<!-- Node1&#45;&gt;Node3 -->
<g id="edge2" class="edge">
<title>Node1&#45;&gt;Node3</title>
<path fill="none" stroke="midnightblue" d="M295.84,-336.85C256.49,-327.94 191.72,-313.17 136,-300 134.73,-299.7 133.44,-299.39 132.14,-299.08"/>
<polygon fill="midnightblue" stroke="midnightblue" points="132.62,-295.6 122.08,-296.66 130.99,-302.41 132.62,-295.6"/>
</g>
<!-- Node4 -->
<g id="node4" class="node">
<title>Node4</title>
<g id="a_node4"><a xlink:href="_compressed_vector_node_impl_8h.html" target="_top" xlink:title=" ">
<polygon fill="white" stroke="black" points="480.5,-280.5 480.5,-299.5 633.5,-299.5 633.5,-280.5 480.5,-280.5"/>
<text text-anchor="middle" x="557" y="-287.5" font-family="Helvetica,sans-Serif" font-size="10.00">CompressedVectorNodeImpl.h</text>
</a>
</g>
</g>
<!-- Node1&#45;&gt;Node4 -->
<g id="edge3" class="edge">
<title>Node1&#45;&gt;Node4</title>
<path fill="none" stroke="midnightblue" d="M367.65,-336.44C406.66,-327.08 469.27,-312.06 511.72,-301.87"/>
<polygon fill="midnightblue" stroke="midnightblue" points="512.61,-305.25 521.51,-299.52 510.97,-298.45 512.61,-305.25"/>
</g>
<!-- Node19 -->
<g id="node19" class="node">
<title>Node19</title>
<g id="a_node19"><a xlink:href="_encoder_8h.html" target="_top" xlink:title=" ">
<polygon fill="white" stroke="black" points="550,-224.5 550,-243.5 612,-243.5 612,-224.5 550,-224.5"/>
<text text-anchor="middle" x="581" y="-231.5" font-family="Helvetica,sans-Serif" font-size="10.00">Encoder.h</text>
</a>
</g>
</g>
<!-- Node1&#45;&gt;Node19 -->
<g id="edge21" class="edge">
<title>Node1&#45;&gt;Node19</title>
<path fill="none" stroke="midnightblue" d="M368.34,-343.82C465.49,-340.29 725.61,-328.27 751,-300 756.94,-293.39 756.42,-287.04 751,-280 735.41,-259.74 667.47,-246.73 622.35,-240.16"/>
<polygon fill="midnightblue" stroke="midnightblue" points="622.64,-236.66 612.25,-238.74 621.67,-243.6 622.64,-236.66"/>
</g>
<!-- Node20 -->
<g id="node20" class="node">
<title>Node20</title>
<g id="a_node20"><a xlink:href="_float_node_impl_8h.html" target="_top" xlink:title=" ">
<polygon fill="white" stroke="black" points="652,-280.5 652,-299.5 742,-299.5 742,-280.5 652,-280.5"/>
<text text-anchor="middle" x="697" y="-287.5" font-family="Helvetica,sans-Serif" font-size="10.00">FloatNodeImpl.h</text>
</a>
</g>
</g>
<!-- Node1&#45;&gt;Node20 -->
<g id="edge23" class="edge">
<title>Node1&#45;&gt;Node20</title>
<path fill="none" stroke="midnightblue" d="M368.43,-339.99C424.73,-332.18 536.54,-316.46 641.77,-300.16"/>
<polygon fill="midnightblue" stroke="midnightblue" points="642.59,-303.58 651.93,-298.59 641.51,-296.66 642.59,-303.58"/>
</g>
<!-- Node21 -->
<g id="node21" class="node">
<title>Node21</title>
<g id="a_node21"><a xlink:href="_image_file_impl_8h.html" target="_top" xlink:title=" ">
<polygon fill="white" stroke="black" points="187,-224.5 187,-243.5 275,-243.5 275,-224.5 187,-224.5"/>
<text text-anchor="middle" x="231" y="-231.5" font-family="Helvetica,sans-Serif" font-size="10.00">ImageFileImpl.h</text>
</a>
</g>
</g>
<!-- Node1&#45;&gt;Node21 -->
<g id="edge25" class="edge">
<title>Node1&#45;&gt;Node21</title>
<path fill="none" stroke="midnightblue" d="M295.95,-343.9C264.36,-340.8 220.14,-330.78 198,-300 186.88,-284.54 200.23,-264.8 213.13,-251.15"/>
<polygon fill="midnightblue" stroke="midnightblue" points="215.82,-253.41 220.49,-243.89 210.91,-248.43 215.82,-253.41"/>
</g>
<!-- Node22 -->
<g id="node22" class="node">
<title>Node22</title>
<g id="a_node22"><a xlink:href="_integer_node_impl_8h.html" target="_top" xlink:title=" ">
<polygon fill="white" stroke="black" points="216.5,-280.5 216.5,-299.5 315.5,-299.5 315.5,-280.5 216.5,-280.5"/>
<text text-anchor="middle" x="266" y="-287.5" font-family="Helvetica,sans-Serif" font-size="10.00">IntegerNodeImpl.h</text>
</a>
</g>
</g>
<!-- Node1&#45;&gt;Node22 -->
<g id="edge28" class="edge">
<title>Node1&#45;&gt;Node22</title>
<path fill="none" stroke="midnightblue" d="M321.4,-336.32C311.54,-328.26 296.65,-316.08 284.78,-306.37"/>
<polygon fill="midnightblue" stroke="midnightblue" points="286.75,-303.46 276.8,-299.83 282.32,-308.88 286.75,-303.46"/>
</g>
<!-- Node23 -->
<g id="node23" class="node">
<title>Node23</title>
<g id="a_node23"><a xlink:href="_packet_8h.html" target="_top" xlink:title=" ">
<polygon fill="white" stroke="black" points="685.5,-224.5 685.5,-243.5 740.5,-243.5 740.5,-224.5 685.5,-224.5"/>
<text text-anchor="middle" x="713" y="-231.5" font-family="Helvetica,sans-Serif" font-size="10.00">Packet.h</text>
</a>
</g>
</g>
<!-- Node1&#45;&gt;Node23 -->
<g id="edge30" class="edge">
<title>Node1&#45;&gt;Node23</title>
<path fill="none" stroke="midnightblue" d="M368.27,-343.97C467.96,-340.78 740.46,-329.42 767,-300 782.48,-282.84 758.47,-262.19 737.7,-248.84"/>
<polygon fill="midnightblue" stroke="midnightblue" points="739.49,-245.83 729.13,-243.6 735.83,-251.8 739.49,-245.83"/>
</g>
<!-- Node25 -->
<g id="node25" class="node">
<title>Node25</title>
<g id="a_node25"><a xlink:href="_scaled_integer_node_impl_8h.html" target="_top" xlink:title=" ">
<polygon fill="white" stroke="black" points="333.5,-280.5 333.5,-299.5 462.5,-299.5 462.5,-280.5 333.5,-280.5"/>
<text text-anchor="middle" x="398" y="-287.5" font-family="Helvetica,sans-Serif" font-size="10.00">ScaledIntegerNodeImpl.h</text>
</a>
</g>
</g>
<!-- Node1&#45;&gt;Node25 -->
<g id="edge34" class="edge">
<title>Node1&#45;&gt;Node25</title>
<path fill="none" stroke="midnightblue" d="M342.6,-336.32C352.46,-328.26 367.35,-316.08 379.22,-306.37"/>
<polygon fill="midnightblue" stroke="midnightblue" points="381.68,-308.88 387.2,-299.83 377.25,-303.46 381.68,-308.88"/>
</g>
<!-- Node26 -->
<g id="node26" class="node">
<title>Node26</title>
<g id="a_node26"><a xlink:href="_source_dest_buffer_impl_8h.html" target="_top" xlink:title=" ">
<polygon fill="white" stroke="black" points="293,-224.5 293,-243.5 415,-243.5 415,-224.5 293,-224.5"/>
<text text-anchor="middle" x="354" y="-231.5" font-family="Helvetica,sans-Serif" font-size="10.00">SourceDestBufferImpl.h</text>
</a>
</g>
</g>
<!-- Node1&#45;&gt;Node26 -->
<g id="edge36" class="edge">
<title>Node1&#45;&gt;Node26</title>
<path fill="none" stroke="midnightblue" d="M295.89,-340.13C250.47,-332.45 181.33,-314.71 207,-280 217.84,-265.34 259,-253.51 295.01,-245.66"/>
<polygon fill="midnightblue" stroke="midnightblue" points="295.94,-249.04 305,-243.56 294.5,-242.19 295.94,-249.04"/>
</g>
<!-- Node5 -->
<g id="node5" class="node">
<title>Node5</title>
<g id="a_node5"><a xlink:href="_node_impl_8h.html" target="_top" xlink:title=" ">
<polygon fill="white" stroke="black" points="433,-224.5 433,-243.5 501,-243.5 501,-224.5 433,-224.5"/>
<text text-anchor="middle" x="467" y="-231.5" font-family="Helvetica,sans-Serif" font-size="10.00">NodeImpl.h</text>
</a>
</g>
</g>
<!-- Node4&#45;&gt;Node5 -->
<g id="edge4" class="edge">
<title>Node4&#45;&gt;Node5</title>
<path fill="none" stroke="midnightblue" d="M542.54,-280.32C528.5,-271.9 506.95,-258.97 490.46,-249.07"/>
<polygon fill="midnightblue" stroke="midnightblue" points="491.8,-245.8 481.42,-243.65 488.2,-251.8 491.8,-245.8"/>
</g>
<!-- Node6 -->
<g id="node6" class="node">
<title>Node6</title>
<g id="a_node6"><a xlink:href="_common_8h.html" target="_top" xlink:title=" ">
<polygon fill="white" stroke="black" points="433.5,-168.5 433.5,-187.5 498.5,-187.5 498.5,-168.5 433.5,-168.5"/>
<text text-anchor="middle" x="466" y="-175.5" font-family="Helvetica,sans-Serif" font-size="10.00">Common.h</text>
</a>
</g>
</g>
<!-- Node5&#45;&gt;Node6 -->
<g id="edge5" class="edge">
<title>Node5&#45;&gt;Node6</title>
<path fill="none" stroke="midnightblue" d="M466.83,-224.08C466.7,-217.01 466.52,-206.86 466.35,-197.99"/>
<polygon fill="midnightblue" stroke="midnightblue" points="469.85,-197.68 466.16,-187.75 462.85,-197.81 469.85,-197.68"/>
</g>
<!-- Node7 -->
<g id="node7" class="node">
<title>Node7</title>
<g id="a_node7"><a xlink:title=" ">
<polygon fill="white" stroke="#bfbfbf" points="569,-112.5 569,-131.5 621,-131.5 621,-112.5 569,-112.5"/>
<text text-anchor="middle" x="595" y="-119.5" font-family="Helvetica,sans-Serif" font-size="10.00">iomanip</text>
</a>
</g>
</g>
<!-- Node6&#45;&gt;Node7 -->
<g id="edge6" class="edge">
<title>Node6&#45;&gt;Node7</title>
<path fill="none" stroke="midnightblue" d="M486.44,-168.44C507.67,-159.56 541.1,-145.56 565.25,-135.45"/>
<polygon fill="midnightblue" stroke="midnightblue" points="566.78,-138.61 574.66,-131.52 564.08,-132.15 566.78,-138.61"/>
</g>
<!-- Node8 -->
<g id="node8" class="node">
<title>Node8</title>
<g id="a_node8"><a xlink:title=" ">
<polygon fill="white" stroke="#bfbfbf" points="580.5,-0.5 580.5,-19.5 635.5,-19.5 635.5,-0.5 580.5,-0.5"/>
<text text-anchor="middle" x="608" y="-7.5" font-family="Helvetica,sans-Serif" font-size="10.00">iostream</text>
</a>
</g>
</g>
<!-- Node6&#45;&gt;Node8 -->
<g id="edge7" class="edge">
<title>Node6&#45;&gt;Node8</title>
<path fill="none" stroke="midnightblue" d="M498.69,-172.72C541.82,-166.34 614.16,-152.78 630,-132 653.32,-101.42 632.94,-53.98 618.81,-28.54"/>
<polygon fill="midnightblue" stroke="midnightblue" points="621.69,-26.53 613.62,-19.66 615.64,-30.06 621.69,-26.53"/>
</g>
<!-- Node9 -->
<g id="node9" class="node">
<title>Node9</title>
<g id="a_node9"><a xlink:title=" ">
<polygon fill="white" stroke="#bfbfbf" points="451,-112.5 451,-131.5 481,-131.5 481,-112.5 451,-112.5"/>
<text text-anchor="middle" x="466" y="-119.5" font-family="Helvetica,sans-Serif" font-size="10.00">set</text>
</a>
</g>
</g>
<!-- Node6&#45;&gt;Node9 -->
<g id="edge8" class="edge">
<title>Node6&#45;&gt;Node9</title>
<path fill="none" stroke="midnightblue" d="M466,-168.08C466,-161.01 466,-150.86 466,-141.99"/>
<polygon fill="midnightblue" stroke="midnightblue" points="469.5,-141.75 466,-131.75 462.5,-141.75 469.5,-141.75"/>
</g>
<!-- Node10 -->
<g id="node10" class="node">
<title>Node10</title>
<g id="a_node10"><a xlink:title=" ">
<polygon fill="white" stroke="#bfbfbf" points="499,-112.5 499,-131.5 551,-131.5 551,-112.5 499,-112.5"/>
<text text-anchor="middle" x="525" y="-119.5" font-family="Helvetica,sans-Serif" font-size="10.00">sstream</text>
</a>
</g>
</g>
<!-- Node6&#45;&gt;Node10 -->
<g id="edge9" class="edge">
<title>Node6&#45;&gt;Node10</title>
<path fill="none" stroke="midnightblue" d="M475.48,-168.32C484.2,-160.34 497.34,-148.31 507.9,-138.65"/>
<polygon fill="midnightblue" stroke="midnightblue" points="510.33,-141.17 515.35,-131.83 505.61,-136 510.33,-141.17"/>
</g>
<!-- Node11 -->
<g id="node11" class="node">
<title>Node11</title>
<g id="a_node11"><a xlink:title=" ">
<polygon fill="white" stroke="#bfbfbf" points="299.5,-0.5 299.5,-19.5 340.5,-19.5 340.5,-0.5 299.5,-0.5"/>
<text text-anchor="middle" x="320" y="-7.5" font-family="Helvetica,sans-Serif" font-size="10.00">string</text>
</a>
</g>
</g>
<!-- Node6&#45;&gt;Node11 -->
<g id="edge10" class="edge">
<title>Node6&#45;&gt;Node11</title>
<path fill="none" stroke="midnightblue" d="M433.19,-172.08C392.46,-165.21 326.54,-151.39 312,-132 289.46,-101.93 302.24,-54.97 312.05,-29.29"/>
<polygon fill="midnightblue" stroke="midnightblue" points="315.42,-30.28 315.96,-19.7 308.94,-27.64 315.42,-30.28"/>
</g>
<!-- Node12 -->
<g id="node12" class="node">
<title>Node12</title>
<g id="a_node12"><a xlink:title=" ">
<polygon fill="white" stroke="#bfbfbf" points="485,-56.5 485,-75.5 529,-75.5 529,-56.5 485,-56.5"/>
<text text-anchor="middle" x="507" y="-63.5" font-family="Helvetica,sans-Serif" font-size="10.00">vector</text>
</a>
</g>
</g>
<!-- Node6&#45;&gt;Node12 -->
<g id="edge11" class="edge">
<title>Node6&#45;&gt;Node12</title>
<path fill="none" stroke="midnightblue" d="M458.25,-168.29C447.9,-155.52 431.95,-131.18 442,-112 449.28,-98.11 463.01,-87.65 475.98,-80.33"/>
<polygon fill="midnightblue" stroke="midnightblue" points="477.93,-83.27 485.19,-75.55 474.7,-77.05 477.93,-83.27"/>
</g>
<!-- Node13 -->
<g id="node13" class="node">
<title>Node13</title>
<g id="a_node13"><a xlink:href="_e57_format_8h.html" target="_top" xlink:title="header file for the E57 API">
<polygon fill="white" stroke="black" points="321,-112.5 321,-131.5 395,-131.5 395,-112.5 321,-112.5"/>
<text text-anchor="middle" x="358" y="-119.5" font-family="Helvetica,sans-Serif" font-size="10.00">E57Format.h</text>
</a>
</g>
</g>
<!-- Node6&#45;&gt;Node13 -->
<g id="edge12" class="edge">
<title>Node6&#45;&gt;Node13</title>
<path fill="none" stroke="midnightblue" d="M448.65,-168.32C431.33,-159.66 404.48,-146.24 384.5,-136.25"/>
<polygon fill="midnightblue" stroke="midnightblue" points="385.82,-133 375.31,-131.65 382.69,-139.26 385.82,-133"/>
</g>
<!-- Node13&#45;&gt;Node12 -->
<g id="edge15" class="edge">
<title>Node13&#45;&gt;Node12</title>
<path fill="none" stroke="midnightblue" d="M381.61,-112.44C406.9,-103.28 447.17,-88.68 475.22,-78.52"/>
<polygon fill="midnightblue" stroke="midnightblue" points="476.75,-81.69 484.96,-74.99 474.36,-75.11 476.75,-81.69"/>
</g>
<!-- Node14 -->
<g id="node14" class="node">
<title>Node14</title>
<g id="a_node14"><a xlink:title=" ">
<polygon fill="white" stroke="#bfbfbf" points="321,-56.5 321,-75.5 361,-75.5 361,-56.5 321,-56.5"/>
<text text-anchor="middle" x="341" y="-63.5" font-family="Helvetica,sans-Serif" font-size="10.00">cfloat</text>
</a>
</g>
</g>
<!-- Node13&#45;&gt;Node14 -->
<g id="edge13" class="edge">
<title>Node13&#45;&gt;Node14</title>
<path fill="none" stroke="midnightblue" d="M355.19,-112.08C352.92,-104.85 349.63,-94.41 346.79,-85.4"/>
<polygon fill="midnightblue" stroke="midnightblue" points="350.1,-84.24 343.75,-75.75 343.42,-86.34 350.1,-84.24"/>
</g>
<!-- Node15 -->
<g id="node15" class="node">
<title>Node15</title>
<g id="a_node15"><a xlink:title=" ">
<polygon fill="white" stroke="#bfbfbf" points="210.5,-56.5 210.5,-75.5 263.5,-75.5 263.5,-56.5 210.5,-56.5"/>
<text text-anchor="middle" x="237" y="-63.5" font-family="Helvetica,sans-Serif" font-size="10.00">memory</text>
</a>
</g>
</g>
<!-- Node13&#45;&gt;Node15 -->
<g id="edge14" class="edge">
<title>Node13&#45;&gt;Node15</title>
<path fill="none" stroke="midnightblue" d="M338.83,-112.44C319.09,-103.64 288.11,-89.81 265.51,-79.72"/>
<polygon fill="midnightblue" stroke="midnightblue" points="266.64,-76.4 256.08,-75.52 263.79,-82.79 266.64,-76.4"/>
</g>
<!-- Node16 -->
<g id="node16" class="node">
<title>Node16</title>
<g id="a_node16"><a xlink:href="_e57_exception_8h.html" target="_top" xlink:title=" ">
<polygon fill="white" stroke="black" points="379.5,-56.5 379.5,-75.5 466.5,-75.5 466.5,-56.5 379.5,-56.5"/>
<text text-anchor="middle" x="423" y="-63.5" font-family="Helvetica,sans-Serif" font-size="10.00">E57Exception.h</text>
</a>
</g>
</g>
<!-- Node13&#45;&gt;Node16 -->
<g id="edge16" class="edge">
<title>Node13&#45;&gt;Node16</title>
<path fill="none" stroke="midnightblue" d="M368.44,-112.32C378.15,-104.26 392.82,-92.08 404.5,-82.37"/>
<polygon fill="midnightblue" stroke="midnightblue" points="406.91,-84.92 412.37,-75.83 402.44,-79.53 406.91,-84.92"/>
</g>
<!-- Node16&#45;&gt;Node8 -->
<g id="edge18" class="edge">
<title>Node16&#45;&gt;Node8</title>
<path fill="none" stroke="midnightblue" d="M452.31,-56.44C484.31,-47.11 535.61,-32.13 570.51,-21.94"/>
<polygon fill="midnightblue" stroke="midnightblue" points="571.72,-25.24 580.33,-19.08 569.75,-18.52 571.72,-25.24"/>
</g>
<!-- Node16&#45;&gt;Node11 -->
<g id="edge19" class="edge">
<title>Node16&#45;&gt;Node11</title>
<path fill="none" stroke="midnightblue" d="M406.45,-56.32C390.01,-47.7 364.57,-34.36 345.53,-24.39"/>
<polygon fill="midnightblue" stroke="midnightblue" points="346.99,-21.2 336.51,-19.65 343.74,-27.4 346.99,-21.2"/>
</g>
<!-- Node17 -->
<g id="node17" class="node">
<title>Node17</title>
<g id="a_node17"><a xlink:title=" ">
<polygon fill="white" stroke="#bfbfbf" points="463.5,-0.5 463.5,-19.5 522.5,-19.5 522.5,-0.5 463.5,-0.5"/>
<text text-anchor="middle" x="493" y="-7.5" font-family="Helvetica,sans-Serif" font-size="10.00">exception</text>
</a>
</g>
</g>
<!-- Node16&#45;&gt;Node17 -->
<g id="edge17" class="edge">
<title>Node16&#45;&gt;Node17</title>
<path fill="none" stroke="midnightblue" d="M434.25,-56.32C444.8,-48.18 460.8,-35.84 473.44,-26.09"/>
<polygon fill="midnightblue" stroke="midnightblue" points="475.77,-28.71 481.55,-19.83 471.49,-23.17 475.77,-28.71"/>
</g>
<!-- Node18 -->
<g id="node18" class="node">
<title>Node18</title>
<g id="a_node18"><a xlink:title=" ">
<polygon fill="white" stroke="#bfbfbf" points="373,-0.5 373,-19.5 445,-19.5 445,-0.5 373,-0.5"/>
<text text-anchor="middle" x="409" y="-7.5" font-family="Helvetica,sans-Serif" font-size="10.00">E57Export.h</text>
</a>
</g>
</g>
<!-- Node16&#45;&gt;Node18 -->
<g id="edge20" class="edge">
<title>Node16&#45;&gt;Node18</title>
<path fill="none" stroke="midnightblue" d="M420.69,-56.08C418.83,-48.93 416.16,-38.64 413.85,-29.69"/>
<polygon fill="midnightblue" stroke="midnightblue" points="417.17,-28.55 411.27,-19.75 410.39,-30.31 417.17,-28.55"/>
</g>
<!-- Node19&#45;&gt;Node6 -->
<g id="edge22" class="edge">
<title>Node19&#45;&gt;Node6</title>
<path fill="none" stroke="midnightblue" d="M562.78,-224.44C544.1,-215.68 514.84,-201.94 493.38,-191.86"/>
<polygon fill="midnightblue" stroke="midnightblue" points="494.68,-188.6 484.14,-187.52 491.7,-194.93 494.68,-188.6"/>
</g>
<!-- Node20&#45;&gt;Node5 -->
<g id="edge24" class="edge">
<title>Node20&#45;&gt;Node5</title>
<path fill="none" stroke="midnightblue" d="M660.56,-280.44C619.98,-270.92 554.42,-255.52 511.01,-245.33"/>
<polygon fill="midnightblue" stroke="midnightblue" points="511.56,-241.87 501.02,-242.99 509.96,-248.68 511.56,-241.87"/>
</g>
<!-- Node21&#45;&gt;Node6 -->
<g id="edge27" class="edge">
<title>Node21&#45;&gt;Node6</title>
<path fill="none" stroke="midnightblue" d="M268.24,-224.44C310.5,-214.73 379.3,-198.92 423.6,-188.74"/>
<polygon fill="midnightblue" stroke="midnightblue" points="424.52,-192.12 433.48,-186.47 422.95,-185.3 424.52,-192.12"/>
</g>
<!-- Node21&#45;&gt;Node15 -->
<g id="edge26" class="edge">
<title>Node21&#45;&gt;Node15</title>
<path fill="none" stroke="midnightblue" d="M231.32,-224.08C232.27,-197.95 235.04,-121.21 236.33,-85.58"/>
<polygon fill="midnightblue" stroke="midnightblue" points="239.83,-85.69 236.69,-75.57 232.83,-85.44 239.83,-85.69"/>
</g>
<!-- Node22&#45;&gt;Node5 -->
<g id="edge29" class="edge">
<title>Node22&#45;&gt;Node5</title>
<path fill="none" stroke="midnightblue" d="M297.85,-280.44C332.4,-271.16 387.68,-256.31 425.58,-246.13"/>
<polygon fill="midnightblue" stroke="midnightblue" points="426.55,-249.49 435.3,-243.52 424.73,-242.73 426.55,-249.49"/>
</g>
<!-- Node23&#45;&gt;Node6 -->
<g id="edge33" class="edge">
<title>Node23&#45;&gt;Node6</title>
<path fill="none" stroke="midnightblue" d="M685.15,-226.91C642.18,-217.52 559.42,-199.42 508.81,-188.36"/>
<polygon fill="midnightblue" stroke="midnightblue" points="509.35,-184.9 498.84,-186.18 507.86,-191.73 509.35,-184.9"/>
</g>
<!-- Node23&#45;&gt;Node12 -->
<g id="edge32" class="edge">
<title>Node23&#45;&gt;Node12</title>
<path fill="none" stroke="midnightblue" d="M709.34,-224.32C699.66,-202.35 671.25,-144.02 630,-112 603.2,-91.2 565.86,-79.36 539.37,-73.1"/>
<polygon fill="midnightblue" stroke="midnightblue" points="539.97,-69.65 529.44,-70.89 538.45,-76.48 539.97,-69.65"/>
</g>
<!-- Node24 -->
<g id="node24" class="node">
<title>Node24</title>
<g id="a_node24"><a xlink:title=" ">
<polygon fill="white" stroke="#bfbfbf" points="715.5,-168.5 715.5,-187.5 760.5,-187.5 760.5,-168.5 715.5,-168.5"/>
<text text-anchor="middle" x="738" y="-175.5" font-family="Helvetica,sans-Serif" font-size="10.00">cstdint</text>
</a>
</g>
</g>
<!-- Node23&#45;&gt;Node24 -->
<g id="edge31" class="edge">
<title>Node23&#45;&gt;Node24</title>
<path fill="none" stroke="midnightblue" d="M717.13,-224.08C720.51,-216.77 725.42,-206.18 729.62,-197.1"/>
<polygon fill="midnightblue" stroke="midnightblue" points="732.92,-198.3 733.95,-187.75 726.57,-195.36 732.92,-198.3"/>
</g>
<!-- Node25&#45;&gt;Node5 -->
<g id="edge35" class="edge">
<title>Node25&#45;&gt;Node5</title>
<path fill="none" stroke="midnightblue" d="M409.09,-280.32C419.49,-272.18 435.26,-259.84 447.72,-250.09"/>
<polygon fill="midnightblue" stroke="midnightblue" points="449.99,-252.75 455.71,-243.83 445.68,-247.24 449.99,-252.75"/>
</g>
<!-- Node26&#45;&gt;Node6 -->
<g id="edge37" class="edge">
<title>Node26&#45;&gt;Node6</title>
<path fill="none" stroke="midnightblue" d="M371.99,-224.32C390.04,-215.62 418.05,-202.12 438.8,-192.11"/>
<polygon fill="midnightblue" stroke="midnightblue" points="440.56,-195.15 448.05,-187.65 437.52,-188.84 440.56,-195.15"/>
</g>
</g>
</svg>
