<?xml version="1.0" encoding="UTF-8" standalone="no"?>
<!DOCTYPE svg PUBLIC "-//W3C//DTD SVG 1.1//EN"
 "http://www.w3.org/Graphics/SVG/1.1/DTD/svg11.dtd">
<!-- Generated by graphviz version 2.44.0 (20200408.0750)
 -->
<!-- Title: Encoder.cpp Pages: 1 -->
<!--zoomable 420 -->
<svg id="main" version="1.1" xmlns="http://www.w3.org/2000/svg" xmlns:xlink="http://www.w3.org/1999/xlink" xml:space="preserve" onload="init(evt)">
<style type="text/css"><![CDATA[
.edge:hover path { stroke: red; }
.edge:hover polygon { stroke: red; fill: red; }
]]></style>
<script type="text/javascript"><![CDATA[
var edges = document.getElementsByTagName('g');
if (edges && edges.length) {
  for (var i=0;i<edges.length;i++) {
    if (edges[i].id.substr(0,4)=='edge') {
      edges[i].setAttribute('class','edge');
    }
  }
}
]]></script>
        <defs>
                <circle id="rim" cx="0" cy="0" r="7"/>
                <circle id="rim2" cx="0" cy="0" r="3.5"/>
                <g id="zoomPlus">
                        <use xlink:href="#rim" fill="#404040">
                                <set attributeName="fill" to="#808080" begin="zoomplus.mouseover" end="zoomplus.mouseout"/>
                        </use>
                        <path d="M-4,0h8M0,-4v8" fill="none" stroke="white" stroke-width="1.5" pointer-events="none"/>
                </g>
                <g id="zoomMin">
                        <use xlink:href="#rim" fill="#404040">
                                <set attributeName="fill" to="#808080" begin="zoomminus.mouseover" end="zoomminus.mouseout"/>
                        </use>
                        <path d="M-4,0h8" fill="none" stroke="white" stroke-width="1.5" pointer-events="none"/>
                </g>
                <g id="dirArrow">
                        <path fill="none" stroke="white" stroke-width="1.5" d="M0,-3.0v7 M-2.5,-0.5L0,-3.0L2.5,-0.5"/>
                </g>
               <g id="resetDef">
                       <use xlink:href="#rim2" fill="#404040">
                               <set attributeName="fill" to="#808080" begin="reset.mouseover" end="reset.mouseout"/>
                       </use>
               </g>
        </defs>

<script type="text/javascript">
var viewWidth = 523;
var viewHeight = 420;
var sectionId = 'dynsection-0';
</script>
<script xlink:href="svgpan.js"/>
<svg id="graph" class="graph">
<g id="viewport">
<title>Encoder.cpp</title>
<polygon fill="white" stroke="transparent" points="-4,4 -4,-416 519,-416 519,4 -4,4"/>
<!-- Node1 -->
<g id="node1" class="node">
<title>Node1</title>
<g id="a_node1"><a xlink:title=" ">
<polygon fill="#bfbfbf" stroke="black" points="201.5,-392.5 201.5,-411.5 272.5,-411.5 272.5,-392.5 201.5,-392.5"/>
<text text-anchor="middle" x="237" y="-399.5" font-family="Helvetica,sans-Serif" font-size="10.00">Encoder.cpp</text>
</a>
</g>
</g>
<!-- Node2 -->
<g id="node2" class="node">
<title>Node2</title>
<g id="a_node2"><a xlink:title=" ">
<polygon fill="white" stroke="#bfbfbf" points="16,-336.5 16,-355.5 72,-355.5 72,-336.5 16,-336.5"/>
<text text-anchor="middle" x="44" y="-343.5" font-family="Helvetica,sans-Serif" font-size="10.00">algorithm</text>
</a>
</g>
</g>
<!-- Node1&#45;&gt;Node2 -->
<g id="edge1" class="edge">
<title>Node1&#45;&gt;Node2</title>
<path fill="none" stroke="midnightblue" d="M206.42,-392.44C172.71,-383.01 118.43,-367.83 82.01,-357.63"/>
<polygon fill="midnightblue" stroke="midnightblue" points="82.81,-354.23 72.24,-354.9 80.93,-360.97 82.81,-354.23"/>
</g>
<!-- Node3 -->
<g id="node3" class="node">
<title>Node3</title>
<g id="a_node3"><a xlink:title=" ">
<polygon fill="white" stroke="#bfbfbf" points="90,-336.5 90,-355.5 136,-355.5 136,-336.5 90,-336.5"/>
<text text-anchor="middle" x="113" y="-343.5" font-family="Helvetica,sans-Serif" font-size="10.00">cstring</text>
</a>
</g>
</g>
<!-- Node1&#45;&gt;Node3 -->
<g id="edge2" class="edge">
<title>Node1&#45;&gt;Node3</title>
<path fill="none" stroke="midnightblue" d="M217.35,-392.44C197.04,-383.6 165.1,-369.69 141.9,-359.59"/>
<polygon fill="midnightblue" stroke="midnightblue" points="143.12,-356.3 132.56,-355.52 140.33,-362.72 143.12,-356.3"/>
</g>
<!-- Node4 -->
<g id="node4" class="node">
<title>Node4</title>
<g id="a_node4"><a xlink:href="_e57_format_impl_8h.html" target="_top" xlink:title=" ">
<polygon fill="white" stroke="black" points="154,-336.5 154,-355.5 246,-355.5 246,-336.5 154,-336.5"/>
<text text-anchor="middle" x="200" y="-343.5" font-family="Helvetica,sans-Serif" font-size="10.00">E57FormatImpl.h</text>
</a>
</g>
</g>
<!-- Node1&#45;&gt;Node4 -->
<g id="edge3" class="edge">
<title>Node1&#45;&gt;Node4</title>
<path fill="none" stroke="midnightblue" d="M230.89,-392.08C225.72,-384.53 218.15,-373.49 211.81,-364.23"/>
<polygon fill="midnightblue" stroke="midnightblue" points="214.54,-362.02 206,-355.75 208.76,-365.98 214.54,-362.02"/>
</g>
<!-- Node22 -->
<g id="node22" class="node">
<title>Node22</title>
<g id="a_node22"><a xlink:href="_encoder_8h.html" target="_top" xlink:title=" ">
<polygon fill="white" stroke="black" points="244,-280.5 244,-299.5 304,-299.5 304,-280.5 244,-280.5"/>
<text text-anchor="middle" x="274" y="-287.5" font-family="Helvetica,sans-Serif" font-size="10.00">Encoder.h</text>
</a>
</g>
</g>
<!-- Node1&#45;&gt;Node22 -->
<g id="edge26" class="edge">
<title>Node1&#45;&gt;Node22</title>
<path fill="none" stroke="midnightblue" d="M240.7,-392.47C244.52,-383.48 250.55,-368.88 255,-356 260.34,-340.55 265.48,-322.7 269.07,-309.62"/>
<polygon fill="midnightblue" stroke="midnightblue" points="272.46,-310.48 271.69,-299.92 265.7,-308.66 272.46,-310.48"/>
</g>
<!-- Node23 -->
<g id="node23" class="node">
<title>Node23</title>
<g id="a_node23"><a xlink:href="_image_file_impl_8h.html" target="_top" xlink:title=" ">
<polygon fill="white" stroke="black" points="429,-224.5 429,-243.5 515,-243.5 515,-224.5 429,-224.5"/>
<text text-anchor="middle" x="472" y="-231.5" font-family="Helvetica,sans-Serif" font-size="10.00">ImageFileImpl.h</text>
</a>
</g>
</g>
<!-- Node1&#45;&gt;Node23 -->
<g id="edge28" class="edge">
<title>Node1&#45;&gt;Node23</title>
<path fill="none" stroke="midnightblue" d="M272.79,-393.87C320.78,-382.46 405.43,-355.46 453,-300 464.11,-287.04 468.73,-267.88 470.65,-253.71"/>
<polygon fill="midnightblue" stroke="midnightblue" points="474.14,-253.94 471.68,-243.64 467.18,-253.23 474.14,-253.94"/>
</g>
<!-- Node24 -->
<g id="node24" class="node">
<title>Node24</title>
<g id="a_node24"><a xlink:href="_source_dest_buffer_impl_8h.html" target="_top" xlink:title=" ">
<polygon fill="white" stroke="black" points="322,-280.5 322,-299.5 444,-299.5 444,-280.5 322,-280.5"/>
<text text-anchor="middle" x="383" y="-287.5" font-family="Helvetica,sans-Serif" font-size="10.00">SourceDestBufferImpl.h</text>
</a>
</g>
</g>
<!-- Node1&#45;&gt;Node24 -->
<g id="edge31" class="edge">
<title>Node1&#45;&gt;Node24</title>
<path fill="none" stroke="midnightblue" d="M248.46,-392.37C273.3,-373.65 332.36,-329.15 363.31,-305.83"/>
<polygon fill="midnightblue" stroke="midnightblue" points="365.72,-308.4 371.6,-299.59 361.5,-302.81 365.72,-308.4"/>
</g>
<!-- Node5 -->
<g id="node5" class="node">
<title>Node5</title>
<g id="a_node5"><a xlink:href="_packet_8h.html" target="_top" xlink:title=" ">
<polygon fill="white" stroke="black" points="51,-224.5 51,-243.5 107,-243.5 107,-224.5 51,-224.5"/>
<text text-anchor="middle" x="79" y="-231.5" font-family="Helvetica,sans-Serif" font-size="10.00">Packet.h</text>
</a>
</g>
</g>
<!-- Node4&#45;&gt;Node5 -->
<g id="edge4" class="edge">
<title>Node4&#45;&gt;Node5</title>
<path fill="none" stroke="midnightblue" d="M171.06,-336.39C151.45,-329.31 126.09,-317.55 109,-300 96.29,-286.94 88.3,-267.52 83.79,-253.31"/>
<polygon fill="midnightblue" stroke="midnightblue" points="87.14,-252.28 81,-243.64 80.41,-254.22 87.14,-252.28"/>
</g>
<!-- Node20 -->
<g id="node20" class="node">
<title>Node20</title>
<g id="a_node20"><a xlink:href="_structure_node_impl_8h.html" target="_top" xlink:title=" ">
<polygon fill="white" stroke="black" points="118.5,-280.5 118.5,-299.5 225.5,-299.5 225.5,-280.5 118.5,-280.5"/>
<text text-anchor="middle" x="172" y="-287.5" font-family="Helvetica,sans-Serif" font-size="10.00">StructureNodeImpl.h</text>
</a>
</g>
</g>
<!-- Node4&#45;&gt;Node20 -->
<g id="edge23" class="edge">
<title>Node4&#45;&gt;Node20</title>
<path fill="none" stroke="midnightblue" d="M195.38,-336.08C191.54,-328.69 185.98,-317.95 181.24,-308.81"/>
<polygon fill="midnightblue" stroke="midnightblue" points="184.25,-307.02 176.54,-299.75 178.03,-310.24 184.25,-307.02"/>
</g>
<!-- Node6 -->
<g id="node6" class="node">
<title>Node6</title>
<g id="a_node6"><a xlink:title=" ">
<polygon fill="white" stroke="#bfbfbf" points="0,-168.5 0,-187.5 46,-187.5 46,-168.5 0,-168.5"/>
<text text-anchor="middle" x="23" y="-175.5" font-family="Helvetica,sans-Serif" font-size="10.00">cstdint</text>
</a>
</g>
</g>
<!-- Node5&#45;&gt;Node6 -->
<g id="edge5" class="edge">
<title>Node5&#45;&gt;Node6</title>
<path fill="none" stroke="midnightblue" d="M70,-224.32C61.81,-216.42 49.49,-204.55 39.53,-194.94"/>
<polygon fill="midnightblue" stroke="midnightblue" points="41.79,-192.26 32.16,-187.83 36.93,-197.29 41.79,-192.26"/>
</g>
<!-- Node7 -->
<g id="node7" class="node">
<title>Node7</title>
<g id="a_node7"><a xlink:title=" ">
<polygon fill="white" stroke="#bfbfbf" points="90,-56.5 90,-75.5 134,-75.5 134,-56.5 90,-56.5"/>
<text text-anchor="middle" x="112" y="-63.5" font-family="Helvetica,sans-Serif" font-size="10.00">vector</text>
</a>
</g>
</g>
<!-- Node5&#45;&gt;Node7 -->
<g id="edge6" class="edge">
<title>Node5&#45;&gt;Node7</title>
<path fill="none" stroke="midnightblue" d="M80.77,-224.08C85.97,-197.95 101.22,-121.21 108.31,-85.58"/>
<polygon fill="midnightblue" stroke="midnightblue" points="111.78,-86.06 110.3,-75.57 104.91,-84.69 111.78,-86.06"/>
</g>
<!-- Node8 -->
<g id="node8" class="node">
<title>Node8</title>
<g id="a_node8"><a xlink:href="_common_8h.html" target="_top" xlink:title=" ">
<polygon fill="white" stroke="black" points="244.5,-168.5 244.5,-187.5 309.5,-187.5 309.5,-168.5 244.5,-168.5"/>
<text text-anchor="middle" x="277" y="-175.5" font-family="Helvetica,sans-Serif" font-size="10.00">Common.h</text>
</a>
</g>
</g>
<!-- Node5&#45;&gt;Node8 -->
<g id="edge7" class="edge">
<title>Node5&#45;&gt;Node8</title>
<path fill="none" stroke="midnightblue" d="M107.37,-225.26C141.04,-216.08 197.45,-200.7 235.9,-190.21"/>
<polygon fill="midnightblue" stroke="midnightblue" points="237.02,-193.53 245.74,-187.52 235.18,-186.78 237.02,-193.53"/>
</g>
<!-- Node8&#45;&gt;Node7 -->
<g id="edge13" class="edge">
<title>Node8&#45;&gt;Node7</title>
<path fill="none" stroke="midnightblue" d="M244.3,-175.6C211.3,-172.43 161.07,-162.51 131,-132 119.02,-119.84 114.52,-100.57 112.86,-86.16"/>
<polygon fill="midnightblue" stroke="midnightblue" points="116.33,-85.57 112.06,-75.88 109.35,-86.12 116.33,-85.57"/>
</g>
<!-- Node9 -->
<g id="node9" class="node">
<title>Node9</title>
<g id="a_node9"><a xlink:title=" ">
<polygon fill="white" stroke="#bfbfbf" points="388,-112.5 388,-131.5 438,-131.5 438,-112.5 388,-112.5"/>
<text text-anchor="middle" x="413" y="-119.5" font-family="Helvetica,sans-Serif" font-size="10.00">iomanip</text>
</a>
</g>
</g>
<!-- Node8&#45;&gt;Node9 -->
<g id="edge8" class="edge">
<title>Node8&#45;&gt;Node9</title>
<path fill="none" stroke="midnightblue" d="M298.55,-168.44C321.03,-159.52 356.49,-145.44 381.98,-135.32"/>
<polygon fill="midnightblue" stroke="midnightblue" points="383.55,-138.46 391.55,-131.52 380.97,-131.95 383.55,-138.46"/>
</g>
<!-- Node10 -->
<g id="node10" class="node">
<title>Node10</title>
<g id="a_node10"><a xlink:title=" ">
<polygon fill="white" stroke="#bfbfbf" points="321,-0.5 321,-19.5 375,-19.5 375,-0.5 321,-0.5"/>
<text text-anchor="middle" x="348" y="-7.5" font-family="Helvetica,sans-Serif" font-size="10.00">iostream</text>
</a>
</g>
</g>
<!-- Node8&#45;&gt;Node10 -->
<g id="edge9" class="edge">
<title>Node8&#45;&gt;Node10</title>
<path fill="none" stroke="midnightblue" d="M297.88,-168.36C312.69,-161.02 331.55,-148.97 341,-132 359.01,-99.63 355.56,-54.56 351.65,-29.57"/>
<polygon fill="midnightblue" stroke="midnightblue" points="355.08,-28.85 349.9,-19.61 348.18,-30.07 355.08,-28.85"/>
</g>
<!-- Node11 -->
<g id="node11" class="node">
<title>Node11</title>
<g id="a_node11"><a xlink:title=" ">
<polygon fill="white" stroke="#bfbfbf" points="140,-112.5 140,-131.5 170,-131.5 170,-112.5 140,-112.5"/>
<text text-anchor="middle" x="155" y="-119.5" font-family="Helvetica,sans-Serif" font-size="10.00">set</text>
</a>
</g>
</g>
<!-- Node8&#45;&gt;Node11 -->
<g id="edge10" class="edge">
<title>Node8&#45;&gt;Node11</title>
<path fill="none" stroke="midnightblue" d="M257.67,-168.44C236.48,-159.07 202.45,-144 179.43,-133.81"/>
<polygon fill="midnightblue" stroke="midnightblue" points="180.57,-130.49 170.01,-129.64 177.74,-136.89 180.57,-130.49"/>
</g>
<!-- Node12 -->
<g id="node12" class="node">
<title>Node12</title>
<g id="a_node12"><a xlink:title=" ">
<polygon fill="white" stroke="#bfbfbf" points="188,-112.5 188,-131.5 240,-131.5 240,-112.5 188,-112.5"/>
<text text-anchor="middle" x="214" y="-119.5" font-family="Helvetica,sans-Serif" font-size="10.00">sstream</text>
</a>
</g>
</g>
<!-- Node8&#45;&gt;Node12 -->
<g id="edge11" class="edge">
<title>Node8&#45;&gt;Node12</title>
<path fill="none" stroke="midnightblue" d="M266.88,-168.32C257.47,-160.26 243.26,-148.08 231.93,-138.37"/>
<polygon fill="midnightblue" stroke="midnightblue" points="234.18,-135.68 224.31,-131.83 229.62,-141 234.18,-135.68"/>
</g>
<!-- Node13 -->
<g id="node13" class="node">
<title>Node13</title>
<g id="a_node13"><a xlink:title=" ">
<polygon fill="white" stroke="#bfbfbf" points="414.5,-0.5 414.5,-19.5 455.5,-19.5 455.5,-0.5 414.5,-0.5"/>
<text text-anchor="middle" x="435" y="-7.5" font-family="Helvetica,sans-Serif" font-size="10.00">string</text>
</a>
</g>
</g>
<!-- Node8&#45;&gt;Node13 -->
<g id="edge12" class="edge">
<title>Node8&#45;&gt;Node13</title>
<path fill="none" stroke="midnightblue" d="M309.63,-172.98C354.05,-166.77 430,-153.29 447,-132 470.62,-102.42 455.27,-54.92 443.95,-29.11"/>
<polygon fill="midnightblue" stroke="midnightblue" points="447,-27.38 439.61,-19.78 440.65,-30.33 447,-27.38"/>
</g>
<!-- Node14 -->
<g id="node14" class="node">
<title>Node14</title>
<g id="a_node14"><a xlink:href="_e57_format_8h.html" target="_top" xlink:title=" ">
<polygon fill="white" stroke="black" points="258.5,-112.5 258.5,-131.5 331.5,-131.5 331.5,-112.5 258.5,-112.5"/>
<text text-anchor="middle" x="295" y="-119.5" font-family="Helvetica,sans-Serif" font-size="10.00">E57Format.h</text>
</a>
</g>
</g>
<!-- Node8&#45;&gt;Node14 -->
<g id="edge14" class="edge">
<title>Node8&#45;&gt;Node14</title>
<path fill="none" stroke="midnightblue" d="M279.97,-168.08C282.38,-160.85 285.86,-150.41 288.87,-141.4"/>
<polygon fill="midnightblue" stroke="midnightblue" points="292.24,-142.34 292.08,-131.75 285.6,-140.13 292.24,-142.34"/>
</g>
<!-- Node14&#45;&gt;Node7 -->
<g id="edge17" class="edge">
<title>Node14&#45;&gt;Node7</title>
<path fill="none" stroke="midnightblue" d="M266,-112.44C232.85,-102.66 178.72,-86.69 144.26,-76.52"/>
<polygon fill="midnightblue" stroke="midnightblue" points="144.82,-73.04 134.24,-73.56 142.84,-79.75 144.82,-73.04"/>
</g>
<!-- Node15 -->
<g id="node15" class="node">
<title>Node15</title>
<g id="a_node15"><a xlink:title=" ">
<polygon fill="white" stroke="#bfbfbf" points="290.5,-56.5 290.5,-75.5 331.5,-75.5 331.5,-56.5 290.5,-56.5"/>
<text text-anchor="middle" x="311" y="-63.5" font-family="Helvetica,sans-Serif" font-size="10.00">cfloat</text>
</a>
</g>
</g>
<!-- Node14&#45;&gt;Node15 -->
<g id="edge15" class="edge">
<title>Node14&#45;&gt;Node15</title>
<path fill="none" stroke="midnightblue" d="M297.64,-112.08C299.79,-104.85 302.88,-94.41 305.55,-85.4"/>
<polygon fill="midnightblue" stroke="midnightblue" points="308.92,-86.33 308.41,-75.75 302.21,-84.34 308.92,-86.33"/>
</g>
<!-- Node16 -->
<g id="node16" class="node">
<title>Node16</title>
<g id="a_node16"><a xlink:title=" ">
<polygon fill="white" stroke="#bfbfbf" points="388,-56.5 388,-75.5 440,-75.5 440,-56.5 388,-56.5"/>
<text text-anchor="middle" x="414" y="-63.5" font-family="Helvetica,sans-Serif" font-size="10.00">memory</text>
</a>
</g>
</g>
<!-- Node14&#45;&gt;Node16 -->
<g id="edge16" class="edge">
<title>Node14&#45;&gt;Node16</title>
<path fill="none" stroke="midnightblue" d="M313.86,-112.44C333.27,-103.64 363.73,-89.81 385.96,-79.72"/>
<polygon fill="midnightblue" stroke="midnightblue" points="387.57,-82.84 395.23,-75.52 384.68,-76.46 387.57,-82.84"/>
</g>
<!-- Node17 -->
<g id="node17" class="node">
<title>Node17</title>
<g id="a_node17"><a xlink:href="_e57_exception_8h.html" target="_top" xlink:title=" ">
<polygon fill="white" stroke="black" points="186,-56.5 186,-75.5 272,-75.5 272,-56.5 186,-56.5"/>
<text text-anchor="middle" x="229" y="-63.5" font-family="Helvetica,sans-Serif" font-size="10.00">E57Exception.h</text>
</a>
</g>
</g>
<!-- Node14&#45;&gt;Node17 -->
<g id="edge18" class="edge">
<title>Node14&#45;&gt;Node17</title>
<path fill="none" stroke="midnightblue" d="M284.4,-112.32C274.54,-104.26 259.65,-92.08 247.78,-82.37"/>
<polygon fill="midnightblue" stroke="midnightblue" points="249.75,-79.46 239.8,-75.83 245.32,-84.88 249.75,-79.46"/>
</g>
<!-- Node17&#45;&gt;Node10 -->
<g id="edge20" class="edge">
<title>Node17&#45;&gt;Node10</title>
<path fill="none" stroke="midnightblue" d="M247.86,-56.44C267.27,-47.64 297.73,-33.81 319.96,-23.72"/>
<polygon fill="midnightblue" stroke="midnightblue" points="321.57,-26.84 329.23,-19.52 318.68,-20.46 321.57,-26.84"/>
</g>
<!-- Node17&#45;&gt;Node13 -->
<g id="edge21" class="edge">
<title>Node17&#45;&gt;Node13</title>
<path fill="none" stroke="midnightblue" d="M261.64,-56.44C300.84,-46.17 366.08,-29.07 404.37,-19.03"/>
<polygon fill="midnightblue" stroke="midnightblue" points="405.62,-22.32 414.4,-16.4 403.84,-15.55 405.62,-22.32"/>
</g>
<!-- Node18 -->
<g id="node18" class="node">
<title>Node18</title>
<g id="a_node18"><a xlink:title=" ">
<polygon fill="white" stroke="#bfbfbf" points="129.5,-0.5 129.5,-19.5 188.5,-19.5 188.5,-0.5 129.5,-0.5"/>
<text text-anchor="middle" x="159" y="-7.5" font-family="Helvetica,sans-Serif" font-size="10.00">exception</text>
</a>
</g>
</g>
<!-- Node17&#45;&gt;Node18 -->
<g id="edge19" class="edge">
<title>Node17&#45;&gt;Node18</title>
<path fill="none" stroke="midnightblue" d="M217.75,-56.32C207.2,-48.18 191.2,-35.84 178.56,-26.09"/>
<polygon fill="midnightblue" stroke="midnightblue" points="180.51,-23.17 170.45,-19.83 176.23,-28.71 180.51,-23.17"/>
</g>
<!-- Node19 -->
<g id="node19" class="node">
<title>Node19</title>
<g id="a_node19"><a xlink:title=" ">
<polygon fill="white" stroke="#bfbfbf" points="206.5,-0.5 206.5,-19.5 277.5,-19.5 277.5,-0.5 206.5,-0.5"/>
<text text-anchor="middle" x="242" y="-7.5" font-family="Helvetica,sans-Serif" font-size="10.00">E57Export.h</text>
</a>
</g>
</g>
<!-- Node17&#45;&gt;Node19 -->
<g id="edge22" class="edge">
<title>Node17&#45;&gt;Node19</title>
<path fill="none" stroke="midnightblue" d="M231.15,-56.08C232.87,-48.93 235.35,-38.64 237.5,-29.69"/>
<polygon fill="midnightblue" stroke="midnightblue" points="240.96,-30.29 239.89,-19.75 234.15,-28.65 240.96,-30.29"/>
</g>
<!-- Node21 -->
<g id="node21" class="node">
<title>Node21</title>
<g id="a_node21"><a xlink:href="_node_impl_8h.html" target="_top" xlink:title=" ">
<polygon fill="white" stroke="black" points="158.5,-224.5 158.5,-243.5 225.5,-243.5 225.5,-224.5 158.5,-224.5"/>
<text text-anchor="middle" x="192" y="-231.5" font-family="Helvetica,sans-Serif" font-size="10.00">NodeImpl.h</text>
</a>
</g>
</g>
<!-- Node20&#45;&gt;Node21 -->
<g id="edge24" class="edge">
<title>Node20&#45;&gt;Node21</title>
<path fill="none" stroke="midnightblue" d="M175.3,-280.08C177.98,-272.85 181.85,-262.41 185.19,-253.4"/>
<polygon fill="midnightblue" stroke="midnightblue" points="188.57,-254.34 188.76,-243.75 182,-251.91 188.57,-254.34"/>
</g>
<!-- Node21&#45;&gt;Node8 -->
<g id="edge25" class="edge">
<title>Node21&#45;&gt;Node8</title>
<path fill="none" stroke="midnightblue" d="M205.66,-224.32C218.92,-215.9 239.27,-202.97 254.85,-193.07"/>
<polygon fill="midnightblue" stroke="midnightblue" points="256.81,-195.97 263.38,-187.65 253.06,-190.06 256.81,-195.97"/>
</g>
<!-- Node22&#45;&gt;Node8 -->
<g id="edge27" class="edge">
<title>Node22&#45;&gt;Node8</title>
<path fill="none" stroke="midnightblue" d="M274.24,-280.37C274.72,-262.62 275.84,-221.67 276.49,-197.6"/>
<polygon fill="midnightblue" stroke="midnightblue" points="279.99,-197.68 276.77,-187.59 272.99,-197.49 279.99,-197.68"/>
</g>
<!-- Node23&#45;&gt;Node8 -->
<g id="edge30" class="edge">
<title>Node23&#45;&gt;Node8</title>
<path fill="none" stroke="midnightblue" d="M441.1,-224.44C407.73,-215.2 354.41,-200.44 317.65,-190.26"/>
<polygon fill="midnightblue" stroke="midnightblue" points="318.33,-186.81 307.75,-187.52 316.46,-193.56 318.33,-186.81"/>
</g>
<!-- Node23&#45;&gt;Node16 -->
<g id="edge29" class="edge">
<title>Node23&#45;&gt;Node16</title>
<path fill="none" stroke="midnightblue" d="M471.48,-224.41C469.99,-204.04 464.6,-151.6 447,-112 442.43,-101.73 435.23,-91.52 428.71,-83.43"/>
<polygon fill="midnightblue" stroke="midnightblue" points="431.2,-80.96 422.07,-75.59 425.86,-85.48 431.2,-80.96"/>
</g>
<!-- Node24&#45;&gt;Node8 -->
<g id="edge32" class="edge">
<title>Node24&#45;&gt;Node8</title>
<path fill="none" stroke="midnightblue" d="M374.68,-280.37C356.96,-261.97 315.23,-218.67 292.47,-195.05"/>
<polygon fill="midnightblue" stroke="midnightblue" points="294.74,-192.36 285.28,-187.59 289.7,-197.22 294.74,-192.36"/>
</g>
</g>
</svg>
        <g id="navigator" transform="translate(0 0)" fill="#404254">
                <rect fill="#f2f5e9" fill-opacity="0.5" stroke="#606060" stroke-width=".5" x="0" y="0" width="60" height="60"/>
                <use id="zoomplus" xlink:href="#zoomPlus" x="17" y="9" onmousedown="handleZoom(evt,'in')"/>
                <use id="zoomminus" xlink:href="#zoomMin" x="42" y="9" onmousedown="handleZoom(evt,'out')"/>
                <use id="reset" xlink:href="#resetDef" x="30" y="36" onmousedown="handleReset()"/>
                <g id="arrowUp" xlink:href="#dirArrow" transform="translate(30 24)" onmousedown="handlePan(0,-1)">
                  <use xlink:href="#rim" fill="#404040">
                        <set attributeName="fill" to="#808080" begin="arrowUp.mouseover" end="arrowUp.mouseout"/>
                  </use>
                  <path fill="none" stroke="white" stroke-width="1.5" d="M0,-3.0v7 M-2.5,-0.5L0,-3.0L2.5,-0.5"/>
                </g>
                <g id="arrowRight" xlink:href="#dirArrow" transform="rotate(90) translate(36 -43)" onmousedown="handlePan(1,0)">
                  <use xlink:href="#rim" fill="#404040">
                        <set attributeName="fill" to="#808080" begin="arrowRight.mouseover" end="arrowRight.mouseout"/>
                  </use>
                  <path fill="none" stroke="white" stroke-width="1.5" d="M0,-3.0v7 M-2.5,-0.5L0,-3.0L2.5,-0.5"/>
                </g>
                <g id="arrowDown" xlink:href="#dirArrow" transform="rotate(180) translate(-30 -48)" onmousedown="handlePan(0,1)">
                  <use xlink:href="#rim" fill="#404040">
                        <set attributeName="fill" to="#808080" begin="arrowDown.mouseover" end="arrowDown.mouseout"/>
                  </use>
                  <path fill="none" stroke="white" stroke-width="1.5" d="M0,-3.0v7 M-2.5,-0.5L0,-3.0L2.5,-0.5"/>
                </g>
                <g id="arrowLeft" xlink:href="#dirArrow" transform="rotate(270) translate(-36 17)" onmousedown="handlePan(-1,0)">
                  <use xlink:href="#rim" fill="#404040">
                        <set attributeName="fill" to="#808080" begin="arrowLeft.mouseover" end="arrowLeft.mouseout"/>
                  </use>
                  <path fill="none" stroke="white" stroke-width="1.5" d="M0,-3.0v7 M-2.5,-0.5L0,-3.0L2.5,-0.5"/>
                </g>
        </g>
        <svg viewBox="0 0 15 15" width="100%" height="30px" preserveAspectRatio="xMaxYMin meet">
         <g id="arrow_out" transform="scale(0.3 0.3)">
          <a xlink:href="_encoder_8cpp__incl_org.svg" target="_base">
           <rect id="button" ry="5" rx="5" y="6" x="6" height="38" width="38"
                fill="#f2f5e9" fill-opacity="0.5" stroke="#606060" stroke-width="1.0"/>
           <path id="arrow"
             d="M 11.500037,31.436501 C 11.940474,20.09759 22.043105,11.32322 32.158766,21.979434 L 37.068811,17.246167 C 37.068811,17.246167 37.088388,32 37.088388,32 L 22.160133,31.978069 C 22.160133,31.978069 26.997745,27.140456 26.997745,27.140456 C 18.528582,18.264221 13.291696,25.230495 11.500037,31.436501 z"
             style="fill:#404040;"/>
          </a>
         </g>
        </svg>
</svg>
