<?xml version="1.0" encoding="UTF-8" standalone="no"?>
<!DOCTYPE svg PUBLIC "-//W3C//DTD SVG 1.1//EN"
 "http://www.w3.org/Graphics/SVG/1.1/DTD/svg11.dtd">
<!-- Generated by graphviz version 2.48.0 (20210717.1556)
 -->
<!-- Title: ImageFileImpl.h Pages: 1 -->
<svg width="460pt" height="252pt"
 viewBox="0.00 0.00 459.57 252.00" xmlns="http://www.w3.org/2000/svg" xmlns:xlink="http://www.w3.org/1999/xlink">
<g id="graph0" class="graph" transform="scale(1 1) rotate(0) translate(4 248)">
<title>ImageFileImpl.h</title>
<polygon fill="white" stroke="transparent" points="-4,4 -4,-248 455.57,-248 455.57,4 -4,4"/>
<!-- Node1 -->
<g id="node1" class="node">
<title>Node1</title>
<g id="a_node1"><a xlink:title=" ">
<polygon fill="#bfbfbf" stroke="black" points="103.5,-224.5 103.5,-243.5 191.5,-243.5 191.5,-224.5 103.5,-224.5"/>
<text text-anchor="middle" x="147.5" y="-231.5" font-family="Helvetica,sans-Serif" font-size="10.00">ImageFileImpl.h</text>
</a>
</g>
</g>
<!-- Node2 -->
<g id="node2" class="node">
<title>Node2</title>
<g id="a_node2"><a xlink:title=" ">
<polygon fill="white" stroke="#bfbfbf" points="0,-56.5 0,-75.5 53,-75.5 53,-56.5 0,-56.5"/>
<text text-anchor="middle" x="26.5" y="-63.5" font-family="Helvetica,sans-Serif" font-size="10.00">memory</text>
</a>
</g>
</g>
<!-- Node1&#45;&gt;Node2 -->
<g id="edge1" class="edge">
<title>Node1&#45;&gt;Node2</title>
<path fill="none" stroke="midnightblue" d="M140.99,-224.08C121.62,-197.49 64.07,-118.54 38.72,-83.76"/>
<polygon fill="midnightblue" stroke="midnightblue" points="41.46,-81.59 32.75,-75.57 35.81,-85.71 41.46,-81.59"/>
</g>
<!-- Node3 -->
<g id="node3" class="node">
<title>Node3</title>
<g id="a_node3"><a xlink:href="_common_8h.html" target="_top" xlink:title=" ">
<polygon fill="white" stroke="black" points="255,-168.5 255,-187.5 320,-187.5 320,-168.5 255,-168.5"/>
<text text-anchor="middle" x="287.5" y="-175.5" font-family="Helvetica,sans-Serif" font-size="10.00">Common.h</text>
</a>
</g>
</g>
<!-- Node1&#45;&gt;Node3 -->
<g id="edge2" class="edge">
<title>Node1&#45;&gt;Node3</title>
<path fill="none" stroke="midnightblue" d="M169.68,-224.44C192.93,-215.48 229.65,-201.31 255.92,-191.18"/>
<polygon fill="midnightblue" stroke="midnightblue" points="257.35,-194.38 265.42,-187.52 254.83,-187.85 257.35,-194.38"/>
</g>
<!-- Node4 -->
<g id="node4" class="node">
<title>Node4</title>
<g id="a_node4"><a xlink:title=" ">
<polygon fill="white" stroke="#bfbfbf" points="188.5,-112.5 188.5,-131.5 240.5,-131.5 240.5,-112.5 188.5,-112.5"/>
<text text-anchor="middle" x="214.5" y="-119.5" font-family="Helvetica,sans-Serif" font-size="10.00">iomanip</text>
</a>
</g>
</g>
<!-- Node3&#45;&gt;Node4 -->
<g id="edge3" class="edge">
<title>Node3&#45;&gt;Node4</title>
<path fill="none" stroke="midnightblue" d="M275.77,-168.32C264.66,-160.11 247.76,-147.6 234.52,-137.81"/>
<polygon fill="midnightblue" stroke="midnightblue" points="236.56,-134.97 226.44,-131.83 232.4,-140.59 236.56,-134.97"/>
</g>
<!-- Node5 -->
<g id="node5" class="node">
<title>Node5</title>
<g id="a_node5"><a xlink:title=" ">
<polygon fill="white" stroke="#bfbfbf" points="220,-0.5 220,-19.5 275,-19.5 275,-0.5 220,-0.5"/>
<text text-anchor="middle" x="247.5" y="-7.5" font-family="Helvetica,sans-Serif" font-size="10.00">iostream</text>
</a>
</g>
</g>
<!-- Node3&#45;&gt;Node5 -->
<g id="edge4" class="edge">
<title>Node3&#45;&gt;Node5</title>
<path fill="none" stroke="midnightblue" d="M289.51,-168.41C293.86,-148.07 302.58,-95.66 287.5,-56 283.16,-44.6 274.47,-34.24 266.29,-26.34"/>
<polygon fill="midnightblue" stroke="midnightblue" points="268.54,-23.66 258.77,-19.57 263.86,-28.86 268.54,-23.66"/>
</g>
<!-- Node6 -->
<g id="node6" class="node">
<title>Node6</title>
<g id="a_node6"><a xlink:title=" ">
<polygon fill="white" stroke="#bfbfbf" points="334.5,-112.5 334.5,-131.5 364.5,-131.5 364.5,-112.5 334.5,-112.5"/>
<text text-anchor="middle" x="349.5" y="-119.5" font-family="Helvetica,sans-Serif" font-size="10.00">set</text>
</a>
</g>
</g>
<!-- Node3&#45;&gt;Node6 -->
<g id="edge5" class="edge">
<title>Node3&#45;&gt;Node6</title>
<path fill="none" stroke="midnightblue" d="M297.46,-168.32C306.63,-160.34 320.44,-148.31 331.53,-138.65"/>
<polygon fill="midnightblue" stroke="midnightblue" points="334.12,-141.04 339.36,-131.83 329.52,-135.76 334.12,-141.04"/>
</g>
<!-- Node7 -->
<g id="node7" class="node">
<title>Node7</title>
<g id="a_node7"><a xlink:title=" ">
<polygon fill="white" stroke="#bfbfbf" points="382.5,-112.5 382.5,-131.5 434.5,-131.5 434.5,-112.5 382.5,-112.5"/>
<text text-anchor="middle" x="408.5" y="-119.5" font-family="Helvetica,sans-Serif" font-size="10.00">sstream</text>
</a>
</g>
</g>
<!-- Node3&#45;&gt;Node7 -->
<g id="edge6" class="edge">
<title>Node3&#45;&gt;Node7</title>
<path fill="none" stroke="midnightblue" d="M306.67,-168.44C326.41,-159.64 357.39,-145.81 379.99,-135.72"/>
<polygon fill="midnightblue" stroke="midnightblue" points="381.71,-138.79 389.42,-131.52 378.86,-132.4 381.71,-138.79"/>
</g>
<!-- Node8 -->
<g id="node8" class="node">
<title>Node8</title>
<g id="a_node8"><a xlink:title=" ">
<polygon fill="white" stroke="#bfbfbf" points="346,-0.5 346,-19.5 387,-19.5 387,-0.5 346,-0.5"/>
<text text-anchor="middle" x="366.5" y="-7.5" font-family="Helvetica,sans-Serif" font-size="10.00">string</text>
</a>
</g>
</g>
<!-- Node3&#45;&gt;Node8 -->
<g id="edge7" class="edge">
<title>Node3&#45;&gt;Node8</title>
<path fill="none" stroke="midnightblue" d="M320.02,-172.26C361.22,-165.5 428.67,-151.71 443.5,-132 471.14,-95.26 418.85,-48.57 387.56,-25.4"/>
<polygon fill="midnightblue" stroke="midnightblue" points="389.53,-22.51 379.37,-19.52 385.45,-28.19 389.53,-22.51"/>
</g>
<!-- Node9 -->
<g id="node9" class="node">
<title>Node9</title>
<g id="a_node9"><a xlink:title=" ">
<polygon fill="white" stroke="#bfbfbf" points="234.5,-56.5 234.5,-75.5 278.5,-75.5 278.5,-56.5 234.5,-56.5"/>
<text text-anchor="middle" x="256.5" y="-63.5" font-family="Helvetica,sans-Serif" font-size="10.00">vector</text>
</a>
</g>
</g>
<!-- Node3&#45;&gt;Node9 -->
<g id="edge8" class="edge">
<title>Node3&#45;&gt;Node9</title>
<path fill="none" stroke="midnightblue" d="M285.07,-168.37C280.04,-150.54 268.42,-109.3 261.65,-85.27"/>
<polygon fill="midnightblue" stroke="midnightblue" points="265,-84.27 258.92,-75.59 258.27,-86.17 265,-84.27"/>
</g>
<!-- Node10 -->
<g id="node10" class="node">
<title>Node10</title>
<g id="a_node10"><a xlink:href="_e57_format_8h.html" target="_top" xlink:title="header file for the E57 API">
<polygon fill="white" stroke="black" points="96.5,-112.5 96.5,-131.5 170.5,-131.5 170.5,-112.5 96.5,-112.5"/>
<text text-anchor="middle" x="133.5" y="-119.5" font-family="Helvetica,sans-Serif" font-size="10.00">E57Format.h</text>
</a>
</g>
</g>
<!-- Node3&#45;&gt;Node10 -->
<g id="edge9" class="edge">
<title>Node3&#45;&gt;Node10</title>
<path fill="none" stroke="midnightblue" d="M263.1,-168.44C237.3,-159.4 196.42,-145.06 167.48,-134.92"/>
<polygon fill="midnightblue" stroke="midnightblue" points="168.38,-131.52 157.79,-131.52 166.07,-138.13 168.38,-131.52"/>
</g>
<!-- Node10&#45;&gt;Node2 -->
<g id="edge11" class="edge">
<title>Node10&#45;&gt;Node2</title>
<path fill="none" stroke="midnightblue" d="M116.31,-112.32C99.15,-103.66 72.55,-90.24 52.75,-80.25"/>
<polygon fill="midnightblue" stroke="midnightblue" points="54.15,-77.04 43.65,-75.65 51,-83.28 54.15,-77.04"/>
</g>
<!-- Node10&#45;&gt;Node9 -->
<g id="edge12" class="edge">
<title>Node10&#45;&gt;Node9</title>
<path fill="none" stroke="midnightblue" d="M152.99,-112.44C173.14,-103.6 204.82,-89.69 227.83,-79.59"/>
<polygon fill="midnightblue" stroke="midnightblue" points="229.35,-82.74 237.1,-75.52 226.54,-76.33 229.35,-82.74"/>
</g>
<!-- Node11 -->
<g id="node11" class="node">
<title>Node11</title>
<g id="a_node11"><a xlink:title=" ">
<polygon fill="white" stroke="#bfbfbf" points="176.5,-56.5 176.5,-75.5 216.5,-75.5 216.5,-56.5 176.5,-56.5"/>
<text text-anchor="middle" x="196.5" y="-63.5" font-family="Helvetica,sans-Serif" font-size="10.00">cfloat</text>
</a>
</g>
</g>
<!-- Node10&#45;&gt;Node11 -->
<g id="edge10" class="edge">
<title>Node10&#45;&gt;Node11</title>
<path fill="none" stroke="midnightblue" d="M143.62,-112.32C153.03,-104.26 167.24,-92.08 178.57,-82.37"/>
<polygon fill="midnightblue" stroke="midnightblue" points="180.88,-85 186.19,-75.83 176.32,-79.68 180.88,-85"/>
</g>
<!-- Node12 -->
<g id="node12" class="node">
<title>Node12</title>
<g id="a_node12"><a xlink:href="_e57_exception_8h.html" target="_top" xlink:title=" ">
<polygon fill="white" stroke="black" points="71,-56.5 71,-75.5 158,-75.5 158,-56.5 71,-56.5"/>
<text text-anchor="middle" x="114.5" y="-63.5" font-family="Helvetica,sans-Serif" font-size="10.00">E57Exception.h</text>
</a>
</g>
</g>
<!-- Node10&#45;&gt;Node12 -->
<g id="edge13" class="edge">
<title>Node10&#45;&gt;Node12</title>
<path fill="none" stroke="midnightblue" d="M130.36,-112.08C127.82,-104.85 124.14,-94.41 120.97,-85.4"/>
<polygon fill="midnightblue" stroke="midnightblue" points="124.2,-84.02 117.58,-75.75 117.6,-86.35 124.2,-84.02"/>
</g>
<!-- Node12&#45;&gt;Node5 -->
<g id="edge15" class="edge">
<title>Node12&#45;&gt;Node5</title>
<path fill="none" stroke="midnightblue" d="M135.57,-56.44C157.56,-47.52 192.23,-33.44 217.16,-23.32"/>
<polygon fill="midnightblue" stroke="midnightblue" points="218.58,-26.52 226.52,-19.52 215.94,-20.04 218.58,-26.52"/>
</g>
<!-- Node12&#45;&gt;Node8 -->
<g id="edge16" class="edge">
<title>Node12&#45;&gt;Node8</title>
<path fill="none" stroke="midnightblue" d="M154.43,-56.44C204.9,-45.63 290.67,-27.25 336.12,-17.51"/>
<polygon fill="midnightblue" stroke="midnightblue" points="336.93,-20.92 345.98,-15.4 335.47,-14.07 336.93,-20.92"/>
</g>
<!-- Node13 -->
<g id="node13" class="node">
<title>Node13</title>
<g id="a_node13"><a xlink:title=" ">
<polygon fill="white" stroke="#bfbfbf" points="127,-0.5 127,-19.5 186,-19.5 186,-0.5 127,-0.5"/>
<text text-anchor="middle" x="156.5" y="-7.5" font-family="Helvetica,sans-Serif" font-size="10.00">exception</text>
</a>
</g>
</g>
<!-- Node12&#45;&gt;Node13 -->
<g id="edge14" class="edge">
<title>Node12&#45;&gt;Node13</title>
<path fill="none" stroke="midnightblue" d="M121.44,-56.08C127.43,-48.38 136.25,-37.03 143.55,-27.65"/>
<polygon fill="midnightblue" stroke="midnightblue" points="146.32,-29.79 149.69,-19.75 140.79,-25.5 146.32,-29.79"/>
</g>
<!-- Node14 -->
<g id="node14" class="node">
<title>Node14</title>
<g id="a_node14"><a xlink:title=" ">
<polygon fill="white" stroke="#bfbfbf" points="36.5,-0.5 36.5,-19.5 108.5,-19.5 108.5,-0.5 36.5,-0.5"/>
<text text-anchor="middle" x="72.5" y="-7.5" font-family="Helvetica,sans-Serif" font-size="10.00">E57Export.h</text>
</a>
</g>
</g>
<!-- Node12&#45;&gt;Node14 -->
<g id="edge17" class="edge">
<title>Node12&#45;&gt;Node14</title>
<path fill="none" stroke="midnightblue" d="M107.56,-56.08C101.57,-48.38 92.75,-37.03 85.45,-27.65"/>
<polygon fill="midnightblue" stroke="midnightblue" points="88.21,-25.5 79.31,-19.75 82.68,-29.79 88.21,-25.5"/>
</g>
</g>
</svg>
