<?xml version="1.0" encoding="UTF-8" standalone="no"?>
<!DOCTYPE svg PUBLIC "-//W3C//DTD SVG 1.1//EN"
 "http://www.w3.org/Graphics/SVG/1.1/DTD/svg11.dtd">
<!-- Generated by graphviz version 2.44.0 (20200408.0750)
 -->
<!-- Title: ImageFileImpl.cpp Pages: 1 -->
<!--zoomable 420 -->
<svg id="main" version="1.1" xmlns="http://www.w3.org/2000/svg" xmlns:xlink="http://www.w3.org/1999/xlink" xml:space="preserve" onload="init(evt)">
<style type="text/css"><![CDATA[
.edge:hover path { stroke: red; }
.edge:hover polygon { stroke: red; fill: red; }
]]></style>
<script type="text/javascript"><![CDATA[
var edges = document.getElementsByTagName('g');
if (edges && edges.length) {
  for (var i=0;i<edges.length;i++) {
    if (edges[i].id.substr(0,4)=='edge') {
      edges[i].setAttribute('class','edge');
    }
  }
}
]]></script>
        <defs>
                <circle id="rim" cx="0" cy="0" r="7"/>
                <circle id="rim2" cx="0" cy="0" r="3.5"/>
                <g id="zoomPlus">
                        <use xlink:href="#rim" fill="#404040">
                                <set attributeName="fill" to="#808080" begin="zoomplus.mouseover" end="zoomplus.mouseout"/>
                        </use>
                        <path d="M-4,0h8M0,-4v8" fill="none" stroke="white" stroke-width="1.5" pointer-events="none"/>
                </g>
                <g id="zoomMin">
                        <use xlink:href="#rim" fill="#404040">
                                <set attributeName="fill" to="#808080" begin="zoomminus.mouseover" end="zoomminus.mouseout"/>
                        </use>
                        <path d="M-4,0h8" fill="none" stroke="white" stroke-width="1.5" pointer-events="none"/>
                </g>
                <g id="dirArrow">
                        <path fill="none" stroke="white" stroke-width="1.5" d="M0,-3.0v7 M-2.5,-0.5L0,-3.0L2.5,-0.5"/>
                </g>
               <g id="resetDef">
                       <use xlink:href="#rim2" fill="#404040">
                               <set attributeName="fill" to="#808080" begin="reset.mouseover" end="reset.mouseout"/>
                       </use>
               </g>
        </defs>

<script type="text/javascript">
var viewWidth = 821;
var viewHeight = 420;
var sectionId = 'dynsection-0';
</script>
<script xlink:href="svgpan.js"/>
<svg id="graph" class="graph">
<g id="viewport">
<title>ImageFileImpl.cpp</title>
<polygon fill="white" stroke="transparent" points="-4,4 -4,-416 816.5,-416 816.5,4 -4,4"/>
<!-- Node1 -->
<g id="node1" class="node">
<title>Node1</title>
<g id="a_node1"><a xlink:title=" ">
<polygon fill="#bfbfbf" stroke="black" points="226.5,-392.5 226.5,-411.5 323.5,-411.5 323.5,-392.5 226.5,-392.5"/>
<text text-anchor="middle" x="275" y="-399.5" font-family="Helvetica,sans-Serif" font-size="10.00">ImageFileImpl.cpp</text>
</a>
</g>
</g>
<!-- Node2 -->
<g id="node2" class="node">
<title>Node2</title>
<g id="a_node2"><a xlink:href="_image_file_impl_8h.html" target="_top" xlink:title=" ">
<polygon fill="white" stroke="black" points="0,-224.5 0,-243.5 86,-243.5 86,-224.5 0,-224.5"/>
<text text-anchor="middle" x="43" y="-231.5" font-family="Helvetica,sans-Serif" font-size="10.00">ImageFileImpl.h</text>
</a>
</g>
</g>
<!-- Node1&#45;&gt;Node2 -->
<g id="edge1" class="edge">
<title>Node1&#45;&gt;Node2</title>
<path fill="none" stroke="midnightblue" d="M226.11,-399.03C183.54,-395.3 121.66,-384.86 76,-356 49.24,-339.09 42.35,-329.91 32,-300 26.69,-284.64 30.65,-266.31 35.24,-253.04"/>
<polygon fill="midnightblue" stroke="midnightblue" points="38.54,-254.23 38.89,-243.64 32.01,-251.7 38.54,-254.23"/>
</g>
<!-- Node16 -->
<g id="node16" class="node">
<title>Node16</title>
<g id="a_node16"><a xlink:href="_checked_file_8h.html" target="_top" xlink:title=" ">
<polygon fill="white" stroke="black" points="85,-336.5 85,-355.5 165,-355.5 165,-336.5 85,-336.5"/>
<text text-anchor="middle" x="125" y="-343.5" font-family="Helvetica,sans-Serif" font-size="10.00">CheckedFile.h</text>
</a>
</g>
</g>
<!-- Node1&#45;&gt;Node16 -->
<g id="edge19" class="edge">
<title>Node1&#45;&gt;Node16</title>
<path fill="none" stroke="midnightblue" d="M251.23,-392.44C226.11,-383.4 186.29,-369.06 158.1,-358.92"/>
<polygon fill="midnightblue" stroke="midnightblue" points="159.25,-355.61 148.66,-355.52 156.88,-362.2 159.25,-355.61"/>
</g>
<!-- Node18 -->
<g id="node18" class="node">
<title>Node18</title>
<g id="a_node18"><a xlink:href="_e57_format_impl_8h.html" target="_top" xlink:title=" ">
<polygon fill="white" stroke="black" points="600,-336.5 600,-355.5 692,-355.5 692,-336.5 600,-336.5"/>
<text text-anchor="middle" x="646" y="-343.5" font-family="Helvetica,sans-Serif" font-size="10.00">E57FormatImpl.h</text>
</a>
</g>
</g>
<!-- Node1&#45;&gt;Node18 -->
<g id="edge22" class="edge">
<title>Node1&#45;&gt;Node18</title>
<path fill="none" stroke="midnightblue" d="M323.5,-393.94C392.02,-383.97 516.88,-365.79 589.5,-355.22"/>
<polygon fill="midnightblue" stroke="midnightblue" points="590.43,-358.63 599.82,-353.72 589.42,-351.7 590.43,-358.63"/>
</g>
<!-- Node23 -->
<g id="node23" class="node">
<title>Node23</title>
<g id="a_node23"><a xlink:href="_e57_version_8h.html" target="_top" xlink:title=" ">
<polygon fill="white" stroke="black" points="737.5,-336.5 737.5,-355.5 812.5,-355.5 812.5,-336.5 737.5,-336.5"/>
<text text-anchor="middle" x="775" y="-343.5" font-family="Helvetica,sans-Serif" font-size="10.00">E57Version.h</text>
</a>
</g>
</g>
<!-- Node1&#45;&gt;Node23 -->
<g id="edge30" class="edge">
<title>Node1&#45;&gt;Node23</title>
<path fill="none" stroke="midnightblue" d="M323.58,-396.12C402.7,-388.12 564.3,-371.53 701,-356 709.5,-355.03 718.55,-353.97 727.29,-352.91"/>
<polygon fill="midnightblue" stroke="midnightblue" points="727.86,-356.37 737.37,-351.69 727.02,-349.42 727.86,-356.37"/>
</g>
<!-- Node24 -->
<g id="node24" class="node">
<title>Node24</title>
<g id="a_node24"><a xlink:href="_e57_xml_parser_8h.html" target="_top" xlink:title=" ">
<polygon fill="white" stroke="black" points="231.5,-336.5 231.5,-355.5 318.5,-355.5 318.5,-336.5 231.5,-336.5"/>
<text text-anchor="middle" x="275" y="-343.5" font-family="Helvetica,sans-Serif" font-size="10.00">E57XmlParser.h</text>
</a>
</g>
</g>
<!-- Node1&#45;&gt;Node24 -->
<g id="edge32" class="edge">
<title>Node1&#45;&gt;Node24</title>
<path fill="none" stroke="midnightblue" d="M275,-392.08C275,-385.01 275,-374.86 275,-365.99"/>
<polygon fill="midnightblue" stroke="midnightblue" points="278.5,-365.75 275,-355.75 271.5,-365.75 278.5,-365.75"/>
</g>
<!-- Node3 -->
<g id="node3" class="node">
<title>Node3</title>
<g id="a_node3"><a xlink:title=" ">
<polygon fill="white" stroke="#bfbfbf" points="42,-56.5 42,-75.5 94,-75.5 94,-56.5 42,-56.5"/>
<text text-anchor="middle" x="68" y="-63.5" font-family="Helvetica,sans-Serif" font-size="10.00">memory</text>
</a>
</g>
</g>
<!-- Node2&#45;&gt;Node3 -->
<g id="edge2" class="edge">
<title>Node2&#45;&gt;Node3</title>
<path fill="none" stroke="midnightblue" d="M44.34,-224.08C48.28,-197.95 59.84,-121.21 65.2,-85.58"/>
<polygon fill="midnightblue" stroke="midnightblue" points="68.68,-85.98 66.71,-75.57 61.76,-84.94 68.68,-85.98"/>
</g>
<!-- Node4 -->
<g id="node4" class="node">
<title>Node4</title>
<g id="a_node4"><a xlink:href="_common_8h.html" target="_top" xlink:title=" ">
<polygon fill="white" stroke="black" points="140.5,-168.5 140.5,-187.5 205.5,-187.5 205.5,-168.5 140.5,-168.5"/>
<text text-anchor="middle" x="173" y="-175.5" font-family="Helvetica,sans-Serif" font-size="10.00">Common.h</text>
</a>
</g>
</g>
<!-- Node2&#45;&gt;Node4 -->
<g id="edge3" class="edge">
<title>Node2&#45;&gt;Node4</title>
<path fill="none" stroke="midnightblue" d="M63.6,-224.44C84.99,-215.56 118.68,-201.56 143.02,-191.45"/>
<polygon fill="midnightblue" stroke="midnightblue" points="144.61,-194.58 152.5,-187.52 141.92,-188.12 144.61,-194.58"/>
</g>
<!-- Node5 -->
<g id="node5" class="node">
<title>Node5</title>
<g id="a_node5"><a xlink:title=" ">
<polygon fill="white" stroke="#bfbfbf" points="71,-112.5 71,-131.5 121,-131.5 121,-112.5 71,-112.5"/>
<text text-anchor="middle" x="96" y="-119.5" font-family="Helvetica,sans-Serif" font-size="10.00">iomanip</text>
</a>
</g>
</g>
<!-- Node4&#45;&gt;Node5 -->
<g id="edge4" class="edge">
<title>Node4&#45;&gt;Node5</title>
<path fill="none" stroke="midnightblue" d="M160.63,-168.32C148.84,-160.06 130.87,-147.45 116.86,-137.63"/>
<polygon fill="midnightblue" stroke="midnightblue" points="118.54,-134.53 108.34,-131.65 114.52,-140.26 118.54,-134.53"/>
</g>
<!-- Node6 -->
<g id="node6" class="node">
<title>Node6</title>
<g id="a_node6"><a xlink:title=" ">
<polygon fill="white" stroke="#bfbfbf" points="43,-0.5 43,-19.5 97,-19.5 97,-0.5 43,-0.5"/>
<text text-anchor="middle" x="70" y="-7.5" font-family="Helvetica,sans-Serif" font-size="10.00">iostream</text>
</a>
</g>
</g>
<!-- Node4&#45;&gt;Node6 -->
<g id="edge5" class="edge">
<title>Node4&#45;&gt;Node6</title>
<path fill="none" stroke="midnightblue" d="M140.31,-170.21C116.26,-163.81 84.05,-152.1 62,-132 35.28,-107.65 20.8,-90.03 33,-56 36.94,-45 44.86,-34.77 52.36,-26.85"/>
<polygon fill="midnightblue" stroke="midnightblue" points="54.89,-29.27 59.56,-19.76 49.98,-24.28 54.89,-29.27"/>
</g>
<!-- Node7 -->
<g id="node7" class="node">
<title>Node7</title>
<g id="a_node7"><a xlink:title=" ">
<polygon fill="white" stroke="#bfbfbf" points="139,-112.5 139,-131.5 169,-131.5 169,-112.5 139,-112.5"/>
<text text-anchor="middle" x="154" y="-119.5" font-family="Helvetica,sans-Serif" font-size="10.00">set</text>
</a>
</g>
</g>
<!-- Node4&#45;&gt;Node7 -->
<g id="edge6" class="edge">
<title>Node4&#45;&gt;Node7</title>
<path fill="none" stroke="midnightblue" d="M169.86,-168.08C167.32,-160.85 163.64,-150.41 160.47,-141.4"/>
<polygon fill="midnightblue" stroke="midnightblue" points="163.7,-140.02 157.08,-131.75 157.1,-142.35 163.7,-140.02"/>
</g>
<!-- Node8 -->
<g id="node8" class="node">
<title>Node8</title>
<g id="a_node8"><a xlink:title=" ">
<polygon fill="white" stroke="#bfbfbf" points="317,-112.5 317,-131.5 369,-131.5 369,-112.5 317,-112.5"/>
<text text-anchor="middle" x="343" y="-119.5" font-family="Helvetica,sans-Serif" font-size="10.00">sstream</text>
</a>
</g>
</g>
<!-- Node4&#45;&gt;Node8 -->
<g id="edge7" class="edge">
<title>Node4&#45;&gt;Node8</title>
<path fill="none" stroke="midnightblue" d="M199.94,-168.44C228.83,-159.27 274.87,-144.64 306.88,-134.47"/>
<polygon fill="midnightblue" stroke="midnightblue" points="308.28,-137.7 316.75,-131.34 306.16,-131.03 308.28,-137.7"/>
</g>
<!-- Node9 -->
<g id="node9" class="node">
<title>Node9</title>
<g id="a_node9"><a xlink:title=" ">
<polygon fill="white" stroke="#bfbfbf" points="379.5,-0.5 379.5,-19.5 420.5,-19.5 420.5,-0.5 379.5,-0.5"/>
<text text-anchor="middle" x="400" y="-7.5" font-family="Helvetica,sans-Serif" font-size="10.00">string</text>
</a>
</g>
</g>
<!-- Node4&#45;&gt;Node9 -->
<g id="edge8" class="edge">
<title>Node4&#45;&gt;Node9</title>
<path fill="none" stroke="midnightblue" d="M205.74,-174.18C257.44,-169.03 354.54,-156.33 378,-132 404.47,-104.56 404.71,-56.52 402.44,-29.98"/>
<polygon fill="midnightblue" stroke="midnightblue" points="405.89,-29.31 401.35,-19.74 398.93,-30.06 405.89,-29.31"/>
</g>
<!-- Node10 -->
<g id="node10" class="node">
<title>Node10</title>
<g id="a_node10"><a xlink:title=" ">
<polygon fill="white" stroke="#bfbfbf" points="285,-56.5 285,-75.5 329,-75.5 329,-56.5 285,-56.5"/>
<text text-anchor="middle" x="307" y="-63.5" font-family="Helvetica,sans-Serif" font-size="10.00">vector</text>
</a>
</g>
</g>
<!-- Node4&#45;&gt;Node10 -->
<g id="edge9" class="edge">
<title>Node4&#45;&gt;Node10</title>
<path fill="none" stroke="midnightblue" d="M202.55,-168.36C223.04,-161.21 249.97,-149.38 269,-132 283.29,-118.95 293.76,-99.25 300.05,-84.96"/>
<polygon fill="midnightblue" stroke="midnightblue" points="303.3,-86.26 303.89,-75.68 296.83,-83.59 303.3,-86.26"/>
</g>
<!-- Node11 -->
<g id="node11" class="node">
<title>Node11</title>
<g id="a_node11"><a xlink:href="_e57_format_8h.html" target="_top" xlink:title=" ">
<polygon fill="white" stroke="black" points="187.5,-112.5 187.5,-131.5 260.5,-131.5 260.5,-112.5 187.5,-112.5"/>
<text text-anchor="middle" x="224" y="-119.5" font-family="Helvetica,sans-Serif" font-size="10.00">E57Format.h</text>
</a>
</g>
</g>
<!-- Node4&#45;&gt;Node11 -->
<g id="edge10" class="edge">
<title>Node4&#45;&gt;Node11</title>
<path fill="none" stroke="midnightblue" d="M181.42,-168.08C188.85,-160.22 199.85,-148.57 208.81,-139.08"/>
<polygon fill="midnightblue" stroke="midnightblue" points="211.41,-141.42 215.74,-131.75 206.32,-136.62 211.41,-141.42"/>
</g>
<!-- Node11&#45;&gt;Node3 -->
<g id="edge12" class="edge">
<title>Node11&#45;&gt;Node3</title>
<path fill="none" stroke="midnightblue" d="M199.28,-112.44C173.15,-103.4 131.74,-89.06 102.42,-78.92"/>
<polygon fill="midnightblue" stroke="midnightblue" points="103.2,-75.48 92.6,-75.52 100.91,-82.1 103.2,-75.48"/>
</g>
<!-- Node11&#45;&gt;Node10 -->
<g id="edge13" class="edge">
<title>Node11&#45;&gt;Node10</title>
<path fill="none" stroke="midnightblue" d="M237.34,-112.32C250.16,-103.98 269.78,-91.21 284.94,-81.35"/>
<polygon fill="midnightblue" stroke="midnightblue" points="287.22,-84.04 293.7,-75.65 283.41,-78.17 287.22,-84.04"/>
</g>
<!-- Node12 -->
<g id="node12" class="node">
<title>Node12</title>
<g id="a_node12"><a xlink:title=" ">
<polygon fill="white" stroke="#bfbfbf" points="121.5,-56.5 121.5,-75.5 162.5,-75.5 162.5,-56.5 121.5,-56.5"/>
<text text-anchor="middle" x="142" y="-63.5" font-family="Helvetica,sans-Serif" font-size="10.00">cfloat</text>
</a>
</g>
</g>
<!-- Node11&#45;&gt;Node12 -->
<g id="edge11" class="edge">
<title>Node11&#45;&gt;Node12</title>
<path fill="none" stroke="midnightblue" d="M210.83,-112.32C198.15,-103.98 178.77,-91.21 163.79,-81.35"/>
<polygon fill="midnightblue" stroke="midnightblue" points="165.42,-78.23 155.14,-75.65 161.57,-84.08 165.42,-78.23"/>
</g>
<!-- Node13 -->
<g id="node13" class="node">
<title>Node13</title>
<g id="a_node13"><a xlink:href="_e57_exception_8h.html" target="_top" xlink:title=" ">
<polygon fill="white" stroke="black" points="181,-56.5 181,-75.5 267,-75.5 267,-56.5 181,-56.5"/>
<text text-anchor="middle" x="224" y="-63.5" font-family="Helvetica,sans-Serif" font-size="10.00">E57Exception.h</text>
</a>
</g>
</g>
<!-- Node11&#45;&gt;Node13 -->
<g id="edge14" class="edge">
<title>Node11&#45;&gt;Node13</title>
<path fill="none" stroke="midnightblue" d="M224,-112.08C224,-105.01 224,-94.86 224,-85.99"/>
<polygon fill="midnightblue" stroke="midnightblue" points="227.5,-85.75 224,-75.75 220.5,-85.75 227.5,-85.75"/>
</g>
<!-- Node13&#45;&gt;Node6 -->
<g id="edge16" class="edge">
<title>Node13&#45;&gt;Node6</title>
<path fill="none" stroke="midnightblue" d="M199.6,-56.44C173.8,-47.4 132.92,-33.06 103.98,-22.92"/>
<polygon fill="midnightblue" stroke="midnightblue" points="104.88,-19.52 94.29,-19.52 102.57,-26.13 104.88,-19.52"/>
</g>
<!-- Node13&#45;&gt;Node9 -->
<g id="edge17" class="edge">
<title>Node13&#45;&gt;Node9</title>
<path fill="none" stroke="midnightblue" d="M251.89,-56.44C284.04,-46.58 336.69,-30.42 369.79,-20.27"/>
<polygon fill="midnightblue" stroke="midnightblue" points="370.86,-23.6 379.39,-17.32 368.81,-16.91 370.86,-23.6"/>
</g>
<!-- Node14 -->
<g id="node14" class="node">
<title>Node14</title>
<g id="a_node14"><a xlink:title=" ">
<polygon fill="white" stroke="#bfbfbf" points="145.5,-0.5 145.5,-19.5 204.5,-19.5 204.5,-0.5 145.5,-0.5"/>
<text text-anchor="middle" x="175" y="-7.5" font-family="Helvetica,sans-Serif" font-size="10.00">exception</text>
</a>
</g>
</g>
<!-- Node13&#45;&gt;Node14 -->
<g id="edge15" class="edge">
<title>Node13&#45;&gt;Node14</title>
<path fill="none" stroke="midnightblue" d="M215.91,-56.08C208.84,-48.3 198.41,-36.8 189.85,-27.37"/>
<polygon fill="midnightblue" stroke="midnightblue" points="192.25,-24.8 182.94,-19.75 187.07,-29.51 192.25,-24.8"/>
</g>
<!-- Node15 -->
<g id="node15" class="node">
<title>Node15</title>
<g id="a_node15"><a xlink:title=" ">
<polygon fill="white" stroke="#bfbfbf" points="222.5,-0.5 222.5,-19.5 293.5,-19.5 293.5,-0.5 222.5,-0.5"/>
<text text-anchor="middle" x="258" y="-7.5" font-family="Helvetica,sans-Serif" font-size="10.00">E57Export.h</text>
</a>
</g>
</g>
<!-- Node13&#45;&gt;Node15 -->
<g id="edge18" class="edge">
<title>Node13&#45;&gt;Node15</title>
<path fill="none" stroke="midnightblue" d="M229.61,-56.08C234.37,-48.53 241.32,-37.49 247.15,-28.23"/>
<polygon fill="midnightblue" stroke="midnightblue" points="250.12,-30.08 252.49,-19.75 244.2,-26.35 250.12,-30.08"/>
</g>
<!-- Node16&#45;&gt;Node4 -->
<g id="edge21" class="edge">
<title>Node16&#45;&gt;Node4</title>
<path fill="none" stroke="midnightblue" d="M125.84,-336.26C127.99,-316.01 134.53,-264.54 149,-224 152.39,-214.51 157.5,-204.57 162.14,-196.46"/>
<polygon fill="midnightblue" stroke="midnightblue" points="165.3,-197.99 167.42,-187.61 159.29,-194.41 165.3,-197.99"/>
</g>
<!-- Node17 -->
<g id="node17" class="node">
<title>Node17</title>
<g id="a_node17"><a xlink:title=" ">
<polygon fill="white" stroke="#bfbfbf" points="41,-280.5 41,-299.5 97,-299.5 97,-280.5 41,-280.5"/>
<text text-anchor="middle" x="69" y="-287.5" font-family="Helvetica,sans-Serif" font-size="10.00">algorithm</text>
</a>
</g>
</g>
<!-- Node16&#45;&gt;Node17 -->
<g id="edge20" class="edge">
<title>Node16&#45;&gt;Node17</title>
<path fill="none" stroke="midnightblue" d="M116,-336.32C107.81,-328.42 95.49,-316.55 85.53,-306.94"/>
<polygon fill="midnightblue" stroke="midnightblue" points="87.79,-304.26 78.16,-299.83 82.93,-309.29 87.79,-304.26"/>
</g>
<!-- Node19 -->
<g id="node19" class="node">
<title>Node19</title>
<g id="a_node19"><a xlink:href="_packet_8h.html" target="_top" xlink:title=" ">
<polygon fill="white" stroke="black" points="718,-280.5 718,-299.5 774,-299.5 774,-280.5 718,-280.5"/>
<text text-anchor="middle" x="746" y="-287.5" font-family="Helvetica,sans-Serif" font-size="10.00">Packet.h</text>
</a>
</g>
</g>
<!-- Node18&#45;&gt;Node19 -->
<g id="edge23" class="edge">
<title>Node18&#45;&gt;Node19</title>
<path fill="none" stroke="midnightblue" d="M662.07,-336.32C677.96,-327.74 702.51,-314.49 720.96,-304.52"/>
<polygon fill="midnightblue" stroke="midnightblue" points="722.84,-307.49 729.97,-299.65 719.51,-301.33 722.84,-307.49"/>
</g>
<!-- Node21 -->
<g id="node21" class="node">
<title>Node21</title>
<g id="a_node21"><a xlink:href="_structure_node_impl_8h.html" target="_top" xlink:title=" ">
<polygon fill="white" stroke="black" points="592.5,-280.5 592.5,-299.5 699.5,-299.5 699.5,-280.5 592.5,-280.5"/>
<text text-anchor="middle" x="646" y="-287.5" font-family="Helvetica,sans-Serif" font-size="10.00">StructureNodeImpl.h</text>
</a>
</g>
</g>
<!-- Node18&#45;&gt;Node21 -->
<g id="edge27" class="edge">
<title>Node18&#45;&gt;Node21</title>
<path fill="none" stroke="midnightblue" d="M646,-336.08C646,-329.01 646,-318.86 646,-309.99"/>
<polygon fill="midnightblue" stroke="midnightblue" points="649.5,-309.75 646,-299.75 642.5,-309.75 649.5,-309.75"/>
</g>
<!-- Node19&#45;&gt;Node4 -->
<g id="edge26" class="edge">
<title>Node19&#45;&gt;Node4</title>
<path fill="none" stroke="midnightblue" d="M717.8,-281.74C714.84,-281.1 711.86,-280.5 709,-280 565.44,-254.72 525.72,-273.68 383,-244 318.62,-230.61 245.78,-205.8 205.02,-191.01"/>
<polygon fill="midnightblue" stroke="midnightblue" points="206.21,-187.72 195.62,-187.57 203.81,-194.29 206.21,-187.72"/>
</g>
<!-- Node19&#45;&gt;Node10 -->
<g id="edge25" class="edge">
<title>Node19&#45;&gt;Node10</title>
<path fill="none" stroke="midnightblue" d="M729.06,-280.43C661.98,-246.51 414.68,-121.45 333.22,-80.26"/>
<polygon fill="midnightblue" stroke="midnightblue" points="334.63,-77.05 324.13,-75.66 331.47,-83.3 334.63,-77.05"/>
</g>
<!-- Node20 -->
<g id="node20" class="node">
<title>Node20</title>
<g id="a_node20"><a xlink:title=" ">
<polygon fill="white" stroke="#bfbfbf" points="751,-224.5 751,-243.5 797,-243.5 797,-224.5 751,-224.5"/>
<text text-anchor="middle" x="774" y="-231.5" font-family="Helvetica,sans-Serif" font-size="10.00">cstdint</text>
</a>
</g>
</g>
<!-- Node19&#45;&gt;Node20 -->
<g id="edge24" class="edge">
<title>Node19&#45;&gt;Node20</title>
<path fill="none" stroke="midnightblue" d="M750.62,-280.08C754.46,-272.69 760.02,-261.95 764.76,-252.81"/>
<polygon fill="midnightblue" stroke="midnightblue" points="767.97,-254.24 769.46,-243.75 761.75,-251.02 767.97,-254.24"/>
</g>
<!-- Node22 -->
<g id="node22" class="node">
<title>Node22</title>
<g id="a_node22"><a xlink:href="_node_impl_8h.html" target="_top" xlink:title=" ">
<polygon fill="white" stroke="black" points="217.5,-224.5 217.5,-243.5 284.5,-243.5 284.5,-224.5 217.5,-224.5"/>
<text text-anchor="middle" x="251" y="-231.5" font-family="Helvetica,sans-Serif" font-size="10.00">NodeImpl.h</text>
</a>
</g>
</g>
<!-- Node21&#45;&gt;Node22 -->
<g id="edge28" class="edge">
<title>Node21&#45;&gt;Node22</title>
<path fill="none" stroke="midnightblue" d="M592.24,-281.16C589.45,-280.77 586.69,-280.38 584,-280 480.29,-265.47 358.3,-249.19 294.65,-240.76"/>
<polygon fill="midnightblue" stroke="midnightblue" points="294.95,-237.27 284.57,-239.43 294.03,-244.21 294.95,-237.27"/>
</g>
<!-- Node22&#45;&gt;Node4 -->
<g id="edge29" class="edge">
<title>Node22&#45;&gt;Node4</title>
<path fill="none" stroke="midnightblue" d="M238.47,-224.32C226.41,-215.98 207.97,-203.21 193.73,-193.35"/>
<polygon fill="midnightblue" stroke="midnightblue" points="195.72,-190.47 185.5,-187.65 191.73,-196.22 195.72,-190.47"/>
</g>
<!-- Node23&#45;&gt;Node20 -->
<g id="edge31" class="edge">
<title>Node23&#45;&gt;Node20</title>
<path fill="none" stroke="midnightblue" d="M777.33,-336.18C780.35,-323.7 784.99,-300.14 783,-280 782.13,-271.17 780.31,-261.51 778.53,-253.4"/>
<polygon fill="midnightblue" stroke="midnightblue" points="781.92,-252.49 776.23,-243.55 775.1,-254.08 781.92,-252.49"/>
</g>
<!-- Node24&#45;&gt;Node4 -->
<g id="edge36" class="edge">
<title>Node24&#45;&gt;Node4</title>
<path fill="none" stroke="midnightblue" d="M237.24,-336.43C217.44,-329.88 194.71,-318.69 182,-300 161.04,-269.18 164.75,-223.18 169.05,-197.69"/>
<polygon fill="midnightblue" stroke="midnightblue" points="172.54,-198.03 170.97,-187.55 165.67,-196.72 172.54,-198.03"/>
</g>
<!-- Node25 -->
<g id="node25" class="node">
<title>Node25</title>
<g id="a_node25"><a xlink:title=" ">
<polygon fill="white" stroke="#bfbfbf" points="191.5,-280.5 191.5,-299.5 232.5,-299.5 232.5,-280.5 191.5,-280.5"/>
<text text-anchor="middle" x="212" y="-287.5" font-family="Helvetica,sans-Serif" font-size="10.00">stack</text>
</a>
</g>
</g>
<!-- Node24&#45;&gt;Node25 -->
<g id="edge33" class="edge">
<title>Node24&#45;&gt;Node25</title>
<path fill="none" stroke="midnightblue" d="M264.88,-336.32C255.47,-328.26 241.26,-316.08 229.93,-306.37"/>
<polygon fill="midnightblue" stroke="midnightblue" points="232.18,-303.68 222.31,-299.83 227.62,-309 232.18,-303.68"/>
</g>
<!-- Node26 -->
<g id="node26" class="node">
<title>Node26</title>
<g id="a_node26"><a xlink:title=" ">
<polygon fill="white" stroke="#bfbfbf" points="251,-280.5 251,-299.5 395,-299.5 395,-280.5 251,-280.5"/>
<text text-anchor="middle" x="323" y="-287.5" font-family="Helvetica,sans-Serif" font-size="10.00">xercesc/sax/InputSource.hpp</text>
</a>
</g>
</g>
<!-- Node24&#45;&gt;Node26 -->
<g id="edge34" class="edge">
<title>Node24&#45;&gt;Node26</title>
<path fill="none" stroke="midnightblue" d="M282.93,-336.08C289.85,-328.3 300.07,-316.8 308.45,-307.37"/>
<polygon fill="midnightblue" stroke="midnightblue" points="311.19,-309.55 315.22,-299.75 305.96,-304.9 311.19,-309.55"/>
</g>
<!-- Node27 -->
<g id="node27" class="node">
<title>Node27</title>
<g id="a_node27"><a xlink:title=" ">
<polygon fill="white" stroke="#bfbfbf" points="413.5,-280.5 413.5,-299.5 574.5,-299.5 574.5,-280.5 413.5,-280.5"/>
<text text-anchor="middle" x="494" y="-287.5" font-family="Helvetica,sans-Serif" font-size="10.00">xercesc/sax2/DefaultHandler.hpp</text>
</a>
</g>
</g>
<!-- Node24&#45;&gt;Node27 -->
<g id="edge35" class="edge">
<title>Node24&#45;&gt;Node27</title>
<path fill="none" stroke="midnightblue" d="M309.7,-336.44C347.58,-327.1 408.35,-312.12 449.66,-301.93"/>
<polygon fill="midnightblue" stroke="midnightblue" points="450.59,-305.31 459.46,-299.52 448.91,-298.51 450.59,-305.31"/>
</g>
</g>
</svg>
        <g id="navigator" transform="translate(0 0)" fill="#404254">
                <rect fill="#f2f5e9" fill-opacity="0.5" stroke="#606060" stroke-width=".5" x="0" y="0" width="60" height="60"/>
                <use id="zoomplus" xlink:href="#zoomPlus" x="17" y="9" onmousedown="handleZoom(evt,'in')"/>
                <use id="zoomminus" xlink:href="#zoomMin" x="42" y="9" onmousedown="handleZoom(evt,'out')"/>
                <use id="reset" xlink:href="#resetDef" x="30" y="36" onmousedown="handleReset()"/>
                <g id="arrowUp" xlink:href="#dirArrow" transform="translate(30 24)" onmousedown="handlePan(0,-1)">
                  <use xlink:href="#rim" fill="#404040">
                        <set attributeName="fill" to="#808080" begin="arrowUp.mouseover" end="arrowUp.mouseout"/>
                  </use>
                  <path fill="none" stroke="white" stroke-width="1.5" d="M0,-3.0v7 M-2.5,-0.5L0,-3.0L2.5,-0.5"/>
                </g>
                <g id="arrowRight" xlink:href="#dirArrow" transform="rotate(90) translate(36 -43)" onmousedown="handlePan(1,0)">
                  <use xlink:href="#rim" fill="#404040">
                        <set attributeName="fill" to="#808080" begin="arrowRight.mouseover" end="arrowRight.mouseout"/>
                  </use>
                  <path fill="none" stroke="white" stroke-width="1.5" d="M0,-3.0v7 M-2.5,-0.5L0,-3.0L2.5,-0.5"/>
                </g>
                <g id="arrowDown" xlink:href="#dirArrow" transform="rotate(180) translate(-30 -48)" onmousedown="handlePan(0,1)">
                  <use xlink:href="#rim" fill="#404040">
                        <set attributeName="fill" to="#808080" begin="arrowDown.mouseover" end="arrowDown.mouseout"/>
                  </use>
                  <path fill="none" stroke="white" stroke-width="1.5" d="M0,-3.0v7 M-2.5,-0.5L0,-3.0L2.5,-0.5"/>
                </g>
                <g id="arrowLeft" xlink:href="#dirArrow" transform="rotate(270) translate(-36 17)" onmousedown="handlePan(-1,0)">
                  <use xlink:href="#rim" fill="#404040">
                        <set attributeName="fill" to="#808080" begin="arrowLeft.mouseover" end="arrowLeft.mouseout"/>
                  </use>
                  <path fill="none" stroke="white" stroke-width="1.5" d="M0,-3.0v7 M-2.5,-0.5L0,-3.0L2.5,-0.5"/>
                </g>
        </g>
        <svg viewBox="0 0 15 15" width="100%" height="30px" preserveAspectRatio="xMaxYMin meet">
         <g id="arrow_out" transform="scale(0.3 0.3)">
          <a xlink:href="_image_file_impl_8cpp__incl_org.svg" target="_base">
           <rect id="button" ry="5" rx="5" y="6" x="6" height="38" width="38"
                fill="#f2f5e9" fill-opacity="0.5" stroke="#606060" stroke-width="1.0"/>
           <path id="arrow"
             d="M 11.500037,31.436501 C 11.940474,20.09759 22.043105,11.32322 32.158766,21.979434 L 37.068811,17.246167 C 37.068811,17.246167 37.088388,32 37.088388,32 L 22.160133,31.978069 C 22.160133,31.978069 26.997745,27.140456 26.997745,27.140456 C 18.528582,18.264221 13.291696,25.230495 11.500037,31.436501 z"
             style="fill:#404040;"/>
          </a>
         </g>
        </svg>
</svg>
