<?xml version="1.0" encoding="UTF-8" standalone="no"?>
<!DOCTYPE svg PUBLIC "-//W3C//DTD SVG 1.1//EN"
 "http://www.w3.org/Graphics/SVG/1.1/DTD/svg11.dtd">
<!-- Generated by graphviz version 2.48.0 (20210717.1556)
 -->
<!-- Title: IntegerNodeImpl.h Pages: 1 -->
<svg width="519pt" height="84pt"
 viewBox="0.00 0.00 519.00 84.00" xmlns="http://www.w3.org/2000/svg" xmlns:xlink="http://www.w3.org/1999/xlink">
<g id="graph0" class="graph" transform="scale(1 1) rotate(0) translate(4 80)">
<title>IntegerNodeImpl.h</title>
<polygon fill="white" stroke="transparent" points="-4,4 -4,-80 515,-80 515,4 -4,4"/>
<!-- Node1 -->
<g id="node1" class="node">
<title>Node1</title>
<g id="a_node1"><a xlink:title=" ">
<polygon fill="#bfbfbf" stroke="black" points="205,-56.5 205,-75.5 304,-75.5 304,-56.5 205,-56.5"/>
<text text-anchor="middle" x="254.5" y="-63.5" font-family="Helvetica,sans-Serif" font-size="10.00">IntegerNodeImpl.h</text>
</a>
</g>
</g>
<!-- Node2 -->
<g id="node2" class="node">
<title>Node2</title>
<g id="a_node2"><a xlink:href="_integer_node_impl_8cpp.html" target="_top" xlink:title=" ">
<polygon fill="white" stroke="black" points="0,-0.5 0,-19.5 109,-19.5 109,-0.5 0,-0.5"/>
<text text-anchor="middle" x="54.5" y="-7.5" font-family="Helvetica,sans-Serif" font-size="10.00">IntegerNodeImpl.cpp</text>
</a>
</g>
</g>
<!-- Node1&#45;&gt;Node2 -->
<g id="edge1" class="edge">
<title>Node1&#45;&gt;Node2</title>
<path fill="none" stroke="midnightblue" d="M213.13,-53.83C175.36,-43.63 120.36,-28.78 86.04,-19.52"/>
<polygon fill="midnightblue" stroke="midnightblue" points="212.24,-57.22 222.81,-56.44 214.07,-50.46 212.24,-57.22"/>
</g>
<!-- Node3 -->
<g id="node3" class="node">
<title>Node3</title>
<g id="a_node3"><a xlink:href="_decoder_8cpp.html" target="_top" xlink:title=" ">
<polygon fill="white" stroke="black" points="127,-0.5 127,-19.5 200,-19.5 200,-0.5 127,-0.5"/>
<text text-anchor="middle" x="163.5" y="-7.5" font-family="Helvetica,sans-Serif" font-size="10.00">Decoder.cpp</text>
</a>
</g>
</g>
<!-- Node1&#45;&gt;Node3 -->
<g id="edge2" class="edge">
<title>Node1&#45;&gt;Node3</title>
<path fill="none" stroke="midnightblue" d="M231.21,-51.18C214.46,-41.24 192.4,-28.15 178.08,-19.65"/>
<polygon fill="midnightblue" stroke="midnightblue" points="229.49,-54.23 239.88,-56.32 233.07,-48.21 229.49,-54.23"/>
</g>
<!-- Node4 -->
<g id="node4" class="node">
<title>Node4</title>
<g id="a_node4"><a xlink:href="_encoder_8cpp.html" target="_top" xlink:title=" ">
<polygon fill="white" stroke="black" points="218.5,-0.5 218.5,-19.5 290.5,-19.5 290.5,-0.5 218.5,-0.5"/>
<text text-anchor="middle" x="254.5" y="-7.5" font-family="Helvetica,sans-Serif" font-size="10.00">Encoder.cpp</text>
</a>
</g>
</g>
<!-- Node1&#45;&gt;Node4 -->
<g id="edge3" class="edge">
<title>Node1&#45;&gt;Node4</title>
<path fill="none" stroke="midnightblue" d="M254.5,-45.8C254.5,-36.91 254.5,-26.78 254.5,-19.75"/>
<polygon fill="midnightblue" stroke="midnightblue" points="251,-46.08 254.5,-56.08 258,-46.08 251,-46.08"/>
</g>
<!-- Node5 -->
<g id="node5" class="node">
<title>Node5</title>
<g id="a_node5"><a xlink:href="_e57_xml_parser_8cpp.html" target="_top" xlink:title=" ">
<polygon fill="white" stroke="black" points="309,-0.5 309,-19.5 408,-19.5 408,-0.5 309,-0.5"/>
<text text-anchor="middle" x="358.5" y="-7.5" font-family="Helvetica,sans-Serif" font-size="10.00">E57XmlParser.cpp</text>
</a>
</g>
</g>
<!-- Node1&#45;&gt;Node5 -->
<g id="edge4" class="edge">
<title>Node1&#45;&gt;Node5</title>
<path fill="none" stroke="midnightblue" d="M280.33,-51.59C299.56,-41.61 325.24,-28.27 341.83,-19.65"/>
<polygon fill="midnightblue" stroke="midnightblue" points="278.47,-48.61 271.21,-56.32 281.7,-54.82 278.47,-48.61"/>
</g>
<!-- Node6 -->
<g id="node6" class="node">
<title>Node6</title>
<g id="a_node6"><a xlink:href="_e57_format_8cpp.html" target="_top" xlink:title=" ">
<polygon fill="white" stroke="black" points="426,-0.5 426,-19.5 511,-19.5 511,-0.5 426,-0.5"/>
<text text-anchor="middle" x="468.5" y="-7.5" font-family="Helvetica,sans-Serif" font-size="10.00">E57Format.cpp</text>
</a>
</g>
</g>
<!-- Node1&#45;&gt;Node6 -->
<g id="edge5" class="edge">
<title>Node1&#45;&gt;Node6</title>
<path fill="none" stroke="midnightblue" d="M298.26,-53.96C338.67,-43.76 397.87,-28.82 434.75,-19.52"/>
<polygon fill="midnightblue" stroke="midnightblue" points="297.25,-50.6 288.41,-56.44 298.96,-57.39 297.25,-50.6"/>
</g>
</g>
</svg>
