<?xml version="1.0" encoding="UTF-8" standalone="no"?>
<!DOCTYPE svg PUBLIC "-//W3C//DTD SVG 1.1//EN"
 "http://www.w3.org/Graphics/SVG/1.1/DTD/svg11.dtd">
<!-- Generated by graphviz version 2.48.0 (20210717.1556)
 -->
<!-- Title: NodeImpl.cpp Pages: 1 -->
<svg width="443pt" height="420pt"
 viewBox="0.00 0.00 443.00 420.00" xmlns="http://www.w3.org/2000/svg" xmlns:xlink="http://www.w3.org/1999/xlink">
<g id="graph0" class="graph" transform="scale(1 1) rotate(0) translate(4 416)">
<title>NodeImpl.cpp</title>
<polygon fill="white" stroke="transparent" points="-4,4 -4,-416 439,-416 439,4 -4,4"/>
<!-- Node1 -->
<g id="node1" class="node">
<title>Node1</title>
<g id="a_node1"><a xlink:title=" ">
<polygon fill="#bfbfbf" stroke="black" points="229,-392.5 229,-411.5 307,-411.5 307,-392.5 229,-392.5"/>
<text text-anchor="middle" x="268" y="-399.5" font-family="Helvetica,sans-Serif" font-size="10.00">NodeImpl.cpp</text>
</a>
</g>
</g>
<!-- Node2 -->
<g id="node2" class="node">
<title>Node2</title>
<g id="a_node2"><a xlink:href="_node_impl_8h.html" target="_top" xlink:title=" ">
<polygon fill="white" stroke="black" points="193,-224.5 193,-243.5 261,-243.5 261,-224.5 193,-224.5"/>
<text text-anchor="middle" x="227" y="-231.5" font-family="Helvetica,sans-Serif" font-size="10.00">NodeImpl.h</text>
</a>
</g>
</g>
<!-- Node1&#45;&gt;Node2 -->
<g id="edge1" class="edge">
<title>Node1&#45;&gt;Node2</title>
<path fill="none" stroke="midnightblue" d="M263.62,-392.25C259.33,-383.33 252.87,-369 249,-356 238.46,-320.66 232.13,-277.92 229.12,-253.86"/>
<polygon fill="midnightblue" stroke="midnightblue" points="232.57,-253.18 227.91,-243.66 225.61,-254 232.57,-253.18"/>
</g>
<!-- Node16 -->
<g id="node16" class="node">
<title>Node16</title>
<g id="a_node16"><a xlink:href="_image_file_impl_8h.html" target="_top" xlink:title=" ">
<polygon fill="white" stroke="black" points="347,-224.5 347,-243.5 435,-243.5 435,-224.5 347,-224.5"/>
<text text-anchor="middle" x="391" y="-231.5" font-family="Helvetica,sans-Serif" font-size="10.00">ImageFileImpl.h</text>
</a>
</g>
</g>
<!-- Node1&#45;&gt;Node16 -->
<g id="edge18" class="edge">
<title>Node1&#45;&gt;Node16</title>
<path fill="none" stroke="midnightblue" d="M303.57,-392.46C323.85,-385.79 348.12,-374.48 363,-356 386.92,-326.29 391.15,-279.86 391.48,-254.01"/>
<polygon fill="midnightblue" stroke="midnightblue" points="394.98,-253.69 391.42,-243.71 387.98,-253.73 394.98,-253.69"/>
</g>
<!-- Node17 -->
<g id="node17" class="node">
<title>Node17</title>
<g id="a_node17"><a xlink:href="_source_dest_buffer_impl_8h.html" target="_top" xlink:title=" ">
<polygon fill="white" stroke="black" points="77,-280.5 77,-299.5 199,-299.5 199,-280.5 77,-280.5"/>
<text text-anchor="middle" x="138" y="-287.5" font-family="Helvetica,sans-Serif" font-size="10.00">SourceDestBufferImpl.h</text>
</a>
</g>
</g>
<!-- Node1&#45;&gt;Node17 -->
<g id="edge21" class="edge">
<title>Node1&#45;&gt;Node17</title>
<path fill="none" stroke="midnightblue" d="M257.38,-392.46C246.25,-383.47 228.28,-368.87 213,-356 192.98,-339.14 170.32,-319.41 155.19,-306.15"/>
<polygon fill="midnightblue" stroke="midnightblue" points="157.45,-303.47 147.63,-299.5 152.83,-308.73 157.45,-303.47"/>
</g>
<!-- Node18 -->
<g id="node18" class="node">
<title>Node18</title>
<g id="a_node18"><a xlink:href="_vector_node_impl_8h.html" target="_top" xlink:title=" ">
<polygon fill="white" stroke="black" points="258,-336.5 258,-355.5 354,-355.5 354,-336.5 258,-336.5"/>
<text text-anchor="middle" x="306" y="-343.5" font-family="Helvetica,sans-Serif" font-size="10.00">VectorNodeImpl.h</text>
</a>
</g>
</g>
<!-- Node1&#45;&gt;Node18 -->
<g id="edge23" class="edge">
<title>Node1&#45;&gt;Node18</title>
<path fill="none" stroke="midnightblue" d="M274.27,-392.08C279.64,-384.46 287.51,-373.26 294.08,-363.94"/>
<polygon fill="midnightblue" stroke="midnightblue" points="296.95,-365.94 299.84,-355.75 291.22,-361.91 296.95,-365.94"/>
</g>
<!-- Node3 -->
<g id="node3" class="node">
<title>Node3</title>
<g id="a_node3"><a xlink:href="_common_8h.html" target="_top" xlink:title=" ">
<polygon fill="white" stroke="black" points="136.5,-168.5 136.5,-187.5 201.5,-187.5 201.5,-168.5 136.5,-168.5"/>
<text text-anchor="middle" x="169" y="-175.5" font-family="Helvetica,sans-Serif" font-size="10.00">Common.h</text>
</a>
</g>
</g>
<!-- Node2&#45;&gt;Node3 -->
<g id="edge2" class="edge">
<title>Node2&#45;&gt;Node3</title>
<path fill="none" stroke="midnightblue" d="M217.68,-224.32C209.1,-216.34 196.18,-204.31 185.81,-194.65"/>
<polygon fill="midnightblue" stroke="midnightblue" points="188.19,-192.09 178.49,-187.83 183.42,-197.21 188.19,-192.09"/>
</g>
<!-- Node4 -->
<g id="node4" class="node">
<title>Node4</title>
<g id="a_node4"><a xlink:title=" ">
<polygon fill="white" stroke="#bfbfbf" points="263,-112.5 263,-131.5 315,-131.5 315,-112.5 263,-112.5"/>
<text text-anchor="middle" x="289" y="-119.5" font-family="Helvetica,sans-Serif" font-size="10.00">iomanip</text>
</a>
</g>
</g>
<!-- Node3&#45;&gt;Node4 -->
<g id="edge3" class="edge">
<title>Node3&#45;&gt;Node4</title>
<path fill="none" stroke="midnightblue" d="M188.01,-168.44C207.58,-159.64 238.3,-145.81 260.73,-135.72"/>
<polygon fill="midnightblue" stroke="midnightblue" points="262.39,-138.81 270.07,-131.52 259.52,-132.43 262.39,-138.81"/>
</g>
<!-- Node5 -->
<g id="node5" class="node">
<title>Node5</title>
<g id="a_node5"><a xlink:title=" ">
<polygon fill="white" stroke="#bfbfbf" points="291.5,-0.5 291.5,-19.5 346.5,-19.5 346.5,-0.5 291.5,-0.5"/>
<text text-anchor="middle" x="319" y="-7.5" font-family="Helvetica,sans-Serif" font-size="10.00">iostream</text>
</a>
</g>
</g>
<!-- Node3&#45;&gt;Node5 -->
<g id="edge4" class="edge">
<title>Node3&#45;&gt;Node5</title>
<path fill="none" stroke="midnightblue" d="M201.66,-172.17C242.63,-165.36 309.32,-151.55 324,-132 346.53,-101.99 335.21,-55 326.29,-29.3"/>
<polygon fill="midnightblue" stroke="midnightblue" points="329.49,-27.86 322.72,-19.7 322.93,-30.3 329.49,-27.86"/>
</g>
<!-- Node6 -->
<g id="node6" class="node">
<title>Node6</title>
<g id="a_node6"><a xlink:title=" ">
<polygon fill="white" stroke="#bfbfbf" points="145,-112.5 145,-131.5 175,-131.5 175,-112.5 145,-112.5"/>
<text text-anchor="middle" x="160" y="-119.5" font-family="Helvetica,sans-Serif" font-size="10.00">set</text>
</a>
</g>
</g>
<!-- Node3&#45;&gt;Node6 -->
<g id="edge5" class="edge">
<title>Node3&#45;&gt;Node6</title>
<path fill="none" stroke="midnightblue" d="M167.51,-168.08C166.32,-160.93 164.6,-150.64 163.11,-141.69"/>
<polygon fill="midnightblue" stroke="midnightblue" points="166.55,-141.04 161.46,-131.75 159.65,-142.19 166.55,-141.04"/>
</g>
<!-- Node7 -->
<g id="node7" class="node">
<title>Node7</title>
<g id="a_node7"><a xlink:title=" ">
<polygon fill="white" stroke="#bfbfbf" points="193,-112.5 193,-131.5 245,-131.5 245,-112.5 193,-112.5"/>
<text text-anchor="middle" x="219" y="-119.5" font-family="Helvetica,sans-Serif" font-size="10.00">sstream</text>
</a>
</g>
</g>
<!-- Node3&#45;&gt;Node7 -->
<g id="edge6" class="edge">
<title>Node3&#45;&gt;Node7</title>
<path fill="none" stroke="midnightblue" d="M177.25,-168.08C184.46,-160.3 195.11,-148.8 203.84,-139.37"/>
<polygon fill="midnightblue" stroke="midnightblue" points="206.67,-141.47 210.89,-131.75 201.53,-136.71 206.67,-141.47"/>
</g>
<!-- Node8 -->
<g id="node8" class="node">
<title>Node8</title>
<g id="a_node8"><a xlink:title=" ">
<polygon fill="white" stroke="#bfbfbf" points="4.5,-0.5 4.5,-19.5 45.5,-19.5 45.5,-0.5 4.5,-0.5"/>
<text text-anchor="middle" x="25" y="-7.5" font-family="Helvetica,sans-Serif" font-size="10.00">string</text>
</a>
</g>
</g>
<!-- Node3&#45;&gt;Node8 -->
<g id="edge7" class="edge">
<title>Node3&#45;&gt;Node8</title>
<path fill="none" stroke="midnightblue" d="M136.49,-173.6C106.08,-168.9 60.97,-157.82 31,-132 3.73,-108.5 -5.12,-91.07 3,-56 5.23,-46.36 9.82,-36.41 14.23,-28.31"/>
<polygon fill="midnightblue" stroke="midnightblue" points="17.35,-29.92 19.36,-19.52 11.3,-26.4 17.35,-29.92"/>
</g>
<!-- Node9 -->
<g id="node9" class="node">
<title>Node9</title>
<g id="a_node9"><a xlink:title=" ">
<polygon fill="white" stroke="#bfbfbf" points="12,-56.5 12,-75.5 56,-75.5 56,-56.5 12,-56.5"/>
<text text-anchor="middle" x="34" y="-63.5" font-family="Helvetica,sans-Serif" font-size="10.00">vector</text>
</a>
</g>
</g>
<!-- Node3&#45;&gt;Node9 -->
<g id="edge8" class="edge">
<title>Node3&#45;&gt;Node9</title>
<path fill="none" stroke="midnightblue" d="M136.31,-174.36C107.49,-170.2 66.65,-159.51 44,-132 33.46,-119.2 31.66,-100.02 32.07,-85.8"/>
<polygon fill="midnightblue" stroke="midnightblue" points="35.57,-85.9 32.76,-75.68 28.59,-85.43 35.57,-85.9"/>
</g>
<!-- Node10 -->
<g id="node10" class="node">
<title>Node10</title>
<g id="a_node10"><a xlink:href="_e57_format_8h.html" target="_top" xlink:title="header file for the E57 API">
<polygon fill="white" stroke="black" points="53,-112.5 53,-131.5 127,-131.5 127,-112.5 53,-112.5"/>
<text text-anchor="middle" x="90" y="-119.5" font-family="Helvetica,sans-Serif" font-size="10.00">E57Format.h</text>
</a>
</g>
</g>
<!-- Node3&#45;&gt;Node10 -->
<g id="edge9" class="edge">
<title>Node3&#45;&gt;Node10</title>
<path fill="none" stroke="midnightblue" d="M156.3,-168.32C144.1,-159.98 125.42,-147.21 110.99,-137.35"/>
<polygon fill="midnightblue" stroke="midnightblue" points="112.89,-134.41 102.66,-131.65 108.94,-140.19 112.89,-134.41"/>
</g>
<!-- Node10&#45;&gt;Node9 -->
<g id="edge12" class="edge">
<title>Node10&#45;&gt;Node9</title>
<path fill="none" stroke="midnightblue" d="M81,-112.32C72.8,-104.42 60.49,-92.55 50.53,-82.94"/>
<polygon fill="midnightblue" stroke="midnightblue" points="52.79,-80.26 43.16,-75.83 47.93,-85.29 52.79,-80.26"/>
</g>
<!-- Node11 -->
<g id="node11" class="node">
<title>Node11</title>
<g id="a_node11"><a xlink:title=" ">
<polygon fill="white" stroke="#bfbfbf" points="74,-56.5 74,-75.5 114,-75.5 114,-56.5 74,-56.5"/>
<text text-anchor="middle" x="94" y="-63.5" font-family="Helvetica,sans-Serif" font-size="10.00">cfloat</text>
</a>
</g>
</g>
<!-- Node10&#45;&gt;Node11 -->
<g id="edge10" class="edge">
<title>Node10&#45;&gt;Node11</title>
<path fill="none" stroke="midnightblue" d="M90.66,-112.08C91.18,-105.01 91.93,-94.86 92.59,-85.99"/>
<polygon fill="midnightblue" stroke="midnightblue" points="96.1,-85.98 93.35,-75.75 89.12,-85.47 96.1,-85.98"/>
</g>
<!-- Node12 -->
<g id="node12" class="node">
<title>Node12</title>
<g id="a_node12"><a xlink:title=" ">
<polygon fill="white" stroke="#bfbfbf" points="371.5,-56.5 371.5,-75.5 424.5,-75.5 424.5,-56.5 371.5,-56.5"/>
<text text-anchor="middle" x="398" y="-63.5" font-family="Helvetica,sans-Serif" font-size="10.00">memory</text>
</a>
</g>
</g>
<!-- Node10&#45;&gt;Node12 -->
<g id="edge11" class="edge">
<title>Node10&#45;&gt;Node12</title>
<path fill="none" stroke="midnightblue" d="M127.14,-113.66C130.14,-113.09 133.12,-112.53 136,-112 216.09,-97.29 310.24,-81.48 361.02,-73.07"/>
<polygon fill="midnightblue" stroke="midnightblue" points="361.89,-76.48 371.18,-71.4 360.75,-69.57 361.89,-76.48"/>
</g>
<!-- Node13 -->
<g id="node13" class="node">
<title>Node13</title>
<g id="a_node13"><a xlink:href="_e57_exception_8h.html" target="_top" xlink:title=" ">
<polygon fill="white" stroke="black" points="132.5,-56.5 132.5,-75.5 219.5,-75.5 219.5,-56.5 132.5,-56.5"/>
<text text-anchor="middle" x="176" y="-63.5" font-family="Helvetica,sans-Serif" font-size="10.00">E57Exception.h</text>
</a>
</g>
</g>
<!-- Node10&#45;&gt;Node13 -->
<g id="edge13" class="edge">
<title>Node10&#45;&gt;Node13</title>
<path fill="none" stroke="midnightblue" d="M103.81,-112.32C117.23,-103.9 137.82,-90.97 153.58,-81.07"/>
<polygon fill="midnightblue" stroke="midnightblue" points="155.61,-83.94 162.21,-75.65 151.88,-78.01 155.61,-83.94"/>
</g>
<!-- Node13&#45;&gt;Node5 -->
<g id="edge15" class="edge">
<title>Node13&#45;&gt;Node5</title>
<path fill="none" stroke="midnightblue" d="M198.66,-56.44C222.4,-47.48 259.91,-33.31 286.74,-23.18"/>
<polygon fill="midnightblue" stroke="midnightblue" points="288.33,-26.32 296.44,-19.52 285.85,-19.77 288.33,-26.32"/>
</g>
<!-- Node13&#45;&gt;Node8 -->
<g id="edge16" class="edge">
<title>Node13&#45;&gt;Node8</title>
<path fill="none" stroke="midnightblue" d="M152.07,-56.44C125.89,-47.08 83.85,-32.05 55.36,-21.86"/>
<polygon fill="midnightblue" stroke="midnightblue" points="56.49,-18.54 45.89,-18.47 54.13,-25.14 56.49,-18.54"/>
</g>
<!-- Node14 -->
<g id="node14" class="node">
<title>Node14</title>
<g id="a_node14"><a xlink:title=" ">
<polygon fill="white" stroke="#bfbfbf" points="170.5,-0.5 170.5,-19.5 229.5,-19.5 229.5,-0.5 170.5,-0.5"/>
<text text-anchor="middle" x="200" y="-7.5" font-family="Helvetica,sans-Serif" font-size="10.00">exception</text>
</a>
</g>
</g>
<!-- Node13&#45;&gt;Node14 -->
<g id="edge14" class="edge">
<title>Node13&#45;&gt;Node14</title>
<path fill="none" stroke="midnightblue" d="M179.96,-56.08C183.21,-48.77 187.92,-38.18 191.95,-29.1"/>
<polygon fill="midnightblue" stroke="midnightblue" points="195.24,-30.31 196.11,-19.75 188.85,-27.47 195.24,-30.31"/>
</g>
<!-- Node15 -->
<g id="node15" class="node">
<title>Node15</title>
<g id="a_node15"><a xlink:title=" ">
<polygon fill="white" stroke="#bfbfbf" points="80,-0.5 80,-19.5 152,-19.5 152,-0.5 80,-0.5"/>
<text text-anchor="middle" x="116" y="-7.5" font-family="Helvetica,sans-Serif" font-size="10.00">E57Export.h</text>
</a>
</g>
</g>
<!-- Node13&#45;&gt;Node15 -->
<g id="edge17" class="edge">
<title>Node13&#45;&gt;Node15</title>
<path fill="none" stroke="midnightblue" d="M166.36,-56.32C157.49,-48.34 144.12,-36.31 133.39,-26.65"/>
<polygon fill="midnightblue" stroke="midnightblue" points="135.59,-23.92 125.81,-19.83 130.9,-29.13 135.59,-23.92"/>
</g>
<!-- Node16&#45;&gt;Node3 -->
<g id="edge20" class="edge">
<title>Node16&#45;&gt;Node3</title>
<path fill="none" stroke="midnightblue" d="M355.82,-224.44C316.74,-214.94 253.64,-199.59 211.74,-189.4"/>
<polygon fill="midnightblue" stroke="midnightblue" points="212.38,-185.95 201.84,-186.99 210.73,-192.75 212.38,-185.95"/>
</g>
<!-- Node16&#45;&gt;Node12 -->
<g id="edge19" class="edge">
<title>Node16&#45;&gt;Node12</title>
<path fill="none" stroke="midnightblue" d="M391.37,-224.08C392.48,-197.95 395.71,-121.21 397.21,-85.58"/>
<polygon fill="midnightblue" stroke="midnightblue" points="400.71,-85.71 397.64,-75.57 393.72,-85.41 400.71,-85.71"/>
</g>
<!-- Node17&#45;&gt;Node3 -->
<g id="edge22" class="edge">
<title>Node17&#45;&gt;Node3</title>
<path fill="none" stroke="midnightblue" d="M140.43,-280.37C145.46,-262.54 157.08,-221.3 163.85,-197.27"/>
<polygon fill="midnightblue" stroke="midnightblue" points="167.23,-198.17 166.58,-187.59 160.49,-196.27 167.23,-198.17"/>
</g>
<!-- Node19 -->
<g id="node19" class="node">
<title>Node19</title>
<g id="a_node19"><a xlink:href="_structure_node_impl_8h.html" target="_top" xlink:title=" ">
<polygon fill="white" stroke="black" points="255,-280.5 255,-299.5 363,-299.5 363,-280.5 255,-280.5"/>
<text text-anchor="middle" x="309" y="-287.5" font-family="Helvetica,sans-Serif" font-size="10.00">StructureNodeImpl.h</text>
</a>
</g>
</g>
<!-- Node18&#45;&gt;Node19 -->
<g id="edge24" class="edge">
<title>Node18&#45;&gt;Node19</title>
<path fill="none" stroke="midnightblue" d="M306.49,-336.08C306.89,-329.01 307.45,-318.86 307.94,-309.99"/>
<polygon fill="midnightblue" stroke="midnightblue" points="311.45,-309.93 308.51,-299.75 304.46,-309.54 311.45,-309.93"/>
</g>
<!-- Node19&#45;&gt;Node2 -->
<g id="edge25" class="edge">
<title>Node19&#45;&gt;Node2</title>
<path fill="none" stroke="midnightblue" d="M295.82,-280.32C283.15,-271.98 263.76,-259.21 248.79,-249.35"/>
<polygon fill="midnightblue" stroke="midnightblue" points="250.42,-246.23 240.14,-243.65 246.57,-252.08 250.42,-246.23"/>
</g>
</g>
</svg>
