<?xml version="1.0" encoding="UTF-8" standalone="no"?>
<!DOCTYPE svg PUBLIC "-//W3C//DTD SVG 1.1//EN"
 "http://www.w3.org/Graphics/SVG/1.1/DTD/svg11.dtd">
<!-- Generated by graphviz version 2.48.0 (20210717.1556)
 -->
<!-- Title: NodeImpl.h Pages: 1 -->
<!--zoomable 196 -->
<svg id="main" version="1.1" xmlns="http://www.w3.org/2000/svg" xmlns:xlink="http://www.w3.org/1999/xlink" xml:space="preserve" onload="init(evt)">
<style type="text/css"><![CDATA[
.edge:hover path { stroke: red; }
.edge:hover polygon { stroke: red; fill: red; }
]]></style>
<script type="text/javascript"><![CDATA[
var edges = document.getElementsByTagName('g');
if (edges && edges.length) {
  for (var i=0;i<edges.length;i++) {
    if (edges[i].id.substr(0,4)=='edge') {
      edges[i].setAttribute('class','edge');
    }
  }
}
]]></script>
        <defs>
                <circle id="rim" cx="0" cy="0" r="7"/>
                <circle id="rim2" cx="0" cy="0" r="3.5"/>
                <g id="zoomPlus">
                        <use xlink:href="#rim" fill="#404040">
                                <set attributeName="fill" to="#808080" begin="zoomplus.mouseover" end="zoomplus.mouseout"/>
                        </use>
                        <path d="M-4,0h8M0,-4v8" fill="none" stroke="white" stroke-width="1.5" pointer-events="none"/>
                </g>
                <g id="zoomMin">
                        <use xlink:href="#rim" fill="#404040">
                                <set attributeName="fill" to="#808080" begin="zoomminus.mouseover" end="zoomminus.mouseout"/>
                        </use>
                        <path d="M-4,0h8" fill="none" stroke="white" stroke-width="1.5" pointer-events="none"/>
                </g>
                <g id="dirArrow">
                        <path fill="none" stroke="white" stroke-width="1.5" d="M0,-3.0v7 M-2.5,-0.5L0,-3.0L2.5,-0.5"/>
                </g>
               <g id="resetDef">
                       <use xlink:href="#rim2" fill="#404040">
                               <set attributeName="fill" to="#808080" begin="reset.mouseover" end="reset.mouseout"/>
                       </use>
               </g>
        </defs>

<script type="text/javascript">
var viewWidth = 1812;
var viewHeight = 196;
var sectionId = 'dynsection-1';
</script>
<script xlink:href="svgpan.js"/>
<svg id="graph" class="graph">
<g id="viewport">
<title>NodeImpl.h</title>
<polygon fill="white" stroke="transparent" points="-4,4 -4,-192 1807.5,-192 1807.5,4 -4,4"/>
<!-- Node1 -->
<g id="node1" class="node">
<title>Node1</title>
<g id="a_node1"><a xlink:title=" ">
<polygon fill="#bfbfbf" stroke="black" points="786.5,-168.5 786.5,-187.5 854.5,-187.5 854.5,-168.5 786.5,-168.5"/>
<text text-anchor="middle" x="820.5" y="-175.5" font-family="Helvetica,sans-Serif" font-size="10.00">NodeImpl.h</text>
</a>
</g>
</g>
<!-- Node2 -->
<g id="node2" class="node">
<title>Node2</title>
<g id="a_node2"><a xlink:href="_blob_node_impl_8h.html" target="_top" xlink:title=" ">
<polygon fill="white" stroke="black" points="968.5,-56.5 968.5,-75.5 1056.5,-75.5 1056.5,-56.5 968.5,-56.5"/>
<text text-anchor="middle" x="1012.5" y="-63.5" font-family="Helvetica,sans-Serif" font-size="10.00">BlobNodeImpl.h</text>
</a>
</g>
</g>
<!-- Node1&#45;&gt;Node2 -->
<g id="edge1" class="edge">
<title>Node1&#45;&gt;Node2</title>
<path fill="none" stroke="midnightblue" d="M844.41,-163.3C884.55,-140.3 964.34,-94.59 997.5,-75.59"/>
<polygon fill="midnightblue" stroke="midnightblue" points="842.5,-160.36 835.57,-168.37 845.98,-166.43 842.5,-160.36"/>
</g>
<!-- Node6 -->
<g id="node6" class="node">
<title>Node6</title>
<g id="a_node6"><a xlink:href="_compressed_vector_node_impl_8h.html" target="_top" xlink:title=" ">
<polygon fill="white" stroke="black" points="797,-56.5 797,-75.5 950,-75.5 950,-56.5 797,-56.5"/>
<text text-anchor="middle" x="873.5" y="-63.5" font-family="Helvetica,sans-Serif" font-size="10.00">CompressedVectorNodeImpl.h</text>
</a>
</g>
</g>
<!-- Node1&#45;&gt;Node6 -->
<g id="edge5" class="edge">
<title>Node1&#45;&gt;Node6</title>
<path fill="none" stroke="midnightblue" d="M829.02,-159.32C840.56,-135.37 860.71,-93.55 869.36,-75.59"/>
<polygon fill="midnightblue" stroke="midnightblue" points="825.85,-157.84 824.66,-168.37 832.15,-160.88 825.85,-157.84"/>
</g>
<!-- Node12 -->
<g id="node12" class="node">
<title>Node12</title>
<g id="a_node12"><a xlink:href="_float_node_impl_8h.html" target="_top" xlink:title=" ">
<polygon fill="white" stroke="black" points="428.5,-56.5 428.5,-75.5 518.5,-75.5 518.5,-56.5 428.5,-56.5"/>
<text text-anchor="middle" x="473.5" y="-63.5" font-family="Helvetica,sans-Serif" font-size="10.00">FloatNodeImpl.h</text>
</a>
</g>
</g>
<!-- Node1&#45;&gt;Node12 -->
<g id="edge13" class="edge">
<title>Node1&#45;&gt;Node12</title>
<path fill="none" stroke="midnightblue" d="M783.84,-165.38C713.81,-143.18 562.5,-95.21 500.66,-75.61"/>
<polygon fill="midnightblue" stroke="midnightblue" points="782.97,-168.77 793.56,-168.46 785.09,-162.1 782.97,-168.77"/>
</g>
<!-- Node14 -->
<g id="node14" class="node">
<title>Node14</title>
<g id="a_node14"><a xlink:href="_integer_node_impl_8h.html" target="_top" xlink:title=" ">
<polygon fill="white" stroke="black" points="311,-56.5 311,-75.5 410,-75.5 410,-56.5 311,-56.5"/>
<text text-anchor="middle" x="360.5" y="-63.5" font-family="Helvetica,sans-Serif" font-size="10.00">IntegerNodeImpl.h</text>
</a>
</g>
</g>
<!-- Node1&#45;&gt;Node14 -->
<g id="edge19" class="edge">
<title>Node1&#45;&gt;Node14</title>
<path fill="none" stroke="midnightblue" d="M776.23,-167.95C734.04,-159.2 668.79,-145.34 612.5,-132 532.71,-113.09 439.39,-88.32 391.83,-75.5"/>
<polygon fill="midnightblue" stroke="midnightblue" points="775.68,-171.41 786.18,-170.01 777.09,-164.55 775.68,-171.41"/>
</g>
<!-- Node16 -->
<g id="node16" class="node">
<title>Node16</title>
<g id="a_node16"><a xlink:href="_node_impl_8cpp.html" target="_top" xlink:title=" ">
<polygon fill="white" stroke="black" points="1725.5,-0.5 1725.5,-19.5 1803.5,-19.5 1803.5,-0.5 1725.5,-0.5"/>
<text text-anchor="middle" x="1764.5" y="-7.5" font-family="Helvetica,sans-Serif" font-size="10.00">NodeImpl.cpp</text>
</a>
</g>
</g>
<!-- Node1&#45;&gt;Node16 -->
<g id="edge25" class="edge">
<title>Node1&#45;&gt;Node16</title>
<path fill="none" stroke="midnightblue" d="M864.86,-176.72C962.97,-175.42 1205.45,-168.44 1404.5,-132 1491.52,-116.07 1511.7,-104.35 1595.5,-76 1649.7,-57.67 1712.25,-32.55 1743.89,-19.56"/>
<polygon fill="midnightblue" stroke="midnightblue" points="864.68,-173.22 854.72,-176.84 864.76,-180.22 864.68,-173.22"/>
</g>
<!-- Node17 -->
<g id="node17" class="node">
<title>Node17</title>
<g id="a_node17"><a xlink:href="_scaled_integer_node_impl_8h.html" target="_top" xlink:title=" ">
<polygon fill="white" stroke="black" points="537,-56.5 537,-75.5 666,-75.5 666,-56.5 537,-56.5"/>
<text text-anchor="middle" x="601.5" y="-63.5" font-family="Helvetica,sans-Serif" font-size="10.00">ScaledIntegerNodeImpl.h</text>
</a>
</g>
</g>
<!-- Node1&#45;&gt;Node17 -->
<g id="edge26" class="edge">
<title>Node1&#45;&gt;Node17</title>
<path fill="none" stroke="midnightblue" d="M794.38,-163.88C748.98,-141.08 656.75,-94.75 618.6,-75.59"/>
<polygon fill="midnightblue" stroke="midnightblue" points="792.81,-167.01 803.32,-168.37 795.95,-160.75 792.81,-167.01"/>
</g>
<!-- Node19 -->
<g id="node19" class="node">
<title>Node19</title>
<g id="a_node19"><a xlink:href="_string_node_impl_8h.html" target="_top" xlink:title=" ">
<polygon fill="white" stroke="black" points="684.5,-56.5 684.5,-75.5 778.5,-75.5 778.5,-56.5 684.5,-56.5"/>
<text text-anchor="middle" x="731.5" y="-63.5" font-family="Helvetica,sans-Serif" font-size="10.00">StringNodeImpl.h</text>
</a>
</g>
</g>
<!-- Node1&#45;&gt;Node19 -->
<g id="edge32" class="edge">
<title>Node1&#45;&gt;Node19</title>
<path fill="none" stroke="midnightblue" d="M807.22,-160.59C788.03,-136.87 753.24,-93.87 738.45,-75.59"/>
<polygon fill="midnightblue" stroke="midnightblue" points="804.51,-162.8 813.52,-168.37 809.95,-158.39 804.51,-162.8"/>
</g>
<!-- Node21 -->
<g id="node21" class="node">
<title>Node21</title>
<g id="a_node21"><a xlink:href="_structure_node_impl_8h.html" target="_top" xlink:title=" ">
<polygon fill="white" stroke="black" points="1287.5,-112.5 1287.5,-131.5 1395.5,-131.5 1395.5,-112.5 1287.5,-112.5"/>
<text text-anchor="middle" x="1341.5" y="-119.5" font-family="Helvetica,sans-Serif" font-size="10.00">StructureNodeImpl.h</text>
</a>
</g>
</g>
<!-- Node1&#45;&gt;Node21 -->
<g id="edge36" class="edge">
<title>Node1&#45;&gt;Node21</title>
<path fill="none" stroke="midnightblue" d="M864.83,-172.4C960.03,-162.54 1183.7,-139.36 1287.2,-128.63"/>
<polygon fill="midnightblue" stroke="midnightblue" points="864.27,-168.94 854.68,-173.46 864.99,-175.91 864.27,-168.94"/>
</g>
<!-- Node3 -->
<g id="node3" class="node">
<title>Node3</title>
<g id="a_node3"><a xlink:href="_blob_node_impl_8cpp.html" target="_top" xlink:title=" ">
<polygon fill="white" stroke="black" points="1302.5,-0.5 1302.5,-19.5 1400.5,-19.5 1400.5,-0.5 1302.5,-0.5"/>
<text text-anchor="middle" x="1351.5" y="-7.5" font-family="Helvetica,sans-Serif" font-size="10.00">BlobNodeImpl.cpp</text>
</a>
</g>
</g>
<!-- Node2&#45;&gt;Node3 -->
<g id="edge2" class="edge">
<title>Node2&#45;&gt;Node3</title>
<path fill="none" stroke="midnightblue" d="M1066.86,-56.34C1131.83,-45.99 1239.59,-28.83 1302.22,-18.85"/>
<polygon fill="midnightblue" stroke="midnightblue" points="1066.14,-52.91 1056.82,-57.94 1067.24,-59.82 1066.14,-52.91"/>
</g>
<!-- Node4 -->
<g id="node4" class="node">
<title>Node4</title>
<g id="a_node4"><a xlink:href="_e57_format_8cpp.html" target="_top" xlink:title=" ">
<polygon fill="white" stroke="black" points="708,-0.5 708,-19.5 793,-19.5 793,-0.5 708,-0.5"/>
<text text-anchor="middle" x="750.5" y="-7.5" font-family="Helvetica,sans-Serif" font-size="10.00">E57Format.cpp</text>
</a>
</g>
</g>
<!-- Node2&#45;&gt;Node4 -->
<g id="edge3" class="edge">
<title>Node2&#45;&gt;Node4</title>
<path fill="none" stroke="midnightblue" d="M961.12,-54.41C911.6,-44.2 837.64,-28.96 791.82,-19.52"/>
<polygon fill="midnightblue" stroke="midnightblue" points="960.48,-57.85 970.99,-56.44 961.9,-51 960.48,-57.85"/>
</g>
<!-- Node5 -->
<g id="node5" class="node">
<title>Node5</title>
<g id="a_node5"><a xlink:href="_e57_xml_parser_8cpp.html" target="_top" xlink:title=" ">
<polygon fill="white" stroke="black" points="811,-0.5 811,-19.5 910,-19.5 910,-0.5 811,-0.5"/>
<text text-anchor="middle" x="860.5" y="-7.5" font-family="Helvetica,sans-Serif" font-size="10.00">E57XmlParser.cpp</text>
</a>
</g>
</g>
<!-- Node2&#45;&gt;Node5 -->
<g id="edge4" class="edge">
<title>Node2&#45;&gt;Node5</title>
<path fill="none" stroke="midnightblue" d="M978.83,-53.04C950.23,-42.88 909.89,-28.55 884.47,-19.52"/>
<polygon fill="midnightblue" stroke="midnightblue" points="977.82,-56.39 988.42,-56.44 980.16,-49.8 977.82,-56.39"/>
</g>
<!-- Node6&#45;&gt;Node4 -->
<g id="edge10" class="edge">
<title>Node6&#45;&gt;Node4</title>
<path fill="none" stroke="midnightblue" d="M844.73,-52.37C821.69,-42.26 790.02,-28.35 769.9,-19.52"/>
<polygon fill="midnightblue" stroke="midnightblue" points="843.45,-55.63 854.01,-56.44 846.26,-49.22 843.45,-55.63"/>
</g>
<!-- Node6&#45;&gt;Node5 -->
<g id="edge11" class="edge">
<title>Node6&#45;&gt;Node5</title>
<path fill="none" stroke="midnightblue" d="M868.95,-46.1C866.79,-37.14 864.32,-26.86 862.61,-19.75"/>
<polygon fill="midnightblue" stroke="midnightblue" points="865.61,-47.18 871.35,-56.08 872.42,-45.54 865.61,-47.18"/>
</g>
<!-- Node7 -->
<g id="node7" class="node">
<title>Node7</title>
<g id="a_node7"><a xlink:href="_compressed_vector_node_impl_8cpp.html" target="_top" xlink:title=" ">
<polygon fill="white" stroke="black" points="1419,-0.5 1419,-19.5 1582,-19.5 1582,-0.5 1419,-0.5"/>
<text text-anchor="middle" x="1500.5" y="-7.5" font-family="Helvetica,sans-Serif" font-size="10.00">CompressedVectorNodeImpl.cpp</text>
</a>
</g>
</g>
<!-- Node6&#45;&gt;Node7 -->
<g id="edge6" class="edge">
<title>Node6&#45;&gt;Node7</title>
<path fill="none" stroke="midnightblue" d="M960.36,-55.94C1160.95,-37.56 1212.88,-37.59 1409.5,-20 1412.5,-19.73 1415.56,-19.45 1418.65,-19.17"/>
<polygon fill="midnightblue" stroke="midnightblue" points="960.02,-52.46 950.38,-56.86 960.66,-59.43 960.02,-52.46"/>
</g>
<!-- Node8 -->
<g id="node8" class="node">
<title>Node8</title>
<g id="a_node8"><a xlink:href="_compressed_vector_reader_impl_8cpp.html" target="_top" xlink:title=" ">
<polygon fill="white" stroke="black" points="1112.5,-0.5 1112.5,-19.5 1284.5,-19.5 1284.5,-0.5 1112.5,-0.5"/>
<text text-anchor="middle" x="1198.5" y="-7.5" font-family="Helvetica,sans-Serif" font-size="10.00">CompressedVectorReaderImpl.cpp</text>
</a>
</g>
</g>
<!-- Node6&#45;&gt;Node8 -->
<g id="edge7" class="edge">
<title>Node6&#45;&gt;Node8</title>
<path fill="none" stroke="midnightblue" d="M934.94,-54.79C996.36,-44.59 1089.7,-29.08 1147.24,-19.52"/>
<polygon fill="midnightblue" stroke="midnightblue" points="934.29,-51.35 925,-56.44 935.44,-58.26 934.29,-51.35"/>
</g>
<!-- Node9 -->
<g id="node9" class="node">
<title>Node9</title>
<g id="a_node9"><a xlink:href="_compressed_vector_writer_impl_8cpp.html" target="_top" xlink:title=" ">
<polygon fill="white" stroke="black" points="928.5,-0.5 928.5,-19.5 1094.5,-19.5 1094.5,-0.5 928.5,-0.5"/>
<text text-anchor="middle" x="1011.5" y="-7.5" font-family="Helvetica,sans-Serif" font-size="10.00">CompressedVectorWriterImpl.cpp</text>
</a>
</g>
</g>
<!-- Node6&#45;&gt;Node9 -->
<g id="edge8" class="edge">
<title>Node6&#45;&gt;Node9</title>
<path fill="none" stroke="midnightblue" d="M904.75,-52.77C930.67,-42.63 966.86,-28.47 989.74,-19.52"/>
<polygon fill="midnightblue" stroke="midnightblue" points="903.4,-49.54 895.37,-56.44 905.95,-56.06 903.4,-49.54"/>
</g>
<!-- Node10 -->
<g id="node10" class="node">
<title>Node10</title>
<g id="a_node10"><a xlink:href="_decoder_8cpp.html" target="_top" xlink:title=" ">
<polygon fill="white" stroke="black" points="246,-0.5 246,-19.5 319,-19.5 319,-0.5 246,-0.5"/>
<text text-anchor="middle" x="282.5" y="-7.5" font-family="Helvetica,sans-Serif" font-size="10.00">Decoder.cpp</text>
</a>
</g>
</g>
<!-- Node6&#45;&gt;Node10 -->
<g id="edge9" class="edge">
<title>Node6&#45;&gt;Node10</title>
<path fill="none" stroke="midnightblue" d="M786.45,-55.93C581.99,-37.67 527.98,-47.24 328.5,-20 325.44,-19.58 322.27,-19.09 319.09,-18.55"/>
<polygon fill="midnightblue" stroke="midnightblue" points="786.34,-59.44 796.62,-56.85 786.97,-52.47 786.34,-59.44"/>
</g>
<!-- Node11 -->
<g id="node11" class="node">
<title>Node11</title>
<g id="a_node11"><a xlink:href="_encoder_8cpp.html" target="_top" xlink:title=" ">
<polygon fill="white" stroke="black" points="337.5,-0.5 337.5,-19.5 409.5,-19.5 409.5,-0.5 337.5,-0.5"/>
<text text-anchor="middle" x="373.5" y="-7.5" font-family="Helvetica,sans-Serif" font-size="10.00">Encoder.cpp</text>
</a>
</g>
</g>
<!-- Node6&#45;&gt;Node11 -->
<g id="edge12" class="edge">
<title>Node6&#45;&gt;Node11</title>
<path fill="none" stroke="midnightblue" d="M786.62,-55.93C621.87,-39.6 578.31,-43.72 418.5,-20 415.66,-19.58 412.73,-19.1 409.79,-18.58"/>
<polygon fill="midnightblue" stroke="midnightblue" points="786.31,-59.41 796.61,-56.93 787.01,-52.45 786.31,-59.41"/>
</g>
<!-- Node12&#45;&gt;Node4 -->
<g id="edge15" class="edge">
<title>Node12&#45;&gt;Node4</title>
<path fill="none" stroke="midnightblue" d="M527.23,-54.53C579.91,-44.26 659.18,-28.8 707.72,-19.34"/>
<polygon fill="midnightblue" stroke="midnightblue" points="526.54,-51.09 517.39,-56.44 527.88,-57.97 526.54,-51.09"/>
</g>
<!-- Node12&#45;&gt;Node5 -->
<g id="edge16" class="edge">
<title>Node12&#45;&gt;Node5</title>
<path fill="none" stroke="midnightblue" d="M528.68,-55.87C650.68,-37.86 683.1,-36.81 801.5,-20 804.58,-19.56 807.74,-19.11 810.94,-18.64"/>
<polygon fill="midnightblue" stroke="midnightblue" points="527.94,-52.44 518.56,-57.37 528.97,-59.36 527.94,-52.44"/>
</g>
<!-- Node12&#45;&gt;Node10 -->
<g id="edge14" class="edge">
<title>Node12&#45;&gt;Node10</title>
<path fill="none" stroke="midnightblue" d="M433.53,-53.7C397.48,-43.51 345.26,-28.74 312.62,-19.52"/>
<polygon fill="midnightblue" stroke="midnightblue" points="432.66,-57.09 443.24,-56.44 434.56,-50.35 432.66,-57.09"/>
</g>
<!-- Node12&#45;&gt;Node11 -->
<g id="edge17" class="edge">
<title>Node12&#45;&gt;Node11</title>
<path fill="none" stroke="midnightblue" d="M448.41,-51.45C429.95,-41.48 405.4,-28.23 389.53,-19.65"/>
<polygon fill="midnightblue" stroke="midnightblue" points="446.97,-54.65 457.43,-56.32 450.3,-48.49 446.97,-54.65"/>
</g>
<!-- Node13 -->
<g id="node13" class="node">
<title>Node13</title>
<g id="a_node13"><a xlink:href="_float_node_impl_8cpp.html" target="_top" xlink:title=" ">
<polygon fill="white" stroke="black" points="127.5,-0.5 127.5,-19.5 227.5,-19.5 227.5,-0.5 127.5,-0.5"/>
<text text-anchor="middle" x="177.5" y="-7.5" font-family="Helvetica,sans-Serif" font-size="10.00">FloatNodeImpl.cpp</text>
</a>
</g>
</g>
<!-- Node12&#45;&gt;Node13 -->
<g id="edge18" class="edge">
<title>Node12&#45;&gt;Node13</title>
<path fill="none" stroke="midnightblue" d="M418.14,-54.9C362.24,-44.7 276.84,-29.12 224.24,-19.53"/>
<polygon fill="midnightblue" stroke="midnightblue" points="417.76,-58.39 428.22,-56.74 419.01,-51.5 417.76,-58.39"/>
</g>
<!-- Node14&#45;&gt;Node4 -->
<g id="edge21" class="edge">
<title>Node14&#45;&gt;Node4</title>
<path fill="none" stroke="midnightblue" d="M420.02,-55.96C544.97,-38.56 578.01,-38.19 698.5,-20 701.58,-19.53 704.76,-19.03 707.96,-18.52"/>
<polygon fill="midnightblue" stroke="midnightblue" points="419.48,-52.5 410.06,-57.35 420.45,-59.43 419.48,-52.5"/>
</g>
<!-- Node14&#45;&gt;Node5 -->
<g id="edge22" class="edge">
<title>Node14&#45;&gt;Node5</title>
<path fill="none" stroke="midnightblue" d="M420.11,-56C590.45,-35.34 635.47,-40.47 801.5,-20 804.59,-19.62 807.76,-19.2 810.95,-18.77"/>
<polygon fill="midnightblue" stroke="midnightblue" points="419.55,-52.54 410.05,-57.23 420.4,-59.49 419.55,-52.54"/>
</g>
<!-- Node14&#45;&gt;Node10 -->
<g id="edge20" class="edge">
<title>Node14&#45;&gt;Node10</title>
<path fill="none" stroke="midnightblue" d="M339.73,-50.62C325.48,-40.76 307.04,-27.99 295,-19.65"/>
<polygon fill="midnightblue" stroke="midnightblue" points="337.75,-53.51 347.97,-56.32 341.74,-47.75 337.75,-53.51"/>
</g>
<!-- Node14&#45;&gt;Node11 -->
<g id="edge23" class="edge">
<title>Node14&#45;&gt;Node11</title>
<path fill="none" stroke="midnightblue" d="M365.05,-46.1C367.21,-37.14 369.68,-26.86 371.39,-19.75"/>
<polygon fill="midnightblue" stroke="midnightblue" points="361.58,-45.54 362.65,-56.08 368.39,-47.18 361.58,-45.54"/>
</g>
<!-- Node15 -->
<g id="node15" class="node">
<title>Node15</title>
<g id="a_node15"><a xlink:href="_integer_node_impl_8cpp.html" target="_top" xlink:title=" ">
<polygon fill="white" stroke="black" points="0,-0.5 0,-19.5 109,-19.5 109,-0.5 0,-0.5"/>
<text text-anchor="middle" x="54.5" y="-7.5" font-family="Helvetica,sans-Serif" font-size="10.00">IntegerNodeImpl.cpp</text>
</a>
</g>
</g>
<!-- Node14&#45;&gt;Node15 -->
<g id="edge24" class="edge">
<title>Node14&#45;&gt;Node15</title>
<path fill="none" stroke="midnightblue" d="M301.93,-54.66C244.1,-44.46 156.72,-29.04 102.76,-19.52"/>
<polygon fill="midnightblue" stroke="midnightblue" points="301.56,-58.15 312.01,-56.44 302.77,-51.26 301.56,-58.15"/>
</g>
<!-- Node17&#45;&gt;Node4 -->
<g id="edge28" class="edge">
<title>Node17&#45;&gt;Node4</title>
<path fill="none" stroke="midnightblue" d="M634.87,-52.91C662.88,-42.75 702.2,-28.51 727,-19.52"/>
<polygon fill="midnightblue" stroke="midnightblue" points="633.32,-49.75 625.11,-56.44 635.7,-56.33 633.32,-49.75"/>
</g>
<!-- Node17&#45;&gt;Node5 -->
<g id="edge29" class="edge">
<title>Node17&#45;&gt;Node5</title>
<path fill="none" stroke="midnightblue" d="M652.6,-54.35C701.55,-44.14 774.45,-28.94 819.65,-19.52"/>
<polygon fill="midnightblue" stroke="midnightblue" points="651.61,-50.98 642.54,-56.44 653.04,-57.83 651.61,-50.98"/>
</g>
<!-- Node17&#45;&gt;Node10 -->
<g id="edge27" class="edge">
<title>Node17&#45;&gt;Node10</title>
<path fill="none" stroke="midnightblue" d="M536.75,-54.88C481.37,-46.1 399.6,-32.81 328.5,-20 325.46,-19.45 322.3,-18.87 319.14,-18.27"/>
<polygon fill="midnightblue" stroke="midnightblue" points="536.35,-58.36 546.77,-56.47 537.44,-51.45 536.35,-58.36"/>
</g>
<!-- Node17&#45;&gt;Node11 -->
<g id="edge30" class="edge">
<title>Node17&#45;&gt;Node11</title>
<path fill="none" stroke="midnightblue" d="M555.43,-54.09C512.35,-43.89 448.91,-28.86 409.46,-19.52"/>
<polygon fill="midnightblue" stroke="midnightblue" points="554.84,-57.54 565.37,-56.44 556.45,-50.73 554.84,-57.54"/>
</g>
<!-- Node18 -->
<g id="node18" class="node">
<title>Node18</title>
<g id="a_node18"><a xlink:href="_scaled_integer_node_impl_8cpp.html" target="_top" xlink:title=" ">
<polygon fill="white" stroke="black" points="427.5,-0.5 427.5,-19.5 567.5,-19.5 567.5,-0.5 427.5,-0.5"/>
<text text-anchor="middle" x="497.5" y="-7.5" font-family="Helvetica,sans-Serif" font-size="10.00">ScaledIntegerNodeImpl.cpp</text>
</a>
</g>
</g>
<!-- Node17&#45;&gt;Node18 -->
<g id="edge31" class="edge">
<title>Node17&#45;&gt;Node18</title>
<path fill="none" stroke="midnightblue" d="M575.67,-51.59C556.44,-41.61 530.76,-28.27 514.17,-19.65"/>
<polygon fill="midnightblue" stroke="midnightblue" points="574.3,-54.82 584.79,-56.32 577.53,-48.61 574.3,-54.82"/>
</g>
<!-- Node19&#45;&gt;Node4 -->
<g id="edge33" class="edge">
<title>Node19&#45;&gt;Node4</title>
<path fill="none" stroke="midnightblue" d="M738.05,-46.4C741.22,-37.36 744.89,-26.94 747.42,-19.75"/>
<polygon fill="midnightblue" stroke="midnightblue" points="734.65,-45.49 734.64,-56.08 741.26,-47.81 734.65,-45.49"/>
</g>
<!-- Node19&#45;&gt;Node5 -->
<g id="edge34" class="edge">
<title>Node19&#45;&gt;Node5</title>
<path fill="none" stroke="midnightblue" d="M761.35,-52.5C785.54,-42.38 818.96,-28.39 840.16,-19.52"/>
<polygon fill="midnightblue" stroke="midnightblue" points="759.81,-49.35 751.94,-56.44 762.52,-55.81 759.81,-49.35"/>
</g>
<!-- Node20 -->
<g id="node20" class="node">
<title>Node20</title>
<g id="a_node20"><a xlink:href="_string_node_impl_8cpp.html" target="_top" xlink:title=" ">
<polygon fill="white" stroke="black" points="585.5,-0.5 585.5,-19.5 689.5,-19.5 689.5,-0.5 585.5,-0.5"/>
<text text-anchor="middle" x="637.5" y="-7.5" font-family="Helvetica,sans-Serif" font-size="10.00">StringNodeImpl.cpp</text>
</a>
</g>
</g>
<!-- Node19&#45;&gt;Node20 -->
<g id="edge35" class="edge">
<title>Node19&#45;&gt;Node20</title>
<path fill="none" stroke="midnightblue" d="M707.44,-51.18C690.14,-41.24 667.35,-28.15 652.57,-19.65"/>
<polygon fill="midnightblue" stroke="midnightblue" points="705.98,-54.38 716.4,-56.32 709.47,-48.31 705.98,-54.38"/>
</g>
<!-- Node22 -->
<g id="node22" class="node">
<title>Node22</title>
<g id="a_node22"><a xlink:href="_image_file_impl_8cpp.html" target="_top" xlink:title=" ">
<polygon fill="white" stroke="black" points="1350.5,-56.5 1350.5,-75.5 1448.5,-75.5 1448.5,-56.5 1350.5,-56.5"/>
<text text-anchor="middle" x="1399.5" y="-63.5" font-family="Helvetica,sans-Serif" font-size="10.00">ImageFileImpl.cpp</text>
</a>
</g>
</g>
<!-- Node21&#45;&gt;Node22 -->
<g id="edge37" class="edge">
<title>Node21&#45;&gt;Node22</title>
<path fill="none" stroke="midnightblue" d="M1358.41,-105.25C1368.7,-95.67 1381.47,-83.79 1390.01,-75.83"/>
<polygon fill="midnightblue" stroke="midnightblue" points="1355.75,-102.95 1350.82,-112.32 1360.52,-108.07 1355.75,-102.95"/>
</g>
<!-- Node23 -->
<g id="node23" class="node">
<title>Node23</title>
<g id="a_node23"><a xlink:href="_structure_node_impl_8cpp.html" target="_top" xlink:title=" ">
<polygon fill="white" stroke="black" points="1467,-56.5 1467,-75.5 1586,-75.5 1586,-56.5 1467,-56.5"/>
<text text-anchor="middle" x="1526.5" y="-63.5" font-family="Helvetica,sans-Serif" font-size="10.00">StructureNodeImpl.cpp</text>
</a>
</g>
</g>
<!-- Node21&#45;&gt;Node23 -->
<g id="edge38" class="edge">
<title>Node21&#45;&gt;Node23</title>
<path fill="none" stroke="midnightblue" d="M1380.67,-109.57C1415.57,-99.38 1465.85,-84.7 1497.32,-75.52"/>
<polygon fill="midnightblue" stroke="midnightblue" points="1379.43,-106.28 1370.81,-112.44 1381.39,-113 1379.43,-106.28"/>
</g>
<!-- Node24 -->
<g id="node24" class="node">
<title>Node24</title>
<g id="a_node24"><a xlink:href="_vector_node_impl_8h.html" target="_top" xlink:title=" ">
<polygon fill="white" stroke="black" points="1236.5,-56.5 1236.5,-75.5 1332.5,-75.5 1332.5,-56.5 1236.5,-56.5"/>
<text text-anchor="middle" x="1284.5" y="-63.5" font-family="Helvetica,sans-Serif" font-size="10.00">VectorNodeImpl.h</text>
</a>
</g>
</g>
<!-- Node21&#45;&gt;Node24 -->
<g id="edge39" class="edge">
<title>Node21&#45;&gt;Node24</title>
<path fill="none" stroke="midnightblue" d="M1324.88,-105.25C1314.77,-95.67 1302.22,-83.79 1293.82,-75.83"/>
<polygon fill="midnightblue" stroke="midnightblue" points="1322.68,-107.99 1332.34,-112.32 1327.49,-102.91 1322.68,-107.99"/>
</g>
<!-- Node24&#45;&gt;Node4 -->
<g id="edge41" class="edge">
<title>Node24&#45;&gt;Node4</title>
<path fill="none" stroke="midnightblue" d="M1226.26,-61.12C1135.32,-54.71 954.2,-40.55 801.5,-20 798.74,-19.63 795.9,-19.21 793.04,-18.77"/>
<polygon fill="midnightblue" stroke="midnightblue" points="1226.14,-64.62 1236.36,-61.83 1226.63,-57.64 1226.14,-64.62"/>
</g>
<!-- Node24&#45;&gt;Node5 -->
<g id="edge42" class="edge">
<title>Node24&#45;&gt;Node5</title>
<path fill="none" stroke="midnightblue" d="M1226.08,-58.32C1153.95,-49.95 1027.56,-34.9 919.5,-20 916.42,-19.58 913.25,-19.13 910.06,-18.67"/>
<polygon fill="midnightblue" stroke="midnightblue" points="1225.98,-61.83 1236.32,-59.51 1226.79,-54.88 1225.98,-61.83"/>
</g>
<!-- Node24&#45;&gt;Node7 -->
<g id="edge40" class="edge">
<title>Node24&#45;&gt;Node7</title>
<path fill="none" stroke="midnightblue" d="M1328.66,-53.96C1369.46,-43.76 1429.21,-28.82 1466.43,-19.52"/>
<polygon fill="midnightblue" stroke="midnightblue" points="1327.58,-50.62 1318.73,-56.44 1329.28,-57.41 1327.58,-50.62"/>
</g>
<!-- Node24&#45;&gt;Node16 -->
<g id="edge43" class="edge">
<title>Node24&#45;&gt;Node16</title>
<path fill="none" stroke="midnightblue" d="M1342.77,-55.91C1509.33,-35.25 1553.96,-42.99 1716.5,-20 1719.35,-19.6 1722.3,-19.14 1725.25,-18.65"/>
<polygon fill="midnightblue" stroke="midnightblue" points="1342.16,-52.46 1332.67,-57.18 1343.03,-59.41 1342.16,-52.46"/>
</g>
<!-- Node25 -->
<g id="node25" class="node">
<title>Node25</title>
<g id="a_node25"><a xlink:href="_vector_node_impl_8cpp.html" target="_top" xlink:title=" ">
<polygon fill="white" stroke="black" points="1600,-0.5 1600,-19.5 1707,-19.5 1707,-0.5 1600,-0.5"/>
<text text-anchor="middle" x="1653.5" y="-7.5" font-family="Helvetica,sans-Serif" font-size="10.00">VectorNodeImpl.cpp</text>
</a>
</g>
</g>
<!-- Node24&#45;&gt;Node25 -->
<g id="edge44" class="edge">
<title>Node24&#45;&gt;Node25</title>
<path fill="none" stroke="midnightblue" d="M1342.66,-55.84C1454.15,-39.06 1483.54,-35.61 1591.5,-20 1594.19,-19.61 1596.95,-19.21 1599.73,-18.81"/>
<polygon fill="midnightblue" stroke="midnightblue" points="1342.06,-52.39 1332.69,-57.34 1343.11,-59.31 1342.06,-52.39"/>
</g>
</g>
</svg>
        <g id="navigator" transform="translate(0 0)" fill="#404254">
                <rect fill="#f2f5e9" fill-opacity="0.5" stroke="#606060" stroke-width=".5" x="0" y="0" width="60" height="60"/>
                <use id="zoomplus" xlink:href="#zoomPlus" x="17" y="9" onmousedown="handleZoom(evt,'in')"/>
                <use id="zoomminus" xlink:href="#zoomMin" x="42" y="9" onmousedown="handleZoom(evt,'out')"/>
                <use id="reset" xlink:href="#resetDef" x="30" y="36" onmousedown="handleReset()"/>
                <g id="arrowUp" xlink:href="#dirArrow" transform="translate(30 24)" onmousedown="handlePan(0,-1)">
                  <use xlink:href="#rim" fill="#404040">
                        <set attributeName="fill" to="#808080" begin="arrowUp.mouseover" end="arrowUp.mouseout"/>
                  </use>
                  <path fill="none" stroke="white" stroke-width="1.5" d="M0,-3.0v7 M-2.5,-0.5L0,-3.0L2.5,-0.5"/>
                </g>
                <g id="arrowRight" xlink:href="#dirArrow" transform="rotate(90) translate(36 -43)" onmousedown="handlePan(1,0)">
                  <use xlink:href="#rim" fill="#404040">
                        <set attributeName="fill" to="#808080" begin="arrowRight.mouseover" end="arrowRight.mouseout"/>
                  </use>
                  <path fill="none" stroke="white" stroke-width="1.5" d="M0,-3.0v7 M-2.5,-0.5L0,-3.0L2.5,-0.5"/>
                </g>
                <g id="arrowDown" xlink:href="#dirArrow" transform="rotate(180) translate(-30 -48)" onmousedown="handlePan(0,1)">
                  <use xlink:href="#rim" fill="#404040">
                        <set attributeName="fill" to="#808080" begin="arrowDown.mouseover" end="arrowDown.mouseout"/>
                  </use>
                  <path fill="none" stroke="white" stroke-width="1.5" d="M0,-3.0v7 M-2.5,-0.5L0,-3.0L2.5,-0.5"/>
                </g>
                <g id="arrowLeft" xlink:href="#dirArrow" transform="rotate(270) translate(-36 17)" onmousedown="handlePan(-1,0)">
                  <use xlink:href="#rim" fill="#404040">
                        <set attributeName="fill" to="#808080" begin="arrowLeft.mouseover" end="arrowLeft.mouseout"/>
                  </use>
                  <path fill="none" stroke="white" stroke-width="1.5" d="M0,-3.0v7 M-2.5,-0.5L0,-3.0L2.5,-0.5"/>
                </g>
        </g>
        <svg viewBox="0 0 15 15" width="100%" height="30px" preserveAspectRatio="xMaxYMin meet">
         <g id="arrow_out" transform="scale(0.3 0.3)">
          <a xlink:href="_node_impl_8h__dep__incl_org.svg" target="_base">
           <rect id="button" ry="5" rx="5" y="6" x="6" height="38" width="38"
                fill="#f2f5e9" fill-opacity="0.5" stroke="#606060" stroke-width="1.0"/>
           <path id="arrow"
             d="M 11.500037,31.436501 C 11.940474,20.09759 22.043105,11.32322 32.158766,21.979434 L 37.068811,17.246167 C 37.068811,17.246167 37.088388,32 37.088388,32 L 22.160133,31.978069 C 22.160133,31.978069 26.997745,27.140456 26.997745,27.140456 C 18.528582,18.264221 13.291696,25.230495 11.500037,31.436501 z"
             style="fill:#404040;"/>
          </a>
         </g>
        </svg>
</svg>
