<?xml version="1.0" encoding="UTF-8" standalone="no"?>
<!DOCTYPE svg PUBLIC "-//W3C//DTD SVG 1.1//EN"
 "http://www.w3.org/Graphics/SVG/1.1/DTD/svg11.dtd">
<!-- Generated by graphviz version 2.48.0 (20210717.1556)
 -->
<!-- Title: NodeImpl.h Pages: 1 -->
<!--zoomable 196 -->
<svg id="main" version="1.1" xmlns="http://www.w3.org/2000/svg" xmlns:xlink="http://www.w3.org/1999/xlink" xml:space="preserve" onload="init(evt)">
<style type="text/css"><![CDATA[
.edge:hover path { stroke: red; }
.edge:hover polygon { stroke: red; fill: red; }
]]></style>
<script type="text/javascript"><![CDATA[
var edges = document.getElementsByTagName('g');
if (edges && edges.length) {
  for (var i=0;i<edges.length;i++) {
    if (edges[i].id.substr(0,4)=='edge') {
      edges[i].setAttribute('class','edge');
    }
  }
}
]]></script>
        <defs>
                <circle id="rim" cx="0" cy="0" r="7"/>
                <circle id="rim2" cx="0" cy="0" r="3.5"/>
                <g id="zoomPlus">
                        <use xlink:href="#rim" fill="#404040">
                                <set attributeName="fill" to="#808080" begin="zoomplus.mouseover" end="zoomplus.mouseout"/>
                        </use>
                        <path d="M-4,0h8M0,-4v8" fill="none" stroke="white" stroke-width="1.5" pointer-events="none"/>
                </g>
                <g id="zoomMin">
                        <use xlink:href="#rim" fill="#404040">
                                <set attributeName="fill" to="#808080" begin="zoomminus.mouseover" end="zoomminus.mouseout"/>
                        </use>
                        <path d="M-4,0h8" fill="none" stroke="white" stroke-width="1.5" pointer-events="none"/>
                </g>
                <g id="dirArrow">
                        <path fill="none" stroke="white" stroke-width="1.5" d="M0,-3.0v7 M-2.5,-0.5L0,-3.0L2.5,-0.5"/>
                </g>
               <g id="resetDef">
                       <use xlink:href="#rim2" fill="#404040">
                               <set attributeName="fill" to="#808080" begin="reset.mouseover" end="reset.mouseout"/>
                       </use>
               </g>
        </defs>

<script type="text/javascript">
var viewWidth = 1812;
var viewHeight = 196;
var sectionId = 'dynsection-1';
</script>
<script xlink:href="svgpan.js"/>
<svg id="graph" class="graph">
<g id="viewport">
<title>NodeImpl.h</title>
<polygon fill="white" stroke="transparent" points="-4,4 -4,-192 1807.5,-192 1807.5,4 -4,4"/>
<!-- Node1 -->
<g id="node1" class="node">
<title>Node1</title>
<g id="a_node1"><a xlink:title=" ">
<polygon fill="#bfbfbf" stroke="black" points="789.5,-168.5 789.5,-187.5 857.5,-187.5 857.5,-168.5 789.5,-168.5"/>
<text text-anchor="middle" x="823.5" y="-175.5" font-family="Helvetica,sans-Serif" font-size="10.00">NodeImpl.h</text>
</a>
</g>
</g>
<!-- Node2 -->
<g id="node2" class="node">
<title>Node2</title>
<g id="a_node2"><a xlink:href="_blob_node_impl_8h.html" target="_top" xlink:title=" ">
<polygon fill="white" stroke="black" points="971.5,-56.5 971.5,-75.5 1059.5,-75.5 1059.5,-56.5 971.5,-56.5"/>
<text text-anchor="middle" x="1015.5" y="-63.5" font-family="Helvetica,sans-Serif" font-size="10.00">BlobNodeImpl.h</text>
</a>
</g>
</g>
<!-- Node1&#45;&gt;Node2 -->
<g id="edge1" class="edge">
<title>Node1&#45;&gt;Node2</title>
<path fill="none" stroke="midnightblue" d="M847.41,-163.3C887.55,-140.3 967.34,-94.59 1000.5,-75.59"/>
<polygon fill="midnightblue" stroke="midnightblue" points="845.5,-160.36 838.57,-168.37 848.98,-166.43 845.5,-160.36"/>
</g>
<!-- Node6 -->
<g id="node6" class="node">
<title>Node6</title>
<g id="a_node6"><a xlink:href="_compressed_vector_node_impl_8h.html" target="_top" xlink:title=" ">
<polygon fill="white" stroke="black" points="800,-56.5 800,-75.5 953,-75.5 953,-56.5 800,-56.5"/>
<text text-anchor="middle" x="876.5" y="-63.5" font-family="Helvetica,sans-Serif" font-size="10.00">CompressedVectorNodeImpl.h</text>
</a>
</g>
</g>
<!-- Node1&#45;&gt;Node6 -->
<g id="edge5" class="edge">
<title>Node1&#45;&gt;Node6</title>
<path fill="none" stroke="midnightblue" d="M832.02,-159.32C843.56,-135.37 863.71,-93.55 872.36,-75.59"/>
<polygon fill="midnightblue" stroke="midnightblue" points="828.85,-157.84 827.66,-168.37 835.15,-160.88 828.85,-157.84"/>
</g>
<!-- Node12 -->
<g id="node12" class="node">
<title>Node12</title>
<g id="a_node12"><a xlink:href="_float_node_impl_8h.html" target="_top" xlink:title=" ">
<polygon fill="white" stroke="black" points="431.5,-56.5 431.5,-75.5 521.5,-75.5 521.5,-56.5 431.5,-56.5"/>
<text text-anchor="middle" x="476.5" y="-63.5" font-family="Helvetica,sans-Serif" font-size="10.00">FloatNodeImpl.h</text>
</a>
</g>
</g>
<!-- Node1&#45;&gt;Node12 -->
<g id="edge13" class="edge">
<title>Node1&#45;&gt;Node12</title>
<path fill="none" stroke="midnightblue" d="M786.84,-165.38C716.81,-143.18 565.5,-95.21 503.66,-75.61"/>
<polygon fill="midnightblue" stroke="midnightblue" points="785.97,-168.77 796.56,-168.46 788.09,-162.1 785.97,-168.77"/>
</g>
<!-- Node14 -->
<g id="node14" class="node">
<title>Node14</title>
<g id="a_node14"><a xlink:href="_integer_node_impl_8h.html" target="_top" xlink:title=" ">
<polygon fill="white" stroke="black" points="314,-56.5 314,-75.5 413,-75.5 413,-56.5 314,-56.5"/>
<text text-anchor="middle" x="363.5" y="-63.5" font-family="Helvetica,sans-Serif" font-size="10.00">IntegerNodeImpl.h</text>
</a>
</g>
</g>
<!-- Node1&#45;&gt;Node14 -->
<g id="edge19" class="edge">
<title>Node1&#45;&gt;Node14</title>
<path fill="none" stroke="midnightblue" d="M779.23,-167.95C737.04,-159.2 671.79,-145.34 615.5,-132 535.71,-113.09 442.39,-88.32 394.83,-75.5"/>
<polygon fill="midnightblue" stroke="midnightblue" points="778.68,-171.41 789.18,-170.01 780.09,-164.55 778.68,-171.41"/>
</g>
<!-- Node16 -->
<g id="node16" class="node">
<title>Node16</title>
<g id="a_node16"><a xlink:href="_node_impl_8cpp.html" target="_top" xlink:title=" ">
<polygon fill="white" stroke="black" points="1725.5,-0.5 1725.5,-19.5 1803.5,-19.5 1803.5,-0.5 1725.5,-0.5"/>
<text text-anchor="middle" x="1764.5" y="-7.5" font-family="Helvetica,sans-Serif" font-size="10.00">NodeImpl.cpp</text>
</a>
</g>
</g>
<!-- Node1&#45;&gt;Node16 -->
<g id="edge25" class="edge">
<title>Node1&#45;&gt;Node16</title>
<path fill="none" stroke="midnightblue" d="M867.63,-176.7C965.24,-175.35 1206.47,-168.29 1404.5,-132 1491.51,-116.05 1511.7,-104.35 1595.5,-76 1649.7,-57.67 1712.25,-32.55 1743.89,-19.56"/>
<polygon fill="midnightblue" stroke="midnightblue" points="867.5,-173.2 857.54,-176.82 867.59,-180.2 867.5,-173.2"/>
</g>
<!-- Node17 -->
<g id="node17" class="node">
<title>Node17</title>
<g id="a_node17"><a xlink:href="_scaled_integer_node_impl_8h.html" target="_top" xlink:title=" ">
<polygon fill="white" stroke="black" points="540,-56.5 540,-75.5 669,-75.5 669,-56.5 540,-56.5"/>
<text text-anchor="middle" x="604.5" y="-63.5" font-family="Helvetica,sans-Serif" font-size="10.00">ScaledIntegerNodeImpl.h</text>
</a>
</g>
</g>
<!-- Node1&#45;&gt;Node17 -->
<g id="edge26" class="edge">
<title>Node1&#45;&gt;Node17</title>
<path fill="none" stroke="midnightblue" d="M797.38,-163.88C751.98,-141.08 659.75,-94.75 621.6,-75.59"/>
<polygon fill="midnightblue" stroke="midnightblue" points="795.81,-167.01 806.32,-168.37 798.95,-160.75 795.81,-167.01"/>
</g>
<!-- Node19 -->
<g id="node19" class="node">
<title>Node19</title>
<g id="a_node19"><a xlink:href="_string_node_impl_8h.html" target="_top" xlink:title=" ">
<polygon fill="white" stroke="black" points="687.5,-56.5 687.5,-75.5 781.5,-75.5 781.5,-56.5 687.5,-56.5"/>
<text text-anchor="middle" x="734.5" y="-63.5" font-family="Helvetica,sans-Serif" font-size="10.00">StringNodeImpl.h</text>
</a>
</g>
</g>
<!-- Node1&#45;&gt;Node19 -->
<g id="edge32" class="edge">
<title>Node1&#45;&gt;Node19</title>
<path fill="none" stroke="midnightblue" d="M810.22,-160.59C791.03,-136.87 756.24,-93.87 741.45,-75.59"/>
<polygon fill="midnightblue" stroke="midnightblue" points="807.51,-162.8 816.52,-168.37 812.95,-158.39 807.51,-162.8"/>
</g>
<!-- Node21 -->
<g id="node21" class="node">
<title>Node21</title>
<g id="a_node21"><a xlink:href="_structure_node_impl_8h.html" target="_top" xlink:title=" ">
<polygon fill="white" stroke="black" points="1287.5,-112.5 1287.5,-131.5 1395.5,-131.5 1395.5,-112.5 1287.5,-112.5"/>
<text text-anchor="middle" x="1341.5" y="-119.5" font-family="Helvetica,sans-Serif" font-size="10.00">StructureNodeImpl.h</text>
</a>
</g>
</g>
<!-- Node1&#45;&gt;Node21 -->
<g id="edge36" class="edge">
<title>Node1&#45;&gt;Node21</title>
<path fill="none" stroke="midnightblue" d="M868,-172.36C962.79,-162.48 1184.34,-139.38 1287.22,-128.66"/>
<polygon fill="midnightblue" stroke="midnightblue" points="867.47,-168.9 857.89,-173.42 868.2,-175.86 867.47,-168.9"/>
</g>
<!-- Node3 -->
<g id="node3" class="node">
<title>Node3</title>
<g id="a_node3"><a xlink:href="_blob_node_impl_8cpp.html" target="_top" xlink:title=" ">
<polygon fill="white" stroke="black" points="1302.5,-0.5 1302.5,-19.5 1400.5,-19.5 1400.5,-0.5 1302.5,-0.5"/>
<text text-anchor="middle" x="1351.5" y="-7.5" font-family="Helvetica,sans-Serif" font-size="10.00">BlobNodeImpl.cpp</text>
</a>
</g>
</g>
<!-- Node2&#45;&gt;Node3 -->
<g id="edge2" class="edge">
<title>Node2&#45;&gt;Node3</title>
<path fill="none" stroke="midnightblue" d="M1069.73,-56.28C1134.1,-45.94 1240.5,-28.84 1302.49,-18.88"/>
<polygon fill="midnightblue" stroke="midnightblue" points="1069.09,-52.84 1059.77,-57.88 1070.2,-59.75 1069.09,-52.84"/>
</g>
<!-- Node4 -->
<g id="node4" class="node">
<title>Node4</title>
<g id="a_node4"><a xlink:href="_e57_xml_parser_8cpp.html" target="_top" xlink:title=" ">
<polygon fill="white" stroke="black" points="708,-0.5 708,-19.5 807,-19.5 807,-0.5 708,-0.5"/>
<text text-anchor="middle" x="757.5" y="-7.5" font-family="Helvetica,sans-Serif" font-size="10.00">E57XmlParser.cpp</text>
</a>
</g>
</g>
<!-- Node2&#45;&gt;Node4 -->
<g id="edge3" class="edge">
<title>Node2&#45;&gt;Node4</title>
<path fill="none" stroke="midnightblue" d="M964.6,-54.35C915.84,-44.14 843.21,-28.94 798.19,-19.52"/>
<polygon fill="midnightblue" stroke="midnightblue" points="964.11,-57.82 974.62,-56.44 965.55,-50.97 964.11,-57.82"/>
</g>
<!-- Node5 -->
<g id="node5" class="node">
<title>Node5</title>
<g id="a_node5"><a xlink:href="_e57_format_8cpp.html" target="_top" xlink:title=" ">
<polygon fill="white" stroke="black" points="825,-0.5 825,-19.5 910,-19.5 910,-0.5 825,-0.5"/>
<text text-anchor="middle" x="867.5" y="-7.5" font-family="Helvetica,sans-Serif" font-size="10.00">E57Format.cpp</text>
</a>
</g>
</g>
<!-- Node2&#45;&gt;Node5 -->
<g id="edge4" class="edge">
<title>Node2&#45;&gt;Node5</title>
<path fill="none" stroke="midnightblue" d="M982.35,-52.91C954.53,-42.75 915.48,-28.51 890.84,-19.52"/>
<polygon fill="midnightblue" stroke="midnightblue" points="981.46,-56.3 992.05,-56.44 983.85,-49.73 981.46,-56.3"/>
</g>
<!-- Node6&#45;&gt;Node4 -->
<g id="edge11" class="edge">
<title>Node6&#45;&gt;Node4</title>
<path fill="none" stroke="midnightblue" d="M848.36,-52.23C826.1,-42.13 795.64,-28.31 776.27,-19.52"/>
<polygon fill="midnightblue" stroke="midnightblue" points="847.09,-55.5 857.64,-56.44 849.98,-49.12 847.09,-55.5"/>
</g>
<!-- Node6&#45;&gt;Node5 -->
<g id="edge12" class="edge">
<title>Node6&#45;&gt;Node5</title>
<path fill="none" stroke="midnightblue" d="M873.35,-46.1C871.86,-37.14 870.14,-26.86 868.96,-19.75"/>
<polygon fill="midnightblue" stroke="midnightblue" points="869.92,-46.79 875.01,-56.08 876.82,-45.64 869.92,-46.79"/>
</g>
<!-- Node7 -->
<g id="node7" class="node">
<title>Node7</title>
<g id="a_node7"><a xlink:href="_compressed_vector_node_impl_8cpp.html" target="_top" xlink:title=" ">
<polygon fill="white" stroke="black" points="1419,-0.5 1419,-19.5 1582,-19.5 1582,-0.5 1419,-0.5"/>
<text text-anchor="middle" x="1500.5" y="-7.5" font-family="Helvetica,sans-Serif" font-size="10.00">CompressedVectorNodeImpl.cpp</text>
</a>
</g>
</g>
<!-- Node6&#45;&gt;Node7 -->
<g id="edge6" class="edge">
<title>Node6&#45;&gt;Node7</title>
<path fill="none" stroke="midnightblue" d="M963.59,-55.92C1162.66,-37.63 1214.28,-37.51 1409.5,-20 1412.5,-19.73 1415.56,-19.45 1418.65,-19.17"/>
<polygon fill="midnightblue" stroke="midnightblue" points="963.02,-52.46 953.39,-56.86 963.66,-59.43 963.02,-52.46"/>
</g>
<!-- Node8 -->
<g id="node8" class="node">
<title>Node8</title>
<g id="a_node8"><a xlink:href="_compressed_vector_reader_impl_8cpp.html" target="_top" xlink:title=" ">
<polygon fill="white" stroke="black" points="1112.5,-0.5 1112.5,-19.5 1284.5,-19.5 1284.5,-0.5 1112.5,-0.5"/>
<text text-anchor="middle" x="1198.5" y="-7.5" font-family="Helvetica,sans-Serif" font-size="10.00">CompressedVectorReaderImpl.cpp</text>
</a>
</g>
</g>
<!-- Node6&#45;&gt;Node8 -->
<g id="edge7" class="edge">
<title>Node6&#45;&gt;Node8</title>
<path fill="none" stroke="midnightblue" d="M937.75,-54.73C998.6,-44.52 1090.82,-29.06 1147.72,-19.52"/>
<polygon fill="midnightblue" stroke="midnightblue" points="936.81,-51.34 927.52,-56.44 937.96,-58.24 936.81,-51.34"/>
</g>
<!-- Node9 -->
<g id="node9" class="node">
<title>Node9</title>
<g id="a_node9"><a xlink:href="_compressed_vector_writer_impl_8cpp.html" target="_top" xlink:title=" ">
<polygon fill="white" stroke="black" points="928.5,-0.5 928.5,-19.5 1094.5,-19.5 1094.5,-0.5 928.5,-0.5"/>
<text text-anchor="middle" x="1011.5" y="-7.5" font-family="Helvetica,sans-Serif" font-size="10.00">CompressedVectorWriterImpl.cpp</text>
</a>
</g>
</g>
<!-- Node6&#45;&gt;Node9 -->
<g id="edge8" class="edge">
<title>Node6&#45;&gt;Node9</title>
<path fill="none" stroke="midnightblue" d="M907.41,-52.64C932.74,-42.5 967.93,-28.43 990.21,-19.52"/>
<polygon fill="midnightblue" stroke="midnightblue" points="905.88,-49.48 897.89,-56.44 908.48,-55.98 905.88,-49.48"/>
</g>
<!-- Node10 -->
<g id="node10" class="node">
<title>Node10</title>
<g id="a_node10"><a xlink:href="_decoder_8cpp.html" target="_top" xlink:title=" ">
<polygon fill="white" stroke="black" points="246,-0.5 246,-19.5 319,-19.5 319,-0.5 246,-0.5"/>
<text text-anchor="middle" x="282.5" y="-7.5" font-family="Helvetica,sans-Serif" font-size="10.00">Decoder.cpp</text>
</a>
</g>
</g>
<!-- Node6&#45;&gt;Node10 -->
<g id="edge9" class="edge">
<title>Node6&#45;&gt;Node10</title>
<path fill="none" stroke="midnightblue" d="M789.38,-55.93C583.65,-37.61 529.28,-47.37 328.5,-20 325.44,-19.58 322.27,-19.09 319.09,-18.56"/>
<polygon fill="midnightblue" stroke="midnightblue" points="789.34,-59.44 799.62,-56.85 789.97,-52.47 789.34,-59.44"/>
</g>
<!-- Node11 -->
<g id="node11" class="node">
<title>Node11</title>
<g id="a_node11"><a xlink:href="_encoder_8cpp.html" target="_top" xlink:title=" ">
<polygon fill="white" stroke="black" points="337.5,-0.5 337.5,-19.5 409.5,-19.5 409.5,-0.5 337.5,-0.5"/>
<text text-anchor="middle" x="373.5" y="-7.5" font-family="Helvetica,sans-Serif" font-size="10.00">Encoder.cpp</text>
</a>
</g>
</g>
<!-- Node6&#45;&gt;Node11 -->
<g id="edge10" class="edge">
<title>Node6&#45;&gt;Node11</title>
<path fill="none" stroke="midnightblue" d="M789.54,-55.92C623.53,-39.54 579.61,-43.84 418.5,-20 415.66,-19.58 412.73,-19.1 409.79,-18.59"/>
<polygon fill="midnightblue" stroke="midnightblue" points="789.31,-59.41 799.61,-56.92 790.01,-52.45 789.31,-59.41"/>
</g>
<!-- Node12&#45;&gt;Node4 -->
<g id="edge17" class="edge">
<title>Node12&#45;&gt;Node4</title>
<path fill="none" stroke="midnightblue" d="M530.95,-54.54C584.05,-44.33 663.84,-29 713.18,-19.52"/>
<polygon fill="midnightblue" stroke="midnightblue" points="530.19,-51.12 521.03,-56.44 531.51,-57.99 530.19,-51.12"/>
</g>
<!-- Node12&#45;&gt;Node5 -->
<g id="edge18" class="edge">
<title>Node12&#45;&gt;Node5</title>
<path fill="none" stroke="midnightblue" d="M531.67,-55.88C658.53,-37.56 692.44,-38.41 815.5,-20 818.58,-19.54 821.76,-19.04 824.96,-18.53"/>
<polygon fill="midnightblue" stroke="midnightblue" points="530.95,-52.45 521.56,-57.35 531.96,-59.38 530.95,-52.45"/>
</g>
<!-- Node12&#45;&gt;Node10 -->
<g id="edge15" class="edge">
<title>Node12&#45;&gt;Node10</title>
<path fill="none" stroke="midnightblue" d="M435.9,-53.7C399.28,-43.51 346.24,-28.74 313.1,-19.52"/>
<polygon fill="midnightblue" stroke="midnightblue" points="435.19,-57.13 445.76,-56.44 437.06,-50.39 435.19,-57.13"/>
</g>
<!-- Node12&#45;&gt;Node11 -->
<g id="edge16" class="edge">
<title>Node12&#45;&gt;Node11</title>
<path fill="none" stroke="midnightblue" d="M450.92,-51.59C431.88,-41.61 406.44,-28.27 390.01,-19.65"/>
<polygon fill="midnightblue" stroke="midnightblue" points="449.47,-54.78 459.95,-56.32 452.72,-48.58 449.47,-54.78"/>
</g>
<!-- Node13 -->
<g id="node13" class="node">
<title>Node13</title>
<g id="a_node13"><a xlink:href="_float_node_impl_8cpp.html" target="_top" xlink:title=" ">
<polygon fill="white" stroke="black" points="127.5,-0.5 127.5,-19.5 227.5,-19.5 227.5,-0.5 127.5,-0.5"/>
<text text-anchor="middle" x="177.5" y="-7.5" font-family="Helvetica,sans-Serif" font-size="10.00">FloatNodeImpl.cpp</text>
</a>
</g>
</g>
<!-- Node12&#45;&gt;Node13 -->
<g id="edge14" class="edge">
<title>Node12&#45;&gt;Node13</title>
<path fill="none" stroke="midnightblue" d="M421.25,-55.02C364.88,-44.84 278.3,-29.2 224.93,-19.57"/>
<polygon fill="midnightblue" stroke="midnightblue" points="420.95,-58.52 431.41,-56.86 422.19,-51.64 420.95,-58.52"/>
</g>
<!-- Node14&#45;&gt;Node4 -->
<g id="edge23" class="edge">
<title>Node14&#45;&gt;Node4</title>
<path fill="none" stroke="midnightblue" d="M423.29,-55.92C546.69,-38.59 579.24,-36.87 698.5,-20 701.58,-19.56 704.74,-19.11 707.94,-18.64"/>
<polygon fill="midnightblue" stroke="midnightblue" points="422.48,-52.5 413.06,-57.36 423.45,-59.43 422.48,-52.5"/>
</g>
<!-- Node14&#45;&gt;Node5 -->
<g id="edge24" class="edge">
<title>Node14&#45;&gt;Node5</title>
<path fill="none" stroke="midnightblue" d="M423.12,-56C598.32,-35.06 644.84,-42.55 815.5,-20 818.59,-19.59 821.77,-19.13 824.98,-18.65"/>
<polygon fill="midnightblue" stroke="midnightblue" points="422.55,-52.55 413.04,-57.22 423.39,-59.5 422.55,-52.55"/>
</g>
<!-- Node14&#45;&gt;Node10 -->
<g id="edge21" class="edge">
<title>Node14&#45;&gt;Node10</title>
<path fill="none" stroke="midnightblue" d="M341.93,-50.62C327.14,-40.76 307.99,-27.99 295.48,-19.65"/>
<polygon fill="midnightblue" stroke="midnightblue" points="340.22,-53.69 350.49,-56.32 344.11,-47.86 340.22,-53.69"/>
</g>
<!-- Node14&#45;&gt;Node11 -->
<g id="edge22" class="edge">
<title>Node14&#45;&gt;Node11</title>
<path fill="none" stroke="midnightblue" d="M367,-46.1C368.66,-37.14 370.56,-26.86 371.88,-19.75"/>
<polygon fill="midnightblue" stroke="midnightblue" points="363.53,-45.61 365.15,-56.08 370.41,-46.89 363.53,-45.61"/>
</g>
<!-- Node15 -->
<g id="node15" class="node">
<title>Node15</title>
<g id="a_node15"><a xlink:href="_integer_node_impl_8cpp.html" target="_top" xlink:title=" ">
<polygon fill="white" stroke="black" points="0,-0.5 0,-19.5 109,-19.5 109,-0.5 0,-0.5"/>
<text text-anchor="middle" x="54.5" y="-7.5" font-family="Helvetica,sans-Serif" font-size="10.00">IntegerNodeImpl.cpp</text>
</a>
</g>
</g>
<!-- Node14&#45;&gt;Node15 -->
<g id="edge20" class="edge">
<title>Node14&#45;&gt;Node15</title>
<path fill="none" stroke="midnightblue" d="M304.36,-54.66C245.96,-44.46 157.72,-29.04 103.23,-19.52"/>
<polygon fill="midnightblue" stroke="midnightblue" points="304.08,-58.17 314.54,-56.44 305.29,-51.27 304.08,-58.17"/>
</g>
<!-- Node17&#45;&gt;Node4 -->
<g id="edge30" class="edge">
<title>Node17&#45;&gt;Node4</title>
<path fill="none" stroke="midnightblue" d="M638.39,-53.04C667.18,-42.88 707.79,-28.55 733.37,-19.52"/>
<polygon fill="midnightblue" stroke="midnightblue" points="637.01,-49.81 628.74,-56.44 639.34,-56.42 637.01,-49.81"/>
</g>
<!-- Node17&#45;&gt;Node5 -->
<g id="edge31" class="edge">
<title>Node17&#45;&gt;Node5</title>
<path fill="none" stroke="midnightblue" d="M656.08,-54.41C705.78,-44.2 780.03,-28.96 826.02,-19.52"/>
<polygon fill="midnightblue" stroke="midnightblue" points="655.26,-51 646.17,-56.44 656.67,-57.86 655.26,-51"/>
</g>
<!-- Node17&#45;&gt;Node10 -->
<g id="edge27" class="edge">
<title>Node17&#45;&gt;Node10</title>
<path fill="none" stroke="midnightblue" d="M538.77,-54.88C482.79,-46.12 400.25,-32.87 328.5,-20 325.46,-19.45 322.3,-18.87 319.14,-18.28"/>
<polygon fill="midnightblue" stroke="midnightblue" points="538.48,-58.38 548.9,-56.46 539.56,-51.46 538.48,-58.38"/>
</g>
<!-- Node17&#45;&gt;Node11 -->
<g id="edge28" class="edge">
<title>Node17&#45;&gt;Node11</title>
<path fill="none" stroke="midnightblue" d="M558.07,-54.15C514.28,-43.91 449.57,-28.78 409.55,-19.43"/>
<polygon fill="midnightblue" stroke="midnightblue" points="557.36,-57.58 567.9,-56.44 558.96,-50.76 557.36,-57.58"/>
</g>
<!-- Node18 -->
<g id="node18" class="node">
<title>Node18</title>
<g id="a_node18"><a xlink:href="_scaled_integer_node_impl_8cpp.html" target="_top" xlink:title=" ">
<polygon fill="white" stroke="black" points="427.5,-0.5 427.5,-19.5 567.5,-19.5 567.5,-0.5 427.5,-0.5"/>
<text text-anchor="middle" x="497.5" y="-7.5" font-family="Helvetica,sans-Serif" font-size="10.00">ScaledIntegerNodeImpl.cpp</text>
</a>
</g>
</g>
<!-- Node17&#45;&gt;Node18 -->
<g id="edge29" class="edge">
<title>Node17&#45;&gt;Node18</title>
<path fill="none" stroke="midnightblue" d="M578.2,-51.73C558.39,-41.73 531.79,-28.31 514.65,-19.65"/>
<polygon fill="midnightblue" stroke="midnightblue" points="576.8,-54.94 587.31,-56.32 579.96,-48.69 576.8,-54.94"/>
</g>
<!-- Node19&#45;&gt;Node4 -->
<g id="edge33" class="edge">
<title>Node19&#45;&gt;Node4</title>
<path fill="none" stroke="midnightblue" d="M742.3,-46.69C746.18,-37.59 750.68,-27.01 753.77,-19.75"/>
<polygon fill="midnightblue" stroke="midnightblue" points="739,-45.51 738.3,-56.08 745.44,-48.25 739,-45.51"/>
</g>
<!-- Node19&#45;&gt;Node5 -->
<g id="edge35" class="edge">
<title>Node19&#45;&gt;Node5</title>
<path fill="none" stroke="midnightblue" d="M764.95,-52.64C789.91,-42.5 824.58,-28.43 846.52,-19.52"/>
<polygon fill="midnightblue" stroke="midnightblue" points="763.52,-49.44 755.57,-56.44 766.16,-55.92 763.52,-49.44"/>
</g>
<!-- Node20 -->
<g id="node20" class="node">
<title>Node20</title>
<g id="a_node20"><a xlink:href="_string_node_impl_8cpp.html" target="_top" xlink:title=" ">
<polygon fill="white" stroke="black" points="585.5,-0.5 585.5,-19.5 689.5,-19.5 689.5,-0.5 585.5,-0.5"/>
<text text-anchor="middle" x="637.5" y="-7.5" font-family="Helvetica,sans-Serif" font-size="10.00">StringNodeImpl.cpp</text>
</a>
</g>
</g>
<!-- Node19&#45;&gt;Node20 -->
<g id="edge34" class="edge">
<title>Node19&#45;&gt;Node20</title>
<path fill="none" stroke="midnightblue" d="M710.16,-51.45C692.26,-41.48 668.45,-28.23 653.05,-19.65"/>
<polygon fill="midnightblue" stroke="midnightblue" points="708.48,-54.52 718.92,-56.32 711.88,-48.4 708.48,-54.52"/>
</g>
<!-- Node22 -->
<g id="node22" class="node">
<title>Node22</title>
<g id="a_node22"><a xlink:href="_image_file_impl_8cpp.html" target="_top" xlink:title=" ">
<polygon fill="white" stroke="black" points="1350.5,-56.5 1350.5,-75.5 1448.5,-75.5 1448.5,-56.5 1350.5,-56.5"/>
<text text-anchor="middle" x="1399.5" y="-63.5" font-family="Helvetica,sans-Serif" font-size="10.00">ImageFileImpl.cpp</text>
</a>
</g>
</g>
<!-- Node21&#45;&gt;Node22 -->
<g id="edge37" class="edge">
<title>Node21&#45;&gt;Node22</title>
<path fill="none" stroke="midnightblue" d="M1358.41,-105.25C1368.7,-95.67 1381.47,-83.79 1390.01,-75.83"/>
<polygon fill="midnightblue" stroke="midnightblue" points="1355.75,-102.95 1350.82,-112.32 1360.52,-108.07 1355.75,-102.95"/>
</g>
<!-- Node23 -->
<g id="node23" class="node">
<title>Node23</title>
<g id="a_node23"><a xlink:href="_vector_node_impl_8h.html" target="_top" xlink:title=" ">
<polygon fill="white" stroke="black" points="1236.5,-56.5 1236.5,-75.5 1332.5,-75.5 1332.5,-56.5 1236.5,-56.5"/>
<text text-anchor="middle" x="1284.5" y="-63.5" font-family="Helvetica,sans-Serif" font-size="10.00">VectorNodeImpl.h</text>
</a>
</g>
</g>
<!-- Node21&#45;&gt;Node23 -->
<g id="edge38" class="edge">
<title>Node21&#45;&gt;Node23</title>
<path fill="none" stroke="midnightblue" d="M1324.88,-105.25C1314.77,-95.67 1302.22,-83.79 1293.82,-75.83"/>
<polygon fill="midnightblue" stroke="midnightblue" points="1322.68,-107.99 1332.34,-112.32 1327.49,-102.91 1322.68,-107.99"/>
</g>
<!-- Node25 -->
<g id="node25" class="node">
<title>Node25</title>
<g id="a_node25"><a xlink:href="_structure_node_impl_8cpp.html" target="_top" xlink:title=" ">
<polygon fill="white" stroke="black" points="1467,-56.5 1467,-75.5 1586,-75.5 1586,-56.5 1467,-56.5"/>
<text text-anchor="middle" x="1526.5" y="-63.5" font-family="Helvetica,sans-Serif" font-size="10.00">StructureNodeImpl.cpp</text>
</a>
</g>
</g>
<!-- Node21&#45;&gt;Node25 -->
<g id="edge44" class="edge">
<title>Node21&#45;&gt;Node25</title>
<path fill="none" stroke="midnightblue" d="M1380.67,-109.57C1415.57,-99.38 1465.85,-84.7 1497.32,-75.52"/>
<polygon fill="midnightblue" stroke="midnightblue" points="1379.43,-106.28 1370.81,-112.44 1381.39,-113 1379.43,-106.28"/>
</g>
<!-- Node23&#45;&gt;Node4 -->
<g id="edge41" class="edge">
<title>Node23&#45;&gt;Node4</title>
<path fill="none" stroke="midnightblue" d="M1226.33,-60.52C1137.56,-53.43 963.05,-38.51 815.5,-20 812.77,-19.66 809.97,-19.29 807.15,-18.9"/>
<polygon fill="midnightblue" stroke="midnightblue" points="1226.22,-64.02 1236.46,-61.32 1226.77,-57.04 1226.22,-64.02"/>
</g>
<!-- Node23&#45;&gt;Node5 -->
<g id="edge43" class="edge">
<title>Node23&#45;&gt;Node5</title>
<path fill="none" stroke="midnightblue" d="M1226.03,-58.68C1153.85,-50.67 1027.41,-35.98 919.5,-20 916.42,-19.54 913.24,-19.05 910.04,-18.54"/>
<polygon fill="midnightblue" stroke="midnightblue" points="1225.95,-62.19 1236.28,-59.81 1226.72,-55.23 1225.95,-62.19"/>
</g>
<!-- Node23&#45;&gt;Node7 -->
<g id="edge39" class="edge">
<title>Node23&#45;&gt;Node7</title>
<path fill="none" stroke="midnightblue" d="M1328.66,-53.96C1369.46,-43.76 1429.21,-28.82 1466.43,-19.52"/>
<polygon fill="midnightblue" stroke="midnightblue" points="1327.58,-50.62 1318.73,-56.44 1329.28,-57.41 1327.58,-50.62"/>
</g>
<!-- Node23&#45;&gt;Node16 -->
<g id="edge40" class="edge">
<title>Node23&#45;&gt;Node16</title>
<path fill="none" stroke="midnightblue" d="M1342.77,-55.91C1509.33,-35.25 1553.96,-42.99 1716.5,-20 1719.35,-19.6 1722.3,-19.14 1725.25,-18.65"/>
<polygon fill="midnightblue" stroke="midnightblue" points="1342.16,-52.46 1332.67,-57.18 1343.03,-59.41 1342.16,-52.46"/>
</g>
<!-- Node24 -->
<g id="node24" class="node">
<title>Node24</title>
<g id="a_node24"><a xlink:href="_vector_node_impl_8cpp.html" target="_top" xlink:title=" ">
<polygon fill="white" stroke="black" points="1600,-0.5 1600,-19.5 1707,-19.5 1707,-0.5 1600,-0.5"/>
<text text-anchor="middle" x="1653.5" y="-7.5" font-family="Helvetica,sans-Serif" font-size="10.00">VectorNodeImpl.cpp</text>
</a>
</g>
</g>
<!-- Node23&#45;&gt;Node24 -->
<g id="edge42" class="edge">
<title>Node23&#45;&gt;Node24</title>
<path fill="none" stroke="midnightblue" d="M1342.66,-55.84C1454.15,-39.06 1483.54,-35.61 1591.5,-20 1594.19,-19.61 1596.95,-19.21 1599.73,-18.81"/>
<polygon fill="midnightblue" stroke="midnightblue" points="1342.06,-52.39 1332.69,-57.34 1343.11,-59.31 1342.06,-52.39"/>
</g>
</g>
</svg>
        <g id="navigator" transform="translate(0 0)" fill="#404254">
                <rect fill="#f2f5e9" fill-opacity="0.5" stroke="#606060" stroke-width=".5" x="0" y="0" width="60" height="60"/>
                <use id="zoomplus" xlink:href="#zoomPlus" x="17" y="9" onmousedown="handleZoom(evt,'in')"/>
                <use id="zoomminus" xlink:href="#zoomMin" x="42" y="9" onmousedown="handleZoom(evt,'out')"/>
                <use id="reset" xlink:href="#resetDef" x="30" y="36" onmousedown="handleReset()"/>
                <g id="arrowUp" xlink:href="#dirArrow" transform="translate(30 24)" onmousedown="handlePan(0,-1)">
                  <use xlink:href="#rim" fill="#404040">
                        <set attributeName="fill" to="#808080" begin="arrowUp.mouseover" end="arrowUp.mouseout"/>
                  </use>
                  <path fill="none" stroke="white" stroke-width="1.5" d="M0,-3.0v7 M-2.5,-0.5L0,-3.0L2.5,-0.5"/>
                </g>
                <g id="arrowRight" xlink:href="#dirArrow" transform="rotate(90) translate(36 -43)" onmousedown="handlePan(1,0)">
                  <use xlink:href="#rim" fill="#404040">
                        <set attributeName="fill" to="#808080" begin="arrowRight.mouseover" end="arrowRight.mouseout"/>
                  </use>
                  <path fill="none" stroke="white" stroke-width="1.5" d="M0,-3.0v7 M-2.5,-0.5L0,-3.0L2.5,-0.5"/>
                </g>
                <g id="arrowDown" xlink:href="#dirArrow" transform="rotate(180) translate(-30 -48)" onmousedown="handlePan(0,1)">
                  <use xlink:href="#rim" fill="#404040">
                        <set attributeName="fill" to="#808080" begin="arrowDown.mouseover" end="arrowDown.mouseout"/>
                  </use>
                  <path fill="none" stroke="white" stroke-width="1.5" d="M0,-3.0v7 M-2.5,-0.5L0,-3.0L2.5,-0.5"/>
                </g>
                <g id="arrowLeft" xlink:href="#dirArrow" transform="rotate(270) translate(-36 17)" onmousedown="handlePan(-1,0)">
                  <use xlink:href="#rim" fill="#404040">
                        <set attributeName="fill" to="#808080" begin="arrowLeft.mouseover" end="arrowLeft.mouseout"/>
                  </use>
                  <path fill="none" stroke="white" stroke-width="1.5" d="M0,-3.0v7 M-2.5,-0.5L0,-3.0L2.5,-0.5"/>
                </g>
        </g>
        <svg viewBox="0 0 15 15" width="100%" height="30px" preserveAspectRatio="xMaxYMin meet">
         <g id="arrow_out" transform="scale(0.3 0.3)">
          <a xlink:href="_node_impl_8h__dep__incl_org.svg" target="_base">
           <rect id="button" ry="5" rx="5" y="6" x="6" height="38" width="38"
                fill="#f2f5e9" fill-opacity="0.5" stroke="#606060" stroke-width="1.0"/>
           <path id="arrow"
             d="M 11.500037,31.436501 C 11.940474,20.09759 22.043105,11.32322 32.158766,21.979434 L 37.068811,17.246167 C 37.068811,17.246167 37.088388,32 37.088388,32 L 22.160133,31.978069 C 22.160133,31.978069 26.997745,27.140456 26.997745,27.140456 C 18.528582,18.264221 13.291696,25.230495 11.500037,31.436501 z"
             style="fill:#404040;"/>
          </a>
         </g>
        </svg>
</svg>
