<?xml version="1.0" encoding="UTF-8" standalone="no"?>
<!DOCTYPE svg PUBLIC "-//W3C//DTD SVG 1.1//EN"
 "http://www.w3.org/Graphics/SVG/1.1/DTD/svg11.dtd">
<!-- Generated by graphviz version 2.44.0 (20200408.0750)
 -->
<!-- Title: NodeImpl.cpp Pages: 1 -->
<svg width="554pt" height="420pt"
 viewBox="0.00 0.00 554.00 420.00" xmlns="http://www.w3.org/2000/svg" xmlns:xlink="http://www.w3.org/1999/xlink">
<g id="graph0" class="graph" transform="scale(1 1) rotate(0) translate(4 416)">
<title>NodeImpl.cpp</title>
<polygon fill="white" stroke="transparent" points="-4,4 -4,-416 550,-416 550,4 -4,4"/>
<!-- Node1 -->
<g id="node1" class="node">
<title>Node1</title>
<g id="a_node1"><a xlink:title=" ">
<polygon fill="#bfbfbf" stroke="black" points="243.5,-392.5 243.5,-411.5 320.5,-411.5 320.5,-392.5 243.5,-392.5"/>
<text text-anchor="middle" x="282" y="-399.5" font-family="Helvetica,sans-Serif" font-size="10.00">NodeImpl.cpp</text>
</a>
</g>
</g>
<!-- Node2 -->
<g id="node2" class="node">
<title>Node2</title>
<g id="a_node2"><a xlink:href="_node_impl_8h.html" target="_top" xlink:title=" ">
<polygon fill="white" stroke="black" points="204.5,-224.5 204.5,-243.5 271.5,-243.5 271.5,-224.5 204.5,-224.5"/>
<text text-anchor="middle" x="238" y="-231.5" font-family="Helvetica,sans-Serif" font-size="10.00">NodeImpl.h</text>
</a>
</g>
</g>
<!-- Node1&#45;&gt;Node2 -->
<g id="edge1" class="edge">
<title>Node1&#45;&gt;Node2</title>
<path fill="none" stroke="midnightblue" d="M279.63,-392.08C272.71,-365.95 252.37,-289.21 242.92,-253.58"/>
<polygon fill="midnightblue" stroke="midnightblue" points="246.22,-252.34 240.27,-243.57 239.45,-254.13 246.22,-252.34"/>
</g>
<!-- Node16 -->
<g id="node16" class="node">
<title>Node16</title>
<g id="a_node16"><a xlink:href="_e57_format_impl_8h.html" target="_top" xlink:title=" ">
<polygon fill="white" stroke="black" points="110,-336.5 110,-355.5 202,-355.5 202,-336.5 110,-336.5"/>
<text text-anchor="middle" x="156" y="-343.5" font-family="Helvetica,sans-Serif" font-size="10.00">E57FormatImpl.h</text>
</a>
</g>
</g>
<!-- Node1&#45;&gt;Node16 -->
<g id="edge18" class="edge">
<title>Node1&#45;&gt;Node16</title>
<path fill="none" stroke="midnightblue" d="M262.03,-392.44C241.39,-383.6 208.94,-369.69 185.37,-359.59"/>
<polygon fill="midnightblue" stroke="midnightblue" points="186.44,-356.24 175.87,-355.52 183.68,-362.67 186.44,-356.24"/>
</g>
<!-- Node20 -->
<g id="node20" class="node">
<title>Node20</title>
<g id="a_node20"><a xlink:href="_image_file_impl_8h.html" target="_top" xlink:title=" ">
<polygon fill="white" stroke="black" points="373,-224.5 373,-243.5 459,-243.5 459,-224.5 373,-224.5"/>
<text text-anchor="middle" x="416" y="-231.5" font-family="Helvetica,sans-Serif" font-size="10.00">ImageFileImpl.h</text>
</a>
</g>
</g>
<!-- Node1&#45;&gt;Node20 -->
<g id="edge25" class="edge">
<title>Node1&#45;&gt;Node20</title>
<path fill="none" stroke="midnightblue" d="M296.35,-392.33C320.72,-376.85 370.16,-342.13 397,-300 405.98,-285.9 410.85,-267.41 413.4,-253.76"/>
<polygon fill="midnightblue" stroke="midnightblue" points="416.9,-254.06 415.04,-243.63 409.99,-252.94 416.9,-254.06"/>
</g>
<!-- Node21 -->
<g id="node21" class="node">
<title>Node21</title>
<g id="a_node21"><a xlink:href="_source_dest_buffer_impl_8h.html" target="_top" xlink:title=" ">
<polygon fill="white" stroke="black" points="266,-280.5 266,-299.5 388,-299.5 388,-280.5 266,-280.5"/>
<text text-anchor="middle" x="327" y="-287.5" font-family="Helvetica,sans-Serif" font-size="10.00">SourceDestBufferImpl.h</text>
</a>
</g>
</g>
<!-- Node1&#45;&gt;Node21 -->
<g id="edge28" class="edge">
<title>Node1&#45;&gt;Node21</title>
<path fill="none" stroke="midnightblue" d="M285.53,-392.37C292.86,-374.46 309.85,-332.92 319.66,-308.95"/>
<polygon fill="midnightblue" stroke="midnightblue" points="322.94,-310.17 323.49,-299.59 316.46,-307.52 322.94,-310.17"/>
</g>
<!-- Node3 -->
<g id="node3" class="node">
<title>Node3</title>
<g id="a_node3"><a xlink:href="_common_8h.html" target="_top" xlink:title=" ">
<polygon fill="white" stroke="black" points="235.5,-168.5 235.5,-187.5 300.5,-187.5 300.5,-168.5 235.5,-168.5"/>
<text text-anchor="middle" x="268" y="-175.5" font-family="Helvetica,sans-Serif" font-size="10.00">Common.h</text>
</a>
</g>
</g>
<!-- Node2&#45;&gt;Node3 -->
<g id="edge2" class="edge">
<title>Node2&#45;&gt;Node3</title>
<path fill="none" stroke="midnightblue" d="M242.95,-224.08C247.1,-216.61 253.15,-205.72 258.27,-196.52"/>
<polygon fill="midnightblue" stroke="midnightblue" points="261.34,-198.19 263.14,-187.75 255.22,-194.79 261.34,-198.19"/>
</g>
<!-- Node4 -->
<g id="node4" class="node">
<title>Node4</title>
<g id="a_node4"><a xlink:title=" ">
<polygon fill="white" stroke="#bfbfbf" points="388,-112.5 388,-131.5 438,-131.5 438,-112.5 388,-112.5"/>
<text text-anchor="middle" x="413" y="-119.5" font-family="Helvetica,sans-Serif" font-size="10.00">iomanip</text>
</a>
</g>
</g>
<!-- Node3&#45;&gt;Node4 -->
<g id="edge3" class="edge">
<title>Node3&#45;&gt;Node4</title>
<path fill="none" stroke="midnightblue" d="M290.98,-168.44C315.16,-159.44 353.42,-145.19 380.65,-135.05"/>
<polygon fill="midnightblue" stroke="midnightblue" points="381.98,-138.29 390.13,-131.52 379.54,-131.73 381.98,-138.29"/>
</g>
<!-- Node5 -->
<g id="node5" class="node">
<title>Node5</title>
<g id="a_node5"><a xlink:title=" ">
<polygon fill="white" stroke="#bfbfbf" points="424,-0.5 424,-19.5 478,-19.5 478,-0.5 424,-0.5"/>
<text text-anchor="middle" x="451" y="-7.5" font-family="Helvetica,sans-Serif" font-size="10.00">iostream</text>
</a>
</g>
</g>
<!-- Node3&#45;&gt;Node5 -->
<g id="edge4" class="edge">
<title>Node3&#45;&gt;Node5</title>
<path fill="none" stroke="midnightblue" d="M300.79,-173.44C347.3,-167.65 428.84,-154.51 447,-132 470.67,-102.66 463.13,-55.03 456.5,-29.14"/>
<polygon fill="midnightblue" stroke="midnightblue" points="459.87,-28.19 453.81,-19.5 453.13,-30.07 459.87,-28.19"/>
</g>
<!-- Node6 -->
<g id="node6" class="node">
<title>Node6</title>
<g id="a_node6"><a xlink:title=" ">
<polygon fill="white" stroke="#bfbfbf" points="140,-112.5 140,-131.5 170,-131.5 170,-112.5 140,-112.5"/>
<text text-anchor="middle" x="155" y="-119.5" font-family="Helvetica,sans-Serif" font-size="10.00">set</text>
</a>
</g>
</g>
<!-- Node3&#45;&gt;Node6 -->
<g id="edge5" class="edge">
<title>Node3&#45;&gt;Node6</title>
<path fill="none" stroke="midnightblue" d="M250.09,-168.44C230.99,-159.31 200.61,-144.8 179.34,-134.63"/>
<polygon fill="midnightblue" stroke="midnightblue" points="180.82,-131.46 170.28,-130.3 177.8,-137.77 180.82,-131.46"/>
</g>
<!-- Node7 -->
<g id="node7" class="node">
<title>Node7</title>
<g id="a_node7"><a xlink:title=" ">
<polygon fill="white" stroke="#bfbfbf" points="188,-112.5 188,-131.5 240,-131.5 240,-112.5 188,-112.5"/>
<text text-anchor="middle" x="214" y="-119.5" font-family="Helvetica,sans-Serif" font-size="10.00">sstream</text>
</a>
</g>
</g>
<!-- Node3&#45;&gt;Node7 -->
<g id="edge6" class="edge">
<title>Node3&#45;&gt;Node7</title>
<path fill="none" stroke="midnightblue" d="M259.08,-168.08C251.22,-160.22 239.57,-148.57 230.08,-139.08"/>
<polygon fill="midnightblue" stroke="midnightblue" points="232.3,-136.35 222.75,-131.75 227.35,-141.3 232.3,-136.35"/>
</g>
<!-- Node8 -->
<g id="node8" class="node">
<title>Node8</title>
<g id="a_node8"><a xlink:title=" ">
<polygon fill="white" stroke="#bfbfbf" points="137.5,-0.5 137.5,-19.5 178.5,-19.5 178.5,-0.5 137.5,-0.5"/>
<text text-anchor="middle" x="158" y="-7.5" font-family="Helvetica,sans-Serif" font-size="10.00">string</text>
</a>
</g>
</g>
<!-- Node3&#45;&gt;Node8 -->
<g id="edge7" class="edge">
<title>Node3&#45;&gt;Node8</title>
<path fill="none" stroke="midnightblue" d="M235.47,-176.52C203.03,-174.09 154.71,-164.75 131,-132 108.17,-100.46 131.08,-53.08 146.49,-27.99"/>
<polygon fill="midnightblue" stroke="midnightblue" points="149.46,-29.85 151.92,-19.55 143.57,-26.07 149.46,-29.85"/>
</g>
<!-- Node9 -->
<g id="node9" class="node">
<title>Node9</title>
<g id="a_node9"><a xlink:title=" ">
<polygon fill="white" stroke="#bfbfbf" points="228,-56.5 228,-75.5 272,-75.5 272,-56.5 228,-56.5"/>
<text text-anchor="middle" x="250" y="-63.5" font-family="Helvetica,sans-Serif" font-size="10.00">vector</text>
</a>
</g>
</g>
<!-- Node3&#45;&gt;Node9 -->
<g id="edge8" class="edge">
<title>Node3&#45;&gt;Node9</title>
<path fill="none" stroke="midnightblue" d="M266.59,-168.37C263.68,-150.62 256.98,-109.67 253.04,-85.6"/>
<polygon fill="midnightblue" stroke="midnightblue" points="256.47,-84.89 251.41,-75.59 249.57,-86.03 256.47,-84.89"/>
</g>
<!-- Node10 -->
<g id="node10" class="node">
<title>Node10</title>
<g id="a_node10"><a xlink:href="_e57_format_8h.html" target="_top" xlink:title=" ">
<polygon fill="white" stroke="black" points="296.5,-112.5 296.5,-131.5 369.5,-131.5 369.5,-112.5 296.5,-112.5"/>
<text text-anchor="middle" x="333" y="-119.5" font-family="Helvetica,sans-Serif" font-size="10.00">E57Format.h</text>
</a>
</g>
</g>
<!-- Node3&#45;&gt;Node10 -->
<g id="edge9" class="edge">
<title>Node3&#45;&gt;Node10</title>
<path fill="none" stroke="midnightblue" d="M278.44,-168.32C288.15,-160.26 302.82,-148.08 314.5,-138.37"/>
<polygon fill="midnightblue" stroke="midnightblue" points="316.91,-140.92 322.37,-131.83 312.44,-135.53 316.91,-140.92"/>
</g>
<!-- Node10&#45;&gt;Node9 -->
<g id="edge12" class="edge">
<title>Node10&#45;&gt;Node9</title>
<path fill="none" stroke="midnightblue" d="M319.66,-112.32C306.84,-103.98 287.22,-91.21 272.06,-81.35"/>
<polygon fill="midnightblue" stroke="midnightblue" points="273.59,-78.17 263.3,-75.65 269.78,-84.04 273.59,-78.17"/>
</g>
<!-- Node11 -->
<g id="node11" class="node">
<title>Node11</title>
<g id="a_node11"><a xlink:title=" ">
<polygon fill="white" stroke="#bfbfbf" points="394.5,-56.5 394.5,-75.5 435.5,-75.5 435.5,-56.5 394.5,-56.5"/>
<text text-anchor="middle" x="415" y="-63.5" font-family="Helvetica,sans-Serif" font-size="10.00">cfloat</text>
</a>
</g>
</g>
<!-- Node10&#45;&gt;Node11 -->
<g id="edge10" class="edge">
<title>Node10&#45;&gt;Node11</title>
<path fill="none" stroke="midnightblue" d="M346.17,-112.32C358.85,-103.98 378.23,-91.21 393.21,-81.35"/>
<polygon fill="midnightblue" stroke="midnightblue" points="395.43,-84.08 401.86,-75.65 391.58,-78.23 395.43,-84.08"/>
</g>
<!-- Node12 -->
<g id="node12" class="node">
<title>Node12</title>
<g id="a_node12"><a xlink:title=" ">
<polygon fill="white" stroke="#bfbfbf" points="494,-56.5 494,-75.5 546,-75.5 546,-56.5 494,-56.5"/>
<text text-anchor="middle" x="520" y="-63.5" font-family="Helvetica,sans-Serif" font-size="10.00">memory</text>
</a>
</g>
</g>
<!-- Node10&#45;&gt;Node12 -->
<g id="edge11" class="edge">
<title>Node10&#45;&gt;Node12</title>
<path fill="none" stroke="midnightblue" d="M362.63,-112.44C395.53,-102.94 448.64,-87.61 483.93,-77.41"/>
<polygon fill="midnightblue" stroke="midnightblue" points="485.19,-80.7 493.83,-74.56 483.25,-73.97 485.19,-80.7"/>
</g>
<!-- Node13 -->
<g id="node13" class="node">
<title>Node13</title>
<g id="a_node13"><a xlink:href="_e57_exception_8h.html" target="_top" xlink:title=" ">
<polygon fill="white" stroke="black" points="290,-56.5 290,-75.5 376,-75.5 376,-56.5 290,-56.5"/>
<text text-anchor="middle" x="333" y="-63.5" font-family="Helvetica,sans-Serif" font-size="10.00">E57Exception.h</text>
</a>
</g>
</g>
<!-- Node10&#45;&gt;Node13 -->
<g id="edge13" class="edge">
<title>Node10&#45;&gt;Node13</title>
<path fill="none" stroke="midnightblue" d="M333,-112.08C333,-105.01 333,-94.86 333,-85.99"/>
<polygon fill="midnightblue" stroke="midnightblue" points="336.5,-85.75 333,-75.75 329.5,-85.75 336.5,-85.75"/>
</g>
<!-- Node13&#45;&gt;Node5 -->
<g id="edge15" class="edge">
<title>Node13&#45;&gt;Node5</title>
<path fill="none" stroke="midnightblue" d="M351.7,-56.44C370.94,-47.64 401.15,-33.81 423.2,-23.72"/>
<polygon fill="midnightblue" stroke="midnightblue" points="424.75,-26.86 432.39,-19.52 421.84,-20.5 424.75,-26.86"/>
</g>
<!-- Node13&#45;&gt;Node8 -->
<g id="edge16" class="edge">
<title>Node13&#45;&gt;Node8</title>
<path fill="none" stroke="midnightblue" d="M305.27,-56.44C273.39,-46.61 221.23,-30.51 188.31,-20.35"/>
<polygon fill="midnightblue" stroke="midnightblue" points="189.34,-17.01 178.75,-17.4 187.27,-23.7 189.34,-17.01"/>
</g>
<!-- Node14 -->
<g id="node14" class="node">
<title>Node14</title>
<g id="a_node14"><a xlink:title=" ">
<polygon fill="white" stroke="#bfbfbf" points="317.5,-0.5 317.5,-19.5 376.5,-19.5 376.5,-0.5 317.5,-0.5"/>
<text text-anchor="middle" x="347" y="-7.5" font-family="Helvetica,sans-Serif" font-size="10.00">exception</text>
</a>
</g>
</g>
<!-- Node13&#45;&gt;Node14 -->
<g id="edge14" class="edge">
<title>Node13&#45;&gt;Node14</title>
<path fill="none" stroke="midnightblue" d="M335.31,-56.08C337.17,-48.93 339.84,-38.64 342.15,-29.69"/>
<polygon fill="midnightblue" stroke="midnightblue" points="345.61,-30.31 344.73,-19.75 338.83,-28.55 345.61,-30.31"/>
</g>
<!-- Node15 -->
<g id="node15" class="node">
<title>Node15</title>
<g id="a_node15"><a xlink:title=" ">
<polygon fill="white" stroke="#bfbfbf" points="228.5,-0.5 228.5,-19.5 299.5,-19.5 299.5,-0.5 228.5,-0.5"/>
<text text-anchor="middle" x="264" y="-7.5" font-family="Helvetica,sans-Serif" font-size="10.00">E57Export.h</text>
</a>
</g>
</g>
<!-- Node13&#45;&gt;Node15 -->
<g id="edge17" class="edge">
<title>Node13&#45;&gt;Node15</title>
<path fill="none" stroke="midnightblue" d="M321.91,-56.32C311.51,-48.18 295.74,-35.84 283.28,-26.09"/>
<polygon fill="midnightblue" stroke="midnightblue" points="285.32,-23.24 275.29,-19.83 281.01,-28.75 285.32,-23.24"/>
</g>
<!-- Node17 -->
<g id="node17" class="node">
<title>Node17</title>
<g id="a_node17"><a xlink:href="_packet_8h.html" target="_top" xlink:title=" ">
<polygon fill="white" stroke="black" points="46,-224.5 46,-243.5 102,-243.5 102,-224.5 46,-224.5"/>
<text text-anchor="middle" x="74" y="-231.5" font-family="Helvetica,sans-Serif" font-size="10.00">Packet.h</text>
</a>
</g>
</g>
<!-- Node16&#45;&gt;Node17 -->
<g id="edge19" class="edge">
<title>Node16&#45;&gt;Node17</title>
<path fill="none" stroke="midnightblue" d="M137.97,-336.39C123.77,-328.73 104.52,-316.22 93,-300 83.32,-286.37 78.53,-267.83 76.19,-254.04"/>
<polygon fill="midnightblue" stroke="midnightblue" points="79.6,-253.19 74.74,-243.78 72.67,-254.17 79.6,-253.19"/>
</g>
<!-- Node19 -->
<g id="node19" class="node">
<title>Node19</title>
<g id="a_node19"><a xlink:href="_structure_node_impl_8h.html" target="_top" xlink:title=" ">
<polygon fill="white" stroke="black" points="102.5,-280.5 102.5,-299.5 209.5,-299.5 209.5,-280.5 102.5,-280.5"/>
<text text-anchor="middle" x="156" y="-287.5" font-family="Helvetica,sans-Serif" font-size="10.00">StructureNodeImpl.h</text>
</a>
</g>
</g>
<!-- Node16&#45;&gt;Node19 -->
<g id="edge23" class="edge">
<title>Node16&#45;&gt;Node19</title>
<path fill="none" stroke="midnightblue" d="M156,-336.08C156,-329.01 156,-318.86 156,-309.99"/>
<polygon fill="midnightblue" stroke="midnightblue" points="159.5,-309.75 156,-299.75 152.5,-309.75 159.5,-309.75"/>
</g>
<!-- Node17&#45;&gt;Node3 -->
<g id="edge22" class="edge">
<title>Node17&#45;&gt;Node3</title>
<path fill="none" stroke="midnightblue" d="M102.21,-225.15C135.06,-216 189.6,-200.82 227.1,-190.38"/>
<polygon fill="midnightblue" stroke="midnightblue" points="228.5,-193.63 237.19,-187.58 226.62,-186.89 228.5,-193.63"/>
</g>
<!-- Node17&#45;&gt;Node9 -->
<g id="edge21" class="edge">
<title>Node17&#45;&gt;Node9</title>
<path fill="none" stroke="midnightblue" d="M75.72,-224.35C80.52,-202.46 96.04,-144.31 131,-112 155.2,-89.63 191.61,-78.05 217.78,-72.28"/>
<polygon fill="midnightblue" stroke="midnightblue" points="218.51,-75.71 227.61,-70.28 217.11,-68.85 218.51,-75.71"/>
</g>
<!-- Node18 -->
<g id="node18" class="node">
<title>Node18</title>
<g id="a_node18"><a xlink:title=" ">
<polygon fill="white" stroke="#bfbfbf" points="0,-168.5 0,-187.5 46,-187.5 46,-168.5 0,-168.5"/>
<text text-anchor="middle" x="23" y="-175.5" font-family="Helvetica,sans-Serif" font-size="10.00">cstdint</text>
</a>
</g>
</g>
<!-- Node17&#45;&gt;Node18 -->
<g id="edge20" class="edge">
<title>Node17&#45;&gt;Node18</title>
<path fill="none" stroke="midnightblue" d="M65.58,-224.08C58.15,-216.22 47.15,-204.57 38.19,-195.08"/>
<polygon fill="midnightblue" stroke="midnightblue" points="40.68,-192.62 31.26,-187.75 35.59,-197.42 40.68,-192.62"/>
</g>
<!-- Node19&#45;&gt;Node2 -->
<g id="edge24" class="edge">
<title>Node19&#45;&gt;Node2</title>
<path fill="none" stroke="midnightblue" d="M169.17,-280.32C181.85,-271.98 201.23,-259.21 216.21,-249.35"/>
<polygon fill="midnightblue" stroke="midnightblue" points="218.43,-252.08 224.86,-243.65 214.58,-246.23 218.43,-252.08"/>
</g>
<!-- Node20&#45;&gt;Node3 -->
<g id="edge27" class="edge">
<title>Node20&#45;&gt;Node3</title>
<path fill="none" stroke="midnightblue" d="M392.55,-224.44C367.87,-215.44 328.81,-201.19 301.02,-191.05"/>
<polygon fill="midnightblue" stroke="midnightblue" points="301.94,-187.66 291.34,-187.52 299.54,-194.23 301.94,-187.66"/>
</g>
<!-- Node20&#45;&gt;Node12 -->
<g id="edge26" class="edge">
<title>Node20&#45;&gt;Node12</title>
<path fill="none" stroke="midnightblue" d="M421.52,-224.38C432.65,-206.96 458.56,-166.33 480,-132 489.96,-116.06 501.16,-97.83 509.17,-84.74"/>
<polygon fill="midnightblue" stroke="midnightblue" points="512.37,-86.21 514.6,-75.85 506.4,-82.56 512.37,-86.21"/>
</g>
<!-- Node21&#45;&gt;Node3 -->
<g id="edge29" class="edge">
<title>Node21&#45;&gt;Node3</title>
<path fill="none" stroke="midnightblue" d="M322.37,-280.37C312.72,-262.38 290.29,-220.55 277.45,-196.63"/>
<polygon fill="midnightblue" stroke="midnightblue" points="280.42,-194.75 272.61,-187.59 274.25,-198.06 280.42,-194.75"/>
</g>
</g>
</svg>
