<?xml version="1.0" encoding="UTF-8" standalone="no"?>
<!DOCTYPE svg PUBLIC "-//W3C//DTD SVG 1.1//EN"
 "http://www.w3.org/Graphics/SVG/1.1/DTD/svg11.dtd">
<!-- Generated by graphviz version 2.44.0 (20200408.0750)
 -->
<!-- Title: Packet.cpp Pages: 1 -->
<svg width="503pt" height="308pt"
 viewBox="0.00 0.00 502.50 308.00" xmlns="http://www.w3.org/2000/svg" xmlns:xlink="http://www.w3.org/1999/xlink">
<g id="graph0" class="graph" transform="scale(1 1) rotate(0) translate(4 304)">
<title>Packet.cpp</title>
<polygon fill="white" stroke="transparent" points="-4,4 -4,-304 498.5,-304 498.5,4 -4,4"/>
<!-- Node1 -->
<g id="node1" class="node">
<title>Node1</title>
<g id="a_node1"><a xlink:title=" ">
<polygon fill="#bfbfbf" stroke="black" points="258.5,-280.5 258.5,-299.5 324.5,-299.5 324.5,-280.5 258.5,-280.5"/>
<text text-anchor="middle" x="291.5" y="-287.5" font-family="Helvetica,sans-Serif" font-size="10.00">Packet.cpp</text>
</a>
</g>
</g>
<!-- Node2 -->
<g id="node2" class="node">
<title>Node2</title>
<g id="a_node2"><a xlink:title=" ">
<polygon fill="white" stroke="#bfbfbf" points="187.5,-224.5 187.5,-243.5 233.5,-243.5 233.5,-224.5 187.5,-224.5"/>
<text text-anchor="middle" x="210.5" y="-231.5" font-family="Helvetica,sans-Serif" font-size="10.00">cstring</text>
</a>
</g>
</g>
<!-- Node1&#45;&gt;Node2 -->
<g id="edge1" class="edge">
<title>Node1&#45;&gt;Node2</title>
<path fill="none" stroke="midnightblue" d="M278.49,-280.32C265.97,-271.98 246.82,-259.21 232.03,-249.35"/>
<polygon fill="midnightblue" stroke="midnightblue" points="233.74,-246.29 223.48,-243.65 229.86,-252.11 233.74,-246.29"/>
</g>
<!-- Node3 -->
<g id="node3" class="node">
<title>Node3</title>
<g id="a_node3"><a xlink:href="_checked_file_8h.html" target="_top" xlink:title=" ">
<polygon fill="white" stroke="black" points="251.5,-224.5 251.5,-243.5 331.5,-243.5 331.5,-224.5 251.5,-224.5"/>
<text text-anchor="middle" x="291.5" y="-231.5" font-family="Helvetica,sans-Serif" font-size="10.00">CheckedFile.h</text>
</a>
</g>
</g>
<!-- Node1&#45;&gt;Node3 -->
<g id="edge2" class="edge">
<title>Node1&#45;&gt;Node3</title>
<path fill="none" stroke="midnightblue" d="M291.5,-280.08C291.5,-273.01 291.5,-262.86 291.5,-253.99"/>
<polygon fill="midnightblue" stroke="midnightblue" points="295,-253.75 291.5,-243.75 288,-253.75 295,-253.75"/>
</g>
<!-- Node18 -->
<g id="node18" class="node">
<title>Node18</title>
<g id="a_node18"><a xlink:href="_packet_8h.html" target="_top" xlink:title=" ">
<polygon fill="white" stroke="black" points="371.5,-224.5 371.5,-243.5 427.5,-243.5 427.5,-224.5 371.5,-224.5"/>
<text text-anchor="middle" x="399.5" y="-231.5" font-family="Helvetica,sans-Serif" font-size="10.00">Packet.h</text>
</a>
</g>
</g>
<!-- Node1&#45;&gt;Node18 -->
<g id="edge20" class="edge">
<title>Node1&#45;&gt;Node18</title>
<path fill="none" stroke="midnightblue" d="M308.85,-280.32C326.17,-271.66 353.02,-258.24 373,-248.25"/>
<polygon fill="midnightblue" stroke="midnightblue" points="374.81,-251.26 382.19,-243.65 371.68,-245 374.81,-251.26"/>
</g>
<!-- Node4 -->
<g id="node4" class="node">
<title>Node4</title>
<g id="a_node4"><a xlink:title=" ">
<polygon fill="white" stroke="#bfbfbf" points="184.5,-168.5 184.5,-187.5 240.5,-187.5 240.5,-168.5 184.5,-168.5"/>
<text text-anchor="middle" x="212.5" y="-175.5" font-family="Helvetica,sans-Serif" font-size="10.00">algorithm</text>
</a>
</g>
</g>
<!-- Node3&#45;&gt;Node4 -->
<g id="edge3" class="edge">
<title>Node3&#45;&gt;Node4</title>
<path fill="none" stroke="midnightblue" d="M278.81,-224.32C266.6,-215.98 247.92,-203.21 233.5,-193.35"/>
<polygon fill="midnightblue" stroke="midnightblue" points="235.39,-190.41 225.16,-187.65 231.44,-196.19 235.39,-190.41"/>
</g>
<!-- Node5 -->
<g id="node5" class="node">
<title>Node5</title>
<g id="a_node5"><a xlink:href="_common_8h.html" target="_top" xlink:title=" ">
<polygon fill="white" stroke="black" points="259,-168.5 259,-187.5 324,-187.5 324,-168.5 259,-168.5"/>
<text text-anchor="middle" x="291.5" y="-175.5" font-family="Helvetica,sans-Serif" font-size="10.00">Common.h</text>
</a>
</g>
</g>
<!-- Node3&#45;&gt;Node5 -->
<g id="edge4" class="edge">
<title>Node3&#45;&gt;Node5</title>
<path fill="none" stroke="midnightblue" d="M291.5,-224.08C291.5,-217.01 291.5,-206.86 291.5,-197.99"/>
<polygon fill="midnightblue" stroke="midnightblue" points="295,-197.75 291.5,-187.75 288,-197.75 295,-197.75"/>
</g>
<!-- Node6 -->
<g id="node6" class="node">
<title>Node6</title>
<g id="a_node6"><a xlink:title=" ">
<polygon fill="white" stroke="#bfbfbf" points="266.5,-112.5 266.5,-131.5 316.5,-131.5 316.5,-112.5 266.5,-112.5"/>
<text text-anchor="middle" x="291.5" y="-119.5" font-family="Helvetica,sans-Serif" font-size="10.00">iomanip</text>
</a>
</g>
</g>
<!-- Node5&#45;&gt;Node6 -->
<g id="edge5" class="edge">
<title>Node5&#45;&gt;Node6</title>
<path fill="none" stroke="midnightblue" d="M291.5,-168.08C291.5,-161.01 291.5,-150.86 291.5,-141.99"/>
<polygon fill="midnightblue" stroke="midnightblue" points="295,-141.75 291.5,-131.75 288,-141.75 295,-141.75"/>
</g>
<!-- Node7 -->
<g id="node7" class="node">
<title>Node7</title>
<g id="a_node7"><a xlink:title=" ">
<polygon fill="white" stroke="#bfbfbf" points="289.5,-0.5 289.5,-19.5 343.5,-19.5 343.5,-0.5 289.5,-0.5"/>
<text text-anchor="middle" x="316.5" y="-7.5" font-family="Helvetica,sans-Serif" font-size="10.00">iostream</text>
</a>
</g>
</g>
<!-- Node5&#45;&gt;Node7 -->
<g id="edge6" class="edge">
<title>Node5&#45;&gt;Node7</title>
<path fill="none" stroke="midnightblue" d="M304.42,-168.39C315.82,-160.22 332.18,-146.97 342.5,-132 357.58,-110.11 358.76,-102.15 363.5,-76 365.09,-67.25 366.99,-64.17 363.5,-56 358.35,-43.95 348.22,-33.58 338.67,-25.84"/>
<polygon fill="midnightblue" stroke="midnightblue" points="340.67,-22.96 330.58,-19.74 336.46,-28.55 340.67,-22.96"/>
</g>
<!-- Node8 -->
<g id="node8" class="node">
<title>Node8</title>
<g id="a_node8"><a xlink:title=" ">
<polygon fill="white" stroke="#bfbfbf" points="148.5,-112.5 148.5,-131.5 178.5,-131.5 178.5,-112.5 148.5,-112.5"/>
<text text-anchor="middle" x="163.5" y="-119.5" font-family="Helvetica,sans-Serif" font-size="10.00">set</text>
</a>
</g>
</g>
<!-- Node5&#45;&gt;Node8 -->
<g id="edge7" class="edge">
<title>Node5&#45;&gt;Node8</title>
<path fill="none" stroke="midnightblue" d="M271.22,-168.44C248.67,-158.93 212.24,-143.56 188.08,-133.37"/>
<polygon fill="midnightblue" stroke="midnightblue" points="189.44,-130.14 178.87,-129.48 186.72,-136.59 189.44,-130.14"/>
</g>
<!-- Node9 -->
<g id="node9" class="node">
<title>Node9</title>
<g id="a_node9"><a xlink:title=" ">
<polygon fill="white" stroke="#bfbfbf" points="196.5,-112.5 196.5,-131.5 248.5,-131.5 248.5,-112.5 196.5,-112.5"/>
<text text-anchor="middle" x="222.5" y="-119.5" font-family="Helvetica,sans-Serif" font-size="10.00">sstream</text>
</a>
</g>
</g>
<!-- Node5&#45;&gt;Node9 -->
<g id="edge8" class="edge">
<title>Node5&#45;&gt;Node9</title>
<path fill="none" stroke="midnightblue" d="M280.41,-168.32C270.01,-160.18 254.24,-147.84 241.78,-138.09"/>
<polygon fill="midnightblue" stroke="midnightblue" points="243.82,-135.24 233.79,-131.83 239.51,-140.75 243.82,-135.24"/>
</g>
<!-- Node10 -->
<g id="node10" class="node">
<title>Node10</title>
<g id="a_node10"><a xlink:title=" ">
<polygon fill="white" stroke="#bfbfbf" points="0,-0.5 0,-19.5 41,-19.5 41,-0.5 0,-0.5"/>
<text text-anchor="middle" x="20.5" y="-7.5" font-family="Helvetica,sans-Serif" font-size="10.00">string</text>
</a>
</g>
</g>
<!-- Node5&#45;&gt;Node10 -->
<g id="edge9" class="edge">
<title>Node5&#45;&gt;Node10</title>
<path fill="none" stroke="midnightblue" d="M258.96,-169.91C255.77,-169.25 252.57,-168.6 249.5,-168 160.01,-150.44 113.36,-195.08 47.5,-132 19.61,-105.29 17.55,-56.57 18.82,-29.82"/>
<polygon fill="midnightblue" stroke="midnightblue" points="22.33,-29.75 19.52,-19.53 15.35,-29.27 22.33,-29.75"/>
</g>
<!-- Node11 -->
<g id="node11" class="node">
<title>Node11</title>
<g id="a_node11"><a xlink:title=" ">
<polygon fill="white" stroke="#bfbfbf" points="310.5,-56.5 310.5,-75.5 354.5,-75.5 354.5,-56.5 310.5,-56.5"/>
<text text-anchor="middle" x="332.5" y="-63.5" font-family="Helvetica,sans-Serif" font-size="10.00">vector</text>
</a>
</g>
</g>
<!-- Node5&#45;&gt;Node11 -->
<g id="edge10" class="edge">
<title>Node5&#45;&gt;Node11</title>
<path fill="none" stroke="midnightblue" d="M300.44,-168.27C308.48,-159.81 319.87,-146.2 325.5,-132 331.32,-117.31 332.88,-99.37 333.09,-86.07"/>
<polygon fill="midnightblue" stroke="midnightblue" points="336.59,-85.73 333,-75.76 329.59,-85.79 336.59,-85.73"/>
</g>
<!-- Node12 -->
<g id="node12" class="node">
<title>Node12</title>
<g id="a_node12"><a xlink:href="_e57_format_8h.html" target="_top" xlink:title=" ">
<polygon fill="white" stroke="black" points="57,-112.5 57,-131.5 130,-131.5 130,-112.5 57,-112.5"/>
<text text-anchor="middle" x="93.5" y="-119.5" font-family="Helvetica,sans-Serif" font-size="10.00">E57Format.h</text>
</a>
</g>
</g>
<!-- Node5&#45;&gt;Node12 -->
<g id="edge11" class="edge">
<title>Node5&#45;&gt;Node12</title>
<path fill="none" stroke="midnightblue" d="M260.13,-168.44C226.24,-159.2 172.1,-144.44 134.78,-134.26"/>
<polygon fill="midnightblue" stroke="midnightblue" points="135.3,-130.77 124.73,-131.52 133.45,-137.52 135.3,-130.77"/>
</g>
<!-- Node12&#45;&gt;Node11 -->
<g id="edge14" class="edge">
<title>Node12&#45;&gt;Node11</title>
<path fill="none" stroke="midnightblue" d="M130.06,-112.74C176.55,-102.24 256.07,-84.27 300.35,-74.26"/>
<polygon fill="midnightblue" stroke="midnightblue" points="301.3,-77.64 310.28,-72.02 299.76,-70.81 301.3,-77.64"/>
</g>
<!-- Node13 -->
<g id="node13" class="node">
<title>Node13</title>
<g id="a_node13"><a xlink:title=" ">
<polygon fill="white" stroke="#bfbfbf" points="155,-56.5 155,-75.5 196,-75.5 196,-56.5 155,-56.5"/>
<text text-anchor="middle" x="175.5" y="-63.5" font-family="Helvetica,sans-Serif" font-size="10.00">cfloat</text>
</a>
</g>
</g>
<!-- Node12&#45;&gt;Node13 -->
<g id="edge12" class="edge">
<title>Node12&#45;&gt;Node13</title>
<path fill="none" stroke="midnightblue" d="M106.67,-112.32C119.35,-103.98 138.73,-91.21 153.71,-81.35"/>
<polygon fill="midnightblue" stroke="midnightblue" points="155.93,-84.08 162.36,-75.65 152.08,-78.23 155.93,-84.08"/>
</g>
<!-- Node14 -->
<g id="node14" class="node">
<title>Node14</title>
<g id="a_node14"><a xlink:title=" ">
<polygon fill="white" stroke="#bfbfbf" points="214.5,-56.5 214.5,-75.5 266.5,-75.5 266.5,-56.5 214.5,-56.5"/>
<text text-anchor="middle" x="240.5" y="-63.5" font-family="Helvetica,sans-Serif" font-size="10.00">memory</text>
</a>
</g>
</g>
<!-- Node12&#45;&gt;Node14 -->
<g id="edge13" class="edge">
<title>Node12&#45;&gt;Node14</title>
<path fill="none" stroke="midnightblue" d="M116.79,-112.44C141.31,-103.44 180.1,-89.19 207.7,-79.05"/>
<polygon fill="midnightblue" stroke="midnightblue" points="209.14,-82.25 217.32,-75.52 206.72,-75.68 209.14,-82.25"/>
</g>
<!-- Node15 -->
<g id="node15" class="node">
<title>Node15</title>
<g id="a_node15"><a xlink:href="_e57_exception_8h.html" target="_top" xlink:title=" ">
<polygon fill="white" stroke="black" points="50.5,-56.5 50.5,-75.5 136.5,-75.5 136.5,-56.5 50.5,-56.5"/>
<text text-anchor="middle" x="93.5" y="-63.5" font-family="Helvetica,sans-Serif" font-size="10.00">E57Exception.h</text>
</a>
</g>
</g>
<!-- Node12&#45;&gt;Node15 -->
<g id="edge15" class="edge">
<title>Node12&#45;&gt;Node15</title>
<path fill="none" stroke="midnightblue" d="M93.5,-112.08C93.5,-105.01 93.5,-94.86 93.5,-85.99"/>
<polygon fill="midnightblue" stroke="midnightblue" points="97,-85.75 93.5,-75.75 90,-85.75 97,-85.75"/>
</g>
<!-- Node15&#45;&gt;Node7 -->
<g id="edge17" class="edge">
<title>Node15&#45;&gt;Node7</title>
<path fill="none" stroke="midnightblue" d="M128.84,-56.44C170.02,-46.47 237.76,-30.07 279.6,-19.93"/>
<polygon fill="midnightblue" stroke="midnightblue" points="280.5,-23.32 289.4,-17.56 278.85,-16.51 280.5,-23.32"/>
</g>
<!-- Node15&#45;&gt;Node10 -->
<g id="edge18" class="edge">
<title>Node15&#45;&gt;Node10</title>
<path fill="none" stroke="midnightblue" d="M81.77,-56.32C70.66,-48.11 53.76,-35.6 40.52,-25.81"/>
<polygon fill="midnightblue" stroke="midnightblue" points="42.56,-22.97 32.44,-19.83 38.4,-28.59 42.56,-22.97"/>
</g>
<!-- Node16 -->
<g id="node16" class="node">
<title>Node16</title>
<g id="a_node16"><a xlink:title=" ">
<polygon fill="white" stroke="#bfbfbf" points="148,-0.5 148,-19.5 207,-19.5 207,-0.5 148,-0.5"/>
<text text-anchor="middle" x="177.5" y="-7.5" font-family="Helvetica,sans-Serif" font-size="10.00">exception</text>
</a>
</g>
</g>
<!-- Node15&#45;&gt;Node16 -->
<g id="edge16" class="edge">
<title>Node15&#45;&gt;Node16</title>
<path fill="none" stroke="midnightblue" d="M107,-56.32C120.1,-47.9 140.21,-34.97 155.61,-25.07"/>
<polygon fill="midnightblue" stroke="midnightblue" points="157.52,-28.01 164.04,-19.65 153.73,-22.12 157.52,-28.01"/>
</g>
<!-- Node17 -->
<g id="node17" class="node">
<title>Node17</title>
<g id="a_node17"><a xlink:title=" ">
<polygon fill="white" stroke="#bfbfbf" points="59,-0.5 59,-19.5 130,-19.5 130,-0.5 59,-0.5"/>
<text text-anchor="middle" x="94.5" y="-7.5" font-family="Helvetica,sans-Serif" font-size="10.00">E57Export.h</text>
</a>
</g>
</g>
<!-- Node15&#45;&gt;Node17 -->
<g id="edge19" class="edge">
<title>Node15&#45;&gt;Node17</title>
<path fill="none" stroke="midnightblue" d="M93.67,-56.08C93.8,-49.01 93.98,-38.86 94.15,-29.99"/>
<polygon fill="midnightblue" stroke="midnightblue" points="97.65,-29.81 94.34,-19.75 90.65,-29.68 97.65,-29.81"/>
</g>
<!-- Node18&#45;&gt;Node5 -->
<g id="edge23" class="edge">
<title>Node18&#45;&gt;Node5</title>
<path fill="none" stroke="midnightblue" d="M382.15,-224.32C364.83,-215.66 337.98,-202.24 318,-192.25"/>
<polygon fill="midnightblue" stroke="midnightblue" points="319.32,-189 308.81,-187.65 316.19,-195.26 319.32,-189"/>
</g>
<!-- Node18&#45;&gt;Node11 -->
<g id="edge22" class="edge">
<title>Node18&#45;&gt;Node11</title>
<path fill="none" stroke="midnightblue" d="M395.9,-224.08C385.31,-197.83 354.11,-120.55 339.81,-85.12"/>
<polygon fill="midnightblue" stroke="midnightblue" points="342.95,-83.53 335.96,-75.57 336.46,-86.15 342.95,-83.53"/>
</g>
<!-- Node19 -->
<g id="node19" class="node">
<title>Node19</title>
<g id="a_node19"><a xlink:title=" ">
<polygon fill="white" stroke="#bfbfbf" points="448.5,-168.5 448.5,-187.5 494.5,-187.5 494.5,-168.5 448.5,-168.5"/>
<text text-anchor="middle" x="471.5" y="-175.5" font-family="Helvetica,sans-Serif" font-size="10.00">cstdint</text>
</a>
</g>
</g>
<!-- Node18&#45;&gt;Node19 -->
<g id="edge21" class="edge">
<title>Node18&#45;&gt;Node19</title>
<path fill="none" stroke="midnightblue" d="M411.07,-224.32C421.92,-216.18 438.38,-203.84 451.38,-194.09"/>
<polygon fill="midnightblue" stroke="midnightblue" points="453.82,-196.63 459.72,-187.83 449.62,-191.03 453.82,-196.63"/>
</g>
</g>
</svg>
