<?xml version="1.0" encoding="UTF-8" standalone="no"?>
<!DOCTYPE svg PUBLIC "-//W3C//DTD SVG 1.1//EN"
 "http://www.w3.org/Graphics/SVG/1.1/DTD/svg11.dtd">
<!-- Generated by graphviz version 2.44.0 (20200408.0750)
 -->
<!-- Title: Packet.h Pages: 1 -->
<svg width="366pt" height="252pt"
 viewBox="0.00 0.00 366.06 252.00" xmlns="http://www.w3.org/2000/svg" xmlns:xlink="http://www.w3.org/1999/xlink">
<g id="graph0" class="graph" transform="scale(1 1) rotate(0) translate(4 248)">
<title>Packet.h</title>
<polygon fill="white" stroke="transparent" points="-4,4 -4,-248 362.06,-248 362.06,4 -4,4"/>
<!-- Node1 -->
<g id="node1" class="node">
<title>Node1</title>
<g id="a_node1"><a xlink:title=" ">
<polygon fill="#bfbfbf" stroke="black" points="179.06,-224.5 179.06,-243.5 235.06,-243.5 235.06,-224.5 179.06,-224.5"/>
<text text-anchor="middle" x="207.06" y="-231.5" font-family="Helvetica,sans-Serif" font-size="10.00">Packet.h</text>
</a>
</g>
</g>
<!-- Node2 -->
<g id="node2" class="node">
<title>Node2</title>
<g id="a_node2"><a xlink:title=" ">
<polygon fill="white" stroke="#bfbfbf" points="110.06,-168.5 110.06,-187.5 156.06,-187.5 156.06,-168.5 110.06,-168.5"/>
<text text-anchor="middle" x="133.06" y="-175.5" font-family="Helvetica,sans-Serif" font-size="10.00">cstdint</text>
</a>
</g>
</g>
<!-- Node1&#45;&gt;Node2 -->
<g id="edge1" class="edge">
<title>Node1&#45;&gt;Node2</title>
<path fill="none" stroke="midnightblue" d="M195.17,-224.32C183.91,-216.11 166.78,-203.6 153.35,-193.81"/>
<polygon fill="midnightblue" stroke="midnightblue" points="155.31,-190.9 145.17,-187.83 151.18,-196.56 155.31,-190.9"/>
</g>
<!-- Node3 -->
<g id="node3" class="node">
<title>Node3</title>
<g id="a_node3"><a xlink:title=" ">
<polygon fill="white" stroke="#bfbfbf" points="264.06,-56.5 264.06,-75.5 308.06,-75.5 308.06,-56.5 264.06,-56.5"/>
<text text-anchor="middle" x="286.06" y="-63.5" font-family="Helvetica,sans-Serif" font-size="10.00">vector</text>
</a>
</g>
</g>
<!-- Node1&#45;&gt;Node3 -->
<g id="edge2" class="edge">
<title>Node1&#45;&gt;Node3</title>
<path fill="none" stroke="midnightblue" d="M225.18,-224.31C253.18,-209.73 305.92,-177.43 327.06,-132 335.39,-114.1 320.4,-95.18 306.26,-82.4"/>
<polygon fill="midnightblue" stroke="midnightblue" points="308.12,-79.39 298.21,-75.63 303.61,-84.75 308.12,-79.39"/>
</g>
<!-- Node4 -->
<g id="node4" class="node">
<title>Node4</title>
<g id="a_node4"><a xlink:href="_common_8h.html" target="_top" xlink:title=" ">
<polygon fill="white" stroke="black" points="174.56,-168.5 174.56,-187.5 239.56,-187.5 239.56,-168.5 174.56,-168.5"/>
<text text-anchor="middle" x="207.06" y="-175.5" font-family="Helvetica,sans-Serif" font-size="10.00">Common.h</text>
</a>
</g>
</g>
<!-- Node1&#45;&gt;Node4 -->
<g id="edge3" class="edge">
<title>Node1&#45;&gt;Node4</title>
<path fill="none" stroke="midnightblue" d="M207.06,-224.08C207.06,-217.01 207.06,-206.86 207.06,-197.99"/>
<polygon fill="midnightblue" stroke="midnightblue" points="210.56,-197.75 207.06,-187.75 203.56,-197.75 210.56,-197.75"/>
</g>
<!-- Node4&#45;&gt;Node3 -->
<g id="edge9" class="edge">
<title>Node4&#45;&gt;Node3</title>
<path fill="none" stroke="midnightblue" d="M213.26,-168.37C226.3,-150.22 256.76,-107.8 273.86,-83.99"/>
<polygon fill="midnightblue" stroke="midnightblue" points="276.9,-85.76 279.89,-75.59 271.22,-81.67 276.9,-85.76"/>
</g>
<!-- Node5 -->
<g id="node5" class="node">
<title>Node5</title>
<g id="a_node5"><a xlink:title=" ">
<polygon fill="white" stroke="#bfbfbf" points="268.06,-112.5 268.06,-131.5 318.06,-131.5 318.06,-112.5 268.06,-112.5"/>
<text text-anchor="middle" x="293.06" y="-119.5" font-family="Helvetica,sans-Serif" font-size="10.00">iomanip</text>
</a>
</g>
</g>
<!-- Node4&#45;&gt;Node5 -->
<g id="edge4" class="edge">
<title>Node4&#45;&gt;Node5</title>
<path fill="none" stroke="midnightblue" d="M220.88,-168.32C234.29,-159.9 254.89,-146.97 270.65,-137.07"/>
<polygon fill="midnightblue" stroke="midnightblue" points="272.67,-139.94 279.28,-131.65 268.95,-134.01 272.67,-139.94"/>
</g>
<!-- Node6 -->
<g id="node6" class="node">
<title>Node6</title>
<g id="a_node6"><a xlink:title=" ">
<polygon fill="white" stroke="#bfbfbf" points="304.06,-0.5 304.06,-19.5 358.06,-19.5 358.06,-0.5 304.06,-0.5"/>
<text text-anchor="middle" x="331.06" y="-7.5" font-family="Helvetica,sans-Serif" font-size="10.00">iostream</text>
</a>
</g>
</g>
<!-- Node4&#45;&gt;Node6 -->
<g id="edge5" class="edge">
<title>Node4&#45;&gt;Node6</title>
<path fill="none" stroke="midnightblue" d="M239.79,-174.48C267.97,-170.4 307.15,-159.75 327.06,-132 348.84,-101.66 342.31,-55.14 336.28,-29.52"/>
<polygon fill="midnightblue" stroke="midnightblue" points="339.62,-28.44 333.73,-19.64 332.84,-30.19 339.62,-28.44"/>
</g>
<!-- Node7 -->
<g id="node7" class="node">
<title>Node7</title>
<g id="a_node7"><a xlink:title=" ">
<polygon fill="white" stroke="#bfbfbf" points="20.06,-112.5 20.06,-131.5 50.06,-131.5 50.06,-112.5 20.06,-112.5"/>
<text text-anchor="middle" x="35.06" y="-119.5" font-family="Helvetica,sans-Serif" font-size="10.00">set</text>
</a>
</g>
</g>
<!-- Node4&#45;&gt;Node7 -->
<g id="edge6" class="edge">
<title>Node4&#45;&gt;Node7</title>
<path fill="none" stroke="midnightblue" d="M176.84,-168.42C148.73,-160.31 105.53,-147.5 59.74,-132.08"/>
<polygon fill="midnightblue" stroke="midnightblue" points="60.84,-128.76 50.24,-128.86 58.59,-135.39 60.84,-128.76"/>
</g>
<!-- Node8 -->
<g id="node8" class="node">
<title>Node8</title>
<g id="a_node8"><a xlink:title=" ">
<polygon fill="white" stroke="#bfbfbf" points="68.06,-112.5 68.06,-131.5 120.06,-131.5 120.06,-112.5 68.06,-112.5"/>
<text text-anchor="middle" x="94.06" y="-119.5" font-family="Helvetica,sans-Serif" font-size="10.00">sstream</text>
</a>
</g>
</g>
<!-- Node4&#45;&gt;Node8 -->
<g id="edge7" class="edge">
<title>Node4&#45;&gt;Node8</title>
<path fill="none" stroke="midnightblue" d="M189.16,-168.44C170.81,-159.68 142.06,-145.94 120.97,-135.86"/>
<polygon fill="midnightblue" stroke="midnightblue" points="122.41,-132.67 111.88,-131.52 119.4,-138.99 122.41,-132.67"/>
</g>
<!-- Node9 -->
<g id="node9" class="node">
<title>Node9</title>
<g id="a_node9"><a xlink:title=" ">
<polygon fill="white" stroke="#bfbfbf" points="17.56,-0.5 17.56,-19.5 58.56,-19.5 58.56,-0.5 17.56,-0.5"/>
<text text-anchor="middle" x="38.06" y="-7.5" font-family="Helvetica,sans-Serif" font-size="10.00">string</text>
</a>
</g>
</g>
<!-- Node4&#45;&gt;Node9 -->
<g id="edge8" class="edge">
<title>Node4&#45;&gt;Node9</title>
<path fill="none" stroke="midnightblue" d="M174.52,-169.8C119.13,-157.5 12.35,-133.62 11.06,-132 -13.19,-101.54 10.31,-53.71 26.19,-28.27"/>
<polygon fill="midnightblue" stroke="midnightblue" points="29.25,-29.98 31.79,-19.7 23.39,-26.16 29.25,-29.98"/>
</g>
<!-- Node10 -->
<g id="node10" class="node">
<title>Node10</title>
<g id="a_node10"><a xlink:href="_e57_format_8h.html" target="_top" xlink:title=" ">
<polygon fill="white" stroke="black" points="138.56,-112.5 138.56,-131.5 211.56,-131.5 211.56,-112.5 138.56,-112.5"/>
<text text-anchor="middle" x="175.06" y="-119.5" font-family="Helvetica,sans-Serif" font-size="10.00">E57Format.h</text>
</a>
</g>
</g>
<!-- Node4&#45;&gt;Node10 -->
<g id="edge10" class="edge">
<title>Node4&#45;&gt;Node10</title>
<path fill="none" stroke="midnightblue" d="M201.78,-168.08C197.35,-160.61 190.9,-149.72 185.44,-140.52"/>
<polygon fill="midnightblue" stroke="midnightblue" points="188.36,-138.57 180.25,-131.75 182.33,-142.14 188.36,-138.57"/>
</g>
<!-- Node10&#45;&gt;Node3 -->
<g id="edge13" class="edge">
<title>Node10&#45;&gt;Node3</title>
<path fill="none" stroke="midnightblue" d="M192.9,-112.32C210.78,-103.62 238.54,-90.12 259.11,-80.11"/>
<polygon fill="midnightblue" stroke="midnightblue" points="260.81,-83.18 268.27,-75.65 257.75,-76.88 260.81,-83.18"/>
</g>
<!-- Node11 -->
<g id="node11" class="node">
<title>Node11</title>
<g id="a_node11"><a xlink:title=" ">
<polygon fill="white" stroke="#bfbfbf" points="30.56,-56.5 30.56,-75.5 71.56,-75.5 71.56,-56.5 30.56,-56.5"/>
<text text-anchor="middle" x="51.06" y="-63.5" font-family="Helvetica,sans-Serif" font-size="10.00">cfloat</text>
</a>
</g>
</g>
<!-- Node10&#45;&gt;Node11 -->
<g id="edge11" class="edge">
<title>Node10&#45;&gt;Node11</title>
<path fill="none" stroke="midnightblue" d="M155.41,-112.44C135.1,-103.6 103.16,-89.69 79.96,-79.59"/>
<polygon fill="midnightblue" stroke="midnightblue" points="81.18,-76.3 70.62,-75.52 78.39,-82.72 81.18,-76.3"/>
</g>
<!-- Node12 -->
<g id="node12" class="node">
<title>Node12</title>
<g id="a_node12"><a xlink:title=" ">
<polygon fill="white" stroke="#bfbfbf" points="90.06,-56.5 90.06,-75.5 142.06,-75.5 142.06,-56.5 90.06,-56.5"/>
<text text-anchor="middle" x="116.06" y="-63.5" font-family="Helvetica,sans-Serif" font-size="10.00">memory</text>
</a>
</g>
</g>
<!-- Node10&#45;&gt;Node12 -->
<g id="edge12" class="edge">
<title>Node10&#45;&gt;Node12</title>
<path fill="none" stroke="midnightblue" d="M165.58,-112.32C156.86,-104.34 143.72,-92.31 133.16,-82.65"/>
<polygon fill="midnightblue" stroke="midnightblue" points="135.45,-80 125.71,-75.83 130.73,-85.17 135.45,-80"/>
</g>
<!-- Node13 -->
<g id="node13" class="node">
<title>Node13</title>
<g id="a_node13"><a xlink:href="_e57_exception_8h.html" target="_top" xlink:title=" ">
<polygon fill="white" stroke="black" points="160.06,-56.5 160.06,-75.5 246.06,-75.5 246.06,-56.5 160.06,-56.5"/>
<text text-anchor="middle" x="203.06" y="-63.5" font-family="Helvetica,sans-Serif" font-size="10.00">E57Exception.h</text>
</a>
</g>
</g>
<!-- Node10&#45;&gt;Node13 -->
<g id="edge14" class="edge">
<title>Node10&#45;&gt;Node13</title>
<path fill="none" stroke="midnightblue" d="M179.69,-112.08C183.52,-104.69 189.09,-93.95 193.83,-84.81"/>
<polygon fill="midnightblue" stroke="midnightblue" points="197.03,-86.24 198.52,-75.75 190.81,-83.02 197.03,-86.24"/>
</g>
<!-- Node13&#45;&gt;Node6 -->
<g id="edge16" class="edge">
<title>Node13&#45;&gt;Node6</title>
<path fill="none" stroke="midnightblue" d="M223.34,-56.44C244.41,-47.56 277.58,-33.56 301.55,-23.45"/>
<polygon fill="midnightblue" stroke="midnightblue" points="303.02,-26.63 310.87,-19.52 300.3,-20.18 303.02,-26.63"/>
</g>
<!-- Node13&#45;&gt;Node9 -->
<g id="edge17" class="edge">
<title>Node13&#45;&gt;Node9</title>
<path fill="none" stroke="midnightblue" d="M176.92,-56.44C147.53,-46.82 99.86,-31.22 68.73,-21.04"/>
<polygon fill="midnightblue" stroke="midnightblue" points="69.45,-17.59 58.86,-17.81 67.27,-24.24 69.45,-17.59"/>
</g>
<!-- Node14 -->
<g id="node14" class="node">
<title>Node14</title>
<g id="a_node14"><a xlink:title=" ">
<polygon fill="white" stroke="#bfbfbf" points="187.56,-0.5 187.56,-19.5 246.56,-19.5 246.56,-0.5 187.56,-0.5"/>
<text text-anchor="middle" x="217.06" y="-7.5" font-family="Helvetica,sans-Serif" font-size="10.00">exception</text>
</a>
</g>
</g>
<!-- Node13&#45;&gt;Node14 -->
<g id="edge15" class="edge">
<title>Node13&#45;&gt;Node14</title>
<path fill="none" stroke="midnightblue" d="M205.37,-56.08C207.23,-48.93 209.9,-38.64 212.22,-29.69"/>
<polygon fill="midnightblue" stroke="midnightblue" points="215.67,-30.31 214.79,-19.75 208.9,-28.55 215.67,-30.31"/>
</g>
<!-- Node15 -->
<g id="node15" class="node">
<title>Node15</title>
<g id="a_node15"><a xlink:title=" ">
<polygon fill="white" stroke="#bfbfbf" points="98.56,-0.5 98.56,-19.5 169.56,-19.5 169.56,-0.5 98.56,-0.5"/>
<text text-anchor="middle" x="134.06" y="-7.5" font-family="Helvetica,sans-Serif" font-size="10.00">E57Export.h</text>
</a>
</g>
</g>
<!-- Node13&#45;&gt;Node15 -->
<g id="edge18" class="edge">
<title>Node13&#45;&gt;Node15</title>
<path fill="none" stroke="midnightblue" d="M191.98,-56.32C181.58,-48.18 165.8,-35.84 153.34,-26.09"/>
<polygon fill="midnightblue" stroke="midnightblue" points="155.38,-23.24 145.35,-19.83 151.07,-28.75 155.38,-23.24"/>
</g>
</g>
</svg>
