<?xml version="1.0" encoding="UTF-8" standalone="no"?>
<!DOCTYPE svg PUBLIC "-//W3C//DTD SVG 1.1//EN"
 "http://www.w3.org/Graphics/SVG/1.1/DTD/svg11.dtd">
<!-- Generated by graphviz version 2.48.0 (20210717.1556)
 -->
<!-- Title: Packet.cpp Pages: 1 -->
<svg width="505pt" height="308pt"
 viewBox="0.00 0.00 505.00 308.00" xmlns="http://www.w3.org/2000/svg" xmlns:xlink="http://www.w3.org/1999/xlink">
<g id="graph0" class="graph" transform="scale(1 1) rotate(0) translate(4 304)">
<title>Packet.cpp</title>
<polygon fill="white" stroke="transparent" points="-4,4 -4,-304 501,-304 501,4 -4,4"/>
<!-- Node1 -->
<g id="node1" class="node">
<title>Node1</title>
<g id="a_node1"><a xlink:title=" ">
<polygon fill="#bfbfbf" stroke="black" points="260.5,-280.5 260.5,-299.5 326.5,-299.5 326.5,-280.5 260.5,-280.5"/>
<text text-anchor="middle" x="293.5" y="-287.5" font-family="Helvetica,sans-Serif" font-size="10.00">Packet.cpp</text>
</a>
</g>
</g>
<!-- Node2 -->
<g id="node2" class="node">
<title>Node2</title>
<g id="a_node2"><a xlink:title=" ">
<polygon fill="white" stroke="#bfbfbf" points="189.5,-224.5 189.5,-243.5 235.5,-243.5 235.5,-224.5 189.5,-224.5"/>
<text text-anchor="middle" x="212.5" y="-231.5" font-family="Helvetica,sans-Serif" font-size="10.00">cstring</text>
</a>
</g>
</g>
<!-- Node1&#45;&gt;Node2 -->
<g id="edge1" class="edge">
<title>Node1&#45;&gt;Node2</title>
<path fill="none" stroke="midnightblue" d="M280.49,-280.32C267.97,-271.98 248.82,-259.21 234.03,-249.35"/>
<polygon fill="midnightblue" stroke="midnightblue" points="235.74,-246.29 225.48,-243.65 231.86,-252.11 235.74,-246.29"/>
</g>
<!-- Node3 -->
<g id="node3" class="node">
<title>Node3</title>
<g id="a_node3"><a xlink:href="_checked_file_8h.html" target="_top" xlink:title=" ">
<polygon fill="white" stroke="black" points="253.5,-224.5 253.5,-243.5 333.5,-243.5 333.5,-224.5 253.5,-224.5"/>
<text text-anchor="middle" x="293.5" y="-231.5" font-family="Helvetica,sans-Serif" font-size="10.00">CheckedFile.h</text>
</a>
</g>
</g>
<!-- Node1&#45;&gt;Node3 -->
<g id="edge2" class="edge">
<title>Node1&#45;&gt;Node3</title>
<path fill="none" stroke="midnightblue" d="M293.5,-280.08C293.5,-273.01 293.5,-262.86 293.5,-253.99"/>
<polygon fill="midnightblue" stroke="midnightblue" points="297,-253.75 293.5,-243.75 290,-253.75 297,-253.75"/>
</g>
<!-- Node18 -->
<g id="node18" class="node">
<title>Node18</title>
<g id="a_node18"><a xlink:href="_packet_8h.html" target="_top" xlink:title=" ">
<polygon fill="white" stroke="black" points="374,-224.5 374,-243.5 429,-243.5 429,-224.5 374,-224.5"/>
<text text-anchor="middle" x="401.5" y="-231.5" font-family="Helvetica,sans-Serif" font-size="10.00">Packet.h</text>
</a>
</g>
</g>
<!-- Node1&#45;&gt;Node18 -->
<g id="edge20" class="edge">
<title>Node1&#45;&gt;Node18</title>
<path fill="none" stroke="midnightblue" d="M310.85,-280.32C328.17,-271.66 355.02,-258.24 375,-248.25"/>
<polygon fill="midnightblue" stroke="midnightblue" points="376.81,-251.26 384.19,-243.65 373.68,-245 376.81,-251.26"/>
</g>
<!-- Node4 -->
<g id="node4" class="node">
<title>Node4</title>
<g id="a_node4"><a xlink:title=" ">
<polygon fill="white" stroke="#bfbfbf" points="184.5,-168.5 184.5,-187.5 242.5,-187.5 242.5,-168.5 184.5,-168.5"/>
<text text-anchor="middle" x="213.5" y="-175.5" font-family="Helvetica,sans-Serif" font-size="10.00">algorithm</text>
</a>
</g>
</g>
<!-- Node3&#45;&gt;Node4 -->
<g id="edge3" class="edge">
<title>Node3&#45;&gt;Node4</title>
<path fill="none" stroke="midnightblue" d="M280.65,-224.32C268.28,-215.98 249.37,-203.21 234.76,-193.35"/>
<polygon fill="midnightblue" stroke="midnightblue" points="236.57,-190.35 226.32,-187.65 232.65,-196.15 236.57,-190.35"/>
</g>
<!-- Node5 -->
<g id="node5" class="node">
<title>Node5</title>
<g id="a_node5"><a xlink:href="_common_8h.html" target="_top" xlink:title=" ">
<polygon fill="white" stroke="black" points="261,-168.5 261,-187.5 326,-187.5 326,-168.5 261,-168.5"/>
<text text-anchor="middle" x="293.5" y="-175.5" font-family="Helvetica,sans-Serif" font-size="10.00">Common.h</text>
</a>
</g>
</g>
<!-- Node3&#45;&gt;Node5 -->
<g id="edge4" class="edge">
<title>Node3&#45;&gt;Node5</title>
<path fill="none" stroke="midnightblue" d="M293.5,-224.08C293.5,-217.01 293.5,-206.86 293.5,-197.99"/>
<polygon fill="midnightblue" stroke="midnightblue" points="297,-197.75 293.5,-187.75 290,-197.75 297,-197.75"/>
</g>
<!-- Node6 -->
<g id="node6" class="node">
<title>Node6</title>
<g id="a_node6"><a xlink:title=" ">
<polygon fill="white" stroke="#bfbfbf" points="267.5,-112.5 267.5,-131.5 319.5,-131.5 319.5,-112.5 267.5,-112.5"/>
<text text-anchor="middle" x="293.5" y="-119.5" font-family="Helvetica,sans-Serif" font-size="10.00">iomanip</text>
</a>
</g>
</g>
<!-- Node5&#45;&gt;Node6 -->
<g id="edge5" class="edge">
<title>Node5&#45;&gt;Node6</title>
<path fill="none" stroke="midnightblue" d="M293.5,-168.08C293.5,-161.01 293.5,-150.86 293.5,-141.99"/>
<polygon fill="midnightblue" stroke="midnightblue" points="297,-141.75 293.5,-131.75 290,-141.75 297,-141.75"/>
</g>
<!-- Node7 -->
<g id="node7" class="node">
<title>Node7</title>
<g id="a_node7"><a xlink:title=" ">
<polygon fill="white" stroke="#bfbfbf" points="292,-0.5 292,-19.5 347,-19.5 347,-0.5 292,-0.5"/>
<text text-anchor="middle" x="319.5" y="-7.5" font-family="Helvetica,sans-Serif" font-size="10.00">iostream</text>
</a>
</g>
</g>
<!-- Node5&#45;&gt;Node7 -->
<g id="edge6" class="edge">
<title>Node5&#45;&gt;Node7</title>
<path fill="none" stroke="midnightblue" d="M306.68,-168.45C318.31,-160.31 335,-147.09 345.5,-132 360.69,-110.18 361.76,-102.15 366.5,-76 368.09,-67.25 369.99,-64.17 366.5,-56 361.35,-43.95 351.22,-33.58 341.67,-25.84"/>
<polygon fill="midnightblue" stroke="midnightblue" points="343.67,-22.96 333.58,-19.74 339.46,-28.55 343.67,-22.96"/>
</g>
<!-- Node8 -->
<g id="node8" class="node">
<title>Node8</title>
<g id="a_node8"><a xlink:title=" ">
<polygon fill="white" stroke="#bfbfbf" points="149.5,-112.5 149.5,-131.5 179.5,-131.5 179.5,-112.5 149.5,-112.5"/>
<text text-anchor="middle" x="164.5" y="-119.5" font-family="Helvetica,sans-Serif" font-size="10.00">set</text>
</a>
</g>
</g>
<!-- Node5&#45;&gt;Node8 -->
<g id="edge7" class="edge">
<title>Node5&#45;&gt;Node8</title>
<path fill="none" stroke="midnightblue" d="M273.06,-168.44C250.21,-158.88 213.22,-143.39 188.88,-133.2"/>
<polygon fill="midnightblue" stroke="midnightblue" points="190.18,-129.96 179.6,-129.32 187.48,-136.41 190.18,-129.96"/>
</g>
<!-- Node9 -->
<g id="node9" class="node">
<title>Node9</title>
<g id="a_node9"><a xlink:title=" ">
<polygon fill="white" stroke="#bfbfbf" points="197.5,-112.5 197.5,-131.5 249.5,-131.5 249.5,-112.5 197.5,-112.5"/>
<text text-anchor="middle" x="223.5" y="-119.5" font-family="Helvetica,sans-Serif" font-size="10.00">sstream</text>
</a>
</g>
</g>
<!-- Node5&#45;&gt;Node9 -->
<g id="edge8" class="edge">
<title>Node5&#45;&gt;Node9</title>
<path fill="none" stroke="midnightblue" d="M282.25,-168.32C271.7,-160.18 255.7,-147.84 243.06,-138.09"/>
<polygon fill="midnightblue" stroke="midnightblue" points="245.01,-135.17 234.95,-131.83 240.73,-140.71 245.01,-135.17"/>
</g>
<!-- Node10 -->
<g id="node10" class="node">
<title>Node10</title>
<g id="a_node10"><a xlink:title=" ">
<polygon fill="white" stroke="#bfbfbf" points="0,-0.5 0,-19.5 41,-19.5 41,-0.5 0,-0.5"/>
<text text-anchor="middle" x="20.5" y="-7.5" font-family="Helvetica,sans-Serif" font-size="10.00">string</text>
</a>
</g>
</g>
<!-- Node5&#45;&gt;Node10 -->
<g id="edge9" class="edge">
<title>Node5&#45;&gt;Node10</title>
<path fill="none" stroke="midnightblue" d="M260.96,-169.91C257.77,-169.25 254.57,-168.6 251.5,-168 161.58,-150.4 114.95,-195.09 48.5,-132 20.44,-105.36 17.96,-56.61 18.99,-29.84"/>
<polygon fill="midnightblue" stroke="midnightblue" points="22.5,-29.74 19.6,-19.54 15.51,-29.32 22.5,-29.74"/>
</g>
<!-- Node11 -->
<g id="node11" class="node">
<title>Node11</title>
<g id="a_node11"><a xlink:title=" ">
<polygon fill="white" stroke="#bfbfbf" points="313.5,-56.5 313.5,-75.5 357.5,-75.5 357.5,-56.5 313.5,-56.5"/>
<text text-anchor="middle" x="335.5" y="-63.5" font-family="Helvetica,sans-Serif" font-size="10.00">vector</text>
</a>
</g>
</g>
<!-- Node5&#45;&gt;Node11 -->
<g id="edge10" class="edge">
<title>Node5&#45;&gt;Node11</title>
<path fill="none" stroke="midnightblue" d="M302.7,-168.32C310.98,-159.89 322.71,-146.31 328.5,-132 334.42,-117.35 335.97,-99.41 336.16,-86.09"/>
<polygon fill="midnightblue" stroke="midnightblue" points="339.65,-85.74 336.04,-75.78 332.65,-85.82 339.65,-85.74"/>
</g>
<!-- Node12 -->
<g id="node12" class="node">
<title>Node12</title>
<g id="a_node12"><a xlink:href="_e57_format_8h.html" target="_top" xlink:title="header file for the E57 API">
<polygon fill="white" stroke="black" points="57.5,-112.5 57.5,-131.5 131.5,-131.5 131.5,-112.5 57.5,-112.5"/>
<text text-anchor="middle" x="94.5" y="-119.5" font-family="Helvetica,sans-Serif" font-size="10.00">E57Format.h</text>
</a>
</g>
</g>
<!-- Node5&#45;&gt;Node12 -->
<g id="edge11" class="edge">
<title>Node5&#45;&gt;Node12</title>
<path fill="none" stroke="midnightblue" d="M261.97,-168.44C227.91,-159.2 173.49,-144.44 135.98,-134.26"/>
<polygon fill="midnightblue" stroke="midnightblue" points="136.45,-130.76 125.88,-131.52 134.62,-137.51 136.45,-130.76"/>
</g>
<!-- Node12&#45;&gt;Node11 -->
<g id="edge14" class="edge">
<title>Node12&#45;&gt;Node11</title>
<path fill="none" stroke="midnightblue" d="M131.63,-112.68C178.69,-102.14 259.03,-84.13 303.5,-74.17"/>
<polygon fill="midnightblue" stroke="midnightblue" points="304.48,-77.54 313.47,-71.94 302.95,-70.71 304.48,-77.54"/>
</g>
<!-- Node13 -->
<g id="node13" class="node">
<title>Node13</title>
<g id="a_node13"><a xlink:title=" ">
<polygon fill="white" stroke="#bfbfbf" points="156.5,-56.5 156.5,-75.5 196.5,-75.5 196.5,-56.5 156.5,-56.5"/>
<text text-anchor="middle" x="176.5" y="-63.5" font-family="Helvetica,sans-Serif" font-size="10.00">cfloat</text>
</a>
</g>
</g>
<!-- Node12&#45;&gt;Node13 -->
<g id="edge12" class="edge">
<title>Node12&#45;&gt;Node13</title>
<path fill="none" stroke="midnightblue" d="M107.67,-112.32C120.35,-103.98 139.73,-91.21 154.71,-81.35"/>
<polygon fill="midnightblue" stroke="midnightblue" points="156.93,-84.08 163.36,-75.65 153.08,-78.23 156.93,-84.08"/>
</g>
<!-- Node14 -->
<g id="node14" class="node">
<title>Node14</title>
<g id="a_node14"><a xlink:title=" ">
<polygon fill="white" stroke="#bfbfbf" points="215,-56.5 215,-75.5 268,-75.5 268,-56.5 215,-56.5"/>
<text text-anchor="middle" x="241.5" y="-63.5" font-family="Helvetica,sans-Serif" font-size="10.00">memory</text>
</a>
</g>
</g>
<!-- Node12&#45;&gt;Node14 -->
<g id="edge13" class="edge">
<title>Node12&#45;&gt;Node14</title>
<path fill="none" stroke="midnightblue" d="M117.79,-112.44C142.31,-103.44 181.1,-89.19 208.7,-79.05"/>
<polygon fill="midnightblue" stroke="midnightblue" points="210.14,-82.25 218.32,-75.52 207.72,-75.68 210.14,-82.25"/>
</g>
<!-- Node15 -->
<g id="node15" class="node">
<title>Node15</title>
<g id="a_node15"><a xlink:href="_e57_exception_8h.html" target="_top" xlink:title=" ">
<polygon fill="white" stroke="black" points="51,-56.5 51,-75.5 138,-75.5 138,-56.5 51,-56.5"/>
<text text-anchor="middle" x="94.5" y="-63.5" font-family="Helvetica,sans-Serif" font-size="10.00">E57Exception.h</text>
</a>
</g>
</g>
<!-- Node12&#45;&gt;Node15 -->
<g id="edge15" class="edge">
<title>Node12&#45;&gt;Node15</title>
<path fill="none" stroke="midnightblue" d="M94.5,-112.08C94.5,-105.01 94.5,-94.86 94.5,-85.99"/>
<polygon fill="midnightblue" stroke="midnightblue" points="98,-85.75 94.5,-75.75 91,-85.75 98,-85.75"/>
</g>
<!-- Node15&#45;&gt;Node7 -->
<g id="edge17" class="edge">
<title>Node15&#45;&gt;Node7</title>
<path fill="none" stroke="midnightblue" d="M130.15,-56.44C171.59,-46.5 239.68,-30.16 281.92,-20.02"/>
<polygon fill="midnightblue" stroke="midnightblue" points="282.91,-23.38 291.82,-17.64 281.28,-16.57 282.91,-23.38"/>
</g>
<!-- Node15&#45;&gt;Node10 -->
<g id="edge18" class="edge">
<title>Node15&#45;&gt;Node10</title>
<path fill="none" stroke="midnightblue" d="M82.61,-56.32C71.35,-48.11 54.21,-35.6 40.79,-25.81"/>
<polygon fill="midnightblue" stroke="midnightblue" points="42.75,-22.9 32.61,-19.83 38.62,-28.56 42.75,-22.9"/>
</g>
<!-- Node16 -->
<g id="node16" class="node">
<title>Node16</title>
<g id="a_node16"><a xlink:title=" ">
<polygon fill="white" stroke="#bfbfbf" points="150,-0.5 150,-19.5 209,-19.5 209,-0.5 150,-0.5"/>
<text text-anchor="middle" x="179.5" y="-7.5" font-family="Helvetica,sans-Serif" font-size="10.00">exception</text>
</a>
</g>
</g>
<!-- Node15&#45;&gt;Node16 -->
<g id="edge16" class="edge">
<title>Node15&#45;&gt;Node16</title>
<path fill="none" stroke="midnightblue" d="M108.16,-56.32C121.42,-47.9 141.77,-34.97 157.35,-25.07"/>
<polygon fill="midnightblue" stroke="midnightblue" points="159.31,-27.97 165.88,-19.65 155.56,-22.06 159.31,-27.97"/>
</g>
<!-- Node17 -->
<g id="node17" class="node">
<title>Node17</title>
<g id="a_node17"><a xlink:title=" ">
<polygon fill="white" stroke="#bfbfbf" points="59.5,-0.5 59.5,-19.5 131.5,-19.5 131.5,-0.5 59.5,-0.5"/>
<text text-anchor="middle" x="95.5" y="-7.5" font-family="Helvetica,sans-Serif" font-size="10.00">E57Export.h</text>
</a>
</g>
</g>
<!-- Node15&#45;&gt;Node17 -->
<g id="edge19" class="edge">
<title>Node15&#45;&gt;Node17</title>
<path fill="none" stroke="midnightblue" d="M94.67,-56.08C94.8,-49.01 94.98,-38.86 95.15,-29.99"/>
<polygon fill="midnightblue" stroke="midnightblue" points="98.65,-29.81 95.34,-19.75 91.65,-29.68 98.65,-29.81"/>
</g>
<!-- Node18&#45;&gt;Node5 -->
<g id="edge23" class="edge">
<title>Node18&#45;&gt;Node5</title>
<path fill="none" stroke="midnightblue" d="M384.15,-224.32C366.83,-215.66 339.98,-202.24 320,-192.25"/>
<polygon fill="midnightblue" stroke="midnightblue" points="321.32,-189 310.81,-187.65 318.19,-195.26 321.32,-189"/>
</g>
<!-- Node18&#45;&gt;Node11 -->
<g id="edge22" class="edge">
<title>Node18&#45;&gt;Node11</title>
<path fill="none" stroke="midnightblue" d="M397.95,-224.08C387.52,-197.83 356.79,-120.55 342.7,-85.12"/>
<polygon fill="midnightblue" stroke="midnightblue" points="345.85,-83.57 338.91,-75.57 339.35,-86.15 345.85,-83.57"/>
</g>
<!-- Node19 -->
<g id="node19" class="node">
<title>Node19</title>
<g id="a_node19"><a xlink:title=" ">
<polygon fill="white" stroke="#bfbfbf" points="452,-168.5 452,-187.5 497,-187.5 497,-168.5 452,-168.5"/>
<text text-anchor="middle" x="474.5" y="-175.5" font-family="Helvetica,sans-Serif" font-size="10.00">cstdint</text>
</a>
</g>
</g>
<!-- Node18&#45;&gt;Node19 -->
<g id="edge21" class="edge">
<title>Node18&#45;&gt;Node19</title>
<path fill="none" stroke="midnightblue" d="M413.23,-224.32C424.34,-216.11 441.24,-203.6 454.48,-193.81"/>
<polygon fill="midnightblue" stroke="midnightblue" points="456.6,-196.59 462.56,-187.83 452.44,-190.97 456.6,-196.59"/>
</g>
</g>
</svg>
