<?xml version="1.0" encoding="UTF-8" standalone="no"?>
<!DOCTYPE svg PUBLIC "-//W3C//DTD SVG 1.1//EN"
 "http://www.w3.org/Graphics/SVG/1.1/DTD/svg11.dtd">
<!-- Generated by graphviz version 2.48.0 (20210717.1556)
 -->
<!-- Title: Packet.h Pages: 1 -->
<svg width="715pt" height="140pt"
 viewBox="0.00 0.00 714.50 140.00" xmlns="http://www.w3.org/2000/svg" xmlns:xlink="http://www.w3.org/1999/xlink">
<g id="graph0" class="graph" transform="scale(1 1) rotate(0) translate(4 136)">
<title>Packet.h</title>
<polygon fill="white" stroke="transparent" points="-4,4 -4,-136 710.5,-136 710.5,4 -4,4"/>
<!-- Node1 -->
<g id="node1" class="node">
<title>Node1</title>
<g id="a_node1"><a xlink:title=" ">
<polygon fill="#bfbfbf" stroke="black" points="489,-112.5 489,-131.5 544,-131.5 544,-112.5 489,-112.5"/>
<text text-anchor="middle" x="516.5" y="-119.5" font-family="Helvetica,sans-Serif" font-size="10.00">Packet.h</text>
</a>
</g>
</g>
<!-- Node2 -->
<g id="node2" class="node">
<title>Node2</title>
<g id="a_node2"><a xlink:href="_compressed_vector_writer_impl_8h.html" target="_top" xlink:title=" ">
<polygon fill="white" stroke="black" points="187,-56.5 187,-75.5 342,-75.5 342,-56.5 187,-56.5"/>
<text text-anchor="middle" x="264.5" y="-63.5" font-family="Helvetica,sans-Serif" font-size="10.00">CompressedVectorWriterImpl.h</text>
</a>
</g>
</g>
<!-- Node1&#45;&gt;Node2 -->
<g id="edge1" class="edge">
<title>Node1&#45;&gt;Node2</title>
<path fill="none" stroke="midnightblue" d="M478.52,-112.86C431.67,-102.82 352.37,-85.83 304.57,-75.59"/>
<polygon fill="midnightblue" stroke="midnightblue" points="478.06,-116.34 488.57,-115.01 479.52,-109.5 478.06,-116.34"/>
</g>
<!-- Node6 -->
<g id="node6" class="node">
<title>Node6</title>
<g id="a_node6"><a xlink:href="_compressed_vector_reader_impl_8cpp.html" target="_top" xlink:title=" ">
<polygon fill="white" stroke="black" points="360.5,-56.5 360.5,-75.5 532.5,-75.5 532.5,-56.5 360.5,-56.5"/>
<text text-anchor="middle" x="446.5" y="-63.5" font-family="Helvetica,sans-Serif" font-size="10.00">CompressedVectorReaderImpl.cpp</text>
</a>
</g>
</g>
<!-- Node1&#45;&gt;Node6 -->
<g id="edge5" class="edge">
<title>Node1&#45;&gt;Node6</title>
<path fill="none" stroke="midnightblue" d="M497.19,-106.1C484.59,-96.38 468.57,-84.03 457.95,-75.83"/>
<polygon fill="midnightblue" stroke="midnightblue" points="495.2,-108.99 505.25,-112.32 499.47,-103.44 495.2,-108.99"/>
</g>
<!-- Node7 -->
<g id="node7" class="node">
<title>Node7</title>
<g id="a_node7"><a xlink:href="_encoder_8cpp.html" target="_top" xlink:title=" ">
<polygon fill="white" stroke="black" points="550.5,-56.5 550.5,-75.5 622.5,-75.5 622.5,-56.5 550.5,-56.5"/>
<text text-anchor="middle" x="586.5" y="-63.5" font-family="Helvetica,sans-Serif" font-size="10.00">Encoder.cpp</text>
</a>
</g>
</g>
<!-- Node1&#45;&gt;Node7 -->
<g id="edge6" class="edge">
<title>Node1&#45;&gt;Node7</title>
<path fill="none" stroke="midnightblue" d="M535.81,-106.1C548.41,-96.38 564.43,-84.03 575.05,-75.83"/>
<polygon fill="midnightblue" stroke="midnightblue" points="533.53,-103.44 527.75,-112.32 537.8,-108.99 533.53,-103.44"/>
</g>
<!-- Node8 -->
<g id="node8" class="node">
<title>Node8</title>
<g id="a_node8"><a xlink:href="_packet_8cpp.html" target="_top" xlink:title=" ">
<polygon fill="white" stroke="black" points="640.5,-56.5 640.5,-75.5 706.5,-75.5 706.5,-56.5 640.5,-56.5"/>
<text text-anchor="middle" x="673.5" y="-63.5" font-family="Helvetica,sans-Serif" font-size="10.00">Packet.cpp</text>
</a>
</g>
</g>
<!-- Node1&#45;&gt;Node8 -->
<g id="edge7" class="edge">
<title>Node1&#45;&gt;Node8</title>
<path fill="none" stroke="midnightblue" d="M550.89,-109.17C580.45,-99 622.37,-84.59 648.74,-75.52"/>
<polygon fill="midnightblue" stroke="midnightblue" points="549.7,-105.88 541.38,-112.44 551.97,-112.5 549.7,-105.88"/>
</g>
<!-- Node3 -->
<g id="node3" class="node">
<title>Node3</title>
<g id="a_node3"><a xlink:href="_compressed_vector_node_impl_8cpp.html" target="_top" xlink:title=" ">
<polygon fill="white" stroke="black" points="0,-0.5 0,-19.5 163,-19.5 163,-0.5 0,-0.5"/>
<text text-anchor="middle" x="81.5" y="-7.5" font-family="Helvetica,sans-Serif" font-size="10.00">CompressedVectorNodeImpl.cpp</text>
</a>
</g>
</g>
<!-- Node2&#45;&gt;Node3 -->
<g id="edge2" class="edge">
<title>Node2&#45;&gt;Node3</title>
<path fill="none" stroke="midnightblue" d="M225.76,-53.57C191.24,-43.38 141.49,-28.7 110.36,-19.52"/>
<polygon fill="midnightblue" stroke="midnightblue" points="224.92,-56.97 235.5,-56.44 226.9,-50.26 224.92,-56.97"/>
</g>
<!-- Node4 -->
<g id="node4" class="node">
<title>Node4</title>
<g id="a_node4"><a xlink:href="_compressed_vector_writer_impl_8cpp.html" target="_top" xlink:title=" ">
<polygon fill="white" stroke="black" points="181.5,-0.5 181.5,-19.5 347.5,-19.5 347.5,-0.5 181.5,-0.5"/>
<text text-anchor="middle" x="264.5" y="-7.5" font-family="Helvetica,sans-Serif" font-size="10.00">CompressedVectorWriterImpl.cpp</text>
</a>
</g>
</g>
<!-- Node2&#45;&gt;Node4 -->
<g id="edge3" class="edge">
<title>Node2&#45;&gt;Node4</title>
<path fill="none" stroke="midnightblue" d="M264.5,-45.8C264.5,-36.91 264.5,-26.78 264.5,-19.75"/>
<polygon fill="midnightblue" stroke="midnightblue" points="261,-46.08 264.5,-56.08 268,-46.08 261,-46.08"/>
</g>
<!-- Node5 -->
<g id="node5" class="node">
<title>Node5</title>
<g id="a_node5"><a xlink:href="_e57_format_8cpp.html" target="_top" xlink:title=" ">
<polygon fill="white" stroke="black" points="366,-0.5 366,-19.5 451,-19.5 451,-0.5 366,-0.5"/>
<text text-anchor="middle" x="408.5" y="-7.5" font-family="Helvetica,sans-Serif" font-size="10.00">E57Format.cpp</text>
</a>
</g>
</g>
<!-- Node2&#45;&gt;Node5 -->
<g id="edge4" class="edge">
<title>Node2&#45;&gt;Node5</title>
<path fill="none" stroke="midnightblue" d="M296.75,-52.91C323.82,-42.75 361.82,-28.51 385.79,-19.52"/>
<polygon fill="midnightblue" stroke="midnightblue" points="295.45,-49.66 287.32,-56.44 297.91,-56.21 295.45,-49.66"/>
</g>
</g>
</svg>
