<?xml version="1.0" encoding="UTF-8" standalone="no"?>
<!DOCTYPE svg PUBLIC "-//W3C//DTD SVG 1.1//EN"
 "http://www.w3.org/Graphics/SVG/1.1/DTD/svg11.dtd">
<!-- Generated by graphviz version 2.48.0 (20210717.1556)
 -->
<!-- Title: Packet.h Pages: 1 -->
<svg width="369pt" height="252pt"
 viewBox="0.00 0.00 368.56 252.00" xmlns="http://www.w3.org/2000/svg" xmlns:xlink="http://www.w3.org/1999/xlink">
<g id="graph0" class="graph" transform="scale(1 1) rotate(0) translate(4 248)">
<title>Packet.h</title>
<polygon fill="white" stroke="transparent" points="-4,4 -4,-248 364.56,-248 364.56,4 -4,4"/>
<!-- Node1 -->
<g id="node1" class="node">
<title>Node1</title>
<g id="a_node1"><a xlink:title=" ">
<polygon fill="#bfbfbf" stroke="black" points="179.56,-224.5 179.56,-243.5 234.56,-243.5 234.56,-224.5 179.56,-224.5"/>
<text text-anchor="middle" x="207.06" y="-231.5" font-family="Helvetica,sans-Serif" font-size="10.00">Packet.h</text>
</a>
</g>
</g>
<!-- Node2 -->
<g id="node2" class="node">
<title>Node2</title>
<g id="a_node2"><a xlink:title=" ">
<polygon fill="white" stroke="#bfbfbf" points="111.56,-168.5 111.56,-187.5 156.56,-187.5 156.56,-168.5 111.56,-168.5"/>
<text text-anchor="middle" x="134.06" y="-175.5" font-family="Helvetica,sans-Serif" font-size="10.00">cstdint</text>
</a>
</g>
</g>
<!-- Node1&#45;&gt;Node2 -->
<g id="edge1" class="edge">
<title>Node1&#45;&gt;Node2</title>
<path fill="none" stroke="midnightblue" d="M195.33,-224.32C184.22,-216.11 167.32,-203.6 154.08,-193.81"/>
<polygon fill="midnightblue" stroke="midnightblue" points="156.12,-190.97 146,-187.83 151.96,-196.59 156.12,-190.97"/>
</g>
<!-- Node3 -->
<g id="node3" class="node">
<title>Node3</title>
<g id="a_node3"><a xlink:title=" ">
<polygon fill="white" stroke="#bfbfbf" points="265.06,-56.5 265.06,-75.5 309.06,-75.5 309.06,-56.5 265.06,-56.5"/>
<text text-anchor="middle" x="287.06" y="-63.5" font-family="Helvetica,sans-Serif" font-size="10.00">vector</text>
</a>
</g>
</g>
<!-- Node1&#45;&gt;Node3 -->
<g id="edge2" class="edge">
<title>Node1&#45;&gt;Node3</title>
<path fill="none" stroke="midnightblue" d="M225.47,-224.39C253.92,-209.93 307.53,-177.78 329.06,-132 337.6,-113.84 321.88,-94.75 307.3,-81.99"/>
<polygon fill="midnightblue" stroke="midnightblue" points="309.44,-79.22 299.48,-75.6 305.01,-84.64 309.44,-79.22"/>
</g>
<!-- Node4 -->
<g id="node4" class="node">
<title>Node4</title>
<g id="a_node4"><a xlink:href="_common_8h.html" target="_top" xlink:title=" ">
<polygon fill="white" stroke="black" points="174.56,-168.5 174.56,-187.5 239.56,-187.5 239.56,-168.5 174.56,-168.5"/>
<text text-anchor="middle" x="207.06" y="-175.5" font-family="Helvetica,sans-Serif" font-size="10.00">Common.h</text>
</a>
</g>
</g>
<!-- Node1&#45;&gt;Node4 -->
<g id="edge3" class="edge">
<title>Node1&#45;&gt;Node4</title>
<path fill="none" stroke="midnightblue" d="M207.06,-224.08C207.06,-217.01 207.06,-206.86 207.06,-197.99"/>
<polygon fill="midnightblue" stroke="midnightblue" points="210.56,-197.75 207.06,-187.75 203.56,-197.75 210.56,-197.75"/>
</g>
<!-- Node4&#45;&gt;Node3 -->
<g id="edge9" class="edge">
<title>Node4&#45;&gt;Node3</title>
<path fill="none" stroke="midnightblue" d="M213.34,-168.37C226.54,-150.22 257.39,-107.8 274.71,-83.99"/>
<polygon fill="midnightblue" stroke="midnightblue" points="277.76,-85.74 280.81,-75.59 272.1,-81.62 277.76,-85.74"/>
</g>
<!-- Node5 -->
<g id="node5" class="node">
<title>Node5</title>
<g id="a_node5"><a xlink:title=" ">
<polygon fill="white" stroke="#bfbfbf" points="268.06,-112.5 268.06,-131.5 320.06,-131.5 320.06,-112.5 268.06,-112.5"/>
<text text-anchor="middle" x="294.06" y="-119.5" font-family="Helvetica,sans-Serif" font-size="10.00">iomanip</text>
</a>
</g>
</g>
<!-- Node4&#45;&gt;Node5 -->
<g id="edge4" class="edge">
<title>Node4&#45;&gt;Node5</title>
<path fill="none" stroke="midnightblue" d="M221.04,-168.32C234.61,-159.9 255.44,-146.97 271.39,-137.07"/>
<polygon fill="midnightblue" stroke="midnightblue" points="273.47,-139.9 280.12,-131.65 269.78,-133.95 273.47,-139.9"/>
</g>
<!-- Node6 -->
<g id="node6" class="node">
<title>Node6</title>
<g id="a_node6"><a xlink:title=" ">
<polygon fill="white" stroke="#bfbfbf" points="305.56,-0.5 305.56,-19.5 360.56,-19.5 360.56,-0.5 305.56,-0.5"/>
<text text-anchor="middle" x="333.06" y="-7.5" font-family="Helvetica,sans-Serif" font-size="10.00">iostream</text>
</a>
</g>
</g>
<!-- Node4&#45;&gt;Node6 -->
<g id="edge5" class="edge">
<title>Node4&#45;&gt;Node6</title>
<path fill="none" stroke="midnightblue" d="M239.76,-174.72C268.44,-170.82 308.65,-160.28 329.06,-132 350.92,-101.72 344.36,-55.17 338.3,-29.53"/>
<polygon fill="midnightblue" stroke="midnightblue" points="341.64,-28.45 335.74,-19.65 334.86,-30.2 341.64,-28.45"/>
</g>
<!-- Node7 -->
<g id="node7" class="node">
<title>Node7</title>
<g id="a_node7"><a xlink:title=" ">
<polygon fill="white" stroke="#bfbfbf" points="20.06,-112.5 20.06,-131.5 50.06,-131.5 50.06,-112.5 20.06,-112.5"/>
<text text-anchor="middle" x="35.06" y="-119.5" font-family="Helvetica,sans-Serif" font-size="10.00">set</text>
</a>
</g>
</g>
<!-- Node4&#45;&gt;Node7 -->
<g id="edge6" class="edge">
<title>Node4&#45;&gt;Node7</title>
<path fill="none" stroke="midnightblue" d="M176.84,-168.42C148.73,-160.31 105.53,-147.5 59.74,-132.08"/>
<polygon fill="midnightblue" stroke="midnightblue" points="60.84,-128.76 50.24,-128.86 58.59,-135.39 60.84,-128.76"/>
</g>
<!-- Node8 -->
<g id="node8" class="node">
<title>Node8</title>
<g id="a_node8"><a xlink:title=" ">
<polygon fill="white" stroke="#bfbfbf" points="68.06,-112.5 68.06,-131.5 120.06,-131.5 120.06,-112.5 68.06,-112.5"/>
<text text-anchor="middle" x="94.06" y="-119.5" font-family="Helvetica,sans-Serif" font-size="10.00">sstream</text>
</a>
</g>
</g>
<!-- Node4&#45;&gt;Node8 -->
<g id="edge7" class="edge">
<title>Node4&#45;&gt;Node8</title>
<path fill="none" stroke="midnightblue" d="M189.16,-168.44C170.81,-159.68 142.06,-145.94 120.97,-135.86"/>
<polygon fill="midnightblue" stroke="midnightblue" points="122.41,-132.67 111.88,-131.52 119.4,-138.99 122.41,-132.67"/>
</g>
<!-- Node9 -->
<g id="node9" class="node">
<title>Node9</title>
<g id="a_node9"><a xlink:title=" ">
<polygon fill="white" stroke="#bfbfbf" points="17.56,-0.5 17.56,-19.5 58.56,-19.5 58.56,-0.5 17.56,-0.5"/>
<text text-anchor="middle" x="38.06" y="-7.5" font-family="Helvetica,sans-Serif" font-size="10.00">string</text>
</a>
</g>
</g>
<!-- Node4&#45;&gt;Node9 -->
<g id="edge8" class="edge">
<title>Node4&#45;&gt;Node9</title>
<path fill="none" stroke="midnightblue" d="M174.52,-169.8C119.13,-157.5 12.35,-133.62 11.06,-132 -13.19,-101.54 10.31,-53.71 26.19,-28.27"/>
<polygon fill="midnightblue" stroke="midnightblue" points="29.25,-29.98 31.79,-19.7 23.39,-26.16 29.25,-29.98"/>
</g>
<!-- Node10 -->
<g id="node10" class="node">
<title>Node10</title>
<g id="a_node10"><a xlink:href="_e57_format_8h.html" target="_top" xlink:title="header file for the E57 API">
<polygon fill="white" stroke="black" points="138.06,-112.5 138.06,-131.5 212.06,-131.5 212.06,-112.5 138.06,-112.5"/>
<text text-anchor="middle" x="175.06" y="-119.5" font-family="Helvetica,sans-Serif" font-size="10.00">E57Format.h</text>
</a>
</g>
</g>
<!-- Node4&#45;&gt;Node10 -->
<g id="edge10" class="edge">
<title>Node4&#45;&gt;Node10</title>
<path fill="none" stroke="midnightblue" d="M201.78,-168.08C197.35,-160.61 190.9,-149.72 185.44,-140.52"/>
<polygon fill="midnightblue" stroke="midnightblue" points="188.36,-138.57 180.25,-131.75 182.33,-142.14 188.36,-138.57"/>
</g>
<!-- Node10&#45;&gt;Node3 -->
<g id="edge13" class="edge">
<title>Node10&#45;&gt;Node3</title>
<path fill="none" stroke="midnightblue" d="M193.06,-112.32C211.1,-103.62 239.11,-90.12 259.86,-80.11"/>
<polygon fill="midnightblue" stroke="midnightblue" points="261.62,-83.15 269.11,-75.65 258.58,-76.84 261.62,-83.15"/>
</g>
<!-- Node11 -->
<g id="node11" class="node">
<title>Node11</title>
<g id="a_node11"><a xlink:title=" ">
<polygon fill="white" stroke="#bfbfbf" points="30.06,-56.5 30.06,-75.5 70.06,-75.5 70.06,-56.5 30.06,-56.5"/>
<text text-anchor="middle" x="50.06" y="-63.5" font-family="Helvetica,sans-Serif" font-size="10.00">cfloat</text>
</a>
</g>
</g>
<!-- Node10&#45;&gt;Node11 -->
<g id="edge11" class="edge">
<title>Node10&#45;&gt;Node11</title>
<path fill="none" stroke="midnightblue" d="M155.25,-112.44C134.77,-103.6 102.58,-89.69 79.2,-79.59"/>
<polygon fill="midnightblue" stroke="midnightblue" points="80.34,-76.27 69.78,-75.52 77.57,-82.7 80.34,-76.27"/>
</g>
<!-- Node12 -->
<g id="node12" class="node">
<title>Node12</title>
<g id="a_node12"><a xlink:title=" ">
<polygon fill="white" stroke="#bfbfbf" points="88.56,-56.5 88.56,-75.5 141.56,-75.5 141.56,-56.5 88.56,-56.5"/>
<text text-anchor="middle" x="115.06" y="-63.5" font-family="Helvetica,sans-Serif" font-size="10.00">memory</text>
</a>
</g>
</g>
<!-- Node10&#45;&gt;Node12 -->
<g id="edge12" class="edge">
<title>Node10&#45;&gt;Node12</title>
<path fill="none" stroke="midnightblue" d="M165.42,-112.32C156.55,-104.34 143.19,-92.31 132.45,-82.65"/>
<polygon fill="midnightblue" stroke="midnightblue" points="134.65,-79.92 124.88,-75.83 129.97,-85.13 134.65,-79.92"/>
</g>
<!-- Node13 -->
<g id="node13" class="node">
<title>Node13</title>
<g id="a_node13"><a xlink:href="_e57_exception_8h.html" target="_top" xlink:title=" ">
<polygon fill="white" stroke="black" points="159.56,-56.5 159.56,-75.5 246.56,-75.5 246.56,-56.5 159.56,-56.5"/>
<text text-anchor="middle" x="203.06" y="-63.5" font-family="Helvetica,sans-Serif" font-size="10.00">E57Exception.h</text>
</a>
</g>
</g>
<!-- Node10&#45;&gt;Node13 -->
<g id="edge14" class="edge">
<title>Node10&#45;&gt;Node13</title>
<path fill="none" stroke="midnightblue" d="M179.69,-112.08C183.52,-104.69 189.09,-93.95 193.83,-84.81"/>
<polygon fill="midnightblue" stroke="midnightblue" points="197.03,-86.24 198.52,-75.75 190.81,-83.02 197.03,-86.24"/>
</g>
<!-- Node13&#45;&gt;Node6 -->
<g id="edge16" class="edge">
<title>Node13&#45;&gt;Node6</title>
<path fill="none" stroke="midnightblue" d="M223.66,-56.44C245.05,-47.56 278.74,-33.56 303.09,-23.45"/>
<polygon fill="midnightblue" stroke="midnightblue" points="304.67,-26.58 312.56,-19.52 301.98,-20.12 304.67,-26.58"/>
</g>
<!-- Node13&#45;&gt;Node9 -->
<g id="edge17" class="edge">
<title>Node13&#45;&gt;Node9</title>
<path fill="none" stroke="midnightblue" d="M176.92,-56.44C147.53,-46.82 99.86,-31.22 68.73,-21.04"/>
<polygon fill="midnightblue" stroke="midnightblue" points="69.45,-17.59 58.86,-17.81 67.27,-24.24 69.45,-17.59"/>
</g>
<!-- Node14 -->
<g id="node14" class="node">
<title>Node14</title>
<g id="a_node14"><a xlink:title=" ">
<polygon fill="white" stroke="#bfbfbf" points="188.56,-0.5 188.56,-19.5 247.56,-19.5 247.56,-0.5 188.56,-0.5"/>
<text text-anchor="middle" x="218.06" y="-7.5" font-family="Helvetica,sans-Serif" font-size="10.00">exception</text>
</a>
</g>
</g>
<!-- Node13&#45;&gt;Node14 -->
<g id="edge15" class="edge">
<title>Node13&#45;&gt;Node14</title>
<path fill="none" stroke="midnightblue" d="M205.54,-56.08C207.55,-48.85 210.45,-38.41 212.95,-29.4"/>
<polygon fill="midnightblue" stroke="midnightblue" points="216.33,-30.32 215.63,-19.75 209.58,-28.45 216.33,-30.32"/>
</g>
<!-- Node15 -->
<g id="node15" class="node">
<title>Node15</title>
<g id="a_node15"><a xlink:title=" ">
<polygon fill="white" stroke="#bfbfbf" points="98.06,-0.5 98.06,-19.5 170.06,-19.5 170.06,-0.5 98.06,-0.5"/>
<text text-anchor="middle" x="134.06" y="-7.5" font-family="Helvetica,sans-Serif" font-size="10.00">E57Export.h</text>
</a>
</g>
</g>
<!-- Node13&#45;&gt;Node15 -->
<g id="edge18" class="edge">
<title>Node13&#45;&gt;Node15</title>
<path fill="none" stroke="midnightblue" d="M191.98,-56.32C181.58,-48.18 165.8,-35.84 153.34,-26.09"/>
<polygon fill="midnightblue" stroke="midnightblue" points="155.38,-23.24 145.35,-19.83 151.07,-28.75 155.38,-23.24"/>
</g>
</g>
</svg>
