<?xml version="1.0" encoding="UTF-8" standalone="no"?>
<!DOCTYPE svg PUBLIC "-//W3C//DTD SVG 1.1//EN"
 "http://www.w3.org/Graphics/SVG/1.1/DTD/svg11.dtd">
<!-- Generated by graphviz version 2.44.0 (20200408.0750)
 -->
<!-- Title: ReaderImpl.h Pages: 1 -->
<svg width="226pt" height="84pt"
 viewBox="0.00 0.00 225.50 84.00" xmlns="http://www.w3.org/2000/svg" xmlns:xlink="http://www.w3.org/1999/xlink">
<g id="graph0" class="graph" transform="scale(1 1) rotate(0) translate(4 80)">
<title>ReaderImpl.h</title>
<polygon fill="white" stroke="transparent" points="-4,4 -4,-80 221.5,-80 221.5,4 -4,4"/>
<!-- Node1 -->
<g id="node1" class="node">
<title>Node1</title>
<g id="a_node1"><a xlink:title=" ">
<polygon fill="#bfbfbf" stroke="black" points="78,-56.5 78,-75.5 153,-75.5 153,-56.5 78,-56.5"/>
<text text-anchor="middle" x="115.5" y="-63.5" font-family="Helvetica,sans-Serif" font-size="10.00">ReaderImpl.h</text>
</a>
</g>
</g>
<!-- Node2 -->
<g id="node2" class="node">
<title>Node2</title>
<g id="a_node2"><a xlink:href="_e57_simple_reader_8cpp.html" target="_top" xlink:title=" ">
<polygon fill="white" stroke="black" points="0,-0.5 0,-19.5 113,-19.5 113,-0.5 0,-0.5"/>
<text text-anchor="middle" x="56.5" y="-7.5" font-family="Helvetica,sans-Serif" font-size="10.00">E57SimpleReader.cpp</text>
</a>
</g>
</g>
<!-- Node1&#45;&gt;Node2 -->
<g id="edge1" class="edge">
<title>Node1&#45;&gt;Node2</title>
<path fill="none" stroke="midnightblue" d="M98.61,-49.54C88.09,-39.91 74.93,-27.87 66.15,-19.83"/>
<polygon fill="midnightblue" stroke="midnightblue" points="96.28,-52.15 106.02,-56.32 101.01,-46.99 96.28,-52.15"/>
</g>
<!-- Node3 -->
<g id="node3" class="node">
<title>Node3</title>
<g id="a_node3"><a xlink:href="_reader_impl_8cpp.html" target="_top" xlink:title=" ">
<polygon fill="white" stroke="black" points="131.5,-0.5 131.5,-19.5 217.5,-19.5 217.5,-0.5 131.5,-0.5"/>
<text text-anchor="middle" x="174.5" y="-7.5" font-family="Helvetica,sans-Serif" font-size="10.00">ReaderImpl.cpp</text>
</a>
</g>
</g>
<!-- Node1&#45;&gt;Node3 -->
<g id="edge2" class="edge">
<title>Node1&#45;&gt;Node3</title>
<path fill="none" stroke="midnightblue" d="M132.39,-49.54C142.91,-39.91 156.07,-27.87 164.85,-19.83"/>
<polygon fill="midnightblue" stroke="midnightblue" points="129.99,-46.99 124.98,-56.32 134.72,-52.15 129.99,-46.99"/>
</g>
</g>
</svg>
