<?xml version="1.0" encoding="UTF-8" standalone="no"?>
<!DOCTYPE svg PUBLIC "-//W3C//DTD SVG 1.1//EN"
 "http://www.w3.org/Graphics/SVG/1.1/DTD/svg11.dtd">
<!-- Generated by graphviz version 2.44.0 (20200408.0750)
 -->
<!-- Title: SourceDestBufferImpl.cpp Pages: 1 -->
<svg width="459pt" height="308pt"
 viewBox="0.00 0.00 459.08 308.00" xmlns="http://www.w3.org/2000/svg" xmlns:xlink="http://www.w3.org/1999/xlink">
<g id="graph0" class="graph" transform="scale(1 1) rotate(0) translate(4 304)">
<title>SourceDestBufferImpl.cpp</title>
<polygon fill="white" stroke="transparent" points="-4,4 -4,-304 455.08,-304 455.08,4 -4,4"/>
<!-- Node1 -->
<g id="node1" class="node">
<title>Node1</title>
<g id="a_node1"><a xlink:title=" ">
<polygon fill="#bfbfbf" stroke="black" points="99,-280.5 99,-299.5 231,-299.5 231,-280.5 99,-280.5"/>
<text text-anchor="middle" x="165" y="-287.5" font-family="Helvetica,sans-Serif" font-size="10.00">SourceDestBufferImpl.cpp</text>
</a>
</g>
</g>
<!-- Node2 -->
<g id="node2" class="node">
<title>Node2</title>
<g id="a_node2"><a xlink:title=" ">
<polygon fill="white" stroke="#bfbfbf" points="60,-224.5 60,-243.5 104,-243.5 104,-224.5 60,-224.5"/>
<text text-anchor="middle" x="82" y="-231.5" font-family="Helvetica,sans-Serif" font-size="10.00">cmath</text>
</a>
</g>
</g>
<!-- Node1&#45;&gt;Node2 -->
<g id="edge1" class="edge">
<title>Node1&#45;&gt;Node2</title>
<path fill="none" stroke="midnightblue" d="M151.66,-280.32C138.84,-271.98 119.22,-259.21 104.06,-249.35"/>
<polygon fill="midnightblue" stroke="midnightblue" points="105.59,-246.17 95.3,-243.65 101.78,-252.04 105.59,-246.17"/>
</g>
<!-- Node3 -->
<g id="node3" class="node">
<title>Node3</title>
<g id="a_node3"><a xlink:href="_image_file_impl_8h.html" target="_top" xlink:title=" ">
<polygon fill="white" stroke="black" points="122,-224.5 122,-243.5 208,-243.5 208,-224.5 122,-224.5"/>
<text text-anchor="middle" x="165" y="-231.5" font-family="Helvetica,sans-Serif" font-size="10.00">ImageFileImpl.h</text>
</a>
</g>
</g>
<!-- Node1&#45;&gt;Node3 -->
<g id="edge2" class="edge">
<title>Node1&#45;&gt;Node3</title>
<path fill="none" stroke="midnightblue" d="M165,-280.08C165,-273.01 165,-262.86 165,-253.99"/>
<polygon fill="midnightblue" stroke="midnightblue" points="168.5,-253.75 165,-243.75 161.5,-253.75 168.5,-253.75"/>
</g>
<!-- Node17 -->
<g id="node17" class="node">
<title>Node17</title>
<g id="a_node17"><a xlink:href="_source_dest_buffer_impl_8h.html" target="_top" xlink:title=" ">
<polygon fill="white" stroke="black" points="226,-224.5 226,-243.5 348,-243.5 348,-224.5 226,-224.5"/>
<text text-anchor="middle" x="287" y="-231.5" font-family="Helvetica,sans-Serif" font-size="10.00">SourceDestBufferImpl.h</text>
</a>
</g>
</g>
<!-- Node1&#45;&gt;Node17 -->
<g id="edge20" class="edge">
<title>Node1&#45;&gt;Node17</title>
<path fill="none" stroke="midnightblue" d="M184.33,-280.44C204.32,-271.6 235.74,-257.69 258.56,-247.59"/>
<polygon fill="midnightblue" stroke="midnightblue" points="260.03,-250.76 267.76,-243.52 257.2,-244.36 260.03,-250.76"/>
</g>
<!-- Node4 -->
<g id="node4" class="node">
<title>Node4</title>
<g id="a_node4"><a xlink:title=" ">
<polygon fill="white" stroke="#bfbfbf" points="0,-56.5 0,-75.5 52,-75.5 52,-56.5 0,-56.5"/>
<text text-anchor="middle" x="26" y="-63.5" font-family="Helvetica,sans-Serif" font-size="10.00">memory</text>
</a>
</g>
</g>
<!-- Node3&#45;&gt;Node4 -->
<g id="edge3" class="edge">
<title>Node3&#45;&gt;Node4</title>
<path fill="none" stroke="midnightblue" d="M157.53,-224.08C135.17,-197.38 68.59,-117.87 39.67,-83.32"/>
<polygon fill="midnightblue" stroke="midnightblue" points="42.28,-80.99 33.17,-75.57 36.91,-85.48 42.28,-80.99"/>
</g>
<!-- Node5 -->
<g id="node5" class="node">
<title>Node5</title>
<g id="a_node5"><a xlink:href="_common_8h.html" target="_top" xlink:title=" ">
<polygon fill="white" stroke="black" points="254.5,-168.5 254.5,-187.5 319.5,-187.5 319.5,-168.5 254.5,-168.5"/>
<text text-anchor="middle" x="287" y="-175.5" font-family="Helvetica,sans-Serif" font-size="10.00">Common.h</text>
</a>
</g>
</g>
<!-- Node3&#45;&gt;Node5 -->
<g id="edge4" class="edge">
<title>Node3&#45;&gt;Node5</title>
<path fill="none" stroke="midnightblue" d="M184.33,-224.44C204.32,-215.6 235.74,-201.69 258.56,-191.59"/>
<polygon fill="midnightblue" stroke="midnightblue" points="260.03,-194.76 267.76,-187.52 257.2,-188.36 260.03,-194.76"/>
</g>
<!-- Node6 -->
<g id="node6" class="node">
<title>Node6</title>
<g id="a_node6"><a xlink:title=" ">
<polygon fill="white" stroke="#bfbfbf" points="190,-112.5 190,-131.5 240,-131.5 240,-112.5 190,-112.5"/>
<text text-anchor="middle" x="215" y="-119.5" font-family="Helvetica,sans-Serif" font-size="10.00">iomanip</text>
</a>
</g>
</g>
<!-- Node5&#45;&gt;Node6 -->
<g id="edge5" class="edge">
<title>Node5&#45;&gt;Node6</title>
<path fill="none" stroke="midnightblue" d="M275.43,-168.32C264.58,-160.18 248.12,-147.84 235.12,-138.09"/>
<polygon fill="midnightblue" stroke="midnightblue" points="236.88,-135.03 226.78,-131.83 232.68,-140.63 236.88,-135.03"/>
</g>
<!-- Node7 -->
<g id="node7" class="node">
<title>Node7</title>
<g id="a_node7"><a xlink:title=" ">
<polygon fill="white" stroke="#bfbfbf" points="220,-0.5 220,-19.5 274,-19.5 274,-0.5 220,-0.5"/>
<text text-anchor="middle" x="247" y="-7.5" font-family="Helvetica,sans-Serif" font-size="10.00">iostream</text>
</a>
</g>
</g>
<!-- Node5&#45;&gt;Node7 -->
<g id="edge6" class="edge">
<title>Node5&#45;&gt;Node7</title>
<path fill="none" stroke="midnightblue" d="M289.01,-168.41C293.36,-148.07 302.08,-95.66 287,-56 282.66,-44.6 273.97,-34.24 265.79,-26.34"/>
<polygon fill="midnightblue" stroke="midnightblue" points="268.04,-23.66 258.27,-19.57 263.36,-28.86 268.04,-23.66"/>
</g>
<!-- Node8 -->
<g id="node8" class="node">
<title>Node8</title>
<g id="a_node8"><a xlink:title=" ">
<polygon fill="white" stroke="#bfbfbf" points="334,-112.5 334,-131.5 364,-131.5 364,-112.5 334,-112.5"/>
<text text-anchor="middle" x="349" y="-119.5" font-family="Helvetica,sans-Serif" font-size="10.00">set</text>
</a>
</g>
</g>
<!-- Node5&#45;&gt;Node8 -->
<g id="edge7" class="edge">
<title>Node5&#45;&gt;Node8</title>
<path fill="none" stroke="midnightblue" d="M296.96,-168.32C306.13,-160.34 319.94,-148.31 331.03,-138.65"/>
<polygon fill="midnightblue" stroke="midnightblue" points="333.62,-141.04 338.86,-131.83 329.02,-135.76 333.62,-141.04"/>
</g>
<!-- Node9 -->
<g id="node9" class="node">
<title>Node9</title>
<g id="a_node9"><a xlink:title=" ">
<polygon fill="white" stroke="#bfbfbf" points="382,-112.5 382,-131.5 434,-131.5 434,-112.5 382,-112.5"/>
<text text-anchor="middle" x="408" y="-119.5" font-family="Helvetica,sans-Serif" font-size="10.00">sstream</text>
</a>
</g>
</g>
<!-- Node5&#45;&gt;Node9 -->
<g id="edge8" class="edge">
<title>Node5&#45;&gt;Node9</title>
<path fill="none" stroke="midnightblue" d="M306.17,-168.44C325.91,-159.64 356.89,-145.81 379.49,-135.72"/>
<polygon fill="midnightblue" stroke="midnightblue" points="381.21,-138.79 388.92,-131.52 378.36,-132.4 381.21,-138.79"/>
</g>
<!-- Node10 -->
<g id="node10" class="node">
<title>Node10</title>
<g id="a_node10"><a xlink:title=" ">
<polygon fill="white" stroke="#bfbfbf" points="346.5,-0.5 346.5,-19.5 387.5,-19.5 387.5,-0.5 346.5,-0.5"/>
<text text-anchor="middle" x="367" y="-7.5" font-family="Helvetica,sans-Serif" font-size="10.00">string</text>
</a>
</g>
</g>
<!-- Node5&#45;&gt;Node10 -->
<g id="edge9" class="edge">
<title>Node5&#45;&gt;Node10</title>
<path fill="none" stroke="midnightblue" d="M319.52,-172.26C360.72,-165.5 428.17,-151.71 443,-132 470.54,-95.4 418.82,-48.65 387.84,-25.43"/>
<polygon fill="midnightblue" stroke="midnightblue" points="389.88,-22.59 379.74,-19.54 385.77,-28.25 389.88,-22.59"/>
</g>
<!-- Node11 -->
<g id="node11" class="node">
<title>Node11</title>
<g id="a_node11"><a xlink:title=" ">
<polygon fill="white" stroke="#bfbfbf" points="234,-56.5 234,-75.5 278,-75.5 278,-56.5 234,-56.5"/>
<text text-anchor="middle" x="256" y="-63.5" font-family="Helvetica,sans-Serif" font-size="10.00">vector</text>
</a>
</g>
</g>
<!-- Node5&#45;&gt;Node11 -->
<g id="edge10" class="edge">
<title>Node5&#45;&gt;Node11</title>
<path fill="none" stroke="midnightblue" d="M284.57,-168.37C279.54,-150.54 267.92,-109.3 261.15,-85.27"/>
<polygon fill="midnightblue" stroke="midnightblue" points="264.5,-84.27 258.42,-75.59 257.77,-86.17 264.5,-84.27"/>
</g>
<!-- Node12 -->
<g id="node12" class="node">
<title>Node12</title>
<g id="a_node12"><a xlink:href="_e57_format_8h.html" target="_top" xlink:title=" ">
<polygon fill="white" stroke="black" points="98.5,-112.5 98.5,-131.5 171.5,-131.5 171.5,-112.5 98.5,-112.5"/>
<text text-anchor="middle" x="135" y="-119.5" font-family="Helvetica,sans-Serif" font-size="10.00">E57Format.h</text>
</a>
</g>
</g>
<!-- Node5&#45;&gt;Node12 -->
<g id="edge11" class="edge">
<title>Node5&#45;&gt;Node12</title>
<path fill="none" stroke="midnightblue" d="M262.92,-168.44C237.46,-159.4 197.11,-145.06 168.54,-134.92"/>
<polygon fill="midnightblue" stroke="midnightblue" points="169.57,-131.57 158.97,-131.52 167.22,-138.16 169.57,-131.57"/>
</g>
<!-- Node12&#45;&gt;Node4 -->
<g id="edge13" class="edge">
<title>Node12&#45;&gt;Node4</title>
<path fill="none" stroke="midnightblue" d="M117.49,-112.32C99.93,-103.62 72.67,-90.12 52.47,-80.11"/>
<polygon fill="midnightblue" stroke="midnightblue" points="53.98,-76.96 43.47,-75.65 50.88,-83.23 53.98,-76.96"/>
</g>
<!-- Node12&#45;&gt;Node11 -->
<g id="edge14" class="edge">
<title>Node12&#45;&gt;Node11</title>
<path fill="none" stroke="midnightblue" d="M154.17,-112.44C173.91,-103.64 204.89,-89.81 227.49,-79.72"/>
<polygon fill="midnightblue" stroke="midnightblue" points="229.21,-82.79 236.92,-75.52 226.36,-76.4 229.21,-82.79"/>
</g>
<!-- Node13 -->
<g id="node13" class="node">
<title>Node13</title>
<g id="a_node13"><a xlink:title=" ">
<polygon fill="white" stroke="#bfbfbf" points="174.5,-56.5 174.5,-75.5 215.5,-75.5 215.5,-56.5 174.5,-56.5"/>
<text text-anchor="middle" x="195" y="-63.5" font-family="Helvetica,sans-Serif" font-size="10.00">cfloat</text>
</a>
</g>
</g>
<!-- Node12&#45;&gt;Node13 -->
<g id="edge12" class="edge">
<title>Node12&#45;&gt;Node13</title>
<path fill="none" stroke="midnightblue" d="M144.64,-112.32C153.51,-104.34 166.87,-92.31 177.61,-82.65"/>
<polygon fill="midnightblue" stroke="midnightblue" points="180.09,-85.13 185.18,-75.83 175.41,-79.92 180.09,-85.13"/>
</g>
<!-- Node14 -->
<g id="node14" class="node">
<title>Node14</title>
<g id="a_node14"><a xlink:href="_e57_exception_8h.html" target="_top" xlink:title=" ">
<polygon fill="white" stroke="black" points="70,-56.5 70,-75.5 156,-75.5 156,-56.5 70,-56.5"/>
<text text-anchor="middle" x="113" y="-63.5" font-family="Helvetica,sans-Serif" font-size="10.00">E57Exception.h</text>
</a>
</g>
</g>
<!-- Node12&#45;&gt;Node14 -->
<g id="edge15" class="edge">
<title>Node12&#45;&gt;Node14</title>
<path fill="none" stroke="midnightblue" d="M131.37,-112.08C128.39,-104.77 124.07,-94.18 120.38,-85.1"/>
<polygon fill="midnightblue" stroke="midnightblue" points="123.58,-83.69 116.57,-75.75 117.1,-86.33 123.58,-83.69"/>
</g>
<!-- Node14&#45;&gt;Node7 -->
<g id="edge17" class="edge">
<title>Node14&#45;&gt;Node7</title>
<path fill="none" stroke="midnightblue" d="M134.23,-56.44C156.38,-47.52 191.32,-33.44 216.44,-23.32"/>
<polygon fill="midnightblue" stroke="midnightblue" points="217.9,-26.5 225.87,-19.52 215.28,-20.01 217.9,-26.5"/>
</g>
<!-- Node14&#45;&gt;Node10 -->
<g id="edge18" class="edge">
<title>Node14&#45;&gt;Node10</title>
<path fill="none" stroke="midnightblue" d="M153.25,-56.44C204.12,-45.63 290.57,-27.25 336.38,-17.51"/>
<polygon fill="midnightblue" stroke="midnightblue" points="337.26,-20.9 346.32,-15.4 335.81,-14.05 337.26,-20.9"/>
</g>
<!-- Node15 -->
<g id="node15" class="node">
<title>Node15</title>
<g id="a_node15"><a xlink:title=" ">
<polygon fill="white" stroke="#bfbfbf" points="125.5,-0.5 125.5,-19.5 184.5,-19.5 184.5,-0.5 125.5,-0.5"/>
<text text-anchor="middle" x="155" y="-7.5" font-family="Helvetica,sans-Serif" font-size="10.00">exception</text>
</a>
</g>
</g>
<!-- Node14&#45;&gt;Node15 -->
<g id="edge16" class="edge">
<title>Node14&#45;&gt;Node15</title>
<path fill="none" stroke="midnightblue" d="M119.94,-56.08C125.93,-48.38 134.75,-37.03 142.05,-27.65"/>
<polygon fill="midnightblue" stroke="midnightblue" points="144.82,-29.79 148.19,-19.75 139.29,-25.5 144.82,-29.79"/>
</g>
<!-- Node16 -->
<g id="node16" class="node">
<title>Node16</title>
<g id="a_node16"><a xlink:title=" ">
<polygon fill="white" stroke="#bfbfbf" points="36.5,-0.5 36.5,-19.5 107.5,-19.5 107.5,-0.5 36.5,-0.5"/>
<text text-anchor="middle" x="72" y="-7.5" font-family="Helvetica,sans-Serif" font-size="10.00">E57Export.h</text>
</a>
</g>
</g>
<!-- Node14&#45;&gt;Node16 -->
<g id="edge19" class="edge">
<title>Node14&#45;&gt;Node16</title>
<path fill="none" stroke="midnightblue" d="M106.23,-56.08C100.44,-48.46 91.94,-37.26 84.86,-27.94"/>
<polygon fill="midnightblue" stroke="midnightblue" points="87.48,-25.6 78.64,-19.75 81.9,-29.83 87.48,-25.6"/>
</g>
<!-- Node17&#45;&gt;Node5 -->
<g id="edge21" class="edge">
<title>Node17&#45;&gt;Node5</title>
<path fill="none" stroke="midnightblue" d="M287,-224.08C287,-217.01 287,-206.86 287,-197.99"/>
<polygon fill="midnightblue" stroke="midnightblue" points="290.5,-197.75 287,-187.75 283.5,-197.75 290.5,-197.75"/>
</g>
</g>
</svg>
