<?xml version="1.0" encoding="UTF-8" standalone="no"?>
<!DOCTYPE svg PUBLIC "-//W3C//DTD SVG 1.1//EN"
 "http://www.w3.org/Graphics/SVG/1.1/DTD/svg11.dtd">
<!-- Generated by graphviz version 2.44.0 (20200408.0750)
 -->
<!-- Title: StructureNodeImpl.cpp Pages: 1 -->
<svg width="430pt" height="364pt"
 viewBox="0.00 0.00 429.98 364.00" xmlns="http://www.w3.org/2000/svg" xmlns:xlink="http://www.w3.org/1999/xlink">
<g id="graph0" class="graph" transform="scale(1 1) rotate(0) translate(4 360)">
<title>StructureNodeImpl.cpp</title>
<polygon fill="white" stroke="transparent" points="-4,4 -4,-360 425.98,-360 425.98,4 -4,4"/>
<!-- Node1 -->
<g id="node1" class="node">
<title>Node1</title>
<g id="a_node1"><a xlink:title=" ">
<polygon fill="#bfbfbf" stroke="black" points="168.48,-336.5 168.48,-355.5 285.48,-355.5 285.48,-336.5 168.48,-336.5"/>
<text text-anchor="middle" x="226.98" y="-343.5" font-family="Helvetica,sans-Serif" font-size="10.00">StructureNodeImpl.cpp</text>
</a>
</g>
</g>
<!-- Node2 -->
<g id="node2" class="node">
<title>Node2</title>
<g id="a_node2"><a xlink:title=" ">
<polygon fill="white" stroke="#bfbfbf" points="54.48,-280.5 54.48,-299.5 99.48,-299.5 99.48,-280.5 54.48,-280.5"/>
<text text-anchor="middle" x="76.98" y="-287.5" font-family="Helvetica,sans-Serif" font-size="10.00">climits</text>
</a>
</g>
</g>
<!-- Node1&#45;&gt;Node2 -->
<g id="edge1" class="edge">
<title>Node1&#45;&gt;Node2</title>
<path fill="none" stroke="midnightblue" d="M203.21,-336.44C177.79,-327.29 137.33,-312.73 109.09,-302.56"/>
<polygon fill="midnightblue" stroke="midnightblue" points="110.25,-299.26 99.65,-299.16 107.88,-305.84 110.25,-299.26"/>
</g>
<!-- Node3 -->
<g id="node3" class="node">
<title>Node3</title>
<g id="a_node3"><a xlink:href="_checked_file_8h.html" target="_top" xlink:title=" ">
<polygon fill="white" stroke="black" points="242.98,-280.5 242.98,-299.5 322.98,-299.5 322.98,-280.5 242.98,-280.5"/>
<text text-anchor="middle" x="282.98" y="-287.5" font-family="Helvetica,sans-Serif" font-size="10.00">CheckedFile.h</text>
</a>
</g>
</g>
<!-- Node1&#45;&gt;Node3 -->
<g id="edge2" class="edge">
<title>Node1&#45;&gt;Node3</title>
<path fill="none" stroke="midnightblue" d="M235.98,-336.32C244.17,-328.42 256.48,-316.55 266.45,-306.94"/>
<polygon fill="midnightblue" stroke="midnightblue" points="269.05,-309.29 273.82,-299.83 264.19,-304.26 269.05,-309.29"/>
</g>
<!-- Node18 -->
<g id="node18" class="node">
<title>Node18</title>
<g id="a_node18"><a xlink:href="_image_file_impl_8h.html" target="_top" xlink:title=" ">
<polygon fill="white" stroke="black" points="327.98,-224.5 327.98,-243.5 413.98,-243.5 413.98,-224.5 327.98,-224.5"/>
<text text-anchor="middle" x="370.98" y="-231.5" font-family="Helvetica,sans-Serif" font-size="10.00">ImageFileImpl.h</text>
</a>
</g>
</g>
<!-- Node1&#45;&gt;Node18 -->
<g id="edge20" class="edge">
<title>Node1&#45;&gt;Node18</title>
<path fill="none" stroke="midnightblue" d="M260.68,-336.45C282.88,-329.5 311.51,-317.87 331.98,-300 346.66,-287.19 357.4,-267.45 363.85,-253.09"/>
<polygon fill="midnightblue" stroke="midnightblue" points="367.13,-254.33 367.79,-243.75 360.68,-251.61 367.13,-254.33"/>
</g>
<!-- Node19 -->
<g id="node19" class="node">
<title>Node19</title>
<g id="a_node19"><a xlink:href="_structure_node_impl_8h.html" target="_top" xlink:title=" ">
<polygon fill="white" stroke="black" points="117.48,-280.5 117.48,-299.5 224.48,-299.5 224.48,-280.5 117.48,-280.5"/>
<text text-anchor="middle" x="170.98" y="-287.5" font-family="Helvetica,sans-Serif" font-size="10.00">StructureNodeImpl.h</text>
</a>
</g>
</g>
<!-- Node1&#45;&gt;Node19 -->
<g id="edge23" class="edge">
<title>Node1&#45;&gt;Node19</title>
<path fill="none" stroke="midnightblue" d="M217.98,-336.32C209.78,-328.42 197.47,-316.55 187.51,-306.94"/>
<polygon fill="midnightblue" stroke="midnightblue" points="189.77,-304.26 180.14,-299.83 184.91,-309.29 189.77,-304.26"/>
</g>
<!-- Node4 -->
<g id="node4" class="node">
<title>Node4</title>
<g id="a_node4"><a xlink:title=" ">
<polygon fill="white" stroke="#bfbfbf" points="215.98,-224.5 215.98,-243.5 271.98,-243.5 271.98,-224.5 215.98,-224.5"/>
<text text-anchor="middle" x="243.98" y="-231.5" font-family="Helvetica,sans-Serif" font-size="10.00">algorithm</text>
</a>
</g>
</g>
<!-- Node3&#45;&gt;Node4 -->
<g id="edge3" class="edge">
<title>Node3&#45;&gt;Node4</title>
<path fill="none" stroke="midnightblue" d="M276.54,-280.08C271.03,-272.46 262.95,-261.26 256.21,-251.94"/>
<polygon fill="midnightblue" stroke="midnightblue" points="258.99,-249.81 250.3,-243.75 253.32,-253.91 258.99,-249.81"/>
</g>
<!-- Node5 -->
<g id="node5" class="node">
<title>Node5</title>
<g id="a_node5"><a xlink:href="_common_8h.html" target="_top" xlink:title=" ">
<polygon fill="white" stroke="black" points="146.48,-168.5 146.48,-187.5 211.48,-187.5 211.48,-168.5 146.48,-168.5"/>
<text text-anchor="middle" x="178.98" y="-175.5" font-family="Helvetica,sans-Serif" font-size="10.00">Common.h</text>
</a>
</g>
</g>
<!-- Node3&#45;&gt;Node5 -->
<g id="edge4" class="edge">
<title>Node3&#45;&gt;Node5</title>
<path fill="none" stroke="midnightblue" d="M285.45,-280.12C288.63,-266.7 292.46,-241.04 280.98,-224 267.47,-203.96 242.87,-192.76 221.21,-186.55"/>
<polygon fill="midnightblue" stroke="midnightblue" points="222.08,-183.16 211.52,-184.03 220.32,-189.93 222.08,-183.16"/>
</g>
<!-- Node6 -->
<g id="node6" class="node">
<title>Node6</title>
<g id="a_node6"><a xlink:title=" ">
<polygon fill="white" stroke="#bfbfbf" points="263.98,-112.5 263.98,-131.5 313.98,-131.5 313.98,-112.5 263.98,-112.5"/>
<text text-anchor="middle" x="288.98" y="-119.5" font-family="Helvetica,sans-Serif" font-size="10.00">iomanip</text>
</a>
</g>
</g>
<!-- Node5&#45;&gt;Node6 -->
<g id="edge5" class="edge">
<title>Node5&#45;&gt;Node6</title>
<path fill="none" stroke="midnightblue" d="M196.65,-168.32C214.37,-159.62 241.88,-146.12 262.27,-136.11"/>
<polygon fill="midnightblue" stroke="midnightblue" points="263.92,-139.2 271.35,-131.65 260.83,-132.92 263.92,-139.2"/>
</g>
<!-- Node7 -->
<g id="node7" class="node">
<title>Node7</title>
<g id="a_node7"><a xlink:title=" ">
<polygon fill="white" stroke="#bfbfbf" points="290.98,-0.5 290.98,-19.5 344.98,-19.5 344.98,-0.5 290.98,-0.5"/>
<text text-anchor="middle" x="317.98" y="-7.5" font-family="Helvetica,sans-Serif" font-size="10.00">iostream</text>
</a>
</g>
</g>
<!-- Node5&#45;&gt;Node7 -->
<g id="edge6" class="edge">
<title>Node5&#45;&gt;Node7</title>
<path fill="none" stroke="midnightblue" d="M211.55,-177.15C245.59,-175.34 297.53,-166.61 322.98,-132 345.21,-101.76 334.01,-54.86 325.19,-29.24"/>
<polygon fill="midnightblue" stroke="midnightblue" points="328.4,-27.84 321.66,-19.67 321.84,-30.27 328.4,-27.84"/>
</g>
<!-- Node8 -->
<g id="node8" class="node">
<title>Node8</title>
<g id="a_node8"><a xlink:title=" ">
<polygon fill="white" stroke="#bfbfbf" points="145.98,-112.5 145.98,-131.5 175.98,-131.5 175.98,-112.5 145.98,-112.5"/>
<text text-anchor="middle" x="160.98" y="-119.5" font-family="Helvetica,sans-Serif" font-size="10.00">set</text>
</a>
</g>
</g>
<!-- Node5&#45;&gt;Node8 -->
<g id="edge7" class="edge">
<title>Node5&#45;&gt;Node8</title>
<path fill="none" stroke="midnightblue" d="M176.01,-168.08C173.6,-160.85 170.12,-150.41 167.11,-141.4"/>
<polygon fill="midnightblue" stroke="midnightblue" points="170.38,-140.13 163.9,-131.75 163.74,-142.34 170.38,-140.13"/>
</g>
<!-- Node9 -->
<g id="node9" class="node">
<title>Node9</title>
<g id="a_node9"><a xlink:title=" ">
<polygon fill="white" stroke="#bfbfbf" points="193.98,-112.5 193.98,-131.5 245.98,-131.5 245.98,-112.5 193.98,-112.5"/>
<text text-anchor="middle" x="219.98" y="-119.5" font-family="Helvetica,sans-Serif" font-size="10.00">sstream</text>
</a>
</g>
</g>
<!-- Node5&#45;&gt;Node9 -->
<g id="edge8" class="edge">
<title>Node5&#45;&gt;Node9</title>
<path fill="none" stroke="midnightblue" d="M185.75,-168.08C191.54,-160.46 200.04,-149.26 207.12,-139.94"/>
<polygon fill="midnightblue" stroke="midnightblue" points="210.07,-141.83 213.33,-131.75 204.5,-137.6 210.07,-141.83"/>
</g>
<!-- Node10 -->
<g id="node10" class="node">
<title>Node10</title>
<g id="a_node10"><a xlink:title=" ">
<polygon fill="white" stroke="#bfbfbf" points="4.48,-0.5 4.48,-19.5 45.48,-19.5 45.48,-0.5 4.48,-0.5"/>
<text text-anchor="middle" x="24.98" y="-7.5" font-family="Helvetica,sans-Serif" font-size="10.00">string</text>
</a>
</g>
</g>
<!-- Node5&#45;&gt;Node10 -->
<g id="edge9" class="edge">
<title>Node5&#45;&gt;Node10</title>
<path fill="none" stroke="midnightblue" d="M146.3,-174.3C114,-170.09 64.78,-159.35 31.98,-132 4.21,-108.85 -5.17,-91.22 2.98,-56 5.21,-46.36 9.8,-36.41 14.21,-28.31"/>
<polygon fill="midnightblue" stroke="midnightblue" points="17.33,-29.92 19.34,-19.52 11.28,-26.4 17.33,-29.92"/>
</g>
<!-- Node11 -->
<g id="node11" class="node">
<title>Node11</title>
<g id="a_node11"><a xlink:title=" ">
<polygon fill="white" stroke="#bfbfbf" points="11.98,-56.5 11.98,-75.5 55.98,-75.5 55.98,-56.5 11.98,-56.5"/>
<text text-anchor="middle" x="33.98" y="-63.5" font-family="Helvetica,sans-Serif" font-size="10.00">vector</text>
</a>
</g>
</g>
<!-- Node5&#45;&gt;Node11 -->
<g id="edge10" class="edge">
<title>Node5&#45;&gt;Node11</title>
<path fill="none" stroke="midnightblue" d="M146.47,-175.26C115.6,-171.77 70.25,-161.57 44.98,-132 34.18,-119.37 32.09,-100.16 32.31,-85.89"/>
<polygon fill="midnightblue" stroke="midnightblue" points="35.81,-85.91 32.85,-75.73 28.82,-85.53 35.81,-85.91"/>
</g>
<!-- Node12 -->
<g id="node12" class="node">
<title>Node12</title>
<g id="a_node12"><a xlink:href="_e57_format_8h.html" target="_top" xlink:title=" ">
<polygon fill="white" stroke="black" points="54.48,-112.5 54.48,-131.5 127.48,-131.5 127.48,-112.5 54.48,-112.5"/>
<text text-anchor="middle" x="90.98" y="-119.5" font-family="Helvetica,sans-Serif" font-size="10.00">E57Format.h</text>
</a>
</g>
</g>
<!-- Node5&#45;&gt;Node12 -->
<g id="edge11" class="edge">
<title>Node5&#45;&gt;Node12</title>
<path fill="none" stroke="midnightblue" d="M164.84,-168.32C151.11,-159.9 130.04,-146.97 113.91,-137.07"/>
<polygon fill="midnightblue" stroke="midnightblue" points="115.44,-133.9 105.08,-131.65 111.78,-139.87 115.44,-133.9"/>
</g>
<!-- Node12&#45;&gt;Node11 -->
<g id="edge14" class="edge">
<title>Node12&#45;&gt;Node11</title>
<path fill="none" stroke="midnightblue" d="M81.82,-112.32C73.48,-104.42 60.95,-92.55 50.8,-82.94"/>
<polygon fill="midnightblue" stroke="midnightblue" points="52.97,-80.17 43.3,-75.83 48.16,-85.25 52.97,-80.17"/>
</g>
<!-- Node13 -->
<g id="node13" class="node">
<title>Node13</title>
<g id="a_node13"><a xlink:title=" ">
<polygon fill="white" stroke="#bfbfbf" points="74.48,-56.5 74.48,-75.5 115.48,-75.5 115.48,-56.5 74.48,-56.5"/>
<text text-anchor="middle" x="94.98" y="-63.5" font-family="Helvetica,sans-Serif" font-size="10.00">cfloat</text>
</a>
</g>
</g>
<!-- Node12&#45;&gt;Node13 -->
<g id="edge12" class="edge">
<title>Node12&#45;&gt;Node13</title>
<path fill="none" stroke="midnightblue" d="M91.64,-112.08C92.16,-105.01 92.92,-94.86 93.57,-85.99"/>
<polygon fill="midnightblue" stroke="midnightblue" points="97.08,-85.98 94.33,-75.75 90.1,-85.47 97.08,-85.98"/>
</g>
<!-- Node14 -->
<g id="node14" class="node">
<title>Node14</title>
<g id="a_node14"><a xlink:title=" ">
<polygon fill="white" stroke="#bfbfbf" points="369.98,-56.5 369.98,-75.5 421.98,-75.5 421.98,-56.5 369.98,-56.5"/>
<text text-anchor="middle" x="395.98" y="-63.5" font-family="Helvetica,sans-Serif" font-size="10.00">memory</text>
</a>
</g>
</g>
<!-- Node12&#45;&gt;Node14 -->
<g id="edge13" class="edge">
<title>Node12&#45;&gt;Node14</title>
<path fill="none" stroke="midnightblue" d="M127.62,-113.76C130.79,-113.15 133.94,-112.56 136.98,-112 216.38,-97.34 309.73,-81.45 359.83,-73.03"/>
<polygon fill="midnightblue" stroke="midnightblue" points="360.56,-76.46 369.84,-71.35 359.4,-69.55 360.56,-76.46"/>
</g>
<!-- Node15 -->
<g id="node15" class="node">
<title>Node15</title>
<g id="a_node15"><a xlink:href="_e57_exception_8h.html" target="_top" xlink:title=" ">
<polygon fill="white" stroke="black" points="133.98,-56.5 133.98,-75.5 219.98,-75.5 219.98,-56.5 133.98,-56.5"/>
<text text-anchor="middle" x="176.98" y="-63.5" font-family="Helvetica,sans-Serif" font-size="10.00">E57Exception.h</text>
</a>
</g>
</g>
<!-- Node12&#45;&gt;Node15 -->
<g id="edge15" class="edge">
<title>Node12&#45;&gt;Node15</title>
<path fill="none" stroke="midnightblue" d="M104.8,-112.32C118.21,-103.9 138.8,-90.97 154.56,-81.07"/>
<polygon fill="midnightblue" stroke="midnightblue" points="156.59,-83.94 163.2,-75.65 152.87,-78.01 156.59,-83.94"/>
</g>
<!-- Node15&#45;&gt;Node7 -->
<g id="edge17" class="edge">
<title>Node15&#45;&gt;Node7</title>
<path fill="none" stroke="midnightblue" d="M199.32,-56.44C222.73,-47.48 259.71,-33.31 286.17,-23.18"/>
<polygon fill="midnightblue" stroke="midnightblue" points="287.65,-26.36 295.74,-19.52 285.15,-19.82 287.65,-26.36"/>
</g>
<!-- Node15&#45;&gt;Node10 -->
<g id="edge18" class="edge">
<title>Node15&#45;&gt;Node10</title>
<path fill="none" stroke="midnightblue" d="M152.89,-56.44C126.39,-47.03 83.74,-31.87 55.05,-21.68"/>
<polygon fill="midnightblue" stroke="midnightblue" points="56.13,-18.35 45.54,-18.3 53.79,-24.95 56.13,-18.35"/>
</g>
<!-- Node16 -->
<g id="node16" class="node">
<title>Node16</title>
<g id="a_node16"><a xlink:title=" ">
<polygon fill="white" stroke="#bfbfbf" points="170.48,-0.5 170.48,-19.5 229.48,-19.5 229.48,-0.5 170.48,-0.5"/>
<text text-anchor="middle" x="199.98" y="-7.5" font-family="Helvetica,sans-Serif" font-size="10.00">exception</text>
</a>
</g>
</g>
<!-- Node15&#45;&gt;Node16 -->
<g id="edge16" class="edge">
<title>Node15&#45;&gt;Node16</title>
<path fill="none" stroke="midnightblue" d="M180.78,-56.08C183.89,-48.77 188.4,-38.18 192.27,-29.1"/>
<polygon fill="midnightblue" stroke="midnightblue" points="195.55,-30.32 196.25,-19.75 189.11,-27.58 195.55,-30.32"/>
</g>
<!-- Node17 -->
<g id="node17" class="node">
<title>Node17</title>
<g id="a_node17"><a xlink:title=" ">
<polygon fill="white" stroke="#bfbfbf" points="81.48,-0.5 81.48,-19.5 152.48,-19.5 152.48,-0.5 81.48,-0.5"/>
<text text-anchor="middle" x="116.98" y="-7.5" font-family="Helvetica,sans-Serif" font-size="10.00">E57Export.h</text>
</a>
</g>
</g>
<!-- Node15&#45;&gt;Node17 -->
<g id="edge19" class="edge">
<title>Node15&#45;&gt;Node17</title>
<path fill="none" stroke="midnightblue" d="M167.34,-56.32C158.47,-48.34 145.1,-36.31 134.37,-26.65"/>
<polygon fill="midnightblue" stroke="midnightblue" points="136.57,-23.92 126.79,-19.83 131.89,-29.13 136.57,-23.92"/>
</g>
<!-- Node18&#45;&gt;Node5 -->
<g id="edge22" class="edge">
<title>Node18&#45;&gt;Node5</title>
<path fill="none" stroke="midnightblue" d="M340.56,-224.44C307.69,-215.2 255.19,-200.44 219,-190.26"/>
<polygon fill="midnightblue" stroke="midnightblue" points="219.83,-186.85 209.26,-187.52 217.94,-193.59 219.83,-186.85"/>
</g>
<!-- Node18&#45;&gt;Node14 -->
<g id="edge21" class="edge">
<title>Node18&#45;&gt;Node14</title>
<path fill="none" stroke="midnightblue" d="M372.32,-224.08C376.26,-197.95 387.81,-121.21 393.18,-85.58"/>
<polygon fill="midnightblue" stroke="midnightblue" points="396.66,-85.98 394.69,-75.57 389.74,-84.94 396.66,-85.98"/>
</g>
<!-- Node20 -->
<g id="node20" class="node">
<title>Node20</title>
<g id="a_node20"><a xlink:href="_node_impl_8h.html" target="_top" xlink:title=" ">
<polygon fill="white" stroke="black" points="130.48,-224.5 130.48,-243.5 197.48,-243.5 197.48,-224.5 130.48,-224.5"/>
<text text-anchor="middle" x="163.98" y="-231.5" font-family="Helvetica,sans-Serif" font-size="10.00">NodeImpl.h</text>
</a>
</g>
</g>
<!-- Node19&#45;&gt;Node20 -->
<g id="edge24" class="edge">
<title>Node19&#45;&gt;Node20</title>
<path fill="none" stroke="midnightblue" d="M169.82,-280.08C168.9,-272.93 167.56,-262.64 166.4,-253.69"/>
<polygon fill="midnightblue" stroke="midnightblue" points="169.87,-253.22 165.11,-243.75 162.93,-254.12 169.87,-253.22"/>
</g>
<!-- Node20&#45;&gt;Node5 -->
<g id="edge25" class="edge">
<title>Node20&#45;&gt;Node5</title>
<path fill="none" stroke="midnightblue" d="M166.46,-224.08C168.47,-216.85 171.37,-206.41 173.87,-197.4"/>
<polygon fill="midnightblue" stroke="midnightblue" points="177.24,-198.32 176.55,-187.75 170.5,-196.45 177.24,-198.32"/>
</g>
</g>
</svg>
