<?xml version="1.0" encoding="UTF-8" standalone="no"?>
<!DOCTYPE svg PUBLIC "-//W3C//DTD SVG 1.1//EN"
 "http://www.w3.org/Graphics/SVG/1.1/DTD/svg11.dtd">
<!-- Generated by graphviz version 2.44.0 (20200408.0750)
 -->
<!-- Title: WriterImpl.cpp Pages: 1 -->
<svg width="423pt" height="308pt"
 viewBox="0.00 0.00 422.50 308.00" xmlns="http://www.w3.org/2000/svg" xmlns:xlink="http://www.w3.org/1999/xlink">
<g id="graph0" class="graph" transform="scale(1 1) rotate(0) translate(4 304)">
<title>WriterImpl.cpp</title>
<polygon fill="white" stroke="transparent" points="-4,4 -4,-304 418.5,-304 418.5,4 -4,4"/>
<!-- Node1 -->
<g id="node1" class="node">
<title>Node1</title>
<g id="a_node1"><a xlink:title=" ">
<polygon fill="#bfbfbf" stroke="black" points="173.5,-280.5 173.5,-299.5 253.5,-299.5 253.5,-280.5 173.5,-280.5"/>
<text text-anchor="middle" x="213.5" y="-287.5" font-family="Helvetica,sans-Serif" font-size="10.00">WriterImpl.cpp</text>
</a>
</g>
</g>
<!-- Node2 -->
<g id="node2" class="node">
<title>Node2</title>
<g id="a_node2"><a xlink:href="_writer_impl_8h.html" target="_top" xlink:title=" ">
<polygon fill="white" stroke="black" points="108,-224.5 108,-243.5 177,-243.5 177,-224.5 108,-224.5"/>
<text text-anchor="middle" x="142.5" y="-231.5" font-family="Helvetica,sans-Serif" font-size="10.00">WriterImpl.h</text>
</a>
</g>
</g>
<!-- Node1&#45;&gt;Node2 -->
<g id="edge1" class="edge">
<title>Node1&#45;&gt;Node2</title>
<path fill="none" stroke="midnightblue" d="M202.09,-280.32C191.39,-272.18 175.16,-259.84 162.34,-250.09"/>
<polygon fill="midnightblue" stroke="midnightblue" points="164.19,-247.1 154.11,-243.83 159.96,-252.67 164.19,-247.1"/>
</g>
<!-- Node13 -->
<g id="node13" class="node">
<title>Node13</title>
<g id="a_node13"><a xlink:href="_common_8h.html" target="_top" xlink:title=" ">
<polygon fill="white" stroke="black" points="200,-168.5 200,-187.5 265,-187.5 265,-168.5 200,-168.5"/>
<text text-anchor="middle" x="232.5" y="-175.5" font-family="Helvetica,sans-Serif" font-size="10.00">Common.h</text>
</a>
</g>
</g>
<!-- Node1&#45;&gt;Node13 -->
<g id="edge12" class="edge">
<title>Node1&#45;&gt;Node13</title>
<path fill="none" stroke="midnightblue" d="M214.99,-280.37C218.06,-262.62 225.13,-221.67 229.29,-197.6"/>
<polygon fill="midnightblue" stroke="midnightblue" points="232.76,-198.04 231.02,-187.59 225.86,-196.85 232.76,-198.04"/>
</g>
<!-- Node17 -->
<g id="node17" class="node">
<title>Node17</title>
<g id="a_node17"><a xlink:title=" ">
<polygon fill="white" stroke="#bfbfbf" points="241.5,-224.5 241.5,-243.5 285.5,-243.5 285.5,-224.5 241.5,-224.5"/>
<text text-anchor="middle" x="263.5" y="-231.5" font-family="Helvetica,sans-Serif" font-size="10.00">cmath</text>
</a>
</g>
</g>
<!-- Node1&#45;&gt;Node17 -->
<g id="edge20" class="edge">
<title>Node1&#45;&gt;Node17</title>
<path fill="none" stroke="midnightblue" d="M221.76,-280.08C228.96,-272.3 239.61,-260.8 248.35,-251.37"/>
<polygon fill="midnightblue" stroke="midnightblue" points="251.17,-253.47 255.4,-243.75 246.03,-248.71 251.17,-253.47"/>
</g>
<!-- Node3 -->
<g id="node3" class="node">
<title>Node3</title>
<g id="a_node3"><a xlink:href="_e57_simple_data_8h.html" target="_top" xlink:title=" ">
<polygon fill="white" stroke="black" points="79,-168.5 79,-187.5 172,-187.5 172,-168.5 79,-168.5"/>
<text text-anchor="middle" x="125.5" y="-175.5" font-family="Helvetica,sans-Serif" font-size="10.00">E57SimpleData.h</text>
</a>
</g>
</g>
<!-- Node2&#45;&gt;Node3 -->
<g id="edge2" class="edge">
<title>Node2&#45;&gt;Node3</title>
<path fill="none" stroke="midnightblue" d="M139.69,-224.08C137.42,-216.85 134.13,-206.41 131.29,-197.4"/>
<polygon fill="midnightblue" stroke="midnightblue" points="134.6,-196.24 128.25,-187.75 127.92,-198.34 134.6,-196.24"/>
</g>
<!-- Node4 -->
<g id="node4" class="node">
<title>Node4</title>
<g id="a_node4"><a xlink:href="_e57_format_8h.html" target="_top" xlink:title=" ">
<polygon fill="white" stroke="black" points="49,-112.5 49,-131.5 122,-131.5 122,-112.5 49,-112.5"/>
<text text-anchor="middle" x="85.5" y="-119.5" font-family="Helvetica,sans-Serif" font-size="10.00">E57Format.h</text>
</a>
</g>
</g>
<!-- Node3&#45;&gt;Node4 -->
<g id="edge3" class="edge">
<title>Node3&#45;&gt;Node4</title>
<path fill="none" stroke="midnightblue" d="M118.89,-168.08C113.24,-160.46 104.96,-149.26 98.05,-139.94"/>
<polygon fill="midnightblue" stroke="midnightblue" points="100.75,-137.7 91.98,-131.75 95.12,-141.87 100.75,-137.7"/>
</g>
<!-- Node5 -->
<g id="node5" class="node">
<title>Node5</title>
<g id="a_node5"><a xlink:title=" ">
<polygon fill="white" stroke="#bfbfbf" points="0,-56.5 0,-75.5 41,-75.5 41,-56.5 0,-56.5"/>
<text text-anchor="middle" x="20.5" y="-63.5" font-family="Helvetica,sans-Serif" font-size="10.00">cfloat</text>
</a>
</g>
</g>
<!-- Node4&#45;&gt;Node5 -->
<g id="edge4" class="edge">
<title>Node4&#45;&gt;Node5</title>
<path fill="none" stroke="midnightblue" d="M75.06,-112.32C65.35,-104.26 50.68,-92.08 39,-82.37"/>
<polygon fill="midnightblue" stroke="midnightblue" points="41.06,-79.53 31.13,-75.83 36.59,-84.92 41.06,-79.53"/>
</g>
<!-- Node6 -->
<g id="node6" class="node">
<title>Node6</title>
<g id="a_node6"><a xlink:title=" ">
<polygon fill="white" stroke="#bfbfbf" points="59.5,-56.5 59.5,-75.5 111.5,-75.5 111.5,-56.5 59.5,-56.5"/>
<text text-anchor="middle" x="85.5" y="-63.5" font-family="Helvetica,sans-Serif" font-size="10.00">memory</text>
</a>
</g>
</g>
<!-- Node4&#45;&gt;Node6 -->
<g id="edge5" class="edge">
<title>Node4&#45;&gt;Node6</title>
<path fill="none" stroke="midnightblue" d="M85.5,-112.08C85.5,-105.01 85.5,-94.86 85.5,-85.99"/>
<polygon fill="midnightblue" stroke="midnightblue" points="89,-85.75 85.5,-75.75 82,-85.75 89,-85.75"/>
</g>
<!-- Node7 -->
<g id="node7" class="node">
<title>Node7</title>
<g id="a_node7"><a xlink:title=" ">
<polygon fill="white" stroke="#bfbfbf" points="233.5,-56.5 233.5,-75.5 277.5,-75.5 277.5,-56.5 233.5,-56.5"/>
<text text-anchor="middle" x="255.5" y="-63.5" font-family="Helvetica,sans-Serif" font-size="10.00">vector</text>
</a>
</g>
</g>
<!-- Node4&#45;&gt;Node7 -->
<g id="edge6" class="edge">
<title>Node4&#45;&gt;Node7</title>
<path fill="none" stroke="midnightblue" d="M112.44,-112.44C142.6,-102.86 191.44,-87.35 223.51,-77.16"/>
<polygon fill="midnightblue" stroke="midnightblue" points="224.82,-80.42 233.29,-74.05 222.7,-73.75 224.82,-80.42"/>
</g>
<!-- Node8 -->
<g id="node8" class="node">
<title>Node8</title>
<g id="a_node8"><a xlink:href="_e57_exception_8h.html" target="_top" xlink:title=" ">
<polygon fill="white" stroke="black" points="129.5,-56.5 129.5,-75.5 215.5,-75.5 215.5,-56.5 129.5,-56.5"/>
<text text-anchor="middle" x="172.5" y="-63.5" font-family="Helvetica,sans-Serif" font-size="10.00">E57Exception.h</text>
</a>
</g>
</g>
<!-- Node4&#45;&gt;Node8 -->
<g id="edge7" class="edge">
<title>Node4&#45;&gt;Node8</title>
<path fill="none" stroke="midnightblue" d="M99.48,-112.32C113.05,-103.9 133.88,-90.97 149.82,-81.07"/>
<polygon fill="midnightblue" stroke="midnightblue" points="151.91,-83.9 158.56,-75.65 148.21,-77.95 151.91,-83.9"/>
</g>
<!-- Node9 -->
<g id="node9" class="node">
<title>Node9</title>
<g id="a_node9"><a xlink:title=" ">
<polygon fill="white" stroke="#bfbfbf" points="102,-0.5 102,-19.5 161,-19.5 161,-0.5 102,-0.5"/>
<text text-anchor="middle" x="131.5" y="-7.5" font-family="Helvetica,sans-Serif" font-size="10.00">exception</text>
</a>
</g>
</g>
<!-- Node8&#45;&gt;Node9 -->
<g id="edge8" class="edge">
<title>Node8&#45;&gt;Node9</title>
<path fill="none" stroke="midnightblue" d="M165.73,-56.08C159.94,-48.46 151.44,-37.26 144.36,-27.94"/>
<polygon fill="midnightblue" stroke="midnightblue" points="146.98,-25.6 138.14,-19.75 141.4,-29.83 146.98,-25.6"/>
</g>
<!-- Node10 -->
<g id="node10" class="node">
<title>Node10</title>
<g id="a_node10"><a xlink:title=" ">
<polygon fill="white" stroke="#bfbfbf" points="360.5,-0.5 360.5,-19.5 414.5,-19.5 414.5,-0.5 360.5,-0.5"/>
<text text-anchor="middle" x="387.5" y="-7.5" font-family="Helvetica,sans-Serif" font-size="10.00">iostream</text>
</a>
</g>
</g>
<!-- Node8&#45;&gt;Node10 -->
<g id="edge9" class="edge">
<title>Node8&#45;&gt;Node10</title>
<path fill="none" stroke="midnightblue" d="M206.57,-56.44C245.86,-46.57 310.24,-30.41 350.67,-20.25"/>
<polygon fill="midnightblue" stroke="midnightblue" points="351.55,-23.64 360.4,-17.81 349.85,-16.85 351.55,-23.64"/>
</g>
<!-- Node11 -->
<g id="node11" class="node">
<title>Node11</title>
<g id="a_node11"><a xlink:title=" ">
<polygon fill="white" stroke="#bfbfbf" points="293,-0.5 293,-19.5 334,-19.5 334,-0.5 293,-0.5"/>
<text text-anchor="middle" x="313.5" y="-7.5" font-family="Helvetica,sans-Serif" font-size="10.00">string</text>
</a>
</g>
</g>
<!-- Node8&#45;&gt;Node11 -->
<g id="edge10" class="edge">
<title>Node8&#45;&gt;Node11</title>
<path fill="none" stroke="midnightblue" d="M194.84,-56.44C218.67,-47.32 256.55,-32.81 283.08,-22.65"/>
<polygon fill="midnightblue" stroke="midnightblue" points="284.55,-25.83 292.64,-18.99 282.05,-19.3 284.55,-25.83"/>
</g>
<!-- Node12 -->
<g id="node12" class="node">
<title>Node12</title>
<g id="a_node12"><a xlink:title=" ">
<polygon fill="white" stroke="#bfbfbf" points="179,-0.5 179,-19.5 250,-19.5 250,-0.5 179,-0.5"/>
<text text-anchor="middle" x="214.5" y="-7.5" font-family="Helvetica,sans-Serif" font-size="10.00">E57Export.h</text>
</a>
</g>
</g>
<!-- Node8&#45;&gt;Node12 -->
<g id="edge11" class="edge">
<title>Node8&#45;&gt;Node12</title>
<path fill="none" stroke="midnightblue" d="M179.44,-56.08C185.43,-48.38 194.25,-37.03 201.55,-27.65"/>
<polygon fill="midnightblue" stroke="midnightblue" points="204.32,-29.79 207.69,-19.75 198.79,-25.5 204.32,-29.79"/>
</g>
<!-- Node13&#45;&gt;Node4 -->
<g id="edge19" class="edge">
<title>Node13&#45;&gt;Node4</title>
<path fill="none" stroke="midnightblue" d="M209.21,-168.44C184.69,-159.44 145.9,-145.19 118.3,-135.05"/>
<polygon fill="midnightblue" stroke="midnightblue" points="119.28,-131.68 108.68,-131.52 116.86,-138.25 119.28,-131.68"/>
</g>
<!-- Node13&#45;&gt;Node7 -->
<g id="edge18" class="edge">
<title>Node13&#45;&gt;Node7</title>
<path fill="none" stroke="midnightblue" d="M212.89,-168.47C189.53,-157.01 155.34,-135.39 169.5,-112 175.77,-101.64 202.11,-88.73 224.01,-79.4"/>
<polygon fill="midnightblue" stroke="midnightblue" points="225.47,-82.58 233.35,-75.51 222.78,-76.12 225.47,-82.58"/>
</g>
<!-- Node13&#45;&gt;Node10 -->
<g id="edge14" class="edge">
<title>Node13&#45;&gt;Node10</title>
<path fill="none" stroke="midnightblue" d="M265.18,-176.23C297.92,-173.57 347.13,-164.04 373.5,-132 397.49,-102.84 394.83,-55.48 391.02,-29.51"/>
<polygon fill="midnightblue" stroke="midnightblue" points="394.45,-28.79 389.33,-19.51 387.54,-29.95 394.45,-28.79"/>
</g>
<!-- Node13&#45;&gt;Node11 -->
<g id="edge17" class="edge">
<title>Node13&#45;&gt;Node11</title>
<path fill="none" stroke="midnightblue" d="M265.12,-175.04C294.21,-171.36 335.24,-160.98 355.5,-132 378.63,-98.9 347.82,-51.88 327.95,-27.34"/>
<polygon fill="midnightblue" stroke="midnightblue" points="330.6,-25.05 321.48,-19.65 325.24,-29.56 330.6,-25.05"/>
</g>
<!-- Node14 -->
<g id="node14" class="node">
<title>Node14</title>
<g id="a_node14"><a xlink:title=" ">
<polygon fill="white" stroke="#bfbfbf" points="178.5,-112.5 178.5,-131.5 228.5,-131.5 228.5,-112.5 178.5,-112.5"/>
<text text-anchor="middle" x="203.5" y="-119.5" font-family="Helvetica,sans-Serif" font-size="10.00">iomanip</text>
</a>
</g>
</g>
<!-- Node13&#45;&gt;Node14 -->
<g id="edge13" class="edge">
<title>Node13&#45;&gt;Node14</title>
<path fill="none" stroke="midnightblue" d="M227.71,-168.08C223.74,-160.69 217.97,-149.95 213.07,-140.81"/>
<polygon fill="midnightblue" stroke="midnightblue" points="216.01,-138.91 208.2,-131.75 209.85,-142.22 216.01,-138.91"/>
</g>
<!-- Node15 -->
<g id="node15" class="node">
<title>Node15</title>
<g id="a_node15"><a xlink:title=" ">
<polygon fill="white" stroke="#bfbfbf" points="246.5,-112.5 246.5,-131.5 276.5,-131.5 276.5,-112.5 246.5,-112.5"/>
<text text-anchor="middle" x="261.5" y="-119.5" font-family="Helvetica,sans-Serif" font-size="10.00">set</text>
</a>
</g>
</g>
<!-- Node13&#45;&gt;Node15 -->
<g id="edge15" class="edge">
<title>Node13&#45;&gt;Node15</title>
<path fill="none" stroke="midnightblue" d="M237.29,-168.08C241.26,-160.69 247.03,-149.95 251.93,-140.81"/>
<polygon fill="midnightblue" stroke="midnightblue" points="255.15,-142.22 256.8,-131.75 248.99,-138.91 255.15,-142.22"/>
</g>
<!-- Node16 -->
<g id="node16" class="node">
<title>Node16</title>
<g id="a_node16"><a xlink:title=" ">
<polygon fill="white" stroke="#bfbfbf" points="294.5,-112.5 294.5,-131.5 346.5,-131.5 346.5,-112.5 294.5,-112.5"/>
<text text-anchor="middle" x="320.5" y="-119.5" font-family="Helvetica,sans-Serif" font-size="10.00">sstream</text>
</a>
</g>
</g>
<!-- Node13&#45;&gt;Node16 -->
<g id="edge16" class="edge">
<title>Node13&#45;&gt;Node16</title>
<path fill="none" stroke="midnightblue" d="M246.64,-168.32C260.37,-159.9 281.44,-146.97 297.56,-137.07"/>
<polygon fill="midnightblue" stroke="midnightblue" points="299.7,-139.87 306.4,-131.65 296.04,-133.9 299.7,-139.87"/>
</g>
</g>
</svg>
