<?xml version="1.0" encoding="UTF-8" standalone="no"?>
<!DOCTYPE svg PUBLIC "-//W3C//DTD SVG 1.1//EN"
 "http://www.w3.org/Graphics/SVG/1.1/DTD/svg11.dtd">
<!-- Generated by graphviz version 2.48.0 (20210717.1556)
 -->
<!-- Title: e57::NodeImpl Pages: 1 -->
<svg width="598pt" height="256pt"
 viewBox="0.00 0.00 598.00 256.00" xmlns="http://www.w3.org/2000/svg" xmlns:xlink="http://www.w3.org/1999/xlink">
<g id="graph0" class="graph" transform="scale(1 1) rotate(0) translate(4 252)">
<title>e57::NodeImpl</title>
<polygon fill="white" stroke="transparent" points="-4,4 -4,-252 594,-252 594,4 -4,4"/>
<!-- Node1 -->
<g id="node1" class="node">
<title>Node1</title>
<g id="a_node1"><a xlink:title=" ">
<polygon fill="#bfbfbf" stroke="black" points="159,-114.5 159,-133.5 241,-133.5 241,-114.5 159,-114.5"/>
<text text-anchor="middle" x="200" y="-121.5" font-family="Helvetica,sans-Serif" font-size="10.00">e57::NodeImpl</text>
</a>
</g>
</g>
<!-- Node3 -->
<g id="node3" class="node">
<title>Node3</title>
<g id="a_node3"><a xlink:href="classe57_1_1_blob_node_impl.html" target="_top" xlink:title=" ">
<polygon fill="white" stroke="black" points="309.5,-228.5 309.5,-247.5 411.5,-247.5 411.5,-228.5 309.5,-228.5"/>
<text text-anchor="middle" x="360.5" y="-235.5" font-family="Helvetica,sans-Serif" font-size="10.00">e57::BlobNodeImpl</text>
</a>
</g>
</g>
<!-- Node1&#45;&gt;Node3 -->
<g id="edge2" class="edge">
<title>Node1&#45;&gt;Node3</title>
<path fill="none" stroke="midnightblue" d="M210.68,-142.5C223.07,-164.28 246.61,-199.89 277,-219 286.71,-225.1 298.16,-229.25 309.39,-232.07"/>
<polygon fill="midnightblue" stroke="midnightblue" points="213.67,-140.67 205.79,-133.58 207.53,-144.03 213.67,-140.67"/>
</g>
<!-- Node4 -->
<g id="node4" class="node">
<title>Node4</title>
<g id="a_node4"><a xlink:href="classe57_1_1_compressed_vector_node_impl.html" target="_top" xlink:title=" ">
<polygon fill="white" stroke="black" points="277,-190.5 277,-209.5 444,-209.5 444,-190.5 277,-190.5"/>
<text text-anchor="middle" x="360.5" y="-197.5" font-family="Helvetica,sans-Serif" font-size="10.00">e57::CompressedVectorNodeImpl</text>
</a>
</g>
</g>
<!-- Node1&#45;&gt;Node4 -->
<g id="edge3" class="edge">
<title>Node1&#45;&gt;Node4</title>
<path fill="none" stroke="midnightblue" d="M218.61,-140.61C233.18,-153.48 254.99,-170.78 277,-181 285.26,-184.84 294.36,-187.93 303.41,-190.42"/>
<polygon fill="midnightblue" stroke="midnightblue" points="220.67,-137.76 210.91,-133.64 215.97,-142.95 220.67,-137.76"/>
</g>
<!-- Node5 -->
<g id="node5" class="node">
<title>Node5</title>
<g id="a_node5"><a xlink:href="classe57_1_1_float_node_impl.html" target="_top" xlink:title=" ">
<polygon fill="white" stroke="black" points="308.5,-152.5 308.5,-171.5 412.5,-171.5 412.5,-152.5 308.5,-152.5"/>
<text text-anchor="middle" x="360.5" y="-159.5" font-family="Helvetica,sans-Serif" font-size="10.00">e57::FloatNodeImpl</text>
</a>
</g>
</g>
<!-- Node1&#45;&gt;Node5 -->
<g id="edge4" class="edge">
<title>Node1&#45;&gt;Node5</title>
<path fill="none" stroke="midnightblue" d="M248.19,-135.94C257.72,-138.31 267.68,-140.76 277,-143 290.15,-146.16 304.5,-149.5 317.49,-152.49"/>
<polygon fill="midnightblue" stroke="midnightblue" points="249.01,-132.54 238.46,-133.51 247.32,-139.33 249.01,-132.54"/>
</g>
<!-- Node6 -->
<g id="node6" class="node">
<title>Node6</title>
<g id="a_node6"><a xlink:href="classe57_1_1_integer_node_impl.html" target="_top" xlink:title=" ">
<polygon fill="white" stroke="black" points="304,-114.5 304,-133.5 417,-133.5 417,-114.5 304,-114.5"/>
<text text-anchor="middle" x="360.5" y="-121.5" font-family="Helvetica,sans-Serif" font-size="10.00">e57::IntegerNodeImpl</text>
</a>
</g>
</g>
<!-- Node1&#45;&gt;Node6 -->
<g id="edge5" class="edge">
<title>Node1&#45;&gt;Node6</title>
<path fill="none" stroke="midnightblue" d="M251.51,-124C268.21,-124 286.87,-124 303.92,-124"/>
<polygon fill="midnightblue" stroke="midnightblue" points="251.41,-120.5 241.41,-124 251.41,-127.5 251.41,-120.5"/>
</g>
<!-- Node7 -->
<g id="node7" class="node">
<title>Node7</title>
<g id="a_node7"><a xlink:href="classe57_1_1_scaled_integer_node_impl.html" target="_top" xlink:title=" ">
<polygon fill="white" stroke="black" points="289,-76.5 289,-95.5 432,-95.5 432,-76.5 289,-76.5"/>
<text text-anchor="middle" x="360.5" y="-83.5" font-family="Helvetica,sans-Serif" font-size="10.00">e57::ScaledIntegerNodeImpl</text>
</a>
</g>
</g>
<!-- Node1&#45;&gt;Node7 -->
<g id="edge6" class="edge">
<title>Node1&#45;&gt;Node7</title>
<path fill="none" stroke="midnightblue" d="M248.19,-112.06C257.72,-109.69 267.68,-107.24 277,-105 290.15,-101.84 304.5,-98.5 317.49,-95.51"/>
<polygon fill="midnightblue" stroke="midnightblue" points="247.32,-108.67 238.46,-114.49 249.01,-115.46 247.32,-108.67"/>
</g>
<!-- Node8 -->
<g id="node8" class="node">
<title>Node8</title>
<g id="a_node8"><a xlink:href="classe57_1_1_string_node_impl.html" target="_top" xlink:title=" ">
<polygon fill="white" stroke="black" points="306.5,-38.5 306.5,-57.5 414.5,-57.5 414.5,-38.5 306.5,-38.5"/>
<text text-anchor="middle" x="360.5" y="-45.5" font-family="Helvetica,sans-Serif" font-size="10.00">e57::StringNodeImpl</text>
</a>
</g>
</g>
<!-- Node1&#45;&gt;Node8 -->
<g id="edge7" class="edge">
<title>Node1&#45;&gt;Node8</title>
<path fill="none" stroke="midnightblue" d="M218.61,-107.39C233.18,-94.52 254.99,-77.22 277,-67 286.2,-62.73 296.43,-59.38 306.47,-56.76"/>
<polygon fill="midnightblue" stroke="midnightblue" points="215.97,-105.05 210.91,-114.36 220.67,-110.24 215.97,-105.05"/>
</g>
<!-- Node9 -->
<g id="node9" class="node">
<title>Node9</title>
<g id="a_node9"><a xlink:href="classe57_1_1_structure_node_impl.html" target="_top" xlink:title=" ">
<polygon fill="white" stroke="black" points="299.5,-0.5 299.5,-19.5 421.5,-19.5 421.5,-0.5 299.5,-0.5"/>
<text text-anchor="middle" x="360.5" y="-7.5" font-family="Helvetica,sans-Serif" font-size="10.00">e57::StructureNodeImpl</text>
</a>
</g>
</g>
<!-- Node1&#45;&gt;Node9 -->
<g id="edge8" class="edge">
<title>Node1&#45;&gt;Node9</title>
<path fill="none" stroke="midnightblue" d="M210.68,-105.5C223.07,-83.72 246.61,-48.11 277,-29 283.84,-24.7 291.56,-21.37 299.44,-18.79"/>
<polygon fill="midnightblue" stroke="midnightblue" points="207.53,-103.97 205.79,-114.42 213.67,-107.33 207.53,-103.97"/>
</g>
<!-- Node2 -->
<g id="node2" class="node">
<title>Node2</title>
<g id="a_node2"><a xlink:title=" ">
<polygon fill="white" stroke="#bfbfbf" points="0,-109 0,-139 123,-139 123,-109 0,-109"/>
<text text-anchor="start" x="8" y="-127" font-family="Helvetica,sans-Serif" font-size="10.00">std::enable_shared</text>
<text text-anchor="middle" x="61.5" y="-116" font-family="Helvetica,sans-Serif" font-size="10.00">_from_this&lt; NodeImpl &gt;</text>
</a>
</g>
</g>
<!-- Node2&#45;&gt;Node1 -->
<g id="edge1" class="edge">
<title>Node2&#45;&gt;Node1</title>
<path fill="none" stroke="midnightblue" d="M133.42,-124C142.16,-124 150.85,-124 158.9,-124"/>
<polygon fill="midnightblue" stroke="midnightblue" points="133.17,-120.5 123.17,-124 133.17,-127.5 133.17,-120.5"/>
</g>
<!-- Node10 -->
<g id="node10" class="node">
<title>Node10</title>
<g id="a_node10"><a xlink:href="classe57_1_1_vector_node_impl.html" target="_top" xlink:title=" ">
<polygon fill="white" stroke="black" points="480,-0.5 480,-19.5 590,-19.5 590,-0.5 480,-0.5"/>
<text text-anchor="middle" x="535" y="-7.5" font-family="Helvetica,sans-Serif" font-size="10.00">e57::VectorNodeImpl</text>
</a>
</g>
</g>
<!-- Node9&#45;&gt;Node10 -->
<g id="edge9" class="edge">
<title>Node9&#45;&gt;Node10</title>
<path fill="none" stroke="midnightblue" d="M432.15,-10C448.04,-10 464.66,-10 479.75,-10"/>
<polygon fill="midnightblue" stroke="midnightblue" points="431.83,-6.5 421.83,-10 431.83,-13.5 431.83,-6.5"/>
</g>
</g>
</svg>
