<?xml version="1.0" encoding="UTF-8" standalone="no"?>
<!DOCTYPE svg PUBLIC "-//W3C//DTD SVG 1.1//EN"
 "http://www.w3.org/Graphics/SVG/1.1/DTD/svg11.dtd">
<!-- Generated by graphviz version 2.44.0 (20200408.0750)
 -->
<!-- Title: e57::CompressedVectorNodeImpl Pages: 1 -->
<svg width="345pt" height="163pt"
 viewBox="0.00 0.00 345.00 163.00" xmlns="http://www.w3.org/2000/svg" xmlns:xlink="http://www.w3.org/1999/xlink">
<g id="graph0" class="graph" transform="scale(1 1) rotate(0) translate(4 159)">
<title>e57::CompressedVectorNodeImpl</title>
<polygon fill="white" stroke="transparent" points="-4,4 -4,-159 341,-159 341,4 -4,4"/>
<!-- Node1 -->
<g id="node1" class="node">
<title>Node1</title>
<g id="a_node1"><a xlink:title=" ">
<polygon fill="#bfbfbf" stroke="black" points="63,-0.5 63,-19.5 227,-19.5 227,-0.5 63,-0.5"/>
<text text-anchor="middle" x="145" y="-7.5" font-family="Helvetica,sans-Serif" font-size="10.00">e57::CompressedVectorNodeImpl</text>
</a>
</g>
</g>
<!-- Node2 -->
<g id="node2" class="node">
<title>Node2</title>
<g id="a_node2"><a xlink:href="classe57_1_1_node_impl.html" target="_top" xlink:title=" ">
<polygon fill="white" stroke="black" points="21,-67.5 21,-86.5 101,-86.5 101,-67.5 21,-67.5"/>
<text text-anchor="middle" x="61" y="-74.5" font-family="Helvetica,sans-Serif" font-size="10.00">e57::NodeImpl</text>
</a>
</g>
</g>
<!-- Node2&#45;&gt;Node1 -->
<g id="edge1" class="edge">
<title>Node2&#45;&gt;Node1</title>
<path fill="none" stroke="midnightblue" d="M80.3,-61.07C96.88,-48.24 120.21,-30.19 133.85,-19.63"/>
<polygon fill="midnightblue" stroke="midnightblue" points="78.1,-58.35 72.33,-67.23 82.38,-63.88 78.1,-58.35"/>
</g>
<!-- Node3 -->
<g id="node3" class="node">
<title>Node3</title>
<g id="a_node3"><a xlink:title=" ">
<polygon fill="white" stroke="#bfbfbf" points="0,-124.5 0,-154.5 122,-154.5 122,-124.5 0,-124.5"/>
<text text-anchor="start" x="8" y="-142.5" font-family="Helvetica,sans-Serif" font-size="10.00">std::enable_shared</text>
<text text-anchor="middle" x="61" y="-131.5" font-family="Helvetica,sans-Serif" font-size="10.00">_from_this&lt; NodeImpl &gt;</text>
</a>
</g>
</g>
<!-- Node3&#45;&gt;Node2 -->
<g id="edge2" class="edge">
<title>Node3&#45;&gt;Node2</title>
<path fill="none" stroke="midnightblue" d="M61,-114.35C61,-104.51 61,-93.78 61,-86.54"/>
<polygon fill="midnightblue" stroke="midnightblue" points="57.5,-114.47 61,-124.47 64.5,-114.47 57.5,-114.47"/>
</g>
<!-- Node4 -->
<g id="node4" class="node">
<title>Node4</title>
<g id="a_node4"><a xlink:title=" ">
<polygon fill="white" stroke="#bfbfbf" points="119.5,-67.5 119.5,-86.5 170.5,-86.5 170.5,-67.5 119.5,-67.5"/>
<text text-anchor="middle" x="145" y="-74.5" font-family="Helvetica,sans-Serif" font-size="10.00">uint64_t</text>
</a>
</g>
</g>
<!-- Node4&#45;&gt;Node1 -->
<g id="edge3" class="edge">
<title>Node4&#45;&gt;Node1</title>
<path fill="none" stroke="#9a32cd" stroke-dasharray="5,2" d="M145,-57.04C145,-44.67 145,-29.12 145,-19.63"/>
<polygon fill="#9a32cd" stroke="#9a32cd" points="141.5,-57.23 145,-67.23 148.5,-57.23 141.5,-57.23"/>
<text text-anchor="middle" x="205" y="-41" font-family="Helvetica,sans-Serif" font-size="10.00"> binarySectionLogicalStart_</text>
</g>
<!-- Node5 -->
<g id="node5" class="node">
<title>Node5</title>
<g id="a_node5"><a xlink:title=" ">
<polygon fill="white" stroke="#bfbfbf" points="265,-67.5 265,-86.5 311,-86.5 311,-67.5 265,-67.5"/>
<text text-anchor="middle" x="288" y="-74.5" font-family="Helvetica,sans-Serif" font-size="10.00">int64_t</text>
</a>
</g>
</g>
<!-- Node5&#45;&gt;Node1 -->
<g id="edge4" class="edge">
<title>Node5&#45;&gt;Node1</title>
<path fill="none" stroke="#9a32cd" stroke-dasharray="5,2" d="M281.42,-58.13C277.9,-50.87 272.85,-43.02 266,-38 254.46,-29.54 240.75,-23.65 226.77,-19.57"/>
<polygon fill="#9a32cd" stroke="#9a32cd" points="278.2,-59.49 285.31,-67.35 284.65,-56.77 278.2,-59.49"/>
<text text-anchor="middle" x="306" y="-41" font-family="Helvetica,sans-Serif" font-size="10.00"> recordCount_</text>
</g>
</g>
</svg>
