<?xml version="1.0" encoding="UTF-8" standalone="no"?>
<!DOCTYPE svg PUBLIC "-//W3C//DTD SVG 1.1//EN"
 "http://www.w3.org/Graphics/SVG/1.1/DTD/svg11.dtd">
<!-- Generated by graphviz version 2.48.0 (20210717.1556)
 -->
<!-- Title: e57::CompressedVectorReaderImpl Pages: 1 -->
<svg width="334pt" height="333pt"
 viewBox="0.00 0.00 334.00 333.00" xmlns="http://www.w3.org/2000/svg" xmlns:xlink="http://www.w3.org/1999/xlink">
<g id="graph0" class="graph" transform="scale(1 1) rotate(0) translate(4 329)">
<title>e57::CompressedVectorReaderImpl</title>
<polygon fill="white" stroke="transparent" points="-4,4 -4,-329 330,-329 330,4 -4,4"/>
<!-- Node1 -->
<g id="node1" class="node">
<title>Node1</title>
<g id="a_node1"><a xlink:title=" ">
<polygon fill="#bfbfbf" stroke="black" points="0,-0.5 0,-19.5 175,-19.5 175,-0.5 0,-0.5"/>
<text text-anchor="middle" x="87.5" y="-7.5" font-family="Helvetica,sans-Serif" font-size="10.00">e57::CompressedVectorReaderImpl</text>
</a>
</g>
</g>
<!-- Node2 -->
<g id="node2" class="node">
<title>Node2</title>
<g id="a_node2"><a xlink:title=" ">
<polygon fill="white" stroke="#bfbfbf" points="91.5,-305.5 91.5,-324.5 143.5,-324.5 143.5,-305.5 91.5,-305.5"/>
<text text-anchor="middle" x="117.5" y="-312.5" font-family="Helvetica,sans-Serif" font-size="10.00">uint64_t</text>
</a>
</g>
</g>
<!-- Node2&#45;&gt;Node1 -->
<g id="edge1" class="edge">
<title>Node2&#45;&gt;Node1</title>
<path fill="none" stroke="#9a32cd" stroke-dasharray="5,2" d="M101.73,-297.55C88.42,-281.88 71.5,-256.96 71.5,-231.5 71.5,-231.5 71.5,-231.5 71.5,-76 71.5,-55.31 79.24,-31.97 83.95,-19.66"/>
<polygon fill="#9a32cd" stroke="#9a32cd" points="99.35,-300.14 108.63,-305.25 104.57,-295.47 99.35,-300.14"/>
<text text-anchor="middle" x="128.5" y="-159" font-family="Helvetica,sans-Serif" font-size="10.00"> maxRecordCount_</text>
<text text-anchor="middle" x="128.5" y="-148" font-family="Helvetica,sans-Serif" font-size="10.00">recordCount_</text>
<text text-anchor="middle" x="128.5" y="-137" font-family="Helvetica,sans-Serif" font-size="10.00">sectionEndLogicalOffset_</text>
</g>
<!-- Node4 -->
<g id="node4" class="node">
<title>Node4</title>
<g id="a_node4"><a xlink:href="classe57_1_1_checked_file.html" target="_top" xlink:title=" ">
<polygon fill="white" stroke="black" points="203.5,-141 203.5,-160 297.5,-160 297.5,-141 203.5,-141"/>
<text text-anchor="middle" x="250.5" y="-148" font-family="Helvetica,sans-Serif" font-size="10.00">e57::CheckedFile</text>
</a>
</g>
</g>
<!-- Node2&#45;&gt;Node4 -->
<g id="edge4" class="edge">
<title>Node2&#45;&gt;Node4</title>
<path fill="none" stroke="#9a32cd" stroke-dasharray="5,2" d="M114.36,-295.19C111.81,-273.63 110.96,-238.17 127.5,-214 147.39,-184.94 184.99,-168.65 213.41,-160.04"/>
<polygon fill="#9a32cd" stroke="#9a32cd" points="110.92,-295.91 115.8,-305.32 117.85,-294.92 110.92,-295.91"/>
<text text-anchor="middle" x="179" y="-239" font-family="Helvetica,sans-Serif" font-size="10.00"> logicalLength_</text>
<text text-anchor="middle" x="179" y="-228" font-family="Helvetica,sans-Serif" font-size="10.00">physicalLength_</text>
<text text-anchor="middle" x="179" y="-217" font-family="Helvetica,sans-Serif" font-size="10.00">physicalPageSizeMask</text>
</g>
<!-- Node5 -->
<g id="node5" class="node">
<title>Node5</title>
<g id="a_node5"><a xlink:href="classe57_1_1_buffer_view.html" target="_top" xlink:title=" ">
<polygon fill="white" stroke="black" points="239,-221 239,-240 326,-240 326,-221 239,-221"/>
<text text-anchor="middle" x="282.5" y="-228" font-family="Helvetica,sans-Serif" font-size="10.00">e57::BufferView</text>
</a>
</g>
</g>
<!-- Node2&#45;&gt;Node5 -->
<g id="edge6" class="edge">
<title>Node2&#45;&gt;Node5</title>
<path fill="none" stroke="#9a32cd" stroke-dasharray="5,2" d="M143.87,-300.81C177.98,-283.76 236.43,-254.54 265.31,-240.1"/>
<polygon fill="#9a32cd" stroke="#9a32cd" points="141.92,-297.88 134.54,-305.48 145.05,-304.14 141.92,-297.88"/>
<text text-anchor="middle" x="250" y="-279" font-family="Helvetica,sans-Serif" font-size="10.00"> cursorStream_</text>
<text text-anchor="middle" x="250" y="-268" font-family="Helvetica,sans-Serif" font-size="10.00">streamSize_</text>
</g>
<!-- Node3 -->
<g id="node3" class="node">
<title>Node3</title>
<g id="a_node3"><a xlink:href="classe57_1_1_packet_read_cache.html" target="_top" xlink:title=" ">
<polygon fill="white" stroke="black" points="144.5,-67.5 144.5,-86.5 266.5,-86.5 266.5,-67.5 144.5,-67.5"/>
<text text-anchor="middle" x="205.5" y="-74.5" font-family="Helvetica,sans-Serif" font-size="10.00">e57::PacketReadCache</text>
</a>
</g>
</g>
<!-- Node3&#45;&gt;Node1 -->
<g id="edge2" class="edge">
<title>Node3&#45;&gt;Node1</title>
<path fill="none" stroke="#9a32cd" stroke-dasharray="5,2" d="M180.61,-62.29C157.22,-49.4 122.94,-30.52 103.16,-19.63"/>
<polygon fill="#9a32cd" stroke="#9a32cd" points="179.14,-65.47 189.59,-67.23 182.52,-59.34 179.14,-65.47"/>
<text text-anchor="middle" x="172.5" y="-41" font-family="Helvetica,sans-Serif" font-size="10.00"> cache_</text>
</g>
<!-- Node4&#45;&gt;Node3 -->
<g id="edge3" class="edge">
<title>Node4&#45;&gt;Node3</title>
<path fill="none" stroke="#9a32cd" stroke-dasharray="5,2" d="M239.65,-132.25C230.63,-117.93 218.17,-98.13 211.06,-86.84"/>
<polygon fill="#9a32cd" stroke="#9a32cd" points="236.69,-134.13 244.98,-140.73 242.62,-130.41 236.69,-134.13"/>
<text text-anchor="middle" x="243.5" y="-108" font-family="Helvetica,sans-Serif" font-size="10.00"> cFile_</text>
</g>
<!-- Node5&#45;&gt;Node4 -->
<g id="edge5" class="edge">
<title>Node5&#45;&gt;Node4</title>
<path fill="none" stroke="#9a32cd" stroke-dasharray="5,2" d="M275.11,-211.49C268.55,-195.51 259.24,-172.81 254.16,-160.42"/>
<polygon fill="#9a32cd" stroke="#9a32cd" points="271.92,-212.93 278.95,-220.85 278.4,-210.27 271.92,-212.93"/>
<text text-anchor="middle" x="289.5" y="-188" font-family="Helvetica,sans-Serif" font-size="10.00"> bufView_</text>
</g>
</g>
</svg>
