<?xml version="1.0" encoding="UTF-8" standalone="no"?>
<!DOCTYPE svg PUBLIC "-//W3C//DTD SVG 1.1//EN"
 "http://www.w3.org/Graphics/SVG/1.1/DTD/svg11.dtd">
<!-- Generated by graphviz version 2.48.0 (20210717.1556)
 -->
<!-- Title: e57::ImageFileImpl Pages: 1 -->
<svg width="492pt" height="308pt"
 viewBox="0.00 0.00 492.00 308.00" xmlns="http://www.w3.org/2000/svg" xmlns:xlink="http://www.w3.org/1999/xlink">
<g id="graph0" class="graph" transform="scale(1 1) rotate(0) translate(4 304)">
<title>e57::ImageFileImpl</title>
<polygon fill="white" stroke="transparent" points="-4,4 -4,-304 488,-304 488,4 -4,4"/>
<!-- Node1 -->
<g id="node1" class="node">
<title>Node1</title>
<g id="a_node1"><a xlink:title=" ">
<polygon fill="#bfbfbf" stroke="black" points="120.5,-0.5 120.5,-19.5 222.5,-19.5 222.5,-0.5 120.5,-0.5"/>
<text text-anchor="middle" x="171.5" y="-7.5" font-family="Helvetica,sans-Serif" font-size="10.00">e57::ImageFileImpl</text>
</a>
</g>
</g>
<!-- Node2 -->
<g id="node2" class="node">
<title>Node2</title>
<g id="a_node2"><a xlink:title=" ">
<polygon fill="white" stroke="#bfbfbf" points="0,-67.5 0,-97.5 143,-97.5 143,-67.5 0,-67.5"/>
<text text-anchor="start" x="8" y="-85.5" font-family="Helvetica,sans-Serif" font-size="10.00">std::enable_shared</text>
<text text-anchor="middle" x="71.5" y="-74.5" font-family="Helvetica,sans-Serif" font-size="10.00">_from_this&lt; ImageFileImpl &gt;</text>
</a>
</g>
</g>
<!-- Node2&#45;&gt;Node1 -->
<g id="edge1" class="edge">
<title>Node2&#45;&gt;Node1</title>
<path fill="none" stroke="midnightblue" d="M100.01,-61.4C119.55,-47.62 144.51,-30.03 159.17,-19.69"/>
<polygon fill="midnightblue" stroke="midnightblue" points="97.89,-58.61 91.74,-67.23 101.93,-64.33 97.89,-58.61"/>
</g>
<!-- Node3 -->
<g id="node3" class="node">
<title>Node3</title>
<g id="a_node3"><a xlink:href="classe57_1_1_checked_file.html" target="_top" xlink:title=" ">
<polygon fill="white" stroke="black" points="228.5,-73 228.5,-92 322.5,-92 322.5,-73 228.5,-73"/>
<text text-anchor="middle" x="275.5" y="-80" font-family="Helvetica,sans-Serif" font-size="10.00">e57::CheckedFile</text>
</a>
</g>
</g>
<!-- Node3&#45;&gt;Node1 -->
<g id="edge2" class="edge">
<title>Node3&#45;&gt;Node1</title>
<path fill="none" stroke="#9a32cd" stroke-dasharray="5,2" d="M254.47,-67.24C233.47,-53.01 201.88,-31.59 184.36,-19.72"/>
<polygon fill="#9a32cd" stroke="#9a32cd" points="252.51,-70.14 262.75,-72.86 256.43,-64.35 252.51,-70.14"/>
<text text-anchor="middle" x="238.5" y="-41" font-family="Helvetica,sans-Serif" font-size="10.00"> file_</text>
</g>
<!-- Node4 -->
<g id="node4" class="node">
<title>Node4</title>
<g id="a_node4"><a xlink:title=" ">
<polygon fill="white" stroke="#bfbfbf" points="249.5,-280.5 249.5,-299.5 301.5,-299.5 301.5,-280.5 249.5,-280.5"/>
<text text-anchor="middle" x="275.5" y="-287.5" font-family="Helvetica,sans-Serif" font-size="10.00">uint64_t</text>
</a>
</g>
</g>
<!-- Node4&#45;&gt;Node1 -->
<g id="edge6" class="edge">
<title>Node4&#45;&gt;Node1</title>
<path fill="none" stroke="#9a32cd" stroke-dasharray="5,2" d="M258.23,-273.67C236.17,-252.9 198.88,-213.48 182.5,-171 161.56,-116.7 167.48,-44.42 170.36,-19.71"/>
<polygon fill="#9a32cd" stroke="#9a32cd" points="255.87,-276.26 265.6,-280.45 260.61,-271.11 255.87,-276.26"/>
<text text-anchor="start" x="182.5" y="-163" font-family="Helvetica,sans-Serif" font-size="10.00"> unusedLogicalStart</text>
<text text-anchor="middle" x="227" y="-152" font-family="Helvetica,sans-Serif" font-size="10.00">_</text>
<text text-anchor="start" x="182.5" y="-141" font-family="Helvetica,sans-Serif" font-size="10.00">xmlLogicalLength</text>
<text text-anchor="middle" x="227" y="-130" font-family="Helvetica,sans-Serif" font-size="10.00">_</text>
<text text-anchor="middle" x="227" y="-119" font-family="Helvetica,sans-Serif" font-size="10.00">xmlLogicalOffset_</text>
</g>
<!-- Node4&#45;&gt;Node3 -->
<g id="edge3" class="edge">
<title>Node4&#45;&gt;Node3</title>
<path fill="none" stroke="#9a32cd" stroke-dasharray="5,2" d="M275.5,-270.25C275.5,-227.23 275.5,-122.78 275.5,-92.11"/>
<polygon fill="#9a32cd" stroke="#9a32cd" points="272,-270.43 275.5,-280.43 279,-270.43 272,-270.43"/>
<text text-anchor="middle" x="327" y="-214" font-family="Helvetica,sans-Serif" font-size="10.00"> logicalLength_</text>
<text text-anchor="middle" x="327" y="-203" font-family="Helvetica,sans-Serif" font-size="10.00">physicalLength_</text>
<text text-anchor="middle" x="327" y="-192" font-family="Helvetica,sans-Serif" font-size="10.00">physicalPageSizeMask</text>
</g>
<!-- Node5 -->
<g id="node5" class="node">
<title>Node5</title>
<g id="a_node5"><a xlink:href="classe57_1_1_buffer_view.html" target="_top" xlink:title=" ">
<polygon fill="white" stroke="black" points="397,-196 397,-215 484,-215 484,-196 397,-196"/>
<text text-anchor="middle" x="440.5" y="-203" font-family="Helvetica,sans-Serif" font-size="10.00">e57::BufferView</text>
</a>
</g>
</g>
<!-- Node4&#45;&gt;Node5 -->
<g id="edge5" class="edge">
<title>Node4&#45;&gt;Node5</title>
<path fill="none" stroke="#9a32cd" stroke-dasharray="5,2" d="M301.87,-275.81C335.98,-258.76 394.43,-229.54 423.31,-215.1"/>
<polygon fill="#9a32cd" stroke="#9a32cd" points="299.92,-272.88 292.54,-280.48 303.05,-279.14 299.92,-272.88"/>
<text text-anchor="middle" x="407" y="-254" font-family="Helvetica,sans-Serif" font-size="10.00"> cursorStream_</text>
<text text-anchor="middle" x="407" y="-243" font-family="Helvetica,sans-Serif" font-size="10.00">streamSize_</text>
</g>
<!-- Node5&#45;&gt;Node3 -->
<g id="edge4" class="edge">
<title>Node5&#45;&gt;Node3</title>
<path fill="none" stroke="#9a32cd" stroke-dasharray="5,2" d="M420.49,-189.83C385.74,-164.34 315.27,-112.66 287.31,-92.16"/>
<polygon fill="#9a32cd" stroke="#9a32cd" points="418.76,-192.9 428.9,-195.99 422.9,-187.26 418.76,-192.9"/>
<text text-anchor="middle" x="413.5" y="-141" font-family="Helvetica,sans-Serif" font-size="10.00"> bufView_</text>
</g>
</g>
</svg>
