<?xml version="1.0" encoding="UTF-8" standalone="no"?>
<!DOCTYPE svg PUBLIC "-//W3C//DTD SVG 1.1//EN"
 "http://www.w3.org/Graphics/SVG/1.1/DTD/svg11.dtd">
<!-- Generated by graphviz version 2.44.0 (20200408.0750)
 -->
<!-- Title: e57::ConstantIntegerDecoder Pages: 1 -->
<svg width="282pt" height="106pt"
 viewBox="0.00 0.00 281.50 106.00" xmlns="http://www.w3.org/2000/svg" xmlns:xlink="http://www.w3.org/1999/xlink">
<g id="graph0" class="graph" transform="scale(1 1) rotate(0) translate(4 102)">
<title>e57::ConstantIntegerDecoder</title>
<polygon fill="white" stroke="transparent" points="-4,4 -4,-102 277.5,-102 277.5,4 -4,4"/>
<!-- Node1 -->
<g id="node1" class="node">
<title>Node1</title>
<g id="a_node1"><a xlink:title=" ">
<polygon fill="#bfbfbf" stroke="black" points="46,-0.5 46,-19.5 191,-19.5 191,-0.5 46,-0.5"/>
<text text-anchor="middle" x="118.5" y="-7.5" font-family="Helvetica,sans-Serif" font-size="10.00">e57::ConstantIntegerDecoder</text>
</a>
</g>
</g>
<!-- Node2 -->
<g id="node2" class="node">
<title>Node2</title>
<g id="a_node2"><a xlink:href="classe57_1_1_decoder.html" target="_top" xlink:title=" ">
<polygon fill="white" stroke="black" points="0,-78.5 0,-97.5 75,-97.5 75,-78.5 0,-78.5"/>
<text text-anchor="middle" x="37.5" y="-85.5" font-family="Helvetica,sans-Serif" font-size="10.00">e57::Decoder</text>
</a>
</g>
</g>
<!-- Node2&#45;&gt;Node1 -->
<g id="edge1" class="edge">
<title>Node2&#45;&gt;Node1</title>
<path fill="none" stroke="midnightblue" d="M54.23,-71.3C70.92,-55.64 95.95,-32.16 109.32,-19.62"/>
<polygon fill="midnightblue" stroke="midnightblue" points="51.69,-68.89 46.79,-78.28 56.48,-73.99 51.69,-68.89"/>
</g>
<!-- Node3 -->
<g id="node3" class="node">
<title>Node3</title>
<g id="a_node3"><a xlink:title=" ">
<polygon fill="white" stroke="#bfbfbf" points="93,-78.5 93,-97.5 144,-97.5 144,-78.5 93,-78.5"/>
<text text-anchor="middle" x="118.5" y="-85.5" font-family="Helvetica,sans-Serif" font-size="10.00">uint64_t</text>
</a>
</g>
</g>
<!-- Node3&#45;&gt;Node1 -->
<g id="edge2" class="edge">
<title>Node3&#45;&gt;Node1</title>
<path fill="none" stroke="#9a32cd" stroke-dasharray="5,2" d="M118.5,-68.22C118.5,-52.7 118.5,-31.36 118.5,-19.62"/>
<polygon fill="#9a32cd" stroke="#9a32cd" points="115,-68.28 118.5,-78.28 122,-68.28 115,-68.28"/>
<text text-anchor="middle" x="164" y="-52" font-family="Helvetica,sans-Serif" font-size="10.00"> maxRecordCount_</text>
<text text-anchor="middle" x="164" y="-41" font-family="Helvetica,sans-Serif" font-size="10.00">currentRecordIndex_</text>
</g>
<!-- Node4 -->
<g id="node4" class="node">
<title>Node4</title>
<g id="a_node4"><a xlink:title=" ">
<polygon fill="white" stroke="#bfbfbf" points="209.5,-78.5 209.5,-97.5 255.5,-97.5 255.5,-78.5 209.5,-78.5"/>
<text text-anchor="middle" x="232.5" y="-85.5" font-family="Helvetica,sans-Serif" font-size="10.00">int64_t</text>
</a>
</g>
</g>
<!-- Node4&#45;&gt;Node1 -->
<g id="edge3" class="edge">
<title>Node4&#45;&gt;Node1</title>
<path fill="none" stroke="#9a32cd" stroke-dasharray="5,2" d="M228.33,-68.66C225.09,-58.31 219.58,-45.91 210.5,-38 200.71,-29.47 188.35,-23.63 175.89,-19.63"/>
<polygon fill="#9a32cd" stroke="#9a32cd" points="224.98,-69.66 230.94,-78.42 231.74,-67.86 224.98,-69.66"/>
<text text-anchor="middle" x="249" y="-46.5" font-family="Helvetica,sans-Serif" font-size="10.00"> minimum_</text>
</g>
</g>
</svg>
