<?xml version="1.0" encoding="UTF-8" standalone="no"?>
<!DOCTYPE svg PUBLIC "-//W3C//DTD SVG 1.1//EN"
 "http://www.w3.org/Graphics/SVG/1.1/DTD/svg11.dtd">
<!-- Generated by graphviz version 2.48.0 (20210717.1556)
 -->
<!-- Title: e57::Encoder Pages: 1 -->
<svg width="443pt" height="116pt"
 viewBox="0.00 0.00 443.00 116.00" xmlns="http://www.w3.org/2000/svg" xmlns:xlink="http://www.w3.org/1999/xlink">
<g id="graph0" class="graph" transform="scale(1 1) rotate(0) translate(4 112)">
<title>e57::Encoder</title>
<polygon fill="white" stroke="transparent" points="-4,4 -4,-112 439,-112 439,4 -4,4"/>
<!-- Node1 -->
<g id="node1" class="node">
<title>Node1</title>
<g id="a_node1"><a xlink:title=" ">
<polygon fill="#bfbfbf" stroke="black" points="0,-25.5 0,-44.5 76,-44.5 76,-25.5 0,-25.5"/>
<text text-anchor="middle" x="38" y="-32.5" font-family="Helvetica,sans-Serif" font-size="10.00">e57::Encoder</text>
</a>
</g>
</g>
<!-- Node2 -->
<g id="node2" class="node">
<title>Node2</title>
<g id="a_node2"><a xlink:href="classe57_1_1_bitpack_encoder.html" target="_top" xlink:title=" ">
<polygon fill="white" stroke="black" points="131,-44.5 131,-63.5 240,-63.5 240,-44.5 131,-44.5"/>
<text text-anchor="middle" x="185.5" y="-51.5" font-family="Helvetica,sans-Serif" font-size="10.00">e57::BitpackEncoder</text>
</a>
</g>
</g>
<!-- Node1&#45;&gt;Node2 -->
<g id="edge1" class="edge">
<title>Node1&#45;&gt;Node2</title>
<path fill="none" stroke="midnightblue" d="M86.15,-41.16C100.38,-43.01 116.1,-45.07 130.72,-46.98"/>
<polygon fill="midnightblue" stroke="midnightblue" points="86.46,-37.67 76.09,-39.84 85.55,-44.61 86.46,-37.67"/>
</g>
<!-- Node6 -->
<g id="node6" class="node">
<title>Node6</title>
<g id="a_node6"><a xlink:href="classe57_1_1_constant_integer_encoder.html" target="_top" xlink:title=" ">
<polygon fill="white" stroke="black" points="112,-6.5 112,-25.5 259,-25.5 259,-6.5 112,-6.5"/>
<text text-anchor="middle" x="185.5" y="-13.5" font-family="Helvetica,sans-Serif" font-size="10.00">e57::ConstantIntegerEncoder</text>
</a>
</g>
</g>
<!-- Node1&#45;&gt;Node6 -->
<g id="edge5" class="edge">
<title>Node1&#45;&gt;Node6</title>
<path fill="none" stroke="midnightblue" d="M86.18,-28.84C94.39,-27.77 103.09,-26.63 111.79,-25.49"/>
<polygon fill="midnightblue" stroke="midnightblue" points="85.55,-25.39 76.09,-30.16 86.46,-32.33 85.55,-25.39"/>
</g>
<!-- Node3 -->
<g id="node3" class="node">
<title>Node3</title>
<g id="a_node3"><a xlink:href="classe57_1_1_bitpack_float_encoder.html" target="_top" xlink:title=" ">
<polygon fill="white" stroke="black" points="299.5,-88.5 299.5,-107.5 430.5,-107.5 430.5,-88.5 299.5,-88.5"/>
<text text-anchor="middle" x="365" y="-95.5" font-family="Helvetica,sans-Serif" font-size="10.00">e57::BitpackFloatEncoder</text>
</a>
</g>
</g>
<!-- Node2&#45;&gt;Node3 -->
<g id="edge2" class="edge">
<title>Node2&#45;&gt;Node3</title>
<path fill="none" stroke="midnightblue" d="M234.78,-65.97C263.31,-73.04 298.94,-81.87 325.56,-88.47"/>
<polygon fill="midnightblue" stroke="midnightblue" points="235.56,-62.56 225.01,-63.55 233.88,-69.35 235.56,-62.56"/>
</g>
<!-- Node4 -->
<g id="node4" class="node">
<title>Node4</title>
<g id="a_node4"><a xlink:href="classe57_1_1_bitpack_integer_encoder.html" target="_top" xlink:title=" ">
<polygon fill="white" stroke="black" points="295,-39 295,-69 435,-69 435,-39 295,-39"/>
<text text-anchor="start" x="303" y="-57" font-family="Helvetica,sans-Serif" font-size="10.00">e57::BitpackIntegerEncoder</text>
<text text-anchor="middle" x="365" y="-46" font-family="Helvetica,sans-Serif" font-size="10.00">&lt; RegisterT &gt;</text>
</a>
</g>
</g>
<!-- Node2&#45;&gt;Node4 -->
<g id="edge3" class="edge">
<title>Node2&#45;&gt;Node4</title>
<path fill="none" stroke="midnightblue" d="M250.5,-54C264.84,-54 280.13,-54 294.68,-54"/>
<polygon fill="midnightblue" stroke="midnightblue" points="250.24,-50.5 240.24,-54 250.24,-57.5 250.24,-50.5"/>
</g>
<!-- Node5 -->
<g id="node5" class="node">
<title>Node5</title>
<g id="a_node5"><a xlink:href="classe57_1_1_bitpack_string_encoder.html" target="_top" xlink:title=" ">
<polygon fill="white" stroke="black" points="297.5,-0.5 297.5,-19.5 432.5,-19.5 432.5,-0.5 297.5,-0.5"/>
<text text-anchor="middle" x="365" y="-7.5" font-family="Helvetica,sans-Serif" font-size="10.00">e57::BitpackStringEncoder</text>
</a>
</g>
</g>
<!-- Node2&#45;&gt;Node5 -->
<g id="edge4" class="edge">
<title>Node2&#45;&gt;Node5</title>
<path fill="none" stroke="midnightblue" d="M234.78,-42.03C263.31,-34.96 298.94,-26.13 325.56,-19.53"/>
<polygon fill="midnightblue" stroke="midnightblue" points="233.88,-38.65 225.01,-44.45 235.56,-45.44 233.88,-38.65"/>
</g>
</g>
</svg>
