<?xml version="1.0" encoding="UTF-8" standalone="no"?>
<!DOCTYPE svg PUBLIC "-//W3C//DTD SVG 1.1//EN"
 "http://www.w3.org/Graphics/SVG/1.1/DTD/svg11.dtd">
<!-- Generated by graphviz version 2.44.0 (20200408.0750)
 -->
<!-- Title: e57::BlobNodeImpl Pages: 1 -->
<svg width="260pt" height="196pt"
 viewBox="0.00 0.00 260.00 196.00" xmlns="http://www.w3.org/2000/svg" xmlns:xlink="http://www.w3.org/1999/xlink">
<g id="graph0" class="graph" transform="scale(1 1) rotate(0) translate(4 192)">
<title>e57::BlobNodeImpl</title>
<polygon fill="white" stroke="transparent" points="-4,4 -4,-192 256,-192 256,4 -4,4"/>
<!-- Node1 -->
<g id="node1" class="node">
<title>Node1</title>
<g id="a_node1"><a xlink:title=" ">
<polygon fill="#bfbfbf" stroke="black" points="53,-0.5 53,-19.5 153,-19.5 153,-0.5 53,-0.5"/>
<text text-anchor="middle" x="103" y="-7.5" font-family="Helvetica,sans-Serif" font-size="10.00">e57::BlobNodeImpl</text>
</a>
</g>
</g>
<!-- Node2 -->
<g id="node2" class="node">
<title>Node2</title>
<g id="a_node2"><a xlink:href="classe57_1_1_node_impl.html" target="_top" xlink:title=" ">
<polygon fill="white" stroke="black" points="21,-100.5 21,-119.5 101,-119.5 101,-100.5 21,-100.5"/>
<text text-anchor="middle" x="61" y="-107.5" font-family="Helvetica,sans-Serif" font-size="10.00">e57::NodeImpl</text>
</a>
</g>
</g>
<!-- Node2&#45;&gt;Node1 -->
<g id="edge1" class="edge">
<title>Node2&#45;&gt;Node1</title>
<path fill="none" stroke="midnightblue" d="M68.67,-91.1C77.76,-69.89 92.53,-35.44 99.34,-19.54"/>
<polygon fill="midnightblue" stroke="midnightblue" points="65.45,-89.73 64.73,-100.3 71.88,-92.49 65.45,-89.73"/>
</g>
<!-- Node3 -->
<g id="node3" class="node">
<title>Node3</title>
<g id="a_node3"><a xlink:title=" ">
<polygon fill="white" stroke="#bfbfbf" points="0,-157.5 0,-187.5 122,-187.5 122,-157.5 0,-157.5"/>
<text text-anchor="start" x="8" y="-175.5" font-family="Helvetica,sans-Serif" font-size="10.00">std::enable_shared</text>
<text text-anchor="middle" x="61" y="-164.5" font-family="Helvetica,sans-Serif" font-size="10.00">_from_this&lt; NodeImpl &gt;</text>
</a>
</g>
</g>
<!-- Node3&#45;&gt;Node2 -->
<g id="edge2" class="edge">
<title>Node3&#45;&gt;Node2</title>
<path fill="none" stroke="midnightblue" d="M61,-147.35C61,-137.51 61,-126.78 61,-119.54"/>
<polygon fill="midnightblue" stroke="midnightblue" points="57.5,-147.47 61,-157.47 64.5,-147.47 57.5,-147.47"/>
</g>
<!-- Node4 -->
<g id="node4" class="node">
<title>Node4</title>
<g id="a_node4"><a xlink:title=" ">
<polygon fill="white" stroke="#bfbfbf" points="119.5,-100.5 119.5,-119.5 170.5,-119.5 170.5,-100.5 119.5,-100.5"/>
<text text-anchor="middle" x="145" y="-107.5" font-family="Helvetica,sans-Serif" font-size="10.00">uint64_t</text>
</a>
</g>
</g>
<!-- Node4&#45;&gt;Node1 -->
<g id="edge3" class="edge">
<title>Node4&#45;&gt;Node1</title>
<path fill="none" stroke="#9a32cd" stroke-dasharray="5,2" d="M137.33,-91.1C128.24,-69.89 113.47,-35.44 106.66,-19.54"/>
<polygon fill="#9a32cd" stroke="#9a32cd" points="134.12,-92.49 141.27,-100.3 140.55,-89.73 134.12,-92.49"/>
<text text-anchor="middle" x="192" y="-74" font-family="Helvetica,sans-Serif" font-size="10.00"> blobLogicalLength_</text>
<text text-anchor="start" x="132" y="-63" font-family="Helvetica,sans-Serif" font-size="10.00">binarySectionLogicalLength</text>
<text text-anchor="middle" x="192" y="-52" font-family="Helvetica,sans-Serif" font-size="10.00">_</text>
<text text-anchor="middle" x="192" y="-41" font-family="Helvetica,sans-Serif" font-size="10.00">binarySectionLogicalStart_</text>
</g>
</g>
</svg>
