<?xml version="1.0" encoding="UTF-8" standalone="no"?>
<!DOCTYPE svg PUBLIC "-//W3C//DTD SVG 1.1//EN"
 "http://www.w3.org/Graphics/SVG/1.1/DTD/svg11.dtd">
<!-- Generated by graphviz version 2.48.0 (20210717.1556)
 -->
<!-- Title: e57::ConstantIntegerEncoder Pages: 1 -->
<svg width="284pt" height="95pt"
 viewBox="0.00 0.00 284.00 95.00" xmlns="http://www.w3.org/2000/svg" xmlns:xlink="http://www.w3.org/1999/xlink">
<g id="graph0" class="graph" transform="scale(1 1) rotate(0) translate(4 91)">
<title>e57::ConstantIntegerEncoder</title>
<polygon fill="white" stroke="transparent" points="-4,4 -4,-91 280,-91 280,4 -4,4"/>
<!-- Node1 -->
<g id="node1" class="node">
<title>Node1</title>
<g id="a_node1"><a xlink:title=" ">
<polygon fill="#bfbfbf" stroke="black" points="46.5,-0.5 46.5,-19.5 193.5,-19.5 193.5,-0.5 46.5,-0.5"/>
<text text-anchor="middle" x="120" y="-7.5" font-family="Helvetica,sans-Serif" font-size="10.00">e57::ConstantIntegerEncoder</text>
</a>
</g>
</g>
<!-- Node2 -->
<g id="node2" class="node">
<title>Node2</title>
<g id="a_node2"><a xlink:href="classe57_1_1_encoder.html" target="_top" xlink:title=" ">
<polygon fill="white" stroke="black" points="0,-67.5 0,-86.5 76,-86.5 76,-67.5 0,-67.5"/>
<text text-anchor="middle" x="38" y="-74.5" font-family="Helvetica,sans-Serif" font-size="10.00">e57::Encoder</text>
</a>
</g>
</g>
<!-- Node2&#45;&gt;Node1 -->
<g id="edge1" class="edge">
<title>Node2&#45;&gt;Node1</title>
<path fill="none" stroke="midnightblue" d="M57.28,-60.71C73.44,-47.91 95.92,-30.09 109.12,-19.63"/>
<polygon fill="midnightblue" stroke="midnightblue" points="54.72,-58.28 49.06,-67.23 59.07,-63.76 54.72,-58.28"/>
</g>
<!-- Node3 -->
<g id="node3" class="node">
<title>Node3</title>
<g id="a_node3"><a xlink:title=" ">
<polygon fill="white" stroke="#bfbfbf" points="94,-67.5 94,-86.5 146,-86.5 146,-67.5 94,-67.5"/>
<text text-anchor="middle" x="120" y="-74.5" font-family="Helvetica,sans-Serif" font-size="10.00">uint64_t</text>
</a>
</g>
</g>
<!-- Node3&#45;&gt;Node1 -->
<g id="edge2" class="edge">
<title>Node3&#45;&gt;Node1</title>
<path fill="none" stroke="#9a32cd" stroke-dasharray="5,2" d="M120,-57.04C120,-44.67 120,-29.12 120,-19.63"/>
<polygon fill="#9a32cd" stroke="#9a32cd" points="116.5,-57.23 120,-67.23 123.5,-57.23 116.5,-57.23"/>
<text text-anchor="middle" x="168.5" y="-41" font-family="Helvetica,sans-Serif" font-size="10.00"> currentRecordIndex_</text>
</g>
<!-- Node4 -->
<g id="node4" class="node">
<title>Node4</title>
<g id="a_node4"><a xlink:title=" ">
<polygon fill="white" stroke="#bfbfbf" points="216.5,-67.5 216.5,-86.5 263.5,-86.5 263.5,-67.5 216.5,-67.5"/>
<text text-anchor="middle" x="240" y="-74.5" font-family="Helvetica,sans-Serif" font-size="10.00">int64_t</text>
</a>
</g>
</g>
<!-- Node4&#45;&gt;Node1 -->
<g id="edge3" class="edge">
<title>Node4&#45;&gt;Node1</title>
<path fill="none" stroke="#9a32cd" stroke-dasharray="5,2" d="M233.06,-57.79C229.53,-50.7 224.57,-43.07 218,-38 206.82,-29.37 193.06,-23.5 179.42,-19.5"/>
<polygon fill="#9a32cd" stroke="#9a32cd" points="230.05,-59.66 237.23,-67.44 236.48,-56.88 230.05,-59.66"/>
<text text-anchor="middle" x="251.5" y="-41" font-family="Helvetica,sans-Serif" font-size="10.00"> minimum_</text>
</g>
</g>
</svg>
