<?xml version="1.0" encoding="UTF-8" standalone="no"?>
<!DOCTYPE svg PUBLIC "-//W3C//DTD SVG 1.1//EN"
 "http://www.w3.org/Graphics/SVG/1.1/DTD/svg11.dtd">
<!-- Generated by graphviz version 2.48.0 (20210717.1556)
 -->
<!-- Title: e57::BitpackStringDecoder Pages: 1 -->
<svg width="340pt" height="186pt"
 viewBox="0.00 0.00 340.00 186.00" xmlns="http://www.w3.org/2000/svg" xmlns:xlink="http://www.w3.org/1999/xlink">
<g id="graph0" class="graph" transform="scale(1 1) rotate(0) translate(4 182)">
<title>e57::BitpackStringDecoder</title>
<polygon fill="white" stroke="transparent" points="-4,4 -4,-182 336,-182 336,4 -4,4"/>
<!-- Node1 -->
<g id="node1" class="node">
<title>Node1</title>
<g id="a_node1"><a xlink:title=" ">
<polygon fill="#bfbfbf" stroke="black" points="110,-0.5 110,-19.5 245,-19.5 245,-0.5 110,-0.5"/>
<text text-anchor="middle" x="177.5" y="-7.5" font-family="Helvetica,sans-Serif" font-size="10.00">e57::BitpackStringDecoder</text>
</a>
</g>
</g>
<!-- Node2 -->
<g id="node2" class="node">
<title>Node2</title>
<g id="a_node2"><a xlink:href="classe57_1_1_bitpack_decoder.html" target="_top" xlink:title=" ">
<polygon fill="white" stroke="black" points="17,-68.5 17,-87.5 126,-87.5 126,-68.5 17,-68.5"/>
<text text-anchor="middle" x="71.5" y="-75.5" font-family="Helvetica,sans-Serif" font-size="10.00">e57::BitpackDecoder</text>
</a>
</g>
</g>
<!-- Node2&#45;&gt;Node1 -->
<g id="edge1" class="edge">
<title>Node2&#45;&gt;Node1</title>
<path fill="none" stroke="midnightblue" d="M94,-62.99C115.09,-49.86 145.94,-30.65 163.64,-19.63"/>
<polygon fill="midnightblue" stroke="midnightblue" points="92,-60.11 85.36,-68.37 95.7,-66.06 92,-60.11"/>
</g>
<!-- Node3 -->
<g id="node3" class="node">
<title>Node3</title>
<g id="a_node3"><a xlink:href="classe57_1_1_decoder.html" target="_top" xlink:title=" ">
<polygon fill="white" stroke="black" points="0,-158.5 0,-177.5 77,-177.5 77,-158.5 0,-158.5"/>
<text text-anchor="middle" x="38.5" y="-165.5" font-family="Helvetica,sans-Serif" font-size="10.00">e57::Decoder</text>
</a>
</g>
</g>
<!-- Node3&#45;&gt;Node2 -->
<g id="edge2" class="edge">
<title>Node3&#45;&gt;Node2</title>
<path fill="none" stroke="midnightblue" d="M41.12,-147.88C43.22,-135.81 46.78,-120.07 52.5,-107 55.52,-100.11 60.27,-93.11 64.26,-87.83"/>
<polygon fill="midnightblue" stroke="midnightblue" points="37.6,-147.72 39.53,-158.14 44.52,-148.79 37.6,-147.72"/>
</g>
<!-- Node4 -->
<g id="node4" class="node">
<title>Node4</title>
<g id="a_node4"><a xlink:title=" ">
<polygon fill="white" stroke="#bfbfbf" points="123.5,-158.5 123.5,-177.5 175.5,-177.5 175.5,-158.5 123.5,-158.5"/>
<text text-anchor="middle" x="149.5" y="-165.5" font-family="Helvetica,sans-Serif" font-size="10.00">uint64_t</text>
</a>
</g>
</g>
<!-- Node4&#45;&gt;Node1 -->
<g id="edge4" class="edge">
<title>Node4&#45;&gt;Node1</title>
<path fill="none" stroke="#9a32cd" stroke-dasharray="5,2" d="M159.8,-149.38C161.24,-146.33 162.55,-143.13 163.5,-140 176.72,-96.22 177.78,-40.76 177.65,-19.67"/>
<polygon fill="#9a32cd" stroke="#9a32cd" points="156.64,-147.88 155.03,-158.35 162.82,-151.17 156.64,-147.88"/>
<text text-anchor="middle" x="221" y="-81" font-family="Helvetica,sans-Serif" font-size="10.00"> nBytesStringRead_</text>
<text text-anchor="middle" x="221" y="-70" font-family="Helvetica,sans-Serif" font-size="10.00">stringLength_</text>
</g>
<!-- Node4&#45;&gt;Node2 -->
<g id="edge3" class="edge">
<title>Node4&#45;&gt;Node2</title>
<path fill="none" stroke="#9a32cd" stroke-dasharray="5,2" d="M113.01,-163.28C97.95,-159.76 81.86,-152.97 72.5,-140 61.35,-124.54 65.38,-100.66 68.76,-87.85"/>
<polygon fill="#9a32cd" stroke="#9a32cd" points="112.69,-166.79 123.17,-165.24 114.01,-159.91 112.69,-166.79"/>
<text text-anchor="start" x="72.5" y="-132" font-family="Helvetica,sans-Serif" font-size="10.00"> currentRecordIndex</text>
<text text-anchor="middle" x="118" y="-121" font-family="Helvetica,sans-Serif" font-size="10.00">_</text>
<text text-anchor="middle" x="118" y="-110" font-family="Helvetica,sans-Serif" font-size="10.00">maxRecordCount_</text>
</g>
<!-- Node5 -->
<g id="node5" class="node">
<title>Node5</title>
<g id="a_node5"><a xlink:title=" ">
<polygon fill="white" stroke="#bfbfbf" points="285,-68.5 285,-87.5 332,-87.5 332,-68.5 285,-68.5"/>
<text text-anchor="middle" x="308.5" y="-75.5" font-family="Helvetica,sans-Serif" font-size="10.00">uint8_t</text>
</a>
</g>
</g>
<!-- Node5&#45;&gt;Node1 -->
<g id="edge5" class="edge">
<title>Node5&#45;&gt;Node1</title>
<path fill="none" stroke="#9a32cd" stroke-dasharray="5,2" d="M282.42,-63.86C256.35,-50.72 216.99,-30.9 194.63,-19.63"/>
<polygon fill="#9a32cd" stroke="#9a32cd" points="280.87,-67 291.37,-68.37 284.02,-60.75 280.87,-67"/>
<text text-anchor="middle" x="279.5" y="-41" font-family="Helvetica,sans-Serif" font-size="10.00"> prefixBytes_</text>
</g>
</g>
</svg>
