<?xml version="1.0" encoding="UTF-8" standalone="no"?>
<!DOCTYPE svg PUBLIC "-//W3C//DTD SVG 1.1//EN"
 "http://www.w3.org/Graphics/SVG/1.1/DTD/svg11.dtd">
<!-- Generated by graphviz version 2.44.0 (20200408.0750)
 -->
<!-- Title: e57::CheckedFile Pages: 1 -->
<svg width="246pt" height="186pt"
 viewBox="0.00 0.00 245.50 186.00" xmlns="http://www.w3.org/2000/svg" xmlns:xlink="http://www.w3.org/1999/xlink">
<g id="graph0" class="graph" transform="scale(1 1) rotate(0) translate(4 182)">
<title>e57::CheckedFile</title>
<polygon fill="white" stroke="transparent" points="-4,4 -4,-182 241.5,-182 241.5,4 -4,4"/>
<!-- Node1 -->
<g id="node1" class="node">
<title>Node1</title>
<g id="a_node1"><a xlink:title=" ">
<polygon fill="#bfbfbf" stroke="black" points="0,-0.5 0,-19.5 93,-19.5 93,-0.5 0,-0.5"/>
<text text-anchor="middle" x="46.5" y="-7.5" font-family="Helvetica,sans-Serif" font-size="10.00">e57::CheckedFile</text>
</a>
</g>
</g>
<!-- Node2 -->
<g id="node2" class="node">
<title>Node2</title>
<g id="a_node2"><a xlink:title=" ">
<polygon fill="white" stroke="#bfbfbf" points="21,-158.5 21,-177.5 72,-177.5 72,-158.5 21,-158.5"/>
<text text-anchor="middle" x="46.5" y="-165.5" font-family="Helvetica,sans-Serif" font-size="10.00">uint64_t</text>
</a>
</g>
</g>
<!-- Node2&#45;&gt;Node1 -->
<g id="edge1" class="edge">
<title>Node2&#45;&gt;Node1</title>
<path fill="none" stroke="#9a32cd" stroke-dasharray="5,2" d="M43.74,-148.49C41.09,-128.42 37.73,-95.45 39.5,-67 40.55,-50.18 43.35,-30.68 45.07,-19.7"/>
<polygon fill="#9a32cd" stroke="#9a32cd" points="40.28,-149.03 45.14,-158.44 47.21,-148.05 40.28,-149.03"/>
<text text-anchor="middle" x="91" y="-92" font-family="Helvetica,sans-Serif" font-size="10.00"> logicalLength_</text>
<text text-anchor="middle" x="91" y="-81" font-family="Helvetica,sans-Serif" font-size="10.00">physicalLength_</text>
<text text-anchor="middle" x="91" y="-70" font-family="Helvetica,sans-Serif" font-size="10.00">physicalPageSizeMask</text>
</g>
<!-- Node3 -->
<g id="node3" class="node">
<title>Node3</title>
<g id="a_node3"><a xlink:href="classe57_1_1_buffer_view.html" target="_top" xlink:title=" ">
<polygon fill="white" stroke="black" points="151.5,-74 151.5,-93 237.5,-93 237.5,-74 151.5,-74"/>
<text text-anchor="middle" x="194.5" y="-81" font-family="Helvetica,sans-Serif" font-size="10.00">e57::BufferView</text>
</a>
</g>
</g>
<!-- Node2&#45;&gt;Node3 -->
<g id="edge3" class="edge">
<title>Node2&#45;&gt;Node3</title>
<path fill="none" stroke="#9a32cd" stroke-dasharray="5,2" d="M70.55,-153.59C101.2,-136.51 153.28,-107.48 179.08,-93.1"/>
<polygon fill="#9a32cd" stroke="#9a32cd" points="68.81,-150.56 61.78,-158.48 72.22,-156.67 68.81,-150.56"/>
<text text-anchor="middle" x="165.5" y="-132" font-family="Helvetica,sans-Serif" font-size="10.00"> streamSize_</text>
<text text-anchor="middle" x="165.5" y="-121" font-family="Helvetica,sans-Serif" font-size="10.00">cursorStream_</text>
</g>
<!-- Node3&#45;&gt;Node1 -->
<g id="edge2" class="edge">
<title>Node3&#45;&gt;Node1</title>
<path fill="none" stroke="#9a32cd" stroke-dasharray="5,2" d="M167.6,-69.5C137.66,-55.04 90.12,-32.07 64.42,-19.66"/>
<polygon fill="#9a32cd" stroke="#9a32cd" points="166.12,-72.68 176.65,-73.88 169.17,-66.37 166.12,-72.68"/>
<text text-anchor="middle" x="146.5" y="-41" font-family="Helvetica,sans-Serif" font-size="10.00"> bufView_</text>
</g>
</g>
</svg>
