<?xml version="1.0" encoding="UTF-8" standalone="no"?>
<!DOCTYPE svg PUBLIC "-//W3C//DTD SVG 1.1//EN"
 "http://www.w3.org/Graphics/SVG/1.1/DTD/svg11.dtd">
<!-- Generated by graphviz version 2.48.0 (20210717.1556)
 -->
<!-- Title: e57::BitpackDecoder Pages: 1 -->
<svg width="406pt" height="116pt"
 viewBox="0.00 0.00 406.00 116.00" xmlns="http://www.w3.org/2000/svg" xmlns:xlink="http://www.w3.org/1999/xlink">
<g id="graph0" class="graph" transform="scale(1 1) rotate(0) translate(4 112)">
<title>e57::BitpackDecoder</title>
<polygon fill="white" stroke="transparent" points="-4,4 -4,-112 402,-112 402,4 -4,4"/>
<!-- Node1 -->
<g id="node1" class="node">
<title>Node1</title>
<g id="a_node1"><a xlink:title=" ">
<polygon fill="#bfbfbf" stroke="black" points="113,-44.5 113,-63.5 222,-63.5 222,-44.5 113,-44.5"/>
<text text-anchor="middle" x="167.5" y="-51.5" font-family="Helvetica,sans-Serif" font-size="10.00">e57::BitpackDecoder</text>
</a>
</g>
</g>
<!-- Node3 -->
<g id="node3" class="node">
<title>Node3</title>
<g id="a_node3"><a xlink:href="classe57_1_1_bitpack_float_decoder.html" target="_top" xlink:title=" ">
<polygon fill="white" stroke="black" points="262,-88.5 262,-107.5 394,-107.5 394,-88.5 262,-88.5"/>
<text text-anchor="middle" x="328" y="-95.5" font-family="Helvetica,sans-Serif" font-size="10.00">e57::BitpackFloatDecoder</text>
</a>
</g>
</g>
<!-- Node1&#45;&gt;Node3 -->
<g id="edge2" class="edge">
<title>Node1&#45;&gt;Node3</title>
<path fill="none" stroke="midnightblue" d="M212.25,-66.26C226.8,-70.32 243.1,-74.87 258,-79 269.13,-82.09 281.29,-85.44 292.24,-88.46"/>
<polygon fill="midnightblue" stroke="midnightblue" points="213.06,-62.85 202.49,-63.53 211.18,-69.59 213.06,-62.85"/>
</g>
<!-- Node4 -->
<g id="node4" class="node">
<title>Node4</title>
<g id="a_node4"><a xlink:href="classe57_1_1_bitpack_integer_decoder.html" target="_top" xlink:title=" ">
<polygon fill="white" stroke="black" points="258,-39 258,-69 398,-69 398,-39 258,-39"/>
<text text-anchor="start" x="266" y="-57" font-family="Helvetica,sans-Serif" font-size="10.00">e57::BitpackIntegerDecoder</text>
<text text-anchor="middle" x="328" y="-46" font-family="Helvetica,sans-Serif" font-size="10.00">&lt; RegisterT &gt;</text>
</a>
</g>
</g>
<!-- Node1&#45;&gt;Node4 -->
<g id="edge3" class="edge">
<title>Node1&#45;&gt;Node4</title>
<path fill="none" stroke="midnightblue" d="M232.3,-54C240.74,-54 249.42,-54 257.94,-54"/>
<polygon fill="midnightblue" stroke="midnightblue" points="232.16,-50.5 222.16,-54 232.16,-57.5 232.16,-50.5"/>
</g>
<!-- Node5 -->
<g id="node5" class="node">
<title>Node5</title>
<g id="a_node5"><a xlink:href="classe57_1_1_bitpack_string_decoder.html" target="_top" xlink:title=" ">
<polygon fill="white" stroke="black" points="260.5,-0.5 260.5,-19.5 395.5,-19.5 395.5,-0.5 260.5,-0.5"/>
<text text-anchor="middle" x="328" y="-7.5" font-family="Helvetica,sans-Serif" font-size="10.00">e57::BitpackStringDecoder</text>
</a>
</g>
</g>
<!-- Node1&#45;&gt;Node5 -->
<g id="edge4" class="edge">
<title>Node1&#45;&gt;Node5</title>
<path fill="none" stroke="midnightblue" d="M212.25,-41.74C226.8,-37.68 243.1,-33.13 258,-29 269.13,-25.91 281.29,-22.56 292.24,-19.54"/>
<polygon fill="midnightblue" stroke="midnightblue" points="211.18,-38.41 202.49,-44.47 213.06,-45.15 211.18,-38.41"/>
</g>
<!-- Node2 -->
<g id="node2" class="node">
<title>Node2</title>
<g id="a_node2"><a xlink:href="classe57_1_1_decoder.html" target="_top" xlink:title=" ">
<polygon fill="white" stroke="black" points="0,-44.5 0,-63.5 77,-63.5 77,-44.5 0,-44.5"/>
<text text-anchor="middle" x="38.5" y="-51.5" font-family="Helvetica,sans-Serif" font-size="10.00">e57::Decoder</text>
</a>
</g>
</g>
<!-- Node2&#45;&gt;Node1 -->
<g id="edge1" class="edge">
<title>Node2&#45;&gt;Node1</title>
<path fill="none" stroke="midnightblue" d="M87.45,-54C95.68,-54 104.29,-54 112.67,-54"/>
<polygon fill="midnightblue" stroke="midnightblue" points="87.26,-50.5 77.26,-54 87.26,-57.5 87.26,-50.5"/>
</g>
</g>
</svg>
