<?xml version="1.0" encoding="UTF-8" standalone="no"?>
<!DOCTYPE svg PUBLIC "-//W3C//DTD SVG 1.1//EN"
 "http://www.w3.org/Graphics/SVG/1.1/DTD/svg11.dtd">
<!-- Generated by graphviz version 2.48.0 (20210717.1556)
 -->
<!-- Title: e57::BitpackStringEncoder Pages: 1 -->
<svg width="271pt" height="152pt"
 viewBox="0.00 0.00 271.00 152.00" xmlns="http://www.w3.org/2000/svg" xmlns:xlink="http://www.w3.org/1999/xlink">
<g id="graph0" class="graph" transform="scale(1 1) rotate(0) translate(4 148)">
<title>e57::BitpackStringEncoder</title>
<polygon fill="white" stroke="transparent" points="-4,4 -4,-148 267,-148 267,4 -4,4"/>
<!-- Node1 -->
<g id="node1" class="node">
<title>Node1</title>
<g id="a_node1"><a xlink:title=" ">
<polygon fill="#bfbfbf" stroke="black" points="59.5,-0.5 59.5,-19.5 194.5,-19.5 194.5,-0.5 59.5,-0.5"/>
<text text-anchor="middle" x="127" y="-7.5" font-family="Helvetica,sans-Serif" font-size="10.00">e57::BitpackStringEncoder</text>
</a>
</g>
</g>
<!-- Node2 -->
<g id="node2" class="node">
<title>Node2</title>
<g id="a_node2"><a xlink:href="classe57_1_1_bitpack_encoder.html" target="_top" xlink:title=" ">
<polygon fill="white" stroke="black" points="16.5,-57.5 16.5,-76.5 125.5,-76.5 125.5,-57.5 16.5,-57.5"/>
<text text-anchor="middle" x="71" y="-64.5" font-family="Helvetica,sans-Serif" font-size="10.00">e57::BitpackEncoder</text>
</a>
</g>
</g>
<!-- Node2&#45;&gt;Node1 -->
<g id="edge1" class="edge">
<title>Node2&#45;&gt;Node1</title>
<path fill="none" stroke="midnightblue" d="M87.17,-50.12C97.24,-40.22 109.83,-27.86 118.13,-19.71"/>
<polygon fill="midnightblue" stroke="midnightblue" points="84.43,-47.9 79.75,-57.41 89.34,-52.9 84.43,-47.9"/>
</g>
<!-- Node3 -->
<g id="node3" class="node">
<title>Node3</title>
<g id="a_node3"><a xlink:href="classe57_1_1_encoder.html" target="_top" xlink:title=" ">
<polygon fill="white" stroke="black" points="0,-124.5 0,-143.5 76,-143.5 76,-124.5 0,-124.5"/>
<text text-anchor="middle" x="38" y="-131.5" font-family="Helvetica,sans-Serif" font-size="10.00">e57::Encoder</text>
</a>
</g>
</g>
<!-- Node3&#45;&gt;Node2 -->
<g id="edge2" class="edge">
<title>Node3&#45;&gt;Node2</title>
<path fill="none" stroke="midnightblue" d="M43.71,-114.54C45.96,-108.19 48.78,-101.14 52,-95 55.41,-88.5 60.16,-81.75 64.06,-76.63"/>
<polygon fill="midnightblue" stroke="midnightblue" points="40.31,-113.68 40.5,-124.28 46.96,-115.88 40.31,-113.68"/>
</g>
<!-- Node4 -->
<g id="node4" class="node">
<title>Node4</title>
<g id="a_node4"><a xlink:title=" ">
<polygon fill="white" stroke="#bfbfbf" points="125,-124.5 125,-143.5 177,-143.5 177,-124.5 125,-124.5"/>
<text text-anchor="middle" x="151" y="-131.5" font-family="Helvetica,sans-Serif" font-size="10.00">uint64_t</text>
</a>
</g>
</g>
<!-- Node4&#45;&gt;Node1 -->
<g id="edge4" class="edge">
<title>Node4&#45;&gt;Node1</title>
<path fill="none" stroke="#9a32cd" stroke-dasharray="5,2" d="M164.6,-115.74C166.41,-112.65 167.99,-109.34 169,-106 170.42,-101.32 170.12,-99.76 169,-95 162.03,-65.48 143.02,-34.52 133.14,-19.79"/>
<polygon fill="#9a32cd" stroke="#9a32cd" points="161.57,-113.97 158.81,-124.2 167.35,-117.93 161.57,-113.97"/>
<text text-anchor="middle" x="213" y="-64.5" font-family="Helvetica,sans-Serif" font-size="10.00"> totalBytesProcessed_</text>
</g>
<!-- Node4&#45;&gt;Node2 -->
<g id="edge3" class="edge">
<title>Node4&#45;&gt;Node2</title>
<path fill="none" stroke="#9a32cd" stroke-dasharray="5,2" d="M114.76,-129.73C99.01,-126.32 81.93,-119.51 72,-106 65.82,-97.6 66.89,-85.09 68.61,-76.75"/>
<polygon fill="#9a32cd" stroke="#9a32cd" points="114.37,-133.22 124.82,-131.52 115.59,-126.32 114.37,-133.22"/>
<text text-anchor="middle" x="120.5" y="-98" font-family="Helvetica,sans-Serif" font-size="10.00"> currentRecordIndex_</text>
</g>
</g>
</svg>
