<?xml version="1.0" encoding="UTF-8" standalone="no"?>
<!DOCTYPE svg PUBLIC "-//W3C//DTD SVG 1.1//EN"
 "http://www.w3.org/Graphics/SVG/1.1/DTD/svg11.dtd">
<!-- Generated by graphviz version 2.44.0 (20200408.0750)
 -->
<!-- Title: E57FileInputStream Pages: 1 -->
<svg width="414pt" height="275pt"
 viewBox="0.00 0.00 414.00 275.00" xmlns="http://www.w3.org/2000/svg" xmlns:xlink="http://www.w3.org/1999/xlink">
<g id="graph0" class="graph" transform="scale(1 1) rotate(0) translate(4 271)">
<title>E57FileInputStream</title>
<polygon fill="white" stroke="transparent" points="-4,4 -4,-271 410,-271 410,4 -4,4"/>
<!-- Node1 -->
<g id="node1" class="node">
<title>Node1</title>
<g id="a_node1"><a xlink:title=" ">
<polygon fill="#bfbfbf" stroke="black" points="60.5,-0.5 60.5,-19.5 163.5,-19.5 163.5,-0.5 60.5,-0.5"/>
<text text-anchor="middle" x="112" y="-7.5" font-family="Helvetica,sans-Serif" font-size="10.00">E57FileInputStream</text>
</a>
</g>
</g>
<!-- Node2 -->
<g id="node2" class="node">
<title>Node2</title>
<g id="a_node2"><a xlink:title=" ">
<polygon fill="white" stroke="#bfbfbf" points="0,-67.5 0,-86.5 84,-86.5 84,-67.5 0,-67.5"/>
<text text-anchor="middle" x="42" y="-74.5" font-family="Helvetica,sans-Serif" font-size="10.00">BinInputStream</text>
</a>
</g>
</g>
<!-- Node2&#45;&gt;Node1 -->
<g id="edge1" class="edge">
<title>Node2&#45;&gt;Node1</title>
<path fill="none" stroke="midnightblue" d="M58.85,-60.36C72.61,-47.58 91.55,-29.99 102.71,-19.63"/>
<polygon fill="midnightblue" stroke="midnightblue" points="56.39,-57.86 51.44,-67.23 61.15,-62.99 56.39,-57.86"/>
</g>
<!-- Node3 -->
<g id="node3" class="node">
<title>Node3</title>
<g id="a_node3"><a xlink:title=" ">
<polygon fill="white" stroke="#bfbfbf" points="173.5,-247.5 173.5,-266.5 224.5,-266.5 224.5,-247.5 173.5,-247.5"/>
<text text-anchor="middle" x="199" y="-254.5" font-family="Helvetica,sans-Serif" font-size="10.00">uint64_t</text>
</a>
</g>
</g>
<!-- Node3&#45;&gt;Node1 -->
<g id="edge2" class="edge">
<title>Node3&#45;&gt;Node1</title>
<path fill="none" stroke="#9a32cd" stroke-dasharray="5,2" d="M184.56,-239.47C166.6,-217.82 136.64,-177.92 123,-138 108.47,-95.49 110.07,-40.54 111.35,-19.61"/>
<polygon fill="#9a32cd" stroke="#9a32cd" points="182.09,-241.96 191.22,-247.32 187.42,-237.43 182.09,-241.96"/>
<text text-anchor="middle" x="159" y="-130" font-family="Helvetica,sans-Serif" font-size="10.00"> logicalPosition_</text>
<text text-anchor="middle" x="159" y="-119" font-family="Helvetica,sans-Serif" font-size="10.00">logicalLength_</text>
<text text-anchor="middle" x="159" y="-108" font-family="Helvetica,sans-Serif" font-size="10.00">logicalStart_</text>
</g>
<!-- Node4 -->
<g id="node4" class="node">
<title>Node4</title>
<g id="a_node4"><a xlink:href="classe57_1_1_checked_file.html" target="_top" xlink:title=" ">
<polygon fill="white" stroke="black" points="152.5,-67.5 152.5,-86.5 245.5,-86.5 245.5,-67.5 152.5,-67.5"/>
<text text-anchor="middle" x="199" y="-74.5" font-family="Helvetica,sans-Serif" font-size="10.00">e57::CheckedFile</text>
</a>
</g>
</g>
<!-- Node3&#45;&gt;Node4 -->
<g id="edge4" class="edge">
<title>Node3&#45;&gt;Node4</title>
<path fill="none" stroke="#9a32cd" stroke-dasharray="5,2" d="M199,-237.25C199,-199.28 199,-114.57 199,-86.92"/>
<polygon fill="#9a32cd" stroke="#9a32cd" points="195.5,-237.41 199,-247.41 202.5,-237.41 195.5,-237.41"/>
<text text-anchor="middle" x="250.5" y="-181" font-family="Helvetica,sans-Serif" font-size="10.00"> logicalLength_</text>
<text text-anchor="middle" x="250.5" y="-170" font-family="Helvetica,sans-Serif" font-size="10.00">physicalLength_</text>
<text text-anchor="middle" x="250.5" y="-159" font-family="Helvetica,sans-Serif" font-size="10.00">physicalPageSizeMask</text>
</g>
<!-- Node5 -->
<g id="node5" class="node">
<title>Node5</title>
<g id="a_node5"><a xlink:href="classe57_1_1_buffer_view.html" target="_top" xlink:title=" ">
<polygon fill="white" stroke="black" points="320,-163 320,-182 406,-182 406,-163 320,-163"/>
<text text-anchor="middle" x="363" y="-170" font-family="Helvetica,sans-Serif" font-size="10.00">e57::BufferView</text>
</a>
</g>
</g>
<!-- Node3&#45;&gt;Node5 -->
<g id="edge6" class="edge">
<title>Node3&#45;&gt;Node5</title>
<path fill="none" stroke="#9a32cd" stroke-dasharray="5,2" d="M225.21,-242.81C259.11,-225.76 317.21,-196.54 345.91,-182.1"/>
<polygon fill="#9a32cd" stroke="#9a32cd" points="223.29,-239.86 215.93,-247.48 226.44,-246.11 223.29,-239.86"/>
<text text-anchor="middle" x="328" y="-221" font-family="Helvetica,sans-Serif" font-size="10.00"> streamSize_</text>
<text text-anchor="middle" x="328" y="-210" font-family="Helvetica,sans-Serif" font-size="10.00">cursorStream_</text>
</g>
<!-- Node4&#45;&gt;Node1 -->
<g id="edge3" class="edge">
<title>Node4&#45;&gt;Node1</title>
<path fill="none" stroke="#9a32cd" stroke-dasharray="5,2" d="M179.01,-61.07C161.84,-48.24 137.68,-30.19 123.55,-19.63"/>
<polygon fill="#9a32cd" stroke="#9a32cd" points="177.16,-64.05 187.27,-67.23 181.35,-58.44 177.16,-64.05"/>
<text text-anchor="middle" x="169.5" y="-41" font-family="Helvetica,sans-Serif" font-size="10.00"> cf_</text>
</g>
<!-- Node5&#45;&gt;Node4 -->
<g id="edge5" class="edge">
<title>Node5&#45;&gt;Node4</title>
<path fill="none" stroke="#9a32cd" stroke-dasharray="5,2" d="M338.97,-157.8C304.66,-138.24 242.63,-102.87 214.1,-86.61"/>
<polygon fill="#9a32cd" stroke="#9a32cd" points="337.44,-160.96 347.87,-162.87 340.91,-154.88 337.44,-160.96"/>
<text text-anchor="middle" x="323" y="-119" font-family="Helvetica,sans-Serif" font-size="10.00"> bufView_</text>
</g>
</g>
</svg>
