<?xml version="1.0" encoding="UTF-8" standalone="no"?>
<!DOCTYPE svg PUBLIC "-//W3C//DTD SVG 1.1//EN"
 "http://www.w3.org/Graphics/SVG/1.1/DTD/svg11.dtd">
<!-- Generated by graphviz version 2.44.0 (20200408.0750)
 -->
<!-- Title: e57::DataPacket Pages: 1 -->
<svg width="274pt" height="173pt"
 viewBox="0.00 0.00 274.00 173.00" xmlns="http://www.w3.org/2000/svg" xmlns:xlink="http://www.w3.org/1999/xlink">
<g id="graph0" class="graph" transform="scale(1 1) rotate(0) translate(4 169)">
<title>e57::DataPacket</title>
<polygon fill="white" stroke="transparent" points="-4,4 -4,-169 270,-169 270,4 -4,4"/>
<!-- Node1 -->
<g id="node1" class="node">
<title>Node1</title>
<g id="a_node1"><a xlink:title=" ">
<polygon fill="#bfbfbf" stroke="black" points="0,-0.5 0,-19.5 90,-19.5 90,-0.5 0,-0.5"/>
<text text-anchor="middle" x="45" y="-7.5" font-family="Helvetica,sans-Serif" font-size="10.00">e57::DataPacket</text>
</a>
</g>
</g>
<!-- Node2 -->
<g id="node2" class="node">
<title>Node2</title>
<g id="a_node2"><a xlink:title=" ">
<polygon fill="white" stroke="#bfbfbf" points="23,-145.5 23,-164.5 69,-164.5 69,-145.5 23,-145.5"/>
<text text-anchor="middle" x="46" y="-152.5" font-family="Helvetica,sans-Serif" font-size="10.00">uint8_t</text>
</a>
</g>
</g>
<!-- Node2&#45;&gt;Node1 -->
<g id="edge1" class="edge">
<title>Node2&#45;&gt;Node1</title>
<path fill="none" stroke="#9a32cd" stroke-dasharray="5,2" d="M42.61,-135.31C39.82,-117.71 36.53,-90.59 38,-67 39.05,-50.18 41.85,-30.68 43.57,-19.7"/>
<polygon fill="#9a32cd" stroke="#9a32cd" points="39.19,-136.1 44.32,-145.37 46.1,-134.92 39.19,-136.1"/>
<text text-anchor="middle" x="56.5" y="-74.5" font-family="Helvetica,sans-Serif" font-size="10.00"> payload</text>
</g>
<!-- Node3 -->
<g id="node3" class="node">
<title>Node3</title>
<g id="a_node3"><a xlink:href="classe57_1_1_data_packet_header.html" target="_top" xlink:title=" ">
<polygon fill="white" stroke="black" points="84,-67.5 84,-86.5 206,-86.5 206,-67.5 84,-67.5"/>
<text text-anchor="middle" x="145" y="-74.5" font-family="Helvetica,sans-Serif" font-size="10.00">e57::DataPacketHeader</text>
</a>
</g>
</g>
<!-- Node2&#45;&gt;Node3 -->
<g id="edge4" class="edge">
<title>Node2&#45;&gt;Node3</title>
<path fill="none" stroke="#9a32cd" stroke-dasharray="5,2" d="M56.28,-136.74C63.1,-126.45 72.83,-113.74 84,-105 94.12,-97.08 106.94,-90.95 118.2,-86.55"/>
<polygon fill="#9a32cd" stroke="#9a32cd" points="53.24,-134.99 50.88,-145.32 59.17,-138.72 53.24,-134.99"/>
<text text-anchor="middle" x="112.5" y="-119" font-family="Helvetica,sans-Serif" font-size="10.00"> packetFlags</text>
<text text-anchor="middle" x="112.5" y="-108" font-family="Helvetica,sans-Serif" font-size="10.00">packetType</text>
</g>
<!-- Node3&#45;&gt;Node1 -->
<g id="edge2" class="edge">
<title>Node3&#45;&gt;Node1</title>
<path fill="none" stroke="#9a32cd" stroke-dasharray="5,2" d="M123.11,-61.77C103.31,-48.9 74.81,-30.38 58.27,-19.63"/>
<polygon fill="#9a32cd" stroke="#9a32cd" points="121.22,-64.72 131.51,-67.23 125.04,-58.85 121.22,-64.72"/>
<text text-anchor="middle" x="117.5" y="-41" font-family="Helvetica,sans-Serif" font-size="10.00"> header</text>
</g>
<!-- Node4 -->
<g id="node4" class="node">
<title>Node4</title>
<g id="a_node4"><a xlink:title=" ">
<polygon fill="white" stroke="#bfbfbf" points="119.5,-145.5 119.5,-164.5 170.5,-164.5 170.5,-145.5 119.5,-145.5"/>
<text text-anchor="middle" x="145" y="-152.5" font-family="Helvetica,sans-Serif" font-size="10.00">uint16_t</text>
</a>
</g>
</g>
<!-- Node4&#45;&gt;Node3 -->
<g id="edge3" class="edge">
<title>Node4&#45;&gt;Node3</title>
<path fill="none" stroke="#9a32cd" stroke-dasharray="5,2" d="M145,-135.22C145,-119.7 145,-98.36 145,-86.62"/>
<polygon fill="#9a32cd" stroke="#9a32cd" points="141.5,-135.28 145,-145.28 148.5,-135.28 141.5,-135.28"/>
<text text-anchor="middle" x="205.5" y="-119" font-family="Helvetica,sans-Serif" font-size="10.00"> bytestreamCount</text>
<text text-anchor="middle" x="205.5" y="-108" font-family="Helvetica,sans-Serif" font-size="10.00">packetLogicalLengthMinus1</text>
</g>
</g>
</svg>
