<?xml version="1.0" encoding="UTF-8" standalone="no"?>
<!DOCTYPE svg PUBLIC "-//W3C//DTD SVG 1.1//EN"
 "http://www.w3.org/Graphics/SVG/1.1/DTD/svg11.dtd">
<!-- Generated by graphviz version 2.44.0 (20200408.0750)
 -->
<!-- Title: e57::BitpackEncoder Pages: 1 -->
<svg width="398pt" height="116pt"
 viewBox="0.00 0.00 398.00 116.00" xmlns="http://www.w3.org/2000/svg" xmlns:xlink="http://www.w3.org/1999/xlink">
<g id="graph0" class="graph" transform="scale(1 1) rotate(0) translate(4 112)">
<title>e57::BitpackEncoder</title>
<polygon fill="white" stroke="transparent" points="-4,4 -4,-112 394,-112 394,4 -4,4"/>
<!-- Node1 -->
<g id="node1" class="node">
<title>Node1</title>
<g id="a_node1"><a xlink:title=" ">
<polygon fill="#bfbfbf" stroke="black" points="110,-44.5 110,-63.5 217,-63.5 217,-44.5 110,-44.5"/>
<text text-anchor="middle" x="163.5" y="-51.5" font-family="Helvetica,sans-Serif" font-size="10.00">e57::BitpackEncoder</text>
</a>
</g>
</g>
<!-- Node3 -->
<g id="node3" class="node">
<title>Node3</title>
<g id="a_node3"><a xlink:href="classe57_1_1_bitpack_float_encoder.html" target="_top" xlink:title=" ">
<polygon fill="white" stroke="black" points="257,-88.5 257,-107.5 386,-107.5 386,-88.5 257,-88.5"/>
<text text-anchor="middle" x="321.5" y="-95.5" font-family="Helvetica,sans-Serif" font-size="10.00">e57::BitpackFloatEncoder</text>
</a>
</g>
</g>
<!-- Node1&#45;&gt;Node3 -->
<g id="edge2" class="edge">
<title>Node1&#45;&gt;Node3</title>
<path fill="none" stroke="midnightblue" d="M207.77,-66.23C222.16,-70.3 238.27,-74.85 253,-79 263.9,-82.07 275.78,-85.42 286.51,-88.44"/>
<polygon fill="midnightblue" stroke="midnightblue" points="208.69,-62.86 198.12,-63.5 206.79,-69.59 208.69,-62.86"/>
</g>
<!-- Node4 -->
<g id="node4" class="node">
<title>Node4</title>
<g id="a_node4"><a xlink:href="classe57_1_1_bitpack_integer_encoder.html" target="_top" xlink:title=" ">
<polygon fill="white" stroke="black" points="253,-39 253,-69 390,-69 390,-39 253,-39"/>
<text text-anchor="start" x="261" y="-57" font-family="Helvetica,sans-Serif" font-size="10.00">e57::BitpackIntegerEncoder</text>
<text text-anchor="middle" x="321.5" y="-46" font-family="Helvetica,sans-Serif" font-size="10.00">&lt; RegisterT &gt;</text>
</a>
</g>
</g>
<!-- Node1&#45;&gt;Node4 -->
<g id="edge3" class="edge">
<title>Node1&#45;&gt;Node4</title>
<path fill="none" stroke="midnightblue" d="M227.38,-54C235.75,-54 244.36,-54 252.81,-54"/>
<polygon fill="midnightblue" stroke="midnightblue" points="227.31,-50.5 217.31,-54 227.31,-57.5 227.31,-50.5"/>
</g>
<!-- Node5 -->
<g id="node5" class="node">
<title>Node5</title>
<g id="a_node5"><a xlink:href="classe57_1_1_bitpack_string_encoder.html" target="_top" xlink:title=" ">
<polygon fill="white" stroke="black" points="255,-0.5 255,-19.5 388,-19.5 388,-0.5 255,-0.5"/>
<text text-anchor="middle" x="321.5" y="-7.5" font-family="Helvetica,sans-Serif" font-size="10.00">e57::BitpackStringEncoder</text>
</a>
</g>
</g>
<!-- Node1&#45;&gt;Node5 -->
<g id="edge4" class="edge">
<title>Node1&#45;&gt;Node5</title>
<path fill="none" stroke="midnightblue" d="M207.77,-41.77C222.16,-37.7 238.27,-33.15 253,-29 263.9,-25.93 275.78,-22.58 286.51,-19.56"/>
<polygon fill="midnightblue" stroke="midnightblue" points="206.79,-38.41 198.12,-44.5 208.69,-45.14 206.79,-38.41"/>
</g>
<!-- Node2 -->
<g id="node2" class="node">
<title>Node2</title>
<g id="a_node2"><a xlink:href="classe57_1_1_encoder.html" target="_top" xlink:title=" ">
<polygon fill="white" stroke="black" points="0,-44.5 0,-63.5 74,-63.5 74,-44.5 0,-44.5"/>
<text text-anchor="middle" x="37" y="-51.5" font-family="Helvetica,sans-Serif" font-size="10.00">e57::Encoder</text>
</a>
</g>
</g>
<!-- Node2&#45;&gt;Node1 -->
<g id="edge1" class="edge">
<title>Node2&#45;&gt;Node1</title>
<path fill="none" stroke="midnightblue" d="M84.03,-54C92.45,-54 101.3,-54 109.9,-54"/>
<polygon fill="midnightblue" stroke="midnightblue" points="84.01,-50.5 74.01,-54 84.01,-57.5 84.01,-50.5"/>
</g>
</g>
</svg>
