<?xml version="1.0" encoding="UTF-8" standalone="no"?>
<!DOCTYPE svg PUBLIC "-//W3C//DTD SVG 1.1//EN"
 "http://www.w3.org/Graphics/SVG/1.1/DTD/svg11.dtd">
<!-- Generated by graphviz version 2.48.0 (20210717.1556)
 -->
<!-- Title: e57::ReaderImpl Pages: 1 -->
<svg width="321pt" height="106pt"
 viewBox="0.00 0.00 321.00 106.00" xmlns="http://www.w3.org/2000/svg" xmlns:xlink="http://www.w3.org/1999/xlink">
<g id="graph0" class="graph" transform="scale(1 1) rotate(0) translate(4 102)">
<title>e57::ReaderImpl</title>
<polygon fill="white" stroke="transparent" points="-4,4 -4,-102 317,-102 317,4 -4,4"/>
<!-- Node1 -->
<g id="node1" class="node">
<title>Node1</title>
<g id="a_node1"><a xlink:title="most of the functions follows Reader">
<polygon fill="#bfbfbf" stroke="black" points="107.5,-0.5 107.5,-19.5 197.5,-19.5 197.5,-0.5 107.5,-0.5"/>
<text text-anchor="middle" x="152.5" y="-7.5" font-family="Helvetica,sans-Serif" font-size="10.00">e57::ReaderImpl</text>
</a>
</g>
</g>
<!-- Node2 -->
<g id="node2" class="node">
<title>Node2</title>
<g id="a_node2"><a xlink:href="classe57_1_1_image_file.html" target="_top" xlink:title=" ">
<polygon fill="white" stroke="black" points="0,-78.5 0,-97.5 83,-97.5 83,-78.5 0,-78.5"/>
<text text-anchor="middle" x="41.5" y="-85.5" font-family="Helvetica,sans-Serif" font-size="10.00">e57::ImageFile</text>
</a>
</g>
</g>
<!-- Node2&#45;&gt;Node1 -->
<g id="edge1" class="edge">
<title>Node2&#45;&gt;Node1</title>
<path fill="none" stroke="#9a32cd" stroke-dasharray="5,2" d="M62.58,-72.57C85.42,-56.93 121.1,-32.5 139.92,-19.62"/>
<polygon fill="#9a32cd" stroke="#9a32cd" points="60.51,-69.74 54.23,-78.28 64.46,-75.52 60.51,-69.74"/>
<text text-anchor="middle" x="121.5" y="-46.5" font-family="Helvetica,sans-Serif" font-size="10.00"> imf_</text>
</g>
<!-- Node3 -->
<g id="node3" class="node">
<title>Node3</title>
<g id="a_node3"><a xlink:href="classe57_1_1_structure_node.html" target="_top" xlink:title=" ">
<polygon fill="white" stroke="black" points="101,-78.5 101,-97.5 204,-97.5 204,-78.5 101,-78.5"/>
<text text-anchor="middle" x="152.5" y="-85.5" font-family="Helvetica,sans-Serif" font-size="10.00">e57::StructureNode</text>
</a>
</g>
</g>
<!-- Node3&#45;&gt;Node1 -->
<g id="edge2" class="edge">
<title>Node3&#45;&gt;Node1</title>
<path fill="none" stroke="#9a32cd" stroke-dasharray="5,2" d="M152.5,-68.22C152.5,-52.7 152.5,-31.36 152.5,-19.62"/>
<polygon fill="#9a32cd" stroke="#9a32cd" points="149,-68.28 152.5,-78.28 156,-68.28 149,-68.28"/>
<text text-anchor="middle" x="165.5" y="-46.5" font-family="Helvetica,sans-Serif" font-size="10.00"> root_</text>
</g>
<!-- Node4 -->
<g id="node4" class="node">
<title>Node4</title>
<g id="a_node4"><a xlink:href="classe57_1_1_vector_node.html" target="_top" xlink:title=" ">
<polygon fill="white" stroke="black" points="222,-78.5 222,-97.5 313,-97.5 313,-78.5 222,-78.5"/>
<text text-anchor="middle" x="267.5" y="-85.5" font-family="Helvetica,sans-Serif" font-size="10.00">e57::VectorNode</text>
</a>
</g>
</g>
<!-- Node4&#45;&gt;Node1 -->
<g id="edge3" class="edge">
<title>Node4&#45;&gt;Node1</title>
<path fill="none" stroke="#9a32cd" stroke-dasharray="5,2" d="M245.66,-72.57C222,-56.93 185.03,-32.5 165.54,-19.62"/>
<polygon fill="#9a32cd" stroke="#9a32cd" points="244.04,-75.69 254.31,-78.28 247.89,-69.85 244.04,-75.69"/>
<text text-anchor="middle" x="249" y="-52" font-family="Helvetica,sans-Serif" font-size="10.00"> data3D_</text>
<text text-anchor="middle" x="249" y="-41" font-family="Helvetica,sans-Serif" font-size="10.00">images2D_</text>
</g>
</g>
</svg>
