<?xml version="1.0" encoding="UTF-8" standalone="no"?>
<!DOCTYPE svg PUBLIC "-//W3C//DTD SVG 1.1//EN"
 "http://www.w3.org/Graphics/SVG/1.1/DTD/svg11.dtd">
<!-- Generated by graphviz version 2.44.0 (20200408.0750)
 -->
<!-- Title: e57::ConstantIntegerEncoder Pages: 1 -->
<svg width="279pt" height="95pt"
 viewBox="0.00 0.00 279.00 95.00" xmlns="http://www.w3.org/2000/svg" xmlns:xlink="http://www.w3.org/1999/xlink">
<g id="graph0" class="graph" transform="scale(1 1) rotate(0) translate(4 91)">
<title>e57::ConstantIntegerEncoder</title>
<polygon fill="white" stroke="transparent" points="-4,4 -4,-91 275,-91 275,4 -4,4"/>
<!-- Node1 -->
<g id="node1" class="node">
<title>Node1</title>
<g id="a_node1"><a xlink:title=" ">
<polygon fill="#bfbfbf" stroke="black" points="46,-0.5 46,-19.5 190,-19.5 190,-0.5 46,-0.5"/>
<text text-anchor="middle" x="118" y="-7.5" font-family="Helvetica,sans-Serif" font-size="10.00">e57::ConstantIntegerEncoder</text>
</a>
</g>
</g>
<!-- Node2 -->
<g id="node2" class="node">
<title>Node2</title>
<g id="a_node2"><a xlink:href="classe57_1_1_encoder.html" target="_top" xlink:title=" ">
<polygon fill="white" stroke="black" points="0,-67.5 0,-86.5 74,-86.5 74,-67.5 0,-67.5"/>
<text text-anchor="middle" x="37" y="-74.5" font-family="Helvetica,sans-Serif" font-size="10.00">e57::Encoder</text>
</a>
</g>
</g>
<!-- Node2&#45;&gt;Node1 -->
<g id="edge1" class="edge">
<title>Node2&#45;&gt;Node1</title>
<path fill="none" stroke="midnightblue" d="M56.05,-60.71C72.01,-47.91 94.21,-30.09 107.25,-19.63"/>
<polygon fill="midnightblue" stroke="midnightblue" points="53.53,-58.25 47.92,-67.23 57.91,-63.7 53.53,-58.25"/>
</g>
<!-- Node3 -->
<g id="node3" class="node">
<title>Node3</title>
<g id="a_node3"><a xlink:title=" ">
<polygon fill="white" stroke="#bfbfbf" points="92.5,-67.5 92.5,-86.5 143.5,-86.5 143.5,-67.5 92.5,-67.5"/>
<text text-anchor="middle" x="118" y="-74.5" font-family="Helvetica,sans-Serif" font-size="10.00">uint64_t</text>
</a>
</g>
</g>
<!-- Node3&#45;&gt;Node1 -->
<g id="edge2" class="edge">
<title>Node3&#45;&gt;Node1</title>
<path fill="none" stroke="#9a32cd" stroke-dasharray="5,2" d="M118,-57.04C118,-44.67 118,-29.12 118,-19.63"/>
<polygon fill="#9a32cd" stroke="#9a32cd" points="114.5,-57.23 118,-67.23 121.5,-57.23 114.5,-57.23"/>
<text text-anchor="middle" x="165" y="-41" font-family="Helvetica,sans-Serif" font-size="10.00"> currentRecordIndex_</text>
</g>
<!-- Node4 -->
<g id="node4" class="node">
<title>Node4</title>
<g id="a_node4"><a xlink:title=" ">
<polygon fill="white" stroke="#bfbfbf" points="212,-67.5 212,-86.5 258,-86.5 258,-67.5 212,-67.5"/>
<text text-anchor="middle" x="235" y="-74.5" font-family="Helvetica,sans-Serif" font-size="10.00">int64_t</text>
</a>
</g>
</g>
<!-- Node4&#45;&gt;Node1 -->
<g id="edge3" class="edge">
<title>Node4&#45;&gt;Node1</title>
<path fill="none" stroke="#9a32cd" stroke-dasharray="5,2" d="M228.04,-57.82C224.5,-50.73 219.55,-43.1 213,-38 202.04,-29.47 188.51,-23.63 175.12,-19.64"/>
<polygon fill="#9a32cd" stroke="#9a32cd" points="225.03,-59.68 232.22,-67.46 231.45,-56.89 225.03,-59.68"/>
<text text-anchor="middle" x="246.5" y="-41" font-family="Helvetica,sans-Serif" font-size="10.00"> minimum_</text>
</g>
</g>
</svg>
