<?xml version="1.0" encoding="UTF-8" standalone="no"?>
<!DOCTYPE svg PUBLIC "-//W3C//DTD SVG 1.1//EN"
 "http://www.w3.org/Graphics/SVG/1.1/DTD/svg11.dtd">
<!-- Generated by graphviz version 2.44.0 (20200408.0750)
 -->
<!-- Title: e57::NodeImpl Pages: 1 -->
<svg width="591pt" height="256pt"
 viewBox="0.00 0.00 591.00 256.00" xmlns="http://www.w3.org/2000/svg" xmlns:xlink="http://www.w3.org/1999/xlink">
<g id="graph0" class="graph" transform="scale(1 1) rotate(0) translate(4 252)">
<title>e57::NodeImpl</title>
<polygon fill="white" stroke="transparent" points="-4,4 -4,-252 587,-252 587,4 -4,4"/>
<!-- Node1 -->
<g id="node1" class="node">
<title>Node1</title>
<g id="a_node1"><a xlink:title=" ">
<polygon fill="#bfbfbf" stroke="black" points="158,-114.5 158,-133.5 238,-133.5 238,-114.5 158,-114.5"/>
<text text-anchor="middle" x="198" y="-121.5" font-family="Helvetica,sans-Serif" font-size="10.00">e57::NodeImpl</text>
</a>
</g>
</g>
<!-- Node3 -->
<g id="node3" class="node">
<title>Node3</title>
<g id="a_node3"><a xlink:href="classe57_1_1_blob_node_impl.html" target="_top" xlink:title=" ">
<polygon fill="white" stroke="black" points="306,-228.5 306,-247.5 406,-247.5 406,-228.5 306,-228.5"/>
<text text-anchor="middle" x="356" y="-235.5" font-family="Helvetica,sans-Serif" font-size="10.00">e57::BlobNodeImpl</text>
</a>
</g>
</g>
<!-- Node1&#45;&gt;Node3 -->
<g id="edge2" class="edge">
<title>Node1&#45;&gt;Node3</title>
<path fill="none" stroke="midnightblue" d="M208.51,-142.48C220.68,-164.24 243.86,-199.83 274,-219 283.51,-225.05 294.74,-229.17 305.76,-231.99"/>
<polygon fill="midnightblue" stroke="midnightblue" points="211.53,-140.71 203.7,-133.57 205.37,-144.03 211.53,-140.71"/>
</g>
<!-- Node4 -->
<g id="node4" class="node">
<title>Node4</title>
<g id="a_node4"><a xlink:href="classe57_1_1_compressed_vector_node_impl.html" target="_top" xlink:title=" ">
<polygon fill="white" stroke="black" points="274,-190.5 274,-209.5 438,-209.5 438,-190.5 274,-190.5"/>
<text text-anchor="middle" x="356" y="-197.5" font-family="Helvetica,sans-Serif" font-size="10.00">e57::CompressedVectorNodeImpl</text>
</a>
</g>
</g>
<!-- Node1&#45;&gt;Node4 -->
<g id="edge3" class="edge">
<title>Node1&#45;&gt;Node4</title>
<path fill="none" stroke="midnightblue" d="M216.35,-140.6C230.71,-153.45 252.23,-170.75 274,-181 282.23,-184.88 291.32,-188 300.34,-190.5"/>
<polygon fill="midnightblue" stroke="midnightblue" points="218.5,-137.82 208.77,-133.63 213.76,-142.97 218.5,-137.82"/>
</g>
<!-- Node5 -->
<g id="node5" class="node">
<title>Node5</title>
<g id="a_node5"><a xlink:href="classe57_1_1_float_node_impl.html" target="_top" xlink:title=" ">
<polygon fill="white" stroke="black" points="305,-152.5 305,-171.5 407,-171.5 407,-152.5 305,-152.5"/>
<text text-anchor="middle" x="356" y="-159.5" font-family="Helvetica,sans-Serif" font-size="10.00">e57::FloatNodeImpl</text>
</a>
</g>
</g>
<!-- Node1&#45;&gt;Node5 -->
<g id="edge4" class="edge">
<title>Node1&#45;&gt;Node5</title>
<path fill="none" stroke="midnightblue" d="M245.87,-136.01C255.18,-138.36 264.9,-140.78 274,-143 286.91,-146.15 301,-149.49 313.76,-152.48"/>
<polygon fill="midnightblue" stroke="midnightblue" points="246.52,-132.56 235.97,-133.5 244.81,-139.35 246.52,-132.56"/>
</g>
<!-- Node6 -->
<g id="node6" class="node">
<title>Node6</title>
<g id="a_node6"><a xlink:href="classe57_1_1_integer_node_impl.html" target="_top" xlink:title=" ">
<polygon fill="white" stroke="black" points="301,-114.5 301,-133.5 411,-133.5 411,-114.5 301,-114.5"/>
<text text-anchor="middle" x="356" y="-121.5" font-family="Helvetica,sans-Serif" font-size="10.00">e57::IntegerNodeImpl</text>
</a>
</g>
</g>
<!-- Node1&#45;&gt;Node6 -->
<g id="edge5" class="edge">
<title>Node1&#45;&gt;Node6</title>
<path fill="none" stroke="midnightblue" d="M248.47,-124C265.16,-124 283.88,-124 300.92,-124"/>
<polygon fill="midnightblue" stroke="midnightblue" points="248.37,-120.5 238.37,-124 248.37,-127.5 248.37,-120.5"/>
</g>
<!-- Node7 -->
<g id="node7" class="node">
<title>Node7</title>
<g id="a_node7"><a xlink:href="classe57_1_1_scaled_integer_node_impl.html" target="_top" xlink:title=" ">
<polygon fill="white" stroke="black" points="286,-76.5 286,-95.5 426,-95.5 426,-76.5 286,-76.5"/>
<text text-anchor="middle" x="356" y="-83.5" font-family="Helvetica,sans-Serif" font-size="10.00">e57::ScaledIntegerNodeImpl</text>
</a>
</g>
</g>
<!-- Node1&#45;&gt;Node7 -->
<g id="edge6" class="edge">
<title>Node1&#45;&gt;Node7</title>
<path fill="none" stroke="midnightblue" d="M245.87,-111.99C255.18,-109.64 264.9,-107.22 274,-105 286.91,-101.85 301,-98.51 313.76,-95.52"/>
<polygon fill="midnightblue" stroke="midnightblue" points="244.81,-108.65 235.97,-114.5 246.52,-115.44 244.81,-108.65"/>
</g>
<!-- Node8 -->
<g id="node8" class="node">
<title>Node8</title>
<g id="a_node8"><a xlink:href="classe57_1_1_string_node_impl.html" target="_top" xlink:title=" ">
<polygon fill="white" stroke="black" points="303,-38.5 303,-57.5 409,-57.5 409,-38.5 303,-38.5"/>
<text text-anchor="middle" x="356" y="-45.5" font-family="Helvetica,sans-Serif" font-size="10.00">e57::StringNodeImpl</text>
</a>
</g>
</g>
<!-- Node1&#45;&gt;Node8 -->
<g id="edge7" class="edge">
<title>Node1&#45;&gt;Node8</title>
<path fill="none" stroke="midnightblue" d="M216.35,-107.4C230.71,-94.55 252.23,-77.25 274,-67 283.02,-62.75 293.06,-59.42 302.91,-56.81"/>
<polygon fill="midnightblue" stroke="midnightblue" points="213.76,-105.03 208.77,-114.37 218.5,-110.18 213.76,-105.03"/>
</g>
<!-- Node9 -->
<g id="node9" class="node">
<title>Node9</title>
<g id="a_node9"><a xlink:href="classe57_1_1_structure_node_impl.html" target="_top" xlink:title=" ">
<polygon fill="white" stroke="black" points="296,-0.5 296,-19.5 416,-19.5 416,-0.5 296,-0.5"/>
<text text-anchor="middle" x="356" y="-7.5" font-family="Helvetica,sans-Serif" font-size="10.00">e57::StructureNodeImpl</text>
</a>
</g>
</g>
<!-- Node1&#45;&gt;Node9 -->
<g id="edge8" class="edge">
<title>Node1&#45;&gt;Node9</title>
<path fill="none" stroke="midnightblue" d="M208.51,-105.52C220.68,-83.76 243.86,-48.17 274,-29 280.58,-24.81 287.99,-21.55 295.59,-19"/>
<polygon fill="midnightblue" stroke="midnightblue" points="205.37,-103.97 203.7,-114.43 211.53,-107.29 205.37,-103.97"/>
</g>
<!-- Node2 -->
<g id="node2" class="node">
<title>Node2</title>
<g id="a_node2"><a xlink:title=" ">
<polygon fill="white" stroke="#bfbfbf" points="0,-109 0,-139 122,-139 122,-109 0,-109"/>
<text text-anchor="start" x="8" y="-127" font-family="Helvetica,sans-Serif" font-size="10.00">std::enable_shared</text>
<text text-anchor="middle" x="61" y="-116" font-family="Helvetica,sans-Serif" font-size="10.00">_from_this&lt; NodeImpl &gt;</text>
</a>
</g>
</g>
<!-- Node2&#45;&gt;Node1 -->
<g id="edge1" class="edge">
<title>Node2&#45;&gt;Node1</title>
<path fill="none" stroke="midnightblue" d="M132.62,-124C141.33,-124 149.98,-124 157.97,-124"/>
<polygon fill="midnightblue" stroke="midnightblue" points="132.39,-120.5 122.39,-124 132.39,-127.5 132.39,-120.5"/>
</g>
<!-- Node10 -->
<g id="node10" class="node">
<title>Node10</title>
<g id="a_node10"><a xlink:href="classe57_1_1_vector_node_impl.html" target="_top" xlink:title=" ">
<polygon fill="white" stroke="black" points="474,-0.5 474,-19.5 583,-19.5 583,-0.5 474,-0.5"/>
<text text-anchor="middle" x="528.5" y="-7.5" font-family="Helvetica,sans-Serif" font-size="10.00">e57::VectorNodeImpl</text>
</a>
</g>
</g>
<!-- Node9&#45;&gt;Node10 -->
<g id="edge9" class="edge">
<title>Node9&#45;&gt;Node10</title>
<path fill="none" stroke="midnightblue" d="M426.42,-10C442.25,-10 458.83,-10 473.87,-10"/>
<polygon fill="midnightblue" stroke="midnightblue" points="426.15,-6.5 416.15,-10 426.15,-13.5 426.15,-6.5"/>
</g>
</g>
</svg>
