<?xml version="1.0" encoding="UTF-8" standalone="no"?>
<!DOCTYPE svg PUBLIC "-//W3C//DTD SVG 1.1//EN"
 "http://www.w3.org/Graphics/SVG/1.1/DTD/svg11.dtd">
<!-- Generated by graphviz version 2.44.0 (20200408.0750)
 -->
<!-- Title: e57::ImageFileImpl Pages: 1 -->
<svg width="485pt" height="297pt"
 viewBox="0.00 0.00 485.00 297.00" xmlns="http://www.w3.org/2000/svg" xmlns:xlink="http://www.w3.org/1999/xlink">
<g id="graph0" class="graph" transform="scale(1 1) rotate(0) translate(4 293)">
<title>e57::ImageFileImpl</title>
<polygon fill="white" stroke="transparent" points="-4,4 -4,-293 481,-293 481,4 -4,4"/>
<!-- Node1 -->
<g id="node1" class="node">
<title>Node1</title>
<g id="a_node1"><a xlink:title=" ">
<polygon fill="#bfbfbf" stroke="black" points="120,-0.5 120,-19.5 220,-19.5 220,-0.5 120,-0.5"/>
<text text-anchor="middle" x="170" y="-7.5" font-family="Helvetica,sans-Serif" font-size="10.00">e57::ImageFileImpl</text>
</a>
</g>
</g>
<!-- Node2 -->
<g id="node2" class="node">
<title>Node2</title>
<g id="a_node2"><a xlink:title=" ">
<polygon fill="white" stroke="#bfbfbf" points="0,-67.5 0,-97.5 142,-97.5 142,-67.5 0,-67.5"/>
<text text-anchor="start" x="8" y="-85.5" font-family="Helvetica,sans-Serif" font-size="10.00">std::enable_shared</text>
<text text-anchor="middle" x="71" y="-74.5" font-family="Helvetica,sans-Serif" font-size="10.00">_from_this&lt; ImageFileImpl &gt;</text>
</a>
</g>
</g>
<!-- Node2&#45;&gt;Node1 -->
<g id="edge1" class="edge">
<title>Node2&#45;&gt;Node1</title>
<path fill="none" stroke="midnightblue" d="M99.22,-61.4C118.57,-47.62 143.28,-30.03 157.8,-19.69"/>
<polygon fill="midnightblue" stroke="midnightblue" points="97.15,-58.58 91.03,-67.23 101.21,-64.28 97.15,-58.58"/>
</g>
<!-- Node3 -->
<g id="node3" class="node">
<title>Node3</title>
<g id="a_node3"><a xlink:title=" ">
<polygon fill="white" stroke="#bfbfbf" points="244.5,-269.5 244.5,-288.5 295.5,-288.5 295.5,-269.5 244.5,-269.5"/>
<text text-anchor="middle" x="270" y="-276.5" font-family="Helvetica,sans-Serif" font-size="10.00">uint64_t</text>
</a>
</g>
</g>
<!-- Node3&#45;&gt;Node1 -->
<g id="edge2" class="edge">
<title>Node3&#45;&gt;Node1</title>
<path fill="none" stroke="#9a32cd" stroke-dasharray="5,2" d="M253.22,-262.22C232.11,-241.19 196.71,-201.74 181,-160 162.09,-109.75 166.57,-43.34 168.98,-19.76"/>
<polygon fill="#9a32cd" stroke="#9a32cd" points="250.94,-264.88 260.54,-269.35 255.82,-259.87 250.94,-264.88"/>
<text text-anchor="middle" x="223.5" y="-152" font-family="Helvetica,sans-Serif" font-size="10.00"> xmlLogicalLength_</text>
<text text-anchor="start" x="181" y="-141" font-family="Helvetica,sans-Serif" font-size="10.00">unusedLogicalStart</text>
<text text-anchor="middle" x="223.5" y="-130" font-family="Helvetica,sans-Serif" font-size="10.00">_</text>
<text text-anchor="middle" x="223.5" y="-119" font-family="Helvetica,sans-Serif" font-size="10.00">xmlLogicalOffset_</text>
</g>
<!-- Node4 -->
<g id="node4" class="node">
<title>Node4</title>
<g id="a_node4"><a xlink:href="classe57_1_1_checked_file.html" target="_top" xlink:title=" ">
<polygon fill="white" stroke="black" points="223.5,-73 223.5,-92 316.5,-92 316.5,-73 223.5,-73"/>
<text text-anchor="middle" x="270" y="-80" font-family="Helvetica,sans-Serif" font-size="10.00">e57::CheckedFile</text>
</a>
</g>
</g>
<!-- Node3&#45;&gt;Node4 -->
<g id="edge4" class="edge">
<title>Node3&#45;&gt;Node4</title>
<path fill="none" stroke="#9a32cd" stroke-dasharray="5,2" d="M270,-259.14C270,-217.93 270,-121.23 270,-92.01"/>
<polygon fill="#9a32cd" stroke="#9a32cd" points="266.5,-259.39 270,-269.39 273.5,-259.39 266.5,-259.39"/>
<text text-anchor="middle" x="321.5" y="-203" font-family="Helvetica,sans-Serif" font-size="10.00"> logicalLength_</text>
<text text-anchor="middle" x="321.5" y="-192" font-family="Helvetica,sans-Serif" font-size="10.00">physicalLength_</text>
<text text-anchor="middle" x="321.5" y="-181" font-family="Helvetica,sans-Serif" font-size="10.00">physicalPageSizeMask</text>
</g>
<!-- Node5 -->
<g id="node5" class="node">
<title>Node5</title>
<g id="a_node5"><a xlink:href="classe57_1_1_buffer_view.html" target="_top" xlink:title=" ">
<polygon fill="white" stroke="black" points="391,-185 391,-204 477,-204 477,-185 391,-185"/>
<text text-anchor="middle" x="434" y="-192" font-family="Helvetica,sans-Serif" font-size="10.00">e57::BufferView</text>
</a>
</g>
</g>
<!-- Node3&#45;&gt;Node5 -->
<g id="edge6" class="edge">
<title>Node3&#45;&gt;Node5</title>
<path fill="none" stroke="#9a32cd" stroke-dasharray="5,2" d="M296.21,-264.81C330.11,-247.76 388.21,-218.54 416.91,-204.1"/>
<polygon fill="#9a32cd" stroke="#9a32cd" points="294.29,-261.86 286.93,-269.48 297.44,-268.11 294.29,-261.86"/>
<text text-anchor="middle" x="399" y="-243" font-family="Helvetica,sans-Serif" font-size="10.00"> streamSize_</text>
<text text-anchor="middle" x="399" y="-232" font-family="Helvetica,sans-Serif" font-size="10.00">cursorStream_</text>
</g>
<!-- Node4&#45;&gt;Node1 -->
<g id="edge3" class="edge">
<title>Node4&#45;&gt;Node1</title>
<path fill="none" stroke="#9a32cd" stroke-dasharray="5,2" d="M249.51,-67.05C229.32,-52.82 199.13,-31.54 182.36,-19.72"/>
<polygon fill="#9a32cd" stroke="#9a32cd" points="247.55,-69.95 257.74,-72.86 251.58,-64.23 247.55,-69.95"/>
<text text-anchor="middle" x="234" y="-41" font-family="Helvetica,sans-Serif" font-size="10.00"> file_</text>
</g>
<!-- Node5&#45;&gt;Node4 -->
<g id="edge5" class="edge">
<title>Node5&#45;&gt;Node4</title>
<path fill="none" stroke="#9a32cd" stroke-dasharray="5,2" d="M412.7,-179.21C378.14,-156.03 310.9,-110.93 282.81,-92.09"/>
<polygon fill="#9a32cd" stroke="#9a32cd" points="410.88,-182.2 421.13,-184.87 414.78,-176.39 410.88,-182.2"/>
<text text-anchor="middle" x="403" y="-135.5" font-family="Helvetica,sans-Serif" font-size="10.00"> bufView_</text>
</g>
</g>
</svg>
