<?xml version="1.0" encoding="UTF-8" standalone="no"?>
<!DOCTYPE svg PUBLIC "-//W3C//DTD SVG 1.1//EN"
 "http://www.w3.org/Graphics/SVG/1.1/DTD/svg11.dtd">
<!-- Generated by graphviz version 2.44.0 (20200408.0750)
 -->
<!-- Title: e57::BitpackDecoder Pages: 1 -->
<svg width="401pt" height="116pt"
 viewBox="0.00 0.00 401.00 116.00" xmlns="http://www.w3.org/2000/svg" xmlns:xlink="http://www.w3.org/1999/xlink">
<g id="graph0" class="graph" transform="scale(1 1) rotate(0) translate(4 112)">
<title>e57::BitpackDecoder</title>
<polygon fill="white" stroke="transparent" points="-4,4 -4,-112 397,-112 397,4 -4,4"/>
<!-- Node1 -->
<g id="node1" class="node">
<title>Node1</title>
<g id="a_node1"><a xlink:title=" ">
<polygon fill="#bfbfbf" stroke="black" points="111,-44.5 111,-63.5 219,-63.5 219,-44.5 111,-44.5"/>
<text text-anchor="middle" x="165" y="-51.5" font-family="Helvetica,sans-Serif" font-size="10.00">e57::BitpackDecoder</text>
</a>
</g>
</g>
<!-- Node3 -->
<g id="node3" class="node">
<title>Node3</title>
<g id="a_node3"><a xlink:href="classe57_1_1_bitpack_float_decoder.html" target="_top" xlink:title=" ">
<polygon fill="white" stroke="black" points="259,-88.5 259,-107.5 389,-107.5 389,-88.5 259,-88.5"/>
<text text-anchor="middle" x="324" y="-95.5" font-family="Helvetica,sans-Serif" font-size="10.00">e57::BitpackFloatDecoder</text>
</a>
</g>
</g>
<!-- Node1&#45;&gt;Node3 -->
<g id="edge2" class="edge">
<title>Node1&#45;&gt;Node3</title>
<path fill="none" stroke="midnightblue" d="M209.51,-66.23C223.98,-70.3 240.18,-74.85 255,-79 265.98,-82.08 277.95,-85.42 288.75,-88.44"/>
<polygon fill="midnightblue" stroke="midnightblue" points="210.38,-62.84 199.81,-63.51 208.49,-69.58 210.38,-62.84"/>
</g>
<!-- Node4 -->
<g id="node4" class="node">
<title>Node4</title>
<g id="a_node4"><a xlink:href="classe57_1_1_bitpack_integer_decoder.html" target="_top" xlink:title=" ">
<polygon fill="white" stroke="black" points="255,-39 255,-69 393,-69 393,-39 255,-39"/>
<text text-anchor="start" x="263" y="-57" font-family="Helvetica,sans-Serif" font-size="10.00">e57::BitpackIntegerDecoder</text>
<text text-anchor="middle" x="324" y="-46" font-family="Helvetica,sans-Serif" font-size="10.00">&lt; RegisterT &gt;</text>
</a>
</g>
</g>
<!-- Node1&#45;&gt;Node4 -->
<g id="edge3" class="edge">
<title>Node1&#45;&gt;Node4</title>
<path fill="none" stroke="midnightblue" d="M229.28,-54C237.7,-54 246.37,-54 254.87,-54"/>
<polygon fill="midnightblue" stroke="midnightblue" points="229.15,-50.5 219.15,-54 229.15,-57.5 229.15,-50.5"/>
</g>
<!-- Node5 -->
<g id="node5" class="node">
<title>Node5</title>
<g id="a_node5"><a xlink:href="classe57_1_1_bitpack_string_decoder.html" target="_top" xlink:title=" ">
<polygon fill="white" stroke="black" points="257,-0.5 257,-19.5 391,-19.5 391,-0.5 257,-0.5"/>
<text text-anchor="middle" x="324" y="-7.5" font-family="Helvetica,sans-Serif" font-size="10.00">e57::BitpackStringDecoder</text>
</a>
</g>
</g>
<!-- Node1&#45;&gt;Node5 -->
<g id="edge4" class="edge">
<title>Node1&#45;&gt;Node5</title>
<path fill="none" stroke="midnightblue" d="M209.51,-41.77C223.98,-37.7 240.18,-33.15 255,-29 265.98,-25.92 277.95,-22.58 288.75,-19.56"/>
<polygon fill="midnightblue" stroke="midnightblue" points="208.49,-38.42 199.81,-44.49 210.38,-45.16 208.49,-38.42"/>
</g>
<!-- Node2 -->
<g id="node2" class="node">
<title>Node2</title>
<g id="a_node2"><a xlink:href="classe57_1_1_decoder.html" target="_top" xlink:title=" ">
<polygon fill="white" stroke="black" points="0,-44.5 0,-63.5 75,-63.5 75,-44.5 0,-44.5"/>
<text text-anchor="middle" x="37.5" y="-51.5" font-family="Helvetica,sans-Serif" font-size="10.00">e57::Decoder</text>
</a>
</g>
</g>
<!-- Node2&#45;&gt;Node1 -->
<g id="edge1" class="edge">
<title>Node2&#45;&gt;Node1</title>
<path fill="none" stroke="midnightblue" d="M85.37,-54C93.65,-54 102.32,-54 110.76,-54"/>
<polygon fill="midnightblue" stroke="midnightblue" points="85.14,-50.5 75.14,-54 85.14,-57.5 85.14,-50.5"/>
</g>
</g>
</svg>
