<?xml version="1.0" encoding="UTF-8" standalone="no"?>
<!DOCTYPE svg PUBLIC "-//W3C//DTD SVG 1.1//EN"
 "http://www.w3.org/Graphics/SVG/1.1/DTD/svg11.dtd">
<!-- Generated by graphviz version 2.44.0 (20200408.0750)
 -->
<!-- Title: e57::CompressedVectorReaderImpl Pages: 1 -->
<svg width="332pt" height="333pt"
 viewBox="0.00 0.00 331.50 333.00" xmlns="http://www.w3.org/2000/svg" xmlns:xlink="http://www.w3.org/1999/xlink">
<g id="graph0" class="graph" transform="scale(1 1) rotate(0) translate(4 329)">
<title>e57::CompressedVectorReaderImpl</title>
<polygon fill="white" stroke="transparent" points="-4,4 -4,-329 327.5,-329 327.5,4 -4,4"/>
<!-- Node1 -->
<g id="node1" class="node">
<title>Node1</title>
<g id="a_node1"><a xlink:title=" ">
<polygon fill="#bfbfbf" stroke="black" points="0,-0.5 0,-19.5 173,-19.5 173,-0.5 0,-0.5"/>
<text text-anchor="middle" x="86.5" y="-7.5" font-family="Helvetica,sans-Serif" font-size="10.00">e57::CompressedVectorReaderImpl</text>
</a>
</g>
</g>
<!-- Node2 -->
<g id="node2" class="node">
<title>Node2</title>
<g id="a_node2"><a xlink:title=" ">
<polygon fill="white" stroke="#bfbfbf" points="91,-305.5 91,-324.5 142,-324.5 142,-305.5 91,-305.5"/>
<text text-anchor="middle" x="116.5" y="-312.5" font-family="Helvetica,sans-Serif" font-size="10.00">uint64_t</text>
</a>
</g>
</g>
<!-- Node2&#45;&gt;Node1 -->
<g id="edge1" class="edge">
<title>Node2&#45;&gt;Node1</title>
<path fill="none" stroke="#9a32cd" stroke-dasharray="5,2" d="M100.73,-297.55C87.42,-281.88 70.5,-256.96 70.5,-231.5 70.5,-231.5 70.5,-231.5 70.5,-76 70.5,-55.31 78.24,-31.97 82.95,-19.66"/>
<polygon fill="#9a32cd" stroke="#9a32cd" points="98.35,-300.14 107.63,-305.25 103.57,-295.47 98.35,-300.14"/>
<text text-anchor="middle" x="126.5" y="-159" font-family="Helvetica,sans-Serif" font-size="10.00"> maxRecordCount_</text>
<text text-anchor="middle" x="126.5" y="-148" font-family="Helvetica,sans-Serif" font-size="10.00">recordCount_</text>
<text text-anchor="middle" x="126.5" y="-137" font-family="Helvetica,sans-Serif" font-size="10.00">sectionEndLogicalOffset_</text>
</g>
<!-- Node4 -->
<g id="node4" class="node">
<title>Node4</title>
<g id="a_node4"><a xlink:href="classe57_1_1_checked_file.html" target="_top" xlink:title=" ">
<polygon fill="white" stroke="black" points="201,-141 201,-160 294,-160 294,-141 201,-141"/>
<text text-anchor="middle" x="247.5" y="-148" font-family="Helvetica,sans-Serif" font-size="10.00">e57::CheckedFile</text>
</a>
</g>
</g>
<!-- Node2&#45;&gt;Node4 -->
<g id="edge4" class="edge">
<title>Node2&#45;&gt;Node4</title>
<path fill="none" stroke="#9a32cd" stroke-dasharray="5,2" d="M113.14,-295.22C110.36,-273.69 109.14,-238.25 125.5,-214 145.07,-185 182.39,-168.7 210.62,-160.07"/>
<polygon fill="#9a32cd" stroke="#9a32cd" points="109.72,-295.98 114.7,-305.33 116.64,-294.92 109.72,-295.98"/>
<text text-anchor="middle" x="177" y="-239" font-family="Helvetica,sans-Serif" font-size="10.00"> logicalLength_</text>
<text text-anchor="middle" x="177" y="-228" font-family="Helvetica,sans-Serif" font-size="10.00">physicalLength_</text>
<text text-anchor="middle" x="177" y="-217" font-family="Helvetica,sans-Serif" font-size="10.00">physicalPageSizeMask</text>
</g>
<!-- Node5 -->
<g id="node5" class="node">
<title>Node5</title>
<g id="a_node5"><a xlink:href="classe57_1_1_buffer_view.html" target="_top" xlink:title=" ">
<polygon fill="white" stroke="black" points="237.5,-221 237.5,-240 323.5,-240 323.5,-221 237.5,-221"/>
<text text-anchor="middle" x="280.5" y="-228" font-family="Helvetica,sans-Serif" font-size="10.00">e57::BufferView</text>
</a>
</g>
</g>
<!-- Node2&#45;&gt;Node5 -->
<g id="edge6" class="edge">
<title>Node2&#45;&gt;Node5</title>
<path fill="none" stroke="#9a32cd" stroke-dasharray="5,2" d="M142.71,-300.81C176.61,-283.76 234.71,-254.54 263.41,-240.1"/>
<polygon fill="#9a32cd" stroke="#9a32cd" points="140.79,-297.86 133.43,-305.48 143.94,-304.11 140.79,-297.86"/>
<text text-anchor="middle" x="245.5" y="-279" font-family="Helvetica,sans-Serif" font-size="10.00"> streamSize_</text>
<text text-anchor="middle" x="245.5" y="-268" font-family="Helvetica,sans-Serif" font-size="10.00">cursorStream_</text>
</g>
<!-- Node3 -->
<g id="node3" class="node">
<title>Node3</title>
<g id="a_node3"><a xlink:href="classe57_1_1_packet_read_cache.html" target="_top" xlink:title=" ">
<polygon fill="white" stroke="black" points="143,-67.5 143,-86.5 264,-86.5 264,-67.5 143,-67.5"/>
<text text-anchor="middle" x="203.5" y="-74.5" font-family="Helvetica,sans-Serif" font-size="10.00">e57::PacketReadCache</text>
</a>
</g>
</g>
<!-- Node3&#45;&gt;Node1 -->
<g id="edge2" class="edge">
<title>Node3&#45;&gt;Node1</title>
<path fill="none" stroke="#9a32cd" stroke-dasharray="5,2" d="M178.82,-62.29C155.63,-49.4 121.64,-30.52 102.03,-19.63"/>
<polygon fill="#9a32cd" stroke="#9a32cd" points="177.28,-65.44 187.72,-67.23 180.68,-59.32 177.28,-65.44"/>
<text text-anchor="middle" x="170" y="-41" font-family="Helvetica,sans-Serif" font-size="10.00"> cache_</text>
</g>
<!-- Node4&#45;&gt;Node3 -->
<g id="edge3" class="edge">
<title>Node4&#45;&gt;Node3</title>
<path fill="none" stroke="#9a32cd" stroke-dasharray="5,2" d="M236.63,-131.84C227.84,-117.55 215.82,-98.02 208.94,-86.84"/>
<polygon fill="#9a32cd" stroke="#9a32cd" points="233.88,-134.05 242.1,-140.73 239.84,-130.38 233.88,-134.05"/>
<text text-anchor="middle" x="241.5" y="-108" font-family="Helvetica,sans-Serif" font-size="10.00"> cFile_</text>
</g>
<!-- Node5&#45;&gt;Node4 -->
<g id="edge5" class="edge">
<title>Node5&#45;&gt;Node4</title>
<path fill="none" stroke="#9a32cd" stroke-dasharray="5,2" d="M272.88,-211.49C266.12,-195.51 256.52,-172.81 251.28,-160.42"/>
<polygon fill="#9a32cd" stroke="#9a32cd" points="269.72,-213.01 276.84,-220.85 276.17,-210.28 269.72,-213.01"/>
<text text-anchor="middle" x="287.5" y="-188" font-family="Helvetica,sans-Serif" font-size="10.00"> bufView_</text>
</g>
</g>
</svg>
