<?xml version="1.0" encoding="UTF-8" standalone="no"?>
<!DOCTYPE svg PUBLIC "-//W3C//DTD SVG 1.1//EN"
 "http://www.w3.org/Graphics/SVG/1.1/DTD/svg11.dtd">
<!-- Generated by graphviz version 2.48.0 (20210717.1556)
 -->
<!-- Title: e57::ScaledIntegerNodeImpl Pages: 1 -->
<svg width="191pt" height="185pt"
 viewBox="0.00 0.00 190.50 185.00" xmlns="http://www.w3.org/2000/svg" xmlns:xlink="http://www.w3.org/1999/xlink">
<g id="graph0" class="graph" transform="scale(1 1) rotate(0) translate(4 181)">
<title>e57::ScaledIntegerNodeImpl</title>
<polygon fill="white" stroke="transparent" points="-4,4 -4,-181 186.5,-181 186.5,4 -4,4"/>
<!-- Node1 -->
<g id="node1" class="node">
<title>Node1</title>
<g id="a_node1"><a xlink:title=" ">
<polygon fill="#bfbfbf" stroke="black" points="31,-0.5 31,-19.5 174,-19.5 174,-0.5 31,-0.5"/>
<text text-anchor="middle" x="102.5" y="-7.5" font-family="Helvetica,sans-Serif" font-size="10.00">e57::ScaledIntegerNodeImpl</text>
</a>
</g>
</g>
<!-- Node2 -->
<g id="node2" class="node">
<title>Node2</title>
<g id="a_node2"><a xlink:href="classe57_1_1_node_impl.html" target="_top" xlink:title=" ">
<polygon fill="white" stroke="black" points="20.5,-89.5 20.5,-108.5 102.5,-108.5 102.5,-89.5 20.5,-89.5"/>
<text text-anchor="middle" x="61.5" y="-96.5" font-family="Helvetica,sans-Serif" font-size="10.00">e57::NodeImpl</text>
</a>
</g>
</g>
<!-- Node2&#45;&gt;Node1 -->
<g id="edge1" class="edge">
<title>Node2&#45;&gt;Node1</title>
<path fill="none" stroke="midnightblue" d="M69.87,-80.23C78.57,-61.77 91.82,-33.67 98.44,-19.62"/>
<polygon fill="midnightblue" stroke="midnightblue" points="66.68,-78.8 65.58,-89.34 73.01,-81.79 66.68,-78.8"/>
</g>
<!-- Node3 -->
<g id="node3" class="node">
<title>Node3</title>
<g id="a_node3"><a xlink:title=" ">
<polygon fill="white" stroke="#bfbfbf" points="0,-146.5 0,-176.5 123,-176.5 123,-146.5 0,-146.5"/>
<text text-anchor="start" x="8" y="-164.5" font-family="Helvetica,sans-Serif" font-size="10.00">std::enable_shared</text>
<text text-anchor="middle" x="61.5" y="-153.5" font-family="Helvetica,sans-Serif" font-size="10.00">_from_this&lt; NodeImpl &gt;</text>
</a>
</g>
</g>
<!-- Node3&#45;&gt;Node2 -->
<g id="edge2" class="edge">
<title>Node3&#45;&gt;Node2</title>
<path fill="none" stroke="midnightblue" d="M61.5,-136.35C61.5,-126.51 61.5,-115.78 61.5,-108.54"/>
<polygon fill="midnightblue" stroke="midnightblue" points="58,-136.47 61.5,-146.47 65,-136.47 58,-136.47"/>
</g>
<!-- Node4 -->
<g id="node4" class="node">
<title>Node4</title>
<g id="a_node4"><a xlink:title=" ">
<polygon fill="white" stroke="#bfbfbf" points="121,-89.5 121,-108.5 168,-108.5 168,-89.5 121,-89.5"/>
<text text-anchor="middle" x="144.5" y="-96.5" font-family="Helvetica,sans-Serif" font-size="10.00">int64_t</text>
</a>
</g>
</g>
<!-- Node4&#45;&gt;Node1 -->
<g id="edge3" class="edge">
<title>Node4&#45;&gt;Node1</title>
<path fill="none" stroke="#9a32cd" stroke-dasharray="5,2" d="M135.92,-80.23C127.01,-61.77 113.45,-33.67 106.66,-19.62"/>
<polygon fill="#9a32cd" stroke="#9a32cd" points="132.82,-81.86 140.32,-89.34 139.12,-78.81 132.82,-81.86"/>
<text text-anchor="middle" x="156.5" y="-63" font-family="Helvetica,sans-Serif" font-size="10.00"> maximum_</text>
<text text-anchor="middle" x="156.5" y="-52" font-family="Helvetica,sans-Serif" font-size="10.00">minimum_</text>
<text text-anchor="middle" x="156.5" y="-41" font-family="Helvetica,sans-Serif" font-size="10.00">value_</text>
</g>
</g>
</svg>
