<?xml version="1.0" encoding="UTF-8" standalone="no"?>
<!DOCTYPE svg PUBLIC "-//W3C//DTD SVG 1.1//EN"
 "http://www.w3.org/Graphics/SVG/1.1/DTD/svg11.dtd">
<!-- Generated by graphviz version 2.44.0 (20200408.0750)
 -->
<!-- Title: e57::CompressedVectorNodeImpl Pages: 1 -->
<svg width="172pt" height="151pt"
 viewBox="0.00 0.00 172.00 151.00" xmlns="http://www.w3.org/2000/svg" xmlns:xlink="http://www.w3.org/1999/xlink">
<g id="graph0" class="graph" transform="scale(1 1) rotate(0) translate(4 147)">
<title>e57::CompressedVectorNodeImpl</title>
<polygon fill="white" stroke="transparent" points="-4,4 -4,-147 168,-147 168,4 -4,4"/>
<!-- Node1 -->
<g id="node1" class="node">
<title>Node1</title>
<g id="a_node1"><a xlink:title=" ">
<polygon fill="#bfbfbf" stroke="black" points="0,-0.5 0,-19.5 164,-19.5 164,-0.5 0,-0.5"/>
<text text-anchor="middle" x="82" y="-7.5" font-family="Helvetica,sans-Serif" font-size="10.00">e57::CompressedVectorNodeImpl</text>
</a>
</g>
</g>
<!-- Node2 -->
<g id="node2" class="node">
<title>Node2</title>
<g id="a_node2"><a xlink:href="classe57_1_1_node_impl.html" target="_top" xlink:title=" ">
<polygon fill="white" stroke="black" points="42,-56.5 42,-75.5 122,-75.5 122,-56.5 42,-56.5"/>
<text text-anchor="middle" x="82" y="-63.5" font-family="Helvetica,sans-Serif" font-size="10.00">e57::NodeImpl</text>
</a>
</g>
</g>
<!-- Node2&#45;&gt;Node1 -->
<g id="edge1" class="edge">
<title>Node2&#45;&gt;Node1</title>
<path fill="none" stroke="midnightblue" d="M82,-45.8C82,-36.91 82,-26.78 82,-19.75"/>
<polygon fill="midnightblue" stroke="midnightblue" points="78.5,-46.08 82,-56.08 85.5,-46.08 78.5,-46.08"/>
</g>
<!-- Node3 -->
<g id="node3" class="node">
<title>Node3</title>
<g id="a_node3"><a xlink:title=" ">
<polygon fill="white" stroke="#bfbfbf" points="21,-112.5 21,-142.5 143,-142.5 143,-112.5 21,-112.5"/>
<text text-anchor="start" x="29" y="-130.5" font-family="Helvetica,sans-Serif" font-size="10.00">std::enable_shared</text>
<text text-anchor="middle" x="82" y="-119.5" font-family="Helvetica,sans-Serif" font-size="10.00">_from_this&lt; NodeImpl &gt;</text>
</a>
</g>
</g>
<!-- Node3&#45;&gt;Node2 -->
<g id="edge2" class="edge">
<title>Node3&#45;&gt;Node2</title>
<path fill="none" stroke="midnightblue" d="M82,-102.29C82,-92.86 82,-82.65 82,-75.66"/>
<polygon fill="midnightblue" stroke="midnightblue" points="78.5,-102.4 82,-112.4 85.5,-102.4 78.5,-102.4"/>
</g>
</g>
</svg>
