<?xml version="1.0" encoding="UTF-8" standalone="no"?>
<!DOCTYPE svg PUBLIC "-//W3C//DTD SVG 1.1//EN"
 "http://www.w3.org/Graphics/SVG/1.1/DTD/svg11.dtd">
<!-- Generated by graphviz version 2.48.0 (20210717.1556)
 -->
<!-- Title: e57::BitpackFloatDecoder Pages: 1 -->
<svg width="207pt" height="174pt"
 viewBox="0.00 0.00 206.50 174.00" xmlns="http://www.w3.org/2000/svg" xmlns:xlink="http://www.w3.org/1999/xlink">
<g id="graph0" class="graph" transform="scale(1 1) rotate(0) translate(4 170)">
<title>e57::BitpackFloatDecoder</title>
<polygon fill="white" stroke="transparent" points="-4,4 -4,-170 202.5,-170 202.5,4 -4,4"/>
<!-- Node1 -->
<g id="node1" class="node">
<title>Node1</title>
<g id="a_node1"><a xlink:title=" ">
<polygon fill="#bfbfbf" stroke="black" points="13.5,-0.5 13.5,-19.5 145.5,-19.5 145.5,-0.5 13.5,-0.5"/>
<text text-anchor="middle" x="79.5" y="-7.5" font-family="Helvetica,sans-Serif" font-size="10.00">e57::BitpackFloatDecoder</text>
</a>
</g>
</g>
<!-- Node2 -->
<g id="node2" class="node">
<title>Node2</title>
<g id="a_node2"><a xlink:href="classe57_1_1_bitpack_decoder.html" target="_top" xlink:title=" ">
<polygon fill="white" stroke="black" points="25,-57.5 25,-76.5 134,-76.5 134,-57.5 25,-57.5"/>
<text text-anchor="middle" x="79.5" y="-64.5" font-family="Helvetica,sans-Serif" font-size="10.00">e57::BitpackDecoder</text>
</a>
</g>
</g>
<!-- Node2&#45;&gt;Node1 -->
<g id="edge1" class="edge">
<title>Node2&#45;&gt;Node1</title>
<path fill="none" stroke="midnightblue" d="M79.5,-47.12C79.5,-37.82 79.5,-27.06 79.5,-19.71"/>
<polygon fill="midnightblue" stroke="midnightblue" points="76,-47.41 79.5,-57.41 83,-47.41 76,-47.41"/>
</g>
<!-- Node3 -->
<g id="node3" class="node">
<title>Node3</title>
<g id="a_node3"><a xlink:href="classe57_1_1_decoder.html" target="_top" xlink:title=" ">
<polygon fill="white" stroke="black" points="0,-146.5 0,-165.5 77,-165.5 77,-146.5 0,-146.5"/>
<text text-anchor="middle" x="38.5" y="-153.5" font-family="Helvetica,sans-Serif" font-size="10.00">e57::Decoder</text>
</a>
</g>
</g>
<!-- Node3&#45;&gt;Node2 -->
<g id="edge2" class="edge">
<title>Node3&#45;&gt;Node2</title>
<path fill="none" stroke="midnightblue" d="M46.87,-137.23C55.57,-118.77 68.82,-90.67 75.44,-76.62"/>
<polygon fill="midnightblue" stroke="midnightblue" points="43.68,-135.8 42.58,-146.34 50.01,-138.79 43.68,-135.8"/>
</g>
<!-- Node4 -->
<g id="node4" class="node">
<title>Node4</title>
<g id="a_node4"><a xlink:title=" ">
<polygon fill="white" stroke="#bfbfbf" points="95.5,-146.5 95.5,-165.5 147.5,-165.5 147.5,-146.5 95.5,-146.5"/>
<text text-anchor="middle" x="121.5" y="-153.5" font-family="Helvetica,sans-Serif" font-size="10.00">uint64_t</text>
</a>
</g>
</g>
<!-- Node4&#45;&gt;Node2 -->
<g id="edge3" class="edge">
<title>Node4&#45;&gt;Node2</title>
<path fill="none" stroke="#9a32cd" stroke-dasharray="5,2" d="M112.92,-137.23C104.01,-118.77 90.45,-90.67 83.66,-76.62"/>
<polygon fill="#9a32cd" stroke="#9a32cd" points="109.82,-138.86 117.32,-146.34 116.12,-135.81 109.82,-138.86"/>
<text text-anchor="start" x="107.5" y="-120" font-family="Helvetica,sans-Serif" font-size="10.00"> currentRecordIndex</text>
<text text-anchor="middle" x="153" y="-109" font-family="Helvetica,sans-Serif" font-size="10.00">_</text>
<text text-anchor="middle" x="153" y="-98" font-family="Helvetica,sans-Serif" font-size="10.00">maxRecordCount_</text>
</g>
</g>
</svg>
