<?xml version="1.0" encoding="UTF-8" standalone="no"?>
<!DOCTYPE svg PUBLIC "-//W3C//DTD SVG 1.1//EN"
 "http://www.w3.org/Graphics/SVG/1.1/DTD/svg11.dtd">
<!-- Generated by graphviz version 2.48.0 (20210717.1556)
 -->
<!-- Title: e57::PacketReadCache Pages: 1 -->
<svg width="262pt" height="253pt"
 viewBox="0.00 0.00 261.50 253.00" xmlns="http://www.w3.org/2000/svg" xmlns:xlink="http://www.w3.org/1999/xlink">
<g id="graph0" class="graph" transform="scale(1 1) rotate(0) translate(4 249)">
<title>e57::PacketReadCache</title>
<polygon fill="white" stroke="transparent" points="-4,4 -4,-249 257.5,-249 257.5,4 -4,4"/>
<!-- Node1 -->
<g id="node1" class="node">
<title>Node1</title>
<g id="a_node1"><a xlink:title=" ">
<polygon fill="#bfbfbf" stroke="black" points="0,-0.5 0,-19.5 122,-19.5 122,-0.5 0,-0.5"/>
<text text-anchor="middle" x="61" y="-7.5" font-family="Helvetica,sans-Serif" font-size="10.00">e57::PacketReadCache</text>
</a>
</g>
</g>
<!-- Node2 -->
<g id="node2" class="node">
<title>Node2</title>
<g id="a_node2"><a xlink:href="classe57_1_1_checked_file.html" target="_top" xlink:title=" ">
<polygon fill="white" stroke="black" points="14,-67.5 14,-86.5 108,-86.5 108,-67.5 14,-67.5"/>
<text text-anchor="middle" x="61" y="-74.5" font-family="Helvetica,sans-Serif" font-size="10.00">e57::CheckedFile</text>
</a>
</g>
</g>
<!-- Node2&#45;&gt;Node1 -->
<g id="edge1" class="edge">
<title>Node2&#45;&gt;Node1</title>
<path fill="none" stroke="#9a32cd" stroke-dasharray="5,2" d="M61,-57.04C61,-44.67 61,-29.12 61,-19.63"/>
<polygon fill="#9a32cd" stroke="#9a32cd" points="57.5,-57.23 61,-67.23 64.5,-57.23 57.5,-57.23"/>
<text text-anchor="middle" x="76" y="-41" font-family="Helvetica,sans-Serif" font-size="10.00"> cFile_</text>
</g>
<!-- Node3 -->
<g id="node3" class="node">
<title>Node3</title>
<g id="a_node3"><a xlink:title=" ">
<polygon fill="white" stroke="#bfbfbf" points="35,-225.5 35,-244.5 87,-244.5 87,-225.5 35,-225.5"/>
<text text-anchor="middle" x="61" y="-232.5" font-family="Helvetica,sans-Serif" font-size="10.00">uint64_t</text>
</a>
</g>
</g>
<!-- Node3&#45;&gt;Node2 -->
<g id="edge2" class="edge">
<title>Node3&#45;&gt;Node2</title>
<path fill="none" stroke="#9a32cd" stroke-dasharray="5,2" d="M58.63,-215.49C56.36,-195.42 53.48,-162.44 55,-134 55.9,-117.21 58.3,-97.7 59.78,-86.71"/>
<polygon fill="#9a32cd" stroke="#9a32cd" points="55.16,-215.93 59.83,-225.44 62.11,-215.09 55.16,-215.93"/>
<text text-anchor="middle" x="106.5" y="-159" font-family="Helvetica,sans-Serif" font-size="10.00"> logicalLength_</text>
<text text-anchor="middle" x="106.5" y="-148" font-family="Helvetica,sans-Serif" font-size="10.00">physicalLength_</text>
<text text-anchor="middle" x="106.5" y="-137" font-family="Helvetica,sans-Serif" font-size="10.00">physicalPageSizeMask</text>
</g>
<!-- Node4 -->
<g id="node4" class="node">
<title>Node4</title>
<g id="a_node4"><a xlink:href="classe57_1_1_buffer_view.html" target="_top" xlink:title=" ">
<polygon fill="white" stroke="black" points="166.5,-141 166.5,-160 253.5,-160 253.5,-141 166.5,-141"/>
<text text-anchor="middle" x="210" y="-148" font-family="Helvetica,sans-Serif" font-size="10.00">e57::BufferView</text>
</a>
</g>
</g>
<!-- Node3&#45;&gt;Node4 -->
<g id="edge4" class="edge">
<title>Node3&#45;&gt;Node4</title>
<path fill="none" stroke="#9a32cd" stroke-dasharray="5,2" d="M85.21,-220.59C116.07,-203.51 168.51,-174.48 194.48,-160.1"/>
<polygon fill="#9a32cd" stroke="#9a32cd" points="83.44,-217.58 76.38,-225.48 86.83,-223.7 83.44,-217.58"/>
<text text-anchor="middle" x="182.5" y="-199" font-family="Helvetica,sans-Serif" font-size="10.00"> cursorStream_</text>
<text text-anchor="middle" x="182.5" y="-188" font-family="Helvetica,sans-Serif" font-size="10.00">streamSize_</text>
</g>
<!-- Node4&#45;&gt;Node2 -->
<g id="edge3" class="edge">
<title>Node4&#45;&gt;Node2</title>
<path fill="none" stroke="#9a32cd" stroke-dasharray="5,2" d="M182.91,-136.5C152.77,-122.04 104.91,-99.07 79.04,-86.66"/>
<polygon fill="#9a32cd" stroke="#9a32cd" points="181.5,-139.7 192.03,-140.88 184.53,-133.39 181.5,-139.7"/>
<text text-anchor="middle" x="161" y="-108" font-family="Helvetica,sans-Serif" font-size="10.00"> bufView_</text>
</g>
</g>
</svg>
