<?xml version="1.0" encoding="UTF-8" standalone="no"?>
<!DOCTYPE svg PUBLIC "-//W3C//DTD SVG 1.1//EN"
 "http://www.w3.org/Graphics/SVG/1.1/DTD/svg11.dtd">
<!-- Generated by graphviz version 2.44.0 (20200408.0750)
 -->
<!-- Title: e57::ScaledIntegerNodeImpl Pages: 1 -->
<svg width="199pt" height="185pt"
 viewBox="0.00 0.00 199.00 185.00" xmlns="http://www.w3.org/2000/svg" xmlns:xlink="http://www.w3.org/1999/xlink">
<g id="graph0" class="graph" transform="scale(1 1) rotate(0) translate(4 181)">
<title>e57::ScaledIntegerNodeImpl</title>
<polygon fill="white" stroke="transparent" points="-4,4 -4,-181 195,-181 195,4 -4,4"/>
<!-- Node1 -->
<g id="node1" class="node">
<title>Node1</title>
<g id="a_node1"><a xlink:title=" ">
<polygon fill="#bfbfbf" stroke="black" points="51,-0.5 51,-19.5 191,-19.5 191,-0.5 51,-0.5"/>
<text text-anchor="middle" x="121" y="-7.5" font-family="Helvetica,sans-Serif" font-size="10.00">e57::ScaledIntegerNodeImpl</text>
</a>
</g>
</g>
<!-- Node2 -->
<g id="node2" class="node">
<title>Node2</title>
<g id="a_node2"><a xlink:href="classe57_1_1_node_impl.html" target="_top" xlink:title=" ">
<polygon fill="white" stroke="black" points="21,-89.5 21,-108.5 101,-108.5 101,-89.5 21,-89.5"/>
<text text-anchor="middle" x="61" y="-96.5" font-family="Helvetica,sans-Serif" font-size="10.00">e57::NodeImpl</text>
</a>
</g>
</g>
<!-- Node2&#45;&gt;Node1 -->
<g id="edge1" class="edge">
<title>Node2&#45;&gt;Node1</title>
<path fill="none" stroke="midnightblue" d="M72.73,-80.99C85.44,-62.56 105.23,-33.87 115.05,-19.62"/>
<polygon fill="midnightblue" stroke="midnightblue" points="69.77,-79.12 66.97,-89.34 75.53,-83.09 69.77,-79.12"/>
</g>
<!-- Node3 -->
<g id="node3" class="node">
<title>Node3</title>
<g id="a_node3"><a xlink:title=" ">
<polygon fill="white" stroke="#bfbfbf" points="0,-146.5 0,-176.5 122,-176.5 122,-146.5 0,-146.5"/>
<text text-anchor="start" x="8" y="-164.5" font-family="Helvetica,sans-Serif" font-size="10.00">std::enable_shared</text>
<text text-anchor="middle" x="61" y="-153.5" font-family="Helvetica,sans-Serif" font-size="10.00">_from_this&lt; NodeImpl &gt;</text>
</a>
</g>
</g>
<!-- Node3&#45;&gt;Node2 -->
<g id="edge2" class="edge">
<title>Node3&#45;&gt;Node2</title>
<path fill="none" stroke="midnightblue" d="M61,-136.35C61,-126.51 61,-115.78 61,-108.54"/>
<polygon fill="midnightblue" stroke="midnightblue" points="57.5,-136.47 61,-146.47 64.5,-136.47 57.5,-136.47"/>
</g>
<!-- Node4 -->
<g id="node4" class="node">
<title>Node4</title>
<g id="a_node4"><a xlink:title=" ">
<polygon fill="white" stroke="#bfbfbf" points="119,-89.5 119,-108.5 165,-108.5 165,-89.5 119,-89.5"/>
<text text-anchor="middle" x="142" y="-96.5" font-family="Helvetica,sans-Serif" font-size="10.00">int64_t</text>
</a>
</g>
</g>
<!-- Node4&#45;&gt;Node1 -->
<g id="edge3" class="edge">
<title>Node4&#45;&gt;Node1</title>
<path fill="none" stroke="#9a32cd" stroke-dasharray="5,2" d="M137.52,-79.46C133.07,-61 126.43,-33.48 123.08,-19.62"/>
<polygon fill="#9a32cd" stroke="#9a32cd" points="134.16,-80.44 139.91,-89.34 140.97,-78.8 134.16,-80.44"/>
<text text-anchor="middle" x="159.5" y="-63" font-family="Helvetica,sans-Serif" font-size="10.00"> minimum_</text>
<text text-anchor="middle" x="159.5" y="-52" font-family="Helvetica,sans-Serif" font-size="10.00">maximum_</text>
<text text-anchor="middle" x="159.5" y="-41" font-family="Helvetica,sans-Serif" font-size="10.00">value_</text>
</g>
</g>
</svg>
