<?xml version="1.0" encoding="UTF-8" standalone="no"?>
<!DOCTYPE svg PUBLIC "-//W3C//DTD SVG 1.1//EN"
 "http://www.w3.org/Graphics/SVG/1.1/DTD/svg11.dtd">
<!-- Generated by graphviz version 2.44.0 (20200408.0750)
 -->
<!-- Title: e57::BitpackFloatEncoder Pages: 1 -->
<svg width="201pt" height="152pt"
 viewBox="0.00 0.00 201.00 152.00" xmlns="http://www.w3.org/2000/svg" xmlns:xlink="http://www.w3.org/1999/xlink">
<g id="graph0" class="graph" transform="scale(1 1) rotate(0) translate(4 148)">
<title>e57::BitpackFloatEncoder</title>
<polygon fill="white" stroke="transparent" points="-4,4 -4,-148 197,-148 197,4 -4,4"/>
<!-- Node1 -->
<g id="node1" class="node">
<title>Node1</title>
<g id="a_node1"><a xlink:title=" ">
<polygon fill="#bfbfbf" stroke="black" points="12.5,-0.5 12.5,-19.5 141.5,-19.5 141.5,-0.5 12.5,-0.5"/>
<text text-anchor="middle" x="77" y="-7.5" font-family="Helvetica,sans-Serif" font-size="10.00">e57::BitpackFloatEncoder</text>
</a>
</g>
</g>
<!-- Node2 -->
<g id="node2" class="node">
<title>Node2</title>
<g id="a_node2"><a xlink:href="classe57_1_1_bitpack_encoder.html" target="_top" xlink:title=" ">
<polygon fill="white" stroke="black" points="23.5,-57.5 23.5,-76.5 130.5,-76.5 130.5,-57.5 23.5,-57.5"/>
<text text-anchor="middle" x="77" y="-64.5" font-family="Helvetica,sans-Serif" font-size="10.00">e57::BitpackEncoder</text>
</a>
</g>
</g>
<!-- Node2&#45;&gt;Node1 -->
<g id="edge1" class="edge">
<title>Node2&#45;&gt;Node1</title>
<path fill="none" stroke="midnightblue" d="M77,-47.12C77,-37.82 77,-27.06 77,-19.71"/>
<polygon fill="midnightblue" stroke="midnightblue" points="73.5,-47.41 77,-57.41 80.5,-47.41 73.5,-47.41"/>
</g>
<!-- Node3 -->
<g id="node3" class="node">
<title>Node3</title>
<g id="a_node3"><a xlink:href="classe57_1_1_encoder.html" target="_top" xlink:title=" ">
<polygon fill="white" stroke="black" points="0,-124.5 0,-143.5 74,-143.5 74,-124.5 0,-124.5"/>
<text text-anchor="middle" x="37" y="-131.5" font-family="Helvetica,sans-Serif" font-size="10.00">e57::Encoder</text>
</a>
</g>
</g>
<!-- Node3&#45;&gt;Node2 -->
<g id="edge2" class="edge">
<title>Node3&#45;&gt;Node2</title>
<path fill="none" stroke="midnightblue" d="M47.75,-115.53C55.49,-102.95 65.61,-86.51 71.69,-76.63"/>
<polygon fill="midnightblue" stroke="midnightblue" points="44.65,-113.88 42.39,-124.23 50.62,-117.55 44.65,-113.88"/>
</g>
<!-- Node4 -->
<g id="node4" class="node">
<title>Node4</title>
<g id="a_node4"><a xlink:title=" ">
<polygon fill="white" stroke="#bfbfbf" points="92.5,-124.5 92.5,-143.5 143.5,-143.5 143.5,-124.5 92.5,-124.5"/>
<text text-anchor="middle" x="118" y="-131.5" font-family="Helvetica,sans-Serif" font-size="10.00">uint64_t</text>
</a>
</g>
</g>
<!-- Node4&#45;&gt;Node2 -->
<g id="edge3" class="edge">
<title>Node4&#45;&gt;Node2</title>
<path fill="none" stroke="#9a32cd" stroke-dasharray="5,2" d="M106.98,-115.53C99.05,-102.95 88.67,-86.51 82.44,-76.63"/>
<polygon fill="#9a32cd" stroke="#9a32cd" points="104.18,-117.64 112.47,-124.23 110.1,-113.91 104.18,-117.64"/>
<text text-anchor="middle" x="146" y="-98" font-family="Helvetica,sans-Serif" font-size="10.00"> currentRecordIndex_</text>
</g>
</g>
</svg>
