<?xml version="1.0" encoding="UTF-8" standalone="no"?>
<!DOCTYPE svg PUBLIC "-//W3C//DTD SVG 1.1//EN"
 "http://www.w3.org/Graphics/SVG/1.1/DTD/svg11.dtd">
<!-- Generated by graphviz version 2.44.0 (20200408.0750)
 -->
<!-- Title: e57::BitpackIntegerEncoder&lt; RegisterT &gt; Pages: 1 -->
<svg width="325pt" height="184pt"
 viewBox="0.00 0.00 325.00 184.00" xmlns="http://www.w3.org/2000/svg" xmlns:xlink="http://www.w3.org/1999/xlink">
<g id="graph0" class="graph" transform="scale(1 1) rotate(0) translate(4 180)">
<title>e57::BitpackIntegerEncoder&lt; RegisterT &gt;</title>
<polygon fill="white" stroke="transparent" points="-4,4 -4,-180 321,-180 321,4 -4,4"/>
<!-- Node1 -->
<g id="node1" class="node">
<title>Node1</title>
<g id="a_node1"><a xlink:title=" ">
<polygon fill="#bfbfbf" stroke="black" points="110.5,-0.5 110.5,-30.5 247.5,-30.5 247.5,-0.5 110.5,-0.5"/>
<text text-anchor="start" x="118.5" y="-18.5" font-family="Helvetica,sans-Serif" font-size="10.00">e57::BitpackIntegerEncoder</text>
<text text-anchor="middle" x="179" y="-7.5" font-family="Helvetica,sans-Serif" font-size="10.00">&lt; RegisterT &gt;</text>
</a>
</g>
</g>
<!-- Node2 -->
<g id="node2" class="node">
<title>Node2</title>
<g id="a_node2"><a xlink:href="classe57_1_1_bitpack_encoder.html" target="_top" xlink:title=" ">
<polygon fill="white" stroke="black" points="16.5,-89.5 16.5,-108.5 123.5,-108.5 123.5,-89.5 16.5,-89.5"/>
<text text-anchor="middle" x="70" y="-96.5" font-family="Helvetica,sans-Serif" font-size="10.00">e57::BitpackEncoder</text>
</a>
</g>
</g>
<!-- Node2&#45;&gt;Node1 -->
<g id="edge1" class="edge">
<title>Node2&#45;&gt;Node1</title>
<path fill="none" stroke="midnightblue" d="M89.77,-83.22C109.78,-68.26 140.48,-45.3 160.15,-30.6"/>
<polygon fill="midnightblue" stroke="midnightblue" points="87.58,-80.49 81.66,-89.28 91.77,-86.09 87.58,-80.49"/>
</g>
<!-- Node3 -->
<g id="node3" class="node">
<title>Node3</title>
<g id="a_node3"><a xlink:href="classe57_1_1_encoder.html" target="_top" xlink:title=" ">
<polygon fill="white" stroke="black" points="0,-156.5 0,-175.5 74,-175.5 74,-156.5 0,-156.5"/>
<text text-anchor="middle" x="37" y="-163.5" font-family="Helvetica,sans-Serif" font-size="10.00">e57::Encoder</text>
</a>
</g>
</g>
<!-- Node3&#45;&gt;Node2 -->
<g id="edge2" class="edge">
<title>Node3&#45;&gt;Node2</title>
<path fill="none" stroke="midnightblue" d="M42.71,-146.54C44.96,-140.19 47.78,-133.14 51,-127 54.41,-120.5 59.16,-113.75 63.06,-108.63"/>
<polygon fill="midnightblue" stroke="midnightblue" points="39.31,-145.68 39.5,-156.28 45.96,-147.88 39.31,-145.68"/>
</g>
<!-- Node4 -->
<g id="node4" class="node">
<title>Node4</title>
<g id="a_node4"><a xlink:title=" ">
<polygon fill="white" stroke="#bfbfbf" points="122.5,-156.5 122.5,-175.5 173.5,-175.5 173.5,-156.5 122.5,-156.5"/>
<text text-anchor="middle" x="148" y="-163.5" font-family="Helvetica,sans-Serif" font-size="10.00">uint64_t</text>
</a>
</g>
</g>
<!-- Node4&#45;&gt;Node1 -->
<g id="edge4" class="edge">
<title>Node4&#45;&gt;Node1</title>
<path fill="none" stroke="#9a32cd" stroke-dasharray="5,2" d="M160.53,-147.57C162.28,-144.49 163.86,-141.24 165,-138 178.04,-100.95 179.54,-53.99 179.38,-30.8"/>
<polygon fill="#9a32cd" stroke="#9a32cd" points="157.55,-145.73 155.08,-156.04 163.43,-149.52 157.55,-145.73"/>
<text text-anchor="middle" x="213" y="-96.5" font-family="Helvetica,sans-Serif" font-size="10.00"> sourceBitMask_</text>
</g>
<!-- Node4&#45;&gt;Node2 -->
<g id="edge3" class="edge">
<title>Node4&#45;&gt;Node2</title>
<path fill="none" stroke="#9a32cd" stroke-dasharray="5,2" d="M112.21,-161.39C96.98,-157.9 80.56,-151.11 71,-138 64.86,-129.57 65.92,-117.07 67.63,-108.74"/>
<polygon fill="#9a32cd" stroke="#9a32cd" points="111.99,-164.91 122.47,-163.32 113.29,-158.03 111.99,-164.91"/>
<text text-anchor="middle" x="118" y="-130" font-family="Helvetica,sans-Serif" font-size="10.00"> currentRecordIndex_</text>
</g>
<!-- Node5 -->
<g id="node5" class="node">
<title>Node5</title>
<g id="a_node5"><a xlink:title=" ">
<polygon fill="white" stroke="#bfbfbf" points="271,-89.5 271,-108.5 317,-108.5 317,-89.5 271,-89.5"/>
<text text-anchor="middle" x="294" y="-96.5" font-family="Helvetica,sans-Serif" font-size="10.00">int64_t</text>
</a>
</g>
</g>
<!-- Node5&#45;&gt;Node1 -->
<g id="edge5" class="edge">
<title>Node5&#45;&gt;Node1</title>
<path fill="none" stroke="#9a32cd" stroke-dasharray="5,2" d="M273.42,-83.42C252.33,-68.47 219.74,-45.37 198.89,-30.6"/>
<polygon fill="#9a32cd" stroke="#9a32cd" points="271.51,-86.35 281.69,-89.28 275.56,-80.64 271.51,-86.35"/>
<text text-anchor="middle" x="277.5" y="-63" font-family="Helvetica,sans-Serif" font-size="10.00"> minimum_</text>
<text text-anchor="middle" x="277.5" y="-52" font-family="Helvetica,sans-Serif" font-size="10.00">maximum_</text>
</g>
</g>
</svg>
