<?xml version="1.0" encoding="UTF-8" standalone="no"?>
<!DOCTYPE svg PUBLIC "-//W3C//DTD SVG 1.1//EN"
 "http://www.w3.org/Graphics/SVG/1.1/DTD/svg11.dtd">
<!-- Generated by graphviz version 2.44.0 (20200408.0750)
 -->
<!-- Title: e57::E57XmlFileInputSource Pages: 1 -->
<svg width="394pt" height="264pt"
 viewBox="0.00 0.00 393.50 264.00" xmlns="http://www.w3.org/2000/svg" xmlns:xlink="http://www.w3.org/1999/xlink">
<g id="graph0" class="graph" transform="scale(1 1) rotate(0) translate(4 260)">
<title>e57::E57XmlFileInputSource</title>
<polygon fill="white" stroke="transparent" points="-4,4 -4,-260 389.5,-260 389.5,4 -4,4"/>
<!-- Node1 -->
<g id="node1" class="node">
<title>Node1</title>
<g id="a_node1"><a xlink:title=" ">
<polygon fill="#bfbfbf" stroke="black" points="27,-0.5 27,-19.5 168,-19.5 168,-0.5 27,-0.5"/>
<text text-anchor="middle" x="97.5" y="-7.5" font-family="Helvetica,sans-Serif" font-size="10.00">e57::E57XmlFileInputSource</text>
</a>
</g>
</g>
<!-- Node2 -->
<g id="node2" class="node">
<title>Node2</title>
<g id="a_node2"><a xlink:title=" ">
<polygon fill="white" stroke="#bfbfbf" points="0,-67.5 0,-86.5 69,-86.5 69,-67.5 0,-67.5"/>
<text text-anchor="middle" x="34.5" y="-74.5" font-family="Helvetica,sans-Serif" font-size="10.00">InputSource</text>
</a>
</g>
</g>
<!-- Node2&#45;&gt;Node1 -->
<g id="edge1" class="edge">
<title>Node2&#45;&gt;Node1</title>
<path fill="none" stroke="midnightblue" d="M50.01,-60C62.37,-47.25 79.19,-29.89 89.14,-19.63"/>
<polygon fill="midnightblue" stroke="midnightblue" points="47.44,-57.62 43,-67.23 52.47,-62.49 47.44,-57.62"/>
</g>
<!-- Node3 -->
<g id="node3" class="node">
<title>Node3</title>
<g id="a_node3"><a xlink:title=" ">
<polygon fill="white" stroke="#bfbfbf" points="153,-236.5 153,-255.5 204,-255.5 204,-236.5 153,-236.5"/>
<text text-anchor="middle" x="178.5" y="-243.5" font-family="Helvetica,sans-Serif" font-size="10.00">uint64_t</text>
</a>
</g>
</g>
<!-- Node3&#45;&gt;Node1 -->
<g id="edge2" class="edge">
<title>Node3&#45;&gt;Node1</title>
<path fill="none" stroke="#9a32cd" stroke-dasharray="5,2" d="M165.29,-228.28C148.83,-206.41 121.28,-166.24 108.5,-127 95.97,-88.53 96.3,-39.37 97.05,-19.7"/>
<polygon fill="#9a32cd" stroke="#9a32cd" points="162.73,-230.69 171.6,-236.48 168.28,-226.42 162.73,-230.69"/>
<text text-anchor="middle" x="141.5" y="-119" font-family="Helvetica,sans-Serif" font-size="10.00"> logicalLength_</text>
<text text-anchor="middle" x="141.5" y="-108" font-family="Helvetica,sans-Serif" font-size="10.00">logicalStart_</text>
</g>
<!-- Node4 -->
<g id="node4" class="node">
<title>Node4</title>
<g id="a_node4"><a xlink:href="classe57_1_1_checked_file.html" target="_top" xlink:title=" ">
<polygon fill="white" stroke="black" points="132,-67.5 132,-86.5 225,-86.5 225,-67.5 132,-67.5"/>
<text text-anchor="middle" x="178.5" y="-74.5" font-family="Helvetica,sans-Serif" font-size="10.00">e57::CheckedFile</text>
</a>
</g>
</g>
<!-- Node3&#45;&gt;Node4 -->
<g id="edge4" class="edge">
<title>Node3&#45;&gt;Node4</title>
<path fill="none" stroke="#9a32cd" stroke-dasharray="5,2" d="M178.5,-226.41C178.5,-190.47 178.5,-112.73 178.5,-86.69"/>
<polygon fill="#9a32cd" stroke="#9a32cd" points="175,-226.49 178.5,-236.49 182,-226.49 175,-226.49"/>
<text text-anchor="middle" x="230" y="-170" font-family="Helvetica,sans-Serif" font-size="10.00"> logicalLength_</text>
<text text-anchor="middle" x="230" y="-159" font-family="Helvetica,sans-Serif" font-size="10.00">physicalLength_</text>
<text text-anchor="middle" x="230" y="-148" font-family="Helvetica,sans-Serif" font-size="10.00">physicalPageSizeMask</text>
</g>
<!-- Node5 -->
<g id="node5" class="node">
<title>Node5</title>
<g id="a_node5"><a xlink:href="classe57_1_1_buffer_view.html" target="_top" xlink:title=" ">
<polygon fill="white" stroke="black" points="299.5,-152 299.5,-171 385.5,-171 385.5,-152 299.5,-152"/>
<text text-anchor="middle" x="342.5" y="-159" font-family="Helvetica,sans-Serif" font-size="10.00">e57::BufferView</text>
</a>
</g>
</g>
<!-- Node3&#45;&gt;Node5 -->
<g id="edge6" class="edge">
<title>Node3&#45;&gt;Node5</title>
<path fill="none" stroke="#9a32cd" stroke-dasharray="5,2" d="M204.71,-231.81C238.61,-214.76 296.71,-185.54 325.41,-171.1"/>
<polygon fill="#9a32cd" stroke="#9a32cd" points="202.79,-228.86 195.43,-236.48 205.94,-235.11 202.79,-228.86"/>
<text text-anchor="middle" x="307.5" y="-210" font-family="Helvetica,sans-Serif" font-size="10.00"> streamSize_</text>
<text text-anchor="middle" x="307.5" y="-199" font-family="Helvetica,sans-Serif" font-size="10.00">cursorStream_</text>
</g>
<!-- Node4&#45;&gt;Node1 -->
<g id="edge3" class="edge">
<title>Node4&#45;&gt;Node1</title>
<path fill="none" stroke="#9a32cd" stroke-dasharray="5,2" d="M159.45,-60.71C143.49,-47.91 121.29,-30.09 108.25,-19.63"/>
<polygon fill="#9a32cd" stroke="#9a32cd" points="157.59,-63.7 167.58,-67.23 161.97,-58.25 157.59,-63.7"/>
<text text-anchor="middle" x="152" y="-41" font-family="Helvetica,sans-Serif" font-size="10.00"> cf_</text>
</g>
<!-- Node5&#45;&gt;Node4 -->
<g id="edge5" class="edge">
<title>Node5&#45;&gt;Node4</title>
<path fill="none" stroke="#9a32cd" stroke-dasharray="5,2" d="M316.29,-147.31C282.39,-130.26 224.29,-101.04 195.59,-86.6"/>
<polygon fill="#9a32cd" stroke="#9a32cd" points="315.06,-150.61 325.57,-151.98 318.21,-144.36 315.06,-150.61"/>
<text text-anchor="middle" x="297.5" y="-113.5" font-family="Helvetica,sans-Serif" font-size="10.00"> bufView_</text>
</g>
</g>
</svg>
