<?xml version="1.0" encoding="UTF-8" standalone="no"?>
<!DOCTYPE svg PUBLIC "-//W3C//DTD SVG 1.1//EN"
 "http://www.w3.org/Graphics/SVG/1.1/DTD/svg11.dtd">
<!-- Generated by graphviz version 2.44.0 (20200408.0750)
 -->
<!-- Title: e57::PacketLock Pages: 1 -->
<svg width="260pt" height="320pt"
 viewBox="0.00 0.00 259.50 320.00" xmlns="http://www.w3.org/2000/svg" xmlns:xlink="http://www.w3.org/1999/xlink">
<g id="graph0" class="graph" transform="scale(1 1) rotate(0) translate(4 316)">
<title>e57::PacketLock</title>
<polygon fill="white" stroke="transparent" points="-4,4 -4,-316 255.5,-316 255.5,4 -4,4"/>
<!-- Node1 -->
<g id="node1" class="node">
<title>Node1</title>
<g id="a_node1"><a xlink:title=" ">
<polygon fill="#bfbfbf" stroke="black" points="15.5,-0.5 15.5,-19.5 105.5,-19.5 105.5,-0.5 15.5,-0.5"/>
<text text-anchor="middle" x="60.5" y="-7.5" font-family="Helvetica,sans-Serif" font-size="10.00">e57::PacketLock</text>
</a>
</g>
</g>
<!-- Node2 -->
<g id="node2" class="node">
<title>Node2</title>
<g id="a_node2"><a xlink:href="classe57_1_1_packet_read_cache.html" target="_top" xlink:title=" ">
<polygon fill="white" stroke="black" points="0,-67.5 0,-86.5 121,-86.5 121,-67.5 0,-67.5"/>
<text text-anchor="middle" x="60.5" y="-74.5" font-family="Helvetica,sans-Serif" font-size="10.00">e57::PacketReadCache</text>
</a>
</g>
</g>
<!-- Node2&#45;&gt;Node1 -->
<g id="edge1" class="edge">
<title>Node2&#45;&gt;Node1</title>
<path fill="none" stroke="#9a32cd" stroke-dasharray="5,2" d="M60.5,-57.04C60.5,-44.67 60.5,-29.12 60.5,-19.63"/>
<polygon fill="#9a32cd" stroke="#9a32cd" points="57,-57.23 60.5,-67.23 64,-57.23 57,-57.23"/>
<text text-anchor="middle" x="78" y="-41" font-family="Helvetica,sans-Serif" font-size="10.00"> cache_</text>
</g>
<!-- Node3 -->
<g id="node3" class="node">
<title>Node3</title>
<g id="a_node3"><a xlink:href="classe57_1_1_checked_file.html" target="_top" xlink:title=" ">
<polygon fill="white" stroke="black" points="14,-134.5 14,-153.5 107,-153.5 107,-134.5 14,-134.5"/>
<text text-anchor="middle" x="60.5" y="-141.5" font-family="Helvetica,sans-Serif" font-size="10.00">e57::CheckedFile</text>
</a>
</g>
</g>
<!-- Node3&#45;&gt;Node2 -->
<g id="edge2" class="edge">
<title>Node3&#45;&gt;Node2</title>
<path fill="none" stroke="#9a32cd" stroke-dasharray="5,2" d="M60.5,-124.04C60.5,-111.67 60.5,-96.12 60.5,-86.63"/>
<polygon fill="#9a32cd" stroke="#9a32cd" points="57,-124.23 60.5,-134.23 64,-124.23 57,-124.23"/>
<text text-anchor="middle" x="75.5" y="-108" font-family="Helvetica,sans-Serif" font-size="10.00"> cFile_</text>
</g>
<!-- Node4 -->
<g id="node4" class="node">
<title>Node4</title>
<g id="a_node4"><a xlink:title=" ">
<polygon fill="white" stroke="#bfbfbf" points="35,-292.5 35,-311.5 86,-311.5 86,-292.5 35,-292.5"/>
<text text-anchor="middle" x="60.5" y="-299.5" font-family="Helvetica,sans-Serif" font-size="10.00">uint64_t</text>
</a>
</g>
</g>
<!-- Node4&#45;&gt;Node3 -->
<g id="edge3" class="edge">
<title>Node4&#45;&gt;Node3</title>
<path fill="none" stroke="#9a32cd" stroke-dasharray="5,2" d="M57.74,-282.49C55.09,-262.42 51.73,-229.45 53.5,-201 54.55,-184.18 57.35,-164.68 59.07,-153.7"/>
<polygon fill="#9a32cd" stroke="#9a32cd" points="54.28,-283.03 59.14,-292.44 61.21,-282.05 54.28,-283.03"/>
<text text-anchor="middle" x="105" y="-226" font-family="Helvetica,sans-Serif" font-size="10.00"> logicalLength_</text>
<text text-anchor="middle" x="105" y="-215" font-family="Helvetica,sans-Serif" font-size="10.00">physicalLength_</text>
<text text-anchor="middle" x="105" y="-204" font-family="Helvetica,sans-Serif" font-size="10.00">physicalPageSizeMask</text>
</g>
<!-- Node5 -->
<g id="node5" class="node">
<title>Node5</title>
<g id="a_node5"><a xlink:href="classe57_1_1_buffer_view.html" target="_top" xlink:title=" ">
<polygon fill="white" stroke="black" points="165.5,-208 165.5,-227 251.5,-227 251.5,-208 165.5,-208"/>
<text text-anchor="middle" x="208.5" y="-215" font-family="Helvetica,sans-Serif" font-size="10.00">e57::BufferView</text>
</a>
</g>
</g>
<!-- Node4&#45;&gt;Node5 -->
<g id="edge5" class="edge">
<title>Node4&#45;&gt;Node5</title>
<path fill="none" stroke="#9a32cd" stroke-dasharray="5,2" d="M84.55,-287.59C115.2,-270.51 167.28,-241.48 193.08,-227.1"/>
<polygon fill="#9a32cd" stroke="#9a32cd" points="82.81,-284.56 75.78,-292.48 86.22,-290.67 82.81,-284.56"/>
<text text-anchor="middle" x="179.5" y="-266" font-family="Helvetica,sans-Serif" font-size="10.00"> streamSize_</text>
<text text-anchor="middle" x="179.5" y="-255" font-family="Helvetica,sans-Serif" font-size="10.00">cursorStream_</text>
</g>
<!-- Node5&#45;&gt;Node3 -->
<g id="edge4" class="edge">
<title>Node5&#45;&gt;Node3</title>
<path fill="none" stroke="#9a32cd" stroke-dasharray="5,2" d="M181.6,-203.5C151.66,-189.04 104.12,-166.07 78.42,-153.66"/>
<polygon fill="#9a32cd" stroke="#9a32cd" points="180.12,-206.68 190.65,-207.88 183.17,-200.37 180.12,-206.68"/>
<text text-anchor="middle" x="160.5" y="-175" font-family="Helvetica,sans-Serif" font-size="10.00"> bufView_</text>
</g>
</g>
</svg>
