<?xml version="1.0" encoding="UTF-8" standalone="no"?>
<!DOCTYPE svg PUBLIC "-//W3C//DTD SVG 1.1//EN"
 "http://www.w3.org/Graphics/SVG/1.1/DTD/svg11.dtd">
<!-- Generated by graphviz version 2.44.0 (20200408.0750)
 -->
<!-- Title: e57::ReaderImpl Pages: 1 -->
<svg width="317pt" height="106pt"
 viewBox="0.00 0.00 317.00 106.00" xmlns="http://www.w3.org/2000/svg" xmlns:xlink="http://www.w3.org/1999/xlink">
<g id="graph0" class="graph" transform="scale(1 1) rotate(0) translate(4 102)">
<title>e57::ReaderImpl</title>
<polygon fill="white" stroke="transparent" points="-4,4 -4,-102 313,-102 313,4 -4,4"/>
<!-- Node1 -->
<g id="node1" class="node">
<title>Node1</title>
<g id="a_node1"><a xlink:title="most of the functions follows Reader">
<polygon fill="#bfbfbf" stroke="black" points="120,-0.5 120,-19.5 209,-19.5 209,-0.5 120,-0.5"/>
<text text-anchor="middle" x="164.5" y="-7.5" font-family="Helvetica,sans-Serif" font-size="10.00">e57::ReaderImpl</text>
</a>
</g>
</g>
<!-- Node2 -->
<g id="node2" class="node">
<title>Node2</title>
<g id="a_node2"><a xlink:href="classe57_1_1_structure_node.html" target="_top" xlink:title=" ">
<polygon fill="white" stroke="black" points="0,-78.5 0,-97.5 101,-97.5 101,-78.5 0,-78.5"/>
<text text-anchor="middle" x="50.5" y="-85.5" font-family="Helvetica,sans-Serif" font-size="10.00">e57::StructureNode</text>
</a>
</g>
</g>
<!-- Node2&#45;&gt;Node1 -->
<g id="edge1" class="edge">
<title>Node2&#45;&gt;Node1</title>
<path fill="none" stroke="#9a32cd" stroke-dasharray="5,2" d="M72.15,-72.57C95.6,-56.93 132.25,-32.5 151.58,-19.62"/>
<polygon fill="#9a32cd" stroke="#9a32cd" points="69.96,-69.82 63.58,-78.28 73.84,-75.65 69.96,-69.82"/>
<text text-anchor="middle" x="134" y="-46.5" font-family="Helvetica,sans-Serif" font-size="10.00"> root_</text>
</g>
<!-- Node3 -->
<g id="node3" class="node">
<title>Node3</title>
<g id="a_node3"><a xlink:href="classe57_1_1_vector_node.html" target="_top" xlink:title=" ">
<polygon fill="white" stroke="black" points="119.5,-78.5 119.5,-97.5 209.5,-97.5 209.5,-78.5 119.5,-78.5"/>
<text text-anchor="middle" x="164.5" y="-85.5" font-family="Helvetica,sans-Serif" font-size="10.00">e57::VectorNode</text>
</a>
</g>
</g>
<!-- Node3&#45;&gt;Node1 -->
<g id="edge2" class="edge">
<title>Node3&#45;&gt;Node1</title>
<path fill="none" stroke="#9a32cd" stroke-dasharray="5,2" d="M164.5,-68.22C164.5,-52.7 164.5,-31.36 164.5,-19.62"/>
<polygon fill="#9a32cd" stroke="#9a32cd" points="161,-68.28 164.5,-78.28 168,-68.28 161,-68.28"/>
<text text-anchor="middle" x="189.5" y="-52" font-family="Helvetica,sans-Serif" font-size="10.00"> data3D_</text>
<text text-anchor="middle" x="189.5" y="-41" font-family="Helvetica,sans-Serif" font-size="10.00">images2D_</text>
</g>
<!-- Node4 -->
<g id="node4" class="node">
<title>Node4</title>
<g id="a_node4"><a xlink:href="classe57_1_1_image_file.html" target="_top" xlink:title=" ">
<polygon fill="white" stroke="black" points="228,-78.5 228,-97.5 309,-97.5 309,-78.5 228,-78.5"/>
<text text-anchor="middle" x="268.5" y="-85.5" font-family="Helvetica,sans-Serif" font-size="10.00">e57::ImageFile</text>
</a>
</g>
</g>
<!-- Node4&#45;&gt;Node1 -->
<g id="edge3" class="edge">
<title>Node4&#45;&gt;Node1</title>
<path fill="none" stroke="#9a32cd" stroke-dasharray="5,2" d="M254.32,-70.7C244.87,-60.47 231.77,-47.47 218.5,-38 208.26,-30.7 195.75,-24.31 185.36,-19.58"/>
<polygon fill="#9a32cd" stroke="#9a32cd" points="251.77,-73.09 261.06,-78.19 256.97,-68.41 251.77,-73.09"/>
<text text-anchor="middle" x="253.5" y="-46.5" font-family="Helvetica,sans-Serif" font-size="10.00"> imf_</text>
</g>
</g>
</svg>
