<?xml version="1.0" encoding="UTF-8" standalone="no"?>
<!DOCTYPE svg PUBLIC "-//W3C//DTD SVG 1.1//EN"
 "http://www.w3.org/Graphics/SVG/1.1/DTD/svg11.dtd">
<!-- Generated by graphviz version 2.44.0 (20200408.0750)
 -->
<!-- Title: e57::BitpackEncoder Pages: 1 -->
<svg width="201pt" height="95pt"
 viewBox="0.00 0.00 201.00 95.00" xmlns="http://www.w3.org/2000/svg" xmlns:xlink="http://www.w3.org/1999/xlink">
<g id="graph0" class="graph" transform="scale(1 1) rotate(0) translate(4 91)">
<title>e57::BitpackEncoder</title>
<polygon fill="white" stroke="transparent" points="-4,4 -4,-91 197,-91 197,4 -4,4"/>
<!-- Node1 -->
<g id="node1" class="node">
<title>Node1</title>
<g id="a_node1"><a xlink:title=" ">
<polygon fill="#bfbfbf" stroke="black" points="23.5,-0.5 23.5,-19.5 130.5,-19.5 130.5,-0.5 23.5,-0.5"/>
<text text-anchor="middle" x="77" y="-7.5" font-family="Helvetica,sans-Serif" font-size="10.00">e57::BitpackEncoder</text>
</a>
</g>
</g>
<!-- Node2 -->
<g id="node2" class="node">
<title>Node2</title>
<g id="a_node2"><a xlink:href="classe57_1_1_encoder.html" target="_top" xlink:title=" ">
<polygon fill="white" stroke="black" points="0,-67.5 0,-86.5 74,-86.5 74,-67.5 0,-67.5"/>
<text text-anchor="middle" x="37" y="-74.5" font-family="Helvetica,sans-Serif" font-size="10.00">e57::Encoder</text>
</a>
</g>
</g>
<!-- Node2&#45;&gt;Node1 -->
<g id="edge1" class="edge">
<title>Node2&#45;&gt;Node1</title>
<path fill="none" stroke="midnightblue" d="M47.75,-58.53C55.49,-45.95 65.61,-29.51 71.69,-19.63"/>
<polygon fill="midnightblue" stroke="midnightblue" points="44.65,-56.88 42.39,-67.23 50.62,-60.55 44.65,-56.88"/>
</g>
<!-- Node3 -->
<g id="node3" class="node">
<title>Node3</title>
<g id="a_node3"><a xlink:title=" ">
<polygon fill="white" stroke="#bfbfbf" points="92.5,-67.5 92.5,-86.5 143.5,-86.5 143.5,-67.5 92.5,-67.5"/>
<text text-anchor="middle" x="118" y="-74.5" font-family="Helvetica,sans-Serif" font-size="10.00">uint64_t</text>
</a>
</g>
</g>
<!-- Node3&#45;&gt;Node1 -->
<g id="edge2" class="edge">
<title>Node3&#45;&gt;Node1</title>
<path fill="none" stroke="#9a32cd" stroke-dasharray="5,2" d="M106.98,-58.53C99.05,-45.95 88.67,-29.51 82.44,-19.63"/>
<polygon fill="#9a32cd" stroke="#9a32cd" points="104.18,-60.64 112.47,-67.23 110.1,-56.91 104.18,-60.64"/>
<text text-anchor="middle" x="146" y="-41" font-family="Helvetica,sans-Serif" font-size="10.00"> currentRecordIndex_</text>
</g>
</g>
</svg>
