<?xml version="1.0" encoding="UTF-8" standalone="no"?>
<!DOCTYPE svg PUBLIC "-//W3C//DTD SVG 1.1//EN"
 "http://www.w3.org/Graphics/SVG/1.1/DTD/svg11.dtd">
<!-- Generated by graphviz version 2.44.0 (20200408.0750)
 -->
<!-- Title: e57::BitpackIntegerDecoder&lt; RegisterT &gt; Pages: 1 -->
<svg width="226pt" height="195pt"
 viewBox="0.00 0.00 225.50 195.00" xmlns="http://www.w3.org/2000/svg" xmlns:xlink="http://www.w3.org/1999/xlink">
<g id="graph0" class="graph" transform="scale(1 1) rotate(0) translate(4 191)">
<title>e57::BitpackIntegerDecoder&lt; RegisterT &gt;</title>
<polygon fill="white" stroke="transparent" points="-4,4 -4,-191 221.5,-191 221.5,4 -4,4"/>
<!-- Node1 -->
<g id="node1" class="node">
<title>Node1</title>
<g id="a_node1"><a xlink:title=" ">
<polygon fill="#bfbfbf" stroke="black" points="79.5,-0.5 79.5,-30.5 217.5,-30.5 217.5,-0.5 79.5,-0.5"/>
<text text-anchor="start" x="87.5" y="-18.5" font-family="Helvetica,sans-Serif" font-size="10.00">e57::BitpackIntegerDecoder</text>
<text text-anchor="middle" x="148.5" y="-7.5" font-family="Helvetica,sans-Serif" font-size="10.00">&lt; RegisterT &gt;</text>
</a>
</g>
</g>
<!-- Node2 -->
<g id="node2" class="node">
<title>Node2</title>
<g id="a_node2"><a xlink:href="classe57_1_1_bitpack_decoder.html" target="_top" xlink:title=" ">
<polygon fill="white" stroke="black" points="23.5,-89.5 23.5,-108.5 131.5,-108.5 131.5,-89.5 23.5,-89.5"/>
<text text-anchor="middle" x="77.5" y="-96.5" font-family="Helvetica,sans-Serif" font-size="10.00">e57::BitpackDecoder</text>
</a>
</g>
</g>
<!-- Node2&#45;&gt;Node1 -->
<g id="edge1" class="edge">
<title>Node2&#45;&gt;Node1</title>
<path fill="none" stroke="midnightblue" d="M91.99,-81.37C105.01,-66.42 123.92,-44.71 136.22,-30.6"/>
<polygon fill="midnightblue" stroke="midnightblue" points="89.03,-79.44 85.1,-89.28 94.31,-84.04 89.03,-79.44"/>
</g>
<!-- Node3 -->
<g id="node3" class="node">
<title>Node3</title>
<g id="a_node3"><a xlink:href="classe57_1_1_decoder.html" target="_top" xlink:title=" ">
<polygon fill="white" stroke="black" points="0,-167.5 0,-186.5 75,-186.5 75,-167.5 0,-167.5"/>
<text text-anchor="middle" x="37.5" y="-174.5" font-family="Helvetica,sans-Serif" font-size="10.00">e57::Decoder</text>
</a>
</g>
</g>
<!-- Node3&#45;&gt;Node2 -->
<g id="edge2" class="edge">
<title>Node3&#45;&gt;Node2</title>
<path fill="none" stroke="midnightblue" d="M46.91,-158.12C55.12,-142.53 66.67,-120.59 72.97,-108.62"/>
<polygon fill="midnightblue" stroke="midnightblue" points="43.65,-156.8 42.09,-167.28 49.84,-160.06 43.65,-156.8"/>
</g>
<!-- Node4 -->
<g id="node4" class="node">
<title>Node4</title>
<g id="a_node4"><a xlink:title=" ">
<polygon fill="white" stroke="#bfbfbf" points="93,-167.5 93,-186.5 144,-186.5 144,-167.5 93,-167.5"/>
<text text-anchor="middle" x="118.5" y="-174.5" font-family="Helvetica,sans-Serif" font-size="10.00">uint64_t</text>
</a>
</g>
</g>
<!-- Node4&#45;&gt;Node2 -->
<g id="edge3" class="edge">
<title>Node4&#45;&gt;Node2</title>
<path fill="none" stroke="#9a32cd" stroke-dasharray="5,2" d="M108.86,-158.12C100.44,-142.53 88.61,-120.59 82.15,-108.62"/>
<polygon fill="#9a32cd" stroke="#9a32cd" points="105.97,-160.14 113.8,-167.28 112.13,-156.82 105.97,-160.14"/>
<text text-anchor="middle" x="149" y="-141" font-family="Helvetica,sans-Serif" font-size="10.00"> maxRecordCount_</text>
<text text-anchor="middle" x="149" y="-130" font-family="Helvetica,sans-Serif" font-size="10.00">currentRecordIndex_</text>
</g>
<!-- Node5 -->
<g id="node5" class="node">
<title>Node5</title>
<g id="a_node5"><a xlink:title=" ">
<polygon fill="white" stroke="#bfbfbf" points="149.5,-89.5 149.5,-108.5 195.5,-108.5 195.5,-89.5 149.5,-89.5"/>
<text text-anchor="middle" x="172.5" y="-96.5" font-family="Helvetica,sans-Serif" font-size="10.00">int64_t</text>
</a>
</g>
</g>
<!-- Node5&#45;&gt;Node1 -->
<g id="edge4" class="edge">
<title>Node5&#45;&gt;Node1</title>
<path fill="none" stroke="#9a32cd" stroke-dasharray="5,2" d="M167.1,-79.66C162.73,-64.81 156.65,-44.18 152.65,-30.6"/>
<polygon fill="#9a32cd" stroke="#9a32cd" points="163.75,-80.67 169.93,-89.28 170.46,-78.7 163.75,-80.67"/>
<text text-anchor="middle" x="188" y="-63" font-family="Helvetica,sans-Serif" font-size="10.00"> minimum_</text>
<text text-anchor="middle" x="188" y="-52" font-family="Helvetica,sans-Serif" font-size="10.00">maximum_</text>
</g>
</g>
</svg>
