<?xml version="1.0" encoding="UTF-8" standalone="no"?>
<!DOCTYPE svg PUBLIC "-//W3C//DTD SVG 1.1//EN"
 "http://www.w3.org/Graphics/SVG/1.1/DTD/svg11.dtd">
<!-- Generated by graphviz version 2.44.0 (20200408.0750)
 -->
<!-- Title: e57::BitpackFloatDecoder Pages: 1 -->
<svg width="202pt" height="163pt"
 viewBox="0.00 0.00 201.50 163.00" xmlns="http://www.w3.org/2000/svg" xmlns:xlink="http://www.w3.org/1999/xlink">
<g id="graph0" class="graph" transform="scale(1 1) rotate(0) translate(4 159)">
<title>e57::BitpackFloatDecoder</title>
<polygon fill="white" stroke="transparent" points="-4,4 -4,-159 197.5,-159 197.5,4 -4,4"/>
<!-- Node1 -->
<g id="node1" class="node">
<title>Node1</title>
<g id="a_node1"><a xlink:title=" ">
<polygon fill="#bfbfbf" stroke="black" points="12.5,-0.5 12.5,-19.5 142.5,-19.5 142.5,-0.5 12.5,-0.5"/>
<text text-anchor="middle" x="77.5" y="-7.5" font-family="Helvetica,sans-Serif" font-size="10.00">e57::BitpackFloatDecoder</text>
</a>
</g>
</g>
<!-- Node2 -->
<g id="node2" class="node">
<title>Node2</title>
<g id="a_node2"><a xlink:href="classe57_1_1_bitpack_decoder.html" target="_top" xlink:title=" ">
<polygon fill="white" stroke="black" points="23.5,-57.5 23.5,-76.5 131.5,-76.5 131.5,-57.5 23.5,-57.5"/>
<text text-anchor="middle" x="77.5" y="-64.5" font-family="Helvetica,sans-Serif" font-size="10.00">e57::BitpackDecoder</text>
</a>
</g>
</g>
<!-- Node2&#45;&gt;Node1 -->
<g id="edge1" class="edge">
<title>Node2&#45;&gt;Node1</title>
<path fill="none" stroke="midnightblue" d="M77.5,-47.12C77.5,-37.82 77.5,-27.06 77.5,-19.71"/>
<polygon fill="midnightblue" stroke="midnightblue" points="74,-47.41 77.5,-57.41 81,-47.41 74,-47.41"/>
</g>
<!-- Node3 -->
<g id="node3" class="node">
<title>Node3</title>
<g id="a_node3"><a xlink:href="classe57_1_1_decoder.html" target="_top" xlink:title=" ">
<polygon fill="white" stroke="black" points="0,-135.5 0,-154.5 75,-154.5 75,-135.5 0,-135.5"/>
<text text-anchor="middle" x="37.5" y="-142.5" font-family="Helvetica,sans-Serif" font-size="10.00">e57::Decoder</text>
</a>
</g>
</g>
<!-- Node3&#45;&gt;Node2 -->
<g id="edge2" class="edge">
<title>Node3&#45;&gt;Node2</title>
<path fill="none" stroke="midnightblue" d="M46.91,-126.12C55.12,-110.53 66.67,-88.59 72.97,-76.62"/>
<polygon fill="midnightblue" stroke="midnightblue" points="43.65,-124.8 42.09,-135.28 49.84,-128.06 43.65,-124.8"/>
</g>
<!-- Node4 -->
<g id="node4" class="node">
<title>Node4</title>
<g id="a_node4"><a xlink:title=" ">
<polygon fill="white" stroke="#bfbfbf" points="93,-135.5 93,-154.5 144,-154.5 144,-135.5 93,-135.5"/>
<text text-anchor="middle" x="118.5" y="-142.5" font-family="Helvetica,sans-Serif" font-size="10.00">uint64_t</text>
</a>
</g>
</g>
<!-- Node4&#45;&gt;Node2 -->
<g id="edge3" class="edge">
<title>Node4&#45;&gt;Node2</title>
<path fill="none" stroke="#9a32cd" stroke-dasharray="5,2" d="M108.86,-126.12C100.44,-110.53 88.61,-88.59 82.15,-76.62"/>
<polygon fill="#9a32cd" stroke="#9a32cd" points="105.97,-128.14 113.8,-135.28 112.13,-124.82 105.97,-128.14"/>
<text text-anchor="middle" x="148" y="-109" font-family="Helvetica,sans-Serif" font-size="10.00"> maxRecordCount_</text>
<text text-anchor="middle" x="148" y="-98" font-family="Helvetica,sans-Serif" font-size="10.00">currentRecordIndex_</text>
</g>
</g>
</svg>
