<?xml version="1.0" encoding="UTF-8" standalone="no"?>
<!DOCTYPE svg PUBLIC "-//W3C//DTD SVG 1.1//EN"
 "http://www.w3.org/Graphics/SVG/1.1/DTD/svg11.dtd">
<!-- Generated by graphviz version 2.44.0 (20200408.0750)
 -->
<!-- Title: e57::BitpackStringEncoder Pages: 1 -->
<svg width="267pt" height="152pt"
 viewBox="0.00 0.00 267.00 152.00" xmlns="http://www.w3.org/2000/svg" xmlns:xlink="http://www.w3.org/1999/xlink">
<g id="graph0" class="graph" transform="scale(1 1) rotate(0) translate(4 148)">
<title>e57::BitpackStringEncoder</title>
<polygon fill="white" stroke="transparent" points="-4,4 -4,-148 263,-148 263,4 -4,4"/>
<!-- Node1 -->
<g id="node1" class="node">
<title>Node1</title>
<g id="a_node1"><a xlink:title=" ">
<polygon fill="#bfbfbf" stroke="black" points="57.5,-0.5 57.5,-19.5 190.5,-19.5 190.5,-0.5 57.5,-0.5"/>
<text text-anchor="middle" x="124" y="-7.5" font-family="Helvetica,sans-Serif" font-size="10.00">e57::BitpackStringEncoder</text>
</a>
</g>
</g>
<!-- Node2 -->
<g id="node2" class="node">
<title>Node2</title>
<g id="a_node2"><a xlink:href="classe57_1_1_bitpack_encoder.html" target="_top" xlink:title=" ">
<polygon fill="white" stroke="black" points="16.5,-57.5 16.5,-76.5 123.5,-76.5 123.5,-57.5 16.5,-57.5"/>
<text text-anchor="middle" x="70" y="-64.5" font-family="Helvetica,sans-Serif" font-size="10.00">e57::BitpackEncoder</text>
</a>
</g>
</g>
<!-- Node2&#45;&gt;Node1 -->
<g id="edge1" class="edge">
<title>Node2&#45;&gt;Node1</title>
<path fill="none" stroke="midnightblue" d="M85.59,-50.12C95.31,-40.22 107.44,-27.86 115.44,-19.71"/>
<polygon fill="midnightblue" stroke="midnightblue" points="82.95,-47.82 78.44,-57.41 87.94,-52.72 82.95,-47.82"/>
</g>
<!-- Node3 -->
<g id="node3" class="node">
<title>Node3</title>
<g id="a_node3"><a xlink:href="classe57_1_1_encoder.html" target="_top" xlink:title=" ">
<polygon fill="white" stroke="black" points="0,-124.5 0,-143.5 74,-143.5 74,-124.5 0,-124.5"/>
<text text-anchor="middle" x="37" y="-131.5" font-family="Helvetica,sans-Serif" font-size="10.00">e57::Encoder</text>
</a>
</g>
</g>
<!-- Node3&#45;&gt;Node2 -->
<g id="edge2" class="edge">
<title>Node3&#45;&gt;Node2</title>
<path fill="none" stroke="midnightblue" d="M42.71,-114.54C44.96,-108.19 47.78,-101.14 51,-95 54.41,-88.5 59.16,-81.75 63.06,-76.63"/>
<polygon fill="midnightblue" stroke="midnightblue" points="39.31,-113.68 39.5,-124.28 45.96,-115.88 39.31,-113.68"/>
</g>
<!-- Node4 -->
<g id="node4" class="node">
<title>Node4</title>
<g id="a_node4"><a xlink:title=" ">
<polygon fill="white" stroke="#bfbfbf" points="122.5,-124.5 122.5,-143.5 173.5,-143.5 173.5,-124.5 122.5,-124.5"/>
<text text-anchor="middle" x="148" y="-131.5" font-family="Helvetica,sans-Serif" font-size="10.00">uint64_t</text>
</a>
</g>
</g>
<!-- Node4&#45;&gt;Node1 -->
<g id="edge4" class="edge">
<title>Node4&#45;&gt;Node1</title>
<path fill="none" stroke="#9a32cd" stroke-dasharray="5,2" d="M160.85,-115.67C162.56,-112.58 164.05,-109.3 165,-106 166.36,-101.3 166.1,-99.76 165,-95 158.21,-65.59 139.64,-34.57 130,-19.81"/>
<polygon fill="#9a32cd" stroke="#9a32cd" points="157.87,-113.83 155.38,-124.13 163.75,-117.63 157.87,-113.83"/>
<text text-anchor="middle" x="209" y="-64.5" font-family="Helvetica,sans-Serif" font-size="10.00"> totalBytesProcessed_</text>
</g>
<!-- Node4&#45;&gt;Node2 -->
<g id="edge3" class="edge">
<title>Node4&#45;&gt;Node2</title>
<path fill="none" stroke="#9a32cd" stroke-dasharray="5,2" d="M112.21,-129.39C96.98,-125.9 80.56,-119.11 71,-106 64.86,-97.57 65.92,-85.07 67.63,-76.74"/>
<polygon fill="#9a32cd" stroke="#9a32cd" points="111.99,-132.91 122.47,-131.32 113.29,-126.03 111.99,-132.91"/>
<text text-anchor="middle" x="118" y="-98" font-family="Helvetica,sans-Serif" font-size="10.00"> currentRecordIndex_</text>
</g>
</g>
</svg>
