<?xml version="1.0" encoding="UTF-8" standalone="no"?>
<!DOCTYPE svg PUBLIC "-//W3C//DTD SVG 1.1//EN"
 "http://www.w3.org/Graphics/SVG/1.1/DTD/svg11.dtd">
<!-- Generated by graphviz version 2.48.0 (20210717.1556)
 -->
<!-- Title: E57FileInputStream Pages: 1 -->
<svg width="415pt" height="275pt"
 viewBox="0.00 0.00 415.00 275.00" xmlns="http://www.w3.org/2000/svg" xmlns:xlink="http://www.w3.org/1999/xlink">
<g id="graph0" class="graph" transform="scale(1 1) rotate(0) translate(4 271)">
<title>E57FileInputStream</title>
<polygon fill="white" stroke="transparent" points="-4,4 -4,-271 411,-271 411,4 -4,4"/>
<!-- Node1 -->
<g id="node1" class="node">
<title>Node1</title>
<g id="a_node1"><a xlink:title=" ">
<polygon fill="#bfbfbf" stroke="black" points="61,-0.5 61,-19.5 166,-19.5 166,-0.5 61,-0.5"/>
<text text-anchor="middle" x="113.5" y="-7.5" font-family="Helvetica,sans-Serif" font-size="10.00">E57FileInputStream</text>
</a>
</g>
</g>
<!-- Node2 -->
<g id="node2" class="node">
<title>Node2</title>
<g id="a_node2"><a xlink:title=" ">
<polygon fill="white" stroke="#bfbfbf" points="0,-67.5 0,-86.5 85,-86.5 85,-67.5 0,-67.5"/>
<text text-anchor="middle" x="42.5" y="-74.5" font-family="Helvetica,sans-Serif" font-size="10.00">BinInputStream</text>
</a>
</g>
</g>
<!-- Node2&#45;&gt;Node1 -->
<g id="edge1" class="edge">
<title>Node2&#45;&gt;Node1</title>
<path fill="none" stroke="midnightblue" d="M59.59,-60.36C73.55,-47.58 92.76,-29.99 104.08,-19.63"/>
<polygon fill="midnightblue" stroke="midnightblue" points="57.09,-57.9 52.08,-67.23 61.81,-63.06 57.09,-57.9"/>
</g>
<!-- Node3 -->
<g id="node3" class="node">
<title>Node3</title>
<g id="a_node3"><a xlink:href="classe57_1_1_checked_file.html" target="_top" xlink:title=" ">
<polygon fill="white" stroke="black" points="151.5,-67.5 151.5,-86.5 245.5,-86.5 245.5,-67.5 151.5,-67.5"/>
<text text-anchor="middle" x="198.5" y="-74.5" font-family="Helvetica,sans-Serif" font-size="10.00">e57::CheckedFile</text>
</a>
</g>
</g>
<!-- Node3&#45;&gt;Node1 -->
<g id="edge2" class="edge">
<title>Node3&#45;&gt;Node1</title>
<path fill="none" stroke="#9a32cd" stroke-dasharray="5,2" d="M178.97,-61.07C162.2,-48.24 138.59,-30.19 124.78,-19.63"/>
<polygon fill="#9a32cd" stroke="#9a32cd" points="176.97,-63.94 187.04,-67.23 181.22,-58.38 176.97,-63.94"/>
<text text-anchor="middle" x="170" y="-41" font-family="Helvetica,sans-Serif" font-size="10.00"> cf_</text>
</g>
<!-- Node4 -->
<g id="node4" class="node">
<title>Node4</title>
<g id="a_node4"><a xlink:title=" ">
<polygon fill="white" stroke="#bfbfbf" points="172.5,-247.5 172.5,-266.5 224.5,-266.5 224.5,-247.5 172.5,-247.5"/>
<text text-anchor="middle" x="198.5" y="-254.5" font-family="Helvetica,sans-Serif" font-size="10.00">uint64_t</text>
</a>
</g>
</g>
<!-- Node4&#45;&gt;Node1 -->
<g id="edge6" class="edge">
<title>Node4&#45;&gt;Node1</title>
<path fill="none" stroke="#9a32cd" stroke-dasharray="5,2" d="M184.44,-239.39C166.96,-217.68 137.8,-177.7 124.5,-138 110.23,-95.4 111.67,-40.5 112.88,-19.6"/>
<polygon fill="#9a32cd" stroke="#9a32cd" points="181.88,-241.78 190.93,-247.28 187.28,-237.34 181.88,-241.78"/>
<text text-anchor="middle" x="159.5" y="-130" font-family="Helvetica,sans-Serif" font-size="10.00"> logicalLength_</text>
<text text-anchor="middle" x="159.5" y="-119" font-family="Helvetica,sans-Serif" font-size="10.00">logicalPosition_</text>
<text text-anchor="middle" x="159.5" y="-108" font-family="Helvetica,sans-Serif" font-size="10.00">logicalStart_</text>
</g>
<!-- Node4&#45;&gt;Node3 -->
<g id="edge3" class="edge">
<title>Node4&#45;&gt;Node3</title>
<path fill="none" stroke="#9a32cd" stroke-dasharray="5,2" d="M198.5,-237.25C198.5,-199.28 198.5,-114.57 198.5,-86.92"/>
<polygon fill="#9a32cd" stroke="#9a32cd" points="195,-237.41 198.5,-247.41 202,-237.41 195,-237.41"/>
<text text-anchor="middle" x="250" y="-181" font-family="Helvetica,sans-Serif" font-size="10.00"> logicalLength_</text>
<text text-anchor="middle" x="250" y="-170" font-family="Helvetica,sans-Serif" font-size="10.00">physicalLength_</text>
<text text-anchor="middle" x="250" y="-159" font-family="Helvetica,sans-Serif" font-size="10.00">physicalPageSizeMask</text>
</g>
<!-- Node5 -->
<g id="node5" class="node">
<title>Node5</title>
<g id="a_node5"><a xlink:href="classe57_1_1_buffer_view.html" target="_top" xlink:title=" ">
<polygon fill="white" stroke="black" points="320,-163 320,-182 407,-182 407,-163 320,-163"/>
<text text-anchor="middle" x="363.5" y="-170" font-family="Helvetica,sans-Serif" font-size="10.00">e57::BufferView</text>
</a>
</g>
</g>
<!-- Node4&#45;&gt;Node5 -->
<g id="edge5" class="edge">
<title>Node4&#45;&gt;Node5</title>
<path fill="none" stroke="#9a32cd" stroke-dasharray="5,2" d="M224.87,-242.81C258.98,-225.76 317.43,-196.54 346.31,-182.1"/>
<polygon fill="#9a32cd" stroke="#9a32cd" points="222.92,-239.88 215.54,-247.48 226.05,-246.14 222.92,-239.88"/>
<text text-anchor="middle" x="330" y="-221" font-family="Helvetica,sans-Serif" font-size="10.00"> cursorStream_</text>
<text text-anchor="middle" x="330" y="-210" font-family="Helvetica,sans-Serif" font-size="10.00">streamSize_</text>
</g>
<!-- Node5&#45;&gt;Node3 -->
<g id="edge4" class="edge">
<title>Node5&#45;&gt;Node3</title>
<path fill="none" stroke="#9a32cd" stroke-dasharray="5,2" d="M339.33,-157.8C304.81,-138.24 242.39,-102.87 213.69,-86.61"/>
<polygon fill="#9a32cd" stroke="#9a32cd" points="337.85,-160.99 348.27,-162.87 341.3,-154.9 337.85,-160.99"/>
<text text-anchor="middle" x="322.5" y="-119" font-family="Helvetica,sans-Serif" font-size="10.00"> bufView_</text>
</g>
</g>
</svg>
