<?xml version="1.0" encoding="UTF-8" standalone="no"?>
<!DOCTYPE svg PUBLIC "-//W3C//DTD SVG 1.1//EN"
 "http://www.w3.org/Graphics/SVG/1.1/DTD/svg11.dtd">
<!-- Generated by graphviz version 2.48.0 (20210717.1556)
 -->
<!-- Title: e57::BitpackEncoder Pages: 1 -->
<svg width="405pt" height="116pt"
 viewBox="0.00 0.00 405.00 116.00" xmlns="http://www.w3.org/2000/svg" xmlns:xlink="http://www.w3.org/1999/xlink">
<g id="graph0" class="graph" transform="scale(1 1) rotate(0) translate(4 112)">
<title>e57::BitpackEncoder</title>
<polygon fill="white" stroke="transparent" points="-4,4 -4,-112 401,-112 401,4 -4,4"/>
<!-- Node1 -->
<g id="node1" class="node">
<title>Node1</title>
<g id="a_node1"><a xlink:title=" ">
<polygon fill="#bfbfbf" stroke="black" points="112,-44.5 112,-63.5 221,-63.5 221,-44.5 112,-44.5"/>
<text text-anchor="middle" x="166.5" y="-51.5" font-family="Helvetica,sans-Serif" font-size="10.00">e57::BitpackEncoder</text>
</a>
</g>
</g>
<!-- Node3 -->
<g id="node3" class="node">
<title>Node3</title>
<g id="a_node3"><a xlink:href="classe57_1_1_bitpack_float_encoder.html" target="_top" xlink:title=" ">
<polygon fill="white" stroke="black" points="261.5,-88.5 261.5,-107.5 392.5,-107.5 392.5,-88.5 261.5,-88.5"/>
<text text-anchor="middle" x="327" y="-95.5" font-family="Helvetica,sans-Serif" font-size="10.00">e57::BitpackFloatEncoder</text>
</a>
</g>
</g>
<!-- Node1&#45;&gt;Node3 -->
<g id="edge2" class="edge">
<title>Node1&#45;&gt;Node3</title>
<path fill="none" stroke="midnightblue" d="M211.25,-66.26C225.8,-70.32 242.1,-74.87 257,-79 268.13,-82.09 280.29,-85.44 291.24,-88.46"/>
<polygon fill="midnightblue" stroke="midnightblue" points="212.06,-62.85 201.49,-63.53 210.18,-69.59 212.06,-62.85"/>
</g>
<!-- Node4 -->
<g id="node4" class="node">
<title>Node4</title>
<g id="a_node4"><a xlink:href="classe57_1_1_bitpack_integer_encoder.html" target="_top" xlink:title=" ">
<polygon fill="white" stroke="black" points="257,-39 257,-69 397,-69 397,-39 257,-39"/>
<text text-anchor="start" x="265" y="-57" font-family="Helvetica,sans-Serif" font-size="10.00">e57::BitpackIntegerEncoder</text>
<text text-anchor="middle" x="327" y="-46" font-family="Helvetica,sans-Serif" font-size="10.00">&lt; RegisterT &gt;</text>
</a>
</g>
</g>
<!-- Node1&#45;&gt;Node4 -->
<g id="edge3" class="edge">
<title>Node1&#45;&gt;Node4</title>
<path fill="none" stroke="midnightblue" d="M231.3,-54C239.74,-54 248.42,-54 256.94,-54"/>
<polygon fill="midnightblue" stroke="midnightblue" points="231.16,-50.5 221.16,-54 231.16,-57.5 231.16,-50.5"/>
</g>
<!-- Node5 -->
<g id="node5" class="node">
<title>Node5</title>
<g id="a_node5"><a xlink:href="classe57_1_1_bitpack_string_encoder.html" target="_top" xlink:title=" ">
<polygon fill="white" stroke="black" points="259.5,-0.5 259.5,-19.5 394.5,-19.5 394.5,-0.5 259.5,-0.5"/>
<text text-anchor="middle" x="327" y="-7.5" font-family="Helvetica,sans-Serif" font-size="10.00">e57::BitpackStringEncoder</text>
</a>
</g>
</g>
<!-- Node1&#45;&gt;Node5 -->
<g id="edge4" class="edge">
<title>Node1&#45;&gt;Node5</title>
<path fill="none" stroke="midnightblue" d="M211.25,-41.74C225.8,-37.68 242.1,-33.13 257,-29 268.13,-25.91 280.29,-22.56 291.24,-19.54"/>
<polygon fill="midnightblue" stroke="midnightblue" points="210.18,-38.41 201.49,-44.47 212.06,-45.15 210.18,-38.41"/>
</g>
<!-- Node2 -->
<g id="node2" class="node">
<title>Node2</title>
<g id="a_node2"><a xlink:href="classe57_1_1_encoder.html" target="_top" xlink:title=" ">
<polygon fill="white" stroke="black" points="0,-44.5 0,-63.5 76,-63.5 76,-44.5 0,-44.5"/>
<text text-anchor="middle" x="38" y="-51.5" font-family="Helvetica,sans-Serif" font-size="10.00">e57::Encoder</text>
</a>
</g>
</g>
<!-- Node2&#45;&gt;Node1 -->
<g id="edge1" class="edge">
<title>Node2&#45;&gt;Node1</title>
<path fill="none" stroke="midnightblue" d="M86.43,-54C94.65,-54 103.25,-54 111.62,-54"/>
<polygon fill="midnightblue" stroke="midnightblue" points="86.27,-50.5 76.27,-54 86.27,-57.5 86.27,-50.5"/>
</g>
</g>
</svg>
