<?xml version="1.0" encoding="UTF-8" standalone="no"?>
<!DOCTYPE svg PUBLIC "-//W3C//DTD SVG 1.1//EN"
 "http://www.w3.org/Graphics/SVG/1.1/DTD/svg11.dtd">
<!-- Generated by graphviz version 2.44.0 (20200408.0750)
 -->
<!-- Title: e57::DataPacketHeader Pages: 1 -->
<svg width="226pt" height="106pt"
 viewBox="0.00 0.00 225.50 106.00" xmlns="http://www.w3.org/2000/svg" xmlns:xlink="http://www.w3.org/1999/xlink">
<g id="graph0" class="graph" transform="scale(1 1) rotate(0) translate(4 102)">
<title>e57::DataPacketHeader</title>
<polygon fill="white" stroke="transparent" points="-4,4 -4,-102 221.5,-102 221.5,4 -4,4"/>
<!-- Node1 -->
<g id="node1" class="node">
<title>Node1</title>
<g id="a_node1"><a xlink:title=" ">
<polygon fill="#bfbfbf" stroke="black" points="36.5,-0.5 36.5,-19.5 158.5,-19.5 158.5,-0.5 36.5,-0.5"/>
<text text-anchor="middle" x="97.5" y="-7.5" font-family="Helvetica,sans-Serif" font-size="10.00">e57::DataPacketHeader</text>
</a>
</g>
</g>
<!-- Node2 -->
<g id="node2" class="node">
<title>Node2</title>
<g id="a_node2"><a xlink:title=" ">
<polygon fill="white" stroke="#bfbfbf" points="0,-78.5 0,-97.5 51,-97.5 51,-78.5 0,-78.5"/>
<text text-anchor="middle" x="25.5" y="-85.5" font-family="Helvetica,sans-Serif" font-size="10.00">uint16_t</text>
</a>
</g>
</g>
<!-- Node2&#45;&gt;Node1 -->
<g id="edge1" class="edge">
<title>Node2&#45;&gt;Node1</title>
<path fill="none" stroke="#9a32cd" stroke-dasharray="5,2" d="M21.2,-68.46C19.99,-58.57 20.37,-46.69 26.5,-38 32.58,-29.38 41.79,-23.51 51.59,-19.51"/>
<polygon fill="#9a32cd" stroke="#9a32cd" points="17.8,-69.29 23.03,-78.5 24.68,-68.03 17.8,-69.29"/>
<text text-anchor="middle" x="87" y="-52" font-family="Helvetica,sans-Serif" font-size="10.00"> bytestreamCount</text>
<text text-anchor="middle" x="87" y="-41" font-family="Helvetica,sans-Serif" font-size="10.00">packetLogicalLengthMinus1</text>
</g>
<!-- Node3 -->
<g id="node3" class="node">
<title>Node3</title>
<g id="a_node3"><a xlink:title=" ">
<polygon fill="white" stroke="#bfbfbf" points="146.5,-78.5 146.5,-97.5 192.5,-97.5 192.5,-78.5 146.5,-78.5"/>
<text text-anchor="middle" x="169.5" y="-85.5" font-family="Helvetica,sans-Serif" font-size="10.00">uint8_t</text>
</a>
</g>
</g>
<!-- Node3&#45;&gt;Node1 -->
<g id="edge2" class="edge">
<title>Node3&#45;&gt;Node1</title>
<path fill="none" stroke="#9a32cd" stroke-dasharray="5,2" d="M164.46,-68.66C160.98,-58.67 155.52,-46.63 147.5,-38 140.11,-30.05 129.84,-23.95 120.53,-19.57"/>
<polygon fill="#9a32cd" stroke="#9a32cd" points="161.18,-69.91 167.48,-78.43 167.87,-67.84 161.18,-69.91"/>
<text text-anchor="middle" x="189" y="-52" font-family="Helvetica,sans-Serif" font-size="10.00"> packetFlags</text>
<text text-anchor="middle" x="189" y="-41" font-family="Helvetica,sans-Serif" font-size="10.00">packetType</text>
</g>
</g>
</svg>
