<?xml version="1.0" encoding="UTF-8" standalone="no"?>
<!DOCTYPE svg PUBLIC "-//W3C//DTD SVG 1.1//EN"
 "http://www.w3.org/Graphics/SVG/1.1/DTD/svg11.dtd">
<!-- Generated by graphviz version 2.44.0 (20200408.0750)
 -->
<!-- Title: e57::BitpackIntegerDecoder&lt; RegisterT &gt; Pages: 1 -->
<svg width="146pt" height="151pt"
 viewBox="0.00 0.00 146.00 151.00" xmlns="http://www.w3.org/2000/svg" xmlns:xlink="http://www.w3.org/1999/xlink">
<g id="graph0" class="graph" transform="scale(1 1) rotate(0) translate(4 147)">
<title>e57::BitpackIntegerDecoder&lt; RegisterT &gt;</title>
<polygon fill="white" stroke="transparent" points="-4,4 -4,-147 142,-147 142,4 -4,4"/>
<!-- Node1 -->
<g id="node1" class="node">
<title>Node1</title>
<g id="a_node1"><a xlink:title=" ">
<polygon fill="#bfbfbf" stroke="black" points="0,-0.5 0,-30.5 138,-30.5 138,-0.5 0,-0.5"/>
<text text-anchor="start" x="8" y="-18.5" font-family="Helvetica,sans-Serif" font-size="10.00">e57::BitpackIntegerDecoder</text>
<text text-anchor="middle" x="69" y="-7.5" font-family="Helvetica,sans-Serif" font-size="10.00">&lt; RegisterT &gt;</text>
</a>
</g>
</g>
<!-- Node2 -->
<g id="node2" class="node">
<title>Node2</title>
<g id="a_node2"><a xlink:href="classe57_1_1_bitpack_decoder.html" target="_top" xlink:title=" ">
<polygon fill="white" stroke="black" points="15,-67.5 15,-86.5 123,-86.5 123,-67.5 15,-67.5"/>
<text text-anchor="middle" x="69" y="-74.5" font-family="Helvetica,sans-Serif" font-size="10.00">e57::BitpackDecoder</text>
</a>
</g>
</g>
<!-- Node2&#45;&gt;Node1 -->
<g id="edge1" class="edge">
<title>Node2&#45;&gt;Node1</title>
<path fill="none" stroke="midnightblue" d="M69,-57.23C69,-48.59 69,-38.5 69,-30.52"/>
<polygon fill="midnightblue" stroke="midnightblue" points="65.5,-57.48 69,-67.48 72.5,-57.48 65.5,-57.48"/>
</g>
<!-- Node3 -->
<g id="node3" class="node">
<title>Node3</title>
<g id="a_node3"><a xlink:href="classe57_1_1_decoder.html" target="_top" xlink:title=" ">
<polygon fill="white" stroke="black" points="31.5,-123.5 31.5,-142.5 106.5,-142.5 106.5,-123.5 31.5,-123.5"/>
<text text-anchor="middle" x="69" y="-130.5" font-family="Helvetica,sans-Serif" font-size="10.00">e57::Decoder</text>
</a>
</g>
</g>
<!-- Node3&#45;&gt;Node2 -->
<g id="edge2" class="edge">
<title>Node3&#45;&gt;Node2</title>
<path fill="none" stroke="midnightblue" d="M69,-112.8C69,-103.91 69,-93.78 69,-86.75"/>
<polygon fill="midnightblue" stroke="midnightblue" points="65.5,-113.08 69,-123.08 72.5,-113.08 65.5,-113.08"/>
</g>
</g>
</svg>
