<?xml version="1.0" encoding="UTF-8" standalone="no"?>
<!DOCTYPE svg PUBLIC "-//W3C//DTD SVG 1.1//EN"
 "http://www.w3.org/Graphics/SVG/1.1/DTD/svg11.dtd">
<!-- Generated by graphviz version 2.48.0 (20210717.1556)
 -->
<!-- Title: e57::BitpackFloatEncoder Pages: 1 -->
<svg width="206pt" height="152pt"
 viewBox="0.00 0.00 206.00 152.00" xmlns="http://www.w3.org/2000/svg" xmlns:xlink="http://www.w3.org/1999/xlink">
<g id="graph0" class="graph" transform="scale(1 1) rotate(0) translate(4 148)">
<title>e57::BitpackFloatEncoder</title>
<polygon fill="white" stroke="transparent" points="-4,4 -4,-148 202,-148 202,4 -4,4"/>
<!-- Node1 -->
<g id="node1" class="node">
<title>Node1</title>
<g id="a_node1"><a xlink:title=" ">
<polygon fill="#bfbfbf" stroke="black" points="13.5,-0.5 13.5,-19.5 144.5,-19.5 144.5,-0.5 13.5,-0.5"/>
<text text-anchor="middle" x="79" y="-7.5" font-family="Helvetica,sans-Serif" font-size="10.00">e57::BitpackFloatEncoder</text>
</a>
</g>
</g>
<!-- Node2 -->
<g id="node2" class="node">
<title>Node2</title>
<g id="a_node2"><a xlink:href="classe57_1_1_bitpack_encoder.html" target="_top" xlink:title=" ">
<polygon fill="white" stroke="black" points="24.5,-57.5 24.5,-76.5 133.5,-76.5 133.5,-57.5 24.5,-57.5"/>
<text text-anchor="middle" x="79" y="-64.5" font-family="Helvetica,sans-Serif" font-size="10.00">e57::BitpackEncoder</text>
</a>
</g>
</g>
<!-- Node2&#45;&gt;Node1 -->
<g id="edge1" class="edge">
<title>Node2&#45;&gt;Node1</title>
<path fill="none" stroke="midnightblue" d="M79,-47.12C79,-37.82 79,-27.06 79,-19.71"/>
<polygon fill="midnightblue" stroke="midnightblue" points="75.5,-47.41 79,-57.41 82.5,-47.41 75.5,-47.41"/>
</g>
<!-- Node3 -->
<g id="node3" class="node">
<title>Node3</title>
<g id="a_node3"><a xlink:href="classe57_1_1_encoder.html" target="_top" xlink:title=" ">
<polygon fill="white" stroke="black" points="0,-124.5 0,-143.5 76,-143.5 76,-124.5 0,-124.5"/>
<text text-anchor="middle" x="38" y="-131.5" font-family="Helvetica,sans-Serif" font-size="10.00">e57::Encoder</text>
</a>
</g>
</g>
<!-- Node3&#45;&gt;Node2 -->
<g id="edge2" class="edge">
<title>Node3&#45;&gt;Node2</title>
<path fill="none" stroke="midnightblue" d="M49.02,-115.53C56.95,-102.95 67.33,-86.51 73.56,-76.63"/>
<polygon fill="midnightblue" stroke="midnightblue" points="45.9,-113.91 43.53,-124.23 51.82,-117.64 45.9,-113.91"/>
</g>
<!-- Node4 -->
<g id="node4" class="node">
<title>Node4</title>
<g id="a_node4"><a xlink:title=" ">
<polygon fill="white" stroke="#bfbfbf" points="94,-124.5 94,-143.5 146,-143.5 146,-124.5 94,-124.5"/>
<text text-anchor="middle" x="120" y="-131.5" font-family="Helvetica,sans-Serif" font-size="10.00">uint64_t</text>
</a>
</g>
</g>
<!-- Node4&#45;&gt;Node2 -->
<g id="edge3" class="edge">
<title>Node4&#45;&gt;Node2</title>
<path fill="none" stroke="#9a32cd" stroke-dasharray="5,2" d="M108.98,-115.53C101.05,-102.95 90.67,-86.51 84.44,-76.63"/>
<polygon fill="#9a32cd" stroke="#9a32cd" points="106.18,-117.64 114.47,-124.23 112.1,-113.91 106.18,-117.64"/>
<text text-anchor="middle" x="149.5" y="-98" font-family="Helvetica,sans-Serif" font-size="10.00"> currentRecordIndex_</text>
</g>
</g>
</svg>
