<?xml version="1.0" encoding="UTF-8" standalone="no"?>
<!DOCTYPE svg PUBLIC "-//W3C//DTD SVG 1.1//EN"
 "http://www.w3.org/Graphics/SVG/1.1/DTD/svg11.dtd">
<!-- Generated by graphviz version 2.48.0 (20210717.1556)
 -->
<!-- Title: e57::BlobNodeImpl Pages: 1 -->
<svg width="275pt" height="207pt"
 viewBox="0.00 0.00 274.50 207.00" xmlns="http://www.w3.org/2000/svg" xmlns:xlink="http://www.w3.org/1999/xlink">
<g id="graph0" class="graph" transform="scale(1 1) rotate(0) translate(4 203)">
<title>e57::BlobNodeImpl</title>
<polygon fill="white" stroke="transparent" points="-4,4 -4,-203 270.5,-203 270.5,4 -4,4"/>
<!-- Node1 -->
<g id="node1" class="node">
<title>Node1</title>
<g id="a_node1"><a xlink:title=" ">
<polygon fill="#bfbfbf" stroke="black" points="73.5,-0.5 73.5,-19.5 175.5,-19.5 175.5,-0.5 73.5,-0.5"/>
<text text-anchor="middle" x="124.5" y="-7.5" font-family="Helvetica,sans-Serif" font-size="10.00">e57::BlobNodeImpl</text>
</a>
</g>
</g>
<!-- Node2 -->
<g id="node2" class="node">
<title>Node2</title>
<g id="a_node2"><a xlink:href="classe57_1_1_node_impl.html" target="_top" xlink:title=" ">
<polygon fill="white" stroke="black" points="20.5,-111.5 20.5,-130.5 102.5,-130.5 102.5,-111.5 20.5,-111.5"/>
<text text-anchor="middle" x="61.5" y="-118.5" font-family="Helvetica,sans-Serif" font-size="10.00">e57::NodeImpl</text>
</a>
</g>
</g>
<!-- Node2&#45;&gt;Node1 -->
<g id="edge1" class="edge">
<title>Node2&#45;&gt;Node1</title>
<path fill="none" stroke="midnightblue" d="M71.63,-102.48C85.34,-78.75 109.29,-37.31 119.58,-19.51"/>
<polygon fill="midnightblue" stroke="midnightblue" points="68.42,-101.04 66.44,-111.45 74.48,-104.54 68.42,-101.04"/>
</g>
<!-- Node3 -->
<g id="node3" class="node">
<title>Node3</title>
<g id="a_node3"><a xlink:title=" ">
<polygon fill="white" stroke="#bfbfbf" points="0,-168.5 0,-198.5 123,-198.5 123,-168.5 0,-168.5"/>
<text text-anchor="start" x="8" y="-186.5" font-family="Helvetica,sans-Serif" font-size="10.00">std::enable_shared</text>
<text text-anchor="middle" x="61.5" y="-175.5" font-family="Helvetica,sans-Serif" font-size="10.00">_from_this&lt; NodeImpl &gt;</text>
</a>
</g>
</g>
<!-- Node3&#45;&gt;Node2 -->
<g id="edge2" class="edge">
<title>Node3&#45;&gt;Node2</title>
<path fill="none" stroke="midnightblue" d="M61.5,-158.35C61.5,-148.51 61.5,-137.78 61.5,-130.54"/>
<polygon fill="midnightblue" stroke="midnightblue" points="58,-158.47 61.5,-168.47 65,-158.47 58,-158.47"/>
</g>
<!-- Node4 -->
<g id="node4" class="node">
<title>Node4</title>
<g id="a_node4"><a xlink:title=" ">
<polygon fill="white" stroke="#bfbfbf" points="120.5,-111.5 120.5,-130.5 172.5,-130.5 172.5,-111.5 120.5,-111.5"/>
<text text-anchor="middle" x="146.5" y="-118.5" font-family="Helvetica,sans-Serif" font-size="10.00">uint64_t</text>
</a>
</g>
</g>
<!-- Node4&#45;&gt;Node1 -->
<g id="edge3" class="edge">
<title>Node4&#45;&gt;Node1</title>
<path fill="none" stroke="#9a32cd" stroke-dasharray="5,2" d="M142.77,-101.52C137.95,-77.64 129.76,-37.07 126.22,-19.51"/>
<polygon fill="#9a32cd" stroke="#9a32cd" points="139.36,-102.34 144.77,-111.45 146.23,-100.95 139.36,-102.34"/>
<text text-anchor="start" x="140.5" y="-85" font-family="Helvetica,sans-Serif" font-size="10.00"> binarySectionLogicalLength</text>
<text text-anchor="middle" x="203.5" y="-74" font-family="Helvetica,sans-Serif" font-size="10.00">_</text>
<text text-anchor="start" x="140.5" y="-63" font-family="Helvetica,sans-Serif" font-size="10.00">binarySectionLogicalStart</text>
<text text-anchor="middle" x="203.5" y="-52" font-family="Helvetica,sans-Serif" font-size="10.00">_</text>
<text text-anchor="middle" x="203.5" y="-41" font-family="Helvetica,sans-Serif" font-size="10.00">blobLogicalLength_</text>
</g>
</g>
</svg>
