<?xml version="1.0" encoding="UTF-8" standalone="no"?>
<!DOCTYPE svg PUBLIC "-//W3C//DTD SVG 1.1//EN"
 "http://www.w3.org/Graphics/SVG/1.1/DTD/svg11.dtd">
<!-- Generated by graphviz version 2.44.0 (20200408.0750)
 -->
<!-- Title: e57::BitpackStringDecoder Pages: 1 -->
<svg width="334pt" height="175pt"
 viewBox="0.00 0.00 333.50 175.00" xmlns="http://www.w3.org/2000/svg" xmlns:xlink="http://www.w3.org/1999/xlink">
<g id="graph0" class="graph" transform="scale(1 1) rotate(0) translate(4 171)">
<title>e57::BitpackStringDecoder</title>
<polygon fill="white" stroke="transparent" points="-4,4 -4,-171 329.5,-171 329.5,4 -4,4"/>
<!-- Node1 -->
<g id="node1" class="node">
<title>Node1</title>
<g id="a_node1"><a xlink:title=" ">
<polygon fill="#bfbfbf" stroke="black" points="109.5,-0.5 109.5,-19.5 243.5,-19.5 243.5,-0.5 109.5,-0.5"/>
<text text-anchor="middle" x="176.5" y="-7.5" font-family="Helvetica,sans-Serif" font-size="10.00">e57::BitpackStringDecoder</text>
</a>
</g>
</g>
<!-- Node2 -->
<g id="node2" class="node">
<title>Node2</title>
<g id="a_node2"><a xlink:href="classe57_1_1_bitpack_decoder.html" target="_top" xlink:title=" ">
<polygon fill="white" stroke="black" points="16.5,-68.5 16.5,-87.5 124.5,-87.5 124.5,-68.5 16.5,-68.5"/>
<text text-anchor="middle" x="70.5" y="-75.5" font-family="Helvetica,sans-Serif" font-size="10.00">e57::BitpackDecoder</text>
</a>
</g>
</g>
<!-- Node2&#45;&gt;Node1 -->
<g id="edge1" class="edge">
<title>Node2&#45;&gt;Node1</title>
<path fill="none" stroke="midnightblue" d="M93,-62.99C114.09,-49.86 144.94,-30.65 162.64,-19.63"/>
<polygon fill="midnightblue" stroke="midnightblue" points="91,-60.11 84.36,-68.37 94.7,-66.06 91,-60.11"/>
</g>
<!-- Node3 -->
<g id="node3" class="node">
<title>Node3</title>
<g id="a_node3"><a xlink:href="classe57_1_1_decoder.html" target="_top" xlink:title=" ">
<polygon fill="white" stroke="black" points="0,-147.5 0,-166.5 75,-166.5 75,-147.5 0,-147.5"/>
<text text-anchor="middle" x="37.5" y="-154.5" font-family="Helvetica,sans-Serif" font-size="10.00">e57::Decoder</text>
</a>
</g>
</g>
<!-- Node3&#45;&gt;Node2 -->
<g id="edge2" class="edge">
<title>Node3&#45;&gt;Node2</title>
<path fill="none" stroke="midnightblue" d="M41.31,-137.52C43.61,-128.13 46.98,-116.68 51.5,-107 54.68,-100.19 59.43,-93.19 63.39,-87.89"/>
<polygon fill="midnightblue" stroke="midnightblue" points="37.87,-136.86 39.09,-147.38 44.7,-138.39 37.87,-136.86"/>
</g>
<!-- Node4 -->
<g id="node4" class="node">
<title>Node4</title>
<g id="a_node4"><a xlink:title=" ">
<polygon fill="white" stroke="#bfbfbf" points="122,-147.5 122,-166.5 173,-166.5 173,-147.5 122,-147.5"/>
<text text-anchor="middle" x="147.5" y="-154.5" font-family="Helvetica,sans-Serif" font-size="10.00">uint64_t</text>
</a>
</g>
</g>
<!-- Node4&#45;&gt;Node1 -->
<g id="edge4" class="edge">
<title>Node4&#45;&gt;Node1</title>
<path fill="none" stroke="#9a32cd" stroke-dasharray="5,2" d="M158.53,-138.43C160.07,-135.38 161.48,-132.16 162.5,-129 175.25,-89.54 176.61,-39.3 176.6,-19.54"/>
<polygon fill="#9a32cd" stroke="#9a32cd" points="155.33,-136.98 153.42,-147.4 161.41,-140.44 155.33,-136.98"/>
<text text-anchor="middle" x="217" y="-81" font-family="Helvetica,sans-Serif" font-size="10.00"> stringLength_</text>
<text text-anchor="middle" x="217" y="-70" font-family="Helvetica,sans-Serif" font-size="10.00">nBytesStringRead_</text>
</g>
<!-- Node4&#45;&gt;Node2 -->
<g id="edge3" class="edge">
<title>Node4&#45;&gt;Node2</title>
<path fill="none" stroke="#9a32cd" stroke-dasharray="5,2" d="M111.81,-152.22C96.86,-148.69 80.82,-141.92 71.5,-129 62.77,-116.89 65.32,-98.48 67.93,-87.7"/>
<polygon fill="#9a32cd" stroke="#9a32cd" points="111.41,-155.71 121.89,-154.19 112.74,-148.84 111.41,-155.71"/>
<text text-anchor="middle" x="117" y="-121" font-family="Helvetica,sans-Serif" font-size="10.00"> maxRecordCount_</text>
<text text-anchor="middle" x="117" y="-110" font-family="Helvetica,sans-Serif" font-size="10.00">currentRecordIndex_</text>
</g>
<!-- Node5 -->
<g id="node5" class="node">
<title>Node5</title>
<g id="a_node5"><a xlink:title=" ">
<polygon fill="white" stroke="#bfbfbf" points="279.5,-68.5 279.5,-87.5 325.5,-87.5 325.5,-68.5 279.5,-68.5"/>
<text text-anchor="middle" x="302.5" y="-75.5" font-family="Helvetica,sans-Serif" font-size="10.00">uint8_t</text>
</a>
</g>
</g>
<!-- Node5&#45;&gt;Node1 -->
<g id="edge5" class="edge">
<title>Node5&#45;&gt;Node1</title>
<path fill="none" stroke="#9a32cd" stroke-dasharray="5,2" d="M277.09,-63.69C252,-50.55 214.39,-30.85 192.98,-19.63"/>
<polygon fill="#9a32cd" stroke="#9a32cd" points="275.55,-66.83 286.03,-68.37 278.79,-60.63 275.55,-66.83"/>
<text text-anchor="middle" x="275.5" y="-41" font-family="Helvetica,sans-Serif" font-size="10.00"> prefixBytes_</text>
</g>
</g>
</svg>
