<?xml version="1.0" encoding="UTF-8" standalone="no"?>
<!DOCTYPE svg PUBLIC "-//W3C//DTD SVG 1.1//EN"
 "http://www.w3.org/Graphics/SVG/1.1/DTD/svg11.dtd">
<!-- Generated by graphviz version 2.44.0 (20200408.0750)
 -->
<!-- Title: e57::PacketReadCache Pages: 1 -->
<svg width="260pt" height="253pt"
 viewBox="0.00 0.00 259.50 253.00" xmlns="http://www.w3.org/2000/svg" xmlns:xlink="http://www.w3.org/1999/xlink">
<g id="graph0" class="graph" transform="scale(1 1) rotate(0) translate(4 249)">
<title>e57::PacketReadCache</title>
<polygon fill="white" stroke="transparent" points="-4,4 -4,-249 255.5,-249 255.5,4 -4,4"/>
<!-- Node1 -->
<g id="node1" class="node">
<title>Node1</title>
<g id="a_node1"><a xlink:title=" ">
<polygon fill="#bfbfbf" stroke="black" points="0,-0.5 0,-19.5 121,-19.5 121,-0.5 0,-0.5"/>
<text text-anchor="middle" x="60.5" y="-7.5" font-family="Helvetica,sans-Serif" font-size="10.00">e57::PacketReadCache</text>
</a>
</g>
</g>
<!-- Node2 -->
<g id="node2" class="node">
<title>Node2</title>
<g id="a_node2"><a xlink:href="classe57_1_1_checked_file.html" target="_top" xlink:title=" ">
<polygon fill="white" stroke="black" points="14,-67.5 14,-86.5 107,-86.5 107,-67.5 14,-67.5"/>
<text text-anchor="middle" x="60.5" y="-74.5" font-family="Helvetica,sans-Serif" font-size="10.00">e57::CheckedFile</text>
</a>
</g>
</g>
<!-- Node2&#45;&gt;Node1 -->
<g id="edge1" class="edge">
<title>Node2&#45;&gt;Node1</title>
<path fill="none" stroke="#9a32cd" stroke-dasharray="5,2" d="M60.5,-57.04C60.5,-44.67 60.5,-29.12 60.5,-19.63"/>
<polygon fill="#9a32cd" stroke="#9a32cd" points="57,-57.23 60.5,-67.23 64,-57.23 57,-57.23"/>
<text text-anchor="middle" x="75.5" y="-41" font-family="Helvetica,sans-Serif" font-size="10.00"> cFile_</text>
</g>
<!-- Node3 -->
<g id="node3" class="node">
<title>Node3</title>
<g id="a_node3"><a xlink:title=" ">
<polygon fill="white" stroke="#bfbfbf" points="35,-225.5 35,-244.5 86,-244.5 86,-225.5 35,-225.5"/>
<text text-anchor="middle" x="60.5" y="-232.5" font-family="Helvetica,sans-Serif" font-size="10.00">uint64_t</text>
</a>
</g>
</g>
<!-- Node3&#45;&gt;Node2 -->
<g id="edge2" class="edge">
<title>Node3&#45;&gt;Node2</title>
<path fill="none" stroke="#9a32cd" stroke-dasharray="5,2" d="M57.74,-215.49C55.09,-195.42 51.73,-162.45 53.5,-134 54.55,-117.18 57.35,-97.68 59.07,-86.7"/>
<polygon fill="#9a32cd" stroke="#9a32cd" points="54.28,-216.03 59.14,-225.44 61.21,-215.05 54.28,-216.03"/>
<text text-anchor="middle" x="105" y="-159" font-family="Helvetica,sans-Serif" font-size="10.00"> logicalLength_</text>
<text text-anchor="middle" x="105" y="-148" font-family="Helvetica,sans-Serif" font-size="10.00">physicalLength_</text>
<text text-anchor="middle" x="105" y="-137" font-family="Helvetica,sans-Serif" font-size="10.00">physicalPageSizeMask</text>
</g>
<!-- Node4 -->
<g id="node4" class="node">
<title>Node4</title>
<g id="a_node4"><a xlink:href="classe57_1_1_buffer_view.html" target="_top" xlink:title=" ">
<polygon fill="white" stroke="black" points="165.5,-141 165.5,-160 251.5,-160 251.5,-141 165.5,-141"/>
<text text-anchor="middle" x="208.5" y="-148" font-family="Helvetica,sans-Serif" font-size="10.00">e57::BufferView</text>
</a>
</g>
</g>
<!-- Node3&#45;&gt;Node4 -->
<g id="edge4" class="edge">
<title>Node3&#45;&gt;Node4</title>
<path fill="none" stroke="#9a32cd" stroke-dasharray="5,2" d="M84.55,-220.59C115.2,-203.51 167.28,-174.48 193.08,-160.1"/>
<polygon fill="#9a32cd" stroke="#9a32cd" points="82.81,-217.56 75.78,-225.48 86.22,-223.67 82.81,-217.56"/>
<text text-anchor="middle" x="179.5" y="-199" font-family="Helvetica,sans-Serif" font-size="10.00"> streamSize_</text>
<text text-anchor="middle" x="179.5" y="-188" font-family="Helvetica,sans-Serif" font-size="10.00">cursorStream_</text>
</g>
<!-- Node4&#45;&gt;Node2 -->
<g id="edge3" class="edge">
<title>Node4&#45;&gt;Node2</title>
<path fill="none" stroke="#9a32cd" stroke-dasharray="5,2" d="M181.6,-136.5C151.66,-122.04 104.12,-99.07 78.42,-86.66"/>
<polygon fill="#9a32cd" stroke="#9a32cd" points="180.12,-139.68 190.65,-140.88 183.17,-133.37 180.12,-139.68"/>
<text text-anchor="middle" x="160.5" y="-108" font-family="Helvetica,sans-Serif" font-size="10.00"> bufView_</text>
</g>
</g>
</svg>
