<?xml version="1.0" encoding="UTF-8" standalone="no"?>
<!DOCTYPE svg PUBLIC "-//W3C//DTD SVG 1.1//EN"
 "http://www.w3.org/Graphics/SVG/1.1/DTD/svg11.dtd">
<!-- Generated by graphviz version 2.48.0 (20210717.1556)
 -->
<!-- Title: e57::CompressedVectorWriterImpl Pages: 1 -->
<svg width="370pt" height="350pt"
 viewBox="0.00 0.00 370.00 350.00" xmlns="http://www.w3.org/2000/svg" xmlns:xlink="http://www.w3.org/1999/xlink">
<g id="graph0" class="graph" transform="scale(1 1) rotate(0) translate(4 346)">
<title>e57::CompressedVectorWriterImpl</title>
<polygon fill="white" stroke="transparent" points="-4,4 -4,-346 366,-346 366,4 -4,4"/>
<!-- Node1 -->
<g id="node1" class="node">
<title>Node1</title>
<g id="a_node1"><a xlink:title=" ">
<polygon fill="#bfbfbf" stroke="black" points="6.5,-0.5 6.5,-19.5 175.5,-19.5 175.5,-0.5 6.5,-0.5"/>
<text text-anchor="middle" x="91" y="-7.5" font-family="Helvetica,sans-Serif" font-size="10.00">e57::CompressedVectorWriterImpl</text>
</a>
</g>
</g>
<!-- Node2 -->
<g id="node2" class="node">
<title>Node2</title>
<g id="a_node2"><a xlink:title=" ">
<polygon fill="white" stroke="#bfbfbf" points="0,-177.5 0,-196.5 52,-196.5 52,-177.5 0,-177.5"/>
<text text-anchor="middle" x="26" y="-184.5" font-family="Helvetica,sans-Serif" font-size="10.00">uint64_t</text>
</a>
</g>
</g>
<!-- Node2&#45;&gt;Node1 -->
<g id="edge1" class="edge">
<title>Node2&#45;&gt;Node1</title>
<path fill="none" stroke="#9a32cd" stroke-dasharray="5,2" d="M20.14,-167.44C11.87,-137.42 0.54,-77.59 27,-38 32.7,-29.48 41.66,-23.64 51.11,-19.64"/>
<polygon fill="#9a32cd" stroke="#9a32cd" points="16.88,-168.78 23.07,-177.38 23.6,-166.8 16.88,-168.78"/>
<text text-anchor="middle" x="81" y="-151" font-family="Helvetica,sans-Serif" font-size="10.00"> dataPacketsCount_</text>
<text text-anchor="start" x="27" y="-140" font-family="Helvetica,sans-Serif" font-size="10.00">dataPhysicalOffset</text>
<text text-anchor="middle" x="81" y="-129" font-family="Helvetica,sans-Serif" font-size="10.00">_</text>
<text text-anchor="start" x="27" y="-118" font-family="Helvetica,sans-Serif" font-size="10.00">indexPacketsCount</text>
<text text-anchor="middle" x="81" y="-107" font-family="Helvetica,sans-Serif" font-size="10.00">_</text>
<text text-anchor="middle" x="81" y="-96" font-family="Helvetica,sans-Serif" font-size="10.00">recordCount_</text>
<text text-anchor="start" x="27" y="-85" font-family="Helvetica,sans-Serif" font-size="10.00">sectionHeaderLogical</text>
<text text-anchor="middle" x="81" y="-74" font-family="Helvetica,sans-Serif" font-size="10.00">Start_</text>
<text text-anchor="start" x="27" y="-63" font-family="Helvetica,sans-Serif" font-size="10.00">sectionLogicalLength</text>
<text text-anchor="middle" x="81" y="-52" font-family="Helvetica,sans-Serif" font-size="10.00">_</text>
<text text-anchor="middle" x="81" y="-41" font-family="Helvetica,sans-Serif" font-size="10.00">topIndexPhysicalOffset_</text>
</g>
<!-- Node3 -->
<g id="node3" class="node">
<title>Node3</title>
<g id="a_node3"><a xlink:href="classe57_1_1_data_packet.html" target="_top" xlink:title=" ">
<polygon fill="white" stroke="black" points="112,-177.5 112,-196.5 202,-196.5 202,-177.5 112,-177.5"/>
<text text-anchor="middle" x="157" y="-184.5" font-family="Helvetica,sans-Serif" font-size="10.00">e57::DataPacket</text>
</a>
</g>
</g>
<!-- Node3&#45;&gt;Node1 -->
<g id="edge2" class="edge">
<title>Node3&#45;&gt;Node1</title>
<path fill="none" stroke="#9a32cd" stroke-dasharray="5,2" d="M158.99,-167.17C161.19,-137.21 161.43,-77.99 135,-38 129.66,-29.92 121,-23.86 112.76,-19.54"/>
<polygon fill="#9a32cd" stroke="#9a32cd" points="155.48,-167.17 158.07,-177.45 162.45,-167.8 155.48,-167.17"/>
<text text-anchor="middle" x="189.5" y="-96" font-family="Helvetica,sans-Serif" font-size="10.00"> dataPacket_</text>
</g>
<!-- Node4 -->
<g id="node4" class="node">
<title>Node4</title>
<g id="a_node4"><a xlink:title=" ">
<polygon fill="white" stroke="#bfbfbf" points="113.5,-322.5 113.5,-341.5 160.5,-341.5 160.5,-322.5 113.5,-322.5"/>
<text text-anchor="middle" x="137" y="-329.5" font-family="Helvetica,sans-Serif" font-size="10.00">uint8_t</text>
</a>
</g>
</g>
<!-- Node4&#45;&gt;Node3 -->
<g id="edge3" class="edge">
<title>Node4&#45;&gt;Node3</title>
<path fill="none" stroke="#9a32cd" stroke-dasharray="5,2" d="M131.91,-312.57C127.8,-294.8 123.51,-267.24 129,-244 133.25,-226.02 144.2,-207.22 151.08,-196.62"/>
<polygon fill="#9a32cd" stroke="#9a32cd" points="128.58,-313.64 134.43,-322.48 135.36,-311.92 128.58,-313.64"/>
<text text-anchor="middle" x="148" y="-251.5" font-family="Helvetica,sans-Serif" font-size="10.00"> payload</text>
</g>
<!-- Node5 -->
<g id="node5" class="node">
<title>Node5</title>
<g id="a_node5"><a xlink:href="classe57_1_1_data_packet_header.html" target="_top" xlink:title=" ">
<polygon fill="white" stroke="black" points="176.5,-244.5 176.5,-263.5 299.5,-263.5 299.5,-244.5 176.5,-244.5"/>
<text text-anchor="middle" x="238" y="-251.5" font-family="Helvetica,sans-Serif" font-size="10.00">e57::DataPacketHeader</text>
</a>
</g>
</g>
<!-- Node4&#45;&gt;Node5 -->
<g id="edge6" class="edge">
<title>Node4&#45;&gt;Node5</title>
<path fill="none" stroke="#9a32cd" stroke-dasharray="5,2" d="M148,-313.76C155.25,-303.48 165.5,-290.77 177,-282 187.31,-274.14 200.28,-267.98 211.6,-263.55"/>
<polygon fill="#9a32cd" stroke="#9a32cd" points="144.91,-312.08 142.24,-322.33 150.72,-315.98 144.91,-312.08"/>
<text text-anchor="middle" x="205.5" y="-296" font-family="Helvetica,sans-Serif" font-size="10.00"> packetFlags</text>
<text text-anchor="middle" x="205.5" y="-285" font-family="Helvetica,sans-Serif" font-size="10.00">packetType</text>
</g>
<!-- Node5&#45;&gt;Node3 -->
<g id="edge4" class="edge">
<title>Node5&#45;&gt;Node3</title>
<path fill="none" stroke="#9a32cd" stroke-dasharray="5,2" d="M218.95,-237.71C202.99,-224.91 180.79,-207.09 167.75,-196.63"/>
<polygon fill="#9a32cd" stroke="#9a32cd" points="217.09,-240.7 227.08,-244.23 221.47,-235.25 217.09,-240.7"/>
<text text-anchor="middle" x="220" y="-218" font-family="Helvetica,sans-Serif" font-size="10.00"> header</text>
</g>
<!-- Node6 -->
<g id="node6" class="node">
<title>Node6</title>
<g id="a_node6"><a xlink:title=" ">
<polygon fill="white" stroke="#bfbfbf" points="212,-322.5 212,-341.5 264,-341.5 264,-322.5 212,-322.5"/>
<text text-anchor="middle" x="238" y="-329.5" font-family="Helvetica,sans-Serif" font-size="10.00">uint16_t</text>
</a>
</g>
</g>
<!-- Node6&#45;&gt;Node5 -->
<g id="edge5" class="edge">
<title>Node6&#45;&gt;Node5</title>
<path fill="none" stroke="#9a32cd" stroke-dasharray="5,2" d="M238,-312.22C238,-296.7 238,-275.36 238,-263.62"/>
<polygon fill="#9a32cd" stroke="#9a32cd" points="234.5,-312.28 238,-322.28 241.5,-312.28 234.5,-312.28"/>
<text text-anchor="middle" x="300" y="-296" font-family="Helvetica,sans-Serif" font-size="10.00"> bytestreamCount</text>
<text text-anchor="middle" x="300" y="-285" font-family="Helvetica,sans-Serif" font-size="10.00">packetLogicalLengthMinus1</text>
</g>
</g>
</svg>
