<?xml version="1.0" encoding="UTF-8" standalone="no"?>
<!DOCTYPE svg PUBLIC "-//W3C//DTD SVG 1.1//EN"
 "http://www.w3.org/Graphics/SVG/1.1/DTD/svg11.dtd">
<!-- Generated by graphviz version 2.48.0 (20210717.1556)
 -->
<!-- Title: e57::Decoder Pages: 1 -->
<svg width="445pt" height="116pt"
 viewBox="0.00 0.00 445.00 116.00" xmlns="http://www.w3.org/2000/svg" xmlns:xlink="http://www.w3.org/1999/xlink">
<g id="graph0" class="graph" transform="scale(1 1) rotate(0) translate(4 112)">
<title>e57::Decoder</title>
<polygon fill="white" stroke="transparent" points="-4,4 -4,-112 441,-112 441,4 -4,4"/>
<!-- Node1 -->
<g id="node1" class="node">
<title>Node1</title>
<g id="a_node1"><a xlink:title=" ">
<polygon fill="#bfbfbf" stroke="black" points="0,-25.5 0,-44.5 77,-44.5 77,-25.5 0,-25.5"/>
<text text-anchor="middle" x="38.5" y="-32.5" font-family="Helvetica,sans-Serif" font-size="10.00">e57::Decoder</text>
</a>
</g>
</g>
<!-- Node2 -->
<g id="node2" class="node">
<title>Node2</title>
<g id="a_node2"><a xlink:href="classe57_1_1_bitpack_decoder.html" target="_top" xlink:title=" ">
<polygon fill="white" stroke="black" points="132.5,-44.5 132.5,-63.5 241.5,-63.5 241.5,-44.5 132.5,-44.5"/>
<text text-anchor="middle" x="187" y="-51.5" font-family="Helvetica,sans-Serif" font-size="10.00">e57::BitpackDecoder</text>
</a>
</g>
</g>
<!-- Node1&#45;&gt;Node2 -->
<g id="edge1" class="edge">
<title>Node1&#45;&gt;Node2</title>
<path fill="none" stroke="midnightblue" d="M87.4,-41.21C101.79,-43.08 117.66,-45.14 132.39,-47.05"/>
<polygon fill="midnightblue" stroke="midnightblue" points="87.59,-37.71 77.23,-39.89 86.69,-44.65 87.59,-37.71"/>
</g>
<!-- Node6 -->
<g id="node6" class="node">
<title>Node6</title>
<g id="a_node6"><a xlink:href="classe57_1_1_constant_integer_decoder.html" target="_top" xlink:title=" ">
<polygon fill="white" stroke="black" points="113,-6.5 113,-25.5 261,-25.5 261,-6.5 113,-6.5"/>
<text text-anchor="middle" x="187" y="-13.5" font-family="Helvetica,sans-Serif" font-size="10.00">e57::ConstantIntegerDecoder</text>
</a>
</g>
</g>
<!-- Node1&#45;&gt;Node6 -->
<g id="edge5" class="edge">
<title>Node1&#45;&gt;Node6</title>
<path fill="none" stroke="midnightblue" d="M87.3,-28.8C95.48,-27.74 104.15,-26.61 112.82,-25.49"/>
<polygon fill="midnightblue" stroke="midnightblue" points="86.69,-25.35 77.23,-30.11 87.59,-32.29 86.69,-25.35"/>
</g>
<!-- Node3 -->
<g id="node3" class="node">
<title>Node3</title>
<g id="a_node3"><a xlink:href="classe57_1_1_bitpack_float_decoder.html" target="_top" xlink:title=" ">
<polygon fill="white" stroke="black" points="301,-88.5 301,-107.5 433,-107.5 433,-88.5 301,-88.5"/>
<text text-anchor="middle" x="367" y="-95.5" font-family="Helvetica,sans-Serif" font-size="10.00">e57::BitpackFloatDecoder</text>
</a>
</g>
</g>
<!-- Node2&#45;&gt;Node3 -->
<g id="edge2" class="edge">
<title>Node2&#45;&gt;Node3</title>
<path fill="none" stroke="midnightblue" d="M236.42,-65.97C265.03,-73.04 300.76,-81.87 327.45,-88.47"/>
<polygon fill="midnightblue" stroke="midnightblue" points="237.17,-62.55 226.62,-63.55 235.49,-69.34 237.17,-62.55"/>
</g>
<!-- Node4 -->
<g id="node4" class="node">
<title>Node4</title>
<g id="a_node4"><a xlink:href="classe57_1_1_bitpack_integer_decoder.html" target="_top" xlink:title=" ">
<polygon fill="white" stroke="black" points="297,-39 297,-69 437,-69 437,-39 297,-39"/>
<text text-anchor="start" x="305" y="-57" font-family="Helvetica,sans-Serif" font-size="10.00">e57::BitpackIntegerDecoder</text>
<text text-anchor="middle" x="367" y="-46" font-family="Helvetica,sans-Serif" font-size="10.00">&lt; RegisterT &gt;</text>
</a>
</g>
</g>
<!-- Node2&#45;&gt;Node4 -->
<g id="edge3" class="edge">
<title>Node2&#45;&gt;Node4</title>
<path fill="none" stroke="midnightblue" d="M252.24,-54C266.71,-54 282.14,-54 296.81,-54"/>
<polygon fill="midnightblue" stroke="midnightblue" points="251.89,-50.5 241.89,-54 251.89,-57.5 251.89,-50.5"/>
</g>
<!-- Node5 -->
<g id="node5" class="node">
<title>Node5</title>
<g id="a_node5"><a xlink:href="classe57_1_1_bitpack_string_decoder.html" target="_top" xlink:title=" ">
<polygon fill="white" stroke="black" points="299.5,-0.5 299.5,-19.5 434.5,-19.5 434.5,-0.5 299.5,-0.5"/>
<text text-anchor="middle" x="367" y="-7.5" font-family="Helvetica,sans-Serif" font-size="10.00">e57::BitpackStringDecoder</text>
</a>
</g>
</g>
<!-- Node2&#45;&gt;Node5 -->
<g id="edge4" class="edge">
<title>Node2&#45;&gt;Node5</title>
<path fill="none" stroke="midnightblue" d="M236.42,-42.03C265.03,-34.96 300.76,-26.13 327.45,-19.53"/>
<polygon fill="midnightblue" stroke="midnightblue" points="235.49,-38.66 226.62,-44.45 237.17,-45.45 235.49,-38.66"/>
</g>
</g>
</svg>
