<?xml version="1.0" encoding="UTF-8" standalone="no"?>
<!DOCTYPE svg PUBLIC "-//W3C//DTD SVG 1.1//EN"
 "http://www.w3.org/Graphics/SVG/1.1/DTD/svg11.dtd">
<!-- Generated by graphviz version 2.44.0 (20200408.0750)
 -->
<!-- Title: e57::CompressedVectorWriterImpl Pages: 1 -->
<svg width="363pt" height="361pt"
 viewBox="0.00 0.00 362.50 361.00" xmlns="http://www.w3.org/2000/svg" xmlns:xlink="http://www.w3.org/1999/xlink">
<g id="graph0" class="graph" transform="scale(1 1) rotate(0) translate(4 357)">
<title>e57::CompressedVectorWriterImpl</title>
<polygon fill="white" stroke="transparent" points="-4,4 -4,-357 358.5,-357 358.5,4 -4,4"/>
<!-- Node1 -->
<g id="node1" class="node">
<title>Node1</title>
<g id="a_node1"><a xlink:title=" ">
<polygon fill="#bfbfbf" stroke="black" points="6,-0.5 6,-19.5 173,-19.5 173,-0.5 6,-0.5"/>
<text text-anchor="middle" x="89.5" y="-7.5" font-family="Helvetica,sans-Serif" font-size="10.00">e57::CompressedVectorWriterImpl</text>
</a>
</g>
</g>
<!-- Node2 -->
<g id="node2" class="node">
<title>Node2</title>
<g id="a_node2"><a xlink:title=" ">
<polygon fill="white" stroke="#bfbfbf" points="0,-188.5 0,-207.5 51,-207.5 51,-188.5 0,-188.5"/>
<text text-anchor="middle" x="25.5" y="-195.5" font-family="Helvetica,sans-Serif" font-size="10.00">uint64_t</text>
</a>
</g>
</g>
<!-- Node2&#45;&gt;Node1 -->
<g id="edge1" class="edge">
<title>Node2&#45;&gt;Node1</title>
<path fill="none" stroke="#9a32cd" stroke-dasharray="5,2" d="M19.7,-178.83C10.81,-147.24 -2.32,-81.41 26.5,-38 32.16,-29.47 41.13,-23.63 50.54,-19.63"/>
<polygon fill="#9a32cd" stroke="#9a32cd" points="16.37,-179.91 22.6,-188.49 23.08,-177.9 16.37,-179.91"/>
<text text-anchor="start" x="26.5" y="-162" font-family="Helvetica,sans-Serif" font-size="10.00"> topIndexPhysicalOffset</text>
<text text-anchor="middle" x="79.5" y="-151" font-family="Helvetica,sans-Serif" font-size="10.00">_</text>
<text text-anchor="start" x="26.5" y="-140" font-family="Helvetica,sans-Serif" font-size="10.00">indexPacketsCount</text>
<text text-anchor="middle" x="79.5" y="-129" font-family="Helvetica,sans-Serif" font-size="10.00">_</text>
<text text-anchor="start" x="26.5" y="-118" font-family="Helvetica,sans-Serif" font-size="10.00">sectionHeaderLogical</text>
<text text-anchor="middle" x="79.5" y="-107" font-family="Helvetica,sans-Serif" font-size="10.00">Start_</text>
<text text-anchor="start" x="26.5" y="-96" font-family="Helvetica,sans-Serif" font-size="10.00">sectionLogicalLength</text>
<text text-anchor="middle" x="79.5" y="-85" font-family="Helvetica,sans-Serif" font-size="10.00">_</text>
<text text-anchor="start" x="26.5" y="-74" font-family="Helvetica,sans-Serif" font-size="10.00">dataPacketsCount</text>
<text text-anchor="middle" x="79.5" y="-63" font-family="Helvetica,sans-Serif" font-size="10.00">_</text>
<text text-anchor="middle" x="79.5" y="-52" font-family="Helvetica,sans-Serif" font-size="10.00">recordCount_</text>
<text text-anchor="middle" x="79.5" y="-41" font-family="Helvetica,sans-Serif" font-size="10.00">dataPhysicalOffset_</text>
</g>
<!-- Node3 -->
<g id="node3" class="node">
<title>Node3</title>
<g id="a_node3"><a xlink:href="classe57_1_1_data_packet.html" target="_top" xlink:title=" ">
<polygon fill="white" stroke="black" points="109.5,-188.5 109.5,-207.5 199.5,-207.5 199.5,-188.5 109.5,-188.5"/>
<text text-anchor="middle" x="154.5" y="-195.5" font-family="Helvetica,sans-Serif" font-size="10.00">e57::DataPacket</text>
</a>
</g>
</g>
<!-- Node3&#45;&gt;Node1 -->
<g id="edge2" class="edge">
<title>Node3&#45;&gt;Node1</title>
<path fill="none" stroke="#9a32cd" stroke-dasharray="5,2" d="M156.73,-178.13C159.49,-146.45 160.79,-81.77 132.5,-38 127.33,-30 118.87,-23.95 110.82,-19.62"/>
<polygon fill="#9a32cd" stroke="#9a32cd" points="153.24,-177.9 155.7,-188.2 160.2,-178.61 153.24,-177.9"/>
<text text-anchor="middle" x="187.5" y="-101.5" font-family="Helvetica,sans-Serif" font-size="10.00"> dataPacket_</text>
</g>
<!-- Node4 -->
<g id="node4" class="node">
<title>Node4</title>
<g id="a_node4"><a xlink:title=" ">
<polygon fill="white" stroke="#bfbfbf" points="111.5,-333.5 111.5,-352.5 157.5,-352.5 157.5,-333.5 111.5,-333.5"/>
<text text-anchor="middle" x="134.5" y="-340.5" font-family="Helvetica,sans-Serif" font-size="10.00">uint8_t</text>
</a>
</g>
</g>
<!-- Node4&#45;&gt;Node3 -->
<g id="edge3" class="edge">
<title>Node4&#45;&gt;Node3</title>
<path fill="none" stroke="#9a32cd" stroke-dasharray="5,2" d="M129.41,-323.57C125.3,-305.8 121.01,-278.24 126.5,-255 130.75,-237.02 141.7,-218.22 148.58,-207.62"/>
<polygon fill="#9a32cd" stroke="#9a32cd" points="126.08,-324.64 131.93,-333.48 132.86,-322.92 126.08,-324.64"/>
<text text-anchor="middle" x="145" y="-262.5" font-family="Helvetica,sans-Serif" font-size="10.00"> payload</text>
</g>
<!-- Node5 -->
<g id="node5" class="node">
<title>Node5</title>
<g id="a_node5"><a xlink:href="classe57_1_1_data_packet_header.html" target="_top" xlink:title=" ">
<polygon fill="white" stroke="black" points="172.5,-255.5 172.5,-274.5 294.5,-274.5 294.5,-255.5 172.5,-255.5"/>
<text text-anchor="middle" x="233.5" y="-262.5" font-family="Helvetica,sans-Serif" font-size="10.00">e57::DataPacketHeader</text>
</a>
</g>
</g>
<!-- Node4&#45;&gt;Node5 -->
<g id="edge6" class="edge">
<title>Node4&#45;&gt;Node5</title>
<path fill="none" stroke="#9a32cd" stroke-dasharray="5,2" d="M144.78,-324.74C151.6,-314.45 161.33,-301.74 172.5,-293 182.62,-285.08 195.44,-278.95 206.7,-274.55"/>
<polygon fill="#9a32cd" stroke="#9a32cd" points="141.74,-322.99 139.38,-333.32 147.67,-326.72 141.74,-322.99"/>
<text text-anchor="middle" x="201" y="-307" font-family="Helvetica,sans-Serif" font-size="10.00"> packetFlags</text>
<text text-anchor="middle" x="201" y="-296" font-family="Helvetica,sans-Serif" font-size="10.00">packetType</text>
</g>
<!-- Node5&#45;&gt;Node3 -->
<g id="edge4" class="edge">
<title>Node5&#45;&gt;Node3</title>
<path fill="none" stroke="#9a32cd" stroke-dasharray="5,2" d="M214.92,-248.71C199.36,-235.91 177.7,-218.09 164.99,-207.63"/>
<polygon fill="#9a32cd" stroke="#9a32cd" points="212.9,-251.58 222.85,-255.23 217.35,-246.18 212.9,-251.58"/>
<text text-anchor="middle" x="216" y="-229" font-family="Helvetica,sans-Serif" font-size="10.00"> header</text>
</g>
<!-- Node6 -->
<g id="node6" class="node">
<title>Node6</title>
<g id="a_node6"><a xlink:title=" ">
<polygon fill="white" stroke="#bfbfbf" points="208,-333.5 208,-352.5 259,-352.5 259,-333.5 208,-333.5"/>
<text text-anchor="middle" x="233.5" y="-340.5" font-family="Helvetica,sans-Serif" font-size="10.00">uint16_t</text>
</a>
</g>
</g>
<!-- Node6&#45;&gt;Node5 -->
<g id="edge5" class="edge">
<title>Node6&#45;&gt;Node5</title>
<path fill="none" stroke="#9a32cd" stroke-dasharray="5,2" d="M233.5,-323.22C233.5,-307.7 233.5,-286.36 233.5,-274.62"/>
<polygon fill="#9a32cd" stroke="#9a32cd" points="230,-323.28 233.5,-333.28 237,-323.28 230,-323.28"/>
<text text-anchor="middle" x="294" y="-307" font-family="Helvetica,sans-Serif" font-size="10.00"> bytestreamCount</text>
<text text-anchor="middle" x="294" y="-296" font-family="Helvetica,sans-Serif" font-size="10.00">packetLogicalLengthMinus1</text>
</g>
</g>
</svg>
