<?xml version="1.0" encoding="UTF-8" standalone="no"?>
<!DOCTYPE svg PUBLIC "-//W3C//DTD SVG 1.1//EN"
 "http://www.w3.org/Graphics/SVG/1.1/DTD/svg11.dtd">
<!-- Generated by graphviz version 2.48.0 (20210717.1556)
 -->
<!-- Title: src Pages: 1 -->
<svg width="100pt" height="167pt"
 viewBox="0.00 0.00 100.00 167.00" xmlns="http://www.w3.org/2000/svg" xmlns:xlink="http://www.w3.org/1999/xlink">
<g id="graph0" class="graph" transform="scale(1 1) rotate(0) translate(4 163)">
<title>src</title>
<polygon fill="white" stroke="transparent" points="-4,4 -4,-163 96,-163 96,4 -4,4"/>
<g id="clust1" class="cluster">
<title>clusterdir_55aa2e83ac3322d9b00141cab0d00173</title>
<g id="a_clust1"><a xlink:href="dir_55aa2e83ac3322d9b00141cab0d00173.html" target="_top" xlink:title="libE57Format">
<polygon fill="#ddddee" stroke="black" points="8,-8 8,-151 84,-151 84,-8 8,-8"/>
<text text-anchor="middle" x="46" y="-139" font-family="Helvetica,sans-Serif" font-size="10.00">libE57Format</text>
</a>
</g>
</g>
<!-- dir_a74708ac11a31e904939bed6b2855a02 -->
<g id="node1" class="node">
<title>dir_a74708ac11a31e904939bed6b2855a02</title>
<g id="a_node1"><a xlink:href="dir_a74708ac11a31e904939bed6b2855a02.html" target="_top" xlink:title="include">
<polygon fill="none" stroke="black" points="73,-52 19,-52 19,-16 73,-16 73,-52"/>
<text text-anchor="middle" x="46" y="-31.5" font-family="Helvetica,sans-Serif" font-size="10.00">include</text>
</a>
</g>
</g>
<!-- dir_6cb637d34a6601756b59fbf9bd33c502 -->
<g id="node2" class="node">
<title>dir_6cb637d34a6601756b59fbf9bd33c502</title>
<g id="a_node2"><a xlink:href="dir_6cb637d34a6601756b59fbf9bd33c502.html" target="_top" xlink:title="src">
<polygon fill="#eeeeff" stroke="black" points="73,-124 19,-124 19,-88 73,-88 73,-124"/>
<text text-anchor="middle" x="46" y="-103.5" font-family="Helvetica,sans-Serif" font-size="10.00">src</text>
</a>
</g>
</g>
<!-- dir_6cb637d34a6601756b59fbf9bd33c502&#45;&gt;dir_a74708ac11a31e904939bed6b2855a02 -->
<g id="edge1" class="edge">
<title>dir_6cb637d34a6601756b59fbf9bd33c502&#45;&gt;dir_a74708ac11a31e904939bed6b2855a02</title>
<path fill="none" stroke="black" d="M46,-87.7C46,-79.98 46,-70.71 46,-62.11"/>
<polygon fill="black" stroke="black" points="49.5,-62.1 46,-52.1 42.5,-62.1 49.5,-62.1"/>
<g id="a_edge1&#45;headlabel"><a xlink:href="dir_000003_000002.html" target="_top" xlink:title="7">
<text text-anchor="middle" x="52.34" y="-63.2" font-family="Helvetica,sans-Serif" font-size="10.00">7</text>
</a>
</g>
</g>
</g>
</svg>
