<?xml version="1.0" encoding="UTF-8" standalone="no"?>
<!DOCTYPE svg PUBLIC "-//W3C//DTD SVG 1.1//EN"
 "http://www.w3.org/Graphics/SVG/1.1/DTD/svg11.dtd">
<!-- Generated by graphviz version 2.44.0 (20200408.0750)
 -->
<!-- Title: libE57Format Pages: 1 -->
<svg width="186pt" height="148pt"
 viewBox="0.00 0.00 186.00 148.00" xmlns="http://www.w3.org/2000/svg" xmlns:xlink="http://www.w3.org/1999/xlink">
<g id="graph0" class="graph" transform="scale(1 1) rotate(0) translate(4 144)">
<title>libE57Format</title>
<polygon fill="white" stroke="transparent" points="-4,4 -4,-144 182,-144 182,4 -4,4"/>
<g id="clust1" class="cluster">
<title>clusterdir_55aa2e83ac3322d9b00141cab0d00173</title>
<g id="a_clust1"><a xlink:href="dir_55aa2e83ac3322d9b00141cab0d00173.html" target="_top">
<polygon fill="#eeeeff" stroke="black" points="8,-8 8,-132 170,-132 170,-8 8,-8"/>
</a>
</g>
</g>
<!-- dir_55aa2e83ac3322d9b00141cab0d00173 -->
<g id="node1" class="node">
<title>dir_55aa2e83ac3322d9b00141cab0d00173</title>
<text text-anchor="middle" x="125" y="-103.5" font-family="Helvetica,sans-Serif" font-size="10.00">libE57Format</text>
</g>
<!-- dir_a74708ac11a31e904939bed6b2855a02 -->
<g id="node2" class="node">
<title>dir_a74708ac11a31e904939bed6b2855a02</title>
<g id="a_node2"><a xlink:href="dir_a74708ac11a31e904939bed6b2855a02.html" target="_top" xlink:title="include">
<polygon fill="white" stroke="black" points="70,-52 16,-52 16,-16 70,-16 70,-52"/>
<text text-anchor="middle" x="43" y="-31.5" font-family="Helvetica,sans-Serif" font-size="10.00">include</text>
</a>
</g>
</g>
<!-- dir_6cb637d34a6601756b59fbf9bd33c502 -->
<g id="node3" class="node">
<title>dir_6cb637d34a6601756b59fbf9bd33c502</title>
<g id="a_node3"><a xlink:href="dir_6cb637d34a6601756b59fbf9bd33c502.html" target="_top" xlink:title="src">
<polygon fill="white" stroke="black" points="70,-124 16,-124 16,-88 70,-88 70,-124"/>
<text text-anchor="middle" x="43" y="-103.5" font-family="Helvetica,sans-Serif" font-size="10.00">src</text>
</a>
</g>
</g>
<!-- dir_6cb637d34a6601756b59fbf9bd33c502&#45;&gt;dir_a74708ac11a31e904939bed6b2855a02 -->
<g id="edge1" class="edge">
<title>dir_6cb637d34a6601756b59fbf9bd33c502&#45;&gt;dir_a74708ac11a31e904939bed6b2855a02</title>
<path fill="none" stroke="black" d="M43,-87.7C43,-79.98 43,-70.71 43,-62.11"/>
<polygon fill="black" stroke="black" points="46.5,-62.1 43,-52.1 39.5,-62.1 46.5,-62.1"/>
<g id="a_edge1&#45;headlabel"><a xlink:href="dir_000001_000002.html" target="_top" xlink:title="7">
<text text-anchor="middle" x="49.34" y="-63.2" font-family="Helvetica,sans-Serif" font-size="10.00">7</text>
</a>
</g>
</g>
</g>
</svg>
