<svg viewBox="0 0 104 31" xmlns="http://www.w3.org/2000/svg" xmlns:xlink="http://www.w3.org/1999/xlink"><linearGradient id="a"><stop offset="0" stop-color="#5373b4"/><stop offset="1" stop-color="#7c95c6"/></linearGradient><linearGradient id="b" gradientUnits="userSpaceOnUse" x1="31.474" x2="31.474" xlink:href="#a" y1="24.821" y2="26.773"/><linearGradient id="c" gradientTransform="matrix(.6816 0 0 1.0248 72.391 -.91809)" gradientUnits="userSpaceOnUse" x1="31.474" x2="31.474" xlink:href="#a" y1="24.821" y2="26.773"/><linearGradient id="d" gradientUnits="userSpaceOnUse" x1="56.295" x2="56.295" xlink:href="#a" y1="24.622" y2="26.574"/><linearGradient id="e" gradientTransform="matrix(.97968 0 0 1.0207 -.25579 -.25579)" gradientUnits="userSpaceOnUse" x1="49.067" x2="48.956" y1="19.719" y2="9.5227"><stop offset="0" stop-color="#c0cce3"/><stop offset="1" stop-color="#eef1f7"/></linearGradient><filter id="f" color-interpolation-filters="sRGB" height="1.0906" width="1.0214" x="-.010676" y="-.045304"><feGaussianBlur stdDeviation=".45293203"/></filter><path d="m13.609 32.203v6.8633h-.05078c-.40533-.66867-.96254-1.1715-1.6719-1.5059-.69244-.35193-1.4282-.52734-2.2051-.52734-.96267 0-1.807.2027-2.5332.60742-.72622.38713-1.3344.90556-1.8242 1.5566-.47289.65108-.83456 1.4092-1.0879 2.2715-.23644.84464-.35547 1.7236-.35547 2.6387 0 .95022.11902 1.8643.35547 2.7441.25333.87983.615 1.6633 1.0879 2.3496.48978.66867 1.1065 1.2066 1.8496 1.6113.74311.38713 1.6044.58008 2.584.58008.86133 0 1.6311-.15787 2.3066-.47461.69244-.33434 1.2497-.87227 1.6719-1.6113h.05078v1.7422h3.4199v-18.846zm12.875 4.8301c-1.0302 0-1.9596.17541-2.7871.52734-.82756.33434-1.5358.81965-2.127 1.4531-.59111.61588-1.0483 1.3721-1.3691 2.2695-.32089.87983-.48047 1.866-.48047 2.957s.15958 2.0752.48047 2.9551c.32089.87983.77803 1.6361 1.3691 2.2695.59111.61588 1.2994 1.0914 2.127 1.4258.82756.33434 1.7569.50195 2.7871.50195s1.9596-.16762 2.7871-.50195c.84444-.33434 1.5612-.8099 2.1523-1.4258.59111-.63348 1.0483-1.3897 1.3691-2.2695.32089-.87983.48047-1.8641.48047-2.9551s-.15958-2.0772-.48047-2.957c-.32089-.89743-.77803-1.6536-1.3691-2.2695-.59111-.63348-1.3079-1.1188-2.1523-1.4531-.82756-.35193-1.7569-.52734-2.7871-.52734zm41.715 0c-.912 0-1.7223.18516-2.4316.55469-.69244.36953-1.2752.87043-1.748 1.5039-.47289.61588-.83651 1.337-1.0898 2.1641-.23645.80944-.35352 1.6553-.35352 2.5352 0 .93262.10007 1.8214.30273 2.666.21956.82704.55767 1.556 1.0137 2.1895.456.61588 1.0387 1.109 1.748 1.4785.70933.35193 1.5536.5293 2.5332.5293.79378 0 1.5446-.16762 2.2539-.50195.72622-.35193 1.2834-.88986 1.6719-1.6113h.05078v1.7949c.01689.96782-.21071 1.7689-.68359 2.4023-.456.63348-1.1898.95117-2.2031.95117-.64178 0-1.2075-.14228-1.6973-.42383-.48978-.26395-.81939-.74731-.98828-1.4512h-3.5723c.05067.77425.25276 1.435.60742 1.9805.37156.56309.8287 1.0192 1.3691 1.3711.55733.35193 1.1656.60726 1.8242.76562.67556.17597 1.3328.26562 1.9746.26562 1.5031 0 2.7025-.21245 3.5977-.63477.89511-.42232 1.5798-.94076 2.0527-1.5566.47289-.59829.777-1.2493.91211-1.9531.152-.70386.22656-1.3295.22656-1.875v-12.775h-3.4199v1.8223h-.05078c-.43911-.79185-.98782-1.3551-1.6465-1.6895-.64178-.33434-1.3926-.50195-2.2539-.50195zm16.523 0c-.99644 0-1.9088.18516-2.7363.55469-.81067.36953-1.5124.88018-2.1035 1.5312-.59111.63348-1.0463 1.3897-1.3672 2.2695s-.48047 1.831-.48047 2.8516c0 1.0558.15108 2.0225.45508 2.9023.32089.87983.76758 1.6361 1.3418 2.2695.57422.63348 1.276 1.1266 2.1035 1.4785.82756.33434 1.7569.50195 2.7871.50195 1.4862 0 2.7517-.35277 3.7988-1.0566 1.0471-.70387 1.8254-1.8733 2.332-3.5098h-3.168c-.11822.42232-.43934.82772-.96289 1.2148-.52355.36953-1.1468.55274-1.873.55273-1.0133 0-1.7916-.27286-2.332-.81836-.54044-.5455-.83605-1.4245-.88672-2.6387h9.4492c.06756-1.0558-.01551-2.0673-.25195-3.0352-.23644-.96782-.62557-1.8293-1.166-2.5859-.52356-.75666-1.1998-1.355-2.0273-1.7949-.82756-.45751-1.7974-.6875-2.9121-.6875zm16.189 0c-.76 0-1.5023.18516-2.2285.55469-.72622.35193-1.3174.92299-1.7734 1.7148h-.07617v-1.9004h-3.4199v13.646h3.5977v-7.1523c0-1.3901.21909-2.3841.6582-2.9824.43911-.61588 1.1494-.92383 2.1289-.92383.86133 0 1.4611.28066 1.7988.84375.33777.5455.50586 1.3816.50586 2.5078v7.707h3.5976v-8.3926c0-.84464-.0765-1.6106-.22851-2.2969-.13511-.70387-.37971-1.2925-.73438-1.7676-.35466-.49271-.84386-.87277-1.4688-1.1367-.608-.28155-1.3948-.42188-2.3574-.42188zm-66.063.36914 4.3066 6.4668-4.7129 7.1797h4.0293l2.7363-4.3027 2.7344 4.3027h4.1055l-4.8398-7.2578 4.3066-6.3887h-3.9766l-2.2793 3.5645-2.3066-3.5645zm13.275 0 4.584 12.803c.10133.26395.15234.54461.15234.84375 0 .40472-.11707.77504-.35352 1.1094-.21956.33434-.56617.52729-1.0391.58008-.35467.0176-.70979.0098-1.0645-.02539-.35467-.03519-.70128-.07028-1.0391-.10547v3.0879c.37156.03519.73518.06051 1.0898.07813.37156.03519.74368.05273 1.1152.05273 1.2329 0 2.1943-.23778 2.8867-.71289.69244-.47511 1.2326-1.2664 1.6211-2.375l5.4727-15.336h-3.7246l-2.8613 9.3438h-.05078l-2.9648-9.3438zm-37.48 2.4551c.59111 0 1.0823.12279 1.4707.36914.38844.24635.6991.57184.93555.97656.25333.38713.43187.84515.5332 1.373.10133.5103.15234 1.0482.15234 1.6113 0 .56309-.05101 1.1069-.15234 1.6348s-.27137 1.0035-.50781 1.4258c-.23644.40472-.5556.73021-.96094.97656-.38844.24635-.87959.36914-1.4707.36914-.55733 0-1.038-.12279-1.4434-.36914-.38844-.26395-.71806-.59723-.98828-1.002-.25333-.42232-.43842-.89788-.55664-1.4258s-.17773-1.0561-.17773-1.584c-.0000001-.56309.05101-1.0991.15234-1.6094.11822-.5279.29481-.99567.53125-1.4004.25333-.40472.58295-.73021.98828-.97656s.90303-.36914 1.4941-.36914zm15.84 0c.608 0 1.1142.13253 1.5195.39648.42222.24635.75184.57184.98828.97656.25333.40472.42992.87054.53125 1.3984.10133.5279.15234 1.0658.15234 1.6113s-.05101 1.0815-.15234 1.6094c-.10134.5103-.27792.97612-.53125 1.3984-.23644.40472-.56606.73021-.98828.97656-.40533.24635-.91153.36914-1.5195.36914-.608 0-1.1142-.12279-1.5195-.36914s-.73495-.57184-.98828-.97656c-.23644-.42232-.40648-.88814-.50781-1.3984-.10133-.5279-.15234-1.0639-.15234-1.6094s.05101-1.0834.15234-1.6113.27137-.99371.50781-1.3984c.25333-.40472.58295-.73021.98828-.97656.40533-.26395.91153-.39648 1.5195-.39648zm42.602 0c.59111 0 1.0803.11499 1.4688.34375.38844.22876.70105.5367.9375.92383.23644.38713.40648.8354.50781 1.3457.10133.49271.15039 1.0209.15039 1.584 0 .4927-.06606.96827-.20117 1.4258-.11822.43992-.30526.83557-.55859 1.1875s-.57445.63259-.96289.84375-.83513.31836-1.3418.31836c-.55733 0-1.021-.12474-1.3926-.37109-.37156-.24635-.67566-.56209-.91211-.94922-.21956-.38713-.38109-.81786-.48242-1.293-.08444-.49271-.12695-.98581-.12695-1.4785 0-.5103.05101-.99366.15234-1.4512.11822-.47511.29676-.89025.5332-1.2422.25333-.36953.55744-.65993.91211-.87109.37156-.21116.80974-.31641 1.3164-.31641zm15.535 0c.87822 0 1.529.24753 1.9512.74023.43911.49271.74322 1.2138.91211 2.1641h-5.8535c.01689-.26395.0679-.5641.15234-.89844.10133-.33434.26287-.65008.48242-.94922.23644-.29914.54055-.54667.91211-.74023.38845-.21116.86914-.31641 1.4434-.31641z" filter="url(#f)" opacity=".3" stroke="#969696" transform="translate(-2.5759 -27.848)"/><path d="m.97202 24.161 43.605-.0019.0508 3.3061-43.6.04174z" fill="url(#b)" stroke="#000" stroke-width=".5"/><path d="m10.283 3.5547v6.8633h-.05078c-.40533-.66867-.96254-1.1715-1.6719-1.5059-.69244-.35193-1.4282-.52734-2.2051-.52734-.96267 0-1.807.2027-2.5332.60742-.72622.38713-1.3344.90556-1.8242 1.5566-.47289.65108-.83456 1.4092-1.0879 2.2715-.23644.84464-.35547 1.7236-.35547 2.6387 0 .95022.11902 1.8643.35547 2.7441.25333.87983.615 1.6633 1.0879 2.3496.48978.66867 1.1065 1.2066 1.8496 1.6113.74311.38713 1.6044.58008 2.584.58008.86133 0 1.6311-.15787 2.3066-.47461.69244-.33434 1.2497-.87227 1.6719-1.6113h.05078v1.7422h3.4199v-18.846zm12.875 4.8301c-1.0302 0-1.9596.17541-2.7871.52734-.82756.33434-1.5358.81965-2.127 1.4531-.59111.61588-1.0483 1.3721-1.3691 2.2695-.32089.87983-.48047 1.866-.48047 2.957s.15958 2.0752.48047 2.9551c.32089.87983.77803 1.6361 1.3691 2.2695.59111.61588 1.2994 1.0914 2.127 1.4258.82756.33434 1.7569.50195 2.7871.50195s1.9596-.16762 2.7871-.50195c.84444-.33434 1.5612-.8099 2.1523-1.4258.59111-.63348 1.0483-1.3897 1.3691-2.2695.32089-.87983.48047-1.8641.48047-2.9551s-.15958-2.0772-.48047-2.957c-.32089-.89743-.77803-1.6536-1.3691-2.2695-.59111-.63348-1.3079-1.1188-2.1523-1.4531-.82756-.35193-1.7569-.52734-2.7871-.52734zm41.715 0c-.912 0-1.7223.18516-2.4316.55469-.69244.36953-1.2752.87043-1.748 1.5039-.47289.61588-.83651 1.337-1.0898 2.1641-.23644.80944-.35352 1.6553-.35352 2.5352 0 .93262.10007 1.8214.30273 2.666.21956.82704.55767 1.556 1.0137 2.1895.456.61588 1.0387 1.109 1.748 1.4785.70933.35193 1.5536.5293 2.5332.5293.79378 0 1.5446-.16762 2.2539-.50195.72622-.35193 1.2834-.88986 1.6719-1.6113h.05078v1.7949c.01689.96782-.21071 1.7689-.68359 2.4023-.456.63348-1.1898.95117-2.2031.95117-.64178 0-1.2075-.14228-1.6973-.42383-.48978-.26395-.81939-.74731-.98828-1.4512h-3.5723c.05067.77425.25276 1.435.60742 1.9805.37156.56309.8287 1.0192 1.3691 1.3711.55733.35193 1.1656.60726 1.8242.76562.67556.17597 1.3328.26562 1.9746.26562 1.5031 0 2.7025-.21245 3.5977-.63477.89511-.42232 1.5798-.94076 2.0527-1.5566.47289-.59829.777-1.2493.91211-1.9531.152-.70386.22656-1.3295.22656-1.875v-12.775h-3.4199v1.8223h-.05078c-.43911-.79185-.98782-1.3551-1.6465-1.6895-.64178-.33434-1.3926-.50195-2.2539-.50195zm16.523 0c-.99644 0-1.9088.18516-2.7363.55469-.81067.36953-1.5124.88017-2.1035 1.5312-.59111.63348-1.0463 1.3897-1.3672 2.2695s-.48047 1.831-.48047 2.8516c0 1.0558.15108 2.0225.45508 2.9023.32089.87983.76758 1.6361 1.3418 2.2695.57422.63348 1.276 1.1266 2.1035 1.4785.82756.33434 1.7569.50195 2.7871.50195 1.4862 0 2.7517-.35278 3.7988-1.0566 1.0471-.70386 1.8254-1.8733 2.332-3.5098h-3.168c-.11822.42232-.43934.82772-.96289 1.2148-.52355.36953-1.1468.55274-1.873.55273-1.0133 0-1.7916-.27286-2.332-.81836-.54044-.5455-.83605-1.4245-.88672-2.6387h9.4492c.06756-1.0558-.01551-2.0673-.25195-3.0352-.23644-.96782-.62557-1.8293-1.166-2.5859-.52356-.75666-1.1998-1.355-2.0273-1.7949-.82756-.45751-1.7974-.6875-2.9121-.6875zm16.189 0c-.76 0-1.5023.18516-2.2285.55469-.72622.35193-1.3174.923-1.7734 1.7148h-.07617v-1.9004h-3.4199v13.646h3.5977v-7.1523c0-1.3901.21909-2.3841.6582-2.9824.43911-.61588 1.1494-.92383 2.1289-.92383.86133 0 1.461.28066 1.7988.84375.33778.5455.50586 1.3816.50586 2.5078v7.707h3.5977v-8.3926c0-.84464-.0765-1.6106-.22852-2.2969-.13511-.70387-.3797-1.2925-.73437-1.7676-.35466-.49271-.84386-.87277-1.4688-1.1367-.608-.28155-1.3948-.42188-2.3574-.42188zm-66.062.36914 4.3066 6.4668-4.7129 7.1797h4.0293l2.7363-4.3027 2.7344 4.3027h4.1055l-4.8398-7.2578 4.3066-6.3887h-3.9766l-2.2793 3.5645-2.3066-3.5645zm13.275 0 4.584 12.803c.10133.26395.15234.54461.15234.84375 0 .40472-.11707.77504-.35352 1.1094-.21956.33434-.56617.52729-1.0391.58008-.35467.0176-.70979.0098-1.0645-.02539-.35467-.03519-.70128-.07027-1.0391-.10547v3.0879c.37156.03519.73518.06052 1.0898.07813.37156.03519.74368.05273 1.1152.05273 1.2329 0 2.1943-.23778 2.8867-.71289.69244-.47511 1.2326-1.2664 1.6211-2.375l5.4727-15.336h-3.7246l-2.8613 9.3437h-.05078l-2.9648-9.3437zm-37.48 2.4551c.59111 0 1.0823.12279 1.4707.36914s.6991.57184.93555.97656c.25333.38713.43187.84515.5332 1.373.10133.5103.15234 1.0482.15234 1.6113 0 .56309-.05101 1.1069-.15234 1.6348s-.27137 1.0035-.50781 1.4258c-.23644.40472-.5556.73021-.96094.97656-.38844.24635-.87959.36914-1.4707.36914-.55733 0-1.038-.12279-1.4434-.36914-.38844-.26395-.71806-.59723-.98828-1.002-.25333-.42232-.43842-.89788-.55664-1.4258s-.17773-1.0561-.17773-1.584c-.0000001-.56309.05101-1.0991.15234-1.6094.11822-.5279.29481-.99567.53125-1.4004.25333-.40472.58295-.73021.98828-.97656s.90303-.36914 1.4941-.36914zm15.84 0c.608 0 1.1142.13254 1.5195.39648.42222.24635.75184.57184.98828.97656.25333.40472.42992.87054.53125 1.3984.10133.5279.15234 1.0658.15234 1.6113s-.05101 1.0815-.15234 1.6094c-.10133.5103-.27792.97612-.53125 1.3984-.23644.40472-.56606.73021-.98828.97656-.40533.24635-.91153.36914-1.5195.36914-.608 0-1.1142-.12279-1.5195-.36914s-.73495-.57184-.98828-.97656c-.23644-.42232-.40648-.88813-.50781-1.3984-.10133-.5279-.15234-1.0639-.15234-1.6094s.05101-1.0834.15234-1.6113.27137-.99371.50781-1.3984c.25333-.40472.58295-.73021.98828-.97656.40533-.26395.91153-.39648 1.5195-.39648zm42.602 0c.59111 0 1.0803.11499 1.4688.34375.38844.22876.70106.5367.9375.92383s.40648.8354.50781 1.3457c.10133.49271.15039 1.0209.15039 1.584 0 .49271-.06606.96827-.20117 1.4258-.11822.43992-.30526.83557-.55859 1.1875s-.57445.63259-.96289.84375-.83513.31836-1.3418.31836c-.55733 0-1.021-.12474-1.3926-.37109-.37156-.24635-.67566-.56209-.91211-.94922-.21956-.38713-.38109-.81786-.48242-1.293-.08444-.49271-.12695-.98581-.12695-1.4785 0-.5103.05101-.99366.15234-1.4512.11822-.47511.29676-.89026.5332-1.2422.25333-.36953.55744-.65993.91211-.87109.37156-.21116.80974-.31641 1.3164-.31641zm15.535 0c.87822 0 1.529.24753 1.9512.74024.43911.49271.74322 1.2138.91211 2.1641h-5.8535c.01689-.26395.0679-.5641.15234-.89844.10133-.33434.26287-.65008.48242-.94922.23644-.29914.54055-.54667.91211-.74023.38845-.21116.86914-.31641 1.4434-.31641z" fill="url(#e)" stroke="#4665a2" stroke-width=".7"/><g stroke="#000"><path d="m52.988 27.291c.99602-1.0359 1.3944-1.8725 1.7928-3.1076l3.8247-.03984c.3113 1.6096.82413 2.5137 1.6335 3.1474z" fill="url(#d)" stroke-width=".5"/><path d="m73.89 24.04 28.885-.2011-.12476 3.3879-31.033.16229c1.2621-1.0234 1.9665-2.2859 2.2724-3.3491z" fill="url(#c)" stroke-width=".41788"/></g></svg>