<svg height="159pt" viewBox="0 0 511 159" width="511pt" xmlns="http://www.w3.org/2000/svg" xmlns:xlink="http://www.w3.org/1999/xlink"><g transform="translate(4 155)"><a xlink:title=""><path d="m293-19h-54v19h54z" fill="#999" stroke="#666"/><text font-family="Helvetica,sans-Serif" font-size="10" text-anchor="middle" x="266" y="-7">Inherited</text></a><a xlink:href="url.html" xlink:title=""><path d="m66-85h-66v19h66z" fill="#fff" stroke="#666"/><text font-family="Helvetica,sans-Serif" font-size="10" text-anchor="middle" x="33" y="-73">PublicBase</text></a><g stroke="#63b8ff"><path d="m74.07-63.22c47.39 13.02 124.01 34.06 164.62 45.22" fill="none"/><path d="m73.14-59.84-8.72-6.03 10.57-.72z" fill="#63b8ff"/></g><a xlink:href="url.html" xlink:title=""><path d="m63-151h-60v19h60z" fill="#fff0f0" stroke="#f00"/><text font-family="Helvetica,sans-Serif" font-size="10" text-anchor="middle" x="33" y="-139">Truncated</text></a><g stroke="#63b8ff"><path d="m33-121.58v36.17" fill="none"/><path d="m29.5-121.87 3.5-10 3.5 10z" fill="#63b8ff"/></g><g><path d="m165.5-85h-81v19h81z" fill="#fff" stroke="#666"/><text font-family="Helvetica,sans-Serif" font-size="10" text-anchor="middle" x="125" y="-73">ProtectedBase</text></g><g stroke="#006400"><path d="m153.21-61.69c27.79 12.61 69.48 31.53 93.63 42.49" fill="none"/><path d="m151.68-58.55-7.66-7.32 10.55.95z" fill="#006400"/></g><g><path d="m254-85h-70v19h70z" fill="#fff" stroke="#666"/><text font-family="Helvetica,sans-Serif" font-size="10" text-anchor="middle" x="219" y="-73">PrivateBase</text></g><g stroke="#8b1a1a"><path d="m231.29-57.77c9.01 12.28 20.91 28.47 28.17 38.36" fill="none"/><path d="m228.44-55.74-3.1-10.13 8.74 5.99z" fill="#8b1a1a"/></g><a xlink:title=""><path d="m355.5-85h-83v19h83z" fill="#e0e0e0" stroke="#999"/><text font-family="Helvetica,sans-Serif" font-size="10" text-anchor="middle" x="314" y="-73">Undocumented</text></a><g stroke="#63b8ff"><path d="m301.45-57.77c-9.21 12.28-21.35 28.47-28.77 38.36" fill="none"/><path d="m298.73-59.97 8.8-5.9-3.2 10.1z" fill="#63b8ff"/></g><g><path d="m444.5-85h-71v19h71z" fill="#fff" stroke="#666"/><text font-family="Helvetica,sans-Serif" font-size="10" text-anchor="middle" x="409" y="-73">Templ&lt; int &gt;</text></g><g stroke="#63b8ff"><path d="m380.39-61.69c-28.19 12.61-70.47 31.53-94.95 42.49" fill="none"/><path d="m379.16-64.98 10.55-.89-7.69 7.28z" fill="#63b8ff"/></g><g><path d="m442.5-151h-67v19h67z" fill="#fff" stroke="#666"/><text font-family="Helvetica,sans-Serif" font-size="10" text-anchor="middle" x="409" y="-139">Templ&lt; T &gt;</text></g><g><path d="m409-121.58v36.17" fill="none" stroke="#ffa500" stroke-dasharray="5 2"/><path d="m405.5-121.87 3.5-10 3.5 10z" fill="#ffa500" stroke="#ffa500"/><text font-family="Helvetica,sans-Serif" font-size="10" text-anchor="middle" x="423.5" y="-106">&lt; int &gt;</text></g><g><path d="m503-85h-40v19h40z" fill="#fff" stroke="#666"/><text font-family="Helvetica,sans-Serif" font-size="10" text-anchor="middle" x="483" y="-73">Used</text></g><g><path d="m453.24-65.72c-42.36 12.49-119.42 35.22-160.22 47.25" fill="none" stroke="#9a32cd" stroke-dasharray="5 2"/><path d="m452.39-69.12 10.58.53-8.6 6.18z" fill="#9a32cd" stroke="#9a32cd"/><text font-family="Helvetica,sans-Serif" font-size="10" text-anchor="middle" x="417.5" y="-40">m_usedClass</text></g></g></svg>