<?xml version="1.0" encoding="UTF-8" standalone="no"?>
<!DOCTYPE svg PUBLIC "-//W3C//DTD SVG 1.1//EN"
 "http://www.w3.org/Graphics/SVG/1.1/DTD/svg11.dtd">
<!-- Generated by graphviz version 2.44.0 (20200408.0750)
 -->
<!-- Title: Graphical Class Hierarchy Pages: 1 -->
<svg width="649pt" height="256pt"
 viewBox="0.00 0.00 649.00 256.00" xmlns="http://www.w3.org/2000/svg" xmlns:xlink="http://www.w3.org/1999/xlink">
<g id="graph0" class="graph" transform="scale(1 1) rotate(0) translate(4 252)">
<title>Graphical Class Hierarchy</title>
<polygon fill="white" stroke="transparent" points="-4,4 -4,-252 645,-252 645,4 -4,4"/>
<!-- Node54 -->
<g id="node1" class="node">
<title>Node54</title>
<g id="a_node1"><a xlink:title=" ">
<polygon fill="white" stroke="#bfbfbf" points="0,-114.5 0,-133.5 125,-133.5 125,-114.5 0,-114.5"/>
<text text-anchor="middle" x="62.5" y="-121.5" font-family="Helvetica,sans-Serif" font-size="10.00">enable_shared_from_this</text>
</a>
</g>
</g>
<!-- Node0 -->
<g id="node2" class="node">
<title>Node0</title>
<g id="a_node2"><a xlink:href="classe57_1_1_image_file_impl.html" target="_top" xlink:title=" ">
<polygon fill="white" stroke="black" points="178.5,-152.5 178.5,-171.5 278.5,-171.5 278.5,-152.5 178.5,-152.5"/>
<text text-anchor="middle" x="228.5" y="-159.5" font-family="Helvetica,sans-Serif" font-size="10.00">e57::ImageFileImpl</text>
</a>
</g>
</g>
<!-- Node54&#45;&gt;Node0 -->
<g id="edge1" class="edge">
<title>Node54&#45;&gt;Node0</title>
<path fill="none" stroke="midnightblue" d="M114.84,-135.9C137.89,-141.24 164.72,-147.45 186.41,-152.48"/>
<polygon fill="midnightblue" stroke="midnightblue" points="115.42,-132.44 104.88,-133.59 113.84,-139.26 115.42,-132.44"/>
</g>
<!-- Node56 -->
<g id="node3" class="node">
<title>Node56</title>
<g id="a_node3"><a xlink:href="classe57_1_1_node_impl.html" target="_top" xlink:title=" ">
<polygon fill="white" stroke="black" points="188.5,-114.5 188.5,-133.5 268.5,-133.5 268.5,-114.5 188.5,-114.5"/>
<text text-anchor="middle" x="228.5" y="-121.5" font-family="Helvetica,sans-Serif" font-size="10.00">e57::NodeImpl</text>
</a>
</g>
</g>
<!-- Node54&#45;&gt;Node56 -->
<g id="edge2" class="edge">
<title>Node54&#45;&gt;Node56</title>
<path fill="none" stroke="midnightblue" d="M135.12,-124C153.46,-124 172.49,-124 188.49,-124"/>
<polygon fill="midnightblue" stroke="midnightblue" points="135.03,-120.5 125.03,-124 135.03,-127.5 135.03,-120.5"/>
</g>
<!-- Node65 -->
<g id="node12" class="node">
<title>Node65</title>
<g id="a_node12"><a xlink:href="classe57_1_1_source_dest_buffer_impl.html" target="_top" xlink:title=" ">
<polygon fill="white" stroke="black" points="161,-76.5 161,-95.5 296,-95.5 296,-76.5 161,-76.5"/>
<text text-anchor="middle" x="228.5" y="-83.5" font-family="Helvetica,sans-Serif" font-size="10.00">e57::SourceDestBufferImpl</text>
</a>
</g>
</g>
<!-- Node54&#45;&gt;Node65 -->
<g id="edge11" class="edge">
<title>Node54&#45;&gt;Node65</title>
<path fill="none" stroke="midnightblue" d="M114.84,-112.1C137.89,-106.76 164.72,-100.55 186.41,-95.52"/>
<polygon fill="midnightblue" stroke="midnightblue" points="113.84,-108.74 104.88,-114.41 115.42,-115.56 113.84,-108.74"/>
</g>
<!-- Node57 -->
<g id="node4" class="node">
<title>Node57</title>
<g id="a_node4"><a xlink:href="classe57_1_1_blob_node_impl.html" target="_top" xlink:title=" ">
<polygon fill="white" stroke="black" points="364,-228.5 364,-247.5 464,-247.5 464,-228.5 364,-228.5"/>
<text text-anchor="middle" x="414" y="-235.5" font-family="Helvetica,sans-Serif" font-size="10.00">e57::BlobNodeImpl</text>
</a>
</g>
</g>
<!-- Node56&#45;&gt;Node57 -->
<g id="edge3" class="edge">
<title>Node56&#45;&gt;Node57</title>
<path fill="none" stroke="midnightblue" d="M278.31,-132.65C284.71,-135.24 290.83,-138.62 296,-143 324.51,-167.17 302.92,-195.52 332,-219 341.1,-226.35 352.55,-230.95 363.96,-233.81"/>
<polygon fill="midnightblue" stroke="midnightblue" points="279.4,-129.32 268.8,-129.37 277.12,-135.94 279.4,-129.32"/>
</g>
<!-- Node58 -->
<g id="node5" class="node">
<title>Node58</title>
<g id="a_node5"><a xlink:href="classe57_1_1_compressed_vector_node_impl.html" target="_top" xlink:title=" ">
<polygon fill="white" stroke="black" points="332,-190.5 332,-209.5 496,-209.5 496,-190.5 332,-190.5"/>
<text text-anchor="middle" x="414" y="-197.5" font-family="Helvetica,sans-Serif" font-size="10.00">e57::CompressedVectorNodeImpl</text>
</a>
</g>
</g>
<!-- Node56&#45;&gt;Node58 -->
<g id="edge4" class="edge">
<title>Node56&#45;&gt;Node58</title>
<path fill="none" stroke="midnightblue" d="M278.31,-134.65C284.49,-136.93 290.54,-139.69 296,-143 315.89,-155.07 311.83,-169.41 332,-181 338.76,-184.89 346.28,-187.98 353.92,-190.44"/>
<polygon fill="midnightblue" stroke="midnightblue" points="279.18,-131.25 268.58,-131.42 276.98,-137.89 279.18,-131.25"/>
</g>
<!-- Node59 -->
<g id="node6" class="node">
<title>Node59</title>
<g id="a_node6"><a xlink:href="classe57_1_1_float_node_impl.html" target="_top" xlink:title=" ">
<polygon fill="white" stroke="black" points="363,-152.5 363,-171.5 465,-171.5 465,-152.5 363,-152.5"/>
<text text-anchor="middle" x="414" y="-159.5" font-family="Helvetica,sans-Serif" font-size="10.00">e57::FloatNodeImpl</text>
</a>
</g>
</g>
<!-- Node56&#45;&gt;Node59 -->
<g id="edge5" class="edge">
<title>Node56&#45;&gt;Node59</title>
<path fill="none" stroke="midnightblue" d="M279.01,-134.25C306.35,-139.92 340.11,-146.9 366.89,-152.45"/>
<polygon fill="midnightblue" stroke="midnightblue" points="279.37,-130.75 268.87,-132.15 277.95,-137.61 279.37,-130.75"/>
</g>
<!-- Node60 -->
<g id="node7" class="node">
<title>Node60</title>
<g id="a_node7"><a xlink:href="classe57_1_1_integer_node_impl.html" target="_top" xlink:title=" ">
<polygon fill="white" stroke="black" points="359,-114.5 359,-133.5 469,-133.5 469,-114.5 359,-114.5"/>
<text text-anchor="middle" x="414" y="-121.5" font-family="Helvetica,sans-Serif" font-size="10.00">e57::IntegerNodeImpl</text>
</a>
</g>
</g>
<!-- Node56&#45;&gt;Node60 -->
<g id="edge6" class="edge">
<title>Node56&#45;&gt;Node60</title>
<path fill="none" stroke="midnightblue" d="M279.07,-124C303.7,-124 333.5,-124 358.73,-124"/>
<polygon fill="midnightblue" stroke="midnightblue" points="278.87,-120.5 268.87,-124 278.87,-127.5 278.87,-120.5"/>
</g>
<!-- Node61 -->
<g id="node8" class="node">
<title>Node61</title>
<g id="a_node8"><a xlink:href="classe57_1_1_scaled_integer_node_impl.html" target="_top" xlink:title=" ">
<polygon fill="white" stroke="black" points="344,-76.5 344,-95.5 484,-95.5 484,-76.5 344,-76.5"/>
<text text-anchor="middle" x="414" y="-83.5" font-family="Helvetica,sans-Serif" font-size="10.00">e57::ScaledIntegerNodeImpl</text>
</a>
</g>
</g>
<!-- Node56&#45;&gt;Node61 -->
<g id="edge7" class="edge">
<title>Node56&#45;&gt;Node61</title>
<path fill="none" stroke="midnightblue" d="M279.01,-113.75C306.35,-108.08 340.11,-101.1 366.89,-95.55"/>
<polygon fill="midnightblue" stroke="midnightblue" points="277.95,-110.39 268.87,-115.85 279.37,-117.25 277.95,-110.39"/>
</g>
<!-- Node62 -->
<g id="node9" class="node">
<title>Node62</title>
<g id="a_node9"><a xlink:href="classe57_1_1_string_node_impl.html" target="_top" xlink:title=" ">
<polygon fill="white" stroke="black" points="361,-38.5 361,-57.5 467,-57.5 467,-38.5 361,-38.5"/>
<text text-anchor="middle" x="414" y="-45.5" font-family="Helvetica,sans-Serif" font-size="10.00">e57::StringNodeImpl</text>
</a>
</g>
</g>
<!-- Node56&#45;&gt;Node62 -->
<g id="edge8" class="edge">
<title>Node56&#45;&gt;Node62</title>
<path fill="none" stroke="midnightblue" d="M278.31,-113.35C284.49,-111.07 290.54,-108.31 296,-105 315.89,-92.93 311.83,-78.59 332,-67 340.77,-61.96 350.8,-58.26 360.74,-55.54"/>
<polygon fill="midnightblue" stroke="midnightblue" points="276.98,-110.11 268.58,-116.58 279.18,-116.75 276.98,-110.11"/>
</g>
<!-- Node63 -->
<g id="node10" class="node">
<title>Node63</title>
<g id="a_node10"><a xlink:href="classe57_1_1_structure_node_impl.html" target="_top" xlink:title=" ">
<polygon fill="white" stroke="black" points="354,-0.5 354,-19.5 474,-19.5 474,-0.5 354,-0.5"/>
<text text-anchor="middle" x="414" y="-7.5" font-family="Helvetica,sans-Serif" font-size="10.00">e57::StructureNodeImpl</text>
</a>
</g>
</g>
<!-- Node56&#45;&gt;Node63 -->
<g id="edge9" class="edge">
<title>Node56&#45;&gt;Node63</title>
<path fill="none" stroke="midnightblue" d="M278.31,-115.35C284.71,-112.76 290.83,-109.38 296,-105 324.51,-80.83 302.92,-52.48 332,-29 338.4,-23.83 345.97,-20.02 353.87,-17.22"/>
<polygon fill="midnightblue" stroke="midnightblue" points="277.12,-112.06 268.8,-118.63 279.4,-118.68 277.12,-112.06"/>
</g>
<!-- Node64 -->
<g id="node11" class="node">
<title>Node64</title>
<g id="a_node11"><a xlink:href="classe57_1_1_vector_node_impl.html" target="_top" xlink:title=" ">
<polygon fill="white" stroke="black" points="532,-0.5 532,-19.5 641,-19.5 641,-0.5 532,-0.5"/>
<text text-anchor="middle" x="586.5" y="-7.5" font-family="Helvetica,sans-Serif" font-size="10.00">e57::VectorNodeImpl</text>
</a>
</g>
</g>
<!-- Node63&#45;&gt;Node64 -->
<g id="edge10" class="edge">
<title>Node63&#45;&gt;Node64</title>
<path fill="none" stroke="midnightblue" d="M484.42,-10C500.25,-10 516.83,-10 531.87,-10"/>
<polygon fill="midnightblue" stroke="midnightblue" points="484.15,-6.5 474.15,-10 484.15,-13.5 484.15,-6.5"/>
</g>
</g>
</svg>
