<?xml version="1.0" encoding="UTF-8" standalone="no"?>
<!DOCTYPE svg PUBLIC "-//W3C//DTD SVG 1.1//EN"
 "http://www.w3.org/Graphics/SVG/1.1/DTD/svg11.dtd">
<!-- Generated by graphviz version 7.0.0 (20221023.0053)
 -->
<!-- Title: Graphical Class Hierarchy Pages: 1 -->
<svg width="623pt" height="249pt"
 viewBox="0.00 0.00 623.00 249.00" xmlns="http://www.w3.org/2000/svg" xmlns:xlink="http://www.w3.org/1999/xlink">
<g id="graph0" class="graph" transform="scale(1 1) rotate(0) translate(4 245)">
<title>Graphical Class Hierarchy</title>
<!-- Node0 -->
<g id="node1" class="node">
<title>Node0</title>
<g id="a_node1"><a xlink:title=" ">
<polygon fill="#e0e0e0" stroke="#999999" points="99,-135.5 0,-135.5 0,-105.5 99,-105.5 99,-135.5"/>
<text text-anchor="start" x="8" y="-123.5" font-family="Helvetica,sans-Serif" font-size="10.00">std::enable_shared</text>
<text text-anchor="middle" x="49.5" y="-112.5" font-family="Helvetica,sans-Serif" font-size="10.00">_from_this</text>
</a>
</g>
</g>
<!-- Node1 -->
<g id="node2" class="node">
<title>Node1</title>
<g id="a_node2"><a xlink:href="d1/d59/classe57_1_1_image_file_impl.html" target="_top" xlink:title=" ">
<polygon fill="white" stroke="#666666" points="252.5,-167 152.5,-167 152.5,-148 252.5,-148 252.5,-167"/>
<text text-anchor="middle" x="202.5" y="-155" font-family="Helvetica,sans-Serif" font-size="10.00">e57::ImageFileImpl</text>
</a>
</g>
</g>
<!-- Node0&#45;&gt;Node1 -->
<g id="edge1" class="edge">
<title>Node0&#45;&gt;Node1</title>
<path fill="none" stroke="#63b8ff" d="M110.13,-135.11C127.22,-139.3 145.43,-143.76 161.07,-147.59"/>
<polygon fill="#63b8ff" stroke="#63b8ff" points="111.12,-131.75 100.58,-132.77 109.46,-138.55 111.12,-131.75"/>
</g>
<!-- Node2 -->
<g id="node3" class="node">
<title>Node2</title>
<g id="a_node3"><a xlink:href="dc/d60/classe57_1_1_node_impl.html" target="_top" xlink:title=" ">
<polygon fill="white" stroke="#666666" points="242.5,-130 162.5,-130 162.5,-111 242.5,-111 242.5,-130"/>
<text text-anchor="middle" x="202.5" y="-118" font-family="Helvetica,sans-Serif" font-size="10.00">e57::NodeImpl</text>
</a>
</g>
</g>
<!-- Node0&#45;&gt;Node2 -->
<g id="edge2" class="edge">
<title>Node0&#45;&gt;Node2</title>
<path fill="none" stroke="#63b8ff" d="M110.33,-120.5C127.71,-120.5 146.26,-120.5 162.05,-120.5"/>
<polygon fill="#63b8ff" stroke="#63b8ff" points="110.62,-117 100.62,-120.5 110.62,-124 110.62,-117"/>
</g>
<!-- Node11 -->
<g id="node12" class="node">
<title>Node11</title>
<g id="a_node12"><a xlink:href="db/de2/classe57_1_1_source_dest_buffer_impl.html" target="_top" xlink:title=" ">
<polygon fill="white" stroke="#666666" points="270,-93 135,-93 135,-74 270,-74 270,-93"/>
<text text-anchor="middle" x="202.5" y="-81" font-family="Helvetica,sans-Serif" font-size="10.00">e57::SourceDestBufferImpl</text>
</a>
</g>
</g>
<!-- Node0&#45;&gt;Node11 -->
<g id="edge11" class="edge">
<title>Node0&#45;&gt;Node11</title>
<path fill="none" stroke="#63b8ff" d="M110.13,-105.89C127.22,-101.7 145.43,-97.24 161.07,-93.41"/>
<polygon fill="#63b8ff" stroke="#63b8ff" points="109.46,-102.45 100.58,-108.23 111.12,-109.25 109.46,-102.45"/>
</g>
<!-- Node3 -->
<g id="node4" class="node">
<title>Node3</title>
<g id="a_node4"><a xlink:href="d7/da7/classe57_1_1_blob_node_impl.html" target="_top" xlink:title=" ">
<polygon fill="white" stroke="#666666" points="438,-241 338,-241 338,-222 438,-222 438,-241"/>
<text text-anchor="middle" x="388" y="-229" font-family="Helvetica,sans-Serif" font-size="10.00">e57::BlobNodeImpl</text>
</a>
</g>
</g>
<!-- Node2&#45;&gt;Node3 -->
<g id="edge3" class="edge">
<title>Node2&#45;&gt;Node3</title>
<path fill="none" stroke="#63b8ff" d="M253.6,-129.75C259.53,-132.26 265.17,-135.45 270,-139.5 298.02,-163.01 277.29,-190.84 306,-213.5 315.04,-220.64 326.35,-225.08 337.61,-227.8"/>
<polygon fill="#63b8ff" stroke="#63b8ff" points="254.78,-126.45 244.18,-126.43 252.45,-133.05 254.78,-126.45"/>
</g>
<!-- Node4 -->
<g id="node5" class="node">
<title>Node4</title>
<g id="a_node5"><a xlink:href="d2/d69/classe57_1_1_compressed_vector_node_impl.html" target="_top" xlink:title=" ">
<polygon fill="white" stroke="#666666" points="470,-204 306,-204 306,-185 470,-185 470,-204"/>
<text text-anchor="middle" x="388" y="-192" font-family="Helvetica,sans-Serif" font-size="10.00">e57::CompressedVectorNodeImpl</text>
</a>
</g>
</g>
<!-- Node2&#45;&gt;Node4 -->
<g id="edge4" class="edge">
<title>Node2&#45;&gt;Node4</title>
<path fill="none" stroke="#63b8ff" d="M253.37,-131.63C259.17,-133.82 264.85,-136.42 270,-139.5 289.69,-151.27 285.96,-165.32 306,-176.5 311.79,-179.73 318.11,-182.38 324.59,-184.55"/>
<polygon fill="#63b8ff" stroke="#63b8ff" points="254.91,-128.45 244.32,-128.59 252.69,-135.09 254.91,-128.45"/>
</g>
<!-- Node5 -->
<g id="node6" class="node">
<title>Node5</title>
<g id="a_node6"><a xlink:href="d1/d31/classe57_1_1_float_node_impl.html" target="_top" xlink:title=" ">
<polygon fill="white" stroke="#666666" points="439,-167 337,-167 337,-148 439,-148 439,-167"/>
<text text-anchor="middle" x="388" y="-155" font-family="Helvetica,sans-Serif" font-size="10.00">e57::FloatNodeImpl</text>
</a>
</g>
</g>
<!-- Node2&#45;&gt;Node5 -->
<g id="edge5" class="edge">
<title>Node2&#45;&gt;Node5</title>
<path fill="none" stroke="#63b8ff" d="M254.02,-130.69C280.05,-135.93 311.66,-142.31 337.54,-147.53"/>
<polygon fill="#63b8ff" stroke="#63b8ff" points="254.84,-127.28 244.35,-128.74 253.46,-134.14 254.84,-127.28"/>
</g>
<!-- Node6 -->
<g id="node7" class="node">
<title>Node6</title>
<g id="a_node7"><a xlink:href="d3/d04/classe57_1_1_integer_node_impl.html" target="_top" xlink:title=" ">
<polygon fill="white" stroke="#666666" points="443,-130 333,-130 333,-111 443,-111 443,-130"/>
<text text-anchor="middle" x="388" y="-118" font-family="Helvetica,sans-Serif" font-size="10.00">e57::IntegerNodeImpl</text>
</a>
</g>
</g>
<!-- Node2&#45;&gt;Node6 -->
<g id="edge6" class="edge">
<title>Node2&#45;&gt;Node6</title>
<path fill="none" stroke="#63b8ff" d="M254.06,-120.5C278.49,-120.5 307.84,-120.5 332.73,-120.5"/>
<polygon fill="#63b8ff" stroke="#63b8ff" points="254.38,-117 244.38,-120.5 254.38,-124 254.38,-117"/>
</g>
<!-- Node7 -->
<g id="node8" class="node">
<title>Node7</title>
<g id="a_node8"><a xlink:href="d6/def/classe57_1_1_scaled_integer_node_impl.html" target="_top" xlink:title=" ">
<polygon fill="white" stroke="#666666" points="458,-93 318,-93 318,-74 458,-74 458,-93"/>
<text text-anchor="middle" x="388" y="-81" font-family="Helvetica,sans-Serif" font-size="10.00">e57::ScaledIntegerNodeImpl</text>
</a>
</g>
</g>
<!-- Node2&#45;&gt;Node7 -->
<g id="edge7" class="edge">
<title>Node2&#45;&gt;Node7</title>
<path fill="none" stroke="#63b8ff" d="M254.02,-110.31C280.05,-105.07 311.66,-98.69 337.54,-93.47"/>
<polygon fill="#63b8ff" stroke="#63b8ff" points="253.46,-106.86 244.35,-112.26 254.84,-113.72 253.46,-106.86"/>
</g>
<!-- Node8 -->
<g id="node9" class="node">
<title>Node8</title>
<g id="a_node9"><a xlink:href="db/df6/classe57_1_1_string_node_impl.html" target="_top" xlink:title=" ">
<polygon fill="white" stroke="#666666" points="441,-56 335,-56 335,-37 441,-37 441,-56"/>
<text text-anchor="middle" x="388" y="-44" font-family="Helvetica,sans-Serif" font-size="10.00">e57::StringNodeImpl</text>
</a>
</g>
</g>
<!-- Node2&#45;&gt;Node8 -->
<g id="edge8" class="edge">
<title>Node2&#45;&gt;Node8</title>
<path fill="none" stroke="#63b8ff" d="M253.8,-110.02C259.45,-107.94 264.97,-105.46 270,-102.5 289.78,-90.87 286.03,-76.8 306,-65.5 314.8,-60.52 324.84,-56.85 334.79,-54.13"/>
<polygon fill="#63b8ff" stroke="#63b8ff" points="252.76,-106.68 244.32,-113.09 254.91,-113.34 252.76,-106.68"/>
</g>
<!-- Node9 -->
<g id="node10" class="node">
<title>Node9</title>
<g id="a_node10"><a xlink:href="d3/dfc/classe57_1_1_structure_node_impl.html" target="_top" xlink:title=" ">
<polygon fill="white" stroke="#666666" points="448,-19 328,-19 328,0 448,0 448,-19"/>
<text text-anchor="middle" x="388" y="-7" font-family="Helvetica,sans-Serif" font-size="10.00">e57::StructureNodeImpl</text>
</a>
</g>
</g>
<!-- Node2&#45;&gt;Node9 -->
<g id="edge9" class="edge">
<title>Node2&#45;&gt;Node9</title>
<path fill="none" stroke="#63b8ff" d="M253.59,-112.05C259.51,-109.62 265.16,-106.5 270,-102.5 298.18,-79.19 277.43,-51.33 306,-28.5 312.32,-23.45 319.75,-19.7 327.5,-16.92"/>
<polygon fill="#63b8ff" stroke="#63b8ff" points="252.52,-108.71 244.17,-115.23 254.76,-115.34 252.52,-108.71"/>
</g>
<!-- Node10 -->
<g id="node11" class="node">
<title>Node10</title>
<g id="a_node11"><a xlink:href="d2/d6f/classe57_1_1_vector_node_impl.html" target="_top" xlink:title=" ">
<polygon fill="white" stroke="#666666" points="615,-19 506,-19 506,0 615,0 615,-19"/>
<text text-anchor="middle" x="560.5" y="-7" font-family="Helvetica,sans-Serif" font-size="10.00">e57::VectorNodeImpl</text>
</a>
</g>
</g>
<!-- Node9&#45;&gt;Node10 -->
<g id="edge10" class="edge">
<title>Node9&#45;&gt;Node10</title>
<path fill="none" stroke="#63b8ff" d="M459.27,-9.5C474.74,-9.5 490.89,-9.5 505.59,-9.5"/>
<polygon fill="#63b8ff" stroke="#63b8ff" points="459.67,-6 449.67,-9.5 459.67,-13 459.67,-6"/>
</g>
</g>
</svg>
