<?xml version="1.0" encoding="UTF-8" standalone="no"?>
<!DOCTYPE svg PUBLIC "-//W3C//DTD SVG 1.1//EN"
 "http://www.w3.org/Graphics/SVG/1.1/DTD/svg11.dtd">
<!-- Generated by graphviz version 2.48.0 (20210717.1556)
 -->
<!-- Title: Graphical Class Hierarchy Pages: 1 -->
<svg width="631pt" height="256pt"
 viewBox="0.00 0.00 631.00 256.00" xmlns="http://www.w3.org/2000/svg" xmlns:xlink="http://www.w3.org/1999/xlink">
<g id="graph0" class="graph" transform="scale(1 1) rotate(0) translate(4 252)">
<title>Graphical Class Hierarchy</title>
<polygon fill="white" stroke="transparent" points="-4,4 -4,-252 627,-252 627,4 -4,4"/>
<!-- Node38 -->
<g id="node1" class="node">
<title>Node38</title>
<g id="a_node1"><a xlink:title=" ">
<polygon fill="white" stroke="#bfbfbf" points="0,-109 0,-139 102,-139 102,-109 0,-109"/>
<text text-anchor="start" x="8" y="-127" font-family="Helvetica,sans-Serif" font-size="10.00">std::enable_shared</text>
<text text-anchor="middle" x="51" y="-116" font-family="Helvetica,sans-Serif" font-size="10.00">_from_this</text>
</a>
</g>
</g>
<!-- Node0 -->
<g id="node2" class="node">
<title>Node0</title>
<g id="a_node2"><a xlink:href="classe57_1_1_image_file_impl.html" target="_top" xlink:title=" ">
<polygon fill="white" stroke="black" points="155,-152.5 155,-171.5 257,-171.5 257,-152.5 155,-152.5"/>
<text text-anchor="middle" x="206" y="-159.5" font-family="Helvetica,sans-Serif" font-size="10.00">e57::ImageFileImpl</text>
</a>
</g>
</g>
<!-- Node38&#45;&gt;Node0 -->
<g id="edge1" class="edge">
<title>Node38&#45;&gt;Node0</title>
<path fill="none" stroke="midnightblue" d="M111.84,-138.86C130.2,-143.42 149.9,-148.32 166.44,-152.42"/>
<polygon fill="midnightblue" stroke="midnightblue" points="112.65,-135.46 102.1,-136.44 110.96,-142.25 112.65,-135.46"/>
</g>
<!-- Node40 -->
<g id="node3" class="node">
<title>Node40</title>
<g id="a_node3"><a xlink:href="classe57_1_1_node_impl.html" target="_top" xlink:title=" ">
<polygon fill="white" stroke="black" points="165,-114.5 165,-133.5 247,-133.5 247,-114.5 165,-114.5"/>
<text text-anchor="middle" x="206" y="-121.5" font-family="Helvetica,sans-Serif" font-size="10.00">e57::NodeImpl</text>
</a>
</g>
</g>
<!-- Node38&#45;&gt;Node40 -->
<g id="edge2" class="edge">
<title>Node38&#45;&gt;Node40</title>
<path fill="none" stroke="midnightblue" d="M112.34,-124C130.01,-124 148.89,-124 164.97,-124"/>
<polygon fill="midnightblue" stroke="midnightblue" points="112.1,-120.5 102.1,-124 112.1,-127.5 112.1,-120.5"/>
</g>
<!-- Node49 -->
<g id="node12" class="node">
<title>Node49</title>
<g id="a_node12"><a xlink:href="classe57_1_1_source_dest_buffer_impl.html" target="_top" xlink:title=" ">
<polygon fill="white" stroke="black" points="138,-76.5 138,-95.5 274,-95.5 274,-76.5 138,-76.5"/>
<text text-anchor="middle" x="206" y="-83.5" font-family="Helvetica,sans-Serif" font-size="10.00">e57::SourceDestBufferImpl</text>
</a>
</g>
</g>
<!-- Node38&#45;&gt;Node49 -->
<g id="edge11" class="edge">
<title>Node38&#45;&gt;Node49</title>
<path fill="none" stroke="midnightblue" d="M111.84,-109.14C130.2,-104.58 149.9,-99.68 166.44,-95.58"/>
<polygon fill="midnightblue" stroke="midnightblue" points="110.96,-105.75 102.1,-111.56 112.65,-112.54 110.96,-105.75"/>
</g>
<!-- Node41 -->
<g id="node4" class="node">
<title>Node41</title>
<g id="a_node4"><a xlink:href="classe57_1_1_blob_node_impl.html" target="_top" xlink:title=" ">
<polygon fill="white" stroke="black" points="342.5,-228.5 342.5,-247.5 444.5,-247.5 444.5,-228.5 342.5,-228.5"/>
<text text-anchor="middle" x="393.5" y="-235.5" font-family="Helvetica,sans-Serif" font-size="10.00">e57::BlobNodeImpl</text>
</a>
</g>
</g>
<!-- Node40&#45;&gt;Node41 -->
<g id="edge3" class="edge">
<title>Node40&#45;&gt;Node41</title>
<path fill="none" stroke="midnightblue" d="M257.07,-132.97C263.19,-135.52 269.03,-138.8 274,-143 302.53,-167.15 280.88,-195.57 310,-219 319.16,-226.37 330.65,-230.99 342.13,-233.86"/>
<polygon fill="midnightblue" stroke="midnightblue" points="257.89,-129.55 247.29,-129.52 255.56,-136.15 257.89,-129.55"/>
</g>
<!-- Node42 -->
<g id="node5" class="node">
<title>Node42</title>
<g id="a_node5"><a xlink:href="classe57_1_1_compressed_vector_node_impl.html" target="_top" xlink:title=" ">
<polygon fill="white" stroke="black" points="310,-190.5 310,-209.5 477,-209.5 477,-190.5 310,-190.5"/>
<text text-anchor="middle" x="393.5" y="-197.5" font-family="Helvetica,sans-Serif" font-size="10.00">e57::CompressedVectorNodeImpl</text>
</a>
</g>
</g>
<!-- Node40&#45;&gt;Node42 -->
<g id="edge4" class="edge">
<title>Node40&#45;&gt;Node42</title>
<path fill="none" stroke="midnightblue" d="M256.64,-134.78C262.7,-137.04 268.64,-139.75 274,-143 293.9,-155.05 289.8,-169.45 310,-181 316.76,-184.87 324.26,-187.95 331.9,-190.4"/>
<polygon fill="midnightblue" stroke="midnightblue" points="257.67,-131.44 247.08,-131.59 255.46,-138.08 257.67,-131.44"/>
</g>
<!-- Node43 -->
<g id="node6" class="node">
<title>Node43</title>
<g id="a_node6"><a xlink:href="classe57_1_1_float_node_impl.html" target="_top" xlink:title=" ">
<polygon fill="white" stroke="black" points="341.5,-152.5 341.5,-171.5 445.5,-171.5 445.5,-152.5 341.5,-152.5"/>
<text text-anchor="middle" x="393.5" y="-159.5" font-family="Helvetica,sans-Serif" font-size="10.00">e57::FloatNodeImpl</text>
</a>
</g>
</g>
<!-- Node40&#45;&gt;Node43 -->
<g id="edge5" class="edge">
<title>Node40&#45;&gt;Node43</title>
<path fill="none" stroke="midnightblue" d="M257.14,-134.27C284.84,-139.95 319.03,-146.95 346.11,-152.5"/>
<polygon fill="midnightblue" stroke="midnightblue" points="257.75,-130.82 247.25,-132.25 256.34,-137.68 257.75,-130.82"/>
</g>
<!-- Node44 -->
<g id="node7" class="node">
<title>Node44</title>
<g id="a_node7"><a xlink:href="classe57_1_1_integer_node_impl.html" target="_top" xlink:title=" ">
<polygon fill="white" stroke="black" points="337,-114.5 337,-133.5 450,-133.5 450,-114.5 337,-114.5"/>
<text text-anchor="middle" x="393.5" y="-121.5" font-family="Helvetica,sans-Serif" font-size="10.00">e57::IntegerNodeImpl</text>
</a>
</g>
</g>
<!-- Node40&#45;&gt;Node44 -->
<g id="edge6" class="edge">
<title>Node40&#45;&gt;Node44</title>
<path fill="none" stroke="midnightblue" d="M257.44,-124C282.01,-124 311.62,-124 336.85,-124"/>
<polygon fill="midnightblue" stroke="midnightblue" points="257.25,-120.5 247.25,-124 257.25,-127.5 257.25,-120.5"/>
</g>
<!-- Node45 -->
<g id="node8" class="node">
<title>Node45</title>
<g id="a_node8"><a xlink:href="classe57_1_1_scaled_integer_node_impl.html" target="_top" xlink:title=" ">
<polygon fill="white" stroke="black" points="322,-76.5 322,-95.5 465,-95.5 465,-76.5 322,-76.5"/>
<text text-anchor="middle" x="393.5" y="-83.5" font-family="Helvetica,sans-Serif" font-size="10.00">e57::ScaledIntegerNodeImpl</text>
</a>
</g>
</g>
<!-- Node40&#45;&gt;Node45 -->
<g id="edge7" class="edge">
<title>Node40&#45;&gt;Node45</title>
<path fill="none" stroke="midnightblue" d="M257.14,-113.73C284.84,-108.05 319.03,-101.05 346.11,-95.5"/>
<polygon fill="midnightblue" stroke="midnightblue" points="256.34,-110.32 247.25,-115.75 257.75,-117.18 256.34,-110.32"/>
</g>
<!-- Node46 -->
<g id="node9" class="node">
<title>Node46</title>
<g id="a_node9"><a xlink:href="classe57_1_1_string_node_impl.html" target="_top" xlink:title=" ">
<polygon fill="white" stroke="black" points="339.5,-38.5 339.5,-57.5 447.5,-57.5 447.5,-38.5 339.5,-38.5"/>
<text text-anchor="middle" x="393.5" y="-45.5" font-family="Helvetica,sans-Serif" font-size="10.00">e57::StringNodeImpl</text>
</a>
</g>
</g>
<!-- Node40&#45;&gt;Node46 -->
<g id="edge8" class="edge">
<title>Node40&#45;&gt;Node46</title>
<path fill="none" stroke="midnightblue" d="M256.64,-113.22C262.7,-110.96 268.64,-108.25 274,-105 293.9,-92.95 289.8,-78.55 310,-67 318.93,-61.89 329.15,-58.16 339.28,-55.43"/>
<polygon fill="midnightblue" stroke="midnightblue" points="255.46,-109.92 247.08,-116.41 257.67,-116.56 255.46,-109.92"/>
</g>
<!-- Node47 -->
<g id="node10" class="node">
<title>Node47</title>
<g id="a_node10"><a xlink:href="classe57_1_1_structure_node_impl.html" target="_top" xlink:title=" ">
<polygon fill="white" stroke="black" points="332.5,-0.5 332.5,-19.5 454.5,-19.5 454.5,-0.5 332.5,-0.5"/>
<text text-anchor="middle" x="393.5" y="-7.5" font-family="Helvetica,sans-Serif" font-size="10.00">e57::StructureNodeImpl</text>
</a>
</g>
</g>
<!-- Node40&#45;&gt;Node47 -->
<g id="edge9" class="edge">
<title>Node40&#45;&gt;Node47</title>
<path fill="none" stroke="midnightblue" d="M257.07,-115.03C263.19,-112.48 269.03,-109.2 274,-105 302.53,-80.85 280.88,-52.43 310,-29 316.53,-23.75 324.24,-19.89 332.28,-17.07"/>
<polygon fill="midnightblue" stroke="midnightblue" points="255.56,-111.85 247.29,-118.48 257.89,-118.45 255.56,-111.85"/>
</g>
<!-- Node48 -->
<g id="node11" class="node">
<title>Node48</title>
<g id="a_node11"><a xlink:href="classe57_1_1_vector_node_impl.html" target="_top" xlink:title=" ">
<polygon fill="white" stroke="black" points="513,-0.5 513,-19.5 623,-19.5 623,-0.5 513,-0.5"/>
<text text-anchor="middle" x="568" y="-7.5" font-family="Helvetica,sans-Serif" font-size="10.00">e57::VectorNodeImpl</text>
</a>
</g>
</g>
<!-- Node47&#45;&gt;Node48 -->
<g id="edge10" class="edge">
<title>Node47&#45;&gt;Node48</title>
<path fill="none" stroke="midnightblue" d="M465.15,-10C481.04,-10 497.66,-10 512.75,-10"/>
<polygon fill="midnightblue" stroke="midnightblue" points="464.83,-6.5 454.83,-10 464.83,-13.5 464.83,-6.5"/>
</g>
</g>
</svg>
