<?xml version="1.0" encoding="UTF-8" standalone="no"?>
<!DOCTYPE svg PUBLIC "-//W3C//DTD SVG 1.1//EN"
 "http://www.w3.org/Graphics/SVG/1.1/DTD/svg11.dtd">
<!-- Generated by graphviz version 2.44.0 (20200408.0750)
 -->
<!-- Title: Graphical Class Hierarchy Pages: 1 -->
<svg width="438pt" height="116pt"
 viewBox="0.00 0.00 438.00 116.00" xmlns="http://www.w3.org/2000/svg" xmlns:xlink="http://www.w3.org/1999/xlink">
<g id="graph0" class="graph" transform="scale(1 1) rotate(0) translate(4 112)">
<title>Graphical Class Hierarchy</title>
<polygon fill="white" stroke="transparent" points="-4,4 -4,-112 434,-112 434,4 -4,4"/>
<!-- Node0 -->
<g id="node1" class="node">
<title>Node0</title>
<g id="a_node1"><a xlink:href="classe57_1_1_decoder.html" target="_top" xlink:title=" ">
<polygon fill="white" stroke="black" points="0,-25.5 0,-44.5 75,-44.5 75,-25.5 0,-25.5"/>
<text text-anchor="middle" x="37.5" y="-32.5" font-family="Helvetica,sans-Serif" font-size="10.00">e57::Decoder</text>
</a>
</g>
</g>
<!-- Node1 -->
<g id="node2" class="node">
<title>Node1</title>
<g id="a_node2"><a xlink:href="classe57_1_1_bitpack_decoder.html" target="_top" xlink:title=" ">
<polygon fill="white" stroke="black" points="129.5,-44.5 129.5,-63.5 237.5,-63.5 237.5,-44.5 129.5,-44.5"/>
<text text-anchor="middle" x="183.5" y="-51.5" font-family="Helvetica,sans-Serif" font-size="10.00">e57::BitpackDecoder</text>
</a>
</g>
</g>
<!-- Node0&#45;&gt;Node1 -->
<g id="edge1" class="edge">
<title>Node0&#45;&gt;Node1</title>
<path fill="none" stroke="midnightblue" d="M85.16,-41.16C99.24,-43.01 114.81,-45.07 129.28,-46.98"/>
<polygon fill="midnightblue" stroke="midnightblue" points="85.58,-37.68 75.21,-39.84 84.67,-44.62 85.58,-37.68"/>
</g>
<!-- Node5 -->
<g id="node6" class="node">
<title>Node5</title>
<g id="a_node6"><a xlink:href="classe57_1_1_constant_integer_decoder.html" target="_top" xlink:title=" ">
<polygon fill="white" stroke="black" points="111,-6.5 111,-25.5 256,-25.5 256,-6.5 111,-6.5"/>
<text text-anchor="middle" x="183.5" y="-13.5" font-family="Helvetica,sans-Serif" font-size="10.00">e57::ConstantIntegerDecoder</text>
</a>
</g>
</g>
<!-- Node0&#45;&gt;Node5 -->
<g id="edge5" class="edge">
<title>Node0&#45;&gt;Node5</title>
<path fill="none" stroke="midnightblue" d="M85.27,-28.83C93.46,-27.75 102.14,-26.6 110.82,-25.46"/>
<polygon fill="midnightblue" stroke="midnightblue" points="84.67,-25.38 75.21,-30.16 85.58,-32.32 84.67,-25.38"/>
</g>
<!-- Node2 -->
<g id="node3" class="node">
<title>Node2</title>
<g id="a_node3"><a xlink:href="classe57_1_1_bitpack_float_decoder.html" target="_top" xlink:title=" ">
<polygon fill="white" stroke="black" points="296,-88.5 296,-107.5 426,-107.5 426,-88.5 296,-88.5"/>
<text text-anchor="middle" x="361" y="-95.5" font-family="Helvetica,sans-Serif" font-size="10.00">e57::BitpackFloatDecoder</text>
</a>
</g>
</g>
<!-- Node1&#45;&gt;Node2 -->
<g id="edge2" class="edge">
<title>Node1&#45;&gt;Node2</title>
<path fill="none" stroke="midnightblue" d="M232.61,-66.06C260.76,-73.12 295.79,-81.9 321.99,-88.47"/>
<polygon fill="midnightblue" stroke="midnightblue" points="233.13,-62.58 222.58,-63.55 231.43,-69.37 233.13,-62.58"/>
</g>
<!-- Node3 -->
<g id="node4" class="node">
<title>Node3</title>
<g id="a_node4"><a xlink:href="classe57_1_1_bitpack_integer_decoder.html" target="_top" xlink:title=" ">
<polygon fill="white" stroke="black" points="292,-39 292,-69 430,-69 430,-39 292,-39"/>
<text text-anchor="start" x="300" y="-57" font-family="Helvetica,sans-Serif" font-size="10.00">e57::BitpackIntegerDecoder</text>
<text text-anchor="middle" x="361" y="-46" font-family="Helvetica,sans-Serif" font-size="10.00">&lt; RegisterT &gt;</text>
</a>
</g>
</g>
<!-- Node1&#45;&gt;Node3 -->
<g id="edge3" class="edge">
<title>Node1&#45;&gt;Node3</title>
<path fill="none" stroke="midnightblue" d="M247.84,-54C262.11,-54 277.32,-54 291.78,-54"/>
<polygon fill="midnightblue" stroke="midnightblue" points="247.63,-50.5 237.63,-54 247.63,-57.5 247.63,-50.5"/>
</g>
<!-- Node4 -->
<g id="node5" class="node">
<title>Node4</title>
<g id="a_node5"><a xlink:href="classe57_1_1_bitpack_string_decoder.html" target="_top" xlink:title=" ">
<polygon fill="white" stroke="black" points="294,-0.5 294,-19.5 428,-19.5 428,-0.5 294,-0.5"/>
<text text-anchor="middle" x="361" y="-7.5" font-family="Helvetica,sans-Serif" font-size="10.00">e57::BitpackStringDecoder</text>
</a>
</g>
</g>
<!-- Node1&#45;&gt;Node4 -->
<g id="edge4" class="edge">
<title>Node1&#45;&gt;Node4</title>
<path fill="none" stroke="midnightblue" d="M232.61,-41.94C260.76,-34.88 295.79,-26.1 321.99,-19.53"/>
<polygon fill="midnightblue" stroke="midnightblue" points="231.43,-38.63 222.58,-44.45 233.13,-45.42 231.43,-38.63"/>
</g>
</g>
</svg>
