<?xml version="1.0" encoding="UTF-8" standalone="no"?>
<!DOCTYPE svg PUBLIC "-//W3C//DTD SVG 1.1//EN"
 "http://www.w3.org/Graphics/SVG/1.1/DTD/svg11.dtd">
<!-- Generated by graphviz version 2.44.0 (20200408.0750)
 -->
<!-- Title: Graphical Class Hierarchy Pages: 1 -->
<svg width="435pt" height="116pt"
 viewBox="0.00 0.00 435.00 116.00" xmlns="http://www.w3.org/2000/svg" xmlns:xlink="http://www.w3.org/1999/xlink">
<g id="graph0" class="graph" transform="scale(1 1) rotate(0) translate(4 112)">
<title>Graphical Class Hierarchy</title>
<polygon fill="white" stroke="transparent" points="-4,4 -4,-112 431,-112 431,4 -4,4"/>
<!-- Node0 -->
<g id="node1" class="node">
<title>Node0</title>
<g id="a_node1"><a xlink:href="classe57_1_1_encoder.html" target="_top" xlink:title=" ">
<polygon fill="white" stroke="black" points="0,-25.5 0,-44.5 74,-44.5 74,-25.5 0,-25.5"/>
<text text-anchor="middle" x="37" y="-32.5" font-family="Helvetica,sans-Serif" font-size="10.00">e57::Encoder</text>
</a>
</g>
</g>
<!-- Node1 -->
<g id="node2" class="node">
<title>Node1</title>
<g id="a_node2"><a xlink:href="classe57_1_1_bitpack_encoder.html" target="_top" xlink:title=" ">
<polygon fill="white" stroke="black" points="128.5,-44.5 128.5,-63.5 235.5,-63.5 235.5,-44.5 128.5,-44.5"/>
<text text-anchor="middle" x="182" y="-51.5" font-family="Helvetica,sans-Serif" font-size="10.00">e57::BitpackEncoder</text>
</a>
</g>
</g>
<!-- Node0&#45;&gt;Node1 -->
<g id="edge1" class="edge">
<title>Node0&#45;&gt;Node1</title>
<path fill="none" stroke="midnightblue" d="M84.08,-41.12C98.22,-43 113.9,-45.08 128.44,-47.02"/>
<polygon fill="midnightblue" stroke="midnightblue" points="84.46,-37.64 74.08,-39.79 83.54,-44.58 84.46,-37.64"/>
</g>
<!-- Node5 -->
<g id="node6" class="node">
<title>Node5</title>
<g id="a_node6"><a xlink:href="classe57_1_1_constant_integer_encoder.html" target="_top" xlink:title=" ">
<polygon fill="white" stroke="black" points="110,-6.5 110,-25.5 254,-25.5 254,-6.5 110,-6.5"/>
<text text-anchor="middle" x="182" y="-13.5" font-family="Helvetica,sans-Serif" font-size="10.00">e57::ConstantIntegerEncoder</text>
</a>
</g>
</g>
<!-- Node0&#45;&gt;Node5 -->
<g id="edge5" class="edge">
<title>Node0&#45;&gt;Node5</title>
<path fill="none" stroke="midnightblue" d="M84.16,-28.87C92.37,-27.78 101.08,-26.62 109.79,-25.46"/>
<polygon fill="midnightblue" stroke="midnightblue" points="83.54,-25.42 74.08,-30.21 84.46,-32.36 83.54,-25.42"/>
</g>
<!-- Node2 -->
<g id="node3" class="node">
<title>Node2</title>
<g id="a_node3"><a xlink:href="classe57_1_1_bitpack_float_encoder.html" target="_top" xlink:title=" ">
<polygon fill="white" stroke="black" points="294,-88.5 294,-107.5 423,-107.5 423,-88.5 294,-88.5"/>
<text text-anchor="middle" x="358.5" y="-95.5" font-family="Helvetica,sans-Serif" font-size="10.00">e57::BitpackFloatEncoder</text>
</a>
</g>
</g>
<!-- Node1&#45;&gt;Node2 -->
<g id="edge2" class="edge">
<title>Node1&#45;&gt;Node2</title>
<path fill="none" stroke="midnightblue" d="M230.84,-66.06C258.82,-73.12 293.66,-81.9 319.71,-88.47"/>
<polygon fill="midnightblue" stroke="midnightblue" points="231.42,-62.6 220.86,-63.55 229.7,-69.39 231.42,-62.6"/>
</g>
<!-- Node3 -->
<g id="node4" class="node">
<title>Node3</title>
<g id="a_node4"><a xlink:href="classe57_1_1_bitpack_integer_encoder.html" target="_top" xlink:title=" ">
<polygon fill="white" stroke="black" points="290,-39 290,-69 427,-69 427,-39 290,-39"/>
<text text-anchor="start" x="298" y="-57" font-family="Helvetica,sans-Serif" font-size="10.00">e57::BitpackIntegerEncoder</text>
<text text-anchor="middle" x="358.5" y="-46" font-family="Helvetica,sans-Serif" font-size="10.00">&lt; RegisterT &gt;</text>
</a>
</g>
</g>
<!-- Node1&#45;&gt;Node3 -->
<g id="edge3" class="edge">
<title>Node1&#45;&gt;Node3</title>
<path fill="none" stroke="midnightblue" d="M246.04,-54C260.31,-54 275.53,-54 289.99,-54"/>
<polygon fill="midnightblue" stroke="midnightblue" points="245.83,-50.5 235.83,-54 245.83,-57.5 245.83,-50.5"/>
</g>
<!-- Node4 -->
<g id="node5" class="node">
<title>Node4</title>
<g id="a_node5"><a xlink:href="classe57_1_1_bitpack_string_encoder.html" target="_top" xlink:title=" ">
<polygon fill="white" stroke="black" points="292,-0.5 292,-19.5 425,-19.5 425,-0.5 292,-0.5"/>
<text text-anchor="middle" x="358.5" y="-7.5" font-family="Helvetica,sans-Serif" font-size="10.00">e57::BitpackStringEncoder</text>
</a>
</g>
</g>
<!-- Node1&#45;&gt;Node4 -->
<g id="edge4" class="edge">
<title>Node1&#45;&gt;Node4</title>
<path fill="none" stroke="midnightblue" d="M230.84,-41.94C258.82,-34.88 293.66,-26.1 319.71,-19.53"/>
<polygon fill="midnightblue" stroke="midnightblue" points="229.7,-38.61 220.86,-44.45 231.42,-45.4 229.7,-38.61"/>
</g>
</g>
</svg>
