<?xml version="1.0" encoding="UTF-8" standalone="no"?>
<!DOCTYPE svg PUBLIC "-//W3C//DTD SVG 1.1//EN"
 "http://www.w3.org/Graphics/SVG/1.1/DTD/svg11.dtd">
<!-- Generated by graphviz version 2.48.0 (20210717.1556)
 -->
<!-- Title: e57::CompressedVectorSectionHeader Pages: 1 -->
<svg width="192pt" height="128pt"
 viewBox="0.00 0.00 192.00 128.00" xmlns="http://www.w3.org/2000/svg" xmlns:xlink="http://www.w3.org/1999/xlink">
<g id="graph0" class="graph" transform="scale(1 1) rotate(0) translate(4 124)">
<title>e57::CompressedVectorSectionHeader</title>
<polygon fill="white" stroke="transparent" points="-4,4 -4,-124 188,-124 188,4 -4,4"/>
<!-- Node1 -->
<g id="node1" class="node">
<title>Node1</title>
<g id="a_node1"><a xlink:title=" ">
<polygon fill="#bfbfbf" stroke="black" points="5.5,-0.5 5.5,-30.5 162.5,-30.5 162.5,-0.5 5.5,-0.5"/>
<text text-anchor="start" x="13.5" y="-18.5" font-family="Helvetica,sans-Serif" font-size="10.00">e57::CompressedVectorSection</text>
<text text-anchor="middle" x="84" y="-7.5" font-family="Helvetica,sans-Serif" font-size="10.00">Header</text>
</a>
</g>
</g>
<!-- Node2 -->
<g id="node2" class="node">
<title>Node2</title>
<g id="a_node2"><a xlink:title=" ">
<polygon fill="white" stroke="#bfbfbf" points="0,-100.5 0,-119.5 52,-119.5 52,-100.5 0,-100.5"/>
<text text-anchor="middle" x="26" y="-107.5" font-family="Helvetica,sans-Serif" font-size="10.00">uint64_t</text>
</a>
</g>
</g>
<!-- Node2&#45;&gt;Node1 -->
<g id="edge1" class="edge">
<title>Node2&#45;&gt;Node1</title>
<path fill="none" stroke="#9a32cd" stroke-dasharray="5,2" d="M21.71,-89.92C19.95,-77.43 19.77,-61.22 27,-49 31.59,-41.26 38.77,-35.2 46.51,-30.52"/>
<polygon fill="#9a32cd" stroke="#9a32cd" points="18.33,-90.93 23.59,-100.13 25.22,-89.66 18.33,-90.93"/>
<text text-anchor="middle" x="74" y="-74" font-family="Helvetica,sans-Serif" font-size="10.00"> dataPhysicalOffset</text>
<text text-anchor="middle" x="74" y="-63" font-family="Helvetica,sans-Serif" font-size="10.00">indexPhysicalOffset</text>
<text text-anchor="middle" x="74" y="-52" font-family="Helvetica,sans-Serif" font-size="10.00">sectionLogicalLength</text>
</g>
<!-- Node3 -->
<g id="node3" class="node">
<title>Node3</title>
<g id="a_node3"><a xlink:title=" ">
<polygon fill="white" stroke="#bfbfbf" points="119.5,-100.5 119.5,-119.5 166.5,-119.5 166.5,-100.5 119.5,-100.5"/>
<text text-anchor="middle" x="143" y="-107.5" font-family="Helvetica,sans-Serif" font-size="10.00">uint8_t</text>
</a>
</g>
</g>
<!-- Node3&#45;&gt;Node1 -->
<g id="edge2" class="edge">
<title>Node3&#45;&gt;Node1</title>
<path fill="none" stroke="#9a32cd" stroke-dasharray="5,2" d="M138.78,-90.47C135.34,-78 129.63,-61.6 121,-49 116.36,-42.23 110,-35.97 103.86,-30.78"/>
<polygon fill="#9a32cd" stroke="#9a32cd" points="135.4,-91.37 141.23,-100.22 142.19,-89.67 135.4,-91.37"/>
<text text-anchor="middle" x="160" y="-68.5" font-family="Helvetica,sans-Serif" font-size="10.00"> reserved1</text>
<text text-anchor="middle" x="160" y="-57.5" font-family="Helvetica,sans-Serif" font-size="10.00">sectionId</text>
</g>
</g>
</svg>
