<?xml version="1.0" encoding="UTF-8" standalone="no"?>
<!DOCTYPE svg PUBLIC "-//W3C//DTD SVG 1.1//EN"
 "http://www.w3.org/Graphics/SVG/1.1/DTD/svg11.dtd">
<!-- Generated by graphviz version 2.44.0 (20200408.0750)
 -->
<!-- Title: e57::RigidBodyTransform Pages: 1 -->
<svg width="198pt" height="95pt"
 viewBox="0.00 0.00 198.00 95.00" xmlns="http://www.w3.org/2000/svg" xmlns:xlink="http://www.w3.org/1999/xlink">
<g id="graph0" class="graph" transform="scale(1 1) rotate(0) translate(4 91)">
<title>e57::RigidBodyTransform</title>
<polygon fill="white" stroke="transparent" points="-4,4 -4,-91 194,-91 194,4 -4,4"/>
<!-- Node1 -->
<g id="node1" class="node">
<title>Node1</title>
<g id="a_node1"><a xlink:title="Defines a rigid body transform in cartesian coordinates.">
<polygon fill="#bfbfbf" stroke="black" points="31,-0.5 31,-19.5 159,-19.5 159,-0.5 31,-0.5"/>
<text text-anchor="middle" x="95" y="-7.5" font-family="Helvetica,sans-Serif" font-size="10.00">e57::RigidBodyTransform</text>
</a>
</g>
</g>
<!-- Node2 -->
<g id="node2" class="node">
<title>Node2</title>
<g id="a_node2"><a xlink:href="structe57_1_1_quaternion.html" target="_top" xlink:title="Represents a rigid body rotation.">
<polygon fill="white" stroke="black" points="0,-67.5 0,-86.5 86,-86.5 86,-67.5 0,-67.5"/>
<text text-anchor="middle" x="43" y="-74.5" font-family="Helvetica,sans-Serif" font-size="10.00">e57::Quaternion</text>
</a>
</g>
</g>
<!-- Node2&#45;&gt;Node1 -->
<g id="edge1" class="edge">
<title>Node2&#45;&gt;Node1</title>
<path fill="none" stroke="#9a32cd" stroke-dasharray="5,2" d="M56.38,-59.27C66.52,-46.6 80.04,-29.7 88.1,-19.63"/>
<polygon fill="#9a32cd" stroke="#9a32cd" points="53.53,-57.24 50.01,-67.23 58.99,-61.61 53.53,-57.24"/>
<text text-anchor="middle" x="91" y="-41" font-family="Helvetica,sans-Serif" font-size="10.00"> rotation</text>
</g>
<!-- Node3 -->
<g id="node3" class="node">
<title>Node3</title>
<g id="a_node3"><a xlink:href="structe57_1_1_translation.html" target="_top" xlink:title="Defines a rigid body translation in Cartesian coordinates.">
<polygon fill="white" stroke="black" points="104,-67.5 104,-86.5 190,-86.5 190,-67.5 104,-67.5"/>
<text text-anchor="middle" x="147" y="-74.5" font-family="Helvetica,sans-Serif" font-size="10.00">e57::Translation</text>
</a>
</g>
</g>
<!-- Node3&#45;&gt;Node1 -->
<g id="edge2" class="edge">
<title>Node3&#45;&gt;Node1</title>
<path fill="none" stroke="#9a32cd" stroke-dasharray="5,2" d="M133.62,-59.27C123.48,-46.6 109.96,-29.7 101.9,-19.63"/>
<polygon fill="#9a32cd" stroke="#9a32cd" points="131.01,-61.61 139.99,-67.23 136.47,-57.24 131.01,-61.61"/>
<text text-anchor="middle" x="148.5" y="-41" font-family="Helvetica,sans-Serif" font-size="10.00"> translation</text>
</g>
</g>
</svg>
