<?xml version="1.0" encoding="UTF-8" standalone="no"?>
<!DOCTYPE svg PUBLIC "-//W3C//DTD SVG 1.1//EN"
 "http://www.w3.org/Graphics/SVG/1.1/DTD/svg11.dtd">
<!-- Generated by graphviz version 2.48.0 (20210717.1556)
 -->
<!-- Title: e57::Data3D Pages: 1 -->
<!--zoomable 442 -->
<svg id="main" version="1.1" xmlns="http://www.w3.org/2000/svg" xmlns:xlink="http://www.w3.org/1999/xlink" xml:space="preserve" onload="init(evt)">
<style type="text/css"><![CDATA[
.edge:hover path { stroke: red; }
.edge:hover polygon { stroke: red; fill: red; }
]]></style>
<script type="text/javascript"><![CDATA[
var edges = document.getElementsByTagName('g');
if (edges && edges.length) {
  for (var i=0;i<edges.length;i++) {
    if (edges[i].id.substr(0,4)=='edge') {
      edges[i].setAttribute('class','edge');
    }
  }
}
]]></script>
        <defs>
                <circle id="rim" cx="0" cy="0" r="7"/>
                <circle id="rim2" cx="0" cy="0" r="3.5"/>
                <g id="zoomPlus">
                        <use xlink:href="#rim" fill="#404040">
                                <set attributeName="fill" to="#808080" begin="zoomplus.mouseover" end="zoomplus.mouseout"/>
                        </use>
                        <path d="M-4,0h8M0,-4v8" fill="none" stroke="white" stroke-width="1.5" pointer-events="none"/>
                </g>
                <g id="zoomMin">
                        <use xlink:href="#rim" fill="#404040">
                                <set attributeName="fill" to="#808080" begin="zoomminus.mouseover" end="zoomminus.mouseout"/>
                        </use>
                        <path d="M-4,0h8" fill="none" stroke="white" stroke-width="1.5" pointer-events="none"/>
                </g>
                <g id="dirArrow">
                        <path fill="none" stroke="white" stroke-width="1.5" d="M0,-3.0v7 M-2.5,-0.5L0,-3.0L2.5,-0.5"/>
                </g>
               <g id="resetDef">
                       <use xlink:href="#rim2" fill="#404040">
                               <set attributeName="fill" to="#808080" begin="reset.mouseover" end="reset.mouseout"/>
                       </use>
               </g>
        </defs>

<script type="text/javascript">
var viewWidth = 798;
var viewHeight = 442;
var sectionId = 'dynsection-0';
</script>
<script xlink:href="svgpan.js"/>
<svg id="graph" class="graph">
<g id="viewport">
<title>e57::Data3D</title>
<polygon fill="white" stroke="transparent" points="-4,4 -4,-438 794,-438 794,4 -4,4"/>
<!-- Node1 -->
<g id="node1" class="node">
<title>Node1</title>
<g id="a_node1"><a xlink:title="Stores the top&#45;level information for a single lidar scan.">
<polygon fill="#bfbfbf" stroke="black" points="717,-196.5 717,-215.5 790,-215.5 790,-196.5 717,-196.5"/>
<text text-anchor="middle" x="753.5" y="-203.5" font-family="Helvetica,sans-Serif" font-size="10.00">e57::Data3D</text>
</a>
</g>
</g>
<!-- Node2 -->
<g id="node2" class="node">
<title>Node2</title>
<g id="a_node2"><a xlink:href="structe57_1_1_date_time.html" target="_top" xlink:title="Encodes date and time.">
<polygon fill="white" stroke="black" points="458.5,-403.5 458.5,-422.5 540.5,-422.5 540.5,-403.5 458.5,-403.5"/>
<text text-anchor="middle" x="499.5" y="-410.5" font-family="Helvetica,sans-Serif" font-size="10.00">e57::DateTime</text>
</a>
</g>
</g>
<!-- Node2&#45;&gt;Node1 -->
<g id="edge1" class="edge">
<title>Node2&#45;&gt;Node1</title>
<path fill="none" stroke="#9a32cd" stroke-dasharray="5,2" d="M551.01,-414.98C595.32,-413.96 658.79,-405.41 699,-369 745.36,-327.02 751.66,-244.23 752.43,-215.83"/>
<polygon fill="#9a32cd" stroke="#9a32cd" points="550.71,-411.49 540.75,-415.09 550.78,-418.49 550.71,-411.49"/>
<text text-anchor="middle" x="645" y="-425" font-family="Helvetica,sans-Serif" font-size="10.00"> acquisitionEnd</text>
<text text-anchor="middle" x="645" y="-414" font-family="Helvetica,sans-Serif" font-size="10.00">acquisitionStart</text>
</g>
<!-- Node3 -->
<g id="node3" class="node">
<title>Node3</title>
<g id="a_node3"><a xlink:title=" ">
<polygon fill="white" stroke="#bfbfbf" points="193.5,-414.5 193.5,-433.5 240.5,-433.5 240.5,-414.5 193.5,-414.5"/>
<text text-anchor="middle" x="217" y="-421.5" font-family="Helvetica,sans-Serif" font-size="10.00">int32_t</text>
</a>
</g>
</g>
<!-- Node3&#45;&gt;Node2 -->
<g id="edge2" class="edge">
<title>Node3&#45;&gt;Node2</title>
<path fill="none" stroke="#9a32cd" stroke-dasharray="5,2" d="M251.24,-422.7C302.98,-420.67 402.62,-416.76 458.32,-414.58"/>
<polygon fill="#9a32cd" stroke="#9a32cd" points="250.81,-419.21 240.95,-423.1 251.08,-426.21 250.81,-419.21"/>
<text text-anchor="middle" x="349" y="-424" font-family="Helvetica,sans-Serif" font-size="10.00"> isAtomicClockReferenced</text>
</g>
<!-- Node4 -->
<g id="node4" class="node">
<title>Node4</title>
<g id="a_node4"><a xlink:href="structe57_1_1_rigid_body_transform.html" target="_top" xlink:title="Defines a rigid body transform in cartesian coordinates.">
<polygon fill="white" stroke="black" points="434.5,-338.5 434.5,-357.5 564.5,-357.5 564.5,-338.5 434.5,-338.5"/>
<text text-anchor="middle" x="499.5" y="-345.5" font-family="Helvetica,sans-Serif" font-size="10.00">e57::RigidBodyTransform</text>
</a>
</g>
</g>
<!-- Node4&#45;&gt;Node1 -->
<g id="edge3" class="edge">
<title>Node4&#45;&gt;Node1</title>
<path fill="none" stroke="#9a32cd" stroke-dasharray="5,2" d="M574.95,-355.25C615.22,-355.36 663.78,-348.88 699,-323 735.54,-296.16 747.77,-238.32 751.27,-215.52"/>
<polygon fill="#9a32cd" stroke="#9a32cd" points="574.96,-351.75 564.9,-355.09 574.84,-358.75 574.96,-351.75"/>
<text text-anchor="middle" x="645" y="-357" font-family="Helvetica,sans-Serif" font-size="10.00"> pose</text>
</g>
<!-- Node5 -->
<g id="node5" class="node">
<title>Node5</title>
<g id="a_node5"><a xlink:href="structe57_1_1_quaternion.html" target="_top" xlink:title="Represents a rigid body rotation.">
<polygon fill="white" stroke="black" points="173,-376.5 173,-395.5 261,-395.5 261,-376.5 173,-376.5"/>
<text text-anchor="middle" x="217" y="-383.5" font-family="Helvetica,sans-Serif" font-size="10.00">e57::Quaternion</text>
</a>
</g>
</g>
<!-- Node5&#45;&gt;Node4 -->
<g id="edge4" class="edge">
<title>Node5&#45;&gt;Node4</title>
<path fill="none" stroke="#9a32cd" stroke-dasharray="5,2" d="M271.44,-380.16C309.56,-375.85 362,-369.59 408,-363 419.51,-361.35 431.81,-359.42 443.52,-357.51"/>
<polygon fill="#9a32cd" stroke="#9a32cd" points="270.63,-376.73 261.08,-381.33 271.41,-383.69 270.63,-376.73"/>
<text text-anchor="middle" x="349" y="-380" font-family="Helvetica,sans-Serif" font-size="10.00"> rotation</text>
</g>
<!-- Node6 -->
<g id="node6" class="node">
<title>Node6</title>
<g id="a_node6"><a xlink:href="structe57_1_1_translation.html" target="_top" xlink:title="Defines a rigid body translation in Cartesian coordinates.">
<polygon fill="white" stroke="black" points="173,-338.5 173,-357.5 261,-357.5 261,-338.5 173,-338.5"/>
<text text-anchor="middle" x="217" y="-345.5" font-family="Helvetica,sans-Serif" font-size="10.00">e57::Translation</text>
</a>
</g>
</g>
<!-- Node6&#45;&gt;Node4 -->
<g id="edge5" class="edge">
<title>Node6&#45;&gt;Node4</title>
<path fill="none" stroke="#9a32cd" stroke-dasharray="5,2" d="M271.36,-348C317.76,-348 385.08,-348 434.39,-348"/>
<polygon fill="#9a32cd" stroke="#9a32cd" points="271.21,-344.5 261.21,-348 271.21,-351.5 271.21,-344.5"/>
<text text-anchor="middle" x="349" y="-351" font-family="Helvetica,sans-Serif" font-size="10.00"> translation</text>
</g>
<!-- Node7 -->
<g id="node7" class="node">
<title>Node7</title>
<g id="a_node7"><a xlink:href="structe57_1_1_index_bounds.html" target="_top" xlink:title="Stores the minimum and maximum of rowIndex, columnIndex, and returnIndex fields for a set of points.">
<polygon fill="white" stroke="black" points="300.5,-233.5 300.5,-252.5 397.5,-252.5 397.5,-233.5 300.5,-233.5"/>
<text text-anchor="middle" x="349" y="-240.5" font-family="Helvetica,sans-Serif" font-size="10.00">e57::IndexBounds</text>
</a>
</g>
</g>
<!-- Node7&#45;&gt;Node1 -->
<g id="edge6" class="edge">
<title>Node7&#45;&gt;Node1</title>
<path fill="none" stroke="#9a32cd" stroke-dasharray="5,2" d="M408.01,-243.84C414.08,-243.91 420.17,-243.96 426,-244 547.45,-244.8 582.07,-264.82 699,-232 712.32,-228.26 726.36,-221.31 736.71,-215.54"/>
<polygon fill="#9a32cd" stroke="#9a32cd" points="407.88,-240.34 397.84,-243.73 407.8,-247.34 407.88,-240.34"/>
<text text-anchor="middle" x="499.5" y="-253" font-family="Helvetica,sans-Serif" font-size="10.00"> indexBounds</text>
</g>
<!-- Node8 -->
<g id="node8" class="node">
<title>Node8</title>
<g id="a_node8"><a xlink:title=" ">
<polygon fill="white" stroke="#bfbfbf" points="0,-219.5 0,-238.5 47,-238.5 47,-219.5 0,-219.5"/>
<text text-anchor="middle" x="23.5" y="-226.5" font-family="Helvetica,sans-Serif" font-size="10.00">int64_t</text>
</a>
</g>
</g>
<!-- Node8&#45;&gt;Node1 -->
<g id="edge18" class="edge">
<title>Node8&#45;&gt;Node1</title>
<path fill="none" stroke="#9a32cd" stroke-dasharray="5,2" d="M30.31,-248.44C36.23,-264.38 47.11,-285.91 65,-296 95.58,-313.25 108.91,-297.27 144,-296 335.04,-289.11 382.38,-279.45 573,-265 629.02,-260.75 647.49,-277.41 699,-255 718.87,-246.36 736.19,-227.21 745.42,-215.57"/>
<polygon fill="#9a32cd" stroke="#9a32cd" points="33.48,-246.88 26.99,-238.5 26.84,-249.1 33.48,-246.88"/>
<text text-anchor="middle" x="349" y="-291" font-family="Helvetica,sans-Serif" font-size="10.00"> pointsSize</text>
</g>
<!-- Node8&#45;&gt;Node7 -->
<g id="edge7" class="edge">
<title>Node8&#45;&gt;Node7</title>
<path fill="none" stroke="#9a32cd" stroke-dasharray="5,2" d="M57.42,-228.79C81.43,-228.75 114.74,-228.95 144,-230 197.55,-231.93 258.9,-236.11 300.22,-239.21"/>
<polygon fill="#9a32cd" stroke="#9a32cd" points="57.41,-225.29 47.42,-228.82 57.43,-232.29 57.41,-225.29"/>
<text text-anchor="middle" x="104.5" y="-288" font-family="Helvetica,sans-Serif" font-size="10.00"> columnMaximum</text>
<text text-anchor="middle" x="104.5" y="-277" font-family="Helvetica,sans-Serif" font-size="10.00">columnMinimum</text>
<text text-anchor="middle" x="104.5" y="-266" font-family="Helvetica,sans-Serif" font-size="10.00">returnMaximum</text>
<text text-anchor="middle" x="104.5" y="-255" font-family="Helvetica,sans-Serif" font-size="10.00">returnMinimum</text>
<text text-anchor="middle" x="104.5" y="-244" font-family="Helvetica,sans-Serif" font-size="10.00">rowMaximum</text>
<text text-anchor="middle" x="104.5" y="-233" font-family="Helvetica,sans-Serif" font-size="10.00">rowMinimum</text>
</g>
<!-- Node14 -->
<g id="node14" class="node">
<title>Node14</title>
<g id="a_node14"><a xlink:href="structe57_1_1_grouping_by_line.html" target="_top" xlink:title="Stores a set of point groups organized by the rowIndex or columnIndex attribute of the PointRecord.">
<polygon fill="white" stroke="black" points="162,-178.5 162,-197.5 272,-197.5 272,-178.5 162,-178.5"/>
<text text-anchor="middle" x="217" y="-185.5" font-family="Helvetica,sans-Serif" font-size="10.00">e57::GroupingByLine</text>
</a>
</g>
</g>
<!-- Node8&#45;&gt;Node14 -->
<g id="edge14" class="edge">
<title>Node8&#45;&gt;Node14</title>
<path fill="none" stroke="#9a32cd" stroke-dasharray="5,2" d="M35.52,-211.15C42.61,-201.45 52.77,-190.36 65,-185 100.42,-169.46 145.15,-172.83 176.71,-178.47"/>
<polygon fill="#9a32cd" stroke="#9a32cd" points="32.6,-209.21 29.9,-219.46 38.4,-213.13 32.6,-209.21"/>
<text text-anchor="middle" x="104.5" y="-199" font-family="Helvetica,sans-Serif" font-size="10.00"> groupsSize</text>
<text text-anchor="middle" x="104.5" y="-188" font-family="Helvetica,sans-Serif" font-size="10.00">pointCountSize</text>
</g>
<!-- Node9 -->
<g id="node9" class="node">
<title>Node9</title>
<g id="a_node9"><a xlink:href="structe57_1_1_cartesian_bounds.html" target="_top" xlink:title="Specifies an axis&#45;aligned box in local cartesian coordinates.">
<polygon fill="white" stroke="black" points="442,-177.5 442,-196.5 557,-196.5 557,-177.5 442,-177.5"/>
<text text-anchor="middle" x="499.5" y="-184.5" font-family="Helvetica,sans-Serif" font-size="10.00">e57::CartesianBounds</text>
</a>
</g>
</g>
<!-- Node9&#45;&gt;Node1 -->
<g id="edge8" class="edge">
<title>Node9&#45;&gt;Node1</title>
<path fill="none" stroke="#9a32cd" stroke-dasharray="5,2" d="M567.41,-183.45C606.09,-182.54 655.54,-183.3 699,-190 707.91,-191.37 717.41,-193.86 725.89,-196.47"/>
<polygon fill="#9a32cd" stroke="#9a32cd" points="567.22,-179.96 557.32,-183.74 567.41,-186.95 567.22,-179.96"/>
<text text-anchor="middle" x="645" y="-193" font-family="Helvetica,sans-Serif" font-size="10.00"> cartesianBounds</text>
</g>
<!-- Node10 -->
<g id="node10" class="node">
<title>Node10</title>
<g id="a_node10"><a xlink:href="structe57_1_1_spherical_bounds.html" target="_top" xlink:title="Stores the bounds of some data in spherical coordinates.">
<polygon fill="white" stroke="black" points="442.5,-139.5 442.5,-158.5 556.5,-158.5 556.5,-139.5 442.5,-139.5"/>
<text text-anchor="middle" x="499.5" y="-146.5" font-family="Helvetica,sans-Serif" font-size="10.00">e57::SphericalBounds</text>
</a>
</g>
</g>
<!-- Node10&#45;&gt;Node1 -->
<g id="edge9" class="edge">
<title>Node10&#45;&gt;Node1</title>
<path fill="none" stroke="#9a32cd" stroke-dasharray="5,2" d="M566.62,-146.86C606.16,-147.63 656.77,-152.27 699,-168 715.87,-174.28 732.29,-187.28 742.4,-196.32"/>
<polygon fill="#9a32cd" stroke="#9a32cd" points="566.6,-143.36 556.56,-146.74 566.52,-150.36 566.6,-143.36"/>
<text text-anchor="middle" x="645" y="-171" font-family="Helvetica,sans-Serif" font-size="10.00"> sphericalBounds</text>
</g>
<!-- Node11 -->
<g id="node11" class="node">
<title>Node11</title>
<g id="a_node11"><a xlink:href="structe57_1_1_intensity_limits.html" target="_top" xlink:title="Specifies the limits for the value of signal intensity that a sensor is capable of producing.">
<polygon fill="white" stroke="black" points="448.5,-101.5 448.5,-120.5 550.5,-120.5 550.5,-101.5 448.5,-101.5"/>
<text text-anchor="middle" x="499.5" y="-108.5" font-family="Helvetica,sans-Serif" font-size="10.00">e57::IntensityLimits</text>
</a>
</g>
</g>
<!-- Node11&#45;&gt;Node1 -->
<g id="edge10" class="edge">
<title>Node11&#45;&gt;Node1</title>
<path fill="none" stroke="#9a32cd" stroke-dasharray="5,2" d="M561.1,-105.01C602.59,-103.75 657.4,-107.9 699,-132 724.79,-146.94 741.55,-179.85 748.64,-196.27"/>
<polygon fill="#9a32cd" stroke="#9a32cd" points="560.7,-101.52 550.86,-105.44 560.99,-108.52 560.7,-101.52"/>
<text text-anchor="middle" x="645" y="-135" font-family="Helvetica,sans-Serif" font-size="10.00"> intensityLimits</text>
</g>
<!-- Node12 -->
<g id="node12" class="node">
<title>Node12</title>
<g id="a_node12"><a xlink:href="structe57_1_1_color_limits.html" target="_top" xlink:title="Specifies the limits for the value of red, green, and blue color that a sensor is capable of producin...">
<polygon fill="white" stroke="black" points="455,-63.5 455,-82.5 544,-82.5 544,-63.5 455,-63.5"/>
<text text-anchor="middle" x="499.5" y="-70.5" font-family="Helvetica,sans-Serif" font-size="10.00">e57::ColorLimits</text>
</a>
</g>
</g>
<!-- Node12&#45;&gt;Node1 -->
<g id="edge11" class="edge">
<title>Node12&#45;&gt;Node1</title>
<path fill="none" stroke="#9a32cd" stroke-dasharray="5,2" d="M554.2,-63.83C597.2,-59.5 657.07,-60.56 699,-90 735.85,-115.87 747.9,-173.65 751.31,-196.47"/>
<polygon fill="#9a32cd" stroke="#9a32cd" points="553.74,-60.36 544.2,-64.97 554.53,-67.32 553.74,-60.36"/>
<text text-anchor="middle" x="645" y="-93" font-family="Helvetica,sans-Serif" font-size="10.00"> colorLimits</text>
</g>
<!-- Node13 -->
<g id="node13" class="node">
<title>Node13</title>
<g id="a_node13"><a xlink:href="structe57_1_1_point_grouping_schemes.html" target="_top" xlink:title="Supports the division of points within an Data3D into logical groupings.">
<polygon fill="white" stroke="black" points="427.5,-215.5 427.5,-234.5 571.5,-234.5 571.5,-215.5 427.5,-215.5"/>
<text text-anchor="middle" x="499.5" y="-222.5" font-family="Helvetica,sans-Serif" font-size="10.00">e57::PointGroupingSchemes</text>
</a>
</g>
</g>
<!-- Node13&#45;&gt;Node1 -->
<g id="edge12" class="edge">
<title>Node13&#45;&gt;Node1</title>
<path fill="none" stroke="#9a32cd" stroke-dasharray="5,2" d="M581.86,-218.87C627.34,-215.44 681.75,-211.33 716.69,-208.7"/>
<polygon fill="#9a32cd" stroke="#9a32cd" points="581.41,-215.39 571.7,-219.63 581.94,-222.37 581.41,-215.39"/>
<text text-anchor="middle" x="645" y="-220" font-family="Helvetica,sans-Serif" font-size="10.00"> pointGroupingSchemes</text>
</g>
<!-- Node14&#45;&gt;Node13 -->
<g id="edge13" class="edge">
<title>Node14&#45;&gt;Node13</title>
<path fill="none" stroke="#9a32cd" stroke-dasharray="5,2" d="M282.16,-196.43C318.98,-201.27 366.09,-207.46 408,-213 414.29,-213.83 420.82,-214.69 427.36,-215.56"/>
<polygon fill="#9a32cd" stroke="#9a32cd" points="282.43,-192.93 272.05,-195.1 281.51,-199.87 282.43,-192.93"/>
<text text-anchor="middle" x="349" y="-216" font-family="Helvetica,sans-Serif" font-size="10.00"> groupingByLine</text>
</g>
<!-- Node15 -->
<g id="node15" class="node">
<title>Node15</title>
<g id="a_node15"><a xlink:href="structe57_1_1_point_standardized_fields_available.html" target="_top" xlink:title="Used to interrogate if standardized fields are available.">
<polygon fill="white" stroke="black" points="426,-14 426,-44 573,-44 573,-14 426,-14"/>
<text text-anchor="start" x="434" y="-32" font-family="Helvetica,sans-Serif" font-size="10.00">e57::PointStandardizedFields</text>
<text text-anchor="middle" x="499.5" y="-21" font-family="Helvetica,sans-Serif" font-size="10.00">Available</text>
</a>
</g>
</g>
<!-- Node15&#45;&gt;Node1 -->
<g id="edge15" class="edge">
<title>Node15&#45;&gt;Node1</title>
<path fill="none" stroke="#9a32cd" stroke-dasharray="5,2" d="M583.44,-16.49C622.28,-15.18 666.94,-20.77 699,-46 747.56,-84.22 752.42,-168.13 752.62,-196.45"/>
<polygon fill="#9a32cd" stroke="#9a32cd" points="582.99,-13.01 573.18,-17 583.34,-20 582.99,-13.01"/>
<text text-anchor="middle" x="645" y="-49" font-family="Helvetica,sans-Serif" font-size="10.00"> pointFields</text>
</g>
<!-- Node16 -->
<g id="node16" class="node">
<title>Node16</title>
<g id="a_node16"><a xlink:title=" ">
<polygon fill="white" stroke="#bfbfbf" points="191,-38.5 191,-57.5 243,-57.5 243,-38.5 191,-38.5"/>
<text text-anchor="middle" x="217" y="-45.5" font-family="Helvetica,sans-Serif" font-size="10.00">uint32_t</text>
</a>
</g>
</g>
<!-- Node16&#45;&gt;Node15 -->
<g id="edge16" class="edge">
<title>Node16&#45;&gt;Node15</title>
<path fill="none" stroke="#9a32cd" stroke-dasharray="5,2" d="M253.39,-45.6C296.49,-42.68 370.39,-37.68 425.81,-33.92"/>
<polygon fill="#9a32cd" stroke="#9a32cd" points="253.13,-42.11 243.39,-46.28 253.6,-49.1 253.13,-42.11"/>
<text text-anchor="middle" x="349" y="-57" font-family="Helvetica,sans-Serif" font-size="10.00"> columnIndexMaximum</text>
<text text-anchor="middle" x="349" y="-46" font-family="Helvetica,sans-Serif" font-size="10.00">rowIndexMaximum</text>
</g>
<!-- Node17 -->
<g id="node17" class="node">
<title>Node17</title>
<g id="a_node17"><a xlink:title=" ">
<polygon fill="white" stroke="#bfbfbf" points="193.5,-0.5 193.5,-19.5 240.5,-19.5 240.5,-0.5 193.5,-0.5"/>
<text text-anchor="middle" x="217" y="-7.5" font-family="Helvetica,sans-Serif" font-size="10.00">uint8_t</text>
</a>
</g>
</g>
<!-- Node17&#45;&gt;Node15 -->
<g id="edge17" class="edge">
<title>Node17&#45;&gt;Node15</title>
<path fill="none" stroke="#9a32cd" stroke-dasharray="5,2" d="M250.96,-11.6C288.87,-13.52 352.96,-16.98 408,-21 413.82,-21.43 419.85,-21.9 425.9,-22.39"/>
<polygon fill="#9a32cd" stroke="#9a32cd" points="250.7,-8.09 240.54,-11.08 250.35,-15.08 250.7,-8.09"/>
<text text-anchor="middle" x="349" y="-24" font-family="Helvetica,sans-Serif" font-size="10.00"> returnMaximum</text>
</g>
</g>
</svg>
        <g id="navigator" transform="translate(0 0)" fill="#404254">
                <rect fill="#f2f5e9" fill-opacity="0.5" stroke="#606060" stroke-width=".5" x="0" y="0" width="60" height="60"/>
                <use id="zoomplus" xlink:href="#zoomPlus" x="17" y="9" onmousedown="handleZoom(evt,'in')"/>
                <use id="zoomminus" xlink:href="#zoomMin" x="42" y="9" onmousedown="handleZoom(evt,'out')"/>
                <use id="reset" xlink:href="#resetDef" x="30" y="36" onmousedown="handleReset()"/>
                <g id="arrowUp" xlink:href="#dirArrow" transform="translate(30 24)" onmousedown="handlePan(0,-1)">
                  <use xlink:href="#rim" fill="#404040">
                        <set attributeName="fill" to="#808080" begin="arrowUp.mouseover" end="arrowUp.mouseout"/>
                  </use>
                  <path fill="none" stroke="white" stroke-width="1.5" d="M0,-3.0v7 M-2.5,-0.5L0,-3.0L2.5,-0.5"/>
                </g>
                <g id="arrowRight" xlink:href="#dirArrow" transform="rotate(90) translate(36 -43)" onmousedown="handlePan(1,0)">
                  <use xlink:href="#rim" fill="#404040">
                        <set attributeName="fill" to="#808080" begin="arrowRight.mouseover" end="arrowRight.mouseout"/>
                  </use>
                  <path fill="none" stroke="white" stroke-width="1.5" d="M0,-3.0v7 M-2.5,-0.5L0,-3.0L2.5,-0.5"/>
                </g>
                <g id="arrowDown" xlink:href="#dirArrow" transform="rotate(180) translate(-30 -48)" onmousedown="handlePan(0,1)">
                  <use xlink:href="#rim" fill="#404040">
                        <set attributeName="fill" to="#808080" begin="arrowDown.mouseover" end="arrowDown.mouseout"/>
                  </use>
                  <path fill="none" stroke="white" stroke-width="1.5" d="M0,-3.0v7 M-2.5,-0.5L0,-3.0L2.5,-0.5"/>
                </g>
                <g id="arrowLeft" xlink:href="#dirArrow" transform="rotate(270) translate(-36 17)" onmousedown="handlePan(-1,0)">
                  <use xlink:href="#rim" fill="#404040">
                        <set attributeName="fill" to="#808080" begin="arrowLeft.mouseover" end="arrowLeft.mouseout"/>
                  </use>
                  <path fill="none" stroke="white" stroke-width="1.5" d="M0,-3.0v7 M-2.5,-0.5L0,-3.0L2.5,-0.5"/>
                </g>
        </g>
        <svg viewBox="0 0 15 15" width="100%" height="30px" preserveAspectRatio="xMaxYMin meet">
         <g id="arrow_out" transform="scale(0.3 0.3)">
          <a xlink:href="structe57_1_1_data3_d__coll__graph_org.svg" target="_base">
           <rect id="button" ry="5" rx="5" y="6" x="6" height="38" width="38"
                fill="#f2f5e9" fill-opacity="0.5" stroke="#606060" stroke-width="1.0"/>
           <path id="arrow"
             d="M 11.500037,31.436501 C 11.940474,20.09759 22.043105,11.32322 32.158766,21.979434 L 37.068811,17.246167 C 37.068811,17.246167 37.088388,32 37.088388,32 L 22.160133,31.978069 C 22.160133,31.978069 26.997745,27.140456 26.997745,27.140456 C 18.528582,18.264221 13.291696,25.230495 11.500037,31.436501 z"
             style="fill:#404040;"/>
          </a>
         </g>
        </svg>
</svg>
