<?xml version="1.0" encoding="UTF-8" standalone="no"?>
<!DOCTYPE svg PUBLIC "-//W3C//DTD SVG 1.1//EN"
 "http://www.w3.org/Graphics/SVG/1.1/DTD/svg11.dtd">
<!-- Generated by graphviz version 2.48.0 (20210717.1556)
 -->
<!-- Title: e57::CompressedVectorSectionHeader Pages: 1 -->
<svg width="207pt" height="128pt"
 viewBox="0.00 0.00 206.50 128.00" xmlns="http://www.w3.org/2000/svg" xmlns:xlink="http://www.w3.org/1999/xlink">
<g id="graph0" class="graph" transform="scale(1 1) rotate(0) translate(4 124)">
<title>e57::CompressedVectorSectionHeader</title>
<polygon fill="white" stroke="transparent" points="-4,4 -4,-124 202.5,-124 202.5,4 -4,4"/>
<!-- Node1 -->
<g id="node1" class="node">
<title>Node1</title>
<g id="a_node1"><a xlink:title=" ">
<polygon fill="#bfbfbf" stroke="black" points="0,-0.5 0,-30.5 157,-30.5 157,-0.5 0,-0.5"/>
<text text-anchor="start" x="8" y="-18.5" font-family="Helvetica,sans-Serif" font-size="10.00">e57::CompressedVectorSection</text>
<text text-anchor="middle" x="78.5" y="-7.5" font-family="Helvetica,sans-Serif" font-size="10.00">Header</text>
</a>
</g>
</g>
<!-- Node2 -->
<g id="node2" class="node">
<title>Node2</title>
<g id="a_node2"><a xlink:title=" ">
<polygon fill="white" stroke="#bfbfbf" points="20,-100.5 20,-119.5 67,-119.5 67,-100.5 20,-100.5"/>
<text text-anchor="middle" x="43.5" y="-107.5" font-family="Helvetica,sans-Serif" font-size="10.00">uint8_t</text>
</a>
</g>
</g>
<!-- Node2&#45;&gt;Node1 -->
<g id="edge1" class="edge">
<title>Node2&#45;&gt;Node1</title>
<path fill="none" stroke="#9a32cd" stroke-dasharray="5,2" d="M40.22,-90.44C38.9,-78.17 38.81,-62.01 44.5,-49 47.58,-41.97 52.98,-35.72 58.58,-30.62"/>
<polygon fill="#9a32cd" stroke="#9a32cd" points="36.77,-91.02 41.65,-100.42 43.69,-90.02 36.77,-91.02"/>
<text text-anchor="middle" x="68.5" y="-68.5" font-family="Helvetica,sans-Serif" font-size="10.00"> reserved1</text>
<text text-anchor="middle" x="68.5" y="-57.5" font-family="Helvetica,sans-Serif" font-size="10.00">sectionId</text>
</g>
<!-- Node3 -->
<g id="node3" class="node">
<title>Node3</title>
<g id="a_node3"><a xlink:title=" ">
<polygon fill="white" stroke="#bfbfbf" points="88.5,-100.5 88.5,-119.5 140.5,-119.5 140.5,-100.5 88.5,-100.5"/>
<text text-anchor="middle" x="114.5" y="-107.5" font-family="Helvetica,sans-Serif" font-size="10.00">uint64_t</text>
</a>
</g>
</g>
<!-- Node3&#45;&gt;Node1 -->
<g id="edge2" class="edge">
<title>Node3&#45;&gt;Node1</title>
<path fill="none" stroke="#9a32cd" stroke-dasharray="5,2" d="M108.09,-90.72C103.84,-78.78 98.03,-62.89 92.5,-49 90.09,-42.95 87.28,-36.34 84.8,-30.67"/>
<polygon fill="#9a32cd" stroke="#9a32cd" points="104.88,-92.14 111.51,-100.4 111.48,-89.8 104.88,-92.14"/>
<text text-anchor="middle" x="151.5" y="-74" font-family="Helvetica,sans-Serif" font-size="10.00"> dataPhysicalOffset</text>
<text text-anchor="middle" x="151.5" y="-63" font-family="Helvetica,sans-Serif" font-size="10.00">indexPhysicalOffset</text>
<text text-anchor="middle" x="151.5" y="-52" font-family="Helvetica,sans-Serif" font-size="10.00">sectionLogicalLength</text>
</g>
</g>
</svg>
