<?xml version="1.0" encoding="UTF-8" standalone="no"?>
<!DOCTYPE svg PUBLIC "-//W3C//DTD SVG 1.1//EN"
 "http://www.w3.org/Graphics/SVG/1.1/DTD/svg11.dtd">
<!-- Generated by graphviz version 2.44.0 (20200408.0750)
 -->
<!-- Title: e57::Data3D Pages: 1 -->
<svg width="783pt" height="452pt"
 viewBox="0.00 0.00 783.00 452.00" xmlns="http://www.w3.org/2000/svg" xmlns:xlink="http://www.w3.org/1999/xlink">
<g id="graph0" class="graph" transform="scale(1 1) rotate(0) translate(4 448)">
<title>e57::Data3D</title>
<polygon fill="white" stroke="transparent" points="-4,4 -4,-448 779,-448 779,4 -4,4"/>
<!-- Node1 -->
<g id="node1" class="node">
<title>Node1</title>
<g id="a_node1"><a xlink:title="Stores the top&#45;level information for a single lidar scan.">
<polygon fill="#bfbfbf" stroke="black" points="703,-221.5 703,-240.5 775,-240.5 775,-221.5 703,-221.5"/>
<text text-anchor="middle" x="739" y="-228.5" font-family="Helvetica,sans-Serif" font-size="10.00">e57::Data3D</text>
</a>
</g>
</g>
<!-- Node2 -->
<g id="node2" class="node">
<title>Node2</title>
<g id="a_node2"><a xlink:href="structe57_1_1_date_time.html" target="_top" xlink:title="Encodes date and time.">
<polygon fill="white" stroke="black" points="449.5,-404.5 449.5,-423.5 530.5,-423.5 530.5,-404.5 449.5,-404.5"/>
<text text-anchor="middle" x="490" y="-411.5" font-family="Helvetica,sans-Serif" font-size="10.00">e57::DateTime</text>
</a>
</g>
</g>
<!-- Node2&#45;&gt;Node1 -->
<g id="edge1" class="edge">
<title>Node2&#45;&gt;Node1</title>
<path fill="none" stroke="#9a32cd" stroke-dasharray="5,2" d="M540.91,-421.49C583.83,-425.03 644.97,-422.77 685,-390 732.28,-351.29 737.66,-269.1 738.06,-240.81"/>
<polygon fill="#9a32cd" stroke="#9a32cd" points="540.98,-417.98 530.69,-420.51 540.31,-424.94 540.98,-417.98"/>
<text text-anchor="middle" x="632.5" y="-436" font-family="Helvetica,sans-Serif" font-size="10.00"> acquisitionEnd</text>
<text text-anchor="middle" x="632.5" y="-425" font-family="Helvetica,sans-Serif" font-size="10.00">acquisitionStart</text>
</g>
<!-- Node3 -->
<g id="node3" class="node">
<title>Node3</title>
<g id="a_node3"><a xlink:title=" ">
<polygon fill="white" stroke="#bfbfbf" points="187.5,-404.5 187.5,-423.5 233.5,-423.5 233.5,-404.5 187.5,-404.5"/>
<text text-anchor="middle" x="210.5" y="-411.5" font-family="Helvetica,sans-Serif" font-size="10.00">int32_t</text>
</a>
</g>
</g>
<!-- Node3&#45;&gt;Node2 -->
<g id="edge2" class="edge">
<title>Node3&#45;&gt;Node2</title>
<path fill="none" stroke="#9a32cd" stroke-dasharray="5,2" d="M243.86,-414C294.85,-414 393.76,-414 449.08,-414"/>
<polygon fill="#9a32cd" stroke="#9a32cd" points="243.74,-410.5 233.74,-414 243.74,-417.5 243.74,-410.5"/>
<text text-anchor="middle" x="341" y="-417" font-family="Helvetica,sans-Serif" font-size="10.00"> isAtomicClockReferenced</text>
</g>
<!-- Node4 -->
<g id="node4" class="node">
<title>Node4</title>
<g id="a_node4"><a xlink:href="structe57_1_1_spherical_bounds.html" target="_top" xlink:title="Stores the bounds of some data in spherical coordinates.">
<polygon fill="white" stroke="black" points="434,-366.5 434,-385.5 546,-385.5 546,-366.5 434,-366.5"/>
<text text-anchor="middle" x="490" y="-373.5" font-family="Helvetica,sans-Serif" font-size="10.00">e57::SphericalBounds</text>
</a>
</g>
</g>
<!-- Node4&#45;&gt;Node1 -->
<g id="edge3" class="edge">
<title>Node4&#45;&gt;Node1</title>
<path fill="none" stroke="#9a32cd" stroke-dasharray="5,2" d="M556.19,-378.65C596.95,-377.06 648.46,-368.79 685,-341 718.75,-315.34 732.11,-262.63 736.35,-240.8"/>
<polygon fill="#9a32cd" stroke="#9a32cd" points="555.98,-375.15 546.08,-378.91 556.16,-382.15 555.98,-375.15"/>
<text text-anchor="middle" x="632.5" y="-379" font-family="Helvetica,sans-Serif" font-size="10.00"> sphericalBounds</text>
</g>
<!-- Node5 -->
<g id="node5" class="node">
<title>Node5</title>
<g id="a_node5"><a xlink:href="structe57_1_1_point_standardized_fields_available.html" target="_top" xlink:title="Used to interrogate if standardized fields are available.">
<polygon fill="white" stroke="black" points="418,-317 418,-347 562,-347 562,-317 418,-317"/>
<text text-anchor="start" x="426" y="-335" font-family="Helvetica,sans-Serif" font-size="10.00">e57::PointStandardizedFields</text>
<text text-anchor="middle" x="490" y="-324" font-family="Helvetica,sans-Serif" font-size="10.00">Available</text>
</a>
</g>
</g>
<!-- Node5&#45;&gt;Node1 -->
<g id="edge4" class="edge">
<title>Node5&#45;&gt;Node1</title>
<path fill="none" stroke="#9a32cd" stroke-dasharray="5,2" d="M572.49,-328.26C608.94,-323.61 651.21,-313.91 685,-294 707.17,-280.94 724.36,-255.1 732.62,-240.91"/>
<polygon fill="#9a32cd" stroke="#9a32cd" points="571.9,-324.8 562.37,-329.44 572.71,-331.76 571.9,-324.8"/>
<text text-anchor="middle" x="632.5" y="-329" font-family="Helvetica,sans-Serif" font-size="10.00"> pointFields</text>
</g>
<!-- Node6 -->
<g id="node6" class="node">
<title>Node6</title>
<g id="a_node6"><a xlink:title=" ">
<polygon fill="white" stroke="#bfbfbf" points="185,-340.5 185,-359.5 236,-359.5 236,-340.5 185,-340.5"/>
<text text-anchor="middle" x="210.5" y="-347.5" font-family="Helvetica,sans-Serif" font-size="10.00">uint32_t</text>
</a>
</g>
</g>
<!-- Node6&#45;&gt;Node5 -->
<g id="edge5" class="edge">
<title>Node6&#45;&gt;Node5</title>
<path fill="none" stroke="#9a32cd" stroke-dasharray="5,2" d="M246.32,-347.74C289.16,-344.96 362.97,-340.18 417.97,-336.61"/>
<polygon fill="#9a32cd" stroke="#9a32cd" points="245.88,-344.26 236.13,-348.4 246.33,-351.25 245.88,-344.26"/>
<text text-anchor="middle" x="341" y="-359" font-family="Helvetica,sans-Serif" font-size="10.00"> rowIndexMaximum</text>
<text text-anchor="middle" x="341" y="-348" font-family="Helvetica,sans-Serif" font-size="10.00">columnIndexMaximum</text>
</g>
<!-- Node7 -->
<g id="node7" class="node">
<title>Node7</title>
<g id="a_node7"><a xlink:title=" ">
<polygon fill="white" stroke="#bfbfbf" points="187.5,-302.5 187.5,-321.5 233.5,-321.5 233.5,-302.5 187.5,-302.5"/>
<text text-anchor="middle" x="210.5" y="-309.5" font-family="Helvetica,sans-Serif" font-size="10.00">uint8_t</text>
</a>
</g>
</g>
<!-- Node7&#45;&gt;Node5 -->
<g id="edge6" class="edge">
<title>Node7&#45;&gt;Node5</title>
<path fill="none" stroke="#9a32cd" stroke-dasharray="5,2" d="M243.91,-313.14C281.5,-314.59 345.3,-317.48 400,-322 405.73,-322.47 411.67,-323.02 417.63,-323.61"/>
<polygon fill="#9a32cd" stroke="#9a32cd" points="243.71,-309.63 233.58,-312.75 243.44,-316.62 243.71,-309.63"/>
<text text-anchor="middle" x="341" y="-325" font-family="Helvetica,sans-Serif" font-size="10.00"> returnMaximum</text>
</g>
<!-- Node8 -->
<g id="node8" class="node">
<title>Node8</title>
<g id="a_node8"><a xlink:href="structe57_1_1_color_limits.html" target="_top" xlink:title="Specifies the limits for the value of red, green, and blue color that a sensor is capable of producin...">
<polygon fill="white" stroke="black" points="446,-278.5 446,-297.5 534,-297.5 534,-278.5 446,-278.5"/>
<text text-anchor="middle" x="490" y="-285.5" font-family="Helvetica,sans-Serif" font-size="10.00">e57::ColorLimits</text>
</a>
</g>
</g>
<!-- Node8&#45;&gt;Node1 -->
<g id="edge7" class="edge">
<title>Node8&#45;&gt;Node1</title>
<path fill="none" stroke="#9a32cd" stroke-dasharray="5,2" d="M544.2,-283.8C583.74,-279.65 638.64,-271.71 685,-257 697.89,-252.91 711.58,-246.12 721.82,-240.51"/>
<polygon fill="#9a32cd" stroke="#9a32cd" points="543.83,-280.32 534.23,-284.8 544.53,-287.28 543.83,-280.32"/>
<text text-anchor="middle" x="632.5" y="-282" font-family="Helvetica,sans-Serif" font-size="10.00"> colorLimits</text>
</g>
<!-- Node9 -->
<g id="node9" class="node">
<title>Node9</title>
<g id="a_node9"><a xlink:href="structe57_1_1_cartesian_bounds.html" target="_top" xlink:title="Specifies an axis&#45;aligned box in local cartesian coordinates.">
<polygon fill="white" stroke="black" points="433.5,-240.5 433.5,-259.5 546.5,-259.5 546.5,-240.5 433.5,-240.5"/>
<text text-anchor="middle" x="490" y="-247.5" font-family="Helvetica,sans-Serif" font-size="10.00">e57::CartesianBounds</text>
</a>
</g>
</g>
<!-- Node9&#45;&gt;Node1 -->
<g id="edge8" class="edge">
<title>Node9&#45;&gt;Node1</title>
<path fill="none" stroke="#9a32cd" stroke-dasharray="5,2" d="M556.8,-244.94C603.64,-241.34 664.76,-236.63 702.68,-233.72"/>
<polygon fill="#9a32cd" stroke="#9a32cd" points="556.44,-241.46 546.74,-245.71 556.98,-248.43 556.44,-241.46"/>
<text text-anchor="middle" x="632.5" y="-245" font-family="Helvetica,sans-Serif" font-size="10.00"> cartesianBounds</text>
</g>
<!-- Node10 -->
<g id="node10" class="node">
<title>Node10</title>
<g id="a_node10"><a xlink:href="structe57_1_1_point_grouping_schemes.html" target="_top" xlink:title="Supports the division of points within an Data3D into logical groupings.">
<polygon fill="white" stroke="black" points="419.5,-164.5 419.5,-183.5 560.5,-183.5 560.5,-164.5 419.5,-164.5"/>
<text text-anchor="middle" x="490" y="-171.5" font-family="Helvetica,sans-Serif" font-size="10.00">e57::PointGroupingSchemes</text>
</a>
</g>
</g>
<!-- Node10&#45;&gt;Node1 -->
<g id="edge9" class="edge">
<title>Node10&#45;&gt;Node1</title>
<path fill="none" stroke="#9a32cd" stroke-dasharray="5,2" d="M571.08,-168.39C607.05,-168.61 649.33,-172.76 685,-187 703.44,-194.36 720.25,-210.68 729.79,-221.24"/>
<polygon fill="#9a32cd" stroke="#9a32cd" points="570.61,-164.89 560.63,-168.44 570.64,-171.89 570.61,-164.89"/>
<text text-anchor="middle" x="632.5" y="-190" font-family="Helvetica,sans-Serif" font-size="10.00"> pointGroupingSchemes</text>
</g>
<!-- Node11 -->
<g id="node11" class="node">
<title>Node11</title>
<g id="a_node11"><a xlink:href="structe57_1_1_grouping_by_line.html" target="_top" xlink:title="Stores a set of point groups organized by the rowIndex or columnIndex attribute of the PointRecord.">
<polygon fill="white" stroke="black" points="157,-164.5 157,-183.5 264,-183.5 264,-164.5 157,-164.5"/>
<text text-anchor="middle" x="210.5" y="-171.5" font-family="Helvetica,sans-Serif" font-size="10.00">e57::GroupingByLine</text>
</a>
</g>
</g>
<!-- Node11&#45;&gt;Node10 -->
<g id="edge10" class="edge">
<title>Node11&#45;&gt;Node10</title>
<path fill="none" stroke="#9a32cd" stroke-dasharray="5,2" d="M274.12,-174C317.31,-174 374.76,-174 419.38,-174"/>
<polygon fill="#9a32cd" stroke="#9a32cd" points="274.02,-170.5 264.02,-174 274.02,-177.5 274.02,-170.5"/>
<text text-anchor="middle" x="341" y="-177" font-family="Helvetica,sans-Serif" font-size="10.00"> groupingByLine</text>
</g>
<!-- Node12 -->
<g id="node12" class="node">
<title>Node12</title>
<g id="a_node12"><a xlink:title=" ">
<polygon fill="white" stroke="#bfbfbf" points="0,-165.5 0,-184.5 46,-184.5 46,-165.5 0,-165.5"/>
<text text-anchor="middle" x="23" y="-172.5" font-family="Helvetica,sans-Serif" font-size="10.00">int64_t</text>
</a>
</g>
</g>
<!-- Node12&#45;&gt;Node1 -->
<g id="edge18" class="edge">
<title>Node12&#45;&gt;Node1</title>
<path fill="none" stroke="#9a32cd" stroke-dasharray="5,2" d="M45.85,-190.02C51.53,-193.22 57.8,-196.18 64,-198 125.41,-216.02 572.99,-227.32 702.8,-230.24"/>
<polygon fill="#9a32cd" stroke="#9a32cd" points="47.33,-186.82 36.98,-184.57 43.67,-192.79 47.33,-186.82"/>
<text text-anchor="middle" x="341" y="-224" font-family="Helvetica,sans-Serif" font-size="10.00"> pointsSize</text>
</g>
<!-- Node12&#45;&gt;Node11 -->
<g id="edge11" class="edge">
<title>Node12&#45;&gt;Node11</title>
<path fill="none" stroke="#9a32cd" stroke-dasharray="5,2" d="M56.33,-174.83C84.06,-174.68 124.55,-174.46 156.94,-174.28"/>
<polygon fill="#9a32cd" stroke="#9a32cd" points="55.99,-171.33 46.01,-174.88 56.03,-178.33 55.99,-171.33"/>
<text text-anchor="middle" x="101.5" y="-188" font-family="Helvetica,sans-Serif" font-size="10.00"> groupsSize</text>
<text text-anchor="middle" x="101.5" y="-177" font-family="Helvetica,sans-Serif" font-size="10.00">pointCountSize</text>
</g>
<!-- Node13 -->
<g id="node13" class="node">
<title>Node13</title>
<g id="a_node13"><a xlink:href="structe57_1_1_index_bounds.html" target="_top" xlink:title="Stores the minimum and maximum of rowIndex, columnIndex, and returnIndex fields for a set of points.">
<polygon fill="white" stroke="black" points="293.5,-100.5 293.5,-119.5 388.5,-119.5 388.5,-100.5 293.5,-100.5"/>
<text text-anchor="middle" x="341" y="-107.5" font-family="Helvetica,sans-Serif" font-size="10.00">e57::IndexBounds</text>
</a>
</g>
</g>
<!-- Node12&#45;&gt;Node13 -->
<g id="edge13" class="edge">
<title>Node12&#45;&gt;Node13</title>
<path fill="none" stroke="#9a32cd" stroke-dasharray="5,2" d="M29.01,-155.48C34.5,-138.52 45.16,-115.01 64,-104 143.66,-57.45 259.58,-84.3 312.18,-100.48"/>
<polygon fill="#9a32cd" stroke="#9a32cd" points="25.53,-154.89 26.11,-165.47 32.25,-156.84 25.53,-154.89"/>
<text text-anchor="middle" x="101.5" y="-162" font-family="Helvetica,sans-Serif" font-size="10.00"> columnMinimum</text>
<text text-anchor="middle" x="101.5" y="-151" font-family="Helvetica,sans-Serif" font-size="10.00">columnMaximum</text>
<text text-anchor="middle" x="101.5" y="-140" font-family="Helvetica,sans-Serif" font-size="10.00">returnMaximum</text>
<text text-anchor="middle" x="101.5" y="-129" font-family="Helvetica,sans-Serif" font-size="10.00">rowMaximum</text>
<text text-anchor="middle" x="101.5" y="-118" font-family="Helvetica,sans-Serif" font-size="10.00">rowMinimum</text>
<text text-anchor="middle" x="101.5" y="-107" font-family="Helvetica,sans-Serif" font-size="10.00">returnMinimum</text>
</g>
<!-- Node13&#45;&gt;Node1 -->
<g id="edge12" class="edge">
<title>Node13&#45;&gt;Node1</title>
<path fill="none" stroke="#9a32cd" stroke-dasharray="5,2" d="M399.01,-113.92C483.63,-120.57 637.61,-136.14 685,-164 708.53,-177.83 725.61,-206.39 733.36,-221.36"/>
<polygon fill="#9a32cd" stroke="#9a32cd" points="399.03,-110.41 388.79,-113.13 398.5,-117.39 399.03,-110.41"/>
<text text-anchor="middle" x="490" y="-133" font-family="Helvetica,sans-Serif" font-size="10.00"> indexBounds</text>
</g>
<!-- Node14 -->
<g id="node14" class="node">
<title>Node14</title>
<g id="a_node14"><a xlink:href="structe57_1_1_intensity_limits.html" target="_top" xlink:title="Specifies the limits for the value of signal intensity that a sensor is capable of producing.">
<polygon fill="white" stroke="black" points="439,-79.5 439,-98.5 541,-98.5 541,-79.5 439,-79.5"/>
<text text-anchor="middle" x="490" y="-86.5" font-family="Helvetica,sans-Serif" font-size="10.00">e57::IntensityLimits</text>
</a>
</g>
</g>
<!-- Node14&#45;&gt;Node1 -->
<g id="edge14" class="edge">
<title>Node14&#45;&gt;Node1</title>
<path fill="none" stroke="#9a32cd" stroke-dasharray="5,2" d="M551.55,-80.71C592.94,-78.34 646.98,-82.11 685,-110 722.72,-137.67 733.98,-198.08 737,-221.48"/>
<polygon fill="#9a32cd" stroke="#9a32cd" points="551.05,-77.23 541.32,-81.43 551.54,-84.22 551.05,-77.23"/>
<text text-anchor="middle" x="632.5" y="-113" font-family="Helvetica,sans-Serif" font-size="10.00"> intensityLimits</text>
</g>
<!-- Node15 -->
<g id="node15" class="node">
<title>Node15</title>
<g id="a_node15"><a xlink:href="structe57_1_1_rigid_body_transform.html" target="_top" xlink:title="Defines a rigid body transform in cartesian coordinates.">
<polygon fill="white" stroke="black" points="426,-38.5 426,-57.5 554,-57.5 554,-38.5 426,-38.5"/>
<text text-anchor="middle" x="490" y="-45.5" font-family="Helvetica,sans-Serif" font-size="10.00">e57::RigidBodyTransform</text>
</a>
</g>
</g>
<!-- Node15&#45;&gt;Node1 -->
<g id="edge15" class="edge">
<title>Node15&#45;&gt;Node1</title>
<path fill="none" stroke="#9a32cd" stroke-dasharray="5,2" d="M549.6,-37.3C591.71,-33.06 647.43,-34.96 685,-65 734.85,-104.87 738.53,-191.79 738.28,-221.11"/>
<polygon fill="#9a32cd" stroke="#9a32cd" points="549.02,-33.84 539.49,-38.46 549.82,-40.79 549.02,-33.84"/>
<text text-anchor="middle" x="632.5" y="-68" font-family="Helvetica,sans-Serif" font-size="10.00"> pose</text>
</g>
<!-- Node16 -->
<g id="node16" class="node">
<title>Node16</title>
<g id="a_node16"><a xlink:href="structe57_1_1_quaternion.html" target="_top" xlink:title="Represents a rigid body rotation.">
<polygon fill="white" stroke="black" points="167.5,-38.5 167.5,-57.5 253.5,-57.5 253.5,-38.5 167.5,-38.5"/>
<text text-anchor="middle" x="210.5" y="-45.5" font-family="Helvetica,sans-Serif" font-size="10.00">e57::Quaternion</text>
</a>
</g>
</g>
<!-- Node16&#45;&gt;Node15 -->
<g id="edge16" class="edge">
<title>Node16&#45;&gt;Node15</title>
<path fill="none" stroke="#9a32cd" stroke-dasharray="5,2" d="M263.7,-48C309.69,-48 376.8,-48 425.81,-48"/>
<polygon fill="#9a32cd" stroke="#9a32cd" points="263.65,-44.5 253.65,-48 263.65,-51.5 263.65,-44.5"/>
<text text-anchor="middle" x="341" y="-51" font-family="Helvetica,sans-Serif" font-size="10.00"> rotation</text>
</g>
<!-- Node17 -->
<g id="node17" class="node">
<title>Node17</title>
<g id="a_node17"><a xlink:href="structe57_1_1_translation.html" target="_top" xlink:title="Defines a rigid body translation in Cartesian coordinates.">
<polygon fill="white" stroke="black" points="167.5,-0.5 167.5,-19.5 253.5,-19.5 253.5,-0.5 167.5,-0.5"/>
<text text-anchor="middle" x="210.5" y="-7.5" font-family="Helvetica,sans-Serif" font-size="10.00">e57::Translation</text>
</a>
</g>
</g>
<!-- Node17&#45;&gt;Node15 -->
<g id="edge17" class="edge">
<title>Node17&#45;&gt;Node15</title>
<path fill="none" stroke="#9a32cd" stroke-dasharray="5,2" d="M264.15,-15.77C302,-20.08 354.22,-26.35 400,-33 411.32,-34.64 423.42,-36.57 434.94,-38.48"/>
<polygon fill="#9a32cd" stroke="#9a32cd" points="264.2,-12.26 253.87,-14.61 263.42,-19.21 264.2,-12.26"/>
<text text-anchor="middle" x="341" y="-36" font-family="Helvetica,sans-Serif" font-size="10.00"> translation</text>
</g>
</g>
</svg>
