<?xml version="1.0" encoding="UTF-8" standalone="no"?>
<!DOCTYPE svg PUBLIC "-//W3C//DTD SVG 1.1//EN"
 "http://www.w3.org/Graphics/SVG/1.1/DTD/svg11.dtd">
<!-- Generated by graphviz version 2.48.0 (20210717.1556)
 -->
<!-- Title: e57::PointStandardizedFieldsAvailable Pages: 1 -->
<svg width="223pt" height="117pt"
 viewBox="0.00 0.00 223.00 117.00" xmlns="http://www.w3.org/2000/svg" xmlns:xlink="http://www.w3.org/1999/xlink">
<g id="graph0" class="graph" transform="scale(1 1) rotate(0) translate(4 113)">
<title>e57::PointStandardizedFieldsAvailable</title>
<polygon fill="white" stroke="transparent" points="-4,4 -4,-113 219,-113 219,4 -4,4"/>
<!-- Node1 -->
<g id="node1" class="node">
<title>Node1</title>
<g id="a_node1"><a xlink:title="Used to interrogate if standardized fields are available.">
<polygon fill="#bfbfbf" stroke="black" points="15.5,-0.5 15.5,-30.5 162.5,-30.5 162.5,-0.5 15.5,-0.5"/>
<text text-anchor="start" x="23.5" y="-18.5" font-family="Helvetica,sans-Serif" font-size="10.00">e57::PointStandardizedFields</text>
<text text-anchor="middle" x="89" y="-7.5" font-family="Helvetica,sans-Serif" font-size="10.00">Available</text>
</a>
</g>
</g>
<!-- Node2 -->
<g id="node2" class="node">
<title>Node2</title>
<g id="a_node2"><a xlink:title=" ">
<polygon fill="white" stroke="#bfbfbf" points="0,-89.5 0,-108.5 52,-108.5 52,-89.5 0,-89.5"/>
<text text-anchor="middle" x="26" y="-96.5" font-family="Helvetica,sans-Serif" font-size="10.00">uint32_t</text>
</a>
</g>
</g>
<!-- Node2&#45;&gt;Node1 -->
<g id="edge1" class="edge">
<title>Node2&#45;&gt;Node1</title>
<path fill="none" stroke="#9a32cd" stroke-dasharray="5,2" d="M22.08,-79.39C21.04,-69.66 21.47,-57.94 27,-49 31.8,-41.25 39.1,-35.25 47.04,-30.64"/>
<polygon fill="#9a32cd" stroke="#9a32cd" points="18.63,-79.98 23.69,-89.29 25.54,-78.86 18.63,-79.98"/>
<text text-anchor="middle" x="78.5" y="-63" font-family="Helvetica,sans-Serif" font-size="10.00"> columnIndexMaximum</text>
<text text-anchor="middle" x="78.5" y="-52" font-family="Helvetica,sans-Serif" font-size="10.00">rowIndexMaximum</text>
</g>
<!-- Node3 -->
<g id="node3" class="node">
<title>Node3</title>
<g id="a_node3"><a xlink:title=" ">
<polygon fill="white" stroke="#bfbfbf" points="128.5,-89.5 128.5,-108.5 175.5,-108.5 175.5,-89.5 128.5,-89.5"/>
<text text-anchor="middle" x="152" y="-96.5" font-family="Helvetica,sans-Serif" font-size="10.00">uint8_t</text>
</a>
</g>
</g>
<!-- Node3&#45;&gt;Node1 -->
<g id="edge2" class="edge">
<title>Node3&#45;&gt;Node1</title>
<path fill="none" stroke="#9a32cd" stroke-dasharray="5,2" d="M146.22,-79.83C142.56,-70.07 137.15,-58.19 130,-49 124.65,-42.12 117.54,-35.83 110.75,-30.65"/>
<polygon fill="#9a32cd" stroke="#9a32cd" points="142.94,-81.05 149.52,-89.36 149.56,-78.77 142.94,-81.05"/>
<text text-anchor="middle" x="178.5" y="-57.5" font-family="Helvetica,sans-Serif" font-size="10.00"> returnMaximum</text>
</g>
</g>
</svg>
