<?xml version="1.0" encoding="UTF-8" standalone="no"?>
<!DOCTYPE svg PUBLIC "-//W3C//DTD SVG 1.1//EN"
 "http://www.w3.org/Graphics/SVG/1.1/DTD/svg11.dtd">
<!-- Generated by graphviz version 2.48.0 (20210717.1556)
 -->
<!-- Title: EmptyPacketHeader Pages: 1 -->
<svg width="229pt" height="106pt"
 viewBox="0.00 0.00 229.00 106.00" xmlns="http://www.w3.org/2000/svg" xmlns:xlink="http://www.w3.org/1999/xlink">
<g id="graph0" class="graph" transform="scale(1 1) rotate(0) translate(4 102)">
<title>EmptyPacketHeader</title>
<polygon fill="white" stroke="transparent" points="-4,4 -4,-102 225,-102 225,4 -4,4"/>
<!-- Node1 -->
<g id="node1" class="node">
<title>Node1</title>
<g id="a_node1"><a xlink:title=" ">
<polygon fill="#bfbfbf" stroke="black" points="47,-0.5 47,-19.5 155,-19.5 155,-0.5 47,-0.5"/>
<text text-anchor="middle" x="101" y="-7.5" font-family="Helvetica,sans-Serif" font-size="10.00">EmptyPacketHeader</text>
</a>
</g>
</g>
<!-- Node2 -->
<g id="node2" class="node">
<title>Node2</title>
<g id="a_node2"><a xlink:title=" ">
<polygon fill="white" stroke="#bfbfbf" points="0,-78.5 0,-97.5 52,-97.5 52,-78.5 0,-78.5"/>
<text text-anchor="middle" x="26" y="-85.5" font-family="Helvetica,sans-Serif" font-size="10.00">uint16_t</text>
</a>
</g>
</g>
<!-- Node2&#45;&gt;Node1 -->
<g id="edge1" class="edge">
<title>Node2&#45;&gt;Node1</title>
<path fill="none" stroke="#9a32cd" stroke-dasharray="5,2" d="M21.66,-68.43C20.43,-58.53 20.82,-46.65 27,-38 33.12,-29.43 42.26,-23.58 52.04,-19.58"/>
<polygon fill="#9a32cd" stroke="#9a32cd" points="18.25,-69.28 23.5,-78.48 25.14,-68.01 18.25,-69.28"/>
<text text-anchor="middle" x="90.5" y="-46.5" font-family="Helvetica,sans-Serif" font-size="10.00"> packetLogicalLengthMinus1</text>
</g>
<!-- Node3 -->
<g id="node3" class="node">
<title>Node3</title>
<g id="a_node3"><a xlink:title=" ">
<polygon fill="white" stroke="#bfbfbf" points="152.5,-78.5 152.5,-97.5 199.5,-97.5 199.5,-78.5 152.5,-78.5"/>
<text text-anchor="middle" x="176" y="-85.5" font-family="Helvetica,sans-Serif" font-size="10.00">uint8_t</text>
</a>
</g>
</g>
<!-- Node3&#45;&gt;Node1 -->
<g id="edge2" class="edge">
<title>Node3&#45;&gt;Node1</title>
<path fill="none" stroke="#9a32cd" stroke-dasharray="5,2" d="M171.04,-68.58C167.58,-58.57 162.12,-46.53 154,-38 146.31,-29.92 135.68,-23.85 125.95,-19.54"/>
<polygon fill="#9a32cd" stroke="#9a32cd" points="167.76,-69.84 174.02,-78.39 174.46,-67.8 167.76,-69.84"/>
<text text-anchor="middle" x="194" y="-52" font-family="Helvetica,sans-Serif" font-size="10.00"> packetType</text>
<text text-anchor="middle" x="194" y="-41" font-family="Helvetica,sans-Serif" font-size="10.00">reserved1</text>
</g>
</g>
</svg>
