<?xml version="1.0" encoding="UTF-8" standalone="no"?>
<!DOCTYPE svg PUBLIC "-//W3C//DTD SVG 1.1//EN"
 "http://www.w3.org/Graphics/SVG/1.1/DTD/svg11.dtd">
<!-- Generated by graphviz version 2.48.0 (20210717.1556)
 -->
<!-- Title: e57::DecodeChannel Pages: 1 -->
<svg width="273pt" height="106pt"
 viewBox="0.00 0.00 272.50 106.00" xmlns="http://www.w3.org/2000/svg" xmlns:xlink="http://www.w3.org/1999/xlink">
<g id="graph0" class="graph" transform="scale(1 1) rotate(0) translate(4 102)">
<title>e57::DecodeChannel</title>
<polygon fill="white" stroke="transparent" points="-4,4 -4,-102 268.5,-102 268.5,4 -4,4"/>
<!-- Node1 -->
<g id="node1" class="node">
<title>Node1</title>
<g id="a_node1"><a xlink:title=" ">
<polygon fill="#bfbfbf" stroke="black" points="54.5,-0.5 54.5,-19.5 164.5,-19.5 164.5,-0.5 54.5,-0.5"/>
<text text-anchor="middle" x="109.5" y="-7.5" font-family="Helvetica,sans-Serif" font-size="10.00">e57::DecodeChannel</text>
</a>
</g>
</g>
<!-- Node2 -->
<g id="node2" class="node">
<title>Node2</title>
<g id="a_node2"><a xlink:href="classe57_1_1_source_dest_buffer.html" target="_top" xlink:title=" ">
<polygon fill="white" stroke="black" points="0,-78.5 0,-97.5 117,-97.5 117,-78.5 0,-78.5"/>
<text text-anchor="middle" x="58.5" y="-85.5" font-family="Helvetica,sans-Serif" font-size="10.00">e57::SourceDestBuffer</text>
</a>
</g>
</g>
<!-- Node2&#45;&gt;Node1 -->
<g id="edge1" class="edge">
<title>Node2&#45;&gt;Node1</title>
<path fill="none" stroke="#9a32cd" stroke-dasharray="5,2" d="M70.2,-69.57C80.68,-53.95 95.61,-31.7 103.72,-19.62"/>
<polygon fill="#9a32cd" stroke="#9a32cd" points="67.02,-68.03 64.35,-78.28 72.83,-71.93 67.02,-68.03"/>
<text text-anchor="middle" x="102" y="-46.5" font-family="Helvetica,sans-Serif" font-size="10.00"> dbuf</text>
</g>
<!-- Node3 -->
<g id="node3" class="node">
<title>Node3</title>
<g id="a_node3"><a xlink:title=" ">
<polygon fill="white" stroke="#bfbfbf" points="135.5,-78.5 135.5,-97.5 187.5,-97.5 187.5,-78.5 135.5,-78.5"/>
<text text-anchor="middle" x="161.5" y="-85.5" font-family="Helvetica,sans-Serif" font-size="10.00">uint64_t</text>
</a>
</g>
</g>
<!-- Node3&#45;&gt;Node1 -->
<g id="edge2" class="edge">
<title>Node3&#45;&gt;Node1</title>
<path fill="none" stroke="#9a32cd" stroke-dasharray="5,2" d="M149.87,-70.01C139.17,-54.37 123.74,-31.81 115.4,-19.62"/>
<polygon fill="#9a32cd" stroke="#9a32cd" points="147,-72.01 155.53,-78.28 152.78,-68.05 147,-72.01"/>
<text text-anchor="middle" x="203" y="-52" font-family="Helvetica,sans-Serif" font-size="10.00"> currentPacketLogicalOffset</text>
<text text-anchor="middle" x="203" y="-41" font-family="Helvetica,sans-Serif" font-size="10.00">maxRecordCount</text>
</g>
</g>
</svg>
