<?xml version="1.0" encoding="UTF-8" standalone="no"?>
<!DOCTYPE svg PUBLIC "-//W3C//DTD SVG 1.1//EN"
 "http://www.w3.org/Graphics/SVG/1.1/DTD/svg11.dtd">
<!-- Generated by graphviz version 2.48.0 (20210717.1556)
 -->
<!-- Title: e57::LineGroupRecord Pages: 1 -->
<svg width="322pt" height="117pt"
 viewBox="0.00 0.00 321.50 117.00" xmlns="http://www.w3.org/2000/svg" xmlns:xlink="http://www.w3.org/1999/xlink">
<g id="graph0" class="graph" transform="scale(1 1) rotate(0) translate(4 113)">
<title>e57::LineGroupRecord</title>
<polygon fill="white" stroke="transparent" points="-4,4 -4,-113 317.5,-113 317.5,4 -4,4"/>
<!-- Node1 -->
<g id="node1" class="node">
<title>Node1</title>
<g id="a_node1"><a xlink:title="Stores information about a single group of points in a row or column.">
<polygon fill="#bfbfbf" stroke="black" points="63.5,-0.5 63.5,-19.5 181.5,-19.5 181.5,-0.5 63.5,-0.5"/>
<text text-anchor="middle" x="122.5" y="-7.5" font-family="Helvetica,sans-Serif" font-size="10.00">e57::LineGroupRecord</text>
</a>
</g>
</g>
<!-- Node2 -->
<g id="node2" class="node">
<title>Node2</title>
<g id="a_node2"><a xlink:title=" ">
<polygon fill="white" stroke="#bfbfbf" points="0,-89.5 0,-108.5 47,-108.5 47,-89.5 0,-89.5"/>
<text text-anchor="middle" x="23.5" y="-96.5" font-family="Helvetica,sans-Serif" font-size="10.00">int64_t</text>
</a>
</g>
</g>
<!-- Node2&#45;&gt;Node1 -->
<g id="edge1" class="edge">
<title>Node2&#45;&gt;Node1</title>
<path fill="none" stroke="#9a32cd" stroke-dasharray="5,2" d="M26.02,-79.53C28.72,-66.36 34.27,-49.08 45.5,-38 54.18,-29.45 65.71,-23.59 77.21,-19.59"/>
<polygon fill="#9a32cd" stroke="#9a32cd" points="22.56,-78.97 24.35,-89.41 29.47,-80.14 22.56,-78.97"/>
<text text-anchor="middle" x="82" y="-63" font-family="Helvetica,sans-Serif" font-size="10.00"> idElementValue</text>
<text text-anchor="middle" x="82" y="-52" font-family="Helvetica,sans-Serif" font-size="10.00">pointCount</text>
<text text-anchor="middle" x="82" y="-41" font-family="Helvetica,sans-Serif" font-size="10.00">startPointIndex</text>
</g>
<!-- Node3 -->
<g id="node3" class="node">
<title>Node3</title>
<g id="a_node3"><a xlink:href="structe57_1_1_cartesian_bounds.html" target="_top" xlink:title="Specifies an axis&#45;aligned box in local cartesian coordinates.">
<polygon fill="white" stroke="black" points="65,-89.5 65,-108.5 180,-108.5 180,-89.5 65,-89.5"/>
<text text-anchor="middle" x="122.5" y="-96.5" font-family="Helvetica,sans-Serif" font-size="10.00">e57::CartesianBounds</text>
</a>
</g>
</g>
<!-- Node3&#45;&gt;Node1 -->
<g id="edge2" class="edge">
<title>Node3&#45;&gt;Node1</title>
<path fill="none" stroke="#9a32cd" stroke-dasharray="5,2" d="M122.5,-79.19C122.5,-60.74 122.5,-33.41 122.5,-19.62"/>
<polygon fill="#9a32cd" stroke="#9a32cd" points="119,-79.34 122.5,-89.34 126,-79.34 119,-79.34"/>
<text text-anchor="middle" x="161.5" y="-52" font-family="Helvetica,sans-Serif" font-size="10.00"> cartesianBounds</text>
</g>
<!-- Node4 -->
<g id="node4" class="node">
<title>Node4</title>
<g id="a_node4"><a xlink:href="structe57_1_1_spherical_bounds.html" target="_top" xlink:title="Stores the bounds of some data in spherical coordinates.">
<polygon fill="white" stroke="black" points="198.5,-89.5 198.5,-108.5 312.5,-108.5 312.5,-89.5 198.5,-89.5"/>
<text text-anchor="middle" x="255.5" y="-96.5" font-family="Helvetica,sans-Serif" font-size="10.00">e57::SphericalBounds</text>
</a>
</g>
</g>
<!-- Node4&#45;&gt;Node1 -->
<g id="edge3" class="edge">
<title>Node4&#45;&gt;Node1</title>
<path fill="none" stroke="#9a32cd" stroke-dasharray="5,2" d="M244.87,-80.97C235.69,-67.55 221.27,-49.28 204.5,-38 192.06,-29.63 176.83,-23.68 162.88,-19.54"/>
<polygon fill="#9a32cd" stroke="#9a32cd" points="241.95,-82.89 250.35,-89.34 247.8,-79.06 241.95,-82.89"/>
<text text-anchor="middle" x="275" y="-52" font-family="Helvetica,sans-Serif" font-size="10.00"> sphericalBounds</text>
</g>
</g>
</svg>
