<?xml version="1.0" encoding="UTF-8" standalone="no"?>
<!DOCTYPE svg PUBLIC "-//W3C//DTD SVG 1.1//EN"
 "http://www.w3.org/Graphics/SVG/1.1/DTD/svg11.dtd">
<!-- Generated by graphviz version 2.44.0 (20200408.0750)
 -->
<!-- Title: e57::PointStandardizedFieldsAvailable Pages: 1 -->
<svg width="217pt" height="117pt"
 viewBox="0.00 0.00 216.50 117.00" xmlns="http://www.w3.org/2000/svg" xmlns:xlink="http://www.w3.org/1999/xlink">
<g id="graph0" class="graph" transform="scale(1 1) rotate(0) translate(4 113)">
<title>e57::PointStandardizedFieldsAvailable</title>
<polygon fill="white" stroke="transparent" points="-4,4 -4,-113 212.5,-113 212.5,4 -4,4"/>
<!-- Node1 -->
<g id="node1" class="node">
<title>Node1</title>
<g id="a_node1"><a xlink:title="Used to interrogate if standardized fields are available.">
<polygon fill="#bfbfbf" stroke="black" points="14.5,-0.5 14.5,-30.5 158.5,-30.5 158.5,-0.5 14.5,-0.5"/>
<text text-anchor="start" x="22.5" y="-18.5" font-family="Helvetica,sans-Serif" font-size="10.00">e57::PointStandardizedFields</text>
<text text-anchor="middle" x="86.5" y="-7.5" font-family="Helvetica,sans-Serif" font-size="10.00">Available</text>
</a>
</g>
</g>
<!-- Node2 -->
<g id="node2" class="node">
<title>Node2</title>
<g id="a_node2"><a xlink:title=" ">
<polygon fill="white" stroke="#bfbfbf" points="0,-89.5 0,-108.5 51,-108.5 51,-89.5 0,-89.5"/>
<text text-anchor="middle" x="25.5" y="-96.5" font-family="Helvetica,sans-Serif" font-size="10.00">uint32_t</text>
</a>
</g>
</g>
<!-- Node2&#45;&gt;Node1 -->
<g id="edge1" class="edge">
<title>Node2&#45;&gt;Node1</title>
<path fill="none" stroke="#9a32cd" stroke-dasharray="5,2" d="M21.63,-79.42C20.61,-69.7 21.03,-57.97 26.5,-49 31.25,-41.21 38.57,-35.17 46.48,-30.52"/>
<polygon fill="#9a32cd" stroke="#9a32cd" points="18.18,-79.99 23.21,-89.31 25.09,-78.88 18.18,-79.99"/>
<text text-anchor="middle" x="76" y="-63" font-family="Helvetica,sans-Serif" font-size="10.00"> rowIndexMaximum</text>
<text text-anchor="middle" x="76" y="-52" font-family="Helvetica,sans-Serif" font-size="10.00">columnIndexMaximum</text>
</g>
<!-- Node3 -->
<g id="node3" class="node">
<title>Node3</title>
<g id="a_node3"><a xlink:title=" ">
<polygon fill="white" stroke="#bfbfbf" points="124.5,-89.5 124.5,-108.5 170.5,-108.5 170.5,-89.5 124.5,-89.5"/>
<text text-anchor="middle" x="147.5" y="-96.5" font-family="Helvetica,sans-Serif" font-size="10.00">uint8_t</text>
</a>
</g>
</g>
<!-- Node3&#45;&gt;Node1 -->
<g id="edge2" class="edge">
<title>Node3&#45;&gt;Node1</title>
<path fill="none" stroke="#9a32cd" stroke-dasharray="5,2" d="M141.63,-79.9C137.94,-70.16 132.54,-58.27 125.5,-49 120.39,-42.26 113.62,-36 107.17,-30.82"/>
<polygon fill="#9a32cd" stroke="#9a32cd" points="138.35,-81.12 144.96,-89.4 144.96,-78.81 138.35,-81.12"/>
<text text-anchor="middle" x="173" y="-57.5" font-family="Helvetica,sans-Serif" font-size="10.00"> returnMaximum</text>
</g>
</g>
</svg>
