<?xml version="1.0" encoding="UTF-8" standalone="no"?>
<!DOCTYPE svg PUBLIC "-//W3C//DTD SVG 1.1//EN"
 "http://www.w3.org/Graphics/SVG/1.1/DTD/svg11.dtd">
<!-- Generated by graphviz version 2.44.0 (20200408.0750)
 -->
<!-- Title: IndexPacket Pages: 1 -->
<svg width="379pt" height="217pt"
 viewBox="0.00 0.00 378.50 217.00" xmlns="http://www.w3.org/2000/svg" xmlns:xlink="http://www.w3.org/1999/xlink">
<g id="graph0" class="graph" transform="scale(1 1) rotate(0) translate(4 213)">
<title>IndexPacket</title>
<polygon fill="white" stroke="transparent" points="-4,4 -4,-213 374.5,-213 374.5,4 -4,4"/>
<!-- Node1 -->
<g id="node1" class="node">
<title>Node1</title>
<g id="a_node1"><a xlink:title=" ">
<polygon fill="#bfbfbf" stroke="black" points="134,-0.5 134,-19.5 205,-19.5 205,-0.5 134,-0.5"/>
<text text-anchor="middle" x="169.5" y="-7.5" font-family="Helvetica,sans-Serif" font-size="10.00">IndexPacket</text>
</a>
</g>
</g>
<!-- Node2 -->
<g id="node2" class="node">
<title>Node2</title>
<g id="a_node2"><a xlink:title=" ">
<polygon fill="white" stroke="#bfbfbf" points="0,-106 0,-125 51,-125 51,-106 0,-106"/>
<text text-anchor="middle" x="25.5" y="-113" font-family="Helvetica,sans-Serif" font-size="10.00">uint16_t</text>
</a>
</g>
</g>
<!-- Node2&#45;&gt;Node1 -->
<g id="edge1" class="edge">
<title>Node2&#45;&gt;Node1</title>
<path fill="none" stroke="#9a32cd" stroke-dasharray="5,2" d="M24.9,-95.9C25.4,-78.5 29.03,-53 44.5,-38 57.05,-25.83 101.47,-18.41 133.8,-14.51"/>
<polygon fill="#9a32cd" stroke="#9a32cd" points="21.4,-95.99 24.93,-105.98 28.4,-95.97 21.4,-95.99"/>
<text text-anchor="middle" x="105" y="-63" font-family="Helvetica,sans-Serif" font-size="10.00"> entryCount</text>
<text text-anchor="middle" x="105" y="-52" font-family="Helvetica,sans-Serif" font-size="10.00">packetLogicalLengthMinus1</text>
</g>
<!-- Node3 -->
<g id="node3" class="node">
<title>Node3</title>
<g id="a_node3"><a xlink:title=" ">
<polygon fill="white" stroke="#bfbfbf" points="146.5,-106 146.5,-125 192.5,-125 192.5,-106 146.5,-106"/>
<text text-anchor="middle" x="169.5" y="-113" font-family="Helvetica,sans-Serif" font-size="10.00">uint8_t</text>
</a>
</g>
</g>
<!-- Node3&#45;&gt;Node1 -->
<g id="edge2" class="edge">
<title>Node3&#45;&gt;Node1</title>
<path fill="none" stroke="#9a32cd" stroke-dasharray="5,2" d="M169.5,-95.6C169.5,-72.97 169.5,-36.07 169.5,-19.51"/>
<polygon fill="#9a32cd" stroke="#9a32cd" points="166,-95.68 169.5,-105.68 173,-95.68 166,-95.68"/>
<text text-anchor="middle" x="198" y="-74" font-family="Helvetica,sans-Serif" font-size="10.00"> packetFlags</text>
<text text-anchor="middle" x="198" y="-63" font-family="Helvetica,sans-Serif" font-size="10.00">reserved1</text>
<text text-anchor="middle" x="198" y="-52" font-family="Helvetica,sans-Serif" font-size="10.00">packetType</text>
<text text-anchor="middle" x="198" y="-41" font-family="Helvetica,sans-Serif" font-size="10.00">indexLevel</text>
</g>
<!-- Node4 -->
<g id="node4" class="node">
<title>Node4</title>
<g id="a_node4"><a xlink:href="struct_index_packet_1_1_index_packet_entry.html" target="_top" xlink:title=" ">
<polygon fill="white" stroke="black" points="210.5,-100.5 210.5,-130.5 342.5,-130.5 342.5,-100.5 210.5,-100.5"/>
<text text-anchor="start" x="218.5" y="-118.5" font-family="Helvetica,sans-Serif" font-size="10.00">IndexPacket::IndexPacket</text>
<text text-anchor="middle" x="276.5" y="-107.5" font-family="Helvetica,sans-Serif" font-size="10.00">Entry</text>
</a>
</g>
</g>
<!-- Node4&#45;&gt;Node1 -->
<g id="edge3" class="edge">
<title>Node4&#45;&gt;Node1</title>
<path fill="none" stroke="#9a32cd" stroke-dasharray="5,2" d="M266.87,-90.73C259.14,-74.13 246.86,-52.44 230.5,-38 221.3,-29.88 209.26,-23.85 198.31,-19.58"/>
<polygon fill="#9a32cd" stroke="#9a32cd" points="263.86,-92.57 271.1,-100.3 270.26,-89.74 263.86,-92.57"/>
<text text-anchor="middle" x="279" y="-57.5" font-family="Helvetica,sans-Serif" font-size="10.00"> entries</text>
</g>
<!-- Node5 -->
<g id="node5" class="node">
<title>Node5</title>
<g id="a_node5"><a xlink:title=" ">
<polygon fill="white" stroke="#bfbfbf" points="251,-189.5 251,-208.5 302,-208.5 302,-189.5 251,-189.5"/>
<text text-anchor="middle" x="276.5" y="-196.5" font-family="Helvetica,sans-Serif" font-size="10.00">uint64_t</text>
</a>
</g>
</g>
<!-- Node5&#45;&gt;Node4 -->
<g id="edge4" class="edge">
<title>Node5&#45;&gt;Node4</title>
<path fill="none" stroke="#9a32cd" stroke-dasharray="5,2" d="M276.5,-179.23C276.5,-164.41 276.5,-144.05 276.5,-130.6"/>
<polygon fill="#9a32cd" stroke="#9a32cd" points="273,-179.28 276.5,-189.28 280,-179.28 273,-179.28"/>
<text text-anchor="middle" x="323.5" y="-163" font-family="Helvetica,sans-Serif" font-size="10.00"> chunkPhysicalOffset</text>
<text text-anchor="middle" x="323.5" y="-152" font-family="Helvetica,sans-Serif" font-size="10.00">chunkRecordNumber</text>
</g>
</g>
</svg>
