<?xml version="1.0" encoding="UTF-8" standalone="no"?>
<!DOCTYPE svg PUBLIC "-//W3C//DTD SVG 1.1//EN"
 "http://www.w3.org/Graphics/SVG/1.1/DTD/svg11.dtd">
<!-- Generated by graphviz version 2.44.0 (20200408.0750)
 -->
<!-- Title: e57::E57FileHeader Pages: 1 -->
<svg width="192pt" height="128pt"
 viewBox="0.00 0.00 191.50 128.00" xmlns="http://www.w3.org/2000/svg" xmlns:xlink="http://www.w3.org/1999/xlink">
<g id="graph0" class="graph" transform="scale(1 1) rotate(0) translate(4 124)">
<title>e57::E57FileHeader</title>
<polygon fill="white" stroke="transparent" points="-4,4 -4,-124 187.5,-124 187.5,4 -4,4"/>
<!-- Node1 -->
<g id="node1" class="node">
<title>Node1</title>
<g id="a_node1"><a xlink:title=" ">
<polygon fill="#bfbfbf" stroke="black" points="16,-0.5 16,-19.5 119,-19.5 119,-0.5 16,-0.5"/>
<text text-anchor="middle" x="67.5" y="-7.5" font-family="Helvetica,sans-Serif" font-size="10.00">e57::E57FileHeader</text>
</a>
</g>
</g>
<!-- Node2 -->
<g id="node2" class="node">
<title>Node2</title>
<g id="a_node2"><a xlink:title=" ">
<polygon fill="white" stroke="#bfbfbf" points="0,-100.5 0,-119.5 51,-119.5 51,-100.5 0,-100.5"/>
<text text-anchor="middle" x="25.5" y="-107.5" font-family="Helvetica,sans-Serif" font-size="10.00">uint32_t</text>
</a>
</g>
</g>
<!-- Node2&#45;&gt;Node1 -->
<g id="edge1" class="edge">
<title>Node2&#45;&gt;Node1</title>
<path fill="none" stroke="#9a32cd" stroke-dasharray="5,2" d="M21.21,-90.36C18.77,-75.29 17.72,-54.02 26.5,-38 30.92,-29.93 38.91,-23.86 46.67,-19.54"/>
<polygon fill="#9a32cd" stroke="#9a32cd" points="17.84,-91.35 23.21,-100.49 24.71,-90 17.84,-91.35"/>
<text text-anchor="middle" x="57" y="-63" font-family="Helvetica,sans-Serif" font-size="10.00"> minorVersion</text>
<text text-anchor="middle" x="57" y="-52" font-family="Helvetica,sans-Serif" font-size="10.00">majorVersion</text>
</g>
<!-- Node3 -->
<g id="node3" class="node">
<title>Node3</title>
<g id="a_node3"><a xlink:title=" ">
<polygon fill="white" stroke="#bfbfbf" points="84,-100.5 84,-119.5 135,-119.5 135,-100.5 84,-100.5"/>
<text text-anchor="middle" x="109.5" y="-107.5" font-family="Helvetica,sans-Serif" font-size="10.00">uint64_t</text>
</a>
</g>
</g>
<!-- Node3&#45;&gt;Node1 -->
<g id="edge2" class="edge">
<title>Node3&#45;&gt;Node1</title>
<path fill="none" stroke="#9a32cd" stroke-dasharray="5,2" d="M105.57,-90.44C102.03,-75.71 96.05,-54.88 87.5,-38 84.12,-31.34 79.12,-24.59 74.97,-19.5"/>
<polygon fill="#9a32cd" stroke="#9a32cd" points="102.19,-91.35 107.81,-100.34 109.01,-89.81 102.19,-91.35"/>
<text text-anchor="middle" x="143" y="-74" font-family="Helvetica,sans-Serif" font-size="10.00"> pageSize</text>
<text text-anchor="middle" x="143" y="-63" font-family="Helvetica,sans-Serif" font-size="10.00">filePhysicalLength</text>
<text text-anchor="middle" x="143" y="-52" font-family="Helvetica,sans-Serif" font-size="10.00">xmlLogicalLength</text>
<text text-anchor="middle" x="143" y="-41" font-family="Helvetica,sans-Serif" font-size="10.00">xmlPhysicalOffset</text>
</g>
</g>
</svg>
