<?xml version="1.0" encoding="UTF-8" standalone="no"?>
<!DOCTYPE svg PUBLIC "-//W3C//DTD SVG 1.1//EN"
 "http://www.w3.org/Graphics/SVG/1.1/DTD/svg11.dtd">
<!-- Generated by graphviz version 2.48.0 (20210717.1556)
 -->
<!-- Title: IndexPacket Pages: 1 -->
<svg width="384pt" height="217pt"
 viewBox="0.00 0.00 384.00 217.00" xmlns="http://www.w3.org/2000/svg" xmlns:xlink="http://www.w3.org/1999/xlink">
<g id="graph0" class="graph" transform="scale(1 1) rotate(0) translate(4 213)">
<title>IndexPacket</title>
<polygon fill="white" stroke="transparent" points="-4,4 -4,-213 380,-213 380,4 -4,4"/>
<!-- Node1 -->
<g id="node1" class="node">
<title>Node1</title>
<g id="a_node1"><a xlink:title=" ">
<polygon fill="#bfbfbf" stroke="black" points="137,-0.5 137,-19.5 209,-19.5 209,-0.5 137,-0.5"/>
<text text-anchor="middle" x="173" y="-7.5" font-family="Helvetica,sans-Serif" font-size="10.00">IndexPacket</text>
</a>
</g>
</g>
<!-- Node2 -->
<g id="node2" class="node">
<title>Node2</title>
<g id="a_node2"><a xlink:title=" ">
<polygon fill="white" stroke="#bfbfbf" points="0,-106 0,-125 52,-125 52,-106 0,-106"/>
<text text-anchor="middle" x="26" y="-113" font-family="Helvetica,sans-Serif" font-size="10.00">uint16_t</text>
</a>
</g>
</g>
<!-- Node2&#45;&gt;Node1 -->
<g id="edge1" class="edge">
<title>Node2&#45;&gt;Node1</title>
<path fill="none" stroke="#9a32cd" stroke-dasharray="5,2" d="M25.39,-95.89C25.87,-78.47 29.49,-52.97 45,-38 57.91,-25.54 103.64,-18.18 136.76,-14.36"/>
<polygon fill="#9a32cd" stroke="#9a32cd" points="21.89,-95.98 25.42,-105.97 28.89,-95.95 21.89,-95.98"/>
<text text-anchor="middle" x="107" y="-63" font-family="Helvetica,sans-Serif" font-size="10.00"> entryCount</text>
<text text-anchor="middle" x="107" y="-52" font-family="Helvetica,sans-Serif" font-size="10.00">packetLogicalLengthMinus1</text>
</g>
<!-- Node3 -->
<g id="node3" class="node">
<title>Node3</title>
<g id="a_node3"><a xlink:title=" ">
<polygon fill="white" stroke="#bfbfbf" points="149.5,-106 149.5,-125 196.5,-125 196.5,-106 149.5,-106"/>
<text text-anchor="middle" x="173" y="-113" font-family="Helvetica,sans-Serif" font-size="10.00">uint8_t</text>
</a>
</g>
</g>
<!-- Node3&#45;&gt;Node1 -->
<g id="edge2" class="edge">
<title>Node3&#45;&gt;Node1</title>
<path fill="none" stroke="#9a32cd" stroke-dasharray="5,2" d="M173,-95.6C173,-72.97 173,-36.07 173,-19.51"/>
<polygon fill="#9a32cd" stroke="#9a32cd" points="169.5,-95.68 173,-105.68 176.5,-95.68 169.5,-95.68"/>
<text text-anchor="middle" x="200" y="-74" font-family="Helvetica,sans-Serif" font-size="10.00"> indexLevel</text>
<text text-anchor="middle" x="200" y="-63" font-family="Helvetica,sans-Serif" font-size="10.00">packetFlags</text>
<text text-anchor="middle" x="200" y="-52" font-family="Helvetica,sans-Serif" font-size="10.00">packetType</text>
<text text-anchor="middle" x="200" y="-41" font-family="Helvetica,sans-Serif" font-size="10.00">reserved1</text>
</g>
<!-- Node4 -->
<g id="node4" class="node">
<title>Node4</title>
<g id="a_node4"><a xlink:href="struct_index_packet_1_1_index_packet_entry.html" target="_top" xlink:title=" ">
<polygon fill="white" stroke="black" points="215,-100.5 215,-130.5 347,-130.5 347,-100.5 215,-100.5"/>
<text text-anchor="start" x="223" y="-118.5" font-family="Helvetica,sans-Serif" font-size="10.00">IndexPacket::IndexPacket</text>
<text text-anchor="middle" x="281" y="-107.5" font-family="Helvetica,sans-Serif" font-size="10.00">Entry</text>
</a>
</g>
</g>
<!-- Node4&#45;&gt;Node1 -->
<g id="edge3" class="edge">
<title>Node4&#45;&gt;Node1</title>
<path fill="none" stroke="#9a32cd" stroke-dasharray="5,2" d="M270.24,-91.31C261.57,-74.71 248.04,-52.76 231,-38 221.76,-30 209.76,-23.89 199.07,-19.52"/>
<polygon fill="#9a32cd" stroke="#9a32cd" points="267.17,-93 274.77,-100.38 273.43,-89.87 267.17,-93"/>
<text text-anchor="middle" x="281.5" y="-57.5" font-family="Helvetica,sans-Serif" font-size="10.00"> entries</text>
</g>
<!-- Node5 -->
<g id="node5" class="node">
<title>Node5</title>
<g id="a_node5"><a xlink:title=" ">
<polygon fill="white" stroke="#bfbfbf" points="255,-189.5 255,-208.5 307,-208.5 307,-189.5 255,-189.5"/>
<text text-anchor="middle" x="281" y="-196.5" font-family="Helvetica,sans-Serif" font-size="10.00">uint64_t</text>
</a>
</g>
</g>
<!-- Node5&#45;&gt;Node4 -->
<g id="edge4" class="edge">
<title>Node5&#45;&gt;Node4</title>
<path fill="none" stroke="#9a32cd" stroke-dasharray="5,2" d="M281,-179.23C281,-164.41 281,-144.05 281,-130.6"/>
<polygon fill="#9a32cd" stroke="#9a32cd" points="277.5,-179.28 281,-189.28 284.5,-179.28 277.5,-179.28"/>
<text text-anchor="middle" x="328.5" y="-163" font-family="Helvetica,sans-Serif" font-size="10.00"> chunkPhysicalOffset</text>
<text text-anchor="middle" x="328.5" y="-152" font-family="Helvetica,sans-Serif" font-size="10.00">chunkRecordNumber</text>
</g>
</g>
</svg>
