<?xml version="1.0" encoding="UTF-8" standalone="no"?>
<!DOCTYPE svg PUBLIC "-//W3C//DTD SVG 1.1//EN"
 "http://www.w3.org/Graphics/SVG/1.1/DTD/svg11.dtd">
<!-- Generated by graphviz version 2.44.0 (20200408.0750)
 -->
<!-- Title: e57::VisualReferenceRepresentation Pages: 1 -->
<svg width="196pt" height="117pt"
 viewBox="0.00 0.00 196.00 117.00" xmlns="http://www.w3.org/2000/svg" xmlns:xlink="http://www.w3.org/1999/xlink">
<g id="graph0" class="graph" transform="scale(1 1) rotate(0) translate(4 113)">
<title>e57::VisualReferenceRepresentation</title>
<polygon fill="white" stroke="transparent" points="-4,4 -4,-113 192,-113 192,4 -4,4"/>
<!-- Node1 -->
<g id="node1" class="node">
<title>Node1</title>
<g id="a_node1"><a xlink:title="Stores an image that is to be used only as a visual reference.">
<polygon fill="#bfbfbf" stroke="black" points="0,-0.5 0,-19.5 176,-19.5 176,-0.5 0,-0.5"/>
<text text-anchor="middle" x="88" y="-7.5" font-family="Helvetica,sans-Serif" font-size="10.00">e57::VisualReferenceRepresentation</text>
</a>
</g>
</g>
<!-- Node2 -->
<g id="node2" class="node">
<title>Node2</title>
<g id="a_node2"><a xlink:title=" ">
<polygon fill="white" stroke="#bfbfbf" points="26,-89.5 26,-108.5 72,-108.5 72,-89.5 26,-89.5"/>
<text text-anchor="middle" x="49" y="-96.5" font-family="Helvetica,sans-Serif" font-size="10.00">int32_t</text>
</a>
</g>
</g>
<!-- Node2&#45;&gt;Node1 -->
<g id="edge1" class="edge">
<title>Node2&#45;&gt;Node1</title>
<path fill="none" stroke="#9a32cd" stroke-dasharray="5,2" d="M45.11,-79.15C43.53,-66.75 43.38,-50.56 50,-38 54.15,-30.12 61.75,-24.03 69.07,-19.64"/>
<polygon fill="#9a32cd" stroke="#9a32cd" points="41.7,-79.98 46.81,-89.25 48.6,-78.81 41.7,-79.98"/>
<text text-anchor="middle" x="77.5" y="-57.5" font-family="Helvetica,sans-Serif" font-size="10.00"> imageWidth</text>
<text text-anchor="middle" x="77.5" y="-46.5" font-family="Helvetica,sans-Serif" font-size="10.00">imageHeight</text>
</g>
<!-- Node3 -->
<g id="node3" class="node">
<title>Node3</title>
<g id="a_node3"><a xlink:title=" ">
<polygon fill="white" stroke="#bfbfbf" points="104,-89.5 104,-108.5 150,-108.5 150,-89.5 104,-89.5"/>
<text text-anchor="middle" x="127" y="-96.5" font-family="Helvetica,sans-Serif" font-size="10.00">int64_t</text>
</a>
</g>
</g>
<!-- Node3&#45;&gt;Node1 -->
<g id="edge2" class="edge">
<title>Node3&#45;&gt;Node1</title>
<path fill="none" stroke="#9a32cd" stroke-dasharray="5,2" d="M121.31,-79.4C117.34,-67.33 111.59,-51.42 105,-38 101.87,-31.64 97.62,-24.89 94.16,-19.73"/>
<polygon fill="#9a32cd" stroke="#9a32cd" points="118.06,-80.74 124.42,-89.22 124.73,-78.63 118.06,-80.74"/>
<text text-anchor="middle" x="153" y="-63" font-family="Helvetica,sans-Serif" font-size="10.00"> pngImageSize</text>
<text text-anchor="middle" x="153" y="-52" font-family="Helvetica,sans-Serif" font-size="10.00">jpegImageSize</text>
<text text-anchor="middle" x="153" y="-41" font-family="Helvetica,sans-Serif" font-size="10.00">imageMaskSize</text>
</g>
</g>
</svg>
