<?xml version="1.0" encoding="UTF-8" standalone="no"?>
<!DOCTYPE svg PUBLIC "-//W3C//DTD SVG 1.1//EN"
 "http://www.w3.org/Graphics/SVG/1.1/DTD/svg11.dtd">
<!-- Generated by graphviz version 2.48.0 (20210717.1556)
 -->
<!-- Title: e57::Image2D Pages: 1 -->
<!--zoomable 495 -->
<svg id="main" version="1.1" xmlns="http://www.w3.org/2000/svg" xmlns:xlink="http://www.w3.org/1999/xlink" xml:space="preserve" onload="init(evt)">
<style type="text/css"><![CDATA[
.edge:hover path { stroke: red; }
.edge:hover polygon { stroke: red; fill: red; }
]]></style>
<script type="text/javascript"><![CDATA[
var edges = document.getElementsByTagName('g');
if (edges && edges.length) {
  for (var i=0;i<edges.length;i++) {
    if (edges[i].id.substr(0,4)=='edge') {
      edges[i].setAttribute('class','edge');
    }
  }
}
]]></script>
        <defs>
                <circle id="rim" cx="0" cy="0" r="7"/>
                <circle id="rim2" cx="0" cy="0" r="3.5"/>
                <g id="zoomPlus">
                        <use xlink:href="#rim" fill="#404040">
                                <set attributeName="fill" to="#808080" begin="zoomplus.mouseover" end="zoomplus.mouseout"/>
                        </use>
                        <path d="M-4,0h8M0,-4v8" fill="none" stroke="white" stroke-width="1.5" pointer-events="none"/>
                </g>
                <g id="zoomMin">
                        <use xlink:href="#rim" fill="#404040">
                                <set attributeName="fill" to="#808080" begin="zoomminus.mouseover" end="zoomminus.mouseout"/>
                        </use>
                        <path d="M-4,0h8" fill="none" stroke="white" stroke-width="1.5" pointer-events="none"/>
                </g>
                <g id="dirArrow">
                        <path fill="none" stroke="white" stroke-width="1.5" d="M0,-3.0v7 M-2.5,-0.5L0,-3.0L2.5,-0.5"/>
                </g>
               <g id="resetDef">
                       <use xlink:href="#rim2" fill="#404040">
                               <set attributeName="fill" to="#808080" begin="reset.mouseover" end="reset.mouseout"/>
                       </use>
               </g>
        </defs>

<script type="text/javascript">
var viewWidth = 688;
var viewHeight = 495;
var sectionId = 'dynsection-0';
</script>
<script xlink:href="svgpan.js"/>
<svg id="graph" class="graph">
<g id="viewport">
<title>e57::Image2D</title>
<polygon fill="white" stroke="transparent" points="-4,4 -4,-491 684,-491 684,4 -4,4"/>
<!-- Node1 -->
<g id="node1" class="node">
<title>Node1</title>
<g id="a_node1"><a xlink:title="Stores an image from a camera.">
<polygon fill="#bfbfbf" stroke="black" points="601,-263.5 601,-282.5 680,-282.5 680,-263.5 601,-263.5"/>
<text text-anchor="middle" x="640.5" y="-270.5" font-family="Helvetica,sans-Serif" font-size="10.00">e57::Image2D</text>
</a>
</g>
</g>
<!-- Node2 -->
<g id="node2" class="node">
<title>Node2</title>
<g id="a_node2"><a xlink:href="structe57_1_1_date_time.html" target="_top" xlink:title="Encodes date and time.">
<polygon fill="white" stroke="black" points="291,-422.5 291,-441.5 373,-441.5 373,-422.5 291,-422.5"/>
<text text-anchor="middle" x="332" y="-429.5" font-family="Helvetica,sans-Serif" font-size="10.00">e57::DateTime</text>
</a>
</g>
</g>
<!-- Node2&#45;&gt;Node1 -->
<g id="edge1" class="edge">
<title>Node2&#45;&gt;Node1</title>
<path fill="none" stroke="#9a32cd" stroke-dasharray="5,2" d="M383.24,-422.28C436.55,-410.15 521.42,-385.51 583,-342 606.01,-325.74 624.86,-297.72 633.84,-282.89"/>
<polygon fill="#9a32cd" stroke="#9a32cd" points="382.35,-418.89 373.34,-424.47 383.86,-425.73 382.35,-418.89"/>
<text text-anchor="middle" x="511.5" y="-410" font-family="Helvetica,sans-Serif" font-size="10.00"> acquisitionDateTime</text>
</g>
<!-- Node3 -->
<g id="node3" class="node">
<title>Node3</title>
<g id="a_node3"><a xlink:title=" ">
<polygon fill="white" stroke="#bfbfbf" points="20.5,-386.5 20.5,-405.5 67.5,-405.5 67.5,-386.5 20.5,-386.5"/>
<text text-anchor="middle" x="44" y="-393.5" font-family="Helvetica,sans-Serif" font-size="10.00">int32_t</text>
</a>
</g>
</g>
<!-- Node3&#45;&gt;Node2 -->
<g id="edge2" class="edge">
<title>Node3&#45;&gt;Node2</title>
<path fill="none" stroke="#9a32cd" stroke-dasharray="5,2" d="M55.25,-414.3C65.63,-430.78 83.36,-453.9 106,-464 176.8,-495.6 271.47,-459.84 311.66,-441.5"/>
<polygon fill="#9a32cd" stroke="#9a32cd" points="58.13,-412.31 50,-405.52 52.12,-415.9 58.13,-412.31"/>
<text text-anchor="middle" x="165" y="-479" font-family="Helvetica,sans-Serif" font-size="10.00"> isAtomicClockReferenced</text>
</g>
<!-- Node4 -->
<g id="node4" class="node">
<title>Node4</title>
<g id="a_node4"><a xlink:href="structe57_1_1_visual_reference_representation.html" target="_top" xlink:title="Stores an image that is to be used only as a visual reference.">
<polygon fill="white" stroke="black" points="242,-184.5 242,-203.5 422,-203.5 422,-184.5 242,-184.5"/>
<text text-anchor="middle" x="332" y="-191.5" font-family="Helvetica,sans-Serif" font-size="10.00">e57::VisualReferenceRepresentation</text>
</a>
</g>
</g>
<!-- Node3&#45;&gt;Node4 -->
<g id="edge4" class="edge">
<title>Node3&#45;&gt;Node4</title>
<path fill="none" stroke="#9a32cd" stroke-dasharray="5,2" d="M47.85,-376.34C55.08,-329.51 75.75,-213.56 106,-191 130.23,-172.93 207.38,-177.8 264.62,-184.48"/>
<polygon fill="#9a32cd" stroke="#9a32cd" points="44.36,-376.02 46.34,-386.43 51.28,-377.06 44.36,-376.02"/>
<text text-anchor="middle" x="165" y="-205" font-family="Helvetica,sans-Serif" font-size="10.00"> imageHeight</text>
<text text-anchor="middle" x="165" y="-194" font-family="Helvetica,sans-Serif" font-size="10.00">imageWidth</text>
</g>
<!-- Node6 -->
<g id="node6" class="node">
<title>Node6</title>
<g id="a_node6"><a xlink:href="structe57_1_1_spherical_representation.html" target="_top" xlink:title="Stores an image that is mapped from 3D using a spherical projection model.">
<polygon fill="white" stroke="black" points="258,-282.5 258,-301.5 406,-301.5 406,-282.5 258,-282.5"/>
<text text-anchor="middle" x="332" y="-289.5" font-family="Helvetica,sans-Serif" font-size="10.00">e57::SphericalRepresentation</text>
</a>
</g>
</g>
<!-- Node3&#45;&gt;Node6 -->
<g id="edge7" class="edge">
<title>Node3&#45;&gt;Node6</title>
<path fill="none" stroke="#9a32cd" stroke-dasharray="5,2" d="M77.6,-393.86C126.13,-390.4 212.88,-383.04 224,-374 243.3,-358.3 224.3,-338.48 242,-321 251.02,-312.09 262.8,-305.92 274.83,-301.64"/>
<polygon fill="#9a32cd" stroke="#9a32cd" points="77.31,-390.37 67.58,-394.56 77.8,-397.36 77.31,-390.37"/>
<text text-anchor="middle" x="165" y="-405" font-family="Helvetica,sans-Serif" font-size="10.00"> imageHeight</text>
<text text-anchor="middle" x="165" y="-394" font-family="Helvetica,sans-Serif" font-size="10.00">imageWidth</text>
</g>
<!-- Node7 -->
<g id="node7" class="node">
<title>Node7</title>
<g id="a_node7"><a xlink:href="structe57_1_1_cylindrical_representation.html" target="_top" xlink:title="Stores an image that is mapped from 3D using a cylindrical projection model.">
<polygon fill="white" stroke="black" points="255.5,-244.5 255.5,-263.5 408.5,-263.5 408.5,-244.5 255.5,-244.5"/>
<text text-anchor="middle" x="332" y="-251.5" font-family="Helvetica,sans-Serif" font-size="10.00">e57::CylindricalRepresentation</text>
</a>
</g>
</g>
<!-- Node3&#45;&gt;Node7 -->
<g id="edge10" class="edge">
<title>Node3&#45;&gt;Node7</title>
<path fill="none" stroke="#9a32cd" stroke-dasharray="5,2" d="M51.25,-376.75C59.79,-353.7 77.39,-315.74 106,-296 109.55,-293.55 211.63,-275.13 277.06,-263.51"/>
<polygon fill="#9a32cd" stroke="#9a32cd" points="47.86,-375.85 47.87,-386.45 54.47,-378.16 47.86,-375.85"/>
<text text-anchor="middle" x="165" y="-310" font-family="Helvetica,sans-Serif" font-size="10.00"> imageHeight</text>
<text text-anchor="middle" x="165" y="-299" font-family="Helvetica,sans-Serif" font-size="10.00">imageWidth</text>
</g>
<!-- Node8 -->
<g id="node8" class="node">
<title>Node8</title>
<g id="a_node8"><a xlink:href="structe57_1_1_pinhole_representation.html" target="_top" xlink:title="Stores an image that is mapped from 3D using the pinhole camera projection model.">
<polygon fill="white" stroke="black" points="262,-330.5 262,-349.5 402,-349.5 402,-330.5 262,-330.5"/>
<text text-anchor="middle" x="332" y="-337.5" font-family="Helvetica,sans-Serif" font-size="10.00">e57::PinholeRepresentation</text>
</a>
</g>
</g>
<!-- Node3&#45;&gt;Node8 -->
<g id="edge13" class="edge">
<title>Node3&#45;&gt;Node8</title>
<path fill="none" stroke="#9a32cd" stroke-dasharray="5,2" d="M74.17,-409.44C84.06,-413.33 95.31,-417.05 106,-419 157.59,-428.4 174.18,-435.4 224,-419 266.11,-405.14 305.24,-367.63 322.18,-349.74"/>
<polygon fill="#9a32cd" stroke="#9a32cd" points="75.39,-406.15 64.81,-405.55 72.7,-412.62 75.39,-406.15"/>
<text text-anchor="middle" x="165" y="-442" font-family="Helvetica,sans-Serif" font-size="10.00"> imageHeight</text>
<text text-anchor="middle" x="165" y="-431" font-family="Helvetica,sans-Serif" font-size="10.00">imageWidth</text>
</g>
<!-- Node4&#45;&gt;Node1 -->
<g id="edge3" class="edge">
<title>Node4&#45;&gt;Node1</title>
<path fill="none" stroke="#9a32cd" stroke-dasharray="5,2" d="M432.22,-201.92C479.11,-207.94 535.16,-218.51 583,-237 599.71,-243.46 616.76,-255.17 627.7,-263.48"/>
<polygon fill="#9a32cd" stroke="#9a32cd" points="432.41,-198.42 422.06,-200.67 431.55,-205.36 432.41,-198.42"/>
<text text-anchor="middle" x="511.5" y="-240" font-family="Helvetica,sans-Serif" font-size="10.00"> visualReferenceRepresentation</text>
</g>
<!-- Node5 -->
<g id="node5" class="node">
<title>Node5</title>
<g id="a_node5"><a xlink:title=" ">
<polygon fill="white" stroke="#bfbfbf" points="20.5,-179.5 20.5,-198.5 67.5,-198.5 67.5,-179.5 20.5,-179.5"/>
<text text-anchor="middle" x="44" y="-186.5" font-family="Helvetica,sans-Serif" font-size="10.00">int64_t</text>
</a>
</g>
</g>
<!-- Node5&#45;&gt;Node4 -->
<g id="edge5" class="edge">
<title>Node5&#45;&gt;Node4</title>
<path fill="none" stroke="#9a32cd" stroke-dasharray="5,2" d="M49.78,-169.5C57.12,-144.35 73.82,-101.61 106,-83 151.4,-56.75 175.73,-62.49 224,-83 274.01,-104.25 311.99,-161.6 325.57,-184.43"/>
<polygon fill="#9a32cd" stroke="#9a32cd" points="46.35,-168.82 47.12,-179.38 53.1,-170.64 46.35,-168.82"/>
<text text-anchor="middle" x="165" y="-108" font-family="Helvetica,sans-Serif" font-size="10.00"> imageMaskSize</text>
<text text-anchor="middle" x="165" y="-97" font-family="Helvetica,sans-Serif" font-size="10.00">jpegImageSize</text>
<text text-anchor="middle" x="165" y="-86" font-family="Helvetica,sans-Serif" font-size="10.00">pngImageSize</text>
</g>
<!-- Node5&#45;&gt;Node6 -->
<g id="edge8" class="edge">
<title>Node5&#45;&gt;Node6</title>
<path fill="none" stroke="#9a32cd" stroke-dasharray="5,2" d="M71.97,-203.06C82.38,-208.03 94.54,-213.31 106,-217 156.86,-233.37 180.89,-208.44 224,-240 237.48,-249.87 228.61,-263.01 242,-273 247.07,-276.78 252.72,-279.84 258.66,-282.32"/>
<polygon fill="#9a32cd" stroke="#9a32cd" points="73.48,-199.9 62.96,-198.62 70.39,-206.18 73.48,-199.9"/>
<text text-anchor="middle" x="165" y="-265" font-family="Helvetica,sans-Serif" font-size="10.00"> imageMaskSize</text>
<text text-anchor="middle" x="165" y="-254" font-family="Helvetica,sans-Serif" font-size="10.00">jpegImageSize</text>
<text text-anchor="middle" x="165" y="-243" font-family="Helvetica,sans-Serif" font-size="10.00">pngImageSize</text>
</g>
<!-- Node5&#45;&gt;Node7 -->
<g id="edge11" class="edge">
<title>Node5&#45;&gt;Node7</title>
<path fill="none" stroke="#9a32cd" stroke-dasharray="5,2" d="M59.77,-171.82C71.07,-160.08 87.77,-145.52 106,-139 155.38,-121.35 182.77,-106.59 224,-139 250.61,-159.92 220.48,-186.87 242,-213 254.65,-228.37 274.33,-238.25 291.97,-244.45"/>
<polygon fill="#9a32cd" stroke="#9a32cd" points="57.04,-169.63 52.86,-179.36 62.2,-174.36 57.04,-169.63"/>
<text text-anchor="middle" x="165" y="-164" font-family="Helvetica,sans-Serif" font-size="10.00"> imageMaskSize</text>
<text text-anchor="middle" x="165" y="-153" font-family="Helvetica,sans-Serif" font-size="10.00">jpegImageSize</text>
<text text-anchor="middle" x="165" y="-142" font-family="Helvetica,sans-Serif" font-size="10.00">pngImageSize</text>
</g>
<!-- Node5&#45;&gt;Node8 -->
<g id="edge14" class="edge">
<title>Node5&#45;&gt;Node8</title>
<path fill="none" stroke="#9a32cd" stroke-dasharray="5,2" d="M48.12,-208.71C53.89,-237.93 69.17,-292.08 106,-318 118.6,-326.87 200.37,-333.13 261.73,-336.65"/>
<polygon fill="#9a32cd" stroke="#9a32cd" points="51.56,-208.06 46.35,-198.84 44.67,-209.3 51.56,-208.06"/>
<text text-anchor="middle" x="165" y="-358" font-family="Helvetica,sans-Serif" font-size="10.00"> imageMaskSize</text>
<text text-anchor="middle" x="165" y="-347" font-family="Helvetica,sans-Serif" font-size="10.00">jpegImageSize</text>
<text text-anchor="middle" x="165" y="-336" font-family="Helvetica,sans-Serif" font-size="10.00">pngImageSize</text>
</g>
<!-- Node6&#45;&gt;Node1 -->
<g id="edge6" class="edge">
<title>Node6&#45;&gt;Node1</title>
<path fill="none" stroke="#9a32cd" stroke-dasharray="5,2" d="M416.25,-286.84C476.28,-283.12 554.55,-278.27 600.68,-275.41"/>
<polygon fill="#9a32cd" stroke="#9a32cd" points="415.79,-283.36 406.02,-287.47 416.22,-290.35 415.79,-283.36"/>
<text text-anchor="middle" x="511.5" y="-288" font-family="Helvetica,sans-Serif" font-size="10.00"> sphericalRepresentation</text>
</g>
<!-- Node7&#45;&gt;Node1 -->
<g id="edge9" class="edge">
<title>Node7&#45;&gt;Node1</title>
<path fill="none" stroke="#9a32cd" stroke-dasharray="5,2" d="M418.86,-252.57C467.23,-252.73 528.66,-254.52 583,-261 588.78,-261.69 594.83,-262.68 600.75,-263.8"/>
<polygon fill="#9a32cd" stroke="#9a32cd" points="418.75,-249.07 408.75,-252.56 418.74,-256.07 418.75,-249.07"/>
<text text-anchor="middle" x="511.5" y="-264" font-family="Helvetica,sans-Serif" font-size="10.00"> cylindricalRepresentation</text>
</g>
<!-- Node8&#45;&gt;Node1 -->
<g id="edge12" class="edge">
<title>Node8&#45;&gt;Node1</title>
<path fill="none" stroke="#9a32cd" stroke-dasharray="5,2" d="M412.2,-333.2C462.04,-327.49 527.25,-317.38 583,-300 596.91,-295.66 611.74,-288.47 622.71,-282.6"/>
<polygon fill="#9a32cd" stroke="#9a32cd" points="411.68,-329.74 402.13,-334.32 412.45,-336.7 411.68,-329.74"/>
<text text-anchor="middle" x="511.5" y="-332" font-family="Helvetica,sans-Serif" font-size="10.00"> pinholeRepresentation</text>
</g>
<!-- Node9 -->
<g id="node9" class="node">
<title>Node9</title>
<g id="a_node9"><a xlink:href="structe57_1_1_rigid_body_transform.html" target="_top" xlink:title="Defines a rigid body transform in cartesian coordinates.">
<polygon fill="white" stroke="black" points="267,-38.5 267,-57.5 397,-57.5 397,-38.5 267,-38.5"/>
<text text-anchor="middle" x="332" y="-45.5" font-family="Helvetica,sans-Serif" font-size="10.00">e57::RigidBodyTransform</text>
</a>
</g>
</g>
<!-- Node9&#45;&gt;Node1 -->
<g id="edge15" class="edge">
<title>Node9&#45;&gt;Node1</title>
<path fill="none" stroke="#9a32cd" stroke-dasharray="5,2" d="M367.93,-61.3C419.5,-82.23 517.01,-126.86 583,-188 607.57,-210.76 626.65,-246.24 634.96,-263.26"/>
<polygon fill="#9a32cd" stroke="#9a32cd" points="369.13,-58.02 358.55,-57.55 366.54,-64.52 369.13,-58.02"/>
<text text-anchor="middle" x="511.5" y="-191" font-family="Helvetica,sans-Serif" font-size="10.00"> pose</text>
</g>
<!-- Node10 -->
<g id="node10" class="node">
<title>Node10</title>
<g id="a_node10"><a xlink:href="structe57_1_1_quaternion.html" target="_top" xlink:title="Represents a rigid body rotation.">
<polygon fill="white" stroke="black" points="0,-0.5 0,-19.5 88,-19.5 88,-0.5 0,-0.5"/>
<text text-anchor="middle" x="44" y="-7.5" font-family="Helvetica,sans-Serif" font-size="10.00">e57::Quaternion</text>
</a>
</g>
</g>
<!-- Node10&#45;&gt;Node9 -->
<g id="edge16" class="edge">
<title>Node10&#45;&gt;Node9</title>
<path fill="none" stroke="#9a32cd" stroke-dasharray="5,2" d="M98.23,-16.68C133.84,-21.18 181.75,-27.32 224,-33 237.85,-34.86 252.7,-36.91 266.8,-38.88"/>
<polygon fill="#9a32cd" stroke="#9a32cd" points="98.42,-13.17 88.06,-15.39 97.54,-20.12 98.42,-13.17"/>
<text text-anchor="middle" x="165" y="-36" font-family="Helvetica,sans-Serif" font-size="10.00"> rotation</text>
</g>
<!-- Node11 -->
<g id="node11" class="node">
<title>Node11</title>
<g id="a_node11"><a xlink:href="structe57_1_1_translation.html" target="_top" xlink:title="Defines a rigid body translation in Cartesian coordinates.">
<polygon fill="white" stroke="black" points="0,-38.5 0,-57.5 88,-57.5 88,-38.5 0,-38.5"/>
<text text-anchor="middle" x="44" y="-45.5" font-family="Helvetica,sans-Serif" font-size="10.00">e57::Translation</text>
</a>
</g>
</g>
<!-- Node11&#45;&gt;Node9 -->
<g id="edge17" class="edge">
<title>Node11&#45;&gt;Node9</title>
<path fill="none" stroke="#9a32cd" stroke-dasharray="5,2" d="M98.25,-48C145.95,-48 216.02,-48 266.8,-48"/>
<polygon fill="#9a32cd" stroke="#9a32cd" points="98.13,-44.5 88.13,-48 98.13,-51.5 98.13,-44.5"/>
<text text-anchor="middle" x="165" y="-51" font-family="Helvetica,sans-Serif" font-size="10.00"> translation</text>
</g>
</g>
</svg>
        <g id="navigator" transform="translate(0 0)" fill="#404254">
                <rect fill="#f2f5e9" fill-opacity="0.5" stroke="#606060" stroke-width=".5" x="0" y="0" width="60" height="60"/>
                <use id="zoomplus" xlink:href="#zoomPlus" x="17" y="9" onmousedown="handleZoom(evt,'in')"/>
                <use id="zoomminus" xlink:href="#zoomMin" x="42" y="9" onmousedown="handleZoom(evt,'out')"/>
                <use id="reset" xlink:href="#resetDef" x="30" y="36" onmousedown="handleReset()"/>
                <g id="arrowUp" xlink:href="#dirArrow" transform="translate(30 24)" onmousedown="handlePan(0,-1)">
                  <use xlink:href="#rim" fill="#404040">
                        <set attributeName="fill" to="#808080" begin="arrowUp.mouseover" end="arrowUp.mouseout"/>
                  </use>
                  <path fill="none" stroke="white" stroke-width="1.5" d="M0,-3.0v7 M-2.5,-0.5L0,-3.0L2.5,-0.5"/>
                </g>
                <g id="arrowRight" xlink:href="#dirArrow" transform="rotate(90) translate(36 -43)" onmousedown="handlePan(1,0)">
                  <use xlink:href="#rim" fill="#404040">
                        <set attributeName="fill" to="#808080" begin="arrowRight.mouseover" end="arrowRight.mouseout"/>
                  </use>
                  <path fill="none" stroke="white" stroke-width="1.5" d="M0,-3.0v7 M-2.5,-0.5L0,-3.0L2.5,-0.5"/>
                </g>
                <g id="arrowDown" xlink:href="#dirArrow" transform="rotate(180) translate(-30 -48)" onmousedown="handlePan(0,1)">
                  <use xlink:href="#rim" fill="#404040">
                        <set attributeName="fill" to="#808080" begin="arrowDown.mouseover" end="arrowDown.mouseout"/>
                  </use>
                  <path fill="none" stroke="white" stroke-width="1.5" d="M0,-3.0v7 M-2.5,-0.5L0,-3.0L2.5,-0.5"/>
                </g>
                <g id="arrowLeft" xlink:href="#dirArrow" transform="rotate(270) translate(-36 17)" onmousedown="handlePan(-1,0)">
                  <use xlink:href="#rim" fill="#404040">
                        <set attributeName="fill" to="#808080" begin="arrowLeft.mouseover" end="arrowLeft.mouseout"/>
                  </use>
                  <path fill="none" stroke="white" stroke-width="1.5" d="M0,-3.0v7 M-2.5,-0.5L0,-3.0L2.5,-0.5"/>
                </g>
        </g>
        <svg viewBox="0 0 15 15" width="100%" height="30px" preserveAspectRatio="xMaxYMin meet">
         <g id="arrow_out" transform="scale(0.3 0.3)">
          <a xlink:href="structe57_1_1_image2_d__coll__graph_org.svg" target="_base">
           <rect id="button" ry="5" rx="5" y="6" x="6" height="38" width="38"
                fill="#f2f5e9" fill-opacity="0.5" stroke="#606060" stroke-width="1.0"/>
           <path id="arrow"
             d="M 11.500037,31.436501 C 11.940474,20.09759 22.043105,11.32322 32.158766,21.979434 L 37.068811,17.246167 C 37.068811,17.246167 37.088388,32 37.088388,32 L 22.160133,31.978069 C 22.160133,31.978069 26.997745,27.140456 26.997745,27.140456 C 18.528582,18.264221 13.291696,25.230495 11.500037,31.436501 z"
             style="fill:#404040;"/>
          </a>
         </g>
        </svg>
</svg>
