<?xml version="1.0" encoding="UTF-8" standalone="no"?>
<!DOCTYPE svg PUBLIC "-//W3C//DTD SVG 1.1//EN"
 "http://www.w3.org/Graphics/SVG/1.1/DTD/svg11.dtd">
<!-- Generated by graphviz version 2.48.0 (20210717.1556)
 -->
<!-- Title: e57::Data3D Pages: 1 -->
<!--zoomable 452 -->
<svg id="main" version="1.1" xmlns="http://www.w3.org/2000/svg" xmlns:xlink="http://www.w3.org/1999/xlink" xml:space="preserve" onload="init(evt)">
<style type="text/css"><![CDATA[
.edge:hover path { stroke: red; }
.edge:hover polygon { stroke: red; fill: red; }
]]></style>
<script type="text/javascript"><![CDATA[
var edges = document.getElementsByTagName('g');
if (edges && edges.length) {
  for (var i=0;i<edges.length;i++) {
    if (edges[i].id.substr(0,4)=='edge') {
      edges[i].setAttribute('class','edge');
    }
  }
}
]]></script>
        <defs>
                <circle id="rim" cx="0" cy="0" r="7"/>
                <circle id="rim2" cx="0" cy="0" r="3.5"/>
                <g id="zoomPlus">
                        <use xlink:href="#rim" fill="#404040">
                                <set attributeName="fill" to="#808080" begin="zoomplus.mouseover" end="zoomplus.mouseout"/>
                        </use>
                        <path d="M-4,0h8M0,-4v8" fill="none" stroke="white" stroke-width="1.5" pointer-events="none"/>
                </g>
                <g id="zoomMin">
                        <use xlink:href="#rim" fill="#404040">
                                <set attributeName="fill" to="#808080" begin="zoomminus.mouseover" end="zoomminus.mouseout"/>
                        </use>
                        <path d="M-4,0h8" fill="none" stroke="white" stroke-width="1.5" pointer-events="none"/>
                </g>
                <g id="dirArrow">
                        <path fill="none" stroke="white" stroke-width="1.5" d="M0,-3.0v7 M-2.5,-0.5L0,-3.0L2.5,-0.5"/>
                </g>
               <g id="resetDef">
                       <use xlink:href="#rim2" fill="#404040">
                               <set attributeName="fill" to="#808080" begin="reset.mouseover" end="reset.mouseout"/>
                       </use>
               </g>
        </defs>

<script type="text/javascript">
var viewWidth = 798;
var viewHeight = 452;
var sectionId = 'dynsection-0';
</script>
<script xlink:href="svgpan.js"/>
<svg id="graph" class="graph">
<g id="viewport">
<title>e57::Data3D</title>
<polygon fill="white" stroke="transparent" points="-4,4 -4,-448 794,-448 794,4 -4,4"/>
<!-- Node1 -->
<g id="node1" class="node">
<title>Node1</title>
<g id="a_node1"><a xlink:title="Stores the top&#45;level information for a single lidar scan.">
<polygon fill="#bfbfbf" stroke="black" points="717,-221.5 717,-240.5 790,-240.5 790,-221.5 717,-221.5"/>
<text text-anchor="middle" x="753.5" y="-228.5" font-family="Helvetica,sans-Serif" font-size="10.00">e57::Data3D</text>
</a>
</g>
</g>
<!-- Node2 -->
<g id="node2" class="node">
<title>Node2</title>
<g id="a_node2"><a xlink:href="structe57_1_1_date_time.html" target="_top" xlink:title="Encodes date and time.">
<polygon fill="white" stroke="black" points="458.5,-404.5 458.5,-423.5 540.5,-423.5 540.5,-404.5 458.5,-404.5"/>
<text text-anchor="middle" x="499.5" y="-411.5" font-family="Helvetica,sans-Serif" font-size="10.00">e57::DateTime</text>
</a>
</g>
</g>
<!-- Node2&#45;&gt;Node1 -->
<g id="edge1" class="edge">
<title>Node2&#45;&gt;Node1</title>
<path fill="none" stroke="#9a32cd" stroke-dasharray="5,2" d="M550.85,-421.74C594.78,-425.56 657.75,-423.58 699,-390 746.43,-351.39 752.05,-269.13 752.53,-240.82"/>
<polygon fill="#9a32cd" stroke="#9a32cd" points="550.98,-418.23 540.68,-420.72 550.28,-425.2 550.98,-418.23"/>
<text text-anchor="middle" x="645" y="-436" font-family="Helvetica,sans-Serif" font-size="10.00"> acquisitionEnd</text>
<text text-anchor="middle" x="645" y="-425" font-family="Helvetica,sans-Serif" font-size="10.00">acquisitionStart</text>
</g>
<!-- Node3 -->
<g id="node3" class="node">
<title>Node3</title>
<g id="a_node3"><a xlink:title=" ">
<polygon fill="white" stroke="#bfbfbf" points="193.5,-404.5 193.5,-423.5 240.5,-423.5 240.5,-404.5 193.5,-404.5"/>
<text text-anchor="middle" x="217" y="-411.5" font-family="Helvetica,sans-Serif" font-size="10.00">int32_t</text>
</a>
</g>
</g>
<!-- Node3&#45;&gt;Node2 -->
<g id="edge2" class="edge">
<title>Node3&#45;&gt;Node2</title>
<path fill="none" stroke="#9a32cd" stroke-dasharray="5,2" d="M251.24,-414C302.98,-414 402.62,-414 458.32,-414"/>
<polygon fill="#9a32cd" stroke="#9a32cd" points="250.95,-410.5 240.95,-414 250.95,-417.5 250.95,-410.5"/>
<text text-anchor="middle" x="349" y="-417" font-family="Helvetica,sans-Serif" font-size="10.00"> isAtomicClockReferenced</text>
</g>
<!-- Node4 -->
<g id="node4" class="node">
<title>Node4</title>
<g id="a_node4"><a xlink:href="structe57_1_1_spherical_bounds.html" target="_top" xlink:title="Stores the bounds of some data in spherical coordinates.">
<polygon fill="white" stroke="black" points="442.5,-366.5 442.5,-385.5 556.5,-385.5 556.5,-366.5 442.5,-366.5"/>
<text text-anchor="middle" x="499.5" y="-373.5" font-family="Helvetica,sans-Serif" font-size="10.00">e57::SphericalBounds</text>
</a>
</g>
</g>
<!-- Node4&#45;&gt;Node1 -->
<g id="edge3" class="edge">
<title>Node4&#45;&gt;Node1</title>
<path fill="none" stroke="#9a32cd" stroke-dasharray="5,2" d="M566.88,-378.98C608.61,-377.56 661.45,-369.33 699,-341 732.91,-315.42 746.49,-262.67 750.81,-240.82"/>
<polygon fill="#9a32cd" stroke="#9a32cd" points="566.72,-375.49 556.8,-379.21 566.88,-382.49 566.72,-375.49"/>
<text text-anchor="middle" x="645" y="-380" font-family="Helvetica,sans-Serif" font-size="10.00"> sphericalBounds</text>
</g>
<!-- Node5 -->
<g id="node5" class="node">
<title>Node5</title>
<g id="a_node5"><a xlink:href="structe57_1_1_point_standardized_fields_available.html" target="_top" xlink:title="Used to interrogate if standardized fields are available.">
<polygon fill="white" stroke="black" points="426,-317 426,-347 573,-347 573,-317 426,-317"/>
<text text-anchor="start" x="434" y="-335" font-family="Helvetica,sans-Serif" font-size="10.00">e57::PointStandardizedFields</text>
<text text-anchor="middle" x="499.5" y="-324" font-family="Helvetica,sans-Serif" font-size="10.00">Available</text>
</a>
</g>
</g>
<!-- Node5&#45;&gt;Node1 -->
<g id="edge4" class="edge">
<title>Node5&#45;&gt;Node1</title>
<path fill="none" stroke="#9a32cd" stroke-dasharray="5,2" d="M583.37,-328.58C620.76,-324.01 664.23,-314.28 699,-294 721.31,-280.99 738.7,-255.13 747.05,-240.92"/>
<polygon fill="#9a32cd" stroke="#9a32cd" points="582.55,-325.15 573,-329.74 583.33,-332.11 582.55,-325.15"/>
<text text-anchor="middle" x="645" y="-329" font-family="Helvetica,sans-Serif" font-size="10.00"> pointFields</text>
</g>
<!-- Node6 -->
<g id="node6" class="node">
<title>Node6</title>
<g id="a_node6"><a xlink:title=" ">
<polygon fill="white" stroke="#bfbfbf" points="191,-340.5 191,-359.5 243,-359.5 243,-340.5 191,-340.5"/>
<text text-anchor="middle" x="217" y="-347.5" font-family="Helvetica,sans-Serif" font-size="10.00">uint32_t</text>
</a>
</g>
</g>
<!-- Node6&#45;&gt;Node5 -->
<g id="edge5" class="edge">
<title>Node6&#45;&gt;Node5</title>
<path fill="none" stroke="#9a32cd" stroke-dasharray="5,2" d="M253.39,-347.73C296.49,-344.96 370.39,-340.22 425.81,-336.66"/>
<polygon fill="#9a32cd" stroke="#9a32cd" points="253.14,-344.24 243.39,-348.37 253.59,-351.22 253.14,-344.24"/>
<text text-anchor="middle" x="349" y="-359" font-family="Helvetica,sans-Serif" font-size="10.00"> columnIndexMaximum</text>
<text text-anchor="middle" x="349" y="-348" font-family="Helvetica,sans-Serif" font-size="10.00">rowIndexMaximum</text>
</g>
<!-- Node7 -->
<g id="node7" class="node">
<title>Node7</title>
<g id="a_node7"><a xlink:title=" ">
<polygon fill="white" stroke="#bfbfbf" points="193.5,-302.5 193.5,-321.5 240.5,-321.5 240.5,-302.5 193.5,-302.5"/>
<text text-anchor="middle" x="217" y="-309.5" font-family="Helvetica,sans-Serif" font-size="10.00">uint8_t</text>
</a>
</g>
</g>
<!-- Node7&#45;&gt;Node5 -->
<g id="edge6" class="edge">
<title>Node7&#45;&gt;Node5</title>
<path fill="none" stroke="#9a32cd" stroke-dasharray="5,2" d="M250.98,-313.16C288.91,-314.63 353.01,-317.52 408,-322 413.83,-322.48 419.86,-323.02 425.92,-323.61"/>
<polygon fill="#9a32cd" stroke="#9a32cd" points="250.67,-309.65 240.55,-312.77 250.41,-316.64 250.67,-309.65"/>
<text text-anchor="middle" x="349" y="-325" font-family="Helvetica,sans-Serif" font-size="10.00"> returnMaximum</text>
</g>
<!-- Node8 -->
<g id="node8" class="node">
<title>Node8</title>
<g id="a_node8"><a xlink:href="structe57_1_1_color_limits.html" target="_top" xlink:title="Specifies the limits for the value of red, green, and blue color that a sensor is capable of producin...">
<polygon fill="white" stroke="black" points="455,-278.5 455,-297.5 544,-297.5 544,-278.5 455,-278.5"/>
<text text-anchor="middle" x="499.5" y="-285.5" font-family="Helvetica,sans-Serif" font-size="10.00">e57::ColorLimits</text>
</a>
</g>
</g>
<!-- Node8&#45;&gt;Node1 -->
<g id="edge7" class="edge">
<title>Node8&#45;&gt;Node1</title>
<path fill="none" stroke="#9a32cd" stroke-dasharray="5,2" d="M554.52,-283.93C595.01,-279.84 651.39,-271.92 699,-257 712.01,-252.92 725.83,-246.14 736.16,-240.52"/>
<polygon fill="#9a32cd" stroke="#9a32cd" points="553.95,-280.47 544.33,-284.92 554.62,-287.44 553.95,-280.47"/>
<text text-anchor="middle" x="645" y="-282" font-family="Helvetica,sans-Serif" font-size="10.00"> colorLimits</text>
</g>
<!-- Node9 -->
<g id="node9" class="node">
<title>Node9</title>
<g id="a_node9"><a xlink:href="structe57_1_1_cartesian_bounds.html" target="_top" xlink:title="Specifies an axis&#45;aligned box in local cartesian coordinates.">
<polygon fill="white" stroke="black" points="442,-240.5 442,-259.5 557,-259.5 557,-240.5 442,-240.5"/>
<text text-anchor="middle" x="499.5" y="-247.5" font-family="Helvetica,sans-Serif" font-size="10.00">e57::CartesianBounds</text>
</a>
</g>
</g>
<!-- Node9&#45;&gt;Node1 -->
<g id="edge8" class="edge">
<title>Node9&#45;&gt;Node1</title>
<path fill="none" stroke="#9a32cd" stroke-dasharray="5,2" d="M567.05,-244.98C615.03,-241.37 677.92,-236.62 716.75,-233.7"/>
<polygon fill="#9a32cd" stroke="#9a32cd" points="566.76,-241.49 557.05,-245.74 567.29,-248.47 566.76,-241.49"/>
<text text-anchor="middle" x="645" y="-245" font-family="Helvetica,sans-Serif" font-size="10.00"> cartesianBounds</text>
</g>
<!-- Node10 -->
<g id="node10" class="node">
<title>Node10</title>
<g id="a_node10"><a xlink:href="structe57_1_1_point_grouping_schemes.html" target="_top" xlink:title="Supports the division of points within an Data3D into logical groupings.">
<polygon fill="white" stroke="black" points="427.5,-164.5 427.5,-183.5 571.5,-183.5 571.5,-164.5 427.5,-164.5"/>
<text text-anchor="middle" x="499.5" y="-171.5" font-family="Helvetica,sans-Serif" font-size="10.00">e57::PointGroupingSchemes</text>
</a>
</g>
</g>
<!-- Node10&#45;&gt;Node1 -->
<g id="edge9" class="edge">
<title>Node10&#45;&gt;Node1</title>
<path fill="none" stroke="#9a32cd" stroke-dasharray="5,2" d="M581.93,-168.19C618.83,-168.33 662.31,-172.48 699,-187 717.56,-194.35 734.55,-210.67 744.19,-221.23"/>
<polygon fill="#9a32cd" stroke="#9a32cd" points="581.68,-164.69 571.71,-168.25 581.73,-171.69 581.68,-164.69"/>
<text text-anchor="middle" x="645" y="-190" font-family="Helvetica,sans-Serif" font-size="10.00"> pointGroupingSchemes</text>
</g>
<!-- Node11 -->
<g id="node11" class="node">
<title>Node11</title>
<g id="a_node11"><a xlink:href="structe57_1_1_grouping_by_line.html" target="_top" xlink:title="Stores a set of point groups organized by the rowIndex or columnIndex attribute of the PointRecord.">
<polygon fill="white" stroke="black" points="162,-164.5 162,-183.5 272,-183.5 272,-164.5 162,-164.5"/>
<text text-anchor="middle" x="217" y="-171.5" font-family="Helvetica,sans-Serif" font-size="10.00">e57::GroupingByLine</text>
</a>
</g>
</g>
<!-- Node11&#45;&gt;Node10 -->
<g id="edge10" class="edge">
<title>Node11&#45;&gt;Node10</title>
<path fill="none" stroke="#9a32cd" stroke-dasharray="5,2" d="M282.21,-174C325.5,-174 382.64,-174 427.32,-174"/>
<polygon fill="#9a32cd" stroke="#9a32cd" points="282.08,-170.5 272.08,-174 282.08,-177.5 282.08,-170.5"/>
<text text-anchor="middle" x="349" y="-177" font-family="Helvetica,sans-Serif" font-size="10.00"> groupingByLine</text>
</g>
<!-- Node12 -->
<g id="node12" class="node">
<title>Node12</title>
<g id="a_node12"><a xlink:title=" ">
<polygon fill="white" stroke="#bfbfbf" points="0,-165.5 0,-184.5 47,-184.5 47,-165.5 0,-165.5"/>
<text text-anchor="middle" x="23.5" y="-172.5" font-family="Helvetica,sans-Serif" font-size="10.00">int64_t</text>
</a>
</g>
</g>
<!-- Node12&#45;&gt;Node1 -->
<g id="edge18" class="edge">
<title>Node12&#45;&gt;Node1</title>
<path fill="none" stroke="#9a32cd" stroke-dasharray="5,2" d="M46.22,-189.79C52.08,-193.08 58.58,-196.14 65,-198 127.69,-216.18 584.2,-227.37 716.6,-230.25"/>
<polygon fill="#9a32cd" stroke="#9a32cd" points="48.02,-186.78 37.65,-184.57 44.38,-192.76 48.02,-186.78"/>
<text text-anchor="middle" x="349" y="-224" font-family="Helvetica,sans-Serif" font-size="10.00"> pointsSize</text>
</g>
<!-- Node12&#45;&gt;Node11 -->
<g id="edge11" class="edge">
<title>Node12&#45;&gt;Node11</title>
<path fill="none" stroke="#9a32cd" stroke-dasharray="5,2" d="M57.49,-174.83C86.13,-174.68 128.16,-174.46 161.74,-174.28"/>
<polygon fill="#9a32cd" stroke="#9a32cd" points="57.2,-171.33 47.22,-174.88 57.24,-178.33 57.2,-171.33"/>
<text text-anchor="middle" x="104.5" y="-188" font-family="Helvetica,sans-Serif" font-size="10.00"> groupsSize</text>
<text text-anchor="middle" x="104.5" y="-177" font-family="Helvetica,sans-Serif" font-size="10.00">pointCountSize</text>
</g>
<!-- Node13 -->
<g id="node13" class="node">
<title>Node13</title>
<g id="a_node13"><a xlink:href="structe57_1_1_index_bounds.html" target="_top" xlink:title="Stores the minimum and maximum of rowIndex, columnIndex, and returnIndex fields for a set of points.">
<polygon fill="white" stroke="black" points="300.5,-100.5 300.5,-119.5 397.5,-119.5 397.5,-100.5 300.5,-100.5"/>
<text text-anchor="middle" x="349" y="-107.5" font-family="Helvetica,sans-Serif" font-size="10.00">e57::IndexBounds</text>
</a>
</g>
</g>
<!-- Node12&#45;&gt;Node13 -->
<g id="edge13" class="edge">
<title>Node12&#45;&gt;Node13</title>
<path fill="none" stroke="#9a32cd" stroke-dasharray="5,2" d="M29.64,-155.47C35.25,-138.51 46.08,-114.99 65,-104 147.02,-56.36 266.22,-83.96 319.92,-100.43"/>
<polygon fill="#9a32cd" stroke="#9a32cd" points="26.16,-154.89 26.67,-165.47 32.87,-156.88 26.16,-154.89"/>
<text text-anchor="middle" x="104.5" y="-162" font-family="Helvetica,sans-Serif" font-size="10.00"> columnMaximum</text>
<text text-anchor="middle" x="104.5" y="-151" font-family="Helvetica,sans-Serif" font-size="10.00">columnMinimum</text>
<text text-anchor="middle" x="104.5" y="-140" font-family="Helvetica,sans-Serif" font-size="10.00">returnMaximum</text>
<text text-anchor="middle" x="104.5" y="-129" font-family="Helvetica,sans-Serif" font-size="10.00">returnMinimum</text>
<text text-anchor="middle" x="104.5" y="-118" font-family="Helvetica,sans-Serif" font-size="10.00">rowMaximum</text>
<text text-anchor="middle" x="104.5" y="-107" font-family="Helvetica,sans-Serif" font-size="10.00">rowMinimum</text>
</g>
<!-- Node13&#45;&gt;Node1 -->
<g id="edge12" class="edge">
<title>Node13&#45;&gt;Node1</title>
<path fill="none" stroke="#9a32cd" stroke-dasharray="5,2" d="M407.72,-113.83C493.74,-120.38 650.63,-135.84 699,-164 722.67,-177.78 739.95,-206.36 747.8,-221.35"/>
<polygon fill="#9a32cd" stroke="#9a32cd" points="407.83,-110.33 397.59,-113.07 407.3,-117.31 407.83,-110.33"/>
<text text-anchor="middle" x="499.5" y="-133" font-family="Helvetica,sans-Serif" font-size="10.00"> indexBounds</text>
</g>
<!-- Node14 -->
<g id="node14" class="node">
<title>Node14</title>
<g id="a_node14"><a xlink:href="structe57_1_1_intensity_limits.html" target="_top" xlink:title="Specifies the limits for the value of signal intensity that a sensor is capable of producing.">
<polygon fill="white" stroke="black" points="448.5,-79.5 448.5,-98.5 550.5,-98.5 550.5,-79.5 448.5,-79.5"/>
<text text-anchor="middle" x="499.5" y="-86.5" font-family="Helvetica,sans-Serif" font-size="10.00">e57::IntensityLimits</text>
</a>
</g>
</g>
<!-- Node14&#45;&gt;Node1 -->
<g id="edge14" class="edge">
<title>Node14&#45;&gt;Node1</title>
<path fill="none" stroke="#9a32cd" stroke-dasharray="5,2" d="M560.88,-80.47C603.4,-77.77 659.55,-81.24 699,-110 736.86,-137.6 748.35,-198.05 751.46,-221.47"/>
<polygon fill="#9a32cd" stroke="#9a32cd" points="560.37,-77 550.66,-81.26 560.9,-83.98 560.37,-77"/>
<text text-anchor="middle" x="645" y="-113" font-family="Helvetica,sans-Serif" font-size="10.00"> intensityLimits</text>
</g>
<!-- Node15 -->
<g id="node15" class="node">
<title>Node15</title>
<g id="a_node15"><a xlink:href="structe57_1_1_rigid_body_transform.html" target="_top" xlink:title="Defines a rigid body transform in cartesian coordinates.">
<polygon fill="white" stroke="black" points="434.5,-38.5 434.5,-57.5 564.5,-57.5 564.5,-38.5 434.5,-38.5"/>
<text text-anchor="middle" x="499.5" y="-45.5" font-family="Helvetica,sans-Serif" font-size="10.00">e57::RigidBodyTransform</text>
</a>
</g>
</g>
<!-- Node15&#45;&gt;Node1 -->
<g id="edge15" class="edge">
<title>Node15&#45;&gt;Node1</title>
<path fill="none" stroke="#9a32cd" stroke-dasharray="5,2" d="M555.57,-37.13C599.11,-31.82 659,-32.27 699,-64 749.57,-104.11 753.07,-192.31 752.78,-221.45"/>
<polygon fill="#9a32cd" stroke="#9a32cd" points="554.88,-33.69 545.44,-38.5 555.81,-40.62 554.88,-33.69"/>
<text text-anchor="middle" x="645" y="-67" font-family="Helvetica,sans-Serif" font-size="10.00"> pose</text>
</g>
<!-- Node16 -->
<g id="node16" class="node">
<title>Node16</title>
<g id="a_node16"><a xlink:href="structe57_1_1_quaternion.html" target="_top" xlink:title="Represents a rigid body rotation.">
<polygon fill="white" stroke="black" points="173,-38.5 173,-57.5 261,-57.5 261,-38.5 173,-38.5"/>
<text text-anchor="middle" x="217" y="-45.5" font-family="Helvetica,sans-Serif" font-size="10.00">e57::Quaternion</text>
</a>
</g>
</g>
<!-- Node16&#45;&gt;Node15 -->
<g id="edge16" class="edge">
<title>Node16&#45;&gt;Node15</title>
<path fill="none" stroke="#9a32cd" stroke-dasharray="5,2" d="M271.36,-48C317.76,-48 385.08,-48 434.39,-48"/>
<polygon fill="#9a32cd" stroke="#9a32cd" points="271.21,-44.5 261.21,-48 271.21,-51.5 271.21,-44.5"/>
<text text-anchor="middle" x="349" y="-51" font-family="Helvetica,sans-Serif" font-size="10.00"> rotation</text>
</g>
<!-- Node17 -->
<g id="node17" class="node">
<title>Node17</title>
<g id="a_node17"><a xlink:href="structe57_1_1_translation.html" target="_top" xlink:title="Defines a rigid body translation in Cartesian coordinates.">
<polygon fill="white" stroke="black" points="173,-0.5 173,-19.5 261,-19.5 261,-0.5 173,-0.5"/>
<text text-anchor="middle" x="217" y="-7.5" font-family="Helvetica,sans-Serif" font-size="10.00">e57::Translation</text>
</a>
</g>
</g>
<!-- Node17&#45;&gt;Node15 -->
<g id="edge17" class="edge">
<title>Node17&#45;&gt;Node15</title>
<path fill="none" stroke="#9a32cd" stroke-dasharray="5,2" d="M271.44,-15.84C309.56,-20.15 362,-26.41 408,-33 419.51,-34.65 431.81,-36.58 443.52,-38.49"/>
<polygon fill="#9a32cd" stroke="#9a32cd" points="271.41,-12.31 261.08,-14.67 270.63,-19.27 271.41,-12.31"/>
<text text-anchor="middle" x="349" y="-36" font-family="Helvetica,sans-Serif" font-size="10.00"> translation</text>
</g>
</g>
</svg>
        <g id="navigator" transform="translate(0 0)" fill="#404254">
                <rect fill="#f2f5e9" fill-opacity="0.5" stroke="#606060" stroke-width=".5" x="0" y="0" width="60" height="60"/>
                <use id="zoomplus" xlink:href="#zoomPlus" x="17" y="9" onmousedown="handleZoom(evt,'in')"/>
                <use id="zoomminus" xlink:href="#zoomMin" x="42" y="9" onmousedown="handleZoom(evt,'out')"/>
                <use id="reset" xlink:href="#resetDef" x="30" y="36" onmousedown="handleReset()"/>
                <g id="arrowUp" xlink:href="#dirArrow" transform="translate(30 24)" onmousedown="handlePan(0,-1)">
                  <use xlink:href="#rim" fill="#404040">
                        <set attributeName="fill" to="#808080" begin="arrowUp.mouseover" end="arrowUp.mouseout"/>
                  </use>
                  <path fill="none" stroke="white" stroke-width="1.5" d="M0,-3.0v7 M-2.5,-0.5L0,-3.0L2.5,-0.5"/>
                </g>
                <g id="arrowRight" xlink:href="#dirArrow" transform="rotate(90) translate(36 -43)" onmousedown="handlePan(1,0)">
                  <use xlink:href="#rim" fill="#404040">
                        <set attributeName="fill" to="#808080" begin="arrowRight.mouseover" end="arrowRight.mouseout"/>
                  </use>
                  <path fill="none" stroke="white" stroke-width="1.5" d="M0,-3.0v7 M-2.5,-0.5L0,-3.0L2.5,-0.5"/>
                </g>
                <g id="arrowDown" xlink:href="#dirArrow" transform="rotate(180) translate(-30 -48)" onmousedown="handlePan(0,1)">
                  <use xlink:href="#rim" fill="#404040">
                        <set attributeName="fill" to="#808080" begin="arrowDown.mouseover" end="arrowDown.mouseout"/>
                  </use>
                  <path fill="none" stroke="white" stroke-width="1.5" d="M0,-3.0v7 M-2.5,-0.5L0,-3.0L2.5,-0.5"/>
                </g>
                <g id="arrowLeft" xlink:href="#dirArrow" transform="rotate(270) translate(-36 17)" onmousedown="handlePan(-1,0)">
                  <use xlink:href="#rim" fill="#404040">
                        <set attributeName="fill" to="#808080" begin="arrowLeft.mouseover" end="arrowLeft.mouseout"/>
                  </use>
                  <path fill="none" stroke="white" stroke-width="1.5" d="M0,-3.0v7 M-2.5,-0.5L0,-3.0L2.5,-0.5"/>
                </g>
        </g>
        <svg viewBox="0 0 15 15" width="100%" height="30px" preserveAspectRatio="xMaxYMin meet">
         <g id="arrow_out" transform="scale(0.3 0.3)">
          <a xlink:href="structe57_1_1_data3_d__coll__graph_org.svg" target="_base">
           <rect id="button" ry="5" rx="5" y="6" x="6" height="38" width="38"
                fill="#f2f5e9" fill-opacity="0.5" stroke="#606060" stroke-width="1.0"/>
           <path id="arrow"
             d="M 11.500037,31.436501 C 11.940474,20.09759 22.043105,11.32322 32.158766,21.979434 L 37.068811,17.246167 C 37.068811,17.246167 37.088388,32 37.088388,32 L 22.160133,31.978069 C 22.160133,31.978069 26.997745,27.140456 26.997745,27.140456 C 18.528582,18.264221 13.291696,25.230495 11.500037,31.436501 z"
             style="fill:#404040;"/>
          </a>
         </g>
        </svg>
</svg>
