<?xml version="1.0" encoding="UTF-8" standalone="no"?>
<!DOCTYPE svg PUBLIC "-//W3C//DTD SVG 1.1//EN"
 "http://www.w3.org/Graphics/SVG/1.1/DTD/svg11.dtd">
<!-- Generated by graphviz version 2.44.0 (20200408.0750)
 -->
<!-- Title: e57::Image2D Pages: 1 -->
<svg width="678pt" height="495pt"
 viewBox="0.00 0.00 678.00 495.00" xmlns="http://www.w3.org/2000/svg" xmlns:xlink="http://www.w3.org/1999/xlink">
<g id="graph0" class="graph" transform="scale(1 1) rotate(0) translate(4 491)">
<title>e57::Image2D</title>
<polygon fill="white" stroke="transparent" points="-4,4 -4,-491 674,-491 674,4 -4,4"/>
<!-- Node1 -->
<g id="node1" class="node">
<title>Node1</title>
<g id="a_node1"><a xlink:title="Stores an image from a camera.">
<polygon fill="#bfbfbf" stroke="black" points="592,-263.5 592,-282.5 670,-282.5 670,-263.5 592,-263.5"/>
<text text-anchor="middle" x="631" y="-270.5" font-family="Helvetica,sans-Serif" font-size="10.00">e57::Image2D</text>
</a>
</g>
</g>
<!-- Node2 -->
<g id="node2" class="node">
<title>Node2</title>
<g id="a_node2"><a xlink:href="structe57_1_1_date_time.html" target="_top" xlink:title="Encodes date and time.">
<polygon fill="white" stroke="black" points="287.5,-422.5 287.5,-441.5 368.5,-441.5 368.5,-422.5 287.5,-422.5"/>
<text text-anchor="middle" x="328" y="-429.5" font-family="Helvetica,sans-Serif" font-size="10.00">e57::DateTime</text>
</a>
</g>
</g>
<!-- Node2&#45;&gt;Node1 -->
<g id="edge1" class="edge">
<title>Node2&#45;&gt;Node1</title>
<path fill="none" stroke="#9a32cd" stroke-dasharray="5,2" d="M378.6,-422.03C430.89,-409.73 513.86,-384.98 574,-342 596.84,-325.67 615.51,-297.69 624.39,-282.87"/>
<polygon fill="#9a32cd" stroke="#9a32cd" points="377.53,-418.68 368.56,-424.33 379.09,-425.51 377.53,-418.68"/>
<text text-anchor="middle" x="504" y="-409" font-family="Helvetica,sans-Serif" font-size="10.00"> acquisitionDateTime</text>
</g>
<!-- Node3 -->
<g id="node3" class="node">
<title>Node3</title>
<g id="a_node3"><a xlink:title=" ">
<polygon fill="white" stroke="#bfbfbf" points="20,-386.5 20,-405.5 66,-405.5 66,-386.5 20,-386.5"/>
<text text-anchor="middle" x="43" y="-393.5" font-family="Helvetica,sans-Serif" font-size="10.00">int32_t</text>
</a>
</g>
</g>
<!-- Node3&#45;&gt;Node2 -->
<g id="edge2" class="edge">
<title>Node3&#45;&gt;Node2</title>
<path fill="none" stroke="#9a32cd" stroke-dasharray="5,2" d="M54,-414.3C64.16,-430.76 81.57,-453.88 104,-464 174.05,-495.61 267.95,-459.84 307.81,-441.51"/>
<polygon fill="#9a32cd" stroke="#9a32cd" points="56.94,-412.39 48.88,-405.52 50.9,-415.92 56.94,-412.39"/>
<text text-anchor="middle" x="163" y="-479" font-family="Helvetica,sans-Serif" font-size="10.00"> isAtomicClockReferenced</text>
</g>
<!-- Node4 -->
<g id="node4" class="node">
<title>Node4</title>
<g id="a_node4"><a xlink:href="structe57_1_1_visual_reference_representation.html" target="_top" xlink:title="Stores an image that is to be used only as a visual reference.">
<polygon fill="white" stroke="black" points="240,-184.5 240,-203.5 416,-203.5 416,-184.5 240,-184.5"/>
<text text-anchor="middle" x="328" y="-191.5" font-family="Helvetica,sans-Serif" font-size="10.00">e57::VisualReferenceRepresentation</text>
</a>
</g>
</g>
<!-- Node3&#45;&gt;Node4 -->
<g id="edge4" class="edge">
<title>Node3&#45;&gt;Node4</title>
<path fill="none" stroke="#9a32cd" stroke-dasharray="5,2" d="M46.75,-376.35C53.75,-329.53 73.84,-213.6 104,-191 127.9,-173.09 203.96,-177.86 260.64,-184.47"/>
<polygon fill="#9a32cd" stroke="#9a32cd" points="43.26,-376.03 45.29,-386.43 50.19,-377.04 43.26,-376.03"/>
<text text-anchor="middle" x="163" y="-205" font-family="Helvetica,sans-Serif" font-size="10.00"> imageWidth</text>
<text text-anchor="middle" x="163" y="-194" font-family="Helvetica,sans-Serif" font-size="10.00">imageHeight</text>
</g>
<!-- Node6 -->
<g id="node6" class="node">
<title>Node6</title>
<g id="a_node6"><a xlink:href="structe57_1_1_spherical_representation.html" target="_top" xlink:title="Stores an image that is mapped from 3D using a spherical projection model.">
<polygon fill="white" stroke="black" points="255.5,-282.5 255.5,-301.5 400.5,-301.5 400.5,-282.5 255.5,-282.5"/>
<text text-anchor="middle" x="328" y="-289.5" font-family="Helvetica,sans-Serif" font-size="10.00">e57::SphericalRepresentation</text>
</a>
</g>
</g>
<!-- Node3&#45;&gt;Node6 -->
<g id="edge7" class="edge">
<title>Node3&#45;&gt;Node6</title>
<path fill="none" stroke="#9a32cd" stroke-dasharray="5,2" d="M76.35,-393.86C124.6,-390.38 210.94,-383 222,-374 241.29,-358.3 222.36,-338.54 240,-321 249.03,-312.02 260.91,-305.82 272.99,-301.54"/>
<polygon fill="#9a32cd" stroke="#9a32cd" points="75.84,-390.38 66.11,-394.58 76.33,-397.37 75.84,-390.38"/>
<text text-anchor="middle" x="163" y="-405" font-family="Helvetica,sans-Serif" font-size="10.00"> imageWidth</text>
<text text-anchor="middle" x="163" y="-394" font-family="Helvetica,sans-Serif" font-size="10.00">imageHeight</text>
</g>
<!-- Node7 -->
<g id="node7" class="node">
<title>Node7</title>
<g id="a_node7"><a xlink:href="structe57_1_1_cylindrical_representation.html" target="_top" xlink:title="Stores an image that is mapped from 3D using a cylindrical projection model.">
<polygon fill="white" stroke="black" points="253,-244.5 253,-263.5 403,-263.5 403,-244.5 253,-244.5"/>
<text text-anchor="middle" x="328" y="-251.5" font-family="Helvetica,sans-Serif" font-size="10.00">e57::CylindricalRepresentation</text>
</a>
</g>
</g>
<!-- Node3&#45;&gt;Node7 -->
<g id="edge10" class="edge">
<title>Node3&#45;&gt;Node7</title>
<path fill="none" stroke="#9a32cd" stroke-dasharray="5,2" d="M50.07,-376.76C58.38,-353.72 75.6,-315.78 104,-296 105.77,-294.77 209.62,-275.54 274.96,-263.53"/>
<polygon fill="#9a32cd" stroke="#9a32cd" points="46.68,-375.86 46.78,-386.45 53.3,-378.11 46.68,-375.86"/>
<text text-anchor="middle" x="163" y="-310" font-family="Helvetica,sans-Serif" font-size="10.00"> imageWidth</text>
<text text-anchor="middle" x="163" y="-299" font-family="Helvetica,sans-Serif" font-size="10.00">imageHeight</text>
</g>
<!-- Node8 -->
<g id="node8" class="node">
<title>Node8</title>
<g id="a_node8"><a xlink:href="structe57_1_1_pinhole_representation.html" target="_top" xlink:title="Stores an image that is mapped from 3D using the pinhole camera projection model.">
<polygon fill="white" stroke="black" points="259.5,-330.5 259.5,-349.5 396.5,-349.5 396.5,-330.5 259.5,-330.5"/>
<text text-anchor="middle" x="328" y="-337.5" font-family="Helvetica,sans-Serif" font-size="10.00">e57::PinholeRepresentation</text>
</a>
</g>
</g>
<!-- Node3&#45;&gt;Node8 -->
<g id="edge13" class="edge">
<title>Node3&#45;&gt;Node8</title>
<path fill="none" stroke="#9a32cd" stroke-dasharray="5,2" d="M72.98,-409.56C82.63,-413.41 93.58,-417.07 104,-419 155.57,-428.55 172.26,-435.62 222,-419 263.54,-405.12 301.83,-367.62 318.38,-349.74"/>
<polygon fill="#9a32cd" stroke="#9a32cd" points="74.04,-406.21 63.47,-405.55 71.32,-412.66 74.04,-406.21"/>
<text text-anchor="middle" x="163" y="-442" font-family="Helvetica,sans-Serif" font-size="10.00"> imageWidth</text>
<text text-anchor="middle" x="163" y="-431" font-family="Helvetica,sans-Serif" font-size="10.00">imageHeight</text>
</g>
<!-- Node4&#45;&gt;Node1 -->
<g id="edge3" class="edge">
<title>Node4&#45;&gt;Node1</title>
<path fill="none" stroke="#9a32cd" stroke-dasharray="5,2" d="M426,-202.05C472.01,-208.1 527.06,-218.66 574,-237 590.58,-243.48 607.48,-255.19 618.31,-263.49"/>
<polygon fill="#9a32cd" stroke="#9a32cd" points="426.38,-198.57 416.02,-200.79 425.5,-205.51 426.38,-198.57"/>
<text text-anchor="middle" x="504" y="-240" font-family="Helvetica,sans-Serif" font-size="10.00"> visualReferenceRepresentation</text>
</g>
<!-- Node5 -->
<g id="node5" class="node">
<title>Node5</title>
<g id="a_node5"><a xlink:title=" ">
<polygon fill="white" stroke="#bfbfbf" points="20,-179.5 20,-198.5 66,-198.5 66,-179.5 20,-179.5"/>
<text text-anchor="middle" x="43" y="-186.5" font-family="Helvetica,sans-Serif" font-size="10.00">int64_t</text>
</a>
</g>
</g>
<!-- Node5&#45;&gt;Node4 -->
<g id="edge5" class="edge">
<title>Node5&#45;&gt;Node4</title>
<path fill="none" stroke="#9a32cd" stroke-dasharray="5,2" d="M48.61,-169.52C55.71,-144.37 72.01,-101.65 104,-83 149.31,-56.58 173.83,-62.26 222,-83 271.46,-104.3 308.5,-161.61 321.72,-184.44"/>
<polygon fill="#9a32cd" stroke="#9a32cd" points="45.17,-168.83 46.03,-179.39 51.94,-170.59 45.17,-168.83"/>
<text text-anchor="middle" x="163" y="-108" font-family="Helvetica,sans-Serif" font-size="10.00"> pngImageSize</text>
<text text-anchor="middle" x="163" y="-97" font-family="Helvetica,sans-Serif" font-size="10.00">jpegImageSize</text>
<text text-anchor="middle" x="163" y="-86" font-family="Helvetica,sans-Serif" font-size="10.00">imageMaskSize</text>
</g>
<!-- Node5&#45;&gt;Node6 -->
<g id="edge8" class="edge">
<title>Node5&#45;&gt;Node6</title>
<path fill="none" stroke="#9a32cd" stroke-dasharray="5,2" d="M70.59,-203.11C80.81,-208.08 92.73,-213.33 104,-217 154.81,-233.53 178.89,-208.44 222,-240 235.48,-249.87 226.63,-262.98 240,-273 245.07,-276.8 250.75,-279.87 256.71,-282.35"/>
<polygon fill="#9a32cd" stroke="#9a32cd" points="71.9,-199.85 61.39,-198.5 68.76,-206.11 71.9,-199.85"/>
<text text-anchor="middle" x="163" y="-265" font-family="Helvetica,sans-Serif" font-size="10.00"> pngImageSize</text>
<text text-anchor="middle" x="163" y="-254" font-family="Helvetica,sans-Serif" font-size="10.00">jpegImageSize</text>
<text text-anchor="middle" x="163" y="-243" font-family="Helvetica,sans-Serif" font-size="10.00">imageMaskSize</text>
</g>
<!-- Node5&#45;&gt;Node7 -->
<g id="edge11" class="edge">
<title>Node5&#45;&gt;Node7</title>
<path fill="none" stroke="#9a32cd" stroke-dasharray="5,2" d="M58.47,-171.83C69.56,-160.09 85.98,-145.53 104,-139 153.31,-121.15 180.77,-106.59 222,-139 248.61,-159.92 218.6,-186.78 240,-213 252.46,-228.26 271.92,-238.17 289.27,-244.41"/>
<polygon fill="#9a32cd" stroke="#9a32cd" points="55.78,-169.59 51.7,-179.37 60.98,-174.27 55.78,-169.59"/>
<text text-anchor="middle" x="163" y="-164" font-family="Helvetica,sans-Serif" font-size="10.00"> pngImageSize</text>
<text text-anchor="middle" x="163" y="-153" font-family="Helvetica,sans-Serif" font-size="10.00">jpegImageSize</text>
<text text-anchor="middle" x="163" y="-142" font-family="Helvetica,sans-Serif" font-size="10.00">imageMaskSize</text>
</g>
<!-- Node5&#45;&gt;Node8 -->
<g id="edge14" class="edge">
<title>Node5&#45;&gt;Node8</title>
<path fill="none" stroke="#9a32cd" stroke-dasharray="5,2" d="M46.97,-208.69C52.51,-237.9 67.38,-292.03 104,-318 116.53,-326.89 198.54,-333.19 259.49,-336.7"/>
<polygon fill="#9a32cd" stroke="#9a32cd" points="50.42,-208.1 45.28,-198.83 43.52,-209.28 50.42,-208.1"/>
<text text-anchor="middle" x="163" y="-358" font-family="Helvetica,sans-Serif" font-size="10.00"> pngImageSize</text>
<text text-anchor="middle" x="163" y="-347" font-family="Helvetica,sans-Serif" font-size="10.00">jpegImageSize</text>
<text text-anchor="middle" x="163" y="-336" font-family="Helvetica,sans-Serif" font-size="10.00">imageMaskSize</text>
</g>
<!-- Node6&#45;&gt;Node1 -->
<g id="edge6" class="edge">
<title>Node6&#45;&gt;Node1</title>
<path fill="none" stroke="#9a32cd" stroke-dasharray="5,2" d="M410.76,-286.84C469.71,-283.12 546.58,-278.27 591.88,-275.41"/>
<polygon fill="#9a32cd" stroke="#9a32cd" points="410.47,-283.35 400.71,-287.47 410.92,-290.34 410.47,-283.35"/>
<text text-anchor="middle" x="504" y="-288" font-family="Helvetica,sans-Serif" font-size="10.00"> sphericalRepresentation</text>
</g>
<!-- Node7&#45;&gt;Node1 -->
<g id="edge9" class="edge">
<title>Node7&#45;&gt;Node1</title>
<path fill="none" stroke="#9a32cd" stroke-dasharray="5,2" d="M413.45,-252.62C460.8,-252.8 520.87,-254.6 574,-261 579.82,-261.7 585.94,-262.72 591.9,-263.86"/>
<polygon fill="#9a32cd" stroke="#9a32cd" points="413.24,-249.12 403.24,-252.61 413.23,-256.12 413.24,-249.12"/>
<text text-anchor="middle" x="504" y="-264" font-family="Helvetica,sans-Serif" font-size="10.00"> cylindricalRepresentation</text>
</g>
<!-- Node8&#45;&gt;Node1 -->
<g id="edge12" class="edge">
<title>Node8&#45;&gt;Node1</title>
<path fill="none" stroke="#9a32cd" stroke-dasharray="5,2" d="M406.94,-333.06C455.75,-327.3 519.51,-317.19 574,-300 587.79,-295.65 602.49,-288.46 613.37,-282.59"/>
<polygon fill="#9a32cd" stroke="#9a32cd" points="406.3,-329.61 396.76,-334.22 407.09,-336.56 406.3,-329.61"/>
<text text-anchor="middle" x="504" y="-332" font-family="Helvetica,sans-Serif" font-size="10.00"> pinholeRepresentation</text>
</g>
<!-- Node9 -->
<g id="node9" class="node">
<title>Node9</title>
<g id="a_node9"><a xlink:href="structe57_1_1_rigid_body_transform.html" target="_top" xlink:title="Defines a rigid body transform in cartesian coordinates.">
<polygon fill="white" stroke="black" points="264,-38.5 264,-57.5 392,-57.5 392,-38.5 264,-38.5"/>
<text text-anchor="middle" x="328" y="-45.5" font-family="Helvetica,sans-Serif" font-size="10.00">e57::RigidBodyTransform</text>
</a>
</g>
</g>
<!-- Node9&#45;&gt;Node1 -->
<g id="edge15" class="edge">
<title>Node9&#45;&gt;Node1</title>
<path fill="none" stroke="#9a32cd" stroke-dasharray="5,2" d="M363.17,-61.41C413.71,-82.49 509.37,-127.34 574,-188 598.35,-210.86 617.27,-246.29 625.5,-263.28"/>
<polygon fill="#9a32cd" stroke="#9a32cd" points="364.26,-58.07 353.68,-57.51 361.6,-64.55 364.26,-58.07"/>
<text text-anchor="middle" x="504" y="-191" font-family="Helvetica,sans-Serif" font-size="10.00"> pose</text>
</g>
<!-- Node10 -->
<g id="node10" class="node">
<title>Node10</title>
<g id="a_node10"><a xlink:href="structe57_1_1_quaternion.html" target="_top" xlink:title="Represents a rigid body rotation.">
<polygon fill="white" stroke="black" points="0,-0.5 0,-19.5 86,-19.5 86,-0.5 0,-0.5"/>
<text text-anchor="middle" x="43" y="-7.5" font-family="Helvetica,sans-Serif" font-size="10.00">e57::Quaternion</text>
</a>
</g>
</g>
<!-- Node10&#45;&gt;Node9 -->
<g id="edge16" class="edge">
<title>Node10&#45;&gt;Node9</title>
<path fill="none" stroke="#9a32cd" stroke-dasharray="5,2" d="M96.23,-16.56C131.71,-21.07 179.71,-27.25 222,-33 235.5,-34.84 249.97,-36.86 263.72,-38.82"/>
<polygon fill="#9a32cd" stroke="#9a32cd" points="96.46,-13.06 86.1,-15.28 95.58,-20.01 96.46,-13.06"/>
<text text-anchor="middle" x="163" y="-36" font-family="Helvetica,sans-Serif" font-size="10.00"> rotation</text>
</g>
<!-- Node11 -->
<g id="node11" class="node">
<title>Node11</title>
<g id="a_node11"><a xlink:href="structe57_1_1_translation.html" target="_top" xlink:title="Defines a rigid body translation in Cartesian coordinates.">
<polygon fill="white" stroke="black" points="0,-38.5 0,-57.5 86,-57.5 86,-38.5 0,-38.5"/>
<text text-anchor="middle" x="43" y="-45.5" font-family="Helvetica,sans-Serif" font-size="10.00">e57::Translation</text>
</a>
</g>
</g>
<!-- Node11&#45;&gt;Node9 -->
<g id="edge17" class="edge">
<title>Node11&#45;&gt;Node9</title>
<path fill="none" stroke="#9a32cd" stroke-dasharray="5,2" d="M96.11,-48C143.48,-48 213.49,-48 263.99,-48"/>
<polygon fill="#9a32cd" stroke="#9a32cd" points="96.06,-44.5 86.06,-48 96.06,-51.5 96.06,-44.5"/>
<text text-anchor="middle" x="163" y="-51" font-family="Helvetica,sans-Serif" font-size="10.00"> translation</text>
</g>
</g>
</svg>
