<?xml version="1.0" encoding="UTF-8" standalone="no"?>
<!DOCTYPE svg PUBLIC "-//W3C//DTD SVG 1.1//EN"
 "http://www.w3.org/Graphics/SVG/1.1/DTD/svg11.dtd">
<!-- Generated by graphviz version 2.44.0 (20200408.0750)
 -->
<!-- Title: BlobSectionHeader Pages: 1 -->
<svg width="188pt" height="106pt"
 viewBox="0.00 0.00 187.50 106.00" xmlns="http://www.w3.org/2000/svg" xmlns:xlink="http://www.w3.org/1999/xlink">
<g id="graph0" class="graph" transform="scale(1 1) rotate(0) translate(4 102)">
<title>BlobSectionHeader</title>
<polygon fill="white" stroke="transparent" points="-4,4 -4,-102 183.5,-102 183.5,4 -4,4"/>
<!-- Node1 -->
<g id="node1" class="node">
<title>Node1</title>
<g id="a_node1"><a xlink:title=" ">
<polygon fill="#bfbfbf" stroke="black" points="34,-0.5 34,-19.5 135,-19.5 135,-0.5 34,-0.5"/>
<text text-anchor="middle" x="84.5" y="-7.5" font-family="Helvetica,sans-Serif" font-size="10.00">BlobSectionHeader</text>
</a>
</g>
</g>
<!-- Node2 -->
<g id="node2" class="node">
<title>Node2</title>
<g id="a_node2"><a xlink:title=" ">
<polygon fill="white" stroke="#bfbfbf" points="0,-78.5 0,-97.5 51,-97.5 51,-78.5 0,-78.5"/>
<text text-anchor="middle" x="25.5" y="-85.5" font-family="Helvetica,sans-Serif" font-size="10.00">uint64_t</text>
</a>
</g>
</g>
<!-- Node2&#45;&gt;Node1 -->
<g id="edge1" class="edge">
<title>Node2&#45;&gt;Node1</title>
<path fill="none" stroke="#9a32cd" stroke-dasharray="5,2" d="M21.41,-68.29C20.33,-58.52 20.76,-46.8 26.5,-38 32.08,-29.44 41.14,-23.55 50.46,-19.51"/>
<polygon fill="#9a32cd" stroke="#9a32cd" points="17.98,-68.95 23.09,-78.23 24.88,-67.79 17.98,-68.95"/>
<text text-anchor="middle" x="74" y="-46.5" font-family="Helvetica,sans-Serif" font-size="10.00"> sectionLogicalLength</text>
</g>
<!-- Node3 -->
<g id="node3" class="node">
<title>Node3</title>
<g id="a_node3"><a xlink:title=" ">
<polygon fill="white" stroke="#bfbfbf" points="120.5,-78.5 120.5,-97.5 166.5,-97.5 166.5,-78.5 120.5,-78.5"/>
<text text-anchor="middle" x="143.5" y="-85.5" font-family="Helvetica,sans-Serif" font-size="10.00">uint8_t</text>
</a>
</g>
</g>
<!-- Node3&#45;&gt;Node1 -->
<g id="edge2" class="edge">
<title>Node3&#45;&gt;Node1</title>
<path fill="none" stroke="#9a32cd" stroke-dasharray="5,2" d="M137.87,-68.72C134.24,-58.92 128.83,-47.04 121.5,-38 115.59,-30.71 107.27,-24.4 100.01,-19.72"/>
<polygon fill="#9a32cd" stroke="#9a32cd" points="134.59,-69.94 141.1,-78.3 141.22,-67.7 134.59,-69.94"/>
<text text-anchor="middle" x="156.5" y="-52" font-family="Helvetica,sans-Serif" font-size="10.00"> reserved1</text>
<text text-anchor="middle" x="156.5" y="-41" font-family="Helvetica,sans-Serif" font-size="10.00">sectionId</text>
</g>
</g>
</svg>
