<?xml version="1.0" encoding="UTF-8" standalone="no"?>
<!DOCTYPE svg PUBLIC "-//W3C//DTD SVG 1.1//EN"
 "http://www.w3.org/Graphics/SVG/1.1/DTD/svg11.dtd">
<!-- Generated by graphviz version 2.44.0 (20200408.0750)
 -->
<!-- Title: e57::PinholeRepresentation Pages: 1 -->
<svg width="177pt" height="117pt"
 viewBox="0.00 0.00 176.50 117.00" xmlns="http://www.w3.org/2000/svg" xmlns:xlink="http://www.w3.org/1999/xlink">
<g id="graph0" class="graph" transform="scale(1 1) rotate(0) translate(4 113)">
<title>e57::PinholeRepresentation</title>
<polygon fill="white" stroke="transparent" points="-4,4 -4,-113 172.5,-113 172.5,4 -4,4"/>
<!-- Node1 -->
<g id="node1" class="node">
<title>Node1</title>
<g id="a_node1"><a xlink:title="Stores an image that is mapped from 3D using the pinhole camera projection model.">
<polygon fill="#bfbfbf" stroke="black" points="0,-0.5 0,-19.5 137,-19.5 137,-0.5 0,-0.5"/>
<text text-anchor="middle" x="68.5" y="-7.5" font-family="Helvetica,sans-Serif" font-size="10.00">e57::PinholeRepresentation</text>
</a>
</g>
</g>
<!-- Node2 -->
<g id="node2" class="node">
<title>Node2</title>
<g id="a_node2"><a xlink:title=" ">
<polygon fill="white" stroke="#bfbfbf" points="6.5,-89.5 6.5,-108.5 52.5,-108.5 52.5,-89.5 6.5,-89.5"/>
<text text-anchor="middle" x="29.5" y="-96.5" font-family="Helvetica,sans-Serif" font-size="10.00">int32_t</text>
</a>
</g>
</g>
<!-- Node2&#45;&gt;Node1 -->
<g id="edge1" class="edge">
<title>Node2&#45;&gt;Node1</title>
<path fill="none" stroke="#9a32cd" stroke-dasharray="5,2" d="M25.61,-79.15C24.03,-66.75 23.88,-50.56 30.5,-38 34.65,-30.12 42.25,-24.03 49.57,-19.64"/>
<polygon fill="#9a32cd" stroke="#9a32cd" points="22.2,-79.98 27.31,-89.25 29.1,-78.81 22.2,-79.98"/>
<text text-anchor="middle" x="58" y="-57.5" font-family="Helvetica,sans-Serif" font-size="10.00"> imageWidth</text>
<text text-anchor="middle" x="58" y="-46.5" font-family="Helvetica,sans-Serif" font-size="10.00">imageHeight</text>
</g>
<!-- Node3 -->
<g id="node3" class="node">
<title>Node3</title>
<g id="a_node3"><a xlink:title=" ">
<polygon fill="white" stroke="#bfbfbf" points="84.5,-89.5 84.5,-108.5 130.5,-108.5 130.5,-89.5 84.5,-89.5"/>
<text text-anchor="middle" x="107.5" y="-96.5" font-family="Helvetica,sans-Serif" font-size="10.00">int64_t</text>
</a>
</g>
</g>
<!-- Node3&#45;&gt;Node1 -->
<g id="edge2" class="edge">
<title>Node3&#45;&gt;Node1</title>
<path fill="none" stroke="#9a32cd" stroke-dasharray="5,2" d="M101.81,-79.4C97.84,-67.33 92.09,-51.42 85.5,-38 82.37,-31.64 78.12,-24.89 74.66,-19.73"/>
<polygon fill="#9a32cd" stroke="#9a32cd" points="98.56,-80.74 104.92,-89.22 105.23,-78.63 98.56,-80.74"/>
<text text-anchor="middle" x="133.5" y="-63" font-family="Helvetica,sans-Serif" font-size="10.00"> pngImageSize</text>
<text text-anchor="middle" x="133.5" y="-52" font-family="Helvetica,sans-Serif" font-size="10.00">jpegImageSize</text>
<text text-anchor="middle" x="133.5" y="-41" font-family="Helvetica,sans-Serif" font-size="10.00">imageMaskSize</text>
</g>
</g>
</svg>
