<?xml version="1.0" encoding="UTF-8" standalone="no"?>
<!DOCTYPE svg PUBLIC "-//W3C//DTD SVG 1.1//EN"
 "http://www.w3.org/Graphics/SVG/1.1/DTD/svg11.dtd">
<!-- Generated by graphviz version 2.48.0 (20210717.1556)
 -->
<!-- Title: e57::SphericalRepresentation Pages: 1 -->
<svg width="182pt" height="117pt"
 viewBox="0.00 0.00 182.00 117.00" xmlns="http://www.w3.org/2000/svg" xmlns:xlink="http://www.w3.org/1999/xlink">
<g id="graph0" class="graph" transform="scale(1 1) rotate(0) translate(4 113)">
<title>e57::SphericalRepresentation</title>
<polygon fill="white" stroke="transparent" points="-4,4 -4,-113 178,-113 178,4 -4,4"/>
<!-- Node1 -->
<g id="node1" class="node">
<title>Node1</title>
<g id="a_node1"><a xlink:title="Stores an image that is mapped from 3D using a spherical projection model.">
<polygon fill="#bfbfbf" stroke="black" points="0,-0.5 0,-19.5 148,-19.5 148,-0.5 0,-0.5"/>
<text text-anchor="middle" x="74" y="-7.5" font-family="Helvetica,sans-Serif" font-size="10.00">e57::SphericalRepresentation</text>
</a>
</g>
</g>
<!-- Node2 -->
<g id="node2" class="node">
<title>Node2</title>
<g id="a_node2"><a xlink:title=" ">
<polygon fill="white" stroke="#bfbfbf" points="2.5,-89.5 2.5,-108.5 49.5,-108.5 49.5,-89.5 2.5,-89.5"/>
<text text-anchor="middle" x="26" y="-96.5" font-family="Helvetica,sans-Serif" font-size="10.00">int64_t</text>
</a>
</g>
</g>
<!-- Node2&#45;&gt;Node1 -->
<g id="edge1" class="edge">
<title>Node2&#45;&gt;Node1</title>
<path fill="none" stroke="#9a32cd" stroke-dasharray="5,2" d="M21.72,-78.93C19.97,-66.44 19.79,-50.23 27,-38 31.88,-29.73 40.33,-23.77 48.73,-19.58"/>
<polygon fill="#9a32cd" stroke="#9a32cd" points="18.34,-79.93 23.6,-89.13 25.23,-78.66 18.34,-79.93"/>
<text text-anchor="middle" x="64" y="-63" font-family="Helvetica,sans-Serif" font-size="10.00"> imageMaskSize</text>
<text text-anchor="middle" x="64" y="-52" font-family="Helvetica,sans-Serif" font-size="10.00">jpegImageSize</text>
<text text-anchor="middle" x="64" y="-41" font-family="Helvetica,sans-Serif" font-size="10.00">pngImageSize</text>
</g>
<!-- Node3 -->
<g id="node3" class="node">
<title>Node3</title>
<g id="a_node3"><a xlink:title=" ">
<polygon fill="white" stroke="#bfbfbf" points="99.5,-89.5 99.5,-108.5 146.5,-108.5 146.5,-89.5 99.5,-89.5"/>
<text text-anchor="middle" x="123" y="-96.5" font-family="Helvetica,sans-Serif" font-size="10.00">int32_t</text>
</a>
</g>
</g>
<!-- Node3&#45;&gt;Node1 -->
<g id="edge2" class="edge">
<title>Node3&#45;&gt;Node1</title>
<path fill="none" stroke="#9a32cd" stroke-dasharray="5,2" d="M118.51,-79.64C114.96,-67.25 109.22,-50.87 101,-38 96.58,-31.07 90.1,-24.52 84.6,-19.61"/>
<polygon fill="#9a32cd" stroke="#9a32cd" points="115.13,-80.55 121.08,-89.32 121.9,-78.76 115.13,-80.55"/>
<text text-anchor="middle" x="144.5" y="-57.5" font-family="Helvetica,sans-Serif" font-size="10.00"> imageHeight</text>
<text text-anchor="middle" x="144.5" y="-46.5" font-family="Helvetica,sans-Serif" font-size="10.00">imageWidth</text>
</g>
</g>
</svg>
