<?xml version="1.0" encoding="UTF-8" standalone="no"?>
<!DOCTYPE svg PUBLIC "-//W3C//DTD SVG 1.1//EN"
 "http://www.w3.org/Graphics/SVG/1.1/DTD/svg11.dtd">
<!-- Generated by graphviz version 2.44.0 (20200408.0750)
 -->
<!-- Title: e57::DecodeChannel Pages: 1 -->
<svg width="237pt" height="106pt"
 viewBox="0.00 0.00 236.50 106.00" xmlns="http://www.w3.org/2000/svg" xmlns:xlink="http://www.w3.org/1999/xlink">
<g id="graph0" class="graph" transform="scale(1 1) rotate(0) translate(4 102)">
<title>e57::DecodeChannel</title>
<polygon fill="white" stroke="transparent" points="-4,4 -4,-102 232.5,-102 232.5,4 -4,4"/>
<!-- Node1 -->
<g id="node1" class="node">
<title>Node1</title>
<g id="a_node1"><a xlink:title=" ">
<polygon fill="#bfbfbf" stroke="black" points="43.5,-0.5 43.5,-19.5 151.5,-19.5 151.5,-0.5 43.5,-0.5"/>
<text text-anchor="middle" x="97.5" y="-7.5" font-family="Helvetica,sans-Serif" font-size="10.00">e57::DecodeChannel</text>
</a>
</g>
</g>
<!-- Node2 -->
<g id="node2" class="node">
<title>Node2</title>
<g id="a_node2"><a xlink:title=" ">
<polygon fill="white" stroke="#bfbfbf" points="0,-78.5 0,-97.5 51,-97.5 51,-78.5 0,-78.5"/>
<text text-anchor="middle" x="25.5" y="-85.5" font-family="Helvetica,sans-Serif" font-size="10.00">uint64_t</text>
</a>
</g>
</g>
<!-- Node2&#45;&gt;Node1 -->
<g id="edge1" class="edge">
<title>Node2&#45;&gt;Node1</title>
<path fill="none" stroke="#9a32cd" stroke-dasharray="5,2" d="M21.2,-68.46C19.99,-58.57 20.37,-46.69 26.5,-38 32.58,-29.38 41.79,-23.51 51.59,-19.51"/>
<polygon fill="#9a32cd" stroke="#9a32cd" points="17.8,-69.29 23.03,-78.5 24.68,-68.03 17.8,-69.29"/>
<text text-anchor="middle" x="87.5" y="-52" font-family="Helvetica,sans-Serif" font-size="10.00"> currentPacketLogicalOffset</text>
<text text-anchor="middle" x="87.5" y="-41" font-family="Helvetica,sans-Serif" font-size="10.00">maxRecordCount</text>
</g>
<!-- Node3 -->
<g id="node3" class="node">
<title>Node3</title>
<g id="a_node3"><a xlink:href="classe57_1_1_source_dest_buffer.html" target="_top" xlink:title=" ">
<polygon fill="white" stroke="black" points="112.5,-78.5 112.5,-97.5 228.5,-97.5 228.5,-78.5 112.5,-78.5"/>
<text text-anchor="middle" x="170.5" y="-85.5" font-family="Helvetica,sans-Serif" font-size="10.00">e57::SourceDestBuffer</text>
</a>
</g>
</g>
<!-- Node3&#45;&gt;Node1 -->
<g id="edge2" class="edge">
<title>Node3&#45;&gt;Node1</title>
<path fill="none" stroke="#9a32cd" stroke-dasharray="5,2" d="M165.48,-68.63C162.02,-58.64 156.55,-46.59 148.5,-38 141.03,-30.03 130.68,-23.95 121.25,-19.6"/>
<polygon fill="#9a32cd" stroke="#9a32cd" points="162.21,-69.89 168.49,-78.42 168.9,-67.83 162.21,-69.89"/>
<text text-anchor="middle" x="172.5" y="-46.5" font-family="Helvetica,sans-Serif" font-size="10.00"> dbuf</text>
</g>
</g>
</svg>
