<?xml version="1.0" encoding="UTF-8" standalone="no"?>
<!DOCTYPE svg PUBLIC "-//W3C//DTD SVG 1.1//EN"
 "http://www.w3.org/Graphics/SVG/1.1/DTD/svg11.dtd">
<!-- Generated by graphviz version 2.48.0 (20210717.1556)
 -->
<!-- Title: e57::BlobSectionHeader Pages: 1 -->
<svg width="191pt" height="106pt"
 viewBox="0.00 0.00 190.50 106.00" xmlns="http://www.w3.org/2000/svg" xmlns:xlink="http://www.w3.org/1999/xlink">
<g id="graph0" class="graph" transform="scale(1 1) rotate(0) translate(4 102)">
<title>e57::BlobSectionHeader</title>
<polygon fill="white" stroke="transparent" points="-4,4 -4,-102 186.5,-102 186.5,4 -4,4"/>
<!-- Node1 -->
<g id="node1" class="node">
<title>Node1</title>
<g id="a_node1"><a xlink:title=" ">
<polygon fill="#bfbfbf" stroke="black" points="0,-0.5 0,-19.5 125,-19.5 125,-0.5 0,-0.5"/>
<text text-anchor="middle" x="62.5" y="-7.5" font-family="Helvetica,sans-Serif" font-size="10.00">e57::BlobSectionHeader</text>
</a>
</g>
</g>
<!-- Node2 -->
<g id="node2" class="node">
<title>Node2</title>
<g id="a_node2"><a xlink:title=" ">
<polygon fill="white" stroke="#bfbfbf" points="4,-78.5 4,-97.5 51,-97.5 51,-78.5 4,-78.5"/>
<text text-anchor="middle" x="27.5" y="-85.5" font-family="Helvetica,sans-Serif" font-size="10.00">uint8_t</text>
</a>
</g>
</g>
<!-- Node2&#45;&gt;Node1 -->
<g id="edge1" class="edge">
<title>Node2&#45;&gt;Node1</title>
<path fill="none" stroke="#9a32cd" stroke-dasharray="5,2" d="M24.22,-68.13C23.46,-58.63 23.94,-47.21 28.5,-38 32.32,-30.3 39.47,-24.1 46.24,-19.6"/>
<polygon fill="#9a32cd" stroke="#9a32cd" points="20.77,-68.68 25.52,-78.15 27.71,-67.78 20.77,-68.68"/>
<text text-anchor="middle" x="52.5" y="-52" font-family="Helvetica,sans-Serif" font-size="10.00"> reserved1</text>
<text text-anchor="middle" x="52.5" y="-41" font-family="Helvetica,sans-Serif" font-size="10.00">sectionId</text>
</g>
<!-- Node3 -->
<g id="node3" class="node">
<title>Node3</title>
<g id="a_node3"><a xlink:title=" ">
<polygon fill="white" stroke="#bfbfbf" points="72.5,-78.5 72.5,-97.5 124.5,-97.5 124.5,-78.5 72.5,-78.5"/>
<text text-anchor="middle" x="98.5" y="-85.5" font-family="Helvetica,sans-Serif" font-size="10.00">uint64_t</text>
</a>
</g>
</g>
<!-- Node3&#45;&gt;Node1 -->
<g id="edge2" class="edge">
<title>Node3&#45;&gt;Node1</title>
<path fill="none" stroke="#9a32cd" stroke-dasharray="5,2" d="M90.65,-68.88C86.56,-59.59 81.39,-48.13 76.5,-38 73.56,-31.91 70.06,-25.16 67.29,-19.94"/>
<polygon fill="#9a32cd" stroke="#9a32cd" points="87.54,-70.49 94.75,-78.26 93.96,-67.69 87.54,-70.49"/>
<text text-anchor="middle" x="134" y="-46.5" font-family="Helvetica,sans-Serif" font-size="10.00"> sectionLogicalLength</text>
</g>
</g>
</svg>
