<?xml version="1.0" encoding="UTF-8" standalone="no"?>
<!DOCTYPE svg PUBLIC "-//W3C//DTD SVG 1.1//EN"
 "http://www.w3.org/Graphics/SVG/1.1/DTD/svg11.dtd">
<!-- Generated by graphviz version 2.48.0 (20210717.1556)
 -->
<!-- Title: e57::E57Root Pages: 1 -->
<svg width="295pt" height="173pt"
 viewBox="0.00 0.00 295.00 173.00" xmlns="http://www.w3.org/2000/svg" xmlns:xlink="http://www.w3.org/1999/xlink">
<g id="graph0" class="graph" transform="scale(1 1) rotate(0) translate(4 169)">
<title>e57::E57Root</title>
<polygon fill="white" stroke="transparent" points="-4,4 -4,-169 291,-169 291,4 -4,4"/>
<!-- Node1 -->
<g id="node1" class="node">
<title>Node1</title>
<g id="a_node1"><a xlink:title="Stores the top&#45;level information for the XML section of the file.">
<polygon fill="#bfbfbf" stroke="black" points="107,-0.5 107,-19.5 185,-19.5 185,-0.5 107,-0.5"/>
<text text-anchor="middle" x="146" y="-7.5" font-family="Helvetica,sans-Serif" font-size="10.00">e57::E57Root</text>
</a>
</g>
</g>
<!-- Node2 -->
<g id="node2" class="node">
<title>Node2</title>
<g id="a_node2"><a xlink:href="structe57_1_1_date_time.html" target="_top" xlink:title="Encodes date and time.">
<polygon fill="white" stroke="black" points="0,-78.5 0,-97.5 82,-97.5 82,-78.5 0,-78.5"/>
<text text-anchor="middle" x="41" y="-85.5" font-family="Helvetica,sans-Serif" font-size="10.00">e57::DateTime</text>
</a>
</g>
</g>
<!-- Node2&#45;&gt;Node1 -->
<g id="edge1" class="edge">
<title>Node2&#45;&gt;Node1</title>
<path fill="none" stroke="#9a32cd" stroke-dasharray="5,2" d="M44.12,-68.43C46.74,-58.19 51.49,-45.97 60,-38 72.68,-26.13 90.53,-19.47 106.69,-15.75"/>
<polygon fill="#9a32cd" stroke="#9a32cd" points="40.64,-67.98 42.03,-78.48 47.49,-69.4 40.64,-67.98"/>
<text text-anchor="middle" x="101" y="-46.5" font-family="Helvetica,sans-Serif" font-size="10.00"> creationDateTime</text>
</g>
<!-- Node3 -->
<g id="node3" class="node">
<title>Node3</title>
<g id="a_node3"><a xlink:title=" ">
<polygon fill="white" stroke="#bfbfbf" points="17.5,-145.5 17.5,-164.5 64.5,-164.5 64.5,-145.5 17.5,-145.5"/>
<text text-anchor="middle" x="41" y="-152.5" font-family="Helvetica,sans-Serif" font-size="10.00">int32_t</text>
</a>
</g>
</g>
<!-- Node3&#45;&gt;Node2 -->
<g id="edge2" class="edge">
<title>Node3&#45;&gt;Node2</title>
<path fill="none" stroke="#9a32cd" stroke-dasharray="5,2" d="M41,-135.04C41,-122.67 41,-107.12 41,-97.63"/>
<polygon fill="#9a32cd" stroke="#9a32cd" points="37.5,-135.23 41,-145.23 44.5,-135.23 37.5,-135.23"/>
<text text-anchor="middle" x="100" y="-119" font-family="Helvetica,sans-Serif" font-size="10.00"> isAtomicClockReferenced</text>
</g>
<!-- Node4 -->
<g id="node4" class="node">
<title>Node4</title>
<g id="a_node4"><a xlink:title=" ">
<polygon fill="white" stroke="#bfbfbf" points="120,-78.5 120,-97.5 172,-97.5 172,-78.5 120,-78.5"/>
<text text-anchor="middle" x="146" y="-85.5" font-family="Helvetica,sans-Serif" font-size="10.00">uint32_t</text>
</a>
</g>
</g>
<!-- Node4&#45;&gt;Node1 -->
<g id="edge3" class="edge">
<title>Node4&#45;&gt;Node1</title>
<path fill="none" stroke="#9a32cd" stroke-dasharray="5,2" d="M146,-68.22C146,-52.7 146,-31.36 146,-19.62"/>
<polygon fill="#9a32cd" stroke="#9a32cd" points="142.5,-68.28 146,-78.28 149.5,-68.28 142.5,-68.28"/>
<text text-anchor="middle" x="176.5" y="-52" font-family="Helvetica,sans-Serif" font-size="10.00"> versionMajor</text>
<text text-anchor="middle" x="176.5" y="-41" font-family="Helvetica,sans-Serif" font-size="10.00">versionMinor</text>
</g>
<!-- Node5 -->
<g id="node5" class="node">
<title>Node5</title>
<g id="a_node5"><a xlink:title=" ">
<polygon fill="white" stroke="#bfbfbf" points="206.5,-78.5 206.5,-97.5 253.5,-97.5 253.5,-78.5 206.5,-78.5"/>
<text text-anchor="middle" x="230" y="-85.5" font-family="Helvetica,sans-Serif" font-size="10.00">int64_t</text>
</a>
</g>
</g>
<!-- Node5&#45;&gt;Node1 -->
<g id="edge4" class="edge">
<title>Node5&#45;&gt;Node1</title>
<path fill="none" stroke="#9a32cd" stroke-dasharray="5,2" d="M225.23,-68.39C221.84,-58.32 216.38,-46.28 208,-38 199.57,-29.66 188.14,-23.7 177.39,-19.54"/>
<polygon fill="#9a32cd" stroke="#9a32cd" points="221.96,-69.67 228.13,-78.28 228.67,-67.7 221.96,-69.67"/>
<text text-anchor="middle" x="254.5" y="-52" font-family="Helvetica,sans-Serif" font-size="10.00"> data3DSize</text>
<text text-anchor="middle" x="254.5" y="-41" font-family="Helvetica,sans-Serif" font-size="10.00">images2DSize</text>
</g>
</g>
</svg>
