<?xml version="1.0" encoding="UTF-8" standalone="no"?>
<!DOCTYPE svg PUBLIC "-//W3C//DTD SVG 1.1//EN"
 "http://www.w3.org/Graphics/SVG/1.1/DTD/svg11.dtd">
<!-- Generated by graphviz version 2.44.0 (20200408.0750)
 -->
<!-- Title: e57::CylindricalRepresentation Pages: 1 -->
<svg width="183pt" height="117pt"
 viewBox="0.00 0.00 183.00 117.00" xmlns="http://www.w3.org/2000/svg" xmlns:xlink="http://www.w3.org/1999/xlink">
<g id="graph0" class="graph" transform="scale(1 1) rotate(0) translate(4 113)">
<title>e57::CylindricalRepresentation</title>
<polygon fill="white" stroke="transparent" points="-4,4 -4,-113 179,-113 179,4 -4,4"/>
<!-- Node1 -->
<g id="node1" class="node">
<title>Node1</title>
<g id="a_node1"><a xlink:title="Stores an image that is mapped from 3D using a cylindrical projection model.">
<polygon fill="#bfbfbf" stroke="black" points="0,-0.5 0,-19.5 150,-19.5 150,-0.5 0,-0.5"/>
<text text-anchor="middle" x="75" y="-7.5" font-family="Helvetica,sans-Serif" font-size="10.00">e57::CylindricalRepresentation</text>
</a>
</g>
</g>
<!-- Node2 -->
<g id="node2" class="node">
<title>Node2</title>
<g id="a_node2"><a xlink:title=" ">
<polygon fill="white" stroke="#bfbfbf" points="13,-89.5 13,-108.5 59,-108.5 59,-89.5 13,-89.5"/>
<text text-anchor="middle" x="36" y="-96.5" font-family="Helvetica,sans-Serif" font-size="10.00">int32_t</text>
</a>
</g>
</g>
<!-- Node2&#45;&gt;Node1 -->
<g id="edge1" class="edge">
<title>Node2&#45;&gt;Node1</title>
<path fill="none" stroke="#9a32cd" stroke-dasharray="5,2" d="M32.11,-79.15C30.53,-66.75 30.38,-50.56 37,-38 41.15,-30.12 48.75,-24.03 56.07,-19.64"/>
<polygon fill="#9a32cd" stroke="#9a32cd" points="28.7,-79.98 33.81,-89.25 35.6,-78.81 28.7,-79.98"/>
<text text-anchor="middle" x="64.5" y="-57.5" font-family="Helvetica,sans-Serif" font-size="10.00"> imageWidth</text>
<text text-anchor="middle" x="64.5" y="-46.5" font-family="Helvetica,sans-Serif" font-size="10.00">imageHeight</text>
</g>
<!-- Node3 -->
<g id="node3" class="node">
<title>Node3</title>
<g id="a_node3"><a xlink:title=" ">
<polygon fill="white" stroke="#bfbfbf" points="91,-89.5 91,-108.5 137,-108.5 137,-89.5 91,-89.5"/>
<text text-anchor="middle" x="114" y="-96.5" font-family="Helvetica,sans-Serif" font-size="10.00">int64_t</text>
</a>
</g>
</g>
<!-- Node3&#45;&gt;Node1 -->
<g id="edge2" class="edge">
<title>Node3&#45;&gt;Node1</title>
<path fill="none" stroke="#9a32cd" stroke-dasharray="5,2" d="M108.31,-79.4C104.34,-67.33 98.59,-51.42 92,-38 88.87,-31.64 84.62,-24.89 81.16,-19.73"/>
<polygon fill="#9a32cd" stroke="#9a32cd" points="105.06,-80.74 111.42,-89.22 111.73,-78.63 105.06,-80.74"/>
<text text-anchor="middle" x="140" y="-63" font-family="Helvetica,sans-Serif" font-size="10.00"> pngImageSize</text>
<text text-anchor="middle" x="140" y="-52" font-family="Helvetica,sans-Serif" font-size="10.00">jpegImageSize</text>
<text text-anchor="middle" x="140" y="-41" font-family="Helvetica,sans-Serif" font-size="10.00">imageMaskSize</text>
</g>
</g>
</svg>
