<?xml version="1.0" encoding="UTF-8" standalone="no"?>
<!DOCTYPE svg PUBLIC "-//W3C//DTD SVG 1.1//EN"
 "http://www.w3.org/Graphics/SVG/1.1/DTD/svg11.dtd">
<!-- Generated by graphviz version 2.48.0 (20210717.1556)
 -->
<!-- Title: e57::LineGroupRecord Pages: 1 -->
<svg width="367pt" height="117pt"
 viewBox="0.00 0.00 367.00 117.00" xmlns="http://www.w3.org/2000/svg" xmlns:xlink="http://www.w3.org/1999/xlink">
<g id="graph0" class="graph" transform="scale(1 1) rotate(0) translate(4 113)">
<title>e57::LineGroupRecord</title>
<polygon fill="white" stroke="transparent" points="-4,4 -4,-113 363,-113 363,4 -4,4"/>
<!-- Node1 -->
<g id="node1" class="node">
<title>Node1</title>
<g id="a_node1"><a xlink:title="Stores information about a single group of points in a row or column.">
<polygon fill="#bfbfbf" stroke="black" points="131,-0.5 131,-19.5 249,-19.5 249,-0.5 131,-0.5"/>
<text text-anchor="middle" x="190" y="-7.5" font-family="Helvetica,sans-Serif" font-size="10.00">e57::LineGroupRecord</text>
</a>
</g>
</g>
<!-- Node2 -->
<g id="node2" class="node">
<title>Node2</title>
<g id="a_node2"><a xlink:href="structe57_1_1_spherical_bounds.html" target="_top" xlink:title="Stores the bounds of some data in spherical coordinates.">
<polygon fill="white" stroke="black" points="0,-89.5 0,-108.5 114,-108.5 114,-89.5 0,-89.5"/>
<text text-anchor="middle" x="57" y="-96.5" font-family="Helvetica,sans-Serif" font-size="10.00">e57::SphericalBounds</text>
</a>
</g>
</g>
<!-- Node2&#45;&gt;Node1 -->
<g id="edge1" class="edge">
<title>Node2&#45;&gt;Node1</title>
<path fill="none" stroke="#9a32cd" stroke-dasharray="5,2" d="M67.92,-80.99C77.33,-67.59 92.05,-49.33 109,-38 121.45,-29.68 136.68,-23.72 150.56,-19.56"/>
<polygon fill="#9a32cd" stroke="#9a32cd" points="64.98,-79.1 62.29,-89.35 70.78,-83.01 64.98,-79.1"/>
<text text-anchor="middle" x="147.5" y="-52" font-family="Helvetica,sans-Serif" font-size="10.00"> sphericalBounds</text>
</g>
<!-- Node3 -->
<g id="node3" class="node">
<title>Node3</title>
<g id="a_node3"><a xlink:href="structe57_1_1_cartesian_bounds.html" target="_top" xlink:title="Specifies an axis&#45;aligned box in local cartesian coordinates.">
<polygon fill="white" stroke="black" points="132.5,-89.5 132.5,-108.5 247.5,-108.5 247.5,-89.5 132.5,-89.5"/>
<text text-anchor="middle" x="190" y="-96.5" font-family="Helvetica,sans-Serif" font-size="10.00">e57::CartesianBounds</text>
</a>
</g>
</g>
<!-- Node3&#45;&gt;Node1 -->
<g id="edge2" class="edge">
<title>Node3&#45;&gt;Node1</title>
<path fill="none" stroke="#9a32cd" stroke-dasharray="5,2" d="M190,-79.19C190,-60.74 190,-33.41 190,-19.62"/>
<polygon fill="#9a32cd" stroke="#9a32cd" points="186.5,-79.34 190,-89.34 193.5,-79.34 186.5,-79.34"/>
<text text-anchor="middle" x="229" y="-52" font-family="Helvetica,sans-Serif" font-size="10.00"> cartesianBounds</text>
</g>
<!-- Node4 -->
<g id="node4" class="node">
<title>Node4</title>
<g id="a_node4"><a xlink:title=" ">
<polygon fill="white" stroke="#bfbfbf" points="267.5,-89.5 267.5,-108.5 314.5,-108.5 314.5,-89.5 267.5,-89.5"/>
<text text-anchor="middle" x="291" y="-96.5" font-family="Helvetica,sans-Serif" font-size="10.00">int64_t</text>
</a>
</g>
</g>
<!-- Node4&#45;&gt;Node1 -->
<g id="edge3" class="edge">
<title>Node4&#45;&gt;Node1</title>
<path fill="none" stroke="#9a32cd" stroke-dasharray="5,2" d="M288.51,-79.51C285.81,-66.32 280.28,-49.03 269,-38 260.19,-29.39 248.52,-23.51 236.87,-19.52"/>
<polygon fill="#9a32cd" stroke="#9a32cd" points="285.06,-80.11 290.17,-89.4 291.96,-78.96 285.06,-80.11"/>
<text text-anchor="middle" x="322.5" y="-63" font-family="Helvetica,sans-Serif" font-size="10.00"> idElementValue</text>
<text text-anchor="middle" x="322.5" y="-52" font-family="Helvetica,sans-Serif" font-size="10.00">pointCount</text>
<text text-anchor="middle" x="322.5" y="-41" font-family="Helvetica,sans-Serif" font-size="10.00">startPointIndex</text>
</g>
</g>
</svg>
