<?xml version="1.0" encoding="UTF-8" standalone="no"?>
<!DOCTYPE svg PUBLIC "-//W3C//DTD SVG 1.1//EN"
 "http://www.w3.org/Graphics/SVG/1.1/DTD/svg11.dtd">
<!-- Generated by graphviz version 2.44.0 (20200408.0750)
 -->
<!-- Title: CompressedVectorSectionHeader Pages: 1 -->
<svg width="191pt" height="117pt"
 viewBox="0.00 0.00 190.50 117.00" xmlns="http://www.w3.org/2000/svg" xmlns:xlink="http://www.w3.org/1999/xlink">
<g id="graph0" class="graph" transform="scale(1 1) rotate(0) translate(4 113)">
<title>CompressedVectorSectionHeader</title>
<polygon fill="white" stroke="transparent" points="-4,4 -4,-113 186.5,-113 186.5,4 -4,4"/>
<!-- Node1 -->
<g id="node1" class="node">
<title>Node1</title>
<g id="a_node1"><a xlink:title=" ">
<polygon fill="#bfbfbf" stroke="black" points="2,-0.5 2,-19.5 167,-19.5 167,-0.5 2,-0.5"/>
<text text-anchor="middle" x="84.5" y="-7.5" font-family="Helvetica,sans-Serif" font-size="10.00">CompressedVectorSectionHeader</text>
</a>
</g>
</g>
<!-- Node2 -->
<g id="node2" class="node">
<title>Node2</title>
<g id="a_node2"><a xlink:title=" ">
<polygon fill="white" stroke="#bfbfbf" points="0,-89.5 0,-108.5 51,-108.5 51,-89.5 0,-89.5"/>
<text text-anchor="middle" x="25.5" y="-96.5" font-family="Helvetica,sans-Serif" font-size="10.00">uint64_t</text>
</a>
</g>
</g>
<!-- Node2&#45;&gt;Node1 -->
<g id="edge1" class="edge">
<title>Node2&#45;&gt;Node1</title>
<path fill="none" stroke="#9a32cd" stroke-dasharray="5,2" d="M21,-79.53C19,-66.84 18.6,-50.16 26.5,-38 32,-29.52 40.92,-23.66 50.14,-19.63"/>
<polygon fill="#9a32cd" stroke="#9a32cd" points="17.59,-80.33 23.01,-89.43 24.45,-78.94 17.59,-80.33"/>
<text text-anchor="middle" x="74" y="-63" font-family="Helvetica,sans-Serif" font-size="10.00"> sectionLogicalLength</text>
<text text-anchor="middle" x="74" y="-52" font-family="Helvetica,sans-Serif" font-size="10.00">indexPhysicalOffset</text>
<text text-anchor="middle" x="74" y="-41" font-family="Helvetica,sans-Serif" font-size="10.00">dataPhysicalOffset</text>
</g>
<!-- Node3 -->
<g id="node3" class="node">
<title>Node3</title>
<g id="a_node3"><a xlink:title=" ">
<polygon fill="white" stroke="#bfbfbf" points="120.5,-89.5 120.5,-108.5 166.5,-108.5 166.5,-89.5 120.5,-89.5"/>
<text text-anchor="middle" x="143.5" y="-96.5" font-family="Helvetica,sans-Serif" font-size="10.00">uint8_t</text>
</a>
</g>
</g>
<!-- Node3&#45;&gt;Node1 -->
<g id="edge2" class="edge">
<title>Node3&#45;&gt;Node1</title>
<path fill="none" stroke="#9a32cd" stroke-dasharray="5,2" d="M139.75,-79.63C136.49,-67 130.8,-50.33 121.5,-38 115.85,-30.51 107.55,-24.18 100.24,-19.55"/>
<polygon fill="#9a32cd" stroke="#9a32cd" points="136.36,-80.53 142.01,-89.49 143.18,-78.96 136.36,-80.53"/>
<text text-anchor="middle" x="159.5" y="-57.5" font-family="Helvetica,sans-Serif" font-size="10.00"> reserved1</text>
<text text-anchor="middle" x="159.5" y="-46.5" font-family="Helvetica,sans-Serif" font-size="10.00">sectionId</text>
</g>
</g>
</svg>
