<?xml version="1.0" encoding="UTF-8" standalone="no"?>
<!DOCTYPE svg PUBLIC "-//W3C//DTD SVG 1.1//EN"
 "http://www.w3.org/Graphics/SVG/1.1/DTD/svg11.dtd">
<!-- Generated by graphviz version 2.48.0 (20210717.1556)
 -->
<!-- Title: e57::Image2D Pages: 1 -->
<svg width="688pt" height="511pt"
 viewBox="0.00 0.00 688.00 510.86" xmlns="http://www.w3.org/2000/svg" xmlns:xlink="http://www.w3.org/1999/xlink">
<g id="graph0" class="graph" transform="scale(1 1) rotate(0) translate(4 506.86)">
<title>e57::Image2D</title>
<polygon fill="white" stroke="transparent" points="-4,4 -4,-506.86 684,-506.86 684,4 -4,4"/>
<!-- Node1 -->
<g id="node1" class="node">
<title>Node1</title>
<g id="a_node1"><a xlink:title="Stores an image from a camera.">
<polygon fill="#bfbfbf" stroke="black" points="601,-322.36 601,-341.36 680,-341.36 680,-322.36 601,-322.36"/>
<text text-anchor="middle" x="640.5" y="-329.36" font-family="Helvetica,sans-Serif" font-size="10.00">e57::Image2D</text>
</a>
</g>
</g>
<!-- Node2 -->
<g id="node2" class="node">
<title>Node2</title>
<g id="a_node2"><a xlink:href="structe57_1_1_date_time.html" target="_top" xlink:title="Encodes date and time.">
<polygon fill="white" stroke="black" points="291,-394.36 291,-413.36 373,-413.36 373,-394.36 291,-394.36"/>
<text text-anchor="middle" x="332" y="-401.36" font-family="Helvetica,sans-Serif" font-size="10.00">e57::DateTime</text>
</a>
</g>
</g>
<!-- Node2&#45;&gt;Node1 -->
<g id="edge1" class="edge">
<title>Node2&#45;&gt;Node1</title>
<path fill="none" stroke="#9a32cd" stroke-dasharray="5,2" d="M383.41,-399.26C434.65,-393.6 515.82,-381.91 583,-359.86 597.15,-355.21 612.21,-347.6 623.22,-341.48"/>
<polygon fill="#9a32cd" stroke="#9a32cd" points="382.83,-395.8 373.26,-400.34 383.58,-402.76 382.83,-395.8"/>
<text text-anchor="middle" x="511.5" y="-393.86" font-family="Helvetica,sans-Serif" font-size="10.00"> acquisitionDateTime</text>
</g>
<!-- Node3 -->
<g id="node3" class="node">
<title>Node3</title>
<g id="a_node3"><a xlink:title=" ">
<polygon fill="white" stroke="#bfbfbf" points="20.5,-321.36 20.5,-340.36 67.5,-340.36 67.5,-321.36 20.5,-321.36"/>
<text text-anchor="middle" x="44" y="-328.36" font-family="Helvetica,sans-Serif" font-size="10.00">int32_t</text>
</a>
</g>
</g>
<!-- Node3&#45;&gt;Node2 -->
<g id="edge2" class="edge">
<title>Node3&#45;&gt;Node2</title>
<path fill="none" stroke="#9a32cd" stroke-dasharray="5,2" d="M58.36,-348.69C69.49,-362.04 86.6,-379.4 106,-387.86 166.31,-414.16 244.36,-412.83 290.9,-408.81"/>
<polygon fill="#9a32cd" stroke="#9a32cd" points="60.92,-346.28 51.95,-340.63 55.44,-350.64 60.92,-346.28"/>
<text text-anchor="middle" x="165" y="-412.86" font-family="Helvetica,sans-Serif" font-size="10.00"> isAtomicClockReferenced</text>
</g>
<!-- Node7 -->
<g id="node7" class="node">
<title>Node7</title>
<g id="a_node7"><a xlink:href="structe57_1_1_visual_reference_representation.html" target="_top" xlink:title="Stores an image that is to be used only as a visual reference.">
<polygon fill="white" stroke="black" points="242,-341.36 242,-360.36 422,-360.36 422,-341.36 242,-341.36"/>
<text text-anchor="middle" x="332" y="-348.36" font-family="Helvetica,sans-Serif" font-size="10.00">e57::VisualReferenceRepresentation</text>
</a>
</g>
</g>
<!-- Node3&#45;&gt;Node7 -->
<g id="edge8" class="edge">
<title>Node3&#45;&gt;Node7</title>
<path fill="none" stroke="#9a32cd" stroke-dasharray="5,2" d="M74.17,-344.3C84.06,-348.19 95.31,-351.91 106,-353.86 150.29,-361.93 200.31,-362.13 241.91,-359.9"/>
<polygon fill="#9a32cd" stroke="#9a32cd" points="75.39,-341.01 64.81,-340.41 72.7,-347.48 75.39,-341.01"/>
<text text-anchor="middle" x="165" y="-375.86" font-family="Helvetica,sans-Serif" font-size="10.00"> imageHeight</text>
<text text-anchor="middle" x="165" y="-364.86" font-family="Helvetica,sans-Serif" font-size="10.00">imageWidth</text>
</g>
<!-- Node9 -->
<g id="node9" class="node">
<title>Node9</title>
<g id="a_node9"><a xlink:href="structe57_1_1_pinhole_representation.html" target="_top" xlink:title="Stores an image that is mapped from 3D using the pinhole camera projection model.">
<polygon fill="white" stroke="black" points="262,-303.36 262,-322.36 402,-322.36 402,-303.36 262,-303.36"/>
<text text-anchor="middle" x="332" y="-310.36" font-family="Helvetica,sans-Serif" font-size="10.00">e57::PinholeRepresentation</text>
</a>
</g>
</g>
<!-- Node3&#45;&gt;Node9 -->
<g id="edge11" class="edge">
<title>Node3&#45;&gt;Node9</title>
<path fill="none" stroke="#9a32cd" stroke-dasharray="5,2" d="M77.93,-328.78C122.59,-325.97 203.45,-320.88 261.77,-317.21"/>
<polygon fill="#9a32cd" stroke="#9a32cd" points="77.68,-325.29 67.92,-329.41 78.12,-332.28 77.68,-325.29"/>
<text text-anchor="middle" x="165" y="-341.86" font-family="Helvetica,sans-Serif" font-size="10.00"> imageHeight</text>
<text text-anchor="middle" x="165" y="-330.86" font-family="Helvetica,sans-Serif" font-size="10.00">imageWidth</text>
</g>
<!-- Node10 -->
<g id="node10" class="node">
<title>Node10</title>
<g id="a_node10"><a xlink:href="structe57_1_1_spherical_representation.html" target="_top" xlink:title="Stores an image that is mapped from 3D using a spherical projection model.">
<polygon fill="white" stroke="black" points="258,-119.36 258,-138.36 406,-138.36 406,-119.36 258,-119.36"/>
<text text-anchor="middle" x="332" y="-126.36" font-family="Helvetica,sans-Serif" font-size="10.00">e57::SphericalRepresentation</text>
</a>
</g>
</g>
<!-- Node3&#45;&gt;Node10 -->
<g id="edge14" class="edge">
<title>Node3&#45;&gt;Node10</title>
<path fill="none" stroke="#9a32cd" stroke-dasharray="5,2" d="M47.85,-311.2C55.08,-264.37 75.75,-148.41 106,-125.86 130.23,-107.79 207.38,-112.66 264.62,-119.34"/>
<polygon fill="#9a32cd" stroke="#9a32cd" points="44.36,-310.87 46.34,-321.28 51.28,-311.91 44.36,-310.87"/>
<text text-anchor="middle" x="165" y="-139.86" font-family="Helvetica,sans-Serif" font-size="10.00"> imageHeight</text>
<text text-anchor="middle" x="165" y="-128.86" font-family="Helvetica,sans-Serif" font-size="10.00">imageWidth</text>
</g>
<!-- Node11 -->
<g id="node11" class="node">
<title>Node11</title>
<g id="a_node11"><a xlink:href="structe57_1_1_cylindrical_representation.html" target="_top" xlink:title="Stores an image that is mapped from 3D using a cylindrical projection model.">
<polygon fill="white" stroke="black" points="255.5,-220.36 255.5,-239.36 408.5,-239.36 408.5,-220.36 255.5,-220.36"/>
<text text-anchor="middle" x="332" y="-227.36" font-family="Helvetica,sans-Serif" font-size="10.00">e57::CylindricalRepresentation</text>
</a>
</g>
</g>
<!-- Node3&#45;&gt;Node11 -->
<g id="edge17" class="edge">
<title>Node3&#45;&gt;Node11</title>
<path fill="none" stroke="#9a32cd" stroke-dasharray="5,2" d="M50.47,-311.41C58.36,-287.54 75.44,-248.1 106,-230.86 166.05,-196.97 250.25,-209.34 296.75,-220.28"/>
<polygon fill="#9a32cd" stroke="#9a32cd" points="47.07,-310.56 47.48,-321.15 53.77,-312.62 47.07,-310.56"/>
<text text-anchor="middle" x="165" y="-244.86" font-family="Helvetica,sans-Serif" font-size="10.00"> imageHeight</text>
<text text-anchor="middle" x="165" y="-233.86" font-family="Helvetica,sans-Serif" font-size="10.00">imageWidth</text>
</g>
<!-- Node4 -->
<g id="node4" class="node">
<title>Node4</title>
<g id="a_node4"><a xlink:href="structe57_1_1_rigid_body_transform.html" target="_top" xlink:title="Defines a rigid body transform in cartesian coordinates.">
<polygon fill="white" stroke="black" points="267,-445.36 267,-464.36 397,-464.36 397,-445.36 267,-445.36"/>
<text text-anchor="middle" x="332" y="-452.36" font-family="Helvetica,sans-Serif" font-size="10.00">e57::RigidBodyTransform</text>
</a>
</g>
</g>
<!-- Node4&#45;&gt;Node1 -->
<g id="edge3" class="edge">
<title>Node4&#45;&gt;Node1</title>
<path fill="none" stroke="#9a32cd" stroke-dasharray="5,2" d="M407.38,-453.98C459.95,-450.24 530.18,-438.69 583,-405.86 608.67,-389.9 626.99,-357.77 634.99,-341.61"/>
<polygon fill="#9a32cd" stroke="#9a32cd" points="406.87,-450.5 397.11,-454.62 407.31,-457.49 406.87,-450.5"/>
<text text-anchor="middle" x="511.5" y="-452.86" font-family="Helvetica,sans-Serif" font-size="10.00"> pose</text>
</g>
<!-- Node5 -->
<g id="node5" class="node">
<title>Node5</title>
<g id="a_node5"><a xlink:href="structe57_1_1_quaternion.html" target="_top" xlink:title="Represents a rigid body rotation.">
<polygon fill="white" stroke="black" points="0,-445.36 0,-464.36 88,-464.36 88,-445.36 0,-445.36"/>
<text text-anchor="middle" x="44" y="-452.36" font-family="Helvetica,sans-Serif" font-size="10.00">e57::Quaternion</text>
</a>
</g>
</g>
<!-- Node5&#45;&gt;Node4 -->
<g id="edge4" class="edge">
<title>Node5&#45;&gt;Node4</title>
<path fill="none" stroke="#9a32cd" stroke-dasharray="5,2" d="M98.25,-454.86C145.95,-454.86 216.02,-454.86 266.8,-454.86"/>
<polygon fill="#9a32cd" stroke="#9a32cd" points="98.13,-451.36 88.13,-454.86 98.13,-458.36 98.13,-451.36"/>
<text text-anchor="middle" x="165" y="-457.86" font-family="Helvetica,sans-Serif" font-size="10.00"> rotation</text>
</g>
<!-- Node6 -->
<g id="node6" class="node">
<title>Node6</title>
<g id="a_node6"><a xlink:href="structe57_1_1_translation.html" target="_top" xlink:title="Defines a rigid body translation in Cartesian coordinates.">
<polygon fill="white" stroke="black" points="0,-483.36 0,-502.36 88,-502.36 88,-483.36 0,-483.36"/>
<text text-anchor="middle" x="44" y="-490.36" font-family="Helvetica,sans-Serif" font-size="10.00">e57::Translation</text>
</a>
</g>
</g>
<!-- Node6&#45;&gt;Node4 -->
<g id="edge5" class="edge">
<title>Node6&#45;&gt;Node4</title>
<path fill="none" stroke="#9a32cd" stroke-dasharray="5,2" d="M98.23,-486.18C133.84,-481.67 181.75,-475.53 224,-469.86 237.85,-468 252.7,-465.95 266.8,-463.98"/>
<polygon fill="#9a32cd" stroke="#9a32cd" points="97.54,-482.74 88.06,-487.46 98.42,-489.68 97.54,-482.74"/>
<text text-anchor="middle" x="165" y="-486.86" font-family="Helvetica,sans-Serif" font-size="10.00"> translation</text>
</g>
<!-- Node7&#45;&gt;Node1 -->
<g id="edge6" class="edge">
<title>Node7&#45;&gt;Node1</title>
<path fill="none" stroke="#9a32cd" stroke-dasharray="5,2" d="M432.27,-344.7C489.65,-341.14 558.62,-336.87 600.74,-334.26"/>
<polygon fill="#9a32cd" stroke="#9a32cd" points="431.83,-341.22 422.06,-345.33 432.26,-348.21 431.83,-341.22"/>
<text text-anchor="middle" x="511.5" y="-347.86" font-family="Helvetica,sans-Serif" font-size="10.00"> visualReferenceRepresentation</text>
</g>
<!-- Node8 -->
<g id="node8" class="node">
<title>Node8</title>
<g id="a_node8"><a xlink:title=" ">
<polygon fill="white" stroke="#bfbfbf" points="20.5,-113.36 20.5,-132.36 67.5,-132.36 67.5,-113.36 20.5,-113.36"/>
<text text-anchor="middle" x="44" y="-120.36" font-family="Helvetica,sans-Serif" font-size="10.00">int64_t</text>
</a>
</g>
</g>
<!-- Node8&#45;&gt;Node7 -->
<g id="edge7" class="edge">
<title>Node8&#45;&gt;Node7</title>
<path fill="none" stroke="#9a32cd" stroke-dasharray="5,2" d="M48.68,-142.4C55.13,-171.04 71.22,-224.12 106,-252.86 147.72,-287.32 183.82,-246.61 224,-282.86 241.23,-298.39 224.47,-316.65 242,-331.86 246.42,-335.69 251.41,-338.81 256.74,-341.34"/>
<polygon fill="#9a32cd" stroke="#9a32cd" points="52.07,-141.48 46.61,-132.4 45.21,-142.91 52.07,-141.48"/>
<text text-anchor="middle" x="165" y="-307.86" font-family="Helvetica,sans-Serif" font-size="10.00"> imageMaskSize</text>
<text text-anchor="middle" x="165" y="-296.86" font-family="Helvetica,sans-Serif" font-size="10.00">jpegImageSize</text>
<text text-anchor="middle" x="165" y="-285.86" font-family="Helvetica,sans-Serif" font-size="10.00">pngImageSize</text>
</g>
<!-- Node8&#45;&gt;Node9 -->
<g id="edge10" class="edge">
<title>Node8&#45;&gt;Node9</title>
<path fill="none" stroke="#9a32cd" stroke-dasharray="5,2" d="M70.95,-137.14C81.55,-142.45 94.1,-148.1 106,-151.86 156.72,-167.87 185.24,-135.42 224,-171.86 249.61,-195.93 222.49,-219.62 242,-248.86 258.9,-274.18 289.44,-292.85 309.97,-303.29"/>
<polygon fill="#9a32cd" stroke="#9a32cd" points="72.33,-133.91 61.84,-132.42 69.11,-140.13 72.33,-133.91"/>
<text text-anchor="middle" x="165" y="-196.86" font-family="Helvetica,sans-Serif" font-size="10.00"> imageMaskSize</text>
<text text-anchor="middle" x="165" y="-185.86" font-family="Helvetica,sans-Serif" font-size="10.00">jpegImageSize</text>
<text text-anchor="middle" x="165" y="-174.86" font-family="Helvetica,sans-Serif" font-size="10.00">pngImageSize</text>
</g>
<!-- Node8&#45;&gt;Node10 -->
<g id="edge13" class="edge">
<title>Node8&#45;&gt;Node10</title>
<path fill="none" stroke="#9a32cd" stroke-dasharray="5,2" d="M49.84,-103.54C57.24,-78.61 74.01,-36.27 106,-17.86 151.45,8.31 175.73,2.66 224,-17.86 274.01,-39.11 311.99,-96.45 325.57,-119.29"/>
<polygon fill="#9a32cd" stroke="#9a32cd" points="46.43,-102.76 47.15,-113.33 53.18,-104.61 46.43,-102.76"/>
<text text-anchor="middle" x="165" y="-42.86" font-family="Helvetica,sans-Serif" font-size="10.00"> imageMaskSize</text>
<text text-anchor="middle" x="165" y="-31.86" font-family="Helvetica,sans-Serif" font-size="10.00">jpegImageSize</text>
<text text-anchor="middle" x="165" y="-20.86" font-family="Helvetica,sans-Serif" font-size="10.00">pngImageSize</text>
</g>
<!-- Node8&#45;&gt;Node11 -->
<g id="edge16" class="edge">
<title>Node8&#45;&gt;Node11</title>
<path fill="none" stroke="#9a32cd" stroke-dasharray="5,2" d="M60.23,-105.62C71.56,-94.18 88.09,-80.16 106,-73.86 155.47,-56.45 182.77,-41.45 224,-73.86 250.61,-94.77 224.82,-118.69 242,-147.86 260.77,-179.71 295.8,-206.52 315.86,-220.17"/>
<polygon fill="#9a32cd" stroke="#9a32cd" points="57.59,-103.32 53.27,-113 62.68,-108.12 57.59,-103.32"/>
<text text-anchor="middle" x="165" y="-98.86" font-family="Helvetica,sans-Serif" font-size="10.00"> imageMaskSize</text>
<text text-anchor="middle" x="165" y="-87.86" font-family="Helvetica,sans-Serif" font-size="10.00">jpegImageSize</text>
<text text-anchor="middle" x="165" y="-76.86" font-family="Helvetica,sans-Serif" font-size="10.00">pngImageSize</text>
</g>
<!-- Node9&#45;&gt;Node1 -->
<g id="edge9" class="edge">
<title>Node9&#45;&gt;Node1</title>
<path fill="none" stroke="#9a32cd" stroke-dasharray="5,2" d="M412.46,-312.16C461.71,-312.53 526.2,-314.46 583,-320.86 588.76,-321.5 594.81,-322.42 600.72,-323.46"/>
<polygon fill="#9a32cd" stroke="#9a32cd" points="412.21,-308.66 402.19,-312.1 412.17,-315.66 412.21,-308.66"/>
<text text-anchor="middle" x="511.5" y="-323.86" font-family="Helvetica,sans-Serif" font-size="10.00"> pinholeRepresentation</text>
</g>
<!-- Node10&#45;&gt;Node1 -->
<g id="edge12" class="edge">
<title>Node10&#45;&gt;Node1</title>
<path fill="none" stroke="#9a32cd" stroke-dasharray="5,2" d="M383.77,-141.05C438.16,-156.2 524.54,-186.55 583,-237.86 610.76,-262.22 628.89,-303.64 636.05,-322.27"/>
<polygon fill="#9a32cd" stroke="#9a32cd" points="384.57,-137.64 374,-138.39 382.73,-144.39 384.57,-137.64"/>
<text text-anchor="middle" x="511.5" y="-240.86" font-family="Helvetica,sans-Serif" font-size="10.00"> sphericalRepresentation</text>
</g>
<!-- Node11&#45;&gt;Node1 -->
<g id="edge15" class="edge">
<title>Node11&#45;&gt;Node1</title>
<path fill="none" stroke="#9a32cd" stroke-dasharray="5,2" d="M394.18,-241.55C445.79,-252.56 520.95,-271.36 583,-297.86 598.37,-304.42 614.59,-314.56 625.68,-322.05"/>
<polygon fill="#9a32cd" stroke="#9a32cd" points="394.69,-238.08 384.18,-239.45 393.25,-244.93 394.69,-238.08"/>
<text text-anchor="middle" x="511.5" y="-300.86" font-family="Helvetica,sans-Serif" font-size="10.00"> cylindricalRepresentation</text>
</g>
</g>
</svg>
