<?xml version="1.0" encoding="UTF-8" standalone="no"?>
<!DOCTYPE svg PUBLIC "-//W3C//DTD SVG 1.1//EN"
 "http://www.w3.org/Graphics/SVG/1.1/DTD/svg11.dtd">
<!-- Generated by graphviz version 2.44.0 (20200408.0750)
 -->
<!-- Title: e57::LineGroupRecord Pages: 1 -->
<svg width="357pt" height="117pt"
 viewBox="0.00 0.00 357.00 117.00" xmlns="http://www.w3.org/2000/svg" xmlns:xlink="http://www.w3.org/1999/xlink">
<g id="graph0" class="graph" transform="scale(1 1) rotate(0) translate(4 113)">
<title>e57::LineGroupRecord</title>
<polygon fill="white" stroke="transparent" points="-4,4 -4,-113 353,-113 353,4 -4,4"/>
<!-- Node1 -->
<g id="node1" class="node">
<title>Node1</title>
<g id="a_node1"><a xlink:title="Stores information about a single group of points in a row or column.">
<polygon fill="#bfbfbf" stroke="black" points="130,-0.5 130,-19.5 244,-19.5 244,-0.5 130,-0.5"/>
<text text-anchor="middle" x="187" y="-7.5" font-family="Helvetica,sans-Serif" font-size="10.00">e57::LineGroupRecord</text>
</a>
</g>
</g>
<!-- Node2 -->
<g id="node2" class="node">
<title>Node2</title>
<g id="a_node2"><a xlink:href="structe57_1_1_spherical_bounds.html" target="_top" xlink:title="Stores the bounds of some data in spherical coordinates.">
<polygon fill="white" stroke="black" points="0,-89.5 0,-108.5 112,-108.5 112,-89.5 0,-89.5"/>
<text text-anchor="middle" x="56" y="-96.5" font-family="Helvetica,sans-Serif" font-size="10.00">e57::SphericalBounds</text>
</a>
</g>
</g>
<!-- Node2&#45;&gt;Node1 -->
<g id="edge1" class="edge">
<title>Node2&#45;&gt;Node1</title>
<path fill="none" stroke="#9a32cd" stroke-dasharray="5,2" d="M66.65,-81C75.85,-67.6 90.27,-49.35 107,-38 119.25,-29.69 134.29,-23.74 148.01,-19.57"/>
<polygon fill="#9a32cd" stroke="#9a32cd" points="63.73,-79.08 61.16,-89.36 69.58,-82.93 63.73,-79.08"/>
<text text-anchor="middle" x="145" y="-52" font-family="Helvetica,sans-Serif" font-size="10.00"> sphericalBounds</text>
</g>
<!-- Node3 -->
<g id="node3" class="node">
<title>Node3</title>
<g id="a_node3"><a xlink:href="structe57_1_1_cartesian_bounds.html" target="_top" xlink:title="Specifies an axis&#45;aligned box in local cartesian coordinates.">
<polygon fill="white" stroke="black" points="130.5,-89.5 130.5,-108.5 243.5,-108.5 243.5,-89.5 130.5,-89.5"/>
<text text-anchor="middle" x="187" y="-96.5" font-family="Helvetica,sans-Serif" font-size="10.00">e57::CartesianBounds</text>
</a>
</g>
</g>
<!-- Node3&#45;&gt;Node1 -->
<g id="edge2" class="edge">
<title>Node3&#45;&gt;Node1</title>
<path fill="none" stroke="#9a32cd" stroke-dasharray="5,2" d="M187,-79.19C187,-60.74 187,-33.41 187,-19.62"/>
<polygon fill="#9a32cd" stroke="#9a32cd" points="183.5,-79.34 187,-89.34 190.5,-79.34 183.5,-79.34"/>
<text text-anchor="middle" x="225" y="-52" font-family="Helvetica,sans-Serif" font-size="10.00"> cartesianBounds</text>
</g>
<!-- Node4 -->
<g id="node4" class="node">
<title>Node4</title>
<g id="a_node4"><a xlink:title=" ">
<polygon fill="white" stroke="#bfbfbf" points="263,-89.5 263,-108.5 309,-108.5 309,-89.5 263,-89.5"/>
<text text-anchor="middle" x="286" y="-96.5" font-family="Helvetica,sans-Serif" font-size="10.00">int64_t</text>
</a>
</g>
</g>
<!-- Node4&#45;&gt;Node1 -->
<g id="edge3" class="edge">
<title>Node4&#45;&gt;Node1</title>
<path fill="none" stroke="#9a32cd" stroke-dasharray="5,2" d="M283.48,-79.53C280.78,-66.36 275.23,-49.08 264,-38 255.32,-29.45 243.79,-23.59 232.29,-19.59"/>
<polygon fill="#9a32cd" stroke="#9a32cd" points="280.03,-80.14 285.15,-89.41 286.94,-78.97 280.03,-80.14"/>
<text text-anchor="middle" x="315" y="-63" font-family="Helvetica,sans-Serif" font-size="10.00"> pointCount</text>
<text text-anchor="middle" x="315" y="-52" font-family="Helvetica,sans-Serif" font-size="10.00">idElementValue</text>
<text text-anchor="middle" x="315" y="-41" font-family="Helvetica,sans-Serif" font-size="10.00">startPointIndex</text>
</g>
</g>
</svg>
