<?xml version="1.0" encoding="UTF-8" standalone="no"?>
<!DOCTYPE svg PUBLIC "-//W3C//DTD SVG 1.1//EN"
 "http://www.w3.org/Graphics/SVG/1.1/DTD/svg11.dtd">
<!-- Generated by graphviz version 2.48.0 (20210717.1556)
 -->
<!-- Title: e57::VisualReferenceRepresentation Pages: 1 -->
<svg width="204pt" height="117pt"
 viewBox="0.00 0.00 204.00 117.00" xmlns="http://www.w3.org/2000/svg" xmlns:xlink="http://www.w3.org/1999/xlink">
<g id="graph0" class="graph" transform="scale(1 1) rotate(0) translate(4 113)">
<title>e57::VisualReferenceRepresentation</title>
<polygon fill="white" stroke="transparent" points="-4,4 -4,-113 200,-113 200,4 -4,4"/>
<!-- Node1 -->
<g id="node1" class="node">
<title>Node1</title>
<g id="a_node1"><a xlink:title="Stores an image that is to be used only as a visual reference.">
<polygon fill="#bfbfbf" stroke="black" points="0,-0.5 0,-19.5 180,-19.5 180,-0.5 0,-0.5"/>
<text text-anchor="middle" x="90" y="-7.5" font-family="Helvetica,sans-Serif" font-size="10.00">e57::VisualReferenceRepresentation</text>
</a>
</g>
</g>
<!-- Node2 -->
<g id="node2" class="node">
<title>Node2</title>
<g id="a_node2"><a xlink:title=" ">
<polygon fill="white" stroke="#bfbfbf" points="25.5,-89.5 25.5,-108.5 72.5,-108.5 72.5,-89.5 25.5,-89.5"/>
<text text-anchor="middle" x="49" y="-96.5" font-family="Helvetica,sans-Serif" font-size="10.00">int32_t</text>
</a>
</g>
</g>
<!-- Node2&#45;&gt;Node1 -->
<g id="edge1" class="edge">
<title>Node2&#45;&gt;Node1</title>
<path fill="none" stroke="#9a32cd" stroke-dasharray="5,2" d="M45.01,-79.1C43.39,-66.68 43.23,-50.48 50,-38 54.31,-30.05 62.11,-24 69.68,-19.66"/>
<polygon fill="#9a32cd" stroke="#9a32cd" points="41.61,-79.97 46.76,-89.22 48.51,-78.77 41.61,-79.97"/>
<text text-anchor="middle" x="79.5" y="-57.5" font-family="Helvetica,sans-Serif" font-size="10.00"> imageHeight</text>
<text text-anchor="middle" x="79.5" y="-46.5" font-family="Helvetica,sans-Serif" font-size="10.00">imageWidth</text>
</g>
<!-- Node3 -->
<g id="node3" class="node">
<title>Node3</title>
<g id="a_node3"><a xlink:title=" ">
<polygon fill="white" stroke="#bfbfbf" points="107.5,-89.5 107.5,-108.5 154.5,-108.5 154.5,-89.5 107.5,-89.5"/>
<text text-anchor="middle" x="131" y="-96.5" font-family="Helvetica,sans-Serif" font-size="10.00">int64_t</text>
</a>
</g>
</g>
<!-- Node3&#45;&gt;Node1 -->
<g id="edge2" class="edge">
<title>Node3&#45;&gt;Node1</title>
<path fill="none" stroke="#9a32cd" stroke-dasharray="5,2" d="M125.54,-79.28C121.66,-67.17 115.93,-51.24 109,-38 105.6,-31.5 100.85,-24.75 96.95,-19.63"/>
<polygon fill="#9a32cd" stroke="#9a32cd" points="122.28,-80.61 128.55,-89.15 128.98,-78.57 122.28,-80.61"/>
<text text-anchor="middle" x="159" y="-63" font-family="Helvetica,sans-Serif" font-size="10.00"> imageMaskSize</text>
<text text-anchor="middle" x="159" y="-52" font-family="Helvetica,sans-Serif" font-size="10.00">jpegImageSize</text>
<text text-anchor="middle" x="159" y="-41" font-family="Helvetica,sans-Serif" font-size="10.00">pngImageSize</text>
</g>
</g>
</svg>
