<?xml version="1.0" encoding="UTF-8" standalone="no"?>
<!DOCTYPE svg PUBLIC "-//W3C//DTD SVG 1.1//EN"
 "http://www.w3.org/Graphics/SVG/1.1/DTD/svg11.dtd">
<!-- Generated by graphviz version 2.44.0 (20200408.0750)
 -->
<!-- Title: EmptyPacketHeader Pages: 1 -->
<svg width="223pt" height="106pt"
 viewBox="0.00 0.00 222.50 106.00" xmlns="http://www.w3.org/2000/svg" xmlns:xlink="http://www.w3.org/1999/xlink">
<g id="graph0" class="graph" transform="scale(1 1) rotate(0) translate(4 102)">
<title>EmptyPacketHeader</title>
<polygon fill="white" stroke="transparent" points="-4,4 -4,-102 218.5,-102 218.5,4 -4,4"/>
<!-- Node1 -->
<g id="node1" class="node">
<title>Node1</title>
<g id="a_node1"><a xlink:title=" ">
<polygon fill="#bfbfbf" stroke="black" points="45,-0.5 45,-19.5 152,-19.5 152,-0.5 45,-0.5"/>
<text text-anchor="middle" x="98.5" y="-7.5" font-family="Helvetica,sans-Serif" font-size="10.00">EmptyPacketHeader</text>
</a>
</g>
</g>
<!-- Node2 -->
<g id="node2" class="node">
<title>Node2</title>
<g id="a_node2"><a xlink:title=" ">
<polygon fill="white" stroke="#bfbfbf" points="0,-78.5 0,-97.5 51,-97.5 51,-78.5 0,-78.5"/>
<text text-anchor="middle" x="25.5" y="-85.5" font-family="Helvetica,sans-Serif" font-size="10.00">uint16_t</text>
</a>
</g>
</g>
<!-- Node2&#45;&gt;Node1 -->
<g id="edge1" class="edge">
<title>Node2&#45;&gt;Node1</title>
<path fill="none" stroke="#9a32cd" stroke-dasharray="5,2" d="M21.19,-68.45C19.97,-58.56 20.35,-46.68 26.5,-38 32.6,-29.39 41.79,-23.53 51.58,-19.53"/>
<polygon fill="#9a32cd" stroke="#9a32cd" points="17.78,-69.28 23.02,-78.49 24.67,-68.03 17.78,-69.28"/>
<text text-anchor="middle" x="88.5" y="-46.5" font-family="Helvetica,sans-Serif" font-size="10.00"> packetLogicalLengthMinus1</text>
</g>
<!-- Node3 -->
<g id="node3" class="node">
<title>Node3</title>
<g id="a_node3"><a xlink:title=" ">
<polygon fill="white" stroke="#bfbfbf" points="149.5,-78.5 149.5,-97.5 195.5,-97.5 195.5,-78.5 149.5,-78.5"/>
<text text-anchor="middle" x="172.5" y="-85.5" font-family="Helvetica,sans-Serif" font-size="10.00">uint8_t</text>
</a>
</g>
</g>
<!-- Node3&#45;&gt;Node1 -->
<g id="edge2" class="edge">
<title>Node3&#45;&gt;Node1</title>
<path fill="none" stroke="#9a32cd" stroke-dasharray="5,2" d="M167.51,-68.61C164.05,-58.6 158.59,-46.56 150.5,-38 142.89,-29.94 132.33,-23.85 122.71,-19.51"/>
<polygon fill="#9a32cd" stroke="#9a32cd" points="164.23,-69.86 170.51,-78.4 170.93,-67.81 164.23,-69.86"/>
<text text-anchor="middle" x="189" y="-52" font-family="Helvetica,sans-Serif" font-size="10.00"> reserved1</text>
<text text-anchor="middle" x="189" y="-41" font-family="Helvetica,sans-Serif" font-size="10.00">packetType</text>
</g>
</g>
</svg>
