<?xml version="1.0" encoding="UTF-8" standalone="no"?>
<!DOCTYPE svg PUBLIC "-//W3C//DTD SVG 1.1//EN"
 "http://www.w3.org/Graphics/SVG/1.1/DTD/svg11.dtd">
<!-- Generated by graphviz version 2.44.0 (20200408.0750)
 -->
<!-- Title: e57::Data3DPointsData Pages: 1 -->
<svg width="274pt" height="161pt"
 viewBox="0.00 0.00 273.50 161.00" xmlns="http://www.w3.org/2000/svg" xmlns:xlink="http://www.w3.org/1999/xlink">
<g id="graph0" class="graph" transform="scale(1 1) rotate(0) translate(4 157)">
<title>e57::Data3DPointsData</title>
<polygon fill="white" stroke="transparent" points="-4,4 -4,-157 269.5,-157 269.5,4 -4,4"/>
<!-- Node1 -->
<g id="node1" class="node">
<title>Node1</title>
<g id="a_node1"><a xlink:title="Stores pointers to user&#45;provided buffers.">
<polygon fill="#bfbfbf" stroke="black" points="75,-0.5 75,-19.5 196,-19.5 196,-0.5 75,-0.5"/>
<text text-anchor="middle" x="135.5" y="-7.5" font-family="Helvetica,sans-Serif" font-size="10.00">e57::Data3DPointsData</text>
</a>
</g>
</g>
<!-- Node2 -->
<g id="node2" class="node">
<title>Node2</title>
<g id="a_node2"><a xlink:title=" ">
<polygon fill="white" stroke="#bfbfbf" points="0,-133.5 0,-152.5 41,-152.5 41,-133.5 0,-133.5"/>
<text text-anchor="middle" x="20.5" y="-140.5" font-family="Helvetica,sans-Serif" font-size="10.00">int8_t</text>
</a>
</g>
</g>
<!-- Node2&#45;&gt;Node1 -->
<g id="edge1" class="edge">
<title>Node2&#45;&gt;Node1</title>
<path fill="none" stroke="#9a32cd" stroke-dasharray="5,2" d="M18.43,-123.28C16.97,-100.24 18.25,-61.33 39.5,-38 48.83,-27.76 61.7,-21.28 74.99,-17.22"/>
<polygon fill="#9a32cd" stroke="#9a32cd" points="14.96,-123.78 19.31,-133.44 21.93,-123.17 14.96,-123.78"/>
<text text-anchor="middle" x="85.5" y="-107" font-family="Helvetica,sans-Serif" font-size="10.00"> isIntensityInvalid</text>
<text text-anchor="middle" x="85.5" y="-96" font-family="Helvetica,sans-Serif" font-size="10.00">sphericalInvalidState</text>
<text text-anchor="middle" x="85.5" y="-85" font-family="Helvetica,sans-Serif" font-size="10.00">cartesianInvalidState</text>
<text text-anchor="middle" x="85.5" y="-74" font-family="Helvetica,sans-Serif" font-size="10.00">returnCount</text>
<text text-anchor="middle" x="85.5" y="-63" font-family="Helvetica,sans-Serif" font-size="10.00">isTimeStampInvalid</text>
<text text-anchor="middle" x="85.5" y="-52" font-family="Helvetica,sans-Serif" font-size="10.00">returnIndex</text>
<text text-anchor="middle" x="85.5" y="-41" font-family="Helvetica,sans-Serif" font-size="10.00">isColorInvalid</text>
</g>
<!-- Node3 -->
<g id="node3" class="node">
<title>Node3</title>
<g id="a_node3"><a xlink:title=" ">
<polygon fill="white" stroke="#bfbfbf" points="112.5,-133.5 112.5,-152.5 158.5,-152.5 158.5,-133.5 112.5,-133.5"/>
<text text-anchor="middle" x="135.5" y="-140.5" font-family="Helvetica,sans-Serif" font-size="10.00">uint8_t</text>
</a>
</g>
</g>
<!-- Node3&#45;&gt;Node1 -->
<g id="edge2" class="edge">
<title>Node3&#45;&gt;Node1</title>
<path fill="none" stroke="#9a32cd" stroke-dasharray="5,2" d="M135.5,-123.09C135.5,-94.36 135.5,-40.82 135.5,-19.8"/>
<polygon fill="#9a32cd" stroke="#9a32cd" points="132,-123.4 135.5,-133.4 139,-123.4 132,-123.4"/>
<text text-anchor="middle" x="159.5" y="-85" font-family="Helvetica,sans-Serif" font-size="10.00"> colorRed</text>
<text text-anchor="middle" x="159.5" y="-74" font-family="Helvetica,sans-Serif" font-size="10.00">colorBlue</text>
<text text-anchor="middle" x="159.5" y="-63" font-family="Helvetica,sans-Serif" font-size="10.00">colorGreen</text>
</g>
<!-- Node4 -->
<g id="node4" class="node">
<title>Node4</title>
<g id="a_node4"><a xlink:title=" ">
<polygon fill="white" stroke="#bfbfbf" points="183.5,-133.5 183.5,-152.5 229.5,-152.5 229.5,-133.5 183.5,-133.5"/>
<text text-anchor="middle" x="206.5" y="-140.5" font-family="Helvetica,sans-Serif" font-size="10.00">int32_t</text>
</a>
</g>
</g>
<!-- Node4&#45;&gt;Node1 -->
<g id="edge3" class="edge">
<title>Node4&#45;&gt;Node1</title>
<path fill="none" stroke="#9a32cd" stroke-dasharray="5,2" d="M207.04,-123C206.73,-100.56 203.12,-63.13 184.5,-38 178.43,-29.81 169.09,-23.79 160.19,-19.55"/>
<polygon fill="#9a32cd" stroke="#9a32cd" points="203.54,-123.19 206.97,-133.22 210.54,-123.24 203.54,-123.19"/>
<text text-anchor="middle" x="236" y="-79.5" font-family="Helvetica,sans-Serif" font-size="10.00"> columnIndex</text>
<text text-anchor="middle" x="236" y="-68.5" font-family="Helvetica,sans-Serif" font-size="10.00">rowIndex</text>
</g>
</g>
</svg>
