<?xml version="1.0" encoding="UTF-8" standalone="no"?>
<!DOCTYPE svg PUBLIC "-//W3C//DTD SVG 1.1//EN"
 "http://www.w3.org/Graphics/SVG/1.1/DTD/svg11.dtd">
<!-- Generated by graphviz version 2.44.0 (20200408.0750)
 -->
<!-- Title: e57::E57Root Pages: 1 -->
<svg width="290pt" height="173pt"
 viewBox="0.00 0.00 289.50 173.00" xmlns="http://www.w3.org/2000/svg" xmlns:xlink="http://www.w3.org/1999/xlink">
<g id="graph0" class="graph" transform="scale(1 1) rotate(0) translate(4 169)">
<title>e57::E57Root</title>
<polygon fill="white" stroke="transparent" points="-4,4 -4,-169 285.5,-169 285.5,4 -4,4"/>
<!-- Node1 -->
<g id="node1" class="node">
<title>Node1</title>
<g id="a_node1"><a xlink:title="Stores the top&#45;level information for the XML section of the file.">
<polygon fill="#bfbfbf" stroke="black" points="106,-0.5 106,-19.5 183,-19.5 183,-0.5 106,-0.5"/>
<text text-anchor="middle" x="144.5" y="-7.5" font-family="Helvetica,sans-Serif" font-size="10.00">e57::E57Root</text>
</a>
</g>
</g>
<!-- Node2 -->
<g id="node2" class="node">
<title>Node2</title>
<g id="a_node2"><a xlink:href="structe57_1_1_date_time.html" target="_top" xlink:title="Encodes date and time.">
<polygon fill="white" stroke="black" points="0,-78.5 0,-97.5 81,-97.5 81,-78.5 0,-78.5"/>
<text text-anchor="middle" x="40.5" y="-85.5" font-family="Helvetica,sans-Serif" font-size="10.00">e57::DateTime</text>
</a>
</g>
</g>
<!-- Node2&#45;&gt;Node1 -->
<g id="edge1" class="edge">
<title>Node2&#45;&gt;Node1</title>
<path fill="none" stroke="#9a32cd" stroke-dasharray="5,2" d="M43.63,-68.45C46.25,-58.2 51,-45.98 59.5,-38 72.03,-26.23 89.67,-19.59 105.64,-15.85"/>
<polygon fill="#9a32cd" stroke="#9a32cd" points="40.15,-67.98 41.54,-78.48 47,-69.41 40.15,-67.98"/>
<text text-anchor="middle" x="100" y="-46.5" font-family="Helvetica,sans-Serif" font-size="10.00"> creationDateTime</text>
</g>
<!-- Node3 -->
<g id="node3" class="node">
<title>Node3</title>
<g id="a_node3"><a xlink:title=" ">
<polygon fill="white" stroke="#bfbfbf" points="17.5,-145.5 17.5,-164.5 63.5,-164.5 63.5,-145.5 17.5,-145.5"/>
<text text-anchor="middle" x="40.5" y="-152.5" font-family="Helvetica,sans-Serif" font-size="10.00">int32_t</text>
</a>
</g>
</g>
<!-- Node3&#45;&gt;Node2 -->
<g id="edge2" class="edge">
<title>Node3&#45;&gt;Node2</title>
<path fill="none" stroke="#9a32cd" stroke-dasharray="5,2" d="M40.5,-135.04C40.5,-122.67 40.5,-107.12 40.5,-97.63"/>
<polygon fill="#9a32cd" stroke="#9a32cd" points="37,-135.23 40.5,-145.23 44,-135.23 37,-135.23"/>
<text text-anchor="middle" x="99.5" y="-119" font-family="Helvetica,sans-Serif" font-size="10.00"> isAtomicClockReferenced</text>
</g>
<!-- Node4 -->
<g id="node4" class="node">
<title>Node4</title>
<g id="a_node4"><a xlink:title=" ">
<polygon fill="white" stroke="#bfbfbf" points="119,-78.5 119,-97.5 170,-97.5 170,-78.5 119,-78.5"/>
<text text-anchor="middle" x="144.5" y="-85.5" font-family="Helvetica,sans-Serif" font-size="10.00">uint32_t</text>
</a>
</g>
</g>
<!-- Node4&#45;&gt;Node1 -->
<g id="edge3" class="edge">
<title>Node4&#45;&gt;Node1</title>
<path fill="none" stroke="#9a32cd" stroke-dasharray="5,2" d="M144.5,-68.22C144.5,-52.7 144.5,-31.36 144.5,-19.62"/>
<polygon fill="#9a32cd" stroke="#9a32cd" points="141,-68.28 144.5,-78.28 148,-68.28 141,-68.28"/>
<text text-anchor="middle" x="174" y="-52" font-family="Helvetica,sans-Serif" font-size="10.00"> versionMinor</text>
<text text-anchor="middle" x="174" y="-41" font-family="Helvetica,sans-Serif" font-size="10.00">versionMajor</text>
</g>
<!-- Node5 -->
<g id="node5" class="node">
<title>Node5</title>
<g id="a_node5"><a xlink:title=" ">
<polygon fill="white" stroke="#bfbfbf" points="203.5,-78.5 203.5,-97.5 249.5,-97.5 249.5,-78.5 203.5,-78.5"/>
<text text-anchor="middle" x="226.5" y="-85.5" font-family="Helvetica,sans-Serif" font-size="10.00">int64_t</text>
</a>
</g>
</g>
<!-- Node5&#45;&gt;Node1 -->
<g id="edge4" class="edge">
<title>Node5&#45;&gt;Node1</title>
<path fill="none" stroke="#9a32cd" stroke-dasharray="5,2" d="M221.69,-68.43C218.29,-58.37 212.83,-46.33 204.5,-38 196.26,-29.76 185.07,-23.8 174.57,-19.61"/>
<polygon fill="#9a32cd" stroke="#9a32cd" points="218.42,-69.7 224.61,-78.3 225.13,-67.72 218.42,-69.7"/>
<text text-anchor="middle" x="249.5" y="-52" font-family="Helvetica,sans-Serif" font-size="10.00"> data3DSize</text>
<text text-anchor="middle" x="249.5" y="-41" font-family="Helvetica,sans-Serif" font-size="10.00">images2DSize</text>
</g>
</g>
</svg>
