<?xml version="1.0" encoding="UTF-8" standalone="no"?>
<!DOCTYPE svg PUBLIC "-//W3C//DTD SVG 1.1//EN"
 "http://www.w3.org/Graphics/SVG/1.1/DTD/svg11.dtd">
<!-- Generated by graphviz version 2.48.0 (20210717.1556)
 -->
<!-- Title: e57::PinholeRepresentation Pages: 1 -->
<svg width="180pt" height="117pt"
 viewBox="0.00 0.00 179.50 117.00" xmlns="http://www.w3.org/2000/svg" xmlns:xlink="http://www.w3.org/1999/xlink">
<g id="graph0" class="graph" transform="scale(1 1) rotate(0) translate(4 113)">
<title>e57::PinholeRepresentation</title>
<polygon fill="white" stroke="transparent" points="-4,4 -4,-113 175.5,-113 175.5,4 -4,4"/>
<!-- Node1 -->
<g id="node1" class="node">
<title>Node1</title>
<g id="a_node1"><a xlink:title="Stores an image that is mapped from 3D using the pinhole camera projection model.">
<polygon fill="#bfbfbf" stroke="black" points="1.5,-0.5 1.5,-19.5 141.5,-19.5 141.5,-0.5 1.5,-0.5"/>
<text text-anchor="middle" x="71.5" y="-7.5" font-family="Helvetica,sans-Serif" font-size="10.00">e57::PinholeRepresentation</text>
</a>
</g>
</g>
<!-- Node2 -->
<g id="node2" class="node">
<title>Node2</title>
<g id="a_node2"><a xlink:title=" ">
<polygon fill="white" stroke="#bfbfbf" points="0,-89.5 0,-108.5 47,-108.5 47,-89.5 0,-89.5"/>
<text text-anchor="middle" x="23.5" y="-96.5" font-family="Helvetica,sans-Serif" font-size="10.00">int64_t</text>
</a>
</g>
</g>
<!-- Node2&#45;&gt;Node1 -->
<g id="edge1" class="edge">
<title>Node2&#45;&gt;Node1</title>
<path fill="none" stroke="#9a32cd" stroke-dasharray="5,2" d="M19.22,-78.93C17.47,-66.44 17.29,-50.23 24.5,-38 29.38,-29.73 37.83,-23.77 46.23,-19.58"/>
<polygon fill="#9a32cd" stroke="#9a32cd" points="15.84,-79.93 21.1,-89.13 22.73,-78.66 15.84,-79.93"/>
<text text-anchor="middle" x="61.5" y="-63" font-family="Helvetica,sans-Serif" font-size="10.00"> imageMaskSize</text>
<text text-anchor="middle" x="61.5" y="-52" font-family="Helvetica,sans-Serif" font-size="10.00">jpegImageSize</text>
<text text-anchor="middle" x="61.5" y="-41" font-family="Helvetica,sans-Serif" font-size="10.00">pngImageSize</text>
</g>
<!-- Node3 -->
<g id="node3" class="node">
<title>Node3</title>
<g id="a_node3"><a xlink:title=" ">
<polygon fill="white" stroke="#bfbfbf" points="97,-89.5 97,-108.5 144,-108.5 144,-89.5 97,-89.5"/>
<text text-anchor="middle" x="120.5" y="-96.5" font-family="Helvetica,sans-Serif" font-size="10.00">int32_t</text>
</a>
</g>
</g>
<!-- Node3&#45;&gt;Node1 -->
<g id="edge2" class="edge">
<title>Node3&#45;&gt;Node1</title>
<path fill="none" stroke="#9a32cd" stroke-dasharray="5,2" d="M116.01,-79.64C112.46,-67.25 106.72,-50.87 98.5,-38 94.08,-31.07 87.6,-24.52 82.1,-19.61"/>
<polygon fill="#9a32cd" stroke="#9a32cd" points="112.63,-80.55 118.58,-89.32 119.4,-78.76 112.63,-80.55"/>
<text text-anchor="middle" x="142" y="-57.5" font-family="Helvetica,sans-Serif" font-size="10.00"> imageHeight</text>
<text text-anchor="middle" x="142" y="-46.5" font-family="Helvetica,sans-Serif" font-size="10.00">imageWidth</text>
</g>
</g>
</svg>
