<?xml version="1.0" encoding="UTF-8" standalone="no"?>
<!DOCTYPE svg PUBLIC "-//W3C//DTD SVG 1.1//EN"
 "http://www.w3.org/Graphics/SVG/1.1/DTD/svg11.dtd">
<!-- Generated by graphviz version 2.48.0 (20210717.1556)
 -->
<!-- Title: e57::BlobSectionHeader Pages: 1 -->
<svg width="192pt" height="106pt"
 viewBox="0.00 0.00 192.00 106.00" xmlns="http://www.w3.org/2000/svg" xmlns:xlink="http://www.w3.org/1999/xlink">
<g id="graph0" class="graph" transform="scale(1 1) rotate(0) translate(4 102)">
<title>e57::BlobSectionHeader</title>
<polygon fill="white" stroke="transparent" points="-4,4 -4,-102 188,-102 188,4 -4,4"/>
<!-- Node1 -->
<g id="node1" class="node">
<title>Node1</title>
<g id="a_node1"><a xlink:title=" ">
<polygon fill="#bfbfbf" stroke="black" points="23.5,-0.5 23.5,-19.5 148.5,-19.5 148.5,-0.5 23.5,-0.5"/>
<text text-anchor="middle" x="86" y="-7.5" font-family="Helvetica,sans-Serif" font-size="10.00">e57::BlobSectionHeader</text>
</a>
</g>
</g>
<!-- Node2 -->
<g id="node2" class="node">
<title>Node2</title>
<g id="a_node2"><a xlink:title=" ">
<polygon fill="white" stroke="#bfbfbf" points="0,-78.5 0,-97.5 52,-97.5 52,-78.5 0,-78.5"/>
<text text-anchor="middle" x="26" y="-85.5" font-family="Helvetica,sans-Serif" font-size="10.00">uint64_t</text>
</a>
</g>
</g>
<!-- Node2&#45;&gt;Node1 -->
<g id="edge1" class="edge">
<title>Node2&#45;&gt;Node1</title>
<path fill="none" stroke="#9a32cd" stroke-dasharray="5,2" d="M21.89,-68.27C20.8,-58.5 21.23,-46.79 27,-38 32.63,-29.43 41.71,-23.54 51.08,-19.51"/>
<polygon fill="#9a32cd" stroke="#9a32cd" points="18.46,-68.94 23.57,-78.22 25.36,-67.78 18.46,-68.94"/>
<text text-anchor="middle" x="75.5" y="-46.5" font-family="Helvetica,sans-Serif" font-size="10.00"> sectionLogicalLength</text>
</g>
<!-- Node3 -->
<g id="node3" class="node">
<title>Node3</title>
<g id="a_node3"><a xlink:title=" ">
<polygon fill="white" stroke="#bfbfbf" points="122.5,-78.5 122.5,-97.5 169.5,-97.5 169.5,-78.5 122.5,-78.5"/>
<text text-anchor="middle" x="146" y="-85.5" font-family="Helvetica,sans-Serif" font-size="10.00">uint8_t</text>
</a>
</g>
</g>
<!-- Node3&#45;&gt;Node1 -->
<g id="edge2" class="edge">
<title>Node3&#45;&gt;Node1</title>
<path fill="none" stroke="#9a32cd" stroke-dasharray="5,2" d="M140.41,-68.68C136.8,-58.87 131.39,-47 124,-38 117.94,-30.62 109.39,-24.31 101.94,-19.65"/>
<polygon fill="#9a32cd" stroke="#9a32cd" points="137.13,-69.9 143.63,-78.27 143.77,-67.68 137.13,-69.9"/>
<text text-anchor="middle" x="160" y="-52" font-family="Helvetica,sans-Serif" font-size="10.00"> reserved1</text>
<text text-anchor="middle" x="160" y="-41" font-family="Helvetica,sans-Serif" font-size="10.00">sectionId</text>
</g>
</g>
</svg>
