<?xml version="1.0" encoding="UTF-8" standalone="no"?>
<!DOCTYPE svg PUBLIC "-//W3C//DTD SVG 1.1//EN"
 "http://www.w3.org/Graphics/SVG/1.1/DTD/svg11.dtd">
<!-- Generated by graphviz version 7.0.0 (20221023.0053)
 -->
<!-- Title: e57::BitpackFloatEncoder Pages: 1 -->
<svg width="201pt" height="149pt"
 viewBox="0.00 0.00 201.00 149.00" xmlns="http://www.w3.org/2000/svg" xmlns:xlink="http://www.w3.org/1999/xlink">
<g id="graph0" class="graph" transform="scale(1 1) rotate(0) translate(4 145)">
<title>e57::BitpackFloatEncoder</title>
<!-- Node1 -->
<g id="node1" class="node">
<title>Node1</title>
<g id="a_node1"><a xlink:title=" ">
<polygon fill="#999999" stroke="#666666" points="141.5,-19 12.5,-19 12.5,0 141.5,0 141.5,-19"/>
<text text-anchor="middle" x="77" y="-7" font-family="Helvetica,sans-Serif" font-size="10.00">e57::BitpackFloatEncoder</text>
</a>
</g>
</g>
<!-- Node2 -->
<g id="node2" class="node">
<title>Node2</title>
<g id="a_node2"><a xlink:href="../../d6/d4e/classe57_1_1_bitpack_encoder.html" target="_top" xlink:title=" ">
<polygon fill="white" stroke="#666666" points="130.5,-75 23.5,-75 23.5,-56 130.5,-56 130.5,-75"/>
<text text-anchor="middle" x="77" y="-63" font-family="Helvetica,sans-Serif" font-size="10.00">e57::BitpackEncoder</text>
</a>
</g>
</g>
<!-- Node2&#45;&gt;Node1 -->
<g id="edge1" class="edge">
<title>Node2&#45;&gt;Node1</title>
<path fill="none" stroke="#63b8ff" d="M77,-44.11C77,-35.52 77,-25.97 77,-19.25"/>
<polygon fill="#63b8ff" stroke="#63b8ff" points="73.5,-44.07 77,-54.07 80.5,-44.07 73.5,-44.07"/>
</g>
<!-- Node3 -->
<g id="node3" class="node">
<title>Node3</title>
<g id="a_node3"><a xlink:href="../../d1/d09/classe57_1_1_encoder.html" target="_top" xlink:title=" ">
<polygon fill="white" stroke="#666666" points="74,-141 0,-141 0,-122 74,-122 74,-141"/>
<text text-anchor="middle" x="37" y="-129" font-family="Helvetica,sans-Serif" font-size="10.00">e57::Encoder</text>
</a>
</g>
</g>
<!-- Node3&#45;&gt;Node2 -->
<g id="edge2" class="edge">
<title>Node3&#45;&gt;Node2</title>
<path fill="none" stroke="#63b8ff" d="M48.54,-112.03C56.09,-99.96 65.59,-84.75 71.49,-75.32"/>
<polygon fill="#63b8ff" stroke="#63b8ff" points="45.7,-109.98 43.36,-120.32 51.63,-113.69 45.7,-109.98"/>
</g>
<!-- Node4 -->
<g id="node4" class="node">
<title>Node4</title>
<g id="a_node4"><a xlink:title=" ">
<polygon fill="white" stroke="#666666" points="143.5,-141 92.5,-141 92.5,-122 143.5,-122 143.5,-141"/>
<text text-anchor="middle" x="118" y="-129" font-family="Helvetica,sans-Serif" font-size="10.00">uint64_t</text>
</a>
</g>
</g>
<!-- Node4&#45;&gt;Node2 -->
<g id="edge3" class="edge">
<title>Node4&#45;&gt;Node2</title>
<path fill="none" stroke="#9a32cd" stroke-dasharray="5,2" d="M106.17,-112.03C98.44,-99.96 88.69,-84.75 82.65,-75.32"/>
<polygon fill="#9a32cd" stroke="#9a32cd" points="103.14,-113.79 111.48,-120.33 109.04,-110.02 103.14,-113.79"/>
<text text-anchor="middle" x="146" y="-96" font-family="Helvetica,sans-Serif" font-size="10.00"> currentRecordIndex_</text>
</g>
</g>
</svg>
