<?xml version="1.0" encoding="UTF-8" standalone="no"?>
<!DOCTYPE svg PUBLIC "-//W3C//DTD SVG 1.1//EN"
 "http://www.w3.org/Graphics/SVG/1.1/DTD/svg11.dtd">
<!-- Generated by graphviz version 8.1.0 (20230707.0739)
 -->
<!-- Title: FloatNode.cpp Pages: 1 -->
<svg width="206pt" height="83pt"
 viewBox="0.00 0.00 206.25 82.50" xmlns="http://www.w3.org/2000/svg" xmlns:xlink="http://www.w3.org/1999/xlink">
<g id="graph0" class="graph" transform="scale(1 1) rotate(0) translate(4 78.5)">
<title>FloatNode.cpp</title>
<!-- Node1 -->
<g id="node1" class="node">
<title>Node1</title>
<g id="a_node1"><a xlink:title=" ">
<polygon fill="#999999" stroke="#666666" points="137.88,-74.5 58.12,-74.5 58.12,-55.25 137.88,-55.25 137.88,-74.5"/>
<text text-anchor="middle" x="98" y="-61" font-family="Helvetica,sans-Serif" font-size="10.00">FloatNode.cpp</text>
</a>
</g>
</g>
<!-- Node2 -->
<g id="node2" class="node">
<title>Node2</title>
<g id="a_node2"><a xlink:title=" ">
<polygon fill="#e0e0e0" stroke="#999999" points="88,-19.25 0,-19.25 0,0 88,0 88,-19.25"/>
<text text-anchor="middle" x="44" y="-5.75" font-family="Helvetica,sans-Serif" font-size="10.00">FloatNodeImpl.h</text>
</a>
</g>
</g>
<!-- Node1&#45;&gt;Node2 -->
<g id="edge1" class="edge">
<title>Node1&#45;&gt;Node2</title>
<path fill="none" stroke="#63b8ff" d="M89.08,-55.08C81.39,-47.5 70.07,-36.34 60.7,-27.1"/>
<polygon fill="#63b8ff" stroke="#63b8ff" points="63.69,-25.14 54.11,-20.61 58.77,-30.12 63.69,-25.14"/>
</g>
<!-- Node3 -->
<g id="node3" class="node">
<title>Node3</title>
<g id="a_node3"><a xlink:title=" ">
<polygon fill="#e0e0e0" stroke="#999999" points="198.25,-19.25 105.75,-19.25 105.75,0 198.25,0 198.25,-19.25"/>
<text text-anchor="middle" x="152" y="-5.75" font-family="Helvetica,sans-Serif" font-size="10.00">StringFunctions.h</text>
</a>
</g>
</g>
<!-- Node1&#45;&gt;Node3 -->
<g id="edge2" class="edge">
<title>Node1&#45;&gt;Node3</title>
<path fill="none" stroke="#63b8ff" d="M106.92,-55.08C114.61,-47.5 125.93,-36.34 135.3,-27.1"/>
<polygon fill="#63b8ff" stroke="#63b8ff" points="137.23,-30.12 141.89,-20.61 132.31,-25.14 137.23,-30.12"/>
</g>
</g>
</svg>
