<?xml version="1.0" encoding="UTF-8" standalone="no"?>
<!DOCTYPE svg PUBLIC "-//W3C//DTD SVG 1.1//EN"
 "http://www.w3.org/Graphics/SVG/1.1/DTD/svg11.dtd">
<!-- Generated by graphviz version 9.0.0 (20230911.1827)
 -->
<!-- Title: e57::PinholeRepresentation Pages: 1 -->
<svg width="176pt" height="116pt"
 viewBox="0.00 0.00 176.38 116.25" xmlns="http://www.w3.org/2000/svg" xmlns:xlink="http://www.w3.org/1999/xlink">
<g id="graph0" class="graph" transform="scale(1 1) rotate(0) translate(4 112.25)">
<title>e57::PinholeRepresentation</title>
<!-- Node1 -->
<g id="node1" class="node">
<title>Node1</title>
<g id="a_node1"><a xlink:title="Stores an image that is mapped from 3D using the pinhole camera projection model.">
<polygon fill="#999999" stroke="#666666" points="138.62,-19.25 2.62,-19.25 2.62,0 138.62,0 138.62,-19.25"/>
<text text-anchor="middle" x="70.62" y="-5.75" font-family="Helvetica,sans-Serif" font-size="10.00">e57::PinholeRepresentation</text>
</a>
</g>
</g>
<!-- Node2 -->
<g id="node2" class="node">
<title>Node2</title>
<g id="a_node2"><a xlink:title=" ">
<polygon fill="white" stroke="#666666" points="45.25,-108.25 0,-108.25 0,-89 45.25,-89 45.25,-108.25"/>
<text text-anchor="middle" x="22.62" y="-94.75" font-family="Helvetica,sans-Serif" font-size="10.00">int64_t</text>
</a>
</g>
</g>
<!-- Node2&#45;&gt;Node1 -->
<g id="edge1" class="edge">
<title>Node2&#45;&gt;Node1</title>
<path fill="none" stroke="#9a32cd" stroke-dasharray="5,2" d="M18.29,-77.64C16.68,-65.18 16.72,-49.28 23.88,-37.25 28.56,-29.38 36.51,-23.64 44.53,-19.54"/>
<polygon fill="#9a32cd" stroke="#9a32cd" points="14.79,-77.96 19.98,-87.2 21.69,-76.74 14.79,-77.96"/>
<text text-anchor="middle" x="61" y="-61.5" font-family="Helvetica,sans-Serif" font-size="10.00"> imageMaskSize</text>
<text text-anchor="middle" x="61" y="-50.25" font-family="Helvetica,sans-Serif" font-size="10.00">jpegImageSize</text>
<text text-anchor="middle" x="61" y="-39" font-family="Helvetica,sans-Serif" font-size="10.00">pngImageSize</text>
</g>
<!-- Node3 -->
<g id="node3" class="node">
<title>Node3</title>
<g id="a_node3"><a xlink:title=" ">
<polygon fill="white" stroke="#666666" points="141.25,-108.25 96,-108.25 96,-89 141.25,-89 141.25,-108.25"/>
<text text-anchor="middle" x="118.62" y="-94.75" font-family="Helvetica,sans-Serif" font-size="10.00">int32_t</text>
</a>
</g>
</g>
<!-- Node3&#45;&gt;Node1 -->
<g id="edge2" class="edge">
<title>Node3&#45;&gt;Node1</title>
<path fill="none" stroke="#9a32cd" stroke-dasharray="5,2" d="M113.78,-78.04C110.2,-65.73 104.55,-49.86 96.62,-37.25 92.5,-30.69 86.53,-24.43 81.35,-19.63"/>
<polygon fill="#9a32cd" stroke="#9a32cd" points="110.33,-78.69 116.3,-87.45 117.09,-76.88 110.33,-78.69"/>
<text text-anchor="middle" x="139.5" y="-55.88" font-family="Helvetica,sans-Serif" font-size="10.00"> imageHeight</text>
<text text-anchor="middle" x="139.5" y="-44.62" font-family="Helvetica,sans-Serif" font-size="10.00">imageWidth</text>
</g>
</g>
</svg>
