<svg height="115pt" viewBox="0 0 177 115" width="177pt" xmlns="http://www.w3.org/2000/svg"><g transform="translate(4 111)"><a xlink:title="Stores an image that is mapped from 3D using the pinhole camera projection model."><path d="m139.5-19h-137v19h137z" fill="#999" stroke="#666"/><text font-family="Helvetica,sans-Serif" font-size="10" text-anchor="middle" x="71" y="-7">e57::PinholeRepresentation</text></a><a xlink:title=""><path d="m46-107h-46v19h46z" fill="#fff" stroke="#666"/><text font-family="Helvetica,sans-Serif" font-size="10" text-anchor="middle" x="23" y="-95">int64_t</text></a><g><path d="m18.73-77.57c-1.75 12.39-1.93 28.47 5.27 40.57 4.79 8.05 13.01 13.85 21.25 17.94" fill="none" stroke="#9a32cd" stroke-dasharray="5 2"/><path d="m15.34-78.5 5.26-9.2 1.62 10.47z" fill="#9a32cd" stroke="#9a32cd"/><g font-family="Helvetica,sans-Serif" font-size="10" text-anchor="middle"><text x="60.5" y="-62">imageMaskSize</text><text x="60.5" y="-51">jpegImageSize</text><text x="60.5" y="-40">pngImageSize</text></g></g><a xlink:title=""><path d="m142-107h-46v19h46z" fill="#fff" stroke="#666"/><text font-family="Helvetica,sans-Serif" font-size="10" text-anchor="middle" x="119" y="-95">int32_t</text></a><g><path d="m114.34-77.95c-3.59 12.23-9.3 28.27-17.34 40.95-4.21 6.64-10.31 12.97-15.55 17.78" fill="none" stroke="#9a32cd" stroke-dasharray="5 2"/><path d="m111.04-79.17 6-8.74.76 10.57z" fill="#9a32cd" stroke="#9a32cd"/><g font-family="Helvetica,sans-Serif" font-size="10" text-anchor="middle"><text x="140" y="-56.5">imageHeight</text><text x="140" y="-45.5">imageWidth</text></g></g></g></svg>