<?xml version="1.0" encoding="UTF-8" standalone="no"?>
<!DOCTYPE svg PUBLIC "-//W3C//DTD SVG 1.1//EN"
 "http://www.w3.org/Graphics/SVG/1.1/DTD/svg11.dtd">
<!-- Generated by graphviz version 7.0.0 (20221023.0053)
 -->
<!-- Title: ScaledIntegerNodeImpl.h Pages: 1 -->
<svg width="577pt" height="82pt"
 viewBox="0.00 0.00 577.00 82.00" xmlns="http://www.w3.org/2000/svg" xmlns:xlink="http://www.w3.org/1999/xlink">
<g id="graph0" class="graph" transform="scale(1 1) rotate(0) translate(4 78)">
<title>ScaledIntegerNodeImpl.h</title>
<!-- Node1 -->
<g id="node1" class="node">
<title>Node1</title>
<g id="a_node1"><a xlink:title=" ">
<polygon fill="#999999" stroke="#666666" points="305,-74 178,-74 178,-55 305,-55 305,-74"/>
<text text-anchor="middle" x="241.5" y="-62" font-family="Helvetica,sans-Serif" font-size="10.00">ScaledIntegerNodeImpl.h</text>
</a>
</g>
</g>
<!-- Node2 -->
<g id="node2" class="node">
<title>Node2</title>
<g id="a_node2"><a xlink:href="../../d0/dfe/_decoder_8cpp.html" target="_top" xlink:title=" ">
<polygon fill="white" stroke="#666666" points="71,-19 0,-19 0,0 71,0 71,-19"/>
<text text-anchor="middle" x="35.5" y="-7" font-family="Helvetica,sans-Serif" font-size="10.00">Decoder.cpp</text>
</a>
</g>
</g>
<!-- Node1&#45;&gt;Node2 -->
<g id="edge1" class="edge">
<title>Node1&#45;&gt;Node2</title>
<path fill="none" stroke="#63b8ff" d="M195.8,-51.74C157.89,-41.99 104.79,-28.33 70.27,-19.45"/>
<polygon fill="#63b8ff" stroke="#63b8ff" points="194.53,-55.03 205.09,-54.13 196.28,-48.25 194.53,-55.03"/>
</g>
<!-- Node3 -->
<g id="node3" class="node">
<title>Node3</title>
<g id="a_node3"><a xlink:href="../../da/d44/_e57_xml_parser_8cpp.html" target="_top" xlink:title=" ">
<polygon fill="white" stroke="#666666" points="187.5,-19 89.5,-19 89.5,0 187.5,0 187.5,-19"/>
<text text-anchor="middle" x="138.5" y="-7" font-family="Helvetica,sans-Serif" font-size="10.00">E57XmlParser.cpp</text>
</a>
</g>
</g>
<!-- Node1&#45;&gt;Node3 -->
<g id="edge2" class="edge">
<title>Node1&#45;&gt;Node3</title>
<path fill="none" stroke="#63b8ff" d="M213.84,-49.27C195.33,-39.74 171.56,-27.51 155.71,-19.36"/>
<polygon fill="#63b8ff" stroke="#63b8ff" points="212.19,-52.35 222.68,-53.82 215.39,-46.13 212.19,-52.35"/>
</g>
<!-- Node4 -->
<g id="node4" class="node">
<title>Node4</title>
<g id="a_node4"><a xlink:href="../../d8/d08/_encoder_8cpp.html" target="_top" xlink:title=" ">
<polygon fill="white" stroke="#666666" points="277,-19 206,-19 206,0 277,0 277,-19"/>
<text text-anchor="middle" x="241.5" y="-7" font-family="Helvetica,sans-Serif" font-size="10.00">Encoder.cpp</text>
</a>
</g>
</g>
<!-- Node1&#45;&gt;Node4 -->
<g id="edge3" class="edge">
<title>Node1&#45;&gt;Node4</title>
<path fill="none" stroke="#63b8ff" d="M241.5,-43.35C241.5,-35.1 241.5,-25.97 241.5,-19.44"/>
<polygon fill="#63b8ff" stroke="#63b8ff" points="238,-43.23 241.5,-53.23 245,-43.23 238,-43.23"/>
</g>
<!-- Node5 -->
<g id="node5" class="node">
<title>Node5</title>
<g id="a_node5"><a xlink:href="../../da/d49/_scaled_integer_node_8cpp.html" target="_top" xlink:title=" ">
<polygon fill="white" stroke="#666666" points="414,-19 295,-19 295,0 414,0 414,-19"/>
<text text-anchor="middle" x="354.5" y="-7" font-family="Helvetica,sans-Serif" font-size="10.00">ScaledIntegerNode.cpp</text>
</a>
</g>
</g>
<!-- Node1&#45;&gt;Node5 -->
<g id="edge4" class="edge">
<title>Node1&#45;&gt;Node5</title>
<path fill="none" stroke="#63b8ff" d="M270.99,-49.67C291.42,-40.09 317.99,-27.62 335.61,-19.36"/>
<polygon fill="#63b8ff" stroke="#63b8ff" points="269.61,-46.45 262.04,-53.87 272.58,-52.79 269.61,-46.45"/>
</g>
<!-- Node6 -->
<g id="node6" class="node">
<title>Node6</title>
<g id="a_node6"><a xlink:href="../../d1/dfa/_scaled_integer_node_impl_8cpp.html" target="_top" xlink:title=" ">
<polygon fill="white" stroke="#666666" points="569,-19 432,-19 432,0 569,0 569,-19"/>
<text text-anchor="middle" x="500.5" y="-7" font-family="Helvetica,sans-Serif" font-size="10.00">ScaledIntegerNodeImpl.cpp</text>
</a>
</g>
</g>
<!-- Node1&#45;&gt;Node6 -->
<g id="edge5" class="edge">
<title>Node1&#45;&gt;Node6</title>
<path fill="none" stroke="#63b8ff" d="M296.51,-52.24C344.32,-42.46 412.64,-28.48 456.78,-19.45"/>
<polygon fill="#63b8ff" stroke="#63b8ff" points="296.01,-48.77 286.92,-54.21 297.42,-55.63 296.01,-48.77"/>
</g>
</g>
</svg>
