<?xml version="1.0" encoding="UTF-8" standalone="no"?>
<!DOCTYPE svg PUBLIC "-//W3C//DTD SVG 1.1//EN"
 "http://www.w3.org/Graphics/SVG/1.1/DTD/svg11.dtd">
<!-- Generated by graphviz version 7.0.0 (20221023.0053)
 -->
<!-- Title: SourceDestBufferImpl.cpp Pages: 1 -->
<svg width="542pt" height="302pt"
 viewBox="0.00 0.00 542.00 302.00" xmlns="http://www.w3.org/2000/svg" xmlns:xlink="http://www.w3.org/1999/xlink">
<g id="graph0" class="graph" transform="scale(1 1) rotate(0) translate(4 298)">
<title>SourceDestBufferImpl.cpp</title>
<!-- Node1 -->
<g id="node1" class="node">
<title>Node1</title>
<g id="a_node1"><a xlink:title=" ">
<polygon fill="#999999" stroke="#666666" points="303,-294 171,-294 171,-275 303,-275 303,-294"/>
<text text-anchor="middle" x="237" y="-282" font-family="Helvetica,sans-Serif" font-size="10.00">SourceDestBufferImpl.cpp</text>
</a>
</g>
</g>
<!-- Node2 -->
<g id="node2" class="node">
<title>Node2</title>
<g id="a_node2"><a xlink:title=" ">
<polygon fill="#e0e0e0" stroke="#999999" points="115,-239 71,-239 71,-220 115,-220 115,-239"/>
<text text-anchor="middle" x="93" y="-227" font-family="Helvetica,sans-Serif" font-size="10.00">cmath</text>
</a>
</g>
</g>
<!-- Node1&#45;&gt;Node2 -->
<g id="edge1" class="edge">
<title>Node1&#45;&gt;Node2</title>
<path fill="none" stroke="#63b8ff" d="M212.57,-274.51C188.7,-265.72 152.2,-252.29 125.81,-242.57"/>
<polygon fill="#63b8ff" stroke="#63b8ff" points="127.19,-239.36 116.6,-239.19 124.78,-245.92 127.19,-239.36"/>
</g>
<!-- Node3 -->
<g id="node3" class="node">
<title>Node3</title>
<g id="a_node3"><a xlink:href="../../da/d09/_image_file_impl_8h.html" target="_top" xlink:title=" ">
<polygon fill="white" stroke="#666666" points="219,-239 133,-239 133,-220 219,-220 219,-239"/>
<text text-anchor="middle" x="176" y="-227" font-family="Helvetica,sans-Serif" font-size="10.00">ImageFileImpl.h</text>
</a>
</g>
</g>
<!-- Node1&#45;&gt;Node3 -->
<g id="edge2" class="edge">
<title>Node1&#45;&gt;Node3</title>
<path fill="none" stroke="#63b8ff" d="M226.65,-274.51C217.92,-266.93 205.21,-255.88 194.7,-246.75"/>
<polygon fill="#63b8ff" stroke="#63b8ff" points="197.18,-244.27 187.34,-240.35 192.59,-249.55 197.18,-244.27"/>
</g>
<!-- Node16 -->
<g id="node16" class="node">
<title>Node16</title>
<g id="a_node16"><a xlink:href="../../d4/d90/_source_dest_buffer_impl_8h.html" target="_top" xlink:title=" ">
<polygon fill="white" stroke="#666666" points="359,-239 237,-239 237,-220 359,-220 359,-239"/>
<text text-anchor="middle" x="298" y="-227" font-family="Helvetica,sans-Serif" font-size="10.00">SourceDestBufferImpl.h</text>
</a>
</g>
</g>
<!-- Node1&#45;&gt;Node16 -->
<g id="edge18" class="edge">
<title>Node1&#45;&gt;Node16</title>
<path fill="none" stroke="#63b8ff" d="M247.35,-274.51C256.08,-266.93 268.79,-255.88 279.3,-246.75"/>
<polygon fill="#63b8ff" stroke="#63b8ff" points="281.41,-249.55 286.66,-240.35 276.82,-244.27 281.41,-249.55"/>
</g>
<!-- Node17 -->
<g id="node17" class="node">
<title>Node17</title>
<g id="a_node17"><a xlink:href="../../db/d42/_string_functions_8h.html" target="_top" xlink:title=" ">
<polygon fill="white" stroke="#666666" points="491.5,-74 398.5,-74 398.5,-55 491.5,-55 491.5,-74"/>
<text text-anchor="middle" x="445" y="-62" font-family="Helvetica,sans-Serif" font-size="10.00">StringFunctions.h</text>
</a>
</g>
</g>
<!-- Node1&#45;&gt;Node17 -->
<g id="edge20" class="edge">
<title>Node1&#45;&gt;Node17</title>
<path fill="none" stroke="#63b8ff" d="M294.87,-274.58C319.84,-268.22 347.87,-257.39 368,-239 414.37,-196.64 434.38,-121.18 441.57,-85.39"/>
<polygon fill="#63b8ff" stroke="#63b8ff" points="445,-86.1 443.39,-75.62 438.12,-84.81 445,-86.1"/>
</g>
<!-- Node4 -->
<g id="node4" class="node">
<title>Node4</title>
<g id="a_node4"><a xlink:title=" ">
<polygon fill="#e0e0e0" stroke="#999999" points="52,-74 0,-74 0,-55 52,-55 52,-74"/>
<text text-anchor="middle" x="26" y="-62" font-family="Helvetica,sans-Serif" font-size="10.00">memory</text>
</a>
</g>
</g>
<!-- Node3&#45;&gt;Node4 -->
<g id="edge3" class="edge">
<title>Node3&#45;&gt;Node4</title>
<path fill="none" stroke="#63b8ff" d="M167.94,-219.74C144.03,-193.76 73.23,-116.83 41.59,-82.44"/>
<polygon fill="#63b8ff" stroke="#63b8ff" points="44.48,-80.41 35.13,-75.42 39.33,-85.15 44.48,-80.41"/>
</g>
<!-- Node5 -->
<g id="node5" class="node">
<title>Node5</title>
<g id="a_node5"><a xlink:href="../../db/d1f/_common_8h.html" target="_top" xlink:title=" ">
<polygon fill="white" stroke="#666666" points="308.5,-184 243.5,-184 243.5,-165 308.5,-165 308.5,-184"/>
<text text-anchor="middle" x="276" y="-172" font-family="Helvetica,sans-Serif" font-size="10.00">Common.h</text>
</a>
</g>
</g>
<!-- Node3&#45;&gt;Node5 -->
<g id="edge4" class="edge">
<title>Node3&#45;&gt;Node5</title>
<path fill="none" stroke="#63b8ff" d="M192.96,-219.51C208.36,-211.35 231.31,-199.19 249.19,-189.71"/>
<polygon fill="#63b8ff" stroke="#63b8ff" points="250.75,-192.84 257.95,-185.07 247.47,-186.66 250.75,-192.84"/>
</g>
<!-- Node6 -->
<g id="node6" class="node">
<title>Node6</title>
<g id="a_node6"><a xlink:title=" ">
<polygon fill="#e0e0e0" stroke="#999999" points="200,-129 170,-129 170,-110 200,-110 200,-129"/>
<text text-anchor="middle" x="185" y="-117" font-family="Helvetica,sans-Serif" font-size="10.00">set</text>
</a>
</g>
</g>
<!-- Node5&#45;&gt;Node6 -->
<g id="edge5" class="edge">
<title>Node5&#45;&gt;Node6</title>
<path fill="none" stroke="#63b8ff" d="M260.56,-164.51C246.75,-156.47 226.25,-144.53 210.09,-135.11"/>
<polygon fill="#63b8ff" stroke="#63b8ff" points="211.92,-132.13 201.52,-130.12 208.4,-138.18 211.92,-132.13"/>
</g>
<!-- Node7 -->
<g id="node7" class="node">
<title>Node7</title>
<g id="a_node7"><a xlink:title=" ">
<polygon fill="#e0e0e0" stroke="#999999" points="390.5,-19 349.5,-19 349.5,0 390.5,0 390.5,-19"/>
<text text-anchor="middle" x="370" y="-7" font-family="Helvetica,sans-Serif" font-size="10.00">string</text>
</a>
</g>
</g>
<!-- Node5&#45;&gt;Node7 -->
<g id="edge6" class="edge">
<title>Node5&#45;&gt;Node7</title>
<path fill="none" stroke="#63b8ff" d="M285.3,-164.81C294.24,-156.19 307.86,-142.38 318,-129 335.22,-106.28 339.49,-100.08 351,-74 357.2,-59.95 362.1,-43.28 365.37,-30.55"/>
<polygon fill="#63b8ff" stroke="#63b8ff" points="368.77,-31.39 367.73,-20.84 361.97,-29.74 368.77,-31.39"/>
</g>
<!-- Node8 -->
<g id="node8" class="node">
<title>Node8</title>
<g id="a_node8"><a xlink:title=" ">
<polygon fill="#e0e0e0" stroke="#999999" points="342,-74 298,-74 298,-55 342,-55 342,-74"/>
<text text-anchor="middle" x="320" y="-62" font-family="Helvetica,sans-Serif" font-size="10.00">vector</text>
</a>
</g>
</g>
<!-- Node5&#45;&gt;Node8 -->
<g id="edge7" class="edge">
<title>Node5&#45;&gt;Node8</title>
<path fill="none" stroke="#63b8ff" d="M281.48,-164.55C286.72,-155.73 294.6,-141.77 300,-129 306.07,-114.64 311.3,-97.78 314.88,-85.05"/>
<polygon fill="#63b8ff" stroke="#63b8ff" points="318.16,-86.34 317.4,-75.78 311.4,-84.51 318.16,-86.34"/>
</g>
<!-- Node9 -->
<g id="node9" class="node">
<title>Node9</title>
<g id="a_node9"><a xlink:href="../../d1/df2/_e57_format_8h.html" target="_top" xlink:title="Header file for the E57 API.">
<polygon fill="white" stroke="#666666" points="291.5,-129 218.5,-129 218.5,-110 291.5,-110 291.5,-129"/>
<text text-anchor="middle" x="255" y="-117" font-family="Helvetica,sans-Serif" font-size="10.00">E57Format.h</text>
</a>
</g>
</g>
<!-- Node5&#45;&gt;Node9 -->
<g id="edge8" class="edge">
<title>Node5&#45;&gt;Node9</title>
<path fill="none" stroke="#63b8ff" d="M272.53,-164.75C269.87,-158.04 266.1,-148.52 262.74,-140.02"/>
<polygon fill="#63b8ff" stroke="#63b8ff" points="266.04,-138.86 259.1,-130.85 259.53,-141.44 266.04,-138.86"/>
</g>
<!-- Node9&#45;&gt;Node4 -->
<g id="edge11" class="edge">
<title>Node9&#45;&gt;Node4</title>
<path fill="none" stroke="#63b8ff" d="M218.14,-110.19C181.38,-101.87 123,-88.58 63.49,-74.56"/>
<polygon fill="#63b8ff" stroke="#63b8ff" points="64.37,-71.18 53.84,-72.29 62.77,-77.99 64.37,-71.18"/>
</g>
<!-- Node9&#45;&gt;Node8 -->
<g id="edge12" class="edge">
<title>Node9&#45;&gt;Node8</title>
<path fill="none" stroke="#63b8ff" d="M266.03,-109.51C275.42,-101.85 289.15,-90.66 300.41,-81.47"/>
<polygon fill="#63b8ff" stroke="#63b8ff" points="302.43,-84.35 307.96,-75.31 298,-78.92 302.43,-84.35"/>
</g>
<!-- Node10 -->
<g id="node10" class="node">
<title>Node10</title>
<g id="a_node10"><a xlink:title=" ">
<polygon fill="#e0e0e0" stroke="#999999" points="215.5,-74 174.5,-74 174.5,-55 215.5,-55 215.5,-74"/>
<text text-anchor="middle" x="195" y="-62" font-family="Helvetica,sans-Serif" font-size="10.00">cfloat</text>
</a>
</g>
</g>
<!-- Node9&#45;&gt;Node10 -->
<g id="edge9" class="edge">
<title>Node9&#45;&gt;Node10</title>
<path fill="none" stroke="#63b8ff" d="M244.82,-109.51C236.24,-101.93 223.73,-90.88 213.4,-81.75"/>
<polygon fill="#63b8ff" stroke="#63b8ff" points="215.97,-79.36 206.16,-75.36 211.34,-84.6 215.97,-79.36"/>
</g>
<!-- Node11 -->
<g id="node11" class="node">
<title>Node11</title>
<g id="a_node11"><a xlink:title=" ">
<polygon fill="#e0e0e0" stroke="#999999" points="280,-74 234,-74 234,-55 280,-55 280,-74"/>
<text text-anchor="middle" x="257" y="-62" font-family="Helvetica,sans-Serif" font-size="10.00">cstdint</text>
</a>
</g>
</g>
<!-- Node9&#45;&gt;Node11 -->
<g id="edge10" class="edge">
<title>Node9&#45;&gt;Node11</title>
<path fill="none" stroke="#63b8ff" d="M255.33,-109.75C255.57,-103.27 255.92,-94.16 256.23,-85.9"/>
<polygon fill="#63b8ff" stroke="#63b8ff" points="259.73,-86.08 256.61,-75.95 252.73,-85.82 259.73,-86.08"/>
</g>
<!-- Node12 -->
<g id="node12" class="node">
<title>Node12</title>
<g id="a_node12"><a xlink:href="../../d4/d6e/_e57_exception_8h.html" target="_top" xlink:title="Exception handling for E57 API.">
<polygon fill="white" stroke="#666666" points="156,-74 70,-74 70,-55 156,-55 156,-74"/>
<text text-anchor="middle" x="113" y="-62" font-family="Helvetica,sans-Serif" font-size="10.00">E57Exception.h</text>
</a>
</g>
</g>
<!-- Node9&#45;&gt;Node12 -->
<g id="edge13" class="edge">
<title>Node9&#45;&gt;Node12</title>
<path fill="none" stroke="#63b8ff" d="M230.91,-109.51C207.93,-100.93 173.06,-87.92 147.2,-78.27"/>
<polygon fill="#63b8ff" stroke="#63b8ff" points="148.74,-75.1 138.15,-74.89 146.3,-81.66 148.74,-75.1"/>
</g>
<!-- Node12&#45;&gt;Node7 -->
<g id="edge16" class="edge">
<title>Node12&#45;&gt;Node7</title>
<path fill="none" stroke="#63b8ff" d="M156.31,-54.57C207.76,-43.96 292.38,-26.51 338.18,-17.06"/>
<polygon fill="#63b8ff" stroke="#63b8ff" points="338.64,-20.54 347.73,-15.09 337.22,-13.69 338.64,-20.54"/>
</g>
<!-- Node13 -->
<g id="node13" class="node">
<title>Node13</title>
<g id="a_node13"><a xlink:title=" ">
<polygon fill="#e0e0e0" stroke="#999999" points="184.5,-19 125.5,-19 125.5,0 184.5,0 184.5,-19"/>
<text text-anchor="middle" x="155" y="-7" font-family="Helvetica,sans-Serif" font-size="10.00">exception</text>
</a>
</g>
</g>
<!-- Node12&#45;&gt;Node13 -->
<g id="edge14" class="edge">
<title>Node12&#45;&gt;Node13</title>
<path fill="none" stroke="#63b8ff" d="M119.94,-54.75C125.62,-47.58 133.84,-37.2 140.89,-28.3"/>
<polygon fill="#63b8ff" stroke="#63b8ff" points="143.51,-30.64 146.97,-20.63 138.02,-26.29 143.51,-30.64"/>
</g>
<!-- Node14 -->
<g id="node14" class="node">
<title>Node14</title>
<g id="a_node14"><a xlink:title=" ">
<polygon fill="#e0e0e0" stroke="#999999" points="315,-19 261,-19 261,0 315,0 315,-19"/>
<text text-anchor="middle" x="288" y="-7" font-family="Helvetica,sans-Serif" font-size="10.00">iostream</text>
</a>
</g>
</g>
<!-- Node12&#45;&gt;Node14 -->
<g id="edge15" class="edge">
<title>Node12&#45;&gt;Node14</title>
<path fill="none" stroke="#63b8ff" d="M142.69,-54.51C172.26,-45.55 217.78,-31.77 249.98,-22.02"/>
<polygon fill="#63b8ff" stroke="#63b8ff" points="250.76,-25.44 259.31,-19.19 248.73,-18.74 250.76,-25.44"/>
</g>
<!-- Node15 -->
<g id="node15" class="node">
<title>Node15</title>
<g id="a_node15"><a xlink:title=" ">
<polygon fill="#e0e0e0" stroke="#999999" points="107.5,-19 36.5,-19 36.5,0 107.5,0 107.5,-19"/>
<text text-anchor="middle" x="72" y="-7" font-family="Helvetica,sans-Serif" font-size="10.00">E57Export.h</text>
</a>
</g>
</g>
<!-- Node12&#45;&gt;Node15 -->
<g id="edge17" class="edge">
<title>Node12&#45;&gt;Node15</title>
<path fill="none" stroke="#63b8ff" d="M106.23,-54.75C100.68,-47.58 92.66,-37.2 85.77,-28.3"/>
<polygon fill="#63b8ff" stroke="#63b8ff" points="88.73,-26.41 79.84,-20.64 83.19,-30.69 88.73,-26.41"/>
</g>
<!-- Node16&#45;&gt;Node5 -->
<g id="edge19" class="edge">
<title>Node16&#45;&gt;Node5</title>
<path fill="none" stroke="#63b8ff" d="M294.37,-219.75C291.58,-213.04 287.63,-203.52 284.1,-195.02"/>
<polygon fill="#63b8ff" stroke="#63b8ff" points="287.36,-193.73 280.29,-185.84 280.89,-196.42 287.36,-193.73"/>
</g>
<!-- Node17&#45;&gt;Node7 -->
<g id="edge24" class="edge">
<title>Node17&#45;&gt;Node7</title>
<path fill="none" stroke="#63b8ff" d="M432.28,-54.51C421.22,-46.7 404.96,-35.21 391.83,-25.93"/>
<polygon fill="#63b8ff" stroke="#63b8ff" points="393.96,-23.14 383.77,-20.23 389.92,-28.86 393.96,-23.14"/>
</g>
<!-- Node17&#45;&gt;Node14 -->
<g id="edge22" class="edge">
<title>Node17&#45;&gt;Node14</title>
<path fill="none" stroke="#63b8ff" d="M418.37,-54.51C392.8,-45.88 353.95,-32.76 325.31,-23.1"/>
<polygon fill="#63b8ff" stroke="#63b8ff" points="326.53,-19.81 315.94,-19.93 324.29,-26.45 326.53,-19.81"/>
</g>
<!-- Node18 -->
<g id="node18" class="node">
<title>Node18</title>
<g id="a_node18"><a xlink:title=" ">
<polygon fill="#e0e0e0" stroke="#999999" points="464,-19 414,-19 414,0 464,0 464,-19"/>
<text text-anchor="middle" x="439" y="-7" font-family="Helvetica,sans-Serif" font-size="10.00">iomanip</text>
</a>
</g>
</g>
<!-- Node17&#45;&gt;Node18 -->
<g id="edge21" class="edge">
<title>Node17&#45;&gt;Node18</title>
<path fill="none" stroke="#63b8ff" d="M444.01,-54.75C443.27,-48.19 442.22,-38.95 441.28,-30.6"/>
<polygon fill="#63b8ff" stroke="#63b8ff" points="444.79,-30.49 440.18,-20.95 437.83,-31.28 444.79,-30.49"/>
</g>
<!-- Node19 -->
<g id="node19" class="node">
<title>Node19</title>
<g id="a_node19"><a xlink:title=" ">
<polygon fill="#e0e0e0" stroke="#999999" points="534,-19 482,-19 482,0 534,0 534,-19"/>
<text text-anchor="middle" x="508" y="-7" font-family="Helvetica,sans-Serif" font-size="10.00">sstream</text>
</a>
</g>
</g>
<!-- Node17&#45;&gt;Node19 -->
<g id="edge23" class="edge">
<title>Node17&#45;&gt;Node19</title>
<path fill="none" stroke="#63b8ff" d="M455.69,-54.51C464.7,-46.93 477.83,-35.88 488.68,-26.75"/>
<polygon fill="#63b8ff" stroke="#63b8ff" points="490.91,-29.45 496.31,-20.33 486.41,-24.09 490.91,-29.45"/>
</g>
</g>
</svg>
