<?xml version="1.0" encoding="UTF-8" standalone="no"?>
<!DOCTYPE svg PUBLIC "-//W3C//DTD SVG 1.1//EN"
 "http://www.w3.org/Graphics/SVG/1.1/DTD/svg11.dtd">
<!-- Generated by graphviz version 2.49.0 (20210828.1703)
 -->
<!-- Title: e57::CompressedVectorNodeImpl Pages: 1 -->
<svg width="175pt" height="151pt"
 viewBox="0.00 0.00 175.00 151.00" xmlns="http://www.w3.org/2000/svg" xmlns:xlink="http://www.w3.org/1999/xlink">
<g id="graph0" class="graph" transform="scale(1 1) rotate(0) translate(4 147)">
<title>e57::CompressedVectorNodeImpl</title>
<polygon fill="white" stroke="transparent" points="-4,4 -4,-147 171,-147 171,4 -4,4"/>
<!-- Node1 -->
<g id="node1" class="node">
<title>Node1</title>
<g id="a_node1"><a xlink:title=" ">
<polygon fill="#bfbfbf" stroke="black" points="0,-0.5 0,-19.5 167,-19.5 167,-0.5 0,-0.5"/>
<text text-anchor="middle" x="83.5" y="-7.5" font-family="Helvetica,sans-Serif" font-size="10.00">e57::CompressedVectorNodeImpl</text>
</a>
</g>
</g>
<!-- Node2 -->
<g id="node2" class="node">
<title>Node2</title>
<g id="a_node2"><a xlink:href="../../dc/d60/classe57_1_1_node_impl.html" target="_top" xlink:title=" ">
<polygon fill="white" stroke="black" points="42.5,-56.5 42.5,-75.5 124.5,-75.5 124.5,-56.5 42.5,-56.5"/>
<text text-anchor="middle" x="83.5" y="-63.5" font-family="Helvetica,sans-Serif" font-size="10.00">e57::NodeImpl</text>
</a>
</g>
</g>
<!-- Node2&#45;&gt;Node1 -->
<g id="edge1" class="edge">
<title>Node2&#45;&gt;Node1</title>
<path fill="none" stroke="midnightblue" d="M83.5,-45.8C83.5,-36.91 83.5,-26.78 83.5,-19.75"/>
<polygon fill="midnightblue" stroke="midnightblue" points="80,-46.08 83.5,-56.08 87,-46.08 80,-46.08"/>
</g>
<!-- Node3 -->
<g id="node3" class="node">
<title>Node3</title>
<g id="a_node3"><a xlink:title=" ">
<polygon fill="white" stroke="#bfbfbf" points="22,-112.5 22,-142.5 145,-142.5 145,-112.5 22,-112.5"/>
<text text-anchor="start" x="30" y="-130.5" font-family="Helvetica,sans-Serif" font-size="10.00">std::enable_shared</text>
<text text-anchor="middle" x="83.5" y="-119.5" font-family="Helvetica,sans-Serif" font-size="10.00">_from_this&lt; NodeImpl &gt;</text>
</a>
</g>
</g>
<!-- Node3&#45;&gt;Node2 -->
<g id="edge2" class="edge">
<title>Node3&#45;&gt;Node2</title>
<path fill="none" stroke="midnightblue" d="M83.5,-102.29C83.5,-92.86 83.5,-82.65 83.5,-75.66"/>
<polygon fill="midnightblue" stroke="midnightblue" points="80,-102.4 83.5,-112.4 87,-102.4 80,-102.4"/>
</g>
</g>
</svg>
