<?xml version="1.0" encoding="UTF-8" standalone="no"?>
<!DOCTYPE svg PUBLIC "-//W3C//DTD SVG 1.1//EN"
 "http://www.w3.org/Graphics/SVG/1.1/DTD/svg11.dtd">
<!-- Generated by graphviz version 7.0.0 (20221023.0053)
 -->
<!-- Title: CheckedFile.h Pages: 1 -->
<svg width="1858pt" height="82pt"
 viewBox="0.00 0.00 1857.50 82.00" xmlns="http://www.w3.org/2000/svg" xmlns:xlink="http://www.w3.org/1999/xlink">
<g id="graph0" class="graph" transform="scale(1 1) rotate(0) translate(4 78)">
<title>CheckedFile.h</title>
<!-- Node1 -->
<g id="node1" class="node">
<title>Node1</title>
<g id="a_node1"><a xlink:title=" ">
<polygon fill="#999999" stroke="#666666" points="1037.5,-74 957.5,-74 957.5,-55 1037.5,-55 1037.5,-74"/>
<text text-anchor="middle" x="997.5" y="-62" font-family="Helvetica,sans-Serif" font-size="10.00">CheckedFile.h</text>
</a>
</g>
</g>
<!-- Node2 -->
<g id="node2" class="node">
<title>Node2</title>
<g id="a_node2"><a xlink:href="../../d4/d79/_blob_node_impl_8cpp.html" target="_top" xlink:title=" ">
<polygon fill="white" stroke="#666666" points="97,-19 0,-19 0,0 97,0 97,-19"/>
<text text-anchor="middle" x="48.5" y="-7" font-family="Helvetica,sans-Serif" font-size="10.00">BlobNodeImpl.cpp</text>
</a>
</g>
</g>
<!-- Node1&#45;&gt;Node2 -->
<g id="edge1" class="edge">
<title>Node1&#45;&gt;Node2</title>
<path fill="none" stroke="#63b8ff" d="M946.11,-62.65C809.27,-60.02 424.77,-50.2 106.5,-19 103.46,-18.7 100.34,-18.36 97.19,-17.98"/>
<polygon fill="#63b8ff" stroke="#63b8ff" points="945.86,-66.15 955.92,-62.83 945.99,-59.15 945.86,-66.15"/>
</g>
<!-- Node3 -->
<g id="node3" class="node">
<title>Node3</title>
<g id="a_node3"><a xlink:href="../../de/dc3/_checked_file_8cpp.html" target="_top" xlink:title=" ">
<polygon fill="white" stroke="#666666" points="205.5,-19 115.5,-19 115.5,0 205.5,0 205.5,-19"/>
<text text-anchor="middle" x="160.5" y="-7" font-family="Helvetica,sans-Serif" font-size="10.00">CheckedFile.cpp</text>
</a>
</g>
</g>
<!-- Node1&#45;&gt;Node3 -->
<g id="edge2" class="edge">
<title>Node1&#45;&gt;Node3</title>
<path fill="none" stroke="#63b8ff" d="M945.9,-62.34C820.37,-59.13 489.22,-48.35 214.5,-19 211.67,-18.7 208.76,-18.35 205.83,-17.97"/>
<polygon fill="#63b8ff" stroke="#63b8ff" points="945.45,-65.83 955.53,-62.58 945.62,-58.83 945.45,-65.83"/>
</g>
<!-- Node4 -->
<g id="node4" class="node">
<title>Node4</title>
<g id="a_node4"><a xlink:href="../../db/dd2/_compressed_vector_node_impl_8cpp.html" target="_top" xlink:title=" ">
<polygon fill="white" stroke="#666666" points="385,-19 224,-19 224,0 385,0 385,-19"/>
<text text-anchor="middle" x="304.5" y="-7" font-family="Helvetica,sans-Serif" font-size="10.00">CompressedVectorNodeImpl.cpp</text>
</a>
</g>
</g>
<!-- Node1&#45;&gt;Node4 -->
<g id="edge3" class="edge">
<title>Node1&#45;&gt;Node4</title>
<path fill="none" stroke="#63b8ff" d="M945.83,-60.05C841.54,-52.99 598.46,-36.16 394.5,-19 391.53,-18.75 388.5,-18.49 385.45,-18.22"/>
<polygon fill="#63b8ff" stroke="#63b8ff" points="945.53,-63.53 955.74,-60.71 946,-56.55 945.53,-63.53"/>
</g>
<!-- Node5 -->
<g id="node5" class="node">
<title>Node5</title>
<g id="a_node5"><a xlink:href="../../d5/d8d/_compressed_vector_reader_impl_8cpp.html" target="_top" xlink:title=" ">
<polygon fill="white" stroke="#666666" points="573.5,-19 403.5,-19 403.5,0 573.5,0 573.5,-19"/>
<text text-anchor="middle" x="488.5" y="-7" font-family="Helvetica,sans-Serif" font-size="10.00">CompressedVectorReaderImpl.cpp</text>
</a>
</g>
</g>
<!-- Node1&#45;&gt;Node5 -->
<g id="edge4" class="edge">
<title>Node1&#45;&gt;Node5</title>
<path fill="none" stroke="#63b8ff" d="M945.92,-58.13C858.45,-49.02 680.21,-30.46 573.89,-19.39"/>
<polygon fill="#63b8ff" stroke="#63b8ff" points="945.32,-61.59 955.63,-59.14 946.05,-54.62 945.32,-61.59"/>
</g>
<!-- Node6 -->
<g id="node6" class="node">
<title>Node6</title>
<g id="a_node6"><a xlink:href="../../de/d63/_compressed_vector_writer_impl_8cpp.html" target="_top" xlink:title=" ">
<polygon fill="white" stroke="#666666" points="755.5,-19 591.5,-19 591.5,0 755.5,0 755.5,-19"/>
<text text-anchor="middle" x="673.5" y="-7" font-family="Helvetica,sans-Serif" font-size="10.00">CompressedVectorWriterImpl.cpp</text>
</a>
</g>
</g>
<!-- Node1&#45;&gt;Node6 -->
<g id="edge5" class="edge">
<title>Node1&#45;&gt;Node6</title>
<path fill="none" stroke="#63b8ff" d="M945.76,-55.04C886.34,-45.32 789.25,-29.43 728.49,-19.5"/>
<polygon fill="#63b8ff" stroke="#63b8ff" points="945.19,-58.49 955.63,-56.65 946.32,-51.58 945.19,-58.49"/>
</g>
<!-- Node7 -->
<g id="node7" class="node">
<title>Node7</title>
<g id="a_node7"><a xlink:href="../../da/d44/_e57_xml_parser_8cpp.html" target="_top" xlink:title=" ">
<polygon fill="white" stroke="#666666" points="871.5,-19 773.5,-19 773.5,0 871.5,0 871.5,-19"/>
<text text-anchor="middle" x="822.5" y="-7" font-family="Helvetica,sans-Serif" font-size="10.00">E57XmlParser.cpp</text>
</a>
</g>
</g>
<!-- Node1&#45;&gt;Node7 -->
<g id="edge6" class="edge">
<title>Node1&#45;&gt;Node7</title>
<path fill="none" stroke="#63b8ff" d="M957.01,-51.24C924.93,-41.52 880.86,-28.18 852.04,-19.45"/>
<polygon fill="#63b8ff" stroke="#63b8ff" points="955.78,-54.52 966.37,-54.07 957.81,-47.82 955.78,-54.52"/>
</g>
<!-- Node8 -->
<g id="node8" class="node">
<title>Node8</title>
<g id="a_node8"><a xlink:href="../../d2/d72/_float_node_impl_8cpp.html" target="_top" xlink:title=" ">
<polygon fill="white" stroke="#666666" points="989,-19 890,-19 890,0 989,0 989,-19"/>
<text text-anchor="middle" x="939.5" y="-7" font-family="Helvetica,sans-Serif" font-size="10.00">FloatNodeImpl.cpp</text>
</a>
</g>
</g>
<!-- Node1&#45;&gt;Node8 -->
<g id="edge7" class="edge">
<title>Node1&#45;&gt;Node8</title>
<path fill="none" stroke="#63b8ff" d="M979.24,-46.81C969.28,-37.72 957.36,-26.82 949.19,-19.36"/>
<polygon fill="#63b8ff" stroke="#63b8ff" points="976.8,-49.33 986.54,-53.49 981.52,-44.16 976.8,-49.33"/>
</g>
<!-- Node9 -->
<g id="node9" class="node">
<title>Node9</title>
<g id="a_node9"><a xlink:href="../../d4/d1f/_image_file_impl_8cpp.html" target="_top" xlink:title=" ">
<polygon fill="white" stroke="#666666" points="1104,-19 1007,-19 1007,0 1104,0 1104,-19"/>
<text text-anchor="middle" x="1055.5" y="-7" font-family="Helvetica,sans-Serif" font-size="10.00">ImageFileImpl.cpp</text>
</a>
</g>
</g>
<!-- Node1&#45;&gt;Node9 -->
<g id="edge8" class="edge">
<title>Node1&#45;&gt;Node9</title>
<path fill="none" stroke="#63b8ff" d="M1015.76,-46.81C1025.72,-37.72 1037.64,-26.82 1045.81,-19.36"/>
<polygon fill="#63b8ff" stroke="#63b8ff" points="1013.48,-44.16 1008.46,-53.49 1018.2,-49.33 1013.48,-44.16"/>
</g>
<!-- Node10 -->
<g id="node10" class="node">
<title>Node10</title>
<g id="a_node10"><a xlink:href="../../d0/d54/_integer_node_impl_8cpp.html" target="_top" xlink:title=" ">
<polygon fill="white" stroke="#666666" points="1229,-19 1122,-19 1122,0 1229,0 1229,-19"/>
<text text-anchor="middle" x="1175.5" y="-7" font-family="Helvetica,sans-Serif" font-size="10.00">IntegerNodeImpl.cpp</text>
</a>
</g>
</g>
<!-- Node1&#45;&gt;Node10 -->
<g id="edge9" class="edge">
<title>Node1&#45;&gt;Node10</title>
<path fill="none" stroke="#63b8ff" d="M1038.68,-51.24C1071.31,-41.52 1116.14,-28.18 1145.45,-19.45"/>
<polygon fill="#63b8ff" stroke="#63b8ff" points="1037.73,-47.87 1029.15,-54.08 1039.73,-54.58 1037.73,-47.87"/>
</g>
<!-- Node11 -->
<g id="node11" class="node">
<title>Node11</title>
<g id="a_node11"><a xlink:href="../../d8/dbe/_packet_8cpp.html" target="_top" xlink:title=" ">
<polygon fill="white" stroke="#666666" points="1313.5,-19 1247.5,-19 1247.5,0 1313.5,0 1313.5,-19"/>
<text text-anchor="middle" x="1280.5" y="-7" font-family="Helvetica,sans-Serif" font-size="10.00">Packet.cpp</text>
</a>
</g>
</g>
<!-- Node1&#45;&gt;Node11 -->
<g id="edge10" class="edge">
<title>Node1&#45;&gt;Node11</title>
<path fill="none" stroke="#63b8ff" d="M1048.83,-54.28C1097.66,-45.46 1173.14,-31.65 1238.5,-19 1241.28,-18.46 1244.15,-17.9 1247.04,-17.33"/>
<polygon fill="#63b8ff" stroke="#63b8ff" points="1048.33,-50.82 1039.11,-56.04 1049.58,-57.71 1048.33,-50.82"/>
</g>
<!-- Node12 -->
<g id="node12" class="node">
<title>Node12</title>
<g id="a_node12"><a xlink:href="../../d1/dfa/_scaled_integer_node_impl_8cpp.html" target="_top" xlink:title=" ">
<polygon fill="white" stroke="#666666" points="1469,-19 1332,-19 1332,0 1469,0 1469,-19"/>
<text text-anchor="middle" x="1400.5" y="-7" font-family="Helvetica,sans-Serif" font-size="10.00">ScaledIntegerNodeImpl.cpp</text>
</a>
</g>
</g>
<!-- Node1&#45;&gt;Node12 -->
<g id="edge11" class="edge">
<title>Node1&#45;&gt;Node12</title>
<path fill="none" stroke="#63b8ff" d="M1049.03,-56.72C1121.12,-47.24 1252.2,-30 1332.3,-19.47"/>
<polygon fill="#63b8ff" stroke="#63b8ff" points="1048.95,-53.2 1039.49,-57.98 1049.86,-60.14 1048.95,-53.2"/>
</g>
<!-- Node13 -->
<g id="node13" class="node">
<title>Node13</title>
<g id="a_node13"><a xlink:href="../../d2/d8a/_string_node_impl_8cpp.html" target="_top" xlink:title=" ">
<polygon fill="white" stroke="#666666" points="1590,-19 1487,-19 1487,0 1590,0 1590,-19"/>
<text text-anchor="middle" x="1538.5" y="-7" font-family="Helvetica,sans-Serif" font-size="10.00">StringNodeImpl.cpp</text>
</a>
</g>
</g>
<!-- Node1&#45;&gt;Node13 -->
<g id="edge12" class="edge">
<title>Node1&#45;&gt;Node13</title>
<path fill="none" stroke="#63b8ff" d="M1049.07,-59.55C1137.21,-52.63 1322.46,-37.26 1478.5,-19 1481.22,-18.68 1484,-18.34 1486.81,-17.98"/>
<polygon fill="#63b8ff" stroke="#63b8ff" points="1049,-56.05 1039.3,-60.32 1049.54,-63.03 1049,-56.05"/>
</g>
<!-- Node14 -->
<g id="node14" class="node">
<title>Node14</title>
<g id="a_node14"><a xlink:href="../../de/d17/_structure_node_impl_8cpp.html" target="_top" xlink:title=" ">
<polygon fill="white" stroke="#666666" points="1725,-19 1608,-19 1608,0 1725,0 1725,-19"/>
<text text-anchor="middle" x="1666.5" y="-7" font-family="Helvetica,sans-Serif" font-size="10.00">StructureNodeImpl.cpp</text>
</a>
</g>
</g>
<!-- Node1&#45;&gt;Node14 -->
<g id="edge13" class="edge">
<title>Node1&#45;&gt;Node14</title>
<path fill="none" stroke="#63b8ff" d="M1049.14,-60.6C1153.34,-54.54 1396.18,-39.4 1599.5,-19 1602.18,-18.73 1604.93,-18.44 1607.69,-18.14"/>
<polygon fill="#63b8ff" stroke="#63b8ff" points="1049.01,-57.1 1039.23,-61.17 1049.42,-64.09 1049.01,-57.1"/>
</g>
<!-- Node15 -->
<g id="node15" class="node">
<title>Node15</title>
<g id="a_node15"><a xlink:href="../../dd/d16/_vector_node_impl_8cpp.html" target="_top" xlink:title=" ">
<polygon fill="white" stroke="#666666" points="1849.5,-19 1743.5,-19 1743.5,0 1849.5,0 1849.5,-19"/>
<text text-anchor="middle" x="1796.5" y="-7" font-family="Helvetica,sans-Serif" font-size="10.00">VectorNodeImpl.cpp</text>
</a>
</g>
</g>
<!-- Node1&#45;&gt;Node15 -->
<g id="edge14" class="edge">
<title>Node1&#45;&gt;Node15</title>
<path fill="none" stroke="#63b8ff" d="M1049.33,-61.72C1169.82,-57.3 1478.02,-44.29 1734.5,-19 1737.31,-18.72 1740.19,-18.41 1743.1,-18.08"/>
<polygon fill="#63b8ff" stroke="#63b8ff" points="1049.31,-58.22 1039.44,-62.08 1049.56,-65.22 1049.31,-58.22"/>
</g>
</g>
</svg>
