<?xml version="1.0" encoding="UTF-8" standalone="no"?>
<!DOCTYPE svg PUBLIC "-//W3C//DTD SVG 1.1//EN"
 "http://www.w3.org/Graphics/SVG/1.1/DTD/svg11.dtd">
<!-- Generated by graphviz version 7.0.0 (20221023.0053)
 -->
<!-- Title: Encoder.cpp Pages: 1 -->
<svg width="923pt" height="357pt"
 viewBox="0.00 0.00 923.00 357.00" xmlns="http://www.w3.org/2000/svg" xmlns:xlink="http://www.w3.org/1999/xlink">
<g id="graph0" class="graph" transform="scale(1 1) rotate(0) translate(4 353)">
<title>Encoder.cpp</title>
<!-- Node1 -->
<g id="node1" class="node">
<title>Node1</title>
<g id="a_node1"><a xlink:title=" ">
<polygon fill="#999999" stroke="#666666" points="497.5,-349 426.5,-349 426.5,-330 497.5,-330 497.5,-349"/>
<text text-anchor="middle" x="462" y="-337" font-family="Helvetica,sans-Serif" font-size="10.00">Encoder.cpp</text>
</a>
</g>
</g>
<!-- Node2 -->
<g id="node2" class="node">
<title>Node2</title>
<g id="a_node2"><a xlink:title=" ">
<polygon fill="#e0e0e0" stroke="#999999" points="56,-294 0,-294 0,-275 56,-275 56,-294"/>
<text text-anchor="middle" x="28" y="-282" font-family="Helvetica,sans-Serif" font-size="10.00">algorithm</text>
</a>
</g>
</g>
<!-- Node1&#45;&gt;Node2 -->
<g id="edge1" class="edge">
<title>Node1&#45;&gt;Node2</title>
<path fill="none" stroke="#63b8ff" d="M426.22,-335.87C358.25,-330.57 205.63,-317.26 67.41,-294.22"/>
<polygon fill="#63b8ff" stroke="#63b8ff" points="68.15,-290.8 57.71,-292.58 66.98,-297.7 68.15,-290.8"/>
</g>
<!-- Node3 -->
<g id="node3" class="node">
<title>Node3</title>
<g id="a_node3"><a xlink:title=" ">
<polygon fill="#e0e0e0" stroke="#999999" points="120,-294 74,-294 74,-275 120,-275 120,-294"/>
<text text-anchor="middle" x="97" y="-282" font-family="Helvetica,sans-Serif" font-size="10.00">cstring</text>
</a>
</g>
</g>
<!-- Node1&#45;&gt;Node3 -->
<g id="edge2" class="edge">
<title>Node1&#45;&gt;Node3</title>
<path fill="none" stroke="#63b8ff" d="M426.4,-334.74C366,-328.13 239.72,-313.27 134,-294 133.17,-293.85 132.34,-293.69 131.49,-293.53"/>
<polygon fill="#63b8ff" stroke="#63b8ff" points="132.41,-290.15 121.9,-291.53 130.98,-297 132.41,-290.15"/>
</g>
<!-- Node4 -->
<g id="node4" class="node">
<title>Node4</title>
<g id="a_node4"><a xlink:href="../../da/dbb/_compressed_vector_node_impl_8h.html" target="_top" xlink:title=" ">
<polygon fill="white" stroke="#666666" points="694.5,-294 543.5,-294 543.5,-275 694.5,-275 694.5,-294"/>
<text text-anchor="middle" x="619" y="-282" font-family="Helvetica,sans-Serif" font-size="10.00">CompressedVectorNodeImpl.h</text>
</a>
</g>
</g>
<!-- Node1&#45;&gt;Node4 -->
<g id="edge3" class="edge">
<title>Node1&#45;&gt;Node4</title>
<path fill="none" stroke="#63b8ff" d="M488.63,-329.51C514.2,-320.88 553.05,-307.76 581.69,-298.1"/>
<polygon fill="#63b8ff" stroke="#63b8ff" points="582.71,-301.45 591.06,-294.93 580.47,-294.81 582.71,-301.45"/>
</g>
<!-- Node18 -->
<g id="node18" class="node">
<title>Node18</title>
<g id="a_node18"><a xlink:href="../../df/d4b/_encoder_8h.html" target="_top" xlink:title=" ">
<polygon fill="white" stroke="#666666" points="591,-239 531,-239 531,-220 591,-220 591,-239"/>
<text text-anchor="middle" x="561" y="-227" font-family="Helvetica,sans-Serif" font-size="10.00">Encoder.h</text>
</a>
</g>
</g>
<!-- Node1&#45;&gt;Node18 -->
<g id="edge19" class="edge">
<title>Node1&#45;&gt;Node18</title>
<path fill="none" stroke="#63b8ff" d="M497.74,-337.33C558.57,-334.49 678.16,-325.02 704,-294 709.4,-287.51 709.01,-281.8 704,-275 697.76,-266.52 642.22,-250.97 602.23,-240.68"/>
<polygon fill="#63b8ff" stroke="#63b8ff" points="603.18,-237.31 592.63,-238.24 601.46,-244.1 603.18,-237.31"/>
</g>
<!-- Node19 -->
<g id="node19" class="node">
<title>Node19</title>
<g id="a_node19"><a xlink:href="../../d4/d15/_float_node_impl_8h.html" target="_top" xlink:title=" ">
<polygon fill="white" stroke="#666666" points="265.5,-294 176.5,-294 176.5,-275 265.5,-275 265.5,-294"/>
<text text-anchor="middle" x="221" y="-282" font-family="Helvetica,sans-Serif" font-size="10.00">FloatNodeImpl.h</text>
</a>
</g>
</g>
<!-- Node1&#45;&gt;Node19 -->
<g id="edge21" class="edge">
<title>Node1&#45;&gt;Node19</title>
<path fill="none" stroke="#63b8ff" d="M426.18,-330.62C385.6,-321.7 319.11,-307.08 272.86,-296.91"/>
<polygon fill="#63b8ff" stroke="#63b8ff" points="273.86,-293.54 263.34,-294.81 272.35,-300.38 273.86,-293.54"/>
</g>
<!-- Node20 -->
<g id="node20" class="node">
<title>Node20</title>
<g id="a_node20"><a xlink:href="../../da/d09/_image_file_impl_8h.html" target="_top" xlink:title=" ">
<polygon fill="white" stroke="#666666" points="416,-239 330,-239 330,-220 416,-220 416,-239"/>
<text text-anchor="middle" x="373" y="-227" font-family="Helvetica,sans-Serif" font-size="10.00">ImageFileImpl.h</text>
</a>
</g>
</g>
<!-- Node1&#45;&gt;Node20 -->
<g id="edge23" class="edge">
<title>Node1&#45;&gt;Node20</title>
<path fill="none" stroke="#63b8ff" d="M426.17,-338.65C355.05,-338.11 200.06,-332.43 167,-294 122.89,-242.73 243.72,-232.2 318.6,-230.44"/>
<polygon fill="#63b8ff" stroke="#63b8ff" points="318.29,-233.95 328.22,-230.27 318.16,-226.95 318.29,-233.95"/>
</g>
<!-- Node21 -->
<g id="node21" class="node">
<title>Node21</title>
<g id="a_node21"><a xlink:href="../../d4/d47/_integer_node_impl_8h.html" target="_top" xlink:title=" ">
<polygon fill="white" stroke="#666666" points="380.5,-294 283.5,-294 283.5,-275 380.5,-275 380.5,-294"/>
<text text-anchor="middle" x="332" y="-282" font-family="Helvetica,sans-Serif" font-size="10.00">IntegerNodeImpl.h</text>
</a>
</g>
</g>
<!-- Node1&#45;&gt;Node21 -->
<g id="edge26" class="edge">
<title>Node1&#45;&gt;Node21</title>
<path fill="none" stroke="#63b8ff" d="M439.95,-329.51C419.19,-321.04 387.84,-308.27 364.27,-298.66"/>
<polygon fill="#63b8ff" stroke="#63b8ff" points="365.71,-295.46 355.13,-294.93 363.07,-301.95 365.71,-295.46"/>
</g>
<!-- Node22 -->
<g id="node22" class="node">
<title>Node22</title>
<g id="a_node22"><a xlink:href="../../d7/dbe/_packet_8h.html" target="_top" xlink:title=" ">
<polygon fill="white" stroke="#666666" points="805,-239 749,-239 749,-220 805,-220 805,-239"/>
<text text-anchor="middle" x="777" y="-227" font-family="Helvetica,sans-Serif" font-size="10.00">Packet.h</text>
</a>
</g>
</g>
<!-- Node1&#45;&gt;Node22 -->
<g id="edge28" class="edge">
<title>Node1&#45;&gt;Node22</title>
<path fill="none" stroke="#63b8ff" d="M497.9,-336.2C562.78,-331.48 696.39,-318.97 735,-294 751.29,-283.47 762.71,-264.14 769.48,-249.56"/>
<polygon fill="#63b8ff" stroke="#63b8ff" points="772.63,-251.12 773.33,-240.54 766.19,-248.37 772.63,-251.12"/>
</g>
<!-- Node23 -->
<g id="node23" class="node">
<title>Node23</title>
<g id="a_node23"><a xlink:href="../../d5/dae/_scaled_integer_node_impl_8h.html" target="_top" xlink:title=" ">
<polygon fill="white" stroke="#666666" points="525.5,-294 398.5,-294 398.5,-275 525.5,-275 525.5,-294"/>
<text text-anchor="middle" x="462" y="-282" font-family="Helvetica,sans-Serif" font-size="10.00">ScaledIntegerNodeImpl.h</text>
</a>
</g>
</g>
<!-- Node1&#45;&gt;Node23 -->
<g id="edge32" class="edge">
<title>Node1&#45;&gt;Node23</title>
<path fill="none" stroke="#63b8ff" d="M462,-329.75C462,-323.27 462,-314.16 462,-305.9"/>
<polygon fill="#63b8ff" stroke="#63b8ff" points="465.5,-305.96 462,-295.96 458.5,-305.96 465.5,-305.96"/>
</g>
<!-- Node24 -->
<g id="node24" class="node">
<title>Node24</title>
<g id="a_node24"><a xlink:href="../../d4/d90/_source_dest_buffer_impl_8h.html" target="_top" xlink:title=" ">
<polygon fill="white" stroke="#666666" points="731,-239 609,-239 609,-220 731,-220 731,-239"/>
<text text-anchor="middle" x="670" y="-227" font-family="Helvetica,sans-Serif" font-size="10.00">SourceDestBufferImpl.h</text>
</a>
</g>
</g>
<!-- Node1&#45;&gt;Node24 -->
<g id="edge34" class="edge">
<title>Node1&#45;&gt;Node24</title>
<path fill="none" stroke="#63b8ff" d="M497.91,-337.75C561.8,-335.57 691.15,-327.08 719,-294 732.53,-277.93 713.09,-258.74 694.84,-245.7"/>
<polygon fill="#63b8ff" stroke="#63b8ff" points="696.83,-242.82 686.58,-240.15 692.93,-248.63 696.83,-242.82"/>
</g>
<!-- Node25 -->
<g id="node25" class="node">
<title>Node25</title>
<g id="a_node25"><a xlink:href="../../db/d42/_string_functions_8h.html" target="_top" xlink:title=" ">
<polygon fill="white" stroke="#666666" points="883.5,-74 790.5,-74 790.5,-55 883.5,-55 883.5,-74"/>
<text text-anchor="middle" x="837" y="-62" font-family="Helvetica,sans-Serif" font-size="10.00">StringFunctions.h</text>
</a>
</g>
</g>
<!-- Node1&#45;&gt;Node25 -->
<g id="edge36" class="edge">
<title>Node1&#45;&gt;Node25</title>
<path fill="none" stroke="#63b8ff" d="M497.82,-339.03C555.2,-338.62 670.19,-332.49 758,-294 799.26,-275.91 837,-275.55 837,-230.5 837,-230.5 837,-230.5 837,-173.5 837,-142.92 837,-107.48 837,-85.77"/>
<polygon fill="#63b8ff" stroke="#63b8ff" points="840.5,-85.97 837,-75.97 833.5,-85.97 840.5,-85.97"/>
</g>
<!-- Node5 -->
<g id="node5" class="node">
<title>Node5</title>
<g id="a_node5"><a xlink:href="../../df/d7b/_node_impl_8h.html" target="_top" xlink:title=" ">
<polygon fill="white" stroke="#666666" points="501.5,-239 434.5,-239 434.5,-220 501.5,-220 501.5,-239"/>
<text text-anchor="middle" x="468" y="-227" font-family="Helvetica,sans-Serif" font-size="10.00">NodeImpl.h</text>
</a>
</g>
</g>
<!-- Node4&#45;&gt;Node5 -->
<g id="edge4" class="edge">
<title>Node4&#45;&gt;Node5</title>
<path fill="none" stroke="#63b8ff" d="M593.38,-274.51C568.91,-265.92 531.76,-252.88 504.25,-243.22"/>
<polygon fill="#63b8ff" stroke="#63b8ff" points="505.51,-239.96 494.92,-239.95 503.19,-246.56 505.51,-239.96"/>
</g>
<!-- Node6 -->
<g id="node6" class="node">
<title>Node6</title>
<g id="a_node6"><a xlink:href="../../db/d1f/_common_8h.html" target="_top" xlink:title=" ">
<polygon fill="white" stroke="#666666" points="625.5,-184 560.5,-184 560.5,-165 625.5,-165 625.5,-184"/>
<text text-anchor="middle" x="593" y="-172" font-family="Helvetica,sans-Serif" font-size="10.00">Common.h</text>
</a>
</g>
</g>
<!-- Node5&#45;&gt;Node6 -->
<g id="edge5" class="edge">
<title>Node5&#45;&gt;Node6</title>
<path fill="none" stroke="#63b8ff" d="M489.2,-219.51C509.08,-211.08 539.03,-198.38 561.66,-188.79"/>
<polygon fill="#63b8ff" stroke="#63b8ff" points="562.87,-192.07 570.72,-184.95 560.14,-185.63 562.87,-192.07"/>
</g>
<!-- Node7 -->
<g id="node7" class="node">
<title>Node7</title>
<g id="a_node7"><a xlink:title=" ">
<polygon fill="#e0e0e0" stroke="#999999" points="608,-129 578,-129 578,-110 608,-110 608,-129"/>
<text text-anchor="middle" x="593" y="-117" font-family="Helvetica,sans-Serif" font-size="10.00">set</text>
</a>
</g>
</g>
<!-- Node6&#45;&gt;Node7 -->
<g id="edge6" class="edge">
<title>Node6&#45;&gt;Node7</title>
<path fill="none" stroke="#63b8ff" d="M593,-164.75C593,-158.27 593,-149.16 593,-140.9"/>
<polygon fill="#63b8ff" stroke="#63b8ff" points="596.5,-140.96 593,-130.96 589.5,-140.96 596.5,-140.96"/>
</g>
<!-- Node8 -->
<g id="node8" class="node">
<title>Node8</title>
<g id="a_node8"><a xlink:title=" ">
<polygon fill="#e0e0e0" stroke="#999999" points="656.5,-19 615.5,-19 615.5,0 656.5,0 656.5,-19"/>
<text text-anchor="middle" x="636" y="-7" font-family="Helvetica,sans-Serif" font-size="10.00">string</text>
</a>
</g>
</g>
<!-- Node6&#45;&gt;Node8 -->
<g id="edge7" class="edge">
<title>Node6&#45;&gt;Node8</title>
<path fill="none" stroke="#63b8ff" d="M598.9,-164.7C604.45,-156.01 612.55,-142.13 617,-129 628.29,-95.7 632.95,-54.81 634.82,-30.81"/>
<polygon fill="#63b8ff" stroke="#63b8ff" points="638.31,-31.09 635.49,-20.88 631.32,-30.62 638.31,-31.09"/>
</g>
<!-- Node9 -->
<g id="node9" class="node">
<title>Node9</title>
<g id="a_node9"><a xlink:title=" ">
<polygon fill="#e0e0e0" stroke="#999999" points="772,-74 728,-74 728,-55 772,-55 772,-74"/>
<text text-anchor="middle" x="750" y="-62" font-family="Helvetica,sans-Serif" font-size="10.00">vector</text>
</a>
</g>
</g>
<!-- Node6&#45;&gt;Node9 -->
<g id="edge8" class="edge">
<title>Node6&#45;&gt;Node9</title>
<path fill="none" stroke="#63b8ff" d="M605.85,-164.66C632.53,-146.31 694.22,-103.87 727.6,-80.91"/>
<polygon fill="#63b8ff" stroke="#63b8ff" points="729.47,-83.87 735.73,-75.32 725.5,-78.1 729.47,-83.87"/>
</g>
<!-- Node10 -->
<g id="node10" class="node">
<title>Node10</title>
<g id="a_node10"><a xlink:href="../../d1/df2/_e57_format_8h.html" target="_top" xlink:title="Header file for the E57 API.">
<polygon fill="white" stroke="#666666" points="559.5,-129 486.5,-129 486.5,-110 559.5,-110 559.5,-129"/>
<text text-anchor="middle" x="523" y="-117" font-family="Helvetica,sans-Serif" font-size="10.00">E57Format.h</text>
</a>
</g>
</g>
<!-- Node6&#45;&gt;Node10 -->
<g id="edge9" class="edge">
<title>Node6&#45;&gt;Node10</title>
<path fill="none" stroke="#63b8ff" d="M581.13,-164.51C570.91,-156.77 555.93,-145.43 543.74,-136.2"/>
<polygon fill="#63b8ff" stroke="#63b8ff" points="545.99,-133.52 535.91,-130.27 541.77,-139.1 545.99,-133.52"/>
</g>
<!-- Node10&#45;&gt;Node9 -->
<g id="edge13" class="edge">
<title>Node10&#45;&gt;Node9</title>
<path fill="none" stroke="#63b8ff" d="M559.96,-110.62C597.22,-102.57 656.62,-89.42 716.83,-74.46"/>
<polygon fill="#63b8ff" stroke="#63b8ff" points="717.36,-77.94 726.21,-72.11 715.66,-71.14 717.36,-77.94"/>
</g>
<!-- Node11 -->
<g id="node11" class="node">
<title>Node11</title>
<g id="a_node11"><a xlink:title=" ">
<polygon fill="#e0e0e0" stroke="#999999" points="607.5,-74 566.5,-74 566.5,-55 607.5,-55 607.5,-74"/>
<text text-anchor="middle" x="587" y="-62" font-family="Helvetica,sans-Serif" font-size="10.00">cfloat</text>
</a>
</g>
</g>
<!-- Node10&#45;&gt;Node11 -->
<g id="edge10" class="edge">
<title>Node10&#45;&gt;Node11</title>
<path fill="none" stroke="#63b8ff" d="M533.86,-109.51C543.11,-101.85 556.62,-90.66 567.71,-81.47"/>
<polygon fill="#63b8ff" stroke="#63b8ff" points="569.67,-84.4 575.14,-75.32 565.2,-79.01 569.67,-84.4"/>
</g>
<!-- Node12 -->
<g id="node12" class="node">
<title>Node12</title>
<g id="a_node12"><a xlink:title=" ">
<polygon fill="#e0e0e0" stroke="#999999" points="710,-74 664,-74 664,-55 710,-55 710,-74"/>
<text text-anchor="middle" x="687" y="-62" font-family="Helvetica,sans-Serif" font-size="10.00">cstdint</text>
</a>
</g>
</g>
<!-- Node10&#45;&gt;Node12 -->
<g id="edge11" class="edge">
<title>Node10&#45;&gt;Node12</title>
<path fill="none" stroke="#63b8ff" d="M550.82,-109.51C578.94,-100.42 622.44,-86.36 652.69,-76.59"/>
<polygon fill="#63b8ff" stroke="#63b8ff" points="653.69,-79.94 662.13,-73.54 651.53,-73.28 653.69,-79.94"/>
</g>
<!-- Node13 -->
<g id="node13" class="node">
<title>Node13</title>
<g id="a_node13"><a xlink:title=" ">
<polygon fill="#e0e0e0" stroke="#999999" points="431,-74 379,-74 379,-55 431,-55 431,-74"/>
<text text-anchor="middle" x="405" y="-62" font-family="Helvetica,sans-Serif" font-size="10.00">memory</text>
</a>
</g>
</g>
<!-- Node10&#45;&gt;Node13 -->
<g id="edge12" class="edge">
<title>Node10&#45;&gt;Node13</title>
<path fill="none" stroke="#63b8ff" d="M502.98,-109.51C484.39,-101.16 456.46,-88.61 435.17,-79.05"/>
<polygon fill="#63b8ff" stroke="#63b8ff" points="436.66,-75.88 426.1,-74.98 433.79,-82.27 436.66,-75.88"/>
</g>
<!-- Node14 -->
<g id="node14" class="node">
<title>Node14</title>
<g id="a_node14"><a xlink:href="../../d4/d6e/_e57_exception_8h.html" target="_top" xlink:title="Exception handling for E57 API.">
<polygon fill="white" stroke="#666666" points="548,-74 462,-74 462,-55 548,-55 548,-74"/>
<text text-anchor="middle" x="505" y="-62" font-family="Helvetica,sans-Serif" font-size="10.00">E57Exception.h</text>
</a>
</g>
</g>
<!-- Node10&#45;&gt;Node14 -->
<g id="edge14" class="edge">
<title>Node10&#45;&gt;Node14</title>
<path fill="none" stroke="#63b8ff" d="M520.03,-109.75C517.77,-103.11 514.59,-93.73 511.73,-85.31"/>
<polygon fill="#63b8ff" stroke="#63b8ff" points="515.05,-84.22 508.52,-75.88 508.43,-86.47 515.05,-84.22"/>
</g>
<!-- Node14&#45;&gt;Node8 -->
<g id="edge17" class="edge">
<title>Node14&#45;&gt;Node8</title>
<path fill="none" stroke="#63b8ff" d="M527.22,-54.51C548.52,-45.89 580.87,-32.8 604.76,-23.14"/>
<polygon fill="#63b8ff" stroke="#63b8ff" points="606.04,-26.4 614,-19.4 603.41,-19.91 606.04,-26.4"/>
</g>
<!-- Node15 -->
<g id="node15" class="node">
<title>Node15</title>
<g id="a_node15"><a xlink:title=" ">
<polygon fill="#e0e0e0" stroke="#999999" points="480.5,-19 421.5,-19 421.5,0 480.5,0 480.5,-19"/>
<text text-anchor="middle" x="451" y="-7" font-family="Helvetica,sans-Serif" font-size="10.00">exception</text>
</a>
</g>
</g>
<!-- Node14&#45;&gt;Node15 -->
<g id="edge15" class="edge">
<title>Node14&#45;&gt;Node15</title>
<path fill="none" stroke="#63b8ff" d="M496.08,-54.75C488.55,-47.35 477.53,-36.54 468.27,-27.45"/>
<polygon fill="#63b8ff" stroke="#63b8ff" points="470.78,-25.01 461.19,-20.5 465.88,-30 470.78,-25.01"/>
</g>
<!-- Node16 -->
<g id="node16" class="node">
<title>Node16</title>
<g id="a_node16"><a xlink:title=" ">
<polygon fill="#e0e0e0" stroke="#999999" points="761,-19 707,-19 707,0 761,0 761,-19"/>
<text text-anchor="middle" x="734" y="-7" font-family="Helvetica,sans-Serif" font-size="10.00">iostream</text>
</a>
</g>
</g>
<!-- Node14&#45;&gt;Node16 -->
<g id="edge16" class="edge">
<title>Node14&#45;&gt;Node16</title>
<path fill="none" stroke="#63b8ff" d="M543.85,-54.51C586.19,-44.71 653.51,-29.13 695.65,-19.38"/>
<polygon fill="#63b8ff" stroke="#63b8ff" points="696.4,-22.79 705.36,-17.13 694.82,-15.97 696.4,-22.79"/>
</g>
<!-- Node17 -->
<g id="node17" class="node">
<title>Node17</title>
<g id="a_node17"><a xlink:title=" ">
<polygon fill="#e0e0e0" stroke="#999999" points="569.5,-19 498.5,-19 498.5,0 569.5,0 569.5,-19"/>
<text text-anchor="middle" x="534" y="-7" font-family="Helvetica,sans-Serif" font-size="10.00">E57Export.h</text>
</a>
</g>
</g>
<!-- Node14&#45;&gt;Node17 -->
<g id="edge18" class="edge">
<title>Node14&#45;&gt;Node17</title>
<path fill="none" stroke="#63b8ff" d="M509.79,-54.75C513.54,-47.88 518.91,-38.08 523.63,-29.45"/>
<polygon fill="#63b8ff" stroke="#63b8ff" points="526.65,-31.22 528.38,-20.77 520.51,-27.86 526.65,-31.22"/>
</g>
<!-- Node18&#45;&gt;Node6 -->
<g id="edge20" class="edge">
<title>Node18&#45;&gt;Node6</title>
<path fill="none" stroke="#63b8ff" d="M566.28,-219.75C570.47,-212.81 576.48,-202.86 581.73,-194.16"/>
<polygon fill="#63b8ff" stroke="#63b8ff" points="584.65,-196.11 586.82,-185.74 578.65,-192.49 584.65,-196.11"/>
</g>
<!-- Node19&#45;&gt;Node5 -->
<g id="edge22" class="edge">
<title>Node19&#45;&gt;Node5</title>
<path fill="none" stroke="#63b8ff" d="M262.9,-274.51C307.44,-264.95 377.6,-249.9 423.21,-240.11"/>
<polygon fill="#63b8ff" stroke="#63b8ff" points="423.72,-243.58 432.76,-238.06 422.25,-236.74 423.72,-243.58"/>
</g>
<!-- Node20&#45;&gt;Node6 -->
<g id="edge25" class="edge">
<title>Node20&#45;&gt;Node6</title>
<path fill="none" stroke="#63b8ff" d="M410.32,-219.51C448.67,-210.27 508.36,-195.89 548.99,-186.1"/>
<polygon fill="#63b8ff" stroke="#63b8ff" points="549.8,-189.51 558.7,-183.76 548.16,-182.7 549.8,-189.51"/>
</g>
<!-- Node20&#45;&gt;Node13 -->
<g id="edge24" class="edge">
<title>Node20&#45;&gt;Node13</title>
<path fill="none" stroke="#63b8ff" d="M374.72,-219.74C379.69,-194.42 394.16,-120.72 401.14,-85.16"/>
<polygon fill="#63b8ff" stroke="#63b8ff" points="404.49,-86.28 402.98,-75.79 397.62,-84.93 404.49,-86.28"/>
</g>
<!-- Node21&#45;&gt;Node5 -->
<g id="edge27" class="edge">
<title>Node21&#45;&gt;Node5</title>
<path fill="none" stroke="#63b8ff" d="M355.07,-274.51C376.89,-266.01 409.88,-253.15 434.58,-243.53"/>
<polygon fill="#63b8ff" stroke="#63b8ff" points="435.81,-246.8 443.86,-239.91 433.27,-240.28 435.81,-246.8"/>
</g>
<!-- Node22&#45;&gt;Node6 -->
<g id="edge31" class="edge">
<title>Node22&#45;&gt;Node6</title>
<path fill="none" stroke="#63b8ff" d="M748.65,-220.33C718.27,-211.58 669.72,-197.6 634.92,-187.58"/>
<polygon fill="#63b8ff" stroke="#63b8ff" points="636.18,-184.3 625.6,-184.89 634.24,-191.02 636.18,-184.3"/>
</g>
<!-- Node22&#45;&gt;Node9 -->
<g id="edge30" class="edge">
<title>Node22&#45;&gt;Node9</title>
<path fill="none" stroke="#63b8ff" d="M775.55,-219.74C771.37,-194.53 759.25,-121.36 753.33,-85.62"/>
<polygon fill="#63b8ff" stroke="#63b8ff" points="756.79,-85.09 751.71,-75.8 749.89,-86.24 756.79,-85.09"/>
</g>
<!-- Node22&#45;&gt;Node12 -->
<g id="edge29" class="edge">
<title>Node22&#45;&gt;Node12</title>
<path fill="none" stroke="#63b8ff" d="M772.16,-219.74C758.06,-194.2 716.78,-119.43 697.34,-84.23"/>
<polygon fill="#63b8ff" stroke="#63b8ff" points="700.49,-82.69 692.59,-75.63 694.36,-86.08 700.49,-82.69"/>
</g>
<!-- Node23&#45;&gt;Node5 -->
<g id="edge33" class="edge">
<title>Node23&#45;&gt;Node5</title>
<path fill="none" stroke="#63b8ff" d="M462.99,-274.75C463.73,-268.19 464.78,-258.95 465.72,-250.6"/>
<polygon fill="#63b8ff" stroke="#63b8ff" points="469.17,-251.28 466.82,-240.95 462.21,-250.49 469.17,-251.28"/>
</g>
<!-- Node24&#45;&gt;Node6 -->
<g id="edge35" class="edge">
<title>Node24&#45;&gt;Node6</title>
<path fill="none" stroke="#63b8ff" d="M656.94,-219.51C645.48,-211.62 628.57,-199.98 615.02,-190.65"/>
<polygon fill="#63b8ff" stroke="#63b8ff" points="617.34,-188 607.12,-185.22 613.37,-193.77 617.34,-188"/>
</g>
<!-- Node25&#45;&gt;Node8 -->
<g id="edge40" class="edge">
<title>Node25&#45;&gt;Node8</title>
<path fill="none" stroke="#63b8ff" d="M802.9,-54.51C765.21,-44.57 704.95,-28.68 668.08,-18.96"/>
<polygon fill="#63b8ff" stroke="#63b8ff" points="669.01,-15.59 658.45,-16.42 667.23,-22.35 669.01,-15.59"/>
</g>
<!-- Node25&#45;&gt;Node16 -->
<g id="edge38" class="edge">
<title>Node25&#45;&gt;Node16</title>
<path fill="none" stroke="#63b8ff" d="M819.53,-54.51C803.6,-46.31 779.81,-34.07 761.36,-24.58"/>
<polygon fill="#63b8ff" stroke="#63b8ff" points="763.05,-21.51 752.56,-20.05 759.85,-27.74 763.05,-21.51"/>
</g>
<!-- Node26 -->
<g id="node26" class="node">
<title>Node26</title>
<g id="a_node26"><a xlink:title=" ">
<polygon fill="#e0e0e0" stroke="#999999" points="845,-19 795,-19 795,0 845,0 845,-19"/>
<text text-anchor="middle" x="820" y="-7" font-family="Helvetica,sans-Serif" font-size="10.00">iomanip</text>
</a>
</g>
</g>
<!-- Node25&#45;&gt;Node26 -->
<g id="edge37" class="edge">
<title>Node25&#45;&gt;Node26</title>
<path fill="none" stroke="#63b8ff" d="M834.19,-54.75C832.06,-48.11 829.06,-38.73 826.36,-30.31"/>
<polygon fill="#63b8ff" stroke="#63b8ff" points="829.72,-29.34 823.33,-20.88 823.05,-31.47 829.72,-29.34"/>
</g>
<!-- Node27 -->
<g id="node27" class="node">
<title>Node27</title>
<g id="a_node27"><a xlink:title=" ">
<polygon fill="#e0e0e0" stroke="#999999" points="915,-19 863,-19 863,0 915,0 915,-19"/>
<text text-anchor="middle" x="889" y="-7" font-family="Helvetica,sans-Serif" font-size="10.00">sstream</text>
</a>
</g>
</g>
<!-- Node25&#45;&gt;Node27 -->
<g id="edge39" class="edge">
<title>Node25&#45;&gt;Node27</title>
<path fill="none" stroke="#63b8ff" d="M845.59,-54.75C852.84,-47.35 863.45,-36.54 872.37,-27.45"/>
<polygon fill="#63b8ff" stroke="#63b8ff" points="874.66,-30.11 879.17,-20.52 869.66,-25.21 874.66,-30.11"/>
</g>
</g>
</svg>
