<?xml version="1.0" encoding="UTF-8" standalone="no"?>
<!DOCTYPE svg PUBLIC "-//W3C//DTD SVG 1.1//EN"
 "http://www.w3.org/Graphics/SVG/1.1/DTD/svg11.dtd">
<!-- Generated by graphviz version 7.0.0 (20221023.0053)
 -->
<!-- Title: SectionHeaders.cpp Pages: 1 -->
<svg width="550pt" height="302pt"
 viewBox="0.00 0.00 550.00 302.00" xmlns="http://www.w3.org/2000/svg" xmlns:xlink="http://www.w3.org/1999/xlink">
<g id="graph0" class="graph" transform="scale(1 1) rotate(0) translate(4 298)">
<title>SectionHeaders.cpp</title>
<!-- Node1 -->
<g id="node1" class="node">
<title>Node1</title>
<g id="a_node1"><a xlink:title=" ">
<polygon fill="#999999" stroke="#666666" points="465.5,-294 360.5,-294 360.5,-275 465.5,-275 465.5,-294"/>
<text text-anchor="middle" x="413" y="-282" font-family="Helvetica,sans-Serif" font-size="10.00">SectionHeaders.cpp</text>
</a>
</g>
</g>
<!-- Node2 -->
<g id="node2" class="node">
<title>Node2</title>
<g id="a_node2"><a xlink:href="../../d9/d64/_section_headers_8h.html" target="_top" xlink:title=" ">
<polygon fill="white" stroke="#666666" points="422.5,-239 327.5,-239 327.5,-220 422.5,-220 422.5,-239"/>
<text text-anchor="middle" x="375" y="-227" font-family="Helvetica,sans-Serif" font-size="10.00">SectionHeaders.h</text>
</a>
</g>
</g>
<!-- Node1&#45;&gt;Node2 -->
<g id="edge1" class="edge">
<title>Node1&#45;&gt;Node2</title>
<path fill="none" stroke="#63b8ff" d="M406.73,-274.75C401.64,-267.66 394.3,-257.42 387.97,-248.59"/>
<polygon fill="#63b8ff" stroke="#63b8ff" points="390.96,-246.76 382.29,-240.67 385.28,-250.84 390.96,-246.76"/>
</g>
<!-- Node15 -->
<g id="node15" class="node">
<title>Node15</title>
<g id="a_node15"><a xlink:href="../../db/d42/_string_functions_8h.html" target="_top" xlink:title=" ">
<polygon fill="white" stroke="#666666" points="493.5,-74 400.5,-74 400.5,-55 493.5,-55 493.5,-74"/>
<text text-anchor="middle" x="447" y="-62" font-family="Helvetica,sans-Serif" font-size="10.00">StringFunctions.h</text>
</a>
</g>
</g>
<!-- Node1&#45;&gt;Node15 -->
<g id="edge16" class="edge">
<title>Node1&#45;&gt;Node15</title>
<path fill="none" stroke="#63b8ff" d="M417.81,-274.59C422.3,-265.81 428.78,-251.88 432,-239 445.59,-184.62 447.36,-118.01 447.31,-85.41"/>
<polygon fill="#63b8ff" stroke="#63b8ff" points="450.81,-85.81 447.23,-75.84 443.81,-85.87 450.81,-85.81"/>
</g>
<!-- Node3 -->
<g id="node3" class="node">
<title>Node3</title>
<g id="a_node3"><a xlink:href="../../db/d1f/_common_8h.html" target="_top" xlink:title=" ">
<polygon fill="white" stroke="#666666" points="402.5,-184 337.5,-184 337.5,-165 402.5,-165 402.5,-184"/>
<text text-anchor="middle" x="370" y="-172" font-family="Helvetica,sans-Serif" font-size="10.00">Common.h</text>
</a>
</g>
</g>
<!-- Node2&#45;&gt;Node3 -->
<g id="edge2" class="edge">
<title>Node2&#45;&gt;Node3</title>
<path fill="none" stroke="#63b8ff" d="M374.17,-219.75C373.56,-213.27 372.7,-204.16 371.92,-195.9"/>
<polygon fill="#63b8ff" stroke="#63b8ff" points="375.41,-195.58 370.99,-185.95 368.44,-196.23 375.41,-195.58"/>
</g>
<!-- Node4 -->
<g id="node4" class="node">
<title>Node4</title>
<g id="a_node4"><a xlink:title=" ">
<polygon fill="#e0e0e0" stroke="#999999" points="428,-129 398,-129 398,-110 428,-110 428,-129"/>
<text text-anchor="middle" x="413" y="-117" font-family="Helvetica,sans-Serif" font-size="10.00">set</text>
</a>
</g>
</g>
<!-- Node3&#45;&gt;Node4 -->
<g id="edge3" class="edge">
<title>Node3&#45;&gt;Node4</title>
<path fill="none" stroke="#63b8ff" d="M377.1,-164.75C382.92,-157.58 391.33,-147.2 398.56,-138.3"/>
<polygon fill="#63b8ff" stroke="#63b8ff" points="401.21,-140.59 404.79,-130.62 395.77,-136.18 401.21,-140.59"/>
</g>
<!-- Node5 -->
<g id="node5" class="node">
<title>Node5</title>
<g id="a_node5"><a xlink:title=" ">
<polygon fill="#e0e0e0" stroke="#999999" points="403.5,-19 362.5,-19 362.5,0 403.5,0 403.5,-19"/>
<text text-anchor="middle" x="383" y="-7" font-family="Helvetica,sans-Serif" font-size="10.00">string</text>
</a>
</g>
</g>
<!-- Node3&#45;&gt;Node5 -->
<g id="edge4" class="edge">
<title>Node3&#45;&gt;Node5</title>
<path fill="none" stroke="#63b8ff" d="M370.7,-164.74C372.71,-139.53 378.54,-66.36 381.4,-30.62"/>
<polygon fill="#63b8ff" stroke="#63b8ff" points="384.87,-31.06 382.18,-20.82 377.89,-30.51 384.87,-31.06"/>
</g>
<!-- Node6 -->
<g id="node6" class="node">
<title>Node6</title>
<g id="a_node6"><a xlink:title=" ">
<polygon fill="#e0e0e0" stroke="#999999" points="342,-74 298,-74 298,-55 342,-55 342,-74"/>
<text text-anchor="middle" x="320" y="-62" font-family="Helvetica,sans-Serif" font-size="10.00">vector</text>
</a>
</g>
</g>
<!-- Node3&#45;&gt;Node6 -->
<g id="edge5" class="edge">
<title>Node3&#45;&gt;Node6</title>
<path fill="none" stroke="#63b8ff" d="M365.91,-164.66C357.85,-147.26 339.77,-108.19 328.85,-84.62"/>
<polygon fill="#63b8ff" stroke="#63b8ff" points="332.16,-83.44 324.78,-75.83 325.81,-86.38 332.16,-83.44"/>
</g>
<!-- Node7 -->
<g id="node7" class="node">
<title>Node7</title>
<g id="a_node7"><a xlink:href="../../d1/df2/_e57_format_8h.html" target="_top" xlink:title="Header file for the E57 API.">
<polygon fill="white" stroke="#666666" points="232.5,-129 159.5,-129 159.5,-110 232.5,-110 232.5,-129"/>
<text text-anchor="middle" x="196" y="-117" font-family="Helvetica,sans-Serif" font-size="10.00">E57Format.h</text>
</a>
</g>
</g>
<!-- Node3&#45;&gt;Node7 -->
<g id="edge6" class="edge">
<title>Node3&#45;&gt;Node7</title>
<path fill="none" stroke="#63b8ff" d="M340.48,-164.51C311.77,-155.76 267.95,-142.42 236.09,-132.71"/>
<polygon fill="#63b8ff" stroke="#63b8ff" points="237.4,-129.45 226.82,-129.89 235.36,-136.15 237.4,-129.45"/>
</g>
<!-- Node7&#45;&gt;Node6 -->
<g id="edge10" class="edge">
<title>Node7&#45;&gt;Node6</title>
<path fill="none" stroke="#63b8ff" d="M217.03,-109.51C236.75,-101.08 266.47,-88.38 288.91,-78.79"/>
<polygon fill="#63b8ff" stroke="#63b8ff" points="290.06,-82.1 297.88,-74.95 287.31,-75.66 290.06,-82.1"/>
</g>
<!-- Node8 -->
<g id="node8" class="node">
<title>Node8</title>
<g id="a_node8"><a xlink:title=" ">
<polygon fill="#e0e0e0" stroke="#999999" points="175.5,-74 134.5,-74 134.5,-55 175.5,-55 175.5,-74"/>
<text text-anchor="middle" x="155" y="-62" font-family="Helvetica,sans-Serif" font-size="10.00">cfloat</text>
</a>
</g>
</g>
<!-- Node7&#45;&gt;Node8 -->
<g id="edge7" class="edge">
<title>Node7&#45;&gt;Node8</title>
<path fill="none" stroke="#63b8ff" d="M189.23,-109.75C183.68,-102.58 175.66,-92.2 168.77,-83.3"/>
<polygon fill="#63b8ff" stroke="#63b8ff" points="171.73,-81.41 162.84,-75.64 166.19,-85.69 171.73,-81.41"/>
</g>
<!-- Node9 -->
<g id="node9" class="node">
<title>Node9</title>
<g id="a_node9"><a xlink:title=" ">
<polygon fill="#e0e0e0" stroke="#999999" points="46,-74 0,-74 0,-55 46,-55 46,-74"/>
<text text-anchor="middle" x="23" y="-62" font-family="Helvetica,sans-Serif" font-size="10.00">cstdint</text>
</a>
</g>
</g>
<!-- Node7&#45;&gt;Node9 -->
<g id="edge8" class="edge">
<title>Node7&#45;&gt;Node9</title>
<path fill="none" stroke="#63b8ff" d="M166.65,-109.51C136.3,-100.21 88.95,-85.7 56.99,-75.91"/>
<polygon fill="#63b8ff" stroke="#63b8ff" points="58.41,-72.69 47.82,-73.1 56.36,-79.38 58.41,-72.69"/>
</g>
<!-- Node10 -->
<g id="node10" class="node">
<title>Node10</title>
<g id="a_node10"><a xlink:title=" ">
<polygon fill="#e0e0e0" stroke="#999999" points="116,-74 64,-74 64,-55 116,-55 116,-74"/>
<text text-anchor="middle" x="90" y="-62" font-family="Helvetica,sans-Serif" font-size="10.00">memory</text>
</a>
</g>
</g>
<!-- Node7&#45;&gt;Node10 -->
<g id="edge9" class="edge">
<title>Node7&#45;&gt;Node10</title>
<path fill="none" stroke="#63b8ff" d="M178.02,-109.51C161.55,-101.27 136.91,-88.96 117.89,-79.45"/>
<polygon fill="#63b8ff" stroke="#63b8ff" points="119.58,-76.38 109.07,-75.03 116.45,-82.64 119.58,-76.38"/>
</g>
<!-- Node11 -->
<g id="node11" class="node">
<title>Node11</title>
<g id="a_node11"><a xlink:href="../../d4/d6e/_e57_exception_8h.html" target="_top" xlink:title="Exception handling for E57 API.">
<polygon fill="white" stroke="#666666" points="280,-74 194,-74 194,-55 280,-55 280,-74"/>
<text text-anchor="middle" x="237" y="-62" font-family="Helvetica,sans-Serif" font-size="10.00">E57Exception.h</text>
</a>
</g>
</g>
<!-- Node7&#45;&gt;Node11 -->
<g id="edge11" class="edge">
<title>Node7&#45;&gt;Node11</title>
<path fill="none" stroke="#63b8ff" d="M202.77,-109.75C208.32,-102.58 216.34,-92.2 223.23,-83.3"/>
<polygon fill="#63b8ff" stroke="#63b8ff" points="225.81,-85.69 229.16,-75.64 220.27,-81.41 225.81,-85.69"/>
</g>
<!-- Node11&#45;&gt;Node5 -->
<g id="edge14" class="edge">
<title>Node11&#45;&gt;Node5</title>
<path fill="none" stroke="#63b8ff" d="M261.77,-54.51C286.54,-45.52 324.73,-31.65 351.61,-21.9"/>
<polygon fill="#63b8ff" stroke="#63b8ff" points="352.74,-25.21 360.94,-18.51 350.35,-18.63 352.74,-25.21"/>
</g>
<!-- Node12 -->
<g id="node12" class="node">
<title>Node12</title>
<g id="a_node12"><a xlink:title=" ">
<polygon fill="#e0e0e0" stroke="#999999" points="182.5,-19 123.5,-19 123.5,0 182.5,0 182.5,-19"/>
<text text-anchor="middle" x="153" y="-7" font-family="Helvetica,sans-Serif" font-size="10.00">exception</text>
</a>
</g>
</g>
<!-- Node11&#45;&gt;Node12 -->
<g id="edge12" class="edge">
<title>Node11&#45;&gt;Node12</title>
<path fill="none" stroke="#63b8ff" d="M222.75,-54.51C210.12,-46.54 191.44,-34.75 176.59,-25.38"/>
<polygon fill="#63b8ff" stroke="#63b8ff" points="178.64,-22.54 168.32,-20.17 174.91,-28.46 178.64,-22.54"/>
</g>
<!-- Node13 -->
<g id="node13" class="node">
<title>Node13</title>
<g id="a_node13"><a xlink:title=" ">
<polygon fill="#e0e0e0" stroke="#999999" points="344,-19 290,-19 290,0 344,0 344,-19"/>
<text text-anchor="middle" x="317" y="-7" font-family="Helvetica,sans-Serif" font-size="10.00">iostream</text>
</a>
</g>
</g>
<!-- Node11&#45;&gt;Node13 -->
<g id="edge13" class="edge">
<title>Node11&#45;&gt;Node13</title>
<path fill="none" stroke="#63b8ff" d="M250.57,-54.51C262.48,-46.62 280.05,-34.98 294.13,-25.65"/>
<polygon fill="#63b8ff" stroke="#63b8ff" points="295.96,-28.63 302.37,-20.19 292.1,-22.8 295.96,-28.63"/>
</g>
<!-- Node14 -->
<g id="node14" class="node">
<title>Node14</title>
<g id="a_node14"><a xlink:title=" ">
<polygon fill="#e0e0e0" stroke="#999999" points="271.5,-19 200.5,-19 200.5,0 271.5,0 271.5,-19"/>
<text text-anchor="middle" x="236" y="-7" font-family="Helvetica,sans-Serif" font-size="10.00">E57Export.h</text>
</a>
</g>
</g>
<!-- Node11&#45;&gt;Node14 -->
<g id="edge15" class="edge">
<title>Node11&#45;&gt;Node14</title>
<path fill="none" stroke="#63b8ff" d="M236.83,-54.75C236.71,-48.27 236.54,-39.16 236.38,-30.9"/>
<polygon fill="#63b8ff" stroke="#63b8ff" points="239.89,-30.89 236.2,-20.96 232.89,-31.02 239.89,-30.89"/>
</g>
<!-- Node15&#45;&gt;Node5 -->
<g id="edge20" class="edge">
<title>Node15&#45;&gt;Node5</title>
<path fill="none" stroke="#63b8ff" d="M436.14,-54.51C426.89,-46.85 413.38,-35.66 402.29,-26.47"/>
<polygon fill="#63b8ff" stroke="#63b8ff" points="404.8,-24.01 394.86,-20.32 400.33,-29.4 404.8,-24.01"/>
</g>
<!-- Node15&#45;&gt;Node13 -->
<g id="edge18" class="edge">
<title>Node15&#45;&gt;Node13</title>
<path fill="none" stroke="#63b8ff" d="M424.95,-54.51C404.19,-46.04 372.84,-33.27 349.27,-23.66"/>
<polygon fill="#63b8ff" stroke="#63b8ff" points="350.71,-20.46 340.13,-19.93 348.07,-26.95 350.71,-20.46"/>
</g>
<!-- Node16 -->
<g id="node16" class="node">
<title>Node16</title>
<g id="a_node16"><a xlink:title=" ">
<polygon fill="#e0e0e0" stroke="#999999" points="472,-19 422,-19 422,0 472,0 472,-19"/>
<text text-anchor="middle" x="447" y="-7" font-family="Helvetica,sans-Serif" font-size="10.00">iomanip</text>
</a>
</g>
</g>
<!-- Node15&#45;&gt;Node16 -->
<g id="edge17" class="edge">
<title>Node15&#45;&gt;Node16</title>
<path fill="none" stroke="#63b8ff" d="M447,-54.75C447,-48.27 447,-39.16 447,-30.9"/>
<polygon fill="#63b8ff" stroke="#63b8ff" points="450.5,-30.96 447,-20.96 443.5,-30.96 450.5,-30.96"/>
</g>
<!-- Node17 -->
<g id="node17" class="node">
<title>Node17</title>
<g id="a_node17"><a xlink:title=" ">
<polygon fill="#e0e0e0" stroke="#999999" points="542,-19 490,-19 490,0 542,0 542,-19"/>
<text text-anchor="middle" x="516" y="-7" font-family="Helvetica,sans-Serif" font-size="10.00">sstream</text>
</a>
</g>
</g>
<!-- Node15&#45;&gt;Node17 -->
<g id="edge19" class="edge">
<title>Node15&#45;&gt;Node17</title>
<path fill="none" stroke="#63b8ff" d="M458.7,-54.51C468.78,-46.77 483.54,-35.43 495.56,-26.2"/>
<polygon fill="#63b8ff" stroke="#63b8ff" points="497.47,-29.15 503.27,-20.28 493.21,-23.6 497.47,-29.15"/>
</g>
</g>
</svg>
