<?xml version="1.0" encoding="UTF-8" standalone="no"?>
<!DOCTYPE svg PUBLIC "-//W3C//DTD SVG 1.1//EN"
 "http://www.w3.org/Graphics/SVG/1.1/DTD/svg11.dtd">
<!-- Generated by graphviz version 2.49.0 (20210828.1703)
 -->
<!-- Title: CompressedVectorNodeImpl.h Pages: 1 -->
<svg width="948pt" height="84pt"
 viewBox="0.00 0.00 947.50 84.00" xmlns="http://www.w3.org/2000/svg" xmlns:xlink="http://www.w3.org/1999/xlink">
<g id="graph0" class="graph" transform="scale(1 1) rotate(0) translate(4 80)">
<title>CompressedVectorNodeImpl.h</title>
<polygon fill="white" stroke="transparent" points="-4,4 -4,-80 943.5,-80 943.5,4 -4,4"/>
<!-- Node1 -->
<g id="node1" class="node">
<title>Node1</title>
<g id="a_node1"><a xlink:title=" ">
<polygon fill="#bfbfbf" stroke="black" points="516,-56.5 516,-75.5 669,-75.5 669,-56.5 516,-56.5"/>
<text text-anchor="middle" x="592.5" y="-63.5" font-family="Helvetica,sans-Serif" font-size="10.00">CompressedVectorNodeImpl.h</text>
</a>
</g>
</g>
<!-- Node2 -->
<g id="node2" class="node">
<title>Node2</title>
<g id="a_node2"><a xlink:href="../../db/dd2/_compressed_vector_node_impl_8cpp.html" target="_top" xlink:title=" ">
<polygon fill="white" stroke="black" points="0,-0.5 0,-19.5 163,-19.5 163,-0.5 0,-0.5"/>
<text text-anchor="middle" x="81.5" y="-7.5" font-family="Helvetica,sans-Serif" font-size="10.00">CompressedVectorNodeImpl.cpp</text>
</a>
</g>
</g>
<!-- Node1&#45;&gt;Node2 -->
<g id="edge1" class="edge">
<title>Node1&#45;&gt;Node2</title>
<path fill="none" stroke="midnightblue" d="M506.02,-55.86C409.95,-45.71 256.06,-29.45 162.33,-19.54"/>
<polygon fill="midnightblue" stroke="midnightblue" points="505.69,-59.35 516,-56.92 506.42,-52.38 505.69,-59.35"/>
</g>
<!-- Node3 -->
<g id="node3" class="node">
<title>Node3</title>
<g id="a_node3"><a xlink:href="../../d5/d8d/_compressed_vector_reader_impl_8cpp.html" target="_top" xlink:title=" ">
<polygon fill="white" stroke="black" points="181.5,-0.5 181.5,-19.5 353.5,-19.5 353.5,-0.5 181.5,-0.5"/>
<text text-anchor="middle" x="267.5" y="-7.5" font-family="Helvetica,sans-Serif" font-size="10.00">CompressedVectorReaderImpl.cpp</text>
</a>
</g>
</g>
<!-- Node1&#45;&gt;Node3 -->
<g id="edge2" class="edge">
<title>Node1&#45;&gt;Node3</title>
<path fill="none" stroke="midnightblue" d="M531.06,-54.79C469.64,-44.59 376.3,-29.08 318.76,-19.52"/>
<polygon fill="midnightblue" stroke="midnightblue" points="530.56,-58.26 541,-56.44 531.71,-51.35 530.56,-58.26"/>
</g>
<!-- Node4 -->
<g id="node4" class="node">
<title>Node4</title>
<g id="a_node4"><a xlink:href="../../de/d63/_compressed_vector_writer_impl_8cpp.html" target="_top" xlink:title=" ">
<polygon fill="white" stroke="black" points="371.5,-0.5 371.5,-19.5 537.5,-19.5 537.5,-0.5 371.5,-0.5"/>
<text text-anchor="middle" x="454.5" y="-7.5" font-family="Helvetica,sans-Serif" font-size="10.00">CompressedVectorWriterImpl.cpp</text>
</a>
</g>
</g>
<!-- Node1&#45;&gt;Node4 -->
<g id="edge3" class="edge">
<title>Node1&#45;&gt;Node4</title>
<path fill="none" stroke="midnightblue" d="M561.25,-52.77C535.33,-42.63 499.14,-28.47 476.26,-19.52"/>
<polygon fill="midnightblue" stroke="midnightblue" points="560.05,-56.06 570.63,-56.44 562.6,-49.54 560.05,-56.06"/>
</g>
<!-- Node5 -->
<g id="node5" class="node">
<title>Node5</title>
<g id="a_node5"><a xlink:href="../../d0/dfe/_decoder_8cpp.html" target="_top" xlink:title=" ">
<polygon fill="white" stroke="black" points="556,-0.5 556,-19.5 629,-19.5 629,-0.5 556,-0.5"/>
<text text-anchor="middle" x="592.5" y="-7.5" font-family="Helvetica,sans-Serif" font-size="10.00">Decoder.cpp</text>
</a>
</g>
</g>
<!-- Node1&#45;&gt;Node5 -->
<g id="edge4" class="edge">
<title>Node1&#45;&gt;Node5</title>
<path fill="none" stroke="midnightblue" d="M592.5,-45.8C592.5,-36.91 592.5,-26.78 592.5,-19.75"/>
<polygon fill="midnightblue" stroke="midnightblue" points="589,-46.08 592.5,-56.08 596,-46.08 589,-46.08"/>
</g>
<!-- Node6 -->
<g id="node6" class="node">
<title>Node6</title>
<g id="a_node6"><a xlink:href="../../de/d98/_e57_format_8cpp.html" target="_top" xlink:title=" ">
<polygon fill="white" stroke="black" points="647,-0.5 647,-19.5 732,-19.5 732,-0.5 647,-0.5"/>
<text text-anchor="middle" x="689.5" y="-7.5" font-family="Helvetica,sans-Serif" font-size="10.00">E57Format.cpp</text>
</a>
</g>
</g>
<!-- Node1&#45;&gt;Node6 -->
<g id="edge5" class="edge">
<title>Node1&#45;&gt;Node6</title>
<path fill="none" stroke="midnightblue" d="M616.84,-51.45C634.74,-41.48 658.55,-28.23 673.95,-19.65"/>
<polygon fill="midnightblue" stroke="midnightblue" points="615.12,-48.4 608.08,-56.32 618.52,-54.52 615.12,-48.4"/>
</g>
<!-- Node7 -->
<g id="node7" class="node">
<title>Node7</title>
<g id="a_node7"><a xlink:href="../../da/d44/_e57_xml_parser_8cpp.html" target="_top" xlink:title=" ">
<polygon fill="white" stroke="black" points="750,-0.5 750,-19.5 849,-19.5 849,-0.5 750,-0.5"/>
<text text-anchor="middle" x="799.5" y="-7.5" font-family="Helvetica,sans-Serif" font-size="10.00">E57XmlParser.cpp</text>
</a>
</g>
</g>
<!-- Node1&#45;&gt;Node7 -->
<g id="edge6" class="edge">
<title>Node1&#45;&gt;Node7</title>
<path fill="none" stroke="midnightblue" d="M635.32,-53.83C674.41,-43.63 731.33,-28.78 766.85,-19.52"/>
<polygon fill="midnightblue" stroke="midnightblue" points="634.09,-50.53 625.3,-56.44 635.86,-57.31 634.09,-50.53"/>
</g>
<!-- Node8 -->
<g id="node8" class="node">
<title>Node8</title>
<g id="a_node8"><a xlink:href="../../d8/d08/_encoder_8cpp.html" target="_top" xlink:title=" ">
<polygon fill="white" stroke="black" points="867.5,-0.5 867.5,-19.5 939.5,-19.5 939.5,-0.5 867.5,-0.5"/>
<text text-anchor="middle" x="903.5" y="-7.5" font-family="Helvetica,sans-Serif" font-size="10.00">Encoder.cpp</text>
</a>
</g>
</g>
<!-- Node1&#45;&gt;Node8 -->
<g id="edge7" class="edge">
<title>Node1&#45;&gt;Node8</title>
<path fill="none" stroke="midnightblue" d="M655.68,-54.86C709.63,-46.06 789.27,-32.78 858.5,-20 861.32,-19.48 864.24,-18.93 867.17,-18.36"/>
<polygon fill="midnightblue" stroke="midnightblue" points="654.88,-51.44 645.57,-56.5 656.01,-58.35 654.88,-51.44"/>
</g>
</g>
</svg>
