<?xml version="1.0" encoding="UTF-8" standalone="no"?>
<!DOCTYPE svg PUBLIC "-//W3C//DTD SVG 1.1//EN"
 "http://www.w3.org/Graphics/SVG/1.1/DTD/svg11.dtd">
<!-- Generated by graphviz version 7.0.0 (20221023.0053)
 -->
<!-- Title: E57XmlParser.h Pages: 1 -->
<svg width="863pt" height="247pt"
 viewBox="0.00 0.00 863.00 247.00" xmlns="http://www.w3.org/2000/svg" xmlns:xlink="http://www.w3.org/1999/xlink">
<g id="graph0" class="graph" transform="scale(1 1) rotate(0) translate(4 243)">
<title>E57XmlParser.h</title>
<!-- Node1 -->
<g id="node1" class="node">
<title>Node1</title>
<g id="a_node1"><a xlink:title=" ">
<polygon fill="#999999" stroke="#666666" points="260,-239 173,-239 173,-220 260,-220 260,-239"/>
<text text-anchor="middle" x="216.5" y="-227" font-family="Helvetica,sans-Serif" font-size="10.00">E57XmlParser.h</text>
</a>
</g>
</g>
<!-- Node2 -->
<g id="node2" class="node">
<title>Node2</title>
<g id="a_node2"><a xlink:title=" ">
<polygon fill="#e0e0e0" stroke="#999999" points="41,-184 0,-184 0,-165 41,-165 41,-184"/>
<text text-anchor="middle" x="20.5" y="-172" font-family="Helvetica,sans-Serif" font-size="10.00">stack</text>
</a>
</g>
</g>
<!-- Node1&#45;&gt;Node2 -->
<g id="edge1" class="edge">
<title>Node1&#45;&gt;Node2</title>
<path fill="none" stroke="#63b8ff" d="M182.44,-219.52C151.09,-211.22 103.01,-198.41 52.32,-184.47"/>
<polygon fill="#63b8ff" stroke="#63b8ff" points="53.5,-181.17 42.93,-181.88 51.64,-187.92 53.5,-181.17"/>
</g>
<!-- Node3 -->
<g id="node3" class="node">
<title>Node3</title>
<g id="a_node3"><a xlink:title=" ">
<polygon fill="#e0e0e0" stroke="#999999" points="203.5,-184 59.5,-184 59.5,-165 203.5,-165 203.5,-184"/>
<text text-anchor="middle" x="131.5" y="-172" font-family="Helvetica,sans-Serif" font-size="10.00">xercesc/sax/InputSource.hpp</text>
</a>
</g>
</g>
<!-- Node1&#45;&gt;Node3 -->
<g id="edge2" class="edge">
<title>Node1&#45;&gt;Node3</title>
<path fill="none" stroke="#63b8ff" d="M202.08,-219.51C189.3,-211.54 170.4,-199.75 155.37,-190.38"/>
<polygon fill="#63b8ff" stroke="#63b8ff" points="157.33,-187.48 146.99,-185.16 153.62,-193.42 157.33,-187.48"/>
</g>
<!-- Node4 -->
<g id="node4" class="node">
<title>Node4</title>
<g id="a_node4"><a xlink:title=" ">
<polygon fill="#e0e0e0" stroke="#999999" points="383,-184 222,-184 222,-165 383,-165 383,-184"/>
<text text-anchor="middle" x="302.5" y="-172" font-family="Helvetica,sans-Serif" font-size="10.00">xercesc/sax2/DefaultHandler.hpp</text>
</a>
</g>
</g>
<!-- Node1&#45;&gt;Node4 -->
<g id="edge3" class="edge">
<title>Node1&#45;&gt;Node4</title>
<path fill="none" stroke="#63b8ff" d="M231.09,-219.51C244.02,-211.54 263.14,-199.75 278.35,-190.38"/>
<polygon fill="#63b8ff" stroke="#63b8ff" points="280.16,-193.38 286.84,-185.15 276.49,-187.42 280.16,-193.38"/>
</g>
<!-- Node5 -->
<g id="node5" class="node">
<title>Node5</title>
<g id="a_node5"><a xlink:href="../../db/d1f/_common_8h.html" target="_top" xlink:title=" ">
<polygon fill="white" stroke="#666666" points="466,-184 401,-184 401,-165 466,-165 466,-184"/>
<text text-anchor="middle" x="433.5" y="-172" font-family="Helvetica,sans-Serif" font-size="10.00">Common.h</text>
</a>
</g>
</g>
<!-- Node1&#45;&gt;Node5 -->
<g id="edge4" class="edge">
<title>Node1&#45;&gt;Node5</title>
<path fill="none" stroke="#63b8ff" d="M253.31,-219.51C291.03,-210.3 349.67,-195.97 389.74,-186.19"/>
<polygon fill="#63b8ff" stroke="#63b8ff" points="390.42,-189.62 399.3,-183.85 388.76,-182.82 390.42,-189.62"/>
</g>
<!-- Node6 -->
<g id="node6" class="node">
<title>Node6</title>
<g id="a_node6"><a xlink:title=" ">
<polygon fill="#e0e0e0" stroke="#999999" points="383.5,-129 353.5,-129 353.5,-110 383.5,-110 383.5,-129"/>
<text text-anchor="middle" x="368.5" y="-117" font-family="Helvetica,sans-Serif" font-size="10.00">set</text>
</a>
</g>
</g>
<!-- Node5&#45;&gt;Node6 -->
<g id="edge5" class="edge">
<title>Node5&#45;&gt;Node6</title>
<path fill="none" stroke="#63b8ff" d="M422.47,-164.51C413.08,-156.85 399.35,-145.66 388.09,-136.47"/>
<polygon fill="#63b8ff" stroke="#63b8ff" points="390.5,-133.92 380.54,-130.31 386.07,-139.35 390.5,-133.92"/>
</g>
<!-- Node7 -->
<g id="node7" class="node">
<title>Node7</title>
<g id="a_node7"><a xlink:title=" ">
<polygon fill="#e0e0e0" stroke="#999999" points="524,-19 483,-19 483,0 524,0 524,-19"/>
<text text-anchor="middle" x="503.5" y="-7" font-family="Helvetica,sans-Serif" font-size="10.00">string</text>
</a>
</g>
</g>
<!-- Node5&#45;&gt;Node7 -->
<g id="edge6" class="edge">
<title>Node5&#45;&gt;Node7</title>
<path fill="none" stroke="#63b8ff" d="M430.44,-164.74C423.78,-144.07 410.15,-91.25 430.5,-55 439.48,-39.02 456.78,-28.1 472.29,-21.08"/>
<polygon fill="#63b8ff" stroke="#63b8ff" points="473.3,-24.45 481.22,-17.4 470.64,-17.97 473.3,-24.45"/>
</g>
<!-- Node8 -->
<g id="node8" class="node">
<title>Node8</title>
<g id="a_node8"><a xlink:title=" ">
<polygon fill="#e0e0e0" stroke="#999999" points="483.5,-74 439.5,-74 439.5,-55 483.5,-55 483.5,-74"/>
<text text-anchor="middle" x="461.5" y="-62" font-family="Helvetica,sans-Serif" font-size="10.00">vector</text>
</a>
</g>
</g>
<!-- Node5&#45;&gt;Node8 -->
<g id="edge7" class="edge">
<title>Node5&#45;&gt;Node8</title>
<path fill="none" stroke="#63b8ff" d="M435.79,-164.66C440.24,-147.5 450.16,-109.26 456.29,-85.6"/>
<polygon fill="#63b8ff" stroke="#63b8ff" points="459.68,-86.48 458.8,-75.93 452.9,-84.73 459.68,-86.48"/>
</g>
<!-- Node9 -->
<g id="node9" class="node">
<title>Node9</title>
<g id="a_node9"><a xlink:href="../../d1/df2/_e57_format_8h.html" target="_top" xlink:title="Header file for the E57 API.">
<polygon fill="white" stroke="#666666" points="586,-129 513,-129 513,-110 586,-110 586,-129"/>
<text text-anchor="middle" x="549.5" y="-117" font-family="Helvetica,sans-Serif" font-size="10.00">E57Format.h</text>
</a>
</g>
</g>
<!-- Node5&#45;&gt;Node9 -->
<g id="edge8" class="edge">
<title>Node5&#45;&gt;Node9</title>
<path fill="none" stroke="#63b8ff" d="M453.18,-164.51C471.45,-156.16 498.91,-143.61 519.85,-134.05"/>
<polygon fill="#63b8ff" stroke="#63b8ff" points="521.1,-137.33 528.74,-129.99 518.19,-130.96 521.1,-137.33"/>
</g>
<!-- Node9&#45;&gt;Node8 -->
<g id="edge12" class="edge">
<title>Node9&#45;&gt;Node8</title>
<path fill="none" stroke="#63b8ff" d="M534.57,-109.51C521.22,-101.47 501.39,-89.53 485.76,-80.11"/>
<polygon fill="#63b8ff" stroke="#63b8ff" points="487.88,-77.3 477.5,-75.14 484.26,-83.3 487.88,-77.3"/>
</g>
<!-- Node10 -->
<g id="node10" class="node">
<title>Node10</title>
<g id="a_node10"><a xlink:title=" ">
<polygon fill="#e0e0e0" stroke="#999999" points="543,-74 502,-74 502,-55 543,-55 543,-74"/>
<text text-anchor="middle" x="522.5" y="-62" font-family="Helvetica,sans-Serif" font-size="10.00">cfloat</text>
</a>
</g>
</g>
<!-- Node9&#45;&gt;Node10 -->
<g id="edge9" class="edge">
<title>Node9&#45;&gt;Node10</title>
<path fill="none" stroke="#63b8ff" d="M545.04,-109.75C541.55,-102.88 536.55,-93.08 532.15,-84.45"/>
<polygon fill="#63b8ff" stroke="#63b8ff" points="535.4,-83.11 527.74,-75.79 529.16,-86.29 535.4,-83.11"/>
</g>
<!-- Node11 -->
<g id="node11" class="node">
<title>Node11</title>
<g id="a_node11"><a xlink:title=" ">
<polygon fill="#e0e0e0" stroke="#999999" points="607.5,-74 561.5,-74 561.5,-55 607.5,-55 607.5,-74"/>
<text text-anchor="middle" x="584.5" y="-62" font-family="Helvetica,sans-Serif" font-size="10.00">cstdint</text>
</a>
</g>
</g>
<!-- Node9&#45;&gt;Node11 -->
<g id="edge10" class="edge">
<title>Node9&#45;&gt;Node11</title>
<path fill="none" stroke="#63b8ff" d="M555.28,-109.75C559.91,-102.73 566.57,-92.64 572.37,-83.87"/>
<polygon fill="#63b8ff" stroke="#63b8ff" points="575.17,-85.98 577.76,-75.71 569.33,-82.12 575.17,-85.98"/>
</g>
<!-- Node12 -->
<g id="node12" class="node">
<title>Node12</title>
<g id="a_node12"><a xlink:title=" ">
<polygon fill="#e0e0e0" stroke="#999999" points="677.5,-74 625.5,-74 625.5,-55 677.5,-55 677.5,-74"/>
<text text-anchor="middle" x="651.5" y="-62" font-family="Helvetica,sans-Serif" font-size="10.00">memory</text>
</a>
</g>
</g>
<!-- Node9&#45;&gt;Node12 -->
<g id="edge11" class="edge">
<title>Node9&#45;&gt;Node12</title>
<path fill="none" stroke="#63b8ff" d="M566.8,-109.51C582.58,-101.31 606.14,-89.07 624.41,-79.58"/>
<polygon fill="#63b8ff" stroke="#63b8ff" points="625.85,-82.77 633.11,-75.06 622.62,-76.56 625.85,-82.77"/>
</g>
<!-- Node13 -->
<g id="node13" class="node">
<title>Node13</title>
<g id="a_node13"><a xlink:href="../../d4/d6e/_e57_exception_8h.html" target="_top" xlink:title="Exception handling for E57 API.">
<polygon fill="white" stroke="#666666" points="781.5,-74 695.5,-74 695.5,-55 781.5,-55 781.5,-74"/>
<text text-anchor="middle" x="738.5" y="-62" font-family="Helvetica,sans-Serif" font-size="10.00">E57Exception.h</text>
</a>
</g>
</g>
<!-- Node9&#45;&gt;Node13 -->
<g id="edge13" class="edge">
<title>Node9&#45;&gt;Node13</title>
<path fill="none" stroke="#63b8ff" d="M581.56,-109.51C613.02,-100.69 661.18,-87.18 695.85,-77.46"/>
<polygon fill="#63b8ff" stroke="#63b8ff" points="696.46,-80.93 705.14,-74.85 694.57,-74.19 696.46,-80.93"/>
</g>
<!-- Node13&#45;&gt;Node7 -->
<g id="edge16" class="edge">
<title>Node13&#45;&gt;Node7</title>
<path fill="none" stroke="#63b8ff" d="M698.64,-54.51C652.55,-44.12 577.63,-27.22 535.29,-17.67"/>
<polygon fill="#63b8ff" stroke="#63b8ff" points="536.26,-14.3 525.73,-15.51 534.72,-21.13 536.26,-14.3"/>
</g>
<!-- Node14 -->
<g id="node14" class="node">
<title>Node14</title>
<g id="a_node14"><a xlink:title=" ">
<polygon fill="#e0e0e0" stroke="#999999" points="693,-19 634,-19 634,0 693,0 693,-19"/>
<text text-anchor="middle" x="663.5" y="-7" font-family="Helvetica,sans-Serif" font-size="10.00">exception</text>
</a>
</g>
</g>
<!-- Node13&#45;&gt;Node14 -->
<g id="edge14" class="edge">
<title>Node13&#45;&gt;Node14</title>
<path fill="none" stroke="#63b8ff" d="M725.78,-54.51C714.72,-46.7 698.46,-35.21 685.33,-25.93"/>
<polygon fill="#63b8ff" stroke="#63b8ff" points="687.46,-23.14 677.27,-20.23 683.42,-28.86 687.46,-23.14"/>
</g>
<!-- Node15 -->
<g id="node15" class="node">
<title>Node15</title>
<g id="a_node15"><a xlink:title=" ">
<polygon fill="#e0e0e0" stroke="#999999" points="765.5,-19 711.5,-19 711.5,0 765.5,0 765.5,-19"/>
<text text-anchor="middle" x="738.5" y="-7" font-family="Helvetica,sans-Serif" font-size="10.00">iostream</text>
</a>
</g>
</g>
<!-- Node13&#45;&gt;Node15 -->
<g id="edge15" class="edge">
<title>Node13&#45;&gt;Node15</title>
<path fill="none" stroke="#63b8ff" d="M738.5,-54.75C738.5,-48.27 738.5,-39.16 738.5,-30.9"/>
<polygon fill="#63b8ff" stroke="#63b8ff" points="742,-30.96 738.5,-20.96 735,-30.96 742,-30.96"/>
</g>
<!-- Node16 -->
<g id="node16" class="node">
<title>Node16</title>
<g id="a_node16"><a xlink:title=" ">
<polygon fill="#e0e0e0" stroke="#999999" points="855,-19 784,-19 784,0 855,0 855,-19"/>
<text text-anchor="middle" x="819.5" y="-7" font-family="Helvetica,sans-Serif" font-size="10.00">E57Export.h</text>
</a>
</g>
</g>
<!-- Node13&#45;&gt;Node16 -->
<g id="edge17" class="edge">
<title>Node13&#45;&gt;Node16</title>
<path fill="none" stroke="#63b8ff" d="M752.24,-54.51C764.3,-46.62 782.09,-34.98 796.34,-25.65"/>
<polygon fill="#63b8ff" stroke="#63b8ff" points="798.24,-28.59 804.7,-20.19 794.41,-22.73 798.24,-28.59"/>
</g>
</g>
</svg>
