<?xml version="1.0" encoding="UTF-8" standalone="no"?>
<!DOCTYPE svg PUBLIC "-//W3C//DTD SVG 1.1//EN"
 "http://www.w3.org/Graphics/SVG/1.1/DTD/svg11.dtd">
<!-- Generated by graphviz version 7.0.0 (20221023.0053)
 -->
<!-- Title: e57::CompressedVectorSectionHeader Pages: 1 -->
<svg width="203pt" height="126pt"
 viewBox="0.00 0.00 202.50 126.00" xmlns="http://www.w3.org/2000/svg" xmlns:xlink="http://www.w3.org/1999/xlink">
<g id="graph0" class="graph" transform="scale(1 1) rotate(0) translate(4 122)">
<title>e57::CompressedVectorSectionHeader</title>
<!-- Node1 -->
<g id="node1" class="node">
<title>Node1</title>
<g id="a_node1"><a xlink:title=" ">
<polygon fill="#999999" stroke="#666666" points="155,-30 0,-30 0,0 155,0 155,-30"/>
<text text-anchor="start" x="8" y="-18" font-family="Helvetica,sans-Serif" font-size="10.00">e57::CompressedVectorSection</text>
<text text-anchor="middle" x="77.5" y="-7" font-family="Helvetica,sans-Serif" font-size="10.00">Header</text>
</a>
</g>
</g>
<!-- Node2 -->
<g id="node2" class="node">
<title>Node2</title>
<g id="a_node2"><a xlink:title=" ">
<polygon fill="white" stroke="#666666" points="66.5,-118 20.5,-118 20.5,-99 66.5,-99 66.5,-118"/>
<text text-anchor="middle" x="43.5" y="-106" font-family="Helvetica,sans-Serif" font-size="10.00">uint8_t</text>
</a>
</g>
</g>
<!-- Node2&#45;&gt;Node1 -->
<g id="edge1" class="edge">
<title>Node2&#45;&gt;Node1</title>
<path fill="none" stroke="#9a32cd" stroke-dasharray="5,2" d="M40.09,-87.2C38.99,-75.3 39.19,-60.25 44.5,-48 47.42,-41.26 52.5,-35.24 57.82,-30.28"/>
<polygon fill="#9a32cd" stroke="#9a32cd" points="36.62,-87.64 41.41,-97.09 43.56,-86.71 36.62,-87.64"/>
<text text-anchor="middle" x="67.5" y="-67.5" font-family="Helvetica,sans-Serif" font-size="10.00"> reserved1</text>
<text text-anchor="middle" x="67.5" y="-56.5" font-family="Helvetica,sans-Serif" font-size="10.00">sectionId</text>
</g>
<!-- Node3 -->
<g id="node3" class="node">
<title>Node3</title>
<g id="a_node3"><a xlink:title=" ">
<polygon fill="white" stroke="#666666" points="138,-118 87,-118 87,-99 138,-99 138,-118"/>
<text text-anchor="middle" x="112.5" y="-106" font-family="Helvetica,sans-Serif" font-size="10.00">uint64_t</text>
</a>
</g>
</g>
<!-- Node3&#45;&gt;Node1 -->
<g id="edge2" class="edge">
<title>Node3&#45;&gt;Node1</title>
<path fill="none" stroke="#9a32cd" stroke-dasharray="5,2" d="M105.44,-87.92C101.2,-76.28 95.64,-61.26 90.5,-48 88.24,-42.19 85.68,-35.81 83.42,-30.3"/>
<polygon fill="#9a32cd" stroke="#9a32cd" points="102.09,-88.96 108.79,-97.17 108.67,-86.58 102.09,-88.96"/>
<text text-anchor="middle" x="148.5" y="-73" font-family="Helvetica,sans-Serif" font-size="10.00"> dataPhysicalOffset</text>
<text text-anchor="middle" x="148.5" y="-62" font-family="Helvetica,sans-Serif" font-size="10.00">indexPhysicalOffset</text>
<text text-anchor="middle" x="148.5" y="-51" font-family="Helvetica,sans-Serif" font-size="10.00">sectionLogicalLength</text>
</g>
</g>
</svg>
